<svg xmlns="http://www.w3.org/2000/svg" xmlns:xlink="http://www.w3.org/1999/xlink" width="20.41mm" height="130.69mm" viewBox="0 0 57.85 370.47">
  <defs>
    <clipPath id="clip-path" transform="translate(0)">
      <rect x="15.02" y="33.3" width="27.8" height="25.62" style="fill: none"/>
    </clipPath>
    <clipPath id="clip-path-3" transform="translate(0)">
      <rect x="15.02" y="80.64" width="27.8" height="25.62" style="fill: none"/>
    </clipPath>
  </defs>
  <g id="faceplate">
    <rect x="0.13" y="0.13" width="57.6" height="364.25" style="fill: #ededed;stroke: #9d9d9e;stroke-miterlimit: 10;stroke-width: 0.25px"/>
    <path d="M44.73,261.18c0-8.08-7-14.63-15.59-14.63s-15.59,6.55-15.59,14.63v55.1h0v19.85a5.68,5.68,0,0,0,5.67,5.66H39.06a5.68,5.68,0,0,0,5.67-5.66V316.28h0Z" transform="translate(0)"/>
    <g>
      <path d="M25.71,357.56H23.83l-.5-1.51H20.68l-.51,1.51H18.28l2.7-7.44h2Zm-2.81-2.8L22,352l-.9,2.72Z" transform="translate(0)"/>
      <path d="M32.37,351.93H30.14v5.63H28.3v-5.63H26.06v-1.81h6.31Z" transform="translate(0)"/>
      <path d="M39.3,351.93H37.06v5.63H35.23v-5.63H33v-1.81H39.3Z" transform="translate(0)"/>
    </g>
    <path d="M13.84,165.79a14.86,14.86,0,0,1,15.09-14.63A14.86,14.86,0,0,1,44,165.79V324.44a14.86,14.86,0,0,1-15.09,14.63,14.86,14.86,0,0,1-15.08-14.63Z" transform="translate(0)" style="fill: none;stroke: #000;stroke-width: 1.05091px"/>
    <g>
      <path d="M24.83,194H23.39v-5.41h1.44Z" transform="translate(0)"/>
      <path d="M29.29,194H28.05v-2.14a1.42,1.42,0,0,0-.1-.57.39.39,0,0,0-.41-.25.5.5,0,0,0-.27.07,1,1,0,0,0-.2.16l-.16.2-.12.2V194H25.55v-4h1.24v.57a1.73,1.73,0,0,1,.58-.5A1.45,1.45,0,0,1,28,190q1.26,0,1.26,1.71Z" transform="translate(0)"/>
      <path d="M33.9,194H32.6v-5.41h1.3Z" transform="translate(0)"/>
    </g>
    <g>
      <path d="M24.72,240.18H23.28v-5.41h1.44Z" transform="translate(0)"/>
      <path d="M29.17,240.18H27.93V238a1.62,1.62,0,0,0-.09-.57.39.39,0,0,0-.41-.25.57.57,0,0,0-.27.07.83.83,0,0,0-.21.16l-.15.2-.13.2v2.33H25.44v-4h1.23v.57a1.87,1.87,0,0,1,.59-.5,1.41,1.41,0,0,1,.65-.14q1.26,0,1.26,1.71Z" transform="translate(0)"/>
      <path d="M35,240.18H31.33v-.1c.14-.16.3-.34.47-.55l.64-.85c.12-.16.24-.31.34-.47a3.68,3.68,0,0,0,.28-.45,2.88,2.88,0,0,0,.19-.47,2,2,0,0,0,.08-.54,1,1,0,0,0-.19-.61.62.62,0,0,0-.49-.23,1.57,1.57,0,0,0-1.16.69v-1.28l.33-.24a2.14,2.14,0,0,1,.3-.17,2,2,0,0,1,.91-.21,1.56,1.56,0,0,1,.8.2,1.42,1.42,0,0,1,.56.58,1.8,1.8,0,0,1,.2.89,2.41,2.41,0,0,1-.09.67,3,3,0,0,1-.19.5L34,238a8.69,8.69,0,0,1-.63.95H35Z" transform="translate(0)"/>
    </g>
    <g>
      <path d="M25.24,334.53a3.26,3.26,0,0,1-.31,1.4,2.42,2.42,0,0,1-.92,1,3.11,3.11,0,0,1-3,0,2.39,2.39,0,0,1-.9-1,3.19,3.19,0,0,1-.3-1.37,3.29,3.29,0,0,1,.29-1.36,2.38,2.38,0,0,1,.91-1,2.74,2.74,0,0,1,1.5-.38,3,3,0,0,1,1.18.22,2.42,2.42,0,0,1,.85.6,2.6,2.6,0,0,1,.5.89A3.15,3.15,0,0,1,25.24,334.53Zm-1.47,0a1.87,1.87,0,0,0-.08-.55,1.11,1.11,0,0,0-.24-.44,1.05,1.05,0,0,0-.39-.29,1.25,1.25,0,0,0-.53-.1,1.12,1.12,0,0,0-.91.38,1.47,1.47,0,0,0-.33,1,1.5,1.5,0,0,0,.33,1,1.14,1.14,0,0,0,.91.38,1.28,1.28,0,0,0,.67-.17,1.17,1.17,0,0,0,.43-.5A1.81,1.81,0,0,0,23.77,334.53Z" transform="translate(0)" style="fill: #fff"/>
      <path d="M29.33,337.24H28.09v-.56a2,2,0,0,1-.55.48,1.47,1.47,0,0,1-.69.15,1,1,0,0,1-1-.52,2.84,2.84,0,0,1-.24-1.19v-2.33h1.24v2.15a1.4,1.4,0,0,0,.1.56.39.39,0,0,0,.41.25.55.55,0,0,0,.43-.18,2.64,2.64,0,0,0,.32-.45v-2.33h1.24Z" transform="translate(0)" style="fill: #fff"/>
      <path d="M32.6,337a2.9,2.9,0,0,1-.53.21,2.48,2.48,0,0,1-.65.09c-.89,0-1.33-.49-1.33-1.48v-1.59h-.56V334l1.66-1.92h.14v1.19h1.18v1H31.33v1.28a1.84,1.84,0,0,0,0,.36.4.4,0,0,0,.14.23.5.5,0,0,0,.33.09,1.76,1.76,0,0,0,.78-.28Z" transform="translate(0)" style="fill: #fff"/>
      <path d="M38.19,337.24H34.57v-.1l.46-.55.64-.85c.12-.16.24-.32.34-.47a3.68,3.68,0,0,0,.28-.45,2.88,2.88,0,0,0,.19-.47,2,2,0,0,0,.08-.54.93.93,0,0,0-.19-.61.62.62,0,0,0-.49-.23,1.59,1.59,0,0,0-1.16.69v-1.28l.33-.24a2.14,2.14,0,0,1,.3-.17,2,2,0,0,1,.91-.21,1.56,1.56,0,0,1,.8.2,1.42,1.42,0,0,1,.56.58,1.8,1.8,0,0,1,.2.89,2.41,2.41,0,0,1-.09.67,2.29,2.29,0,0,1-.19.5l-.27.48a8.69,8.69,0,0,1-.63.95h1.55Z" transform="translate(0)" style="fill: #fff"/>
    </g>
    <g id="pips_-_fewest" data-name="pips - fewest">
      <g style="clip-path: url(#clip-path)">
        <g style="clip-path: url(#clip-path)">
          <path d="M34.62,36.08l.71-1.24a13.86,13.86,0,0,0-5.77-1.54v1.43a12.39,12.39,0,0,1,5.06,1.35" transform="translate(0)"/>
          <path d="M39.41,40.41l1.24-.71a14,14,0,0,0-4.23-4.22l-.71,1.23a12.55,12.55,0,0,1,3.7,3.7" transform="translate(0)"/>
          <path d="M22.14,36.71l-.71-1.23A14.07,14.07,0,0,0,17.2,39.7l1.24.71a12.67,12.67,0,0,1,3.7-3.7" transform="translate(0)"/>
          <path d="M41.4,46.57h1.43a13.83,13.83,0,0,0-1.55-5.77l-1.23.71a12.47,12.47,0,0,1,1.35,5.06" transform="translate(0)"/>
          <path d="M28.29,34.73V33.3a13.86,13.86,0,0,0-5.77,1.54l.71,1.24a12.39,12.39,0,0,1,5.06-1.35" transform="translate(0)"/>
          <path d="M18.44,54l-1.24.71a14,14,0,0,0,4.23,4.22l.71-1.23a12.55,12.55,0,0,1-3.7-3.7" transform="translate(0)"/>
          <path d="M35.71,57.69l.71,1.23a14,14,0,0,0,4.23-4.22L39.41,54a12.55,12.55,0,0,1-3.7,3.7" transform="translate(0)"/>
          <path d="M41.4,47.83a12.47,12.47,0,0,1-1.35,5.06l1.23.71a13.83,13.83,0,0,0,1.55-5.77Z" transform="translate(0)"/>
          <path d="M16.45,47.83H15a13.83,13.83,0,0,0,1.55,5.77l1.23-.71a12.47,12.47,0,0,1-1.35-5.06" transform="translate(0)"/>
          <path d="M17.8,41.51l-1.23-.71A13.83,13.83,0,0,0,15,46.57h1.43a12.47,12.47,0,0,1,1.35-5.06" transform="translate(0)"/>
        </g>
      </g>
    </g>
    <g>
      <path d="M19.42,69.9H14.9V63.13h1.79v5.15h2.73Z" transform="translate(0)"/>
      <path d="M24.35,67.84H21.27a1.21,1.21,0,0,0,.44.74,1.23,1.23,0,0,0,.8.29,3.68,3.68,0,0,0,1.73-.5v1.09a4,4,0,0,1-.83.37,4.17,4.17,0,0,1-1.23.16,2.56,2.56,0,0,1-1.37-.34,2.18,2.18,0,0,1-.85-.93,3,3,0,0,1-.28-1.33A2.93,2.93,0,0,1,20,66.08a2.08,2.08,0,0,1,.85-.91,2.65,2.65,0,0,1,1.37-.33,2.22,2.22,0,0,1,1,.26A2.07,2.07,0,0,1,24,66a3.22,3.22,0,0,1,.32,1.53ZM22.9,67a1.25,1.25,0,0,0-.21-.76.7.7,0,0,0-.6-.29.79.79,0,0,0-.63.29,1.17,1.17,0,0,0-.24.76Z" transform="translate(0)"/>
      <path d="M29.37,64.93l-2,5H26.23l-1.94-5H26l.91,2.6,1-2.6Z" transform="translate(0)"/>
      <path d="M34,67.84H30.94a1.27,1.27,0,0,0,1.24,1,3.68,3.68,0,0,0,1.73-.5v1.09a4.19,4.19,0,0,1-.82.37,4.27,4.27,0,0,1-1.23.16,2.62,2.62,0,0,1-1.38-.34,2.18,2.18,0,0,1-.85-.93,3,3,0,0,1-.28-1.33,2.93,2.93,0,0,1,.28-1.31,2.08,2.08,0,0,1,.85-.91,2.71,2.71,0,0,1,1.38-.33,2.21,2.21,0,0,1,1,.26,2,2,0,0,1,.82.86A3.22,3.22,0,0,1,34,67.49ZM32.57,67a1.25,1.25,0,0,0-.21-.76.7.7,0,0,0-.6-.29.75.75,0,0,0-.62.29,1.17,1.17,0,0,0-.24.76Z" transform="translate(0)"/>
      <path d="M36.06,69.9H34.51V63.13h1.55Z" transform="translate(0)"/>
      <path d="M42,69.9H40.33V63.13H42Z" transform="translate(0)"/>
    </g>
    <g>
      <path d="M34.54,6.76l-5.53,7v-6a1.27,1.27,0,0,0-.64-1.17.89.89,0,0,0-1.13.29L20,16.13a1.49,1.49,0,0,0,0,1.79.9.9,0,0,0,1.46,0l5.5-7v6a1.29,1.29,0,0,0,.64,1.18.92.92,0,0,0,1.14-.3l5.53-7v6.15a1.05,1.05,0,1,0,2.06,0V7.64a1.28,1.28,0,0,0-.65-1.18A.91.91,0,0,0,34.54,6.76Z" transform="translate(0)" style="stroke: #000;stroke-width: 0.6000000000000001px"/>
      <path d="M20,6.68l-4.81,6.13a1.47,1.47,0,0,0,0,1.79.9.9,0,0,0,1.46,0l3.05-3.87V17a1.17,1.17,0,0,0,1,1.26,1.17,1.17,0,0,0,1-1.26V7.56a1.29,1.29,0,0,0-.65-1.17A.91.91,0,0,0,20,6.68Z" transform="translate(0)" style="stroke: #000;stroke-width: 0.6000000000000001px"/>
      <path d="M42.91,11.2a1.05,1.05,0,0,0-.95-.77h-2.1l1.53-1.95s.8-1.17.1-1.82a1.27,1.27,0,0,0-1.58.06l-3.23,4.1a1.45,1.45,0,0,0-.2,1.37,1,1,0,0,0,1,.78h2.1L37,16.14s-1,1.13-.27,1.89,1.75-.14,1.75-.14l4.18-5.31A1.5,1.5,0,0,0,42.91,11.2Z" transform="translate(0)" style="stroke: #000;stroke-width: 0.6000000000000001px"/>
    </g>
    <g>
      <path d="M25.23,287.28a3.21,3.21,0,0,1-.3,1.39,2.42,2.42,0,0,1-.92,1,3.08,3.08,0,0,1-3,0,2.51,2.51,0,0,1-.91-1,3.36,3.36,0,0,1,0-2.73,2.42,2.42,0,0,1,.91-1,2.75,2.75,0,0,1,1.5-.39,3,3,0,0,1,1.18.22,2.42,2.42,0,0,1,.85.6,2.6,2.6,0,0,1,.5.89A3.16,3.16,0,0,1,25.23,287.28Zm-1.46,0a1.94,1.94,0,0,0-.08-.56,1.11,1.11,0,0,0-.24-.44,1.05,1.05,0,0,0-.39-.29,1.25,1.25,0,0,0-.53-.1,1.15,1.15,0,0,0-.91.38,1.7,1.7,0,0,0,0,2,1.14,1.14,0,0,0,.91.39,1.2,1.2,0,0,0,.67-.18,1.14,1.14,0,0,0,.43-.49A1.81,1.81,0,0,0,23.77,287.28Z" transform="translate(0)" style="fill: #fff"/>
      <path d="M29.33,290H28.09v-.57a2,2,0,0,1-.55.48,1.46,1.46,0,0,1-.69.16,1,1,0,0,1-1-.53,2.8,2.8,0,0,1-.24-1.18V286h1.24v2.15a1.48,1.48,0,0,0,.1.57.39.39,0,0,0,.41.24.58.58,0,0,0,.43-.17,3.8,3.8,0,0,0,.32-.45V286h1.24Z" transform="translate(0)" style="fill: #fff"/>
      <path d="M32.6,289.76a3,3,0,0,1-.53.2,2.5,2.5,0,0,1-.65.1c-.89,0-1.33-.5-1.33-1.49V287h-.56v-.25l1.66-1.92h.14V286h1.18v1H31.33v1.27a1.84,1.84,0,0,0,0,.36.37.37,0,0,0,.14.23.5.5,0,0,0,.33.09,1.64,1.64,0,0,0,.78-.28Z" transform="translate(0)" style="fill: #fff"/>
      <path d="M37,290H35.71v-5.42H37Z" transform="translate(0)" style="fill: #fff"/>
    </g>
    <g id="pips_-_fewest-2" data-name="pips - fewest">
      <g style="clip-path: url(#clip-path-3)">
        <g style="clip-path: url(#clip-path-3)">
          <path d="M34.62,83.42l.71-1.24a13.86,13.86,0,0,0-5.77-1.54v1.42a12.56,12.56,0,0,1,5.06,1.36" transform="translate(0)"/>
          <path d="M39.41,87.75,40.65,87a14,14,0,0,0-4.23-4.22l-.71,1.23a12.55,12.55,0,0,1,3.7,3.7" transform="translate(0)"/>
          <path d="M22.14,84.05l-.71-1.23A13.85,13.85,0,0,0,17.2,87l1.24.71a12.55,12.55,0,0,1,3.7-3.7" transform="translate(0)"/>
          <path d="M41.4,93.91h1.43a13.83,13.83,0,0,0-1.55-5.77l-1.23.71a12.47,12.47,0,0,1,1.35,5.06" transform="translate(0)"/>
          <path d="M28.29,82.06V80.64a13.86,13.86,0,0,0-5.77,1.54l.71,1.24a12.56,12.56,0,0,1,5.06-1.36" transform="translate(0)"/>
          <path d="M18.44,101.32,17.2,102a14.07,14.07,0,0,0,4.23,4.22l.71-1.23a12.58,12.58,0,0,1-3.7-3.71" transform="translate(0)"/>
          <path d="M35.71,105l.71,1.23A14.07,14.07,0,0,0,40.65,102l-1.24-.72a12.58,12.58,0,0,1-3.7,3.71" transform="translate(0)"/>
          <path d="M41.4,95.17a12.47,12.47,0,0,1-1.35,5.06l1.23.71a13.83,13.83,0,0,0,1.55-5.77Z" transform="translate(0)"/>
          <path d="M16.45,95.17H15a13.83,13.83,0,0,0,1.55,5.77l1.23-.71a12.47,12.47,0,0,1-1.35-5.06" transform="translate(0)"/>
          <path d="M17.8,88.85l-1.23-.71A13.83,13.83,0,0,0,15,93.91h1.43a12.47,12.47,0,0,1,1.35-5.06" transform="translate(0)"/>
        </g>
      </g>
    </g>
    <g>
      <path d="M19.39,118.11H14.86v-6.77h1.8v5.14h2.73Z" transform="translate(0)"/>
      <path d="M24.31,116.05H21.23a1.29,1.29,0,0,0,1.24,1,3.77,3.77,0,0,0,1.73-.5v1.09a4.56,4.56,0,0,1-.82.36,3.86,3.86,0,0,1-1.23.16,2.62,2.62,0,0,1-1.38-.34,2.18,2.18,0,0,1-.85-.93,3.25,3.25,0,0,1,0-2.64,2.11,2.11,0,0,1,.85-.9,2.71,2.71,0,0,1,1.38-.33,2.13,2.13,0,0,1,1,.26,2,2,0,0,1,.81.85,3.16,3.16,0,0,1,.32,1.53Zm-1.45-.87a1.28,1.28,0,0,0-.21-.77.7.7,0,0,0-.6-.28.75.75,0,0,0-.62.29,1.14,1.14,0,0,0-.24.76Z" transform="translate(0)"/>
      <path d="M29.33,113.13l-2,5H26.2l-1.95-5h1.67l.9,2.61,1-2.61Z" transform="translate(0)"/>
      <path d="M34,116.05H30.91a1.21,1.21,0,0,0,.44.74,1.23,1.23,0,0,0,.8.29,3.77,3.77,0,0,0,1.72-.5v1.09a4.56,4.56,0,0,1-.82.36,3.86,3.86,0,0,1-1.23.16,2.56,2.56,0,0,1-1.37-.34,2.12,2.12,0,0,1-.85-.93,3.25,3.25,0,0,1,0-2.64,2,2,0,0,1,.85-.9,2.65,2.65,0,0,1,1.37-.33,2.1,2.1,0,0,1,1,.26,2,2,0,0,1,.82.85,3.28,3.28,0,0,1,.32,1.53Zm-1.46-.87a1.28,1.28,0,0,0-.21-.77.67.67,0,0,0-.59-.28.76.76,0,0,0-.63.29,1.14,1.14,0,0,0-.24.76Z" transform="translate(0)"/>
      <path d="M36,118.11H34.47v-6.77H36Z" transform="translate(0)"/>
      <path d="M43.39,118.11H38.86V118c.18-.19.37-.42.58-.68l.81-1.06c.15-.2.29-.4.42-.59a5.08,5.08,0,0,0,.35-.56,4.17,4.17,0,0,0,.24-.6,2.53,2.53,0,0,0,.1-.67,1.17,1.17,0,0,0-.24-.76.76.76,0,0,0-.61-.29,2,2,0,0,0-1.45.86V112c.17-.13.3-.23.41-.3a2.71,2.71,0,0,1,.38-.22,3.25,3.25,0,0,1,.51-.19,2.48,2.48,0,0,1,.63-.07,2,2,0,0,1,1,.25,1.74,1.74,0,0,1,.7.72,2.34,2.34,0,0,1,.26,1.12,2.82,2.82,0,0,1-.12.83,3.5,3.5,0,0,1-.24.63q-.12.24-.33.6c-.25.41-.51.81-.79,1.19h1.93Z" transform="translate(0)"/>
    </g>
  </g>
  <g id="components">
    <circle id="Out_2" data-name="Out 2" cx="28.93" cy="312.29" r="11.34" style="fill: blue"/>
    <circle id="Out_1" data-name="Out 1" cx="28.93" cy="263.68" r="11.34" style="fill: blue"/>
    <circle id="In_2" data-name="In 2" cx="28.93" cy="216.11" r="11.34" style="fill: lime"/>
    <circle id="In_1" data-name="In 1" cx="28.93" cy="168.85" r="11.34" style="fill: lime"/>
    <circle id="Level_2" data-name="Level 2" cx="28.92" cy="94.2" r="8.5" style="fill: #ff0080"/>
    <circle id="Level_1" data-name="Level 1" cx="28.92" cy="46.99" r="8.5" style="fill: #ff0080"/>
    <text id="slug" transform="translate(33.97 369.72)" style="font-size: 3px;font-family: MyriadPro-Regular, Myriad Pro"><tspan style="letter-spacing: -0.010091145833333334em">A</tspan><tspan x="1.81" y="0">tt</tspan></text>
    <text id="modulename" transform="translate(44.01 369.72)" style="font-size: 3px;font-family: MyriadPro-Regular, Myriad Pro"><tspan style="letter-spacing: -0.010091145833333334em">A</tspan><tspan x="1.81" y="0">t</tspan><tspan x="2.8" y="0" style="letter-spacing: -0.005859375em">t</tspan><tspan x="3.77" y="0">enu</tspan><tspan x="8.59" y="0" style="letter-spacing: -0.00390625em">a</tspan><tspan x="10.03" y="0" style="letter-spacing: -0.006184895833333333em">t</tspan><tspan x="11" y="0">or</tspan></text>
  </g>
</svg>
