<svg xmlns="http://www.w3.org/2000/svg" width="26.05mm" height="131.98mm" viewBox="0 0 73.83 374.11">
  <g id="faceplate">
    <rect x="0.67" y="0.13" width="42.52" height="364.25" style="fill: #ededed;stroke: #231f20;stroke-width: 0.25px"/>
    <polyline points="14.87 4.93 14.56 5.17 14.27 5.44 14 5.73 13.76 6.04 13.55 6.37 13.37 6.72 13.22 7.08 13.1 7.46 13.02 7.84 12.97 8.23 12.95 8.62 12.97 9.01 13.02 9.4 13.1 9.79 13.22 10.16 13.37 10.52 13.55 10.87 13.76 11.2 14 11.51 14.27 11.8 14.56 12.07 14.87 12.31 15.2 12.52 15.55 12.7 15.91 12.85 16.29 12.97 16.67 13.05 17.06 13.1 17.45 13.12 26.45 13.12 26.84 13.1 27.23 13.05 27.61 12.97 27.99 12.85 28.35 12.7 28.7 12.52 29.03 12.31 29.34 12.07 29.63 11.8 29.9 11.51 30.14 11.2 30.35 10.87 30.53 10.52 30.68 10.16 30.8 9.79 30.88 9.4 30.93 9.01 30.95 8.62 30.93 8.23 30.88 7.84 30.8 7.46 30.68 7.08 30.53 6.72 30.35 6.37 30.14 6.04 29.9 5.73 29.63 5.44 29.34 5.17 29.03 4.93 28.7 4.72 28.35 4.54 27.99 4.39 27.61 4.27 27.23 4.19 26.84 4.14 26.45 4.12"/>
    <polyline points="16.67 4.19 16.29 4.27 15.91 4.39"/>
    <g>
      <g>
        <g>
          <path d="M26.8,333.2l-5.22,6.64v-5.69A1.22,1.22,0,0,0,21,333a.86.86,0,0,0-1.07.28L13,342.05a1.37,1.37,0,0,0,0,1.68.85.85,0,0,0,1.38,0l5.19-6.59v5.69a1.21,1.21,0,0,0,.61,1.1.85.85,0,0,0,1.07-.27L26.53,337v5.81a1,1,0,1,0,1.95,0V334a1.22,1.22,0,0,0-.61-1.11A.86.86,0,0,0,26.8,333.2Z" transform="translate(0.17 -0.38)" style="fill: #231f20"/>
          <path d="M13.74,344.43a1.25,1.25,0,0,1-1-.46,1.76,1.76,0,0,1,0-2.15l6.87-8.73a1.21,1.21,0,0,1,1.51-.38,1.6,1.6,0,0,1,.81,1.44v4.64L26.52,333a1.22,1.22,0,0,1,1.51-.39,1.6,1.6,0,0,1,.81,1.44v8.77a1.36,1.36,0,1,1-2.68,0V338l-4.57,5.81a1.2,1.2,0,0,1-1.51.38,1.56,1.56,0,0,1-.82-1.43v-4.64l-4.53,5.77a1.29,1.29,0,0,1-1,.5Zm6.86-11.12a.52.52,0,0,0-.41.23l-6.87,8.73a1,1,0,0,0,0,1.23.52.52,0,0,0,.4.2.55.55,0,0,0,.42-.22l5.18-6.6.65-.82v6.74a.88.88,0,0,0,.41.78.49.49,0,0,0,.62-.18l5.87-7.46v6.86c0,.46.28.83.61.83s.61-.37.61-.83V334a.85.85,0,0,0-.41-.78.48.48,0,0,0-.61.17h0l-5.88,7.47v-6.74a.88.88,0,0,0-.4-.79A.54.54,0,0,0,20.6,333.31Z" transform="translate(0.17 -0.38)" style="fill: #231f20"/>
        </g>
        <g>
          <path d="M13,333.13l-4.56,5.79a1.38,1.38,0,0,0,0,1.68.85.85,0,0,0,1.38,0l2.87-3.65v5.95a1.11,1.11,0,0,0,1,1.2,1.1,1.1,0,0,0,1-1.2V334a1.23,1.23,0,0,0-.61-1.11A.85.85,0,0,0,13,333.13Z" transform="translate(0.17 -0.38)" style="fill: #231f20"/>
          <path d="M13.74,344.43a1.46,1.46,0,0,1-1.34-1.56V338l-2.23,2.83a1.22,1.22,0,0,1-1.94,0,1.76,1.76,0,0,1,0-2.15l4.55-5.78a1.2,1.2,0,0,1,1.51-.38,1.57,1.57,0,0,1,.82,1.43v8.91A1.46,1.46,0,0,1,13.74,344.43Zm-.61-8.56v7c0,.45.28.83.61.83s.61-.38.61-.83V334a.85.85,0,0,0-.41-.78.48.48,0,0,0-.62.18l-4.55,5.78a1,1,0,0,0,0,1.23.63.63,0,0,0,.41.21.58.58,0,0,0,.41-.23Z" transform="translate(0.17 -0.38)" style="fill: #231f20"/>
        </g>
        <g>
          <path d="M34.7,337.4a1,1,0,0,0-.9-.73h-2l1.45-1.84s.75-1.11.08-1.72-1.49.06-1.49.06l-3,3.87a1.4,1.4,0,0,0-.2,1.29,1,1,0,0,0,.9.73h2l-2.35,3s-1,1.07-.26,1.79,1.66-.13,1.66-.13l3.94-5A1.4,1.4,0,0,0,34.7,337.4Z" transform="translate(0.17 -0.38)" style="fill: #231f20"/>
          <path d="M29.56,344.49a1.27,1.27,0,0,1-.92-.4c-.76-.76-.17-1.82.25-2.28l1.87-2.39H29.52a1.35,1.35,0,0,1-1.24-1,1.79,1.79,0,0,1,.25-1.64l3-3.87a1.54,1.54,0,0,1,2-.1c.71.65.31,1.68,0,2.19l-1,1.28H33.8a1.34,1.34,0,0,1,1.24,1,1.74,1.74,0,0,1-.25,1.64l-3.94,5A2,2,0,0,1,29.56,344.49Zm3.13-11.28a1,1,0,0,0-.6.24l-3,3.81a1,1,0,0,0-.14.95.65.65,0,0,0,.55.49h2.74l-2.82,3.58s-.75.84-.28,1.3,1.13-.11,1.16-.14l3.89-5a1,1,0,0,0,.14-1h0a.64.64,0,0,0-.55-.49H31.07L33,334.6h0s.54-.84.13-1.22A.61.61,0,0,0,32.69,333.21Z" transform="translate(0.17 -0.38)" style="fill: #231f20"/>
        </g>
      </g>
      <g>
        <path d="M16.56,312A2.08,2.08,0,0,1,16,313.4a2,2,0,0,1,.56,1.33,1.94,1.94,0,0,1-1.95,1.94H13.07a.34.34,0,0,1-.35-.36v-5.86a.38.38,0,0,1,.31-.38h1.58A2,2,0,0,1,16.56,312Zm-2,.76a.75.75,0,0,0,0-1.5h-.5a.17.17,0,0,0-.17.19v1.13a.16.16,0,0,0,.18.18Zm0,2.7a.75.75,0,0,0,0-1.5h-.49a.17.17,0,0,0-.18.19v1.12a.17.17,0,0,0,.17.19Z" transform="translate(0.17 -0.38)" style="fill: #231f20"/>
        <path d="M20.93,310.08a.44.44,0,0,1,.36.35v4.43a2.05,2.05,0,0,1-.27.91,1.94,1.94,0,0,1-3.34,0,1.79,1.79,0,0,1-.24-.91v-4.43a.38.38,0,0,1,.35-.35h.46a.39.39,0,0,1,.36.38v4.4a.75.75,0,0,0,1.49,0c0-1.46,0-2.93,0-4.41a.39.39,0,0,1,.36-.38Z" transform="translate(0.17 -0.38)" style="fill: #231f20"/>
        <path d="M25.62,310.07a.44.44,0,0,1,.38.38v.46a.39.39,0,0,1-.39.37H23.52a.18.18,0,0,0-.19.19v1.14a.18.18,0,0,0,.19.18h1.33a.39.39,0,0,1,.36.36v.48a.36.36,0,0,1-.37.35H23.52a.19.19,0,0,0-.19.2v2.12a.37.37,0,0,1-.36.37h-.45a.34.34,0,0,1-.35-.33v-5.9a.35.35,0,0,1,.3-.37Z" transform="translate(0.17 -0.38)" style="fill: #231f20"/>
        <path d="M30.11,310.07a.44.44,0,0,1,.38.38v.46a.39.39,0,0,1-.39.37H28a.18.18,0,0,0-.19.19v1.14a.18.18,0,0,0,.19.18h1.33a.39.39,0,0,1,.36.36v.48a.36.36,0,0,1-.37.35H28a.19.19,0,0,0-.19.2v2.12a.37.37,0,0,1-.36.37H27a.34.34,0,0,1-.35-.33v-5.9a.36.36,0,0,1,.3-.37Z" transform="translate(0.17 -0.38)" style="fill: #231f20"/>
        <path d="M16.53,319.4s0,0,0,0v5.88a.38.38,0,0,1-.37.36h-.46a.37.37,0,0,1-.36-.37v-3.8c-.28.49-.57,1-.85,1.44a.4.4,0,0,1-.16.13.17.17,0,0,1-.12,0,.21.21,0,0,1-.14,0,.23.23,0,0,1-.15-.14c-.29-.47-.58-.95-.86-1.43v3.81a.39.39,0,0,1-.37.37h-.44a.35.35,0,0,1-.36-.34v-5.94a.28.28,0,0,1,.3-.31h.51a.57.57,0,0,1,.33.24c.38.61.78,1.23,1.18,1.84l1.18-1.88a.47.47,0,0,1,.3-.21h.52A.29.29,0,0,1,16.53,319.4Z" transform="translate(0.17 -0.38)" style="fill: #231f20"/>
        <path d="M20.9,319.08a.41.41,0,0,1,.36.35v4.43a1.92,1.92,0,0,1-.26.91,1.94,1.94,0,0,1-3.34,0,1.79,1.79,0,0,1-.24-.91v-4.43a.37.37,0,0,1,.35-.35h.45a.38.38,0,0,1,.36.38c0,1.47,0,2.94,0,4.4a.66.66,0,0,0,.72.71.68.68,0,0,0,.77-.7c0-1.46,0-2.93,0-4.41a.38.38,0,0,1,.36-.38Z" transform="translate(0.17 -0.38)" style="fill: #231f20"/>
        <path d="M25.62,325.67H22.48a.36.36,0,0,1-.34-.36v-5.88a.38.38,0,0,1,.36-.35H23a.38.38,0,0,1,.37.37v4.85a.18.18,0,0,0,.18.18h2.11a.39.39,0,0,1,.37.37v.46A.37.37,0,0,1,25.62,325.67Z" transform="translate(0.17 -0.38)" style="fill: #231f20"/>
        <path d="M30.72,319.08a.4.4,0,0,1,.37.37v.46a.38.38,0,0,1-.37.37h-1a.19.19,0,0,0-.18.18c0,.21,0,.41,0,.61v4.29l-.06.14a.31.31,0,0,1-.12.11s0,0,0,0h0a.39.39,0,0,1-.18,0h-.46a.38.38,0,0,1-.36-.34v-4.87a.19.19,0,0,0-.18-.18h-1a.37.37,0,0,1-.36-.37v-.46a.38.38,0,0,1,.36-.37Z" transform="translate(0.17 -0.38)" style="fill: #231f20"/>
      </g>
      <g>
        <path d="M35,169.74s0,0,0,0h0Z" transform="translate(0.17 -0.38)" style="fill: #231f20"/>
        <path d="M35.13,168.53a8.79,8.79,0,0,1,1.08,1.05,8,8,0,0,0,2-6,.75.75,0,1,0-1.49.12A6.45,6.45,0,0,1,35.13,168.53Z" transform="translate(0.17 -0.38)" style="fill: #231f20"/>
      </g>
      <g>
        <path d="M37,191.59v4.78a4.79,4.79,0,0,1,1,.2v-5a7.81,7.81,0,0,0-2.69-5.9.51.51,0,0,0-.71.05.49.49,0,0,0,.05.7A6.84,6.84,0,0,1,37,191.59Z" transform="translate(0.17 -0.38)" style="fill: #231f20"/>
        <path d="M37,206.4v89.84a6.81,6.81,0,0,1-6.81,6.81H12.82A6.81,6.81,0,0,1,6,296.24V191.59A6.82,6.82,0,0,1,8,186.82a.49.49,0,0,0,0-.7.5.5,0,0,0-.71,0A7.77,7.77,0,0,0,5,191.59V296.24a7.81,7.81,0,0,0,7.81,7.81H30.17A7.81,7.81,0,0,0,38,296.24V206.19A5.55,5.55,0,0,1,37,206.4Z" transform="translate(0.17 -0.38)" style="fill: #231f20"/>
      </g>
      <path d="M36.46,58.07a2.57,2.57,0,0,1,.4,0A7.49,7.49,0,0,0,38,54.23V36.17a7.46,7.46,0,0,0-1.74-4.81l-1.12-1.09a7.5,7.5,0,0,0-4.66-1.62H12.56A7.53,7.53,0,0,0,5,36.17V54.23a7.53,7.53,0,0,0,7.53,7.52H30.43a7.1,7.1,0,0,0,1.22-.11A5,5,0,0,1,36.46,58.07ZM21.8,56.49A11.37,11.37,0,1,1,33.16,45.12,11.38,11.38,0,0,1,21.8,56.49Z" transform="translate(0.17 -0.38)" style="fill: #231f20"/>
      <path d="M36.46,196.31a2.87,2.87,0,0,1,.41.05A7.53,7.53,0,0,0,38,192.49V174.43a7.48,7.48,0,0,0-1.74-4.81,24.13,24.13,0,0,1-1.82,1.68c.31,0,.86,0,.93.31a.78.78,0,0,1-.58.94l-2.64.27a.55.55,0,0,1-.18,0,.78.78,0,0,1-.6-.28.77.77,0,0,1-.11-.82l.84-2.45a.8.8,0,0,1,1-.4c.39.18.28.93.11,1.32a17.72,17.72,0,0,0,1.89-1.68,7.5,7.5,0,0,0-4.66-1.62H12.56A7.53,7.53,0,0,0,5,174.43v18.06A7.53,7.53,0,0,0,12.56,200H30.43a8.12,8.12,0,0,0,1.21-.1A5,5,0,0,1,36.46,196.31ZM21.8,194.75a11.37,11.37,0,1,1,11.36-11.37A11.38,11.38,0,0,1,21.8,194.75Z" transform="translate(0.17 -0.38)" style="fill: #231f20"/>
      <g>
        <path d="M37,49.74v8.39a4.79,4.79,0,0,1,1,.2V49.74a7.84,7.84,0,0,0-3.19-6.3.51.51,0,0,0-.7.1.5.5,0,0,0,.11.7A6.86,6.86,0,0,1,37,49.74Z" transform="translate(0.17 -0.38)" style="fill: #231f20"/>
        <path d="M37,68.16v89A6.81,6.81,0,0,1,30.17,164H12.82A6.81,6.81,0,0,1,6,157.16V49.74a6.76,6.76,0,0,1,2.72-5.45.5.5,0,0,0-.6-.8A7.76,7.76,0,0,0,5,49.74V157.16A7.81,7.81,0,0,0,12.82,165H30.17A7.81,7.81,0,0,0,38,157.16V68A5.55,5.55,0,0,1,37,68.16Z" transform="translate(0.17 -0.38)" style="fill: #231f20"/>
      </g>
      <g>
        <line x1="21.97" y1="181.21" x2="21.97" y2="184.81" style="fill: #555;stroke: #231f20;stroke-miterlimit: 10"/>
        <line x1="20.17" y1="183.01" x2="23.77" y2="183.01" style="fill: #555;stroke: #231f20;stroke-miterlimit: 10"/>
      </g>
    </g>
    <polyline points="26.41 4.12 26.8 4.14 27.19 4.19 27.57 4.27 27.95 4.39 28.31 4.54 28.66 4.72 28.99 4.93 29.3 5.17 29.59 5.44 29.86 5.73 30.1 6.04 30.31 6.37 30.49 6.72 30.64 7.08 30.76 7.46 30.84 7.84 30.89 8.23 30.91 8.62 30.89 9.01 30.84 9.4 30.76 9.79 30.64 10.16 30.49 10.52 30.31 10.87 30.1 11.2 29.86 11.51 29.59 11.8 29.3 12.07 28.99 12.31 28.66 12.52 28.31 12.7 27.95 12.85 27.57 12.97 27.19 13.05 26.8 13.1 26.41 13.12 17.41 13.12 17.02 13.1 16.63 13.05 16.25 12.97 15.87 12.85 15.51 12.7 15.16 12.52 14.83 12.31 14.52 12.07 14.23 11.8 13.96 11.51 13.72 11.2 13.51 10.87 13.33 10.52 13.18 10.16 13.06 9.79 12.98 9.4 12.93 9.01 12.91 8.62 12.93 8.23 12.98 7.84 13.06 7.46 13.18 7.08 13.33 6.72 13.51 6.37 13.72 6.04 13.96 5.73 14.23 5.44 14.52 5.17 14.83 4.93 15.16 4.72 15.51 4.54 15.87 4.39 16.25 4.27 16.63 4.19 17.02 4.14 17.41 4.12 26.41 4.12 26.45 4.12 17.45 4.12"/>
    <polygon points="26.45 351.38 17.45 351.38 17.06 351.4 16.67 351.45 16.29 351.53 15.91 351.65 15.55 351.8 15.2 351.98 14.87 352.19 14.56 352.43 14.27 352.7 14 352.99 13.76 353.3 13.55 353.63 13.37 353.98 13.22 354.34 13.1 354.72 13.02 355.1 12.97 355.49 12.95 355.88 12.97 356.27 13.02 356.66 13.1 357.05 13.22 357.42 13.37 357.78 13.55 358.13 13.76 358.46 14 358.77 14.27 359.06 14.56 359.33 14.87 359.57 15.2 359.78 15.55 359.96 15.91 360.11 16.29 360.23 16.67 360.31 17.06 360.36 17.45 360.38 26.45 360.38 26.84 360.36 27.23 360.31 27.61 360.23 27.99 360.11 28.35 359.96 28.7 359.78 29.03 359.57 29.34 359.33 29.63 359.06 29.9 358.77 30.14 358.46 30.35 358.13 30.53 357.78 30.68 357.42 30.8 357.05 30.88 356.66 30.93 356.27 30.95 355.88 30.93 355.49 30.88 355.1 30.8 354.72 30.68 354.34 30.53 353.98 30.35 353.63 30.14 353.3 29.9 352.99 29.63 352.7 29.34 352.43 29.03 352.19 28.7 351.98 28.35 351.8 27.99 351.65 27.61 351.53 27.23 351.45 26.84 351.4 26.45 351.38"/>
  </g>
  <g id="components">
    <circle id="Output_D" data-name="Output D" cx="21.91" cy="286.66" r="11.34" style="fill: blue"/>
    <circle id="Output_E" data-name="Output E" cx="21.91" cy="252.1" r="11.34" style="fill: blue"/>
    <circle id="Output_F" data-name="Output F" cx="21.91" cy="217.54" r="11.34" style="fill: blue"/>
    <circle id="Input_2_LED" data-name="Input 2 LED" cx="36.7" cy="201.01" r="4.96" style="fill: #f0f"/>
    <circle id="Input_2" data-name="Input 2" cx="21.91" cy="182.98" r="11.34" style="fill: lime"/>
    <circle id="Output_C" data-name="Output C" cx="21.91" cy="148.42" r="11.34" style="fill: blue"/>
    <circle id="Output_B" data-name="Output B" cx="21.91" cy="113.89" r="11.34" style="fill: blue"/>
    <circle id="Output_A" data-name="Output A" cx="21.91" cy="79.31" r="11.34" style="fill: blue"/>
    <circle id="Input_1_LED" data-name="Input 1 LED" cx="36.7" cy="62.81" r="4.96" style="fill: #f0f"/>
    <circle id="Input_1" data-name="Input 1" cx="21.91" cy="44.75" r="11.34" style="fill: lime"/>
    <text id="slug" transform="translate(0 372.61)" style="font-size: 6px;font-family: MyriadPro-Regular, Myriad Pro">Buff<tspan x="10.06" y="0" style="letter-spacing: 0.0029296875em">M</tspan><tspan x="14.9" y="0" style="letter-spacing: 0.00016276041666666666em">ult</tspan></text>
    <text id="modulename" transform="translate(30.49 372.56)" style="font-size: 6px;font-family: MyriadPro-Regular, Myriad Pro">Bu<tspan x="6.56" y="0" style="letter-spacing: -0.013020833333333334em">ff</tspan><tspan x="9.98" y="0" style="letter-spacing: 0.00016276041666666666em">e</tspan><tspan x="12.98" y="0" style="letter-spacing: -0.010091145833333334em">r</tspan><tspan x="14.89" y="0">ed </tspan><tspan x="22.55" y="0" style="letter-spacing: 0.0029296875em">M</tspan><tspan x="27.39" y="0">ultiple</tspan></text>
  </g>
</svg>
