<svg xmlns="http://www.w3.org/2000/svg" width="50.89mm" height="130.47mm" viewBox="0 0 144.25 369.83">
  <g id="faceplate">
    <rect x="0.13" y="0.13" width="144" height="364.25" style="fill: #ededed;stroke: #9d9d9e;stroke-miterlimit: 10;stroke-width: 0.25px"/>
    <path d="M131.71,318.76V297.24H110.17c-7.49,0-13.57,6.52-13.57,14.56v30.53h29.46a5.48,5.48,0,0,0,5.65-5.26V318.76Z"/>
    <g>
      <path d="M77.74,6.38l-5.53,7v-6a1.29,1.29,0,0,0-.64-1.17.91.91,0,0,0-1.13.29l-7.28,9.25a1.49,1.49,0,0,0,0,1.79.9.9,0,0,0,1.46,0l5.5-7v6a1.29,1.29,0,0,0,.64,1.17.92.92,0,0,0,1.14-.29s3.49-4.45,5.53-7v6.15a1.05,1.05,0,1,0,2.06,0V7.26a1.26,1.26,0,0,0-.65-1.17A.9.9,0,0,0,77.74,6.38Z" style="stroke: #000;stroke-width: 0.6000000000000001px"/>
      <path d="M63.16,6.31l-4.81,6.13a1.47,1.47,0,0,0,0,1.79.9.9,0,0,0,1.46,0l3.05-3.87v6.31a1.05,1.05,0,1,0,2.06,0V7.19A1.31,1.31,0,0,0,64.29,6,.91.91,0,0,0,63.16,6.31Z" style="stroke: #000;stroke-width: 0.6000000000000001px"/>
      <path d="M86.11,10.83a1,1,0,0,0-1-.77h-2.1l1.53-2s.8-1.17.1-1.82a1.27,1.27,0,0,0-1.58.06l-3.23,4.1a1.47,1.47,0,0,0-.2,1.38,1.05,1.05,0,0,0,.95.77h2.1l-2.49,3.17s-1,1.13-.27,1.89,1.75-.13,1.75-.13L85.9,12.2A1.47,1.47,0,0,0,86.11,10.83Z" style="stroke: #000;stroke-width: 0.6000000000000001px"/>
    </g>
    <path d="M117.44,254.37H26.83a14.24,14.24,0,0,0-14.22,14.18v23.16h0V336.2a5.67,5.67,0,0,0,5.64,5.67H126a5.67,5.67,0,0,0,5.65-5.67V268.55A14.24,14.24,0,0,0,117.44,254.37Z" style="fill: none;stroke: #000;stroke-miterlimit: 10"/>
    <g>
      <path d="M68.16,291.21a2.85,2.85,0,0,1-.27,1.34,2.72,2.72,0,0,1-.62.81,2.06,2.06,0,0,1-1.44.46H63.26v-5.41h2a4.32,4.32,0,0,1,.77,0,2.38,2.38,0,0,1,.57.15,1.91,1.91,0,0,1,.43.21,2.13,2.13,0,0,1,.32.26,2.22,2.22,0,0,1,.43.53,2.93,2.93,0,0,1,.29.72A3.08,3.08,0,0,1,68.16,291.21Zm-1.46-.07a2,2,0,0,0-.22-1,1.12,1.12,0,0,0-.53-.49,1.59,1.59,0,0,0-.64-.13H64.7v3.21h.61a1.57,1.57,0,0,0,1-.31A1.5,1.5,0,0,0,66.7,291.14Z"/>
      <path d="M72.15,292.17H69.69a1,1,0,0,0,.35.6,1,1,0,0,0,.64.23,3.05,3.05,0,0,0,1.38-.4v.87a4.18,4.18,0,0,1-.66.29,3,3,0,0,1-1,.13,2.11,2.11,0,0,1-1.1-.27,1.76,1.76,0,0,1-.68-.75,2.64,2.64,0,0,1,0-2.11,1.63,1.63,0,0,1,.68-.72,2.11,2.11,0,0,1,1.1-.27,1.72,1.72,0,0,1,.82.21,1.58,1.58,0,0,1,.66.69,2.54,2.54,0,0,1,.25,1.22ZM71,291.48a1.06,1.06,0,0,0-.17-.62.55.55,0,0,0-.48-.22.61.61,0,0,0-.5.23,1,1,0,0,0-.19.61Z"/>
      <path d="M73.78,293.82H72.54v-5.41h1.24Z"/>
      <path d="M78,293.62l-.5.2a2.17,2.17,0,0,1-.55.07.6.6,0,0,1-.43-.12.64.64,0,0,1-.17-.3,1.9,1.9,0,0,1-.44.3,1.49,1.49,0,0,1-.64.12,1.14,1.14,0,0,1-.62-.15.8.8,0,0,1-.33-.38,1.28,1.28,0,0,1-.1-.47,1.07,1.07,0,0,1,.17-.61,1.19,1.19,0,0,1,.44-.39,5.17,5.17,0,0,1,.72-.32l.4-.14.19-.07.14-.08a.83.83,0,0,0-.1-.45c-.07-.11-.22-.16-.45-.16a1.41,1.41,0,0,0-.75.2,2.86,2.86,0,0,0-.64.52v-1.07a2.18,2.18,0,0,1,.5-.31,2.81,2.81,0,0,1,.56-.18,2.88,2.88,0,0,1,.59-.06,1.64,1.64,0,0,1,1.14.34,1.14,1.14,0,0,1,.39.92v1.53a1.31,1.31,0,0,0,0,.33c0,.07.07.11.14.11a.68.68,0,0,0,.31-.12Zm-1.72-.76v-.94a2.89,2.89,0,0,0-.64.36.54.54,0,0,0-.21.44.42.42,0,0,0,.11.31.29.29,0,0,0,.23.1.39.39,0,0,0,.25-.08A2.14,2.14,0,0,0,76.26,292.86Z"/>
      <path d="M81.84,289.84l-2.38,5.79H78.21l1-2.33-1.38-3.46h1.33l.71,2,.81-2Z"/>
    </g>
    <g>
      <path d="M111,291.63h-2v2.19h-1.44v-5.41H111v1.08h-2v1.05h2Z"/>
      <path d="M115.07,292.17h-2.46a1,1,0,0,0,.35.6,1,1,0,0,0,.64.23,3.05,3.05,0,0,0,1.38-.4v.87a4.47,4.47,0,0,1-.65.29,3.08,3.08,0,0,1-1,.13,2.11,2.11,0,0,1-1.1-.27,1.76,1.76,0,0,1-.68-.75,2.64,2.64,0,0,1,0-2.11,1.63,1.63,0,0,1,.68-.72,2.11,2.11,0,0,1,1.1-.27,1.72,1.72,0,0,1,.82.21,1.58,1.58,0,0,1,.66.69,2.54,2.54,0,0,1,.25,1.22Zm-1.16-.69a1,1,0,0,0-.17-.62.55.55,0,0,0-.47-.22.59.59,0,0,0-.5.23.91.91,0,0,0-.2.61Z"/>
      <path d="M119,292.17h-2.47a1,1,0,0,0,.36.6,1,1,0,0,0,.64.23,3.05,3.05,0,0,0,1.38-.4v.87a4.18,4.18,0,0,1-.66.29,3,3,0,0,1-1,.13,2.11,2.11,0,0,1-1.1-.27,1.7,1.7,0,0,1-.68-.75,2.53,2.53,0,0,1,0-2.11,1.58,1.58,0,0,1,.68-.72,2.11,2.11,0,0,1,1.1-.27,1.72,1.72,0,0,1,.82.21,1.62,1.62,0,0,1,.65.69,2.54,2.54,0,0,1,.26,1.22Zm-1.16-.69a1.06,1.06,0,0,0-.17-.62.55.55,0,0,0-.48-.22.61.61,0,0,0-.5.23.91.91,0,0,0-.19.61Z"/>
      <path d="M123,293.82h-1.24v-.36a1.75,1.75,0,0,1-.42.31,1.22,1.22,0,0,1-.6.12,1.52,1.52,0,0,1-.75-.21,1.64,1.64,0,0,1-.6-.67,2.48,2.48,0,0,1-.24-1.15,2.88,2.88,0,0,1,.18-1,1.73,1.73,0,0,1,.56-.77,1.44,1.44,0,0,1,.93-.3,1.46,1.46,0,0,1,.56.09,1.57,1.57,0,0,1,.38.22v-1.67H123Zm-1.24-1.27V291l-.34-.19a.65.65,0,0,0-.29-.06.55.55,0,0,0-.48.28,1.33,1.33,0,0,0-.2.77,1.16,1.16,0,0,0,.21.77.59.59,0,0,0,.47.24.74.74,0,0,0,.36-.08Z"/>
    </g>
    <g>
      <path d="M68.09,333.82h-2V336H64.68v-5.42h3.41v1.09h-2v1.05h2Z"/>
      <path d="M72.2,335.81a4.55,4.55,0,0,1-.5.19,1.77,1.77,0,0,1-.55.08.55.55,0,0,1-.43-.13.74.74,0,0,1-.17-.3,1.67,1.67,0,0,1-.44.31,1.49,1.49,0,0,1-.64.12,1.14,1.14,0,0,1-.62-.15.8.8,0,0,1-.33-.38,1.27,1.27,0,0,1-.09-.47,1,1,0,0,1,.16-.61,1.19,1.19,0,0,1,.44-.39,4.86,4.86,0,0,1,.73-.32l.39-.14.19-.08.14-.07a.83.83,0,0,0-.1-.45.5.5,0,0,0-.45-.17,1.42,1.42,0,0,0-.75.21,2.81,2.81,0,0,0-.64.52V332.5a2.55,2.55,0,0,1,.5-.3,2.81,2.81,0,0,1,.56-.18,3,3,0,0,1,.59-.06,1.73,1.73,0,0,1,1.15.33,1.18,1.18,0,0,1,.38.92v1.54a.85.85,0,0,0,0,.32c0,.08.06.11.13.11a.61.61,0,0,0,.31-.11Zm-1.72-.76v-.95a3.3,3.3,0,0,0-.64.37.51.51,0,0,0-.2.44.4.4,0,0,0,.1.3.31.31,0,0,0,.23.11.52.52,0,0,0,.26-.08C70.31,335.19,70.39,335.12,70.48,335.05Z"/>
      <path d="M76,336H74.77v-.36a2.33,2.33,0,0,1-.41.31,1.29,1.29,0,0,1-.61.12,1.38,1.38,0,0,1-.74-.22,1.54,1.54,0,0,1-.61-.67,2.41,2.41,0,0,1-.24-1.14,2.8,2.8,0,0,1,.18-1,1.7,1.7,0,0,1,.56-.77,1.49,1.49,0,0,1,.94-.3,1.4,1.4,0,0,1,.55.09,1.38,1.38,0,0,1,.38.21v-1.67H76Zm-1.24-1.27v-1.52a2.58,2.58,0,0,0-.34-.19.61.61,0,0,0-.28-.06.57.57,0,0,0-.49.28,1.32,1.32,0,0,0-.19.76,1.15,1.15,0,0,0,.2.77.63.63,0,0,0,.48.24.64.64,0,0,0,.36-.08A1.21,1.21,0,0,0,74.77,334.74Z"/>
      <path d="M80.1,334.36H77.64A1,1,0,0,0,78,335a1,1,0,0,0,.64.23,2.93,2.93,0,0,0,1.38-.4v.87a3.59,3.59,0,0,1-.65.3,3.39,3.39,0,0,1-1,.13,2,2,0,0,1-1.1-.28,1.73,1.73,0,0,1-.68-.74,2.64,2.64,0,0,1,0-2.11,1.71,1.71,0,0,1,.68-.73,2.21,2.21,0,0,1,1.1-.26,1.7,1.7,0,0,1,.82.21,1.61,1.61,0,0,1,.66.68,2.61,2.61,0,0,1,.25,1.23Zm-1.16-.7a1,1,0,0,0-.17-.61.56.56,0,0,0-.47-.23.59.59,0,0,0-.5.24.88.88,0,0,0-.19.6Z"/>
    </g>
    <g>
      <path d="M22.92,293.82H21.49v-5.41h1.43Z"/>
      <path d="M27.38,293.82H26.14v-2.14a1.72,1.72,0,0,0-.09-.58.4.4,0,0,0-.42-.24.53.53,0,0,0-.26.06.87.87,0,0,0-.21.17l-.15.19-.13.2v2.34H23.64v-4h1.24v.57a1.73,1.73,0,0,1,.59-.49,1.38,1.38,0,0,1,.65-.15q1.26,0,1.26,1.71Z"/>
      <path d="M31.68,291.8a2.76,2.76,0,0,1-.1.77,1.94,1.94,0,0,1-.3.67,1.53,1.53,0,0,1-.53.48,1.58,1.58,0,0,1-.74.17,1.64,1.64,0,0,1-.55-.08,2.56,2.56,0,0,1-.39-.22v2H27.83v-5.79h1.24v.36a1.73,1.73,0,0,1,.41-.3,1.2,1.2,0,0,1,.61-.13,1.39,1.39,0,0,1,.75.22,1.54,1.54,0,0,1,.61.67A2.54,2.54,0,0,1,31.68,291.8Zm-1.3,0a1.42,1.42,0,0,0-.1-.59.66.66,0,0,0-.26-.32.55.55,0,0,0-.32-.1.64.64,0,0,0-.36.08,1.05,1.05,0,0,0-.27.2v1.52l.14.09.15.08.16.06.18,0a.56.56,0,0,0,.48-.28A1.24,1.24,0,0,0,30.38,291.84Z"/>
      <path d="M35.73,293.82H34.49v-.57a1.73,1.73,0,0,1-.55.48,1.35,1.35,0,0,1-.69.16,1,1,0,0,1-1-.53,2.8,2.8,0,0,1-.24-1.18v-2.34h1.24V292a1.42,1.42,0,0,0,.1.57.39.39,0,0,0,.41.24.54.54,0,0,0,.43-.17,3.8,3.8,0,0,0,.32-.45v-2.34h1.24Z"/>
      <path d="M39,293.59a2.37,2.37,0,0,1-.53.2,2.14,2.14,0,0,1-.65.1c-.89,0-1.33-.49-1.33-1.48v-1.59h-.56v-.25l1.66-1.92h.14v1.19h1.18v1H37.73v1.27a1.84,1.84,0,0,0,0,.36.37.37,0,0,0,.14.23.51.51,0,0,0,.34.09,1.65,1.65,0,0,0,.77-.28Z"/>
    </g>
    <g>
      <path d="M25.49,335.6a3,3,0,0,1-.61.28,3.5,3.5,0,0,1-.62.15,4.62,4.62,0,0,1-.65.05,3,3,0,0,1-1.12-.2,2.49,2.49,0,0,1-.86-.57,2.58,2.58,0,0,1-.54-.9,3.61,3.61,0,0,1,0-2.34,2.37,2.37,0,0,1,.6-.87,2.76,2.76,0,0,1,.87-.52,3.24,3.24,0,0,1,1-.16,4.85,4.85,0,0,1,1.83.41v1.44a4.25,4.25,0,0,0-.69-.42,1.9,1.9,0,0,0-.82-.17,1.72,1.72,0,0,0-.77.19,1.61,1.61,0,0,0-.59.54,1.53,1.53,0,0,0-.22.81,1.5,1.5,0,0,0,.2.75,1.38,1.38,0,0,0,.53.54,1.46,1.46,0,0,0,.77.21,2.34,2.34,0,0,0,.66-.1,2.94,2.94,0,0,0,.52-.21,4.54,4.54,0,0,0,.44-.28Z"/>
      <path d="M27.27,336H26v-5.42h1.24Z"/>
      <path d="M31.71,334a2.39,2.39,0,0,1-.23,1.06,1.73,1.73,0,0,1-.68.74,2.11,2.11,0,0,1-1.1.27,2.09,2.09,0,0,1-1.1-.27,1.67,1.67,0,0,1-.68-.74,2.39,2.39,0,0,1-.23-1.06,2.33,2.33,0,0,1,.13-.81,1.77,1.77,0,0,1,.38-.65,1.67,1.67,0,0,1,.63-.44,2.6,2.6,0,0,1,1.74,0,1.62,1.62,0,0,1,.63.44,1.88,1.88,0,0,1,.38.64A2.71,2.71,0,0,1,31.71,334Zm-1.31,0a1.33,1.33,0,0,0-.18-.74.65.65,0,0,0-1,0A1.33,1.33,0,0,0,29,334a1.36,1.36,0,0,0,.18.75.64.64,0,0,0,1,0A1.34,1.34,0,0,0,30.4,334Z"/>
      <path d="M35.06,335.82l-.32.13a3.75,3.75,0,0,1-.39.09,2.29,2.29,0,0,1-.47,0,2,2,0,0,1-1-.22,1.74,1.74,0,0,1-.61-.56,2.15,2.15,0,0,1-.3-.68,3,3,0,0,1-.08-.61,3.1,3.1,0,0,1,.08-.62,2.34,2.34,0,0,1,.3-.67,1.66,1.66,0,0,1,.6-.54,2,2,0,0,1,1-.22,2.68,2.68,0,0,1,.63.06,3.28,3.28,0,0,1,.5.17v1.11a2.89,2.89,0,0,0-.95-.22.84.84,0,0,0-.58.22.91.91,0,0,0-.26.71,1,1,0,0,0,.13.53.82.82,0,0,0,.32.32.81.81,0,0,0,.39.1,1.77,1.77,0,0,0,.43-.06c.15,0,.35-.1.57-.18Z"/>
      <path d="M39.54,336H38l-1.34-1.89V336H35.38v-5.42h1.25v3.18L37.85,332h1.49L38,333.89Z"/>
    </g>
    <g>
      <path d="M114.26,333.3a3.22,3.22,0,0,1-.31,1.39,2.42,2.42,0,0,1-.92,1,2.76,2.76,0,0,1-1.48.38,2.71,2.71,0,0,1-1.49-.39,2.44,2.44,0,0,1-.91-1,3.26,3.26,0,0,1,0-2.73,2.35,2.35,0,0,1,.91-1,2.69,2.69,0,0,1,1.49-.39,2.92,2.92,0,0,1,1.18.22,2.42,2.42,0,0,1,.85.6,2.79,2.79,0,0,1,.51.89A3.43,3.43,0,0,1,114.26,333.3Zm-1.47,0a1.65,1.65,0,0,0-.08-.56,1.32,1.32,0,0,0-.23-.44,1.24,1.24,0,0,0-.39-.29,1.33,1.33,0,0,0-.54-.1,1.13,1.13,0,0,0-.9.38,1.5,1.5,0,0,0-.33,1,1.47,1.47,0,0,0,.33,1,1.12,1.12,0,0,0,.9.39,1.23,1.23,0,0,0,.68-.18,1.19,1.19,0,0,0,.42-.49A1.65,1.65,0,0,0,112.79,333.3Z" style="fill: #fff"/>
      <path d="M118.35,336h-1.24v-.57a2,2,0,0,1-.54.48,1.54,1.54,0,0,1-.7.16,1,1,0,0,1-1-.53,2.79,2.79,0,0,1-.23-1.18V332h1.23v2.15a1.45,1.45,0,0,0,.1.57.39.39,0,0,0,.41.24.56.56,0,0,0,.43-.17,2.92,2.92,0,0,0,.32-.45V332h1.24Z" style="fill: #fff"/>
      <path d="M121.63,335.78a3.14,3.14,0,0,1-.54.2,2.5,2.5,0,0,1-.64.1c-.9,0-1.34-.5-1.34-1.49V333h-.56v-.25l1.66-1.92h.14V332h1.18v1h-1.18v1.27a3.21,3.21,0,0,0,0,.36.43.43,0,0,0,.14.23.53.53,0,0,0,.34.09,1.68,1.68,0,0,0,.78-.28Z" style="fill: #fff"/>
    </g>
    <g>
      <path d="M46.12,354.46H43.58v3H41.74V350h4.38v1.49H43.58V353h2.54Z"/>
      <path d="M54.06,357.47H52.17L51.68,356H49l-.5,1.51H46.63l2.7-7.44h2Zm-2.81-2.8L50.36,352l-.9,2.72Z"/>
      <path d="M61.14,353.88a4.14,4.14,0,0,1-.34,1.84,3.57,3.57,0,0,1-.8,1.12,2.55,2.55,0,0,1-1.84.63H54.87V350H57.4a5.67,5.67,0,0,1,1,.07,4.53,4.53,0,0,1,.73.2,2.56,2.56,0,0,1,.55.3,2.36,2.36,0,0,1,.41.35,3.24,3.24,0,0,1,.55.74,4.17,4.17,0,0,1,.38,1A5.16,5.16,0,0,1,61.14,353.88Zm-1.87-.09a2.93,2.93,0,0,0-.28-1.42,1.53,1.53,0,0,0-.68-.68,2.15,2.15,0,0,0-.82-.17h-.78v4.41h.78a1.93,1.93,0,0,0,1.25-.42A2.11,2.11,0,0,0,59.27,353.79Z"/>
      <path d="M66.88,357.47h-4.6V350h4.53v1.49H64.12v1.36h2.57v1.5H64.12V356h2.76Z"/>
      <path d="M77.07,353.88a4.14,4.14,0,0,1-.34,1.84,3.93,3.93,0,0,1-.8,1.12,2.55,2.55,0,0,1-1.84.63h-3.3V350h2.54a5.55,5.55,0,0,1,1,.07,4.26,4.26,0,0,1,.73.2,2.65,2.65,0,0,1,.56.3A2.8,2.8,0,0,1,76,351a3.24,3.24,0,0,1,.55.74,4.17,4.17,0,0,1,.37,1A5.15,5.15,0,0,1,77.07,353.88Zm-1.87-.09a2.92,2.92,0,0,0-.29-1.42,1.44,1.44,0,0,0-.68-.68,2.1,2.1,0,0,0-.81-.17h-.78v4.41h.78a2,2,0,0,0,1.25-.42A2.15,2.15,0,0,0,75.2,353.79Z"/>
      <path d="M82.81,357.47h-4.6V350h4.52v1.49H80.05v1.36h2.56v1.5H80.05V356h2.76Z"/>
      <path d="M88.68,357.47H84V350h1.84v5.66h2.8Z"/>
      <path d="M96.45,357.47H94.57l-.5-1.51H91.42l-.51,1.51H89l2.7-7.44h2Zm-2.8-2.8-.9-2.72-.9,2.72Z"/>
      <path d="M103.22,350l-2.39,4v3.41H99V354.1L96.55,350h1.91l1.4,2.34,1.41-2.34Z"/>
    </g>
    <g>
      <path d="M59.55,187.26a3.62,3.62,0,0,1-.33,1.67,3.44,3.44,0,0,1-.78,1,2.62,2.62,0,0,1-1.79.57H53.43v-6.77h2.48a6.27,6.27,0,0,1,1,.07,4.2,4.2,0,0,1,.72.18,2.72,2.72,0,0,1,.54.27,3.3,3.3,0,0,1,.4.32,3,3,0,0,1,.53.67,3.33,3.33,0,0,1,.37.9A4.2,4.2,0,0,1,59.55,187.26Zm-1.82-.09a2.47,2.47,0,0,0-.28-1.29,1.41,1.41,0,0,0-.66-.61,2,2,0,0,0-.8-.16h-.76v4H56a2,2,0,0,0,1.22-.38A1.87,1.87,0,0,0,57.73,187.17Z"/>
      <path d="M64.54,188.46H61.46a1.27,1.27,0,0,0,1.24,1,3.77,3.77,0,0,0,1.73-.5v1.09a4,4,0,0,1-.82.36,3.83,3.83,0,0,1-1.23.17,2.71,2.71,0,0,1-1.38-.34,2.18,2.18,0,0,1-.85-.93,3.13,3.13,0,0,1-.28-1.33,3.07,3.07,0,0,1,.28-1.31,2.08,2.08,0,0,1,.85-.91,2.71,2.71,0,0,1,1.38-.33,2.25,2.25,0,0,1,1,.26,2,2,0,0,1,.81.86,3.1,3.1,0,0,1,.32,1.53Zm-1.45-.87a1.25,1.25,0,0,0-.21-.76.7.7,0,0,0-.6-.29.77.77,0,0,0-.62.29,1.17,1.17,0,0,0-.24.76Z"/>
      <path d="M66.58,190.52H65v-6.77h1.55Z"/>
      <path d="M71.83,190.27c-.22.1-.43.18-.63.25a2.31,2.31,0,0,1-.69.09.7.7,0,0,1-.53-.16.91.91,0,0,1-.22-.37,2.34,2.34,0,0,1-.55.38,1.81,1.81,0,0,1-.8.15,1.37,1.37,0,0,1-.77-.19,1,1,0,0,1-.41-.47,1.52,1.52,0,0,1-.12-.59,1.36,1.36,0,0,1,.2-.76,1.63,1.63,0,0,1,.55-.49,6.37,6.37,0,0,1,.91-.4,4.63,4.63,0,0,0,.49-.18l.25-.09.17-.09a1,1,0,0,0-.13-.56c-.09-.14-.27-.21-.56-.21a1.81,1.81,0,0,0-.94.25,3.27,3.27,0,0,0-.79.66v-1.35a2.46,2.46,0,0,1,.62-.38,2.85,2.85,0,0,1,.7-.22,3.65,3.65,0,0,1,.74-.08,2.12,2.12,0,0,1,1.43.42,1.44,1.44,0,0,1,.48,1.15V189a1.44,1.44,0,0,0,0,.41.17.17,0,0,0,.17.13.92.92,0,0,0,.39-.14Zm-2.15-1v-1.18a3.53,3.53,0,0,0-.8.46.66.66,0,0,0-.26.55.5.5,0,0,0,.13.38.37.37,0,0,0,.29.13.57.57,0,0,0,.32-.1Z"/>
      <path d="M76.65,185.55l-3,7.23H72.12l1.2-2.91-1.73-4.32h1.66l.89,2.47,1-2.47Z"/>
      <path d="M84.59,190a3.46,3.46,0,0,1-.76.35,3.42,3.42,0,0,1-.78.19,5.32,5.32,0,0,1-.81.06,3.59,3.59,0,0,1-1.39-.25,2.81,2.81,0,0,1-1.07-.72,2.87,2.87,0,0,1-.68-1.11,4.15,4.15,0,0,1-.23-1.4,4,4,0,0,1,.27-1.53,2.93,2.93,0,0,1,.74-1.09,3.17,3.17,0,0,1,1.09-.64,4,4,0,0,1,1.3-.21,6.28,6.28,0,0,1,2.29.51V186a5.71,5.71,0,0,0-.87-.52,2.32,2.32,0,0,0-1-.21,2,2,0,0,0-1,.24,1.87,1.87,0,0,0-1,1.68,1.88,1.88,0,0,0,.24.94,1.75,1.75,0,0,0,.67.68,1.86,1.86,0,0,0,1,.25,2.82,2.82,0,0,0,.83-.12,4.62,4.62,0,0,0,.65-.26c.17-.1.35-.22.54-.35Z"/>
      <path d="M91.27,183.75l-2.68,6.86H87.4l-2.63-6.86h1.87L88,187.66l1.4-3.91Z"/>
    </g>
    <path d="M81.12,145.6l1.13-1.95a22,22,0,0,0-9.12-2.45v2.26A19.45,19.45,0,0,1,81.12,145.6Z"/>
    <path d="M88.7,152.45l2-1.13A21.88,21.88,0,0,0,84,144.65l-1.13,1.95A19.66,19.66,0,0,1,88.7,152.45Z"/>
    <path d="M61.4,146.6l-1.13-1.95a21.88,21.88,0,0,0-6.67,6.67l1.95,1.13A19.77,19.77,0,0,1,61.4,146.6Z"/>
    <path d="M91.84,162.18H94.1a21.88,21.88,0,0,0-2.44-9.12l-2,1.12A19.6,19.6,0,0,1,91.84,162.18Z"/>
    <path d="M71.13,143.46V141.2A22,22,0,0,0,62,143.65l1.13,1.95A19.45,19.45,0,0,1,71.13,143.46Z"/>
    <path d="M55.54,173.9,53.6,175a22,22,0,0,0,6.67,6.68l1.13-2A20,20,0,0,1,55.54,173.9Z"/>
    <path d="M82.85,179.76l1.13,2A22,22,0,0,0,90.65,175l-2-1.13A19.81,19.81,0,0,1,82.85,179.76Z"/>
    <path d="M91.84,164.18a19.6,19.6,0,0,1-2.13,8l2,1.13a21.88,21.88,0,0,0,2.44-9.12Z"/>
    <path d="M52.41,164.18H50.15a21.88,21.88,0,0,0,2.44,9.12l1.95-1.13A19.6,19.6,0,0,1,52.41,164.18Z"/>
    <path d="M54.54,154.18l-1.95-1.12a21.88,21.88,0,0,0-2.44,9.12h2.26A19.6,19.6,0,0,1,54.54,154.18Z"/>
    <path d="M126.11,45.78h2.26a21.88,21.88,0,0,0-2.44-9.12l-2,1.12A19.6,19.6,0,0,1,126.11,45.78Z"/>
    <path d="M126.11,47.78a19.55,19.55,0,0,1-2.13,8l2,1.13a21.88,21.88,0,0,0,2.44-9.12Z"/>
    <g>
      <path d="M32.65,70.86a3.62,3.62,0,0,1-.33,1.67,3.44,3.44,0,0,1-.78,1,2.63,2.63,0,0,1-1.8.57H26.53V67.36H29a6.41,6.41,0,0,1,.95.06,4.43,4.43,0,0,1,.72.19,2.72,2.72,0,0,1,.54.27,2.08,2.08,0,0,1,.4.32,2.9,2.9,0,0,1,.53.66,3.33,3.33,0,0,1,.37.9A4.25,4.25,0,0,1,32.65,70.86Zm-1.82-.09a2.51,2.51,0,0,0-.28-1.28,1.37,1.37,0,0,0-.67-.62,2.14,2.14,0,0,0-.79-.16h-.76v4h.76a2,2,0,0,0,1.22-.38A1.86,1.86,0,0,0,30.83,70.77Z"/>
      <path d="M37.64,72.06H34.56a1.23,1.23,0,0,0,.44.74,1.22,1.22,0,0,0,.8.29,3.68,3.68,0,0,0,1.73-.5v1.09a4.19,4.19,0,0,1-.82.37,3.86,3.86,0,0,1-1.23.16,2.62,2.62,0,0,1-1.38-.34,2.18,2.18,0,0,1-.85-.93,3.25,3.25,0,0,1,0-2.64,2.13,2.13,0,0,1,.85-.91,2.71,2.71,0,0,1,1.38-.33,2.17,2.17,0,0,1,1,.27,1.91,1.91,0,0,1,.81.85,3.16,3.16,0,0,1,.32,1.53Zm-1.45-.87a1.25,1.25,0,0,0-.21-.76.7.7,0,0,0-.6-.29.77.77,0,0,0-.62.29,1.17,1.17,0,0,0-.24.76Z"/>
      <path d="M39.68,74.12H38.13V67.36h1.55Z"/>
      <path d="M44.93,73.87a4.32,4.32,0,0,1-.63.25,2.31,2.31,0,0,1-.69.09.75.75,0,0,1-.53-.15,1,1,0,0,1-.22-.38,2.08,2.08,0,0,1-.55.38,1.81,1.81,0,0,1-.8.15,1.37,1.37,0,0,1-.77-.19,1,1,0,0,1-.41-.47,1.52,1.52,0,0,1-.12-.59,1.36,1.36,0,0,1,.2-.76,1.63,1.63,0,0,1,.55-.49,5.48,5.48,0,0,1,.91-.39l.49-.18.25-.1.17-.09a1.08,1.08,0,0,0-.13-.56c-.09-.14-.27-.21-.56-.21a1.82,1.82,0,0,0-.94.26,3.46,3.46,0,0,0-.8.65V69.74a3.11,3.11,0,0,1,.63-.38,3.18,3.18,0,0,1,.7-.22,3.65,3.65,0,0,1,.74-.08,2.12,2.12,0,0,1,1.43.42,1.44,1.44,0,0,1,.47,1.15v1.92a1.37,1.37,0,0,0,0,.41.17.17,0,0,0,.17.13.83.83,0,0,0,.39-.14Zm-2.15-1V71.75a4,4,0,0,0-.81.45.7.7,0,0,0-.25.55.5.5,0,0,0,.13.38.37.37,0,0,0,.29.13.57.57,0,0,0,.32-.1A2,2,0,0,0,42.78,72.92Z"/>
      <path d="M49.75,69.15l-3,7.23H45.21l1.21-2.91-1.73-4.32h1.66l.89,2.47,1-2.47Z"/>
    </g>
    <g>
      <path d="M46.85,29.2,48,27.25a22,22,0,0,0-9.13-2.45v2.26A19.61,19.61,0,0,1,46.85,29.2Z"/>
      <path d="M54.43,36.05l2-1.12a22,22,0,0,0-6.67-6.68L48.58,30.2A19.77,19.77,0,0,1,54.43,36.05Z"/>
      <path d="M27.13,30.2,26,28.25a22.17,22.17,0,0,0-6.68,6.68l1.95,1.12A19.93,19.93,0,0,1,27.13,30.2Z"/>
      <path d="M57.57,45.78h2.26a22,22,0,0,0-2.44-9.12l-2,1.12A19.45,19.45,0,0,1,57.57,45.78Z"/>
      <path d="M36.85,27.06V24.8a22,22,0,0,0-9.12,2.45l1.13,1.95A19.6,19.6,0,0,1,36.85,27.06Z"/>
      <path d="M21.27,57.51l-1.95,1.12A22.17,22.17,0,0,0,26,65.31l1.13-2A20,20,0,0,1,21.27,57.51Z"/>
      <path d="M48.58,63.36l1.13,2a22,22,0,0,0,6.67-6.68l-2-1.12A19.89,19.89,0,0,1,48.58,63.36Z"/>
      <path d="M57.57,47.78a19.41,19.41,0,0,1-2.14,8l2,1.13a22,22,0,0,0,2.44-9.12Z"/>
      <path d="M18.14,47.78H15.88a21.88,21.88,0,0,0,2.44,9.12l1.95-1.13A19.55,19.55,0,0,1,18.14,47.78Z"/>
      <path d="M20.27,37.78l-1.95-1.12a21.88,21.88,0,0,0-2.44,9.12h2.26A19.6,19.6,0,0,1,20.27,37.78Z"/>
    </g>
    <g>
      <path d="M101,71.38H98.57v2.74h-1.8V67.36H101v1.35H98.57V70H101Z"/>
      <path d="M106.13,72.06h-3.08a1.21,1.21,0,0,0,.44.74,1.18,1.18,0,0,0,.8.29,3.65,3.65,0,0,0,1.72-.5v1.09a3.94,3.94,0,0,1-.82.37,3.86,3.86,0,0,1-1.23.16,2.56,2.56,0,0,1-1.37-.34,2.12,2.12,0,0,1-.85-.93,3,3,0,0,1-.28-1.33,2.93,2.93,0,0,1,.28-1.31,2.07,2.07,0,0,1,.85-.91,2.65,2.65,0,0,1,1.37-.33,2.11,2.11,0,0,1,1,.27,2,2,0,0,1,.82.85,3.28,3.28,0,0,1,.32,1.53Zm-1.46-.87a1.32,1.32,0,0,0-.2-.76.7.7,0,0,0-.6-.29.79.79,0,0,0-.63.29,1.17,1.17,0,0,0-.24.76Z"/>
      <path d="M111,72.06h-3.08a1.26,1.26,0,0,0,.44.74,1.2,1.2,0,0,0,.8.29,3.68,3.68,0,0,0,1.73-.5v1.09a4.19,4.19,0,0,1-.82.37,4,4,0,0,1-1.23.16,2.62,2.62,0,0,1-1.38-.34,2.18,2.18,0,0,1-.85-.93,3,3,0,0,1-.28-1.33,2.93,2.93,0,0,1,.28-1.31,2.13,2.13,0,0,1,.85-.91,2.71,2.71,0,0,1,1.38-.33,2.1,2.1,0,0,1,1,.27,1.88,1.88,0,0,1,.82.85,3.28,3.28,0,0,1,.32,1.53Zm-1.45-.87a1.25,1.25,0,0,0-.21-.76.7.7,0,0,0-.6-.29.75.75,0,0,0-.62.29,1.17,1.17,0,0,0-.24.76Z"/>
      <path d="M116.06,74.12h-1.55v-.45a2.62,2.62,0,0,1-.52.39,1.57,1.57,0,0,1-.76.15,1.81,1.81,0,0,1-.93-.27,2,2,0,0,1-.76-.84,3,3,0,0,1-.3-1.43,3.58,3.58,0,0,1,.23-1.27,2.07,2.07,0,0,1,.7-1,1.85,1.85,0,0,1,1.17-.38,1.77,1.77,0,0,1,1.17.38V67.36h1.55Zm-1.55-1.58v-1.9l-.43-.24a.8.8,0,0,0-.36-.08.71.71,0,0,0-.6.36,1.58,1.58,0,0,0-.25.95,1.47,1.47,0,0,0,.26,1,.76.76,0,0,0,.59.3.9.9,0,0,0,.46-.1A1.79,1.79,0,0,0,114.51,72.54Z"/>
    </g>
    <path d="M115.39,29.2l1.13-1.95a21.89,21.89,0,0,0-9.12-2.45v2.26A19.6,19.6,0,0,1,115.39,29.2Z"/>
    <path d="M123,36.05l2-1.12a22.17,22.17,0,0,0-6.68-6.68l-1.13,1.95A19.93,19.93,0,0,1,123,36.05Z"/>
    <path d="M95.67,30.2l-1.13-1.95a22,22,0,0,0-6.67,6.68l1.95,1.12A19.77,19.77,0,0,1,95.67,30.2Z"/>
    <path d="M105.4,27.06V24.8a22,22,0,0,0-9.13,2.45L97.4,29.2A19.61,19.61,0,0,1,105.4,27.06Z"/>
    <path d="M89.82,57.51l-1.95,1.12a22,22,0,0,0,6.67,6.68l1.13-2A19.89,19.89,0,0,1,89.82,57.51Z"/>
    <path d="M117.12,63.36l1.13,2a22.17,22.17,0,0,0,6.68-6.68l-2-1.12A20,20,0,0,1,117.12,63.36Z"/>
    <path d="M86.68,47.78H84.42a22,22,0,0,0,2.44,9.12l2-1.13A19.41,19.41,0,0,1,86.68,47.78Z"/>
    <path d="M88.82,37.78l-2-1.12a22,22,0,0,0-2.44,9.12h2.26A19.45,19.45,0,0,1,88.82,37.78Z"/>
    <g>
      <path d="M32.61,129.32H30.14v2.74h-1.8v-6.77h4.27v1.36H30.14V128h2.47Z"/>
      <path d="M37.75,131.81l-.63.25a2.31,2.31,0,0,1-.69.09.73.73,0,0,1-.53-.15.91.91,0,0,1-.22-.38,2.34,2.34,0,0,1-.55.38,1.84,1.84,0,0,1-.8.15,1.35,1.35,0,0,1-.77-.19,1,1,0,0,1-.42-.47,1.71,1.71,0,0,1-.11-.59,1.29,1.29,0,0,1,.2-.76,1.63,1.63,0,0,1,.55-.49,6.37,6.37,0,0,1,.91-.4l.49-.17.24-.1a.76.76,0,0,0,.18-.09,1.08,1.08,0,0,0-.13-.56.63.63,0,0,0-.56-.21,1.91,1.91,0,0,0-.94.25,3.31,3.31,0,0,0-.8.66v-1.35a3,3,0,0,1,.62-.38,2.92,2.92,0,0,1,.71-.22,3.55,3.55,0,0,1,.73-.08,2.11,2.11,0,0,1,1.43.42,1.44,1.44,0,0,1,.48,1.15v1.92a1.37,1.37,0,0,0,0,.41.16.16,0,0,0,.16.13,1,1,0,0,0,.4-.14Zm-2.15-.95v-1.18a3.9,3.9,0,0,0-.81.46.67.67,0,0,0-.25.55.5.5,0,0,0,.13.38.37.37,0,0,0,.29.13.52.52,0,0,0,.31-.1Z"/>
      <path d="M42.51,132.06H41v-.45a2.62,2.62,0,0,1-.52.39,1.56,1.56,0,0,1-.75.15,1.85,1.85,0,0,1-.94-.27A2,2,0,0,1,38,131a3.16,3.16,0,0,1-.29-1.43,3.53,3.53,0,0,1,.22-1.27,2.16,2.16,0,0,1,.7-1,1.9,1.9,0,0,1,1.17-.37,1.94,1.94,0,0,1,.7.11,2,2,0,0,1,.47.27v-2.09h1.55ZM41,130.48v-1.9a2.94,2.94,0,0,0-.43-.24.78.78,0,0,0-.35-.08.72.72,0,0,0-.61.35,1.71,1.71,0,0,0-.24,1,1.47,1.47,0,0,0,.25,1,.77.77,0,0,0,.6.3.88.88,0,0,0,.45-.1A2.39,2.39,0,0,0,41,130.48Z"/>
      <path d="M47.62,130H44.54a1.27,1.27,0,0,0,1.24,1,3.8,3.8,0,0,0,1.73-.5v1.09a4.87,4.87,0,0,1-.82.37,4.17,4.17,0,0,1-1.23.16,2.62,2.62,0,0,1-1.38-.34,2.18,2.18,0,0,1-.85-.93,3.13,3.13,0,0,1-.28-1.33,3.07,3.07,0,0,1,.28-1.31,2.08,2.08,0,0,1,.85-.91,2.71,2.71,0,0,1,1.38-.33,2.25,2.25,0,0,1,1,.26,2,2,0,0,1,.81.86,3.1,3.1,0,0,1,.32,1.53Zm-1.45-.87a1.25,1.25,0,0,0-.21-.76.7.7,0,0,0-.6-.29.77.77,0,0,0-.62.29,1.17,1.17,0,0,0-.24.76Z"/>
    </g>
    <path d="M46.85,87.14l1.13-2a22,22,0,0,0-9.13-2.45V85A19.45,19.45,0,0,1,46.85,87.14Z"/>
    <path d="M54.43,94l2-1.13a22.1,22.1,0,0,0-6.67-6.67l-1.13,2A19.77,19.77,0,0,1,54.43,94Z"/>
    <path d="M27.13,88.14l-1.13-2a22.25,22.25,0,0,0-6.68,6.67L21.27,94A19.93,19.93,0,0,1,27.13,88.14Z"/>
    <path d="M57.57,103.72h2.26a22,22,0,0,0-2.44-9.12l-2,1.12A19.45,19.45,0,0,1,57.57,103.72Z"/>
    <path d="M36.85,85V82.74a22,22,0,0,0-9.12,2.45l1.13,2A19.45,19.45,0,0,1,36.85,85Z"/>
    <path d="M21.27,115.44l-1.95,1.13A22.17,22.17,0,0,0,26,123.25l1.13-2A20,20,0,0,1,21.27,115.44Z"/>
    <path d="M48.58,121.3l1.13,2a22,22,0,0,0,6.67-6.68l-2-1.13A19.81,19.81,0,0,1,48.58,121.3Z"/>
    <path d="M57.57,105.72a19.41,19.41,0,0,1-2.14,8l2,1.13a22,22,0,0,0,2.44-9.12Z"/>
    <path d="M18.14,105.72H15.88a21.88,21.88,0,0,0,2.44,9.12l1.95-1.13A19.55,19.55,0,0,1,18.14,105.72Z"/>
    <path d="M20.27,95.72,18.32,94.6a21.88,21.88,0,0,0-2.44,9.12h2.26A19.6,19.6,0,0,1,20.27,95.72Z"/>
    <g>
      <path d="M106,132.06h-1.8v-3.92l-1.62,2.27h-.14l-1.62-2.27v3.92H99.11v-6.77h1.63l1.83,2.54,1.84-2.54H106Z"/>
      <path d="M108.57,132.06H107v-5h1.55Zm-.13-6.12a.77.77,0,0,1-.19.53.6.6,0,0,1-.46.21.56.56,0,0,1-.33-.1.58.58,0,0,1-.23-.26.82.82,0,0,1-.09-.38.76.76,0,0,1,.19-.52.59.59,0,0,1,.92,0A.76.76,0,0,1,108.44,125.94Z"/>
      <path d="M114.15,132.06h-1.9l-.85-1.41-.84,1.41h-1.7l1.7-2.44-1.73-2.53h1.9l.81,1.35.82-1.35h1.69l-1.65,2.36Z"/>
    </g>
    <path d="M115.39,87.14l1.13-2a21.89,21.89,0,0,0-9.12-2.45V85A19.45,19.45,0,0,1,115.39,87.14Z"/>
    <path d="M123,94l2-1.13a22.25,22.25,0,0,0-6.68-6.67l-1.13,2A19.93,19.93,0,0,1,123,94Z"/>
    <path d="M95.67,88.14l-1.13-2a22.1,22.1,0,0,0-6.67,6.67L89.82,94A19.77,19.77,0,0,1,95.67,88.14Z"/>
    <path d="M126.11,103.72h2.26a21.88,21.88,0,0,0-2.44-9.12l-2,1.12A19.6,19.6,0,0,1,126.11,103.72Z"/>
    <path d="M105.4,85V82.74a22,22,0,0,0-9.13,2.45l1.13,2A19.45,19.45,0,0,1,105.4,85Z"/>
    <path d="M89.82,115.44l-1.95,1.13a22,22,0,0,0,6.67,6.68l1.13-2A19.81,19.81,0,0,1,89.82,115.44Z"/>
    <path d="M117.12,121.3l1.13,2a22.17,22.17,0,0,0,6.68-6.68l-2-1.13A20,20,0,0,1,117.12,121.3Z"/>
    <path d="M126.11,105.72a19.55,19.55,0,0,1-2.13,8l2,1.13a21.88,21.88,0,0,0,2.44-9.12Z"/>
    <path d="M86.68,105.72H84.42a22,22,0,0,0,2.44,9.12l2-1.13A19.41,19.41,0,0,1,86.68,105.72Z"/>
    <path d="M88.82,95.72l-2-1.12a22,22,0,0,0-2.44,9.12h2.26A19.45,19.45,0,0,1,88.82,95.72Z"/>
  </g>
  <g id="components">
    <circle id="Out" cx="115.17" cy="313.84" r="11.34" style="fill: blue"/>
    <circle id="Fade_CV" data-name="Fade CV" cx="72.13" cy="313.84" r="11.34" style="fill: lime"/>
    <circle id="Clock" cx="29.94" cy="313.84" r="11.34" style="fill: #80ff80"/>
    <circle id="Feed_CV" data-name="Feed CV" cx="115.17" cy="272.23" r="11.34" style="fill: lime"/>
    <circle id="Delay_CV_Jack" data-name="Delay CV Jack" cx="72.13" cy="272.23" r="11.34" style="fill: lime"/>
    <circle id="Input" cx="29.94" cy="272.23" r="11.34" style="fill: lime"/>
    <circle id="Delay_CV" data-name="Delay CV" cx="72.12" cy="162.82" r="17.01" style="fill: #ff0080"/>
    <circle id="Mix" cx="106.4" cy="104.62" r="17.01" style="fill: #ff0070"/>
    <circle id="Fade" cx="37.85" cy="104.62" r="17.01" style="fill: #ff0070"/>
    <circle id="Feed" cx="106.4" cy="46.42" r="17.01" style="fill: #ff0070"/>
    <circle id="Delay" cx="37.85" cy="46.42" r="17.01" style="fill: #ff0070"/>
    <text id="slug" transform="translate(101.9 369.08)" style="font-size: 3px;font-family: MyriadPro-Regular, Myriad Pro"><tspan style="letter-spacing: -0.044921875em">F</tspan><tspan x="1.33" y="0">ade</tspan><tspan x="5.97" y="0" style="letter-spacing: 0.00390625em">D</tspan><tspan x="7.98" y="0">el</tspan><tspan x="10.19" y="0" style="letter-spacing: -0.008138020833333334em">a</tspan><tspan x="11.61" y="0">y</tspan></text>
    <text id="modulename" transform="translate(128.91 369.08)" style="font-size: 3px;font-family: MyriadPro-Regular, Myriad Pro"><tspan style="letter-spacing: -0.044921875em">F</tspan><tspan x="1.33" y="0">ade </tspan><tspan x="6.6" y="0" style="letter-spacing: 0.004231770833333333em">D</tspan><tspan x="8.61" y="0">el</tspan><tspan x="10.82" y="0" style="letter-spacing: -0.008138020833333334em">a</tspan><tspan x="12.25" y="0">y</tspan></text>
  </g>
</svg>
