<svg xmlns="http://www.w3.org/2000/svg" xmlns:xlink="http://www.w3.org/1999/xlink" width="20.41mm" height="130.6mm" viewBox="0 0 57.85 370.19">
  <defs>
    <clipPath id="clip-path">
      <rect x="15.02" y="32.98" width="27.8" height="25.62" style="fill: none"/>
    </clipPath>
    <clipPath id="clip-path-3">
      <rect x="15.02" y="80.77" width="27.8" height="25.62" style="fill: none"/>
    </clipPath>
    <clipPath id="clip-path-4">
      <rect x="15.02" y="80.77" width="27.8" height="25.62" style="fill: none"/>
    </clipPath>
    <clipPath id="clip-path-5">
      <rect x="15.02" y="128.98" width="27.8" height="25.62" style="fill: none"/>
    </clipPath>
  </defs>
  <g id="faceplate">
    <rect x="0.13" y="0.13" width="57.6" height="364.25" style="fill: #ededed;stroke: #9d9d9e;stroke-miterlimit: 10;stroke-width: 0.25px"/>
    <g>
      <path d="M34.54,7.39l-5.53,7v-6a1.29,1.29,0,0,0-.64-1.17.89.89,0,0,0-1.13.29L20,16.76a1.49,1.49,0,0,0,0,1.79.91.91,0,0,0,1.46,0l5.5-7v6a1.29,1.29,0,0,0,.64,1.17.91.91,0,0,0,1.14-.3l5.53-7v6.16a1.05,1.05,0,1,0,2.06,0V8.27a1.29,1.29,0,0,0-.65-1.18A.91.91,0,0,0,34.54,7.39Z" style="stroke: #000;stroke-width: 0.6000000000000001px"/>
      <path d="M20,7.32l-4.81,6.12a1.47,1.47,0,0,0,0,1.79.9.9,0,0,0,1.46,0l3.05-3.87v6.31a1.16,1.16,0,0,0,1,1.26,1.16,1.16,0,0,0,1-1.26V8.19A1.29,1.29,0,0,0,21.09,7,.9.9,0,0,0,20,7.32Z" style="stroke: #000;stroke-width: 0.6000000000000001px"/>
      <path d="M42.91,11.84a1,1,0,0,0-.95-.78h-2.1l1.53-2s.8-1.17.1-1.82a1.27,1.27,0,0,0-1.58.06l-3.23,4.1a1.47,1.47,0,0,0-.2,1.38,1.05,1.05,0,0,0,1,.77h2.1L37,16.77s-1,1.13-.27,1.89,1.75-.14,1.75-.14l4.18-5.31A1.48,1.48,0,0,0,42.91,11.84Z" style="stroke: #000;stroke-width: 0.6000000000000001px"/>
    </g>
    <g>
      <path d="M26.72,69.58H24.79l-.47-1.2a5.45,5.45,0,0,0-.46-1,1,1,0,0,0-.41-.39,1.18,1.18,0,0,0-.5-.09h-.2v2.64H21V62.82H24A1.94,1.94,0,0,1,25.9,64a2.31,2.31,0,0,1,.21.93,1.86,1.86,0,0,1-.18.86,1.61,1.61,0,0,1-.36.52,3.8,3.8,0,0,1-.44.31,1.72,1.72,0,0,1,.48.45,6.38,6.38,0,0,1,.51,1ZM24.28,65A.74.74,0,0,0,24,64.3a1.65,1.65,0,0,0-.88-.18h-.38v1.63h.38a1.7,1.7,0,0,0,.9-.17A.69.69,0,0,0,24.28,65Z"/>
      <path d="M28.56,69.58H27v-5h1.55Zm-.13-6.11a.74.74,0,0,1-.19.52.6.6,0,0,1-.46.21.63.63,0,0,1-.33-.09.67.67,0,0,1-.23-.27.78.78,0,0,1-.09-.37.77.77,0,0,1,.19-.53.59.59,0,0,1,.92,0A.77.77,0,0,1,28.43,63.47Z"/>
      <path d="M32.69,68.13a1.48,1.48,0,0,1-.44,1.11,1.78,1.78,0,0,1-1.31.43,3.22,3.22,0,0,1-.86-.1,8.13,8.13,0,0,1-.83-.28V68a5.62,5.62,0,0,0,.68.38,1.45,1.45,0,0,0,.63.13c.39,0,.58-.12.58-.36a.28.28,0,0,0-.08-.21,1.08,1.08,0,0,0-.29-.22l-.56-.29a2.16,2.16,0,0,1-.73-.57,1.35,1.35,0,0,1-.3-.89,1.44,1.44,0,0,1,.2-.71,1.48,1.48,0,0,1,.6-.56,2.12,2.12,0,0,1,1-.21,2.37,2.37,0,0,1,.35,0,3,3,0,0,1,.54.11,2.37,2.37,0,0,1,.61.27v1.21L32.23,66a2.08,2.08,0,0,0-.24-.15l-.37-.14a1.52,1.52,0,0,0-.42-.06.47.47,0,0,0-.37.12.36.36,0,0,0-.1.24.34.34,0,0,0,.1.22,1.7,1.7,0,0,0,.46.26,4.39,4.39,0,0,1,.83.46,1.61,1.61,0,0,1,.44.52A1.57,1.57,0,0,1,32.69,68.13Z"/>
      <path d="M37.66,67.52H34.58a1.28,1.28,0,0,0,.44.75,1.26,1.26,0,0,0,.8.28,3.78,3.78,0,0,0,1.73-.49v1.08a4.19,4.19,0,0,1-.82.37,3.91,3.91,0,0,1-1.23.16,2.62,2.62,0,0,1-1.38-.34,2.18,2.18,0,0,1-.85-.93,3.25,3.25,0,0,1,0-2.64,2.05,2.05,0,0,1,.85-.9,2.71,2.71,0,0,1,1.38-.33,2.13,2.13,0,0,1,1,.26,2,2,0,0,1,.81.85,3.16,3.16,0,0,1,.32,1.53Zm-1.45-.87a1.27,1.27,0,0,0-.21-.76.7.7,0,0,0-.6-.29.75.75,0,0,0-.62.3,1.13,1.13,0,0,0-.24.75Z"/>
    </g>
    <g id="pips_-_fewest" data-name="pips - fewest">
      <g style="clip-path: url(#clip-path)">
        <g style="clip-path: url(#clip-path)">
          <path d="M34.62,35.76l.71-1.23A13.72,13.72,0,0,0,29.56,33v1.43a12.39,12.39,0,0,1,5.06,1.35"/>
          <path d="M39.41,40.1l1.24-.71a14,14,0,0,0-4.23-4.23l-.71,1.23a12.7,12.7,0,0,1,3.7,3.71"/>
          <path d="M22.14,36.39l-.71-1.23a14,14,0,0,0-4.23,4.23l1.24.71a12.7,12.7,0,0,1,3.7-3.71"/>
          <path d="M41.4,46.25h1.43a13.87,13.87,0,0,0-1.55-5.77l-1.23.71a12.51,12.51,0,0,1,1.35,5.06"/>
          <path d="M28.29,34.41V33a13.72,13.72,0,0,0-5.77,1.55l.71,1.23a12.39,12.39,0,0,1,5.06-1.35"/>
          <path d="M18.44,53.67l-1.24.71a14,14,0,0,0,4.23,4.23l.71-1.24a12.55,12.55,0,0,1-3.7-3.7"/>
          <path d="M35.71,57.37l.71,1.24a14,14,0,0,0,4.23-4.23l-1.24-.71a12.55,12.55,0,0,1-3.7,3.7"/>
          <path d="M41.4,47.52a12.46,12.46,0,0,1-1.35,5l1.23.72a13.87,13.87,0,0,0,1.55-5.77Z"/>
          <path d="M16.45,47.52H15a13.87,13.87,0,0,0,1.55,5.77l1.23-.72a12.46,12.46,0,0,1-1.35-5"/>
          <path d="M17.8,41.19l-1.23-.71A13.87,13.87,0,0,0,15,46.25h1.43a12.51,12.51,0,0,1,1.35-5.06"/>
        </g>
      </g>
    </g>
    <g id="pips_-_fewest-2" data-name="pips - fewest">
      <g style="clip-path: url(#clip-path-3)">
        <g style="clip-path: url(#clip-path-4)">
          <path d="M34.62,83.55l.71-1.24a13.86,13.86,0,0,0-5.77-1.54v1.42a12.56,12.56,0,0,1,5.06,1.36"/>
          <path d="M39.41,87.88l1.24-.71A13.85,13.85,0,0,0,36.42,83l-.71,1.23a12.55,12.55,0,0,1,3.7,3.7"/>
          <path d="M22.14,84.18,21.43,83a13.85,13.85,0,0,0-4.23,4.22l1.24.71a12.55,12.55,0,0,1,3.7-3.7"/>
          <path d="M41.4,94h1.43a13.92,13.92,0,0,0-1.55-5.78L40.05,89A12.47,12.47,0,0,1,41.4,94"/>
          <path d="M28.29,82.19V80.77a13.86,13.86,0,0,0-5.77,1.54l.71,1.24a12.56,12.56,0,0,1,5.06-1.36"/>
          <path d="M18.44,101.45l-1.24.72a14.07,14.07,0,0,0,4.23,4.22l.71-1.23a12.58,12.58,0,0,1-3.7-3.71"/>
          <path d="M35.71,105.16l.71,1.23a14.07,14.07,0,0,0,4.23-4.22l-1.24-.72a12.58,12.58,0,0,1-3.7,3.71"/>
          <path d="M41.4,95.3a12.51,12.51,0,0,1-1.35,5.06l1.23.71a13.87,13.87,0,0,0,1.55-5.77Z"/>
          <path d="M16.45,95.3H15a13.87,13.87,0,0,0,1.55,5.77l1.23-.71a12.51,12.51,0,0,1-1.35-5.06"/>
          <path d="M17.8,89l-1.23-.72A13.91,13.91,0,0,0,15,94h1.43a12.46,12.46,0,0,1,1.35-5"/>
        </g>
      </g>
    </g>
    <g>
      <path d="M26.52,115.5H24.05v2.73H22.26v-6.76h4.26v1.35H24.05v1.31h2.47Z"/>
      <path d="M31.66,118a5.56,5.56,0,0,1-.62.24,2.43,2.43,0,0,1-.7.09.75.75,0,0,1-.53-.15.85.85,0,0,1-.21-.37,2.37,2.37,0,0,1-.56.37,1.81,1.81,0,0,1-.8.15,1.4,1.4,0,0,1-.77-.19,1,1,0,0,1-.41-.47,1.52,1.52,0,0,1-.12-.59,1.31,1.31,0,0,1,.21-.76,1.51,1.51,0,0,1,.54-.49,7,7,0,0,1,.91-.39l.49-.18.25-.1.17-.08a1,1,0,0,0-.13-.57c-.08-.14-.27-.21-.56-.21a1.85,1.85,0,0,0-.94.26,3.46,3.46,0,0,0-.79.65v-1.34a2.69,2.69,0,0,1,.62-.39,3.35,3.35,0,0,1,.7-.22,3.64,3.64,0,0,1,.74-.07,2.18,2.18,0,0,1,1.43.41,1.46,1.46,0,0,1,.48,1.15v1.92a1.44,1.44,0,0,0,0,.41.17.17,0,0,0,.17.13.77.77,0,0,0,.39-.14Zm-2.15-1v-1.17a4.35,4.35,0,0,0-.8.45.68.68,0,0,0-.26.55.53.53,0,0,0,.13.38.41.41,0,0,0,.3.14.63.63,0,0,0,.31-.1A2.33,2.33,0,0,0,29.51,117Z"/>
      <path d="M33.43,118.23H31.87v-6.76h1.56Z"/>
      <path d="M35.77,118.23H34.22v-6.76h1.55Z"/>
    </g>
    <g id="pips_-_fewest-3" data-name="pips - fewest">
      <g style="clip-path: url(#clip-path-5)">
        <g style="clip-path: url(#clip-path-5)">
          <path d="M34.62,131.76l.71-1.23A13.87,13.87,0,0,0,29.56,129v1.43a12.55,12.55,0,0,1,5.06,1.35"/>
          <path d="M39.41,136.1l1.24-.71a14,14,0,0,0-4.23-4.23l-.71,1.24a12.55,12.55,0,0,1,3.7,3.7"/>
          <path d="M22.14,132.4l-.71-1.24a14,14,0,0,0-4.23,4.23l1.24.71a12.55,12.55,0,0,1,3.7-3.7"/>
          <path d="M41.4,142.25h1.43a13.87,13.87,0,0,0-1.55-5.77l-1.23.71a12.55,12.55,0,0,1,1.35,5.06"/>
          <path d="M28.29,130.41V129a13.87,13.87,0,0,0-5.77,1.55l.71,1.23a12.55,12.55,0,0,1,5.06-1.35"/>
          <path d="M18.44,149.67l-1.24.71a14,14,0,0,0,4.23,4.23l.71-1.24a12.55,12.55,0,0,1-3.7-3.7"/>
          <path d="M35.71,153.37l.71,1.24a14,14,0,0,0,4.23-4.23l-1.24-.71a12.55,12.55,0,0,1-3.7,3.7"/>
          <path d="M41.4,143.52a12.55,12.55,0,0,1-1.35,5.06l1.23.71a13.87,13.87,0,0,0,1.55-5.77Z"/>
          <path d="M16.45,143.52H15a13.87,13.87,0,0,0,1.55,5.77l1.23-.71a12.55,12.55,0,0,1-1.35-5.06"/>
          <path d="M17.8,137.19l-1.23-.71A13.87,13.87,0,0,0,15,142.25h1.43a12.55,12.55,0,0,1,1.35-5.06"/>
        </g>
      </g>
    </g>
    <g>
      <path d="M20.36,161.33H18.18v5.12H16.39v-5.12H14.2v-1.65h6.16Z"/>
      <path d="M25.48,166.45H23.93V163.7a1.54,1.54,0,0,0-.13-.65.51.51,0,0,0-.51-.3.7.7,0,0,0-.51.22,3.29,3.29,0,0,0-.43.56v2.92H20.8v-6.77h1.55v2.51a2.21,2.21,0,0,1,.76-.63,1.93,1.93,0,0,1,.79-.17c1.05,0,1.58.67,1.58,2Z"/>
      <path d="M29.9,161.75l-.57,1.76a1,1,0,0,0-.72-.38.78.78,0,0,0-.56.25,2.64,2.64,0,0,0-.46.93v2.14H26v-5h1.55v1.2a2.54,2.54,0,0,1,.52-.86,1.12,1.12,0,0,1,1.32-.34A3.58,3.58,0,0,1,29.9,161.75Z"/>
      <path d="M34.53,164.39H31.45a1.17,1.17,0,0,0,.44.74,1.18,1.18,0,0,0,.8.29,3.65,3.65,0,0,0,1.72-.5V166a3.94,3.94,0,0,1-.82.37,4.17,4.17,0,0,1-1.23.16A2.56,2.56,0,0,1,31,166.2a2.12,2.12,0,0,1-.85-.93,3,3,0,0,1-.28-1.33,2.93,2.93,0,0,1,.28-1.31,2.07,2.07,0,0,1,.85-.91,2.65,2.65,0,0,1,1.37-.33,2.25,2.25,0,0,1,1,.26,2.07,2.07,0,0,1,.82.86,3.22,3.22,0,0,1,.32,1.53Zm-1.46-.87a1.25,1.25,0,0,0-.21-.76.67.67,0,0,0-.59-.29.79.79,0,0,0-.63.29,1.17,1.17,0,0,0-.24.76Z"/>
      <path d="M38.35,165a1.44,1.44,0,0,1-.44,1.11,1.77,1.77,0,0,1-1.3.43,3.25,3.25,0,0,1-.87-.1,5.83,5.83,0,0,1-.82-.29V164.9a5.15,5.15,0,0,0,.68.39,1.45,1.45,0,0,0,.63.13c.38,0,.58-.12.58-.36a.33.33,0,0,0-.09-.22,1.14,1.14,0,0,0-.29-.21c-.14-.08-.32-.18-.56-.29a2.37,2.37,0,0,1-.73-.57,1.35,1.35,0,0,1-.3-.89,1.41,1.41,0,0,1,.2-.71,1.58,1.58,0,0,1,.61-.56,2.07,2.07,0,0,1,1-.22l.35,0a3,3,0,0,1,.54.11,2.81,2.81,0,0,1,.62.26V163l-.23-.16-.25-.14a2.08,2.08,0,0,0-.36-.14,1.54,1.54,0,0,0-.43-.06.47.47,0,0,0-.37.12.37.37,0,0,0-.09.23.32.32,0,0,0,.1.23,1.54,1.54,0,0,0,.46.26,3.8,3.8,0,0,1,.82.46,1.32,1.32,0,0,1,.44.52A1.54,1.54,0,0,1,38.35,165Z"/>
      <path d="M43.51,166.45H42v-2.58a.09.09,0,0,1,0-.05v-.12a1.71,1.71,0,0,0-.13-.65.51.51,0,0,0-.51-.3.7.7,0,0,0-.52.22,2.82,2.82,0,0,0-.42.56v2.92H38.84v-6.77h1.55v2.51a2.1,2.1,0,0,1,.75-.63,2,2,0,0,1,.8-.17c1.05,0,1.57.67,1.57,2Z"/>
    </g>
    <g>
      <path d="M23,354.37H20.51v3H18.67v-7.45H23v1.5H20.51v1.44H23Z"/>
      <path d="M28.91,357.38H24.28v-7.45h1.84v5.67h2.79Z"/>
      <path d="M39.87,349.93l-2.64,7.55H36.16l-1.58-4.39L33,357.48H31.88l-2.59-7.55H31.2l1.26,4.13,1.46-4.13h1.31l1.43,4.13L38,349.93Z"/>
    </g>
    <path d="M28.93,198.12c8,0,14.53,6,14.53,13.46V276.5c0,7.42-6.52,13.46-14.54,13.46s-14.53-6-14.53-13.46V211.58c0-7.42,6.52-13.46,14.54-13.46m0-1.06c-8.62,0-15.6,6.5-15.6,14.52V276.5c0,8,7,14.51,15.59,14.51s15.6-6.5,15.6-14.51V211.58c0-8-7-14.52-15.59-14.52Z"/>
    <g>
      <path d="M22.19,239.69H20.75v-5.42h1.44Z" style="fill: #231f20"/>
      <path d="M26.64,239.69H25.41v-2.15a1.61,1.61,0,0,0-.1-.57.39.39,0,0,0-.41-.24.6.6,0,0,0-.27.06.68.68,0,0,0-.21.17,1.25,1.25,0,0,0-.15.19l-.13.2v2.34H22.91v-4h1.23v.57a1.87,1.87,0,0,1,.59-.5,1.55,1.55,0,0,1,.65-.14q1.26,0,1.26,1.71Z" style="fill: #231f20"/>
      <path d="M31,237.67a3.25,3.25,0,0,1-.1.77,2.16,2.16,0,0,1-.31.67,1.38,1.38,0,0,1-.52.47,1.54,1.54,0,0,1-.75.18,1.32,1.32,0,0,1-.54-.09,1.93,1.93,0,0,1-.4-.21v2H27.1v-5.79h1.23v.36a2,2,0,0,1,.41-.31,1.37,1.37,0,0,1,.62-.12,1.46,1.46,0,0,1,.74.21,1.66,1.66,0,0,1,.61.67A2.48,2.48,0,0,1,31,237.67Zm-1.31,0a1.37,1.37,0,0,0-.1-.58.72.72,0,0,0-.25-.33.7.7,0,0,0-.33-.1.74.74,0,0,0-.36.08,1.65,1.65,0,0,0-.27.21v1.52l.14.08.15.09.16.06.18,0a.58.58,0,0,0,.49-.28A1.35,1.35,0,0,0,29.64,237.7Z" style="fill: #231f20"/>
      <path d="M35,239.69H33.76v-.57a2.18,2.18,0,0,1-.55.48,1.54,1.54,0,0,1-.7.16,1,1,0,0,1-1-.53,2.79,2.79,0,0,1-.23-1.18v-2.34h1.23v2.15a1.7,1.7,0,0,0,.1.57.39.39,0,0,0,.41.24.56.56,0,0,0,.43-.17,2.92,2.92,0,0,0,.33-.45v-2.34H35Z" style="fill: #231f20"/>
      <path d="M38.27,239.46a3.14,3.14,0,0,1-.54.2,2.5,2.5,0,0,1-.64.1c-.89,0-1.34-.5-1.34-1.49v-1.58h-.56v-.25l1.66-1.92H37v1.19h1.18v1H37V238a3.21,3.21,0,0,0,0,.36.43.43,0,0,0,.14.23.53.53,0,0,0,.34.09,1.64,1.64,0,0,0,.78-.28Z" style="fill: #231f20"/>
    </g>
    <path d="M44.52,260.47c0-8-7-14.52-15.59-14.52s-15.59,6.5-15.59,14.52v55.84h0v19.85A5.7,5.7,0,0,0,19,341.83H38.85a5.7,5.7,0,0,0,5.67-5.67V316.31h0Z"/>
    <g>
      <path d="M26.22,289.21l-.26.11-.21.07-.3.09a5,5,0,0,1-.65.14c-.22,0-.44,0-.69,0a3,3,0,0,1-1.34-.3,2.31,2.31,0,0,1-1-.93,3,3,0,0,1-.37-1.56,3.53,3.53,0,0,1,.19-1.16,2.05,2.05,0,0,1,.58-.92,2.81,2.81,0,0,1,.66-.44,2.7,2.7,0,0,1,.65-.2,4.86,4.86,0,0,1,.69,0,4.24,4.24,0,0,1,1,.11c.27.07.57.17.9.28v1.28a4.1,4.1,0,0,0-.69-.36,2.58,2.58,0,0,0-.9-.14,1.66,1.66,0,0,0-1,.27,1.39,1.39,0,0,0-.52.64,1.85,1.85,0,0,0-.15.71,1.73,1.73,0,0,0,.17.76,1.31,1.31,0,0,0,.51.56,1.63,1.63,0,0,0,.82.2,2.09,2.09,0,0,0,.59-.08v-.63h-.65v-1.09h1.9Z" style="fill: #fff"/>
      <path d="M30.5,289.39c-.18.08-.35.15-.5.2a2.25,2.25,0,0,1-.56.07.59.59,0,0,1-.42-.12.75.75,0,0,1-.18-.3,1.9,1.9,0,0,1-.44.3,1.43,1.43,0,0,1-.64.12,1.16,1.16,0,0,1-.62-.15.92.92,0,0,1-.33-.38,1.27,1.27,0,0,1-.09-.47,1.07,1.07,0,0,1,.16-.61,1.28,1.28,0,0,1,.44-.39,6,6,0,0,1,.73-.32l.39-.14.2-.07.14-.08a.83.83,0,0,0-.11-.45c-.07-.11-.21-.16-.44-.16a1.44,1.44,0,0,0-.76.2,2.81,2.81,0,0,0-.63.52v-1.07a2,2,0,0,1,.5-.31,2.45,2.45,0,0,1,.56-.18,2.88,2.88,0,0,1,.59-.06,1.67,1.67,0,0,1,1.14.34,1.14,1.14,0,0,1,.38.92v1.53a1.22,1.22,0,0,0,0,.33.14.14,0,0,0,.13.11.71.71,0,0,0,.32-.12Zm-1.72-.76v-.94a3,3,0,0,0-.65.36.56.56,0,0,0-.2.44.41.41,0,0,0,.1.31.33.33,0,0,0,.24.1.41.41,0,0,0,.25-.08Z" style="fill: #fff"/>
      <path d="M33.36,289.36a2.19,2.19,0,0,1-.53.2,2.13,2.13,0,0,1-.64.1c-.9,0-1.34-.49-1.34-1.48v-1.59h-.56v-.25L32,284.42h.14v1.19h1.18v1H32.09v1.27a3.21,3.21,0,0,0,0,.36.43.43,0,0,0,.14.23.53.53,0,0,0,.34.09,1.65,1.65,0,0,0,.77-.28Z" style="fill: #fff"/>
      <path d="M37.21,287.94H34.75a1.08,1.08,0,0,0,.35.6,1,1,0,0,0,.64.23,3.12,3.12,0,0,0,1.39-.4v.87a4.18,4.18,0,0,1-.66.29,3.08,3.08,0,0,1-1,.13,2.14,2.14,0,0,1-1.1-.27,1.76,1.76,0,0,1-.68-.75,2.64,2.64,0,0,1,0-2.11,1.63,1.63,0,0,1,.68-.72,2.14,2.14,0,0,1,1.1-.27,1.76,1.76,0,0,1,.83.21,1.62,1.62,0,0,1,.65.69,2.54,2.54,0,0,1,.25,1.22Zm-1.16-.69a1.06,1.06,0,0,0-.16-.62.57.57,0,0,0-.48-.22.59.59,0,0,0-.5.23.91.91,0,0,0-.19.61Z" style="fill: #fff"/>
    </g>
    <g>
      <path d="M27.18,336.85H23.59v-5.42h3.53v1.09H25v1h2v1.09H25v1.16h2.15Z" style="fill: #fff"/>
      <path d="M31.4,336.85H30.16V334.7a1.42,1.42,0,0,0-.1-.57.39.39,0,0,0-.41-.24.6.6,0,0,0-.27.06.79.79,0,0,0-.2.17c-.06.06-.11.13-.16.19l-.12.2v2.34H27.66v-4H28.9v.57a1.85,1.85,0,0,1,.58-.5,1.59,1.59,0,0,1,.66-.14q1.26,0,1.26,1.71Z" style="fill: #fff"/>
      <path d="M35.55,332.87l-1.6,4H33l-1.56-4h1.33l.73,2.08.8-2.08Z" style="fill: #fff"/>
    </g>
  </g>
  <g id="components">
    <circle id="Env" cx="28.93" cy="311.23" r="11.34" style="fill: blue"/>
    <circle id="Gate" cx="28.93" cy="263.64" r="11.34" style="fill: blue"/>
    <circle id="Input" cx="28.93" cy="214.54" r="11.34" style="fill: lime"/>
    <circle id="Thresh" cx="28.93" cy="142.56" r="8.5" style="fill: red"/>
    <circle id="Fall" cx="28.93" cy="94.35" r="8.5" style="fill: red"/>
    <circle id="Rise" cx="28.93" cy="46.67" r="8.5" style="fill: red"/>
    <text id="slug" transform="translate(33.23 369.44)" style="font-size: 3px;font-family: MyriadPro-Regular, Myriad Pro">F<tspan x="1.46" y="0" style="letter-spacing: -0.058919270833333336em">L</tspan><tspan x="2.7" y="0">W</tspan></text>
    <text id="modulename" transform="translate(46.55 369.44)" style="font-size: 3px;font-family: MyriadPro-Regular, Myriad Pro"><tspan style="letter-spacing: -0.030924479166666668em">F</tspan><tspan x="1.37" y="0" style="letter-spacing: -0.0003255208333333333em">oll</tspan><tspan x="4.43" y="0" style="letter-spacing: -0.007161458333333333em">o</tspan><tspan x="6.06" y="0" style="letter-spacing: -0.009765625em">w</tspan><tspan x="8.24" y="0">er</tspan></text>
  </g>
</svg>
