<svg xmlns="http://www.w3.org/2000/svg" xmlns:xlink="http://www.w3.org/1999/xlink" width="40.73mm" height="130.6mm" viewBox="0 0 115.45 370.19">
  <defs>
    <clipPath id="clip-path">
      <rect x="18.97" y="112.93" width="27.8" height="25.62" style="fill: none"/>
    </clipPath>
    <clipPath id="clip-path-3">
      <rect x="70.51" y="112.93" width="27.8" height="25.62" style="fill: none"/>
    </clipPath>
    <clipPath id="clip-path-5">
      <rect x="18.97" y="156.07" width="27.8" height="25.62" style="fill: none"/>
    </clipPath>
    <clipPath id="clip-path-7">
      <rect x="70.51" y="156.07" width="27.8" height="25.62" style="fill: none"/>
    </clipPath>
    <clipPath id="clip-path-9">
      <rect x="18.97" y="26.65" width="27.8" height="25.62" style="fill: none"/>
    </clipPath>
    <clipPath id="clip-path-11">
      <rect x="70.51" y="26.65" width="27.8" height="25.62" style="fill: none"/>
    </clipPath>
    <clipPath id="clip-path-13">
      <rect x="18.97" y="69.79" width="27.8" height="25.62" style="fill: none"/>
    </clipPath>
    <clipPath id="clip-path-15">
      <rect x="70.51" y="69.79" width="27.8" height="25.62" style="fill: none"/>
    </clipPath>
  </defs>
  <g id="faceplate">
    <rect x="0.13" y="0.13" width="115.2" height="364.25" style="fill: #ededed;stroke: #9d9d9e;stroke-miterlimit: 10;stroke-width: 0.25px"/>
    <g>
      <path d="M55.74,354.41H53.21v3H51.37V350h4.37v1.5H53.21v1.44h2.53Z"/>
      <path d="M64.08,357.43H62.24v-4.32l-1.67,2.5h-.14l-1.67-2.5v4.32H57V350h1.67l1.87,2.8,1.89-2.8h1.67Z"/>
    </g>
    <path d="M101.64,316.34V293.12H80.1c-7.49,0-13.57,7-13.57,15.71v32.94H96a5.67,5.67,0,0,0,5.64-5.67V316.34Z"/>
    <path d="M29.52,341.28H87.87c7.35,0,13.31-7,13.31-15.67V218l-.06-6.21c-.29-8.36-6.12-15-13.28-15H29.49c-7.17,0-13,6.67-13.29,15L16.14,218v46.49l.07,61.17" style="fill: none;stroke: #000;stroke-miterlimit: 10"/>
    <path d="M16.21,324.65v11a5.68,5.68,0,0,0,5.67,5.67H34.81" style="fill: none;stroke: #231f20;stroke-miterlimit: 10"/>
    <g>
      <path d="M76.49,234.42l-2.15,5.48h-1l-2.1-5.48h1.49l1.09,3.12L75,234.42Z" style="fill: #231f20"/>
      <path d="M79.88,234.34l-2.59,5.56h-.92L79,234.34Z" style="fill: #231f20"/>
      <path d="M85.4,237.12a3.08,3.08,0,0,1-.31,1.39,2.37,2.37,0,0,1-.91,1,2.78,2.78,0,0,1-1.48.37,2.75,2.75,0,0,1-1.5-.39,2.38,2.38,0,0,1-.91-1,3.14,3.14,0,0,1-.3-1.36,3.19,3.19,0,0,1,.3-1.37,2.42,2.42,0,0,1,.91-1,2.75,2.75,0,0,1,1.5-.39,3.05,3.05,0,0,1,1.17.22,2.24,2.24,0,0,1,.85.61,2.42,2.42,0,0,1,.51.88A3.47,3.47,0,0,1,85.4,237.12Zm-1.46,0a2,2,0,0,0-.08-.56,1.07,1.07,0,0,0-.24-.43,1,1,0,0,0-.39-.29,1.25,1.25,0,0,0-.53-.11,1.12,1.12,0,0,0-.91.39,1.47,1.47,0,0,0-.33,1,1.52,1.52,0,0,0,.33,1,1.15,1.15,0,0,0,.91.38,1.22,1.22,0,0,0,.67-.18,1.06,1.06,0,0,0,.42-.49A1.66,1.66,0,0,0,83.94,237.12Z" style="fill: #231f20"/>
      <path d="M88.81,239.65l-.33.12a1.93,1.93,0,0,1-.38.09,2.35,2.35,0,0,1-.47,0,1.91,1.91,0,0,1-1-.22,1.76,1.76,0,0,1-.62-.55,2.26,2.26,0,0,1-.29-.69,2.11,2.11,0,0,1,0-1.22,1.9,1.9,0,0,1,.29-.67,1.64,1.64,0,0,1,.61-.55,2.06,2.06,0,0,1,1-.22,2.24,2.24,0,0,1,.63.07,3.11,3.11,0,0,1,.49.16v1.11a2.85,2.85,0,0,0-.94-.22.83.83,0,0,0-.84.93,1.07,1.07,0,0,0,.12.53.84.84,0,0,0,.33.32.81.81,0,0,0,.39.1,1.76,1.76,0,0,0,.42-.06l.58-.18Z" style="fill: #231f20"/>
      <path d="M91.89,239.6a2.58,2.58,0,0,1-.53.2,2.19,2.19,0,0,1-.65.1c-.89,0-1.34-.49-1.34-1.48v-1.59h-.56v-.25l1.66-1.92h.14v1.19H91.8v1H90.61v1.27a1.73,1.73,0,0,0,0,.36.36.36,0,0,0,.13.23.55.55,0,0,0,.34.09,1.64,1.64,0,0,0,.78-.28Z" style="fill: #231f20"/>
      <path d="M97.49,238.26a1.55,1.55,0,0,1-.23.87,1.45,1.45,0,0,1-.63.57,2.2,2.2,0,0,1-.94.2l-.36,0a5.51,5.51,0,0,1-.58-.12,4.69,4.69,0,0,1-.74-.29v-1.33a4.88,4.88,0,0,0,.71.42,1.65,1.65,0,0,0,.75.17c.25,0,.4,0,.48-.14a.45.45,0,0,0,.11-.26.48.48,0,0,0-.19-.37,2.5,2.5,0,0,0-.54-.31,4.48,4.48,0,0,1-.69-.4,1.86,1.86,0,0,1-.48-.56,1.61,1.61,0,0,1-.19-.78,1.71,1.71,0,0,1,.19-.79,1.39,1.39,0,0,1,.58-.57,2,2,0,0,1,1-.21,2.81,2.81,0,0,1,.73.09,2.39,2.39,0,0,1,.56.2,2.36,2.36,0,0,1,.31.17v1.27a4.41,4.41,0,0,0-.66-.43,1.64,1.64,0,0,0-.76-.18.54.54,0,0,0-.39.11.4.4,0,0,0-.12.29.38.38,0,0,0,.12.28,1.86,1.86,0,0,0,.43.28c.36.2.66.38.88.53a1.85,1.85,0,0,1,.51.54A1.42,1.42,0,0,1,97.49,238.26Z" style="fill: #231f20"/>
    </g>
    <g>
      <path d="M77.09,288H75.65v-5.42h1.44Z" style="fill: #231f20"/>
      <path d="M81.54,288H80.3v-2.15a1.62,1.62,0,0,0-.09-.57.4.4,0,0,0-.42-.24.53.53,0,0,0-.26.06.68.68,0,0,0-.21.17,1.25,1.25,0,0,0-.15.19l-.13.2V288H77.8v-4H79v.57a1.87,1.87,0,0,1,.59-.5,1.51,1.51,0,0,1,.65-.14q1.26,0,1.26,1.71Z" style="fill: #231f20"/>
      <path d="M85.7,288H84.46v-.36a2.33,2.33,0,0,1-.41.31,1.28,1.28,0,0,1-.6.12,1.39,1.39,0,0,1-.75-.22,1.54,1.54,0,0,1-.61-.67,2.41,2.41,0,0,1-.24-1.14,2.84,2.84,0,0,1,.18-1,1.7,1.7,0,0,1,.56-.77,1.49,1.49,0,0,1,.94-.3,1.4,1.4,0,0,1,.55.09,1.38,1.38,0,0,1,.38.21v-1.67H85.7Zm-1.24-1.27v-1.52a2.58,2.58,0,0,0-.34-.19.61.61,0,0,0-.28-.06.57.57,0,0,0-.49.28,1.32,1.32,0,0,0-.19.76,1.15,1.15,0,0,0,.2.77.63.63,0,0,0,.48.24.64.64,0,0,0,.36-.08A1.21,1.21,0,0,0,84.46,286.69Z" style="fill: #231f20"/>
      <path d="M89.79,286.31H87.33a1,1,0,0,0,.35.59,1,1,0,0,0,.64.23,3,3,0,0,0,1.39-.4v.88a5.2,5.2,0,0,1-.66.29,3.39,3.39,0,0,1-1,.13,2,2,0,0,1-1.1-.28,1.73,1.73,0,0,1-.68-.74,2.42,2.42,0,0,1-.22-1.06,2.38,2.38,0,0,1,.22-1.05,1.71,1.71,0,0,1,.68-.73,2.21,2.21,0,0,1,1.1-.26,1.76,1.76,0,0,1,.83.21,1.65,1.65,0,0,1,.65.68,2.61,2.61,0,0,1,.25,1.23Zm-1.16-.7a1,1,0,0,0-.16-.61.56.56,0,0,0-.48-.23.59.59,0,0,0-.5.24.88.88,0,0,0-.19.6Z" style="fill: #231f20"/>
      <path d="M94,288H92.49l-.67-1.13L91.14,288H89.79l1.35-2-1.38-2h1.52l.65,1.08.65-1.08h1.36l-1.33,1.89Z" style="fill: #231f20"/>
    </g>
    <g>
      <path d="M83.64,332.5a3.12,3.12,0,0,1-.31,1.4,2.4,2.4,0,0,1-.91,1,2.78,2.78,0,0,1-1.48.37,2.75,2.75,0,0,1-1.5-.39,2.42,2.42,0,0,1-.91-1,3.19,3.19,0,0,1-.3-1.37,3.14,3.14,0,0,1,.3-1.36,2.38,2.38,0,0,1,.91-1,2.74,2.74,0,0,1,1.5-.38,2.87,2.87,0,0,1,1.17.22,2.33,2.33,0,0,1,.85.6,2.62,2.62,0,0,1,.51.89A3.41,3.41,0,0,1,83.64,332.5Zm-1.46,0a1.87,1.87,0,0,0-.08-.55,1.43,1.43,0,0,0-.24-.44,1.11,1.11,0,0,0-.39-.29,1.25,1.25,0,0,0-.53-.1,1.12,1.12,0,0,0-.91.38,1.47,1.47,0,0,0-.33,1,1.5,1.5,0,0,0,.33,1,1.15,1.15,0,0,0,.91.38,1.31,1.31,0,0,0,.67-.17,1.14,1.14,0,0,0,.42-.5A1.66,1.66,0,0,0,82.18,332.5Z" style="fill: #fff"/>
      <path d="M87.74,335.21H86.5v-.56a2.18,2.18,0,0,1-.55.48,1.47,1.47,0,0,1-.69.15,1,1,0,0,1-1-.52,3,3,0,0,1-.23-1.19v-2.33h1.24v2.15a1.6,1.6,0,0,0,.09.56.39.39,0,0,0,.41.25.54.54,0,0,0,.43-.18,2.5,2.5,0,0,0,.33-.45v-2.33h1.24Z" style="fill: #fff"/>
      <path d="M91,335a3.23,3.23,0,0,1-.53.21,2.54,2.54,0,0,1-.65.09c-.89,0-1.34-.49-1.34-1.48v-1.59h-.56V332l1.66-1.92h.14v1.19h1.18v1H89.73v1.28a1.79,1.79,0,0,0,0,.36.39.39,0,0,0,.13.23.55.55,0,0,0,.34.09,1.76,1.76,0,0,0,.78-.28Z" style="fill: #fff"/>
    </g>
    <g>
      <path d="M24.65,234.42,22.5,239.9h-.95l-2.11-5.48h1.5L22,237.54l1.12-3.12Z" style="fill: #231f20"/>
      <path d="M28,234.34l-2.59,5.56h-.92l2.59-5.56Z" style="fill: #231f20"/>
      <path d="M33.56,237.12a3.08,3.08,0,0,1-.31,1.39,2.37,2.37,0,0,1-.91,1,2.79,2.79,0,0,1-1.49.37,2.73,2.73,0,0,1-1.49-.39,2.38,2.38,0,0,1-.91-1,3.14,3.14,0,0,1-.3-1.36,3.19,3.19,0,0,1,.3-1.37,2.35,2.35,0,0,1,.91-1,2.73,2.73,0,0,1,1.49-.39,3.1,3.1,0,0,1,1.18.22,2.24,2.24,0,0,1,.85.61,2.75,2.75,0,0,1,.51.88A3.47,3.47,0,0,1,33.56,237.12Zm-1.46,0a2,2,0,0,0-.08-.56,1.37,1.37,0,0,0-.24-.43,1,1,0,0,0-.39-.29,1.3,1.3,0,0,0-.54-.11,1.12,1.12,0,0,0-.9.39,1.47,1.47,0,0,0-.33,1,1.52,1.52,0,0,0,.33,1,1.14,1.14,0,0,0,.9.38,1.23,1.23,0,0,0,.68-.18,1.19,1.19,0,0,0,.42-.49A1.66,1.66,0,0,0,32.1,237.12Z" style="fill: #231f20"/>
      <path d="M37,239.65l-.33.12a1.87,1.87,0,0,1-.39.09,2.29,2.29,0,0,1-.47,0,2,2,0,0,1-1-.22,1.72,1.72,0,0,1-.61-.55,2.58,2.58,0,0,1-.3-.69,2.92,2.92,0,0,1-.08-.61,2.43,2.43,0,0,1,.09-.61,1.9,1.9,0,0,1,.29-.67,1.64,1.64,0,0,1,.61-.55,2,2,0,0,1,1-.22,2.31,2.31,0,0,1,.64.07,3.49,3.49,0,0,1,.49.16v1.11a2.9,2.9,0,0,0-.94-.22.84.84,0,0,0-.85.93,1.06,1.06,0,0,0,.13.53.82.82,0,0,0,.32.32.88.88,0,0,0,.4.1,1.76,1.76,0,0,0,.42-.06l.58-.18Z" style="fill: #231f20"/>
      <path d="M40.05,239.6a2.58,2.58,0,0,1-.53.2,2.24,2.24,0,0,1-.65.1c-.89,0-1.34-.49-1.34-1.48v-1.59H37v-.25l1.66-1.92h.14v1.19H40v1H38.77v1.27a1.73,1.73,0,0,0,0,.36.36.36,0,0,0,.13.23.55.55,0,0,0,.34.09,1.64,1.64,0,0,0,.78-.28Z" style="fill: #231f20"/>
      <path d="M46.44,236.12a2,2,0,0,1-.09.59,1.62,1.62,0,0,1-.29.53,1.43,1.43,0,0,1-.55.4,1.86,1.86,0,0,1-.81.16h-.94v2H42.32v-5.41H44.7a2,2,0,0,1,.81.15,1.56,1.56,0,0,1,.55.41,1.66,1.66,0,0,1,.29.54A2.08,2.08,0,0,1,46.44,236.12Zm-1.46,0a.61.61,0,0,0-.2-.53,1.3,1.3,0,0,0-.72-.14h-.3v1.3h.31a2.57,2.57,0,0,0,.55,0,.46.46,0,0,0,.27-.19A.7.7,0,0,0,45,236.13Z" style="fill: #231f20"/>
    </g>
    <g>
      <path d="M32.82,288H31.39v-3.14l-1.3,1.82H30l-1.3-1.82V288h-1.4v-5.42h1.3l1.47,2,1.47-2h1.3Z" style="fill: #231f20"/>
      <path d="M34.84,288H33.6v-4h1.24Zm-.1-4.9a.6.6,0,0,1-.15.42.5.5,0,0,1-.37.17.4.4,0,0,1-.26-.08.55.55,0,0,1-.19-.21.73.73,0,0,1-.07-.3.64.64,0,0,1,.15-.42.49.49,0,0,1,.74,0A.64.64,0,0,1,34.74,283.06Z" style="fill: #231f20"/>
      <path d="M39.31,288H37.79l-.68-1.13L36.44,288H35.08l1.36-2-1.39-2h1.53l.64,1.08.66-1.08h1.35l-1.32,1.89Z" style="fill: #231f20"/>
    </g>
    <g>
      <path d="M26.77,333.64a1.67,1.67,0,0,1-.23.88,1.53,1.53,0,0,1-.64.57,2.16,2.16,0,0,1-.94.19,2.43,2.43,0,0,1-.36,0,2.65,2.65,0,0,1-.57-.12,3.43,3.43,0,0,1-.74-.29v-1.32A4.4,4.4,0,0,0,24,334a1.71,1.71,0,0,0,.74.17.61.61,0,0,0,.48-.14.47.47,0,0,0,.11-.26.44.44,0,0,0-.19-.37,2.14,2.14,0,0,0-.54-.31,4,4,0,0,1-.68-.41,1.85,1.85,0,0,1-.49-.55,1.65,1.65,0,0,1-.18-.79,1.73,1.73,0,0,1,.18-.79,1.37,1.37,0,0,1,.58-.56,2,2,0,0,1,.95-.21,2.9,2.9,0,0,1,.74.08,3.56,3.56,0,0,1,.56.2l.3.17v1.27a3.62,3.62,0,0,0-.65-.42,1.6,1.6,0,0,0-.77-.19.54.54,0,0,0-.39.12.39.39,0,0,0,0,.56,1.82,1.82,0,0,0,.43.29,6.74,6.74,0,0,1,.88.53,1.78,1.78,0,0,1,.52.54A1.47,1.47,0,0,1,26.77,333.64Z" style="fill: #231f20"/>
      <path d="M31,335.21H29.76V333a1.27,1.27,0,0,0-.11-.52.39.39,0,0,0-.4-.24.58.58,0,0,0-.42.18,2.93,2.93,0,0,0-.34.45v2.33H27.26V329.8h1.23v2a1.81,1.81,0,0,1,.61-.51,1.51,1.51,0,0,1,.63-.13c.84,0,1.26.53,1.26,1.6Z" style="fill: #231f20"/>
      <path d="M35.08,335a4.73,4.73,0,0,1-.5.2,1.79,1.79,0,0,1-.55.07.61.61,0,0,1-.43-.12.74.74,0,0,1-.17-.3,1.94,1.94,0,0,1-.44.31,1.67,1.67,0,0,1-.64.11,1.14,1.14,0,0,1-.62-.15.76.76,0,0,1-.33-.38,1.23,1.23,0,0,1-.09-.47,1,1,0,0,1,.16-.6,1.31,1.31,0,0,1,.44-.4,5,5,0,0,1,.73-.31l.39-.14.19-.08.14-.07a.83.83,0,0,0-.1-.45.5.5,0,0,0-.45-.17,1.5,1.5,0,0,0-.75.2,2.86,2.86,0,0,0-.64.53v-1.08a2.6,2.6,0,0,1,.5-.31,2.26,2.26,0,0,1,.56-.17,3,3,0,0,1,.59-.06,1.73,1.73,0,0,1,1.15.33,1.17,1.17,0,0,1,.38.92V334a.89.89,0,0,0,0,.32.13.13,0,0,0,.13.11.72.72,0,0,0,.31-.11Zm-1.72-.76v-.94a3.3,3.3,0,0,0-.64.37.5.5,0,0,0-.2.44.4.4,0,0,0,.1.3.31.31,0,0,0,.23.11.52.52,0,0,0,.26-.08Z" style="fill: #231f20"/>
      <path d="M39,333.2a2.86,2.86,0,0,1-.1.77,2,2,0,0,1-.3.67,1.5,1.5,0,0,1-.53.47,1.47,1.47,0,0,1-.74.17,1.34,1.34,0,0,1-.54-.08,1.75,1.75,0,0,1-.4-.22v2H35.18v-5.78h1.24v.36a1.7,1.7,0,0,1,.41-.31,1.32,1.32,0,0,1,.61-.12,1.47,1.47,0,0,1,.75.21,1.6,1.6,0,0,1,.61.67A2.46,2.46,0,0,1,39,333.2Zm-1.3,0a1.37,1.37,0,0,0-.1-.58.68.68,0,0,0-.26-.33.55.55,0,0,0-.32-.1.74.74,0,0,0-.36.08,1.05,1.05,0,0,0-.27.2V334l.14.09.15.08a.44.44,0,0,0,.16.06.48.48,0,0,0,.18,0,.62.62,0,0,0,.49-.28A1.35,1.35,0,0,0,37.73,333.23Z" style="fill: #231f20"/>
      <path d="M43,333.57H40.52a1.06,1.06,0,0,0,.35.59,1,1,0,0,0,.64.23,2.93,2.93,0,0,0,1.38-.4v.87a3,3,0,0,1-.65.29,3.08,3.08,0,0,1-1,.13,2.11,2.11,0,0,1-1.1-.27,1.73,1.73,0,0,1-.68-.74,2.42,2.42,0,0,1-.22-1.06,2.38,2.38,0,0,1,.22-1,1.71,1.71,0,0,1,.68-.73,2.11,2.11,0,0,1,1.1-.26,1.7,1.7,0,0,1,.82.21,1.5,1.5,0,0,1,.66.68,2.57,2.57,0,0,1,.25,1.22Zm-1.16-.7a1,1,0,0,0-.16-.61.59.59,0,0,0-.48-.23.61.61,0,0,0-.5.23.93.93,0,0,0-.2.61Z" style="fill: #231f20"/>
    </g>
    <g id="pips_-_fewest" data-name="pips - fewest">
      <g style="clip-path: url(#clip-path)">
        <g style="clip-path: url(#clip-path)">
          <path d="M38.57,115.71l.71-1.24a13.86,13.86,0,0,0-5.77-1.54v1.43a12.35,12.35,0,0,1,5.06,1.35"/>
          <path d="M43.37,120l1.23-.71a14,14,0,0,0-4.23-4.22l-.71,1.23a12.7,12.7,0,0,1,3.71,3.7"/>
          <path d="M26.09,116.34l-.71-1.23a14,14,0,0,0-4.23,4.22l1.24.71a12.55,12.55,0,0,1,3.7-3.7"/>
          <path d="M45.35,126.2h1.43a13.68,13.68,0,0,0-1.55-5.77l-1.23.71a12.47,12.47,0,0,1,1.35,5.06"/>
          <path d="M32.24,114.36v-1.43a13.86,13.86,0,0,0-5.77,1.54l.72,1.24a12.31,12.31,0,0,1,5.05-1.35"/>
          <path d="M22.39,133.62l-1.24.71a14,14,0,0,0,4.23,4.22l.71-1.23a12.55,12.55,0,0,1-3.7-3.7"/>
          <path d="M39.66,137.32l.71,1.23a14,14,0,0,0,4.23-4.22l-1.23-.71a12.7,12.7,0,0,1-3.71,3.7"/>
          <path d="M45.35,127.46A12.47,12.47,0,0,1,44,132.52l1.23.71a13.68,13.68,0,0,0,1.55-5.77Z"/>
          <path d="M20.4,127.46H19a13.83,13.83,0,0,0,1.55,5.77l1.23-.71a12.47,12.47,0,0,1-1.35-5.06"/>
          <path d="M21.75,121.14l-1.23-.71A14,14,0,0,0,19,126.2H20.4a12.47,12.47,0,0,1,1.35-5.06"/>
        </g>
      </g>
    </g>
    <g>
      <path d="M25.79,146.51H24.24l-.37-1a4.47,4.47,0,0,0-.37-.78.91.91,0,0,0-.32-.31,1.16,1.16,0,0,0-.41-.07h-.16v2.12H21.17v-5.42h2.45a1.57,1.57,0,0,1,1,.28,1.55,1.55,0,0,1,.54.66,1.93,1.93,0,0,1,.17.74,1.62,1.62,0,0,1-.14.7,1.4,1.4,0,0,1-.29.41,3.07,3.07,0,0,1-.35.24,1.87,1.87,0,0,1,.38.36,5.69,5.69,0,0,1,.41.85Zm-2-3.71a.59.59,0,0,0-.21-.52,1.29,1.29,0,0,0-.71-.15h-.3v1.31h.31a1.47,1.47,0,0,0,.72-.13A.58.58,0,0,0,23.83,142.8Z"/>
      <path d="M29.59,146.31a4.67,4.67,0,0,1-.51.19,1.73,1.73,0,0,1-.55.08.58.58,0,0,1-.43-.13.74.74,0,0,1-.17-.3,1.67,1.67,0,0,1-.44.31,1.46,1.46,0,0,1-.64.12,1.16,1.16,0,0,1-.62-.15.92.92,0,0,1-.33-.38,1.27,1.27,0,0,1-.09-.47A1,1,0,0,1,26,145a1.28,1.28,0,0,1,.44-.39,5.37,5.37,0,0,1,.73-.32l.39-.14.2-.08.13-.07a.83.83,0,0,0-.1-.45.5.5,0,0,0-.45-.17,1.42,1.42,0,0,0-.75.21,2.57,2.57,0,0,0-.63.52V143a2.48,2.48,0,0,1,.49-.3,2.81,2.81,0,0,1,.56-.18,3.05,3.05,0,0,1,.6-.06,1.72,1.72,0,0,1,1.14.33,1.18,1.18,0,0,1,.38.92v1.54a.89.89,0,0,0,0,.32.13.13,0,0,0,.13.11.8.8,0,0,0,.32-.11Zm-1.73-.76v-1a3.64,3.64,0,0,0-.64.37.54.54,0,0,0-.2.44.4.4,0,0,0,.1.3.34.34,0,0,0,.24.11.52.52,0,0,0,.25-.08A2.07,2.07,0,0,0,27.86,145.55Z"/>
      <path d="M32.45,146.28a2.71,2.71,0,0,1-.53.2,2.5,2.5,0,0,1-.65.1c-.89,0-1.33-.5-1.33-1.49v-1.58h-.56v-.25L31,141.34h.14v1.19h1.18v1H31.18v1.27a3.21,3.21,0,0,0,0,.36.37.37,0,0,0,.14.23.53.53,0,0,0,.34.09,1.65,1.65,0,0,0,.77-.28Z"/>
      <path d="M34,146.51H32.78v-4H34Zm-.1-4.9a.57.57,0,0,1-.16.42.48.48,0,0,1-.36.17.43.43,0,0,1-.27-.08.55.55,0,0,1-.19-.21.73.73,0,0,1-.06-.3.64.64,0,0,1,.15-.42.48.48,0,0,1,.37-.17.48.48,0,0,1,.36.17A.6.6,0,0,1,33.92,141.61Z"/>
      <path d="M38.45,144.51a2.39,2.39,0,0,1-.22,1.06,1.8,1.8,0,0,1-.68.74,2.4,2.4,0,0,1-2.21,0,1.71,1.71,0,0,1-.67-.74,2.39,2.39,0,0,1-.23-1.06,2.3,2.3,0,0,1,.13-.81,1.77,1.77,0,0,1,.38-.65,1.67,1.67,0,0,1,.63-.44,2.31,2.31,0,0,1,.86-.15,2.39,2.39,0,0,1,.88.15,1.79,1.79,0,0,1,.63.44,2,2,0,0,1,.38.64A2.66,2.66,0,0,1,38.45,144.51Zm-1.3,0a1.33,1.33,0,0,0-.18-.74.66.66,0,0,0-1,0,1.33,1.33,0,0,0-.18.74,1.28,1.28,0,0,0,.19.75.58.58,0,0,0,.51.27.6.6,0,0,0,.53-.27A1.34,1.34,0,0,0,37.15,144.51Z"/>
      <path d="M45.09,146.1a3.23,3.23,0,0,1-.6.28,3.6,3.6,0,0,1-.63.15,4.51,4.51,0,0,1-.65.05,3.06,3.06,0,0,1-1.12-.2,2.45,2.45,0,0,1-.85-.57,2.58,2.58,0,0,1-.54-.9,3.61,3.61,0,0,1,0-2.34,2.35,2.35,0,0,1,.59-.87,2.7,2.7,0,0,1,.88-.52,3.17,3.17,0,0,1,1-.16,4.93,4.93,0,0,1,1.84.41v1.44a4.8,4.8,0,0,0-.7-.42,1.86,1.86,0,0,0-.81-.17,1.73,1.73,0,0,0-.78.19,1.5,1.5,0,0,0-.58.54,1.45,1.45,0,0,0-.22.81,1.49,1.49,0,0,0,.19.75,1.52,1.52,0,0,0,1.31.75,2.27,2.27,0,0,0,.65-.1,3.44,3.44,0,0,0,.53-.21,4.46,4.46,0,0,0,.43-.28Z"/>
    </g>
    <g id="pips_-_fewest-2" data-name="pips - fewest">
      <g style="clip-path: url(#clip-path-3)">
        <g style="clip-path: url(#clip-path-3)">
          <path d="M90.1,115.71l.71-1.24A13.82,13.82,0,0,0,85,112.93v1.43a12.31,12.31,0,0,1,5.06,1.35"/>
          <path d="M94.9,120l1.23-.71a13.92,13.92,0,0,0-4.22-4.22l-.71,1.23a12.55,12.55,0,0,1,3.7,3.7"/>
          <path d="M77.62,116.34l-.71-1.23a13.92,13.92,0,0,0-4.22,4.22l1.23.71a12.55,12.55,0,0,1,3.7-3.7"/>
          <path d="M96.88,126.2h1.43a13.82,13.82,0,0,0-1.54-5.77l-1.24.71a12.31,12.31,0,0,1,1.35,5.06"/>
          <path d="M83.78,114.36v-1.43A13.82,13.82,0,0,0,78,114.47l.71,1.24a12.31,12.31,0,0,1,5.06-1.35"/>
          <path d="M73.92,133.62l-1.23.71a13.92,13.92,0,0,0,4.22,4.22l.71-1.23a12.55,12.55,0,0,1-3.7-3.7"/>
          <path d="M91.2,137.32l.71,1.23a13.92,13.92,0,0,0,4.22-4.22l-1.23-.71a12.55,12.55,0,0,1-3.7,3.7"/>
          <path d="M96.88,127.46a12.31,12.31,0,0,1-1.35,5.06l1.24.71a13.82,13.82,0,0,0,1.54-5.77Z"/>
          <path d="M71.94,127.46H70.51a13.82,13.82,0,0,0,1.54,5.77l1.24-.71a12.31,12.31,0,0,1-1.35-5.06"/>
          <path d="M73.29,121.14l-1.24-.71a13.82,13.82,0,0,0-1.54,5.77h1.43a12.31,12.31,0,0,1,1.35-5.06"/>
        </g>
      </g>
    </g>
    <g>
      <path d="M77.75,146.51H76.2l-.37-1a4.47,4.47,0,0,0-.37-.78.91.91,0,0,0-.32-.31,1.16,1.16,0,0,0-.41-.07h-.16v2.12H73.13v-5.42h2.45a1.59,1.59,0,0,1,1,.28,1.55,1.55,0,0,1,.54.66,1.93,1.93,0,0,1,.17.74,1.62,1.62,0,0,1-.14.7,1.4,1.4,0,0,1-.29.41,3.07,3.07,0,0,1-.35.24,1.87,1.87,0,0,1,.38.36,5.69,5.69,0,0,1,.41.85Zm-2-3.71a.59.59,0,0,0-.21-.52,1.29,1.29,0,0,0-.71-.15h-.3v1.31h.31a1.47,1.47,0,0,0,.72-.13A.58.58,0,0,0,75.79,142.8Z"/>
      <path d="M81.55,146.31a4.67,4.67,0,0,1-.51.19,1.73,1.73,0,0,1-.55.08.57.57,0,0,1-.43-.13.74.74,0,0,1-.17-.3,1.67,1.67,0,0,1-.44.31,1.46,1.46,0,0,1-.64.12,1.16,1.16,0,0,1-.62-.15.92.92,0,0,1-.33-.38,1.27,1.27,0,0,1-.09-.47,1,1,0,0,1,.16-.61,1.28,1.28,0,0,1,.44-.39,5.37,5.37,0,0,1,.73-.32l.39-.14.2-.08.13-.07a.83.83,0,0,0-.1-.45.5.5,0,0,0-.45-.17,1.42,1.42,0,0,0-.75.21,2.81,2.81,0,0,0-.64.52V143a2.88,2.88,0,0,1,.5-.3,2.81,2.81,0,0,1,.56-.18,3.05,3.05,0,0,1,.6-.06,1.72,1.72,0,0,1,1.14.33,1.18,1.18,0,0,1,.38.92v1.54a.89.89,0,0,0,0,.32.13.13,0,0,0,.13.11.8.8,0,0,0,.32-.11Zm-1.73-.76v-1a3.64,3.64,0,0,0-.64.37.54.54,0,0,0-.2.44.4.4,0,0,0,.1.3.34.34,0,0,0,.24.11.52.52,0,0,0,.25-.08A2.07,2.07,0,0,0,79.82,145.55Z"/>
      <path d="M84.41,146.28a2.71,2.71,0,0,1-.53.2,2.5,2.5,0,0,1-.65.1c-.89,0-1.33-.5-1.33-1.49v-1.58h-.56v-.25L83,141.34h.14v1.19h1.18v1H83.14v1.27a3.21,3.21,0,0,0,0,.36.37.37,0,0,0,.14.23.53.53,0,0,0,.34.09,1.65,1.65,0,0,0,.77-.28Z"/>
      <path d="M86,146.51H84.74v-4H86Zm-.1-4.9a.57.57,0,0,1-.16.42.48.48,0,0,1-.36.17.43.43,0,0,1-.27-.08.55.55,0,0,1-.19-.21.73.73,0,0,1-.06-.3.64.64,0,0,1,.15-.42.48.48,0,0,1,.37-.17.48.48,0,0,1,.36.17A.6.6,0,0,1,85.88,141.61Z"/>
      <path d="M90.41,144.51a2.39,2.39,0,0,1-.22,1.06,1.8,1.8,0,0,1-.68.74,2.4,2.4,0,0,1-2.21,0,1.71,1.71,0,0,1-.67-.74,2.39,2.39,0,0,1-.23-1.06,2.3,2.3,0,0,1,.13-.81,1.77,1.77,0,0,1,.38-.65,1.67,1.67,0,0,1,.63-.44,2.31,2.31,0,0,1,.86-.15,2.39,2.39,0,0,1,.88.15,1.79,1.79,0,0,1,.63.44,2,2,0,0,1,.38.64A2.66,2.66,0,0,1,90.41,144.51Zm-1.3,0a1.33,1.33,0,0,0-.18-.74.66.66,0,0,0-1.05,0,1.33,1.33,0,0,0-.18.74,1.28,1.28,0,0,0,.19.75.58.58,0,0,0,.51.27.6.6,0,0,0,.53-.27A1.34,1.34,0,0,0,89.11,144.51Z"/>
      <path d="M96.2,144.32h-2v2.19H92.78v-5.42H96.2v1.09h-2v1h2Z"/>
    </g>
    <g id="pips_-_fewest-3" data-name="pips - fewest">
      <g style="clip-path: url(#clip-path-5)">
        <g style="clip-path: url(#clip-path-5)">
          <path d="M38.57,158.85l.71-1.24a13.86,13.86,0,0,0-5.77-1.54v1.43a12.35,12.35,0,0,1,5.06,1.35"/>
          <path d="M43.37,163.18l1.23-.71a14.07,14.07,0,0,0-4.23-4.22l-.71,1.23a12.82,12.82,0,0,1,3.71,3.7"/>
          <path d="M26.09,159.48l-.71-1.23a14.07,14.07,0,0,0-4.23,4.22l1.24.72a12.58,12.58,0,0,1,3.7-3.71"/>
          <path d="M45.35,169.34h1.43a13.68,13.68,0,0,0-1.55-5.77l-1.23.71a12.47,12.47,0,0,1,1.35,5.06"/>
          <path d="M32.24,157.5v-1.43a13.72,13.72,0,0,0-5.77,1.55l.72,1.23a12.31,12.31,0,0,1,5.05-1.35"/>
          <path d="M22.39,176.76l-1.24.71a14,14,0,0,0,4.23,4.22l.71-1.23a12.55,12.55,0,0,1-3.7-3.7"/>
          <path d="M39.66,180.46l.71,1.23a13.85,13.85,0,0,0,4.23-4.22l-1.23-.71a12.7,12.7,0,0,1-3.71,3.7"/>
          <path d="M45.35,170.6A12.47,12.47,0,0,1,44,175.66l1.23.71a13.68,13.68,0,0,0,1.55-5.77Z"/>
          <path d="M20.4,170.6H19a13.83,13.83,0,0,0,1.55,5.77l1.23-.71a12.47,12.47,0,0,1-1.35-5.06"/>
          <path d="M21.75,164.28l-1.23-.71A14,14,0,0,0,19,169.34H20.4a12.47,12.47,0,0,1,1.35-5.06"/>
        </g>
      </g>
    </g>
    <g>
      <path d="M26.77,188.07a1.65,1.65,0,0,1-.23.88,1.53,1.53,0,0,1-.64.57,2.16,2.16,0,0,1-.94.2l-.36,0a5.41,5.41,0,0,1-.57-.12,4,4,0,0,1-.74-.29V188a4.4,4.4,0,0,0,.71.42,1.71,1.71,0,0,0,.74.17.61.61,0,0,0,.48-.14.45.45,0,0,0,.11-.26.46.46,0,0,0-.19-.37,2.5,2.5,0,0,0-.54-.31,3.4,3.4,0,0,1-.68-.41,1.73,1.73,0,0,1-.49-.55,1.61,1.61,0,0,1-.18-.78,1.74,1.74,0,0,1,.18-.8,1.43,1.43,0,0,1,.58-.56,2,2,0,0,1,.95-.21,2.89,2.89,0,0,1,.74.09,3.63,3.63,0,0,1,.56.19l.3.18v1.27a4.31,4.31,0,0,0-.65-.43,1.72,1.72,0,0,0-.77-.19.54.54,0,0,0-.39.12.38.38,0,0,0-.12.29.38.38,0,0,0,.12.28,2.27,2.27,0,0,0,.43.28,8.07,8.07,0,0,1,.88.53,1.9,1.9,0,0,1,.52.54A1.47,1.47,0,0,1,26.77,188.07Z"/>
      <path d="M31,189.65H29.76v-2.2a1.32,1.32,0,0,0-.11-.53.4.4,0,0,0-.4-.23.61.61,0,0,0-.42.17,2.93,2.93,0,0,0-.34.45v2.34H27.26v-5.42h1.23v2a1.77,1.77,0,0,1,.61-.5,1.53,1.53,0,0,1,.64-.14c.83,0,1.25.54,1.25,1.61Z"/>
      <path d="M35.08,189.45a4.55,4.55,0,0,1-.5.19,1.73,1.73,0,0,1-.55.08.57.57,0,0,1-.43-.13.77.77,0,0,1-.17-.29,1.9,1.9,0,0,1-.44.3,1.46,1.46,0,0,1-.64.12,1.14,1.14,0,0,1-.62-.15.8.8,0,0,1-.33-.38,1.27,1.27,0,0,1-.09-.47,1,1,0,0,1,.16-.61,1.28,1.28,0,0,1,.44-.39,4.86,4.86,0,0,1,.73-.32l.39-.14.2-.08a.56.56,0,0,0,.13-.07.83.83,0,0,0-.1-.45c-.07-.11-.22-.16-.45-.16a1.41,1.41,0,0,0-.75.2,2.81,2.81,0,0,0-.64.52v-1.08a2.55,2.55,0,0,1,.5-.3,2.81,2.81,0,0,1,.56-.18,3,3,0,0,1,.59-.06,1.73,1.73,0,0,1,1.15.33,1.18,1.18,0,0,1,.38.92v1.54a1,1,0,0,0,0,.33.12.12,0,0,0,.13.1.61.61,0,0,0,.31-.11Zm-1.72-.76v-.94a2.89,2.89,0,0,0-.64.36.53.53,0,0,0-.2.44.4.4,0,0,0,.1.3.31.31,0,0,0,.23.11.52.52,0,0,0,.26-.08A2.07,2.07,0,0,0,33.36,188.69Z"/>
      <path d="M39,187.63a3.25,3.25,0,0,1-.09.77,2.16,2.16,0,0,1-.31.67,1.41,1.41,0,0,1-.53.47,1.47,1.47,0,0,1-.74.18,1.54,1.54,0,0,1-.54-.08,2.24,2.24,0,0,1-.4-.22v2H35.19v-5.79h1.23V186a2.45,2.45,0,0,1,.41-.31,1.32,1.32,0,0,1,.61-.12,1.39,1.39,0,0,1,.75.22,1.54,1.54,0,0,1,.61.67A2.41,2.41,0,0,1,39,187.63Zm-1.3,0a1.37,1.37,0,0,0-.1-.58.68.68,0,0,0-.26-.33.62.62,0,0,0-.32-.09.64.64,0,0,0-.36.08,1.05,1.05,0,0,0-.27.2v1.52l.14.08a1.19,1.19,0,0,0,.15.09l.16.06.18,0a.58.58,0,0,0,.49-.28A1.33,1.33,0,0,0,37.73,187.66Z"/>
      <path d="M43,188H40.52a1,1,0,0,0,.35.59,1,1,0,0,0,.64.23,2.93,2.93,0,0,0,1.38-.4v.88a4.47,4.47,0,0,1-.65.29,3.39,3.39,0,0,1-1,.13,2,2,0,0,1-1.1-.28,1.73,1.73,0,0,1-.68-.74,2.64,2.64,0,0,1,0-2.11,1.71,1.71,0,0,1,.68-.73,2.21,2.21,0,0,1,1.1-.26,1.76,1.76,0,0,1,.83.21,1.65,1.65,0,0,1,.65.68,2.61,2.61,0,0,1,.25,1.23Zm-1.16-.7a1,1,0,0,0-.16-.61.59.59,0,0,0-.48-.23.59.59,0,0,0-.5.24.88.88,0,0,0-.19.6Z"/>
    </g>
    <g id="pips_-_fewest-4" data-name="pips - fewest">
      <g style="clip-path: url(#clip-path-7)">
        <g style="clip-path: url(#clip-path-7)">
          <path d="M90.1,158.85l.71-1.24A13.82,13.82,0,0,0,85,156.07v1.43a12.31,12.31,0,0,1,5.06,1.35"/>
          <path d="M94.9,163.18l1.23-.71a14,14,0,0,0-4.22-4.22l-.71,1.23a12.67,12.67,0,0,1,3.7,3.7"/>
          <path d="M77.62,159.48l-.71-1.23a14,14,0,0,0-4.22,4.22l1.23.72a12.58,12.58,0,0,1,3.7-3.71"/>
          <path d="M96.88,169.34h1.43a13.82,13.82,0,0,0-1.54-5.77l-1.24.71a12.31,12.31,0,0,1,1.35,5.06"/>
          <path d="M83.78,157.5v-1.43A13.68,13.68,0,0,0,78,157.62l.71,1.23a12.31,12.31,0,0,1,5.06-1.35"/>
          <path d="M73.92,176.76l-1.23.71a13.92,13.92,0,0,0,4.22,4.22l.71-1.23a12.55,12.55,0,0,1-3.7-3.7"/>
          <path d="M91.2,180.46l.71,1.23a13.81,13.81,0,0,0,4.22-4.22l-1.23-.71a12.55,12.55,0,0,1-3.7,3.7"/>
          <path d="M96.88,170.6a12.31,12.31,0,0,1-1.35,5.06l1.24.71a13.82,13.82,0,0,0,1.54-5.77Z"/>
          <path d="M71.94,170.6H70.51a13.82,13.82,0,0,0,1.54,5.77l1.24-.71a12.31,12.31,0,0,1-1.35-5.06"/>
          <path d="M73.29,164.28l-1.24-.71a13.82,13.82,0,0,0-1.54,5.77h1.43a12.31,12.31,0,0,1,1.35-5.06"/>
        </g>
      </g>
    </g>
    <g>
      <path d="M72.4,188.07a1.56,1.56,0,0,1-.23.88,1.45,1.45,0,0,1-.63.57,2.2,2.2,0,0,1-.94.2l-.36,0a5.51,5.51,0,0,1-.58-.12,4.69,4.69,0,0,1-.74-.29V188a4.88,4.88,0,0,0,.71.42,1.79,1.79,0,0,0,.75.17.61.61,0,0,0,.48-.14.45.45,0,0,0,.11-.26.48.48,0,0,0-.19-.37,2.5,2.5,0,0,0-.54-.31,3.81,3.81,0,0,1-.69-.41,1.83,1.83,0,0,1-.48-.55,1.61,1.61,0,0,1-.19-.78,1.75,1.75,0,0,1,.19-.8,1.43,1.43,0,0,1,.58-.56,2,2,0,0,1,.95-.21,2.94,2.94,0,0,1,.74.09,3.15,3.15,0,0,1,.55.19l.31.18v1.27a4.31,4.31,0,0,0-.65-.43,1.72,1.72,0,0,0-.77-.19.54.54,0,0,0-.39.12.38.38,0,0,0-.12.29.38.38,0,0,0,.12.28,2.27,2.27,0,0,0,.43.28,8.07,8.07,0,0,1,.88.53,1.9,1.9,0,0,1,.52.54A1.47,1.47,0,0,1,72.4,188.07Z"/>
      <path d="M76.63,189.65H75.39v-2.06a.07.07,0,0,1,0-.05v-.09a1.32,1.32,0,0,0-.11-.53.41.41,0,0,0-.4-.23.61.61,0,0,0-.42.17,2.4,2.4,0,0,0-.34.45v2.34H72.9v-5.42h1.23v2a1.77,1.77,0,0,1,.61-.5,1.52,1.52,0,0,1,.63-.14c.84,0,1.26.54,1.26,1.61Z"/>
      <path d="M80.72,189.45c-.18.08-.35.14-.5.19a1.77,1.77,0,0,1-.55.08.55.55,0,0,1-.43-.13.66.66,0,0,1-.17-.29,1.9,1.9,0,0,1-.44.3,1.49,1.49,0,0,1-.64.12,1.14,1.14,0,0,1-.62-.15.8.8,0,0,1-.33-.38,1.27,1.27,0,0,1-.09-.47,1,1,0,0,1,.16-.61,1.19,1.19,0,0,1,.44-.39,4.86,4.86,0,0,1,.73-.32l.38-.14.2-.08a.46.46,0,0,0,.14-.07.83.83,0,0,0-.1-.45c-.07-.11-.22-.16-.45-.16a1.41,1.41,0,0,0-.75.2,2.61,2.61,0,0,0-.64.52v-1.08a2.55,2.55,0,0,1,.5-.3,2.81,2.81,0,0,1,.56-.18,3,3,0,0,1,.59-.06,1.69,1.69,0,0,1,1.14.33,1.16,1.16,0,0,1,.39.92v1.54a1.37,1.37,0,0,0,0,.33.14.14,0,0,0,.14.1.64.64,0,0,0,.31-.11ZM79,188.69v-.94a2.89,2.89,0,0,0-.64.36.53.53,0,0,0-.2.44.4.4,0,0,0,.1.3.3.3,0,0,0,.23.11.46.46,0,0,0,.25-.08A2.14,2.14,0,0,0,79,188.69Z"/>
      <path d="M84.67,187.63a2.8,2.8,0,0,1-.1.77,1.94,1.94,0,0,1-.3.67,1.41,1.41,0,0,1-.53.47,1.47,1.47,0,0,1-.74.18,1.64,1.64,0,0,1-.55-.08,2.56,2.56,0,0,1-.39-.22v2H80.82v-5.79h1.24V186a2.1,2.1,0,0,1,.41-.31,1.29,1.29,0,0,1,.61-.12,1.41,1.41,0,0,1,.75.22,1.54,1.54,0,0,1,.61.67A2.54,2.54,0,0,1,84.67,187.63Zm-1.3,0a1.37,1.37,0,0,0-.1-.58.74.74,0,0,0-.26-.33.62.62,0,0,0-.32-.09.64.64,0,0,0-.36.08,1.05,1.05,0,0,0-.27.2v1.52l.14.08a1.19,1.19,0,0,0,.15.09l.16.06.18,0a.56.56,0,0,0,.48-.28A1.33,1.33,0,0,0,83.37,187.66Z"/>
      <path d="M88.62,188H86.16a1,1,0,0,0,.35.59,1,1,0,0,0,.64.23,2.93,2.93,0,0,0,1.38-.4v.88a4.18,4.18,0,0,1-.66.29,3.27,3.27,0,0,1-1,.13,2,2,0,0,1-1.1-.28,1.73,1.73,0,0,1-.68-.74,2.64,2.64,0,0,1,0-2.11,1.71,1.71,0,0,1,.68-.73,2.21,2.21,0,0,1,1.1-.26,1.72,1.72,0,0,1,.82.21,1.61,1.61,0,0,1,.66.68,2.61,2.61,0,0,1,.25,1.23Zm-1.16-.7a1,1,0,0,0-.17-.61.56.56,0,0,0-.48-.23.62.62,0,0,0-.5.24.94.94,0,0,0-.19.6Z"/>
      <path d="M95.23,189.24a3,3,0,0,1-.61.28,3.5,3.5,0,0,1-.62.15,4.62,4.62,0,0,1-.65.05,3,3,0,0,1-1.12-.2,2.49,2.49,0,0,1-.86-.57,2.53,2.53,0,0,1-.54-.89,3.37,3.37,0,0,1-.18-1.12,3.3,3.3,0,0,1,.21-1.23,2.5,2.5,0,0,1,.6-.87,2.56,2.56,0,0,1,.87-.51,3,3,0,0,1,1-.17,5.14,5.14,0,0,1,1.84.41V186a4.8,4.8,0,0,0-.7-.42,1.9,1.9,0,0,0-.82-.17,1.72,1.72,0,0,0-.77.19,1.51,1.51,0,0,0-.58.54,1.45,1.45,0,0,0-.22.81,1.49,1.49,0,0,0,.19.75,1.38,1.38,0,0,0,.53.54,1.46,1.46,0,0,0,.77.21,2.64,2.64,0,0,0,1.18-.31,4.54,4.54,0,0,0,.44-.28Z"/>
      <path d="M100.57,184.23l-2.15,5.49h-1l-2.1-5.49h1.49L98,187.36l1.12-3.13Z"/>
    </g>
    <g id="pips_-_fewest-5" data-name="pips - fewest">
      <g style="clip-path: url(#clip-path-9)">
        <g style="clip-path: url(#clip-path-9)">
          <path d="M38.57,29.43l.71-1.24a13.86,13.86,0,0,0-5.77-1.54v1.42a12.52,12.52,0,0,1,5.06,1.36"/>
          <path d="M43.37,33.76l1.23-.71a13.85,13.85,0,0,0-4.23-4.22l-.71,1.23a12.7,12.7,0,0,1,3.71,3.7"/>
          <path d="M26.09,30.06l-.71-1.23a13.85,13.85,0,0,0-4.23,4.22l1.24.71a12.55,12.55,0,0,1,3.7-3.7"/>
          <path d="M45.35,39.92h1.43a13.77,13.77,0,0,0-1.55-5.78L44,34.86a12.47,12.47,0,0,1,1.35,5.06"/>
          <path d="M32.24,28.07V26.65a13.86,13.86,0,0,0-5.77,1.54l.72,1.24a12.47,12.47,0,0,1,5.05-1.36"/>
          <path d="M22.39,47.33l-1.24.72a14.07,14.07,0,0,0,4.23,4.22L26.09,51a12.58,12.58,0,0,1-3.7-3.71"/>
          <path d="M39.66,51l.71,1.23a14.07,14.07,0,0,0,4.23-4.22l-1.23-.72A12.74,12.74,0,0,1,39.66,51"/>
          <path d="M45.35,41.18A12.51,12.51,0,0,1,44,46.24l1.23.71a13.68,13.68,0,0,0,1.55-5.77Z"/>
          <path d="M20.4,41.18H19A13.83,13.83,0,0,0,20.52,47l1.23-.71a12.51,12.51,0,0,1-1.35-5.06"/>
          <path d="M21.75,34.86l-1.23-.72A14.07,14.07,0,0,0,19,39.92H20.4a12.47,12.47,0,0,1,1.35-5.06"/>
        </g>
      </g>
    </g>
    <g>
      <path d="M29.07,56.51a2,2,0,0,1-.09.59,1.77,1.77,0,0,1-.29.54,1.54,1.54,0,0,1-.55.4,2,2,0,0,1-.81.15h-.94v2H25V54.81h2.38a1.86,1.86,0,0,1,.81.16,1.54,1.54,0,0,1,.55.4,1.71,1.71,0,0,1,.29.55A2,2,0,0,1,29.07,56.51Zm-1.46,0a.62.62,0,0,0-.2-.53,1.4,1.4,0,0,0-.72-.14h-.3v1.3h.3a2.09,2.09,0,0,0,.56,0,.41.41,0,0,0,.27-.18A.76.76,0,0,0,27.61,56.52Z"/>
      <path d="M30.69,60.22H29.45v-4h1.24Zm-.1-4.89a.64.64,0,0,1-.15.42.51.51,0,0,1-.37.17.5.5,0,0,1-.27-.08.53.53,0,0,1-.18-.21.6.6,0,0,1-.07-.3.64.64,0,0,1,.15-.42.45.45,0,0,1,.37-.17.48.48,0,0,1,.37.17A.64.64,0,0,1,30.59,55.33Z"/>
      <path d="M34,60a2.9,2.9,0,0,1-.53.21,2.54,2.54,0,0,1-.65.09c-.89,0-1.34-.49-1.34-1.48V57.22h-.56V57l1.66-1.92h.15v1.19h1.18v1H32.75V58.5a1.84,1.84,0,0,0,0,.36.4.4,0,0,0,.14.23.5.5,0,0,0,.33.09A1.76,1.76,0,0,0,34,58.9Z"/>
      <path d="M37.28,60a1.61,1.61,0,0,1-.33.12,3,3,0,0,1-.38.1,3.48,3.48,0,0,1-.47,0,1.91,1.91,0,0,1-1-.22,1.67,1.67,0,0,1-.62-.55,2.12,2.12,0,0,1-.29-.68,2.15,2.15,0,0,1,0-1.23,2.07,2.07,0,0,1,.29-.67,1.54,1.54,0,0,1,.61-.54,2,2,0,0,1,1-.22,2.68,2.68,0,0,1,.63.06,3.69,3.69,0,0,1,.5.17v1.1a3.24,3.24,0,0,0-.95-.22.88.88,0,0,0-.59.23.89.89,0,0,0-.25.7,1.11,1.11,0,0,0,.12.54.92.92,0,0,0,.33.32.94.94,0,0,0,.39.1,1.41,1.41,0,0,0,.42-.07l.58-.17Z"/>
      <path d="M41.34,60.22H40.1V58a1.3,1.3,0,0,0-.1-.52.42.42,0,0,0-.41-.24.55.55,0,0,0-.41.18,2.4,2.4,0,0,0-.34.45v2.33H37.6V54.81h1.24v2a1.7,1.7,0,0,1,.6-.51,1.53,1.53,0,0,1,.64-.13c.84,0,1.26.53,1.26,1.6Z"/>
    </g>
    <g id="pips_-_fewest-6" data-name="pips - fewest">
      <g style="clip-path: url(#clip-path-11)">
        <g style="clip-path: url(#clip-path-11)">
          <path d="M90.1,29.43l.71-1.24A13.82,13.82,0,0,0,85,26.65v1.42a12.48,12.48,0,0,1,5.06,1.36"/>
          <path d="M94.9,33.76l1.23-.71a13.81,13.81,0,0,0-4.22-4.22l-.71,1.23a12.55,12.55,0,0,1,3.7,3.7"/>
          <path d="M77.62,30.06l-.71-1.23a13.81,13.81,0,0,0-4.22,4.22l1.23.71a12.55,12.55,0,0,1,3.7-3.7"/>
          <path d="M96.88,39.92h1.43a13.91,13.91,0,0,0-1.54-5.78l-1.24.72a12.31,12.31,0,0,1,1.35,5.06"/>
          <path d="M83.78,28.07V26.65A13.82,13.82,0,0,0,78,28.19l.71,1.24a12.48,12.48,0,0,1,5.06-1.36"/>
          <path d="M73.92,47.33l-1.23.72a14,14,0,0,0,4.22,4.22L77.62,51a12.58,12.58,0,0,1-3.7-3.71"/>
          <path d="M91.2,51l.71,1.23a14,14,0,0,0,4.22-4.22l-1.23-.72A12.58,12.58,0,0,1,91.2,51"/>
          <path d="M96.88,41.18a12.35,12.35,0,0,1-1.35,5.06l1.24.71a13.86,13.86,0,0,0,1.54-5.77Z"/>
          <path d="M71.94,41.18H70.51A13.86,13.86,0,0,0,72.05,47l1.24-.71a12.35,12.35,0,0,1-1.35-5.06"/>
          <path d="M73.29,34.86l-1.24-.72a13.91,13.91,0,0,0-1.54,5.78h1.43a12.31,12.31,0,0,1,1.35-5.06"/>
        </g>
      </g>
    </g>
    <g>
      <path d="M84.36,60.22H82.92V57.09l-1.3,1.81h-.11l-1.3-1.81v3.13h-1.4V54.81h1.31l1.46,2,1.47-2h1.31Z"/>
      <path d="M86.38,60.22H85.14v-4h1.24Zm-.1-4.89a.6.6,0,0,1-.16.42.48.48,0,0,1-.36.17.5.5,0,0,1-.27-.08.55.55,0,0,1-.19-.21.73.73,0,0,1-.06-.3.64.64,0,0,1,.15-.42.45.45,0,0,1,.37-.17.44.44,0,0,1,.36.17A.6.6,0,0,1,86.28,55.33Z"/>
      <path d="M90.85,60.22H89.32l-.68-1.12L88,60.22H86.62L88,58.27l-1.38-2h1.52l.65,1.08.65-1.08h1.35l-1.32,1.88Z"/>
    </g>
    <g id="pips_-_fewest-7" data-name="pips - fewest">
      <g style="clip-path: url(#clip-path-13)">
        <g style="clip-path: url(#clip-path-13)">
          <path d="M38.57,72.57l.71-1.24a13.86,13.86,0,0,0-5.77-1.54v1.43a12.35,12.35,0,0,1,5.06,1.35"/>
          <path d="M43.37,76.9l1.23-.71A14,14,0,0,0,40.37,72l-.71,1.23a12.7,12.7,0,0,1,3.71,3.7"/>
          <path d="M26.09,73.2,25.38,72a14,14,0,0,0-4.23,4.22l1.24.71a12.55,12.55,0,0,1,3.7-3.7"/>
          <path d="M45.35,83.06h1.43a13.68,13.68,0,0,0-1.55-5.77L44,78a12.47,12.47,0,0,1,1.35,5.06"/>
          <path d="M32.24,71.22V69.79a13.86,13.86,0,0,0-5.77,1.54l.72,1.24a12.31,12.31,0,0,1,5.05-1.35"/>
          <path d="M22.39,90.48l-1.24.71a14,14,0,0,0,4.23,4.22l.71-1.23a12.55,12.55,0,0,1-3.7-3.7"/>
          <path d="M39.66,94.18l.71,1.23a14,14,0,0,0,4.23-4.22l-1.23-.71a12.7,12.7,0,0,1-3.71,3.7"/>
          <path d="M45.35,84.32A12.47,12.47,0,0,1,44,89.38l1.23.71a13.68,13.68,0,0,0,1.55-5.77Z"/>
          <path d="M20.4,84.32H19a13.83,13.83,0,0,0,1.55,5.77l1.23-.71a12.47,12.47,0,0,1-1.35-5.06"/>
          <path d="M21.75,78l-1.23-.71A14,14,0,0,0,19,83.06H20.4A12.47,12.47,0,0,1,21.75,78"/>
        </g>
      </g>
    </g>
    <g>
      <path d="M25.55,103.37H24.12V98h1.43Z"/>
      <path d="M30,103.37H28.77v-2.15a1.62,1.62,0,0,0-.09-.57.42.42,0,0,0-.42-.25.6.6,0,0,0-.27.07.79.79,0,0,0-.2.17,1.25,1.25,0,0,0-.15.19,1.37,1.37,0,0,0-.13.2v2.34H26.27v-4h1.24V100a1.85,1.85,0,0,1,.58-.5,1.59,1.59,0,0,1,.66-.14Q30,99.32,30,101Z"/>
      <path d="M34.17,103.37H32.93V103a2.94,2.94,0,0,1-.41.31,1.29,1.29,0,0,1-.61.12,1.54,1.54,0,0,1-.75-.22,1.65,1.65,0,0,1-.6-.67,2.42,2.42,0,0,1-.24-1.15,2.79,2.79,0,0,1,.18-1,1.7,1.7,0,0,1,.56-.77,1.46,1.46,0,0,1,.93-.3,1.71,1.71,0,0,1,.56.08,2,2,0,0,1,.38.22V98h1.24Zm-1.24-1.27v-1.52a2.14,2.14,0,0,0-.34-.19.65.65,0,0,0-.29-.06.56.56,0,0,0-.48.28,1.32,1.32,0,0,0-.2.76,1.14,1.14,0,0,0,.21.77.59.59,0,0,0,.47.24.74.74,0,0,0,.36-.08A1.26,1.26,0,0,0,32.93,102.1Z"/>
      <path d="M38.26,101.72H35.8a.93.93,0,0,0,.35.59,1,1,0,0,0,.64.23,2.93,2.93,0,0,0,1.38-.4V103a3.41,3.41,0,0,1-.66.3,3.27,3.27,0,0,1-1,.13,2.11,2.11,0,0,1-1.1-.28,1.73,1.73,0,0,1-.68-.74,2.43,2.43,0,0,1-.23-1.06,2.38,2.38,0,0,1,.23-1,1.71,1.71,0,0,1,.68-.73,2.21,2.21,0,0,1,1.1-.26,1.72,1.72,0,0,1,.82.21,1.67,1.67,0,0,1,.66.68,2.61,2.61,0,0,1,.25,1.23ZM37.1,101a1,1,0,0,0-.17-.61.56.56,0,0,0-.48-.23.64.64,0,0,0-.5.23,1,1,0,0,0-.19.61Z"/>
      <path d="M42.49,103.37H41l-.68-1.13-.67,1.13H38.25l1.36-2-1.38-2h1.52l.65,1.08.65-1.08H42.4l-1.32,1.89Z"/>
    </g>
    <g id="pips_-_fewest-8" data-name="pips - fewest">
      <g style="clip-path: url(#clip-path-15)">
        <g style="clip-path: url(#clip-path-15)">
          <path d="M90.1,72.57l.71-1.24A13.82,13.82,0,0,0,85,69.79v1.43a12.31,12.31,0,0,1,5.06,1.35"/>
          <path d="M94.9,76.9l1.23-.71A13.92,13.92,0,0,0,91.91,72L91.2,73.2a12.55,12.55,0,0,1,3.7,3.7"/>
          <path d="M77.62,73.2,76.91,72a13.92,13.92,0,0,0-4.22,4.22l1.23.71a12.55,12.55,0,0,1,3.7-3.7"/>
          <path d="M96.88,83.06h1.43a13.82,13.82,0,0,0-1.54-5.77L95.53,78a12.31,12.31,0,0,1,1.35,5.06"/>
          <path d="M83.78,71.22V69.79A13.82,13.82,0,0,0,78,71.33l.71,1.24a12.31,12.31,0,0,1,5.06-1.35"/>
          <path d="M73.92,90.48l-1.23.71a13.92,13.92,0,0,0,4.22,4.22l.71-1.23a12.55,12.55,0,0,1-3.7-3.7"/>
          <path d="M91.2,94.18l.71,1.23a13.92,13.92,0,0,0,4.22-4.22l-1.23-.71a12.55,12.55,0,0,1-3.7,3.7"/>
          <path d="M96.88,84.32a12.31,12.31,0,0,1-1.35,5.06l1.24.71a13.82,13.82,0,0,0,1.54-5.77Z"/>
          <path d="M71.94,84.32H70.51a13.82,13.82,0,0,0,1.54,5.77l1.24-.71a12.31,12.31,0,0,1-1.35-5.06"/>
          <path d="M73.29,78l-1.24-.71a13.82,13.82,0,0,0-1.54,5.77h1.43A12.31,12.31,0,0,1,73.29,78"/>
        </g>
      </g>
    </g>
    <g>
      <path d="M71.19,103.37H69.75V98h1.44Z"/>
      <path d="M75.64,103.37H74.41v-2.15a1.42,1.42,0,0,0-.1-.57.4.4,0,0,0-.41-.25.6.6,0,0,0-.27.07.79.79,0,0,0-.2.17,1.35,1.35,0,0,0-.16.19l-.12.2v2.34H71.91v-4h1.24V100a1.85,1.85,0,0,1,.58-.5,1.59,1.59,0,0,1,.66-.14c.84,0,1.25.57,1.25,1.71Z"/>
      <path d="M79.81,103.37H78.57V103a2.53,2.53,0,0,1-.42.31,1.22,1.22,0,0,1-.6.12,1.48,1.48,0,0,1-.75-.22,1.52,1.52,0,0,1-.6-.67A2.42,2.42,0,0,1,76,101.4a2.79,2.79,0,0,1,.18-1,1.63,1.63,0,0,1,.56-.77,1.44,1.44,0,0,1,.93-.3,1.71,1.71,0,0,1,.56.08,2,2,0,0,1,.38.22V98h1.24Zm-1.24-1.27v-1.52a2.69,2.69,0,0,0-.34-.19.65.65,0,0,0-.29-.06.55.55,0,0,0-.48.28,1.32,1.32,0,0,0-.2.76,1.2,1.2,0,0,0,.2.77.63.63,0,0,0,.48.24.74.74,0,0,0,.36-.08A1.56,1.56,0,0,0,78.57,102.1Z"/>
      <path d="M83.9,101.72H81.43a1,1,0,0,0,.36.59,1,1,0,0,0,.64.23,3,3,0,0,0,1.38-.4V103a3.41,3.41,0,0,1-.66.3,3.32,3.32,0,0,1-1,.13,2.11,2.11,0,0,1-1.1-.28,1.67,1.67,0,0,1-.68-.74,2.43,2.43,0,0,1-.23-1.06,2.38,2.38,0,0,1,.23-1,1.65,1.65,0,0,1,.68-.73,2.21,2.21,0,0,1,1.1-.26,1.75,1.75,0,0,1,.82.21,1.65,1.65,0,0,1,.65.68,2.61,2.61,0,0,1,.26,1.23Zm-1.16-.7a1,1,0,0,0-.17-.61.56.56,0,0,0-.48-.23.63.63,0,0,0-.5.23.93.93,0,0,0-.19.61Z"/>
      <path d="M88.12,103.37H86.6l-.68-1.13-.67,1.13H83.89l1.36-2-1.39-2h1.53l.64,1.08.66-1.08H88l-1.32,1.89Z"/>
      <path d="M94.55,103a3,3,0,0,1-.6.28,3.6,3.6,0,0,1-.63.15,4.51,4.51,0,0,1-.65,0,3,3,0,0,1-1.11-.2,2.3,2.3,0,0,1-.86-.58,2.45,2.45,0,0,1-.54-.89,3.33,3.33,0,0,1-.18-1.12,3.28,3.28,0,0,1,.21-1.22,2.26,2.26,0,0,1,.6-.87,2.4,2.4,0,0,1,.87-.52,3.22,3.22,0,0,1,1-.16,4.89,4.89,0,0,1,1.84.41v1.44a4.32,4.32,0,0,0-.7-.42,1.86,1.86,0,0,0-.81-.17,1.73,1.73,0,0,0-.78.19,1.5,1.5,0,0,0-.58.54,1.45,1.45,0,0,0-.22.81,1.61,1.61,0,0,0,.19.75,1.4,1.4,0,0,0,.54.54,1.43,1.43,0,0,0,.77.2,2.39,2.39,0,0,0,.66-.09,4.64,4.64,0,0,0,.52-.21,4.46,4.46,0,0,0,.43-.28Z"/>
      <path d="M99.9,98l-2.15,5.49h-1L94.69,98h1.5l1.09,3.13L98.4,98Z"/>
    </g>
    <g>
      <path d="M63.34,8.11l-5.53,7v-6a1.3,1.3,0,0,0-.64-1.18.91.91,0,0,0-1.13.3l-7.28,9.24a1.48,1.48,0,0,0,0,1.79.9.9,0,0,0,1.46,0l5.5-7v6a1.3,1.3,0,0,0,.64,1.18.92.92,0,0,0,1.14-.3l5.53-7v6.15a1.05,1.05,0,1,0,2.06,0V9a1.26,1.26,0,0,0-.65-1.17A.9.9,0,0,0,63.34,8.11Z" style="stroke: #000;stroke-width: 0.6000000000000001px"/>
      <path d="M48.76,8,44,14.17A1.47,1.47,0,0,0,44,16a.91.91,0,0,0,1.46,0l3-3.87v6.3a1.05,1.05,0,1,0,2.06,0V8.92a1.28,1.28,0,0,0-.65-1.17A.9.9,0,0,0,48.76,8Z" style="stroke: #000;stroke-width: 0.6000000000000001px"/>
      <path d="M71.71,12.56a1,1,0,0,0-.95-.77h-2.1l1.53-1.95s.8-1.18.1-1.82-1.58.06-1.58.06l-3.23,4.1a1.44,1.44,0,0,0-.2,1.37,1,1,0,0,0,1,.77h2.1l-2.49,3.17s-1,1.13-.27,1.89,1.75-.13,1.75-.13l4.18-5.32A1.47,1.47,0,0,0,71.71,12.56Z" style="stroke: #000;stroke-width: 0.6000000000000001px"/>
    </g>
  </g>
  <g id="components">
    <circle id="Out" cx="84.55" cy="311.3" r="11.34" style="fill: blue"/>
    <circle id="Shape" cx="33.02" cy="311.3" r="11.34" style="fill: lime"/>
    <circle id="Index" cx="84.55" cy="263.71" r="11.34" style="fill: lime"/>
    <circle id="Mix" cx="33.02" cy="263.71" r="11.34" style="fill: lime"/>
    <circle id="V_Oct_S" data-name="V/Oct S" cx="84.55" cy="214.61" r="11.34" style="fill: lime"/>
    <circle id="V_Oct_P" data-name="V/Oct P" cx="33.02" cy="214.61" r="11.34" style="fill: lime"/>
    <circle id="Shape_CV" data-name="Shape CV" cx="84.41" cy="169.76" r="8.5" style="fill: red"/>
    <circle id="Shape-2" data-name="Shape" cx="32.88" cy="169.76" r="8.5" style="fill: red"/>
    <circle id="Ratio_F" data-name="Ratio F" cx="84.41" cy="126.62" r="8.5" style="fill: red"/>
    <circle id="Ratio_C" data-name="Ratio C" cx="32.88" cy="126.62" r="8.5" style="fill: red"/>
    <circle id="Index_CV" data-name="Index CV" cx="84.41" cy="83.47" r="8.5" style="fill: red"/>
    <circle id="Index-2" data-name="Index" cx="32.88" cy="83.47" r="8.5" style="fill: red"/>
    <circle id="Mix-2" data-name="Mix" cx="84.41" cy="40.33" r="8.5" style="fill: red"/>
    <circle id="Pitch" cx="32.88" cy="40.33" r="8.5" style="fill: red"/>
    <text id="slug" transform="translate(84.09 369.44)" style="font-size: 3px;font-family: MyriadPro-Regular, Myriad Pro"><tspan style="letter-spacing: -0.017903645833333332em">F</tspan><tspan x="1.41" y="0">M</tspan></text>
    <text id="modulename" transform="translate(97.41 369.44)" style="font-size: 3px;font-family: MyriadPro-Regular, Myriad Pro"><tspan style="letter-spacing: -0.017903645833333332em">F</tspan><tspan x="1.41" y="0">M Oscill</tspan><tspan x="11.17" y="0" style="letter-spacing: -0.004231770833333333em">at</tspan><tspan x="13.58" y="0" style="letter-spacing: -0.0003255208333333333em">or</tspan></text>
  </g>
</svg>
