<svg xmlns="http://www.w3.org/2000/svg" xmlns:xlink="http://www.w3.org/1999/xlink" width="40.73mm" height="130.6mm" viewBox="0 0 115.45 370.19">
  <defs>
    <clipPath id="clip-path">
      <rect x="18.97" y="112.93" width="27.8" height="25.62" style="fill: none"/>
    </clipPath>
    <clipPath id="clip-path-3">
      <rect x="70.51" y="112.93" width="27.8" height="25.62" style="fill: none"/>
    </clipPath>
    <clipPath id="clip-path-5">
      <rect x="18.97" y="156.07" width="27.8" height="25.62" style="fill: none"/>
    </clipPath>
    <clipPath id="clip-path-7">
      <rect x="70.51" y="156.07" width="27.8" height="25.62" style="fill: none"/>
    </clipPath>
    <clipPath id="clip-path-9">
      <rect x="18.97" y="26.65" width="27.8" height="25.62" style="fill: none"/>
    </clipPath>
    <clipPath id="clip-path-11">
      <rect x="70.51" y="26.65" width="27.8" height="25.62" style="fill: none"/>
    </clipPath>
    <clipPath id="clip-path-13">
      <rect x="18.97" y="69.79" width="27.8" height="25.62" style="fill: none"/>
    </clipPath>
    <clipPath id="clip-path-15">
      <rect x="70.51" y="69.79" width="27.8" height="25.62" style="fill: none"/>
    </clipPath>
  </defs>
  <g id="faceplate">
    <rect x="0.13" y="0.13" width="115.2" height="364.25" style="fill: #ededed;stroke: #9d9d9e;stroke-miterlimit: 10;stroke-width: 0.25px"/>
    <g>
      <path d="M55.74,354.41H53.21v3H51.37V350h4.37v1.5H53.21v1.44h2.53Z"/>
      <path d="M64.08,357.43H62.24v-4.32l-1.67,2.5h-.14l-1.67-2.5v4.32H57V350h1.67l1.87,2.8,1.89-2.8h1.67Z"/>
    </g>
    <path d="M101.64,316.34V293.12H80.1c-7.49,0-13.57,7-13.57,15.71v32.94H96a5.67,5.67,0,0,0,5.64-5.67V316.34Z"/>
    <path d="M29.52,341.28H87.87c7.35,0,13.31-7,13.31-15.67V218l-.06-6.21c-.29-8.36-6.12-15-13.28-15H29.49c-7.17,0-13,6.67-13.29,15L16.14,218v46.49l.07,61.17" style="fill: none;stroke: #000;stroke-miterlimit: 10"/>
    <path d="M16.21,324.65v11a5.68,5.68,0,0,0,5.67,5.67H34.81" style="fill: none;stroke: #231f20;stroke-miterlimit: 10"/>
    <g>
      <path d="M76.63,234.42l-2.15,5.48h-1l-2.1-5.48h1.49L74,237.54l1.12-3.12Z" style="fill: #231f20"/>
      <path d="M80,234.34l-2.59,5.56h-.92l2.59-5.56Z" style="fill: #231f20"/>
      <path d="M85.54,237.12a3.08,3.08,0,0,1-.31,1.39,2.37,2.37,0,0,1-.91,1,2.78,2.78,0,0,1-1.48.37,2.75,2.75,0,0,1-1.5-.39,2.38,2.38,0,0,1-.91-1,3.14,3.14,0,0,1-.3-1.36,3.19,3.19,0,0,1,.3-1.37,2.42,2.42,0,0,1,.91-1,2.75,2.75,0,0,1,1.5-.39,3.05,3.05,0,0,1,1.17.22,2.36,2.36,0,0,1,.86.61,2.55,2.55,0,0,1,.5.88A3.2,3.2,0,0,1,85.54,237.12Zm-1.46,0a2,2,0,0,0-.08-.56,1.07,1.07,0,0,0-.24-.43,1,1,0,0,0-.39-.29,1.25,1.25,0,0,0-.53-.11,1.12,1.12,0,0,0-.91.39,1.47,1.47,0,0,0-.33,1,1.52,1.52,0,0,0,.33,1,1.15,1.15,0,0,0,.91.38,1.2,1.2,0,0,0,.67-.18,1.06,1.06,0,0,0,.42-.49A1.66,1.66,0,0,0,84.08,237.12Z" style="fill: #231f20"/>
      <path d="M89,239.65l-.33.12a1.93,1.93,0,0,1-.38.09,2.35,2.35,0,0,1-.47,0,1.91,1.91,0,0,1-1-.22,1.76,1.76,0,0,1-.62-.55,2.26,2.26,0,0,1-.29-.69,2.11,2.11,0,0,1,0-1.22,1.9,1.9,0,0,1,.29-.67,1.64,1.64,0,0,1,.61-.55,2.06,2.06,0,0,1,1-.22,2.19,2.19,0,0,1,.63.07,3.11,3.11,0,0,1,.49.16v1.11a2.85,2.85,0,0,0-.94-.22.83.83,0,0,0-.84.93,1.07,1.07,0,0,0,.12.53.84.84,0,0,0,.33.32.81.81,0,0,0,.39.1,1.76,1.76,0,0,0,.42-.06l.58-.18Z" style="fill: #231f20"/>
      <path d="M92,239.6a2.58,2.58,0,0,1-.53.2,2.19,2.19,0,0,1-.65.1c-.89,0-1.34-.49-1.34-1.48v-1.59H89v-.25l1.66-1.92h.14v1.19h1.19v1H90.75v1.27a1.73,1.73,0,0,0,0,.36.36.36,0,0,0,.13.23.55.55,0,0,0,.34.09,1.64,1.64,0,0,0,.78-.28Z" style="fill: #231f20"/>
      <path d="M97.63,238.26a1.55,1.55,0,0,1-.23.87,1.45,1.45,0,0,1-.63.57,2.2,2.2,0,0,1-.94.2l-.36,0a5.51,5.51,0,0,1-.58-.12,4.69,4.69,0,0,1-.74-.29v-1.33a4.88,4.88,0,0,0,.71.42,1.65,1.65,0,0,0,.75.17c.25,0,.41,0,.48-.14a.45.45,0,0,0,.11-.26A.48.48,0,0,0,96,238a2.5,2.5,0,0,0-.54-.31,4.48,4.48,0,0,1-.69-.4,1.86,1.86,0,0,1-.48-.56,1.61,1.61,0,0,1-.19-.78,1.71,1.71,0,0,1,.19-.79,1.39,1.39,0,0,1,.58-.57,2,2,0,0,1,1-.21,2.94,2.94,0,0,1,.74.09,2.46,2.46,0,0,1,.55.2,2.36,2.36,0,0,1,.31.17v1.27a4.88,4.88,0,0,0-.65-.43,1.71,1.71,0,0,0-.77-.18.54.54,0,0,0-.39.11.4.4,0,0,0-.12.29.38.38,0,0,0,.12.28,1.86,1.86,0,0,0,.43.28c.36.2.66.38.88.53a2,2,0,0,1,.52.54A1.51,1.51,0,0,1,97.63,238.26Z" style="fill: #231f20"/>
    </g>
    <g>
      <path d="M77.1,288H75.67v-5.42H77.1Z" style="fill: #231f20"/>
      <path d="M81.56,288H80.32v-2.15a1.62,1.62,0,0,0-.09-.57.4.4,0,0,0-.42-.24.53.53,0,0,0-.26.06.68.68,0,0,0-.21.17,1.25,1.25,0,0,0-.15.19l-.13.2V288H77.82v-4h1.24v.57a1.87,1.87,0,0,1,.59-.5,1.51,1.51,0,0,1,.65-.14q1.26,0,1.26,1.71Z" style="fill: #231f20"/>
      <path d="M85.72,288H84.48v-.36a2.33,2.33,0,0,1-.41.31,1.29,1.29,0,0,1-.61.12,1.38,1.38,0,0,1-.74-.22,1.54,1.54,0,0,1-.61-.67,2.41,2.41,0,0,1-.24-1.14,2.84,2.84,0,0,1,.18-1,1.7,1.7,0,0,1,.56-.77,1.49,1.49,0,0,1,.94-.3,1.4,1.4,0,0,1,.55.09,1.38,1.38,0,0,1,.38.21v-1.67h1.24Zm-1.24-1.27v-1.52a3.44,3.44,0,0,0-.34-.19.61.61,0,0,0-.28-.06.57.57,0,0,0-.49.28,1.32,1.32,0,0,0-.19.76,1.15,1.15,0,0,0,.2.77.63.63,0,0,0,.48.24.64.64,0,0,0,.36-.08A1.21,1.21,0,0,0,84.48,286.69Z" style="fill: #231f20"/>
      <path d="M89.81,286.31H87.35a1,1,0,0,0,.35.59,1,1,0,0,0,.64.23,2.93,2.93,0,0,0,1.38-.4v.88a4.47,4.47,0,0,1-.65.29,3.39,3.39,0,0,1-1,.13,2,2,0,0,1-1.1-.28,1.73,1.73,0,0,1-.68-.74,2.42,2.42,0,0,1-.22-1.06,2.38,2.38,0,0,1,.22-1.05,1.71,1.71,0,0,1,.68-.73,2.21,2.21,0,0,1,1.1-.26,1.7,1.7,0,0,1,.82.21,1.61,1.61,0,0,1,.66.68,2.61,2.61,0,0,1,.25,1.23Zm-1.16-.7a1,1,0,0,0-.16-.61.59.59,0,0,0-.48-.23.59.59,0,0,0-.5.24.89.89,0,0,0-.2.6Z" style="fill: #231f20"/>
      <path d="M94,288H92.51l-.68-1.13L91.16,288H89.81l1.35-2-1.38-2H91.3l.65,1.08L92.6,284H94l-1.33,1.89Z" style="fill: #231f20"/>
    </g>
    <g>
      <path d="M83.72,332.5a3.26,3.26,0,0,1-.31,1.4,2.42,2.42,0,0,1-.92,1,3.11,3.11,0,0,1-3,0,2.39,2.39,0,0,1-.9-1,3.19,3.19,0,0,1-.3-1.37,3.29,3.29,0,0,1,.29-1.36,2.38,2.38,0,0,1,.91-1,2.74,2.74,0,0,1,1.5-.38,3,3,0,0,1,1.18.22,2.42,2.42,0,0,1,.85.6,2.6,2.6,0,0,1,.5.89A3.15,3.15,0,0,1,83.72,332.5Zm-1.47,0a1.87,1.87,0,0,0-.08-.55,1.11,1.11,0,0,0-.24-.44,1,1,0,0,0-.39-.29,1.25,1.25,0,0,0-.53-.1,1.12,1.12,0,0,0-.91.38,1.47,1.47,0,0,0-.33,1,1.5,1.5,0,0,0,.33,1,1.18,1.18,0,0,0,.91.38,1.28,1.28,0,0,0,.67-.17,1.17,1.17,0,0,0,.43-.5A1.81,1.81,0,0,0,82.25,332.5Z" style="fill: #fff"/>
      <path d="M87.81,335.21H86.57v-.56a2,2,0,0,1-.55.48,1.47,1.47,0,0,1-.69.15,1,1,0,0,1-1-.52,2.84,2.84,0,0,1-.24-1.19v-2.33h1.24v2.15a1.4,1.4,0,0,0,.1.56.39.39,0,0,0,.41.25.55.55,0,0,0,.43-.18,3.12,3.12,0,0,0,.32-.45v-2.33h1.24Z" style="fill: #fff"/>
      <path d="M91.08,335a2.63,2.63,0,0,1-.53.21,2.48,2.48,0,0,1-.65.09c-.89,0-1.33-.49-1.33-1.48v-1.59H88V332l1.66-1.92h.14v1.19H91v1H89.81v1.28a3.36,3.36,0,0,0,0,.36.4.4,0,0,0,.14.23.53.53,0,0,0,.34.09,1.77,1.77,0,0,0,.77-.28Z" style="fill: #fff"/>
    </g>
    <g>
      <path d="M24.75,234.42,22.6,239.9h-1l-2.11-5.48H21l1.09,3.12,1.12-3.12Z" style="fill: #231f20"/>
      <path d="M28.14,234.34l-2.59,5.56h-.92l2.59-5.56Z" style="fill: #231f20"/>
      <path d="M33.66,237.12a3.08,3.08,0,0,1-.31,1.39,2.37,2.37,0,0,1-.91,1,2.79,2.79,0,0,1-1.49.37,2.73,2.73,0,0,1-1.49-.39,2.38,2.38,0,0,1-.91-1,3.14,3.14,0,0,1-.3-1.36,3.19,3.19,0,0,1,.3-1.37,2.35,2.35,0,0,1,.91-1,2.73,2.73,0,0,1,1.49-.39,3.1,3.1,0,0,1,1.18.22,2.24,2.24,0,0,1,.85.61,2.75,2.75,0,0,1,.51.88A3.47,3.47,0,0,1,33.66,237.12Zm-1.47,0a2,2,0,0,0-.07-.56,1.37,1.37,0,0,0-.24-.43,1,1,0,0,0-.39-.29,1.3,1.3,0,0,0-.54-.11,1.12,1.12,0,0,0-.9.39,1.47,1.47,0,0,0-.33,1,1.52,1.52,0,0,0,.33,1,1.14,1.14,0,0,0,.9.38,1.23,1.23,0,0,0,.68-.18,1.19,1.19,0,0,0,.42-.49A1.65,1.65,0,0,0,32.19,237.12Z" style="fill: #231f20"/>
      <path d="M37.07,239.65l-.33.12a2,2,0,0,1-.39.09,2.29,2.29,0,0,1-.47,0,2,2,0,0,1-1-.22,1.72,1.72,0,0,1-.61-.55,2.58,2.58,0,0,1-.3-.69,2.37,2.37,0,0,1,0-1.22,2.12,2.12,0,0,1,.3-.67,1.64,1.64,0,0,1,.61-.55,2,2,0,0,1,1-.22,2.31,2.31,0,0,1,.64.07A3.49,3.49,0,0,1,37,236v1.11a2.9,2.9,0,0,0-.94-.22.84.84,0,0,0-.85.93,1.06,1.06,0,0,0,.13.53.82.82,0,0,0,.32.32.85.85,0,0,0,.4.1,1.76,1.76,0,0,0,.42-.06l.58-.18Z" style="fill: #231f20"/>
      <path d="M40.15,239.6a2.58,2.58,0,0,1-.53.2,2.24,2.24,0,0,1-.65.1c-.89,0-1.34-.49-1.34-1.48v-1.59h-.56v-.25l1.66-1.92h.14v1.19h1.18v1H38.87v1.27a3.21,3.21,0,0,0,0,.36.43.43,0,0,0,.14.23.55.55,0,0,0,.34.09,1.64,1.64,0,0,0,.78-.28Z" style="fill: #231f20"/>
      <path d="M46.54,236.12a2,2,0,0,1-.09.59,1.62,1.62,0,0,1-.29.53,1.43,1.43,0,0,1-.55.4,1.86,1.86,0,0,1-.81.16h-.94v2H42.42v-5.41H44.8a2,2,0,0,1,.81.15,1.56,1.56,0,0,1,.55.41,1.66,1.66,0,0,1,.29.54A2.08,2.08,0,0,1,46.54,236.12Zm-1.46,0a.61.61,0,0,0-.2-.53,1.3,1.3,0,0,0-.72-.14h-.3v1.3h.3a2.61,2.61,0,0,0,.56,0,.46.46,0,0,0,.27-.19A.7.7,0,0,0,45.08,236.13Z" style="fill: #231f20"/>
    </g>
    <g>
      <path d="M32.84,288H31.4v-3.14l-1.29,1.82H30l-1.3-1.82V288H27.3v-5.42h1.3l1.47,2,1.47-2h1.3Z" style="fill: #231f20"/>
      <path d="M34.86,288H33.62v-4h1.24Zm-.1-4.9a.6.6,0,0,1-.15.42.5.5,0,0,1-.37.17.4.4,0,0,1-.26-.08.55.55,0,0,1-.19-.21.6.6,0,0,1-.07-.3.64.64,0,0,1,.15-.42.49.49,0,0,1,.74,0A.64.64,0,0,1,34.76,283.06Z" style="fill: #231f20"/>
      <path d="M39.33,288H37.81l-.68-1.13L36.45,288H35.1l1.35-2-1.38-2H36.6l.64,1.08.65-1.08h1.36l-1.32,1.89Z" style="fill: #231f20"/>
    </g>
    <g>
      <path d="M26.87,333.64a1.58,1.58,0,0,1-.23.88,1.45,1.45,0,0,1-.63.57,2.19,2.19,0,0,1-.94.19,2.62,2.62,0,0,1-.37,0,2.92,2.92,0,0,1-.57-.12,3.88,3.88,0,0,1-.74-.29v-1.32a4.88,4.88,0,0,0,.71.42,1.75,1.75,0,0,0,.75.17.62.62,0,0,0,.48-.14.41.41,0,0,0-.08-.63,2.14,2.14,0,0,0-.54-.31,4.49,4.49,0,0,1-.69-.41,1.82,1.82,0,0,1-.48-.55,1.54,1.54,0,0,1-.19-.79,1.62,1.62,0,0,1,.19-.79,1.37,1.37,0,0,1,.58-.56,2,2,0,0,1,.95-.21,2.82,2.82,0,0,1,.73.08,3,3,0,0,1,.56.2,2.36,2.36,0,0,1,.31.17v1.27A3.7,3.7,0,0,0,26,331a1.56,1.56,0,0,0-.76-.19.54.54,0,0,0-.39.12.39.39,0,0,0,0,.56,1.82,1.82,0,0,0,.43.29,7.49,7.49,0,0,1,.88.53,1.63,1.63,0,0,1,.51.54A1.38,1.38,0,0,1,26.87,333.64Z" style="fill: #231f20"/>
      <path d="M31.1,335.21H29.86v-2.1a.25.25,0,0,0,0-.1,1.27,1.27,0,0,0-.11-.52.41.41,0,0,0-.41-.24.57.57,0,0,0-.41.18,2.4,2.4,0,0,0-.34.45v2.33H27.36V329.8H28.6v2a1.81,1.81,0,0,1,.61-.51,1.51,1.51,0,0,1,.63-.13c.84,0,1.26.53,1.26,1.6Z" style="fill: #231f20"/>
      <path d="M35.19,335c-.18.08-.35.15-.5.2a1.79,1.79,0,0,1-.55.07.6.6,0,0,1-.43-.12.64.64,0,0,1-.17-.3,2,2,0,0,1-.45.31,1.58,1.58,0,0,1-.63.11,1.14,1.14,0,0,1-.62-.15.76.76,0,0,1-.33-.38,1.07,1.07,0,0,1-.1-.47,1,1,0,0,1,.17-.6,1.31,1.31,0,0,1,.44-.4,5.3,5.3,0,0,1,.72-.31l.39-.14.2-.08.14-.07a.94.94,0,0,0-.1-.45.5.5,0,0,0-.45-.17,1.5,1.5,0,0,0-.75.2,2.66,2.66,0,0,0-.64.53v-1.08a2.33,2.33,0,0,1,.5-.31,2.14,2.14,0,0,1,.56-.17,2.88,2.88,0,0,1,.59-.06,1.69,1.69,0,0,1,1.14.33,1.14,1.14,0,0,1,.39.92V334a1.27,1.27,0,0,0,0,.32c0,.07.07.11.13.11a.76.76,0,0,0,.32-.11Zm-1.72-.76v-.94a3.3,3.3,0,0,0-.64.37.51.51,0,0,0-.21.44.41.41,0,0,0,.11.3.3.3,0,0,0,.23.11.49.49,0,0,0,.25-.08A2.26,2.26,0,0,0,33.47,334.25Z" style="fill: #231f20"/>
      <path d="M39.14,333.2a2.86,2.86,0,0,1-.1.77,2.25,2.25,0,0,1-.3.67,1.5,1.5,0,0,1-.53.47,1.49,1.49,0,0,1-.75.17,1.34,1.34,0,0,1-.54-.08,1.92,1.92,0,0,1-.39-.22v2H35.29v-5.78h1.24v.36a1.53,1.53,0,0,1,.41-.31,1.29,1.29,0,0,1,.61-.12,1.52,1.52,0,0,1,.75.21,1.58,1.58,0,0,1,.6.67A2.45,2.45,0,0,1,39.14,333.2Zm-1.3,0a1.37,1.37,0,0,0-.1-.58.74.74,0,0,0-.26-.33.56.56,0,0,0-.33-.1.8.8,0,0,0-.36.08,1.21,1.21,0,0,0-.26.2V334l.14.09.15.08a.47.47,0,0,0,.15.06l.18,0a.59.59,0,0,0,.49-.28A1.35,1.35,0,0,0,37.84,333.23Z" style="fill: #231f20"/>
      <path d="M43.09,333.57H40.63a1,1,0,0,0,.35.59,1,1,0,0,0,.64.23A2.93,2.93,0,0,0,43,334v.87a2.9,2.9,0,0,1-.66.29,3,3,0,0,1-1,.13,2.11,2.11,0,0,1-1.1-.27,1.73,1.73,0,0,1-.68-.74,2.43,2.43,0,0,1-.23-1.06,2.38,2.38,0,0,1,.23-1,1.71,1.71,0,0,1,.68-.73,2.11,2.11,0,0,1,1.1-.26,1.72,1.72,0,0,1,.82.21,1.48,1.48,0,0,1,.65.68,2.45,2.45,0,0,1,.26,1.22Zm-1.16-.7a1,1,0,0,0-.17-.61.56.56,0,0,0-.48-.23.64.64,0,0,0-.5.23,1,1,0,0,0-.19.61Z" style="fill: #231f20"/>
    </g>
    <g id="pips_-_fewest" data-name="pips - fewest">
      <g style="clip-path: url(#clip-path)">
        <g style="clip-path: url(#clip-path)">
          <path d="M38.57,115.71l.71-1.24a13.86,13.86,0,0,0-5.77-1.54v1.43a12.35,12.35,0,0,1,5.06,1.35"/>
          <path d="M43.37,120l1.23-.71a14,14,0,0,0-4.23-4.22l-.71,1.23a12.7,12.7,0,0,1,3.71,3.7"/>
          <path d="M26.09,116.34l-.71-1.23a14,14,0,0,0-4.23,4.22l1.24.71a12.55,12.55,0,0,1,3.7-3.7"/>
          <path d="M45.35,126.2h1.43a13.68,13.68,0,0,0-1.55-5.77l-1.23.71a12.47,12.47,0,0,1,1.35,5.06"/>
          <path d="M32.24,114.36v-1.43a13.86,13.86,0,0,0-5.77,1.54l.72,1.24a12.31,12.31,0,0,1,5.05-1.35"/>
          <path d="M22.39,133.62l-1.24.71a14,14,0,0,0,4.23,4.22l.71-1.23a12.55,12.55,0,0,1-3.7-3.7"/>
          <path d="M39.66,137.32l.71,1.23a14,14,0,0,0,4.23-4.22l-1.23-.71a12.7,12.7,0,0,1-3.71,3.7"/>
          <path d="M45.35,127.46A12.47,12.47,0,0,1,44,132.52l1.23.71a13.68,13.68,0,0,0,1.55-5.77Z"/>
          <path d="M20.4,127.46H19a13.83,13.83,0,0,0,1.55,5.77l1.23-.71a12.47,12.47,0,0,1-1.35-5.06"/>
          <path d="M21.75,121.14l-1.23-.71A14,14,0,0,0,19,126.2H20.4a12.47,12.47,0,0,1,1.35-5.06"/>
        </g>
      </g>
    </g>
    <g>
      <path d="M25.79,146.51H24.24l-.37-1a4.47,4.47,0,0,0-.37-.78.91.91,0,0,0-.32-.31,1.16,1.16,0,0,0-.41-.07h-.16v2.12H21.17v-5.42h2.45a1.59,1.59,0,0,1,1,.28,1.55,1.55,0,0,1,.54.66,1.93,1.93,0,0,1,.17.74,1.62,1.62,0,0,1-.14.7,1.4,1.4,0,0,1-.29.41,3.07,3.07,0,0,1-.35.24,1.87,1.87,0,0,1,.38.36,5.69,5.69,0,0,1,.41.85Zm-2-3.71a.59.59,0,0,0-.21-.52,1.29,1.29,0,0,0-.71-.15h-.3v1.31h.31a1.47,1.47,0,0,0,.72-.13A.58.58,0,0,0,23.83,142.8Z"/>
      <path d="M29.59,146.31l-.51.19a1.73,1.73,0,0,1-.55.08.57.57,0,0,1-.43-.13.74.74,0,0,1-.17-.3,1.67,1.67,0,0,1-.44.31,1.46,1.46,0,0,1-.64.12,1.14,1.14,0,0,1-.62-.15.92.92,0,0,1-.33-.38,1.27,1.27,0,0,1-.09-.47A1,1,0,0,1,26,145a1.28,1.28,0,0,1,.44-.39,5.37,5.37,0,0,1,.73-.32l.39-.14.2-.08.13-.07a.83.83,0,0,0-.1-.45.5.5,0,0,0-.45-.17,1.42,1.42,0,0,0-.75.21,2.81,2.81,0,0,0-.64.52V143a2.55,2.55,0,0,1,.5-.3,2.81,2.81,0,0,1,.56-.18,3,3,0,0,1,.59-.06,1.73,1.73,0,0,1,1.15.33,1.18,1.18,0,0,1,.38.92v1.54a.89.89,0,0,0,0,.32.13.13,0,0,0,.13.11.8.8,0,0,0,.32-.11Zm-1.73-.76v-1a3.64,3.64,0,0,0-.64.37.51.51,0,0,0-.2.44.4.4,0,0,0,.1.3.33.33,0,0,0,.23.11.52.52,0,0,0,.26-.08A2.07,2.07,0,0,0,27.86,145.55Z"/>
      <path d="M32.45,146.28a3,3,0,0,1-.53.2,2.5,2.5,0,0,1-.65.1c-.89,0-1.33-.5-1.33-1.49v-1.58h-.56v-.25L31,141.34h.14v1.19h1.18v1H31.18v1.27a3.21,3.21,0,0,0,0,.36.37.37,0,0,0,.14.23.51.51,0,0,0,.34.09,1.65,1.65,0,0,0,.77-.28Z"/>
      <path d="M34,146.51H32.78v-4H34Zm-.1-4.9a.57.57,0,0,1-.16.42.48.48,0,0,1-.37.17.42.42,0,0,1-.26-.08.55.55,0,0,1-.19-.21.73.73,0,0,1-.06-.3.64.64,0,0,1,.15-.42.48.48,0,0,1,.36-.17.48.48,0,0,1,.37.17A.6.6,0,0,1,33.92,141.61Z"/>
      <path d="M38.45,144.51a2.27,2.27,0,0,1-.23,1.06,1.71,1.71,0,0,1-.67.74,2.15,2.15,0,0,1-1.11.27,2.11,2.11,0,0,1-1.1-.27,1.73,1.73,0,0,1-.68-.74,2.54,2.54,0,0,1-.22-1.06,2.3,2.3,0,0,1,.13-.81,1.77,1.77,0,0,1,.38-.65,1.67,1.67,0,0,1,.63-.44,2.31,2.31,0,0,1,.86-.15,2.39,2.39,0,0,1,.88.15,1.79,1.79,0,0,1,.63.44,1.85,1.85,0,0,1,.37.64A2.39,2.39,0,0,1,38.45,144.51Zm-1.3,0a1.33,1.33,0,0,0-.18-.74.66.66,0,0,0-1,0,1.33,1.33,0,0,0-.18.74,1.36,1.36,0,0,0,.18.75.61.61,0,0,0,.52.27.6.6,0,0,0,.53-.27A1.34,1.34,0,0,0,37.15,144.51Z"/>
      <path d="M45.09,146.1a3,3,0,0,1-.61.28,3.3,3.3,0,0,1-.62.15,4.62,4.62,0,0,1-.65.05,3,3,0,0,1-1.12-.2,2.45,2.45,0,0,1-.85-.57,2.6,2.6,0,0,1-.55-.9,3.53,3.53,0,0,1,0-2.34,2.35,2.35,0,0,1,.59-.87,2.7,2.7,0,0,1,.88-.52,3.17,3.17,0,0,1,1-.16,4.93,4.93,0,0,1,1.84.41v1.44a4.8,4.8,0,0,0-.7-.42,1.86,1.86,0,0,0-.81-.17,1.73,1.73,0,0,0-.78.19,1.5,1.5,0,0,0-.58.54,1.45,1.45,0,0,0-.22.81,1.49,1.49,0,0,0,.19.75,1.52,1.52,0,0,0,1.31.75,2.27,2.27,0,0,0,.65-.1,2.94,2.94,0,0,0,.52-.21,3.59,3.59,0,0,0,.44-.28Z"/>
    </g>
    <g id="pips_-_fewest-2" data-name="pips - fewest">
      <g style="clip-path: url(#clip-path-3)">
        <g style="clip-path: url(#clip-path-3)">
          <path d="M90.1,115.71l.71-1.24A13.82,13.82,0,0,0,85,112.93v1.43a12.31,12.31,0,0,1,5.06,1.35"/>
          <path d="M94.9,120l1.23-.71a13.92,13.92,0,0,0-4.22-4.22l-.71,1.23a12.55,12.55,0,0,1,3.7,3.7"/>
          <path d="M77.62,116.34l-.71-1.23a13.92,13.92,0,0,0-4.22,4.22l1.23.71a12.55,12.55,0,0,1,3.7-3.7"/>
          <path d="M96.88,126.2h1.43a13.82,13.82,0,0,0-1.54-5.77l-1.24.71a12.31,12.31,0,0,1,1.35,5.06"/>
          <path d="M83.78,114.36v-1.43A13.82,13.82,0,0,0,78,114.47l.71,1.24a12.31,12.31,0,0,1,5.06-1.35"/>
          <path d="M73.92,133.62l-1.23.71a13.92,13.92,0,0,0,4.22,4.22l.71-1.23a12.55,12.55,0,0,1-3.7-3.7"/>
          <path d="M91.2,137.32l.71,1.23a13.92,13.92,0,0,0,4.22-4.22l-1.23-.71a12.55,12.55,0,0,1-3.7,3.7"/>
          <path d="M96.88,127.46a12.31,12.31,0,0,1-1.35,5.06l1.24.71a13.82,13.82,0,0,0,1.54-5.77Z"/>
          <path d="M71.94,127.46H70.51a13.82,13.82,0,0,0,1.54,5.77l1.24-.71a12.31,12.31,0,0,1-1.35-5.06"/>
          <path d="M73.29,121.14l-1.24-.71a13.82,13.82,0,0,0-1.54,5.77h1.43a12.31,12.31,0,0,1,1.35-5.06"/>
        </g>
      </g>
    </g>
    <g>
      <path d="M77.75,146.51H76.2l-.37-1a4.47,4.47,0,0,0-.37-.78.91.91,0,0,0-.32-.31,1.16,1.16,0,0,0-.41-.07h-.16v2.12H73.13v-5.42h2.45a1.59,1.59,0,0,1,1,.28,1.55,1.55,0,0,1,.54.66,1.93,1.93,0,0,1,.17.74,1.62,1.62,0,0,1-.14.7,1.4,1.4,0,0,1-.29.41,3.07,3.07,0,0,1-.35.24,1.87,1.87,0,0,1,.38.36,5.69,5.69,0,0,1,.41.85Zm-2-3.71a.59.59,0,0,0-.21-.52,1.29,1.29,0,0,0-.71-.15h-.3v1.31h.31a1.47,1.47,0,0,0,.72-.13A.58.58,0,0,0,75.79,142.8Z"/>
      <path d="M81.54,146.31a4.55,4.55,0,0,1-.5.19,1.73,1.73,0,0,1-.55.08.57.57,0,0,1-.43-.13.74.74,0,0,1-.17-.3,1.67,1.67,0,0,1-.44.31,1.46,1.46,0,0,1-.64.12,1.14,1.14,0,0,1-.62-.15.86.86,0,0,1-.33-.38,1.27,1.27,0,0,1-.09-.47,1,1,0,0,1,.16-.61,1.28,1.28,0,0,1,.44-.39,4.86,4.86,0,0,1,.73-.32l.39-.14.2-.08.13-.07a.83.83,0,0,0-.1-.45.5.5,0,0,0-.45-.17,1.42,1.42,0,0,0-.75.21,2.81,2.81,0,0,0-.64.52V143a2.55,2.55,0,0,1,.5-.3,2.81,2.81,0,0,1,.56-.18,3,3,0,0,1,.59-.06,1.73,1.73,0,0,1,1.15.33,1.18,1.18,0,0,1,.38.92v1.54a.89.89,0,0,0,0,.32c0,.08.06.11.13.11a.72.72,0,0,0,.31-.11Zm-1.72-.76v-1a3.64,3.64,0,0,0-.64.37.51.51,0,0,0-.2.44.4.4,0,0,0,.1.3.31.31,0,0,0,.23.11.52.52,0,0,0,.26-.08A2.07,2.07,0,0,0,79.82,145.55Z"/>
      <path d="M84.41,146.28a3,3,0,0,1-.53.2,2.5,2.5,0,0,1-.65.1c-.89,0-1.33-.5-1.33-1.49v-1.58h-.56v-.25L83,141.34h.14v1.19h1.18v1H83.14v1.27a3.21,3.21,0,0,0,0,.36.37.37,0,0,0,.14.23.51.51,0,0,0,.34.09,1.65,1.65,0,0,0,.77-.28Z"/>
      <path d="M86,146.51H84.74v-4H86Zm-.1-4.9a.57.57,0,0,1-.16.42.48.48,0,0,1-.37.17.42.42,0,0,1-.26-.08.55.55,0,0,1-.19-.21.73.73,0,0,1-.07-.3.65.65,0,0,1,.16-.42.48.48,0,0,1,.36-.17.48.48,0,0,1,.37.17A.6.6,0,0,1,85.88,141.61Z"/>
      <path d="M90.41,144.51a2.27,2.27,0,0,1-.23,1.06,1.71,1.71,0,0,1-.67.74,2.15,2.15,0,0,1-1.11.27,2.11,2.11,0,0,1-1.1-.27,1.73,1.73,0,0,1-.68-.74,2.39,2.39,0,0,1-.22-1.06,2.3,2.3,0,0,1,.13-.81,1.77,1.77,0,0,1,.38-.65,1.67,1.67,0,0,1,.63-.44,2.31,2.31,0,0,1,.86-.15,2.39,2.39,0,0,1,.88.15,1.79,1.79,0,0,1,.63.44,1.85,1.85,0,0,1,.37.64A2.39,2.39,0,0,1,90.41,144.51Zm-1.3,0a1.33,1.33,0,0,0-.18-.74.66.66,0,0,0-1.05,0,1.33,1.33,0,0,0-.18.74,1.36,1.36,0,0,0,.18.75.61.61,0,0,0,.52.27.6.6,0,0,0,.53-.27A1.34,1.34,0,0,0,89.11,144.51Z"/>
      <path d="M96.2,144.32h-2v2.19H92.78v-5.42H96.2v1.09h-2v1h2Z"/>
    </g>
    <g id="pips_-_fewest-3" data-name="pips - fewest">
      <g style="clip-path: url(#clip-path-5)">
        <g style="clip-path: url(#clip-path-5)">
          <path d="M38.57,158.85l.71-1.24a13.86,13.86,0,0,0-5.77-1.54v1.43a12.35,12.35,0,0,1,5.06,1.35"/>
          <path d="M43.37,163.18l1.23-.71a14.07,14.07,0,0,0-4.23-4.22l-.71,1.23a12.82,12.82,0,0,1,3.71,3.7"/>
          <path d="M26.09,159.48l-.71-1.23a14.07,14.07,0,0,0-4.23,4.22l1.24.72a12.58,12.58,0,0,1,3.7-3.71"/>
          <path d="M45.35,169.34h1.43a13.68,13.68,0,0,0-1.55-5.77l-1.23.71a12.47,12.47,0,0,1,1.35,5.06"/>
          <path d="M32.24,157.5v-1.43a13.72,13.72,0,0,0-5.77,1.55l.72,1.23a12.31,12.31,0,0,1,5.05-1.35"/>
          <path d="M22.39,176.76l-1.24.71a14,14,0,0,0,4.23,4.22l.71-1.23a12.55,12.55,0,0,1-3.7-3.7"/>
          <path d="M39.66,180.46l.71,1.23a13.85,13.85,0,0,0,4.23-4.22l-1.23-.71a12.7,12.7,0,0,1-3.71,3.7"/>
          <path d="M45.35,170.6A12.47,12.47,0,0,1,44,175.66l1.23.71a13.68,13.68,0,0,0,1.55-5.77Z"/>
          <path d="M20.4,170.6H19a13.83,13.83,0,0,0,1.55,5.77l1.23-.71a12.47,12.47,0,0,1-1.35-5.06"/>
          <path d="M21.75,164.28l-1.23-.71A14,14,0,0,0,19,169.34H20.4a12.47,12.47,0,0,1,1.35-5.06"/>
        </g>
      </g>
    </g>
    <g>
      <path d="M26.73,188.07a1.65,1.65,0,0,1-.23.88,1.42,1.42,0,0,1-.64.57,2.12,2.12,0,0,1-.93.2l-.37,0-.57-.12a4.69,4.69,0,0,1-.74-.29V188a4.88,4.88,0,0,0,.71.42,1.72,1.72,0,0,0,.75.17.64.64,0,0,0,.48-.14.43.43,0,0,0,.1-.26.47.47,0,0,0-.18-.37,3.11,3.11,0,0,0-.54-.31,3.81,3.81,0,0,1-.69-.41,1.59,1.59,0,0,1-.48-.55,1.5,1.5,0,0,1-.19-.78,1.63,1.63,0,0,1,.19-.8,1.43,1.43,0,0,1,.58-.56,2,2,0,0,1,.95-.21,2.81,2.81,0,0,1,.73.09,3,3,0,0,1,.56.19l.3.18v1.27a3.86,3.86,0,0,0-.65-.43,1.69,1.69,0,0,0-.77-.19.52.52,0,0,0-.38.12.38.38,0,0,0-.12.29.38.38,0,0,0,.12.28,2.27,2.27,0,0,0,.43.28,9.18,9.18,0,0,1,.88.53,1.74,1.74,0,0,1,.51.54A1.38,1.38,0,0,1,26.73,188.07Z"/>
      <path d="M31,189.65H29.72v-2.11a.55.55,0,0,0,0-.09,1.32,1.32,0,0,0-.11-.53.41.41,0,0,0-.41-.23.6.6,0,0,0-.41.17,2.4,2.4,0,0,0-.34.45v2.34H27.22v-5.42h1.24v2a1.75,1.75,0,0,1,.6-.5,1.57,1.57,0,0,1,.64-.14c.84,0,1.26.54,1.26,1.61Z"/>
      <path d="M35.05,189.45c-.18.08-.35.14-.5.19a1.82,1.82,0,0,1-.55.08.55.55,0,0,1-.43-.13.66.66,0,0,1-.17-.29,2,2,0,0,1-.45.3,1.43,1.43,0,0,1-.64.12,1.1,1.1,0,0,1-.61-.15.8.8,0,0,1-.33-.38,1.1,1.1,0,0,1-.1-.47,1,1,0,0,1,.17-.61,1.16,1.16,0,0,1,.43-.39,6,6,0,0,1,.73-.32l.39-.14.2-.08.14-.07a.94.94,0,0,0-.1-.45c-.07-.11-.22-.16-.45-.16a1.41,1.41,0,0,0-.75.2,2.44,2.44,0,0,0-.64.52v-1.08a2.29,2.29,0,0,1,.5-.3,2.62,2.62,0,0,1,.56-.18,2.88,2.88,0,0,1,.59-.06,1.69,1.69,0,0,1,1.14.33,1.16,1.16,0,0,1,.39.92v1.54a1.37,1.37,0,0,0,0,.33.13.13,0,0,0,.13.1.64.64,0,0,0,.32-.11Zm-1.72-.76v-.94a2.67,2.67,0,0,0-.64.36.54.54,0,0,0-.21.44.45.45,0,0,0,.1.3.34.34,0,0,0,.24.11.49.49,0,0,0,.25-.08A2.14,2.14,0,0,0,33.33,188.69Z"/>
      <path d="M39,187.63a2.8,2.8,0,0,1-.1.77,2.4,2.4,0,0,1-.3.67,1.53,1.53,0,0,1-1.28.65,1.54,1.54,0,0,1-.54-.08,2.56,2.56,0,0,1-.39-.22v2H35.15v-5.79h1.24V186a2.1,2.1,0,0,1,.41-.31,1.29,1.29,0,0,1,.61-.12,1.44,1.44,0,0,1,.75.22,1.59,1.59,0,0,1,.6.67A2.41,2.41,0,0,1,39,187.63Zm-1.3,0a1.55,1.55,0,0,0-.1-.58.74.74,0,0,0-.26-.33.66.66,0,0,0-.33-.09.68.68,0,0,0-.36.08,1.21,1.21,0,0,0-.26.2v1.52l.14.08.14.09.16.06.18,0a.57.57,0,0,0,.49-.28A1.33,1.33,0,0,0,37.7,187.66Z"/>
      <path d="M43,188H40.49a.93.93,0,0,0,.35.59,1,1,0,0,0,.64.23,2.93,2.93,0,0,0,1.38-.4v.88a4.18,4.18,0,0,1-.66.29,3.32,3.32,0,0,1-1,.13,2,2,0,0,1-1.1-.28,1.67,1.67,0,0,1-.68-.74,2.53,2.53,0,0,1,0-2.11,1.65,1.65,0,0,1,.68-.73,2.21,2.21,0,0,1,1.1-.26,1.72,1.72,0,0,1,.82.21,1.59,1.59,0,0,1,.65.68,2.61,2.61,0,0,1,.26,1.23Zm-1.16-.7a1,1,0,0,0-.17-.61.56.56,0,0,0-.48-.23.62.62,0,0,0-.5.24.88.88,0,0,0-.19.6Z"/>
    </g>
    <g id="pips_-_fewest-4" data-name="pips - fewest">
      <g style="clip-path: url(#clip-path-7)">
        <g style="clip-path: url(#clip-path-7)">
          <path d="M90.1,158.85l.71-1.24A13.82,13.82,0,0,0,85,156.07v1.43a12.31,12.31,0,0,1,5.06,1.35"/>
          <path d="M94.9,163.18l1.23-.71a14,14,0,0,0-4.22-4.22l-.71,1.23a12.67,12.67,0,0,1,3.7,3.7"/>
          <path d="M77.62,159.48l-.71-1.23a14,14,0,0,0-4.22,4.22l1.23.72a12.58,12.58,0,0,1,3.7-3.71"/>
          <path d="M96.88,169.34h1.43a13.82,13.82,0,0,0-1.54-5.77l-1.24.71a12.31,12.31,0,0,1,1.35,5.06"/>
          <path d="M83.78,157.5v-1.43A13.68,13.68,0,0,0,78,157.62l.71,1.23a12.31,12.31,0,0,1,5.06-1.35"/>
          <path d="M73.92,176.76l-1.23.71a13.92,13.92,0,0,0,4.22,4.22l.71-1.23a12.55,12.55,0,0,1-3.7-3.7"/>
          <path d="M91.2,180.46l.71,1.23a13.81,13.81,0,0,0,4.22-4.22l-1.23-.71a12.55,12.55,0,0,1-3.7,3.7"/>
          <path d="M96.88,170.6a12.31,12.31,0,0,1-1.35,5.06l1.24.71a13.82,13.82,0,0,0,1.54-5.77Z"/>
          <path d="M71.94,170.6H70.51a13.82,13.82,0,0,0,1.54,5.77l1.24-.71a12.31,12.31,0,0,1-1.35-5.06"/>
          <path d="M73.29,164.28l-1.24-.71a13.82,13.82,0,0,0-1.54,5.77h1.43a12.31,12.31,0,0,1,1.35-5.06"/>
        </g>
      </g>
    </g>
    <g>
      <path d="M72.29,188.07a1.65,1.65,0,0,1-.23.88,1.42,1.42,0,0,1-.64.57,2.12,2.12,0,0,1-.93.2l-.37,0-.57-.12a4.34,4.34,0,0,1-.74-.29V188a4.88,4.88,0,0,0,.71.42,1.72,1.72,0,0,0,.75.17.6.6,0,0,0,.47-.14.39.39,0,0,0,.11-.26.47.47,0,0,0-.18-.37,3.11,3.11,0,0,0-.54-.31,3.81,3.81,0,0,1-.69-.41,1.59,1.59,0,0,1-.48-.55,1.5,1.5,0,0,1-.19-.78,1.63,1.63,0,0,1,.19-.8,1.37,1.37,0,0,1,.58-.56,1.94,1.94,0,0,1,.95-.21,2.81,2.81,0,0,1,.73.09,3.29,3.29,0,0,1,.56.19l.3.18v1.27a3.86,3.86,0,0,0-.65-.43,1.69,1.69,0,0,0-.77-.19.52.52,0,0,0-.38.12.38.38,0,0,0-.12.29.38.38,0,0,0,.12.28,2.27,2.27,0,0,0,.43.28,7.8,7.8,0,0,1,.87.53,1.77,1.77,0,0,1,.52.54A1.38,1.38,0,0,1,72.29,188.07Z"/>
      <path d="M76.52,189.65H75.28v-2.2a1.32,1.32,0,0,0-.1-.53.41.41,0,0,0-.41-.23.6.6,0,0,0-.41.17,2.4,2.4,0,0,0-.34.45v2.34H72.78v-5.42H74v2a1.66,1.66,0,0,1,.6-.5,1.57,1.57,0,0,1,.64-.14c.84,0,1.26.54,1.26,1.61Z"/>
      <path d="M80.61,189.45c-.18.08-.35.14-.5.19a1.84,1.84,0,0,1-.56.08.54.54,0,0,1-.42-.13.66.66,0,0,1-.17-.29,2.21,2.21,0,0,1-.45.3,1.43,1.43,0,0,1-.64.12,1.1,1.1,0,0,1-.61-.15.8.8,0,0,1-.33-.38,1.1,1.1,0,0,1-.1-.47,1.13,1.13,0,0,1,.16-.61,1.28,1.28,0,0,1,.44-.39,6,6,0,0,1,.73-.32l.39-.14.2-.08.14-.07a.83.83,0,0,0-.11-.45c-.07-.11-.21-.16-.44-.16a1.47,1.47,0,0,0-.76.2,2.57,2.57,0,0,0-.63.52v-1.08a2.29,2.29,0,0,1,.5-.3,2.45,2.45,0,0,1,.56-.18,2.88,2.88,0,0,1,.59-.06,1.7,1.7,0,0,1,1.14.33,1.15,1.15,0,0,1,.38.92v1.54a1.28,1.28,0,0,0,0,.33.13.13,0,0,0,.13.1.64.64,0,0,0,.32-.11Zm-1.72-.76v-.94a3,3,0,0,0-.65.36.56.56,0,0,0-.2.44.45.45,0,0,0,.1.3.34.34,0,0,0,.24.11.49.49,0,0,0,.25-.08Z"/>
      <path d="M84.56,187.63a2.8,2.8,0,0,1-.1.77,2.4,2.4,0,0,1-.3.67,1.49,1.49,0,0,1-.53.47,1.51,1.51,0,0,1-.75.18,1.54,1.54,0,0,1-.54-.08,2.56,2.56,0,0,1-.39-.22v2H80.71v-5.79H82V186a2.1,2.1,0,0,1,.41-.31,1.29,1.29,0,0,1,.61-.12,1.44,1.44,0,0,1,.75.22,1.59,1.59,0,0,1,.6.67A2.41,2.41,0,0,1,84.56,187.63Zm-1.3,0a1.55,1.55,0,0,0-.1-.58.81.81,0,0,0-.26-.33.68.68,0,0,0-.33-.09.66.66,0,0,0-.36.08,1.21,1.21,0,0,0-.26.2v1.52l.14.08a.67.67,0,0,0,.14.09l.16.06.18,0a.57.57,0,0,0,.49-.28A1.33,1.33,0,0,0,83.26,187.66Z"/>
      <path d="M88.51,188H86a1,1,0,0,0,.36.59,1,1,0,0,0,.64.23,3,3,0,0,0,1.38-.4v.88a4.18,4.18,0,0,1-.66.29,3.37,3.37,0,0,1-1,.13,2,2,0,0,1-1.1-.28,1.67,1.67,0,0,1-.68-.74,2.53,2.53,0,0,1,0-2.11,1.65,1.65,0,0,1,.68-.73,2.21,2.21,0,0,1,1.1-.26,1.75,1.75,0,0,1,.82.21,1.65,1.65,0,0,1,.65.68,2.61,2.61,0,0,1,.26,1.23Zm-1.16-.7a1,1,0,0,0-.17-.61.56.56,0,0,0-.48-.23.61.61,0,0,0-.5.24.88.88,0,0,0-.19.6Z"/>
      <path d="M95.11,189.24a3,3,0,0,1-.6.28,3.6,3.6,0,0,1-.63.15,4.51,4.51,0,0,1-.65.05,3,3,0,0,1-1.11-.2,2.4,2.4,0,0,1-.86-.57,2.53,2.53,0,0,1-.54-.89,3.37,3.37,0,0,1-.18-1.12,3.3,3.3,0,0,1,.21-1.23,2.26,2.26,0,0,1,.6-.87,2.38,2.38,0,0,1,.87-.51,3,3,0,0,1,1-.17,5.1,5.1,0,0,1,1.84.41V186a4.32,4.32,0,0,0-.7-.42,1.86,1.86,0,0,0-.81-.17,1.73,1.73,0,0,0-.78.19,1.58,1.58,0,0,0-.58.54A1.53,1.53,0,0,0,92,187a1.61,1.61,0,0,0,.19.75,1.4,1.4,0,0,0,.54.54,1.44,1.44,0,0,0,.77.21,2.39,2.39,0,0,0,.66-.1,2.55,2.55,0,0,0,.52-.21,4.46,4.46,0,0,0,.43-.28Z"/>
      <path d="M100.46,184.23l-2.15,5.49h-1l-2.11-5.49h1.5l1.09,3.13L99,184.23Z"/>
    </g>
    <g id="pips_-_fewest-5" data-name="pips - fewest">
      <g style="clip-path: url(#clip-path-9)">
        <g style="clip-path: url(#clip-path-9)">
          <path d="M38.57,29.43l.71-1.24a13.86,13.86,0,0,0-5.77-1.54v1.42a12.52,12.52,0,0,1,5.06,1.36"/>
          <path d="M43.37,33.76l1.23-.71a13.85,13.85,0,0,0-4.23-4.22l-.71,1.23a12.7,12.7,0,0,1,3.71,3.7"/>
          <path d="M26.09,30.06l-.71-1.23a13.85,13.85,0,0,0-4.23,4.22l1.24.71a12.55,12.55,0,0,1,3.7-3.7"/>
          <path d="M45.35,39.92h1.43a13.77,13.77,0,0,0-1.55-5.78L44,34.86a12.47,12.47,0,0,1,1.35,5.06"/>
          <path d="M32.24,28.07V26.65a13.86,13.86,0,0,0-5.77,1.54l.72,1.24a12.47,12.47,0,0,1,5.05-1.36"/>
          <path d="M22.39,47.33l-1.24.72a14.07,14.07,0,0,0,4.23,4.22L26.09,51a12.58,12.58,0,0,1-3.7-3.71"/>
          <path d="M39.66,51l.71,1.23a14.07,14.07,0,0,0,4.23-4.22l-1.23-.72A12.74,12.74,0,0,1,39.66,51"/>
          <path d="M45.35,41.18A12.51,12.51,0,0,1,44,46.24l1.23.71a13.68,13.68,0,0,0,1.55-5.77Z"/>
          <path d="M20.4,41.18H19A13.83,13.83,0,0,0,20.52,47l1.23-.71a12.51,12.51,0,0,1-1.35-5.06"/>
          <path d="M21.75,34.86l-1.23-.72A14.07,14.07,0,0,0,19,39.92H20.4a12.47,12.47,0,0,1,1.35-5.06"/>
        </g>
      </g>
    </g>
    <g>
      <path d="M29.07,56.51a2,2,0,0,1-.09.59,1.77,1.77,0,0,1-.29.54,1.54,1.54,0,0,1-.55.4,2,2,0,0,1-.81.15h-.94v2H25V54.81h2.38a1.86,1.86,0,0,1,.81.16,1.54,1.54,0,0,1,.55.4,1.71,1.71,0,0,1,.29.55A2,2,0,0,1,29.07,56.51Zm-1.46,0a.62.62,0,0,0-.2-.53,1.4,1.4,0,0,0-.72-.14h-.3v1.3h.3a2,2,0,0,0,.55,0,.41.41,0,0,0,.28-.18A.76.76,0,0,0,27.61,56.52Z"/>
      <path d="M30.69,60.22H29.45v-4h1.24Zm-.1-4.89a.6.6,0,0,1-.16.42.48.48,0,0,1-.36.17.5.5,0,0,1-.27-.08.46.46,0,0,1-.18-.21.6.6,0,0,1-.07-.3.64.64,0,0,1,.15-.42.45.45,0,0,1,.37-.17.44.44,0,0,1,.36.17A.6.6,0,0,1,30.59,55.33Z"/>
      <path d="M34,60a3.23,3.23,0,0,1-.53.21,2.54,2.54,0,0,1-.65.09c-.89,0-1.34-.49-1.34-1.48V57.22h-.56V57l1.66-1.92h.15v1.19h1.18v1H32.75V58.5a1.84,1.84,0,0,0,0,.36.45.45,0,0,0,.13.23.55.55,0,0,0,.34.09A1.76,1.76,0,0,0,34,58.9Z"/>
      <path d="M37.28,60a1.61,1.61,0,0,1-.33.12,3,3,0,0,1-.38.1,3.48,3.48,0,0,1-.47,0,1.91,1.91,0,0,1-1-.22,1.67,1.67,0,0,1-.62-.55,2.12,2.12,0,0,1-.29-.68,2.15,2.15,0,0,1,0-1.23,2.07,2.07,0,0,1,.29-.67,1.54,1.54,0,0,1,.61-.54,2,2,0,0,1,1-.22,2.68,2.68,0,0,1,.63.06,3.17,3.17,0,0,1,.49.17v1.1a3.13,3.13,0,0,0-.94-.22.88.88,0,0,0-.59.23.89.89,0,0,0-.25.7,1.11,1.11,0,0,0,.12.54.92.92,0,0,0,.33.32.94.94,0,0,0,.39.1,1.41,1.41,0,0,0,.42-.07l.58-.17Z"/>
      <path d="M41.34,60.22H40.1V58A1.16,1.16,0,0,0,40,57.5a.39.39,0,0,0-.4-.24.55.55,0,0,0-.41.18,2,2,0,0,0-.34.45v2.33H37.6V54.81h1.24v2a1.7,1.7,0,0,1,.6-.51,1.53,1.53,0,0,1,.64-.13c.84,0,1.26.53,1.26,1.6Z"/>
    </g>
    <g id="pips_-_fewest-6" data-name="pips - fewest">
      <g style="clip-path: url(#clip-path-11)">
        <g style="clip-path: url(#clip-path-11)">
          <path d="M90.1,29.43l.71-1.24A13.82,13.82,0,0,0,85,26.65v1.42a12.48,12.48,0,0,1,5.06,1.36"/>
          <path d="M94.9,33.76l1.23-.71a13.81,13.81,0,0,0-4.22-4.22l-.71,1.23a12.55,12.55,0,0,1,3.7,3.7"/>
          <path d="M77.62,30.06l-.71-1.23a13.81,13.81,0,0,0-4.22,4.22l1.23.71a12.55,12.55,0,0,1,3.7-3.7"/>
          <path d="M96.88,39.92h1.43a13.91,13.91,0,0,0-1.54-5.78l-1.24.72a12.31,12.31,0,0,1,1.35,5.06"/>
          <path d="M83.78,28.07V26.65A13.82,13.82,0,0,0,78,28.19l.71,1.24a12.48,12.48,0,0,1,5.06-1.36"/>
          <path d="M73.92,47.33l-1.23.72a14,14,0,0,0,4.22,4.22L77.62,51a12.58,12.58,0,0,1-3.7-3.71"/>
          <path d="M91.2,51l.71,1.23a14,14,0,0,0,4.22-4.22l-1.23-.72A12.58,12.58,0,0,1,91.2,51"/>
          <path d="M96.88,41.18a12.35,12.35,0,0,1-1.35,5.06l1.24.71a13.86,13.86,0,0,0,1.54-5.77Z"/>
          <path d="M71.94,41.18H70.51A13.86,13.86,0,0,0,72.05,47l1.24-.71a12.35,12.35,0,0,1-1.35-5.06"/>
          <path d="M73.29,34.86l-1.24-.72a13.91,13.91,0,0,0-1.54,5.78h1.43a12.31,12.31,0,0,1,1.35-5.06"/>
        </g>
      </g>
    </g>
    <g>
      <path d="M84.23,60.22H82.8V57.09L81.5,58.9h-.11l-1.3-1.81v3.13h-1.4V54.81H80l1.46,2,1.47-2h1.3Z"/>
      <path d="M86.25,60.22H85v-4h1.24Zm-.09-4.89a.65.65,0,0,1-.16.42.48.48,0,0,1-.63.09.55.55,0,0,1-.19-.21.73.73,0,0,1-.07-.3.64.64,0,0,1,.15-.42.48.48,0,0,1,.37-.17.46.46,0,0,1,.37.17A.65.65,0,0,1,86.16,55.33Z"/>
      <path d="M90.72,60.22H89.2l-.68-1.12-.67,1.12H86.49l1.36-1.95-1.39-2H88l.64,1.08.66-1.08h1.35l-1.32,1.88Z"/>
    </g>
    <g id="pips_-_fewest-7" data-name="pips - fewest">
      <g style="clip-path: url(#clip-path-13)">
        <g style="clip-path: url(#clip-path-13)">
          <path d="M38.57,72.57l.71-1.24a13.86,13.86,0,0,0-5.77-1.54v1.43a12.35,12.35,0,0,1,5.06,1.35"/>
          <path d="M43.37,76.9l1.23-.71A14,14,0,0,0,40.37,72l-.71,1.23a12.7,12.7,0,0,1,3.71,3.7"/>
          <path d="M26.09,73.2,25.38,72a14,14,0,0,0-4.23,4.22l1.24.71a12.55,12.55,0,0,1,3.7-3.7"/>
          <path d="M45.35,83.06h1.43a13.68,13.68,0,0,0-1.55-5.77L44,78a12.47,12.47,0,0,1,1.35,5.06"/>
          <path d="M32.24,71.22V69.79a13.86,13.86,0,0,0-5.77,1.54l.72,1.24a12.31,12.31,0,0,1,5.05-1.35"/>
          <path d="M22.39,90.48l-1.24.71a14,14,0,0,0,4.23,4.22l.71-1.23a12.55,12.55,0,0,1-3.7-3.7"/>
          <path d="M39.66,94.18l.71,1.23a14,14,0,0,0,4.23-4.22l-1.23-.71a12.7,12.7,0,0,1-3.71,3.7"/>
          <path d="M45.35,84.32A12.47,12.47,0,0,1,44,89.38l1.23.71a13.68,13.68,0,0,0,1.55-5.77Z"/>
          <path d="M20.4,84.32H19a13.83,13.83,0,0,0,1.55,5.77l1.23-.71a12.47,12.47,0,0,1-1.35-5.06"/>
          <path d="M21.75,78l-1.23-.71A14,14,0,0,0,19,83.06H20.4A12.47,12.47,0,0,1,21.75,78"/>
        </g>
      </g>
    </g>
    <g>
      <path d="M25.43,103.37H24V98h1.44Z"/>
      <path d="M29.88,103.37H28.65v-2.15a1.42,1.42,0,0,0-.1-.57.4.4,0,0,0-.41-.25.6.6,0,0,0-.27.07.79.79,0,0,0-.2.17.9.9,0,0,0-.16.19l-.12.2v2.34H26.15v-4h1.24V100a1.85,1.85,0,0,1,.58-.5,1.59,1.59,0,0,1,.66-.14c.84,0,1.25.57,1.25,1.71Z"/>
      <path d="M34.05,103.37H32.81V103a2.53,2.53,0,0,1-.42.31,1.22,1.22,0,0,1-.6.12,1.54,1.54,0,0,1-.75-.22,1.52,1.52,0,0,1-.6-.67,2.42,2.42,0,0,1-.24-1.15,2.79,2.79,0,0,1,.18-1,1.63,1.63,0,0,1,.56-.77,1.44,1.44,0,0,1,.93-.3,1.71,1.71,0,0,1,.56.08,2,2,0,0,1,.38.22V98h1.24Zm-1.24-1.27v-1.52a2.69,2.69,0,0,0-.34-.19.65.65,0,0,0-.29-.06.55.55,0,0,0-.48.28,1.32,1.32,0,0,0-.2.76,1.14,1.14,0,0,0,.21.77.59.59,0,0,0,.47.24.74.74,0,0,0,.36-.08A1.56,1.56,0,0,0,32.81,102.1Z"/>
      <path d="M38.14,101.72H35.67a1,1,0,0,0,.36.59,1,1,0,0,0,.64.23,3,3,0,0,0,1.38-.4V103a3.41,3.41,0,0,1-.66.3,3.32,3.32,0,0,1-1,.13,2.11,2.11,0,0,1-1.1-.28,1.67,1.67,0,0,1-.68-.74,2.43,2.43,0,0,1-.23-1.06,2.38,2.38,0,0,1,.23-1,1.65,1.65,0,0,1,.68-.73,2.21,2.21,0,0,1,1.1-.26,1.75,1.75,0,0,1,.82.21,1.65,1.65,0,0,1,.65.68,2.61,2.61,0,0,1,.26,1.23ZM37,101a1,1,0,0,0-.17-.61.56.56,0,0,0-.48-.23.63.63,0,0,0-.5.23.93.93,0,0,0-.19.61Z"/>
      <path d="M42.36,103.37H40.84l-.68-1.13-.67,1.13H38.13l1.36-2-1.39-2h1.53l.64,1.08.66-1.08h1.35L41,101.28Z"/>
    </g>
    <g id="pips_-_fewest-8" data-name="pips - fewest">
      <g style="clip-path: url(#clip-path-15)">
        <g style="clip-path: url(#clip-path-15)">
          <path d="M90.1,72.57l.71-1.24A13.82,13.82,0,0,0,85,69.79v1.43a12.31,12.31,0,0,1,5.06,1.35"/>
          <path d="M94.9,76.9l1.23-.71A13.92,13.92,0,0,0,91.91,72L91.2,73.2a12.55,12.55,0,0,1,3.7,3.7"/>
          <path d="M77.62,73.2,76.91,72a13.92,13.92,0,0,0-4.22,4.22l1.23.71a12.55,12.55,0,0,1,3.7-3.7"/>
          <path d="M96.88,83.06h1.43a13.82,13.82,0,0,0-1.54-5.77L95.53,78a12.31,12.31,0,0,1,1.35,5.06"/>
          <path d="M83.78,71.22V69.79A13.82,13.82,0,0,0,78,71.33l.71,1.24a12.31,12.31,0,0,1,5.06-1.35"/>
          <path d="M73.92,90.48l-1.23.71a13.92,13.92,0,0,0,4.22,4.22l.71-1.23a12.55,12.55,0,0,1-3.7-3.7"/>
          <path d="M91.2,94.18l.71,1.23a13.92,13.92,0,0,0,4.22-4.22l-1.23-.71a12.55,12.55,0,0,1-3.7,3.7"/>
          <path d="M96.88,84.32a12.31,12.31,0,0,1-1.35,5.06l1.24.71a13.82,13.82,0,0,0,1.54-5.77Z"/>
          <path d="M71.94,84.32H70.51a13.82,13.82,0,0,0,1.54,5.77l1.24-.71a12.31,12.31,0,0,1-1.35-5.06"/>
          <path d="M73.29,78l-1.24-.71a13.82,13.82,0,0,0-1.54,5.77h1.43A12.31,12.31,0,0,1,73.29,78"/>
        </g>
      </g>
    </g>
    <g>
      <path d="M71.08,103.37H69.64V98h1.44Z"/>
      <path d="M75.53,103.37H74.29v-2.15a1.62,1.62,0,0,0-.09-.57.4.4,0,0,0-.41-.25.57.57,0,0,0-.27.07.68.68,0,0,0-.21.17,1.25,1.25,0,0,0-.15.19L73,101v2.34H71.8v-4H73V100a1.87,1.87,0,0,1,.59-.5,1.55,1.55,0,0,1,.65-.14q1.26,0,1.26,1.71Z"/>
      <path d="M79.7,103.37H78.45V103a2.45,2.45,0,0,1-.41.31,1.28,1.28,0,0,1-.6.12,1.48,1.48,0,0,1-.75-.22,1.6,1.6,0,0,1-.61-.67,2.43,2.43,0,0,1-.23-1.15,3,3,0,0,1,.17-1,1.7,1.7,0,0,1,.56-.77,1.49,1.49,0,0,1,.94-.3,1.75,1.75,0,0,1,.56.08,1.9,1.9,0,0,1,.37.22V98H79.7Zm-1.25-1.27v-1.52a2.14,2.14,0,0,0-.33-.19.68.68,0,0,0-.29-.06.57.57,0,0,0-.49.28,1.32,1.32,0,0,0-.19.76,1.2,1.2,0,0,0,.2.77.63.63,0,0,0,.48.24.74.74,0,0,0,.36-.08A1.21,1.21,0,0,0,78.45,102.1Z"/>
      <path d="M83.79,101.72H81.32a1,1,0,0,0,.36.59,1,1,0,0,0,.63.23,3,3,0,0,0,1.39-.4V103a2.92,2.92,0,0,1-1.65.43,2.14,2.14,0,0,1-1.1-.28,1.73,1.73,0,0,1-.68-.74,2.42,2.42,0,0,1-.22-1.06,2.38,2.38,0,0,1,.22-1,1.71,1.71,0,0,1,.68-.73,2.24,2.24,0,0,1,1.1-.26,1.76,1.76,0,0,1,.83.21,1.65,1.65,0,0,1,.65.68,2.61,2.61,0,0,1,.26,1.23Zm-1.17-.7a1,1,0,0,0-.16-.61.56.56,0,0,0-.48-.23.61.61,0,0,0-.5.23.93.93,0,0,0-.19.61Z"/>
      <path d="M88,103.37H86.48l-.67-1.13-.68,1.13H83.78l1.35-2-1.38-2h1.52l.65,1.08.65-1.08h1.36l-1.32,1.89Z"/>
      <path d="M94.44,103a3,3,0,0,1-.61.28,3.3,3.3,0,0,1-.62.15,4.62,4.62,0,0,1-.65,0,3,3,0,0,1-1.12-.2,2.34,2.34,0,0,1-.85-.58,2.47,2.47,0,0,1-.55-.89,3.33,3.33,0,0,1-.18-1.12,3.28,3.28,0,0,1,.22-1.22,2.35,2.35,0,0,1,.59-.87,2.53,2.53,0,0,1,.88-.52,3.17,3.17,0,0,1,1-.16,4.93,4.93,0,0,1,1.84.41v1.44a4.8,4.8,0,0,0-.7-.42,1.86,1.86,0,0,0-.81-.17,1.73,1.73,0,0,0-.78.19,1.5,1.5,0,0,0-.58.54,1.45,1.45,0,0,0-.22.81,1.49,1.49,0,0,0,.19.75,1.48,1.48,0,0,0,1.31.74,2.27,2.27,0,0,0,.65-.09,4,4,0,0,0,.52-.21,3.59,3.59,0,0,0,.44-.28Z"/>
      <path d="M99.79,98l-2.15,5.49h-1L94.58,98h1.5l1.09,3.13L98.29,98Z"/>
    </g>
    <g>
      <path d="M63.34,8.11l-5.53,7v-6a1.3,1.3,0,0,0-.64-1.18.91.91,0,0,0-1.13.3l-7.28,9.24a1.48,1.48,0,0,0,0,1.79.9.9,0,0,0,1.46,0l5.5-7v6a1.3,1.3,0,0,0,.64,1.18.92.92,0,0,0,1.14-.3l5.53-7v6.15a1.05,1.05,0,1,0,2.06,0V9a1.26,1.26,0,0,0-.65-1.17A.9.9,0,0,0,63.34,8.11Z" style="stroke: #000;stroke-width: 0.6000000000000001px"/>
      <path d="M48.76,8,44,14.17A1.47,1.47,0,0,0,44,16a.91.91,0,0,0,1.46,0l3-3.87v6.3a1.05,1.05,0,1,0,2.06,0V8.92a1.28,1.28,0,0,0-.65-1.17A.9.9,0,0,0,48.76,8Z" style="stroke: #000;stroke-width: 0.6000000000000001px"/>
      <path d="M71.71,12.56a1,1,0,0,0-.95-.77h-2.1l1.53-1.95s.8-1.18.1-1.82-1.58.06-1.58.06l-3.23,4.1a1.44,1.44,0,0,0-.2,1.37,1,1,0,0,0,1,.77h2.1l-2.49,3.17s-1,1.13-.27,1.89,1.75-.13,1.75-.13l4.18-5.32A1.47,1.47,0,0,0,71.71,12.56Z" style="stroke: #000;stroke-width: 0.6000000000000001px"/>
    </g>
  </g>
  <g id="components">
    <circle id="Out" cx="84.55" cy="311.3" r="11.34" style="fill: blue"/>
    <circle id="Shape_CV" data-name="Shape CV" cx="33.02" cy="311.3" r="11.34" style="fill: lime"/>
    <circle id="Index_CV_In" data-name="Index CV In" cx="84.55" cy="263.71" r="11.34" style="fill: lime"/>
    <circle id="Mix_CV" data-name="Mix CV" cx="33.02" cy="263.71" r="11.34" style="fill: lime"/>
    <circle id="V_Oct_S" data-name="V/Oct S" cx="84.55" cy="214.61" r="11.34" style="fill: lime"/>
    <circle id="V_Oct_P" data-name="V/Oct P" cx="33.02" cy="214.61" r="11.34" style="fill: lime"/>
    <circle id="Shape_CV-2" data-name="Shape CV" cx="84.41" cy="169.76" r="8.5" style="fill: red"/>
    <circle id="Shape" cx="32.88" cy="169.76" r="8.5" style="fill: red"/>
    <circle id="Ratio_F" data-name="Ratio F" cx="84.41" cy="126.62" r="8.5" style="fill: red"/>
    <circle id="Ratio_C" data-name="Ratio C" cx="32.88" cy="126.62" r="8.5" style="fill: red"/>
    <circle id="Index_CV" data-name="Index CV" cx="84.41" cy="83.47" r="8.5" style="fill: red"/>
    <circle id="Index" cx="32.88" cy="83.47" r="8.5" style="fill: red"/>
    <circle id="Mix" cx="84.41" cy="40.33" r="8.5" style="fill: red"/>
    <circle id="Pitch" cx="32.88" cy="40.33" r="8.5" style="fill: red"/>
    <text id="slug" transform="translate(84.09 369.44)" style="font-size: 3px;font-family: MyriadPro-Regular, Myriad Pro"><tspan style="letter-spacing: -0.017903645833333332em">F</tspan><tspan x="1.41" y="0">M</tspan></text>
    <text id="modulename" transform="translate(97.41 369.44)" style="font-size: 3px;font-family: MyriadPro-Regular, Myriad Pro"><tspan style="letter-spacing: -0.017903645833333332em">F</tspan><tspan x="1.41" y="0">M Oscill</tspan><tspan x="11.17" y="0" style="letter-spacing: -0.004231770833333333em">at</tspan><tspan x="13.58" y="0" style="letter-spacing: -0.0003255208333333333em">or</tspan></text>
  </g>
</svg>
