<svg xmlns="http://www.w3.org/2000/svg" width="50.89mm" height="130.55mm" viewBox="0 0 144.25 370.06">
  <g id="faceplate">
    <rect x="0.13" y="0.13" width="144" height="364.25" style="fill: #ededed;stroke: #9d9d9e;stroke-miterlimit: 10;stroke-width: 0.25px"/>
    <path d="M126.6,12.87a4.54,4.54,0,0,0,0-9.07h-8.44a4.54,4.54,0,1,0,0,9.07Z"/>
    <path d="M126.6,360.12a4.54,4.54,0,0,0,0-9.07h-8.44a4.54,4.54,0,1,0,0,9.07Z"/>
    <path d="M26.09,12.87a4.54,4.54,0,0,0,0-9.07H17.65a4.54,4.54,0,0,0,0,9.07Z"/>
    <path d="M26.09,360.12a4.54,4.54,0,0,0,0-9.07H17.65a4.54,4.54,0,0,0,0,9.07Z"/>
    <path d="M47.43,191.46a5.84,5.84,0,0,0,0-11.68h-9a5.84,5.84,0,0,0,0,11.68Z"/>
    <path d="M137.4,314.47V282.42c0-9.26-6.55-16-15.38-16s-15.38,6.76-15.38,16v43.91a16.26,16.26,0,0,0,16.29,16.05c8.86,0,14.49-7.18,14.49-16.05V314.19" style="fill: none;stroke: #000"/>
    <path d="M78.35,8.84l-6.13,7.78V10a1.44,1.44,0,0,0-.71-1.3A1,1,0,0,0,70.26,9L62.2,19.22a1.64,1.64,0,0,0,0,2,1,1,0,0,0,1.62,0l6.08-7.74V20.1a1.44,1.44,0,0,0,.72,1.3,1,1,0,0,0,1.25-.33L78,13.29V20.1a1.17,1.17,0,1,0,2.29,0V9.81a1.45,1.45,0,0,0-.72-1.3,1,1,0,0,0-1.25.33" style="fill: #231f20"/>
    <path d="M78.35,8.84l-6.13,7.78V10a1.44,1.44,0,0,0-.71-1.3A1,1,0,0,0,70.26,9L62.2,19.22a1.64,1.64,0,0,0,0,2,1,1,0,0,0,1.62,0l6.08-7.74V20.1a1.44,1.44,0,0,0,.72,1.3,1,1,0,0,0,1.25-.33L78,13.29V20.1a1.17,1.17,0,1,0,2.29,0V9.81a1.45,1.45,0,0,0-.72-1.3A1,1,0,0,0,78.35,8.84Z" style="fill: none;stroke: #231f20;stroke-width: 0.672999978065491px"/>
    <path d="M62.2,8.76l-5.33,6.78a1.65,1.65,0,0,0,0,2,1,1,0,0,0,1.62,0l3.38-4.29v7a1.16,1.16,0,1,0,2.28,0V9.73a1.44,1.44,0,0,0-.71-1.3,1,1,0,0,0-1.26.33" style="fill: #231f20"/>
    <path d="M62.2,8.76l-5.33,6.78a1.65,1.65,0,0,0,0,2,1,1,0,0,0,1.62,0l3.38-4.29v7a1.16,1.16,0,1,0,2.28,0V9.73a1.44,1.44,0,0,0-.71-1.3A1,1,0,0,0,62.2,8.76Z" style="fill: none;stroke: #231f20;stroke-width: 0.672999978065491px"/>
    <path d="M87.61,13.76a1.17,1.17,0,0,0-1-.85H84.23l1.7-2.16s.89-1.3.1-2-1.74.07-1.74.07l-3.58,4.54a1.66,1.66,0,0,0-.23,1.52,1.18,1.18,0,0,0,1.06.85h2.33l-2.76,3.52s-1.14,1.24-.3,2.09,1.94-.15,1.94-.15l4.63-5.89a1.63,1.63,0,0,0,.23-1.52" style="fill: #231f20"/>
    <path d="M87.61,13.76a1.17,1.17,0,0,0-1-.85H84.23l1.7-2.16s.89-1.3.1-2-1.74.07-1.74.07l-3.58,4.54a1.66,1.66,0,0,0-.23,1.52,1.18,1.18,0,0,0,1.06.85h2.33l-2.76,3.52s-1.14,1.24-.3,2.09,1.94-.15,1.94-.15l4.63-5.89A1.63,1.63,0,0,0,87.61,13.76Z" style="fill: none;stroke: #231f20;stroke-width: 0.672999978065491px"/>
    <polygon points="58.49 332.35 56.87 332.35 56.87 328.82 55.41 330.87 55.29 330.87 53.83 328.82 53.83 332.35 52.26 332.35 52.26 326.26 53.72 326.26 55.37 328.55 57.02 326.26 58.49 326.26 58.49 332.35"/>
    <path d="M63.38,332.13c-.2.09-.39.16-.56.22a2.3,2.3,0,0,1-.63.08.63.63,0,0,1-.48-.14.78.78,0,0,1-.19-.33,2.2,2.2,0,0,1-.5.34,1.63,1.63,0,0,1-.72.13,1.22,1.22,0,0,1-.69-.17.88.88,0,0,1-.37-.42,1.4,1.4,0,0,1-.11-.53,1.22,1.22,0,0,1,.18-.69,1.53,1.53,0,0,1,.5-.44,5.73,5.73,0,0,1,.82-.35,4.38,4.38,0,0,1,.44-.16l.22-.09.15-.08a.92.92,0,0,0-.11-.51.57.57,0,0,0-.5-.18A1.66,1.66,0,0,0,60,329a3.33,3.33,0,0,0-.72.59v-1.21a2.77,2.77,0,0,1,1.19-.54,3,3,0,0,1,.67-.07,1.88,1.88,0,0,1,1.29.38,1.31,1.31,0,0,1,.43,1v1.73a1.11,1.11,0,0,0,0,.36.14.14,0,0,0,.15.12.84.84,0,0,0,.35-.12Zm-1.94-.86v-1.06a3.56,3.56,0,0,0-.72.41.63.63,0,0,0-.23.5.45.45,0,0,0,.12.34.34.34,0,0,0,.26.12.55.55,0,0,0,.29-.09,1.79,1.79,0,0,0,.28-.22"/>
    <path d="M65,332.35h-1.4v-4.47H65Zm-.12-5.5a.67.67,0,0,1-.17.47.54.54,0,0,1-.71.1.61.61,0,0,1-.21-.24.73.73,0,0,1-.08-.33.7.7,0,0,1,.17-.47.52.52,0,0,1,.42-.2.51.51,0,0,1,.41.2.65.65,0,0,1,.17.47"/>
    <path d="M69.81,332.35H68.42v-2.41a1.56,1.56,0,0,0-.11-.64.43.43,0,0,0-.46-.28.73.73,0,0,0-.3.07.71.71,0,0,0-.23.19l-.18.22-.14.22v2.63H65.61v-4.47H67v.64a2.05,2.05,0,0,1,.66-.56,1.64,1.64,0,0,1,.74-.16q1.41,0,1.41,1.92Z"/>
    <polygon points="76.67 332.35 72.59 332.35 72.59 326.26 74.21 326.26 74.21 330.89 76.67 330.89 76.67 332.35"/>
    <path d="M81.1,330.5H78.33a1.13,1.13,0,0,0,.39.67,1.15,1.15,0,0,0,.72.25A3.37,3.37,0,0,0,81,331v1a3.65,3.65,0,0,1-.74.32,3.46,3.46,0,0,1-1.11.15,2.31,2.31,0,0,1-1.24-.31,1.9,1.9,0,0,1-.76-.83,2.71,2.71,0,0,1-.25-1.2,2.65,2.65,0,0,1,.25-1.18,1.86,1.86,0,0,1,.76-.81,2.4,2.4,0,0,1,1.24-.3,2.06,2.06,0,0,1,.93.23,1.88,1.88,0,0,1,.73.77,2.94,2.94,0,0,1,.29,1.38Zm-1.31-.78a1.11,1.11,0,0,0-.19-.69.62.62,0,0,0-.54-.26.71.71,0,0,0-.56.26,1.07,1.07,0,0,0-.21.69Z"/>
    <polygon points="85.61 327.88 83.82 332.35 82.8 332.35 81.04 327.88 82.54 327.88 83.36 330.22 84.26 327.88 85.61 327.88"/>
    <path d="M89.8,330.5H87a1.19,1.19,0,0,0,.4.67,1.11,1.11,0,0,0,.72.25A3.31,3.31,0,0,0,89.7,331v1a3.42,3.42,0,0,1-.74.32,3.46,3.46,0,0,1-1.11.15,2.29,2.29,0,0,1-1.23-.31,1.93,1.93,0,0,1-.77-.83,2.71,2.71,0,0,1-.25-1.2,2.65,2.65,0,0,1,.25-1.18,1.88,1.88,0,0,1,.77-.81,2.39,2.39,0,0,1,1.23-.3,2.06,2.06,0,0,1,.93.23,1.9,1.9,0,0,1,.74.77,3,3,0,0,1,.28,1.38Zm-1.3-.78a1.18,1.18,0,0,0-.19-.69.65.65,0,0,0-.54-.26.7.7,0,0,0-.56.26,1,1,0,0,0-.22.69Z"/>
    <rect x="90.24" y="326.26" width="1.4" height="6.09"/>
    <polygon points="119.87 301.51 117.16 301.51 117.16 297.44 118.24 297.44 118.24 300.53 119.87 300.53 119.87 301.51"/>
    <path d="M122.83,300.27H121a.76.76,0,0,0,.75.62,2.24,2.24,0,0,0,1-.3v.65a2.24,2.24,0,0,1-1.23.32,1.57,1.57,0,0,1-.83-.21,1.35,1.35,0,0,1-.51-.55,2.06,2.06,0,0,1,0-1.59,1.33,1.33,0,0,1,.51-.54,1.67,1.67,0,0,1,.83-.2,1.27,1.27,0,0,1,.62.16,1.15,1.15,0,0,1,.49.51,2,2,0,0,1,.19.92Zm-.87-.52a.72.72,0,0,0-.13-.46.42.42,0,0,0-.36-.17.47.47,0,0,0-.37.17.69.69,0,0,0-.15.46Z"/>
    <path d="M124.83,298.2a1.21,1.21,0,0,0-.34-.05.28.28,0,0,0-.24.11.54.54,0,0,0-.08.31v.11h.47v.71h-.47v2.12h-.93v-2.12h-.43v-.71h.43v-.05a1.73,1.73,0,0,1,.11-.6,1.05,1.05,0,0,1,.35-.46,1.12,1.12,0,0,1,.66-.18,1.89,1.89,0,0,1,.47.06Z"/>
    <path d="M126.88,301.33a1.4,1.4,0,0,1-.4.15,1.72,1.72,0,0,1-.48.08c-.67,0-1-.37-1-1.12v-1.18h-.42v-.19l1.25-1.44h.1v.89h.89v.74h-.89v.95a1.87,1.87,0,0,0,0,.27.27.27,0,0,0,.1.17.38.38,0,0,0,.26.07,1.28,1.28,0,0,0,.58-.21Z"/>
    <path d="M119,309.77h-1.15l-.28-.72a3.52,3.52,0,0,0-.28-.58.77.77,0,0,0-.24-.24.87.87,0,0,0-.31-.05h-.12v1.59h-1.08v-4.06h1.84a1.23,1.23,0,0,1,.72.2,1.21,1.21,0,0,1,.41.5,1.34,1.34,0,0,1,.13.56,1.17,1.17,0,0,1-.11.52,1,1,0,0,1-.22.31,2,2,0,0,1-.26.18,1.26,1.26,0,0,1,.29.27,3.62,3.62,0,0,1,.3.64ZM117.53,307a.42.42,0,0,0-.16-.39.93.93,0,0,0-.53-.11h-.23v1h.23a1.06,1.06,0,0,0,.54-.1.42.42,0,0,0,.15-.38"/>
    <path d="M120.1,309.77h-.93v-3h.93ZM120,306.1a.49.49,0,0,1-.11.31.35.35,0,0,1-.28.13.36.36,0,0,1-.2-.06.56.56,0,0,1-.14-.16.54.54,0,0,1-.05-.22.47.47,0,0,1,.12-.32.35.35,0,0,1,.27-.13.39.39,0,0,1,.28.13.52.52,0,0,1,.11.32"/>
    <path d="M123.16,307.42h-.45a.81.81,0,0,1,.24.59.84.84,0,0,1-.07.35.92.92,0,0,1-.2.31,1.1,1.1,0,0,1-.33.21,1.23,1.23,0,0,1-.44.1c-.22,0-.33.08-.33.2a.11.11,0,0,0,0,.1.27.27,0,0,0,.13.05l.3,0a1.91,1.91,0,0,1,.44.08.9.9,0,0,1,.39.24.81.81,0,0,1,.17.54.88.88,0,0,1-.13.49.89.89,0,0,1-.43.34,2.13,2.13,0,0,1-.78.12,1.86,1.86,0,0,1-1-.22.65.65,0,0,1-.29-.79.51.51,0,0,1,.18-.24.73.73,0,0,1,.4-.16.45.45,0,0,1-.16-.15.46.46,0,0,1-.06-.23.61.61,0,0,1,.09-.31.42.42,0,0,1,.31-.19,1,1,0,0,1-.51-.34.93.93,0,0,1-.22-.63,1.36,1.36,0,0,1,.1-.51,1.09,1.09,0,0,1,.28-.36,1.12,1.12,0,0,1,.41-.2,2,2,0,0,1,.5-.07h1.44Zm-.84,2.9a.24.24,0,0,0-.18-.25,1.21,1.21,0,0,0-.38-.06,1.07,1.07,0,0,0-.47.08.27.27,0,0,0-.14.25c0,.22.2.33.59.33a1,1,0,0,0,.43-.08.29.29,0,0,0,.15-.27m-.18-2.4a.49.49,0,0,0-.14-.36.43.43,0,0,0-.64,0,.56.56,0,0,0-.07.58.65.65,0,0,0,.15.18.46.46,0,0,0,.23.06.46.46,0,0,0,.34-.14.54.54,0,0,0,.13-.35"/>
    <path d="M126.09,309.77h-.93v-1.65a.83.83,0,0,0-.08-.39.29.29,0,0,0-.3-.18.42.42,0,0,0-.31.13,2,2,0,0,0-.26.34v1.75h-.92v-4.06h.92v1.5a1.51,1.51,0,0,1,.46-.38,1.29,1.29,0,0,1,.48-.1c.62,0,.94.4.94,1.21Z"/>
    <path d="M128.51,309.59a1.74,1.74,0,0,1-.4.16,1.71,1.71,0,0,1-.49.07c-.67,0-1-.37-1-1.11v-1.19h-.42v-.19l1.24-1.44h.11v.89h.89v.74h-.89v1a1.06,1.06,0,0,0,0,.27.23.23,0,0,0,.1.17.36.36,0,0,0,.25.07,1.31,1.31,0,0,0,.59-.21Z"/>
    <polygon points="78.95 261.25 78.95 256.58 80.01 256.58 80.01 260.22 81.84 260.22 81.84 261.25 78.95 261.25"/>
    <path d="M82.3,256.44h1.08v.91H82.3Zm0,1.31h1.06v3.5H82.31Z"/>
    <path d="M84.22,261.25v-3.12a3,3,0,0,1,1.52-.42,1.4,1.4,0,0,1,1,.39,1.52,1.52,0,0,1,.38,1.09v2.06H86.1V259a.72.72,0,0,0,0-.17.29.29,0,0,0-.15-.14.66.66,0,0,0-.35-.07,1.06,1.06,0,0,0-.31,0v2.59Z"/>
    <path d="M87.81,259.53a2.28,2.28,0,0,1,.35-1.33,1.17,1.17,0,0,1,1.06-.5,1.21,1.21,0,0,1,1,.49,2.06,2.06,0,0,1,.35,1.21c0,.14,0,.26,0,.38H88.87a.51.51,0,0,0,.21.41.68.68,0,0,0,.45.17,1.63,1.63,0,0,0,1-.28v.85a2,2,0,0,1-1.21.36,2.38,2.38,0,0,1-.39,0,1.53,1.53,0,0,1-.39-.16,1,1,0,0,1-.35-.31,1.51,1.51,0,0,1-.25-.51,2.72,2.72,0,0,1-.1-.75m1.09-.48h.69a1,1,0,0,0-.11-.39c-.06-.13-.14-.2-.24-.2a.27.27,0,0,0-.24.18.92.92,0,0,0-.1.41"/>
    <polygon points="44.38 261.25 44.38 256.58 45.42 256.58 46.39 258.17 47.36 256.58 48.4 256.58 48.4 261.25 47.34 261.25 47.34 258.35 46.39 259.9 45.44 258.35 45.44 261.25 44.38 261.25"/>
    <path d="M49.36,260.83a2.46,2.46,0,0,1,0-2.66,1.52,1.52,0,0,1,2.18,0,2.46,2.46,0,0,1,0,2.66,1.52,1.52,0,0,1-2.18,0m1.09-2.25c-.28,0-.42.31-.42.92s.14.93.42.93.42-.31.42-.93-.14-.92-.42-.92"/>
    <path d="M52.32,259.48a2,2,0,0,1,.37-1.31,1.22,1.22,0,0,1,1-.46h.4v-1.29h1.06v3.63a2,2,0,0,1,0,.45,1.4,1.4,0,0,1-.19.39.82.82,0,0,1-.41.3,2,2,0,0,1-.69.1c-1,0-1.52-.61-1.52-1.82m1.06,0a2.4,2.4,0,0,0,.1.77c.06.21.17.31.31.31a.36.36,0,0,0,.25-.08.25.25,0,0,0,.08-.17v-1.78l-.2,0a.43.43,0,0,0-.4.26,1.54,1.54,0,0,0-.14.71"/>
    <rect x="56.15" y="260.26" width="0.89" height="0.98"/>
    <path d="M7.47,266.23a16.09,16.09,0,1,0,16.08-16.09A16.08,16.08,0,0,0,7.47,266.23"/>
    <path d="M71.69,283.68a19.76,19.76,0,0,0-2.45.17l-.39-2.21a21.32,21.32,0,0,1,5.68,0l-.39,2.21a19.76,19.76,0,0,0-2.45-.17"/>
    <path d="M57.2,290.05l-1.73-1.45A22,22,0,0,1,59.81,285l1.12,1.94a19.77,19.77,0,0,0-3.73,3.16"/>
    <path d="M62.66,285.88l-1.12-1.94a22.31,22.31,0,0,1,5.34-2l.39,2.22a19.68,19.68,0,0,0-4.61,1.68"/>
    <path d="M53.46,295.82l-2.1-.76a22,22,0,0,1,2.83-4.92l1.73,1.45a19.81,19.81,0,0,0-2.46,4.23"/>
    <path d="M76.11,284.2,76.5,282a22.31,22.31,0,0,1,5.34,2l-1.12,1.94a19.85,19.85,0,0,0-4.61-1.68"/>
    <path d="M52,302.52H49.72a22,22,0,0,1,1-5.59l2.1.77a20.17,20.17,0,0,0-.81,4.82"/>
    <path d="M52.84,309.31l-2.1.77a21.73,21.73,0,0,1-1-5.56H52a19.29,19.29,0,0,0,.88,4.79"/>
    <path d="M56,315.4l-1.72,1.43A22.16,22.16,0,0,1,51.42,312l2.11-.77A19.7,19.7,0,0,0,56,315.4"/>
    <path d="M87.46,291.59l1.73-1.45A22.16,22.16,0,0,1,92,295.05l-2.1.77a19.81,19.81,0,0,0-2.46-4.23"/>
    <path d="M90.6,297.7l2.1-.77a21.53,21.53,0,0,1,1,5.58H91.41a20.08,20.08,0,0,0-.81-4.81"/>
    <path d="M91.42,304.51h2.23a21.73,21.73,0,0,1-1,5.57l-2.1-.77a19.28,19.28,0,0,0,.88-4.8"/>
    <path d="M89.85,311.19,92,312a21.77,21.77,0,0,1-2.84,4.87l-1.71-1.44a19.76,19.76,0,0,0,2.44-4.2"/>
    <path d="M61,320,59.88,322a21.8,21.8,0,0,1-4.32-3.61l1.71-1.44A19.68,19.68,0,0,0,61,320"/>
    <path d="M86.11,316.92l1.71,1.43A21.57,21.57,0,0,1,83.5,322L82.39,320a20,20,0,0,0,3.72-3.12"/>
    <path d="M82.45,286.89l1.12-1.95a22.4,22.4,0,0,1,4.34,3.66l-1.73,1.45a19.77,19.77,0,0,0-3.73-3.16"/>
    <path d="M38.9,323.33l-.24-46.69h-.14c-2.86,5.67-8.54,8.75-15.09,8.75s-12.25-3.1-15.11-8.8H8.21l.24,46.74a15,15,0,0,0,15.22,15.26A15,15,0,0,0,38.9,323.33"/>
    <path d="M18.05,299.76h-1v-3.14c.1-3,2.84-5.3,6.23-5.3s6.06,2.28,6.21,5.2a2.09,2.09,0,0,1,0,.25v2.79h-1v-2.79a1.34,1.34,0,0,0,0-.2c-.12-2.39-2.41-4.25-5.21-4.25s-5.15,1.94-5.23,4.32Z" style="fill: #fff"/>
    <path d="M17.77,302.31h1.62a.72.72,0,0,0,.72-.72V298a.72.72,0,0,0-.72-.72H17.77a.72.72,0,0,0-.72.72v3.58a.72.72,0,0,0,.72.72" style="fill: #fff"/>
    <path d="M27.16,302.31h1.62a.73.73,0,0,0,.73-.72V298a.73.73,0,0,0-.73-.72H27.16a.72.72,0,0,0-.72.72v3.58a.72.72,0,0,0,.72.72" style="fill: #fff"/>
    <path d="M30.05,298.6c-.07,0-.12,0-.12.08v2.17c0,.08.05.11.12.08l.55-.28a.27.27,0,0,0,.13-.21V299.1a.27.27,0,0,0-.13-.21Z" style="fill: #fff"/>
    <path d="M16.46,298.6c.07,0,.13,0,.13.08v2.17c0,.08-.06.12-.14.08l-.52-.23a.25.25,0,0,1-.13-.2v-1.39a.27.27,0,0,1,.13-.21Z" style="fill: #fff"/>
    <g>
      <path d="M44.16,354.72H39.47v-7.44h1.86v5.66h2.83Z"/>
      <path d="M47.12,354.72H45.25v-7.44h1.87Z"/>
      <path d="M53,352.56a2.36,2.36,0,0,1-.3,1.21,2,2,0,0,1-.83.78,2.63,2.63,0,0,1-1.21.27l-.47,0a4.18,4.18,0,0,1-.74-.16,5.46,5.46,0,0,1-1-.4V352.4a5.83,5.83,0,0,0,.92.58,2,2,0,0,0,1,.23c.31,0,.52-.06.61-.19a.55.55,0,0,0,.14-.36.63.63,0,0,0-.24-.5,3.18,3.18,0,0,0-.7-.43,5.43,5.43,0,0,1-.89-.56,2.61,2.61,0,0,1-.63-.76,2.29,2.29,0,0,1-.24-1.08,2.33,2.33,0,0,1,.25-1.09,1.79,1.79,0,0,1,.75-.77,2.33,2.33,0,0,1,1.23-.29,3.58,3.58,0,0,1,1,.12,3.53,3.53,0,0,1,.73.27,3.65,3.65,0,0,1,.39.23v1.75a4.91,4.91,0,0,0-.85-.59,2,2,0,0,0-1-.25.69.69,0,0,0-.51.16.57.57,0,0,0-.15.4.55.55,0,0,0,.15.38,3.56,3.56,0,0,0,.56.39,10.68,10.68,0,0,1,1.14.72,2.49,2.49,0,0,1,.67.75A2,2,0,0,1,53,352.56Z"/>
      <path d="M60.19,349.09H57.92v5.63H56.06v-5.63H53.8v-1.81h6.39Z"/>
      <path d="M65.93,354.72H61.28v-7.44h4.58v1.49H63.14v1.37h2.59v1.49H63.14v1.59h2.79Z"/>
      <path d="M73.89,354.72H72.23L69,350.58v4.14H67.18v-7.44h1.66L72,351.4v-4.12h1.86Z"/>
      <path d="M82.58,351.71H80v3H78.15v-7.44h4.43v1.49H80v1.44h2.56Z"/>
      <path d="M90.44,351a4.64,4.64,0,0,1-.39,1.92,3.23,3.23,0,0,1-1.19,1.39,3.4,3.4,0,0,1-1.92.52,3.33,3.33,0,0,1-1.94-.54,3.23,3.23,0,0,1-1.18-1.41,4.55,4.55,0,0,1-.39-1.88,4.66,4.66,0,0,1,.38-1.87A3.3,3.3,0,0,1,85,347.71a3.39,3.39,0,0,1,2-.53,3.68,3.68,0,0,1,1.52.3,3.12,3.12,0,0,1,1.11.83,3.86,3.86,0,0,1,.65,1.22A4.69,4.69,0,0,1,90.44,351Zm-1.89,0a2.63,2.63,0,0,0-.11-.76,1.71,1.71,0,0,0-.31-.6,1.39,1.39,0,0,0-.5-.4,1.67,1.67,0,0,0-.69-.14,1.43,1.43,0,0,0-1.18.52,2.45,2.45,0,0,0,0,2.77,1.6,1.6,0,0,0,2,.28,1.58,1.58,0,0,0,.55-.67A2.58,2.58,0,0,0,88.55,351Z"/>
      <path d="M98,351.39a4,4,0,0,1-.3,1.63,2.69,2.69,0,0,1-.78,1.06,3.37,3.37,0,0,1-1,.57,4,4,0,0,1-1.13.17,3.84,3.84,0,0,1-1.52-.32A2.85,2.85,0,0,1,92,353.4a3.67,3.67,0,0,1-.5-2v-4.11h1.86v3.53a3.47,3.47,0,0,0,.18,1.21,1.48,1.48,0,0,0,.49.71,1.34,1.34,0,0,0,1.47,0A1.45,1.45,0,0,0,96,352a3.47,3.47,0,0,0,.18-1.21v-3.54H98Z"/>
      <path d="M105.49,354.72h-2L103,353.4a6.22,6.22,0,0,0-.48-1.06,1.22,1.22,0,0,0-.42-.43,1.31,1.31,0,0,0-.52-.09h-.21v2.9H99.5v-7.44h3.17a2,2,0,0,1,1.26.37,2.25,2.25,0,0,1,.71.92,2.82,2.82,0,0,1,.21,1,2.27,2.27,0,0,1-.18,1,1.81,1.81,0,0,1-.38.57,3.31,3.31,0,0,1-.45.34,1.9,1.9,0,0,1,.49.49,6.27,6.27,0,0,1,.53,1.17ZM103,349.63a.83.83,0,0,0-.28-.72,1.63,1.63,0,0,0-.91-.2h-.39v1.79h.4a1.71,1.71,0,0,0,.93-.18A.79.79,0,0,0,103,349.63Z"/>
    </g>
    <path d="M38.8,174.89h-3v-4.74H37v3.6h1.8Z" style="fill: #231f20"/>
    <path d="M51.4,174.89H50.13l-.31-.85a3.62,3.62,0,0,0-.31-.67.75.75,0,0,0-.26-.27.83.83,0,0,0-.34-.06h-.13v1.85H47.59v-4.74h2a1.27,1.27,0,0,1,.8.24,1.33,1.33,0,0,1,.45.58,1.77,1.77,0,0,1,.14.65,1.34,1.34,0,0,1-.12.6.87.87,0,0,1-.24.36,1.69,1.69,0,0,1-.29.22,1.08,1.08,0,0,1,.32.32,4,4,0,0,1,.33.74Zm-1.61-3.25a.51.51,0,0,0-.18-.45,1,1,0,0,0-.58-.13h-.25v1.14H49a1,1,0,0,0,.59-.12C49.74,172,49.79,171.86,49.79,171.64Z" style="fill: #231f20"/>
    <path d="M38.8,232.49h-3v-4.74H37v3.6h1.8Z" style="fill: #231f20"/>
    <path d="M51.4,232.49H50.13l-.31-.84a3.78,3.78,0,0,0-.31-.68.75.75,0,0,0-.26-.27.83.83,0,0,0-.34-.06h-.13v1.85H47.59v-4.74h2a1.27,1.27,0,0,1,.8.24,1.33,1.33,0,0,1,.45.58,1.81,1.81,0,0,1,.14.65,1.41,1.41,0,0,1-.12.61,1,1,0,0,1-.24.36,2.43,2.43,0,0,1-.29.21,1.22,1.22,0,0,1,.32.32,4.41,4.41,0,0,1,.33.74Zm-1.61-3.24a.53.53,0,0,0-.18-.46,1,1,0,0,0-.58-.13h-.25v1.14H49a1.15,1.15,0,0,0,.59-.11A.51.51,0,0,0,49.79,229.25Z" style="fill: #231f20"/>
    <g>
      <path d="M103.3,84H99.46V77.88H101v4.63h2.32Z"/>
      <path d="M107.78,82.12h-2.62a1.16,1.16,0,0,0,.38.66,1,1,0,0,0,.68.26,3.11,3.11,0,0,0,1.46-.44v1a3.72,3.72,0,0,1-.69.32,3.15,3.15,0,0,1-1,.15,2.11,2.11,0,0,1-1.17-.31,1.88,1.88,0,0,1-.72-.83,2.86,2.86,0,0,1-.24-1.2,2.8,2.8,0,0,1,.24-1.18,1.85,1.85,0,0,1,.72-.82,2.28,2.28,0,0,1,1.17-.29,1.83,1.83,0,0,1,.87.23,1.76,1.76,0,0,1,.7.77,3.08,3.08,0,0,1,.27,1.38Zm-1.23-.79a1.16,1.16,0,0,0-.18-.68.57.57,0,0,0-.51-.26.65.65,0,0,0-.53.26,1.12,1.12,0,0,0-.2.68Z"/>
      <path d="M112.34,79.5,110.65,84h-1L108,79.5h1.41l.77,2.34.85-2.34Z"/>
      <path d="M116.48,82.12h-2.61a1.1,1.1,0,0,0,.37.66,1,1,0,0,0,.68.26,3.17,3.17,0,0,0,1.47-.44v1a3.83,3.83,0,0,1-.7.32,3.07,3.07,0,0,1-1,.15,2.07,2.07,0,0,1-1.16-.31,1.88,1.88,0,0,1-.72-.83,2.86,2.86,0,0,1-.24-1.2,2.8,2.8,0,0,1,.24-1.18,1.85,1.85,0,0,1,.72-.82,2.24,2.24,0,0,1,1.16-.29,1.83,1.83,0,0,1,.88.23,1.8,1.8,0,0,1,.69.77,3.08,3.08,0,0,1,.27,1.38Zm-1.23-.79a1.16,1.16,0,0,0-.18-.68.55.55,0,0,0-.51-.26.67.67,0,0,0-.53.26,1.12,1.12,0,0,0-.2.68Z"/>
      <path d="M118.51,84h-1.32V77.88h1.32Z"/>
      <path d="M124.12,84h-1.38V77.88h1.38Z"/>
    </g>
    <g>
      <path d="M103.3,141.59H99.46V135.5H101v4.63h2.32Z"/>
      <path d="M107.78,139.73h-2.62a1.16,1.16,0,0,0,.38.67,1,1,0,0,0,.68.26,3,3,0,0,0,1.46-.45v1a3.71,3.71,0,0,1-.69.33,3.15,3.15,0,0,1-1,.15,2.11,2.11,0,0,1-1.17-.31,1.88,1.88,0,0,1-.72-.83,2.89,2.89,0,0,1-.24-1.2,2.8,2.8,0,0,1,.24-1.18,1.85,1.85,0,0,1,.72-.82,2.28,2.28,0,0,1,1.17-.29,1.83,1.83,0,0,1,.87.23,1.71,1.71,0,0,1,.7.77,3.08,3.08,0,0,1,.27,1.38Zm-1.23-.78a1.22,1.22,0,0,0-.18-.69.58.58,0,0,0-.51-.25.63.63,0,0,0-.53.26,1.1,1.1,0,0,0-.2.68Z"/>
      <path d="M112.34,137.12l-1.69,4.47h-1L108,137.12h1.41l.77,2.34.85-2.34Z"/>
      <path d="M116.48,139.73h-2.61a1.09,1.09,0,0,0,.37.67,1,1,0,0,0,.68.26,3.08,3.08,0,0,0,1.47-.45v1a3.82,3.82,0,0,1-.7.33,3.07,3.07,0,0,1-1,.15,2.07,2.07,0,0,1-1.16-.31,1.88,1.88,0,0,1-.72-.83,2.89,2.89,0,0,1-.24-1.2,2.8,2.8,0,0,1,.24-1.18,1.85,1.85,0,0,1,.72-.82,2.24,2.24,0,0,1,1.16-.29,1.83,1.83,0,0,1,.88.23,1.75,1.75,0,0,1,.69.77,3.08,3.08,0,0,1,.27,1.38Zm-1.23-.78a1.22,1.22,0,0,0-.18-.69.56.56,0,0,0-.51-.25.64.64,0,0,0-.53.26,1.1,1.1,0,0,0-.2.68Z"/>
      <path d="M118.51,141.59h-1.32V135.5h1.32Z"/>
      <path d="M125.36,141.59h-3.84v-.12c.15-.17.31-.38.49-.62s.41-.56.68-.95l.37-.53a5.32,5.32,0,0,0,.29-.5,3.16,3.16,0,0,0,.2-.54,2.08,2.08,0,0,0,.09-.6,1.09,1.09,0,0,0-.21-.69.62.62,0,0,0-.51-.26,1.68,1.68,0,0,0-1.24.77v-1.43l.36-.27a3,3,0,0,1,.32-.2,1.94,1.94,0,0,1,.43-.16,1.78,1.78,0,0,1,.53-.08,1.67,1.67,0,0,1,.85.23,1.52,1.52,0,0,1,.59.66,2.08,2.08,0,0,1,.22,1,2.57,2.57,0,0,1-.1.75,4,4,0,0,1-.2.57l-.29.53a9.65,9.65,0,0,1-.67,1.07h1.64Z"/>
    </g>
    <g>
      <path d="M103.3,199.4H99.46v-6.1H101v4.64h2.32Z"/>
      <path d="M107.78,197.54h-2.62a1.19,1.19,0,0,0,.38.67,1,1,0,0,0,.68.26,3,3,0,0,0,1.46-.45v1a3.71,3.71,0,0,1-.69.33,3.18,3.18,0,0,1-1,.14,2.19,2.19,0,0,1-1.17-.3,2,2,0,0,1-.72-.84,2.84,2.84,0,0,1-.24-1.19,2.76,2.76,0,0,1,.24-1.18,1.85,1.85,0,0,1,.72-.82,2.19,2.19,0,0,1,1.17-.3,1.73,1.73,0,0,1,.87.24,1.66,1.66,0,0,1,.7.77,3,3,0,0,1,.27,1.37Zm-1.23-.78a1.18,1.18,0,0,0-.18-.69.59.59,0,0,0-.51-.26.65.65,0,0,0-.53.26,1.15,1.15,0,0,0-.2.69Z"/>
      <path d="M112.34,194.92l-1.69,4.48h-1L108,194.92h1.41l.77,2.34.85-2.34Z"/>
      <path d="M116.48,197.54h-2.61a1.12,1.12,0,0,0,.37.67,1,1,0,0,0,.68.26,3.08,3.08,0,0,0,1.47-.45v1a3.82,3.82,0,0,1-.7.33,3.1,3.1,0,0,1-1,.14,2.15,2.15,0,0,1-1.16-.3,2,2,0,0,1-.72-.84,2.84,2.84,0,0,1-.24-1.19,2.76,2.76,0,0,1,.24-1.18,1.85,1.85,0,0,1,.72-.82,2.15,2.15,0,0,1,1.16-.3,1.74,1.74,0,0,1,.88.24,1.69,1.69,0,0,1,.69.77,3,3,0,0,1,.27,1.37Zm-1.23-.78a1.18,1.18,0,0,0-.18-.69.57.57,0,0,0-.51-.26.67.67,0,0,0-.53.26,1.15,1.15,0,0,0-.2.69Z"/>
      <path d="M118.51,199.4h-1.32v-6.1h1.32Z"/>
      <path d="M125.05,197.7a1.85,1.85,0,0,1-.16.82,1.45,1.45,0,0,1-.41.55,1.79,1.79,0,0,1-.55.31,1.87,1.87,0,0,1-.56.09,3,3,0,0,1-.84-.13,2.82,2.82,0,0,1-.78-.31v-1.36a2.82,2.82,0,0,0,.55.43,1.25,1.25,0,0,0,.61.17.65.65,0,0,0,.4-.11.6.6,0,0,0,.24-.26.69.69,0,0,0,.09-.34.78.78,0,0,0-.11-.41.68.68,0,0,0-.29-.29.94.94,0,0,0-.45-.11h-.16v-1h.19a.7.7,0,0,0,.42-.12.71.71,0,0,0,.24-.28.76.76,0,0,0-.1-.8.6.6,0,0,0-.46-.22,1.35,1.35,0,0,0-.53.12,2,2,0,0,0-.5.31v-1.17a4.68,4.68,0,0,1,.67-.29,2.59,2.59,0,0,1,.71-.1,1.64,1.64,0,0,1,1.52.92,1.63,1.63,0,0,1,.08,1.26,2.19,2.19,0,0,1-.26.48,1.71,1.71,0,0,1-.33.33,1.91,1.91,0,0,1,.53.53A1.66,1.66,0,0,1,125.05,197.7Z"/>
    </g>
    <g>
      <path d="M57.17,69.19a2.5,2.5,0,0,1-.09.66,1.94,1.94,0,0,1-.32.6,1.4,1.4,0,0,1-.58.45,1.91,1.91,0,0,1-.86.17h-1v2.29H52.79V67.27h2.53a1.91,1.91,0,0,1,.86.18,1.4,1.4,0,0,1,.58.45,1.88,1.88,0,0,1,.32.61A2.59,2.59,0,0,1,57.17,69.19Zm-1.55,0a.68.68,0,0,0-.22-.59,1.28,1.28,0,0,0-.76-.16h-.32v1.47h.33a2.14,2.14,0,0,0,.58-.06.49.49,0,0,0,.3-.21A.89.89,0,0,0,55.62,69.19Z"/>
      <path d="M61.44,73.14c-.19.09-.37.16-.53.22a2.05,2.05,0,0,1-.59.08.59.59,0,0,1-.45-.14.75.75,0,0,1-.19-.34,1.57,1.57,0,0,1-.47.34,1.46,1.46,0,0,1-.68.14,1.16,1.16,0,0,1-.65-.17.91.91,0,0,1-.35-.43,1.35,1.35,0,0,1-.1-.53,1.29,1.29,0,0,1,.17-.68,1.33,1.33,0,0,1,.47-.44,5.18,5.18,0,0,1,.77-.36l.41-.16.21-.08.15-.08A1,1,0,0,0,59.5,70a.51.51,0,0,0-.47-.19,1.49,1.49,0,0,0-.8.23,2.88,2.88,0,0,0-.68.59V69.42a2.56,2.56,0,0,1,.53-.35,3,3,0,0,1,.6-.2,3.18,3.18,0,0,1,.62-.06,1.75,1.75,0,0,1,1.22.37,1.35,1.35,0,0,1,.4,1V72a1.49,1.49,0,0,0,0,.36c0,.08.07.12.14.12a.77.77,0,0,0,.34-.12Zm-1.83-.86V71.22a3.32,3.32,0,0,0-.68.41.61.61,0,0,0-.22.5.51.51,0,0,0,.11.34.33.33,0,0,0,.25.12.48.48,0,0,0,.27-.09A2.61,2.61,0,0,0,59.61,72.28Z"/>
      <path d="M65.92,73.36H64.61V71a2.11,2.11,0,0,0-.1-.65.43.43,0,0,0-.44-.27.57.57,0,0,0-.29.07,1,1,0,0,0-.22.19c-.06.07-.11.15-.16.22s-.09.14-.13.22v2.63H62V68.89h1.32v.64a1.76,1.76,0,0,1,.62-.56,1.46,1.46,0,0,1,.69-.16c.89,0,1.34.64,1.34,1.92Z"/>
      <path d="M71.41,73.36H70V67.27h1.38Z"/>
    </g>
    <path d="M44.76,186.65a1.88,1.88,0,0,1-.16.82,1.45,1.45,0,0,1-.41.55,1.68,1.68,0,0,1-.55.31,1.87,1.87,0,0,1-.56.09,3,3,0,0,1-.84-.13,3.17,3.17,0,0,1-.78-.31v-1.36A2.68,2.68,0,0,0,42,187a1.16,1.16,0,0,0,.61.18.72.72,0,0,0,.4-.11.66.66,0,0,0,.24-.26.69.69,0,0,0,.09-.34.82.82,0,0,0-.11-.42.66.66,0,0,0-.29-.28.84.84,0,0,0-.45-.11h-.16v-1h.19a.7.7,0,0,0,.42-.12.71.71,0,0,0,.24-.28.76.76,0,0,0-.1-.8.55.55,0,0,0-.46-.22,1.27,1.27,0,0,0-.52.12,1.85,1.85,0,0,0-.51.3v-1.16a4.68,4.68,0,0,1,.67-.29,2.26,2.26,0,0,1,.71-.1,1.65,1.65,0,0,1,1.69,1.63,1.7,1.7,0,0,1-.09.54,2.06,2.06,0,0,1-.26.49,1.71,1.71,0,0,1-.33.33,1.94,1.94,0,0,1,.54.53A1.75,1.75,0,0,1,44.76,186.65Z" style="fill: #fff"/>
    <path d="M47.43,249.06a5.84,5.84,0,1,0,0-11.68h-9a5.84,5.84,0,0,0,0,11.68Z"/>
    <path d="M45.09,244.63H44.5V246H43.15v-1.32h-2v-1.16l2.31-3.62H44.5v3.73h.59Zm-1.94-1v-2l-1.25,2Z" style="fill: #fff"/>
    <path d="M27.63,76.26a5.84,5.84,0,0,0,0-11.68h-9a5.84,5.84,0,0,0,0,11.68Z"/>
    <path d="M24,73.14H22.65V67.05H24Z" style="fill: #fff"/>
    <path d="M27.63,133.86a5.84,5.84,0,0,0,0-11.68h-9a5.84,5.84,0,0,0,0,11.68Z"/>
    <path d="M25.27,130.75H21.43v-.12c.15-.18.31-.38.49-.62s.41-.56.69-1c.13-.18.25-.35.36-.52a5.43,5.43,0,0,0,.29-.51,2.63,2.63,0,0,0,.2-.54,2,2,0,0,0,.09-.6,1.1,1.1,0,0,0-.2-.68.65.65,0,0,0-.52-.26,1.66,1.66,0,0,0-1.23.77v-1.44L22,125a2,2,0,0,1,.32-.2,1.93,1.93,0,0,1,.43-.17,1.79,1.79,0,0,1,.53-.07,1.67,1.67,0,0,1,.85.23,1.55,1.55,0,0,1,.59.65,2.14,2.14,0,0,1,.22,1,2.68,2.68,0,0,1-.1.76,3,3,0,0,1-.2.56c-.07.15-.17.33-.28.54-.21.37-.44.73-.67,1.07h1.63Z" style="fill: #fff"/>
    <g>
      <path d="M103.3,257H99.46v-6.09H101v4.63h2.31Z"/>
      <path d="M107.78,255.1h-2.61a1.15,1.15,0,0,0,.37.67,1,1,0,0,0,.68.25,3.17,3.17,0,0,0,1.47-.44v1a3.26,3.26,0,0,1-.7.32,3.07,3.07,0,0,1-1,.15,2.07,2.07,0,0,1-1.16-.31,1.88,1.88,0,0,1-.72-.83,2.86,2.86,0,0,1-.24-1.2,2.8,2.8,0,0,1,.24-1.18,1.83,1.83,0,0,1,.72-.81,2.15,2.15,0,0,1,1.16-.3,1.83,1.83,0,0,1,.88.23,1.8,1.8,0,0,1,.69.77,3.08,3.08,0,0,1,.27,1.38Zm-1.23-.78a1.18,1.18,0,0,0-.18-.69.57.57,0,0,0-.51-.26.67.67,0,0,0-.53.26,1.13,1.13,0,0,0-.2.69Z"/>
      <path d="M112.34,252.48,110.65,257h-1L108,252.48h1.41l.77,2.34.86-2.34Z"/>
      <path d="M116.49,255.1h-2.62a1.16,1.16,0,0,0,.38.67,1,1,0,0,0,.68.25,3.11,3.11,0,0,0,1.46-.44v1a3.2,3.2,0,0,1-1.74.47,2.08,2.08,0,0,1-1.17-.31,1.88,1.88,0,0,1-.72-.83,2.86,2.86,0,0,1-.24-1.2,2.8,2.8,0,0,1,.24-1.18,1.83,1.83,0,0,1,.72-.81,2.17,2.17,0,0,1,1.17-.3,1.83,1.83,0,0,1,.87.23,1.89,1.89,0,0,1,.7.77,3.08,3.08,0,0,1,.27,1.38Zm-1.24-.78a1.18,1.18,0,0,0-.17-.69.59.59,0,0,0-.51-.26.64.64,0,0,0-.53.26,1.07,1.07,0,0,0-.2.69Z"/>
      <path d="M118.51,257H117.2v-6.09h1.31Z"/>
      <path d="M125.39,255.64h-.6V257h-1.35v-1.31h-2v-1.16l2.32-3.62h1.08v3.73h.6Zm-2-1v-2l-1.25,2Z"/>
    </g>
    <g>
      <path d="M57.18,126.79a2.51,2.51,0,0,1-.1.66,2.14,2.14,0,0,1-.31.6,1.5,1.5,0,0,1-.59.45,1.91,1.91,0,0,1-.86.18h-1V131H52.8v-6.09h2.52a1.91,1.91,0,0,1,.86.18,1.6,1.6,0,0,1,.59.45,2.07,2.07,0,0,1,.31.61A2.6,2.6,0,0,1,57.18,126.79Zm-1.56,0a.73.73,0,0,0-.21-.6,1.32,1.32,0,0,0-.77-.16h-.32v1.47h.33a2.14,2.14,0,0,0,.58-.06.49.49,0,0,0,.3-.21A.88.88,0,0,0,55.62,126.8Z"/>
      <path d="M61.44,130.74c-.19.09-.37.16-.53.22a2,2,0,0,1-.59.08.59.59,0,0,1-.45-.14.67.67,0,0,1-.18-.33,2.25,2.25,0,0,1-.47.34,1.5,1.5,0,0,1-.68.13,1.2,1.2,0,0,1-.66-.17.92.92,0,0,1-.35-.43,1.55,1.55,0,0,1-.1-.52,1.22,1.22,0,0,1,.18-.69,1.3,1.3,0,0,1,.46-.44,6.45,6.45,0,0,1,.77-.36l.42-.16.21-.08.14-.08a.92.92,0,0,0-.11-.51.51.51,0,0,0-.47-.19,1.52,1.52,0,0,0-.8.23,3.09,3.09,0,0,0-.67.59V127a2.32,2.32,0,0,1,.53-.35,3.41,3.41,0,0,1,.59-.2,3.36,3.36,0,0,1,.63-.06,1.74,1.74,0,0,1,1.21.37,1.36,1.36,0,0,1,.41,1v1.73a1.11,1.11,0,0,0,0,.36.14.14,0,0,0,.14.12.74.74,0,0,0,.33-.12Zm-1.83-.86v-1.06a3.63,3.63,0,0,0-.68.41.63.63,0,0,0-.21.5.49.49,0,0,0,.1.34.35.35,0,0,0,.25.12.48.48,0,0,0,.27-.09A1.74,1.74,0,0,0,59.61,129.88Z"/>
      <path d="M65.92,131H64.61v-2.41a1.85,1.85,0,0,0-.1-.65.42.42,0,0,0-.44-.27.51.51,0,0,0-.28.07.79.79,0,0,0-.22.19,1.34,1.34,0,0,0-.16.22l-.14.22V131H62v-4.47h1.31v.64a2,2,0,0,1,.62-.56,1.47,1.47,0,0,1,.7-.16c.89,0,1.33.64,1.33,1.92Z"/>
      <path d="M72.66,131H68.81v-.12a7.49,7.49,0,0,0,.49-.62l.69-.95c.13-.18.25-.36.36-.53a3.76,3.76,0,0,0,.29-.5,3.38,3.38,0,0,0,.21-.54,2.47,2.47,0,0,0,.08-.6,1.15,1.15,0,0,0-.2-.69.65.65,0,0,0-.52-.26,1.66,1.66,0,0,0-1.23.78v-1.44l.35-.27.32-.2a2.15,2.15,0,0,1,.43-.16,1.86,1.86,0,0,1,.54-.07,1.55,1.55,0,0,1,1.44.88,2.23,2.23,0,0,1,.21,1,2.57,2.57,0,0,1-.1.75,2.83,2.83,0,0,1-.2.57c-.07.14-.16.32-.28.53a11.39,11.39,0,0,1-.67,1.07h1.64Z"/>
    </g>
    <path d="M112,74.94a15.92,15.92,0,0,1-8.1-2.21A76.63,76.63,0,0,0,65,62.17H23.14a16,16,0,0,1,0-32H65a108.67,108.67,0,0,1,55.11,15A16,16,0,0,1,112,74.94Z" style="fill: none;stroke: #231f20;stroke-miterlimit: 10"/>
    <path d="M112,132.54a15.92,15.92,0,0,1-8.1-2.21A76.63,76.63,0,0,0,65,119.77H23.14a16,16,0,0,1,0-32H65a108.67,108.67,0,0,1,55.11,15A16,16,0,0,1,112,132.54Z" style="fill: none;stroke: #231f20;stroke-miterlimit: 10"/>
    <path d="M112,190.14a15.92,15.92,0,0,1-8.1-2.21A76.63,76.63,0,0,0,65,177.37H23.14a16,16,0,1,1,0-32H65a108.67,108.67,0,0,1,55.11,15A16,16,0,0,1,112,190.14Z" style="fill: none;stroke: #231f20;stroke-miterlimit: 10"/>
    <path d="M112,247.74a15.92,15.92,0,0,1-8.1-2.21A76.63,76.63,0,0,0,65,235H23.14a16,16,0,0,1,0-32H65a108.67,108.67,0,0,1,55.11,15A16,16,0,0,1,112,247.74Z" style="fill: none;stroke: #000;stroke-miterlimit: 10"/>
    <path d="M64.71,30.26a2.16,2.16,0,1,1-2.16-2.16,2.16,2.16,0,0,1,2.16,2.16" style="fill: #231f20"/>
    <path d="M64.71,30.26a2.16,2.16,0,1,1-2.16-2.16A2.16,2.16,0,0,1,64.71,30.26Z" style="fill: none;stroke: #ededed;stroke-width: 1.25px"/>
    <path d="M64.71,87.86a2.16,2.16,0,1,1-2.16-2.16,2.16,2.16,0,0,1,2.16,2.16" style="fill: #231f20"/>
    <path d="M64.71,87.86a2.16,2.16,0,1,1-2.16-2.16A2.16,2.16,0,0,1,64.71,87.86Z" style="fill: none;stroke: #ededed;stroke-width: 1.25px"/>
    <line x1="37.81" y1="161.52" x2="45.26" y2="161.52" style="fill: none;stroke: #231f20;stroke-miterlimit: 10"/>
    <polygon points="44.53 164.01 48.85 161.52 44.53 159.03 44.53 164.01" style="fill: #231f20"/>
    <line x1="37.81" y1="219.12" x2="45.26" y2="219.12" style="fill: none;stroke: #231f20;stroke-miterlimit: 10"/>
    <polygon points="44.53 221.61 48.85 219.12 44.53 216.62 44.53 221.61" style="fill: #231f20"/>
  </g>
  <g id="components">
    <circle id="Out_Right" data-name="Out Right" cx="122.02" cy="326.07" r="11.34" style="fill: blue"/>
    <circle id="Out_Left" data-name="Out Left" cx="122.02" cy="282.83" r="11.34" style="fill: blue"/>
    <circle id="Out_R_LED" data-name="Out R LED" cx="98.07" cy="316.53" r="4.25" style="fill: #f0f"/>
    <circle id="Out_L_LED" data-name="Out L LED" cx="98.07" cy="284.23" r="4.25" style="fill: #f0f"/>
    <circle id="Main_Level" data-name="Main Level" cx="71.7" cy="302.94" r="17.01" style="fill: #ff0070"/>
    <circle id="Headphone_Level" data-name="Headphone Level" cx="23.27" cy="318.85" r="8.5" style="fill: #ff0070"/>
    <rect id="Mod._Line" data-name="Mod. | Line" x="60.18" y="253.94" width="14.17" height="8.5" style="fill: #ff8080"/>
    <circle id="Headphone_Out" data-name="Headphone Out" cx="23.64" cy="266.4" r="11.34" style="fill: blue"/>
    <circle id="Level_4" data-name="Level 4" cx="111.89" cy="232.15" r="17.01" style="fill: #ff0070"/>
    <circle id="Level_4_LED" data-name="Level 4 LED" cx="87.38" cy="221.73" r="4.25" style="fill: #f0f"/>
    <circle id="In_4_R" data-name="In 4 R" cx="62.91" cy="219.12" r="11.34" style="fill: lime"/>
    <circle id="In_4_L" data-name="In 4 L" cx="23.31" cy="219.12" r="11.34" style="fill: lime"/>
    <circle id="Level_3" data-name="Level 3" cx="111.89" cy="174.29" r="17.01" style="fill: #ff0070"/>
    <circle id="Level_3_LED" data-name="Level 3 LED" cx="87.38" cy="163.03" r="4.25" style="fill: #f0f"/>
    <circle id="In_3_R" data-name="In 3 R" cx="62.91" cy="161.52" r="11.34" style="fill: lime"/>
    <circle id="In_3_L" data-name="In 3 L" cx="23.31" cy="161.52" r="11.34" style="fill: lime"/>
    <circle id="Level_2" data-name="Level 2" cx="111.89" cy="116.69" r="17.01" style="fill: #ff0070"/>
    <circle id="Level_2_LED" data-name="Level 2 LED" cx="87.38" cy="105.8" r="4.25" style="fill: #f0f"/>
    <circle id="Pan_2" data-name="Pan 2" cx="62.33" cy="103.86" r="8.5" style="fill: #ff0040"/>
    <circle id="In_2" data-name="In 2" cx="23.31" cy="103.92" r="11.34" style="fill: lime"/>
    <circle id="Level_1" data-name="Level 1" cx="111.89" cy="59.09" r="17.01" style="fill: #ff0070"/>
    <circle id="Level_1_LED" data-name="Level 1 LED" cx="87.38" cy="46.17" r="4.25" style="fill: #f0f"/>
    <circle id="Pan_1" data-name="Pan 1" cx="62.33" cy="46.17" r="8.5" style="fill: #ff0040"/>
    <circle id="In_1" data-name="In 1" cx="23.31" cy="46.17" r="11.34" style="fill: lime"/>
    <text id="slug" transform="translate(115.29 369.31)" style="font-size: 3px;font-family: MyriadPro-Regular, Myriad Pro">L4</text>
    <text id="modulename" transform="translate(129.47 369.31)" style="font-size: 3px;font-family: MyriadPro-Regular, Myriad Pro">Lis<tspan x="3.31" y="0" style="letter-spacing: -0.005859375em">t</tspan><tspan x="4.28" y="0">en </tspan><tspan x="8.08" y="0" style="letter-spacing: -0.030924479166666668em">F</tspan><tspan x="9.45" y="0" style="letter-spacing: -0.0003255208333333333em">our</tspan></text>
  </g>
</svg>
