<svg xmlns="http://www.w3.org/2000/svg" width="30.57mm" height="131.95mm" viewBox="0 0 86.65 374.04">
  <g id="faceplate">
    <rect x="0.13" y="0.13" width="86.4" height="364.25" style="fill: #ededed;stroke: #9d9d9e;stroke-miterlimit: 10;stroke-width: 0.25px"/>
    <path d="M26.17,13.6a4.54,4.54,0,1,0,0-9.07H17.74a4.54,4.54,0,1,0,0,9.07Z"/>
    <path d="M26.17,360.86a4.54,4.54,0,1,0,0-9.07H17.74a4.54,4.54,0,1,0,0,9.07Z"/>
    <path d="M70,333.54H16.63c-6.48,0-11.73-6.8-11.73-14.3S10.15,305,16.63,305H70c6.48,0,11.73,6.8,11.73,14.29s-5.25,14.3-11.73,14.3"/>
    <path d="M43.18,208a18.15,18.15,0,0,0-2.46.17L40.33,206A21.4,21.4,0,0,1,46,206l-.39,2.22a18.11,18.11,0,0,0-2.45-.17"/>
    <path d="M28.68,214.39,27,212.94a22.06,22.06,0,0,1,4.34-3.66l1.12,1.94a19.94,19.94,0,0,0-3.74,3.17"/>
    <path d="M34.15,210.22,33,208.28a21.27,21.27,0,0,1,5.33-2l.39,2.21a20.26,20.26,0,0,0-4.6,1.69"/>
    <path d="M25,220.16l-2.1-.77a21.84,21.84,0,0,1,2.83-4.92l1.72,1.45A19.2,19.2,0,0,0,25,220.16"/>
    <path d="M47.6,208.53l.39-2.21a21.87,21.87,0,0,1,5.34,2l-1.13,1.95a19.63,19.63,0,0,0-4.6-1.69"/>
    <path d="M23.46,226.85H21.2a22,22,0,0,1,1-5.58l2.11.77a19.6,19.6,0,0,0-.81,4.81"/>
    <path d="M24.32,233.65l-2.1.77a21.72,21.72,0,0,1-1-5.57h2.23a19.74,19.74,0,0,0,.87,4.8"/>
    <path d="M27.46,239.73l-1.71,1.44a22.06,22.06,0,0,1-2.84-4.88l2.1-.76a20.05,20.05,0,0,0,2.45,4.2"/>
    <path d="M59,215.92l1.73-1.45a22,22,0,0,1,2.83,4.92l-2.1.76A19.81,19.81,0,0,0,59,215.92"/>
    <path d="M62.08,222l2.11-.77a21.88,21.88,0,0,1,1,5.58H62.89a19.6,19.6,0,0,0-.81-4.81"/>
    <path d="M62.9,228.85h2.24a21.57,21.57,0,0,1-1,5.56l-2.1-.76a19.74,19.74,0,0,0,.87-4.8"/>
    <path d="M61.34,235.53l2.11.76a22.46,22.46,0,0,1-2.84,4.88l-1.72-1.44a19.87,19.87,0,0,0,2.45-4.2"/>
    <path d="M32.48,244.37l-1.11,1.94a21.91,21.91,0,0,1-4.32-3.62l1.71-1.43a19.94,19.94,0,0,0,3.72,3.11"/>
    <path d="M57.6,241.25l1.71,1.44A22.2,22.2,0,0,1,55,246.31l-1.12-1.94a19.68,19.68,0,0,0,3.73-3.12"/>
    <path d="M53.93,211.22l1.12-1.94a21.83,21.83,0,0,1,4.35,3.66l-1.73,1.45a19.94,19.94,0,0,0-3.74-3.17"/>
    <path d="M76,88.88a1.67,1.67,0,0,1,1.24.48,1.86,1.86,0,0,1,.24,2.16,1.56,1.56,0,0,1-.7.61,1.7,1.7,0,0,1,.46.43,6.12,6.12,0,0,1,.5.92c.33.75.57,1.26.73,1.54H77.32c-.08-.13-.19-.35-.33-.65a13.45,13.45,0,0,0-.65-1.32,1.88,1.88,0,0,0-.41-.48.72.72,0,0,0-.44-.14h-.38V95h-1V88.88Zm-.23,2.62a.8.8,0,0,0,.87-.87.79.79,0,0,0-.23-.63.93.93,0,0,0-.66-.21h-.65V91.5Z"/>
    <polygon points="9.99 88.88 9.99 94.09 12.61 94.09 12.61 95.02 8.95 95.02 8.95 88.88 9.99 88.88"/>
    <path d="M39.79,92.29l-.3.12-.24.09-.33.1a6.31,6.31,0,0,1-.73.15,6.23,6.23,0,0,1-.77,0,3.45,3.45,0,0,1-1.51-.34,2.67,2.67,0,0,1-1.11-1,3.51,3.51,0,0,1-.41-1.75,4.18,4.18,0,0,1,.21-1.31,2.24,2.24,0,0,1,.66-1,2.67,2.67,0,0,1,.73-.49,2.79,2.79,0,0,1,.73-.23,4.85,4.85,0,0,1,.79,0,4.78,4.78,0,0,1,1.17.12c.3.08.64.18,1,.31v1.45a4.75,4.75,0,0,0-.77-.41,2.76,2.76,0,0,0-1-.16,1.9,1.9,0,0,0-1.12.3,1.59,1.59,0,0,0-.58.72,2.22,2.22,0,0,0-.17.81,2,2,0,0,0,.19.85,1.5,1.5,0,0,0,.58.62,1.68,1.68,0,0,0,.92.24,2.25,2.25,0,0,0,.66-.1v-.71h-.73V89.36h2.14Z"/>
    <path d="M44.6,92.49a3.39,3.39,0,0,1-.56.22,2,2,0,0,1-.63.09.67.67,0,0,1-.48-.14.81.81,0,0,1-.19-.34,2.1,2.1,0,0,1-.5.34,1.62,1.62,0,0,1-.72.14,1.28,1.28,0,0,1-.69-.17.9.9,0,0,1-.37-.43,1.4,1.4,0,0,1-.11-.53,1.21,1.21,0,0,1,.18-.68,1.42,1.42,0,0,1,.5-.44,4.71,4.71,0,0,1,.82-.36l.44-.16.22-.08.15-.08a1,1,0,0,0-.11-.51c-.08-.13-.25-.19-.51-.19a1.66,1.66,0,0,0-.84.23,3.06,3.06,0,0,0-.72.59V88.78a2.5,2.5,0,0,1,.56-.35,3.3,3.3,0,0,1,.63-.2,3.71,3.71,0,0,1,.67-.06,1.88,1.88,0,0,1,1.28.37,1.31,1.31,0,0,1,.44,1V91.3a1.14,1.14,0,0,0,0,.37.14.14,0,0,0,.14.12.75.75,0,0,0,.36-.13Zm-1.94-.85V90.58a3.56,3.56,0,0,0-.72.41.61.61,0,0,0-.23.49.48.48,0,0,0,.12.35.34.34,0,0,0,.26.12.58.58,0,0,0,.28-.09l.29-.22"/>
    <path d="M46.19,92.72h-1.4V88.24h1.4Zm-.12-5.51a.65.65,0,0,1-.17.47.54.54,0,0,1-.41.2.53.53,0,0,1-.3-.09.61.61,0,0,1-.21-.24.74.74,0,0,1-.08-.34.71.71,0,0,1,.17-.47.53.53,0,0,1,.83,0,.67.67,0,0,1,.17.47"/>
    <path d="M51,92.72H49.64V90.31a1.84,1.84,0,0,0-.11-.65.44.44,0,0,0-.46-.27.56.56,0,0,0-.3.07.71.71,0,0,0-.23.19,1.74,1.74,0,0,0-.18.22l-.14.22v2.63H46.83V88.24h1.39v.65a1.93,1.93,0,0,1,.66-.56,1.64,1.64,0,0,1,.74-.16q1.41,0,1.41,1.92Z"/>
    <polygon points="37.43 259.32 33.36 259.32 33.36 253.23 34.97 253.23 34.97 257.86 37.43 257.86 37.43 259.32"/>
    <path d="M41.86,257.46H39.09a1,1,0,0,0,.4.67,1.11,1.11,0,0,0,.71.26,3.4,3.4,0,0,0,1.56-.45v1a4,4,0,0,1-.74.33,3.46,3.46,0,0,1-1.11.15,2.43,2.43,0,0,1-1.24-.31,1.93,1.93,0,0,1-.76-.84,2.7,2.7,0,0,1-.25-1.19,2.65,2.65,0,0,1,.25-1.18,1.88,1.88,0,0,1,.76-.82,2.42,2.42,0,0,1,1.24-.3,2,2,0,0,1,.93.24,1.82,1.82,0,0,1,.73.77,2.89,2.89,0,0,1,.29,1.38Zm-1.31-.78a1.18,1.18,0,0,0-.18-.69.64.64,0,0,0-.54-.25.69.69,0,0,0-.57.26,1,1,0,0,0-.21.68Z"/>
    <polygon points="46.38 254.84 44.59 259.32 43.56 259.32 41.81 254.84 43.3 254.84 44.12 257.19 45.02 254.84 46.38 254.84"/>
    <path d="M50.57,257.46H47.79a1.13,1.13,0,0,0,.4.67,1.12,1.12,0,0,0,.72.26,3.33,3.33,0,0,0,1.55-.45v1a4,4,0,0,1-.74.33,3.39,3.39,0,0,1-1.1.15,2.4,2.4,0,0,1-1.24-.31,2,2,0,0,1-.77-.84,2.84,2.84,0,0,1-.25-1.19,2.8,2.8,0,0,1,.25-1.18,1.9,1.9,0,0,1,.77-.82,2.4,2.4,0,0,1,1.24-.3,1.91,1.91,0,0,1,.92.24,1.78,1.78,0,0,1,.74.77,2.89,2.89,0,0,1,.29,1.38Zm-1.31-.78a1.11,1.11,0,0,0-.19-.69.61.61,0,0,0-.54-.25A.67.67,0,0,0,48,256a1,1,0,0,0-.22.68Z"/>
    <rect x="51" y="253.23" width="1.4" height="6.09"/>
    <polygon points="58.21 81.2 58.91 82.2 59.59 81.2 60.47 81.2 59.34 82.77 60.56 84.39 59.67 84.39 58.91 83.34 58.19 84.39 57.32 84.39 58.49 82.77 57.32 81.2 58.21 81.2"/>
    <path d="M61.69,79.56a1.33,1.33,0,0,1,.94.33,1.12,1.12,0,0,1,.36.87,1.18,1.18,0,0,1-.59,1.09.94.94,0,0,1,.51.45,1.45,1.45,0,0,1,.17.74,1.34,1.34,0,0,1-1.41,1.41,1.9,1.9,0,0,1-1-.27v-.84a2.31,2.31,0,0,0,.47.29,1.31,1.31,0,0,0,.43.08.66.66,0,0,0,.49-.19.68.68,0,0,0,.19-.49.73.73,0,0,0-.21-.54.81.81,0,0,0-.57-.2h0v-.74h0a.71.71,0,0,0,.52-.17.55.55,0,0,0,.19-.45.62.62,0,0,0-.18-.46.68.68,0,0,0-.47-.17,1.61,1.61,0,0,0-.75.21v-.75a2,2,0,0,1,.89-.2"/>
    <path d="M65,79.56a1.11,1.11,0,0,1,1,.65A3.57,3.57,0,0,1,66.35,82,3.82,3.82,0,0,1,66,83.8a1.13,1.13,0,0,1-2,0A3.61,3.61,0,0,1,63.56,82a3.65,3.65,0,0,1,.38-1.8,1.15,1.15,0,0,1,1-.65M64.34,82c0,1.1.21,1.64.62,1.64s.6-.57.6-1.72-.2-1.61-.61-1.61-.61.56-.61,1.69"/>
    <rect x="23.26" y="81.84" width="2" height="1.04"/>
    <path d="M28.13,82.39c-.4.45-.82,1-1.46,1A1.2,1.2,0,0,1,25.53,82a1.27,1.27,0,0,1,1.2-1.34c.58,0,1,.54,1.4,1,.4-.46.82-1,1.47-1A1.2,1.2,0,0,1,30.74,82a1.27,1.27,0,0,1-1.21,1.33c-.58,0-1-.53-1.4-1M27.81,82c-.3-.33-.63-.8-1.09-.8a.76.76,0,0,0-.7.8.72.72,0,0,0,.68.79c.45,0,.81-.44,1.11-.79m2.43,0a.73.73,0,0,0-.68-.8c-.45,0-.81.44-1.11.8.31.32.63.79,1.09.79a.75.75,0,0,0,.7-.79"/>
    <path d="M58.73,245.49a1.12,1.12,0,0,1,1,.66,3.57,3.57,0,0,1,.38,1.78,3.77,3.77,0,0,1-.37,1.8,1.13,1.13,0,0,1-1,.66,1.15,1.15,0,0,1-1-.65,4.43,4.43,0,0,1,0-3.59,1.14,1.14,0,0,1,1-.66M58.11,248c0,1.09.21,1.64.62,1.64s.6-.58.6-1.72-.2-1.61-.61-1.61-.61.56-.61,1.69"/>
    <path d="M62.37,247.21v-1.66h.74v4.78h-1.3a1.41,1.41,0,0,1-1.08-.44,1.72,1.72,0,0,1-.4-1.2,1.8,1.8,0,0,1,.18-.82,1.47,1.47,0,0,1,.52-.58,1.31,1.31,0,0,1,.71-.21,1.65,1.65,0,0,1,.63.13M62,249.69h.39v-1.85a.9.9,0,0,0-.47-.13.73.73,0,0,0-.6.26,1.06,1.06,0,0,0-.22.69c0,.68.3,1,.9,1"/>
    <path d="M65.23,245.55a1.3,1.3,0,0,1,.94.35,1.1,1.1,0,0,1,.37.85,1.11,1.11,0,0,1-.15.58,1.07,1.07,0,0,1-.44.4v0a1.15,1.15,0,0,1,.68.44,1.32,1.32,0,0,1,.25.78,1.39,1.39,0,0,1-.18.71,1.13,1.13,0,0,1-.5.47,1.6,1.6,0,0,1-.75.16H63.69v-4.78Zm-.21,2a.68.68,0,0,0,.5-.18.68.68,0,0,0,0-.92.62.62,0,0,0-.45-.16h-.58v1.26Zm.19,2.07a.94.94,0,0,0,.62-.18.62.62,0,0,0,.21-.51.61.61,0,0,0-.21-.49.89.89,0,0,0-.56-.17h-.76v1.35Z"/>
    <rect x="22.68" y="247.92" width="2" height="1.04"/>
    <path d="M27.56,248.47c-.41.46-.83,1-1.47,1A1.2,1.2,0,0,1,25,248.1a1.27,1.27,0,0,1,1.2-1.33c.59,0,1,.53,1.41,1,.4-.46.82-1,1.46-1a1.19,1.19,0,0,1,1.14,1.33,1.27,1.27,0,0,1-1.2,1.33c-.59,0-1-.53-1.4-1m-.32-.37c-.31-.33-.64-.79-1.09-.79a.74.74,0,0,0-.7.79.71.71,0,0,0,.67.79c.45,0,.82-.44,1.12-.79m2.42,0a.71.71,0,0,0-.67-.79c-.45,0-.82.44-1.12.79.31.32.64.79,1.1.79a.75.75,0,0,0,.69-.79"/>
    <path d="M64.92,9.44,58,18.23V10.7a1.6,1.6,0,0,0-.8-1.47,1.12,1.12,0,0,0-1.41.37l-9.1,11.56a1.83,1.83,0,0,0,0,2.23,1.12,1.12,0,0,0,1.82,0l6.87-8.73v7.53a1.61,1.61,0,0,0,.81,1.47,1.15,1.15,0,0,0,1.42-.37s4.36-5.56,6.91-8.79v7.69a1.32,1.32,0,1,0,2.58,0V10.54a1.61,1.61,0,0,0-.81-1.47,1.13,1.13,0,0,0-1.41.37"/>
    <path d="M47.62,24.32a1.64,1.64,0,0,1-1.26-.62,2.33,2.33,0,0,1,0-2.84L55.41,9.3a1.6,1.6,0,0,1,2-.5,2.08,2.08,0,0,1,1.08,1.9v6.14l6.05-7.7a1.62,1.62,0,0,1,2-.5,2.09,2.09,0,0,1,1.07,1.9V22.15a1.79,1.79,0,1,1-3.54,0v-6.3l-6,7.7a1.62,1.62,0,0,1-2,.5,2.08,2.08,0,0,1-1.08-1.9V16c-2.54,3.24-6,7.64-6,7.64a1.7,1.7,0,0,1-1.28.67Zm9.1-14.73a.72.72,0,0,0-.55.3l-9.1,11.56a1.37,1.37,0,0,0,0,1.63.66.66,0,0,0,.52.27h0a.7.7,0,0,0,.54-.3L55,14.32l.86-1.09v8.92a1.14,1.14,0,0,0,.55,1,.67.67,0,0,0,.82-.24l6.91-8.79L65,13.07v9.08c0,.61.36,1.1.81,1.1s.81-.5.81-1.1V10.54a1.16,1.16,0,0,0-.54-1,.65.65,0,0,0-.82.24l-7.78,9.88V10.7a1.15,1.15,0,0,0-.53-1,.68.68,0,0,0-.27-.07"/>
    <path d="M46.69,9.35l-6,7.66a1.85,1.85,0,0,0,0,2.24,1.14,1.14,0,0,0,1.83,0s2-2.59,3.81-4.84v7.88a1.31,1.31,0,1,0,2.57,0V10.45A1.62,1.62,0,0,0,48.11,9a1.15,1.15,0,0,0-1.42.37"/>
    <path d="M47.62,24.31a1.94,1.94,0,0,1-1.77-2.06V15.76L42.91,19.5a1.66,1.66,0,0,1-1.28.67,1.69,1.69,0,0,1-1.3-.61,2.34,2.34,0,0,1,0-2.85l6-7.66a1.62,1.62,0,0,1,2-.5,2.09,2.09,0,0,1,1.07,1.9v11.8a1.93,1.93,0,0,1-1.77,2.06M46.82,13v9.27c0,.6.36,1.1.8,1.1s.81-.49.81-1.1V10.45a1.16,1.16,0,0,0-.54-1,.65.65,0,0,0-.82.24l-6,7.66a1.37,1.37,0,0,0,0,1.63.73.73,0,0,0,.53.27h0a.7.7,0,0,0,.54-.3Z"/>
    <path d="M75.38,15a1.31,1.31,0,0,0-1.19-1H71.56l1.92-2.45s1-1.46.12-2.27-2,.08-2,.08l-4,5.12a1.87,1.87,0,0,0-.26,1.72,1.32,1.32,0,0,0,1.19,1h2.64l-3.12,4s-1.3,1.41-.34,2.36,2.19-.17,2.19-.17l5.23-6.64A1.87,1.87,0,0,0,75.38,15"/>
    <path d="M68.57,24.39a1.66,1.66,0,0,1-1.21-.52c-1-1-.23-2.42.32-3l2.49-3.16H68.52a1.77,1.77,0,0,1-1.64-1.29,2.3,2.3,0,0,1,.34-2.17L71.32,9a2,2,0,0,1,2.6,0c.94.85.42,2.22,0,2.9l-1.33,1.69h1.64a1.77,1.77,0,0,1,1.64,1.28A2.32,2.32,0,0,1,75.5,17l-5.23,6.65a2.7,2.7,0,0,1-1.7.73M72,9.74l-4,5.08a1.36,1.36,0,0,0-.18,1.26.85.85,0,0,0,.73.64h3.63l-3.73,4.74s-1,1.11-.38,1.73,1.44-.1,1.53-.19l5.17-6.58a1.36,1.36,0,0,0,.18-1.26h0a.83.83,0,0,0-.73-.64H70.57l2.54-3.22h0s.71-1.12.16-1.62A1.05,1.05,0,0,0,72,9.74"/>
    <path d="M76,255.48a1.67,1.67,0,0,1,1.24.48,1.86,1.86,0,0,1,.24,2.16,1.56,1.56,0,0,1-.7.61,1.7,1.7,0,0,1,.46.43,6.68,6.68,0,0,1,.5.92c.33.75.57,1.26.73,1.54H77.32c-.08-.13-.19-.35-.33-.64a12.82,12.82,0,0,0-.65-1.33,1.88,1.88,0,0,0-.41-.48.72.72,0,0,0-.44-.14h-.38v2.59h-1v-6.14Zm-.23,2.62a.8.8,0,0,0,.87-.87.79.79,0,0,0-.23-.63.93.93,0,0,0-.66-.21h-.65v1.71Z"/>
    <polygon points="9.99 255.48 9.99 260.69 12.61 260.69 12.61 261.62 8.95 261.62 8.95 255.48 9.99 255.48"/>
    <path d="M43.13,41.73a18.11,18.11,0,0,0-2.45.17l-.39-2.22a21.4,21.4,0,0,1,5.69,0l-.39,2.21a19.93,19.93,0,0,0-2.46-.16"/>
    <path d="M28.64,48.1l-1.72-1.45A22.06,22.06,0,0,1,31.26,43l1.12,1.94a19.94,19.94,0,0,0-3.74,3.17"/>
    <path d="M34.11,43.93,33,42A21.87,21.87,0,0,1,38.32,40l.39,2.21a19.63,19.63,0,0,0-4.6,1.69"/>
    <path d="M24.9,53.87l-2.1-.77a22.4,22.4,0,0,1,2.83-4.92l1.73,1.45a19.64,19.64,0,0,0-2.46,4.24"/>
    <path d="M47.56,42.24,48,40A21.64,21.64,0,0,1,53.28,42l-1.12,2a19.19,19.19,0,0,0-4.6-1.69"/>
    <path d="M23.42,60.56H21.16a22,22,0,0,1,1-5.58l2.11.77a19.6,19.6,0,0,0-.81,4.81"/>
    <path d="M24.28,67.36l-2.1.76a22,22,0,0,1-1-5.56h2.24a19.83,19.83,0,0,0,.87,4.8"/>
    <path d="M27.42,73.44l-1.71,1.44A22.06,22.06,0,0,1,22.87,70l2.1-.76a20.31,20.31,0,0,0,2.45,4.2"/>
    <path d="M58.91,49.63l1.73-1.45a22.4,22.4,0,0,1,2.83,4.92l-2.1.76a19.81,19.81,0,0,0-2.46-4.23"/>
    <path d="M62,55.75,64.15,55a21.88,21.88,0,0,1,1,5.58H62.85A19.6,19.6,0,0,0,62,55.75"/>
    <path d="M62.86,62.56H65.1a22,22,0,0,1-1,5.56L62,67.36a19.92,19.92,0,0,0,.87-4.8"/>
    <path d="M61.3,69.24l2.1.76a22,22,0,0,1-2.83,4.88l-1.72-1.44a19.87,19.87,0,0,0,2.45-4.2"/>
    <path d="M32.44,78.08,31.32,80A22.13,22.13,0,0,1,27,76.4L28.72,75a19.62,19.62,0,0,0,3.72,3.12"/>
    <path d="M57.56,75l1.71,1.44A22.2,22.2,0,0,1,55,80l-1.12-1.94A19.68,19.68,0,0,0,57.56,75"/>
    <path d="M53.89,44.93,55,43a22.41,22.41,0,0,1,4.35,3.66L57.63,48.1a19.94,19.94,0,0,0-3.74-3.17"/>
    <path d="M69.82,167.56H16.41c-6.47,0-11.72-6.8-11.72-14.3S9.94,139,16.41,139H69.82c6.48,0,11.73,6.8,11.73,14.3s-5.25,14.3-11.73,14.3"/>
    <path d="M69.82,139c6.48,0,11.73,6.8,11.73,14.3s-5.25,14.3-11.73,14.3H16.41c-6.47,0-11.72-6.8-11.72-14.3S9.94,139,16.41,139H69.82m0-1H16.41c-6.89,0-12.72,7-12.72,15.3s5.83,15.3,12.72,15.3H69.82c6.9,0,12.73-7,12.73-15.3S76.72,138,69.82,138"/>
    <polygon points="41.62 277.96 40.18 277.96 40.18 274.83 38.89 276.64 38.77 276.64 37.47 274.83 37.47 277.96 36.08 277.96 36.08 272.55 37.38 272.55 38.85 274.58 40.32 272.55 41.62 272.55 41.62 277.96"/>
    <path d="M46.2,276A2.39,2.39,0,0,1,46,277a1.77,1.77,0,0,1-.68.73,2.4,2.4,0,0,1-2.21,0,1.69,1.69,0,0,1-.67-.73,2.6,2.6,0,0,1-.1-1.88,1.86,1.86,0,0,1,.38-.65,1.76,1.76,0,0,1,.63-.43,2.6,2.6,0,0,1,1.74,0,1.76,1.76,0,0,1,.63.43,1.92,1.92,0,0,1,.38.65,2.66,2.66,0,0,1,.12.82m-1.3,0a1.33,1.33,0,0,0-.18-.74.59.59,0,0,0-.52-.27.61.61,0,0,0-.53.27,1.33,1.33,0,0,0-.18.74,1.25,1.25,0,0,0,.19.74.57.57,0,0,0,.52.28.58.58,0,0,0,.52-.28,1.31,1.31,0,0,0,.18-.74"/>
    <path d="M50.27,278H49v-.36a2,2,0,0,1-.42.31,1.28,1.28,0,0,1-.6.12,1.47,1.47,0,0,1-.75-.21,1.6,1.6,0,0,1-.61-.67,2.48,2.48,0,0,1-.23-1.15,2.88,2.88,0,0,1,.17-1,1.81,1.81,0,0,1,.56-.77,1.48,1.48,0,0,1,.94-.29,1.51,1.51,0,0,1,.56.08,1.57,1.57,0,0,1,.38.22v-1.67h1.24ZM49,276.7v-1.52l-.34-.2a.68.68,0,0,0-.29-.06.58.58,0,0,0-.49.29,1.3,1.3,0,0,0-.19.76,1.22,1.22,0,0,0,.2.77.63.63,0,0,0,.48.24.74.74,0,0,0,.36-.08,2.34,2.34,0,0,0,.27-.2"/>
    <rect x="40.25" y="280.55" width="1.44" height="5.41"/>
    <path d="M46.14,286H44.91v-2.14a1.61,1.61,0,0,0-.1-.57.39.39,0,0,0-.41-.25.5.5,0,0,0-.27.07.65.65,0,0,0-.21.16,1.3,1.3,0,0,0-.15.2l-.13.2V286H42.41v-4h1.23v.57a1.75,1.75,0,0,1,.59-.5,1.41,1.41,0,0,1,.65-.14q1.26,0,1.26,1.71Z"/>
    <polygon points="40.07 111.69 36.45 111.69 36.45 106.28 37.89 106.28 37.89 110.4 40.07 110.4 40.07 111.69"/>
    <path d="M41.73,111.69H40.49v-4h1.24Zm-.1-4.89a.6.6,0,0,1-.16.42.48.48,0,0,1-.36.17.5.5,0,0,1-.27-.08.55.55,0,0,1-.19-.21.73.73,0,0,1-.06-.3.64.64,0,0,1,.15-.42.45.45,0,0,1,.37-.17.44.44,0,0,1,.36.17.6.6,0,0,1,.16.42"/>
    <path d="M46,111.69H44.8v-2.14a1.61,1.61,0,0,0-.1-.57.39.39,0,0,0-.41-.25.6.6,0,0,0-.27.07.78.78,0,0,0-.2.16,1.27,1.27,0,0,0-.16.2l-.12.2v2.33H42.3v-4h1.24v.57a1.73,1.73,0,0,1,.58-.5,1.59,1.59,0,0,1,.66-.14c.83,0,1.25.57,1.25,1.71Z"/>
    <path d="M50.08,110.05H47.62a1,1,0,0,0,.35.59,1,1,0,0,0,.64.23,2.93,2.93,0,0,0,1.38-.4v.87a3,3,0,0,1-.65.29,3.08,3.08,0,0,1-1,.13,2.11,2.11,0,0,1-1.1-.27,1.73,1.73,0,0,1-.68-.74,2.42,2.42,0,0,1-.22-1.06,2.38,2.38,0,0,1,.22-1,1.71,1.71,0,0,1,.68-.73,2.21,2.21,0,0,1,1.1-.26,1.7,1.7,0,0,1,.82.21,1.55,1.55,0,0,1,.66.68,2.57,2.57,0,0,1,.25,1.22Zm-1.16-.7a1,1,0,0,0-.16-.61.59.59,0,0,0-.48-.23.61.61,0,0,0-.5.23.93.93,0,0,0-.2.61Z"/>
    <rect x="40.26" y="114.28" width="1.44" height="5.41"/>
    <path d="M46.15,119.69H44.91v-2.14a1.62,1.62,0,0,0-.09-.57.4.4,0,0,0-.42-.25.53.53,0,0,0-.26.07.83.83,0,0,0-.21.16l-.15.2-.13.2v2.33H42.42v-4h1.23v.57a1.75,1.75,0,0,1,.59-.5,1.51,1.51,0,0,1,.65-.14q1.26,0,1.26,1.71Z"/>
    <polygon points="41.62 151.24 40.18 151.24 40.18 148.1 38.89 149.92 38.77 149.92 37.48 148.1 37.48 151.24 36.08 151.24 36.08 145.83 37.38 145.83 38.85 147.86 40.32 145.83 41.62 145.83 41.62 151.24" style="fill: #ededed"/>
    <path d="M46.2,149.25a2.42,2.42,0,0,1-.22,1.06,1.77,1.77,0,0,1-.68.73,2.4,2.4,0,0,1-2.21,0,1.69,1.69,0,0,1-.67-.73,2.43,2.43,0,0,1-.23-1.06,2.39,2.39,0,0,1,.13-.82,1.86,1.86,0,0,1,.38-.65,1.65,1.65,0,0,1,.63-.43,2.13,2.13,0,0,1,.86-.16,2.16,2.16,0,0,1,.88.16,1.65,1.65,0,0,1,.63.43,2,2,0,0,1,.38.65,2.62,2.62,0,0,1,.12.82m-1.3,0a1.31,1.31,0,0,0-.18-.74.65.65,0,0,0-1,0,1.31,1.31,0,0,0-.18.74,1.25,1.25,0,0,0,.19.74.58.58,0,0,0,.51.27.6.6,0,0,0,.53-.27,1.33,1.33,0,0,0,.18-.74" style="fill: #ededed"/>
    <path d="M50.27,151.24H49v-.36a2,2,0,0,1-.42.31,1.28,1.28,0,0,1-.6.12,1.47,1.47,0,0,1-.75-.21,1.66,1.66,0,0,1-.61-.67,2.62,2.62,0,0,1-.23-1.15,2.88,2.88,0,0,1,.18-1,1.71,1.71,0,0,1,.55-.77,1.49,1.49,0,0,1,.94-.3,1.46,1.46,0,0,1,.56.09,1.57,1.57,0,0,1,.38.22v-1.67h1.24ZM49,150v-1.52l-.34-.19a.68.68,0,0,0-.29-.06.57.57,0,0,0-.49.28,1.33,1.33,0,0,0-.19.77,1.22,1.22,0,0,0,.2.77.63.63,0,0,0,.48.24.74.74,0,0,0,.36-.08A1.65,1.65,0,0,0,49,150" style="fill: #ededed"/>
    <path d="M42.16,156.53a3.08,3.08,0,0,1-.31,1.39,2.37,2.37,0,0,1-.91,1,2.79,2.79,0,0,1-1.49.37,2.73,2.73,0,0,1-1.49-.39,2.38,2.38,0,0,1-.91-1,3.14,3.14,0,0,1-.3-1.36,3.19,3.19,0,0,1,.3-1.37,2.35,2.35,0,0,1,.91-1,2.73,2.73,0,0,1,1.49-.39,3.1,3.1,0,0,1,1.18.22,2.24,2.24,0,0,1,.85.61,2.69,2.69,0,0,1,.51.89,3.36,3.36,0,0,1,.17,1.06m-1.47,0a2,2,0,0,0-.07-.56,1.37,1.37,0,0,0-.24-.43,1.11,1.11,0,0,0-.39-.29,1.3,1.3,0,0,0-.54-.11,1.12,1.12,0,0,0-.9.39,1.47,1.47,0,0,0-.33,1,1.52,1.52,0,0,0,.33,1,1.14,1.14,0,0,0,.9.38,1.23,1.23,0,0,0,.68-.18,1.19,1.19,0,0,0,.42-.49,1.65,1.65,0,0,0,.14-.72" style="fill: #ededed"/>
    <path d="M46.25,159.24H45v-.57a1.84,1.84,0,0,1-.55.48,1.42,1.42,0,0,1-.7.16,1,1,0,0,1-1-.52,2.87,2.87,0,0,1-.23-1.19v-2.34h1.23v2.15a1.61,1.61,0,0,0,.1.57.39.39,0,0,0,.41.24.53.53,0,0,0,.43-.17,3.77,3.77,0,0,0,.33-.45v-2.34h1.23Z" style="fill: #ededed"/>
    <path d="M49.53,159a2.48,2.48,0,0,1-.54.2,2.13,2.13,0,0,1-.64.1c-.89,0-1.34-.49-1.34-1.48v-1.59h-.56V156l1.66-1.92h.14v1.19h1.18v1H48.25v1.27a3.21,3.21,0,0,0,0,.36.43.43,0,0,0,.14.23.53.53,0,0,0,.34.09,1.64,1.64,0,0,0,.78-.28Z" style="fill: #ededed"/>
    <line x1="21.56" y1="289.73" x2="21.56" y2="302.98" style="fill: #231f20"/>
    <rect x="21.06" y="289.73" width="1" height="7.94"/>
    <polygon points="19.53 296.48 21.56 302.98 23.59 296.48 19.53 296.48"/>
    <line x1="64.76" y1="289.73" x2="64.76" y2="302.98" style="fill: #231f20"/>
    <rect x="64.26" y="289.73" width="1" height="7.94"/>
    <polygon points="62.73 296.48 64.76 302.98 66.79 296.48 62.73 296.48"/>
    <line x1="21.56" y1="123.88" x2="21.56" y2="137.13"/>
    <rect x="21.06" y="123.88" width="1" height="7.94"/>
    <polygon points="19.53 130.63 21.56 137.13 23.59 130.63 19.53 130.63"/>
    <line x1="64.76" y1="123.88" x2="64.76" y2="137.13"/>
    <rect x="64.26" y="123.88" width="1" height="7.94"/>
    <polygon points="62.73 130.63 64.76 137.13 66.79 130.63 62.73 130.63"/>
    <line x1="7.07" y1="185.78" x2="77.25" y2="185.78" style="fill: #231f20"/>
    <path d="M77.25,186.28H7.07a.5.5,0,0,1-.5-.5.5.5,0,0,1,.5-.5H77.25a.5.5,0,0,1,.5.5.5.5,0,0,1-.5.5"/>
    <polygon points="40.14 322.85 36.52 322.85 36.52 317.44 37.95 317.44 37.95 321.56 40.14 321.56 40.14 322.85" style="fill: #ededed"/>
    <path d="M41.79,322.85H40.55v-4h1.24Zm-.1-4.89a.64.64,0,0,1-.15.42.51.51,0,0,1-.37.17.47.47,0,0,1-.26-.08.48.48,0,0,1-.19-.21.6.6,0,0,1-.07-.3.64.64,0,0,1,.15-.42.45.45,0,0,1,.37-.17.48.48,0,0,1,.37.17.64.64,0,0,1,.15.42" style="fill: #ededed"/>
    <path d="M46.1,322.85H44.86v-2.14a1.62,1.62,0,0,0-.09-.57.4.4,0,0,0-.42-.25.53.53,0,0,0-.26.07.83.83,0,0,0-.21.16l-.15.2-.13.2v2.33H42.36v-4H43.6v.57a1.66,1.66,0,0,1,.59-.5,1.51,1.51,0,0,1,.65-.14q1.26,0,1.26,1.71Z" style="fill: #ededed"/>
    <path d="M50.15,321.21H47.68a1,1,0,0,0,.36.59,1,1,0,0,0,.64.23,3,3,0,0,0,1.38-.4v.87a2.9,2.9,0,0,1-.66.29,3.06,3.06,0,0,1-1,.13,2.09,2.09,0,0,1-1.1-.27,1.67,1.67,0,0,1-.68-.74,2.43,2.43,0,0,1-.23-1.06,2.38,2.38,0,0,1,.23-1.05,1.65,1.65,0,0,1,.68-.73,2.18,2.18,0,0,1,1.1-.26,1.75,1.75,0,0,1,.82.21,1.59,1.59,0,0,1,.65.68,2.57,2.57,0,0,1,.26,1.22Zm-1.16-.7a1,1,0,0,0-.17-.61.56.56,0,0,0-.48-.23.63.63,0,0,0-.5.23.93.93,0,0,0-.19.61Z" style="fill: #ededed"/>
    <path d="M42.23,328.14a3.12,3.12,0,0,1-.31,1.4,2.4,2.4,0,0,1-.91,1,2.78,2.78,0,0,1-1.48.37,2.75,2.75,0,0,1-1.5-.39,2.42,2.42,0,0,1-.91-1,3.19,3.19,0,0,1-.3-1.37,3.14,3.14,0,0,1,.3-1.36,2.44,2.44,0,0,1,.91-1,2.83,2.83,0,0,1,1.5-.38,2.87,2.87,0,0,1,1.17.22,2.33,2.33,0,0,1,.85.6,2.62,2.62,0,0,1,.51.89,3.41,3.41,0,0,1,.17,1.06m-1.46,0a1.87,1.87,0,0,0-.08-.55,1.43,1.43,0,0,0-.24-.44,1.14,1.14,0,0,0-.92-.39,1.12,1.12,0,0,0-.91.38,1.47,1.47,0,0,0-.33,1,1.5,1.5,0,0,0,.33,1,1.12,1.12,0,0,0,.91.38,1.31,1.31,0,0,0,.67-.17,1.14,1.14,0,0,0,.42-.5,1.66,1.66,0,0,0,.15-.72" style="fill: #ededed"/>
    <path d="M46.32,330.85H45.09v-.56a2.18,2.18,0,0,1-.55.48,1.49,1.49,0,0,1-.69.15,1,1,0,0,1-1-.52,3,3,0,0,1-.23-1.19v-2.33h1.23V329a1.6,1.6,0,0,0,.1.56.39.39,0,0,0,.41.25.54.54,0,0,0,.43-.18,2.19,2.19,0,0,0,.33-.45v-2.33h1.23Z" style="fill: #ededed"/>
    <path d="M49.6,330.62a3.23,3.23,0,0,1-.53.21,2.6,2.6,0,0,1-.65.09c-.89,0-1.34-.49-1.34-1.48v-1.59h-.56v-.24l1.66-1.92h.14v1.19H49.5v1H48.32v1.28a1.73,1.73,0,0,0,0,.36.39.39,0,0,0,.13.23.55.55,0,0,0,.34.09,1.76,1.76,0,0,0,.78-.28Z" style="fill: #ededed"/>
    <path d="M39.37,313.25h-.76v-2.39a4.46,4.46,0,0,1,4.73-4,4.5,4.5,0,0,1,4.73,4c0,.07,0,.13,0,.2v2.12h-.77v-2.28a3.74,3.74,0,0,0-4-3.23,3.76,3.76,0,0,0-4,3.29Z" style="fill: #ededed"/>
    <path d="M39.32,315.19h.89a.72.72,0,0,0,.72-.72v-2.38a.72.72,0,0,0-.72-.72h-.89a.72.72,0,0,0-.72.72v2.38a.73.73,0,0,0,.72.72" style="fill: #ededed"/>
    <path d="M46.47,315.19h.89a.72.72,0,0,0,.72-.72v-2.38a.72.72,0,0,0-.72-.72h-.89a.72.72,0,0,0-.72.72v2.38a.72.72,0,0,0,.72.72" style="fill: #ededed"/>
    <path d="M48.5,312.37c-.06,0-.1,0-.1.06v1.65c0,.06,0,.08.1.06l.41-.22a.18.18,0,0,0,.1-.16v-1a.19.19,0,0,0-.1-.16Z" style="fill: #ededed"/>
    <path d="M38.16,312.37c.05,0,.09,0,.09.06v1.65c0,.06,0,.09-.1.06l-.39-.18a.16.16,0,0,1-.1-.15v-1.05a.22.22,0,0,1,.09-.17Z" style="fill: #ededed"/>
    <g>
      <path d="M26.44,345.66h-4v-6.47H24v4.92h2.43Z"/>
      <path d="M29,345.66h-1.6v-6.47H29Z"/>
      <path d="M34,343.78a2,2,0,0,1-.25,1.05,1.72,1.72,0,0,1-.71.68,2.19,2.19,0,0,1-1,.24l-.41,0a3.71,3.71,0,0,1-.63-.14,4.11,4.11,0,0,1-.83-.35v-1.58a5.42,5.42,0,0,0,.79.5,1.85,1.85,0,0,0,.83.2c.28,0,.45-.05.53-.16a.58.58,0,0,0,.12-.31.56.56,0,0,0-.2-.45,3,3,0,0,0-.6-.37,4.42,4.42,0,0,1-.77-.49,2,2,0,0,1-.54-.66,2.26,2.26,0,0,1,0-1.88,1.61,1.61,0,0,1,.64-.68A2.16,2.16,0,0,1,32,339.1a3.07,3.07,0,0,1,.82.11,3.56,3.56,0,0,1,.62.23l.34.21v1.52a4.31,4.31,0,0,0-.73-.51,1.73,1.73,0,0,0-.86-.23.6.6,0,0,0-.43.14.49.49,0,0,0-.13.35.44.44,0,0,0,.13.33,2.33,2.33,0,0,0,.48.34,7.69,7.69,0,0,1,1,.63,2.23,2.23,0,0,1,.58.65A1.8,1.8,0,0,1,34,343.78Z"/>
      <path d="M40.2,340.76h-2v4.9H36.66v-4.9H34.71v-1.57H40.2Z"/>
      <path d="M45.13,345.66h-4v-6.47h3.93v1.3H42.73v1.19H45V343H42.73v1.38h2.4Z"/>
      <path d="M52,345.66H50.54l-2.75-3.6v3.6H46.2v-6.47h1.42l2.75,3.59v-3.59H52Z"/>
      <path d="M57.23,345.66h-1.6v-6.47h1.6Z"/>
      <path d="M64.24,342.42a4,4,0,0,1-.34,1.67,2.81,2.81,0,0,1-1,1.21,2.91,2.91,0,0,1-1.65.45,2.8,2.8,0,0,1-2.68-1.7,4.19,4.19,0,0,1,0-3.26,2.76,2.76,0,0,1,1-1.22,2.87,2.87,0,0,1,1.66-.47,3,3,0,0,1,1.31.27,2.66,2.66,0,0,1,1,.72,3.16,3.16,0,0,1,.56,1.06A4.11,4.11,0,0,1,64.24,342.42Zm-1.63,0a2.71,2.71,0,0,0-.08-.66,1.56,1.56,0,0,0-.27-.53,1.3,1.3,0,0,0-.43-.34,1.43,1.43,0,0,0-.6-.13,1.25,1.25,0,0,0-1,.46,2.15,2.15,0,0,0,0,2.41,1.26,1.26,0,0,0,1,.46,1.28,1.28,0,0,0,.75-.22,1.26,1.26,0,0,0,.47-.59A2.1,2.1,0,0,0,62.61,342.42Z"/>
    </g>
    <path d="M70,305c6.48,0,11.73,6.8,11.73,14.29s-5.25,14.3-11.73,14.3H16.63c-6.48,0-11.73-6.8-11.73-14.3S10.15,305,16.63,305H70m0-1H16.63c-6.9,0-12.73,7-12.73,15.29s5.83,15.3,12.73,15.3H70c6.9,0,12.73-7,12.73-15.3S76.93,304,70,304"/>
  </g>
  <g id="components">
    <circle id="Line_Out_R" data-name="Line Out R" cx="64.76" cy="319.12" r="11.34" style="fill: blue"/>
    <circle id="Line_Out_L" data-name="Line Out L" cx="21.57" cy="319.12" r="11.34" style="fill: blue"/>
    <circle id="Mod_In_R" data-name="Mod In R" cx="64.95" cy="279.34" r="11.34" style="fill: lime"/>
    <circle id="Mod_In_L" data-name="Mod In L" cx="21.57" cy="279.34" r="11.34" style="fill: lime"/>
    <circle id="LED_R2_1" data-name="LED R2 1" cx="76.1" cy="246.8" r="4.25" style="fill: #f0f"/>
    <circle id="LED_R2_2" data-name="LED R2 2" cx="76.1" cy="233.75" r="4.25" style="fill: #f0f"/>
    <circle id="LED_R2_3" data-name="LED R2 3" cx="76.1" cy="220.79" r="4.25" style="fill: #f0f"/>
    <circle id="LED_R2_4" data-name="LED R2 4" cx="76.1" cy="207.58" r="4.25" style="fill: #f0f"/>
    <circle id="Level" cx="43.21" cy="227.57" r="17.01" style="fill: #ff0070"/>
    <circle id="LED_L2_1" data-name="LED L2 1" cx="10.34" cy="246.8" r="4.25" style="fill: #f0f"/>
    <circle id="LED_L2_2" data-name="LED L2 2" cx="10.34" cy="233.75" r="4.25" style="fill: #f0f"/>
    <circle id="LED_L2_3" data-name="LED L2 3" cx="10.34" cy="220.79" r="4.25" style="fill: #f0f"/>
    <circle id="LED_L2_4" data-name="LED L2 4" cx="10.34" cy="207.58" r="4.25" style="fill: #f0f"/>
    <circle id="Mod_Out_R" data-name="Mod Out R" cx="64.76" cy="153.09" r="11.34" style="fill: blue"/>
    <circle id="Mod_Out_L" data-name="Mod Out L" cx="21.57" cy="153.09" r="11.34" style="fill: blue"/>
    <circle id="Line_In_R" data-name="Line In R" cx="64.95" cy="113.49" r="11.34" style="fill: lime"/>
    <circle id="Line_In_L" data-name="Line In L" cx="21.57" cy="113.49" r="11.34" style="fill: lime"/>
    <circle id="LED_R1_1" data-name="LED R1 1" cx="76.1" cy="80.34" r="4.25" style="fill: #f0f"/>
    <circle id="LED_R1_2" data-name="LED R1 2" cx="76.1" cy="67.29" r="4.25" style="fill: #f0f"/>
    <circle id="LED_R1_3" data-name="LED R1 3" cx="76.1" cy="54.33" r="4.25" style="fill: #f0f"/>
    <circle id="LED_R1_4" data-name="LED R1 4" cx="76.1" cy="41.12" r="4.25" style="fill: #f0f"/>
    <circle id="Gain" cx="43.21" cy="61.27" r="17.01" style="fill: #ff0070"/>
    <circle id="LED_L1_1" data-name="LED L1 1" cx="10.34" cy="80.34" r="4.25" style="fill: #f0f"/>
    <circle id="LED_L1_2" data-name="LED L1 2" cx="10.34" cy="67.29" r="4.25" style="fill: #f0f"/>
    <circle id="LED_L1_3" data-name="LED L1 3" cx="10.34" cy="54.33" r="4.25" style="fill: #f0f"/>
    <circle id="LED_L1_4" data-name="LED L1 4" cx="10.34" cy="41.12" r="4.25" style="fill: #f0f"/>
    <text id="slug" transform="translate(17.4 372.54)" style="font-size: 6px;font-family: MyriadPro-Regular, Myriad Pro">LIO</text>
    <text id="modulename" transform="translate(41.92 372.54)" style="font-size: 6px;font-family: MyriadPro-Regular, Myriad Pro">Lis<tspan x="6.61" y="0" style="letter-spacing: -0.006184895833333333em">t</tspan><tspan x="8.56" y="0">en IO</tspan></text>
  </g>
</svg>
