<svg xmlns="http://www.w3.org/2000/svg" xmlns:xlink="http://www.w3.org/1999/xlink" width="57.85" height="370.19" viewBox="0 0 57.85 370.19">
  <defs>
    <clipPath id="clip-path">
      <rect x="15.02" y="33.74" width="27.8" height="25.62" style="fill: none"/>
    </clipPath>
  </defs>
  <g id="faceplate">
    <rect x="0.13" y="0.13" width="57.6" height="364.25" style="fill: #ededed;stroke: #9d9d9e;stroke-miterlimit: 10;stroke-width: 0.25px"/>
    <g>
      <path d="M34.54,6.76l-5.53,7v-6a1.27,1.27,0,0,0-.64-1.17.89.89,0,0,0-1.13.29L20,16.13a1.49,1.49,0,0,0,0,1.79.9.9,0,0,0,1.46,0l5.5-7v6a1.29,1.29,0,0,0,.64,1.18.92.92,0,0,0,1.14-.3l5.53-7v6.15a1.05,1.05,0,1,0,2.06,0V7.64a1.28,1.28,0,0,0-.65-1.18A.91.91,0,0,0,34.54,6.76Z" style="stroke: #000;stroke-width: 0.6000000000000001px"/>
      <path d="M20,6.68l-4.81,6.13a1.47,1.47,0,0,0,0,1.79.9.9,0,0,0,1.46,0l3.05-3.87V17a1.17,1.17,0,0,0,1,1.26,1.17,1.17,0,0,0,1-1.26V7.56a1.29,1.29,0,0,0-.65-1.17A.91.91,0,0,0,20,6.68Z" style="stroke: #000;stroke-width: 0.6000000000000001px"/>
      <path d="M42.91,11.2a1.05,1.05,0,0,0-.95-.77h-2.1l1.53-1.95s.8-1.17.1-1.82a1.27,1.27,0,0,0-1.58.06l-3.23,4.1a1.45,1.45,0,0,0-.2,1.37,1,1,0,0,0,1,.78h2.1L37,16.14s-1,1.13-.27,1.89,1.75-.14,1.75-.14l4.18-5.31A1.5,1.5,0,0,0,42.91,11.2Z" style="stroke: #000;stroke-width: 0.6000000000000001px"/>
    </g>
    <g>
      <path d="M24.2,352.28a2.84,2.84,0,0,1-.12.81,2.4,2.4,0,0,1-.37.73,2,2,0,0,1-.71.56,2.38,2.38,0,0,1-1,.21H20.75v2.79H18.91v-7.44H22a2.38,2.38,0,0,1,1,.21,1.91,1.91,0,0,1,.71.56,2.39,2.39,0,0,1,.37.75A2.81,2.81,0,0,1,24.2,352.28Zm-1.88,0a.87.87,0,0,0-.25-.73,1.62,1.62,0,0,0-.93-.2h-.39v1.8h.4a3.12,3.12,0,0,0,.71-.07.56.56,0,0,0,.35-.26A1,1,0,0,0,22.32,352.29Z"/>
      <path d="M31.92,357.38H30l-.5-1.51H26.89l-.51,1.51H24.5l2.7-7.44h2Zm-2.8-2.8-.9-2.72-.9,2.72Z"/>
      <path d="M39.36,357.38H37.72l-3.16-4.15v4.15H32.73v-7.44h1.64l3.16,4.12v-4.12h1.83Z"/>
    </g>
    <path d="M29.28,150.53c8,0,14.54,6,14.54,13.46v109.2c0,7.42-6.52,13.46-14.54,13.46s-14.54-6-14.54-13.46V164c0-7.42,6.52-13.46,14.54-13.46m0-1.05c-8.61,0-15.59,6.5-15.59,14.51v109.2c0,8,7,14.51,15.59,14.51s15.59-6.49,15.59-14.51V164c0-8-7-14.51-15.59-14.51Z"/>
    <path d="M44.73,261c0-8.08-7-14.62-15.59-14.62S13.55,252.91,13.55,261v55.54h0v19.84A5.68,5.68,0,0,0,19.22,342H39.06a5.68,5.68,0,0,0,5.67-5.67V316.53h0Z"/>
    <g>
      <path d="M29,192.66a3.23,3.23,0,0,1-.6.28,3.6,3.6,0,0,1-.63.15,4.54,4.54,0,0,1-.65,0,3,3,0,0,1-1.11-.19,2.3,2.3,0,0,1-.86-.58,2.45,2.45,0,0,1-.54-.89,3.33,3.33,0,0,1-.18-1.12,3.28,3.28,0,0,1,.21-1.22,2.44,2.44,0,0,1,1.47-1.39,3.22,3.22,0,0,1,1-.16A4.89,4.89,0,0,1,29,188v1.43a5.76,5.76,0,0,0-.7-.41,1.86,1.86,0,0,0-.81-.17,1.61,1.61,0,0,0-.78.19,1.48,1.48,0,0,0-.58.53,1.61,1.61,0,0,0,0,1.57,1.4,1.4,0,0,0,.54.54,1.43,1.43,0,0,0,.77.2,2.39,2.39,0,0,0,.66-.09,3.25,3.25,0,0,0,.52-.22,4.28,4.28,0,0,0,.43-.27Z" style="fill: #231f20"/>
      <path d="M34.36,187.65l-2.15,5.48h-.95l-2.11-5.48h1.5l1.09,3.13,1.12-3.13Z" style="fill: #231f20"/>
    </g>
    <g>
      <path d="M27.9,239.9H26.46v-5.41H27.9Z" style="fill: #231f20"/>
      <path d="M32.35,239.9H31.12v-2.14a1.42,1.42,0,0,0-.1-.57.39.39,0,0,0-.41-.25.5.5,0,0,0-.27.07.74.74,0,0,0-.2.16.94.94,0,0,0-.16.2l-.12.2v2.33H28.62v-4h1.24v.57a1.73,1.73,0,0,1,.58-.5,1.45,1.45,0,0,1,.66-.14c.84,0,1.25.57,1.25,1.71Z" style="fill: #231f20"/>
    </g>
    <g>
      <path d="M25.51,287.09a3.23,3.23,0,0,1-.3,1.4,2.42,2.42,0,0,1-.92,1,3.08,3.08,0,0,1-3,0,2.42,2.42,0,0,1-.9-1,3.19,3.19,0,0,1-.3-1.37,3.29,3.29,0,0,1,.29-1.36,2.42,2.42,0,0,1,.91-1,2.75,2.75,0,0,1,1.5-.39,3,3,0,0,1,1.18.22,2.42,2.42,0,0,1,.85.6,2.6,2.6,0,0,1,.5.89A3.14,3.14,0,0,1,25.51,287.09Zm-1.46,0a1.92,1.92,0,0,0-.08-.55,1.11,1.11,0,0,0-.24-.44,1.05,1.05,0,0,0-.39-.29,1.25,1.25,0,0,0-.53-.1,1.15,1.15,0,0,0-.91.38,1.7,1.7,0,0,0,0,2,1.15,1.15,0,0,0,.91.39,1.2,1.2,0,0,0,.67-.18,1.14,1.14,0,0,0,.43-.49A1.83,1.83,0,0,0,24.05,287.09Z" style="fill: #fff"/>
      <path d="M29.61,289.81H28.37v-.57a2,2,0,0,1-.55.48,1.46,1.46,0,0,1-.69.16,1,1,0,0,1-1-.53,2.8,2.8,0,0,1-.24-1.18v-2.34h1.24V288a1.48,1.48,0,0,0,.1.57.39.39,0,0,0,.41.24.55.55,0,0,0,.43-.18,3,3,0,0,0,.32-.44v-2.34h1.24Z" style="fill: #fff"/>
      <path d="M32.88,289.58a3,3,0,0,1-.53.2,2.5,2.5,0,0,1-.65.1c-.89,0-1.33-.5-1.33-1.49v-1.58h-.56v-.25l1.66-1.92h.14v1.19h1.18v1H31.61v1.27a1.84,1.84,0,0,0,0,.36.37.37,0,0,0,.14.23.51.51,0,0,0,.34.09,1.65,1.65,0,0,0,.77-.28Z" style="fill: #fff"/>
      <path d="M37.3,289.81H36v-5.42H37.3Z" style="fill: #fff"/>
    </g>
    <g>
      <path d="M25.51,334.35a3.26,3.26,0,0,1-.3,1.4,2.42,2.42,0,0,1-.92,1,3.11,3.11,0,0,1-3,0,2.39,2.39,0,0,1-.9-1,3.19,3.19,0,0,1-.3-1.37A3.29,3.29,0,0,1,20.4,333a2.38,2.38,0,0,1,.91-1,2.74,2.74,0,0,1,1.5-.38,3,3,0,0,1,1.18.22,2.42,2.42,0,0,1,.85.6,2.6,2.6,0,0,1,.5.89A3.14,3.14,0,0,1,25.51,334.35Zm-1.46,0a1.87,1.87,0,0,0-.08-.55,1.11,1.11,0,0,0-.24-.44,1,1,0,0,0-.39-.29,1.25,1.25,0,0,0-.53-.1,1.12,1.12,0,0,0-.91.38,1.47,1.47,0,0,0-.33,1,1.5,1.5,0,0,0,.33,1,1.18,1.18,0,0,0,.91.38,1.28,1.28,0,0,0,.67-.17,1.17,1.17,0,0,0,.43-.5A1.81,1.81,0,0,0,24.05,334.35Z" style="fill: #fff"/>
      <path d="M29.61,337.06H28.37v-.56a2,2,0,0,1-.55.48,1.47,1.47,0,0,1-.69.15,1,1,0,0,1-1-.52,2.84,2.84,0,0,1-.24-1.19v-2.33h1.24v2.15a1.4,1.4,0,0,0,.1.56.39.39,0,0,0,.41.25.55.55,0,0,0,.43-.18,3.8,3.8,0,0,0,.32-.45v-2.33h1.24Z" style="fill: #fff"/>
      <path d="M32.88,336.83a2.9,2.9,0,0,1-.53.21,2.48,2.48,0,0,1-.65.09c-.89,0-1.33-.49-1.33-1.48v-1.59h-.56v-.24l1.66-1.92h.14v1.19h1.18v1H31.61v1.28a1.89,1.89,0,0,0,0,.36.35.35,0,0,0,.14.22.46.46,0,0,0,.34.1,1.77,1.77,0,0,0,.77-.28Z" style="fill: #fff"/>
      <path d="M38.46,337.06H34.85V337l.46-.55.64-.85c.12-.16.24-.32.34-.47a3.68,3.68,0,0,0,.28-.45,2.88,2.88,0,0,0,.19-.47,2,2,0,0,0,.08-.54.93.93,0,0,0-.19-.61.62.62,0,0,0-.49-.23,1.59,1.59,0,0,0-1.16.69V332.2l.33-.24a2.14,2.14,0,0,1,.3-.17,2,2,0,0,1,.91-.21,1.56,1.56,0,0,1,.8.2,1.37,1.37,0,0,1,.56.58,1.8,1.8,0,0,1,.2.89,2.41,2.41,0,0,1-.09.67,2.29,2.29,0,0,1-.19.5l-.27.48a8.69,8.69,0,0,1-.63,1h1.54Z" style="fill: #fff"/>
    </g>
    <g id="pips_-_fewest" data-name="pips - fewest">
      <g style="clip-path: url(#clip-path)">
        <g style="clip-path: url(#clip-path)">
          <path d="M34.62,36.52l.71-1.24a13.86,13.86,0,0,0-5.77-1.54v1.43a12.39,12.39,0,0,1,5.06,1.35"/>
          <path d="M39.41,40.85l1.24-.71a14,14,0,0,0-4.23-4.22l-.71,1.23a12.55,12.55,0,0,1,3.7,3.7"/>
          <path d="M22.14,37.15l-.71-1.23a14,14,0,0,0-4.23,4.22l1.24.71a12.55,12.55,0,0,1,3.7-3.7"/>
          <path d="M41.4,47h1.43a13.83,13.83,0,0,0-1.55-5.77L40.05,42A12.47,12.47,0,0,1,41.4,47"/>
          <path d="M28.29,35.17V33.74a13.86,13.86,0,0,0-5.77,1.54l.71,1.24a12.39,12.39,0,0,1,5.06-1.35"/>
          <path d="M18.44,54.43l-1.24.71a14,14,0,0,0,4.23,4.22l.71-1.23a12.55,12.55,0,0,1-3.7-3.7"/>
          <path d="M35.71,58.13l.71,1.23a14,14,0,0,0,4.23-4.22l-1.24-.71a12.55,12.55,0,0,1-3.7,3.7"/>
          <path d="M41.4,48.27a12.47,12.47,0,0,1-1.35,5.06l1.23.71a13.83,13.83,0,0,0,1.55-5.77Z"/>
          <path d="M16.45,48.27H15A13.83,13.83,0,0,0,16.57,54l1.23-.71a12.47,12.47,0,0,1-1.35-5.06"/>
          <path d="M17.8,42l-1.23-.71A13.83,13.83,0,0,0,15,47h1.43A12.47,12.47,0,0,1,17.8,42"/>
        </g>
      </g>
    </g>
    <g>
      <path d="M26.93,64.83a2.27,2.27,0,0,1-.11.73,2.11,2.11,0,0,1-.37.67,1.77,1.77,0,0,1-.68.5,2.47,2.47,0,0,1-1,.2H23.57v2.53H21.78V62.7h3a2.48,2.48,0,0,1,1,.19,1.79,1.79,0,0,1,.68.51,2.05,2.05,0,0,1,.37.68A2.35,2.35,0,0,1,26.93,64.83Zm-1.83,0a.76.76,0,0,0-.25-.67A1.73,1.73,0,0,0,24,64h-.38v1.63H24a2.47,2.47,0,0,0,.69-.07.56.56,0,0,0,.35-.23A1,1,0,0,0,25.1,64.84Z"/>
      <path d="M31.86,69.22a5.56,5.56,0,0,1-.62.24,2.43,2.43,0,0,1-.7.09A.75.75,0,0,1,30,69.4.83.83,0,0,1,29.8,69a2.13,2.13,0,0,1-.56.38,1.81,1.81,0,0,1-.8.15,1.4,1.4,0,0,1-.77-.19,1,1,0,0,1-.41-.47,1.52,1.52,0,0,1-.12-.59,1.31,1.31,0,0,1,.21-.76,1.51,1.51,0,0,1,.54-.49,7,7,0,0,1,.91-.39l.49-.18.25-.1.17-.08a1,1,0,0,0-.13-.57c-.08-.14-.27-.21-.56-.21a1.85,1.85,0,0,0-.94.26,3.46,3.46,0,0,0-.79.65V65.08a3,3,0,0,1,.62-.38,3.35,3.35,0,0,1,.7-.22,3.64,3.64,0,0,1,.74-.07,2.18,2.18,0,0,1,1.43.41A1.44,1.44,0,0,1,31.26,66v1.92a1.44,1.44,0,0,0,0,.41.17.17,0,0,0,.17.13.77.77,0,0,0,.39-.14Zm-2.15-1V67.09a4.35,4.35,0,0,0-.8.45.68.68,0,0,0-.26.55.53.53,0,0,0,.13.38.38.38,0,0,0,.29.14.56.56,0,0,0,.32-.11A2,2,0,0,0,29.71,68.26Z"/>
      <path d="M36.67,69.46H35.12V66.78a1.92,1.92,0,0,0-.12-.71.49.49,0,0,0-.51-.31.74.74,0,0,0-.34.08,1.71,1.71,0,0,0-.26.21c-.07.09-.14.17-.19.25l-.16.24v2.92H32v-5h1.54v.72a2.3,2.3,0,0,1,.74-.63,1.94,1.94,0,0,1,.82-.17c1,0,1.57.71,1.57,2.13Z"/>
    </g>
  </g>
  <g id="components">
    <circle id="Out_2" data-name="Out 2" cx="29.28" cy="311.88" r="11.34" style="fill: blue"/>
    <circle id="Out_1" data-name="Out 1" cx="29.28" cy="264.29" r="11.34" style="fill: blue"/>
    <circle id="In" cx="29.28" cy="215.19" r="11.34" style="fill: lime"/>
    <circle id="CV" cx="29.28" cy="167.1" r="11.34" style="fill: lime"/>
    <circle id="Pan" cx="28.93" cy="47.42" r="8.5" style="fill: #ff0040"/>
    <text id="slug" transform="translate(34.53 369.44)" style="font-size: 3px;font-family: MyriadPro-Regular, Myriad Pro"><tspan style="letter-spacing: -0.083984375em">P</tspan><tspan x="1.34" y="0">AN</tspan></text>
    <text id="modulename" transform="translate(47.85 369.44)" style="font-size: 3px;font-family: MyriadPro-Regular, Myriad Pro"><tspan style="letter-spacing: -0.026041666666666668em">P</tspan><tspan x="1.52" y="0">anner</tspan></text>
  </g>
</svg>
