<?xml version="1.0" encoding="UTF-8"?>
<svg xmlns="http://www.w3.org/2000/svg" width="40.73mm" height="130.34mm" viewBox="0 0 115.45 369.47">
  <g id="faceplate">
    <rect x=".12" y=".12" width="115.2" height="364.25" style="fill: #ededed; stroke: #9d9d9e; stroke-miterlimit: 10; stroke-width: .25px;"/>
    <path d="m57.02,217.92c0-6.73-5.2-12.94-11.93-12.94h-27.91c-6.73,0-12.55,6.1-12.55,12.83v76.26h52.39v-76.15Z" style="fill: #171717;"/>
    <path d="m30.93,34.53c-.83,0-1.65.07-2.45.17l-.39-2.21c.93-.12,1.88-.19,2.84-.19s1.91.07,2.84.19l-.39,2.21c-.81-.1-1.62-.17-2.45-.17Z" style="fill: #171717;"/>
    <path d="m16.43,40.9l-1.73-1.45c1.28-1.4,2.74-2.63,4.34-3.66l1.12,1.94c-1.38.9-2.62,1.96-3.73,3.17Z" style="fill: #171717;"/>
    <path d="m21.9,36.73l-1.12-1.95c1.67-.87,3.46-1.53,5.34-1.96l.39,2.21c-1.62.37-3.16.94-4.61,1.69Z" style="fill: #171717;"/>
    <path d="m12.7,46.67l-2.1-.76c.73-1.77,1.69-3.42,2.83-4.92l1.73,1.45c-.98,1.3-1.82,2.71-2.46,4.23Z" style="fill: #171717;"/>
    <path d="m35.35,35.04l.39-2.21c1.88.42,3.67,1.08,5.34,1.95l-1.12,1.95c-1.44-.74-2.98-1.31-4.6-1.69Z" style="fill: #171717;"/>
    <path d="m11.21,53.36h-2.26c.08-1.93.41-3.8.96-5.58l2.11.77c-.47,1.53-.73,3.15-.81,4.81Z" style="fill: #171717;"/>
    <path d="m12.07,60.16l-2.1.76c-.57-1.79-.91-3.65-1.01-5.56h2.23c.09,1.65.39,3.25.88,4.8Z" style="fill: #171717;"/>
    <path d="m15.21,66.24l-1.71,1.44c-1.15-1.5-2.11-3.14-2.84-4.88l2.1-.77c.64,1.5,1.46,2.91,2.45,4.2Z" style="fill: #171717;"/>
    <path d="m46.7,42.43l1.73-1.45c1.14,1.5,2.1,3.15,2.83,4.92l-2.1.76c-.64-1.52-1.48-2.93-2.46-4.23Z" style="fill: #171717;"/>
    <path d="m49.83,48.55l2.11-.77c.55,1.78.88,3.65.96,5.58h-2.26c-.08-1.66-.34-3.28-.81-4.81Z" style="fill: #171717;"/>
    <path d="m50.65,55.36h2.23c-.09,1.91-.44,3.78-1.01,5.56l-2.1-.77c.48-1.54.79-3.15.88-4.8Z" style="fill: #171717;"/>
    <path d="m49.09,62.04l2.11.77c-.73,1.74-1.69,3.38-2.84,4.88l-1.71-1.44c.99-1.3,1.81-2.71,2.45-4.2Z" style="fill: #171717;"/>
    <path d="m20.23,70.89l-1.12,1.93c-1.61-1.03-3.05-2.24-4.32-3.62l1.71-1.44c1.1,1.18,2.34,2.23,3.72,3.12Z" style="fill: #171717;"/>
    <path d="m45.35,67.77l1.71,1.44c-1.27,1.37-2.71,2.59-4.32,3.62l-1.12-1.93c1.38-.89,2.62-1.94,3.72-3.12Z" style="fill: #171717;"/>
    <path d="m41.68,37.73l1.12-1.94c1.6,1.03,3.06,2.26,4.34,3.66l-1.73,1.45c-1.11-1.2-2.36-2.27-3.74-3.17Z" style="fill: #171717;"/>
    <path d="m30.9,141.05c-.52,0-1.04.04-1.54.11l-.25-1.39c.59-.08,1.18-.12,1.79-.12s1.2.04,1.79.12l-.24,1.39c-.51-.06-1.02-.11-1.54-.11Z" style="fill: #171717;"/>
    <path d="m21.79,145.05l-1.09-.91c.8-.88,1.72-1.65,2.73-2.3l.7,1.22c-.86.56-1.65,1.24-2.35,1.99Z" style="fill: #171717;"/>
    <path d="m25.23,142.43l-.71-1.22c1.05-.55,2.17-.96,3.36-1.23l.25,1.39c-1.02.23-1.99.59-2.9,1.06Z" style="fill: #171717;"/>
    <path d="m19.44,148.68l-1.32-.48c.46-1.11,1.06-2.15,1.78-3.09l1.09.91c-.62.82-1.14,1.7-1.54,2.66Z" style="fill: #171717;"/>
    <path d="m33.68,141.37l.25-1.39c1.18.27,2.31.68,3.36,1.23l-.71,1.22c-.91-.47-1.88-.83-2.89-1.06Z" style="fill: #171717;"/>
    <path d="m18.51,152.89h-1.42c.05-1.21.26-2.39.6-3.51l1.32.48c-.29.96-.46,1.98-.51,3.03Z" style="fill: #171717;"/>
    <path d="m19.05,157.16l-1.32.48c-.36-1.12-.57-2.3-.63-3.5h1.4c.06,1.04.25,2.05.55,3.02Z" style="fill: #171717;"/>
    <path d="m21.02,160.99l-1.08.9c-.72-.94-1.32-1.97-1.79-3.07l1.32-.48c.4.94.92,1.83,1.54,2.64Z" style="fill: #171717;"/>
    <path d="m40.82,146.02l1.09-.91c.72.94,1.32,1.98,1.78,3.09l-1.32.48c-.4-.96-.93-1.84-1.54-2.66Z" style="fill: #171717;"/>
    <path d="m42.79,149.86l1.33-.48c.35,1.12.55,2.29.6,3.51h-1.42c-.05-1.05-.22-2.06-.51-3.03Z" style="fill: #171717;"/>
    <path d="m43.31,154.15h1.41c-.06,1.2-.28,2.38-.63,3.5l-1.32-.48c.3-.97.49-1.98.55-3.02Z" style="fill: #171717;"/>
    <path d="m42.32,158.34l1.32.48c-.46,1.09-1.06,2.12-1.79,3.07l-1.08-.9c.62-.82,1.14-1.7,1.54-2.64Z" style="fill: #171717;"/>
    <path d="m24.18,163.91l-.7,1.22c-1.01-.65-1.92-1.41-2.72-2.27l1.08-.9c.69.74,1.47,1.4,2.34,1.96Z" style="fill: #171717;"/>
    <path d="m39.97,161.94l1.08.9c-.8.86-1.71,1.63-2.72,2.27l-.7-1.22c.87-.56,1.65-1.22,2.34-1.96Z" style="fill: #171717;"/>
    <path d="m37.66,143.06l.71-1.22c1.01.65,1.93,1.42,2.73,2.3l-1.09.91c-.7-.76-1.48-1.43-2.35-1.99Z" style="fill: #171717;"/>
    <path d="m30.9,96.89c-.52,0-1.04.04-1.54.11l-.25-1.39c.59-.08,1.18-.12,1.79-.12s1.2.04,1.79.12l-.24,1.39c-.51-.06-1.02-.11-1.54-.11Z" style="fill: #171717;"/>
    <path d="m21.79,100.89l-1.09-.91c.8-.88,1.72-1.65,2.73-2.3l.7,1.22c-.86.56-1.65,1.24-2.35,1.99Z" style="fill: #171717;"/>
    <path d="m25.23,98.27l-.71-1.22c1.05-.55,2.17-.96,3.36-1.23l.25,1.39c-1.02.23-1.99.59-2.9,1.06Z" style="fill: #171717;"/>
    <path d="m19.44,104.52l-1.32-.48c.46-1.11,1.06-2.15,1.78-3.09l1.09.91c-.62.82-1.14,1.71-1.54,2.66Z" style="fill: #171717;"/>
    <path d="m33.68,97.21l.25-1.39c1.18.26,2.31.68,3.36,1.23l-.71,1.22c-.91-.47-1.88-.83-2.89-1.06Z" style="fill: #171717;"/>
    <path d="m18.51,108.73h-1.42c.05-1.22.26-2.39.6-3.51l1.32.48c-.29.96-.46,1.98-.51,3.03Z" style="fill: #171717;"/>
    <path d="m19.05,113l-1.32.48c-.36-1.12-.57-2.3-.63-3.5h1.4c.06,1.03.25,2.05.55,3.02Z" style="fill: #171717;"/>
    <path d="m21.02,116.83l-1.08.9c-.72-.94-1.32-1.97-1.79-3.07l1.32-.48c.4.94.92,1.83,1.54,2.64Z" style="fill: #171717;"/>
    <path d="m40.82,101.86l1.09-.91c.72.94,1.32,1.98,1.78,3.09l-1.32.48c-.4-.96-.93-1.84-1.54-2.66Z" style="fill: #171717;"/>
    <path d="m42.79,105.7l1.33-.48c.35,1.12.55,2.29.6,3.51h-1.42c-.05-1.05-.22-2.06-.51-3.03Z" style="fill: #171717;"/>
    <path d="m43.31,109.99h1.41c-.06,1.2-.28,2.38-.63,3.5l-1.32-.48c.3-.97.49-1.98.55-3.02Z" style="fill: #171717;"/>
    <path d="m42.32,114.18l1.32.48c-.46,1.09-1.06,2.12-1.79,3.06l-1.08-.9c.62-.82,1.14-1.7,1.54-2.64Z" style="fill: #171717;"/>
    <path d="m24.18,119.75l-.7,1.22c-1.01-.65-1.92-1.41-2.72-2.27l1.08-.9c.69.74,1.47,1.4,2.34,1.96Z" style="fill: #171717;"/>
    <path d="m39.97,117.78l1.08.9c-.8.86-1.71,1.63-2.72,2.27l-.7-1.22c.87-.56,1.65-1.22,2.34-1.96Z" style="fill: #171717;"/>
    <path d="m37.66,98.9l.71-1.22c1.01.65,1.93,1.42,2.73,2.3l-1.09.91c-.7-.75-1.48-1.43-2.35-1.99Z" style="fill: #171717;"/>
    <g>
      <path d="m57.46,314.95h0v-21.33c0-2.32-1.02-4.41-2.77-5.73-.3-.23-29.66-23.23-39.9-31.37h0c-1.1-.9-2.48-1.37-3.9-1.37-3.37,0-6.13,2.62-6.17,5.98h0v53.83h0v6.73c0,7.1,5.77,12.87,12.87,12.87h27.02c7.1,0,12.87-5.77,12.87-12.87v-6.73Zm-51.74-53.75,0,59.8" style="fill: #171717;"/>
      <path d="m44.6,335.05h-27.02c-7.37,0-13.37-6-13.37-13.37l.03-61.06c.29-3.39,3.12-5.98,6.64-5.98,1.39,0,2.75.43,3.85,1.21h0s.35.27.35.27c10.31,8.19,39.62,31.15,39.9,31.36,1.88,1.41,2.96,3.65,2.96,6.12v28.07c0,7.37-5.99,13.37-13.36,13.37Zm-39.39-19.6v6.23c0,6.82,5.55,12.37,12.37,12.37h27.02c6.82,0,12.37-5.55,12.37-12.37v-28.07c0-2.16-.95-4.1-2.58-5.33-.28-.22-28.95-22.67-39.56-31.1h0s-.35-.28-.35-.28c-.99-.81-2.26-1.26-3.58-1.26-3.14,0-5.63,2.41-5.67,5.48v.41s0,53.91,0,53.91Z" style="fill: #ededed;"/>
    </g>
    <g>
      <path d="m5.13,237.39h17.81c6.73,0,12.24-5.51,12.24-12.24v-19.59h-17.81c-6.73,0-12.24,5.51-12.24,12.24v19.59Z" style="fill: #ededed;"/>
      <path d="m22.94,237.89H4.63v-20.09c0-7.03,5.71-12.74,12.74-12.74h18.32v20.09c0,7.02-5.71,12.74-12.74,12.74Zm-17.31-1h17.31c6.47,0,11.74-5.27,11.74-11.74v-19.09h-17.32c-6.47,0-11.74,5.27-11.74,11.74v19.09Z" style="fill: #171717;"/>
    </g>
    <g>
      <path d="m17.23,246.01h-1.43v-5.78h1.43v5.78Z" style="fill: #fff;"/>
      <path d="m23.57,246.01h-1.27l-2.46-3.22v3.22h-1.42v-5.78h1.27l2.45,3.2v-3.2h1.42v5.78Z" style="fill: #fff;"/>
    </g>
    <path d="m13.13,271.51h-1.71v1.86h-.97v-1.86h-1.71v-1.05h1.71v-1.86h.97v1.86h1.71v1.05Z" style="fill: #fff;"/>
    <path d="m52.41,302.47h-4.09v-1.19h4.09v1.19Z" style="fill: #fff;"/>
    <g>
      <path d="m13.04,82.09c0,.46-.1.87-.29,1.21-.2.34-.47.6-.81.78-.35.18-.75.27-1.2.27-.12,0-.28-.01-.46-.03s-.43-.07-.73-.16c-.3-.09-.62-.22-.95-.4v-1.82c.31.23.61.43.91.58.3.15.62.23.96.23.31,0,.52-.06.61-.19.09-.13.14-.25.14-.36,0-.2-.08-.37-.24-.51s-.39-.28-.69-.43c-.33-.17-.63-.36-.88-.56-.25-.2-.46-.46-.62-.76-.16-.3-.24-.66-.24-1.08s.08-.76.24-1.09c.16-.32.41-.58.74-.77.33-.19.73-.29,1.21-.29.34,0,.65.04.94.12s.53.17.71.27.32.18.39.24v1.74c-.25-.22-.53-.41-.83-.58-.3-.17-.63-.26-.98-.26-.23,0-.39.05-.5.16-.1.11-.15.24-.15.4,0,.15.05.27.15.38.1.11.29.24.55.39.47.27.84.51,1.12.72s.5.46.66.74c.16.28.24.63.24,1.05Z" style="fill: #171717;"/>
      <path d="m18.38,81.99h-3.15c.06.33.21.6.45.81.24.21.51.32.82.32.53,0,1.12-.18,1.77-.55v1.2c-.23.15-.51.28-.84.4-.33.12-.75.18-1.26.18-.55,0-1.02-.13-1.41-.38s-.68-.59-.87-1.02c-.19-.43-.29-.92-.29-1.46s.1-1.02.29-1.44c.19-.42.48-.76.87-1s.86-.36,1.41-.36c.36,0,.71.1,1.05.29.34.19.62.5.83.94.22.43.33.99.33,1.68v.39Zm-1.49-.95c0-.35-.07-.63-.21-.84-.14-.21-.35-.31-.61-.31s-.48.11-.64.32c-.16.21-.24.49-.24.83h1.71Z" style="fill: #171717;"/>
      <path d="m23.7,84.25h-1.58v-2.94c0-.3-.04-.56-.12-.79-.08-.22-.26-.33-.53-.33-.13,0-.24.03-.34.09-.1.06-.19.14-.26.23s-.14.18-.2.27-.11.18-.16.27v3.21h-1.58v-5.46h1.58v.78c.25-.33.5-.55.75-.68.25-.13.53-.2.84-.2,1.07,0,1.61.78,1.61,2.35v3.21Z" style="fill: #171717;"/>
      <path d="m27.91,82.66c0,.5-.15.91-.45,1.22-.3.31-.75.47-1.34.47-.33,0-.62-.04-.88-.11-.26-.07-.54-.18-.84-.31v-1.37c.27.19.5.33.69.42.2.1.41.14.65.14.39,0,.59-.13.59-.4,0-.09-.03-.17-.09-.24s-.16-.15-.3-.24-.33-.19-.57-.31c-.29-.16-.54-.37-.75-.63s-.31-.59-.31-.97c0-.27.07-.53.2-.78.14-.25.34-.46.62-.61.28-.16.61-.24,1-.24.09,0,.21,0,.36.02.15.02.33.06.55.13.22.07.43.16.63.29v1.33c-.09-.07-.17-.12-.23-.17s-.15-.1-.25-.16-.23-.11-.37-.15c-.14-.04-.29-.07-.44-.07-.18,0-.31.04-.37.13-.07.09-.1.17-.1.26s.04.17.11.25c.07.08.23.17.47.29.35.16.63.33.84.51s.36.36.45.57c.09.21.13.45.13.73Z" style="fill: #171717;"/>
      <path d="m30.19,84.25h-1.59v-5.46h1.59v5.46Zm-.13-6.72c0,.23-.07.42-.2.57s-.29.24-.47.24c-.12,0-.23-.04-.34-.11-.1-.07-.18-.17-.24-.29-.06-.12-.09-.26-.09-.41,0-.22.06-.41.2-.57.13-.16.29-.24.47-.24s.34.08.47.24c.13.16.2.35.2.57Z" style="fill: #171717;"/>
      <path d="m34.57,83.93c-.17.1-.39.19-.68.28s-.56.13-.83.13c-1.14,0-1.71-.68-1.71-2.04v-2.18h-.71v-.34l2.12-2.64h.18v1.64h1.51v1.34h-1.51v1.75c0,.2,0,.37.03.49.02.12.08.23.17.31.1.08.24.13.43.13.25,0,.58-.13.99-.39v1.51Z" style="fill: #171717;"/>
      <path d="m36.69,84.25h-1.59v-5.46h1.59v5.46Zm-.13-6.72c0,.23-.07.42-.2.57s-.29.24-.47.24c-.12,0-.23-.04-.34-.11-.1-.07-.18-.17-.24-.29-.06-.12-.09-.26-.09-.41,0-.22.06-.41.2-.57.13-.16.29-.24.47-.24s.34.08.47.24c.13.16.2.35.2.57Z" style="fill: #171717;"/>
      <path d="m42.26,78.79l-2.04,5.46h-1.17l-1.99-5.46h1.7l.93,2.86,1.03-2.86h1.54Z" style="fill: #171717;"/>
      <path d="m44.21,84.25h-1.59v-5.46h1.59v5.46Zm-.13-6.72c0,.23-.07.42-.2.57s-.29.24-.47.24c-.12,0-.23-.04-.34-.11-.1-.07-.18-.17-.24-.29-.06-.12-.09-.26-.09-.41,0-.22.06-.41.2-.57.13-.16.29-.24.47-.24s.34.08.47.24c.13.16.2.35.2.57Z" style="fill: #171717;"/>
      <path d="m48.59,83.93c-.17.1-.39.19-.68.28s-.56.13-.83.13c-1.14,0-1.71-.68-1.71-2.04v-2.18h-.71v-.34l2.12-2.64h.18v1.64h1.51v1.34h-1.51v1.75c0,.2,0,.37.03.49.02.12.08.23.17.31.1.08.24.13.43.13.25,0,.58-.13.99-.39v1.51Z" style="fill: #171717;"/>
      <path d="m53.83,78.79l-3.04,7.94h-1.6l1.23-3.2-1.77-4.75h1.7l.91,2.71,1.03-2.71h1.54Z" style="fill: #171717;"/>
    </g>
    <g>
      <path d="m21.36,129.07c0,.41-.09.77-.26,1.07s-.41.53-.72.69c-.31.16-.67.24-1.07.24-.11,0-.25,0-.41-.03s-.38-.07-.65-.15c-.27-.08-.55-.2-.84-.35v-1.62c.27.21.54.38.81.51s.55.2.85.2c.28,0,.46-.06.54-.17s.12-.22.12-.32c0-.18-.07-.33-.21-.45-.14-.12-.35-.25-.61-.38-.3-.15-.56-.32-.78-.5-.22-.18-.41-.4-.55-.67s-.21-.59-.21-.96.07-.68.21-.96c.14-.29.36-.52.66-.69.29-.17.65-.26,1.08-.26.3,0,.58.04.84.11.26.07.47.15.63.24s.28.16.34.21v1.55c-.22-.19-.47-.37-.74-.52-.27-.15-.56-.23-.87-.23-.2,0-.35.05-.44.14-.09.1-.14.21-.14.35,0,.13.04.24.14.34s.25.21.49.35c.42.24.75.45,1,.64.25.19.45.41.59.66.14.25.21.56.21.93Z" style="fill: #171717;"/>
      <path d="m26.21,130.99h-1.41v-.69c-.2.26-.41.46-.62.58-.22.13-.48.19-.79.19-.6,0-.99-.21-1.16-.64-.18-.43-.27-.91-.27-1.45v-2.85h1.41v2.62c0,.26.04.5.11.69.07.2.23.3.47.3.21,0,.37-.07.49-.21.12-.14.24-.33.37-.55v-2.85h1.41v4.85Z" style="fill: #171717;"/>
      <path d="m30.01,129.57c0,.44-.13.81-.4,1.08-.27.28-.66.42-1.19.42-.29,0-.56-.03-.79-.1-.23-.07-.48-.16-.75-.28v-1.22c.24.17.44.29.62.38s.37.13.57.13c.35,0,.53-.12.53-.35,0-.08-.03-.15-.08-.21s-.14-.13-.27-.21c-.13-.08-.29-.17-.51-.28-.26-.14-.48-.33-.66-.56-.18-.23-.27-.52-.27-.86,0-.24.06-.47.18-.7.12-.22.3-.4.55-.55s.54-.21.89-.21c.08,0,.19,0,.32.02.13.01.29.05.49.11s.38.15.56.26v1.19c-.08-.06-.15-.11-.21-.15-.06-.04-.13-.09-.22-.14s-.2-.1-.33-.14c-.13-.04-.26-.06-.39-.06-.16,0-.27.04-.33.11s-.09.15-.09.23.03.15.09.22.2.15.42.25c.31.15.56.3.75.45.19.15.32.32.4.51.08.18.12.4.12.65Z" style="fill: #171717;"/>
      <path d="m33.69,130.71c-.15.09-.35.17-.6.25-.26.08-.5.12-.74.12-1.01,0-1.52-.6-1.52-1.81v-1.94h-.64v-.3l1.89-2.34h.16v1.45h1.34v1.19h-1.34v1.55c0,.18,0,.33.03.44s.07.2.15.28.21.11.38.11c.22,0,.52-.11.88-.34v1.34Z" style="fill: #171717;"/>
      <path d="m38.21,130.74c-.21.1-.4.18-.57.24-.17.06-.38.09-.63.09s-.39-.05-.48-.15-.16-.22-.2-.36c-.15.15-.32.27-.5.37s-.43.15-.73.15-.52-.06-.7-.18c-.18-.12-.3-.28-.38-.46-.07-.19-.11-.38-.11-.57,0-.3.06-.55.19-.74.12-.2.29-.35.5-.48.21-.12.48-.25.83-.39.2-.08.34-.13.44-.17.1-.04.18-.07.22-.09.05-.02.1-.05.16-.09,0-.24-.04-.42-.12-.55-.08-.13-.25-.2-.51-.2-.31,0-.59.08-.86.25-.26.17-.5.38-.72.64v-1.32c.17-.15.36-.28.57-.37.2-.1.42-.17.64-.22s.45-.07.67-.07c.58,0,1.01.14,1.3.41s.44.65.44,1.12v1.87c0,.18.01.31.04.4s.08.13.15.13c.09,0,.21-.05.36-.14v.9Zm-1.96-.93v-1.15c-.33.17-.58.31-.73.45s-.23.31-.23.54c0,.16.04.29.12.37.08.09.17.13.27.13.1,0,.19-.03.29-.1.1-.06.19-.14.29-.24Z" style="fill: #171717;"/>
      <path d="m40.03,130.99h-1.41v-4.85h1.41v4.85Zm-.11-5.97c0,.2-.06.37-.18.51s-.26.21-.42.21c-.11,0-.21-.03-.3-.1s-.16-.15-.21-.26c-.05-.11-.08-.23-.08-.36,0-.2.06-.37.17-.51.12-.14.25-.21.42-.21s.3.07.42.21c.12.14.18.31.18.51Z" style="fill: #171717;"/>
      <path d="m45.03,130.99h-1.41v-2.62c0-.27-.04-.5-.11-.7s-.23-.3-.47-.3c-.12,0-.21.03-.3.08s-.17.12-.23.2c-.07.08-.13.16-.17.24s-.1.16-.14.24v2.85h-1.41v-4.85h1.41v.7c.22-.29.44-.49.67-.61.22-.12.47-.17.74-.17.95,0,1.43.7,1.43,2.09v2.85Z" style="fill: #171717;"/>
    </g>
    <g>
      <path d="m16.39,175.53h-3.7v-5.99h3.64v1.2h-2.16v1.1h2.06v1.21h-2.06v1.28h2.22v1.21Z" style="fill: #171717;"/>
      <path d="m20.83,175.53h-1.28v-2.37c0-.24-.03-.45-.1-.63-.06-.18-.21-.27-.43-.27-.1,0-.2.02-.28.07-.08.05-.15.11-.21.18-.06.08-.12.15-.16.22-.04.07-.09.14-.13.22v2.58h-1.28v-4.4h1.28v.63c.2-.26.4-.45.6-.55.2-.1.43-.16.67-.16.87,0,1.3.63,1.3,1.89v2.58Z" style="fill: #171717;"/>
      <path d="m25.2,171.13l-1.64,4.4h-.94l-1.6-4.4h1.37l.75,2.3.83-2.3h1.24Z" style="fill: #171717;"/>
      <path d="m26.39,174.68c0,.26-.07.48-.22.66-.14.18-.32.27-.54.27s-.39-.09-.54-.27c-.15-.18-.23-.4-.23-.66s.08-.48.23-.66c.15-.18.33-.27.54-.27.13,0,.26.04.38.12s.21.2.28.34.1.3.1.47Z" style="fill: #171717;"/>
      <path d="m34.06,172.64c0,.61-.09,1.11-.27,1.48-.18.37-.4.67-.65.9-.35.34-.84.51-1.48.51h-2.65v-5.99h2.04c.31,0,.57.02.79.06.22.04.41.09.59.16.18.07.32.15.45.24s.23.18.33.28c.17.17.31.36.44.59s.23.49.3.79c.07.3.11.62.11.98Zm-1.5-.08c0-.49-.08-.87-.23-1.14-.15-.27-.34-.45-.55-.55s-.43-.14-.65-.14h-.63v3.55h.63c.39,0,.72-.11,1-.34.28-.22.43-.69.43-1.39Z" style="fill: #171717;"/>
      <path d="m38.27,173.71h-2.54c.05.27.17.49.37.66s.41.25.66.25c.43,0,.9-.15,1.42-.44v.96c-.19.12-.41.23-.68.32-.26.1-.6.14-1.01.14-.44,0-.82-.1-1.13-.3-.31-.2-.54-.48-.7-.82-.15-.35-.23-.74-.23-1.17s.08-.82.23-1.16.39-.61.7-.8c.31-.19.69-.29,1.13-.29.29,0,.58.08.85.23.27.15.5.41.67.76.18.35.26.8.26,1.35v.31Zm-1.2-.77c0-.28-.06-.51-.17-.68-.11-.17-.28-.25-.49-.25s-.38.09-.51.26c-.13.17-.2.4-.2.67h1.38Z" style="fill: #171717;"/>
      <path d="m41.79,175.33c-.11.05-.22.09-.34.14-.12.04-.25.08-.4.1-.15.03-.31.04-.48.04-.39,0-.73-.08-1-.24-.27-.16-.48-.37-.63-.61-.15-.25-.25-.5-.31-.75s-.09-.48-.09-.68.03-.42.09-.68.16-.5.3-.74c.14-.24.35-.44.62-.6.27-.16.61-.24,1.01-.24.27,0,.48.02.65.07s.34.11.51.19v1.22c-.42-.16-.74-.24-.97-.24s-.43.08-.61.25-.26.43-.26.78c0,.23.04.43.13.59.09.16.2.28.33.35.13.07.27.11.4.11.13,0,.27-.02.43-.07.16-.05.36-.11.6-.2v1.22Z" style="fill: #171717;"/>
      <path d="m45.95,175.31c-.19.09-.36.16-.52.22s-.35.08-.57.08c-.21,0-.36-.05-.44-.14-.08-.09-.14-.2-.18-.33-.14.14-.29.25-.46.33-.17.09-.39.13-.66.13s-.47-.06-.64-.17c-.16-.11-.27-.25-.34-.42-.06-.17-.1-.34-.1-.52,0-.27.06-.49.17-.67.11-.18.26-.32.45-.43.19-.11.44-.23.75-.35.18-.07.31-.12.4-.16.09-.04.16-.06.2-.08.04-.02.09-.05.14-.08,0-.21-.04-.38-.11-.5-.07-.12-.22-.18-.46-.18-.28,0-.54.07-.78.22s-.46.34-.65.58v-1.19c.16-.14.33-.25.51-.34s.38-.15.58-.2c.2-.04.4-.06.61-.06.52,0,.91.12,1.18.37s.39.58.39,1.02v1.7c0,.16.01.28.04.36.03.08.07.12.14.12.08,0,.19-.04.32-.13v.82Zm-1.77-.84v-1.04c-.3.15-.52.28-.66.4-.14.12-.21.28-.21.49,0,.15.04.26.11.34.07.08.15.12.24.12s.17-.03.26-.09.17-.13.26-.21Z" style="fill: #171717;"/>
      <path d="m50.02,171.13l-2.45,6.4h-1.29l.99-2.57-1.43-3.82h1.37l.73,2.19.83-2.19h1.24Z" style="fill: #171717;"/>
    </g>
    <path d="m46.66,198.92v-6.38h-1c0,.06.01,1.61,1.16,3.2,1.15,1.6,3.45,3.14,7.76,3.18v-1c-4.07-.05-5.98-1.44-6.95-2.77-.48-.67-.73-1.33-.85-1.83-.06-.25-.09-.45-.11-.59v-.16s-.01-.04-.01-.04h0s-1,0-1,0v6.38h1,0Z" style="fill: #171717;"/>
    <path d="m9.43,198.92v-6.38h-1s0,.71.33,1.61c.32.9.96,2.04,2.21,2.98l.61.46.89-3.88-.49-.11-.49.11s.24,1.06.81,2.19c.29.57.65,1.16,1.14,1.66.48.5,1.09.92,1.83,1.08h0s0,0,0,0c.38.08.62.14.92.19.3.05.63.07,1.15.08v-1c-.49,0-.75-.03-.99-.07-.24-.04-.47-.1-.88-.18h0c-.49-.11-.93-.39-1.32-.8-.58-.6-1.02-1.46-1.29-2.16-.14-.35-.24-.66-.31-.88-.03-.11-.06-.2-.07-.26l-.02-.09h-.97s-.72,3.13-.72,3.13l.49.11.3-.4c-1.07-.8-1.6-1.75-1.87-2.52-.13-.38-.2-.71-.24-.94-.02-.12-.03-.21-.03-.26v-.06s0-.01,0-.01h-1v6.39h1,0Z" style="fill: #171717;"/>
    <g>
      <path d="m7.35,185.65v.72h-1.63v1.23h1.63v.73h-1.63v2.09h-.76v-4.78h2.39Z" style="fill: #171717;"/>
      <path d="m8.87,187.17c.27,0,.52.07.74.21.22.14.39.33.52.58.12.25.18.53.18.85s-.06.62-.18.87c-.12.25-.29.44-.52.59s-.48.22-.75.22-.53-.07-.75-.22c-.22-.14-.39-.34-.51-.59-.12-.25-.18-.54-.18-.87s.06-.61.19-.86c.12-.25.29-.44.52-.58s.46-.21.73-.21Zm-.71,1.64c0,.32.06.57.19.76.13.19.3.29.51.29s.4-.09.53-.27.19-.44.19-.78-.06-.57-.2-.75c-.13-.18-.3-.26-.53-.26-.21,0-.38.09-.51.28s-.2.43-.2.74Z" style="fill: #171717;"/>
      <path d="m11.21,185.65v4.78h-.69v-4.78h.69Z" style="fill: #171717;"/>
      <path d="m12.57,185.65v4.78h-.69v-4.78h.69Z" style="fill: #171717;"/>
      <path d="m14.52,187.17c.27,0,.52.07.74.21.22.14.39.33.52.58.12.25.18.53.18.85s-.06.62-.18.87c-.12.25-.29.44-.52.59s-.48.22-.75.22-.53-.07-.75-.22c-.22-.14-.39-.34-.51-.59-.12-.25-.18-.54-.18-.87s.06-.61.19-.86c.12-.25.29-.44.52-.58s.46-.21.73-.21Zm-.71,1.64c0,.32.06.57.19.76.13.19.3.29.51.29s.4-.09.53-.27.19-.44.19-.78-.06-.57-.2-.75c-.13-.18-.3-.26-.53-.26-.21,0-.38.09-.51.28s-.2.43-.2.74Z" style="fill: #171717;"/>
      <path d="m16.52,187.24l.61,1.84.62-1.84h.45l.61,1.84.61-1.84h.72l-1.17,3.25h-.29l-.71-1.95-.71,1.95h-.29l-1.18-3.25h.72Z" style="fill: #171717;"/>
    </g>
    <g>
      <path d="m46.22,185.59c.48,0,.96.13,1.44.39v.84c-.47-.29-.94-.44-1.4-.44-.29,0-.54.07-.76.21-.22.14-.39.34-.52.6-.12.26-.18.55-.18.87,0,.49.13.88.4,1.18.27.3.62.45,1.05.45.12,0,.23-.01.34-.04.11-.03.24-.07.39-.14v-.79h-.65v-.72h1.4v1.97c-.19.16-.42.29-.69.38-.27.09-.55.14-.84.14-.41,0-.79-.1-1.12-.31-.33-.21-.6-.5-.78-.87s-.28-.79-.28-1.25.09-.89.28-1.27c.19-.38.46-.67.79-.88.34-.21.72-.31,1.13-.31Z" style="fill: #171717;"/>
      <path d="m49.47,187.17c.38,0,.69.15.91.45.22.3.34.72.34,1.25v.13h-1.85c.03.29.12.5.26.66.15.15.35.23.6.23.16,0,.32-.04.47-.1s.31-.17.47-.32v.63c-.31.26-.68.4-1.12.4-.41,0-.75-.15-1.01-.46-.26-.3-.39-.71-.39-1.21s.12-.88.36-1.19.56-.46.95-.46Zm.6,1.32c-.02-.23-.08-.41-.17-.54-.1-.13-.23-.2-.4-.2s-.31.06-.42.19c-.11.13-.17.31-.2.55h1.19Z" style="fill: #171717;"/>
      <path d="m52.63,187.17c.28,0,.5.11.67.34s.25.52.25.89v2.03h-.69v-1.95c0-.21-.04-.37-.12-.49-.08-.12-.19-.18-.33-.18-.11,0-.21.04-.3.11s-.2.2-.31.38v2.12h-.69v-3.19h.69v.45c.13-.18.26-.31.39-.39.13-.08.28-.12.44-.12Z" style="fill: #171717;"/>
      <path d="m54.42,189.44c.11,0,.21.05.3.15.09.1.13.23.13.37s-.04.26-.13.37c-.08.1-.19.16-.3.16s-.22-.05-.3-.16c-.09-.1-.13-.23-.13-.37s.04-.27.13-.37.19-.15.3-.15Z" style="fill: #171717;"/>
    </g>
    <g>
      <path d="m44.77,273.96c-.09.04-.17.07-.24.1s-.13.05-.19.07-.15.05-.27.08c-.2.05-.39.09-.59.12s-.4.04-.62.04c-.44,0-.84-.09-1.21-.28-.37-.18-.67-.47-.89-.86s-.33-.86-.33-1.43c0-.36.06-.72.17-1.07s.29-.63.53-.84c.2-.17.39-.31.59-.4.2-.09.4-.15.59-.19.19-.03.4-.05.63-.05.38,0,.69.03.94.1.25.07.52.15.81.26v1.18c-.19-.13-.4-.24-.62-.33-.22-.09-.49-.13-.82-.13-.38,0-.67.08-.9.25-.22.16-.38.36-.47.59s-.13.45-.13.66c0,.25.05.48.15.69.1.21.26.38.46.51s.45.19.74.19c.16,0,.34-.03.53-.08v-.58h-.58v-1h1.72v2.39Z" style="fill: #fff;"/>
      <path d="m48.72,274.13c-.16.07-.32.13-.46.18-.14.05-.3.07-.5.07s-.31-.04-.39-.11c-.07-.08-.12-.17-.15-.27-.12.11-.25.21-.4.28-.15.07-.34.11-.58.11s-.42-.05-.56-.14c-.14-.09-.24-.21-.3-.35-.06-.14-.08-.28-.08-.43,0-.22.05-.41.15-.56.1-.15.23-.27.4-.36.17-.09.39-.19.66-.29.16-.06.27-.1.35-.13.08-.03.14-.05.18-.07s.08-.04.12-.06c0-.18-.03-.32-.09-.42s-.2-.15-.4-.15c-.24,0-.47.06-.68.19-.21.12-.4.29-.57.48v-.99c.14-.12.29-.21.45-.28s.33-.13.51-.16c.18-.04.36-.05.54-.05.46,0,.8.1,1.04.31.23.2.35.49.35.84v1.41c0,.13.01.23.03.3.02.07.06.1.12.1.07,0,.17-.04.29-.1v.68Zm-1.56-.7v-.87c-.27.12-.46.24-.58.34-.12.1-.18.23-.18.4,0,.12.03.22.09.28.06.06.13.1.21.1s.15-.02.23-.07c.08-.05.15-.11.23-.18Z" style="fill: #fff;"/>
      <path d="m51.4,274.1c-.12.06-.28.13-.48.19-.21.06-.4.09-.59.09-.81,0-1.21-.45-1.21-1.36v-1.46h-.51v-.23l1.5-1.77h.13v1.09h1.07v.9h-1.07v1.17c0,.14,0,.25.02.33.02.08.06.15.12.21.07.06.17.08.31.08.18,0,.41-.09.7-.26v1.01Z" style="fill: #fff;"/>
      <path d="m54.97,272.8h-2.23c.04.22.15.4.32.55.17.14.36.21.58.21.38,0,.79-.12,1.25-.37v.8c-.16.1-.36.19-.6.27-.23.08-.53.12-.89.12-.39,0-.72-.08-1-.25-.27-.17-.48-.39-.61-.68-.14-.29-.2-.61-.2-.98s.07-.68.2-.96c.13-.28.34-.51.61-.67.28-.16.61-.24,1-.24.26,0,.51.06.74.19.24.13.44.34.59.63.15.29.23.67.23,1.13v.26Zm-1.05-.64c0-.23-.05-.42-.15-.56-.1-.14-.24-.21-.43-.21s-.34.07-.45.21c-.12.14-.17.33-.17.56h1.21Z" style="fill: #fff;"/>
    </g>
    <g>
      <path d="m14.84,312.72h-3.76v-5.73h3.7v1.15h-2.2v1.05h2.1v1.15h-2.1v1.22h2.26v1.15Z" style="fill: #fff;"/>
      <path d="m19.48,312.72h-1.3v-2.27c0-.23-.03-.43-.1-.61-.07-.17-.21-.26-.43-.26-.11,0-.2.02-.28.07-.08.05-.15.1-.22.18-.06.07-.12.14-.16.21-.04.07-.09.14-.13.21v2.47h-1.3v-4.21h1.3v.6c.2-.25.41-.43.61-.53.21-.1.43-.15.69-.15.88,0,1.32.6,1.32,1.81v2.47Z" style="fill: #fff;"/>
      <path d="m24.04,308.52l-1.67,4.21h-.96l-1.63-4.21h1.39l.76,2.2.84-2.2h1.26Z" style="fill: #fff;"/>
      <path d="m25.39,311.91c0,.25-.07.46-.22.63s-.33.26-.55.26-.4-.09-.55-.26c-.15-.17-.23-.38-.23-.63s.08-.46.23-.63c.15-.17.34-.26.55-.26.13,0,.26.04.38.12s.22.19.28.32c.07.13.1.28.1.45Z" style="fill: #fff;"/>
    </g>
    <g>
      <path d="m16.53,317.13c0,.54-.11,1.04-.32,1.49-.21.45-.54.81-.96,1.08-.42.27-.94.4-1.55.4s-1.14-.14-1.57-.42c-.43-.28-.75-.64-.95-1.1-.21-.45-.31-.94-.31-1.46s.1-1.01.31-1.46c.21-.45.52-.82.95-1.09.43-.28.95-.42,1.57-.42.46,0,.87.08,1.23.24.36.16.66.37.89.65.23.27.41.59.53.95s.18.74.18,1.14Zm-1.53,0c0-.22-.03-.42-.08-.59-.06-.18-.14-.33-.25-.47-.11-.13-.25-.24-.41-.31-.16-.07-.35-.11-.56-.11-.4,0-.72.14-.95.41-.23.27-.35.63-.35,1.07s.12.8.35,1.08c.23.27.55.41.95.41.28,0,.51-.06.71-.19.19-.13.34-.3.44-.53s.15-.48.15-.77Z" style="fill: #fff;"/>
      <path d="m21.04,320.03h-1.3v-.61c-.18.23-.38.4-.58.51-.2.11-.44.17-.72.17-.55,0-.91-.19-1.07-.56s-.24-.8-.24-1.27v-2.5h1.3v2.3c0,.23.03.43.1.61s.21.26.43.26c.19,0,.34-.06.45-.19.11-.12.22-.29.34-.48v-2.5h1.3v4.25Z" style="fill: #fff;"/>
      <path d="m24.69,319.79c-.13.08-.32.15-.56.22-.24.07-.46.1-.68.1-.93,0-1.4-.53-1.4-1.59v-1.69h-.59v-.26l1.74-2.05h.15v1.27h1.24v1.04h-1.24v1.36c0,.16,0,.29.03.38s.06.18.14.24.2.1.35.1c.21,0,.48-.1.81-.3v1.17Z" style="fill: #fff;"/>
    </g>
    <g>
      <g>
        <path d="m64.29,15.24s-4.09,5.19-6.47,8.22v-7.04c0-.6-.3-1.15-.75-1.37-.46-.23-.98-.09-1.32.34l-8.5,10.81c-.46.59-.45,1.52.03,2.09.48.57,1.24.55,1.71-.04,0,0,4.05-5.15,6.42-8.17v7.04c0,.6.3,1.15.76,1.37.46.23.98.09,1.32-.34,0,0,4.08-5.19,6.46-8.22v7.19c0,.82.54,1.48,1.21,1.48s1.21-.66,1.21-1.48v-10.86c0-.6-.3-1.15-.76-1.37-.46-.23-.98-.09-1.32.35Z" style="fill: #171717;"/>
        <path d="m48.12,29.15c-.45,0-.87-.2-1.18-.57-.62-.73-.64-1.9-.04-2.66l8.5-10.81c.47-.6,1.22-.79,1.87-.47.61.3,1,1,1,1.78v5.74l5.66-7.2c.47-.6,1.23-.79,1.87-.47.61.3,1.01,1,1.01,1.77v10.86c0,1.06-.74,1.93-1.66,1.93s-1.66-.87-1.66-1.93v-5.89c-2.39,3.04-5.66,7.2-5.66,7.2-.47.6-1.23.79-1.87.47-.61-.3-1.01-1-1.01-1.77v-5.74c-2.38,3.03-5.62,7.14-5.62,7.14-.31.39-.74.62-1.2.62h-.02Zm8.5-13.76c-.19,0-.37.1-.51.28l-8.5,10.81c-.33.42-.32,1.12.02,1.52.14.16.31.25.49.25h0c.19,0,.37-.1.51-.28,0,0,4.05-5.15,6.42-8.16l.8-1.02v8.34c0,.43.2.82.51.97.27.13.56.04.77-.22h0s4.08-5.19,6.46-8.22l.8-1.02v8.49c0,.57.34,1.03.76,1.03s.76-.47.76-1.03v-10.86c0-.43-.2-.82-.51-.97-.27-.13-.55-.05-.77.22l-7.27,9.24v-8.34c0-.43-.2-.82-.5-.97-.08-.04-.17-.06-.25-.06Z" style="fill: #171717;"/>
      </g>
      <g>
        <path d="m47.25,15.16l-5.63,7.16c-.46.59-.45,1.52.03,2.09.48.57,1.24.55,1.71-.04,0,0,1.9-2.42,3.56-4.52v7.37c0,.82.54,1.48,1.2,1.48s1.21-.66,1.21-1.48v-11.03c0-.6-.3-1.15-.75-1.37-.46-.23-.98-.09-1.32.35Z" style="fill: #171717;"/>
        <path d="m48.12,29.15c-.91,0-1.65-.87-1.65-1.93v-6.07l-2.75,3.5c-.31.4-.74.62-1.2.63-.46,0-.89-.19-1.21-.57-.62-.74-.63-1.9-.04-2.66l5.63-7.16c.47-.6,1.22-.79,1.88-.47.61.3,1,1,1,1.78v11.03c0,1.06-.74,1.93-1.66,1.93Zm-.75-10.6v8.67c0,.56.34,1.03.75,1.03s.76-.46.76-1.03v-11.03c0-.43-.2-.82-.5-.97-.26-.13-.56-.05-.77.22l-5.63,7.16c-.33.42-.32,1.12.02,1.52.14.16.31.25.49.25h.01c.19,0,.37-.1.51-.28l4.36-5.54Z" style="fill: #171717;"/>
      </g>
      <g>
        <path d="m74.07,20.44c-.19-.55-.62-.9-1.11-.9h-2.46l1.8-2.28s.93-1.37.11-2.12c-.82-.75-1.84.07-1.84.07l-3.77,4.79c-.34.43-.43,1.06-.24,1.61.19.55.63.9,1.11.9h2.46l-2.92,3.71s-1.21,1.32-.32,2.21c.89.89,2.05-.16,2.05-.16l4.88-6.21c.34-.43.43-1.06.24-1.6Z" style="fill: #171717;"/>
        <path d="m67.71,29.22c-.38,0-.78-.13-1.13-.49-.95-.95-.22-2.27.3-2.83l2.32-2.95h-1.54c-.68,0-1.28-.47-1.54-1.2-.24-.69-.12-1.49.31-2.03l3.84-4.86c.46-.37,1.55-.85,2.43-.05.88.8.39,2.08-.04,2.71l-1.24,1.58h1.53c.68,0,1.28.47,1.53,1.2.24.69.12,1.49-.31,2.03l-4.88,6.21c-.35.32-.95.69-1.59.69Zm3.17-13.7l-3.73,4.75c-.24.3-.31.78-.17,1.18.12.36.4.6.69.6h3.39l-3.49,4.44s-.93,1.04-.35,1.61c.57.57,1.35-.1,1.43-.17l4.83-6.16c.24-.31.31-.78.17-1.18h0c-.13-.37-.39-.6-.68-.6h-3.39l2.37-3.01h0s.67-1.04.16-1.51c-.47-.43-1.07-.05-1.22.06Z" style="fill: #171717;"/>
      </g>
    </g>
    <path d="m109.46,304.76v-83.5s0-.29,0-.29v-53.19.05l-.03-4.62v-12.66c0-7.27-5.91-13.18-13.18-13.18h-19.08c-7.27,0-13.18,5.91-13.18,13.18v37.77l-.03,3.95v112.5" style="fill: #171717;"/>
    <polyline points="108.93 297 109.26 297 109.26 265.75"/>
    <polyline points="64.16 266.12 64.16 297 64.39 297"/>
    <path d="m109.87,301.8h-1v-133.98l-.03-7.12v-10.17c0-6.99-5.69-12.68-12.68-12.68h-19.08c-6.99,0-12.68,5.69-12.68,12.68v37.77l-.03,6.86v106.64h-1v-109.55l.03-4.28v-37.43c0-7.54,6.14-13.68,13.68-13.68h19.08c7.54,0,13.68,6.14,13.68,13.68l.03,151.26Z" style="fill: #171717;"/>
    <g>
      <path d="m99.34,333.76c5.56-.21,10.01-4.93,10.01-10.73v-25.21c0-5.94-4.65-10.75-10.39-10.75h-24.68c-5.74,0-10.4,4.81-10.4,10.75v25.21c0,5.87,4.55,10.64,10.2,10.74" style="fill: #ededed;"/>
      <path d="m74.07,334.27c-5.89-.11-10.69-5.16-10.69-11.24v-25.21c0-6.21,4.89-11.25,10.9-11.25h24.68c6.01,0,10.89,5.05,10.89,11.25v25.21c0,6.08-4.61,11.01-10.49,11.23l-.04-1c5.34-.2,9.53-4.7,9.53-10.23v-25.21c0-5.65-4.44-10.25-9.89-10.25h-24.68c-5.46,0-9.9,4.6-9.9,10.25v25.21c0,5.54,4.36,10.14,9.71,10.24l-.02,1Z" style="fill: #171717;"/>
    </g>
    <g>
      <path d="m73.15,67.39h-3.76v-5.91h3.7v1.19h-2.2v1.08h2.1v1.19h-2.1v1.26h2.26v1.19Z" style="fill: #171717;"/>
      <path d="m77.66,67.39h-1.3v-2.34c0-.24-.03-.45-.1-.62-.07-.18-.21-.27-.43-.27-.11,0-.2.02-.28.07-.08.05-.15.11-.22.18s-.12.14-.16.21-.09.14-.13.22v2.55h-1.3v-4.34h1.3v.62c.2-.26.41-.44.61-.54.21-.1.43-.16.69-.16.88,0,1.32.62,1.32,1.87v2.55Z" style="fill: #171717;"/>
      <path d="m82.1,63.05l-1.67,4.34h-.96l-1.63-4.34h1.39l.76,2.27.84-2.27h1.26Z" style="fill: #171717;"/>
      <path d="m83.32,66.55c0,.26-.07.47-.22.65s-.33.27-.55.27-.4-.09-.55-.27c-.15-.18-.23-.4-.23-.65s.08-.47.23-.65c.15-.18.34-.27.55-.27.13,0,.26.04.38.12.12.08.22.19.28.33.07.14.1.29.1.46Z" style="fill: #171717;"/>
      <path d="m89.79,67.39h-3.79v-5.91h1.5v4.49h2.29v1.42Z" style="fill: #171717;"/>
      <path d="m94.01,65.59h-2.58c.05.26.17.48.37.65.2.17.42.25.67.25.44,0,.92-.14,1.45-.43v.95c-.19.12-.42.22-.69.32-.27.1-.61.14-1.03.14-.45,0-.84-.1-1.15-.3-.32-.2-.55-.47-.71-.81-.16-.34-.24-.73-.24-1.16s.08-.81.24-1.14c.16-.34.39-.6.71-.79.32-.19.7-.29,1.15-.29.3,0,.58.08.86.23.28.15.5.4.68.75.18.35.27.79.27,1.34v.31Zm-1.22-.76c0-.28-.06-.5-.17-.67s-.28-.25-.5-.25-.39.08-.52.25c-.13.17-.2.39-.2.66h1.4Z" style="fill: #171717;"/>
      <path d="m98.31,63.05l-1.67,4.34h-.96l-1.63-4.34h1.39l.76,2.27.84-2.27h1.26Z" style="fill: #171717;"/>
      <path d="m102.21,65.59h-2.58c.05.26.17.48.37.65.2.17.42.25.67.25.44,0,.92-.14,1.45-.43v.95c-.19.12-.42.22-.69.32-.27.1-.61.14-1.03.14-.45,0-.84-.1-1.15-.3-.32-.2-.55-.47-.71-.81-.16-.34-.24-.73-.24-1.16s.08-.81.24-1.14c.16-.34.39-.6.71-.79.32-.19.7-.29,1.15-.29.3,0,.58.08.86.23.28.15.5.4.68.75.18.35.27.79.27,1.34v.31Zm-1.22-.76c0-.28-.06-.5-.17-.67s-.28-.25-.5-.25-.39.08-.52.25c-.13.17-.2.39-.2.66h1.4Z" style="fill: #171717;"/>
      <path d="m104.01,67.39h-1.3v-5.91h1.3v5.91Z" style="fill: #171717;"/>
    </g>
    <g>
      <path d="m79.59,156.71h-3.37v-5.14h1.34v3.91h2.03v1.23Z" style="fill: #ededed;"/>
      <path d="m82.16,148.96v10.39h-.86v-10.39h.86Z" style="fill: #ededed;"/>
      <path d="m91.53,148.94v10.39h-.86v-10.39h.86Z" style="fill: #ededed;"/>
      <path d="m88.99,156.71h-1.34v-2.98l-1.21,1.73h-.11l-1.21-1.73v2.98h-1.3v-5.14h1.21l1.36,1.93,1.37-1.93h1.21v5.14Z" style="fill: #ededed;"/>
      <path d="m97.9,156.71h-1.33v-2.01h-2.01v2.01h-1.34v-5.14h1.34v1.89h2.01v-1.89h1.33v5.14Z" style="fill: #ededed;"/>
    </g>
    <g>
      <path d="m71.9,115.98h-1.51v-5.91h1.51v5.91Z" style="fill: #171717;"/>
      <path d="m76.66,115.98h-1.3v-2.34c0-.24-.03-.45-.1-.62-.07-.18-.21-.27-.43-.27-.11,0-.2.02-.28.07-.08.05-.15.11-.22.18s-.12.14-.16.21-.09.14-.13.22v2.55h-1.3v-4.34h1.3v.62c.2-.26.41-.44.61-.54.21-.1.43-.16.69-.16.88,0,1.32.62,1.32,1.87v2.55Z" style="fill: #171717;"/>
      <path d="m81.11,111.64l-1.67,4.34h-.96l-1.63-4.34h1.39l.76,2.27.84-2.27h1.26Z" style="fill: #171717;"/>
      <path d="m82.32,115.14c0,.26-.07.47-.22.65s-.33.27-.55.27-.4-.09-.55-.27c-.15-.18-.23-.4-.23-.65s.08-.47.23-.65c.15-.18.34-.27.55-.27.13,0,.26.04.38.12.12.08.22.19.28.33.07.14.1.29.1.46Z" style="fill: #171717;"/>
      <path d="m88.79,115.98h-3.79v-5.91h1.5v4.49h2.29v1.42Z" style="fill: #171717;"/>
      <path d="m93.01,114.18h-2.58c.05.26.17.48.37.65.2.17.42.25.67.25.44,0,.92-.14,1.45-.43v.95c-.19.12-.42.22-.69.32-.27.1-.61.14-1.03.14-.45,0-.84-.1-1.15-.3-.32-.2-.55-.47-.71-.81-.16-.34-.24-.73-.24-1.16s.08-.81.24-1.14c.16-.34.39-.6.71-.79.32-.19.7-.29,1.15-.29.3,0,.58.08.86.23.28.15.5.4.68.75.18.35.27.79.27,1.34v.31Zm-1.22-.76c0-.28-.06-.5-.17-.67s-.28-.25-.5-.25-.39.08-.52.25c-.13.17-.2.39-.2.66h1.4Z" style="fill: #171717;"/>
      <path d="m97.31,111.64l-1.67,4.34h-.96l-1.63-4.34h1.39l.76,2.27.84-2.27h1.26Z" style="fill: #171717;"/>
      <path d="m101.21,114.18h-2.58c.05.26.17.48.37.65.2.17.42.25.67.25.44,0,.92-.14,1.45-.43v.95c-.19.12-.42.22-.69.32-.27.1-.61.14-1.03.14-.45,0-.84-.1-1.15-.3-.32-.2-.55-.47-.71-.81-.16-.34-.24-.73-.24-1.16s.08-.81.24-1.14c.16-.34.39-.6.71-.79.32-.19.7-.29,1.15-.29.3,0,.58.08.86.23.28.15.5.4.68.75.18.35.27.79.27,1.34v.31Zm-1.22-.76c0-.28-.06-.5-.17-.67s-.28-.25-.5-.25-.39.08-.52.25c-.13.17-.2.39-.2.66h1.4Z" style="fill: #171717;"/>
      <path d="m103.01,115.98h-1.3v-5.91h1.3v5.91Z" style="fill: #171717;"/>
    </g>
    <g>
      <path d="m75.67,198.65h-3.76v-5.91h3.7v1.19h-2.2v1.08h2.1v1.19h-2.1v1.26h2.26v1.19Z" style="fill: #ededed;"/>
      <path d="m80.18,198.65h-1.3v-2.34c0-.24-.03-.45-.1-.62-.07-.18-.21-.27-.43-.27-.11,0-.2.02-.28.07-.08.05-.15.11-.22.18s-.12.14-.16.21-.09.14-.13.22v2.55h-1.3v-4.34h1.3v.62c.2-.26.41-.44.61-.54.21-.1.43-.16.69-.16.88,0,1.32.62,1.32,1.87v2.55Z" style="fill: #ededed;"/>
      <path d="m84.63,194.31l-1.67,4.34h-.96l-1.63-4.34h1.39l.76,2.27.84-2.27h1.26Z" style="fill: #ededed;"/>
      <path d="m85.84,197.81c0,.26-.07.47-.22.65s-.33.27-.55.27-.4-.09-.55-.27c-.15-.18-.23-.4-.23-.65s.08-.47.23-.65c.15-.18.34-.27.55-.27.13,0,.26.04.38.12.12.08.22.19.28.33.07.14.1.29.1.46Z" style="fill: #ededed;"/>
      <path d="m93.86,195.69c0,.55-.11,1.06-.32,1.52s-.54.83-.96,1.1c-.42.27-.94.41-1.55.41s-1.14-.14-1.57-.43c-.43-.28-.75-.66-.95-1.12-.21-.46-.31-.96-.31-1.49s.1-1.03.31-1.49c.21-.46.52-.83.95-1.12.43-.28.95-.42,1.57-.42.46,0,.87.08,1.23.24.36.16.66.38.89.66.23.28.41.6.53.97s.18.76.18,1.16Zm-1.53,0c0-.22-.03-.42-.08-.61-.06-.18-.14-.34-.25-.48-.11-.13-.25-.24-.41-.32s-.35-.11-.56-.11c-.4,0-.72.14-.95.42s-.35.64-.35,1.1.12.82.35,1.1c.23.28.55.42.95.42.28,0,.51-.07.71-.19s.34-.31.44-.54.15-.49.15-.79Z" style="fill: #ededed;"/>
      <path d="m98.24,198.65h-1.3v-.62c-.18.23-.38.41-.58.52s-.44.17-.72.17c-.55,0-.91-.19-1.07-.57-.16-.38-.24-.81-.24-1.29v-2.55h1.3v2.34c0,.24.03.44.1.62s.21.27.43.27c.19,0,.34-.06.45-.19.11-.13.22-.29.34-.49v-2.55h1.3v4.34Z" style="fill: #ededed;"/>
      <path d="m101.77,198.4c-.13.08-.32.15-.56.22-.24.07-.46.11-.68.11-.93,0-1.4-.54-1.4-1.62v-1.73h-.59v-.27l1.74-2.1h.15v1.3h1.24v1.07h-1.24v1.39c0,.16,0,.29.03.39s.06.18.14.25c.08.07.2.1.35.1.21,0,.48-.1.81-.31v1.2Z" style="fill: #ededed;"/>
    </g>
    <g>
      <path d="m74.42,239.56h-1.51v-5.91h1.51v5.91Z" style="fill: #ededed;"/>
      <path d="m79.19,239.56h-1.3v-2.34c0-.24-.03-.45-.1-.62-.07-.18-.21-.27-.43-.27-.11,0-.2.02-.28.07-.08.05-.15.11-.22.18s-.12.14-.16.21-.09.14-.13.22v2.55h-1.3v-4.34h1.3v.62c.2-.26.41-.44.61-.54.21-.1.43-.16.69-.16.88,0,1.32.62,1.32,1.87v2.55Z" style="fill: #ededed;"/>
      <path d="m83.63,235.22l-1.67,4.34h-.96l-1.63-4.34h1.39l.76,2.27.84-2.27h1.26Z" style="fill: #ededed;"/>
      <path d="m84.84,238.72c0,.26-.07.47-.22.65s-.33.27-.55.27-.4-.09-.55-.27c-.15-.18-.23-.4-.23-.65s.08-.47.23-.65c.15-.18.34-.27.55-.27.13,0,.26.04.38.12.12.08.22.19.28.33.07.14.1.29.1.46Z" style="fill: #ededed;"/>
      <path d="m92.86,236.6c0,.55-.11,1.06-.32,1.52s-.54.83-.96,1.1c-.42.27-.94.41-1.55.41s-1.14-.14-1.57-.43c-.43-.28-.75-.66-.95-1.12-.21-.46-.31-.96-.31-1.49s.1-1.03.31-1.49c.21-.46.52-.83.95-1.12.43-.28.95-.42,1.57-.42.46,0,.87.08,1.23.24.36.16.66.38.89.66.23.28.41.6.53.97s.18.76.18,1.16Zm-1.53,0c0-.22-.03-.42-.08-.61-.06-.18-.14-.34-.25-.48-.11-.13-.25-.24-.41-.32s-.35-.11-.56-.11c-.4,0-.72.14-.95.42s-.35.64-.35,1.1.12.82.35,1.1c.23.28.55.42.95.42.28,0,.51-.07.71-.19s.34-.31.44-.54.15-.49.15-.79Z" style="fill: #ededed;"/>
      <path d="m97.24,239.56h-1.3v-.62c-.18.23-.38.41-.58.52s-.44.17-.72.17c-.55,0-.91-.19-1.07-.57-.16-.38-.24-.81-.24-1.29v-2.55h1.3v2.34c0,.24.03.44.1.62s.21.27.43.27c.19,0,.34-.06.45-.19.11-.13.22-.29.34-.49v-2.55h1.3v4.34Z" style="fill: #ededed;"/>
      <path d="m100.77,239.31c-.13.08-.32.15-.56.22-.24.07-.46.11-.68.11-.93,0-1.4-.54-1.4-1.62v-1.73h-.59v-.27l1.74-2.1h.15v1.3h1.24v1.07h-1.24v1.39c0,.16,0,.29.03.39s.06.18.14.25c.08.07.2.1.35.1.21,0,.48-.1.81-.31v1.2Z" style="fill: #ededed;"/>
    </g>
    <g>
      <path d="m73.89,280.67h-1.54l-.41-1.2h-2.17l-.41,1.2h-1.54l2.21-5.91h1.66l2.2,5.91Zm-2.29-2.23l-.73-2.16-.74,2.16h1.47Z" style="fill: #ededed;"/>
      <path d="m78.1,280.67h-1.3v-.62c-.18.23-.38.41-.58.52s-.44.17-.72.17c-.55,0-.91-.19-1.07-.57-.16-.38-.24-.81-.24-1.29v-2.55h1.3v2.34c0,.24.03.44.1.62s.21.27.43.27c.19,0,.34-.06.45-.19.11-.13.22-.29.34-.49v-2.55h1.3v4.34Z" style="fill: #ededed;"/>
      <path d="m82.61,280.67h-1.3v-.39c-.14.14-.28.25-.43.34s-.36.13-.63.13-.53-.08-.79-.24c-.26-.16-.47-.4-.63-.73s-.25-.75-.25-1.25c0-.4.06-.77.19-1.11.12-.35.32-.63.59-.84.27-.22.59-.32.98-.32.24,0,.43.03.58.09.15.06.28.14.4.24v-1.82h1.3v5.91Zm-1.3-1.38v-1.66c-.15-.1-.27-.17-.36-.21-.08-.04-.19-.06-.3-.06-.2,0-.37.1-.51.31-.14.21-.2.48-.2.84,0,.38.07.66.21.84.14.17.31.26.5.26.16,0,.28-.03.38-.09.1-.06.19-.13.28-.22Z" style="fill: #ededed;"/>
      <path d="m84.6,280.67h-1.3v-4.34h1.3v4.34Zm-.1-5.34c0,.18-.05.33-.16.46s-.24.19-.39.19c-.1,0-.19-.03-.28-.09-.08-.06-.15-.13-.2-.23-.05-.1-.07-.21-.07-.33,0-.18.05-.33.16-.46.11-.13.23-.19.38-.19s.28.06.39.19.16.28.16.46Z" style="fill: #ededed;"/>
      <path d="m89.34,278.5c0,.43-.08.82-.24,1.16-.16.34-.4.61-.71.8-.32.2-.7.29-1.15.29s-.84-.1-1.15-.29c-.32-.2-.55-.46-.71-.8-.16-.34-.24-.72-.24-1.16,0-.33.04-.62.13-.89.09-.27.22-.5.4-.71.18-.21.4-.36.66-.48.26-.11.56-.17.91-.17s.65.06.92.17.49.27.66.47c.17.2.31.44.39.71.09.27.13.57.13.9Zm-1.36,0c0-.34-.06-.61-.19-.81-.13-.2-.31-.29-.55-.29s-.42.1-.55.29c-.13.19-.19.46-.19.81s.06.61.19.81c.13.2.31.3.54.3s.42-.1.55-.3c.13-.2.19-.47.19-.81Z" style="fill: #ededed;"/>
      <path d="m97.36,277.71c0,.55-.11,1.06-.32,1.52s-.54.83-.96,1.1c-.42.27-.94.41-1.55.41s-1.14-.14-1.57-.43c-.43-.28-.75-.66-.95-1.12-.21-.46-.31-.96-.31-1.49s.1-1.03.31-1.49c.21-.46.52-.83.95-1.12.43-.28.95-.42,1.57-.42.46,0,.87.08,1.23.24.36.16.66.38.89.66.23.28.41.6.53.97s.18.76.18,1.16Zm-1.53,0c0-.22-.03-.42-.08-.61-.06-.18-.14-.34-.25-.48-.11-.13-.25-.24-.41-.32s-.35-.11-.56-.11c-.4,0-.72.14-.95.42s-.35.64-.35,1.1.12.82.35,1.1c.23.28.55.42.95.42.28,0,.51-.07.71-.19s.34-.31.44-.54.15-.49.15-.79Z" style="fill: #ededed;"/>
      <path d="m101.75,280.67h-1.3v-.62c-.18.23-.38.41-.58.52s-.44.17-.72.17c-.55,0-.91-.19-1.07-.57-.16-.38-.24-.81-.24-1.29v-2.55h1.3v2.34c0,.24.03.44.1.62s.21.27.43.27c.19,0,.34-.06.45-.19.11-.13.22-.29.34-.49v-2.55h1.3v4.34Z" style="fill: #ededed;"/>
      <path d="m105.27,280.42c-.13.08-.32.15-.56.22-.24.07-.46.11-.68.11-.93,0-1.4-.54-1.4-1.62v-1.73h-.59v-.27l1.74-2.1h.15v1.3h1.24v1.07h-1.24v1.39c0,.16,0,.29.03.39s.06.18.14.25c.08.07.2.1.35.1.21,0,.48-.1.81-.31v1.2Z" style="fill: #ededed;"/>
    </g>
    <g>
      <path d="m78.34,336.45h-1.65v-5.91h1.65v5.91Z" style="fill: #171717;"/>
      <path d="m83.57,336.45h-1.42v-2.34c0-.24-.04-.45-.11-.62-.07-.18-.23-.27-.48-.27-.12,0-.22.02-.31.07-.09.05-.17.11-.24.18-.07.07-.13.14-.18.21-.05.07-.1.14-.15.22v2.55h-1.42v-4.34h1.42v.62c.22-.26.45-.44.67-.54s.48-.16.75-.16c.96,0,1.45.62,1.45,1.87v2.55Z" style="fill: #171717;"/>
      <path d="m88.63,334.25c0,.29-.04.57-.12.84-.08.27-.19.51-.35.73-.16.22-.36.39-.61.52-.25.13-.53.19-.86.19-.26,0-.47-.03-.62-.09-.15-.06-.3-.14-.45-.24v2.23h-1.42v-6.31h1.42v.39c.14-.13.3-.25.47-.33.17-.09.41-.13.7-.13s.58.08.86.23.51.4.7.73.27.75.27,1.25Zm-1.5.03c0-.26-.04-.47-.12-.64-.08-.16-.17-.28-.3-.35-.12-.07-.25-.11-.38-.11-.17,0-.31.03-.42.09-.11.06-.21.13-.3.22v1.66s.1.06.16.1.11.07.17.09c.06.03.12.05.18.06.06.02.13.03.21.03.22,0,.41-.1.56-.31.15-.2.23-.48.23-.83Z" style="fill: #171717;"/>
      <path d="m93.39,336.45h-1.42v-.62c-.2.23-.41.41-.63.52-.22.12-.49.17-.8.17-.61,0-1-.19-1.18-.57-.18-.38-.27-.81-.27-1.29v-2.55h1.42v2.34c0,.24.04.44.11.62.07.18.23.27.47.27.21,0,.37-.06.5-.19.12-.13.25-.29.37-.49v-2.55h1.42v4.34Z" style="fill: #171717;"/>
      <path d="m97.26,336.2c-.15.08-.35.15-.61.22-.26.07-.51.11-.75.11-1.03,0-1.54-.54-1.54-1.62v-1.73h-.64v-.27l1.91-2.1h.16v1.3h1.36v1.07h-1.36v1.39c0,.16,0,.29.03.39s.07.18.16.25c.08.07.21.1.39.1.23,0,.52-.1.89-.31v1.2Z" style="fill: #171717;"/>
    </g>
    <g>
      <path d="m15.43,343c0,.23-.03.45-.1.66-.06.22-.17.42-.31.6-.14.19-.33.34-.57.45-.24.12-.53.17-.85.17h-.99v2.29h-1.5v-6.09h2.49c.33,0,.61.06.85.18s.43.27.57.46.24.39.31.61c.06.22.1.44.1.67Zm-1.53,0c0-.29-.07-.49-.21-.6-.14-.11-.39-.16-.75-.16h-.32v1.47h.32c.25,0,.44-.02.58-.06.13-.04.23-.11.29-.21.06-.1.09-.25.09-.44Z" style="fill: #171717;"/>
      <path d="m19.74,347.18h-3.76v-6.09h3.7v1.22h-2.2v1.12h2.1v1.23h-2.1v1.3h2.26v1.23Z" style="fill: #171717;"/>
      <path d="m25.3,347.18h-1.62l-.39-1.08c-.14-.4-.27-.68-.39-.87-.12-.18-.23-.3-.34-.35-.11-.05-.25-.08-.42-.08h-.17v2.38h-1.5v-6.09h2.56c.41,0,.75.1,1.02.31.26.21.45.45.57.75s.17.57.17.83c0,.31-.05.57-.15.78-.1.21-.2.37-.31.46-.11.1-.23.19-.36.28.16.11.29.25.4.41.1.16.25.47.43.95l.5,1.32Zm-2.05-4.17c0-.28-.08-.48-.23-.59s-.4-.17-.74-.17h-.32v1.47h.32c.37,0,.62-.05.75-.15.14-.1.2-.29.2-.56Z" style="fill: #171717;"/>
      <path d="m30.16,346.72c-.21.13-.42.24-.63.32-.22.08-.43.14-.65.17-.22.03-.45.05-.68.05-.43,0-.82-.07-1.17-.22-.34-.15-.64-.36-.9-.65-.25-.29-.44-.62-.57-1-.13-.38-.19-.8-.19-1.26,0-.52.07-.98.22-1.38.15-.39.36-.72.62-.98.27-.26.57-.45.92-.58.34-.12.7-.19,1.08-.19.57,0,1.21.15,1.93.46v1.62c-.25-.19-.49-.34-.73-.47-.24-.12-.53-.19-.85-.19-.29,0-.56.07-.81.21s-.46.34-.61.6c-.15.26-.23.57-.23.91,0,.31.07.59.2.85.13.26.32.46.56.61.24.15.51.23.81.23.24,0,.47-.04.69-.11.22-.07.4-.15.55-.24s.3-.19.46-.31v1.54Z" style="fill: #171717;"/>
      <path d="m36.09,344.45c0,.52-.08.97-.24,1.33-.16.37-.37.66-.63.87-.26.21-.55.37-.85.46s-.61.14-.91.14c-.42,0-.83-.09-1.23-.26s-.73-.47-1-.9c-.27-.42-.4-.97-.4-1.65v-3.36h1.5v2.89c0,.4.05.73.14,1,.1.26.23.45.4.58.17.12.37.18.6.18s.42-.06.59-.18c.17-.12.3-.31.4-.57s.14-.59.14-.99v-2.9h1.51v3.36Z" style="fill: #171717;"/>
      <path d="m40.47,345.41c0,.38-.08.71-.24.99-.16.28-.38.49-.67.64-.29.15-.61.22-.98.22-.1,0-.23,0-.38-.02-.15-.02-.35-.06-.6-.13-.25-.07-.51-.18-.78-.33v-1.49c.25.19.5.35.74.47.24.13.5.19.78.19.26,0,.42-.05.5-.16.08-.1.11-.2.11-.29,0-.16-.07-.3-.19-.42-.13-.11-.32-.23-.57-.35-.27-.14-.51-.29-.72-.46-.21-.17-.38-.37-.51-.62-.13-.25-.2-.54-.2-.88s.07-.62.2-.89c.13-.27.33-.48.6-.64s.6-.24.99-.24c.28,0,.54.03.77.1.24.07.43.14.58.22.15.08.26.15.32.19v1.43c-.2-.18-.43-.34-.68-.48s-.52-.21-.8-.21c-.19,0-.32.04-.41.13s-.13.2-.13.33c0,.12.04.22.13.31s.23.19.45.32c.38.22.69.42.92.59s.41.38.54.61c.13.23.2.52.2.86Z" style="fill: #171717;"/>
      <path d="m44.7,345.41c0,.38-.08.71-.24.99-.16.28-.38.49-.67.64-.29.15-.61.22-.98.22-.1,0-.23,0-.38-.02-.15-.02-.35-.06-.6-.13-.25-.07-.51-.18-.78-.33v-1.49c.25.19.5.35.74.47.24.13.5.19.78.19.26,0,.42-.05.5-.16.08-.1.11-.2.11-.29,0-.16-.07-.3-.19-.42-.13-.11-.32-.23-.57-.35-.27-.14-.51-.29-.72-.46-.21-.17-.38-.37-.51-.62-.13-.25-.2-.54-.2-.88s.07-.62.2-.89c.13-.27.33-.48.6-.64s.6-.24.99-.24c.28,0,.54.03.77.1.24.07.43.14.58.22.15.08.26.15.32.19v1.43c-.2-.18-.43-.34-.68-.48s-.52-.21-.8-.21c-.19,0-.32.04-.41.13s-.13.2-.13.33c0,.12.04.22.13.31s.23.19.45.32c.38.22.69.42.92.59s.41.38.54.61c.13.23.2.52.2.86Z" style="fill: #171717;"/>
      <path d="m46.94,347.18h-1.51v-6.09h1.51v6.09Z" style="fill: #171717;"/>
      <path d="m53.26,344.13c0,.57-.11,1.09-.32,1.57s-.54.86-.96,1.14-.94.42-1.55.42-1.14-.15-1.57-.44c-.43-.29-.75-.68-.95-1.16-.21-.48-.31-.99-.31-1.53s.1-1.06.31-1.54c.21-.48.52-.86.95-1.15.43-.29.95-.44,1.57-.44.46,0,.87.08,1.23.25.36.17.66.39.89.68.23.29.41.62.53,1,.12.38.18.78.18,1.2Zm-1.53,0c0-.23-.03-.44-.08-.63-.06-.19-.14-.35-.25-.49-.11-.14-.25-.25-.41-.33-.16-.08-.35-.12-.56-.12-.4,0-.72.14-.95.43-.23.29-.35.66-.35,1.13s.12.84.35,1.13c.23.29.55.43.95.43.28,0,.51-.07.71-.2.19-.13.34-.32.44-.55.1-.24.15-.51.15-.81Z" style="fill: #171717;"/>
      <path d="m59.22,347.18h-1.34l-2.59-3.39v3.39h-1.49v-6.09h1.34l2.58,3.38v-3.38h1.5v6.09Z" style="fill: #171717;"/>
      <path d="m63.6,347.18h-1.51v-6.09h1.51v6.09Z" style="fill: #171717;"/>
      <path d="m70,347.18h-1.34l-2.59-3.39v3.39h-1.49v-6.09h1.34l2.58,3.38v-3.38h1.5v6.09Z" style="fill: #171717;"/>
      <path d="m75.75,342.57h-1.83v4.61h-1.5v-4.61h-1.83v-1.48h5.16v1.48Z" style="fill: #171717;"/>
      <path d="m80.1,347.18h-3.76v-6.09h3.7v1.22h-2.2v1.12h2.1v1.23h-2.1v1.3h2.26v1.23Z" style="fill: #171717;"/>
      <path d="m85.66,347.18h-1.62l-.39-1.08c-.14-.4-.27-.68-.39-.87-.12-.18-.23-.3-.34-.35-.11-.05-.25-.08-.42-.08h-.17v2.38h-1.5v-6.09h2.56c.41,0,.75.1,1.02.31.26.21.45.45.57.75s.17.57.17.83c0,.31-.05.57-.15.78-.1.21-.2.37-.31.46-.11.1-.23.19-.36.28.16.11.29.25.4.41.1.16.25.47.43.95l.5,1.32Zm-2.05-4.17c0-.28-.08-.48-.23-.59s-.4-.17-.74-.17h-.32v1.47h.32c.37,0,.62-.05.75-.15.14-.1.2-.29.2-.56Z" style="fill: #171717;"/>
      <path d="m89.63,344.71h-2.07v2.46h-1.5v-6.09h3.58v1.22h-2.07v1.18h2.07v1.23Z" style="fill: #171717;"/>
      <path d="m95.42,347.18h-1.54l-.41-1.23h-2.17l-.41,1.23h-1.54l2.21-6.09h1.66l2.2,6.09Zm-2.29-2.29l-.73-2.22-.74,2.22h1.47Z" style="fill: #171717;"/>
      <path d="m100.15,346.72c-.21.13-.42.24-.63.32-.22.08-.43.14-.65.17-.22.03-.45.05-.68.05-.43,0-.82-.07-1.17-.22-.34-.15-.64-.36-.9-.65-.25-.29-.44-.62-.57-1-.13-.38-.19-.8-.19-1.26,0-.52.07-.98.22-1.38.15-.39.36-.72.62-.98.27-.26.57-.45.92-.58.34-.12.7-.19,1.08-.19.57,0,1.21.15,1.93.46v1.62c-.25-.19-.49-.34-.73-.47-.24-.12-.53-.19-.85-.19-.29,0-.56.07-.81.21s-.46.34-.61.6c-.15.26-.23.57-.23.91,0,.31.07.59.2.85.13.26.32.46.56.61.24.15.51.23.81.23.24,0,.47-.04.69-.11.22-.07.4-.15.55-.24s.3-.19.46-.31v1.54Z" style="fill: #171717;"/>
      <path d="m104.64,347.18h-3.76v-6.09h3.7v1.22h-2.2v1.12h2.1v1.23h-2.1v1.3h2.26v1.23Z" style="fill: #171717;"/>
    </g>
    <path d="m83.06,76.66v-6.38h-1c0,.06.01,1.61,1.16,3.2,1.15,1.6,3.45,3.14,7.76,3.18v-1c-4.07-.05-5.98-1.44-6.95-2.77-.48-.67-.73-1.33-.85-1.83-.06-.25-.09-.45-.11-.59v-.16s-.01-.04-.01-.04h0s-1,0-1,0v6.38h1,0Z" style="fill: #171717;"/>
    <path d="m83.06,119.15v6.38h-1c0-.06.01-1.61,1.16-3.2,1.15-1.6,3.45-3.14,7.76-3.18v1c-4.07.05-5.98,1.44-6.95,2.77-.48.67-.73,1.33-.85,1.83-.06.25-.09.45-.11.59v.16s-.01.04-.01.04h0s-1,0-1,0v-6.38h1,0Z" style="fill: #171717;"/>
    <g>
      <path d="m86.52,34.33c-.52,0-1.04.04-1.54.11l-.25-1.39c.59-.08,1.18-.12,1.79-.12s1.2.04,1.79.12l-.24,1.39c-.51-.06-1.02-.11-1.54-.11Z" style="fill: #171717;"/>
      <path d="m77.41,38.34l-1.09-.91c.8-.88,1.72-1.65,2.73-2.3l.7,1.22c-.86.56-1.65,1.24-2.35,1.99Z" style="fill: #171717;"/>
      <path d="m80.85,35.72l-.71-1.22c1.05-.55,2.17-.96,3.36-1.23l.25,1.39c-1.02.23-1.99.59-2.9,1.06Z" style="fill: #171717;"/>
      <path d="m75.06,41.96l-1.32-.48c.46-1.11,1.06-2.15,1.78-3.09l1.09.91c-.62.82-1.14,1.71-1.54,2.66Z" style="fill: #171717;"/>
      <path d="m89.3,34.66l.25-1.39c1.18.26,2.31.68,3.36,1.23l-.71,1.22c-.91-.47-1.88-.83-2.89-1.06Z" style="fill: #171717;"/>
      <path d="m74.13,46.17h-1.42c.05-1.22.26-2.39.6-3.51l1.32.48c-.29.96-.46,1.98-.51,3.03Z" style="fill: #171717;"/>
      <path d="m74.67,50.45l-1.32.48c-.36-1.12-.57-2.3-.63-3.5h1.4c.06,1.03.25,2.05.55,3.02Z" style="fill: #171717;"/>
      <path d="m76.65,54.27l-1.08.9c-.72-.94-1.32-1.97-1.79-3.07l1.32-.48c.4.94.92,1.83,1.54,2.64Z" style="fill: #171717;"/>
      <path d="m96.44,39.3l1.09-.91c.72.94,1.32,1.98,1.78,3.09l-1.32.48c-.4-.96-.93-1.84-1.54-2.66Z" style="fill: #171717;"/>
      <path d="m98.41,43.15l1.33-.48c.35,1.12.55,2.29.6,3.51h-1.42c-.05-1.05-.22-2.06-.51-3.03Z" style="fill: #171717;"/>
      <path d="m98.93,47.43h1.41c-.06,1.2-.28,2.38-.63,3.5l-1.32-.48c.3-.97.49-1.98.55-3.02Z" style="fill: #171717;"/>
      <path d="m97.95,51.63l1.32.48c-.46,1.09-1.06,2.12-1.79,3.06l-1.08-.9c.62-.82,1.14-1.7,1.54-2.64Z" style="fill: #171717;"/>
      <path d="m79.8,57.19l-.7,1.22c-1.01-.65-1.92-1.41-2.72-2.27l1.08-.9c.69.74,1.47,1.4,2.34,1.96Z" style="fill: #171717;"/>
      <path d="m95.59,55.23l1.08.9c-.8.86-1.71,1.63-2.72,2.27l-.7-1.22c.87-.56,1.65-1.22,2.34-1.96Z" style="fill: #171717;"/>
      <path d="m93.29,36.35l.71-1.22c1.01.65,1.93,1.42,2.73,2.3l-1.09.91c-.7-.75-1.48-1.43-2.35-1.99Z" style="fill: #171717;"/>
    </g>
    <g>
      <path d="m86.52,81.46c-.52,0-1.04.04-1.54.11l-.25-1.39c.59-.08,1.18-.12,1.79-.12s1.2.04,1.79.12l-.24,1.39c-.51-.06-1.02-.11-1.54-.11Z" style="fill: #171717;"/>
      <path d="m77.41,85.47l-1.09-.91c.8-.88,1.72-1.65,2.73-2.3l.7,1.22c-.86.56-1.65,1.24-2.35,1.99Z" style="fill: #171717;"/>
      <path d="m80.85,82.85l-.71-1.22c1.05-.55,2.17-.96,3.36-1.23l.25,1.39c-1.02.23-1.99.59-2.9,1.06Z" style="fill: #171717;"/>
      <path d="m75.06,89.1l-1.32-.48c.46-1.11,1.06-2.15,1.78-3.09l1.09.91c-.62.82-1.14,1.71-1.54,2.66Z" style="fill: #171717;"/>
      <path d="m89.3,81.79l.25-1.39c1.18.26,2.31.68,3.36,1.23l-.71,1.22c-.91-.47-1.88-.83-2.89-1.06Z" style="fill: #171717;"/>
      <path d="m74.13,93.31h-1.42c.05-1.22.26-2.39.6-3.51l1.32.48c-.29.96-.46,1.98-.51,3.03Z" style="fill: #171717;"/>
      <path d="m74.67,97.58l-1.32.48c-.36-1.12-.57-2.3-.63-3.5h1.4c.06,1.03.25,2.05.55,3.02Z" style="fill: #171717;"/>
      <path d="m76.65,101.41l-1.08.9c-.72-.94-1.32-1.97-1.79-3.07l1.32-.48c.4.94.92,1.83,1.54,2.64Z" style="fill: #171717;"/>
      <path d="m96.44,86.44l1.09-.91c.72.94,1.32,1.98,1.78,3.09l-1.32.48c-.4-.96-.93-1.84-1.54-2.66Z" style="fill: #171717;"/>
      <path d="m98.41,90.28l1.33-.48c.35,1.12.55,2.29.6,3.51h-1.42c-.05-1.05-.22-2.06-.51-3.03Z" style="fill: #171717;"/>
      <path d="m98.93,94.56h1.41c-.06,1.2-.28,2.38-.63,3.5l-1.32-.48c.3-.97.49-1.98.55-3.02Z" style="fill: #171717;"/>
      <path d="m97.95,98.76l1.32.48c-.46,1.09-1.06,2.12-1.79,3.06l-1.08-.9c.62-.82,1.14-1.7,1.54-2.64Z" style="fill: #171717;"/>
      <path d="m79.8,104.32l-.7,1.22c-1.01-.65-1.92-1.41-2.72-2.27l1.08-.9c.69.74,1.47,1.4,2.34,1.96Z" style="fill: #171717;"/>
      <path d="m95.59,102.36l1.08.9c-.8.86-1.71,1.63-2.72,2.27l-.7-1.22c.87-.56,1.65-1.22,2.34-1.96Z" style="fill: #171717;"/>
      <path d="m93.29,83.48l.71-1.22c1.01.65,1.93,1.42,2.73,2.3l-1.09.91c-.7-.75-1.48-1.43-2.35-1.99Z" style="fill: #171717;"/>
    </g>
  </g>
  <g id="components">
    <circle id="Input" cx="86.55" cy="310.71" r="11.34" style="fill: lime;"/>
    <circle id="Env._Out_-" data-name="Env. Out -" cx="41.83" cy="318.61" r="11.34" style="fill: blue;"/>
    <circle id="_-_LED" data-name="- LED" cx="50.37" cy="292.62" r="4.25" style="fill: #f0f;"/>
    <circle id="Env._Out_" data-name="Env. Out +" cx="19.95" cy="286.08" r="11.34" style="fill: blue;"/>
    <circle id="_LED" data-name="+ LED" cx="10.77" cy="261.2" r="4.25" style="fill: #f0f;"/>
    <circle id="Audio_Out" data-name="Audio Out" cx="86.52" cy="257.67" r="11.34" style="fill: blue;"/>
    <circle id="Gate_Out" data-name="Gate Out" cx="41.83" cy="253.56" r="11.34" style="fill: #8080ff;"/>
    <circle id="Inv._Out" data-name="Inv. Out" cx="86.52" cy="217.28" r="11.34" style="fill: blue;"/>
    <circle id="Gate_LED" data-name="Gate LED" cx="50.37" cy="230.46" r="4.25" style="fill: #f0f;"/>
    <circle id="IN" cx="19.83" cy="221.47" r="11.34" style="fill: lime;"/>
    <circle id="Env._Out" data-name="Env. Out" cx="86.52" cy="176.9" r="11.34" style="fill: blue;"/>
    <rect id="Follow_Gen" data-name="Follow | Gen" x="25.13" y="186.97" width="11.34" height="17.01" transform="translate(226.27 164.67) rotate(90)" style="fill: #ff8080;"/>
    <rect id="Low_Med_High" data-name="Low | Med | High" x="80.86" y="130.04" width="11.34" height="17.01" transform="translate(225.06 52.01) rotate(90)" style="fill: #ffc080;"/>
    <circle id="Env._Decay" data-name="Env. Decay" cx="30.8" cy="153.17" r="8.5" style="fill: #ff0040;"/>
    <circle id="Inv._Level" data-name="Inv. Level" cx="86.53" cy="93.62" r="8.5" style="fill: #ff0080;"/>
    <circle id="Sustain" cx="30.8" cy="109.3" r="8.5" style="fill: #ff0040;"/>
    <circle id="Env._Level" data-name="Env. Level" cx="86.53" cy="46.58" r="8.5" style="fill: #ff0080;"/>
    <circle id="Sensitivity" cx="30.9" cy="54.04" r="17.01" style="fill: #ff0070;"/>
    <circle id="Sens._LED" data-name="Sens. LED" cx="11.39" cy="32.64" r="4.25" style="fill: #f0f;"/>
    <text id="slug" transform="translate(83.84 368.72)" style="font-family: MyriadPro-Regular, &apos;Myriad Pro&apos;; font-size: 3px;"><tspan x="0" y="0">PI</tspan></text>
    <text id="modulename" transform="translate(88.97 368.72)" style="font-family: MyriadPro-Regular, &apos;Myriad Pro&apos;; font-size: 3px;"><tspan x="0" y="0" style="letter-spacing: -.02em;">P</tspan><tspan x="1.52" y="0">e</tspan><tspan x="3.02" y="0" style="letter-spacing: -.01em;">r</tspan><tspan x="3.97" y="0" style="letter-spacing: 0em;">cussion </tspan><tspan x="14" y="0" style="letter-spacing: .01em;">I</tspan><tspan x="14.75" y="0" style="letter-spacing: 0em;">nt</tspan><tspan x="17.37" y="0">e</tspan><tspan x="18.88" y="0" style="letter-spacing: .03em;">r</tspan><tspan x="19.95" y="0" style="letter-spacing: 0em;">fa</tspan><tspan x="22.27" y="0" style="letter-spacing: 0em;">c</tspan><tspan x="23.59" y="0">e</tspan></text>
  </g>
</svg>