<svg xmlns="http://www.w3.org/2000/svg" width="20.41mm" height="130.34mm" viewBox="0 0 57.85 369.47">
  <g id="faceplate">
    <rect x="0.13" y="0.13" width="57.6" height="364.25" style="fill: #ededed;stroke: #9d9d9e;stroke-miterlimit: 10;stroke-width: 0.25px"/>
    <g>
      <path d="M26,13.31a4.54,4.54,0,0,0,0-9.07H17.59a4.54,4.54,0,0,0,0,9.07Z"/>
      <path d="M26,360.57a4.54,4.54,0,0,0,0-9.07H17.59a4.54,4.54,0,0,0,0,9.07Z"/>
    </g>
    <path d="M55,217.92C55,211.19,49.83,205,43.09,205H15.18c-6.73,0-12.55,6.1-12.55,12.83v76.26H55Z"/>
    <path d="M28.92,34.53a19.9,19.9,0,0,0-2.45.17l-.39-2.22a22.57,22.57,0,0,1,5.69,0l-.39,2.22A19.92,19.92,0,0,0,28.92,34.53Z"/>
    <path d="M14.43,40.9l-1.72-1.45a22.06,22.06,0,0,1,4.34-3.66l1.12,1.94A19.94,19.94,0,0,0,14.43,40.9Z"/>
    <path d="M19.9,36.73l-1.13-1.94a21.89,21.89,0,0,1,5.34-2l.39,2.22A19.61,19.61,0,0,0,19.9,36.73Z"/>
    <path d="M10.69,46.67,8.6,45.9A21.78,21.78,0,0,1,11.43,41l1.72,1.44A19.88,19.88,0,0,0,10.69,46.67Z"/>
    <path d="M33.35,35l.39-2.21a21.67,21.67,0,0,1,5.33,2L38,36.73A20.09,20.09,0,0,0,33.35,35Z"/>
    <path d="M9.21,53.36H7a22,22,0,0,1,1-5.58l2.11.77A19.6,19.6,0,0,0,9.21,53.36Z"/>
    <path d="M10.07,60.16,8,60.93a22.17,22.17,0,0,1-1-5.57H9.2A19.74,19.74,0,0,0,10.07,60.16Z"/>
    <path d="M13.21,66.24,11.5,67.68A22.06,22.06,0,0,1,8.66,62.8l2.1-.76A20.05,20.05,0,0,0,13.21,66.24Z"/>
    <path d="M44.7,42.43,46.43,41a22.63,22.63,0,0,1,2.83,4.92l-2.1.77A19.64,19.64,0,0,0,44.7,42.43Z"/>
    <path d="M47.83,48.55l2.11-.77a22,22,0,0,1,1,5.58H48.64A19.6,19.6,0,0,0,47.83,48.55Z"/>
    <path d="M48.65,55.36h2.24a22.17,22.17,0,0,1-1,5.57l-2.1-.77A19.74,19.74,0,0,0,48.65,55.36Z"/>
    <path d="M47.09,62l2.1.76a22.06,22.06,0,0,1-2.84,4.88l-1.71-1.44A19.87,19.87,0,0,0,47.09,62Z"/>
    <path d="M18.23,70.89l-1.12,1.93A22.13,22.13,0,0,1,12.8,69.2l1.71-1.43A20.39,20.39,0,0,0,18.23,70.89Z"/>
    <path d="M43.34,67.77l1.72,1.43a22.5,22.5,0,0,1-4.32,3.62l-1.12-1.94A19.94,19.94,0,0,0,43.34,67.77Z"/>
    <path d="M39.68,37.73l1.12-1.94a22.41,22.41,0,0,1,4.35,3.66L43.42,40.9A19.94,19.94,0,0,0,39.68,37.73Z"/>
    <path d="M28.9,141.05a13.13,13.13,0,0,0-1.54.1l-.25-1.39a13.41,13.41,0,0,1,3.58,0l-.25,1.39A13,13,0,0,0,28.9,141.05Z"/>
    <path d="M19.79,145.05l-1.09-.91a14.29,14.29,0,0,1,2.73-2.3l.71,1.22A12.83,12.83,0,0,0,19.79,145.05Z"/>
    <path d="M23.22,142.43l-.7-1.22A13.78,13.78,0,0,1,25.88,140l.24,1.39A12.57,12.57,0,0,0,23.22,142.43Z"/>
    <path d="M17.44,148.68l-1.32-.48a13.73,13.73,0,0,1,1.78-3.09L19,146A12.55,12.55,0,0,0,17.44,148.68Z"/>
    <path d="M31.68,141.37l.25-1.39a13.86,13.86,0,0,1,3.35,1.23l-.7,1.22A12.57,12.57,0,0,0,31.68,141.37Z"/>
    <path d="M16.5,152.89H15.08a14,14,0,0,1,.61-3.51l1.32.48A12.64,12.64,0,0,0,16.5,152.89Z"/>
    <path d="M17.05,157.16l-1.32.49a13.77,13.77,0,0,1-.64-3.5H16.5A11.76,11.76,0,0,0,17.05,157.16Z"/>
    <path d="M19,161l-1.08.9a14,14,0,0,1-1.78-3.06l1.32-.49A12.3,12.3,0,0,0,19,161Z"/>
    <path d="M38.82,146l1.09-.91a14.08,14.08,0,0,1,1.77,3.09l-1.32.48A12.55,12.55,0,0,0,38.82,146Z"/>
    <path d="M40.79,149.86l1.32-.48a13.59,13.59,0,0,1,.61,3.51H41.3A12.64,12.64,0,0,0,40.79,149.86Z"/>
    <path d="M41.3,154.15h1.41a14,14,0,0,1-.63,3.49l-1.32-.48A12.19,12.19,0,0,0,41.3,154.15Z"/>
    <path d="M40.32,158.34l1.33.49a14.42,14.42,0,0,1-1.79,3.06l-1.08-.9A12.55,12.55,0,0,0,40.32,158.34Z"/>
    <path d="M22.18,163.91l-.7,1.21a13.84,13.84,0,0,1-2.72-2.27l1.08-.9A12.3,12.3,0,0,0,22.18,163.91Z"/>
    <path d="M38,161.94l1.07.91a13.5,13.5,0,0,1-2.71,2.27l-.7-1.21A12.29,12.29,0,0,0,38,161.94Z"/>
    <path d="M35.66,143.06l.71-1.22a14,14,0,0,1,2.73,2.3l-1.09.91A12.83,12.83,0,0,0,35.66,143.06Z"/>
    <path d="M28.9,96.89a13.13,13.13,0,0,0-1.54.1l-.25-1.39a13.41,13.41,0,0,1,3.58,0L30.44,97A13,13,0,0,0,28.9,96.89Z"/>
    <path d="M19.79,100.89,18.7,100a14.29,14.29,0,0,1,2.73-2.3l.71,1.22A12.83,12.83,0,0,0,19.79,100.89Z"/>
    <path d="M23.22,98.27l-.7-1.22a13.78,13.78,0,0,1,3.36-1.23l.24,1.39A12.57,12.57,0,0,0,23.22,98.27Z"/>
    <path d="M17.44,104.52,16.12,104A13.73,13.73,0,0,1,17.9,101l1.08.91A12.55,12.55,0,0,0,17.44,104.52Z"/>
    <path d="M31.68,97.21l.25-1.39a13.45,13.45,0,0,1,3.35,1.23l-.7,1.22A12.12,12.12,0,0,0,31.68,97.21Z"/>
    <path d="M16.5,108.73H15.08a14,14,0,0,1,.61-3.51l1.32.48A12.64,12.64,0,0,0,16.5,108.73Z"/>
    <path d="M17.05,113l-1.32.49a13.77,13.77,0,0,1-.64-3.5H16.5A11.76,11.76,0,0,0,17.05,113Z"/>
    <path d="M19,116.83l-1.08.9a14,14,0,0,1-1.78-3.06l1.32-.49A12.55,12.55,0,0,0,19,116.83Z"/>
    <path d="M38.82,101.86l1.09-.91A14.08,14.08,0,0,1,41.68,104l-1.32.48A12.31,12.31,0,0,0,38.82,101.86Z"/>
    <path d="M40.79,105.7l1.32-.48a13.59,13.59,0,0,1,.61,3.51H41.3A12.64,12.64,0,0,0,40.79,105.7Z"/>
    <path d="M41.3,110h1.41a14,14,0,0,1-.63,3.49L40.76,113A12.19,12.19,0,0,0,41.3,110Z"/>
    <path d="M40.32,114.18l1.33.49a14.42,14.42,0,0,1-1.79,3.06l-1.08-.9A12.55,12.55,0,0,0,40.32,114.18Z"/>
    <path d="M22.18,119.75l-.7,1.21a13.84,13.84,0,0,1-2.72-2.27l1.08-.9A12.3,12.3,0,0,0,22.18,119.75Z"/>
    <path d="M38,117.78l1.07.91A13.5,13.5,0,0,1,36.33,121l-.7-1.21A12.66,12.66,0,0,0,38,117.78Z"/>
    <path d="M35.66,98.9l.71-1.22A14,14,0,0,1,39.1,100l-1.09.91A12.83,12.83,0,0,0,35.66,98.9Z"/>
    <g>
      <g>
        <line x1="29.05" y1="107.33" x2="29.05" y2="111.49" style="stroke: #231f20"/>
        <line x1="31.13" y1="109.41" x2="26.96" y2="109.41" style="stroke: #231f20"/>
      </g>
      <line x1="29.05" y1="107.33" x2="29.05" y2="111.49" style="stroke: #231f20"/>
      <line x1="29.05" y1="107.33" x2="29.05" y2="111.49" style="stroke: #231f20"/>
      <line x1="29.05" y1="107.33" x2="29.05" y2="111.49" style="stroke: #231f20"/>
      <line x1="29.05" y1="107.33" x2="29.05" y2="111.49" style="stroke: #231f20"/>
      <line x1="29.05" y1="107.33" x2="29.05" y2="111.49" style="stroke: #231f20"/>
      <line x1="29.05" y1="107.33" x2="29.05" y2="111.49" style="stroke: #231f20"/>
    </g>
    <path d="M55.46,315h0V293.62a7.11,7.11,0,0,0-2.76-5.74c-.3-.23-29.66-23.22-39.91-31.36h0a6.12,6.12,0,0,0-3.9-1.37,6.09,6.09,0,0,0-6.16,6h0V315h0v6.73a12.88,12.88,0,0,0,12.86,12.87h27a12.89,12.89,0,0,0,12.87-12.87ZM3.72,261.2m0,59.8" style="stroke: #ededed"/>
    <path d="M3.13,237.39H20.94a12.27,12.27,0,0,0,12.24-12.24V205.56H15.37A12.28,12.28,0,0,0,3.13,217.8v19.59Z" style="fill: #ededed;stroke: #000"/>
    <path d="M45.45,15.49,39,23.71v-7a1.5,1.5,0,0,0-.75-1.37,1.05,1.05,0,0,0-1.32.34l-8.5,10.81a1.71,1.71,0,0,0,0,2.09,1.05,1.05,0,0,0,1.7,0l6.43-8.17v7.05a1.52,1.52,0,0,0,.75,1.37,1.07,1.07,0,0,0,1.33-.35l6.46-8.21v7.19a1.23,1.23,0,1,0,2.41,0V16.52a1.52,1.52,0,0,0-.75-1.37A1.05,1.05,0,0,0,45.45,15.49Z"/>
    <path d="M29.27,29.4a1.54,1.54,0,0,1-1.18-.57,2.16,2.16,0,0,1,0-2.66l8.5-10.81a1.51,1.51,0,0,1,1.88-.47,2,2,0,0,1,1,1.78v5.74l5.66-7.19A1.5,1.5,0,0,1,47,14.75a1.94,1.94,0,0,1,1,1.77V27.38a1.67,1.67,0,1,1-3.31,0V21.49L39,28.68a1.52,1.52,0,0,1-1.88.47,1.94,1.94,0,0,1-1-1.77V21.63L30.5,28.78a1.59,1.59,0,0,1-1.2.62Zm8.51-13.76a.66.66,0,0,0-.52.28l-8.5,10.8a1.29,1.29,0,0,0,0,1.53.66.66,0,0,0,.49.25h0a.65.65,0,0,0,.51-.28l6.42-8.16.8-1v8.35a1.08,1.08,0,0,0,.51,1,.63.63,0,0,0,.77-.22s4.08-5.2,6.47-8.22l.8-1v8.49c0,.57.34,1,.75,1s.76-.47.76-1V16.52a1.07,1.07,0,0,0-.5-1,.61.61,0,0,0-.77.22L38.53,25V16.67a1.07,1.07,0,0,0-.5-1Z"/>
    <path d="M28.41,15.41l-5.63,7.16a1.72,1.72,0,0,0,0,2.09,1.06,1.06,0,0,0,1.71,0l3.56-4.52v7.37A1.36,1.36,0,0,0,29.27,29a1.36,1.36,0,0,0,1.21-1.48v-11a1.53,1.53,0,0,0-.75-1.38A1.07,1.07,0,0,0,28.41,15.41Z"/>
    <path d="M29.27,29.4a1.8,1.8,0,0,1-1.65-1.93V21.4l-2.75,3.5a1.57,1.57,0,0,1-1.2.63A1.62,1.62,0,0,1,22.46,25a2.19,2.19,0,0,1,0-2.67l5.63-7.16a1.51,1.51,0,0,1,1.88-.47,2,2,0,0,1,1,1.78v11A1.81,1.81,0,0,1,29.27,29.4Zm-.75-10.6v8.67c0,.56.34,1,.75,1s.76-.46.76-1v-11a1.07,1.07,0,0,0-.5-1,.61.61,0,0,0-.77.22l-5.63,7.16a1.27,1.27,0,0,0,0,1.52.64.64,0,0,0,.49.26h0a.7.7,0,0,0,.51-.29Z"/>
    <path d="M55.22,20.69a1.23,1.23,0,0,0-1.11-.9H51.65l1.8-2.28s.93-1.37.11-2.13a1.49,1.49,0,0,0-1.85.07l-3.77,4.79a1.76,1.76,0,0,0-.24,1.61,1.24,1.24,0,0,0,1.11.9h2.47l-2.92,3.71s-1.21,1.31-.32,2.21,2.06-.16,2.06-.16L55,22.3A1.73,1.73,0,0,0,55.22,20.69Z"/>
    <path d="M48.86,29.47A1.54,1.54,0,0,1,47.73,29c-.95-.94-.22-2.26.3-2.83l2.32-2.95H48.81A1.66,1.66,0,0,1,47.28,22a2.2,2.2,0,0,1,.31-2l3.84-4.86a1.87,1.87,0,0,1,2.43,0c.88.8.39,2.08,0,2.71l-1.24,1.58h1.53a1.68,1.68,0,0,1,1.54,1.2,2.21,2.21,0,0,1-.32,2l-4.88,6.21A2.53,2.53,0,0,1,48.86,29.47ZM52,15.78,48.3,20.52a1.26,1.26,0,0,0-.17,1.18.79.79,0,0,0,.68.6H52.2l-3.49,4.43s-.92,1-.35,1.62,1.35-.1,1.43-.18L54.63,22a1.29,1.29,0,0,0,.17-1.18h0a.79.79,0,0,0-.69-.6H50.73l2.37-3h0s.67-1.05.15-1.51A1,1,0,0,0,52,15.78Z"/>
    <g>
      <path d="M9.1,337.48A1.89,1.89,0,0,1,9,338a1.52,1.52,0,0,1-.25.49,1.19,1.19,0,0,1-.46.36,1.52,1.52,0,0,1-.69.14h-.8v1.85H5.61v-4.92h2a1.67,1.67,0,0,1,.69.14,1.32,1.32,0,0,1,.46.37,1.62,1.62,0,0,1,.25.49A2,2,0,0,1,9.1,337.48Zm-1.24,0a.59.59,0,0,0-.17-.48,1.13,1.13,0,0,0-.61-.13H6.82v1.19h.26a1.81,1.81,0,0,0,.47-.05.36.36,0,0,0,.24-.17A.82.82,0,0,0,7.86,337.48Z"/>
      <path d="M13.44,340.85h-3v-4.92h3v1H11.62v.9h1.69v1H11.62v1.05h1.82Z"/>
      <path d="M18.79,340.85h-1.3l-.32-.87a3.49,3.49,0,0,0-.31-.7.77.77,0,0,0-.27-.29.88.88,0,0,0-.35-.06h-.13v1.92H14.89v-4.92H17a1.27,1.27,0,0,1,.82.25,1.41,1.41,0,0,1,.46.6,1.92,1.92,0,0,1,.14.68,1.54,1.54,0,0,1-.12.63,1.13,1.13,0,0,1-.24.37,2.32,2.32,0,0,1-.3.22A1.42,1.42,0,0,1,18,339a4.65,4.65,0,0,1,.35.77Zm-1.65-3.37A.56.56,0,0,0,17,337a1,1,0,0,0-.6-.14h-.25v1.19h.26a1.09,1.09,0,0,0,.61-.12A.53.53,0,0,0,17.14,337.48Z"/>
      <path d="M23.59,340.48a2.45,2.45,0,0,1-.51.26,3.16,3.16,0,0,1-.53.13,3.31,3.31,0,0,1-.55,0,2.54,2.54,0,0,1-.94-.17,2.11,2.11,0,0,1-.73-.53,2.48,2.48,0,0,1-.46-.81,3.29,3.29,0,0,1-.15-1,3.17,3.17,0,0,1,.18-1.12,2.16,2.16,0,0,1,.51-.79,2,2,0,0,1,.74-.47,2.49,2.49,0,0,1,.87-.15,4,4,0,0,1,1.56.38v1.3a4.56,4.56,0,0,0-.6-.38,1.47,1.47,0,0,0-.69-.15,1.3,1.3,0,0,0-1.14.66,1.38,1.38,0,0,0-.19.74,1.55,1.55,0,0,0,.16.68,1.28,1.28,0,0,0,1.11.68,1.77,1.77,0,0,0,.56-.09,2.63,2.63,0,0,0,.44-.19c.11-.08.24-.16.36-.26Z"/>
      <path d="M29.24,338.65a2.66,2.66,0,0,1-.19,1.07,1.91,1.91,0,0,1-.51.71,2.32,2.32,0,0,1-.69.37,2.69,2.69,0,0,1-.73.11,2.46,2.46,0,0,1-1-.21,1.8,1.8,0,0,1-.81-.72,2.45,2.45,0,0,1-.33-1.33v-2.72H26.2v2.33a2.37,2.37,0,0,0,.11.81,1,1,0,0,0,.32.46.81.81,0,0,0,.49.15.8.8,0,0,0,.47-.15.9.9,0,0,0,.32-.46,2.29,2.29,0,0,0,.12-.8v-2.34h1.21Z"/>
      <path d="M33.65,339.42a1.58,1.58,0,0,1-.19.8,1.33,1.33,0,0,1-.54.51,2,2,0,0,1-1.1.16,2.83,2.83,0,0,1-.49-.11,2.49,2.49,0,0,1-.62-.26v-1.2a4,4,0,0,0,.6.38,1.33,1.33,0,0,0,.63.15c.21,0,.34,0,.4-.12a.42.42,0,0,0-.06-.58,2.5,2.5,0,0,0-.46-.28,3.61,3.61,0,0,1-.58-.37,1.55,1.55,0,0,1-.41-.5,1.46,1.46,0,0,1-.16-.71,1.53,1.53,0,0,1,.16-.72,1.23,1.23,0,0,1,.49-.52,1.66,1.66,0,0,1,.8-.19,2.47,2.47,0,0,1,.63.08,3.35,3.35,0,0,1,.47.18,1.57,1.57,0,0,1,.25.16v1.15a3.35,3.35,0,0,0-.55-.39,1.3,1.3,0,0,0-.64-.17A.42.42,0,0,0,32,337a.36.36,0,0,0-.11.26.34.34,0,0,0,.11.25,1.19,1.19,0,0,0,.36.26,6.89,6.89,0,0,1,.74.48,1.69,1.69,0,0,1,.44.49A1.37,1.37,0,0,1,33.65,339.42Z"/>
      <path d="M37.93,339.42a1.58,1.58,0,0,1-.2.8,1.33,1.33,0,0,1-.54.51,1.67,1.67,0,0,1-.79.18,1.78,1.78,0,0,1-.31,0,2.58,2.58,0,0,1-.48-.11,2.72,2.72,0,0,1-.63-.26v-1.2a5.33,5.33,0,0,0,.6.38,1.39,1.39,0,0,0,.63.15c.21,0,.35,0,.41-.12a.45.45,0,0,0,.09-.24.43.43,0,0,0-.16-.34,2.37,2.37,0,0,0-.45-.28,3.31,3.31,0,0,1-.59-.37,1.53,1.53,0,0,1-.4-.5,1.46,1.46,0,0,1-.16-.71,1.53,1.53,0,0,1,.16-.72,1.17,1.17,0,0,1,.49-.52,1.6,1.6,0,0,1,.8-.19,2.45,2.45,0,0,1,.62.08,3.35,3.35,0,0,1,.47.18,1.37,1.37,0,0,1,.26.16v1.15a3.85,3.85,0,0,0-.55-.39,1.34,1.34,0,0,0-.65-.17.45.45,0,0,0-.33.11.35.35,0,0,0-.1.26.33.33,0,0,0,.1.25,1.52,1.52,0,0,0,.36.26,8.44,8.44,0,0,1,.75.48,1.69,1.69,0,0,1,.44.49A1.48,1.48,0,0,1,37.93,339.42Z"/>
      <path d="M40.61,340.85H39.4v-4.92h1.21Z"/>
      <path d="M46.57,338.39a2.93,2.93,0,0,1-.26,1.26,2.1,2.1,0,0,1-.77.92,2.47,2.47,0,0,1-2.52,0,2.14,2.14,0,0,1-.77-.94,3.18,3.18,0,0,1,0-2.47,2,2,0,0,1,.77-.93,2.15,2.15,0,0,1,1.26-.36,2.26,2.26,0,0,1,1,.21,2,2,0,0,1,.72.54,2.42,2.42,0,0,1,.43.81A3.45,3.45,0,0,1,46.57,338.39Zm-1.24,0a2,2,0,0,0-.06-.51,1.39,1.39,0,0,0-.21-.4.85.85,0,0,0-.33-.26,1,1,0,0,0-.45-.09.91.91,0,0,0-.76.34,1.42,1.42,0,0,0-.28.92,1.39,1.39,0,0,0,.28.91,1,1,0,0,0,1.33.19,1,1,0,0,0,.36-.45A1.67,1.67,0,0,0,45.33,338.39Z"/>
      <path d="M52.25,340.85H51.17l-2.09-2.74v2.74H47.87v-4.92H49L51,338.66v-2.73h1.21Z"/>
    </g>
    <g>
      <path d="M7,348.81H5.35v-6.76H7Z"/>
      <path d="M14.13,348.81H12.64L9.77,345v3.77H8.11v-6.76H9.59l2.87,3.75v-3.75h1.67Z"/>
      <path d="M20.52,343.69h-2v5.12H16.82v-5.12h-2v-1.64h5.73Z"/>
      <path d="M25.36,348.81H21.18v-6.76h4.11v1.35H22.85v1.24h2.33V346H22.85v1.44h2.51Z"/>
      <path d="M31.53,348.81H29.74l-.44-1.2a5.09,5.09,0,0,0-.43-1,1,1,0,0,0-.38-.39,1,1,0,0,0-.47-.09h-.18v2.64H26.16v-6.76H29a1.79,1.79,0,0,1,1.13.34,2,2,0,0,1,.63.83,2.45,2.45,0,0,1,.19.93,2,2,0,0,1-.16.86,1.46,1.46,0,0,1-.34.52,3.25,3.25,0,0,1-.4.31,1.71,1.71,0,0,1,.44.45,5.64,5.64,0,0,1,.47,1Zm-2.27-4.62a.77.77,0,0,0-.25-.66,1.44,1.44,0,0,0-.82-.18h-.35V345h.36a1.55,1.55,0,0,0,.84-.17A.73.73,0,0,0,29.26,344.19Z"/>
      <path d="M36,346.07H33.65v2.74H32v-6.76h4v1.35H33.65v1.31H36Z"/>
      <path d="M42.38,348.81H40.67l-.45-1.37H37.81l-.46,1.37H35.63l2.46-6.76h1.85Zm-2.55-2.54L39,343.79l-.82,2.48Z"/>
      <path d="M47.65,348.31a4.16,4.16,0,0,1-.7.35,3.93,3.93,0,0,1-.73.19,6.19,6.19,0,0,1-.76,0,3.38,3.38,0,0,1-1.3-.24,2.94,2.94,0,0,1-1-.72,2.88,2.88,0,0,1-.63-1.12,4.14,4.14,0,0,1-.22-1.39,4.48,4.48,0,0,1,.25-1.54,3.06,3.06,0,0,1,.7-1.09,2.76,2.76,0,0,1,1-.64,3.46,3.46,0,0,1,1.21-.21,5.41,5.41,0,0,1,2.14.52v1.79a6.94,6.94,0,0,0-.82-.52,2.13,2.13,0,0,0-.94-.2,1.77,1.77,0,0,0-1.58.9,2,2,0,0,0-.26,1,2,2,0,0,0,.22.94,1.7,1.7,0,0,0,.62.68,1.65,1.65,0,0,0,.9.25,2.43,2.43,0,0,0,.77-.12,2.4,2.4,0,0,0,.6-.26,3.87,3.87,0,0,0,.51-.35Z"/>
      <path d="M52.64,348.81H48.46v-6.76h4.12v1.35H50.14v1.24h2.32V346H50.14v1.44h2.5Z"/>
    </g>
    <g>
      <path d="M15.23,246H13.8v-5.78h1.43Z" style="fill: #fff"/>
      <path d="M21.57,246H20.3l-2.46-3.22V246H16.42v-5.78h1.27l2.45,3.2v-3.2h1.43Z" style="fill: #fff"/>
    </g>
    <path d="M11.13,271.51H9.42v1.86h-1v-1.86H6.74v-1.05H8.45v-1.85h1v1.85h1.71Z" style="fill: #fff"/>
    <path d="M50.41,302.47H46.32v-1.19h4.09Z" style="fill: #fff"/>
    <g>
      <path d="M11,82.09a2.32,2.32,0,0,1-.3,1.2,1.91,1.91,0,0,1-.81.78,2.59,2.59,0,0,1-1.2.27l-.46,0a3.37,3.37,0,0,1-.73-.16,4.72,4.72,0,0,1-1-.4V81.93a6.26,6.26,0,0,0,.91.58,2.05,2.05,0,0,0,.95.23c.32,0,.52-.06.61-.19a.59.59,0,0,0-.1-.86,3.33,3.33,0,0,0-.69-.43,5.32,5.32,0,0,1-.88-.56,2.3,2.3,0,0,1-.61-.76,2.25,2.25,0,0,1-.24-1.07,2.39,2.39,0,0,1,.24-1.09A1.91,1.91,0,0,1,7.52,77a2.38,2.38,0,0,1,1.21-.28,3.51,3.51,0,0,1,.94.12,3.65,3.65,0,0,1,.72.27l.38.23v1.74a5.1,5.1,0,0,0-.83-.58,2,2,0,0,0-1-.26.7.7,0,0,0-.5.16.57.57,0,0,0-.15.4.54.54,0,0,0,.15.38,2.47,2.47,0,0,0,.55.39,9.54,9.54,0,0,1,1.12.73,2.34,2.34,0,0,1,.67.74A2.09,2.09,0,0,1,11,82.09Z"/>
      <path d="M16.38,82H13.23a1.37,1.37,0,0,0,.45.81,1.21,1.21,0,0,0,.82.32,3.68,3.68,0,0,0,1.76-.55v1.2a4.12,4.12,0,0,1-.84.39,3.74,3.74,0,0,1-1.26.18,2.5,2.5,0,0,1-1.4-.37,2.28,2.28,0,0,1-.87-1,3.77,3.77,0,0,1,0-2.9,2.2,2.2,0,0,1,.87-1,2.5,2.5,0,0,1,1.4-.37,2.06,2.06,0,0,1,1.89,1.23,3.69,3.69,0,0,1,.33,1.68Zm-1.49-1a1.49,1.49,0,0,0-.21-.84.69.69,0,0,0-.61-.31.74.74,0,0,0-.64.32,1.34,1.34,0,0,0-.25.83Z"/>
      <path d="M21.7,84.25H20.12v-3a2.28,2.28,0,0,0-.12-.78.52.52,0,0,0-.53-.34.68.68,0,0,0-.35.09,1.38,1.38,0,0,0-.26.23,1.48,1.48,0,0,0-.19.27c-.06.08-.11.18-.17.27v3.21H16.92V78.79H18.5v.78a2.43,2.43,0,0,1,.75-.68,1.8,1.8,0,0,1,.84-.2c1.07,0,1.61.79,1.61,2.35Z"/>
      <path d="M25.9,82.66a1.7,1.7,0,0,1-.45,1.22,1.76,1.76,0,0,1-1.33.46,3,3,0,0,1-.89-.11,5.15,5.15,0,0,1-.84-.31V82.55a5.33,5.33,0,0,0,.69.42,1.41,1.41,0,0,0,.65.15c.39,0,.59-.14.59-.4a.41.41,0,0,0-.08-.24,1.15,1.15,0,0,0-.3-.23c-.15-.09-.33-.2-.57-.32a2.4,2.4,0,0,1-.75-.63,1.64,1.64,0,0,1,.51-2.37,2,2,0,0,1,1-.24l.36,0a3.09,3.09,0,0,1,.55.12,3,3,0,0,1,.63.29v1.34l-.23-.17-.26-.16a1.58,1.58,0,0,0-.37-.15,1.31,1.31,0,0,0-.44-.07.44.44,0,0,0-.37.13.41.41,0,0,0-.1.26.38.38,0,0,0,.11.25,1.7,1.7,0,0,0,.46.28,4.22,4.22,0,0,1,.85.51,1.5,1.5,0,0,1,.45.57A1.85,1.85,0,0,1,25.9,82.66Z"/>
      <path d="M28.19,84.25H26.61V78.79h1.58Zm-.13-6.72a.84.84,0,0,1-.19.57.59.59,0,0,1-.47.24.58.58,0,0,1-.34-.11.76.76,0,0,1-.24-.29.91.91,0,0,1-.09-.41.88.88,0,0,1,.2-.57.57.57,0,0,1,.47-.24.59.59,0,0,1,.47.24A.87.87,0,0,1,28.06,77.53Z"/>
      <path d="M32.57,83.93a3.25,3.25,0,0,1-.68.28,2.76,2.76,0,0,1-.83.13c-1.14,0-1.71-.67-1.71-2V80.13h-.71v-.34l2.12-2.64h.18v1.64h1.51v1.34H30.94v1.75a3.19,3.19,0,0,0,0,.49.5.5,0,0,0,.17.31.63.63,0,0,0,.44.13,2.1,2.1,0,0,0,1-.38Z"/>
      <path d="M34.69,84.25H33.1V78.79h1.59Zm-.13-6.72a.84.84,0,0,1-.2.57.59.59,0,0,1-.47.24.6.6,0,0,1-.34-.11.76.76,0,0,1-.24-.29.91.91,0,0,1-.09-.41.88.88,0,0,1,.2-.57.58.58,0,0,1,.94,0A.88.88,0,0,1,34.56,77.53Z"/>
      <path d="M40.26,78.79l-2,5.46H37.05l-2-5.46h1.7l.93,2.86,1-2.86Z"/>
      <path d="M42.21,84.25H40.62V78.79h1.59Zm-.13-6.72a.8.8,0,0,1-.2.57.58.58,0,0,1-.47.24.57.57,0,0,1-.33-.11.76.76,0,0,1-.24-.29.91.91,0,0,1-.09-.41A.83.83,0,0,1,41,77a.56.56,0,0,1,.46-.24.58.58,0,0,1,.47.24A.83.83,0,0,1,42.08,77.53Z"/>
      <path d="M46.59,83.93a3.25,3.25,0,0,1-.68.28,2.8,2.8,0,0,1-.83.13c-1.14,0-1.71-.67-1.71-2V80.13h-.72v-.34l2.13-2.64H45v1.64h1.51v1.34H45v1.75a3.19,3.19,0,0,0,0,.49.5.5,0,0,0,.17.31.61.61,0,0,0,.43.13,2.1,2.1,0,0,0,1-.38Z"/>
      <path d="M51.83,78.79l-3,7.94h-1.6l1.23-3.2-1.77-4.74h1.7l.91,2.71,1-2.71Z"/>
    </g>
    <g>
      <path d="M19.36,129.07a2.15,2.15,0,0,1-.26,1.07,1.8,1.8,0,0,1-.73.69,2.27,2.27,0,0,1-1.06.24,3.18,3.18,0,0,1-.41,0,4.07,4.07,0,0,1-.65-.15,4.18,4.18,0,0,1-.84-.35v-1.62a4.84,4.84,0,0,0,.8.51,1.81,1.81,0,0,0,.85.21.65.65,0,0,0,.54-.17.57.57,0,0,0,.13-.32.56.56,0,0,0-.22-.45,2.83,2.83,0,0,0-.61-.38,4.76,4.76,0,0,1-.78-.49,2.17,2.17,0,0,1-.55-.68,2.06,2.06,0,0,1-.21-1,2.18,2.18,0,0,1,.21-1,1.62,1.62,0,0,1,.66-.69,2.11,2.11,0,0,1,1.08-.26,3.26,3.26,0,0,1,1.47.35,2.14,2.14,0,0,1,.34.21v1.55a3.63,3.63,0,0,0-.74-.52,1.77,1.77,0,0,0-.87-.23.61.61,0,0,0-.44.14.52.52,0,0,0-.14.36.45.45,0,0,0,.14.33,1.88,1.88,0,0,0,.49.35,8.76,8.76,0,0,1,1,.65,2.3,2.3,0,0,1,.59.66A1.88,1.88,0,0,1,19.36,129.07Z"/>
      <path d="M24.21,131H22.8v-.69a2.22,2.22,0,0,1-.62.58,1.52,1.52,0,0,1-.79.19,1.1,1.1,0,0,1-1.16-.64A3.66,3.66,0,0,1,20,129v-2.85h1.41v2.62a1.85,1.85,0,0,0,.11.69.43.43,0,0,0,.46.3.59.59,0,0,0,.49-.22,3.15,3.15,0,0,0,.37-.54v-2.85h1.41Z"/>
      <path d="M28,129.57a1.5,1.5,0,0,1-.4,1.09,1.58,1.58,0,0,1-1.18.41,3.12,3.12,0,0,1-.79-.09,6.49,6.49,0,0,1-.75-.28v-1.22a4.54,4.54,0,0,0,.62.37,1.2,1.2,0,0,0,.57.13c.35,0,.53-.11.53-.35a.32.32,0,0,0-.08-.21,1.29,1.29,0,0,0-.26-.21l-.51-.28a2.1,2.1,0,0,1-.66-.56,1.41,1.41,0,0,1-.28-.87,1.33,1.33,0,0,1,.19-.69,1.42,1.42,0,0,1,.54-.55,1.78,1.78,0,0,1,.89-.21l.32,0a3.51,3.51,0,0,1,.49.11,2.57,2.57,0,0,1,.56.26v1.19l-.21-.15a1.16,1.16,0,0,0-.23-.14,1.72,1.72,0,0,0-.33-.14,1.21,1.21,0,0,0-.38-.06.4.4,0,0,0-.34.12.35.35,0,0,0-.09.23.32.32,0,0,0,.1.22,1.35,1.35,0,0,0,.42.25,4.11,4.11,0,0,1,.75.45,1.55,1.55,0,0,1,.4.51A1.61,1.61,0,0,1,28,129.57Z"/>
      <path d="M31.69,130.71a2.86,2.86,0,0,1-.61.24,2.42,2.42,0,0,1-.73.12c-1,0-1.52-.6-1.52-1.81v-1.93h-.64V127l1.89-2.35h.16v1.46h1.34v1.19H30.24v1.55c0,.18,0,.33,0,.44a.47.47,0,0,0,.16.28.57.57,0,0,0,.38.11,1.82,1.82,0,0,0,.89-.34Z"/>
      <path d="M36.21,130.74a4.38,4.38,0,0,1-.57.24,1.91,1.91,0,0,1-.63.09.63.63,0,0,1-.48-.15.91.91,0,0,1-.2-.36,2,2,0,0,1-.5.37,1.53,1.53,0,0,1-.73.14,1.25,1.25,0,0,1-.7-.18,1,1,0,0,1-.37-.46,1.66,1.66,0,0,1-.11-.58,1.34,1.34,0,0,1,.19-.74,1.6,1.6,0,0,1,.49-.48,6.12,6.12,0,0,1,.83-.38l.45-.18.22-.09.16-.08a1.11,1.11,0,0,0-.12-.56.56.56,0,0,0-.51-.2,1.53,1.53,0,0,0-.85.25,3.14,3.14,0,0,0-.73.64v-1.32a2.92,2.92,0,0,1,.57-.37,2.85,2.85,0,0,1,.64-.22,3,3,0,0,1,.67-.07,1.86,1.86,0,0,1,1.3.41,1.45,1.45,0,0,1,.43,1.12v1.87a1.82,1.82,0,0,0,0,.4c0,.09.08.13.15.13a.69.69,0,0,0,.36-.14Zm-2-.92v-1.15a3.28,3.28,0,0,0-.73.44.65.65,0,0,0-.23.54.53.53,0,0,0,.11.37.35.35,0,0,0,.27.13.51.51,0,0,0,.29-.1A2.64,2.64,0,0,0,34.26,129.82Z"/>
      <path d="M38,131H36.62v-4.85H38Zm-.11-6a.76.76,0,0,1-.18.51.51.51,0,0,1-.41.21.54.54,0,0,1-.3-.1.71.71,0,0,1-.22-.26.86.86,0,0,1-.07-.36.75.75,0,0,1,.17-.51.5.5,0,0,1,.83,0A.76.76,0,0,1,37.92,125Z"/>
      <path d="M43,131H41.62v-2.62a2.11,2.11,0,0,0-.1-.7.45.45,0,0,0-.47-.29.62.62,0,0,0-.31.07,1.12,1.12,0,0,0-.23.21,1.88,1.88,0,0,0-.18.24l-.14.24V131H38.78v-4.85h1.41v.69a2.08,2.08,0,0,1,.67-.61,1.64,1.64,0,0,1,.74-.17c.95,0,1.43.7,1.43,2.09Z"/>
    </g>
    <g>
      <path d="M14.39,175.53h-3.7v-6h3.64v1.2H12.17v1.1h2.06v1.21H12.17v1.27h2.22Z"/>
      <path d="M18.83,175.53H17.55v-2.37a2,2,0,0,0-.09-.63.41.41,0,0,0-.43-.27.53.53,0,0,0-.28.07,1.12,1.12,0,0,0-.21.18,2.17,2.17,0,0,0-.15.22l-.14.22v2.58H15v-4.4h1.27v.63a2.15,2.15,0,0,1,.61-.55,1.47,1.47,0,0,1,.67-.16c.87,0,1.3.64,1.3,1.9Z"/>
      <path d="M23.2,171.13l-1.64,4.4h-.94L19,171.13h1.37l.75,2.3.83-2.3Z"/>
      <path d="M24.39,174.68a1,1,0,0,1-.22.66.65.65,0,0,1-.53.27.7.7,0,0,1-.55-.28,1.09,1.09,0,0,1,0-1.31.71.71,0,0,1,.55-.27.65.65,0,0,1,.37.12.84.84,0,0,1,.28.34A1,1,0,0,1,24.39,174.68Z"/>
      <path d="M32.06,172.64a3.4,3.4,0,0,1-.27,1.48,3,3,0,0,1-.65.9,2,2,0,0,1-1.47.51H27v-6h2a4.54,4.54,0,0,1,.79.06,3,3,0,0,1,.58.17,2.35,2.35,0,0,1,.45.23,3.11,3.11,0,0,1,.33.29,2.45,2.45,0,0,1,.44.59,3,3,0,0,1,.3.79A3.74,3.74,0,0,1,32.06,172.64Zm-1.5-.07a2.37,2.37,0,0,0-.23-1.14,1.17,1.17,0,0,0-.55-.55,1.65,1.65,0,0,0-.65-.14H28.5v3.55h.63a1.52,1.52,0,0,0,1-.34A1.68,1.68,0,0,0,30.56,172.57Z"/>
      <path d="M36.27,173.71H33.73a1.14,1.14,0,0,0,.36.65,1,1,0,0,0,.66.26,3,3,0,0,0,1.43-.44v1a3.31,3.31,0,0,1-.68.32,3,3,0,0,1-1,.15,2,2,0,0,1-1.13-.31,1.87,1.87,0,0,1-.7-.82,3.07,3.07,0,0,1,0-2.33,1.82,1.82,0,0,1,.7-.8,2,2,0,0,1,1.13-.3,1.63,1.63,0,0,1,.85.24A1.66,1.66,0,0,1,36,172a3,3,0,0,1,.27,1.36Zm-1.2-.77a1.24,1.24,0,0,0-.17-.68.55.55,0,0,0-.49-.25.62.62,0,0,0-.52.26,1.07,1.07,0,0,0-.2.67Z"/>
      <path d="M39.78,175.33a2.52,2.52,0,0,1-.33.13,3.26,3.26,0,0,1-.4.11,3.58,3.58,0,0,1-.48,0,1.83,1.83,0,0,1-1-.25,1.61,1.61,0,0,1-.63-.61,2.65,2.65,0,0,1-.31-.75,3.11,3.11,0,0,1-.09-.68,3,3,0,0,1,.09-.68,2.62,2.62,0,0,1,.3-.74,1.82,1.82,0,0,1,.63-.6,2,2,0,0,1,1-.25,2.87,2.87,0,0,1,.65.07,3.52,3.52,0,0,1,.51.19v1.22a3,3,0,0,0-1-.24.85.85,0,0,0-.6.25,1,1,0,0,0-.26.78,1.2,1.2,0,0,0,.13.59.86.86,0,0,0,.33.35.89.89,0,0,0,.4.11,1.48,1.48,0,0,0,.44-.07,5.15,5.15,0,0,0,.59-.2Z"/>
      <path d="M44,175.31a4,4,0,0,1-.52.21,1.62,1.62,0,0,1-.57.09.58.58,0,0,1-.44-.14.74.74,0,0,1-.17-.33,1.62,1.62,0,0,1-.46.33,1.4,1.4,0,0,1-.66.14,1.15,1.15,0,0,1-.64-.17.92.92,0,0,1-.34-.42,1.54,1.54,0,0,1-.09-.52,1.17,1.17,0,0,1,.17-.67,1.24,1.24,0,0,1,.45-.43,3.82,3.82,0,0,1,.75-.35l.4-.16.2-.09.14-.07a1,1,0,0,0-.1-.5c-.07-.13-.23-.19-.46-.19a1.45,1.45,0,0,0-.78.23,2.71,2.71,0,0,0-.65.58v-1.19a1.89,1.89,0,0,1,.51-.34,2.34,2.34,0,0,1,.58-.2,3.08,3.08,0,0,1,.61-.07,1.67,1.67,0,0,1,1.17.37,1.32,1.32,0,0,1,.4,1v1.7a1.11,1.11,0,0,0,0,.36.14.14,0,0,0,.13.12.67.67,0,0,0,.33-.13Zm-1.78-.84v-1a3.4,3.4,0,0,0-.66.4.61.61,0,0,0-.21.49.49.49,0,0,0,.11.33.31.31,0,0,0,.24.12.45.45,0,0,0,.26-.09A2.39,2.39,0,0,0,42.17,174.47Z"/>
      <path d="M48,171.13l-2.44,6.4H44.28l1-2.58-1.43-3.82h1.37l.73,2.19.84-2.19Z"/>
    </g>
    <path d="M44.66,198.92v-6.38h-1a6,6,0,0,0,1.17,3.2c1.14,1.6,3.45,3.15,7.75,3.18v-1c-4.08,0-6-1.44-7-2.77a5.32,5.32,0,0,1-.86-1.82,3.87,3.87,0,0,1-.1-.6l0-.15v0h-1v6.38Z"/>
    <path d="M7.43,198.92v-6.38h-1a5.13,5.13,0,0,0,.32,1.61,6.31,6.31,0,0,0,2.22,3l.61.46.89-3.88L10,193.6l-.49.11a10.27,10.27,0,0,0,.81,2.19,6.39,6.39,0,0,0,1.14,1.66,3.61,3.61,0,0,0,1.82,1.09h0c.38.08.63.14.93.19a7.88,7.88,0,0,0,1.15.08v-1a6.72,6.72,0,0,1-1-.07c-.24,0-.48-.09-.88-.18h0a2.56,2.56,0,0,1-1.31-.8,6.92,6.92,0,0,1-1.3-2.16,8.41,8.41,0,0,1-.3-.88c0-.11-.06-.2-.08-.26l0-.08h-1l-.72,3.13.49.11.3-.4a5.33,5.33,0,0,1-1.87-2.51,4.45,4.45,0,0,1-.24-.94,1.8,1.8,0,0,1,0-.27v-.06h-1v6.38Z"/>
    <g>
      <path d="M5.34,185.65v.72H3.71v1.24H5.34v.73H3.71v2.09H3v-4.78Z"/>
      <path d="M6.87,187.17a1.36,1.36,0,0,1,.74.21,1.42,1.42,0,0,1,.52.59,1.93,1.93,0,0,1,.18.85,2,2,0,0,1-.18.87,1.25,1.25,0,0,1-.51.58,1.39,1.39,0,0,1-1.5,0,1.37,1.37,0,0,1-.51-.58,2.23,2.23,0,0,1,0-1.73,1.44,1.44,0,0,1,.51-.58A1.38,1.38,0,0,1,6.87,187.17Zm-.71,1.65a1.32,1.32,0,0,0,.19.76.62.62,0,0,0,1,0,1.32,1.32,0,0,0,.2-.78,1.26,1.26,0,0,0-.2-.75.6.6,0,0,0-.53-.26.59.59,0,0,0-.51.28A1.25,1.25,0,0,0,6.16,188.82Z"/>
      <path d="M9.21,185.65v4.78H8.52v-4.78Z"/>
      <path d="M10.57,185.65v4.78H9.88v-4.78Z"/>
      <path d="M12.52,187.17a1.38,1.38,0,0,1,1.26.8,1.93,1.93,0,0,1,.18.85,2.14,2.14,0,0,1-.17.87,1.4,1.4,0,0,1-2,.58,1.37,1.37,0,0,1-.51-.58,2.14,2.14,0,0,1-.17-.87,2,2,0,0,1,.18-.86,1.47,1.47,0,0,1,.52-.58A1.32,1.32,0,0,1,12.52,187.17Zm-.71,1.65a1.32,1.32,0,0,0,.19.76.6.6,0,0,0,.52.29.58.58,0,0,0,.52-.28,1.32,1.32,0,0,0,.2-.78,1.26,1.26,0,0,0-.2-.75.6.6,0,0,0-.52-.26.59.59,0,0,0-.51.28A1.18,1.18,0,0,0,11.81,188.82Z"/>
      <path d="M14.52,187.24l.61,1.84.62-1.84h.44l.62,1.84.6-1.84h.72L17,190.49h-.29l-.71-2-.71,2H15l-1.18-3.25Z"/>
    </g>
    <g>
      <path d="M44.22,185.59a2.84,2.84,0,0,1,1.43.4v.84a2.58,2.58,0,0,0-1.4-.44,1.4,1.4,0,0,0-.76.21,1.46,1.46,0,0,0-.52.6,2.05,2.05,0,0,0-.18.87,1.69,1.69,0,0,0,.4,1.18,1.37,1.37,0,0,0,1.05.44,1.87,1.87,0,0,0,.34,0,2.52,2.52,0,0,0,.39-.15v-.79h-.64V188h1.4v2a2.09,2.09,0,0,1-.69.38,2.64,2.64,0,0,1-.84.14,2.09,2.09,0,0,1-1.13-.31,2.2,2.2,0,0,1-.78-.87,2.73,2.73,0,0,1-.28-1.25,2.79,2.79,0,0,1,.28-1.27,2.13,2.13,0,0,1,.8-.88A2.07,2.07,0,0,1,44.22,185.59Z"/>
      <path d="M47.47,187.17a1,1,0,0,1,.91.46,2,2,0,0,1,.34,1.24V189H46.87a1.1,1.1,0,0,0,.26.66.81.81,0,0,0,.6.23,1.13,1.13,0,0,0,.48-.11,2,2,0,0,0,.47-.31v.62a1.63,1.63,0,0,1-1.11.4,1.24,1.24,0,0,1-1-.46,1.73,1.73,0,0,1-.4-1.21,1.85,1.85,0,0,1,.37-1.18A1.13,1.13,0,0,1,47.47,187.17Zm.6,1.32a1,1,0,0,0-.17-.54.46.46,0,0,0-.4-.2.52.52,0,0,0-.42.19,1.08,1.08,0,0,0-.2.55Z"/>
      <path d="M50.63,187.17a.81.81,0,0,1,.67.34,1.44,1.44,0,0,1,.25.89v2h-.68v-2a.89.89,0,0,0-.13-.49.38.38,0,0,0-.33-.18.5.5,0,0,0-.3.11,1.75,1.75,0,0,0-.31.39v2.12h-.69v-3.19h.69v.44a1.43,1.43,0,0,1,.39-.39A.86.86,0,0,1,50.63,187.17Z"/>
      <path d="M52.42,189.44a.37.37,0,0,1,.3.15.57.57,0,0,1,.14.38.57.57,0,0,1-.13.36.38.38,0,0,1-.31.16.37.37,0,0,1-.3-.16A.57.57,0,0,1,52,190a.62.62,0,0,1,.13-.38A.4.4,0,0,1,52.42,189.44Z"/>
    </g>
    <g>
      <path d="M42.77,274l-.24.1-.19.07-.27.08a2.94,2.94,0,0,1-.59.12,4,4,0,0,1-.62,0,2.75,2.75,0,0,1-1.21-.27,2.1,2.1,0,0,1-.89-.86,2.85,2.85,0,0,1-.33-1.43,3.28,3.28,0,0,1,.17-1.07,1.88,1.88,0,0,1,.52-.84,2.61,2.61,0,0,1,.6-.4,2.8,2.8,0,0,1,.58-.19,4.22,4.22,0,0,1,.64,0,3.48,3.48,0,0,1,.93.1,7.56,7.56,0,0,1,.82.26v1.17a3.69,3.69,0,0,0-.62-.33,2.39,2.39,0,0,0-.82-.13,1.48,1.48,0,0,0-.9.25,1.36,1.36,0,0,0-.47.58,1.8,1.8,0,0,0-.13.66,1.6,1.6,0,0,0,.15.7,1.25,1.25,0,0,0,.46.51,1.39,1.39,0,0,0,.75.19,2.49,2.49,0,0,0,.52-.07v-.59h-.58v-1h1.72Z" style="fill: #fff"/>
      <path d="M46.72,274.13l-.45.18a1.85,1.85,0,0,1-.5.06.52.52,0,0,1-.39-.11.59.59,0,0,1-.15-.27,2,2,0,0,1-.41.28,1.32,1.32,0,0,1-.57.1,1,1,0,0,1-.56-.13.83.83,0,0,1-.3-.35,1.11,1.11,0,0,1-.09-.43,1,1,0,0,1,.15-.56,1.07,1.07,0,0,1,.4-.36,3.55,3.55,0,0,1,.66-.29l.35-.13.18-.07.12-.07a.78.78,0,0,0-.09-.41c-.06-.11-.2-.16-.4-.16a1.4,1.4,0,0,0-.69.19,2.85,2.85,0,0,0-.57.48v-1a2.11,2.11,0,0,1,.45-.28,2.16,2.16,0,0,1,.51-.16,2.33,2.33,0,0,1,.53-.06,1.5,1.5,0,0,1,1,.31,1.06,1.06,0,0,1,.34.84v1.42a.71.71,0,0,0,0,.29.12.12,0,0,0,.12.1.59.59,0,0,0,.28-.1Zm-1.56-.7v-.87a3.71,3.71,0,0,0-.58.34.49.49,0,0,0-.18.4.39.39,0,0,0,.09.28.26.26,0,0,0,.21.1.48.48,0,0,0,.23-.07A1.3,1.3,0,0,0,45.16,273.43Z" style="fill: #fff"/>
      <path d="M49.4,274.1a2.32,2.32,0,0,1-.48.18,2.12,2.12,0,0,1-.59.09c-.8,0-1.21-.45-1.21-1.36v-1.46h-.5v-.22l1.5-1.77h.13v1.1h1.07v.89H48.25v1.17a1.52,1.52,0,0,0,0,.33.28.28,0,0,0,.12.21.46.46,0,0,0,.31.09,1.56,1.56,0,0,0,.7-.26Z" style="fill: #fff"/>
      <path d="M53,272.8H50.74a.89.89,0,0,0,.32.54.87.87,0,0,0,.57.21,2.69,2.69,0,0,0,1.25-.36v.8a3,3,0,0,1-.59.26,2.77,2.77,0,0,1-.89.12,1.88,1.88,0,0,1-1-.25,1.49,1.49,0,0,1-.61-.68,2.16,2.16,0,0,1-.2-1,2.19,2.19,0,0,1,.2-1,1.57,1.57,0,0,1,.61-.67,2,2,0,0,1,1-.24,1.63,1.63,0,0,1,.74.19,1.45,1.45,0,0,1,.59.63,2.34,2.34,0,0,1,.24,1.13Zm-1.06-.64a.87.87,0,0,0-.15-.56.49.49,0,0,0-.43-.21.54.54,0,0,0-.45.21.83.83,0,0,0-.17.56Z" style="fill: #fff"/>
    </g>
    <g>
      <path d="M12.84,312.72H9.08V307h3.7v1.15h-2.2v1.05h2.1v1.15h-2.1v1.22h2.26Z" style="fill: #fff"/>
      <path d="M17.48,312.72h-1.3v-2.26a1.63,1.63,0,0,0-.1-.61.42.42,0,0,0-.43-.26.61.61,0,0,0-.28.07,1,1,0,0,0-.22.18L15,310l-.13.21v2.47h-1.3v-4.2h1.3v.6a1.88,1.88,0,0,1,.61-.52,1.45,1.45,0,0,1,.69-.15q1.32,0,1.32,1.8Z" style="fill: #fff"/>
      <path d="M22,308.52l-1.66,4.2h-1l-1.63-4.2h1.39l.76,2.2.84-2.2Z" style="fill: #fff"/>
      <path d="M23.39,311.91a.92.92,0,0,1-.23.63.69.69,0,0,1-.54.26.71.71,0,0,1-.55-.26,1,1,0,0,1,0-1.26.71.71,0,0,1,.55-.26.68.68,0,0,1,.38.12.79.79,0,0,1,.28.32A1,1,0,0,1,23.39,311.91Z" style="fill: #fff"/>
    </g>
    <g>
      <path d="M14.52,317.13a3.35,3.35,0,0,1-.32,1.49,2.47,2.47,0,0,1-1,1.09,2.9,2.9,0,0,1-1.55.4,2.81,2.81,0,0,1-1.57-.42,2.6,2.6,0,0,1-.95-1.1,3.42,3.42,0,0,1-.31-1.46,3.37,3.37,0,0,1,.31-1.45,2.47,2.47,0,0,1,.95-1.1,2.8,2.8,0,0,1,1.57-.41,3.17,3.17,0,0,1,1.23.23,2.39,2.39,0,0,1,.89.65,2.68,2.68,0,0,1,.53.95A3.56,3.56,0,0,1,14.52,317.13Zm-1.53,0a2.21,2.21,0,0,0-.08-.59,1.41,1.41,0,0,0-.25-.47,1.21,1.21,0,0,0-1-.42,1.19,1.19,0,0,0-.95.41,1.83,1.83,0,0,0,0,2.15,1.19,1.19,0,0,0,.95.41,1.26,1.26,0,0,0,.71-.19,1.24,1.24,0,0,0,.44-.52A1.94,1.94,0,0,0,13,317.13Z" style="fill: #fff"/>
      <path d="M19,320H17.74v-.6a2.24,2.24,0,0,1-.58.51,1.47,1.47,0,0,1-.72.17,1.06,1.06,0,0,1-1.08-.56,3.23,3.23,0,0,1-.24-1.27v-2.5h1.3v2.3a1.66,1.66,0,0,0,.1.61A.41.41,0,0,0,17,319a.59.59,0,0,0,.45-.19,4.33,4.33,0,0,0,.34-.48v-2.5H19Z" style="fill: #fff"/>
      <path d="M22.68,319.79a2.9,2.9,0,0,1-.55.21,2.41,2.41,0,0,1-.68.11c-.93,0-1.4-.53-1.4-1.59v-1.69h-.59v-.27l1.74-2.05h.15v1.27h1.24v1.05H21.35v1.36a3.63,3.63,0,0,0,0,.38.44.44,0,0,0,.15.25.54.54,0,0,0,.35.09,1.69,1.69,0,0,0,.81-.3Z" style="fill: #fff"/>
    </g>
  </g>
  <g id="components">
    <circle id="Env._Out_-" data-name="Env. Out -" cx="39.83" cy="318.61" r="11.34" style="fill: blue"/>
    <circle id="_-_LED" data-name="- LED" cx="48.37" cy="292.62" r="4.25" style="fill: #f0f"/>
    <circle id="Env._Out_" data-name="Env. Out +" cx="17.95" cy="286.08" r="11.34" style="fill: blue"/>
    <circle id="_LED" data-name="+ LED" cx="8.77" cy="261.2" r="4.25" style="fill: #f0f"/>
    <circle id="Gate_Out" data-name="Gate Out" cx="39.83" cy="253.56" r="11.34" style="fill: #8080ff"/>
    <circle id="Gate_LED" data-name="Gate LED" cx="48.37" cy="230.46" r="4.25" style="fill: #f0f"/>
    <circle id="IN" cx="17.83" cy="221.47" r="11.34" style="fill: lime"/>
    <rect id="Follow_Gen" data-name="Follow | Gen" x="23.13" y="186.97" width="11.34" height="17.01" transform="translate(224.27 166.67) rotate(90)" style="fill: #ff8080"/>
    <circle id="Env._Decay" data-name="Env. Decay" cx="28.8" cy="153.17" r="8.5" style="fill: #ff0040"/>
    <circle id="Sustain" cx="28.8" cy="109.3" r="8.5" style="fill: #ff0040"/>
    <circle id="Sensitivity" cx="28.9" cy="54.04" r="17.01" style="fill: #ff0070"/>
    <circle id="Sens._LED" data-name="Sens. LED" cx="9.39" cy="32.64" r="4.25" style="fill: #f0f"/>
    <text id="slug" transform="translate(27.1 368.72)" style="font-size: 3px;font-family: MyriadPro-Regular, Myriad Pro">PI</text>
    <text id="modulename" transform="translate(32.24 368.72)" style="font-size: 3px;font-family: MyriadPro-Regular, Myriad Pro"><tspan style="letter-spacing: -0.024739583333333332em">P</tspan><tspan x="1.52" y="0">e</tspan><tspan x="3.02" y="0" style="letter-spacing: -0.010416666666666666em">r</tspan><tspan x="3.97" y="0" style="letter-spacing: 0.0003255208333333333em">cussion </tspan><tspan x="14" y="0" style="letter-spacing: 0.010091145833333334em">I</tspan><tspan x="14.75" y="0" style="letter-spacing: -0.004231770833333333em">nt</tspan><tspan x="17.37" y="0">e</tspan><tspan x="18.88" y="0" style="letter-spacing: 0.029622395833333332em">r</tspan><tspan x="19.95" y="0" style="letter-spacing: 0.0003255208333333333em">fa</tspan><tspan x="22.27" y="0" style="letter-spacing: -0.005859375em">c</tspan><tspan x="23.59" y="0">e</tspan></text>
  </g>
</svg>
