<svg xmlns="http://www.w3.org/2000/svg" width="20.41mm" height="130.34mm" viewBox="0 0 57.85 369.47">
  <g id="faceplate">
    <circle id="Res" cx="28.92" cy="93.91" r="8.5" style="fill: #ff0040"/>
    <circle id="Res-2" data-name="Res" cx="28.92" cy="45.21" r="8.5" style="fill: #ff0040"/>
    <rect x="0.13" y="0.13" width="57.6" height="364.25" style="fill: #ededed;stroke: #9d9d9e;stroke-miterlimit: 10;stroke-width: 0.25px"/>
    <g>
      <path d="M26.28,13.32a4.54,4.54,0,0,0,0-9.07H17.84a4.54,4.54,0,0,0,0,9.07Z"/>
      <path d="M26.28,360.57a4.54,4.54,0,0,0,0-9.07H17.84a4.54,4.54,0,0,0,0,9.07Z"/>
    </g>
    <path d="M51.86,304.76V167.83l0-4.62V150.54a13.19,13.19,0,0,0-13.18-13.18H19.57A13.2,13.2,0,0,0,6.39,150.54v37.77l0,3.95v112.5"/>
    <polyline points="51.33 297 51.66 297 51.66 265.75"/>
    <polyline points="6.57 266.12 6.57 297 6.79 297"/>
    <path d="M51.77,301.8v-134l0-4.62V150.54a13.19,13.19,0,0,0-13.18-13.18H19.49A13.19,13.19,0,0,0,6.31,150.54v37.77l0,3.95V301.8" style="fill: none;stroke: #000;stroke-miterlimit: 10"/>
    <path d="M41.74,333.76a10.59,10.59,0,0,0,10-10.73V297.82a10.57,10.57,0,0,0-10.39-10.75H16.67A10.57,10.57,0,0,0,6.28,297.82V323a10.58,10.58,0,0,0,10.2,10.74" style="fill: #ededed;stroke: #000;stroke-miterlimit: 10"/>
    <g>
      <path d="M15.55,67.39H11.79V61.48h3.7v1.19h-2.2v1.08h2.1v1.19h-2.1V66.2h2.26Z"/>
      <path d="M20.06,67.39H18.77V65.05a1.87,1.87,0,0,0-.1-.62.42.42,0,0,0-.44-.27.53.53,0,0,0-.28.07.91.91,0,0,0-.21.18,1,1,0,0,0-.16.21l-.14.22v2.55H16.15V63.05h1.29v.62a1.87,1.87,0,0,1,.62-.54,1.51,1.51,0,0,1,.68-.16c.88,0,1.32.63,1.32,1.87Z"/>
      <path d="M24.51,63.05l-1.67,4.34h-1l-1.63-4.34h1.39l.76,2.27.84-2.27Z"/>
      <path d="M25.72,66.55a1,1,0,0,1-.22.65.69.69,0,0,1-.55.27.71.71,0,0,1-.55-.27,1,1,0,0,1-.23-.65,1,1,0,0,1,.23-.65.71.71,0,0,1,.55-.27.7.7,0,0,1,.39.13.83.83,0,0,1,.28.33A1,1,0,0,1,25.72,66.55Z"/>
      <path d="M32.19,67.39H28.4V61.48h1.5V66h2.29Z"/>
      <path d="M36.41,65.59H33.83a1.07,1.07,0,0,0,.37.65,1,1,0,0,0,.67.25,3,3,0,0,0,1.45-.43v1a3.73,3.73,0,0,1-.69.31,3,3,0,0,1-1,.15,2.13,2.13,0,0,1-1.16-.3,1.92,1.92,0,0,1-.71-.81,2.7,2.7,0,0,1-.23-1.16,2.66,2.66,0,0,1,.23-1.15,1.87,1.87,0,0,1,.71-.79A2.22,2.22,0,0,1,34.6,63a1.82,1.82,0,0,1,.86.23,1.67,1.67,0,0,1,.68.75,2.86,2.86,0,0,1,.27,1.33Zm-1.22-.76a1.08,1.08,0,0,0-.17-.66.58.58,0,0,0-.5-.25.64.64,0,0,0-.53.25,1.06,1.06,0,0,0-.2.66Z"/>
      <path d="M40.71,63.05l-1.66,4.34h-1l-1.63-4.34h1.39l.76,2.27.84-2.27Z"/>
      <path d="M44.61,65.59H42a1.12,1.12,0,0,0,.37.65,1,1,0,0,0,.67.25,3,3,0,0,0,1.45-.43v1a3.73,3.73,0,0,1-.69.31,3,3,0,0,1-1,.15,2.12,2.12,0,0,1-1.15-.3,1.8,1.8,0,0,1-.71-.81,2.7,2.7,0,0,1-.24-1.16,2.66,2.66,0,0,1,.24-1.15,1.75,1.75,0,0,1,.71-.79A2.21,2.21,0,0,1,42.79,63a1.76,1.76,0,0,1,.86.23,1.69,1.69,0,0,1,.69.75,2.86,2.86,0,0,1,.27,1.33Zm-1.22-.76a1.08,1.08,0,0,0-.18-.66.55.55,0,0,0-.5-.25.63.63,0,0,0-.52.25,1,1,0,0,0-.2.66Z"/>
      <path d="M46.41,67.39h-1.3V61.48h1.3Z"/>
    </g>
    <g>
      <path d="M22,156.71H18.62v-5.15H20v3.91h2Z" style="fill: #ededed"/>
      <path d="M24.56,149v10.39H23.7V149Z" style="fill: #ededed"/>
      <path d="M33.93,148.94v10.39h-.86V148.94Z" style="fill: #ededed"/>
      <path d="M31.39,156.71H30.05v-3l-1.21,1.72h-.11l-1.21-1.72v3H26.23v-5.15h1.21l1.36,1.93,1.37-1.93h1.22Z" style="fill: #ededed"/>
      <path d="M40.3,156.71H39v-2H37v2H35.62v-5.15H37v1.89h2v-1.89H40.3Z" style="fill: #ededed"/>
    </g>
    <g>
      <path d="M14.3,116H12.79v-5.91H14.3Z"/>
      <path d="M19.06,116H17.77v-2.34a1.87,1.87,0,0,0-.1-.62.42.42,0,0,0-.44-.27.5.5,0,0,0-.27.07.79.79,0,0,0-.22.18,2.39,2.39,0,0,0-.16.22l-.13.21V116h-1.3v-4.34h1.3v.62a1.87,1.87,0,0,1,.61-.54,1.55,1.55,0,0,1,.69-.15c.87,0,1.31.62,1.31,1.86Z"/>
      <path d="M23.51,111.64,21.84,116h-1l-1.63-4.34h1.39l.76,2.27.85-2.27Z"/>
      <path d="M24.72,115.14a1,1,0,0,1-.22.65.68.68,0,0,1-.54.27.72.72,0,0,1-.56-.27,1,1,0,0,1,0-1.3.71.71,0,0,1,.56-.26.68.68,0,0,1,.38.12.75.75,0,0,1,.28.33A1,1,0,0,1,24.72,115.14Z"/>
      <path d="M31.19,116H27.4v-5.91h1.5v4.5h2.29Z"/>
      <path d="M35.41,114.18H32.83a1.07,1.07,0,0,0,.37.65,1,1,0,0,0,.67.25,3,3,0,0,0,1.45-.43v.95a3.72,3.72,0,0,1-.69.32,3.33,3.33,0,0,1-1,.14,2.13,2.13,0,0,1-1.16-.3,1.92,1.92,0,0,1-.71-.81,2.7,2.7,0,0,1-.23-1.16,2.58,2.58,0,0,1,.23-1.14,1.9,1.9,0,0,1,.71-.8,2.22,2.22,0,0,1,1.16-.28,1.8,1.8,0,0,1,.86.22,1.73,1.73,0,0,1,.68.75,2.9,2.9,0,0,1,.27,1.34Zm-1.22-.76a1.1,1.1,0,0,0-.17-.66.58.58,0,0,0-.5-.25.64.64,0,0,0-.53.25,1.06,1.06,0,0,0-.2.66Z"/>
      <path d="M39.71,111.64,38.05,116h-1l-1.63-4.34h1.39l.76,2.27.84-2.27Z"/>
      <path d="M43.61,114.18H41a1.12,1.12,0,0,0,.37.65,1,1,0,0,0,.67.25,3,3,0,0,0,1.45-.43v.95a3.72,3.72,0,0,1-.69.32,3.28,3.28,0,0,1-1,.14,2.12,2.12,0,0,1-1.15-.3,1.8,1.8,0,0,1-.71-.81,2.7,2.7,0,0,1-.24-1.16,2.58,2.58,0,0,1,.24-1.14,1.77,1.77,0,0,1,.71-.8,2.2,2.2,0,0,1,1.15-.28,1.68,1.68,0,0,1,1.55,1,2.9,2.9,0,0,1,.27,1.34Zm-1.22-.76a1.1,1.1,0,0,0-.18-.66.55.55,0,0,0-.5-.25.63.63,0,0,0-.52.25,1,1,0,0,0-.2.66Z"/>
      <path d="M45.41,116h-1.3v-5.91h1.3Z"/>
    </g>
    <g>
      <path d="M18.07,198.65H14.31v-5.91H18v1.19h-2.2V195h2.1v1.19h-2.1v1.26h2.26Z" style="fill: #ededed"/>
      <path d="M22.58,198.65H21.29v-2.34a1.87,1.87,0,0,0-.1-.62.42.42,0,0,0-.44-.27.5.5,0,0,0-.27.07.79.79,0,0,0-.22.18l-.16.21c0,.07-.09.14-.13.22v2.55h-1.3v-4.34H20v.62a1.76,1.76,0,0,1,.61-.54,1.56,1.56,0,0,1,.69-.16c.87,0,1.31.63,1.31,1.87Z" style="fill: #ededed"/>
      <path d="M27,194.31l-1.67,4.34h-1l-1.63-4.34h1.39l.76,2.27.85-2.27Z" style="fill: #ededed"/>
      <path d="M28.24,197.81a1,1,0,0,1-.22.65.67.67,0,0,1-.54.27.69.69,0,0,1-.55-.27.94.94,0,0,1-.23-.65.93.93,0,0,1,.23-.65.69.69,0,0,1,.55-.27.7.7,0,0,1,.38.13.75.75,0,0,1,.28.33A1,1,0,0,1,28.24,197.81Z" style="fill: #ededed"/>
      <path d="M36.26,195.69a3.63,3.63,0,0,1-.32,1.52,2.66,2.66,0,0,1-1,1.11,2.88,2.88,0,0,1-1.56.41,2.8,2.8,0,0,1-1.56-.43,2.52,2.52,0,0,1-.95-1.12,3.56,3.56,0,0,1-.32-1.49,3.71,3.71,0,0,1,.31-1.49,2.66,2.66,0,0,1,1-1.12,2.77,2.77,0,0,1,1.56-.42,3,3,0,0,1,1.24.24,2.62,2.62,0,0,1,.89.66,2.94,2.94,0,0,1,.53,1A3.75,3.75,0,0,1,36.26,195.69Zm-1.53,0a2,2,0,0,0-.09-.61,1.25,1.25,0,0,0-.25-.47,1.17,1.17,0,0,0-.41-.32,1.36,1.36,0,0,0-.56-.11,1.17,1.17,0,0,0-1,.42,1.91,1.91,0,0,0,0,2.19,1.15,1.15,0,0,0,.94.42,1.32,1.32,0,0,0,.71-.19,1.24,1.24,0,0,0,.44-.54A2,2,0,0,0,34.73,195.69Z" style="fill: #ededed"/>
      <path d="M40.64,198.65H39.35V198a2,2,0,0,1-.58.52,1.37,1.37,0,0,1-.72.18,1,1,0,0,1-1.08-.58,3.3,3.3,0,0,1-.24-1.29v-2.55H38v2.35a1.72,1.72,0,0,0,.1.62.41.41,0,0,0,.43.26.55.55,0,0,0,.45-.19,3.72,3.72,0,0,0,.34-.49v-2.55h1.29Z" style="fill: #ededed"/>
      <path d="M44.17,198.4a2.61,2.61,0,0,1-.56.22,2.35,2.35,0,0,1-.68.11c-.93,0-1.4-.54-1.4-1.62v-1.73H41v-.27l1.73-2.1h.15v1.3h1.24v1.07H42.83v1.39a2.06,2.06,0,0,0,0,.39.38.38,0,0,0,.14.25.58.58,0,0,0,.35.1,1.68,1.68,0,0,0,.82-.31Z" style="fill: #ededed"/>
    </g>
    <g>
      <path d="M16.82,239.56h-1.5v-5.91h1.5Z" style="fill: #ededed"/>
      <path d="M21.59,239.56h-1.3v-2.34a1.65,1.65,0,0,0-.1-.62.41.41,0,0,0-.43-.27.51.51,0,0,0-.28.07,1,1,0,0,0-.22.18l-.16.21L19,237v2.55h-1.3v-4.34H19v.62a2,2,0,0,1,.61-.54,1.58,1.58,0,0,1,.69-.15q1.32,0,1.32,1.86Z" style="fill: #ededed"/>
      <path d="M26,235.22l-1.67,4.34h-1l-1.63-4.34h1.39l.76,2.27.85-2.27Z" style="fill: #ededed"/>
      <path d="M27.24,238.72a1,1,0,0,1-.22.65.67.67,0,0,1-.54.27.69.69,0,0,1-.55-.27,1,1,0,0,1,0-1.3.69.69,0,0,1,.93-.14.75.75,0,0,1,.28.33A1,1,0,0,1,27.24,238.72Z" style="fill: #ededed"/>
      <path d="M35.26,236.6a3.63,3.63,0,0,1-.32,1.52,2.6,2.6,0,0,1-1,1.11,2.88,2.88,0,0,1-1.56.41,2.72,2.72,0,0,1-1.56-.43,2.52,2.52,0,0,1-.95-1.12,3.56,3.56,0,0,1-.32-1.49,3.71,3.71,0,0,1,.31-1.49,2.58,2.58,0,0,1,1-1.11,2.7,2.7,0,0,1,1.56-.43,2.86,2.86,0,0,1,1.24.25,2.48,2.48,0,0,1,.89.65,2.94,2.94,0,0,1,.53,1A3.75,3.75,0,0,1,35.26,236.6Zm-1.53,0a1.89,1.89,0,0,0-.09-.6,1.22,1.22,0,0,0-.25-.48,1.17,1.17,0,0,0-.41-.32,1.36,1.36,0,0,0-.56-.11,1.17,1.17,0,0,0-1,.42,1.65,1.65,0,0,0-.34,1.09,1.63,1.63,0,0,0,.35,1.1,1.15,1.15,0,0,0,.94.42,1.16,1.16,0,0,0,1.15-.73A2,2,0,0,0,33.73,236.6Z" style="fill: #ededed"/>
      <path d="M39.64,239.56H38.35v-.62a2.17,2.17,0,0,1-.58.53,1.47,1.47,0,0,1-.72.17,1,1,0,0,1-1.08-.58,3.3,3.3,0,0,1-.24-1.29v-2.55H37v2.35a1.72,1.72,0,0,0,.1.62.41.41,0,0,0,.43.26.55.55,0,0,0,.45-.19,3.72,3.72,0,0,0,.34-.49v-2.55h1.29Z" style="fill: #ededed"/>
      <path d="M43.17,239.31a2.61,2.61,0,0,1-.56.22,2.35,2.35,0,0,1-.68.11c-.93,0-1.4-.54-1.4-1.62v-1.73H40V236l1.73-2.1h.15v1.3h1.24v1.07H41.83v1.39a2.06,2.06,0,0,0,0,.39.38.38,0,0,0,.14.25.52.52,0,0,0,.35.1,1.68,1.68,0,0,0,.82-.31Z" style="fill: #ededed"/>
    </g>
    <g>
      <path d="M16.29,280.67H14.75l-.41-1.2H12.17l-.41,1.2H10.22l2.2-5.91h1.67ZM14,278.45l-.73-2.16-.74,2.16Z" style="fill: #ededed"/>
      <path d="M20.5,280.67H19.21v-.62a2.17,2.17,0,0,1-.58.53,1.47,1.47,0,0,1-.72.17,1,1,0,0,1-1.08-.58,3.3,3.3,0,0,1-.24-1.29v-2.55h1.29v2.35a2,2,0,0,0,.1.62.42.42,0,0,0,.44.26.55.55,0,0,0,.45-.19,3.72,3.72,0,0,0,.34-.49v-2.55H20.5Z" style="fill: #ededed"/>
      <path d="M25,280.67h-1.3v-.39a2.26,2.26,0,0,1-.44.34,1.35,1.35,0,0,1-.63.13,1.48,1.48,0,0,1-.79-.24,1.77,1.77,0,0,1-.63-.73,2.73,2.73,0,0,1-.25-1.25,3.16,3.16,0,0,1,.19-1.11,1.87,1.87,0,0,1,.59-.84,1.46,1.46,0,0,1,1-.32,1.57,1.57,0,0,1,.58.09,1.47,1.47,0,0,1,.4.24v-1.83H25Zm-1.3-1.38v-1.66a3.41,3.41,0,0,0-.36-.21.73.73,0,0,0-.3-.06.59.59,0,0,0-.51.3,1.49,1.49,0,0,0-.2.84,1.37,1.37,0,0,0,.21.84.64.64,0,0,0,.5.26.71.71,0,0,0,.38-.09A1.79,1.79,0,0,0,23.72,279.29Z" style="fill: #ededed"/>
      <path d="M27,280.67H25.7v-4.34H27Zm-.1-5.34a.69.69,0,0,1-.17.46.51.51,0,0,1-.66.1.71.71,0,0,1-.19-.23.79.79,0,0,1,.08-.79.52.52,0,0,1,.39-.19.49.49,0,0,1,.38.19A.69.69,0,0,1,26.9,275.33Z" style="fill: #ededed"/>
      <path d="M31.74,278.5a2.81,2.81,0,0,1-.23,1.15,1.8,1.8,0,0,1-.72.8,2.35,2.35,0,0,1-2.3,0,1.72,1.72,0,0,1-.71-.8,2.66,2.66,0,0,1-.24-1.15,2.73,2.73,0,0,1,.13-.89,2,2,0,0,1,.4-.71,1.76,1.76,0,0,1,.66-.48,2.35,2.35,0,0,1,.91-.16,2.4,2.4,0,0,1,.92.16,1.87,1.87,0,0,1,.66.48,2.08,2.08,0,0,1,.39.7A2.84,2.84,0,0,1,31.74,278.5Zm-1.36,0a1.43,1.43,0,0,0-.19-.81.61.61,0,0,0-.55-.29.58.58,0,0,0-.54.29,1.43,1.43,0,0,0-.19.81,1.47,1.47,0,0,0,.19.81.6.6,0,0,0,.54.3.62.62,0,0,0,.55-.3A1.47,1.47,0,0,0,30.38,278.5Z" style="fill: #ededed"/>
      <path d="M39.76,277.71a3.71,3.71,0,0,1-.32,1.53,2.56,2.56,0,0,1-1,1.1,2.82,2.82,0,0,1-1.55.41,2.73,2.73,0,0,1-1.57-.43,2.58,2.58,0,0,1-1-1.12,3.74,3.74,0,0,1,0-3,2.49,2.49,0,0,1,1-1.11,2.73,2.73,0,0,1,1.57-.43,2.85,2.85,0,0,1,1.23.25,2.48,2.48,0,0,1,.89.65,2.77,2.77,0,0,1,.53,1A3.75,3.75,0,0,1,39.76,277.71Zm-1.53,0a1.89,1.89,0,0,0-.09-.6,1.1,1.1,0,0,0-.25-.48,1.13,1.13,0,0,0-.4-.32,1.43,1.43,0,0,0-.56-.11,1.15,1.15,0,0,0-1,.42,1.66,1.66,0,0,0-.35,1.09,1.69,1.69,0,0,0,.35,1.1,1.17,1.17,0,0,0,1,.42,1.22,1.22,0,0,0,.7-.19,1.2,1.2,0,0,0,.45-.54A2,2,0,0,0,38.23,277.71Z" style="fill: #ededed"/>
      <path d="M44.15,280.67h-1.3v-.62a1.91,1.91,0,0,1-.58.53,1.47,1.47,0,0,1-.72.17,1,1,0,0,1-1.07-.58,3.13,3.13,0,0,1-.25-1.29v-2.55h1.3v2.35a1.72,1.72,0,0,0,.1.62.41.41,0,0,0,.43.26.55.55,0,0,0,.45-.19,3.72,3.72,0,0,0,.34-.49v-2.55h1.3Z" style="fill: #ededed"/>
      <path d="M47.67,280.42a2.5,2.5,0,0,1-.55.22,2.47,2.47,0,0,1-.68.11c-.94,0-1.4-.54-1.4-1.62V277.4h-.59v-.27l1.74-2.1h.15v1.3h1.23v1.07H46.34v1.39a2.18,2.18,0,0,0,0,.39.48.48,0,0,0,.14.25.53.53,0,0,0,.36.1,1.66,1.66,0,0,0,.81-.31Z" style="fill: #ededed"/>
    </g>
    <g>
      <path d="M20.74,336.45H19.09v-5.9h1.65Z"/>
      <path d="M26,336.45H24.55v-2.34a1.67,1.67,0,0,0-.11-.62.46.46,0,0,0-.48-.27.7.7,0,0,0-.3.07,1.08,1.08,0,0,0-.24.18l-.18.22-.14.22v2.54H21.67v-4.34H23.1v.63a2.06,2.06,0,0,1,.67-.55,1.86,1.86,0,0,1,.75-.15c1,0,1.45.62,1.45,1.87Z"/>
      <path d="M31,334.25a2.94,2.94,0,0,1-.12.84,2.06,2.06,0,0,1-.35.73,1.6,1.6,0,0,1-.6.52,1.82,1.82,0,0,1-.86.19,1.69,1.69,0,0,1-.62-.09,2.25,2.25,0,0,1-.46-.24v2.23H26.6v-6.32H28v.4a1.82,1.82,0,0,1,.48-.34,1.51,1.51,0,0,1,.7-.13,1.82,1.82,0,0,1,.86.23,1.9,1.9,0,0,1,.7.73A2.6,2.6,0,0,1,31,334.25Zm-1.5,0a1.46,1.46,0,0,0-.12-.64.73.73,0,0,0-.29-.35.76.76,0,0,0-.38-.11.8.8,0,0,0-.41.09,1.26,1.26,0,0,0-.31.22v1.65l.16.1.17.09.18.07.21,0a.65.65,0,0,0,.56-.31A1.36,1.36,0,0,0,29.53,334.29Z"/>
      <path d="M35.79,336.45H34.36v-.61a2.29,2.29,0,0,1-.63.52,1.74,1.74,0,0,1-.79.17,1.17,1.17,0,0,1-1.18-.57,3.05,3.05,0,0,1-.27-1.3v-2.55h1.42v2.35a1.67,1.67,0,0,0,.11.62.46.46,0,0,0,.48.27.63.63,0,0,0,.49-.2,2.6,2.6,0,0,0,.37-.49v-2.55h1.43Z"/>
      <path d="M39.66,336.2a3,3,0,0,1-.61.22,2.9,2.9,0,0,1-.75.11c-1,0-1.54-.54-1.54-1.62v-1.73h-.64v-.27l1.91-2.1h.16v1.3h1.36v1.07H38.19v1.39a2.06,2.06,0,0,0,0,.39.4.4,0,0,0,.16.25.59.59,0,0,0,.39.1,2,2,0,0,0,.89-.31Z"/>
    </g>
    <g>
      <path d="M7.9,343a2.07,2.07,0,0,1-.1.66,1.83,1.83,0,0,1-.3.61,1.77,1.77,0,0,1-.58.45,2,2,0,0,1-.85.17h-1v2.29H3.58v-6.09H6.07a1.87,1.87,0,0,1,.85.17,1.67,1.67,0,0,1,.58.46,1.83,1.83,0,0,1,.3.61A2.18,2.18,0,0,1,7.9,343Zm-1.54,0a.73.73,0,0,0-.21-.6,1.34,1.34,0,0,0-.75-.16H5.08v1.47h.33a2.05,2.05,0,0,0,.57-.06.4.4,0,0,0,.29-.21A.88.88,0,0,0,6.36,343Z"/>
      <path d="M10,347.18H8.45v-6.09H10Z"/>
      <path d="M16.6,347.18H12.83v-6.09h3.71v1.22h-2.2v1.11h2.1v1.23h-2.1V346H16.6Z"/>
      <path d="M23,347.18H21l-.53-.77-.31-.47c-.19-.28-.32-.47-.38-.57-.29.47-.53.85-.71,1.12l-.46.69h-1.9L18.85,344l-2-2.92h1.93l.34.51c.2.29.43.66.71,1.1.26-.47.47-.81.62-1l.4-.57H22.7L20.76,344Z"/>
      <path d="M27.65,343a2.39,2.39,0,0,1-.09.66,2.07,2.07,0,0,1-.31.61,1.67,1.67,0,0,1-.58.45,2,2,0,0,1-.85.17h-1v2.29h-1.5v-6.09h2.49a1.87,1.87,0,0,1,.85.17,1.58,1.58,0,0,1,.58.46,2.07,2.07,0,0,1,.31.61A2.52,2.52,0,0,1,27.65,343Zm-1.53,0a.73.73,0,0,0-.21-.6,1.38,1.38,0,0,0-.76-.16h-.32v1.47h.33a2.05,2.05,0,0,0,.57-.06.42.42,0,0,0,.3-.21A.88.88,0,0,0,26.12,343Z"/>
      <path d="M33.05,347.18H31.51l-.41-1.24H28.93l-.41,1.24H27l2.2-6.09h1.67Zm-2.3-2.3L30,342.66l-.74,2.22Z"/>
      <path d="M38.84,347.18H37.5l-2.59-3.4v3.4H33.42v-6.09h1.34l2.58,3.37v-3.37h1.5Z"/>
      <path d="M44.94,344.24a3.32,3.32,0,0,1-.28,1.5,3,3,0,0,1-.66.92,2.09,2.09,0,0,1-1.5.52H39.81v-6.09h2.07a4.58,4.58,0,0,1,.8.06,2.5,2.5,0,0,1,.6.16,2.2,2.2,0,0,1,.46.24,3.11,3.11,0,0,1,.33.29,2.77,2.77,0,0,1,.45.6,3.5,3.5,0,0,1,.31.81A4.35,4.35,0,0,1,44.94,344.24Zm-1.53-.08a2.48,2.48,0,0,0-.23-1.16,1.23,1.23,0,0,0-.56-.55,1.58,1.58,0,0,0-.67-.14h-.64v3.6H42a1.6,1.6,0,0,0,1-.34A1.76,1.76,0,0,0,43.41,344.16Z"/>
      <path d="M49.34,347.18H45.58v-6.09h3.7v1.22H47.09v1.11h2.09v1.23H47.09V346h2.25Z"/>
      <path d="M54.9,347.18H53.28l-.39-1.08a5.51,5.51,0,0,0-.39-.87.76.76,0,0,0-.76-.43h-.17v2.38H50.06v-6.09h2.57a1.62,1.62,0,0,1,1,.3,1.79,1.79,0,0,1,.57.75,2.19,2.19,0,0,1,.18.84,1.87,1.87,0,0,1-.15.78,1.46,1.46,0,0,1-.31.46,3.44,3.44,0,0,1-.36.28,1.69,1.69,0,0,1,.4.4,6.54,6.54,0,0,1,.42,1Zm-2-4.17a.69.69,0,0,0-.22-.59,1.3,1.3,0,0,0-.74-.17h-.32v1.47h.32a1.38,1.38,0,0,0,.76-.15A.65.65,0,0,0,52.85,343Z"/>
    </g>
    <g>
      <g>
        <path d="M45.09,15.24l-6.47,8.22v-7A1.53,1.53,0,0,0,37.87,15a1.05,1.05,0,0,0-1.32.35L28,26.19a1.74,1.74,0,0,0,0,2.1,1.06,1.06,0,0,0,1.7,0l6.43-8.17v7.05A1.51,1.51,0,0,0,37,28.5a1.07,1.07,0,0,0,1.33-.35l6.46-8.21v7.19a1.23,1.23,0,1,0,2.41,0V16.27a1.5,1.5,0,0,0-.75-1.37A1.05,1.05,0,0,0,45.09,15.24Z"/>
        <path d="M28.91,29.15a1.54,1.54,0,0,1-1.18-.57,2.16,2.16,0,0,1,0-2.66l8.5-10.81a1.51,1.51,0,0,1,1.88-.47,2,2,0,0,1,1,1.78v5.74L44.73,15a1.52,1.52,0,0,1,1.87-.47,2,2,0,0,1,1,1.78V27.13a1.67,1.67,0,1,1-3.31,0v-5.9l-5.66,7.2a1.52,1.52,0,0,1-1.88.47,2,2,0,0,1-1-1.77V21.38c-2.37,3-5.61,7.14-5.61,7.14a1.6,1.6,0,0,1-1.2.63Zm8.51-13.76a.64.64,0,0,0-.52.28l-8.5,10.8a1.27,1.27,0,0,0,0,1.52.64.64,0,0,0,.49.26h0a.65.65,0,0,0,.51-.28l6.42-8.17.8-1v8.35a1.06,1.06,0,0,0,.51,1,.61.61,0,0,0,.77-.22h0S42,22.68,44.4,19.66l.8-1v8.49c0,.56.34,1,.75,1s.76-.47.76-1V16.27a1.07,1.07,0,0,0-.5-1,.61.61,0,0,0-.77.22l-7.27,9.24V16.42a1.07,1.07,0,0,0-.5-1A.48.48,0,0,0,37.42,15.39Z"/>
      </g>
      <g>
        <path d="M28,15.16l-5.62,7.16a1.73,1.73,0,0,0,0,2.09,1.06,1.06,0,0,0,1.71,0l3.56-4.52v7.37a1.36,1.36,0,0,0,1.2,1.48,1.36,1.36,0,0,0,1.21-1.48v-11a1.52,1.52,0,0,0-.75-1.37A1.07,1.07,0,0,0,28,15.16Z"/>
        <path d="M28.91,29.15a1.81,1.81,0,0,1-1.65-1.93V21.15l-2.75,3.5a1.52,1.52,0,0,1-2.41.05,2.18,2.18,0,0,1,0-2.66l5.63-7.16a1.51,1.51,0,0,1,1.88-.47,2,2,0,0,1,1,1.77v11A1.81,1.81,0,0,1,28.91,29.15Zm-.75-10.6v8.67c0,.56.34,1,.75,1s.76-.46.76-1v-11a1.09,1.09,0,0,0-.5-1,.63.63,0,0,0-.77.23L22.77,22.6a1.27,1.27,0,0,0,0,1.52.67.67,0,0,0,.49.26h0a.7.7,0,0,0,.51-.29Z"/>
      </g>
      <g>
        <path d="M54.86,20.44a1.22,1.22,0,0,0-1.11-.9H51.29l1.8-2.29s.93-1.37.11-2.12a1.49,1.49,0,0,0-1.85.07L47.58,20a1.76,1.76,0,0,0-.24,1.61,1.24,1.24,0,0,0,1.11.9h2.47L48,26.2s-1.21,1.32-.32,2.21,2.06-.15,2.06-.15L54.62,22A1.71,1.71,0,0,0,54.86,20.44Z"/>
        <path d="M48.5,29.22a1.54,1.54,0,0,1-1.13-.49c-.95-.94-.22-2.26.3-2.83L50,23H48.45a1.67,1.67,0,0,1-1.53-1.21,2.18,2.18,0,0,1,.31-2l3.84-4.86a1.87,1.87,0,0,1,2.43,0c.88.8.39,2.08,0,2.71l-1.24,1.58h1.53a1.68,1.68,0,0,1,1.54,1.2,2.18,2.18,0,0,1-.32,2l-4.88,6.21A2.49,2.49,0,0,1,48.5,29.22Zm3.17-13.7-3.73,4.75a1.26,1.26,0,0,0-.17,1.18.79.79,0,0,0,.68.6h3.39l-3.49,4.43s-.92,1-.35,1.62,1.35-.1,1.43-.18l4.84-6.15a1.29,1.29,0,0,0,.17-1.18h0a.79.79,0,0,0-.69-.6H50.37l2.37-3h0s.67-1.05.15-1.52A1,1,0,0,0,51.67,15.52Z"/>
      </g>
    </g>
    <path d="M25.46,76.66V70.27h-1a6,6,0,0,0,1.16,3.2c1.15,1.59,3.46,3.14,7.76,3.18v-1c-4.08-.06-6-1.45-7-2.77a5.3,5.3,0,0,1-.85-1.83c-.06-.25-.09-.45-.11-.59v-.19h-1v6.39Z"/>
    <path d="M25.46,119.15v6.38h-1a5.92,5.92,0,0,1,1.16-3.2c1.15-1.6,3.46-3.14,7.76-3.18v1c-4.08,0-6,1.44-7,2.77a5.22,5.22,0,0,0-.85,1.83,5.62,5.62,0,0,0-.11.59v.19h-1v-6.38Z"/>
    <g>
      <path d="M28.92,32.82a11.28,11.28,0,0,0-1.54.11l-.24-1.4a14.54,14.54,0,0,1,3.57,0l-.24,1.4A11.31,11.31,0,0,0,28.92,32.82Z"/>
      <path d="M19.81,36.83l-1.08-.92a13.71,13.71,0,0,1,2.73-2.3l.7,1.23A12.39,12.39,0,0,0,19.81,36.83Z"/>
      <path d="M23.25,34.2,22.54,33a13.93,13.93,0,0,1,3.36-1.23l.24,1.39A13,13,0,0,0,23.25,34.2Z"/>
      <path d="M17.46,40.45,16.14,40a13.73,13.73,0,0,1,1.78-3.09l1.09.91A12.41,12.41,0,0,0,17.46,40.45Z"/>
      <path d="M31.7,33.14,32,31.75A13.93,13.93,0,0,1,35.31,33L34.6,34.2A13,13,0,0,0,31.7,33.14Z"/>
      <path d="M16.53,44.66H15.11a14.1,14.1,0,0,1,.6-3.51l1.33.49A12.08,12.08,0,0,0,16.53,44.66Z"/>
      <path d="M17.07,48.94l-1.32.48a13.76,13.76,0,0,1-.63-3.5h1.4A12.77,12.77,0,0,0,17.07,48.94Z"/>
      <path d="M19.05,52.76l-1.08.9a13.62,13.62,0,0,1-1.79-3.06l1.32-.48A13,13,0,0,0,19.05,52.76Z"/>
      <path d="M38.84,37.79l1.09-.91A13.73,13.73,0,0,1,41.71,40l-1.32.48A12.17,12.17,0,0,0,38.84,37.79Z"/>
      <path d="M40.81,41.63l1.33-.48a13.58,13.58,0,0,1,.6,3.51H41.32A12.16,12.16,0,0,0,40.81,41.63Z"/>
      <path d="M41.33,45.92h1.4a13.34,13.34,0,0,1-.63,3.5l-1.32-.49A12.6,12.6,0,0,0,41.33,45.92Z"/>
      <path d="M40.35,50.12l1.32.48a13.62,13.62,0,0,1-1.79,3.06l-1.07-.9A12.92,12.92,0,0,0,40.35,50.12Z"/>
      <path d="M22.2,55.68l-.7,1.21a13.84,13.84,0,0,1-2.72-2.27l1.08-.9A12.3,12.3,0,0,0,22.2,55.68Z"/>
      <path d="M38,53.72l1.08.9a13.84,13.84,0,0,1-2.72,2.27l-.7-1.21A12.3,12.3,0,0,0,38,53.72Z"/>
      <path d="M35.69,34.84l.7-1.23a13.71,13.71,0,0,1,2.73,2.3L38,36.82A12.72,12.72,0,0,0,35.69,34.84Z"/>
    </g>
    <g>
      <path d="M28.92,81.46a13.13,13.13,0,0,0-1.54.11l-.24-1.39a13.34,13.34,0,0,1,3.57,0l-.24,1.39A13.15,13.15,0,0,0,28.92,81.46Z"/>
      <path d="M19.81,85.47l-1.08-.91a13.71,13.71,0,0,1,2.73-2.3l.7,1.22A12.77,12.77,0,0,0,19.81,85.47Z"/>
      <path d="M23.25,82.85l-.71-1.22A13.52,13.52,0,0,1,25.9,80.4l.24,1.39A12,12,0,0,0,23.25,82.85Z"/>
      <path d="M17.46,89.1l-1.32-.48a14,14,0,0,1,1.78-3.1l1.09.92A11.94,11.94,0,0,0,17.46,89.1Z"/>
      <path d="M31.7,81.79,32,80.4a13.52,13.52,0,0,1,3.36,1.23l-.71,1.22A12.12,12.12,0,0,0,31.7,81.79Z"/>
      <path d="M16.53,93.31H15.11a13.94,13.94,0,0,1,.6-3.51l1.33.48A12.08,12.08,0,0,0,16.53,93.31Z"/>
      <path d="M17.07,97.58l-1.32.48a13.68,13.68,0,0,1-.63-3.5h1.4A12.68,12.68,0,0,0,17.07,97.58Z"/>
      <path d="M19.05,101.41l-1.08.9a13.47,13.47,0,0,1-1.79-3.07l1.32-.48A13,13,0,0,0,19.05,101.41Z"/>
      <path d="M38.84,86.44l1.09-.92a14,14,0,0,1,1.78,3.09l-1.32.49A11.94,11.94,0,0,0,38.84,86.44Z"/>
      <path d="M40.81,90.28l1.33-.48a13.51,13.51,0,0,1,.6,3.51H41.32A12.08,12.08,0,0,0,40.81,90.28Z"/>
      <path d="M41.33,94.56h1.4a13.26,13.26,0,0,1-.63,3.5l-1.32-.48A12.68,12.68,0,0,0,41.33,94.56Z"/>
      <path d="M40.35,98.76l1.32.48a13.47,13.47,0,0,1-1.79,3.07l-1.07-.91A12.66,12.66,0,0,0,40.35,98.76Z"/>
      <path d="M22.2,104.32l-.7,1.22a14.2,14.2,0,0,1-2.72-2.27l1.08-.91A12.3,12.3,0,0,0,22.2,104.32Z"/>
      <path d="M38,102.36l1.08.91a14.2,14.2,0,0,1-2.72,2.27l-.7-1.22A12.3,12.3,0,0,0,38,102.36Z"/>
      <path d="M35.69,83.48l.7-1.22a13.71,13.71,0,0,1,2.73,2.3L38,85.47A12.39,12.39,0,0,0,35.69,83.48Z"/>
    </g>
  </g>
  <g id="components">
    <circle id="Input" cx="28.95" cy="310.71" r="17.01" style="fill: lime"/>
    <circle id="Audio_Out" data-name="Audio Out" cx="28.92" cy="257.67" r="11.34" style="fill: blue"/>
    <circle id="Inv._Out" data-name="Inv. Out" cx="28.92" cy="217.28" r="11.34" style="fill: blue"/>
    <circle id="Env._Out" data-name="Env. Out" cx="28.92" cy="176.9" r="11.34" style="fill: blue"/>
    <rect id="Low_Med_High" data-name="Low | Med | High" x="23.26" y="130.04" width="11.34" height="17.01" transform="translate(167.46 109.61) rotate(90)" style="fill: #ffc080"/>
    <circle id="Inv._Level" data-name="Inv. Level" cx="28.93" cy="93.62" r="8.5" style="fill: #ff0080"/>
    <circle id="Env._Level" data-name="Env. Level" cx="28.93" cy="45.07" r="8.5" style="fill: #ff0080"/>
    <text id="slug" transform="translate(4.91 368.72)" style="font-size: 3px;font-family: MyriadPro-Regular, Myriad Pro">PIExp</text>
    <text id="modulename" transform="translate(19.09 368.72)" style="font-size: 3px;font-family: MyriadPro-Regular, Myriad Pro"><tspan style="letter-spacing: -0.024739583333333332em">P</tspan><tspan x="1.52" y="0">e</tspan><tspan x="3.02" y="0" style="letter-spacing: -0.010416666666666666em">r</tspan><tspan x="3.97" y="0" style="letter-spacing: 0.0003255208333333333em">cussion </tspan><tspan x="14" y="0" style="letter-spacing: 0.010091145833333334em">I</tspan><tspan x="14.75" y="0" style="letter-spacing: -0.004231770833333333em">nt</tspan><tspan x="17.37" y="0">e</tspan><tspan x="18.88" y="0" style="letter-spacing: 0.029622395833333332em">r</tspan><tspan x="19.95" y="0" style="letter-spacing: 0.0003255208333333333em">fa</tspan><tspan x="22.27" y="0" style="letter-spacing: -0.005859375em">c</tspan><tspan x="23.59" y="0">e Expander</tspan></text>
  </g>
</svg>
