<svg id="Layer_1" data-name="Layer 1" xmlns="http://www.w3.org/2000/svg" xmlns:xlink="http://www.w3.org/1999/xlink" width="30.57mm" height="130.6mm" viewBox="0 0 86.65 370.2">
  <defs>
    <clipPath id="clip-path" transform="translate(-0.01 -0.01)">
      <rect x="29.42" y="81.19" width="27.8" height="25.62" style="fill: none"/>
    </clipPath>
    <clipPath id="clip-path-3" transform="translate(-0.01 -0.01)">
      <rect x="29.42" y="125.95" width="27.8" height="25.62" style="fill: none"/>
    </clipPath>
    <clipPath id="clip-path-5" transform="translate(-0.01 -0.01)">
      <rect x="29.42" y="170.7" width="27.8" height="25.62" style="fill: none"/>
    </clipPath>
  </defs>
  <g id="faceplate">
    <rect x="0.13" y="0.13" width="86.4" height="364.26" style="fill: #ededed;stroke: #9d9d9e;stroke-miterlimit: 10.0003981590271;stroke-width: 0.2500099539756775px"/>
    <path d="M9.26,294.1v42.58a5.68,5.68,0,0,0,5.67,5.67H72a5.67,5.67,0,0,0,5.67-5.67V316.84h0V294.1Z" transform="translate(-0.01 -0.01)"/>
    <g>
      <path d="M14.57,310.32a5.16,5.16,0,0,1-5.17-5.16V229.92a13.68,13.68,0,0,1,13.67-13.68H63.14a13.69,13.69,0,0,1,13.67,13.68v75.24a5.16,5.16,0,0,1-5.16,5.16H14.57Z" transform="translate(-0.01 -0.01)" style="fill: #ededed"/>
      <path d="M63.5,216.74a13.18,13.18,0,0,1,13.17,13.18v75.24A4.66,4.66,0,0,1,72,309.82H14.93a4.67,4.67,0,0,1-4.67-4.66V229.92a13.2,13.2,0,0,1,13.17-13.18H63.5m0-1H23.43A14.22,14.22,0,0,0,9.26,229.92v75.24a5.68,5.68,0,0,0,5.67,5.66H72a5.67,5.67,0,0,0,5.67-5.66V229.92A14.21,14.21,0,0,0,63.5,215.74Z" transform="translate(-0.01 -0.01)"/>
    </g>
    <g>
      <path d="M17.67,351.94a2.74,2.74,0,0,1-.12.81,2.26,2.26,0,0,1-.38.74,1.72,1.72,0,0,1-.7.55,2.14,2.14,0,0,1-1,.21H14.22V357H12.38v-7.45h3a2.43,2.43,0,0,1,1,.22,1.83,1.83,0,0,1,.7.56,2.36,2.36,0,0,1,.38.74A2.93,2.93,0,0,1,17.67,351.94Zm-1.88,0a.84.84,0,0,0-.26-.73,1.72,1.72,0,0,0-.92-.2h-.39v1.8h.4a2.73,2.73,0,0,0,.7-.07.56.56,0,0,0,.36-.26.93.93,0,0,0,.11-.47Z" transform="translate(-0.01 -0.01)"/>
      <path d="M20.54,357H18.7v-7.45h1.84Z" transform="translate(-0.01 -0.01)"/>
      <path d="M27.93,351.41H25.7V357H23.86v-5.6H21.62V349.6h6.31Z" transform="translate(-0.01 -0.01)"/>
      <path d="M34.47,356.49a3.71,3.71,0,0,1-.77.39,4.46,4.46,0,0,1-.8.2,5.69,5.69,0,0,1-.83.06,3.36,3.36,0,0,1-1.43-.26,2.89,2.89,0,0,1-1.1-.8,3.53,3.53,0,0,1-.7-1.22,5.27,5.27,0,0,1-.23-1.54,4.81,4.81,0,0,1,.27-1.68,3.25,3.25,0,0,1,.77-1.2,3.29,3.29,0,0,1,1.12-.71,4,4,0,0,1,1.32-.23,6.19,6.19,0,0,1,2.36.56v2a6,6,0,0,0-.9-.57,2.29,2.29,0,0,0-1-.23,2.07,2.07,0,0,0-1,.26,2.15,2.15,0,0,0-.74.73,2.35,2.35,0,0,0,0,2.16,1.87,1.87,0,0,0,.68.74,1.71,1.71,0,0,0,1,.28,2.38,2.38,0,0,0,.84-.13A2.69,2.69,0,0,0,34,355a3,3,0,0,0,.55-.38Z" transform="translate(-0.01 -0.01)"/>
      <path d="M42.16,357H40.32V354.1H37.55V357H35.71v-7.45h1.84v2.74h2.77v-2.74h1.84Z" transform="translate(-0.01 -0.01)"/>
      <path d="M50.64,354.88a2.41,2.41,0,0,1-.29,1.21,1.87,1.87,0,0,1-.82.78,2.49,2.49,0,0,1-1.2.27h-.47a3.08,3.08,0,0,1-.73-.16,4.75,4.75,0,0,1-1-.4v-1.82a7.35,7.35,0,0,0,.91.58,2.07,2.07,0,0,0,1,.23.75.75,0,0,0,.61-.19.58.58,0,0,0-.07-.84l0,0a4,4,0,0,0-.69-.42,4.9,4.9,0,0,1-.88-.57,2.19,2.19,0,0,1-.62-.76,2.22,2.22,0,0,1-.24-1.08,2.54,2.54,0,0,1,.24-1.08,1.8,1.8,0,0,1,.74-.78,2.49,2.49,0,0,1,1.22-.29,3.67,3.67,0,0,1,.94.12,4.44,4.44,0,0,1,.72.27,2.45,2.45,0,0,1,.38.24v1.75a4.45,4.45,0,0,0-.83-.59,2,2,0,0,0-1-.26.75.75,0,0,0-.5.16.59.59,0,0,0-.16.4A.53.53,0,0,0,48,352a2.3,2.3,0,0,0,.55.39,12.1,12.1,0,0,1,1.13.73,2.33,2.33,0,0,1,.66.74A2.08,2.08,0,0,1,50.64,354.88Z" transform="translate(-0.01 -0.01)"/>
      <path d="M58.34,357H56.5V354.1H53.73V357H51.89v-7.45h1.84v2.74H56.5v-2.74h1.84Z" transform="translate(-0.01 -0.01)"/>
      <path d="M61.72,357H59.88v-7.45h1.84Z" transform="translate(-0.01 -0.01)"/>
      <path d="M67.63,354H65.1v3H63.26v-7.45h4.37v1.5H65.1v1.44h2.53Z" transform="translate(-0.01 -0.01)"/>
      <path d="M74.73,351.41H72.49V357H70.65v-5.6H68.41V349.6h6.32Z" transform="translate(-0.01 -0.01)"/>
    </g>
    <path d="M63,46.26h2.3a21.86,21.86,0,0,0-2.44-9.12l-2,1.13A19.41,19.41,0,0,1,63,46.26Z" transform="translate(-0.01 -0.01)"/>
    <path d="M63,48.26a19.56,19.56,0,0,1-2.13,8l2,1.12a21.82,21.82,0,0,0,2.44-9.12Z" transform="translate(-0.01 -0.01)"/>
    <g>
      <path d="M34.9,73.86a4.26,4.26,0,0,1-1.54.54,5.48,5.48,0,0,1-.81,0,3.72,3.72,0,0,1-1.4-.24,2.85,2.85,0,0,1-1.07-.72,3.17,3.17,0,0,1-.68-1.11,4.59,4.59,0,0,1,0-2.93,3.13,3.13,0,0,1,.75-1.09,3.19,3.19,0,0,1,1.09-.65,4.34,4.34,0,0,1,1.29-.2,6.51,6.51,0,0,1,2.3.51v1.8A6.12,6.12,0,0,0,34,69.3a2.42,2.42,0,0,0-1-.21,2.32,2.32,0,0,0-1,.23,2.13,2.13,0,0,0-.73.67,2,2,0,0,0,0,2,1.75,1.75,0,0,0,.67.68,1.86,1.86,0,0,0,1,.25,2.81,2.81,0,0,0,.82-.12,2.48,2.48,0,0,0,.65-.27,3.94,3.94,0,0,0,.55-.35Z" transform="translate(-0.01 -0.01)"/>
      <path d="M40.33,71.88A3,3,0,0,1,40,73.2a2,2,0,0,1-.85.92,2.62,2.62,0,0,1-1.37.33,2.66,2.66,0,0,1-1.38-.33,2.1,2.1,0,0,1-.85-.92,3.13,3.13,0,0,1-.28-1.32,3.43,3.43,0,0,1,.16-1,2.23,2.23,0,0,1,1.26-1.36,3.26,3.26,0,0,1,2.18,0,2.27,2.27,0,0,1,.79.54,2.36,2.36,0,0,1,.47.81A3.24,3.24,0,0,1,40.33,71.88Zm-1.63,0a1.61,1.61,0,0,0-.23-.93.75.75,0,0,0-.65-.33.73.73,0,0,0-.65.33,2,2,0,0,0,0,1.85.73.73,0,0,0,.65.35.74.74,0,0,0,.65-.34A1.59,1.59,0,0,0,38.7,71.88Z" transform="translate(-0.01 -0.01)"/>
      <path d="M45.32,74.12a5.87,5.87,0,0,1-.63.24,2,2,0,0,1-.69.09.76.76,0,0,1-.54-.15.85.85,0,0,1-.21-.37,2.34,2.34,0,0,1-.55.38,2,2,0,0,1-.8.14,1.52,1.52,0,0,1-.78-.18,1.07,1.07,0,0,1-.41-.48,1.45,1.45,0,0,1-.12-.59,1.36,1.36,0,0,1,.21-.76,1.62,1.62,0,0,1,.55-.49,8,8,0,0,1,.91-.39l.48-.18.25-.09.17-.09a1,1,0,0,0-.13-.57c-.08-.14-.27-.2-.55-.2a1.84,1.84,0,0,0-.94.25,4.14,4.14,0,0,0-.8.65V70a3.08,3.08,0,0,1,.62-.39,4.37,4.37,0,0,1,.7-.22,3.71,3.71,0,0,1,.74-.07,2.1,2.1,0,0,1,1.43.42,1.41,1.41,0,0,1,.48,1.15V72.8a1.41,1.41,0,0,0,0,.41.15.15,0,0,0,.16.14.73.73,0,0,0,.4-.15Zm-2.16-1V72a5.67,5.67,0,0,0-.8.45.7.7,0,0,0-.25.55.6.6,0,0,0,.12.39.43.43,0,0,0,.3.13.57.57,0,0,0,.31-.1,2.51,2.51,0,0,0,.32-.25Z" transform="translate(-0.01 -0.01)"/>
      <path d="M49.3,69.66l-.58,1.77a1,1,0,0,0-.71-.38.75.75,0,0,0-.56.25,2.53,2.53,0,0,0-.46.93v2.14H45.44v-5H47v1.2a2.73,2.73,0,0,1,.51-.87,1.14,1.14,0,0,1,1.33-.33A3.58,3.58,0,0,1,49.3,69.66Z" transform="translate(-0.01 -0.01)"/>
      <path d="M52.86,72.92A1.45,1.45,0,0,1,52.42,74a1.77,1.77,0,0,1-1.31.42,3.11,3.11,0,0,1-.86-.1,5.07,5.07,0,0,1-.83-.28V72.82a4.18,4.18,0,0,0,.68.38,1.41,1.41,0,0,0,.63.14c.39,0,.58-.12.58-.37a.34.34,0,0,0-.08-.21,1.11,1.11,0,0,0-.3-.22c-.13-.08-.32-.17-.55-.28a2.29,2.29,0,0,1-.73-.58,1.33,1.33,0,0,1-.3-.88,1.42,1.42,0,0,1,.2-.72,1.59,1.59,0,0,1,.6-.55,2.06,2.06,0,0,1,1-.22h.35a3,3,0,0,1,1.15.38V70.9l-.23-.15a2,2,0,0,0-.25-.14,1.42,1.42,0,0,0-.36-.14,1.54,1.54,0,0,0-.43-.06c-.18,0-.3,0-.36.11a.43.43,0,0,0-.1.24A.3.3,0,0,0,51,71a1.54,1.54,0,0,0,.46.27,4.19,4.19,0,0,1,.83.46,1.46,1.46,0,0,1,.44.52A1.57,1.57,0,0,1,52.86,72.92Z" transform="translate(-0.01 -0.01)"/>
      <path d="M57.83,72.31H54.75a1.27,1.27,0,0,0,1.24,1,3.65,3.65,0,0,0,1.73-.5V73.9a4.09,4.09,0,0,1-.83.36,3.65,3.65,0,0,1-1.23.16,2.54,2.54,0,0,1-1.37-.34,2.13,2.13,0,0,1-.85-.93,3.23,3.23,0,0,1,0-2.63,2.13,2.13,0,0,1,.85-.91,2.75,2.75,0,0,1,1.37-.33,2,2,0,0,1,1,.26,2,2,0,0,1,.82.85A3.24,3.24,0,0,1,57.83,72Zm-1.45-.87a1.25,1.25,0,0,0-.21-.77.7.7,0,0,0-.6-.28.77.77,0,0,0-.63.29,1.22,1.22,0,0,0-.23.76Z" transform="translate(-0.01 -0.01)"/>
    </g>
    <path d="M52.32,29.68l1.13-1.95a21.82,21.82,0,0,0-9.12-2.44v2.25A19.68,19.68,0,0,1,52.32,29.68Z" transform="translate(-0.01 -0.01)"/>
    <path d="M59.9,36.53l2-1.12a22,22,0,0,0-6.67-6.68L54.1,30.68A19.72,19.72,0,0,1,59.9,36.53Z" transform="translate(-0.01 -0.01)"/>
    <path d="M32.6,30.68l-1.13-1.95a22.13,22.13,0,0,0-6.67,6.68l1.95,1.12A19.89,19.89,0,0,1,32.6,30.68Z" transform="translate(-0.01 -0.01)"/>
    <path d="M42.33,27.54V25.29a21.9,21.9,0,0,0-9.13,2.44l1.13,1.95A19.77,19.77,0,0,1,42.33,27.54Z" transform="translate(-0.01 -0.01)"/>
    <path d="M26.74,58,24.8,59.11a22,22,0,0,0,6.67,6.68l1.13-2A20,20,0,0,1,26.74,58Z" transform="translate(-0.01 -0.01)"/>
    <path d="M54.05,63.84l1.13,2a21.91,21.91,0,0,0,6.67-6.68L59.9,58A19.62,19.62,0,0,1,54.05,63.84Z" transform="translate(-0.01 -0.01)"/>
    <path d="M23.61,48.26H21.35a21.82,21.82,0,0,0,2.44,9.12l1.95-1.12A19.56,19.56,0,0,1,23.61,48.26Z" transform="translate(-0.01 -0.01)"/>
    <path d="M25.74,38.27l-1.95-1.13a21.86,21.86,0,0,0-2.44,9.12h2.26A19.56,19.56,0,0,1,25.74,38.27Z" transform="translate(-0.01 -0.01)"/>
    <g id="pips_-_fewest" data-name="pips - fewest">
      <g style="clip-path: url(#clip-path)">
        <g style="clip-path: url(#clip-path)">
          <g>
            <path d="M49,84l.71-1.23A13.86,13.86,0,0,0,44,81.19v1.42A12.63,12.63,0,0,1,49,84" transform="translate(-0.01 -0.01)"/>
            <path d="M53.81,88.3l1.24-.71a14.1,14.1,0,0,0-4.23-4.23l-.71,1.24a12.55,12.55,0,0,1,3.7,3.7" transform="translate(-0.01 -0.01)"/>
            <path d="M36.54,84.6l-.71-1.24a14.1,14.1,0,0,0-4.23,4.23l1.24.71a12.55,12.55,0,0,1,3.7-3.7" transform="translate(-0.01 -0.01)"/>
            <path d="M55.8,94.45h1.43a13.87,13.87,0,0,0-1.55-5.77l-1.23.72a12.35,12.35,0,0,1,1.35,5" transform="translate(-0.01 -0.01)"/>
            <path d="M42.69,82.61V81.19a14,14,0,0,0-5.77,1.54L37.63,84a13,13,0,0,1,5.06-1.35" transform="translate(-0.01 -0.01)"/>
            <path d="M32.84,101.87l-1.24.72a14,14,0,0,0,4.23,4.22l.71-1.23a12.47,12.47,0,0,1-3.7-3.71" transform="translate(-0.01 -0.01)"/>
            <path d="M50.11,105.58l.71,1.23a13.85,13.85,0,0,0,4.23-4.22l-1.24-.72a12.47,12.47,0,0,1-3.7,3.71" transform="translate(-0.01 -0.01)"/>
            <path d="M55.8,95.72a12.37,12.37,0,0,1-1.35,5.06l1.23.71a13.79,13.79,0,0,0,1.55-5.77Z" transform="translate(-0.01 -0.01)"/>
            <path d="M30.85,95.72H29.42A13.82,13.82,0,0,0,31,101.49l1.23-.71a12.53,12.53,0,0,1-1.35-5.06" transform="translate(-0.01 -0.01)"/>
            <path d="M32.2,89.4,31,88.68a13.87,13.87,0,0,0-1.55,5.77h1.43a12.67,12.67,0,0,1,1.35-5" transform="translate(-0.01 -0.01)"/>
          </g>
        </g>
      </g>
    </g>
    <g>
      <path d="M39.49,115.05H37v2.74H35.2V111h4.27v1.36H37v1.31h2.47Z" transform="translate(-0.01 -0.01)"/>
      <path d="M41.72,117.79H40.17v-5h1.55Zm-.12-6.12a.71.71,0,0,1-.2.52.58.58,0,0,1-.78.12.7.7,0,0,1-.24-.27.77.77,0,0,1-.08-.37.82.82,0,0,1,.18-.52.6.6,0,0,1,.83-.09.38.38,0,0,1,.09.09A.74.74,0,0,1,41.6,111.67Z" transform="translate(-0.01 -0.01)"/>
      <path d="M47.11,117.79H45.56v-2.68a1.82,1.82,0,0,0-.12-.72.51.51,0,0,0-.52-.3.76.76,0,0,0-.33.08,1.64,1.64,0,0,0-.26.2c-.07.09-.14.17-.19.25l-.16.25v2.92H42.44v-5H44v.71a2.56,2.56,0,0,1,.73-.62,2,2,0,0,1,.82-.18c1,0,1.58.71,1.58,2.14Z" transform="translate(-0.01 -0.01)"/>
      <path d="M52.17,115.73H49.09a1.23,1.23,0,0,0,.44.74,1.2,1.2,0,0,0,.8.29,3.65,3.65,0,0,0,1.73-.5v1.09a4.09,4.09,0,0,1-.83.36,3.42,3.42,0,0,1-1.23.17,2.46,2.46,0,0,1-1.37-.35,2.1,2.1,0,0,1-.85-.92,3,3,0,0,1-.28-1.33,3,3,0,0,1,.28-1.31,2.13,2.13,0,0,1,.85-.91,2.72,2.72,0,0,1,1.37-.33,2.32,2.32,0,0,1,1,.26,2,2,0,0,1,.82.85,3.28,3.28,0,0,1,.32,1.54Zm-1.45-.87a1.25,1.25,0,0,0-.21-.77.72.72,0,0,0-.6-.28.77.77,0,0,0-.63.29,1.17,1.17,0,0,0-.24.76Z" transform="translate(-0.01 -0.01)"/>
    </g>
    <g id="pips_-_fewest-2" data-name="pips - fewest-2">
      <g style="clip-path: url(#clip-path-3)">
        <g style="clip-path: url(#clip-path-3)">
          <g>
            <path d="M49,128.73l.71-1.24A13.74,13.74,0,0,0,44,126v1.42a12.43,12.43,0,0,1,5,1.36" transform="translate(-0.01 -0.01)"/>
            <path d="M53.81,133.06l1.24-.71a13.85,13.85,0,0,0-4.23-4.22l-.71,1.23a12.43,12.43,0,0,1,3.7,3.7" transform="translate(-0.01 -0.01)"/>
            <path d="M36.54,129.36l-.71-1.23a13.85,13.85,0,0,0-4.23,4.22l1.24.71a12.43,12.43,0,0,1,3.7-3.7" transform="translate(-0.01 -0.01)"/>
            <path d="M55.8,139.22h1.43a13.79,13.79,0,0,0-1.55-5.77l-1.23.71a12.22,12.22,0,0,1,1.35,5.06" transform="translate(-0.01 -0.01)"/>
            <path d="M42.69,127.37V126a13.7,13.7,0,0,0-5.77,1.54l.71,1.24a12.43,12.43,0,0,1,5.06-1.36" transform="translate(-0.01 -0.01)"/>
            <path d="M32.84,146.64l-1.24.71a14.18,14.18,0,0,0,4.23,4.22l.71-1.23a12.79,12.79,0,0,1-3.7-3.7" transform="translate(-0.01 -0.01)"/>
            <path d="M50.11,150.34l.71,1.23a14.07,14.07,0,0,0,4.23-4.22l-1.24-.71a12.79,12.79,0,0,1-3.7,3.7" transform="translate(-0.01 -0.01)"/>
            <path d="M55.8,140.48a12.3,12.3,0,0,1-1.35,5.06l1.23.71a13.87,13.87,0,0,0,1.55-5.77Z" transform="translate(-0.01 -0.01)"/>
            <path d="M30.85,140.48H29.42A13.9,13.9,0,0,0,31,146.25l1.23-.71a12.62,12.62,0,0,1-1.35-5.06" transform="translate(-0.01 -0.01)"/>
            <path d="M32.2,134.16l-1.2-.71a13.79,13.79,0,0,0-1.55,5.77h1.43a12.53,12.53,0,0,1,1.35-5.06" transform="translate(-0.01 -0.01)"/>
          </g>
        </g>
      </g>
    </g>
    <g>
      <path d="M35.87,155.78l-2.58,6.86h-1l-1.55-4-1.58,4H28.07l-2.53-6.86H27.4l1.24,3.75,1.42-3.75h1.28l1.39,3.75,1.3-3.75Z" transform="translate(-0.01 -0.01)"/>
      <path d="M37.72,162.55H36.16v-5h1.56Zm-.13-6.12a.73.73,0,0,1-.19.52.58.58,0,0,1-.46.22.64.64,0,0,1-.56-.37.81.81,0,0,1,.1-.89.53.53,0,0,1,.46-.22.55.55,0,0,1,.46.22A.72.72,0,0,1,37.59,156.43Z" transform="translate(-0.01 -0.01)"/>
      <path d="M43.1,162.55H41.55v-2.68a1.76,1.76,0,0,0-.12-.72.47.47,0,0,0-.51-.3.59.59,0,0,0-.34.08.82.82,0,0,0-.25.21,1.59,1.59,0,0,0-.2.24l-.15.25v2.92H38.43v-5H40v.71a2.28,2.28,0,0,1,.73-.62,1.69,1.69,0,0,1,.82-.18c1,0,1.57.71,1.57,2.14Z" transform="translate(-0.01 -0.01)"/>
      <path d="M48.3,162.55H46.75v-.45a2.53,2.53,0,0,1-.52.39,1.6,1.6,0,0,1-.75.15,2,2,0,0,1-.94-.27,2.17,2.17,0,0,1-.75-.84,3.23,3.23,0,0,1-.3-1.43,3.85,3.85,0,0,1,.22-1.27,2.19,2.19,0,0,1,.71-1,1.74,1.74,0,0,1,1.16-.37,1.84,1.84,0,0,1,.7.11,1.47,1.47,0,0,1,.47.27v-2.09H48.3ZM46.75,161v-1.9a2.22,2.22,0,0,0-.42-.25.73.73,0,0,0-.36-.07.71.71,0,0,0-.61.35,1.75,1.75,0,0,0-.24,1,1.43,1.43,0,0,0,.26,1,.8.8,0,0,0,.59.3.85.85,0,0,0,.45-.1A1.72,1.72,0,0,0,46.75,161Z" transform="translate(-0.01 -0.01)"/>
      <path d="M53.76,160.06a2.91,2.91,0,0,1-.28,1.32,2.15,2.15,0,0,1-.85.92,3.05,3.05,0,0,1-2.76,0,2.19,2.19,0,0,1-.84-.92,3,3,0,0,1-.28-1.32,3.37,3.37,0,0,1,.15-1,2.45,2.45,0,0,1,.48-.81,2.06,2.06,0,0,1,.79-.55,2.68,2.68,0,0,1,1.08-.19,2.91,2.91,0,0,1,1.09.19,2,2,0,0,1,.79.54,2,2,0,0,1,.47.81A2.85,2.85,0,0,1,53.76,160.06Zm-1.63,0a1.59,1.59,0,0,0-.22-.93.82.82,0,0,0-1.15-.17,1.29,1.29,0,0,0-.16.17,1.67,1.67,0,0,0-.22.93,1.8,1.8,0,0,0,.22.93.78.78,0,0,0,.65.34.75.75,0,0,0,.66-.34A1.71,1.71,0,0,0,52.13,160.06Z" transform="translate(-0.01 -0.01)"/>
      <path d="M61.17,157.58l-1.72,5h-1l-1-2.71-1,2.71h-1l-1.77-5h1.57l.8,2.51.85-2.51h1l.87,2.51.77-2.51Z" transform="translate(-0.01 -0.01)"/>
    </g>
    <g id="pips_-_fewest-3" data-name="pips - fewest-3">
      <g style="clip-path: url(#clip-path-5)">
        <g style="clip-path: url(#clip-path-5)">
          <g>
            <path d="M49,173.48l.71-1.24A13.74,13.74,0,0,0,44,170.7v1.43a12.26,12.26,0,0,1,5,1.35" transform="translate(-0.01 -0.01)"/>
            <path d="M53.81,177.81l1.24-.71a13.85,13.85,0,0,0-4.23-4.22l-.71,1.23a12.55,12.55,0,0,1,3.7,3.7" transform="translate(-0.01 -0.01)"/>
            <path d="M36.54,174.11l-.71-1.23a13.85,13.85,0,0,0-4.23,4.22l1.24.71a12.55,12.55,0,0,1,3.7-3.7" transform="translate(-0.01 -0.01)"/>
            <path d="M55.8,184h1.43a13.79,13.79,0,0,0-1.55-5.77l-1.23.71A12.22,12.22,0,0,1,55.8,184" transform="translate(-0.01 -0.01)"/>
            <path d="M42.69,172.13V170.7a13.7,13.7,0,0,0-5.77,1.54l.71,1.24a12.26,12.26,0,0,1,5.06-1.35" transform="translate(-0.01 -0.01)"/>
            <path d="M32.84,191.39l-1.24.71a14.07,14.07,0,0,0,4.23,4.22l.71-1.23a12.55,12.55,0,0,1-3.7-3.7" transform="translate(-0.01 -0.01)"/>
            <path d="M50.11,195.09l.71,1.23a14.07,14.07,0,0,0,4.23-4.22l-1.24-.71a12.55,12.55,0,0,1-3.7,3.7" transform="translate(-0.01 -0.01)"/>
            <path d="M55.8,185.23a12.26,12.26,0,0,1-1.35,5.06l1.23.71a13.87,13.87,0,0,0,1.55-5.77Z" transform="translate(-0.01 -0.01)"/>
            <path d="M30.85,185.23H29.42A13.91,13.91,0,0,0,31,191l1.23-.71a12.58,12.58,0,0,1-1.35-5.06" transform="translate(-0.01 -0.01)"/>
            <path d="M32.2,178.91,31,178.2A14,14,0,0,0,29.42,184h1.43A12.53,12.53,0,0,1,32.2,179" transform="translate(-0.01 -0.01)"/>
          </g>
        </g>
      </g>
    </g>
    <g>
      <path d="M43.1,207.3H41.31v-3.92l-1.62,2.27h-.14l-1.63-2.27v3.92H36.18v-6.77h1.63l1.83,2.54,1.84-2.54H43.1Z" transform="translate(-0.01 -0.01)"/>
      <path d="M45.63,207.3H44.08v-5h1.55Zm-.12-6.12a.68.68,0,0,1-.2.52.58.58,0,0,1-.46.22.56.56,0,0,1-.33-.1,1,1,0,0,1-.23-.26.82.82,0,0,1,.1-.9.58.58,0,0,1,.83-.09.2.2,0,0,1,.09.09A.77.77,0,0,1,45.51,201.18Z" transform="translate(-0.01 -0.01)"/>
      <path d="M51.22,207.3H49.31l-.85-1.41-.84,1.41H45.93l1.69-2.44-1.73-2.53H47.8l.8,1.35.82-1.35h1.69l-1.65,2.36Z" transform="translate(-0.01 -0.01)"/>
    </g>
    <g>
      <path d="M26.56,326.21a3.17,3.17,0,0,1-.31,1.39,2.28,2.28,0,0,1-.92,1,3.08,3.08,0,0,1-3,0,2.41,2.41,0,0,1-.9-1,3.18,3.18,0,0,1-.3-1.36,3.4,3.4,0,0,1,.29-1.37,2.44,2.44,0,0,1,.91-1,2.8,2.8,0,0,1,1.5-.39,3.13,3.13,0,0,1,1.18.22,2.37,2.37,0,0,1,.85.61,2.42,2.42,0,0,1,.5.88A3.24,3.24,0,0,1,26.56,326.21Zm-1.47,0a1.77,1.77,0,0,0-.08-.56,1.26,1.26,0,0,0-.24-.44,1.14,1.14,0,0,0-.39-.29,1.39,1.39,0,0,0-.53-.1,1.2,1.2,0,0,0-.91.38,1.53,1.53,0,0,0-.33,1,1.44,1.44,0,0,0,.33,1,1.14,1.14,0,0,0,.91.39,1.13,1.13,0,0,0,.67-.18,1.08,1.08,0,0,0,.43-.49A1.7,1.7,0,0,0,25.09,326.21Z" transform="translate(-0.01 -0.01)" style="fill: #fff"/>
      <path d="M30.65,328.92H29.41v-.57a1.8,1.8,0,0,1-.55.48,1.38,1.38,0,0,1-.69.16,1,1,0,0,1-1-.53,3,3,0,0,1-.24-1.18v-2.34h1.24v2.15a1.56,1.56,0,0,0,.1.57.38.38,0,0,0,.41.24.54.54,0,0,0,.43-.17,2.83,2.83,0,0,0,.32-.45v-2.34h1.24Z" transform="translate(-0.01 -0.01)" style="fill: #fff"/>
      <path d="M33.92,328.69a2,2,0,0,1-.53.2,2.05,2.05,0,0,1-.65.1c-.89,0-1.33-.5-1.33-1.49v-1.58h-.56v-.25l1.66-1.92h.14v1.19h1.18v1H32.65v1.27a2.16,2.16,0,0,0,0,.36.39.39,0,0,0,.14.23.52.52,0,0,0,.34.09,1.53,1.53,0,0,0,.77-.28Z" transform="translate(-0.01 -0.01)" style="fill: #fff"/>
    </g>
    <g>
      <path d="M60.47,307.19H59V304l-1.3,1.82h-.11L56.32,304v3.14H54.93v-5.42h1.3l1.46,2,1.47-2h1.31Z" transform="translate(-0.01 -0.01)"/>
      <path d="M62.49,307.19H61.25v-4h1.24Zm-.1-4.9a.54.54,0,0,1-.16.42.42.42,0,0,1-.36.17.39.39,0,0,1-.27-.08.46.46,0,0,1-.18-.21.6.6,0,0,1-.07-.3.66.66,0,0,1,.15-.42.48.48,0,0,1,.73,0A.57.57,0,0,1,62.39,302.29Z" transform="translate(-0.01 -0.01)"/>
      <path d="M67,307.19H65.43l-.68-1.13-.67,1.13H62.73l1.35-2-1.38-2h1.52l.65,1.08.65-1.08h1.36l-1.33,1.89Z" transform="translate(-0.01 -0.01)"/>
    </g>
    <g>
      <path d="M20.18,301.77l-2.06,5.49h-.83l-1.24-3.19-1.27,3.19h-.84l-2-5.49h1.49l1,3,1.13-3h1l1.11,3,1-3Z" transform="translate(-0.01 -0.01)"/>
      <path d="M21.66,307.19H20.42v-4h1.24Zm-.1-4.9a.54.54,0,0,1-.16.42.42.42,0,0,1-.36.17.39.39,0,0,1-.27-.08.46.46,0,0,1-.18-.21.6.6,0,0,1-.07-.3.66.66,0,0,1,.15-.42.48.48,0,0,1,.37-.17.49.49,0,0,1,.36.17A.61.61,0,0,1,21.56,302.29Z" transform="translate(-0.01 -0.01)"/>
      <path d="M26,307.19H24.73V305a1.4,1.4,0,0,0-.1-.57.39.39,0,0,0-.41-.24.66.66,0,0,0-.27.06,1.06,1.06,0,0,0-.2.17,1.46,1.46,0,0,0-.16.19l-.12.2v2.34H22.23v-4h1.24v.57a2.14,2.14,0,0,1,.58-.5,1.66,1.66,0,0,1,.66-.14q1.26,0,1.26,1.71Z" transform="translate(-0.01 -0.01)"/>
      <path d="M30.13,307.19H28.89v-.36a1.83,1.83,0,0,1-.42.31,1.22,1.22,0,0,1-.6.12,1.45,1.45,0,0,1-.75-.22,1.56,1.56,0,0,1-.6-.67,2.46,2.46,0,0,1-.24-1.14,2.85,2.85,0,0,1,.18-1,1.71,1.71,0,0,1,.56-.77,1.5,1.5,0,0,1,.93-.3,1.77,1.77,0,0,1,.56.09,1.28,1.28,0,0,1,.38.21v-1.67h1.24Zm-1.24-1.27V304.4l-.34-.19a.72.72,0,0,0-.29-.06.56.56,0,0,0-.48.28,1.36,1.36,0,0,0-.2.76,1.16,1.16,0,0,0,.21.77.59.59,0,0,0,.47.24.64.64,0,0,0,.36-.08A1.05,1.05,0,0,0,28.89,305.92Z" transform="translate(-0.01 -0.01)"/>
      <path d="M34.49,305.19a2.27,2.27,0,0,1-.22,1.06,1.68,1.68,0,0,1-.68.74,2.09,2.09,0,0,1-1.1.27,2,2,0,0,1-1.1-.27,1.68,1.68,0,0,1-.68-.74,2.56,2.56,0,0,1-.23-1.06,2.5,2.5,0,0,1,.13-.81,1.77,1.77,0,0,1,1-1.09,2.6,2.6,0,0,1,1.74,0,1.75,1.75,0,0,1,.63.44,1.91,1.91,0,0,1,.38.64A2.86,2.86,0,0,1,34.49,305.19Zm-1.3,0a1.29,1.29,0,0,0-.18-.74.65.65,0,0,0-.91-.08l-.09.08a1.63,1.63,0,0,0,0,1.49.64.64,0,0,0,.9.1l.1-.1A1.31,1.31,0,0,0,33.19,305.19Z" transform="translate(-0.01 -0.01)"/>
      <path d="M40.42,303.21l-1.38,4h-.78l-.78-2.2-.77,2.17h-.79l-1.41-4h1.25l.64,2,.69-2h.78l.7,2,.61-2Z" transform="translate(-0.01 -0.01)"/>
    </g>
    <g>
      <path d="M48.94,6.76l-5.53,7v-6a1.26,1.26,0,0,0-.64-1.17.89.89,0,0,0-1.13.29l-7.28,9.25a1.49,1.49,0,0,0,0,1.79.9.9,0,0,0,1.26.2.64.64,0,0,0,.2-.2l5.5-7v6A1.31,1.31,0,0,0,42,18.1a.92.92,0,0,0,1.14-.3l5.53-7V17a1,1,0,0,0,.83,1.23,1,1,0,0,0,1.23-.82,1,1,0,0,0,0-.41V7.64a1.26,1.26,0,0,0-.65-1.18A.91.91,0,0,0,48.94,6.76Z" transform="translate(-0.01 -0.01)" style="stroke: #000;stroke-width: 0.6000239133844332px"/>
      <path d="M34.36,6.68l-4.81,6.13a1.49,1.49,0,0,0,0,1.79.91.91,0,0,0,1.26.2.64.64,0,0,0,.2-.2l3-3.87V17a1,1,0,0,0,.83,1.23,1,1,0,0,0,1.23-.82,1,1,0,0,0,0-.41V7.56a1.29,1.29,0,0,0-.65-1.17A.92.92,0,0,0,34.36,6.68Z" transform="translate(-0.01 -0.01)" style="stroke: #000;stroke-width: 0.6000239133844332px"/>
      <path d="M57.31,11.2a1,1,0,0,0-1-.77h-2.1l1.53-1.95s.8-1.17.1-1.82a1.26,1.26,0,0,0-1.58.06L51,10.82a1.46,1.46,0,0,0-.2,1.37,1,1,0,0,0,1,.78h2.1l-2.49,3.17s-1,1.13-.27,1.89,1.75-.14,1.75-.14l4.18-5.31A1.49,1.49,0,0,0,57.31,11.2Z" transform="translate(-0.01 -0.01)" style="stroke: #000;stroke-width: 0.6000239133844332px"/>
    </g>
    <g>
      <path d="M19.06,258.45H17.6v-5.54h1.46Z" transform="translate(-0.01 -0.01)"/>
      <path d="M23.54,258.45H22.28v-2.19a1.52,1.52,0,0,0-.1-.59.39.39,0,0,0-.42-.25.5.5,0,0,0-.27.07.68.68,0,0,0-.21.17,1.56,1.56,0,0,0-.16.2l-.12.2v2.39H19.74v-4.07H21V255a1.6,1.6,0,0,1,.59-.51,1.47,1.47,0,0,1,.67-.15c.85,0,1.28.58,1.28,1.75Z" transform="translate(-0.01 -0.01)"/>
      <path d="M27.86,256.39a2.88,2.88,0,0,1-.1.78,2.06,2.06,0,0,1-.31.69,1.53,1.53,0,0,1-.53.48,1.55,1.55,0,0,1-.76.18,1.34,1.34,0,0,1-.55-.09,2.05,2.05,0,0,1-.41-.22v2.09H23.94v-5.92H25.2v.37a1.75,1.75,0,0,1,.42-.31,1.24,1.24,0,0,1,.62-.13,1.48,1.48,0,0,1,.77.22,1.6,1.6,0,0,1,.61.69A2.51,2.51,0,0,1,27.86,256.39Zm-1.32,0a1.63,1.63,0,0,0-.1-.6.75.75,0,0,0-.27-.33.56.56,0,0,0-.33-.1.81.81,0,0,0-.37.08,1.24,1.24,0,0,0-.27.21v1.55l.15.09.15.08a.44.44,0,0,0,.16.06.57.57,0,0,0,.18,0,.59.59,0,0,0,.5-.29A1.36,1.36,0,0,0,26.54,256.42Z" transform="translate(-0.01 -0.01)"/>
      <path d="M31.93,258.45H30.67v-.58a2.07,2.07,0,0,1-.56.49,1.55,1.55,0,0,1-.71.16,1,1,0,0,1-1-.54,2.94,2.94,0,0,1-.24-1.21v-2.39h1.26v2.2a1.5,1.5,0,0,0,.1.58.39.39,0,0,0,.42.25.57.57,0,0,0,.44-.18,4.32,4.32,0,0,0,.33-.46v-2.39h1.26Z" transform="translate(-0.01 -0.01)"/>
      <path d="M35.2,258.21a3,3,0,0,1-.54.21,2.64,2.64,0,0,1-.66.1c-.91,0-1.36-.51-1.36-1.52v-1.62h-.57v-.25l1.69-2h.14v1.21h1.21v1H33.9v1.3a1.83,1.83,0,0,0,0,.37.33.33,0,0,0,.14.23.53.53,0,0,0,.34.1,1.71,1.71,0,0,0,.79-.29Z" transform="translate(-0.01 -0.01)"/>
    </g>
    <g>
      <path d="M56.74,254.65a2.1,2.1,0,0,1-.09.61,2.06,2.06,0,0,1-.3.54,1.48,1.48,0,0,1-.56.41,2,2,0,0,1-.83.16H54v2.08H52.54v-5.54H55a2.12,2.12,0,0,1,.83.16,1.62,1.62,0,0,1,.56.42,2,2,0,0,1,.3.55A2.15,2.15,0,0,1,56.74,254.65Zm-1.49,0a.62.62,0,0,0-.21-.54,1.28,1.28,0,0,0-.73-.15H54v1.34h.32a2.61,2.61,0,0,0,.56-.05.49.49,0,0,0,.28-.19A.78.78,0,0,0,55.25,254.66Z" transform="translate(-0.01 -0.01)"/>
      <path d="M58.33,258.45H57.06v-4.07h1.27Zm-.11-5a.64.64,0,0,1-.15.43.49.49,0,0,1-.38.18.53.53,0,0,1-.27-.08.67.67,0,0,1-.19-.22.74.74,0,0,1-.07-.31.65.65,0,0,1,.16-.42.47.47,0,0,1,.37-.18.49.49,0,0,1,.38.18A.64.64,0,0,1,58.22,253.44Z" transform="translate(-0.01 -0.01)"/>
      <path d="M61.66,258.21a3,3,0,0,1-.54.21,2.64,2.64,0,0,1-.66.1c-.91,0-1.36-.51-1.36-1.52v-1.62h-.57v-.25l1.69-2h.14v1.21h1.21v1H60.36v1.3a1.83,1.83,0,0,0,0,.37.33.33,0,0,0,.14.23.53.53,0,0,0,.34.1,1.74,1.74,0,0,0,.79-.29Z" transform="translate(-0.01 -0.01)"/>
      <path d="M64.92,258.26a2.53,2.53,0,0,1-.33.12,2.22,2.22,0,0,1-.39.1,2.45,2.45,0,0,1-.48,0,2,2,0,0,1-1-.23,1.7,1.7,0,0,1-.62-.56,2.28,2.28,0,0,1-.31-.7,3.19,3.19,0,0,1-.08-.63,3,3,0,0,1,.08-.62,2.33,2.33,0,0,1,.3-.69,1.78,1.78,0,0,1,.62-.56,2,2,0,0,1,1-.22,2.78,2.78,0,0,1,.64.06,3.45,3.45,0,0,1,.51.18v1.13a3.11,3.11,0,0,0-1-.23.88.88,0,0,0-.59.23.91.91,0,0,0-.26.72,1.15,1.15,0,0,0,.12.55.92.92,0,0,0,.33.32.89.89,0,0,0,.4.11,1.42,1.42,0,0,0,.43-.07l.59-.18Z" transform="translate(-0.01 -0.01)"/>
      <path d="M69,258.45H67.73v-2.11a.09.09,0,0,1,0,0v-.09a1.41,1.41,0,0,0-.11-.54.41.41,0,0,0-.41-.24.58.58,0,0,0-.42.18,2.14,2.14,0,0,0-.35.46v2.39H65.19v-5.54h1.26V255a1.68,1.68,0,0,1,.62-.52,1.53,1.53,0,0,1,.64-.14c.86,0,1.28.55,1.28,1.64Z" transform="translate(-0.01 -0.01)"/>
    </g>
  </g>
  <g id="components">
    <circle id="Out" cx="60.56" cy="326.12" r="11.34" style="fill: blue"/>
    <circle id="Mix_CV" data-name="Mix CV" cx="60.56" cy="281.59" r="11.34" style="fill: lime"/>
    <circle id="Window_CV" data-name="Window CV" cx="26.09" cy="281.59" r="11.34" style="fill: lime"/>
    <circle id="Pitch_CV" data-name="Pitch CV" cx="60.56" cy="232.48" r="11.34" style="fill: lime"/>
    <circle id="Input" cx="26.09" cy="232.48" r="11.34" style="fill: lime"/>
    <circle id="Mix" cx="43.32" cy="184.38" r="8.5" style="fill: #ff0070"/>
    <circle id="Window" cx="43.32" cy="139.62" r="8.5" style="fill: red"/>
    <circle id="Fine" cx="43.32" cy="94.87" r="8.5" style="fill: #ff0040"/>
    <circle id="Coarse" cx="43.33" cy="46.91" r="17.01" style="fill: #ff0020"/>
    <text id="modulename" transform="translate(69.85 363.54)" style="isolation: isolate;font-size: 3.00011944770813px;font-family: MyriadPro-Regular, Myriad Pro"><tspan style="letter-spacing: -0.01611263971070488em">P</tspan><tspan x="1.55" y="0">i</tspan><tspan x="2.25" y="0" style="letter-spacing: -0.006021895649455359em">t</tspan><tspan x="3.23" y="0">ch Shi</tspan><tspan x="10.72" y="0" style="letter-spacing: 0.010904513743608351em">f</tspan><tspan x="11.63" y="0" style="letter-spacing: -0.006021895649455359em">t</tspan><tspan x="12.6" y="0">er</tspan></text>
    <text id="slug" transform="translate(56.11 369.45)" style="isolation: isolate;font-size: 3.00011944770813px;font-family: MyriadPro-Regular, Myriad Pro"><tspan style="letter-spacing: -0.01611263971070488em">P</tspan><tspan x="1.55" y="0">i</tspan><tspan x="2.25" y="0" style="letter-spacing: -0.006021895649455359em">t</tspan><tspan x="3.23" y="0">chShi</tspan><tspan x="10.08" y="0" style="letter-spacing: 0.011067267680080118em">f</tspan><tspan x="10.99" y="0">t</tspan></text>
  </g>
</svg>
