<svg xmlns="http://www.w3.org/2000/svg" width="50.89mm" height="132.01mm" viewBox="0 0 144.25 374.2">
  <g id="faceplate">
    <rect x="0.13" y="0.13" width="144" height="364.25" style="fill: #ededed;stroke: #9d9d9e;stroke-miterlimit: 10;stroke-width: 0.25px"/>
    <g>
      <g>
        <path d="M55.1,148.53a1.91,1.91,0,0,1-.08.54,1.49,1.49,0,0,1-.24.47,1.13,1.13,0,0,1-.36.33A.93.93,0,0,1,54,150a1,1,0,0,1-.65-.22,1.47,1.47,0,0,1-.4-.59,2.3,2.3,0,0,1-.13-.79,2.71,2.71,0,0,1,.08-.69,4.72,4.72,0,0,1,.24-.69,5,5,0,0,1,.38-.63,3.64,3.64,0,0,1,.49-.56l.73.33c-.11.14-.22.26-.3.37l-.25.35c-.08.13-.14.25-.21.38a.6.6,0,0,1,.2,0,.8.8,0,0,1,.49.16,1.23,1.23,0,0,1,.35.47A1.84,1.84,0,0,1,55.1,148.53Zm-.78,0a.58.58,0,0,0-.11-.41.36.36,0,0,0-.27-.14.31.31,0,0,0-.3.18.71.71,0,0,0-.1.37.72.72,0,0,0,.11.4.33.33,0,0,0,.27.16.3.3,0,0,0,.23-.09.54.54,0,0,0,.13-.22A.77.77,0,0,0,54.32,148.51Z"/>
        <path d="M56.17,152.6l-1.27,4-.69-.3.91-2.91H53.91v-.9h2.26Z"/>
        <path d="M55.61,161.36a1.39,1.39,0,0,1,0,.32,1.24,1.24,0,0,1-.16.38,1.1,1.1,0,0,1-.36.31,1.21,1.21,0,0,1-.6.13,1.34,1.34,0,0,1-.6-.12,1.12,1.12,0,0,1-.36-.32,1.07,1.07,0,0,1-.16-.37,1.35,1.35,0,0,1,0-.33,1.27,1.27,0,0,1,.13-.58.94.94,0,0,1,.35-.43,1.17,1.17,0,0,1-.28-.35,1.12,1.12,0,0,1-.1-.52,1.29,1.29,0,0,1,.06-.37,1.27,1.27,0,0,1,.17-.38,1.15,1.15,0,0,1,.33-.29,1.12,1.12,0,0,1,.5-.11,1.07,1.07,0,0,1,.51.11.94.94,0,0,1,.33.29,1.2,1.2,0,0,1,.18.38,1.64,1.64,0,0,1,0,.37,1.23,1.23,0,0,1-.1.52,1,1,0,0,1-.28.35,1.23,1.23,0,0,1,.25.26,1.25,1.25,0,0,1,.16.35A1.09,1.09,0,0,1,55.61,161.36Zm-.77-.11a.84.84,0,0,0-.06-.33.53.53,0,0,0-.15-.2.3.3,0,0,0-.19-.07.33.33,0,0,0-.27.16.72.72,0,0,0-.12.44.71.71,0,0,0,.12.45.35.35,0,0,0,.28.15.33.33,0,0,0,.27-.16A.74.74,0,0,0,54.84,161.25Zm-.09-1.69a.94.94,0,0,0-.07-.37.23.23,0,0,0-.23-.17.24.24,0,0,0-.24.17.91.91,0,0,0-.08.37.75.75,0,0,0,.1.39.25.25,0,0,0,.21.15.27.27,0,0,0,.22-.15A.75.75,0,0,0,54.75,159.56Z"/>
        <path d="M32.06,128.4H28v-1h4.08Zm0,1.91H28v-1h4.08Z"/>
        <g>
          <path d="M36.54,131.51h-1l-.42-.85-.43.85h-.85l.85-1.47-.86-1.52h1l.41.82.4-.82h.85l-.83,1.42Z"/>
          <path d="M39,131.51H36.74v-.08c.09-.12.18-.25.29-.42l.4-.63.22-.35c.06-.12.12-.23.17-.34a1.9,1.9,0,0,0,.12-.36,1.75,1.75,0,0,0,.05-.4.75.75,0,0,0-.12-.45.36.36,0,0,0-.31-.18c-.24,0-.48.17-.72.52v-1l.2-.18.19-.13a1.27,1.27,0,0,1,.26-.11,1,1,0,0,1,.31,0,.87.87,0,0,1,.5.15,1,1,0,0,1,.35.44,1.53,1.53,0,0,1,.13.66,2.1,2.1,0,0,1-.06.51,3.49,3.49,0,0,1-.12.38l-.16.35c-.13.25-.26.49-.4.72h1Z"/>
        </g>
        <g>
          <path d="M23.6,127.39,22,131.56H21.4L23,127.39Z"/>
          <path d="M26.11,131.51H23.85v-.08c.08-.12.18-.25.28-.42l.41-.63c.08-.12.15-.24.21-.35a2.15,2.15,0,0,0,.17-.34,1.9,1.9,0,0,0,.12-.36,1.33,1.33,0,0,0,.05-.4.83.83,0,0,0-.11-.45.37.37,0,0,0-.31-.18c-.24,0-.49.17-.73.52v-1l.21-.18.19-.13.25-.11a1.13,1.13,0,0,1,.32,0,.89.89,0,0,1,.5.15,1,1,0,0,1,.35.44,1.69,1.69,0,0,1,.13.66,2.1,2.1,0,0,1-.06.51,3.49,3.49,0,0,1-.12.38l-.17.35q-.18.38-.39.72h1Z"/>
        </g>
        <path d="M48.89,137.61h-.36v.88h-.79v-.88H46.53v-.77l1.37-2.41h.63v2.49h.36Zm-1.15-.69v-1.31L47,136.92Z"/>
        <path d="M13.06,137.61h-.35v.88h-.8v-.88H10.7v-.77l1.37-2.41h.64v2.49h.35Zm-1.15-.69v-1.31l-.74,1.31Z"/>
        <path d="M52.74,143.25a1.8,1.8,0,0,1-.12.66,1.18,1.18,0,0,1-.36.49,1,1,0,0,1-.59.18,1.3,1.3,0,0,1-.52-.1,1.36,1.36,0,0,1-.47-.29v-.88a1.64,1.64,0,0,0,.39.29,1,1,0,0,0,.44.14.3.3,0,0,0,.3-.16.62.62,0,0,0,.09-.32.58.58,0,0,0,0-.26.38.38,0,0,0-.18-.2.54.54,0,0,0-.33-.08,1,1,0,0,0-.46.11v-2.36h1.73v.85H51.55v.7h.19a.85.85,0,0,1,.52.17,1.18,1.18,0,0,1,.36.46A1.59,1.59,0,0,1,52.74,143.25Z"/>
        <path d="M9.18,143.25a1.8,1.8,0,0,1-.12.66,1.18,1.18,0,0,1-.36.49.93.93,0,0,1-.58.18,1.35,1.35,0,0,1-.53-.1,1.32,1.32,0,0,1-.46-.29v-.88a1.79,1.79,0,0,0,.38.29,1,1,0,0,0,.44.14.32.32,0,0,0,.31-.16.62.62,0,0,0,.09-.32.58.58,0,0,0-.06-.26.41.41,0,0,0-.17-.2.59.59,0,0,0-.34-.08.88.88,0,0,0-.45.11v-2.36H9.06v.85H8v.7h.19a.88.88,0,0,1,.53.17,1.15,1.15,0,0,1,.35.46A1.59,1.59,0,0,1,9.18,143.25Z"/>
        <path d="M6.93,148.53a1.61,1.61,0,0,1-.09.54,1.47,1.47,0,0,1-.23.47,1.13,1.13,0,0,1-.36.33,1.07,1.07,0,0,1-1.12-.11,1.38,1.38,0,0,1-.4-.59,2.3,2.3,0,0,1-.14-.79,2.72,2.72,0,0,1,.09-.69,3.77,3.77,0,0,1,.24-.69,4.06,4.06,0,0,1,.38-.63,4.19,4.19,0,0,1,.48-.56l.74.33-.31.37-.24.35a3.59,3.59,0,0,0-.21.38.6.6,0,0,1,.2,0,.79.79,0,0,1,.48.16,1.06,1.06,0,0,1,.35.47A1.67,1.67,0,0,1,6.93,148.53Zm-.78,0A.63.63,0,0,0,6,148.1a.37.37,0,0,0-.28-.14.33.33,0,0,0-.3.18.81.81,0,0,0-.09.37.72.72,0,0,0,.11.4.31.31,0,0,0,.27.16A.32.32,0,0,0,6,149a.54.54,0,0,0,.13-.22A.77.77,0,0,0,6.15,148.51Z"/>
        <path d="M6.38,152.6l-1.27,4-.7-.3.92-2.91H4.12v-.9H6.38Z"/>
        <path d="M6.31,161.36a1.39,1.39,0,0,1,0,.32,1.24,1.24,0,0,1-.16.38,1.1,1.1,0,0,1-.36.31,1.21,1.21,0,0,1-.6.13,1.34,1.34,0,0,1-.6-.12,1.12,1.12,0,0,1-.36-.32,1.07,1.07,0,0,1-.16-.37,1.35,1.35,0,0,1,0-.33,1.27,1.27,0,0,1,.13-.58.94.94,0,0,1,.35-.43,1.17,1.17,0,0,1-.28-.35,1.12,1.12,0,0,1-.1-.52,1.29,1.29,0,0,1,.06-.37,1.27,1.27,0,0,1,.17-.38,1.15,1.15,0,0,1,.33-.29,1.12,1.12,0,0,1,.5-.11,1.07,1.07,0,0,1,.51.11.94.94,0,0,1,.33.29,1.2,1.2,0,0,1,.18.38,1.64,1.64,0,0,1,0,.37,1.23,1.23,0,0,1-.1.52,1,1,0,0,1-.28.35,1.23,1.23,0,0,1,.25.26,1.27,1.27,0,0,1,.17.35A1.34,1.34,0,0,1,6.31,161.36Zm-.77-.11a.84.84,0,0,0-.06-.33.53.53,0,0,0-.15-.2.3.3,0,0,0-.19-.07.33.33,0,0,0-.27.16.72.72,0,0,0-.12.44.71.71,0,0,0,.12.45.35.35,0,0,0,.28.15.33.33,0,0,0,.27-.16A.74.74,0,0,0,5.54,161.25Zm-.09-1.69a.94.94,0,0,0-.07-.37.23.23,0,0,0-.23-.17.24.24,0,0,0-.24.17.91.91,0,0,0-.08.37.75.75,0,0,0,.1.39.25.25,0,0,0,.21.15.27.27,0,0,0,.22-.15A.75.75,0,0,0,5.45,159.56Z"/>
        <g>
          <path d="M51.76,167.94h-.82v-4.06h.82Z"/>
          <path d="M54.89,167.94H52.62v-.08c.09-.11.18-.25.29-.41s.24-.37.4-.64l.22-.35c.06-.11.12-.22.17-.33a1.9,1.9,0,0,0,.12-.36,1.83,1.83,0,0,0,0-.4.81.81,0,0,0-.12-.46.34.34,0,0,0-.3-.17c-.25,0-.49.17-.73.51v-1l.21-.17a1.41,1.41,0,0,1,.18-.14,1.56,1.56,0,0,1,.26-.11,1,1,0,0,1,.31,0,.87.87,0,0,1,.5.15.94.94,0,0,1,.35.43,1.57,1.57,0,0,1,.13.67,2,2,0,0,1-.06.5,2.48,2.48,0,0,1-.12.38c0,.1-.09.22-.16.36s-.26.48-.4.71h1Z"/>
        </g>
        <g>
          <path d="M6.19,167.94H5.37v-4.06h.82Z"/>
          <path d="M9.35,166.54a1.91,1.91,0,0,1-.08.54,1.47,1.47,0,0,1-.23.47,1.28,1.28,0,0,1-.37.33.93.93,0,0,1-.47.11,1,1,0,0,1-.64-.22,1.4,1.4,0,0,1-.41-.59,2.3,2.3,0,0,1-.13-.79,3.25,3.25,0,0,1,.08-.69,3.83,3.83,0,0,1,.25-.69,4,4,0,0,1,.37-.63,4.27,4.27,0,0,1,.49-.56l.74.33-.31.37-.25.35c-.07.13-.14.25-.2.38a.54.54,0,0,1,.19,0,.8.8,0,0,1,.49.16,1.23,1.23,0,0,1,.35.47A1.67,1.67,0,0,1,9.35,166.54Zm-.77,0a.59.59,0,0,0-.12-.41.36.36,0,0,0-.27-.14.31.31,0,0,0-.3.18.82.82,0,0,0-.1.37.72.72,0,0,0,.11.4.33.33,0,0,0,.28.16A.29.29,0,0,0,8.4,167a.54.54,0,0,0,.13-.22A.79.79,0,0,0,8.58,166.52Z"/>
        </g>
        <g>
          <path d="M47.93,174.1H47l-.42-.85-.42.85h-.85l.85-1.47-.87-1.52h1l.41.82.41-.82h.85l-.83,1.42Z"/>
          <path d="M49.45,174.1h-.82V170h.82Z"/>
          <path d="M52.61,172.69a2,2,0,0,1-.08.55,1.61,1.61,0,0,1-.24.47,1.22,1.22,0,0,1-.36.32.94.94,0,0,1-.47.12,1,1,0,0,1-.65-.23,1.27,1.27,0,0,1-.4-.59,2.26,2.26,0,0,1-.13-.79,2.71,2.71,0,0,1,.08-.69,4.23,4.23,0,0,1,.24-.68,4.5,4.5,0,0,1,.38-.64,4.18,4.18,0,0,1,.49-.56l.73.33-.3.38c-.09.11-.17.23-.25.35a2.71,2.71,0,0,0-.21.37.6.6,0,0,1,.2,0,.81.81,0,0,1,.49.17,1.12,1.12,0,0,1,.35.46A1.84,1.84,0,0,1,52.61,172.69Zm-.78,0a.68.68,0,0,0-.11-.42.35.35,0,0,0-.27-.13.32.32,0,0,0-.3.17.75.75,0,0,0-.1.38.71.71,0,0,0,.11.39.34.34,0,0,0,.27.17.3.3,0,0,0,.23-.09.61.61,0,0,0,.13-.22A.77.77,0,0,0,51.83,172.68Z"/>
        </g>
        <g>
          <path d="M9.21,170l-1.62,4.17H7L8.63,170Z"/>
          <path d="M11.32,173a1.45,1.45,0,0,1-.09.54,1.14,1.14,0,0,1-.25.37,1,1,0,0,1-.32.21,1,1,0,0,1-.33.06,1.61,1.61,0,0,1-.5-.09,2.19,2.19,0,0,1-.46-.2v-.92a1.5,1.5,0,0,0,.33.29.6.6,0,0,0,.36.12.42.42,0,0,0,.23-.07.52.52,0,0,0,.15-.18.59.59,0,0,0,.05-.23.6.6,0,0,0-.07-.27.47.47,0,0,0-.17-.2.56.56,0,0,0-.26-.07h-.1v-.65H10a.39.39,0,0,0,.25-.08.43.43,0,0,0,.14-.19.54.54,0,0,0,0-.21.52.52,0,0,0-.11-.32.31.31,0,0,0-.27-.14.73.73,0,0,0-.31.07,1.17,1.17,0,0,0-.3.21v-.78a2.05,2.05,0,0,1,.4-.19,1.09,1.09,0,0,1,.42-.07.87.87,0,0,1,.56.18,1.18,1.18,0,0,1,.34.43,1.47,1.47,0,0,1,.1.48,1.13,1.13,0,0,1-.06.36,1.35,1.35,0,0,1-.15.32.72.72,0,0,1-.2.22,1.12,1.12,0,0,1,.46,1Z"/>
          <path d="M13.9,174.1H11.64V174l.28-.42.41-.63c.08-.12.15-.24.21-.35a2.15,2.15,0,0,0,.17-.34,3,3,0,0,0,.13-.36,1.75,1.75,0,0,0,0-.4.83.83,0,0,0-.11-.45.37.37,0,0,0-.31-.18c-.24,0-.49.17-.73.52v-1l.21-.18.19-.13a1,1,0,0,1,.25-.11,1.13,1.13,0,0,1,.32-.05.89.89,0,0,1,.5.15,1,1,0,0,1,.35.44,1.69,1.69,0,0,1,.13.66,2.1,2.1,0,0,1-.06.51,3.49,3.49,0,0,1-.12.38l-.17.35a6.85,6.85,0,0,1-.39.71h1Z"/>
        </g>
        <path d="M43.36,133.09a1.45,1.45,0,0,1-.09.54A1,1,0,0,1,43,134a.91.91,0,0,1-.32.2,1,1,0,0,1-.33.07,1.66,1.66,0,0,1-.5-.09,1.89,1.89,0,0,1-.45-.21v-.91a1.45,1.45,0,0,0,.32.29.72.72,0,0,0,.36.11.4.4,0,0,0,.24-.07.39.39,0,0,0,.14-.17.62.62,0,0,0,0-.51.47.47,0,0,0-.18-.19.44.44,0,0,0-.26-.07h-.1v-.65h.12a.36.36,0,0,0,.24-.08.53.53,0,0,0,.15-.19.86.86,0,0,0,0-.21.57.57,0,0,0-.11-.33.33.33,0,0,0-.27-.14.75.75,0,0,0-.31.08,1.37,1.37,0,0,0-.29.2v-.78a2.2,2.2,0,0,1,.39-.18,1.16,1.16,0,0,1,.42-.07.9.9,0,0,1,.57.18,1,1,0,0,1,.33.43,1.24,1.24,0,0,1,.1.47,1.19,1.19,0,0,1-.06.37,1.35,1.35,0,0,1-.15.32,1.08,1.08,0,0,1-.19.22,1.11,1.11,0,0,1,.31.36A1.15,1.15,0,0,1,43.36,133.09Z"/>
        <path d="M19.25,133.09a1.45,1.45,0,0,1-.09.54,1.27,1.27,0,0,1-.25.37,1,1,0,0,1-.32.2,1,1,0,0,1-.33.07,1.61,1.61,0,0,1-.5-.09,2.19,2.19,0,0,1-.46-.21v-.91a1.5,1.5,0,0,0,.33.29.66.66,0,0,0,.36.11.35.35,0,0,0,.23-.07.41.41,0,0,0,.15-.17.64.64,0,0,0,.05-.23.64.64,0,0,0-.07-.28.44.44,0,0,0-.17-.19.46.46,0,0,0-.26-.07h-.1v-.65h.11a.39.39,0,0,0,.25-.08.49.49,0,0,0,.14-.19.58.58,0,0,0,.05-.21.57.57,0,0,0-.11-.33.33.33,0,0,0-.27-.14.75.75,0,0,0-.31.08,1.43,1.43,0,0,0-.3.2v-.78a2,2,0,0,1,.4-.18,1.09,1.09,0,0,1,.42-.07.87.87,0,0,1,.56.18,1,1,0,0,1,.33.43,1.27,1.27,0,0,1,.11.47,1.19,1.19,0,0,1-.06.37,1.35,1.35,0,0,1-.15.32.86.86,0,0,1-.2.22,1.13,1.13,0,0,1,.32.36A1.24,1.24,0,0,1,19.25,133.09Z"/>
      </g>
      <g>
        <path d="M42.42,169.91l1.23,1.59a22.57,22.57,0,0,0,3.14-3l-1.6-1.22A21.18,21.18,0,0,1,42.42,169.91Z"/>
        <path d="M38.5,172.33l.78,1.87a22.28,22.28,0,0,0,3.8-2.26c-.31-.37-.72-.89-1.26-1.59A20.5,20.5,0,0,1,38.5,172.33Z"/>
        <path d="M14.63,167.24,13,168.46a22.1,22.1,0,0,0,3.15,3c.32-.42.74-1,1.23-1.59A20.59,20.59,0,0,1,14.63,167.24Z"/>
        <path d="M18,170.35c-.54.7-.95,1.21-1.26,1.59a22.67,22.67,0,0,0,3.8,2.26l.78-1.87A20.94,20.94,0,0,1,18,170.35Z"/>
        <path d="M46.42,165.65l1.6,1.22a22.17,22.17,0,0,0,1.89-3.23L48,162.87A20.72,20.72,0,0,1,46.42,165.65Z"/>
        <path d="M10.17,157.92l-2,.26a21.81,21.81,0,0,0,1,3.61L11,161A18.89,18.89,0,0,1,10.17,157.92Z"/>
        <path d="M11.79,162.87l-1.88.77a22.12,22.12,0,0,0,1.88,3.23l1.6-1.22A19.64,19.64,0,0,1,11.79,162.87Z"/>
        <path d="M9.83,154.33c0-.54,0-1.08.08-1.61l-2-.26c-.05.62-.09,1.24-.09,1.87s0,1.25.09,1.87l2-.26C9.87,155.4,9.83,154.87,9.83,154.33Z"/>
        <path d="M11,147.64l-1.88-.78a21.67,21.67,0,0,0-1,3.62l2,.26A19.94,19.94,0,0,1,11,147.64Z"/>
        <path d="M16.91,139.15l-1.23-1.59A21.4,21.4,0,0,0,13,140.2l1.61,1.22A20.36,20.36,0,0,1,16.91,139.15Z"/>
        <path d="M21.31,136.33l-.78-1.87a21.81,21.81,0,0,0-3.25,1.88l1.23,1.59A19.31,19.31,0,0,1,21.31,136.33Z"/>
        <path d="M13.39,143l-1.6-1.22A21.7,21.7,0,0,0,9.91,145l1.88.77A19.75,19.75,0,0,1,13.39,143Z"/>
        <path d="M49.65,157.92a20.27,20.27,0,0,1-.85,3.1l1.88.77a21.84,21.84,0,0,0,1-3.61Z"/>
        <path d="M48,145.79l1.88-.77A21.76,21.76,0,0,0,48,141.78L46.42,143A20.84,20.84,0,0,1,48,145.79Z"/>
        <path d="M50,154.33c0,.54,0,1.07-.08,1.61l2,.26c0-.62.08-1.24.08-1.87s0-1.25-.08-1.87l-2,.26C50,153.25,50,153.79,50,154.33Z"/>
        <path d="M36.64,135.56l.78-1.87a22,22,0,0,0-3.63-1l-.27,2A19.88,19.88,0,0,1,36.64,135.56Z"/>
        <path d="M29.91,134.38c.54,0,1.08,0,1.62.08l.26-2c-.62-.06-1.25-.09-1.88-.09s-1.26,0-1.89.09l.27,2C28.82,134.42,29.36,134.38,29.91,134.38Z"/>
        <path d="M41.31,137.93l1.23-1.59a22.42,22.42,0,0,0-3.26-1.88l-.78,1.87A20,20,0,0,1,41.31,137.93Z"/>
        <path d="M45.19,141.42l1.6-1.22a21.4,21.4,0,0,0-2.66-2.64l-1.23,1.59A19.63,19.63,0,0,1,45.19,141.42Z"/>
        <path d="M49.65,150.74l2-.26a21.69,21.69,0,0,0-1-3.62l-1.88.78A20,20,0,0,1,49.65,150.74Z"/>
        <path d="M26.29,134.72l-.26-2a22.13,22.13,0,0,0-3.64,1l.78,1.87A20.49,20.49,0,0,1,26.29,134.72Z"/>
      </g>
    </g>
    <g>
      <g>
        <path d="M55.1,79.41A1.91,1.91,0,0,1,55,80a1.49,1.49,0,0,1-.24.47,1.13,1.13,0,0,1-.36.33,1,1,0,0,1-.47.11,1,1,0,0,1-.65-.22,1.47,1.47,0,0,1-.4-.59,2.3,2.3,0,0,1-.13-.79,2.71,2.71,0,0,1,.08-.69,4.72,4.72,0,0,1,.24-.69,5,5,0,0,1,.38-.63,3.64,3.64,0,0,1,.49-.56l.73.33c-.11.14-.22.26-.3.37l-.25.35c-.08.13-.14.25-.21.38a.6.6,0,0,1,.2,0,.8.8,0,0,1,.49.16,1.23,1.23,0,0,1,.35.47A1.84,1.84,0,0,1,55.1,79.41Zm-.78,0a.58.58,0,0,0-.11-.41.36.36,0,0,0-.27-.14.31.31,0,0,0-.3.18.71.71,0,0,0-.1.37.72.72,0,0,0,.11.4.33.33,0,0,0,.27.16.3.3,0,0,0,.23-.09.54.54,0,0,0,.13-.22A.77.77,0,0,0,54.32,79.39Z"/>
        <path d="M56.17,83.48l-1.27,4-.69-.3.91-2.91H53.91v-.9h2.26Z"/>
        <path d="M55.61,92.24a1.39,1.39,0,0,1,0,.32,1.24,1.24,0,0,1-.16.38,1.1,1.1,0,0,1-.36.31,1.21,1.21,0,0,1-.6.13,1.34,1.34,0,0,1-.6-.12,1.12,1.12,0,0,1-.36-.32,1.07,1.07,0,0,1-.16-.37,1.35,1.35,0,0,1,0-.33,1.27,1.27,0,0,1,.13-.58.94.94,0,0,1,.35-.43,1.17,1.17,0,0,1-.28-.35,1.15,1.15,0,0,1-.1-.52,1.29,1.29,0,0,1,.06-.37,1.27,1.27,0,0,1,.17-.38,1.15,1.15,0,0,1,.33-.29,1.12,1.12,0,0,1,.5-.11,1.07,1.07,0,0,1,.51.11.94.94,0,0,1,.33.29,1.2,1.2,0,0,1,.18.38,1.64,1.64,0,0,1,0,.37,1.23,1.23,0,0,1-.1.52,1,1,0,0,1-.28.35,1,1,0,0,1,.25.26,1.25,1.25,0,0,1,.16.35A1.09,1.09,0,0,1,55.61,92.24Zm-.77-.11a.84.84,0,0,0-.06-.33.53.53,0,0,0-.15-.2.3.3,0,0,0-.19-.07.33.33,0,0,0-.27.16.72.72,0,0,0-.12.44.71.71,0,0,0,.12.45.35.35,0,0,0,.28.15.33.33,0,0,0,.27-.16A.74.74,0,0,0,54.84,92.13Zm-.09-1.69a.94.94,0,0,0-.07-.37.23.23,0,0,0-.23-.17.24.24,0,0,0-.24.17.87.87,0,0,0-.08.37.75.75,0,0,0,.1.39.25.25,0,0,0,.21.15.27.27,0,0,0,.22-.15A.75.75,0,0,0,54.75,90.44Z"/>
        <path d="M32.06,59.28H28v-1h4.08Zm0,1.91H28v-1h4.08Z"/>
        <g>
          <path d="M36.54,62.39h-1l-.42-.85-.43.85h-.85l.85-1.47-.86-1.52h1l.41.82.4-.82h.85l-.83,1.42Z"/>
          <path d="M39,62.39H36.74v-.08c.09-.12.18-.26.29-.42l.4-.63.22-.35c.06-.12.12-.23.17-.34a1.9,1.9,0,0,0,.12-.36,1.75,1.75,0,0,0,.05-.4.75.75,0,0,0-.12-.45.36.36,0,0,0-.31-.18c-.24,0-.48.17-.72.52v-1l.2-.18.19-.13a1.27,1.27,0,0,1,.26-.11,1,1,0,0,1,.31,0,.87.87,0,0,1,.5.15,1,1,0,0,1,.35.44,1.53,1.53,0,0,1,.13.66,2.1,2.1,0,0,1-.06.51,3.49,3.49,0,0,1-.12.38l-.16.35c-.13.25-.26.49-.4.72h1Z"/>
        </g>
        <g>
          <path d="M23.6,58.27,22,62.44H21.4L23,58.27Z"/>
          <path d="M26.11,62.39H23.85v-.08l.28-.42.41-.63c.08-.12.15-.24.21-.35a2.15,2.15,0,0,0,.17-.34,1.9,1.9,0,0,0,.12-.36,1.33,1.33,0,0,0,.05-.4.83.83,0,0,0-.11-.45.37.37,0,0,0-.31-.18c-.24,0-.49.17-.73.52v-1l.21-.18.19-.13.25-.11a1.13,1.13,0,0,1,.32,0,.89.89,0,0,1,.5.15,1,1,0,0,1,.35.44,1.69,1.69,0,0,1,.13.66,2.1,2.1,0,0,1-.06.51,3.49,3.49,0,0,1-.12.38l-.17.35q-.18.38-.39.72h1Z"/>
        </g>
        <path d="M48.89,68.49h-.36v.88h-.79v-.88H46.53v-.77l1.37-2.41h.63V67.8h.36Zm-1.15-.69V66.49L47,67.8Z"/>
        <path d="M13.06,68.49h-.35v.88h-.8v-.88H10.7v-.77l1.37-2.41h.64V67.8h.35Zm-1.15-.69V66.49l-.74,1.31Z"/>
        <path d="M52.74,74.13a1.8,1.8,0,0,1-.12.66,1.18,1.18,0,0,1-.36.49,1,1,0,0,1-.59.18,1.3,1.3,0,0,1-.52-.1,1.36,1.36,0,0,1-.47-.29v-.88a1.64,1.64,0,0,0,.39.29,1,1,0,0,0,.44.14.3.3,0,0,0,.3-.16.62.62,0,0,0,.09-.32.58.58,0,0,0,0-.26.38.38,0,0,0-.18-.2.54.54,0,0,0-.33-.08,1,1,0,0,0-.46.11V71.35h1.73v.85H51.55v.7h.19a.85.85,0,0,1,.52.17,1.18,1.18,0,0,1,.36.46A1.59,1.59,0,0,1,52.74,74.13Z"/>
        <path d="M9.18,74.13a1.8,1.8,0,0,1-.12.66,1.18,1.18,0,0,1-.36.49.93.93,0,0,1-.58.18,1.35,1.35,0,0,1-.53-.1,1.32,1.32,0,0,1-.46-.29v-.88a1.79,1.79,0,0,0,.38.29,1,1,0,0,0,.44.14.32.32,0,0,0,.31-.16.62.62,0,0,0,.09-.32.58.58,0,0,0-.06-.26.41.41,0,0,0-.17-.2.59.59,0,0,0-.34-.08.88.88,0,0,0-.45.11V71.35H9.06v.85H8v.7h.19a.88.88,0,0,1,.53.17,1.15,1.15,0,0,1,.35.46A1.59,1.59,0,0,1,9.18,74.13Z"/>
        <path d="M6.93,79.41a1.61,1.61,0,0,1-.09.54,1.47,1.47,0,0,1-.23.47,1.13,1.13,0,0,1-.36.33,1.09,1.09,0,0,1-.48.11,1,1,0,0,1-.64-.22,1.38,1.38,0,0,1-.4-.59,2.3,2.3,0,0,1-.14-.79,2.72,2.72,0,0,1,.09-.69,3.77,3.77,0,0,1,.24-.69,4.06,4.06,0,0,1,.38-.63,4.19,4.19,0,0,1,.48-.56l.74.33-.31.37L6,77.74a3.59,3.59,0,0,0-.21.38.6.6,0,0,1,.2,0,.79.79,0,0,1,.48.16,1.06,1.06,0,0,1,.35.47A1.67,1.67,0,0,1,6.93,79.41Zm-.78,0A.63.63,0,0,0,6,79a.37.37,0,0,0-.28-.14.33.33,0,0,0-.3.18.81.81,0,0,0-.09.37.72.72,0,0,0,.11.4.31.31,0,0,0,.27.16A.32.32,0,0,0,6,79.86a.54.54,0,0,0,.13-.22A.77.77,0,0,0,6.15,79.39Z"/>
        <path d="M6.38,83.48l-1.27,4-.7-.3.92-2.91H4.12v-.9H6.38Z"/>
        <path d="M6.31,92.24a1.39,1.39,0,0,1,0,.32,1.24,1.24,0,0,1-.16.38,1.1,1.1,0,0,1-.36.31,1.21,1.21,0,0,1-.6.13,1.34,1.34,0,0,1-.6-.12,1.12,1.12,0,0,1-.36-.32A1.07,1.07,0,0,1,4,92.57a1.35,1.35,0,0,1,0-.33,1.27,1.27,0,0,1,.13-.58.94.94,0,0,1,.35-.43,1.17,1.17,0,0,1-.28-.35,1.15,1.15,0,0,1-.1-.52A1.29,1.29,0,0,1,4.14,90a1.27,1.27,0,0,1,.17-.38,1.15,1.15,0,0,1,.33-.29,1.12,1.12,0,0,1,.5-.11,1.07,1.07,0,0,1,.51.11.94.94,0,0,1,.33.29,1.2,1.2,0,0,1,.18.38,1.64,1.64,0,0,1,0,.37,1.23,1.23,0,0,1-.1.52,1,1,0,0,1-.28.35,1,1,0,0,1,.25.26,1.27,1.27,0,0,1,.17.35A1.34,1.34,0,0,1,6.31,92.24Zm-.77-.11a.84.84,0,0,0-.06-.33.53.53,0,0,0-.15-.2.3.3,0,0,0-.19-.07.33.33,0,0,0-.27.16.72.72,0,0,0-.12.44.71.71,0,0,0,.12.45.35.35,0,0,0,.28.15.33.33,0,0,0,.27-.16A.74.74,0,0,0,5.54,92.13Zm-.09-1.69a.94.94,0,0,0-.07-.37.23.23,0,0,0-.23-.17.24.24,0,0,0-.24.17.87.87,0,0,0-.08.37.75.75,0,0,0,.1.39.25.25,0,0,0,.21.15.27.27,0,0,0,.22-.15A.75.75,0,0,0,5.45,90.44Z"/>
        <g>
          <path d="M51.76,98.82h-.82V94.76h.82Z"/>
          <path d="M54.89,98.82H52.62v-.08c.09-.11.18-.25.29-.41s.24-.37.4-.64l.22-.35c.06-.11.12-.22.17-.33a1.9,1.9,0,0,0,.12-.36,1.83,1.83,0,0,0,0-.4.81.81,0,0,0-.12-.46.34.34,0,0,0-.3-.17c-.25,0-.49.17-.73.51v-1l.21-.17a1.41,1.41,0,0,1,.18-.14,1.56,1.56,0,0,1,.26-.11,1,1,0,0,1,.31,0,.87.87,0,0,1,.5.15.94.94,0,0,1,.35.43,1.57,1.57,0,0,1,.13.67,2,2,0,0,1-.06.5,2.48,2.48,0,0,1-.12.38l-.16.36c-.13.25-.26.48-.4.71h1Z"/>
        </g>
        <g>
          <path d="M6.19,98.82H5.37V94.76h.82Z"/>
          <path d="M9.35,97.42a1.91,1.91,0,0,1-.08.54,1.47,1.47,0,0,1-.23.47,1.28,1.28,0,0,1-.37.33.93.93,0,0,1-.47.11,1,1,0,0,1-.64-.22,1.4,1.4,0,0,1-.41-.59A2.3,2.3,0,0,1,7,97.27a3.25,3.25,0,0,1,.08-.69,3.83,3.83,0,0,1,.25-.69,4,4,0,0,1,.37-.63,4.27,4.27,0,0,1,.49-.56L9,95l-.31.37-.25.35c-.07.13-.14.25-.2.38a.54.54,0,0,1,.19,0,.8.8,0,0,1,.49.16,1.23,1.23,0,0,1,.35.47A1.67,1.67,0,0,1,9.35,97.42Zm-.77,0A.57.57,0,0,0,8.46,97a.36.36,0,0,0-.27-.14.31.31,0,0,0-.3.18.82.82,0,0,0-.1.37.72.72,0,0,0,.11.4.33.33,0,0,0,.28.16.29.29,0,0,0,.22-.09.54.54,0,0,0,.13-.22A.79.79,0,0,0,8.58,97.4Z"/>
        </g>
        <g>
          <path d="M47.93,105H47l-.42-.85-.42.85h-.85l.85-1.47L45.26,102h1l.41.81L47,102h.85l-.83,1.42Z"/>
          <path d="M49.45,105h-.82v-4.06h.82Z"/>
          <path d="M52.61,103.57a2,2,0,0,1-.08.55,1.61,1.61,0,0,1-.24.47,1.22,1.22,0,0,1-.36.32.94.94,0,0,1-.47.12,1,1,0,0,1-.65-.23,1.27,1.27,0,0,1-.4-.59,2.26,2.26,0,0,1-.13-.79,2.71,2.71,0,0,1,.08-.69,4.23,4.23,0,0,1,.24-.68,4.5,4.5,0,0,1,.38-.64,4.18,4.18,0,0,1,.49-.56l.73.33-.3.38c-.09.11-.17.23-.25.35a2.71,2.71,0,0,0-.21.37.6.6,0,0,1,.2,0,.81.81,0,0,1,.49.17,1.12,1.12,0,0,1,.35.46A1.84,1.84,0,0,1,52.61,103.57Zm-.78,0a.67.67,0,0,0-.11-.41.35.35,0,0,0-.27-.13.32.32,0,0,0-.3.17.74.74,0,0,0-.1.37.72.72,0,0,0,.11.4.34.34,0,0,0,.27.17.3.3,0,0,0,.23-.09.61.61,0,0,0,.13-.22A.78.78,0,0,0,51.83,103.55Z"/>
        </g>
        <g>
          <path d="M9.21,100.86,7.59,105H7l1.62-4.17Z"/>
          <path d="M11.32,103.85a1.45,1.45,0,0,1-.09.54,1.14,1.14,0,0,1-.25.37,1,1,0,0,1-.32.21,1,1,0,0,1-.33.06,1.61,1.61,0,0,1-.5-.09,2.19,2.19,0,0,1-.46-.2v-.92a1.5,1.5,0,0,0,.33.29.6.6,0,0,0,.36.12.42.42,0,0,0,.23-.07.52.52,0,0,0,.15-.18.59.59,0,0,0,.05-.23.6.6,0,0,0-.07-.27.47.47,0,0,0-.17-.2.56.56,0,0,0-.26-.07h-.1v-.65H10a.39.39,0,0,0,.25-.08.43.43,0,0,0,.14-.19.54.54,0,0,0,0-.21.52.52,0,0,0-.11-.32.31.31,0,0,0-.27-.14.73.73,0,0,0-.31.07,1.17,1.17,0,0,0-.3.21v-.78a2.05,2.05,0,0,1,.4-.19,1.09,1.09,0,0,1,.42-.07.87.87,0,0,1,.56.18,1.18,1.18,0,0,1,.34.43,1.47,1.47,0,0,1,.1.48,1.13,1.13,0,0,1-.06.36,1.35,1.35,0,0,1-.15.32.72.72,0,0,1-.2.22,1.12,1.12,0,0,1,.46,1Z"/>
          <path d="M13.9,105H11.64v-.08l.28-.42.41-.63c.08-.12.15-.24.21-.35a2.15,2.15,0,0,0,.17-.34,3,3,0,0,0,.13-.36,1.75,1.75,0,0,0,0-.4.83.83,0,0,0-.11-.45.37.37,0,0,0-.31-.18c-.24,0-.49.17-.73.52v-1l.21-.18.19-.13a1,1,0,0,1,.25-.11,1.13,1.13,0,0,1,.32,0,.89.89,0,0,1,.5.15,1,1,0,0,1,.35.44,1.69,1.69,0,0,1,.13.66,2.1,2.1,0,0,1-.06.51,3.49,3.49,0,0,1-.12.38l-.17.35a6.85,6.85,0,0,1-.39.71h1Z"/>
        </g>
        <path d="M43.36,64a1.45,1.45,0,0,1-.09.54,1,1,0,0,1-.25.37.91.91,0,0,1-.32.2,1,1,0,0,1-.33.07,1.66,1.66,0,0,1-.5-.09,1.89,1.89,0,0,1-.45-.21v-.91a1.75,1.75,0,0,0,.32.29.72.72,0,0,0,.36.11.4.4,0,0,0,.24-.07.39.39,0,0,0,.14-.17.64.64,0,0,0,.05-.23.61.61,0,0,0-.06-.28.47.47,0,0,0-.18-.19.44.44,0,0,0-.26-.07h-.1v-.65h.12a.36.36,0,0,0,.24-.08.53.53,0,0,0,.15-.19.86.86,0,0,0,0-.21.57.57,0,0,0-.11-.33.33.33,0,0,0-.27-.14.75.75,0,0,0-.31.08,1.37,1.37,0,0,0-.29.2v-.78a2.2,2.2,0,0,1,.39-.18,1.16,1.16,0,0,1,.42-.07.9.9,0,0,1,.57.18,1,1,0,0,1,.33.43,1.24,1.24,0,0,1,.1.47,1.19,1.19,0,0,1-.06.37,1.35,1.35,0,0,1-.15.32,1.08,1.08,0,0,1-.19.22,1,1,0,0,1,.31.36A1.15,1.15,0,0,1,43.36,64Z"/>
        <path d="M19.25,64a1.45,1.45,0,0,1-.09.54,1.27,1.27,0,0,1-.25.37,1,1,0,0,1-.32.2,1,1,0,0,1-.33.07,1.61,1.61,0,0,1-.5-.09,2.19,2.19,0,0,1-.46-.21v-.91a1.81,1.81,0,0,0,.33.29.66.66,0,0,0,.36.11.35.35,0,0,0,.23-.07.41.41,0,0,0,.15-.17.64.64,0,0,0,.05-.23.61.61,0,0,0-.07-.28.44.44,0,0,0-.17-.19.46.46,0,0,0-.26-.07h-.1v-.65h.11a.39.39,0,0,0,.25-.08.49.49,0,0,0,.14-.19.58.58,0,0,0,.05-.21.57.57,0,0,0-.11-.33.33.33,0,0,0-.27-.14.75.75,0,0,0-.31.08,1.43,1.43,0,0,0-.3.2v-.78a2,2,0,0,1,.4-.18A1.09,1.09,0,0,1,18.2,61a.87.87,0,0,1,.56.18,1,1,0,0,1,.33.43,1.27,1.27,0,0,1,.11.47,1.19,1.19,0,0,1-.06.37,1.35,1.35,0,0,1-.15.32.86.86,0,0,1-.2.22,1,1,0,0,1,.32.36A1.24,1.24,0,0,1,19.25,64Z"/>
      </g>
      <g>
        <path d="M42.42,100.79l1.23,1.59a22.57,22.57,0,0,0,3.14-3l-1.6-1.22A21.18,21.18,0,0,1,42.42,100.79Z"/>
        <path d="M38.5,103.21l.78,1.87a22.28,22.28,0,0,0,3.8-2.26c-.31-.37-.72-.89-1.26-1.59A20.5,20.5,0,0,1,38.5,103.21Z"/>
        <path d="M14.63,98.12,13,99.34a22.1,22.1,0,0,0,3.15,3c.32-.42.74-1,1.23-1.59A20.59,20.59,0,0,1,14.63,98.12Z"/>
        <path d="M18,101.23c-.54.7-.95,1.21-1.26,1.58a22.07,22.07,0,0,0,3.8,2.27l.78-1.87A20.94,20.94,0,0,1,18,101.23Z"/>
        <path d="M46.42,96.53,48,97.75a22.17,22.17,0,0,0,1.89-3.23L48,93.75A20.72,20.72,0,0,1,46.42,96.53Z"/>
        <path d="M10.17,88.8l-2,.26a21.81,21.81,0,0,0,1,3.61L11,91.9A18.89,18.89,0,0,1,10.17,88.8Z"/>
        <path d="M11.79,93.75l-1.88.77a22.12,22.12,0,0,0,1.88,3.23l1.6-1.22A19.64,19.64,0,0,1,11.79,93.75Z"/>
        <path d="M9.83,85.21c0-.54,0-1.08.08-1.61l-2-.26c-.05.62-.09,1.24-.09,1.87s0,1.25.09,1.87l2-.27C9.87,86.28,9.83,85.75,9.83,85.21Z"/>
        <path d="M11,78.52l-1.88-.78a21.67,21.67,0,0,0-1,3.62l2,.26A19.94,19.94,0,0,1,11,78.52Z"/>
        <path d="M16.91,70l-1.23-1.59A21.4,21.4,0,0,0,13,71.08l1.61,1.22A20.36,20.36,0,0,1,16.91,70Z"/>
        <path d="M21.31,67.21l-.78-1.87a21,21,0,0,0-3.25,1.88l1.23,1.59A19.31,19.31,0,0,1,21.31,67.21Z"/>
        <path d="M13.39,73.88l-1.6-1.22A21.7,21.7,0,0,0,9.91,75.9l1.88.77A19.75,19.75,0,0,1,13.39,73.88Z"/>
        <path d="M49.65,88.8a20.27,20.27,0,0,1-.85,3.1l1.88.77a21.84,21.84,0,0,0,1-3.61Z"/>
        <path d="M48,76.67l1.88-.77A21.76,21.76,0,0,0,48,72.66l-1.6,1.22A20.84,20.84,0,0,1,48,76.67Z"/>
        <path d="M50,85.21c0,.54,0,1.07-.08,1.6l2,.27c0-.62.08-1.24.08-1.87s0-1.25-.08-1.87l-2,.26C50,84.13,50,84.67,50,85.21Z"/>
        <path d="M36.64,66.44l.78-1.87a22,22,0,0,0-3.63-1l-.27,2A19.88,19.88,0,0,1,36.64,66.44Z"/>
        <path d="M29.91,65.26c.54,0,1.08,0,1.62.08l.26-2c-.62-.06-1.25-.09-1.88-.09s-1.26,0-1.89.09l.27,2C28.82,65.3,29.36,65.26,29.91,65.26Z"/>
        <path d="M41.31,68.81l1.23-1.59a21.54,21.54,0,0,0-3.26-1.88l-.78,1.87A20,20,0,0,1,41.31,68.81Z"/>
        <path d="M45.19,72.3l1.6-1.22a21.4,21.4,0,0,0-2.66-2.64L42.9,70A19.63,19.63,0,0,1,45.19,72.3Z"/>
        <path d="M49.65,81.62l2-.26a21.69,21.69,0,0,0-1-3.62l-1.88.78A20,20,0,0,1,49.65,81.62Z"/>
        <path d="M26.29,65.6l-.26-2a22.13,22.13,0,0,0-3.64,1l.78,1.87A20.49,20.49,0,0,1,26.29,65.6Z"/>
      </g>
    </g>
    <g>
      <g>
        <path d="M55.1,217.65a1.91,1.91,0,0,1-.08.54,1.49,1.49,0,0,1-.24.47,1.13,1.13,0,0,1-.36.33,1,1,0,0,1-.47.11,1,1,0,0,1-.65-.22,1.47,1.47,0,0,1-.4-.59,2.3,2.3,0,0,1-.13-.79,2.71,2.71,0,0,1,.08-.69,4.72,4.72,0,0,1,.24-.69,5,5,0,0,1,.38-.63,3.64,3.64,0,0,1,.49-.56l.73.33c-.11.14-.22.26-.3.37l-.25.35c-.08.12-.14.25-.21.38a.6.6,0,0,1,.2,0,.8.8,0,0,1,.49.16A1.23,1.23,0,0,1,55,217,1.84,1.84,0,0,1,55.1,217.65Zm-.78,0a.58.58,0,0,0-.11-.41.36.36,0,0,0-.27-.14.31.31,0,0,0-.3.18.71.71,0,0,0-.1.37.72.72,0,0,0,.11.4.33.33,0,0,0,.27.16.3.3,0,0,0,.23-.09.54.54,0,0,0,.13-.22A.77.77,0,0,0,54.32,217.63Z"/>
        <path d="M56.17,221.72l-1.27,4-.69-.3.91-2.91H53.91v-.9h2.26Z"/>
        <path d="M55.61,230.48a1.39,1.39,0,0,1,0,.32,1.24,1.24,0,0,1-.16.38,1.25,1.25,0,0,1-.36.32,1.56,1.56,0,0,1-1.2,0,1.12,1.12,0,0,1-.36-.32,1.07,1.07,0,0,1-.16-.37,1.35,1.35,0,0,1,0-.33,1.27,1.27,0,0,1,.13-.58,1,1,0,0,1,.35-.43,1.17,1.17,0,0,1-.28-.35,1.12,1.12,0,0,1-.1-.52,1.29,1.29,0,0,1,.06-.37,1.27,1.27,0,0,1,.17-.38,1.15,1.15,0,0,1,.33-.29,1.12,1.12,0,0,1,.5-.11,1.07,1.07,0,0,1,.51.11.94.94,0,0,1,.33.29,1.2,1.2,0,0,1,.18.38,1.64,1.64,0,0,1,0,.37,1.23,1.23,0,0,1-.1.52,1,1,0,0,1-.28.35,1.23,1.23,0,0,1,.25.26,1.25,1.25,0,0,1,.16.35A1.09,1.09,0,0,1,55.61,230.48Zm-.77-.11a.84.84,0,0,0-.06-.33.53.53,0,0,0-.15-.2.3.3,0,0,0-.19-.07.33.33,0,0,0-.27.16.72.72,0,0,0-.12.44.71.71,0,0,0,.12.45.35.35,0,0,0,.28.15.33.33,0,0,0,.27-.16A.74.74,0,0,0,54.84,230.37Zm-.09-1.69a.94.94,0,0,0-.07-.37.23.23,0,0,0-.23-.17.25.25,0,0,0-.24.17.91.91,0,0,0-.08.37.75.75,0,0,0,.1.39.25.25,0,0,0,.21.15.27.27,0,0,0,.22-.15A.75.75,0,0,0,54.75,228.68Z"/>
        <path d="M32.06,197.52H28v-1h4.08Zm0,1.91H28v-1h4.08Z"/>
        <g>
          <path d="M36.54,200.63h-1l-.42-.85-.43.85h-.85l.85-1.47-.86-1.52h1l.41.82.4-.82h.85l-.83,1.42Z"/>
          <path d="M39,200.63H36.74v-.08c.09-.12.18-.26.29-.42l.4-.63.22-.35.17-.34a1.9,1.9,0,0,0,.12-.36,1.75,1.75,0,0,0,.05-.4.81.81,0,0,0-.12-.46.37.37,0,0,0-.31-.17c-.24,0-.48.17-.72.52v-1l.2-.18.19-.13a1.27,1.27,0,0,1,.26-.11,1,1,0,0,1,.31-.05.87.87,0,0,1,.5.15,1,1,0,0,1,.35.44,1.53,1.53,0,0,1,.13.66,2.1,2.1,0,0,1-.06.51,3.49,3.49,0,0,1-.12.38l-.16.35c-.13.25-.26.49-.4.72h1Z"/>
        </g>
        <g>
          <path d="M23.6,196.51,22,200.68H21.4L23,196.51Z"/>
          <path d="M26.11,200.63H23.85v-.08l.28-.42.41-.63c.08-.12.15-.24.21-.35a2.15,2.15,0,0,0,.17-.34,1.9,1.9,0,0,0,.12-.36,1.33,1.33,0,0,0,.05-.4.89.89,0,0,0-.11-.46.38.38,0,0,0-.31-.17c-.24,0-.49.17-.73.52v-1l.21-.18.19-.13.25-.11a1.13,1.13,0,0,1,.32-.05.89.89,0,0,1,.5.15,1,1,0,0,1,.35.44,1.69,1.69,0,0,1,.13.66,2.1,2.1,0,0,1-.06.51,3.49,3.49,0,0,1-.12.38l-.17.35q-.18.38-.39.72h1Z"/>
        </g>
        <path d="M48.89,206.73h-.36v.88h-.79v-.88H46.53V206l1.37-2.41h.63V206h.36Zm-1.15-.7v-1.3L47,206Z"/>
        <path d="M13.06,206.73h-.35v.88h-.8v-.88H10.7V206l1.37-2.41h.64V206h.35Zm-1.15-.7v-1.3l-.74,1.3Z"/>
        <path d="M52.74,212.37a1.8,1.8,0,0,1-.12.66,1.09,1.09,0,0,1-.36.48.91.91,0,0,1-.59.19,1.3,1.3,0,0,1-.52-.1,1.36,1.36,0,0,1-.47-.29v-.88a1.64,1.64,0,0,0,.39.29,1,1,0,0,0,.44.14.3.3,0,0,0,.3-.16.62.62,0,0,0,.09-.32.58.58,0,0,0,0-.26.38.38,0,0,0-.18-.2.54.54,0,0,0-.33-.08,1,1,0,0,0-.46.11v-2.36h1.73v.85H51.55v.7h.19a.85.85,0,0,1,.52.17,1.18,1.18,0,0,1,.36.46A1.59,1.59,0,0,1,52.74,212.37Z"/>
        <path d="M9.18,212.37a1.8,1.8,0,0,1-.12.66,1.09,1.09,0,0,1-.36.48.88.88,0,0,1-.58.19,1.35,1.35,0,0,1-.53-.1,1.32,1.32,0,0,1-.46-.29v-.88a1.79,1.79,0,0,0,.38.29,1,1,0,0,0,.44.14.32.32,0,0,0,.31-.16.62.62,0,0,0,.09-.32.58.58,0,0,0-.06-.26.41.41,0,0,0-.17-.2.59.59,0,0,0-.34-.08.88.88,0,0,0-.45.11v-2.36H9.06v.85H8v.7h.19a.88.88,0,0,1,.53.17,1.15,1.15,0,0,1,.35.46A1.59,1.59,0,0,1,9.18,212.37Z"/>
        <path d="M6.93,217.65a1.61,1.61,0,0,1-.09.54,1.47,1.47,0,0,1-.23.47,1.13,1.13,0,0,1-.36.33,1.09,1.09,0,0,1-.48.11,1,1,0,0,1-.64-.22,1.38,1.38,0,0,1-.4-.59,2.3,2.3,0,0,1-.14-.79,2.72,2.72,0,0,1,.09-.69,3.77,3.77,0,0,1,.24-.69,4.06,4.06,0,0,1,.38-.63,4.19,4.19,0,0,1,.48-.56l.74.33-.31.37L6,216a2.82,2.82,0,0,0-.21.38.6.6,0,0,1,.2,0,.79.79,0,0,1,.48.16,1.06,1.06,0,0,1,.35.47A1.67,1.67,0,0,1,6.93,217.65Zm-.78,0a.63.63,0,0,0-.11-.41.37.37,0,0,0-.28-.14.33.33,0,0,0-.3.18.81.81,0,0,0-.09.37.72.72,0,0,0,.11.4.31.31,0,0,0,.27.16A.32.32,0,0,0,6,218.1a.54.54,0,0,0,.13-.22A.77.77,0,0,0,6.15,217.63Z"/>
        <path d="M6.38,221.72l-1.27,4-.7-.3.92-2.91H4.12v-.9H6.38Z"/>
        <path d="M6.31,230.48a1.39,1.39,0,0,1,0,.32,1.24,1.24,0,0,1-.16.38,1.25,1.25,0,0,1-.36.32,1.34,1.34,0,0,1-.6.12,1.34,1.34,0,0,1-.6-.12,1.12,1.12,0,0,1-.36-.32,1.07,1.07,0,0,1-.16-.37,1.35,1.35,0,0,1,0-.33,1.27,1.27,0,0,1,.13-.58,1,1,0,0,1,.35-.43,1.17,1.17,0,0,1-.28-.35,1.12,1.12,0,0,1-.1-.52,1.29,1.29,0,0,1,.06-.37,1.27,1.27,0,0,1,.17-.38,1.15,1.15,0,0,1,.33-.29,1.12,1.12,0,0,1,.5-.11,1.07,1.07,0,0,1,.51.11.94.94,0,0,1,.33.29,1.2,1.2,0,0,1,.18.38,1.64,1.64,0,0,1,0,.37,1.23,1.23,0,0,1-.1.52,1,1,0,0,1-.28.35,1.23,1.23,0,0,1,.25.26,1.27,1.27,0,0,1,.17.35A1.34,1.34,0,0,1,6.31,230.48Zm-.77-.11a.84.84,0,0,0-.06-.33.53.53,0,0,0-.15-.2.3.3,0,0,0-.19-.07.33.33,0,0,0-.27.16.72.72,0,0,0-.12.44.71.71,0,0,0,.12.45.35.35,0,0,0,.28.15.33.33,0,0,0,.27-.16A.74.74,0,0,0,5.54,230.37Zm-.09-1.69a.94.94,0,0,0-.07-.37.23.23,0,0,0-.23-.17.25.25,0,0,0-.24.17.91.91,0,0,0-.08.37.75.75,0,0,0,.1.39.25.25,0,0,0,.21.15.27.27,0,0,0,.22-.15A.75.75,0,0,0,5.45,228.68Z"/>
        <g>
          <path d="M51.76,237.06h-.82V233h.82Z"/>
          <path d="M54.89,237.06H52.62V237c.09-.11.18-.25.29-.41s.24-.37.4-.64l.22-.35.17-.33a1.9,1.9,0,0,0,.12-.36,1.83,1.83,0,0,0,0-.4.81.81,0,0,0-.12-.46.34.34,0,0,0-.3-.17c-.25,0-.49.17-.73.51v-1l.21-.18.18-.13a1.56,1.56,0,0,1,.26-.11,1,1,0,0,1,.31-.05.88.88,0,0,1,.5.16.94.94,0,0,1,.35.43,1.54,1.54,0,0,1,.13.67,2,2,0,0,1-.06.5,2.9,2.9,0,0,1-.12.38c0,.1-.09.21-.16.35s-.26.49-.4.72h1Z"/>
        </g>
        <g>
          <path d="M6.19,237.06H5.37V233h.82Z"/>
          <path d="M9.35,235.66a2,2,0,0,1-.08.54,1.47,1.47,0,0,1-.23.47,1.28,1.28,0,0,1-.37.33,1,1,0,0,1-.47.11,1,1,0,0,1-.64-.22,1.4,1.4,0,0,1-.41-.59,2.3,2.3,0,0,1-.13-.79,3.25,3.25,0,0,1,.08-.69,3.83,3.83,0,0,1,.25-.69,4,4,0,0,1,.37-.63,4.27,4.27,0,0,1,.49-.56l.74.33-.31.37-.25.35c-.07.12-.14.25-.2.38a.54.54,0,0,1,.19,0,.8.8,0,0,1,.49.16,1.16,1.16,0,0,1,.35.47A1.67,1.67,0,0,1,9.35,235.66Zm-.77,0a.62.62,0,0,0-.12-.42.39.39,0,0,0-.27-.13.31.31,0,0,0-.3.18.82.82,0,0,0-.1.37.72.72,0,0,0,.11.4.33.33,0,0,0,.28.16.29.29,0,0,0,.22-.09.54.54,0,0,0,.13-.22A.79.79,0,0,0,8.58,235.64Z"/>
        </g>
        <g>
          <path d="M47.93,243.22H47l-.42-.85-.42.85h-.85l.85-1.47-.87-1.52h1l.41.82.41-.82h.85l-.83,1.42Z"/>
          <path d="M49.45,243.22h-.82v-4.06h.82Z"/>
          <path d="M52.61,241.81a2,2,0,0,1-.08.55,1.61,1.61,0,0,1-.24.47,1.1,1.1,0,0,1-.36.32.94.94,0,0,1-.47.12,1,1,0,0,1-.65-.23,1.27,1.27,0,0,1-.4-.59,2.26,2.26,0,0,1-.13-.79,2.71,2.71,0,0,1,.08-.69,4.23,4.23,0,0,1,.24-.68,3.9,3.9,0,0,1,.38-.63,3.7,3.7,0,0,1,.49-.57l.73.34c-.11.13-.22.26-.3.37s-.17.23-.25.35a2.71,2.71,0,0,0-.21.37.6.6,0,0,1,.2,0,.81.81,0,0,1,.49.17,1.12,1.12,0,0,1,.35.46A1.84,1.84,0,0,1,52.61,241.81Zm-.78,0a.68.68,0,0,0-.11-.42.35.35,0,0,0-.27-.13.31.31,0,0,0-.3.18.69.69,0,0,0-.1.37.71.71,0,0,0,.11.39.34.34,0,0,0,.27.17.3.3,0,0,0,.23-.09.61.61,0,0,0,.13-.22A.77.77,0,0,0,51.83,241.8Z"/>
        </g>
        <g>
          <path d="M9.21,239.1l-1.62,4.17H7l1.62-4.17Z"/>
          <path d="M11.32,242.09a1.45,1.45,0,0,1-.09.54A1.14,1.14,0,0,1,11,243a1,1,0,0,1-.32.21,1,1,0,0,1-.33.06,1.61,1.61,0,0,1-.5-.09,1.77,1.77,0,0,1-.46-.2v-.92a1.5,1.5,0,0,0,.33.29.6.6,0,0,0,.36.12.42.42,0,0,0,.23-.07.52.52,0,0,0,.15-.18.59.59,0,0,0,.05-.23.6.6,0,0,0-.07-.27.47.47,0,0,0-.17-.2.56.56,0,0,0-.26-.07h-.1v-.65H10a.39.39,0,0,0,.25-.08.43.43,0,0,0,.14-.19.54.54,0,0,0,0-.21.52.52,0,0,0-.11-.32.31.31,0,0,0-.27-.14.73.73,0,0,0-.31.07,1.17,1.17,0,0,0-.3.21v-.78a2.87,2.87,0,0,1,.4-.19,1.09,1.09,0,0,1,.42-.07.87.87,0,0,1,.56.18,1.18,1.18,0,0,1,.34.43,1.47,1.47,0,0,1,.1.48,1.13,1.13,0,0,1-.06.36,1.35,1.35,0,0,1-.15.32.72.72,0,0,1-.2.22,1.12,1.12,0,0,1,.46,1Z"/>
          <path d="M13.9,243.22H11.64v-.08l.28-.42.41-.63c.08-.12.15-.24.21-.35a2.15,2.15,0,0,0,.17-.34,3,3,0,0,0,.13-.36,1.75,1.75,0,0,0,0-.4.89.89,0,0,0-.11-.46.38.38,0,0,0-.31-.17c-.24,0-.49.17-.73.52v-1l.21-.18.19-.13.25-.11a1.13,1.13,0,0,1,.32-.05.89.89,0,0,1,.5.15,1,1,0,0,1,.35.44,1.69,1.69,0,0,1,.13.66,2.1,2.1,0,0,1-.06.51,3.49,3.49,0,0,1-.12.38l-.17.35a6.85,6.85,0,0,1-.39.71h1Z"/>
        </g>
        <path d="M43.36,202.21a1.45,1.45,0,0,1-.09.54,1,1,0,0,1-.25.37.91.91,0,0,1-.32.2,1,1,0,0,1-.33.07,1.66,1.66,0,0,1-.5-.09,1.89,1.89,0,0,1-.45-.21v-.91a1.45,1.45,0,0,0,.32.29.63.63,0,0,0,.36.11.4.4,0,0,0,.24-.07.39.39,0,0,0,.14-.17.62.62,0,0,0,0-.51.47.47,0,0,0-.18-.19.44.44,0,0,0-.26-.07h-.1v-.65h.12a.36.36,0,0,0,.24-.08.53.53,0,0,0,.15-.19.78.78,0,0,0,0-.21.57.57,0,0,0-.11-.33.33.33,0,0,0-.27-.14.75.75,0,0,0-.31.08,1.37,1.37,0,0,0-.29.2v-.78a2.2,2.2,0,0,1,.39-.18,1.16,1.16,0,0,1,.42-.07.9.9,0,0,1,.57.18,1,1,0,0,1,.33.43,1.24,1.24,0,0,1,.1.47,1.15,1.15,0,0,1-.06.37,1.35,1.35,0,0,1-.15.32,1.08,1.08,0,0,1-.19.22,1.11,1.11,0,0,1,.31.36A1.15,1.15,0,0,1,43.36,202.21Z"/>
        <path d="M19.25,202.21a1.45,1.45,0,0,1-.09.54,1.27,1.27,0,0,1-.25.37,1,1,0,0,1-.32.2,1,1,0,0,1-.33.07,1.61,1.61,0,0,1-.5-.09,2.19,2.19,0,0,1-.46-.21v-.91a1.5,1.5,0,0,0,.33.29.59.59,0,0,0,.36.11.35.35,0,0,0,.23-.07.41.41,0,0,0,.15-.17.64.64,0,0,0,.05-.23.64.64,0,0,0-.07-.28.44.44,0,0,0-.17-.19.46.46,0,0,0-.26-.07h-.1v-.65h.11a.39.39,0,0,0,.25-.08.49.49,0,0,0,.14-.19.54.54,0,0,0,.05-.21.57.57,0,0,0-.11-.33A.33.33,0,0,0,18,200a.75.75,0,0,0-.31.08,1.43,1.43,0,0,0-.3.2v-.78a2,2,0,0,1,.4-.18,1.09,1.09,0,0,1,.42-.07.87.87,0,0,1,.56.18,1,1,0,0,1,.33.43,1.27,1.27,0,0,1,.11.47,1.15,1.15,0,0,1-.06.37A1.35,1.35,0,0,1,19,201a.86.86,0,0,1-.2.22,1.13,1.13,0,0,1,.32.36A1.24,1.24,0,0,1,19.25,202.21Z"/>
      </g>
      <g>
        <path d="M42.42,239l1.23,1.59a22.57,22.57,0,0,0,3.14-3l-1.6-1.22A21.18,21.18,0,0,1,42.42,239Z"/>
        <path d="M38.5,241.45l.78,1.87a22.28,22.28,0,0,0,3.8-2.26c-.31-.37-.72-.89-1.26-1.59A20.5,20.5,0,0,1,38.5,241.45Z"/>
        <path d="M14.63,236.36,13,237.58a22.1,22.1,0,0,0,3.15,3c.32-.42.74-1,1.23-1.59A20,20,0,0,1,14.63,236.36Z"/>
        <path d="M18,239.47c-.54.7-.95,1.21-1.26,1.59a22.67,22.67,0,0,0,3.8,2.26l.78-1.87A20.94,20.94,0,0,1,18,239.47Z"/>
        <path d="M46.42,234.77,48,236a21.66,21.66,0,0,0,1.89-3.23L48,232A20.72,20.72,0,0,1,46.42,234.77Z"/>
        <path d="M10.17,227l-2,.26a21.81,21.81,0,0,0,1,3.61l1.88-.77A18.89,18.89,0,0,1,10.17,227Z"/>
        <path d="M11.79,232l-1.88.77A22.12,22.12,0,0,0,11.79,236l1.6-1.22A19.64,19.64,0,0,1,11.79,232Z"/>
        <path d="M9.83,223.45c0-.54,0-1.08.08-1.61l-2-.26c-.05.62-.09,1.24-.09,1.87s0,1.25.09,1.87l2-.26C9.87,224.52,9.83,224,9.83,223.45Z"/>
        <path d="M11,216.76,9.13,216a21.67,21.67,0,0,0-1,3.62l2,.26A19.94,19.94,0,0,1,11,216.76Z"/>
        <path d="M16.91,208.27l-1.23-1.59A21.4,21.4,0,0,0,13,209.32l1.61,1.22A20.36,20.36,0,0,1,16.91,208.27Z"/>
        <path d="M21.31,205.45l-.78-1.87a21.81,21.81,0,0,0-3.25,1.88l1.23,1.59A19.31,19.31,0,0,1,21.31,205.45Z"/>
        <path d="M13.39,212.12l-1.6-1.22a21.7,21.7,0,0,0-1.88,3.24l1.88.77A19.75,19.75,0,0,1,13.39,212.12Z"/>
        <path d="M49.65,227a20.27,20.27,0,0,1-.85,3.1l1.88.77a21.84,21.84,0,0,0,1-3.61Z"/>
        <path d="M48,214.91l1.88-.77A21.76,21.76,0,0,0,48,210.9l-1.6,1.22A20.84,20.84,0,0,1,48,214.91Z"/>
        <path d="M50,223.45c0,.54,0,1.07-.08,1.61l2,.26c0-.62.08-1.24.08-1.87s0-1.25-.08-1.87l-2,.26C50,222.37,50,222.91,50,223.45Z"/>
        <path d="M36.64,204.68l.78-1.87a22,22,0,0,0-3.63-1l-.27,2A19.88,19.88,0,0,1,36.64,204.68Z"/>
        <path d="M29.91,203.5c.54,0,1.08,0,1.62.08l.26-2c-.62-.06-1.25-.09-1.88-.09s-1.26,0-1.89.09l.27,2C28.82,203.54,29.36,203.5,29.91,203.5Z"/>
        <path d="M41.31,207.05l1.23-1.59a22.42,22.42,0,0,0-3.26-1.88l-.78,1.87A20,20,0,0,1,41.31,207.05Z"/>
        <path d="M45.19,210.54l1.6-1.22a21.4,21.4,0,0,0-2.66-2.64l-1.23,1.59A19.63,19.63,0,0,1,45.19,210.54Z"/>
        <path d="M49.65,219.86l2-.26a21.69,21.69,0,0,0-1-3.62l-1.88.78A20,20,0,0,1,49.65,219.86Z"/>
        <path d="M26.29,203.84l-.26-2a22.13,22.13,0,0,0-3.64,1l.78,1.87A20.49,20.49,0,0,1,26.29,203.84Z"/>
      </g>
    </g>
    <g>
      <g>
        <path d="M55.1,286.77a1.91,1.91,0,0,1-.08.54,1.49,1.49,0,0,1-.24.47,1.13,1.13,0,0,1-.36.33,1,1,0,0,1-.47.11,1,1,0,0,1-.65-.22,1.47,1.47,0,0,1-.4-.59,2.3,2.3,0,0,1-.13-.79,2.71,2.71,0,0,1,.08-.69,4.72,4.72,0,0,1,.24-.69,5,5,0,0,1,.38-.63,3.64,3.64,0,0,1,.49-.56l.73.33c-.11.14-.22.26-.3.37l-.25.35c-.08.12-.14.25-.21.38a.6.6,0,0,1,.2,0,.8.8,0,0,1,.49.16,1.23,1.23,0,0,1,.35.47A1.84,1.84,0,0,1,55.1,286.77Zm-.78,0a.59.59,0,0,0-.11-.41.36.36,0,0,0-.27-.14.31.31,0,0,0-.3.18.71.71,0,0,0-.1.37.72.72,0,0,0,.11.4.33.33,0,0,0,.27.16.3.3,0,0,0,.23-.09.54.54,0,0,0,.13-.22A.77.77,0,0,0,54.32,286.75Z"/>
        <path d="M56.17,290.84l-1.27,4-.69-.3.91-2.91H53.91v-.9h2.26Z"/>
        <path d="M55.61,299.6a1.56,1.56,0,0,1,0,.33,1.3,1.3,0,0,1-.16.37,1.25,1.25,0,0,1-.36.32,1.56,1.56,0,0,1-1.2,0,1.12,1.12,0,0,1-.36-.32,1.07,1.07,0,0,1-.16-.37,1.35,1.35,0,0,1,0-.33,1.27,1.27,0,0,1,.13-.58,1,1,0,0,1,.35-.43,1.17,1.17,0,0,1-.28-.35,1.12,1.12,0,0,1-.1-.52,1.29,1.29,0,0,1,.06-.37,1.27,1.27,0,0,1,.17-.38,1.15,1.15,0,0,1,.33-.29,1.12,1.12,0,0,1,.5-.11,1.07,1.07,0,0,1,.51.11.94.94,0,0,1,.33.29,1.2,1.2,0,0,1,.18.38,1.64,1.64,0,0,1,0,.37,1.23,1.23,0,0,1-.1.52,1,1,0,0,1-.28.35,1.23,1.23,0,0,1,.25.26,1.25,1.25,0,0,1,.16.35A1.09,1.09,0,0,1,55.61,299.6Zm-.77-.11a.84.84,0,0,0-.06-.33.53.53,0,0,0-.15-.2.3.3,0,0,0-.19-.07.33.33,0,0,0-.27.16.72.72,0,0,0-.12.44.71.71,0,0,0,.12.45.35.35,0,0,0,.28.15.33.33,0,0,0,.27-.16A.74.74,0,0,0,54.84,299.49Zm-.09-1.69a1,1,0,0,0-.07-.37.23.23,0,0,0-.23-.17.25.25,0,0,0-.24.17.91.91,0,0,0-.08.37.75.75,0,0,0,.1.39.25.25,0,0,0,.21.15.27.27,0,0,0,.22-.15A.75.75,0,0,0,54.75,297.8Z"/>
        <path d="M32.06,266.64H28v-1h4.08Zm0,1.91H28v-1h4.08Z"/>
        <g>
          <path d="M36.54,269.75h-1l-.42-.85-.43.85h-.85l.85-1.47-.86-1.52h1l.41.82.4-.82h.85l-.83,1.42Z"/>
          <path d="M39,269.75H36.74v-.08c.09-.12.18-.26.29-.42l.4-.63.22-.35c.06-.12.12-.23.17-.34a1.9,1.9,0,0,0,.12-.36,1.75,1.75,0,0,0,.05-.4.75.75,0,0,0-.12-.45.36.36,0,0,0-.31-.18c-.24,0-.48.17-.72.52v-1l.2-.18.19-.13a1.27,1.27,0,0,1,.26-.11,1,1,0,0,1,.31-.05.87.87,0,0,1,.5.15,1,1,0,0,1,.35.44,1.53,1.53,0,0,1,.13.66,2.1,2.1,0,0,1-.06.51,3.49,3.49,0,0,1-.12.38l-.16.35c-.13.25-.26.49-.4.72h1Z"/>
        </g>
        <g>
          <path d="M23.6,265.63,22,269.8H21.4L23,265.63Z"/>
          <path d="M26.11,269.75H23.85v-.08c.08-.12.18-.26.28-.42l.41-.63c.08-.12.15-.24.21-.35a2.15,2.15,0,0,0,.17-.34,1.9,1.9,0,0,0,.12-.36,1.33,1.33,0,0,0,.05-.4.83.83,0,0,0-.11-.45.37.37,0,0,0-.31-.18c-.24,0-.49.17-.73.52v-1l.21-.18.19-.13.25-.11a1.13,1.13,0,0,1,.32-.05.89.89,0,0,1,.5.15,1,1,0,0,1,.35.44,1.69,1.69,0,0,1,.13.66,2.1,2.1,0,0,1-.06.51,3.49,3.49,0,0,1-.12.38l-.17.35q-.18.38-.39.72h1Z"/>
        </g>
        <path d="M48.89,275.85h-.36v.88h-.79v-.88H46.53v-.77l1.37-2.41h.63v2.48h.36Zm-1.15-.7v-1.3l-.74,1.3Z"/>
        <path d="M13.06,275.85h-.35v.88h-.8v-.88H10.7v-.77l1.37-2.41h.64v2.48h.35Zm-1.15-.7v-1.3l-.74,1.3Z"/>
        <path d="M52.74,281.49a1.8,1.8,0,0,1-.12.66,1.18,1.18,0,0,1-.36.49,1,1,0,0,1-.59.18,1.3,1.3,0,0,1-.52-.1,1.36,1.36,0,0,1-.47-.29v-.88a1.64,1.64,0,0,0,.39.29,1,1,0,0,0,.44.14.3.3,0,0,0,.3-.16.62.62,0,0,0,.09-.32.58.58,0,0,0,0-.26.38.38,0,0,0-.18-.2.54.54,0,0,0-.33-.08,1,1,0,0,0-.46.11v-2.36h1.73v.85H51.55v.7h.19a.85.85,0,0,1,.52.17,1.18,1.18,0,0,1,.36.46A1.59,1.59,0,0,1,52.74,281.49Z"/>
        <path d="M9.18,281.49a1.8,1.8,0,0,1-.12.66,1.18,1.18,0,0,1-.36.49.93.93,0,0,1-.58.18,1.35,1.35,0,0,1-.53-.1,1.32,1.32,0,0,1-.46-.29v-.88a1.79,1.79,0,0,0,.38.29A1,1,0,0,0,8,282a.32.32,0,0,0,.31-.16.62.62,0,0,0,.09-.32.58.58,0,0,0-.06-.26.41.41,0,0,0-.17-.2.59.59,0,0,0-.34-.08.88.88,0,0,0-.45.11v-2.36H9.06v.85H8v.7h.19a.88.88,0,0,1,.53.17,1.15,1.15,0,0,1,.35.46A1.59,1.59,0,0,1,9.18,281.49Z"/>
        <path d="M6.93,286.77a1.61,1.61,0,0,1-.09.54,1.47,1.47,0,0,1-.23.47,1.13,1.13,0,0,1-.36.33,1.09,1.09,0,0,1-.48.11,1,1,0,0,1-.64-.22,1.38,1.38,0,0,1-.4-.59,2.3,2.3,0,0,1-.14-.79,2.72,2.72,0,0,1,.09-.69,3.77,3.77,0,0,1,.24-.69,4.06,4.06,0,0,1,.38-.63,4.19,4.19,0,0,1,.48-.56l.74.33-.31.37L6,285.1a2.82,2.82,0,0,0-.21.38.6.6,0,0,1,.2,0,.79.79,0,0,1,.48.16,1.06,1.06,0,0,1,.35.47A1.67,1.67,0,0,1,6.93,286.77Zm-.78,0a.65.65,0,0,0-.11-.41.37.37,0,0,0-.28-.14.33.33,0,0,0-.3.18.81.81,0,0,0-.09.37.72.72,0,0,0,.11.4.31.31,0,0,0,.27.16.32.32,0,0,0,.23-.09.54.54,0,0,0,.13-.22A.77.77,0,0,0,6.15,286.75Z"/>
        <path d="M6.38,290.84l-1.27,4-.7-.3.92-2.91H4.12v-.9H6.38Z"/>
        <path d="M6.31,299.6a1.56,1.56,0,0,1,0,.33,1.3,1.3,0,0,1-.16.37,1.25,1.25,0,0,1-.36.32,1.34,1.34,0,0,1-.6.12,1.34,1.34,0,0,1-.6-.12,1.12,1.12,0,0,1-.36-.32,1.07,1.07,0,0,1-.16-.37,1.35,1.35,0,0,1,0-.33,1.27,1.27,0,0,1,.13-.58,1,1,0,0,1,.35-.43,1.17,1.17,0,0,1-.28-.35,1.12,1.12,0,0,1-.1-.52,1.29,1.29,0,0,1,.06-.37,1.27,1.27,0,0,1,.17-.38,1.15,1.15,0,0,1,.33-.29,1.12,1.12,0,0,1,.5-.11,1.07,1.07,0,0,1,.51.11A.94.94,0,0,1,6,297a1.2,1.2,0,0,1,.18.38,1.64,1.64,0,0,1,0,.37,1.23,1.23,0,0,1-.1.52,1,1,0,0,1-.28.35,1.23,1.23,0,0,1,.25.26,1.27,1.27,0,0,1,.17.35A1.34,1.34,0,0,1,6.31,299.6Zm-.77-.11a.84.84,0,0,0-.06-.33.53.53,0,0,0-.15-.2.3.3,0,0,0-.19-.07.33.33,0,0,0-.27.16.72.72,0,0,0-.12.44.71.71,0,0,0,.12.45.35.35,0,0,0,.28.15.33.33,0,0,0,.27-.16A.74.74,0,0,0,5.54,299.49Zm-.09-1.69a1,1,0,0,0-.07-.37.23.23,0,0,0-.23-.17.25.25,0,0,0-.24.17.91.91,0,0,0-.08.37.75.75,0,0,0,.1.39.25.25,0,0,0,.21.15.27.27,0,0,0,.22-.15A.75.75,0,0,0,5.45,297.8Z"/>
        <g>
          <path d="M51.76,306.18h-.82v-4.06h.82Z"/>
          <path d="M54.89,306.18H52.62v-.08c.09-.11.18-.25.29-.41s.24-.37.4-.64l.22-.35.17-.33a1.9,1.9,0,0,0,.12-.36,1.83,1.83,0,0,0,0-.4.81.81,0,0,0-.12-.46.34.34,0,0,0-.3-.17c-.25,0-.49.17-.73.51v-1l.21-.18.18-.13a1.56,1.56,0,0,1,.26-.11,1,1,0,0,1,.31-.05.88.88,0,0,1,.5.16.94.94,0,0,1,.35.43,1.54,1.54,0,0,1,.13.67,2,2,0,0,1-.06.5,2.9,2.9,0,0,1-.12.38c0,.1-.09.21-.16.35s-.26.49-.4.72h1Z"/>
        </g>
        <g>
          <path d="M6.19,306.18H5.37v-4.06h.82Z"/>
          <path d="M9.35,304.78a1.91,1.91,0,0,1-.08.54,1.47,1.47,0,0,1-.23.47,1.28,1.28,0,0,1-.37.33,1,1,0,0,1-.47.11,1,1,0,0,1-.64-.22,1.4,1.4,0,0,1-.41-.59,2.3,2.3,0,0,1-.13-.79,3.25,3.25,0,0,1,.08-.69,3.83,3.83,0,0,1,.25-.69,4,4,0,0,1,.37-.63,4.27,4.27,0,0,1,.49-.56l.74.33-.31.37-.25.35c-.07.12-.14.25-.2.38a.54.54,0,0,1,.19,0,.8.8,0,0,1,.49.16,1.23,1.23,0,0,1,.35.47A1.67,1.67,0,0,1,9.35,304.78Zm-.77,0a.62.62,0,0,0-.12-.42.39.39,0,0,0-.27-.13.31.31,0,0,0-.3.18.82.82,0,0,0-.1.37.72.72,0,0,0,.11.4.33.33,0,0,0,.28.16.29.29,0,0,0,.22-.09.54.54,0,0,0,.13-.22A.79.79,0,0,0,8.58,304.76Z"/>
        </g>
        <g>
          <path d="M47.93,312.34H47l-.42-.85-.42.85h-.85l.85-1.47-.87-1.52h1l.41.82.41-.82h.85l-.83,1.42Z"/>
          <path d="M49.45,312.34h-.82v-4.06h.82Z"/>
          <path d="M52.61,310.93a2,2,0,0,1-.08.55,1.61,1.61,0,0,1-.24.47,1.1,1.1,0,0,1-.36.32.94.94,0,0,1-.47.12,1,1,0,0,1-.65-.23,1.27,1.27,0,0,1-.4-.59,2.26,2.26,0,0,1-.13-.79,2.71,2.71,0,0,1,.08-.69,4.23,4.23,0,0,1,.24-.68,3.9,3.9,0,0,1,.38-.63,3.7,3.7,0,0,1,.49-.57l.73.34c-.11.13-.22.26-.3.37s-.17.23-.25.35a2.71,2.71,0,0,0-.21.37.6.6,0,0,1,.2,0,.81.81,0,0,1,.49.17,1.2,1.2,0,0,1,.35.46A1.84,1.84,0,0,1,52.61,310.93Zm-.78,0a.68.68,0,0,0-.11-.42.35.35,0,0,0-.27-.13.31.31,0,0,0-.3.18.69.69,0,0,0-.1.37.71.71,0,0,0,.11.39.34.34,0,0,0,.27.17.3.3,0,0,0,.23-.09.61.61,0,0,0,.13-.22A.77.77,0,0,0,51.83,310.92Z"/>
        </g>
        <g>
          <path d="M9.21,308.22l-1.62,4.17H7l1.62-4.17Z"/>
          <path d="M11.32,311.21a1.45,1.45,0,0,1-.09.54,1.14,1.14,0,0,1-.25.37,1,1,0,0,1-.32.21,1,1,0,0,1-.33.06,1.61,1.61,0,0,1-.5-.09,1.77,1.77,0,0,1-.46-.2v-.92a1.5,1.5,0,0,0,.33.29.6.6,0,0,0,.36.12.42.42,0,0,0,.23-.07.52.52,0,0,0,.15-.18.59.59,0,0,0,.05-.23.6.6,0,0,0-.07-.27.47.47,0,0,0-.17-.2.56.56,0,0,0-.26-.07h-.1v-.65H10a.39.39,0,0,0,.25-.08.43.43,0,0,0,.14-.19.54.54,0,0,0,0-.21.52.52,0,0,0-.11-.32.31.31,0,0,0-.27-.14.73.73,0,0,0-.31.07,1.17,1.17,0,0,0-.3.21v-.78a2.87,2.87,0,0,1,.4-.19,1.09,1.09,0,0,1,.42-.07.87.87,0,0,1,.56.18,1.18,1.18,0,0,1,.34.43,1.47,1.47,0,0,1,.1.48,1.13,1.13,0,0,1-.06.36,1.35,1.35,0,0,1-.15.32.72.72,0,0,1-.2.22,1.12,1.12,0,0,1,.46,1Z"/>
          <path d="M13.9,312.34H11.64v-.08c.08-.12.18-.26.28-.42l.41-.63c.08-.12.15-.24.21-.35a2.15,2.15,0,0,0,.17-.34,3,3,0,0,0,.13-.36,1.75,1.75,0,0,0,0-.4.89.89,0,0,0-.11-.46.38.38,0,0,0-.31-.17c-.24,0-.49.17-.73.52v-1l.21-.18.19-.13.25-.11a1.13,1.13,0,0,1,.32,0,.89.89,0,0,1,.5.15,1,1,0,0,1,.35.44,1.69,1.69,0,0,1,.13.66,2.1,2.1,0,0,1-.06.51,3.49,3.49,0,0,1-.12.38l-.17.35q-.18.38-.39.72h1Z"/>
        </g>
        <path d="M43.36,271.33a1.45,1.45,0,0,1-.09.54,1,1,0,0,1-.25.37.91.91,0,0,1-.32.2,1,1,0,0,1-.33.07,1.66,1.66,0,0,1-.5-.09,1.89,1.89,0,0,1-.45-.21v-.91a1.45,1.45,0,0,0,.32.29.63.63,0,0,0,.36.11.4.4,0,0,0,.24-.07.39.39,0,0,0,.14-.17.59.59,0,0,0,.05-.23.64.64,0,0,0-.06-.28.47.47,0,0,0-.18-.19.44.44,0,0,0-.26-.07h-.1V270h.12a.36.36,0,0,0,.24-.08.53.53,0,0,0,.15-.19.78.78,0,0,0,0-.21.57.57,0,0,0-.11-.33.33.33,0,0,0-.27-.14.75.75,0,0,0-.31.08,1.37,1.37,0,0,0-.29.2v-.78a2.2,2.2,0,0,1,.39-.18,1.16,1.16,0,0,1,.42-.07.9.9,0,0,1,.57.18,1.06,1.06,0,0,1,.33.43,1.24,1.24,0,0,1,.1.47,1.15,1.15,0,0,1-.06.37,1.35,1.35,0,0,1-.15.32,1.08,1.08,0,0,1-.19.22,1.11,1.11,0,0,1,.31.36A1.15,1.15,0,0,1,43.36,271.33Z"/>
        <path d="M19.25,271.33a1.45,1.45,0,0,1-.09.54,1.27,1.27,0,0,1-.25.37,1,1,0,0,1-.32.2,1,1,0,0,1-.33.07,1.61,1.61,0,0,1-.5-.09,2.19,2.19,0,0,1-.46-.21v-.91a1.5,1.5,0,0,0,.33.29.59.59,0,0,0,.36.11.35.35,0,0,0,.23-.07.41.41,0,0,0,.15-.17.59.59,0,0,0,.05-.23.64.64,0,0,0-.07-.28.44.44,0,0,0-.17-.19.46.46,0,0,0-.26-.07h-.1V270h.11a.39.39,0,0,0,.25-.08.49.49,0,0,0,.14-.19.54.54,0,0,0,.05-.21.57.57,0,0,0-.11-.33.33.33,0,0,0-.27-.14.75.75,0,0,0-.31.08,1.43,1.43,0,0,0-.3.2v-.78a2,2,0,0,1,.4-.18,1.09,1.09,0,0,1,.42-.07.87.87,0,0,1,.56.18,1.06,1.06,0,0,1,.33.43,1.27,1.27,0,0,1,.11.47,1.15,1.15,0,0,1-.06.37,1.35,1.35,0,0,1-.15.32.86.86,0,0,1-.2.22,1.13,1.13,0,0,1,.32.36A1.24,1.24,0,0,1,19.25,271.33Z"/>
      </g>
      <g>
        <path d="M42.42,308.15l1.23,1.59a22.57,22.57,0,0,0,3.14-3l-1.6-1.22A21.18,21.18,0,0,1,42.42,308.15Z"/>
        <path d="M38.5,310.57l.78,1.87a22.28,22.28,0,0,0,3.8-2.26c-.31-.37-.72-.89-1.26-1.59A20.5,20.5,0,0,1,38.5,310.57Z"/>
        <path d="M14.63,305.48,13,306.7a22.1,22.1,0,0,0,3.15,3c.32-.42.74-1,1.23-1.59A20,20,0,0,1,14.63,305.48Z"/>
        <path d="M18,308.59c-.54.7-.95,1.21-1.26,1.59a22.67,22.67,0,0,0,3.8,2.26l.78-1.87A20.94,20.94,0,0,1,18,308.59Z"/>
        <path d="M46.42,303.89l1.6,1.22a21.16,21.16,0,0,0,1.89-3.23L48,301.11A20.72,20.72,0,0,1,46.42,303.89Z"/>
        <path d="M10.17,296.16l-2,.26a21.81,21.81,0,0,0,1,3.61l1.88-.77A18.89,18.89,0,0,1,10.17,296.16Z"/>
        <path d="M11.79,301.11l-1.88.77a22.12,22.12,0,0,0,1.88,3.23l1.6-1.22A19.64,19.64,0,0,1,11.79,301.11Z"/>
        <path d="M9.83,292.57c0-.54,0-1.08.08-1.61l-2-.26c-.05.62-.09,1.24-.09,1.87s0,1.25.09,1.87l2-.26C9.87,293.64,9.83,293.11,9.83,292.57Z"/>
        <path d="M11,285.88l-1.88-.78a21.67,21.67,0,0,0-1,3.62l2,.26A19.94,19.94,0,0,1,11,285.88Z"/>
        <path d="M16.91,277.39l-1.23-1.59A21.4,21.4,0,0,0,13,278.44l1.61,1.22A20.36,20.36,0,0,1,16.91,277.39Z"/>
        <path d="M21.31,274.57l-.78-1.87a21.81,21.81,0,0,0-3.25,1.88l1.23,1.59A19.31,19.31,0,0,1,21.31,274.57Z"/>
        <path d="M13.39,281.25,11.79,280a21.7,21.7,0,0,0-1.88,3.24l1.88.77A19.1,19.1,0,0,1,13.39,281.25Z"/>
        <path d="M49.65,296.16a20,20,0,0,1-.85,3.1l1.88.77a21.84,21.84,0,0,0,1-3.61Z"/>
        <path d="M48,284l1.88-.77A21.76,21.76,0,0,0,48,280l-1.6,1.22A20.84,20.84,0,0,1,48,284Z"/>
        <path d="M50,292.57c0,.54,0,1.07-.08,1.61l2,.26c0-.62.08-1.24.08-1.87s0-1.25-.08-1.87l-2,.26C50,291.49,50,292,50,292.57Z"/>
        <path d="M36.64,273.8l.78-1.87a22,22,0,0,0-3.63-1l-.27,2A19.88,19.88,0,0,1,36.64,273.8Z"/>
        <path d="M29.91,272.62c.54,0,1.08,0,1.62.08l.26-2c-.62-.06-1.25-.09-1.88-.09s-1.26,0-1.89.09l.27,2C28.82,272.66,29.36,272.62,29.91,272.62Z"/>
        <path d="M41.31,276.17l1.23-1.59a22.42,22.42,0,0,0-3.26-1.88l-.78,1.87A20,20,0,0,1,41.31,276.17Z"/>
        <path d="M45.19,279.66l1.6-1.22a21.4,21.4,0,0,0-2.66-2.64l-1.23,1.59A19.63,19.63,0,0,1,45.19,279.66Z"/>
        <path d="M49.65,289l2-.26a21.69,21.69,0,0,0-1-3.62l-1.88.78A20,20,0,0,1,49.65,289Z"/>
        <path d="M26.29,273,26,271a22.13,22.13,0,0,0-3.64,1l.78,1.87A20.49,20.49,0,0,1,26.29,273Z"/>
      </g>
    </g>
    <path d="M76.8,28.93c7,0,12.64,6,12.64,13.48S83.78,55.89,76.8,55.89H18.86c-7,0-12.64-6-12.64-13.48s5.66-13.48,12.64-13.48H76.8m0-.89H18.86C11.4,28,5.34,34.49,5.34,42.41S11.4,56.78,18.86,56.78H76.8c7.46,0,13.52-6.45,13.52-14.37S84.26,28,76.8,28Z"/>
    <path d="M141.39,138.63v35.88h-32c-9.06,0-16.4-7.83-16.4-17.49a19.09,19.09,0,0,1,.36-3.66,19.6,19.6,0,0,1,1.05-3.44l3.48-11.29" style="fill: #ededed;stroke: #231f20"/>
    <path d="M97.91,138.63l6.86-22.32s0-.1,0-.15l.18-.58v0c2.36-7.12,8.71-12.23,16.2-12.23h20.18v35.26" style="stroke: #000;stroke-width: 1.2919500000000002px"/>
    <path d="M141.39,214.23v35.88h-32c-9.06,0-16.4-7.83-16.4-17.49a19.09,19.09,0,0,1,.36-3.66,19.6,19.6,0,0,1,1.05-3.44l3.48-11.29" style="fill: #ededed;stroke: #231f20"/>
    <path d="M97.91,214.23l6.86-22.32s0-.1,0-.15l.18-.58v0c2.36-7.12,8.71-12.23,16.2-12.23h20.18v35.26" style="fill: #5db0e2;stroke: #000"/>
    <path d="M141.39,63V98.91h-32c-9.06,0-16.4-7.83-16.4-17.5a19.06,19.06,0,0,1,.36-3.65,19.6,19.6,0,0,1,1.05-3.44L97.91,63" style="fill: #ededed;stroke: #000"/>
    <path d="M97.91,63l6.86-22.32c0-.05,0-.1,0-.15L105,40v0c2.36-7.12,8.71-12.23,16.2-12.23h20.18V63" style="fill: #ec1c24;stroke: #000"/>
    <path d="M141.39,289.83v35.88h-32c-9.06,0-16.4-7.83-16.4-17.49a19.09,19.09,0,0,1,.36-3.66,19.6,19.6,0,0,1,1.05-3.44l3.48-11.29" style="fill: #ededed;stroke: #000"/>
    <path d="M97.91,289.83l6.86-22.32,0-.15.18-.58v0c2.36-7.12,8.71-12.23,16.2-12.23h20.18v35.26" style="fill: #5ab947;stroke: #000"/>
    <g>
      <line x1="48.22" y1="200" x2="48.28" y2="200" style="fill: #5db0e2;stroke: #000"/>
      <path d="M58.77,230.51" style="fill: #5db0e2;stroke: #000"/>
      <path d="M78.4,200H48.28a29.55,29.55,0,0,1,11.38,23.29,30.12,30.12,0,0,1-.89,7.22H78.4c7.89,0,14.28-6.83,14.28-15.26S86.29,200,78.4,200Z" style="fill: #5db0e2;stroke: #000"/>
    </g>
    <g>
      <line x1="48.22" y1="269.12" x2="48.28" y2="269.12" style="fill: #5ab947;stroke: #000"/>
      <path d="M58.77,299.63" style="fill: #5ab947;stroke: #000"/>
      <path d="M78.4,269.12H48.28a29.55,29.55,0,0,1,11.38,23.29,30.12,30.12,0,0,1-.89,7.22H78.4c7.89,0,14.28-6.83,14.28-15.26S86.29,269.12,78.4,269.12Z" style="fill: #5ab947;stroke: #000"/>
    </g>
    <g>
      <line x1="48.22" y1="130.88" x2="48.28" y2="130.88" style="stroke: #000;stroke-width: 1.2919500000000002px"/>
      <path d="M58.77,161.39" style="stroke: #000;stroke-width: 1.2919500000000002px"/>
      <path d="M78.4,130.88H48.28a29.55,29.55,0,0,1,11.38,23.29,30.12,30.12,0,0,1-.89,7.22H78.4c7.89,0,14.28-6.83,14.28-15.26S86.29,130.88,78.4,130.88Z" style="stroke: #000;stroke-width: 1.2919500000000002px"/>
    </g>
    <g>
      <line x1="48.22" y1="61.76" x2="48.28" y2="61.76" style="fill: #ec1c24;stroke: #000"/>
      <path d="M58.77,92.27" style="fill: #ec1c24;stroke: #000"/>
      <path d="M78.4,61.76H48.28A29.55,29.55,0,0,1,59.66,85.05a30.12,30.12,0,0,1-.89,7.22H78.4c7.89,0,14.28-6.83,14.28-15.26S86.29,61.76,78.4,61.76Z" style="fill: #ec1c24;stroke: #000"/>
    </g>
    <polygon points="135.61 90.13 135.61 94.98 139.5 92.55 135.61 90.13"/>
    <g>
      <path d="M45.78,343.18l-1.3,1.43a9.91,9.91,0,0,1-1.52-.55,10.92,10.92,0,0,1-1.5-.85,4,4,0,0,1-.89-.75,3,3,0,0,1-1-.68,3.79,3.79,0,0,1-.75-1.19,4.38,4.38,0,0,1-.3-1.68,4.51,4.51,0,0,1,.39-1.87,3.1,3.1,0,0,1,1.17-1.41,3.35,3.35,0,0,1,1.93-.54,3.56,3.56,0,0,1,1.54.32,3,3,0,0,1,1.1.85,3.47,3.47,0,0,1,.64,1.22,4.9,4.9,0,0,1,.21,1.43,4.49,4.49,0,0,1-.27,1.61,3.52,3.52,0,0,1-.69,1.17,3.43,3.43,0,0,1-1,.74,7.23,7.23,0,0,0,1,.45,3.43,3.43,0,0,0,1.15.18Zm-2.15-4.27a2.59,2.59,0,0,0-.1-.76,1.71,1.71,0,0,0-.31-.6,1.39,1.39,0,0,0-.5-.4A1.52,1.52,0,0,0,42,337a1.41,1.41,0,0,0-1.17.52,2.15,2.15,0,0,0-.43,1.38,2.2,2.2,0,0,0,.43,1.39,1.44,1.44,0,0,0,1.17.52,1.53,1.53,0,0,0,.87-.24,1.47,1.47,0,0,0,.54-.68A2.36,2.36,0,0,0,43.63,338.91Z"/>
      <path d="M53.07,339.3a4,4,0,0,1-.29,1.63A2.83,2.83,0,0,1,52,342a3,3,0,0,1-1,.56,3.59,3.59,0,0,1-1.12.18,3.72,3.72,0,0,1-1.52-.33,2.78,2.78,0,0,1-1.23-1.09,3.71,3.71,0,0,1-.5-2v-4.1h1.85v3.52a3.49,3.49,0,0,0,.18,1.22,1.39,1.39,0,0,0,.48.7,1.25,1.25,0,0,0,.74.23,1.28,1.28,0,0,0,.73-.22,1.45,1.45,0,0,0,.49-.7,3.75,3.75,0,0,0,.17-1.21V335.2h1.85Z"/>
      <path d="M61.28,342.64h-1.9l-.5-1.51H56.21l-.51,1.51H53.8l2.72-7.44h2Zm-2.83-2.8-.9-2.72-.91,2.72Z"/>
      <path d="M68.41,339.05a4.17,4.17,0,0,1-.34,1.84,3.89,3.89,0,0,1-.81,1.12,2.58,2.58,0,0,1-1.85.63H62.09V335.2h2.56a5.55,5.55,0,0,1,1,.07,3.61,3.61,0,0,1,.74.2,2.65,2.65,0,0,1,.56.3,2.36,2.36,0,0,1,.41.35,3.44,3.44,0,0,1,.56.73,4.43,4.43,0,0,1,.37,1A4.67,4.67,0,0,1,68.41,339.05ZM66.53,339a2.92,2.92,0,0,0-.29-1.42,1.45,1.45,0,0,0-.69-.68,2.1,2.1,0,0,0-.81-.17H64v4.41h.79a2,2,0,0,0,1.26-.42A2.15,2.15,0,0,0,66.53,339Z"/>
      <path d="M77.76,342.08a4.73,4.73,0,0,1-.78.39,6,6,0,0,1-.81.21,5.73,5.73,0,0,1-.84.06,3.66,3.66,0,0,1-1.44-.27,3.19,3.19,0,0,1-1.1-.79,3.4,3.4,0,0,1-.7-1.23,5.12,5.12,0,0,1,0-3.22,3.22,3.22,0,0,1,.77-1.2,3.09,3.09,0,0,1,1.12-.71,4,4,0,0,1,1.34-.23,6.15,6.15,0,0,1,2.37.57v2a6.65,6.65,0,0,0-.9-.57,2.32,2.32,0,0,0-1-.23,2,2,0,0,0-1,.26,2,2,0,0,0-.75.74,2.14,2.14,0,0,0-.29,1.11,2.25,2.25,0,0,0,.25,1,2,2,0,0,0,.69.74,1.8,1.8,0,0,0,1,.28,2.59,2.59,0,0,0,.84-.13,3.94,3.94,0,0,0,.67-.29c.19-.11.37-.24.57-.38Z"/>
      <path d="M83.67,342.64H79V335.2h1.86v5.66h2.81Z"/>
      <path d="M91.32,338.91a4.64,4.64,0,0,1-.39,1.92,3.27,3.27,0,0,1-1.18,1.39,3.46,3.46,0,0,1-1.92.52,3.24,3.24,0,0,1-3.1-1.95,4.75,4.75,0,0,1-.38-1.88,4.66,4.66,0,0,1,.38-1.87,3.17,3.17,0,0,1,1.17-1.41,3.35,3.35,0,0,1,1.93-.54,3.65,3.65,0,0,1,1.52.31,3,3,0,0,1,1.1.83,3.57,3.57,0,0,1,.65,1.22A4.69,4.69,0,0,1,91.32,338.91Zm-1.89,0a2.59,2.59,0,0,0-.1-.76,1.71,1.71,0,0,0-.31-.6,1.31,1.31,0,0,0-.5-.4,1.52,1.52,0,0,0-.69-.14,1.44,1.44,0,0,0-1.17.52,2.47,2.47,0,0,0,0,2.77,1.4,1.4,0,0,0,1.16.52,1.53,1.53,0,0,0,.87-.24,1.55,1.55,0,0,0,.55-.68A2.53,2.53,0,0,0,89.43,338.91Z"/>
      <path d="M98,342.08a4.73,4.73,0,0,1-.78.39,6,6,0,0,1-.81.21,5.73,5.73,0,0,1-.84.06,3.61,3.61,0,0,1-1.43-.27,3.13,3.13,0,0,1-1.11-.79,3.55,3.55,0,0,1-.7-1.23,5,5,0,0,1-.23-1.54,4.77,4.77,0,0,1,.27-1.68,3.35,3.35,0,0,1,.77-1.2,3.13,3.13,0,0,1,1.13-.71,3.91,3.91,0,0,1,1.33-.23,6.07,6.07,0,0,1,2.37.57v2a5.6,5.6,0,0,0-.9-.57,2.32,2.32,0,0,0-1-.23,2,2,0,0,0-1,.26,2,2,0,0,0-.75.74,2.13,2.13,0,0,0-.28,1.11,2.24,2.24,0,0,0,.24,1,2,2,0,0,0,.69.74,1.82,1.82,0,0,0,1,.28,2.65,2.65,0,0,0,.85-.13,4.32,4.32,0,0,0,.67-.29c.18-.11.37-.24.56-.38Z"/>
      <path d="M105.69,342.64h-2.26l-2.35-3.49v3.49H99.22V335.2h1.86v3.33l2.22-3.33h2L103,338.68Z"/>
      <path d="M44.15,348.36a4.17,4.17,0,0,1-.34,1.84,3.89,3.89,0,0,1-.81,1.12,2.58,2.58,0,0,1-1.85.63H37.84v-7.44h2.55a5.75,5.75,0,0,1,1,.07,3.69,3.69,0,0,1,.73.2,2.65,2.65,0,0,1,.56.3,2.89,2.89,0,0,1,.42.35,3.77,3.77,0,0,1,.55.73,4.43,4.43,0,0,1,.37,1A4.67,4.67,0,0,1,44.15,348.36Zm-1.88-.1a2.91,2.91,0,0,0-.29-1.41,1.48,1.48,0,0,0-.68-.68,2.15,2.15,0,0,0-.82-.17h-.79v4.41h.79a2,2,0,0,0,1.26-.42A2.16,2.16,0,0,0,42.27,348.26Z"/>
      <path d="M47.16,352H45.31v-7.44h1.85Z"/>
      <path d="M53,349.79a2.32,2.32,0,0,1-.3,1.2,1.93,1.93,0,0,1-.82.78,2.51,2.51,0,0,1-1.21.28l-.47,0a4.5,4.5,0,0,1-.73-.17,5.38,5.38,0,0,1-1-.39v-1.83a7.32,7.32,0,0,0,.92.58,2.12,2.12,0,0,0,1,.23c.32,0,.52-.06.61-.19a.59.59,0,0,0,.14-.36.64.64,0,0,0-.23-.5,3.29,3.29,0,0,0-.7-.43,5.43,5.43,0,0,1-.89-.56,2.56,2.56,0,0,1-.62-.76,2.32,2.32,0,0,1-.24-1.08,2.42,2.42,0,0,1,.24-1.09,1.82,1.82,0,0,1,.75-.78,2.42,2.42,0,0,1,1.22-.29,3.58,3.58,0,0,1,1,.12,3.09,3.09,0,0,1,.72.28,2.48,2.48,0,0,1,.39.23v1.75a4.67,4.67,0,0,0-.84-.59,2,2,0,0,0-1-.26.7.7,0,0,0-.5.16.59.59,0,0,0-.16.4.53.53,0,0,0,.16.38,2.8,2.8,0,0,0,.55.4,10.14,10.14,0,0,1,1.14.72,2.75,2.75,0,0,1,.67.74A2.16,2.16,0,0,1,53,349.79Z"/>
      <path d="M60.16,346.31H57.91V352H56.06v-5.64H53.81v-1.8h6.35Z"/>
      <path d="M67.19,352h-2l-.48-1.32a5.87,5.87,0,0,0-.48-1.06,1,1,0,0,0-.42-.43,1.23,1.23,0,0,0-.52-.1h-.21V352H61.24v-7.44h3.15a2,2,0,0,1,1.25.37,2.22,2.22,0,0,1,.71.91,2.82,2.82,0,0,1,.21,1,2.28,2.28,0,0,1-.18,1,1.51,1.51,0,0,1-.38.56,3,3,0,0,1-.44.34,2.11,2.11,0,0,1,.49.5,7.47,7.47,0,0,1,.52,1.16Zm-2.52-5.09a.81.81,0,0,0-.28-.72,1.52,1.52,0,0,0-.91-.21h-.39v1.8h.4a1.67,1.67,0,0,0,.93-.18A.79.79,0,0,0,64.67,346.86Z"/>
      <path d="M69.9,352H68v-7.44H69.9Z"/>
      <path d="M77.06,349.84a2.18,2.18,0,0,1-.54,1.54A2,2,0,0,1,75,352H71.45v-7.44h3a3.32,3.32,0,0,1,1,.13,1.74,1.74,0,0,1,.69.37,1.32,1.32,0,0,1,.39.55,1.73,1.73,0,0,1,.13.69,2.13,2.13,0,0,1-.13.76,1.76,1.76,0,0,1-.33.56,1.25,1.25,0,0,1-.4.32,2.41,2.41,0,0,1,1,.76A2,2,0,0,1,77.06,349.84Zm-2.16-3.19a.79.79,0,0,0-.29-.72,2,2,0,0,0-.92-.17H73.3v1.78h.4a1.79,1.79,0,0,0,.92-.18A.79.79,0,0,0,74.9,346.65Zm.3,3.1q0-1-1.14-1H73.3v1.91h.76C74.82,350.7,75.2,350.38,75.2,349.75Z"/>
      <path d="M84.65,348.61a4.13,4.13,0,0,1-.29,1.63,2.83,2.83,0,0,1-.78,1.07,3.06,3.06,0,0,1-1,.56,3.64,3.64,0,0,1-1.12.18,3.68,3.68,0,0,1-1.52-.33,2.78,2.78,0,0,1-1.23-1.09,3.71,3.71,0,0,1-.5-2v-4.1H80V348a3.53,3.53,0,0,0,.18,1.22,1.33,1.33,0,0,0,.48.7,1.25,1.25,0,0,0,.74.23,1.28,1.28,0,0,0,.72-.22,1.38,1.38,0,0,0,.49-.7,3.47,3.47,0,0,0,.18-1.21v-3.54h1.85Z"/>
      <path d="M92,346.31H89.75V352H87.9v-5.64H85.65v-1.8H92Z"/>
      <path d="M99.66,348.22a4.49,4.49,0,0,1-.4,1.92,3.2,3.2,0,0,1-1.18,1.39,3.43,3.43,0,0,1-1.91.52,3.35,3.35,0,0,1-1.93-.54,3.21,3.21,0,0,1-1.17-1.41,4.59,4.59,0,0,1-.39-1.88,4.75,4.75,0,0,1,.38-1.88,3.22,3.22,0,0,1,1.18-1.4,3.32,3.32,0,0,1,1.93-.54,3.68,3.68,0,0,1,1.52.31,2.93,2.93,0,0,1,1.09.83,3.59,3.59,0,0,1,.66,1.22A5,5,0,0,1,99.66,348.22Zm-1.89,0a3,3,0,0,0-.1-.76,1.76,1.76,0,0,0-.31-.61,1.45,1.45,0,0,0-.5-.39,1.52,1.52,0,0,0-.69-.15,1.42,1.42,0,0,0-1.17.53,2.43,2.43,0,0,0,0,2.76,1.4,1.4,0,0,0,1.17.53,1.53,1.53,0,0,0,.87-.24,1.47,1.47,0,0,0,.54-.68A2.36,2.36,0,0,0,97.77,348.22Z"/>
      <path d="M106.76,352h-2l-.48-1.32a5.87,5.87,0,0,0-.48-1.06,1,1,0,0,0-.42-.43,1.23,1.23,0,0,0-.52-.1h-.21V352h-1.85v-7.44H104a2,2,0,0,1,1.25.37,2.22,2.22,0,0,1,.71.91,2.82,2.82,0,0,1,.21,1,2.28,2.28,0,0,1-.18,1,1.51,1.51,0,0,1-.38.56,3,3,0,0,1-.44.34,2.11,2.11,0,0,1,.49.5,7.47,7.47,0,0,1,.52,1.16Zm-2.52-5.09a.81.81,0,0,0-.28-.72,1.52,1.52,0,0,0-.91-.21h-.39v1.8h.4a1.67,1.67,0,0,0,.93-.18A.79.79,0,0,0,104.24,346.86Z"/>
    </g>
    <g>
      <path d="M37.29,33.44h-2v4.61H33.69V33.44h-2V32h5.57Z"/>
      <path d="M41.81,37.83l-.57.22a2.3,2.3,0,0,1-.63.08.63.63,0,0,1-.48-.14.79.79,0,0,1-.2-.33,2.2,2.2,0,0,1-.5.34,1.63,1.63,0,0,1-.72.13A1.32,1.32,0,0,1,38,38a.88.88,0,0,1-.37-.42,1.26,1.26,0,0,1-.11-.53,1.22,1.22,0,0,1,.18-.69,1.53,1.53,0,0,1,.5-.44,5.92,5.92,0,0,1,.83-.35l.44-.17.22-.08.16-.08a.92.92,0,0,0-.12-.51.58.58,0,0,0-.51-.18,1.68,1.68,0,0,0-.85.22,3.33,3.33,0,0,0-.72.59V34.11a2.57,2.57,0,0,1,.57-.35,3.28,3.28,0,0,1,.63-.19,3,3,0,0,1,.67-.07,1.88,1.88,0,0,1,1.29.38,1.29,1.29,0,0,1,.44,1v1.73a1.11,1.11,0,0,0,0,.36.16.16,0,0,0,.15.12.83.83,0,0,0,.36-.12Zm-2-.86V35.91a3.42,3.42,0,0,0-.73.41.61.61,0,0,0-.23.5.5.5,0,0,0,.11.34.37.37,0,0,0,.27.12.55.55,0,0,0,.29-.09A2.47,2.47,0,0,0,39.86,37Z"/>
      <path d="M46.28,35.78a3.58,3.58,0,0,1-.11.87,2.35,2.35,0,0,1-.35.75,1.61,1.61,0,0,1-.59.54,1.78,1.78,0,0,1-.85.19,1.67,1.67,0,0,1-.61-.09,2,2,0,0,1-.45-.25v2.3h-1.4V33.58h1.4V34a1.94,1.94,0,0,1,.47-.34,1.48,1.48,0,0,1,.69-.14,1.69,1.69,0,0,1,.85.24,1.85,1.85,0,0,1,.68.75A2.8,2.8,0,0,1,46.28,35.78Zm-1.47,0a1.56,1.56,0,0,0-.12-.66.72.72,0,0,0-.29-.36.64.64,0,0,0-.37-.11.83.83,0,0,0-.41.09,1.91,1.91,0,0,0-.3.22v1.71l.16.1.17.1.18.06a.64.64,0,0,0,.75-.29A1.46,1.46,0,0,0,44.81,35.82Z"/>
    </g>
    <g>
      <path d="M51.47,49.73a3.57,3.57,0,0,1-.34,1.57,2.73,2.73,0,0,1-1,1.14,3.17,3.17,0,0,1-1.68.42,3,3,0,0,1-1.69-.44,2.65,2.65,0,0,1-1-1.15,3.5,3.5,0,0,1-.34-1.54,3.43,3.43,0,0,1,.34-1.53,2.63,2.63,0,0,1,1-1.15,3.07,3.07,0,0,1,1.7-.44,3.29,3.29,0,0,1,1.33.25,2.65,2.65,0,0,1,1,.68,2.9,2.9,0,0,1,.57,1A3.58,3.58,0,0,1,51.47,49.73Zm-1.65,0a2,2,0,0,0-.09-.62,1.42,1.42,0,0,0-.27-.5,1.36,1.36,0,0,0-.45-.32,1.4,1.4,0,0,0-.6-.12,1.31,1.31,0,0,0-1,.43A1.67,1.67,0,0,0,47,49.73a1.64,1.64,0,0,0,.37,1.13,1.3,1.3,0,0,0,1,.44,1.41,1.41,0,0,0,.76-.2,1.31,1.31,0,0,0,.48-.56A1.86,1.86,0,0,0,49.82,49.73Z"/>
      <path d="M56.11,52.78h-1.4v-.63a2.28,2.28,0,0,1-.62.53,1.62,1.62,0,0,1-.79.18,1.15,1.15,0,0,1-1.16-.59,3.32,3.32,0,0,1-.26-1.33V48.31h1.4v2.42a1.83,1.83,0,0,0,.11.64.45.45,0,0,0,.47.27.63.63,0,0,0,.48-.2,3.09,3.09,0,0,0,.37-.5V48.31h1.4Z"/>
      <path d="M59.82,52.52a3,3,0,0,1-.6.23,2.82,2.82,0,0,1-.74.11c-1,0-1.51-.56-1.51-1.67V49.41h-.63v-.28L58.21,47h.17v1.34h1.33v1.1H58.38v1.43a2.24,2.24,0,0,0,0,.4.4.4,0,0,0,.16.26.58.58,0,0,0,.38.1,1.89,1.89,0,0,0,.88-.31Z"/>
    </g>
    <g>
      <path d="M77.75,5.91l-7,8.79V7.17A1.61,1.61,0,0,0,70,5.7a1.13,1.13,0,0,0-1.42.37L59.4,17.63a1.82,1.82,0,0,0,0,2.23,1.13,1.13,0,0,0,1.83,0l6.92-8.73v7.53A1.61,1.61,0,0,0,69,20.09a1.14,1.14,0,0,0,1.43-.37l7-8.79v7.69a1.33,1.33,0,1,0,2.6,0V7a1.63,1.63,0,0,0-.82-1.47A1.15,1.15,0,0,0,77.75,5.91Z" style="fill: #00adee;stroke: #00adee;stroke-width: 0.9623649999999999px"/>
      <path d="M59.4,5.82l-6.06,7.66a1.83,1.83,0,0,0,0,2.24,1.14,1.14,0,0,0,1.84,0s2-2.59,3.83-4.84v7.88a1.33,1.33,0,1,0,2.6,0V6.92a1.63,1.63,0,0,0-.82-1.47A1.15,1.15,0,0,0,59.4,5.82Z" style="fill: #ec1c24;stroke: #ec1c24;stroke-width: 0.9623649999999999px"/>
      <path d="M88.28,11.47a1.33,1.33,0,0,0-1.2-1H84.43l1.94-2.44s1-1.47.11-2.28-2,.08-2,.08L80.44,11a1.84,1.84,0,0,0-.26,1.72,1.32,1.32,0,0,0,1.19,1H84l-3.14,4s-1.3,1.41-.34,2.36,2.21-.17,2.21-.17L88,13.19A1.87,1.87,0,0,0,88.28,11.47Z" style="fill: #00a551;stroke: #00a551;stroke-width: 0.9623649999999999px"/>
    </g>
    <g>
      <path d="M18,316.8a3,3,0,0,1-1,2.42,2.38,2.38,0,0,1-1.62.51H12.45v-6.09h2.24a5.26,5.26,0,0,1,.86.06,3.61,3.61,0,0,1,.65.17,2,2,0,0,1,.49.24,2.16,2.16,0,0,1,.37.29,2.88,2.88,0,0,1,.48.6,3,3,0,0,1,.33.8A4,4,0,0,1,18,316.8Zm-1.65-.08a2.22,2.22,0,0,0-.25-1.16,1.3,1.3,0,0,0-.61-.56,2,2,0,0,0-.71-.14h-.7v3.61h.7a1.8,1.8,0,0,0,1.1-.34A1.69,1.69,0,0,0,16.34,316.72Z"/>
      <path d="M19.92,319.73h-1.4v-4.47h1.4Zm-.11-5.5a.71.71,0,0,1-.17.47.59.59,0,0,1-.42.19.53.53,0,0,1-.3-.09.61.61,0,0,1-.21-.24.73.73,0,0,1-.08-.33.7.7,0,0,1,.17-.47.54.54,0,0,1,.84,0A.7.7,0,0,1,19.81,314.23Z"/>
      <path d="M24.75,315.26,23,319.73h-1l-1.76-4.47h1.51l.82,2.34.91-2.34Z"/>
      <path d="M28.55,313.56l-2.93,6.25h-1l2.93-6.25Z"/>
      <path d="M35.31,319.73H33.68V316.2l-1.47,2.05h-.13l-1.47-2.05v3.53H29v-6.09h1.48l1.65,2.29,1.67-2.29h1.48Z"/>
      <path d="M40.29,319.73h-1.4v-.64a2,2,0,0,1-.62.54,1.61,1.61,0,0,1-.78.18,1.13,1.13,0,0,1-1.16-.59,3.16,3.16,0,0,1-.27-1.33v-2.63h1.4v2.42a1.73,1.73,0,0,0,.11.63.44.44,0,0,0,.47.28.61.61,0,0,0,.48-.2,3.09,3.09,0,0,0,.37-.5v-2.63h1.4Z"/>
      <path d="M42.35,319.73H40.94v-6.09h1.41Z"/>
      <path d="M46.12,319.47a2.6,2.6,0,0,1-.6.23,2.75,2.75,0,0,1-.73.11c-1,0-1.52-.56-1.52-1.67v-1.78h-.63v-.28l1.88-2.16h.16v1.34H46v1.1H44.68v1.43a2.1,2.1,0,0,0,0,.4.39.39,0,0,0,.15.26.58.58,0,0,0,.38.1,1.86,1.86,0,0,0,.88-.31Z"/>
    </g>
    <g>
      <path d="M114.12,60.7a3.31,3.31,0,0,1-.61.28,3.6,3.6,0,0,1-.63.15,4.65,4.65,0,0,1-.66,0,3,3,0,0,1-1.12-.2,2.42,2.42,0,0,1-1.41-1.46,3.37,3.37,0,0,1-.18-1.12,3.3,3.3,0,0,1,.21-1.23,2.5,2.5,0,0,1,.6-.87,2.8,2.8,0,0,1,.88-.52,3.28,3.28,0,0,1,1-.16,5.1,5.1,0,0,1,1.85.41v1.44a4.32,4.32,0,0,0-.7-.42,1.87,1.87,0,0,0-.82-.17,1.73,1.73,0,0,0-.78.19,1.51,1.51,0,0,0-.58.54,1.45,1.45,0,0,0-.23.81,1.5,1.5,0,0,0,.2.75,1.4,1.4,0,0,0,.54.54,1.44,1.44,0,0,0,.77.21,2.28,2.28,0,0,0,.66-.1,2.44,2.44,0,0,0,.53-.21,4.54,4.54,0,0,0,.44-.28Z"/>
      <path d="M118.45,61.11h-3.64V55.69h1.44v4.12h2.2Z"/>
      <path d="M124.05,61.11h-1.76l-1.84-2.54v2.54H119V55.69h1.44v2.43l1.74-2.43h1.57L122,58.23Z"/>
      <path d="M127.67,61.11h-1.44V55.69h1.44Z"/>
      <path d="M133.81,61.11h-1.29l-2.49-3v3H128.6V55.69h1.28l2.49,3v-3h1.44Z"/>
    </g>
    <g>
      <path d="M120.37,92.85a3.19,3.19,0,0,1-.31,1.39,2.41,2.41,0,0,1-.93,1,2.79,2.79,0,0,1-1.49.37,2.75,2.75,0,0,1-1.5-.39,2.41,2.41,0,0,1-.92-1,3.14,3.14,0,0,1-.3-1.36,3.11,3.11,0,0,1,.3-1.36,2.38,2.38,0,0,1,.91-1,2.8,2.8,0,0,1,1.51-.39,3,3,0,0,1,1.19.23,2.3,2.3,0,0,1,.85.6,2.38,2.38,0,0,1,.51.89A3.11,3.11,0,0,1,120.37,92.85Zm-1.48,0a2,2,0,0,0-.08-.56,1.14,1.14,0,0,0-.24-.43,1.11,1.11,0,0,0-.39-.29,1.33,1.33,0,0,0-.54-.11,1.12,1.12,0,0,0-.91.39,1.47,1.47,0,0,0-.33,1,1.52,1.52,0,0,0,.33,1,1.16,1.16,0,0,0,.91.38,1.23,1.23,0,0,0,.68-.18,1.14,1.14,0,0,0,.43-.49A1.81,1.81,0,0,0,118.89,92.85Z"/>
      <path d="M126,93.14a2.82,2.82,0,0,1-.23,1.18,2,2,0,0,1-.61.78,2.53,2.53,0,0,1-.82.41,3.2,3.2,0,0,1-2.06-.11,2.16,2.16,0,0,1-1-.8,2.5,2.5,0,0,1-.39-1.46v-3h1.45v2.56a2.5,2.5,0,0,0,.13.89,1.07,1.07,0,0,0,.38.51,1,1,0,0,0,.58.16,1,1,0,0,0,.56-.16,1,1,0,0,0,.39-.51,2.44,2.44,0,0,0,.13-.88V90.15H126Z"/>
      <path d="M131.43,91.46h-1.76v4.1h-1.44v-4.1h-1.76V90.15h5Z"/>
    </g>
    <g>
      <path d="M18,247.68a3,3,0,0,1-1,2.42,2.38,2.38,0,0,1-1.62.51H12.45v-6.09h2.24a5.26,5.26,0,0,1,.86.06,2.93,2.93,0,0,1,.65.17,2,2,0,0,1,.49.24,2.16,2.16,0,0,1,.37.29,2.88,2.88,0,0,1,.48.6,3,3,0,0,1,.33.8A4,4,0,0,1,18,247.68Zm-1.65-.08a2.22,2.22,0,0,0-.25-1.16,1.3,1.3,0,0,0-.61-.56,2,2,0,0,0-.71-.14h-.7v3.61h.7a1.8,1.8,0,0,0,1.1-.34A1.69,1.69,0,0,0,16.34,247.6Z"/>
      <path d="M19.92,250.61h-1.4v-4.47h1.4Zm-.11-5.51a.68.68,0,0,1-.17.47.56.56,0,0,1-.42.2.53.53,0,0,1-.3-.09.61.61,0,0,1-.21-.24.74.74,0,0,1-.08-.34.73.73,0,0,1,.17-.47.56.56,0,0,1,.84,0A.73.73,0,0,1,19.81,245.1Z"/>
      <path d="M24.75,246.14,23,250.61h-1l-1.76-4.47h1.51l.82,2.34.91-2.34Z"/>
      <path d="M28.55,244.44l-2.93,6.25h-1l2.93-6.25Z"/>
      <path d="M35.31,250.61H33.68v-3.53l-1.47,2h-.13l-1.47-2v3.53H29v-6.09h1.48l1.65,2.28,1.67-2.28h1.48Z"/>
      <path d="M40.29,250.61h-1.4V250a2.19,2.19,0,0,1-.62.54,1.61,1.61,0,0,1-.78.18,1.13,1.13,0,0,1-1.16-.59,3.21,3.21,0,0,1-.27-1.34v-2.62h1.4v2.41a1.75,1.75,0,0,0,.11.64.44.44,0,0,0,.47.28.61.61,0,0,0,.48-.2,2.81,2.81,0,0,0,.37-.51v-2.62h1.4Z"/>
      <path d="M42.35,250.61H40.94v-6.09h1.41Z"/>
      <path d="M46.12,250.35a2.6,2.6,0,0,1-.6.23,2.75,2.75,0,0,1-.73.11c-1,0-1.52-.56-1.52-1.67v-1.78h-.63V247l1.88-2.16h.16v1.34H46v1.1H44.68v1.43a2.1,2.1,0,0,0,0,.4.39.39,0,0,0,.15.26.58.58,0,0,0,.38.1,1.86,1.86,0,0,0,.88-.31Z"/>
    </g>
    <g>
      <path d="M18,178.56A3,3,0,0,1,17,181a2.38,2.38,0,0,1-1.62.51H12.45V175.4h2.24a5.26,5.26,0,0,1,.86.06,3.61,3.61,0,0,1,.65.17,2,2,0,0,1,.49.24,2.16,2.16,0,0,1,.37.29,2.88,2.88,0,0,1,.48.6,3,3,0,0,1,.33.8A4,4,0,0,1,18,178.56Zm-1.65-.08a2.22,2.22,0,0,0-.25-1.16,1.3,1.3,0,0,0-.61-.56,2,2,0,0,0-.71-.14h-.7v3.61h.7a1.8,1.8,0,0,0,1.1-.34A1.69,1.69,0,0,0,16.34,178.48Z"/>
      <path d="M19.92,181.49h-1.4V177h1.4Zm-.11-5.5a.71.71,0,0,1-.17.47.59.59,0,0,1-.42.19.53.53,0,0,1-.3-.09.61.61,0,0,1-.21-.24.73.73,0,0,1-.08-.33.74.74,0,0,1,.17-.48.56.56,0,0,1,.84,0A.74.74,0,0,1,19.81,176Z"/>
      <path d="M24.75,177,23,181.49h-1L20.15,177h1.51l.82,2.34.91-2.34Z"/>
      <path d="M28.55,175.32l-2.93,6.25h-1l2.93-6.25Z"/>
      <path d="M35.31,181.49H33.68V178l-1.47,2h-.13l-1.47-2v3.53H29V175.4h1.48l1.65,2.29,1.67-2.29h1.48Z"/>
      <path d="M40.29,181.49h-1.4v-.64a2.19,2.19,0,0,1-.62.54,1.61,1.61,0,0,1-.78.18,1.13,1.13,0,0,1-1.16-.59,3.16,3.16,0,0,1-.27-1.33V177h1.4v2.41a1.75,1.75,0,0,0,.11.64.44.44,0,0,0,.47.28.61.61,0,0,0,.48-.2,3.09,3.09,0,0,0,.37-.5V177h1.4Z"/>
      <path d="M42.35,181.49H40.94V175.4h1.41Z"/>
      <path d="M46.12,181.23a2.6,2.6,0,0,1-.6.23,2.75,2.75,0,0,1-.73.11c-1,0-1.52-.56-1.52-1.67v-1.78h-.63v-.28l1.88-2.16h.16V177H46v1.1H44.68v1.43a2.1,2.1,0,0,0,0,.4.39.39,0,0,0,.15.26.58.58,0,0,0,.38.1,1.86,1.86,0,0,0,.88-.31Z"/>
    </g>
    <g>
      <path d="M18,109.43a3,3,0,0,1-1,2.43,2.38,2.38,0,0,1-1.62.51H12.45v-6.09h2.24a5.26,5.26,0,0,1,.86.06,2.93,2.93,0,0,1,.65.17,2,2,0,0,1,.49.24,2.16,2.16,0,0,1,.37.29,2.88,2.88,0,0,1,.48.6,3,3,0,0,1,.33.8A4,4,0,0,1,18,109.43Zm-1.65-.07a2.2,2.2,0,0,0-.25-1.16,1.3,1.3,0,0,0-.61-.56,2,2,0,0,0-.71-.14h-.7v3.61h.7a1.87,1.87,0,0,0,1.1-.34A1.69,1.69,0,0,0,16.34,109.36Z"/>
      <path d="M19.92,112.37h-1.4V107.9h1.4Zm-.11-5.51a.68.68,0,0,1-.17.47.56.56,0,0,1-.42.2.53.53,0,0,1-.3-.09.61.61,0,0,1-.21-.24.74.74,0,0,1-.08-.34.73.73,0,0,1,.17-.47.56.56,0,0,1,.84,0A.73.73,0,0,1,19.81,106.86Z"/>
      <path d="M24.75,107.9,23,112.37h-1l-1.76-4.47h1.51l.82,2.34.91-2.34Z"/>
      <path d="M28.55,106.2l-2.93,6.25h-1l2.93-6.25Z"/>
      <path d="M35.31,112.37H33.68v-3.53l-1.47,2h-.13l-1.47-2v3.53H29v-6.09h1.48l1.65,2.28,1.67-2.28h1.48Z"/>
      <path d="M40.29,112.37h-1.4v-.64a2.19,2.19,0,0,1-.62.54,1.61,1.61,0,0,1-.78.18,1.13,1.13,0,0,1-1.16-.59,3.21,3.21,0,0,1-.27-1.34V107.9h1.4v2.41a1.75,1.75,0,0,0,.11.64.44.44,0,0,0,.47.28.61.61,0,0,0,.48-.2,2.81,2.81,0,0,0,.37-.51V107.9h1.4Z"/>
      <path d="M42.35,112.37H40.94v-6.09h1.41Z"/>
      <path d="M46.12,112.11a2.6,2.6,0,0,1-.6.23,2.75,2.75,0,0,1-.73.11c-1,0-1.52-.56-1.52-1.67V109h-.63v-.28l1.88-2.16h.16v1.34H46V109H44.68v1.43a2.17,2.17,0,0,0,0,.4.41.41,0,0,0,.15.26.58.58,0,0,0,.38.1,1.86,1.86,0,0,0,.88-.31Z"/>
    </g>
    <g>
      <path d="M114.12,136.3a3.31,3.31,0,0,1-.61.28,3.6,3.6,0,0,1-.63.15,4.65,4.65,0,0,1-.66.05,3,3,0,0,1-1.12-.2,2.42,2.42,0,0,1-1.41-1.46,3.37,3.37,0,0,1-.18-1.12,3.3,3.3,0,0,1,.21-1.23,2.5,2.5,0,0,1,.6-.87,2.6,2.6,0,0,1,.88-.51,3,3,0,0,1,1-.17,5.1,5.1,0,0,1,1.85.41v1.44a4.32,4.32,0,0,0-.7-.42,1.88,1.88,0,0,0-.82-.16,1.72,1.72,0,0,0-.78.18,1.51,1.51,0,0,0-.58.54,1.45,1.45,0,0,0-.23.81,1.52,1.52,0,0,0,.74,1.3,1.52,1.52,0,0,0,.77.2,2.28,2.28,0,0,0,.66-.1,2.44,2.44,0,0,0,.53-.21,4.54,4.54,0,0,0,.44-.28Z" style="fill: #fff"/>
      <path d="M118.45,136.71h-3.64v-5.42h1.44v4.12h2.2Z" style="fill: #fff"/>
      <path d="M124.05,136.71h-1.76l-1.84-2.54v2.54H119v-5.42h1.44v2.43l1.74-2.43h1.57L122,133.83Z" style="fill: #fff"/>
      <path d="M127.67,136.71h-1.44v-5.42h1.44Z" style="fill: #fff"/>
      <path d="M133.81,136.71h-1.29l-2.49-3v3H128.6v-5.42h1.28l2.49,3v-3h1.44Z" style="fill: #fff"/>
    </g>
    <polygon points="139.51 60.69 139.51 55.84 135.61 58.27 139.51 60.69"/>
    <polygon points="135.61 166.88 135.61 171.73 139.5 169.31 135.61 166.88"/>
    <g>
      <path d="M120.37,169.39a3.22,3.22,0,0,1-.31,1.39,2.39,2.39,0,0,1-.93,1,2.79,2.79,0,0,1-1.49.38,2.75,2.75,0,0,1-1.5-.39,2.46,2.46,0,0,1-.92-1,3.26,3.26,0,0,1,0-2.73,2.42,2.42,0,0,1,.91-1,2.8,2.8,0,0,1,1.51-.39,3,3,0,0,1,1.19.22,2.32,2.32,0,0,1,.85.61,2.34,2.34,0,0,1,.51.88A3.16,3.16,0,0,1,120.37,169.39Zm-1.48,0a1.94,1.94,0,0,0-.08-.56,1.18,1.18,0,0,0-.24-.44,1.24,1.24,0,0,0-.39-.29,1.33,1.33,0,0,0-.54-.1,1.15,1.15,0,0,0-.91.38,1.5,1.5,0,0,0-.33,1,1.47,1.47,0,0,0,.33,1,1.14,1.14,0,0,0,.91.39,1.23,1.23,0,0,0,.68-.18,1.14,1.14,0,0,0,.43-.49A1.81,1.81,0,0,0,118.89,169.39Z"/>
      <path d="M126,169.67a2.84,2.84,0,0,1-.23,1.19,2,2,0,0,1-.61.77,2.34,2.34,0,0,1-.82.41,2.91,2.91,0,0,1-.87.13,3.08,3.08,0,0,1-1.19-.24,2.14,2.14,0,0,1-1-.79,2.55,2.55,0,0,1-.39-1.47v-3h1.45v2.57a2.44,2.44,0,0,0,.13.88,1.06,1.06,0,0,0,.38.52,1.12,1.12,0,0,0,.58.16,1,1,0,0,0,.56-.16,1.09,1.09,0,0,0,.39-.51,2.48,2.48,0,0,0,.13-.88v-2.58H126Z"/>
      <path d="M131.43,168h-1.76v4.1h-1.44V168h-1.76v-1.32h5Z"/>
    </g>
    <polygon points="139.51 136.29 139.51 131.44 135.61 133.87 139.51 136.29" style="fill: #fff"/>
    <polygon points="135.61 242.48 135.61 247.33 139.5 244.91 135.61 242.48"/>
    <g>
      <path d="M114.12,211.9a3.31,3.31,0,0,1-.61.28,3.6,3.6,0,0,1-.63.15,4.65,4.65,0,0,1-.66,0,3,3,0,0,1-1.12-.2,2.42,2.42,0,0,1-1.41-1.46,3.37,3.37,0,0,1-.18-1.12,3.3,3.3,0,0,1,.21-1.23,2.5,2.5,0,0,1,.6-.87,2.6,2.6,0,0,1,.88-.51,3.29,3.29,0,0,1,1-.17,5.1,5.1,0,0,1,1.85.41v1.44a4.32,4.32,0,0,0-.7-.42,1.88,1.88,0,0,0-.82-.16,1.72,1.72,0,0,0-.78.18,1.51,1.51,0,0,0-.58.54,1.45,1.45,0,0,0-.23.81,1.52,1.52,0,0,0,.74,1.3,1.52,1.52,0,0,0,.77.2,2.28,2.28,0,0,0,.66-.1,2.44,2.44,0,0,0,.53-.21,4.54,4.54,0,0,0,.44-.28Z"/>
      <path d="M118.45,212.31h-3.64v-5.42h1.44V211h2.2Z"/>
      <path d="M124.05,212.31h-1.76l-1.84-2.54v2.54H119v-5.42h1.44v2.43l1.74-2.43h1.57L122,209.43Z"/>
      <path d="M127.67,212.31h-1.44v-5.42h1.44Z"/>
      <path d="M133.81,212.31h-1.29l-2.49-3v3H128.6v-5.42h1.28l2.49,3v-3h1.44Z"/>
    </g>
    <g>
      <path d="M120.37,245a3.22,3.22,0,0,1-.31,1.39,2.39,2.39,0,0,1-.93,1,2.79,2.79,0,0,1-1.49.38,2.75,2.75,0,0,1-1.5-.39,2.46,2.46,0,0,1-.92-1,3.26,3.26,0,0,1,0-2.73,2.42,2.42,0,0,1,.91-1,2.8,2.8,0,0,1,1.51-.39,3,3,0,0,1,1.19.22,2.32,2.32,0,0,1,.85.61,2.42,2.42,0,0,1,.51.88A3.16,3.16,0,0,1,120.37,245Zm-1.48,0a1.94,1.94,0,0,0-.08-.56,1.18,1.18,0,0,0-.24-.44,1.24,1.24,0,0,0-.39-.29,1.33,1.33,0,0,0-.54-.1,1.15,1.15,0,0,0-.91.38,1.5,1.5,0,0,0-.33,1,1.47,1.47,0,0,0,.33,1,1.14,1.14,0,0,0,.91.39,1.23,1.23,0,0,0,.68-.18,1.14,1.14,0,0,0,.43-.49A1.81,1.81,0,0,0,118.89,245Z"/>
      <path d="M126,245.27a2.84,2.84,0,0,1-.23,1.19,2,2,0,0,1-.61.77,2.34,2.34,0,0,1-.82.41,2.91,2.91,0,0,1-.87.13,3.08,3.08,0,0,1-1.19-.24,2.14,2.14,0,0,1-1-.79,2.55,2.55,0,0,1-.39-1.47v-3h1.45v2.57a2.44,2.44,0,0,0,.13.88,1.06,1.06,0,0,0,.38.52,1.12,1.12,0,0,0,.58.16,1,1,0,0,0,.56-.16,1.09,1.09,0,0,0,.39-.51,2.48,2.48,0,0,0,.13-.88v-2.58H126Z"/>
      <path d="M131.43,243.6h-1.76v4.1h-1.44v-4.1h-1.76v-1.32h5Z"/>
    </g>
    <polygon points="139.51 211.89 139.51 207.04 135.61 209.47 139.51 211.89"/>
    <polygon points="135.61 318.08 135.61 322.93 139.5 320.51 135.61 318.08"/>
    <polygon points="86.44 307.94 88.88 312.14 91.03 308.1 86.44 307.94" style="fill: #5ab947"/>
    <polygon points="86.44 238.82 88.88 243.02 91.03 238.98 86.44 238.82" style="fill: #5db0e2"/>
    <polygon points="86.44 169.7 88.88 173.9 91.03 169.86 86.44 169.7" style="fill: #231f20"/>
    <polygon points="86.44 100.58 88.88 104.78 91.03 100.74 86.44 100.58" style="fill: #ec1c24"/>
    <g>
      <path d="M114.12,287.5a3.31,3.31,0,0,1-.61.28,3.6,3.6,0,0,1-.63.15,4.65,4.65,0,0,1-.66.05,3,3,0,0,1-1.12-.2,2.42,2.42,0,0,1-1.41-1.46,3.37,3.37,0,0,1-.18-1.12,3.3,3.3,0,0,1,.21-1.23,2.5,2.5,0,0,1,.6-.87,2.6,2.6,0,0,1,.88-.51,3,3,0,0,1,1-.17,5.1,5.1,0,0,1,1.85.41v1.44a4.32,4.32,0,0,0-.7-.42,1.87,1.87,0,0,0-.82-.17,1.73,1.73,0,0,0-.78.19,1.51,1.51,0,0,0-.58.54,1.45,1.45,0,0,0-.23.81,1.5,1.5,0,0,0,.2.75,1.4,1.4,0,0,0,.54.54,1.44,1.44,0,0,0,.77.21,2.28,2.28,0,0,0,.66-.1,2.44,2.44,0,0,0,.53-.21,4.54,4.54,0,0,0,.44-.28Z"/>
      <path d="M118.45,287.91h-3.64v-5.42h1.44v4.12h2.2Z"/>
      <path d="M124.05,287.91h-1.76l-1.84-2.54v2.54H119v-5.42h1.44v2.43l1.74-2.43h1.57L122,285Z"/>
      <path d="M127.67,287.91h-1.44v-5.42h1.44Z"/>
      <path d="M133.81,287.91h-1.29l-2.49-3v3H128.6v-5.42h1.28l2.49,3v-3h1.44Z"/>
    </g>
    <g>
      <path d="M120.37,320.59a3.22,3.22,0,0,1-.31,1.39,2.39,2.39,0,0,1-.93,1,2.79,2.79,0,0,1-1.49.38,2.75,2.75,0,0,1-1.5-.39,2.46,2.46,0,0,1-.92-1,3.26,3.26,0,0,1,0-2.73,2.42,2.42,0,0,1,.91-1,2.8,2.8,0,0,1,1.51-.39,3,3,0,0,1,1.19.22,2.32,2.32,0,0,1,.85.61,2.34,2.34,0,0,1,.51.88A3.16,3.16,0,0,1,120.37,320.59Zm-1.48,0a1.94,1.94,0,0,0-.08-.56,1.18,1.18,0,0,0-.24-.44,1.24,1.24,0,0,0-.39-.29,1.33,1.33,0,0,0-.54-.1,1.15,1.15,0,0,0-.91.38,1.5,1.5,0,0,0-.33,1,1.47,1.47,0,0,0,.33,1,1.14,1.14,0,0,0,.91.39,1.23,1.23,0,0,0,.68-.18,1.14,1.14,0,0,0,.43-.49A1.81,1.81,0,0,0,118.89,320.59Z"/>
      <path d="M126,320.87a2.84,2.84,0,0,1-.23,1.19,2,2,0,0,1-.61.77,2.34,2.34,0,0,1-.82.41,2.91,2.91,0,0,1-.87.13,3.08,3.08,0,0,1-1.19-.24,2.14,2.14,0,0,1-1-.79,2.55,2.55,0,0,1-.39-1.47v-3h1.45v2.57a2.44,2.44,0,0,0,.13.88,1.06,1.06,0,0,0,.38.52,1.12,1.12,0,0,0,.58.16,1,1,0,0,0,.56-.16,1.09,1.09,0,0,0,.39-.51,2.48,2.48,0,0,0,.13-.88v-2.58H126Z"/>
      <path d="M131.43,319.2h-1.76v4.1h-1.44v-4.1h-1.76v-1.32h5Z"/>
    </g>
    <polygon points="139.51 287.49 139.51 282.64 135.61 285.07 139.51 287.49"/>
    <g>
      <path d="M52.7,119.36H51.34l-.33-.84a3.6,3.6,0,0,0-.33-.68.77.77,0,0,0-.28-.27.9.9,0,0,0-.36-.06H49.9v1.85H48.63v-4.74h2.16a1.42,1.42,0,0,1,.85.24,1.4,1.4,0,0,1,.48.58,1.65,1.65,0,0,1,.15.65,1.41,1.41,0,0,1-.12.61,1.4,1.4,0,0,1-.26.36,2.4,2.4,0,0,1-.31.21,1.3,1.3,0,0,1,.34.32,4.85,4.85,0,0,1,.35.74ZM51,116.12a.54.54,0,0,0-.19-.46,1.12,1.12,0,0,0-.62-.13H49.9v1.14h.27a1.24,1.24,0,0,0,.64-.11A.5.5,0,0,0,51,116.12Z"/>
      <path d="M56,117.92H53.84a.86.86,0,0,0,.31.52.87.87,0,0,0,.56.2,2.72,2.72,0,0,0,1.22-.35v.76a2.87,2.87,0,0,1-.58.26,3,3,0,0,1-.87.11,1.86,1.86,0,0,1-1-.24,1.57,1.57,0,0,1-.6-.65,2.35,2.35,0,0,1,0-1.85,1.58,1.58,0,0,1,.6-.63,2,2,0,0,1,1-.23,1.61,1.61,0,0,1,.73.18,1.38,1.38,0,0,1,.57.6,2.23,2.23,0,0,1,.23,1.07Zm-1-.61a.91.91,0,0,0-.14-.54.5.5,0,0,0-.42-.2.55.55,0,0,0-.45.21.8.8,0,0,0-.16.53Z"/>
      <path d="M58.71,118.34a1.06,1.06,0,0,1-.31.78,1.3,1.3,0,0,1-.93.3,2.2,2.2,0,0,1-.6-.07,4.57,4.57,0,0,1-.59-.2v-.87l.48.27a1.13,1.13,0,0,0,.45.09c.27,0,.41-.09.41-.25a.25.25,0,0,0-.06-.16,1.16,1.16,0,0,0-.21-.15l-.39-.2a1.68,1.68,0,0,1-.52-.4,1,1,0,0,1-.21-.62,1,1,0,0,1,.14-.5,1.09,1.09,0,0,1,.43-.39,1.47,1.47,0,0,1,.69-.15h.24a2.61,2.61,0,0,1,.38.08,2.08,2.08,0,0,1,.43.19V117l-.16-.11-.17-.1a1.28,1.28,0,0,0-.26-.1,1.45,1.45,0,0,0-.3,0,.37.37,0,0,0-.26.08.29.29,0,0,0-.06.17.23.23,0,0,0,.07.16,1,1,0,0,0,.32.18,2.55,2.55,0,0,1,.58.32.89.89,0,0,1,.31.37A1.08,1.08,0,0,1,58.71,118.34Z"/>
      <path d="M62.21,117.92H60a.86.86,0,0,0,.31.52.89.89,0,0,0,.56.2,2.68,2.68,0,0,0,1.22-.35v.76a2.87,2.87,0,0,1-.58.26,3,3,0,0,1-.87.11,1.86,1.86,0,0,1-1-.24,1.49,1.49,0,0,1-.59-.65,2.24,2.24,0,0,1,0-1.85,1.49,1.49,0,0,1,.59-.63,2,2,0,0,1,1-.23,1.58,1.58,0,0,1,.73.18,1.38,1.38,0,0,1,.57.6,2.23,2.23,0,0,1,.23,1.07Zm-1-.61a.91.91,0,0,0-.15-.54.5.5,0,0,0-.42-.2.54.54,0,0,0-.44.21.75.75,0,0,0-.17.53Z"/>
      <path d="M64.93,119.16a2.59,2.59,0,0,1-.47.18,2.37,2.37,0,0,1-.57.08c-.78,0-1.18-.43-1.18-1.3v-1.39h-.49v-.21l1.46-1.68h.13v1h1v.85h-1v1.12a1.37,1.37,0,0,0,0,.31.28.28,0,0,0,.12.2.42.42,0,0,0,.3.08,1.5,1.5,0,0,0,.68-.24Z"/>
    </g>
    <g>
      <path d="M52.7,188.48H51.34l-.33-.84a3.6,3.6,0,0,0-.33-.68.77.77,0,0,0-.28-.27.9.9,0,0,0-.36-.06H49.9v1.85H48.63v-4.74h2.16a1.42,1.42,0,0,1,.85.24,1.4,1.4,0,0,1,.48.58,1.65,1.65,0,0,1,.15.65,1.41,1.41,0,0,1-.12.61,1.4,1.4,0,0,1-.26.36,2.4,2.4,0,0,1-.31.21,1.3,1.3,0,0,1,.34.32,4.85,4.85,0,0,1,.35.74ZM51,185.24a.54.54,0,0,0-.19-.46,1.12,1.12,0,0,0-.62-.13H49.9v1.14h.27a1.24,1.24,0,0,0,.64-.11A.5.5,0,0,0,51,185.24Z"/>
      <path d="M56,187H53.84a.86.86,0,0,0,.31.52.87.87,0,0,0,.56.2,2.72,2.72,0,0,0,1.22-.35v.76a2.87,2.87,0,0,1-.58.26,3,3,0,0,1-.87.11,1.86,1.86,0,0,1-1-.24,1.57,1.57,0,0,1-.6-.65,2.35,2.35,0,0,1,0-1.85,1.58,1.58,0,0,1,.6-.63,2,2,0,0,1,1-.23,1.61,1.61,0,0,1,.73.18,1.38,1.38,0,0,1,.57.6,2.23,2.23,0,0,1,.23,1.07Zm-1-.61a.91.91,0,0,0-.14-.54.5.5,0,0,0-.42-.2.55.55,0,0,0-.45.21.8.8,0,0,0-.16.53Z"/>
      <path d="M58.71,187.47a1.06,1.06,0,0,1-.31.77,1.3,1.3,0,0,1-.93.3,2.2,2.2,0,0,1-.6-.07,4.57,4.57,0,0,1-.59-.2v-.87l.48.27a1.13,1.13,0,0,0,.45.09c.27,0,.41-.09.41-.25a.25.25,0,0,0-.06-.16,1.16,1.16,0,0,0-.21-.15L57,187a1.68,1.68,0,0,1-.52-.4,1,1,0,0,1-.21-.62,1,1,0,0,1,.14-.5,1.09,1.09,0,0,1,.43-.39,1.47,1.47,0,0,1,.69-.15h.24a2.61,2.61,0,0,1,.38.08,2.08,2.08,0,0,1,.43.19v.85l-.16-.11-.17-.1a1.28,1.28,0,0,0-.26-.1,1.45,1.45,0,0,0-.3,0,.37.37,0,0,0-.26.08.29.29,0,0,0-.06.17.23.23,0,0,0,.07.16,1,1,0,0,0,.32.18,2.55,2.55,0,0,1,.58.32.89.89,0,0,1,.31.37A1.09,1.09,0,0,1,58.71,187.47Z"/>
      <path d="M62.21,187H60a.86.86,0,0,0,.31.52.89.89,0,0,0,.56.2,2.68,2.68,0,0,0,1.22-.35v.76a2.87,2.87,0,0,1-.58.26,3,3,0,0,1-.87.11,1.86,1.86,0,0,1-1-.24,1.49,1.49,0,0,1-.59-.65,2.24,2.24,0,0,1,0-1.85,1.49,1.49,0,0,1,.59-.63,2,2,0,0,1,1-.23,1.58,1.58,0,0,1,.73.18,1.38,1.38,0,0,1,.57.6,2.23,2.23,0,0,1,.23,1.07Zm-1-.61a.91.91,0,0,0-.15-.54.5.5,0,0,0-.42-.2.54.54,0,0,0-.44.21.75.75,0,0,0-.17.53Z"/>
      <path d="M64.93,188.28a2.59,2.59,0,0,1-.47.18,2.37,2.37,0,0,1-.57.08c-.78,0-1.18-.43-1.18-1.3v-1.39h-.49v-.21L63.68,184h.13v1h1v.85h-1V187a1.37,1.37,0,0,0,0,.31.28.28,0,0,0,.12.2.42.42,0,0,0,.3.08,1.5,1.5,0,0,0,.68-.24Z"/>
    </g>
    <g>
      <path d="M52.7,257.6H51.34l-.33-.84a3.6,3.6,0,0,0-.33-.68.77.77,0,0,0-.28-.27.9.9,0,0,0-.36-.06H49.9v1.85H48.63v-4.74h2.16a1.42,1.42,0,0,1,.85.24,1.47,1.47,0,0,1,.48.58,1.65,1.65,0,0,1,.15.65,1.41,1.41,0,0,1-.12.61,1.4,1.4,0,0,1-.26.36,1.69,1.69,0,0,1-.31.21,1.3,1.3,0,0,1,.34.32,4.85,4.85,0,0,1,.35.74ZM51,254.36a.54.54,0,0,0-.19-.46,1.12,1.12,0,0,0-.62-.13H49.9v1.14h.27a1.24,1.24,0,0,0,.64-.11A.5.5,0,0,0,51,254.36Z"/>
      <path d="M56,256.16H53.84a.86.86,0,0,0,.31.52.87.87,0,0,0,.56.2,2.72,2.72,0,0,0,1.22-.35v.76a2.87,2.87,0,0,1-.58.26,3,3,0,0,1-.87.11,1.86,1.86,0,0,1-1-.24,1.57,1.57,0,0,1-.6-.65,2.12,2.12,0,0,1-.19-.93,2.06,2.06,0,0,1,.19-.91,1.54,1.54,0,0,1,.6-.64,2,2,0,0,1,1-.23,1.61,1.61,0,0,1,.73.18,1.38,1.38,0,0,1,.57.6,2.23,2.23,0,0,1,.23,1.07Zm-1-.61a.91.91,0,0,0-.14-.54.5.5,0,0,0-.42-.2A.55.55,0,0,0,54,255a.8.8,0,0,0-.16.53Z"/>
      <path d="M58.71,256.58a1.06,1.06,0,0,1-.31.78,1.3,1.3,0,0,1-.93.3,2.2,2.2,0,0,1-.6-.07,4.57,4.57,0,0,1-.59-.2v-.87c.19.12.35.2.48.27a1.13,1.13,0,0,0,.45.09c.27,0,.41-.09.41-.25a.25.25,0,0,0-.06-.16,1.16,1.16,0,0,0-.21-.15l-.39-.2a1.68,1.68,0,0,1-.52-.4,1,1,0,0,1-.21-.62,1,1,0,0,1,.14-.5,1.09,1.09,0,0,1,.43-.39,1.47,1.47,0,0,1,.69-.15h.24a2.61,2.61,0,0,1,.38.08,2.08,2.08,0,0,1,.43.19v.85l-.16-.11-.17-.1-.26-.1a1.45,1.45,0,0,0-.3,0,.37.37,0,0,0-.26.08.29.29,0,0,0-.06.17.23.23,0,0,0,.07.16,1,1,0,0,0,.32.18,2.55,2.55,0,0,1,.58.32.89.89,0,0,1,.31.37A1.08,1.08,0,0,1,58.71,256.58Z"/>
      <path d="M62.21,256.16H60a.86.86,0,0,0,.31.52.89.89,0,0,0,.56.2,2.68,2.68,0,0,0,1.22-.35v.76a2.87,2.87,0,0,1-.58.26,3,3,0,0,1-.87.11,1.86,1.86,0,0,1-1-.24,1.49,1.49,0,0,1-.59-.65,2,2,0,0,1-.2-.93,1.93,1.93,0,0,1,.2-.91,1.46,1.46,0,0,1,.59-.64,2,2,0,0,1,1-.23,1.58,1.58,0,0,1,.73.18,1.38,1.38,0,0,1,.57.6,2.23,2.23,0,0,1,.23,1.07Zm-1-.61A.91.91,0,0,0,61,255a.5.5,0,0,0-.42-.2.54.54,0,0,0-.44.21.75.75,0,0,0-.17.53Z"/>
      <path d="M64.93,257.4a2.59,2.59,0,0,1-.47.18,2.37,2.37,0,0,1-.57.08c-.78,0-1.18-.43-1.18-1.3V255h-.49v-.21l1.46-1.68h.13v1h1V255h-1v1.12a1.37,1.37,0,0,0,0,.31.28.28,0,0,0,.12.2.42.42,0,0,0,.3.08,1.5,1.5,0,0,0,.68-.24Z"/>
    </g>
    <g>
      <path d="M52.7,326.72H51.34l-.33-.84a3.6,3.6,0,0,0-.33-.68.77.77,0,0,0-.28-.27.9.9,0,0,0-.36-.06H49.9v1.85H48.63V322h2.16a1.42,1.42,0,0,1,.85.24,1.47,1.47,0,0,1,.48.58,1.65,1.65,0,0,1,.15.65,1.41,1.41,0,0,1-.12.61,1.4,1.4,0,0,1-.26.36,2.44,2.44,0,0,1-.31.22,1.13,1.13,0,0,1,.34.31,4.85,4.85,0,0,1,.35.74ZM51,323.48a.54.54,0,0,0-.19-.46,1.12,1.12,0,0,0-.62-.13H49.9V324h.27a1.24,1.24,0,0,0,.64-.11A.5.5,0,0,0,51,323.48Z"/>
      <path d="M56,325.28H53.84a.86.86,0,0,0,.31.52.87.87,0,0,0,.56.2,2.72,2.72,0,0,0,1.22-.35v.76a2.87,2.87,0,0,1-.58.26,3,3,0,0,1-.87.11,1.86,1.86,0,0,1-1-.24,1.57,1.57,0,0,1-.6-.65,2.12,2.12,0,0,1-.19-.93,2.06,2.06,0,0,1,.19-.91,1.54,1.54,0,0,1,.6-.64,2,2,0,0,1,1-.23,1.61,1.61,0,0,1,.73.18,1.38,1.38,0,0,1,.57.6A2.23,2.23,0,0,1,56,325Zm-1-.61a.91.91,0,0,0-.14-.54.5.5,0,0,0-.42-.2.55.55,0,0,0-.45.21.8.8,0,0,0-.16.53Z"/>
      <path d="M58.71,325.7a1.06,1.06,0,0,1-.31.78,1.3,1.3,0,0,1-.93.3,2.2,2.2,0,0,1-.6-.07,4.57,4.57,0,0,1-.59-.2v-.87c.19.12.35.2.48.27a1.13,1.13,0,0,0,.45.09c.27,0,.41-.09.41-.25a.25.25,0,0,0-.06-.16,1.16,1.16,0,0,0-.21-.15l-.39-.2a1.68,1.68,0,0,1-.52-.4.93.93,0,0,1-.21-.62,1,1,0,0,1,.14-.5,1.09,1.09,0,0,1,.43-.39,1.47,1.47,0,0,1,.69-.15h.24a2.61,2.61,0,0,1,.38.08,2.08,2.08,0,0,1,.43.19v.85l-.16-.11-.17-.1L58,324a1.45,1.45,0,0,0-.3,0,.37.37,0,0,0-.26.08.29.29,0,0,0-.06.17.23.23,0,0,0,.07.16,1,1,0,0,0,.32.18,2.55,2.55,0,0,1,.58.32.89.89,0,0,1,.31.37A1.08,1.08,0,0,1,58.71,325.7Z"/>
      <path d="M62.21,325.28H60a.86.86,0,0,0,.31.52.89.89,0,0,0,.56.2,2.68,2.68,0,0,0,1.22-.35v.76a2.87,2.87,0,0,1-.58.26,3,3,0,0,1-.87.11,1.86,1.86,0,0,1-1-.24,1.49,1.49,0,0,1-.59-.65,2,2,0,0,1-.2-.93,1.93,1.93,0,0,1,.2-.91,1.46,1.46,0,0,1,.59-.64,2,2,0,0,1,1-.23,1.58,1.58,0,0,1,.73.18,1.38,1.38,0,0,1,.57.6,2.23,2.23,0,0,1,.23,1.07Zm-1-.61a.91.91,0,0,0-.15-.54.5.5,0,0,0-.42-.2.54.54,0,0,0-.44.21.75.75,0,0,0-.17.53Z"/>
      <path d="M64.93,326.52a2.59,2.59,0,0,1-.47.18,2.37,2.37,0,0,1-.57.08c-.78,0-1.18-.43-1.18-1.3v-1.39h-.49v-.21l1.46-1.68h.13v1h1v.85h-1v1.12a1.37,1.37,0,0,0,0,.31.28.28,0,0,0,.12.2.42.42,0,0,0,.3.08,1.5,1.5,0,0,0,.68-.24Z"/>
    </g>
    <path d="M77.07,111.45" style="fill: #fff;stroke: #231f20"/>
    <path d="M17.26,360.41a4.53,4.53,0,1,1,0-9.06h8.5a4.53,4.53,0,1,1,0,9.06Z"/>
    <path d="M17.26,14.21a4.54,4.54,0,1,1,0-9.07h8.5a4.54,4.54,0,1,1,0,9.07Z"/>
    <path d="M118.5,360.41a4.53,4.53,0,1,1,0-9.06H127a4.53,4.53,0,1,1,0,9.06Z"/>
    <path d="M118.5,14.21a4.54,4.54,0,1,1,0-9.07H127a4.54,4.54,0,1,1,0,9.07Z"/>
  </g>
  <g id="components">
    <circle id="Reset_4" data-name="Reset 4" cx="76.93" cy="318.62" r="11.34" style="fill: #80ff80"/>
    <circle id="Out_4" data-name="Out 4" cx="123.68" cy="303.67" r="11.34" style="fill: #8080ff"/>
    <circle id="LED_4" data-name="LED 4" cx="100.81" cy="303.87" r="4.25" style="fill: #f0f"/>
    <circle id="Div_Mult_4_CV" data-name="Div Mult 4 CV" cx="76.93" cy="284.06" r="11.34" style="fill: lime"/>
    <circle id="Div_Mult_4" data-name="Div Mult 4" cx="29.78" cy="292.41" r="17.01" style="fill: #ff0080"/>
    <circle id="Clk_In_4" data-name="Clk In 4" cx="123.68" cy="269.11" r="11.34" style="fill: #80ff80"/>
    <circle id="Reset_3" data-name="Reset 3" cx="76.93" cy="249.5" r="11.34" style="fill: #80ff80"/>
    <circle id="Out_3" data-name="Out 3" cx="123.68" cy="228.07" r="11.34" style="fill: #8080ff"/>
    <circle id="LED_3" data-name="LED 3" cx="100.81" cy="228.27" r="4.25" style="fill: #f0f"/>
    <circle id="Div_Mult_3_CV" data-name="Div Mult 3 CV" cx="76.93" cy="214.94" r="11.34" style="fill: lime"/>
    <circle id="Div_Mult_3" data-name="Div Mult 3" cx="29.78" cy="223.29" r="17.01" style="fill: #ff0070"/>
    <circle id="Clk_In_3" data-name="Clk In 3" cx="123.68" cy="193.51" r="11.34" style="fill: #80ff80"/>
    <circle id="Reset_2" data-name="Reset 2" cx="76.93" cy="180.38" r="11.34" style="fill: #80ff80"/>
    <circle id="Out_2" data-name="Out 2" cx="123.68" cy="152.47" r="11.34" style="fill: #8080ff"/>
    <circle id="LED_2" data-name="LED 2" cx="100.81" cy="152.67" r="4.25" style="fill: #f0f"/>
    <circle id="Div_Mult_2_CV" data-name="Div Mult 2 CV" cx="76.93" cy="145.82" r="11.34" style="fill: lime"/>
    <circle id="Div_Mult_2" data-name="Div Mult 2" cx="29.78" cy="154.17" r="17.01" style="fill: #ff0020"/>
    <circle id="Clk_In_2" data-name="Clk In 2" cx="123.68" cy="117.91" r="11.34" style="fill: #80ff80"/>
    <circle id="Reset_1" data-name="Reset 1" cx="76.93" cy="111.26" r="11.34" style="fill: #80ff80"/>
    <circle id="Out_1" data-name="Out 1" cx="123.68" cy="76.87" r="11.34" style="fill: #8080ff"/>
    <circle id="LED_1" data-name="LED 1" cx="100.81" cy="77.07" r="4.25" style="fill: #f0f"/>
    <circle id="Div_Mult_1_CV" data-name="Div Mult 1 CV" cx="76.93" cy="76.7" r="11.34" style="fill: lime"/>
    <circle id="Div_Mult_1" data-name="Div Mult 1" cx="29.78" cy="85.05" r="17.01" style="fill: red"/>
    <circle id="Clk_In_1" data-name="Clk In 1" cx="123.68" cy="42.31" r="11.34" style="fill: #80ff80"/>
    <circle id="Tap_Out" data-name="Tap Out" cx="72.81" cy="42.6" r="11.34" style="fill: #8080ff"/>
    <circle id="Tap_Button" data-name="Tap Button" cx="20.08" cy="42.56" r="10.63" style="fill: #ffc000"/>
    <text id="slug" transform="translate(59.86 372.7)" style="font-size: 6px;font-family: MyriadPro-Regular, Myriad Pro">QCD</text>
    <text id="modulename" transform="translate(84.39 372.7)" style="font-size: 6px;font-family: MyriadPro-Regular, Myriad Pro"><tspan style="letter-spacing: 0.0030924479166666665em">Q</tspan><tspan x="4.15" y="0">uad Clock Dist</tspan><tspan x="39.73" y="0" style="letter-spacing: 0.004069010416666667em">r</tspan><tspan x="41.72" y="0" style="letter-spacing: -0.00016276041666666666em">ibu</tspan><tspan x="49.84" y="0" style="letter-spacing: -0.006022135416666667em">t</tspan><tspan x="51.79" y="0">or</tspan></text>
  </g>
</svg>
