<svg xmlns="http://www.w3.org/2000/svg" width="61.08mm" height="132.01mm" viewBox="0 0 173.14 374.2">
  <g id="faceplate">
    <rect x="0.13" y="0.13" width="171.83" height="364.25" style="fill: #ededed;stroke: #9d9d9e;stroke-miterlimit: 10;stroke-width: 0.25px"/>
    <path d="M169.62,140.38H145.54c-9,0-16.33,7.85-16.33,17.55s7.31,17.54,16.33,17.54h24.08" style="stroke: #000;stroke-width: 1.2919500000000002px"/>
    <path d="M169.62,99.87H145.54c-9,0-16.33-7.85-16.33-17.54s7.31-17.55,16.33-17.55h24.08" style="fill: #ec1c24;stroke: #000"/>
    <path d="M169.62,251.07H145.54c-9,0-16.33-7.85-16.33-17.54S136.52,216,145.54,216h24.08" style="fill: #5db0e2;stroke: #000"/>
    <path d="M169.62,326.67H145.54c-9,0-16.33-7.85-16.33-17.54s7.31-17.55,16.33-17.55h24.08" style="fill: #5ab947;stroke: #000;stroke-width: 1.1505400000000001px"/>
    <path d="M93.43,39.38H18.88c-9,0-16.33,7.86-16.33,17.55S9.86,74.48,18.88,74.48H88.17a25,25,0,0,1,5.26-35.1Z" style="fill: #ec1c24;stroke: #000"/>
    <path d="M93.43,115H18.88c-9,0-16.33,7.86-16.33,17.55s7.31,17.55,16.33,17.55H88.17A25,25,0,0,1,93.43,115Z" style="stroke: #000;stroke-width: 1.2919500000000002px"/>
    <path d="M93.43,190.58H18.88c-9,0-16.33,7.86-16.33,17.55s7.31,17.55,16.33,17.55H88.17a25,25,0,0,1,5.26-35.1Z" style="fill: #5db0e2;stroke: #000"/>
    <path d="M93.43,266.18H18.88c-9,0-16.33,7.86-16.33,17.55s7.31,17.55,16.33,17.55H88.17a25,25,0,0,1,5.26-35.1Z" style="fill: #5ab947;stroke: #000;stroke-width: 1.1505400000000001px"/>
    <g>
      <path d="M92.81,5.91,85.89,14.7V7.17a1.6,1.6,0,0,0-.8-1.47,1.13,1.13,0,0,0-1.41.37l-9.1,11.56a1.85,1.85,0,0,0,0,2.24,1.13,1.13,0,0,0,1.82-.05l6.87-8.73v7.53a1.61,1.61,0,0,0,.81,1.47,1.13,1.13,0,0,0,1.42-.37l6.91-8.79v7.69a1.32,1.32,0,1,0,2.58,0V7a1.62,1.62,0,0,0-.81-1.47A1.13,1.13,0,0,0,92.81,5.91Z" style="fill: #00adee;stroke: #00adee;stroke-width: 0.9623649999999999px"/>
      <path d="M74.58,5.82l-6,7.66a1.86,1.86,0,0,0,0,2.24,1.13,1.13,0,0,0,1.83,0s2-2.59,3.81-4.84v7.88a1.31,1.31,0,1,0,2.57,0V6.92A1.65,1.65,0,0,0,76,5.45,1.15,1.15,0,0,0,74.58,5.82Z" style="fill: #ec1c24;stroke: #ec1c24;stroke-width: 0.9623649999999999px"/>
      <path d="M103.27,11.47a1.31,1.31,0,0,0-1.19-1H99.45l1.92-2.44s1-1.47.12-2.28-2,.08-2,.08l-4,5.12a1.87,1.87,0,0,0-.26,1.72,1.32,1.32,0,0,0,1.19,1h2.64l-3.12,4s-1.3,1.41-.34,2.36,2.19-.17,2.19-.17L103,13.19A1.87,1.87,0,0,0,103.27,11.47Z" style="fill: #00a551;stroke: #00a551;stroke-width: 0.9623649999999999px"/>
    </g>
    <g>
      <path d="M53.59,352.92l-1.29,1.44a9.33,9.33,0,0,1-1.5-.55,11.4,11.4,0,0,1-1.5-.85,3.87,3.87,0,0,1-.88-.75,3.06,3.06,0,0,1-1-.68,3.46,3.46,0,0,1-.75-1.19,4.42,4.42,0,0,1-.3-1.68,4.75,4.75,0,0,1,.38-1.88,3.2,3.2,0,0,1,1.17-1.4,3.29,3.29,0,0,1,1.92-.54,3.51,3.51,0,0,1,1.53.32,3.06,3.06,0,0,1,1.09.84,3.77,3.77,0,0,1,.63,1.23,4.9,4.9,0,0,1,.21,1.43,4.73,4.73,0,0,1-.26,1.61,3.7,3.7,0,0,1-.69,1.17,3.43,3.43,0,0,1-1,.74,7.23,7.23,0,0,0,1,.45,3.33,3.33,0,0,0,1.14.18Zm-2.13-4.26a2.7,2.7,0,0,0-.11-.77,1.69,1.69,0,0,0-.3-.6,1.36,1.36,0,0,0-.5-.39,1.51,1.51,0,0,0-.68-.15,1.43,1.43,0,0,0-1.17.53,2.14,2.14,0,0,0-.42,1.38,2.09,2.09,0,0,0,.43,1.38,1.38,1.38,0,0,0,1.16.53,1.52,1.52,0,0,0,.86-.24,1.47,1.47,0,0,0,.54-.68A2.57,2.57,0,0,0,51.46,348.66Z"/>
      <path d="M59.94,351.83a4.29,4.29,0,0,1-.77.39,4.68,4.68,0,0,1-.8.2,5.73,5.73,0,0,1-.84.06,3.83,3.83,0,0,1-1.43-.26,3.05,3.05,0,0,1-1.09-.8,3.51,3.51,0,0,1-.7-1.22,5,5,0,0,1-.23-1.54,4.77,4.77,0,0,1,.27-1.68,3.27,3.27,0,0,1,.77-1.2,3.09,3.09,0,0,1,1.12-.71,3.9,3.9,0,0,1,1.32-.23,6.07,6.07,0,0,1,2.36.57v2a6.08,6.08,0,0,0-.9-.57,2.25,2.25,0,0,0-1-.23,2,2,0,0,0-1,.26,2,2,0,0,0-.74.74,2.11,2.11,0,0,0-.28,1.11,2.27,2.27,0,0,0,.24,1,2,2,0,0,0,.69.74,1.76,1.76,0,0,0,1,.28,2.63,2.63,0,0,0,.84-.13,4.32,4.32,0,0,0,.67-.29,5.64,5.64,0,0,0,.55-.39Z"/>
      <path d="M67.46,348.8a4.35,4.35,0,0,1-.34,1.84,3.89,3.89,0,0,1-.81,1.12,2.54,2.54,0,0,1-1.83.63h-3.3v-7.45h2.54a5.46,5.46,0,0,1,1,.08,3.12,3.12,0,0,1,.73.2,2.93,2.93,0,0,1,.56.3,3.44,3.44,0,0,1,.41.35,3.37,3.37,0,0,1,.54.73,3.85,3.85,0,0,1,.38,1A5.09,5.09,0,0,1,67.46,348.8Zm-1.87-.1a2.91,2.91,0,0,0-.29-1.41,1.48,1.48,0,0,0-.68-.68,2,2,0,0,0-.81-.17H63v4.41h.79a2,2,0,0,0,1.25-.42A2.17,2.17,0,0,0,65.59,348.7Z"/>
      <path d="M75.87,352.39h-4.6v-7.45H75.8v1.5H73.11v1.36h2.57v1.5H73.11v1.59h2.76Z"/>
      <path d="M84,352.39H81.63l-.64-.94-.39-.57c-.23-.34-.39-.58-.46-.71-.36.58-.64,1-.87,1.38l-.56.84H76.38L79,348.51l-2.47-3.57h2.35l.42.63q.36.54.87,1.35c.32-.57.57-1,.76-1.27l.48-.71h2.31l-2.37,3.57Z"/>
      <path d="M90.1,347.29a2.72,2.72,0,0,1-.12.8,2.36,2.36,0,0,1-.38.74,1.85,1.85,0,0,1-.7.55,2.41,2.41,0,0,1-1,.21H86.65v2.8H84.81v-7.45h3a2.28,2.28,0,0,1,1,.22,1.87,1.87,0,0,1,.7.56,2.36,2.36,0,0,1,.38.74A2.92,2.92,0,0,1,90.1,347.29Zm-1.88,0a.87.87,0,0,0-.26-.73,1.58,1.58,0,0,0-.92-.2h-.39v1.8h.4a3,3,0,0,0,.7-.07.59.59,0,0,0,.36-.26A1.15,1.15,0,0,0,88.22,347.3Z"/>
      <path d="M97.82,352.39H95.93l-.49-1.51H92.79l-.51,1.51H90.39l2.7-7.45h2ZM95,349.58l-.89-2.71-.9,2.71Z"/>
      <path d="M105.26,352.39h-1.64l-3.17-4.15v4.15H98.63v-7.45h1.63l3.16,4.13v-4.13h1.84Z"/>
      <path d="M113.07,348.8a4.35,4.35,0,0,1-.34,1.84,3.89,3.89,0,0,1-.81,1.12,2.54,2.54,0,0,1-1.84.63h-3.29v-7.45h2.54a5.46,5.46,0,0,1,1,.08,3.12,3.12,0,0,1,.73.2,2.93,2.93,0,0,1,.56.3,2.8,2.8,0,0,1,.41.35,3.37,3.37,0,0,1,.54.73,3.85,3.85,0,0,1,.38,1A5.09,5.09,0,0,1,113.07,348.8Zm-1.87-.1a2.91,2.91,0,0,0-.29-1.41,1.44,1.44,0,0,0-.68-.68,2,2,0,0,0-.81-.17h-.79v4.41h.79a2,2,0,0,0,1.25-.42A2.17,2.17,0,0,0,111.2,348.7Z"/>
      <path d="M118.81,352.39H114.2v-7.45h4.53v1.5H116v1.36h2.57v1.5H116v1.59h2.77Z"/>
      <path d="M126,352.39h-2l-.48-1.32A5.33,5.33,0,0,0,123,350a1,1,0,0,0-.42-.43,1.08,1.08,0,0,0-.51-.1h-.21v2.91H120v-7.45h3.13a2,2,0,0,1,1.24.38,2.06,2.06,0,0,1,.7.91,2.84,2.84,0,0,1,.22,1,2.45,2.45,0,0,1-.18,1,1.64,1.64,0,0,1-.38.56,3.93,3.93,0,0,1-.44.34,2.07,2.07,0,0,1,.48.5,6.6,6.6,0,0,1,.52,1.16Zm-2.5-5.09a.81.81,0,0,0-.28-.72,1.51,1.51,0,0,0-.9-.21h-.39v1.8h.4a1.67,1.67,0,0,0,.92-.18A.82.82,0,0,0,123.45,347.3Z"/>
    </g>
    <g>
      <path d="M137.61,105.29a2.43,2.43,0,0,1-.23,1.17,2.36,2.36,0,0,1-.55.71,1.81,1.81,0,0,1-1.25.4h-2.25v-4.73h1.73a4.38,4.38,0,0,1,.67,0,3.31,3.31,0,0,1,.5.13,2.24,2.24,0,0,1,.38.19,2.09,2.09,0,0,1,.28.22,2.13,2.13,0,0,1,.37.47,2.25,2.25,0,0,1,.26.63A3.07,3.07,0,0,1,137.61,105.29Zm-1.28-.06a1.72,1.72,0,0,0-.19-.9.92.92,0,0,0-.47-.43,1.32,1.32,0,0,0-.55-.11h-.54v2.8h.54a1.43,1.43,0,0,0,.85-.26A1.33,1.33,0,0,0,136.33,105.23Z"/>
      <path d="M139.11,107.57H138v-3.48h1.09Zm-.09-4.28a.55.55,0,0,1-.14.37.41.41,0,0,1-.32.15.48.48,0,0,1-.23-.07.49.49,0,0,1-.16-.19.59.59,0,0,1,.07-.63.42.42,0,0,1,.64,0A.57.57,0,0,1,139,103.29Z"/>
      <path d="M142.83,104.09l-1.39,3.48h-.8l-1.36-3.48h1.16l.64,1.83.7-1.83Z"/>
      <path d="M145.77,102.77l-2.27,4.86h-.8l2.26-4.86Z"/>
      <path d="M151,107.57h-1.26v-2.74l-1.13,1.59h-.1l-1.14-1.59v2.74h-1.22v-4.73h1.14l1.28,1.77,1.29-1.77H151Z"/>
      <path d="M154.84,107.57h-1.08v-.49a2,2,0,0,1-.48.42,1.28,1.28,0,0,1-.61.13.86.86,0,0,1-.89-.46,2.43,2.43,0,0,1-.21-1v-2h1.09V106a1.28,1.28,0,0,0,.08.5.34.34,0,0,0,.36.21.47.47,0,0,0,.37-.15,2.19,2.19,0,0,0,.29-.39v-2h1.08Z"/>
      <path d="M156.43,107.57h-1.09v-4.73h1.09Z"/>
      <path d="M159.34,107.37a2.45,2.45,0,0,1-.46.18,2,2,0,0,1-.57.08q-1.17,0-1.17-1.29V105h-.49v-.22l1.45-1.68h.13v1h1V105h-1v1.11a1.47,1.47,0,0,0,0,.32.3.3,0,0,0,.12.2.46.46,0,0,0,.29.08,1.39,1.39,0,0,0,.68-.25Z"/>
      <path d="M165.06,107.22a2.53,2.53,0,0,1-.53.24,2.69,2.69,0,0,1-.54.14,5.17,5.17,0,0,1-.57,0,2.55,2.55,0,0,1-1-.17,2.19,2.19,0,0,1-.75-.5,2.07,2.07,0,0,1-.47-.78,2.8,2.8,0,0,1-.16-1,2.73,2.73,0,0,1,.19-1.07,2.08,2.08,0,0,1,1.28-1.21,2.76,2.76,0,0,1,.91-.15,4.42,4.42,0,0,1,1.61.36v1.26a4.05,4.05,0,0,0-.62-.37,1.7,1.7,0,0,0-.71-.14,1.45,1.45,0,0,0-.68.16,1.35,1.35,0,0,0-.53,1.84,1.18,1.18,0,0,0,.47.47,1.27,1.27,0,0,0,.67.18,2.14,2.14,0,0,0,.58-.08,2.43,2.43,0,0,0,.45-.19,4,4,0,0,0,.38-.24Z"/>
      <path d="M169.74,102.84l-1.88,4.79H167l-1.84-4.79h1.31l.95,2.73,1-2.73Z"/>
    </g>
    <g>
      <path d="M137.61,180.89a2.43,2.43,0,0,1-.23,1.17,2.36,2.36,0,0,1-.55.71,1.81,1.81,0,0,1-1.25.4h-2.25v-4.73h1.73a4.38,4.38,0,0,1,.67,0,3.31,3.31,0,0,1,.5.13,2.24,2.24,0,0,1,.38.19,2.09,2.09,0,0,1,.28.22,2.13,2.13,0,0,1,.37.47,2.25,2.25,0,0,1,.26.63A3.13,3.13,0,0,1,137.61,180.89Zm-1.28-.06a1.72,1.72,0,0,0-.19-.9.92.92,0,0,0-.47-.43,1.32,1.32,0,0,0-.55-.11h-.54v2.8h.54a1.43,1.43,0,0,0,.85-.26A1.33,1.33,0,0,0,136.33,180.83Z"/>
      <path d="M139.11,183.17H138v-3.48h1.09Zm-.09-4.28a.55.55,0,0,1-.14.37.41.41,0,0,1-.32.15.48.48,0,0,1-.23-.07.49.49,0,0,1-.16-.19.55.55,0,0,1-.06-.26.52.52,0,0,1,.13-.36.4.4,0,0,1,.64,0A.52.52,0,0,1,139,178.89Z"/>
      <path d="M142.83,179.69l-1.39,3.48h-.8l-1.36-3.48h1.16l.64,1.83.7-1.83Z"/>
      <path d="M145.77,178.37l-2.27,4.87h-.8l2.26-4.87Z"/>
      <path d="M151,183.17h-1.26v-2.74L148.6,182h-.1l-1.14-1.59v2.74h-1.22v-4.73h1.14l1.28,1.77,1.29-1.77H151Z"/>
      <path d="M154.84,183.17h-1.08v-.49a1.83,1.83,0,0,1-.48.42,1.28,1.28,0,0,1-.61.14.87.87,0,0,1-.89-.46,2.51,2.51,0,0,1-.21-1v-2.05h1.09v1.88a1.28,1.28,0,0,0,.08.5.34.34,0,0,0,.36.22.47.47,0,0,0,.37-.16,2.19,2.19,0,0,0,.29-.39v-2.05h1.08Z"/>
      <path d="M156.43,183.17h-1.09v-4.73h1.09Z"/>
      <path d="M159.34,183a2.45,2.45,0,0,1-.46.18,2,2,0,0,1-.57.09c-.78,0-1.17-.44-1.17-1.3v-1.39h-.49v-.22l1.45-1.68h.13v1h1v.86h-1v1.11a1.47,1.47,0,0,0,0,.32.3.3,0,0,0,.12.2.46.46,0,0,0,.29.08,1.39,1.39,0,0,0,.68-.25Z"/>
      <path d="M165.06,182.82a2.53,2.53,0,0,1-.53.24,2.69,2.69,0,0,1-.54.14,5.1,5.1,0,0,1-.57,0,2.55,2.55,0,0,1-1-.18,2.19,2.19,0,0,1-.75-.5,2.07,2.07,0,0,1-.47-.78,2.8,2.8,0,0,1-.16-1,2.73,2.73,0,0,1,.19-1.07,2.08,2.08,0,0,1,1.28-1.21,2.76,2.76,0,0,1,.91-.15,4.42,4.42,0,0,1,1.61.36V180a4.05,4.05,0,0,0-.62-.37,1.7,1.7,0,0,0-.71-.14,1.45,1.45,0,0,0-.68.16,1.35,1.35,0,0,0-.53,1.84,1.27,1.27,0,0,0,.47.48,1.36,1.36,0,0,0,.67.17,2.14,2.14,0,0,0,.58-.08,2.43,2.43,0,0,0,.45-.19,4,4,0,0,0,.38-.24Z"/>
      <path d="M169.74,178.44l-1.88,4.8H167l-1.84-4.8h1.31l.95,2.73,1-2.73Z"/>
    </g>
    <g>
      <path d="M137.61,256.49a2.43,2.43,0,0,1-.23,1.17,2.36,2.36,0,0,1-.55.71,1.81,1.81,0,0,1-1.25.4h-2.25V254h1.73a4.38,4.38,0,0,1,.67,0,3.31,3.31,0,0,1,.5.13,2.24,2.24,0,0,1,.38.19,2.09,2.09,0,0,1,.28.22,2.13,2.13,0,0,1,.37.47,2.25,2.25,0,0,1,.26.63A3.07,3.07,0,0,1,137.61,256.49Zm-1.28-.06a1.72,1.72,0,0,0-.19-.9.92.92,0,0,0-.47-.43,1.32,1.32,0,0,0-.55-.11h-.54v2.8h.54a1.43,1.43,0,0,0,.85-.26A1.33,1.33,0,0,0,136.33,256.43Z"/>
      <path d="M139.11,258.77H138v-3.48h1.09Zm-.09-4.28a.55.55,0,0,1-.14.37.41.41,0,0,1-.32.15.48.48,0,0,1-.23-.07.49.49,0,0,1-.16-.19.59.59,0,0,1,.07-.63.42.42,0,0,1,.64,0A.57.57,0,0,1,139,254.49Z"/>
      <path d="M142.83,255.29l-1.39,3.48h-.8l-1.36-3.48h1.16l.64,1.83.7-1.83Z"/>
      <path d="M145.77,254l-2.27,4.86h-.8L145,254Z"/>
      <path d="M151,258.77h-1.26V256l-1.13,1.59h-.1L147.36,256v2.74h-1.22V254h1.14l1.28,1.77,1.29-1.77H151Z"/>
      <path d="M154.84,258.77h-1.08v-.49a2,2,0,0,1-.48.42,1.28,1.28,0,0,1-.61.13.86.86,0,0,1-.89-.46,2.43,2.43,0,0,1-.21-1v-2h1.09v1.88a1.28,1.28,0,0,0,.08.5.34.34,0,0,0,.36.21.47.47,0,0,0,.37-.15,2.19,2.19,0,0,0,.29-.39v-2h1.08Z"/>
      <path d="M156.43,258.77h-1.09V254h1.09Z"/>
      <path d="M159.34,258.57a2.45,2.45,0,0,1-.46.18,2,2,0,0,1-.57.08q-1.17,0-1.17-1.29v-1.39h-.49v-.22l1.45-1.68h.13v1h1v.86h-1v1.11a1.47,1.47,0,0,0,0,.32.3.3,0,0,0,.12.2.46.46,0,0,0,.29.08,1.39,1.39,0,0,0,.68-.25Z"/>
      <path d="M165.06,258.42a2.53,2.53,0,0,1-.53.24,2.69,2.69,0,0,1-.54.14,5.17,5.17,0,0,1-.57,0,2.55,2.55,0,0,1-1-.17,2.19,2.19,0,0,1-.75-.5,2.07,2.07,0,0,1-.47-.78,2.8,2.8,0,0,1-.16-1,2.73,2.73,0,0,1,.19-1.07,2.08,2.08,0,0,1,1.28-1.21,2.76,2.76,0,0,1,.91-.15,4.42,4.42,0,0,1,1.61.36v1.26a4.05,4.05,0,0,0-.62-.37,1.7,1.7,0,0,0-.71-.14,1.45,1.45,0,0,0-.68.16,1.35,1.35,0,0,0-.53,1.84,1.18,1.18,0,0,0,.47.47,1.27,1.27,0,0,0,.67.18,2.14,2.14,0,0,0,.58-.08,2.43,2.43,0,0,0,.45-.19,4,4,0,0,0,.38-.24Z"/>
      <path d="M169.74,254l-1.88,4.79H167L165.19,254h1.31l.95,2.73,1-2.73Z"/>
    </g>
    <g>
      <path d="M137.61,332.09a2.43,2.43,0,0,1-.23,1.17,2.36,2.36,0,0,1-.55.71,1.81,1.81,0,0,1-1.25.4h-2.25v-4.73h1.73a4.38,4.38,0,0,1,.67,0,3.31,3.31,0,0,1,.5.13,2.24,2.24,0,0,1,.38.19,2.09,2.09,0,0,1,.28.22,2.13,2.13,0,0,1,.37.47,2.25,2.25,0,0,1,.26.63A3.07,3.07,0,0,1,137.61,332.09Zm-1.28-.06a1.72,1.72,0,0,0-.19-.9.92.92,0,0,0-.47-.43,1.32,1.32,0,0,0-.55-.11h-.54v2.8h.54a1.43,1.43,0,0,0,.85-.26A1.33,1.33,0,0,0,136.33,332Z"/>
      <path d="M139.11,334.37H138v-3.48h1.09Zm-.09-4.28a.55.55,0,0,1-.14.37.41.41,0,0,1-.32.15.48.48,0,0,1-.23-.07.49.49,0,0,1-.16-.19.55.55,0,0,1-.06-.26.52.52,0,0,1,.13-.36.4.4,0,0,1,.64,0A.52.52,0,0,1,139,330.09Z"/>
      <path d="M142.83,330.89l-1.39,3.48h-.8l-1.36-3.48h1.16l.64,1.83.7-1.83Z"/>
      <path d="M145.77,329.57l-2.27,4.87h-.8l2.26-4.87Z"/>
      <path d="M151,334.37h-1.26v-2.74l-1.13,1.59h-.1l-1.14-1.59v2.74h-1.22v-4.73h1.14l1.28,1.77,1.29-1.77H151Z"/>
      <path d="M154.84,334.37h-1.08v-.49a2,2,0,0,1-.48.42,1.28,1.28,0,0,1-.61.14.87.87,0,0,1-.89-.46,2.51,2.51,0,0,1-.21-1v-2.05h1.09v1.88a1.28,1.28,0,0,0,.08.5.34.34,0,0,0,.36.21.47.47,0,0,0,.37-.15,2.19,2.19,0,0,0,.29-.39v-2.05h1.08Z"/>
      <path d="M156.43,334.37h-1.09v-4.73h1.09Z"/>
      <path d="M159.34,334.17a2.45,2.45,0,0,1-.46.18,2,2,0,0,1-.57.09c-.78,0-1.17-.44-1.17-1.3v-1.39h-.49v-.22l1.45-1.68h.13v1h1v.86h-1v1.11a1.47,1.47,0,0,0,0,.32.3.3,0,0,0,.12.2.46.46,0,0,0,.29.08,1.39,1.39,0,0,0,.68-.25Z"/>
      <path d="M165.06,334a2.53,2.53,0,0,1-.53.24,2.69,2.69,0,0,1-.54.14,5.1,5.1,0,0,1-.57,0,2.55,2.55,0,0,1-1-.18,2.19,2.19,0,0,1-.75-.5,2.07,2.07,0,0,1-.47-.78,2.8,2.8,0,0,1-.16-1,2.73,2.73,0,0,1,.19-1.07,2.08,2.08,0,0,1,1.28-1.21,2.76,2.76,0,0,1,.91-.15,4.42,4.42,0,0,1,1.61.36v1.26a4.05,4.05,0,0,0-.62-.37,1.7,1.7,0,0,0-.71-.14,1.45,1.45,0,0,0-.68.16,1.35,1.35,0,0,0-.53,1.84,1.18,1.18,0,0,0,.47.47,1.27,1.27,0,0,0,.67.18,2.14,2.14,0,0,0,.58-.08,2.43,2.43,0,0,0,.45-.19,4,4,0,0,0,.38-.24Z"/>
      <path d="M169.74,329.64l-1.88,4.8H167l-1.84-4.8h1.31l.95,2.73,1-2.73Z"/>
    </g>
    <g>
      <path d="M94.33,86.89,94,87l-.24.08-.33.1a4.5,4.5,0,0,1-.73.15,4.75,4.75,0,0,1-.77.05,3.35,3.35,0,0,1-1.51-.34,2.55,2.55,0,0,1-1.11-1,3.46,3.46,0,0,1-.41-1.75A4.22,4.22,0,0,1,89.14,83a2.33,2.33,0,0,1,.66-1,3.46,3.46,0,0,1,.73-.49,2.74,2.74,0,0,1,.73-.22,5.54,5.54,0,0,1,2,.06c.3.08.64.19,1,.32V83a4,4,0,0,0-.77-.4,2.71,2.71,0,0,0-1-.17,1.9,1.9,0,0,0-1.12.3,1.59,1.59,0,0,0-.58.72,2.2,2.2,0,0,0-.16.81,2,2,0,0,0,.18.85,1.53,1.53,0,0,0,.58.63,1.77,1.77,0,0,0,.92.23,2.61,2.61,0,0,0,.66-.09v-.72h-.73V84h2.14Z"/>
      <path d="M99.14,87.1c-.2.09-.39.16-.56.22a2.3,2.3,0,0,1-.63.08.63.63,0,0,1-.48-.14.78.78,0,0,1-.19-.33,1.92,1.92,0,0,1-.5.34,1.63,1.63,0,0,1-.72.13,1.22,1.22,0,0,1-.69-.17.88.88,0,0,1-.37-.42,1.4,1.4,0,0,1-.11-.53,1.22,1.22,0,0,1,.18-.69,1.53,1.53,0,0,1,.5-.44,5.73,5.73,0,0,1,.82-.35l.44-.16.22-.09.15-.08a1,1,0,0,0-.11-.51.58.58,0,0,0-.51-.18,1.56,1.56,0,0,0-.84.23,3,3,0,0,0-.72.58V83.38a2.77,2.77,0,0,1,1.19-.54,3,3,0,0,1,.67-.07,1.88,1.88,0,0,1,1.28.38,1.29,1.29,0,0,1,.44,1v1.73a1.22,1.22,0,0,0,0,.37.14.14,0,0,0,.15.12.9.9,0,0,0,.35-.13Zm-1.94-.86V85.18a4.12,4.12,0,0,0-.72.41.63.63,0,0,0-.23.5.45.45,0,0,0,.12.34.34.34,0,0,0,.26.12.55.55,0,0,0,.29-.09A1.79,1.79,0,0,0,97.2,86.24Z"/>
      <path d="M102.37,87.06a3,3,0,0,1-.6.23,2.4,2.4,0,0,1-.73.11c-1,0-1.5-.55-1.5-1.67V84h-.63v-.28l1.86-2.16h.16v1.34h1.33V84h-1.33v1.43a2.29,2.29,0,0,0,0,.41.44.44,0,0,0,.15.25.59.59,0,0,0,.38.11,1.93,1.93,0,0,0,.88-.32Z"/>
      <path d="M106.7,85.47h-2.77a1.13,1.13,0,0,0,.39.67,1.14,1.14,0,0,0,.72.26A3.4,3.4,0,0,0,106.6,86v1a3.65,3.65,0,0,1-.74.32,3.46,3.46,0,0,1-1.11.15,2.31,2.31,0,0,1-1.24-.31,1.9,1.9,0,0,1-.76-.83,2.71,2.71,0,0,1-.26-1.2,2.66,2.66,0,0,1,.26-1.18,1.86,1.86,0,0,1,.76-.81,2.4,2.4,0,0,1,1.24-.3,2,2,0,0,1,.93.24,1.79,1.79,0,0,1,.73.76,2.94,2.94,0,0,1,.29,1.38Zm-1.31-.78a1.11,1.11,0,0,0-.19-.69.62.62,0,0,0-.54-.26.7.7,0,0,0-.56.26,1.09,1.09,0,0,0-.21.69Z"/>
      <path d="M114,83.15a2.51,2.51,0,0,1-.1.66,1.77,1.77,0,0,1-.33.6,1.61,1.61,0,0,1-.62.45A2.19,2.19,0,0,1,112,85h-1.06v2.28h-1.61V81.23H112a2.19,2.19,0,0,1,.92.18,1.73,1.73,0,0,1,.62.46,1.81,1.81,0,0,1,.33.61A2.53,2.53,0,0,1,114,83.15Zm-1.65,0a.67.67,0,0,0-.23-.6,1.52,1.52,0,0,0-.8-.16h-.35v1.47h.35a2.43,2.43,0,0,0,.62-.06.48.48,0,0,0,.31-.21A.78.78,0,0,0,112.32,83.16Z"/>
      <path d="M123.23,81.23l-2.32,6.17H120l-1.39-3.59-1.42,3.59h-1l-2.27-6.17h1.67l1.12,3.38L118,81.23h1.16l1.25,3.38,1.17-3.38Z"/>
      <path d="M87,97.44h-1c-.19-.18-.4-.38-.6-.6a6.05,6.05,0,0,1-.63-.85,5.25,5.25,0,0,1-.56-1.19,5.06,5.06,0,0,1-.22-1.49,4.64,4.64,0,0,1,.36-1.86,5.86,5.86,0,0,1,.76-1.34,11.37,11.37,0,0,1,.89-1h1c-.28.36-.53.7-.74,1a5.53,5.53,0,0,0-.57,1.3,6,6,0,0,0-.25,1.83,6.07,6.07,0,0,0,.25,1.84,5.49,5.49,0,0,0,.56,1.27A12.46,12.46,0,0,0,87,97.44Z"/>
      <path d="M92.18,90.71h-2v4.61H88.6V90.71h-2V89.23h5.54Z"/>
      <path d="M96,91.09l-.51,1.59a.91.91,0,0,0-.65-.35.67.67,0,0,0-.5.23,2.3,2.3,0,0,0-.42.84v1.92H92.57V90.85H94v1.08a2.29,2.29,0,0,1,.47-.78,1,1,0,0,1,.78-.38,1,1,0,0,1,.41.08A2.4,2.4,0,0,1,96,91.09Z"/>
      <path d="M97.63,95.32H96.24V90.85h1.39Zm-.11-5.5a.71.71,0,0,1-.17.47.55.55,0,0,1-.42.19.52.52,0,0,1-.29-.09.61.61,0,0,1-.21-.24.73.73,0,0,1-.08-.33.71.71,0,0,1,.17-.47.5.5,0,0,1,.41-.2.53.53,0,0,1,.42.2A.71.71,0,0,1,97.52,89.82Z"/>
      <path d="M102.24,91.8h-.69a1.21,1.21,0,0,1,.36.89,1.39,1.39,0,0,1-.1.53,1.37,1.37,0,0,1-.3.45A1.54,1.54,0,0,1,101,94a2,2,0,0,1-.67.16c-.32,0-.48.11-.48.29a.18.18,0,0,0,.06.15.37.37,0,0,0,.19.08l.45,0a4.22,4.22,0,0,1,.67.12,1.36,1.36,0,0,1,.58.37,1.13,1.13,0,0,1,.27.81,1.41,1.41,0,0,1-.2.74,1.35,1.35,0,0,1-.65.5,3.12,3.12,0,0,1-1.17.18,3,3,0,0,1-1.55-.32,1,1,0,0,1-.49-.86,1.05,1.05,0,0,1,.06-.33,1,1,0,0,1,.27-.37,1.18,1.18,0,0,1,.61-.24.43.43,0,0,1-.24-.22.61.61,0,0,1-.1-.34.85.85,0,0,1,.14-.47.63.63,0,0,1,.45-.29,1.63,1.63,0,0,1-.76-.5,1.37,1.37,0,0,1-.32-.94,1.86,1.86,0,0,1,.15-.77,1.49,1.49,0,0,1,.41-.54,1.83,1.83,0,0,1,.61-.3,2.71,2.71,0,0,1,.77-.1h2.16ZM101,96.16a.36.36,0,0,0-.28-.38,1.79,1.79,0,0,0-.57-.09,1.51,1.51,0,0,0-.7.12.39.39,0,0,0-.21.37c0,.33.29.5.89.5a1.28,1.28,0,0,0,.63-.13A.43.43,0,0,0,101,96.16Zm-.28-3.6a.73.73,0,0,0-.2-.54.63.63,0,0,0-.46-.21.58.58,0,0,0-.5.25.82.82,0,0,0-.19.52.85.85,0,0,0,.08.35.64.64,0,0,0,.23.26.55.55,0,0,0,.34.1.63.63,0,0,0,.5-.22A.73.73,0,0,0,100.7,92.56Z"/>
      <path d="M110.19,92.39a3.22,3.22,0,0,1-.3,1.5,3.19,3.19,0,0,1-.7.92,2.37,2.37,0,0,1-1.62.51h-2.89V89.23h2.23a5.34,5.34,0,0,1,.86.06,3.49,3.49,0,0,1,.64.17,2.24,2.24,0,0,1,.49.24,2.68,2.68,0,0,1,.36.29,2.88,2.88,0,0,1,.48.6,3,3,0,0,1,.33.8A4,4,0,0,1,110.19,92.39Zm-1.64-.08a2.22,2.22,0,0,0-.25-1.16,1.33,1.33,0,0,0-.6-.56,2,2,0,0,0-.71-.14h-.69v3.61H107a1.75,1.75,0,0,0,1.09-.34A1.69,1.69,0,0,0,108.55,92.31Z"/>
      <path d="M114.68,93.47h-2.77a1.14,1.14,0,0,0,.4.67,1.12,1.12,0,0,0,.72.26,3.36,3.36,0,0,0,1.55-.45v1a3.42,3.42,0,0,1-.74.32,3.46,3.46,0,0,1-1.11.15,2.29,2.29,0,0,1-1.23-.31,1.93,1.93,0,0,1-.77-.83,2.71,2.71,0,0,1-.25-1.2,2.65,2.65,0,0,1,.25-1.18,1.88,1.88,0,0,1,.77-.81,2.39,2.39,0,0,1,1.23-.3,2,2,0,0,1,.93.24,1.74,1.74,0,0,1,.73.76,2.82,2.82,0,0,1,.29,1.38Zm-1.31-.78a1.18,1.18,0,0,0-.18-.69.65.65,0,0,0-.54-.26.73.73,0,0,0-.57.26,1.09,1.09,0,0,0-.21.69Z"/>
      <path d="M116.52,95.32h-1.4V89.23h1.4Z"/>
      <path d="M121.24,95.1c-.2.09-.39.16-.56.22a2.3,2.3,0,0,1-.63.08.6.6,0,0,1-.47-.14.79.79,0,0,1-.2-.33,1.92,1.92,0,0,1-.5.34,1.63,1.63,0,0,1-.72.13,1.22,1.22,0,0,1-.69-.17.88.88,0,0,1-.37-.42,1.4,1.4,0,0,1-.11-.53,1.22,1.22,0,0,1,.18-.69,1.53,1.53,0,0,1,.5-.44,5.73,5.73,0,0,1,.82-.35l.44-.16.22-.09.15-.08a.92.92,0,0,0-.11-.51.57.57,0,0,0-.5-.18,1.57,1.57,0,0,0-.85.23,3,3,0,0,0-.72.58V91.38a2.7,2.7,0,0,1,.56-.34,2.88,2.88,0,0,1,.63-.2,3,3,0,0,1,.67-.07,1.93,1.93,0,0,1,1.29.38,1.31,1.31,0,0,1,.43,1v1.73a1.22,1.22,0,0,0,0,.37.14.14,0,0,0,.15.12.9.9,0,0,0,.35-.13Zm-1.94-.86V93.18a4.12,4.12,0,0,0-.72.41.63.63,0,0,0-.23.5.45.45,0,0,0,.12.34.34.34,0,0,0,.26.12.55.55,0,0,0,.29-.09A1.79,1.79,0,0,0,119.3,94.24Z"/>
      <path d="M125.58,90.85l-2.67,6.51H121.5l1.08-2.62L121,90.85h1.5l.8,2.22.91-2.22Z"/>
      <path d="M128,93.27a4.73,4.73,0,0,1-.22,1.48,5.58,5.58,0,0,1-1.19,2.08c-.21.23-.41.43-.6.61h-1a10.15,10.15,0,0,0,.75-1,5.53,5.53,0,0,0,.57-1.3,6.43,6.43,0,0,0,.25-1.83,6.35,6.35,0,0,0-.25-1.84,5.69,5.69,0,0,0-.56-1.27c-.21-.31-.46-.66-.76-1h1a8,8,0,0,1,.85.88,5.52,5.52,0,0,1,.8,1.38A4.67,4.67,0,0,1,128,93.27Z"/>
    </g>
    <g>
      <path d="M108.14,40a19.9,19.9,0,0,1,2.45.17l.39-2.22a21.32,21.32,0,0,0-5.68,0l.38,2.22A20.06,20.06,0,0,1,108.14,40Z"/>
      <path d="M122.63,46.34l1.73-1.45A22.06,22.06,0,0,0,120,41.23l-1.12,1.94A20.2,20.2,0,0,1,122.63,46.34Z"/>
      <path d="M117.16,42.17l1.13-1.94a21.49,21.49,0,0,0-5.34-2l-.39,2.21A20.09,20.09,0,0,1,117.16,42.17Z"/>
      <path d="M126.37,52.11l2.1-.77a22.23,22.23,0,0,0-2.83-4.92l-1.73,1.45A19.88,19.88,0,0,1,126.37,52.11Z"/>
      <path d="M103.72,40.48l-.39-2.21A21.57,21.57,0,0,0,98,40.22l1.12,2A20.17,20.17,0,0,1,103.72,40.48Z"/>
      <path d="M127.85,58.8h2.26a22,22,0,0,0-1-5.58L127,54A19.14,19.14,0,0,1,127.85,58.8Z"/>
      <path d="M127,65.6l2.1.77a22.17,22.17,0,0,0,1-5.57h-2.24A19.74,19.74,0,0,1,127,65.6Z"/>
      <path d="M123.85,71.68l1.72,1.44a22.46,22.46,0,0,0,2.84-4.88l-2.11-.76A19.63,19.63,0,0,1,123.85,71.68Z"/>
      <path d="M92.36,47.87l-1.72-1.45a21.63,21.63,0,0,0-2.83,4.92l2.1.76A19.77,19.77,0,0,1,92.36,47.87Z"/>
      <path d="M89.23,54l-2.11-.77a21.88,21.88,0,0,0-1,5.58h2.26A19.6,19.6,0,0,1,89.23,54Z"/>
      <path d="M88.41,60.8H86.17a22,22,0,0,0,1,5.56l2.1-.76A19.74,19.74,0,0,1,88.41,60.8Z"/>
      <path d="M90,67.48l-2.1.76a22.06,22.06,0,0,0,2.84,4.88l1.71-1.44A20.31,20.31,0,0,1,90,67.48Z"/>
      <path d="M118.83,76.32,120,78.26a22.5,22.5,0,0,0,4.32-3.62l-1.71-1.43A20,20,0,0,1,118.83,76.32Z"/>
      <path d="M93.72,73.2,92,74.64a22.5,22.5,0,0,0,4.32,3.62l1.12-1.94A19.62,19.62,0,0,1,93.72,73.2Z"/>
      <path d="M97.38,43.17l-1.12-1.94a22.06,22.06,0,0,0-4.34,3.66l1.72,1.45A20.26,20.26,0,0,1,97.38,43.17Z"/>
    </g>
    <g>
      <path d="M108.14,115.85a19.9,19.9,0,0,1,2.45.17l.39-2.21a21.32,21.32,0,0,0-5.68,0l.38,2.21A20.06,20.06,0,0,1,108.14,115.85Z"/>
      <path d="M122.63,122.23l1.73-1.45a22.06,22.06,0,0,0-4.34-3.66l-1.12,1.94A19.82,19.82,0,0,1,122.63,122.23Z"/>
      <path d="M117.16,118.06l1.13-2a21.87,21.87,0,0,0-5.34-2l-.39,2.21A19.19,19.19,0,0,1,117.16,118.06Z"/>
      <path d="M126.37,128l2.1-.76a22,22,0,0,0-2.83-4.92l-1.73,1.45A19.81,19.81,0,0,1,126.37,128Z"/>
      <path d="M103.72,116.37l-.39-2.21a21.57,21.57,0,0,0-5.34,2l1.12,2A19.27,19.27,0,0,1,103.72,116.37Z"/>
      <path d="M127.85,134.69h2.26a21.88,21.88,0,0,0-1-5.58l-2.11.77A19.06,19.06,0,0,1,127.85,134.69Z"/>
      <path d="M127,141.49l2.1.76a22.09,22.09,0,0,0,1-5.56h-2.24A19.92,19.92,0,0,1,127,141.49Z"/>
      <path d="M123.85,147.57l1.72,1.44a22.46,22.46,0,0,0,2.84-4.88l-2.11-.77A19.7,19.7,0,0,1,123.85,147.57Z"/>
      <path d="M92.36,123.76l-1.72-1.45a21.63,21.63,0,0,0-2.83,4.92l2.1.76A19.77,19.77,0,0,1,92.36,123.76Z"/>
      <path d="M89.23,129.87l-2.11-.76a21.81,21.81,0,0,0-1,5.58h2.26A19.68,19.68,0,0,1,89.23,129.87Z"/>
      <path d="M88.41,136.69H86.17a22.09,22.09,0,0,0,1,5.56l2.1-.76A19.92,19.92,0,0,1,88.41,136.69Z"/>
      <path d="M90,143.36l-2.1.77A21.77,21.77,0,0,0,90.71,149l1.71-1.43A20.12,20.12,0,0,1,90,143.36Z"/>
      <path d="M118.83,152.21l1.12,1.93a22.09,22.09,0,0,0,4.32-3.61l-1.71-1.44A19.68,19.68,0,0,1,118.83,152.21Z"/>
      <path d="M93.72,149.09,92,150.53a22.09,22.09,0,0,0,4.32,3.61l1.12-1.93A19.62,19.62,0,0,1,93.72,149.09Z"/>
      <path d="M97.38,119.06l-1.12-1.94a22.06,22.06,0,0,0-4.34,3.66l1.72,1.44A20.21,20.21,0,0,1,97.38,119.06Z"/>
    </g>
    <g>
      <path d="M108.14,191.45a19.9,19.9,0,0,1,2.45.17l.39-2.21a21.32,21.32,0,0,0-5.68,0l.38,2.21A20.06,20.06,0,0,1,108.14,191.45Z"/>
      <path d="M122.63,197.83l1.73-1.45a22.06,22.06,0,0,0-4.34-3.66l-1.12,1.94A19.82,19.82,0,0,1,122.63,197.83Z"/>
      <path d="M117.16,193.66l1.13-1.95a21.87,21.87,0,0,0-5.34-2l-.39,2.21A19.19,19.19,0,0,1,117.16,193.66Z"/>
      <path d="M126.37,203.59l2.1-.76a22,22,0,0,0-2.83-4.92l-1.73,1.45A19.81,19.81,0,0,1,126.37,203.59Z"/>
      <path d="M103.72,192l-.39-2.21a21.57,21.57,0,0,0-5.34,2l1.12,1.95A19.27,19.27,0,0,1,103.72,192Z"/>
      <path d="M127.85,210.29h2.26a21.88,21.88,0,0,0-1-5.58l-2.11.77A19.14,19.14,0,0,1,127.85,210.29Z"/>
      <path d="M127,217.09l2.1.76a22.09,22.09,0,0,0,1-5.56h-2.24A19.92,19.92,0,0,1,127,217.09Z"/>
      <path d="M123.85,223.17l1.72,1.44a22.46,22.46,0,0,0,2.84-4.88L126.3,219A19.7,19.7,0,0,1,123.85,223.17Z"/>
      <path d="M92.36,199.36l-1.72-1.45a21.63,21.63,0,0,0-2.83,4.92l2.1.76A19.77,19.77,0,0,1,92.36,199.36Z"/>
      <path d="M89.23,205.47l-2.11-.76a21.81,21.81,0,0,0-1,5.58h2.26A19.68,19.68,0,0,1,89.23,205.47Z"/>
      <path d="M88.41,212.29H86.17a22.09,22.09,0,0,0,1,5.56l2.1-.76A19.92,19.92,0,0,1,88.41,212.29Z"/>
      <path d="M90,219l-2.1.77a22.06,22.06,0,0,0,2.84,4.88l1.71-1.44A20.12,20.12,0,0,1,90,219Z"/>
      <path d="M118.83,227.81l1.12,1.93a22.09,22.09,0,0,0,4.32-3.61l-1.71-1.44A19.68,19.68,0,0,1,118.83,227.81Z"/>
      <path d="M93.72,224.69,92,226.13a22.09,22.09,0,0,0,4.32,3.61l1.12-1.93A19.62,19.62,0,0,1,93.72,224.69Z"/>
      <path d="M97.38,194.66l-1.12-1.94a22.06,22.06,0,0,0-4.34,3.66l1.72,1.44A20.21,20.21,0,0,1,97.38,194.66Z"/>
    </g>
    <g>
      <path d="M108.14,267.05a19.9,19.9,0,0,1,2.45.17L111,265a21.32,21.32,0,0,0-5.68,0l.38,2.21A20.06,20.06,0,0,1,108.14,267.05Z"/>
      <path d="M122.63,273.43l1.73-1.45a22.06,22.06,0,0,0-4.34-3.66l-1.12,1.94A19.82,19.82,0,0,1,122.63,273.43Z"/>
      <path d="M117.16,269.26l1.13-1.95a21.87,21.87,0,0,0-5.34-1.95l-.39,2.21A19.19,19.19,0,0,1,117.16,269.26Z"/>
      <path d="M126.37,279.19l2.1-.76a22,22,0,0,0-2.83-4.92L123.91,275A19.81,19.81,0,0,1,126.37,279.19Z"/>
      <path d="M103.72,267.57l-.39-2.21A21.57,21.57,0,0,0,98,267.31l1.12,1.95A19.27,19.27,0,0,1,103.72,267.57Z"/>
      <path d="M127.85,285.89h2.26a21.88,21.88,0,0,0-1-5.58l-2.11.77A19.14,19.14,0,0,1,127.85,285.89Z"/>
      <path d="M127,292.69l2.1.76a22,22,0,0,0,1-5.56h-2.24A19.92,19.92,0,0,1,127,292.69Z"/>
      <path d="M123.85,298.77l1.72,1.44a22.46,22.46,0,0,0,2.84-4.88l-2.11-.77A19.7,19.7,0,0,1,123.85,298.77Z"/>
      <path d="M92.36,275l-1.72-1.45a21.63,21.63,0,0,0-2.83,4.92l2.1.76A19.77,19.77,0,0,1,92.36,275Z"/>
      <path d="M89.23,281.07l-2.11-.76a21.81,21.81,0,0,0-1,5.58h2.26A19.68,19.68,0,0,1,89.23,281.07Z"/>
      <path d="M88.41,287.89H86.17a22.09,22.09,0,0,0,1,5.56l2.1-.76A19.92,19.92,0,0,1,88.41,287.89Z"/>
      <path d="M90,294.56l-2.1.77a22.06,22.06,0,0,0,2.84,4.88l1.71-1.44A20.12,20.12,0,0,1,90,294.56Z"/>
      <path d="M118.83,303.41l1.12,1.93a22.09,22.09,0,0,0,4.32-3.61l-1.71-1.44A19.68,19.68,0,0,1,118.83,303.41Z"/>
      <path d="M93.72,300.29,92,301.73a22.09,22.09,0,0,0,4.32,3.61l1.12-1.93A19.62,19.62,0,0,1,93.72,300.29Z"/>
      <path d="M97.38,270.26l-1.12-1.94A22.06,22.06,0,0,0,91.92,272l1.72,1.44A20.21,20.21,0,0,1,97.38,270.26Z"/>
    </g>
    <g>
      <path d="M6.24,109.32H4.63v-6.09H6.24Z"/>
      <path d="M13.1,109.32H11.66l-2.78-3.4v3.4H7.28v-6.09H8.71l2.78,3.37v-3.37H13.1Z"/>
      <path d="M19.37,103.23,17,109.4H15.89l-2.37-6.17H15.2l1.23,3.51,1.26-3.51Z"/>
      <path d="M27.56,106.27a3.58,3.58,0,0,1-.35,1.57,2.67,2.67,0,0,1-1,1.13,3,3,0,0,1-1.66.43,3.1,3.1,0,0,1-1.69-.44,2.71,2.71,0,0,1-1-1.16,3.74,3.74,0,0,1,0-3.07,2.69,2.69,0,0,1,1-1.15,3.1,3.1,0,0,1,1.69-.44,3.45,3.45,0,0,1,1.32.25,2.73,2.73,0,0,1,1,.68,3,3,0,0,1,.57,1A4,4,0,0,1,27.56,106.27Zm-1.65,0a2.08,2.08,0,0,0-.09-.63,1.37,1.37,0,0,0-.27-.49,1.27,1.27,0,0,0-.43-.33,1.64,1.64,0,0,0-.6-.11,1.25,1.25,0,0,0-1,.43,1.64,1.64,0,0,0-.38,1.13,1.68,1.68,0,0,0,.38,1.13,1.27,1.27,0,0,0,1,.43,1.32,1.32,0,0,0,.75-.2,1.29,1.29,0,0,0,.48-.55A1.92,1.92,0,0,0,25.91,106.27Z"/>
      <path d="M33.83,106.59a3.16,3.16,0,0,1-.25,1.33,2.25,2.25,0,0,1-.69.87,2.72,2.72,0,0,1-.91.47,3.61,3.61,0,0,1-1,.14,3.4,3.4,0,0,1-1.33-.27,2.37,2.37,0,0,1-1.08-.89,2.89,2.89,0,0,1-.43-1.65v-3.36h1.61v2.88a2.62,2.62,0,0,0,.16,1,1.16,1.16,0,0,0,.42.57,1.08,1.08,0,0,0,.65.19,1.06,1.06,0,0,0,1.05-.75,2.87,2.87,0,0,0,.16-1v-2.89h1.61Z"/>
      <path d="M39.92,104.71H38v4.61H36.35v-4.61h-2v-1.48h5.54Z"/>
    </g>
    <g>
      <path d="M22.46,72.52a3,3,0,0,1-.6.29,3.6,3.6,0,0,1-.63.15,4.54,4.54,0,0,1-.65,0,3,3,0,0,1-1.11-.19,2.42,2.42,0,0,1-.86-.58,2.45,2.45,0,0,1-.54-.89,3.33,3.33,0,0,1-.18-1.12A3.25,3.25,0,0,1,18.1,69a2.3,2.3,0,0,1,.6-.88,2.38,2.38,0,0,1,.87-.51,3.22,3.22,0,0,1,1-.17,5.1,5.1,0,0,1,1.84.41v1.44a5.19,5.19,0,0,0-.7-.42,1.86,1.86,0,0,0-.81-.16,1.61,1.61,0,0,0-.78.19,1.48,1.48,0,0,0-.58.53,1.45,1.45,0,0,0-.22.81,1.61,1.61,0,0,0,.19.76,1.55,1.55,0,0,0,.54.54,1.52,1.52,0,0,0,.77.2,2.07,2.07,0,0,0,.66-.1,2.55,2.55,0,0,0,.52-.21,4.46,4.46,0,0,0,.43-.28Z"/>
      <path d="M27.81,67.52,25.66,73h-.95L22.6,67.52h1.5l1.09,3.12,1.12-3.12Z"/>
    </g>
    <g>
      <path d="M94.33,162.49l-.3.13-.24.08-.33.11a5.88,5.88,0,0,1-.73.14A4.75,4.75,0,0,1,92,163a3.35,3.35,0,0,1-1.51-.34,2.55,2.55,0,0,1-1.11-1,3.45,3.45,0,0,1-.41-1.74,4.24,4.24,0,0,1,.21-1.32,2.33,2.33,0,0,1,.66-1,3.46,3.46,0,0,1,.73-.49,2.74,2.74,0,0,1,.73-.22,5.54,5.54,0,0,1,2,.06c.3.08.64.19,1,.32v1.44a4,4,0,0,0-.77-.4,2.71,2.71,0,0,0-1-.17,1.9,1.9,0,0,0-1.12.3,1.65,1.65,0,0,0-.58.72,2.2,2.2,0,0,0-.16.81,2,2,0,0,0,.18.85,1.53,1.53,0,0,0,.58.63,1.77,1.77,0,0,0,.92.23,2.61,2.61,0,0,0,.66-.09v-.72h-.73v-1.22h2.14Z"/>
      <path d="M99.14,162.7c-.2.09-.39.16-.56.22A2,2,0,0,1,98,163a.63.63,0,0,1-.48-.14.78.78,0,0,1-.19-.33,1.92,1.92,0,0,1-.5.34,1.63,1.63,0,0,1-.72.13,1.22,1.22,0,0,1-.69-.17.88.88,0,0,1-.37-.42,1.4,1.4,0,0,1-.11-.53,1.24,1.24,0,0,1,.18-.69,1.53,1.53,0,0,1,.5-.44,5.73,5.73,0,0,1,.82-.35l.44-.16.22-.09.15-.08a1.07,1.07,0,0,0-.11-.51.58.58,0,0,0-.51-.18,1.56,1.56,0,0,0-.84.23,3,3,0,0,0-.72.58V159a2.77,2.77,0,0,1,1.19-.54,3,3,0,0,1,.67-.07,1.88,1.88,0,0,1,1.28.38,1.29,1.29,0,0,1,.44,1v1.73a1.18,1.18,0,0,0,0,.37.14.14,0,0,0,.15.12.9.9,0,0,0,.35-.13Zm-1.94-.86v-1.06a4.12,4.12,0,0,0-.72.41.63.63,0,0,0-.23.5.45.45,0,0,0,.12.34.34.34,0,0,0,.26.12.55.55,0,0,0,.29-.09A1.79,1.79,0,0,0,97.2,161.84Z"/>
      <path d="M102.37,162.66a3,3,0,0,1-.6.23,2.4,2.4,0,0,1-.73.11c-1,0-1.5-.55-1.5-1.67v-1.78h-.63v-.28l1.86-2.16h.16v1.34h1.33v1.1h-1.33V161a2.29,2.29,0,0,0,0,.41.44.44,0,0,0,.15.25.59.59,0,0,0,.38.11,1.93,1.93,0,0,0,.88-.32Z"/>
      <path d="M106.7,161.07h-2.77a1.13,1.13,0,0,0,.39.67,1.14,1.14,0,0,0,.72.26,3.4,3.4,0,0,0,1.56-.45v1a4.3,4.3,0,0,1-.74.33,3.8,3.8,0,0,1-1.11.14,2.4,2.4,0,0,1-1.24-.3,2,2,0,0,1-.76-.84,2.7,2.7,0,0,1-.26-1.19,2.63,2.63,0,0,1,.26-1.18,1.88,1.88,0,0,1,.76-.82,2.4,2.4,0,0,1,1.24-.3,2,2,0,0,1,.93.24,1.76,1.76,0,0,1,.73.77,2.87,2.87,0,0,1,.29,1.37Zm-1.31-.78a1.11,1.11,0,0,0-.19-.69.62.62,0,0,0-.54-.26.7.7,0,0,0-.56.26,1.09,1.09,0,0,0-.21.69Z"/>
      <path d="M114,158.75a2.45,2.45,0,0,1-.1.66,1.77,1.77,0,0,1-.33.6,1.61,1.61,0,0,1-.62.45,2.19,2.19,0,0,1-.92.18h-1.06v2.28h-1.61v-6.09H112a2.19,2.19,0,0,1,.92.18,1.73,1.73,0,0,1,.62.46,1.81,1.81,0,0,1,.33.61A2.53,2.53,0,0,1,114,158.75Zm-1.65,0a.67.67,0,0,0-.23-.6,1.52,1.52,0,0,0-.8-.16h-.35v1.47h.35a2.43,2.43,0,0,0,.62-.06.48.48,0,0,0,.31-.21A.78.78,0,0,0,112.32,158.76Z"/>
      <path d="M123.23,156.83,120.91,163H120l-1.39-3.59L117.16,163h-1l-2.27-6.17h1.67l1.12,3.38,1.27-3.38h1.16l1.25,3.38,1.17-3.38Z"/>
      <path d="M87,173h-1c-.19-.18-.4-.38-.6-.6a6.05,6.05,0,0,1-.63-.85,5.25,5.25,0,0,1-.56-1.19,5,5,0,0,1-.22-1.48,4.65,4.65,0,0,1,.36-1.87,5.86,5.86,0,0,1,.76-1.34,11.37,11.37,0,0,1,.89-1h1c-.28.36-.53.7-.74,1a5.53,5.53,0,0,0-.57,1.3,6.86,6.86,0,0,0,0,3.67,5.49,5.49,0,0,0,.56,1.27A12.46,12.46,0,0,0,87,173Z"/>
      <path d="M92.18,166.31h-2v4.61H88.6v-4.61h-2v-1.48h5.54Z"/>
      <path d="M96,166.69l-.51,1.59a.89.89,0,0,0-.65-.34.66.66,0,0,0-.5.22A2.3,2.3,0,0,0,94,169v1.92H92.57v-4.47H94v1.08a2.29,2.29,0,0,1,.47-.78,1,1,0,0,1,.78-.38,1,1,0,0,1,.41.08A2.4,2.4,0,0,1,96,166.69Z"/>
      <path d="M97.63,170.92H96.24v-4.47h1.39Zm-.11-5.5a.71.71,0,0,1-.17.47.55.55,0,0,1-.42.19.52.52,0,0,1-.29-.09.61.61,0,0,1-.21-.24.73.73,0,0,1-.08-.33.71.71,0,0,1,.17-.47.53.53,0,0,1,.41-.2.56.56,0,0,1,.42.2A.71.71,0,0,1,97.52,165.42Z"/>
      <path d="M102.24,167.4h-.69a1.21,1.21,0,0,1,.36.89,1.39,1.39,0,0,1-.1.53,1.37,1.37,0,0,1-.3.45,1.54,1.54,0,0,1-.49.32,2,2,0,0,1-.67.16c-.32,0-.48.11-.48.29a.18.18,0,0,0,.06.15.37.37,0,0,0,.19.08l.45,0a5.77,5.77,0,0,1,.67.12,1.36,1.36,0,0,1,.58.37,1.13,1.13,0,0,1,.27.81,1.41,1.41,0,0,1-.2.74,1.35,1.35,0,0,1-.65.5,3.12,3.12,0,0,1-1.17.18,3,3,0,0,1-1.55-.32,1,1,0,0,1-.49-.86,1.05,1.05,0,0,1,.06-.33,1,1,0,0,1,.27-.37,1.18,1.18,0,0,1,.61-.24.43.43,0,0,1-.24-.22.61.61,0,0,1-.1-.34.8.8,0,0,1,.14-.46.64.64,0,0,1,.45-.3,1.63,1.63,0,0,1-.76-.5,1.37,1.37,0,0,1-.32-.94,1.86,1.86,0,0,1,.15-.77,1.49,1.49,0,0,1,.41-.54,2,2,0,0,1,.61-.3,2.71,2.71,0,0,1,.77-.1h2.16ZM101,171.76a.37.37,0,0,0-.28-.38,1.79,1.79,0,0,0-.57-.09,1.51,1.51,0,0,0-.7.12.39.39,0,0,0-.21.37c0,.33.29.5.89.5a1.28,1.28,0,0,0,.63-.13A.42.42,0,0,0,101,171.76Zm-.28-3.6a.73.73,0,0,0-.2-.54.63.63,0,0,0-.46-.21.58.58,0,0,0-.5.25.82.82,0,0,0-.19.52.85.85,0,0,0,.08.35.64.64,0,0,0,.23.26.55.55,0,0,0,.34.1.63.63,0,0,0,.5-.22A.73.73,0,0,0,100.7,168.16Z"/>
      <path d="M110.19,168a3.22,3.22,0,0,1-.3,1.5,3.06,3.06,0,0,1-.7.92,2.37,2.37,0,0,1-1.62.51h-2.89v-6.09h2.23a5.34,5.34,0,0,1,.86.06,3.49,3.49,0,0,1,.64.17,2.24,2.24,0,0,1,.49.24,2.68,2.68,0,0,1,.36.29,2.88,2.88,0,0,1,.48.6,3,3,0,0,1,.33.81A3.84,3.84,0,0,1,110.19,168Zm-1.64-.08a2.22,2.22,0,0,0-.25-1.16,1.25,1.25,0,0,0-.6-.55,1.78,1.78,0,0,0-.71-.15h-.69v3.61H107a1.75,1.75,0,0,0,1.09-.34A1.69,1.69,0,0,0,108.55,167.91Z"/>
      <path d="M114.68,169.07h-2.77a1.14,1.14,0,0,0,.4.67,1.12,1.12,0,0,0,.72.26,3.36,3.36,0,0,0,1.55-.45v1a4,4,0,0,1-.74.33,3.8,3.8,0,0,1-1.11.14,2.39,2.39,0,0,1-1.23-.3,2,2,0,0,1-.77-.84,2.7,2.7,0,0,1-.25-1.19,2.62,2.62,0,0,1,.25-1.18,1.9,1.9,0,0,1,.77-.82,2.39,2.39,0,0,1,1.23-.3,2,2,0,0,1,.93.24,1.71,1.71,0,0,1,.73.77,2.76,2.76,0,0,1,.29,1.37Zm-1.31-.78a1.18,1.18,0,0,0-.18-.69.65.65,0,0,0-.54-.26.73.73,0,0,0-.57.26,1.09,1.09,0,0,0-.21.69Z"/>
      <path d="M116.52,170.92h-1.4v-6.09h1.4Z"/>
      <path d="M121.24,170.7c-.2.09-.39.16-.56.22a2,2,0,0,1-.63.08.6.6,0,0,1-.47-.14.79.79,0,0,1-.2-.33,1.92,1.92,0,0,1-.5.34,1.63,1.63,0,0,1-.72.13,1.22,1.22,0,0,1-.69-.17.88.88,0,0,1-.37-.42,1.4,1.4,0,0,1-.11-.53,1.24,1.24,0,0,1,.18-.69,1.53,1.53,0,0,1,.5-.44,5.73,5.73,0,0,1,.82-.35l.44-.16.22-.09.15-.08a1,1,0,0,0-.11-.51.57.57,0,0,0-.5-.18,1.57,1.57,0,0,0-.85.23,3,3,0,0,0-.72.58V167a2.7,2.7,0,0,1,.56-.34,2.88,2.88,0,0,1,.63-.2,3,3,0,0,1,.67-.07,1.93,1.93,0,0,1,1.29.38,1.31,1.31,0,0,1,.43,1v1.73a1.18,1.18,0,0,0,0,.37.14.14,0,0,0,.15.12.9.9,0,0,0,.35-.13Zm-1.94-.86v-1.06a4.12,4.12,0,0,0-.72.41.63.63,0,0,0-.23.5.45.45,0,0,0,.12.34.34.34,0,0,0,.26.12.55.55,0,0,0,.29-.09A1.79,1.79,0,0,0,119.3,169.84Z"/>
      <path d="M125.58,166.45,122.91,173H121.5l1.08-2.62L121,166.45h1.5l.8,2.22.91-2.22Z"/>
      <path d="M128,168.87a4.73,4.73,0,0,1-.22,1.48,5.49,5.49,0,0,1-.55,1.22,6.15,6.15,0,0,1-.64.87q-.32.33-.6.6h-1a10.15,10.15,0,0,0,.75-1,5.53,5.53,0,0,0,.57-1.3,6.43,6.43,0,0,0,.25-1.83,6.35,6.35,0,0,0-.25-1.84,5.69,5.69,0,0,0-.56-1.27c-.21-.31-.46-.66-.76-1h1a8,8,0,0,1,.85.88,5.52,5.52,0,0,1,.8,1.38A4.67,4.67,0,0,1,128,168.87Z"/>
    </g>
    <g>
      <path d="M6.24,184.92H4.63v-6.09H6.24Z"/>
      <path d="M13.1,184.92H11.66l-2.78-3.4v3.4H7.28v-6.09H8.71l2.78,3.37v-3.37H13.1Z"/>
      <path d="M19.37,178.83,17,185H15.89l-2.37-6.17H15.2l1.23,3.51,1.26-3.51Z"/>
      <path d="M27.56,181.87a3.58,3.58,0,0,1-.35,1.57,2.67,2.67,0,0,1-1,1.13,3,3,0,0,1-1.66.43,3.1,3.1,0,0,1-1.69-.44,2.71,2.71,0,0,1-1-1.16,3.74,3.74,0,0,1,0-3.07,2.69,2.69,0,0,1,1-1.15,3.1,3.1,0,0,1,1.69-.44,3.45,3.45,0,0,1,1.32.25,2.73,2.73,0,0,1,1,.68,3,3,0,0,1,.57,1A4,4,0,0,1,27.56,181.87Zm-1.65,0a2.08,2.08,0,0,0-.09-.63,1.37,1.37,0,0,0-.27-.49,1.27,1.27,0,0,0-.43-.33,1.64,1.64,0,0,0-.6-.11,1.25,1.25,0,0,0-1,.43,1.64,1.64,0,0,0-.38,1.13A1.68,1.68,0,0,0,23.5,183a1.27,1.27,0,0,0,1,.43,1.32,1.32,0,0,0,.75-.2,1.29,1.29,0,0,0,.48-.55A1.92,1.92,0,0,0,25.91,181.87Z"/>
      <path d="M33.83,182.19a3.16,3.16,0,0,1-.25,1.33,2.25,2.25,0,0,1-.69.87,2.72,2.72,0,0,1-.91.47,3.61,3.61,0,0,1-1,.14,3.4,3.4,0,0,1-1.33-.27,2.37,2.37,0,0,1-1.08-.89,2.89,2.89,0,0,1-.43-1.65v-3.36h1.61v2.88a2.62,2.62,0,0,0,.16,1,1.16,1.16,0,0,0,.42.57,1.08,1.08,0,0,0,.65.19,1.06,1.06,0,0,0,1.05-.75,2.87,2.87,0,0,0,.16-1v-2.89h1.61Z"/>
      <path d="M39.92,180.31H38v4.61H36.35v-4.61h-2v-1.48h5.54Z"/>
    </g>
    <g>
      <path d="M22.46,148.12a3,3,0,0,1-.6.29,3.6,3.6,0,0,1-.63.15,4.54,4.54,0,0,1-.65,0,3,3,0,0,1-1.11-.19,2.42,2.42,0,0,1-.86-.58,2.45,2.45,0,0,1-.54-.89,3.33,3.33,0,0,1-.18-1.12,3.25,3.25,0,0,1,.21-1.22,2.3,2.3,0,0,1,.6-.88,2.38,2.38,0,0,1,.87-.51,3.22,3.22,0,0,1,1-.17,5.1,5.1,0,0,1,1.84.41v1.44a5.19,5.19,0,0,0-.7-.42,1.86,1.86,0,0,0-.81-.16,1.61,1.61,0,0,0-.78.19,1.48,1.48,0,0,0-.58.53,1.45,1.45,0,0,0-.22.81,1.61,1.61,0,0,0,.19.76,1.55,1.55,0,0,0,.54.54,1.52,1.52,0,0,0,.77.2,2.07,2.07,0,0,0,.66-.1A2.55,2.55,0,0,0,22,147a4.46,4.46,0,0,0,.43-.28Z" style="fill: #ededed"/>
      <path d="M27.81,143.12l-2.15,5.48h-.95l-2.11-5.48h1.5l1.09,3.12,1.12-3.12Z" style="fill: #ededed"/>
    </g>
    <g>
      <path d="M94.33,238.09l-.3.13-.24.08-.33.1a4.5,4.5,0,0,1-.73.15,4.75,4.75,0,0,1-.77,0,3.35,3.35,0,0,1-1.51-.34,2.55,2.55,0,0,1-1.11-1,3.46,3.46,0,0,1-.41-1.75,4.22,4.22,0,0,1,.21-1.31,2.33,2.33,0,0,1,.66-1,3.46,3.46,0,0,1,.73-.49,2.74,2.74,0,0,1,.73-.22,5.54,5.54,0,0,1,2,.06c.3.08.64.19,1,.32v1.44a4,4,0,0,0-.77-.4,2.71,2.71,0,0,0-1-.17,1.9,1.9,0,0,0-1.12.3,1.65,1.65,0,0,0-.58.72,2.2,2.2,0,0,0-.16.81,2,2,0,0,0,.18.85,1.53,1.53,0,0,0,.58.63,1.77,1.77,0,0,0,.92.23,2.61,2.61,0,0,0,.66-.09v-.72h-.73v-1.22h2.14Z"/>
      <path d="M99.14,238.3c-.2.09-.39.16-.56.22a2.3,2.3,0,0,1-.63.08.63.63,0,0,1-.48-.14.78.78,0,0,1-.19-.33,1.92,1.92,0,0,1-.5.34,1.63,1.63,0,0,1-.72.13,1.22,1.22,0,0,1-.69-.17A.88.88,0,0,1,95,238a1.4,1.4,0,0,1-.11-.53,1.22,1.22,0,0,1,.18-.69,1.53,1.53,0,0,1,.5-.44,5.73,5.73,0,0,1,.82-.35l.44-.16.22-.09.15-.08a1,1,0,0,0-.11-.51.58.58,0,0,0-.51-.18,1.56,1.56,0,0,0-.84.23,3,3,0,0,0-.72.58v-1.21a2.77,2.77,0,0,1,1.19-.54,3,3,0,0,1,.67-.07,1.88,1.88,0,0,1,1.28.38,1.29,1.29,0,0,1,.44,1v1.73a1.22,1.22,0,0,0,0,.37.14.14,0,0,0,.15.12.9.9,0,0,0,.35-.13Zm-1.94-.86v-1.06a4.12,4.12,0,0,0-.72.41.63.63,0,0,0-.23.5.45.45,0,0,0,.12.34.34.34,0,0,0,.26.12.55.55,0,0,0,.29-.09A1.79,1.79,0,0,0,97.2,237.44Z"/>
      <path d="M102.37,238.26a3,3,0,0,1-.6.23,2.4,2.4,0,0,1-.73.11c-1,0-1.5-.55-1.5-1.67v-1.78h-.63v-.28l1.86-2.16h.16v1.34h1.33v1.1h-1.33v1.43a2.29,2.29,0,0,0,0,.41.44.44,0,0,0,.15.25.59.59,0,0,0,.38.11,1.93,1.93,0,0,0,.88-.32Z"/>
      <path d="M106.7,236.67h-2.77a1.13,1.13,0,0,0,.39.67,1.14,1.14,0,0,0,.72.26,3.4,3.4,0,0,0,1.56-.45v1a4.3,4.3,0,0,1-.74.33,3.8,3.8,0,0,1-1.11.14,2.31,2.31,0,0,1-1.24-.31,1.9,1.9,0,0,1-.76-.83,2.85,2.85,0,0,1,0-2.38,1.86,1.86,0,0,1,.76-.81,2.4,2.4,0,0,1,1.24-.3,2,2,0,0,1,.93.24,1.79,1.79,0,0,1,.73.76,2.94,2.94,0,0,1,.29,1.38Zm-1.31-.78a1.11,1.11,0,0,0-.19-.69.62.62,0,0,0-.54-.26.7.7,0,0,0-.56.26,1.09,1.09,0,0,0-.21.69Z"/>
      <path d="M114,234.35a2.51,2.51,0,0,1-.1.66,1.77,1.77,0,0,1-.33.6,1.61,1.61,0,0,1-.62.45,2.19,2.19,0,0,1-.92.18h-1.06v2.28h-1.61v-6.09H112a2.19,2.19,0,0,1,.92.18,1.73,1.73,0,0,1,.62.46,1.81,1.81,0,0,1,.33.61A2.53,2.53,0,0,1,114,234.35Zm-1.65,0a.67.67,0,0,0-.23-.6,1.52,1.52,0,0,0-.8-.16h-.35v1.47h.35a2.43,2.43,0,0,0,.62-.06.48.48,0,0,0,.31-.21A.78.78,0,0,0,112.32,234.36Z"/>
      <path d="M123.23,232.43l-2.32,6.17H120L118.58,235l-1.42,3.59h-1l-2.27-6.17h1.67l1.12,3.38,1.27-3.38h1.16l1.25,3.38,1.17-3.38Z"/>
      <path d="M87,248.64h-1c-.19-.18-.4-.38-.6-.6a6.05,6.05,0,0,1-.63-.85,5.25,5.25,0,0,1-.56-1.19,5,5,0,0,1-.22-1.48,4.65,4.65,0,0,1,.36-1.87,5.86,5.86,0,0,1,.76-1.34,11.37,11.37,0,0,1,.89-1h1c-.28.36-.53.7-.74,1a5.53,5.53,0,0,0-.57,1.3,6.86,6.86,0,0,0,0,3.67,5.49,5.49,0,0,0,.56,1.27A12.46,12.46,0,0,0,87,248.64Z"/>
      <path d="M92.18,241.91h-2v4.61H88.6v-4.61h-2v-1.48h5.54Z"/>
      <path d="M96,242.29l-.51,1.59a.89.89,0,0,0-.65-.34.66.66,0,0,0-.5.22,2.3,2.3,0,0,0-.42.84v1.92H92.57v-4.47H94v1.08a2.29,2.29,0,0,1,.47-.78,1,1,0,0,1,.78-.38,1,1,0,0,1,.41.08A2.4,2.4,0,0,1,96,242.29Z"/>
      <path d="M97.63,246.52H96.24v-4.47h1.39Zm-.11-5.5a.71.71,0,0,1-.17.47.55.55,0,0,1-.42.19.52.52,0,0,1-.29-.09.61.61,0,0,1-.21-.24.73.73,0,0,1-.08-.33.71.71,0,0,1,.17-.47.53.53,0,0,1,.41-.2.56.56,0,0,1,.42.2A.71.71,0,0,1,97.52,241Z"/>
      <path d="M102.24,243h-.69a1.21,1.21,0,0,1,.36.89,1.39,1.39,0,0,1-.1.53,1.37,1.37,0,0,1-.3.45,1.54,1.54,0,0,1-.49.32,2,2,0,0,1-.67.16c-.32,0-.48.11-.48.29a.18.18,0,0,0,.06.15.37.37,0,0,0,.19.08l.45,0a4.22,4.22,0,0,1,.67.12,1.36,1.36,0,0,1,.58.37,1.13,1.13,0,0,1,.27.81,1.41,1.41,0,0,1-.2.74,1.35,1.35,0,0,1-.65.5,3.12,3.12,0,0,1-1.17.18,3,3,0,0,1-1.55-.32,1,1,0,0,1-.49-.86,1.05,1.05,0,0,1,.06-.33,1,1,0,0,1,.27-.37,1.18,1.18,0,0,1,.61-.24.43.43,0,0,1-.24-.22.61.61,0,0,1-.1-.34.8.8,0,0,1,.14-.46.62.62,0,0,1,.45-.3,1.63,1.63,0,0,1-.76-.5,1.37,1.37,0,0,1-.32-.94,1.86,1.86,0,0,1,.15-.77,1.49,1.49,0,0,1,.41-.54,1.83,1.83,0,0,1,.61-.3,2.71,2.71,0,0,1,.77-.1h2.16ZM101,247.36a.37.37,0,0,0-.28-.38,1.79,1.79,0,0,0-.57-.09,1.51,1.51,0,0,0-.7.12.39.39,0,0,0-.21.37c0,.33.29.5.89.5a1.28,1.28,0,0,0,.63-.13A.42.42,0,0,0,101,247.36Zm-.28-3.6a.73.73,0,0,0-.2-.54A.63.63,0,0,0,100,243a.58.58,0,0,0-.5.25.82.82,0,0,0-.19.52.85.85,0,0,0,.08.35.64.64,0,0,0,.23.26.55.55,0,0,0,.34.1.63.63,0,0,0,.5-.22A.73.73,0,0,0,100.7,243.76Z"/>
      <path d="M110.19,243.59a3.22,3.22,0,0,1-.3,1.5,3.19,3.19,0,0,1-.7.92,2.37,2.37,0,0,1-1.62.51h-2.89v-6.09h2.23a5.34,5.34,0,0,1,.86.06,3.49,3.49,0,0,1,.64.17,2.24,2.24,0,0,1,.49.24,2.68,2.68,0,0,1,.36.29,2.88,2.88,0,0,1,.48.6,3,3,0,0,1,.33.8A4,4,0,0,1,110.19,243.59Zm-1.64-.08a2.22,2.22,0,0,0-.25-1.16,1.33,1.33,0,0,0-.6-.56,2,2,0,0,0-.71-.14h-.69v3.61H107a1.75,1.75,0,0,0,1.09-.34A1.69,1.69,0,0,0,108.55,243.51Z"/>
      <path d="M114.68,244.67h-2.77a1.14,1.14,0,0,0,.4.67,1.12,1.12,0,0,0,.72.26,3.36,3.36,0,0,0,1.55-.45v1a4,4,0,0,1-.74.33,3.8,3.8,0,0,1-1.11.14,2.29,2.29,0,0,1-1.23-.31,1.93,1.93,0,0,1-.77-.83,2.71,2.71,0,0,1-.25-1.2,2.68,2.68,0,0,1,.25-1.18,1.88,1.88,0,0,1,.77-.81,2.39,2.39,0,0,1,1.23-.3,2,2,0,0,1,.93.24,1.74,1.74,0,0,1,.73.76,2.82,2.82,0,0,1,.29,1.38Zm-1.31-.78a1.18,1.18,0,0,0-.18-.69.65.65,0,0,0-.54-.26.73.73,0,0,0-.57.26,1.09,1.09,0,0,0-.21.69Z"/>
      <path d="M116.52,246.52h-1.4v-6.09h1.4Z"/>
      <path d="M121.24,246.3c-.2.09-.39.16-.56.22a2.3,2.3,0,0,1-.63.08.6.6,0,0,1-.47-.14.79.79,0,0,1-.2-.33,1.92,1.92,0,0,1-.5.34,1.63,1.63,0,0,1-.72.13,1.22,1.22,0,0,1-.69-.17.88.88,0,0,1-.37-.42,1.4,1.4,0,0,1-.11-.53,1.22,1.22,0,0,1,.18-.69,1.53,1.53,0,0,1,.5-.44,5.73,5.73,0,0,1,.82-.35l.44-.16.22-.09.15-.08a.92.92,0,0,0-.11-.51.57.57,0,0,0-.5-.18,1.57,1.57,0,0,0-.85.23,3,3,0,0,0-.72.58v-1.21a2.7,2.7,0,0,1,.56-.34,2.88,2.88,0,0,1,.63-.2A3,3,0,0,1,119,242a1.93,1.93,0,0,1,1.29.38,1.31,1.31,0,0,1,.43,1v1.73a1.22,1.22,0,0,0,0,.37.14.14,0,0,0,.15.12.9.9,0,0,0,.35-.13Zm-1.94-.86v-1.06a4.12,4.12,0,0,0-.72.41.63.63,0,0,0-.23.5.45.45,0,0,0,.12.34.34.34,0,0,0,.26.12.55.55,0,0,0,.29-.09A1.79,1.79,0,0,0,119.3,245.44Z"/>
      <path d="M125.58,242.05l-2.67,6.51H121.5l1.08-2.62L121,242.05h1.5l.8,2.22.91-2.22Z"/>
      <path d="M128,244.47a4.73,4.73,0,0,1-.22,1.48,5.49,5.49,0,0,1-.55,1.22,6.15,6.15,0,0,1-.64.87q-.32.33-.6.6h-1a10.15,10.15,0,0,0,.75-1,5.53,5.53,0,0,0,.57-1.3,6.43,6.43,0,0,0,.25-1.83,6.35,6.35,0,0,0-.25-1.84,5.69,5.69,0,0,0-.56-1.27c-.21-.31-.46-.66-.76-1h1a8,8,0,0,1,.85.88,5.52,5.52,0,0,1,.8,1.38A4.67,4.67,0,0,1,128,244.47Z"/>
    </g>
    <g>
      <path d="M6.24,260.52H4.63v-6.09H6.24Z"/>
      <path d="M13.1,260.52H11.66l-2.78-3.4v3.4H7.28v-6.09H8.71l2.78,3.37v-3.37H13.1Z"/>
      <path d="M19.37,254.43,17,260.6H15.89l-2.37-6.17H15.2l1.23,3.51,1.26-3.51Z"/>
      <path d="M27.56,257.47a3.58,3.58,0,0,1-.35,1.57,2.67,2.67,0,0,1-1,1.13,3,3,0,0,1-1.66.43,3.1,3.1,0,0,1-1.69-.44,2.71,2.71,0,0,1-1-1.16,3.74,3.74,0,0,1,0-3.07,2.69,2.69,0,0,1,1-1.15,3.1,3.1,0,0,1,1.69-.44,3.45,3.45,0,0,1,1.32.25,2.73,2.73,0,0,1,1,.68,3,3,0,0,1,.57,1A4,4,0,0,1,27.56,257.47Zm-1.65,0a2.08,2.08,0,0,0-.09-.63,1.37,1.37,0,0,0-.27-.49,1.27,1.27,0,0,0-.43-.33,1.64,1.64,0,0,0-.6-.11,1.25,1.25,0,0,0-1,.43,1.64,1.64,0,0,0-.38,1.13,1.68,1.68,0,0,0,.38,1.13,1.27,1.27,0,0,0,1,.43,1.32,1.32,0,0,0,.75-.2,1.29,1.29,0,0,0,.48-.55A1.92,1.92,0,0,0,25.91,257.47Z"/>
      <path d="M33.83,257.79a3.16,3.16,0,0,1-.25,1.33,2.25,2.25,0,0,1-.69.87,2.72,2.72,0,0,1-.91.47,3.61,3.61,0,0,1-1,.14,3.4,3.4,0,0,1-1.33-.27,2.37,2.37,0,0,1-1.08-.89,2.89,2.89,0,0,1-.43-1.65v-3.36h1.61v2.88a2.62,2.62,0,0,0,.16,1,1.16,1.16,0,0,0,.42.57,1.08,1.08,0,0,0,.65.19,1.06,1.06,0,0,0,1.05-.75,2.87,2.87,0,0,0,.16-1v-2.89h1.61Z"/>
      <path d="M39.92,255.91H38v4.61H36.35v-4.61h-2v-1.48h5.54Z"/>
    </g>
    <g>
      <path d="M22.46,223.73a3.23,3.23,0,0,1-1.23.43,4.54,4.54,0,0,1-.65,0,3,3,0,0,1-1.11-.19,2.42,2.42,0,0,1-.86-.58,2.45,2.45,0,0,1-.54-.89,3.33,3.33,0,0,1-.18-1.12,3.25,3.25,0,0,1,.21-1.22,2.3,2.3,0,0,1,.6-.88,2.38,2.38,0,0,1,.87-.51,3.22,3.22,0,0,1,1-.17,5.1,5.1,0,0,1,1.84.41v1.44a5.19,5.19,0,0,0-.7-.42,1.86,1.86,0,0,0-.81-.16,1.61,1.61,0,0,0-.78.19,1.48,1.48,0,0,0-.58.53,1.45,1.45,0,0,0-.22.81,1.61,1.61,0,0,0,.19.76,1.55,1.55,0,0,0,.54.54,1.52,1.52,0,0,0,.77.2,2.07,2.07,0,0,0,.66-.1,2.55,2.55,0,0,0,.52-.21,4.46,4.46,0,0,0,.43-.28Z" style="fill: #231f20"/>
      <path d="M27.81,218.72l-2.15,5.48h-.95l-2.11-5.48h1.5l1.09,3.12,1.12-3.12Z" style="fill: #231f20"/>
    </g>
    <g>
      <path d="M94.33,313.69l-.3.13-.24.08-.33.1a4.5,4.5,0,0,1-.73.15,4.75,4.75,0,0,1-.77.05,3.35,3.35,0,0,1-1.51-.34,2.55,2.55,0,0,1-1.11-1.05,3.46,3.46,0,0,1-.41-1.75,4.22,4.22,0,0,1,.21-1.31,2.33,2.33,0,0,1,.66-1,3.46,3.46,0,0,1,.73-.49,2.74,2.74,0,0,1,.73-.22,5.54,5.54,0,0,1,2,.06c.3.08.64.19,1,.32v1.44a4,4,0,0,0-.77-.4,2.71,2.71,0,0,0-1-.17,1.9,1.9,0,0,0-1.12.3,1.59,1.59,0,0,0-.58.72,2.2,2.2,0,0,0-.16.81,2,2,0,0,0,.18.85,1.53,1.53,0,0,0,.58.63,1.77,1.77,0,0,0,.92.23,2.61,2.61,0,0,0,.66-.09V312h-.73v-1.22h2.14Z"/>
      <path d="M99.14,313.9c-.2.09-.39.16-.56.22a2.3,2.3,0,0,1-.63.08.63.63,0,0,1-.48-.14.78.78,0,0,1-.19-.33,1.92,1.92,0,0,1-.5.34,1.63,1.63,0,0,1-.72.13,1.22,1.22,0,0,1-.69-.17.88.88,0,0,1-.37-.42,1.4,1.4,0,0,1-.11-.53,1.22,1.22,0,0,1,.18-.69,1.53,1.53,0,0,1,.5-.44,5.73,5.73,0,0,1,.82-.35l.44-.16.22-.09.15-.08a1,1,0,0,0-.11-.51.58.58,0,0,0-.51-.18,1.56,1.56,0,0,0-.84.23,3,3,0,0,0-.72.58v-1.21a2.77,2.77,0,0,1,1.19-.54,3,3,0,0,1,.67-.07,1.88,1.88,0,0,1,1.28.38,1.29,1.29,0,0,1,.44,1v1.73a1.22,1.22,0,0,0,0,.37.14.14,0,0,0,.15.12.9.9,0,0,0,.35-.13ZM97.2,313V312a4.12,4.12,0,0,0-.72.41.63.63,0,0,0-.23.5.45.45,0,0,0,.12.34.34.34,0,0,0,.26.12.55.55,0,0,0,.29-.09A1.79,1.79,0,0,0,97.2,313Z"/>
      <path d="M102.37,313.86a3,3,0,0,1-.6.23,2.4,2.4,0,0,1-.73.11c-1,0-1.5-.55-1.5-1.67v-1.78h-.63v-.28l1.86-2.16h.16v1.34h1.33v1.1h-1.33v1.43a2.1,2.1,0,0,0,0,.4.43.43,0,0,0,.15.26.59.59,0,0,0,.38.11,1.93,1.93,0,0,0,.88-.32Z"/>
      <path d="M106.7,312.27h-2.77a1.13,1.13,0,0,0,.39.67,1.14,1.14,0,0,0,.72.26,3.4,3.4,0,0,0,1.56-.45v1a3.65,3.65,0,0,1-.74.32,3.46,3.46,0,0,1-1.11.15,2.31,2.31,0,0,1-1.24-.31,1.9,1.9,0,0,1-.76-.83,2.71,2.71,0,0,1-.26-1.2,2.66,2.66,0,0,1,.26-1.18,1.86,1.86,0,0,1,.76-.81,2.4,2.4,0,0,1,1.24-.3,2,2,0,0,1,.93.24,1.79,1.79,0,0,1,.73.76,2.94,2.94,0,0,1,.29,1.38Zm-1.31-.78a1.11,1.11,0,0,0-.19-.69.62.62,0,0,0-.54-.26.7.7,0,0,0-.56.26,1.09,1.09,0,0,0-.21.69Z"/>
      <path d="M114,310a2.51,2.51,0,0,1-.1.66,1.77,1.77,0,0,1-.33.6,1.61,1.61,0,0,1-.62.45,2.19,2.19,0,0,1-.92.18h-1.06v2.28h-1.61V308H112a2.19,2.19,0,0,1,.92.18,1.73,1.73,0,0,1,.62.46,1.81,1.81,0,0,1,.33.61A2.53,2.53,0,0,1,114,310Zm-1.65,0a.67.67,0,0,0-.23-.6,1.43,1.43,0,0,0-.8-.16h-.35v1.47h.35a2.43,2.43,0,0,0,.62-.06.48.48,0,0,0,.31-.21A.78.78,0,0,0,112.32,310Z"/>
      <path d="M123.23,308l-2.32,6.17H120l-1.39-3.59-1.42,3.59h-1L113.94,308h1.67l1.12,3.38L118,308h1.16l1.25,3.38,1.17-3.38Z"/>
      <path d="M87,324.24h-1c-.19-.18-.4-.38-.6-.6a6.05,6.05,0,0,1-.63-.85,5.25,5.25,0,0,1-.56-1.19,5.06,5.06,0,0,1-.22-1.49,4.64,4.64,0,0,1,.36-1.86,5.86,5.86,0,0,1,.76-1.34,11.37,11.37,0,0,1,.89-1h1c-.28.36-.53.7-.74,1a5.53,5.53,0,0,0-.57,1.3,6,6,0,0,0-.25,1.83,6.07,6.07,0,0,0,.25,1.84,5.49,5.49,0,0,0,.56,1.27A12.46,12.46,0,0,0,87,324.24Z"/>
      <path d="M92.18,317.51h-2v4.61H88.6v-4.61h-2V316h5.54Z"/>
      <path d="M96,317.89l-.51,1.59a.91.91,0,0,0-.65-.35.67.67,0,0,0-.5.23,2.3,2.3,0,0,0-.42.84v1.92H92.57v-4.47H94v1.08a2.29,2.29,0,0,1,.47-.78,1,1,0,0,1,.78-.38,1,1,0,0,1,.41.08A2.4,2.4,0,0,1,96,317.89Z"/>
      <path d="M97.63,322.12H96.24v-4.47h1.39Zm-.11-5.5a.71.71,0,0,1-.17.47.55.55,0,0,1-.42.19.52.52,0,0,1-.29-.09.61.61,0,0,1-.21-.24.73.73,0,0,1-.08-.33.71.71,0,0,1,.17-.47.5.5,0,0,1,.41-.2.53.53,0,0,1,.42.2A.71.71,0,0,1,97.52,316.62Z"/>
      <path d="M102.24,318.6h-.69a1.21,1.21,0,0,1,.36.89,1.39,1.39,0,0,1-.1.53,1.37,1.37,0,0,1-.3.45,1.54,1.54,0,0,1-.49.32,2,2,0,0,1-.67.16c-.32,0-.48.11-.48.29a.18.18,0,0,0,.06.15.37.37,0,0,0,.19.08l.45,0a4.22,4.22,0,0,1,.67.12,1.36,1.36,0,0,1,.58.37,1.13,1.13,0,0,1,.27.81,1.41,1.41,0,0,1-.2.74,1.35,1.35,0,0,1-.65.5,3.12,3.12,0,0,1-1.17.18,3,3,0,0,1-1.55-.32,1,1,0,0,1-.49-.86,1.05,1.05,0,0,1,.06-.33,1,1,0,0,1,.27-.37,1.18,1.18,0,0,1,.61-.24.43.43,0,0,1-.24-.22.61.61,0,0,1-.1-.34.85.85,0,0,1,.14-.47.63.63,0,0,1,.45-.29,1.63,1.63,0,0,1-.76-.5,1.37,1.37,0,0,1-.32-.94,1.86,1.86,0,0,1,.15-.77,1.49,1.49,0,0,1,.41-.54,1.83,1.83,0,0,1,.61-.3,2.71,2.71,0,0,1,.77-.1h2.16ZM101,323a.36.36,0,0,0-.28-.38,1.79,1.79,0,0,0-.57-.09,1.51,1.51,0,0,0-.7.12.39.39,0,0,0-.21.37c0,.33.29.5.89.5a1.28,1.28,0,0,0,.63-.13A.43.43,0,0,0,101,323Zm-.28-3.6a.73.73,0,0,0-.2-.54.63.63,0,0,0-.46-.21.58.58,0,0,0-.5.25.8.8,0,0,0-.19.52.85.85,0,0,0,.08.35.64.64,0,0,0,.23.26.55.55,0,0,0,.34.1.63.63,0,0,0,.5-.22A.73.73,0,0,0,100.7,319.36Z"/>
      <path d="M110.19,319.19a3.22,3.22,0,0,1-.3,1.5,3.19,3.19,0,0,1-.7.92,2.37,2.37,0,0,1-1.62.51h-2.89V316h2.23a5.34,5.34,0,0,1,.86.06,3.49,3.49,0,0,1,.64.17,2.24,2.24,0,0,1,.49.24,2.68,2.68,0,0,1,.36.29,2.88,2.88,0,0,1,.48.6,3,3,0,0,1,.33.8A4,4,0,0,1,110.19,319.19Zm-1.64-.08a2.22,2.22,0,0,0-.25-1.16,1.33,1.33,0,0,0-.6-.56,2,2,0,0,0-.71-.14h-.69v3.61H107a1.75,1.75,0,0,0,1.09-.34A1.69,1.69,0,0,0,108.55,319.11Z"/>
      <path d="M114.68,320.27h-2.77a1.14,1.14,0,0,0,.4.67,1.12,1.12,0,0,0,.72.26,3.36,3.36,0,0,0,1.55-.45v1a3.42,3.42,0,0,1-.74.32,3.46,3.46,0,0,1-1.11.15,2.29,2.29,0,0,1-1.23-.31,1.93,1.93,0,0,1-.77-.83,2.71,2.71,0,0,1-.25-1.2,2.65,2.65,0,0,1,.25-1.18,1.88,1.88,0,0,1,.77-.81,2.39,2.39,0,0,1,1.23-.3,2,2,0,0,1,.93.24,1.74,1.74,0,0,1,.73.76,2.82,2.82,0,0,1,.29,1.38Zm-1.31-.78a1.18,1.18,0,0,0-.18-.69.65.65,0,0,0-.54-.26.73.73,0,0,0-.57.26,1.09,1.09,0,0,0-.21.69Z"/>
      <path d="M116.52,322.12h-1.4V316h1.4Z"/>
      <path d="M121.24,321.9c-.2.09-.39.16-.56.22a2.3,2.3,0,0,1-.63.08.6.6,0,0,1-.47-.14.79.79,0,0,1-.2-.33,1.92,1.92,0,0,1-.5.34,1.63,1.63,0,0,1-.72.13,1.22,1.22,0,0,1-.69-.17.88.88,0,0,1-.37-.42,1.4,1.4,0,0,1-.11-.53,1.22,1.22,0,0,1,.18-.69,1.53,1.53,0,0,1,.5-.44,5.73,5.73,0,0,1,.82-.35l.44-.16.22-.09.15-.08a.92.92,0,0,0-.11-.51.57.57,0,0,0-.5-.18,1.57,1.57,0,0,0-.85.23,3,3,0,0,0-.72.58v-1.21a2.7,2.7,0,0,1,.56-.34,2.88,2.88,0,0,1,.63-.2,3,3,0,0,1,.67-.07,1.93,1.93,0,0,1,1.29.38,1.31,1.31,0,0,1,.43,1v1.73a1.22,1.22,0,0,0,0,.37.14.14,0,0,0,.15.12.9.9,0,0,0,.35-.13ZM119.3,321V320a4.12,4.12,0,0,0-.72.41.63.63,0,0,0-.23.5.45.45,0,0,0,.12.34.34.34,0,0,0,.26.12.55.55,0,0,0,.29-.09A1.79,1.79,0,0,0,119.3,321Z"/>
      <path d="M125.58,317.65l-2.67,6.51H121.5l1.08-2.62L121,317.65h1.5l.8,2.22.91-2.22Z"/>
      <path d="M128,320.07a4.73,4.73,0,0,1-.22,1.48,5.58,5.58,0,0,1-1.19,2.08c-.21.23-.41.43-.6.61h-1a10.15,10.15,0,0,0,.75-1,5.53,5.53,0,0,0,.57-1.3,6.43,6.43,0,0,0,.25-1.83,6.35,6.35,0,0,0-.25-1.84,5.69,5.69,0,0,0-.56-1.27c-.21-.31-.46-.66-.76-1h1a8,8,0,0,1,.85.88,5.52,5.52,0,0,1,.8,1.38A4.67,4.67,0,0,1,128,320.07Z"/>
    </g>
    <g>
      <path d="M6.24,336.12H4.63V330H6.24Z"/>
      <path d="M13.1,336.12H11.66l-2.78-3.4v3.4H7.28V330H8.71l2.78,3.37V330H13.1Z"/>
      <path d="M19.37,330,17,336.2H15.89L13.52,330H15.2l1.23,3.51L17.69,330Z"/>
      <path d="M27.56,333.07a3.58,3.58,0,0,1-.35,1.57,2.67,2.67,0,0,1-1,1.13,3,3,0,0,1-1.66.43,3.1,3.1,0,0,1-1.69-.44,2.71,2.71,0,0,1-1-1.16,3.74,3.74,0,0,1,0-3.07,2.69,2.69,0,0,1,1-1.15,3.1,3.1,0,0,1,1.69-.44,3.45,3.45,0,0,1,1.32.25,2.73,2.73,0,0,1,1,.68,3,3,0,0,1,.57,1A4,4,0,0,1,27.56,333.07Zm-1.65,0a2.08,2.08,0,0,0-.09-.63,1.37,1.37,0,0,0-.27-.49,1.27,1.27,0,0,0-.43-.33,1.64,1.64,0,0,0-.6-.11,1.25,1.25,0,0,0-1,.43,1.64,1.64,0,0,0-.38,1.13,1.68,1.68,0,0,0,.38,1.13,1.27,1.27,0,0,0,1,.43,1.4,1.4,0,0,0,.75-.2,1.29,1.29,0,0,0,.48-.55A1.92,1.92,0,0,0,25.91,333.07Z"/>
      <path d="M33.83,333.39a3.16,3.16,0,0,1-.25,1.33,2.25,2.25,0,0,1-.69.87,2.72,2.72,0,0,1-.91.47,3.61,3.61,0,0,1-1,.14,3.4,3.4,0,0,1-1.33-.27A2.37,2.37,0,0,1,28.6,335a2.89,2.89,0,0,1-.43-1.65V330h1.61v2.88a2.62,2.62,0,0,0,.16,1,1.16,1.16,0,0,0,.42.57,1.08,1.08,0,0,0,.65.19,1.06,1.06,0,0,0,1.05-.75,2.87,2.87,0,0,0,.16-1V330h1.61Z"/>
      <path d="M39.92,331.51H38v4.61H36.35v-4.61h-2V330h5.54Z"/>
    </g>
    <g>
      <path d="M22.46,299.32a3,3,0,0,1-.6.29,3.6,3.6,0,0,1-.63.15,4.54,4.54,0,0,1-.65,0,3,3,0,0,1-1.11-.19,2.42,2.42,0,0,1-.86-.58,2.45,2.45,0,0,1-.54-.89,3.33,3.33,0,0,1-.18-1.12,3.25,3.25,0,0,1,.21-1.22,2.3,2.3,0,0,1,.6-.88,2.38,2.38,0,0,1,.87-.51,3.22,3.22,0,0,1,1-.17,5.1,5.1,0,0,1,1.84.41v1.44a5.19,5.19,0,0,0-.7-.42,1.86,1.86,0,0,0-.81-.16,1.61,1.61,0,0,0-.78.19,1.48,1.48,0,0,0-.58.53,1.45,1.45,0,0,0-.22.81,1.61,1.61,0,0,0,.19.76,1.55,1.55,0,0,0,.54.54,1.52,1.52,0,0,0,.77.2,2.07,2.07,0,0,0,.66-.1,2.55,2.55,0,0,0,.52-.21,4.46,4.46,0,0,0,.43-.28Z"/>
      <path d="M27.81,294.32l-2.15,5.48h-.95l-2.11-5.48h1.5l1.09,3.12,1.12-3.12Z"/>
    </g>
    <path d="M57.93,69.32H54V68.25h3.94Z"/>
    <path d="M57.93,144.92H54v-1.07h3.94Z" style="fill: #ededed"/>
    <path d="M57.93,220.52H54v-1.07h3.94Z"/>
    <path d="M57.93,296.12H54v-1.07h3.94Z"/>
    <path d="M79.9,69.36H78.26v1.88h-.94V69.36H75.68v-1h1.64V66.43h.94v1.88H79.9Z"/>
    <path d="M79.9,145H78.26v1.88h-.94V145H75.68V143.9h1.64V142h.94v1.87H79.9Z" style="fill: #ededed"/>
    <path d="M79.9,220.56H78.26v1.88h-.94v-1.88H75.68v-1.05h1.64v-1.88h.94v1.88H79.9Z"/>
    <path d="M79.9,296.17H78.26V298h-.94v-1.87H75.68v-1.06h1.64v-1.88h.94v1.88H79.9Z"/>
    <path d="M68.17,45.29a1.59,1.59,0,1,1-1.57-1.82A1.71,1.71,0,0,1,68.17,45.29Z" style="fill: none;stroke: #000"/>
    <path d="M68.17,120.89a1.59,1.59,0,1,1-1.57-1.82A1.71,1.71,0,0,1,68.17,120.89Z" style="fill: none;stroke: #ededed"/>
    <path d="M68.17,196.49a1.59,1.59,0,1,1-1.57-1.82A1.71,1.71,0,0,1,68.17,196.49Z" style="fill: none;stroke: #231f20"/>
    <path d="M68.17,272.09a1.59,1.59,0,1,1-1.57-1.82A1.71,1.71,0,0,1,68.17,272.09Z" style="fill: none;stroke: #231f20"/>
    <path d="M141,94.56h-3.94V93.49H141Z" style="fill: #231f20"/>
    <path d="M141,170.16h-3.94v-1.07H141Z" style="fill: #ededed"/>
    <path d="M141,245.76h-3.94v-1.07H141Z" style="fill: #231f20"/>
    <path d="M141,321.36h-3.94v-1.07H141Z" style="fill: #231f20"/>
    <path d="M163,94.6h-1.65v1.88h-.93V94.6h-1.65V93.54h1.65V91.67h.93v1.87H163Z" style="fill: #231f20"/>
    <path d="M163,170.2h-1.65v1.88h-.93V170.2h-1.65v-1.06h1.65v-1.87h.93v1.87H163Z" style="fill: #ededed"/>
    <path d="M163,245.8h-1.65v1.88h-.93V245.8h-1.65v-1.06h1.65v-1.87h.93v1.87H163Z" style="fill: #231f20"/>
    <path d="M163,321.4h-1.65v1.88h-.93V321.4h-1.65v-1.06h1.65v-1.87h.93v1.87H163Z" style="fill: #231f20"/>
    <path d="M151.27,70.53a1.6,1.6,0,1,1-1.58-1.82A1.72,1.72,0,0,1,151.27,70.53Z" style="fill: none;stroke: #231f20"/>
    <path d="M151.27,146.13a1.6,1.6,0,1,1-1.58-1.82A1.72,1.72,0,0,1,151.27,146.13Z" style="fill: none;stroke: #ededed"/>
    <path d="M151.27,221.73a1.6,1.6,0,1,1-1.58-1.82A1.72,1.72,0,0,1,151.27,221.73Z" style="fill: none;stroke: #231f20"/>
    <path d="M151.27,297.33a1.6,1.6,0,1,1-1.58-1.82A1.72,1.72,0,0,1,151.27,297.33Z" style="fill: none;stroke: #231f20"/>
    <path d="M17.15,14.21a4.54,4.54,0,1,1,0-9.07h8.43a4.54,4.54,0,1,1,0,9.07Z"/>
    <path d="M146.47,14.21a4.54,4.54,0,0,1,0-9.07h8.44a4.54,4.54,0,1,1,0,9.07Z"/>
    <path d="M17.15,360.41a4.53,4.53,0,1,1,0-9.06h8.43a4.53,4.53,0,1,1,0,9.06Z"/>
    <path d="M146.47,360.41a4.53,4.53,0,1,1,0-9.06h8.44a4.53,4.53,0,1,1,0,9.06Z"/>
  </g>
  <g id="components">
    <circle id="Div_Mult_CV_4" data-name="Div Mult CV 4" cx="149.7" cy="310.72" r="8.5" style="fill: #ff0080"/>
    <circle id="LED_4" data-name="LED 4" cx="47.22" cy="316.71" r="4.25" style="fill: #f0f"/>
    <circle id="Inv_Out_4" data-name="Inv Out 4" cx="22.73" cy="316.36" r="11.34" style="fill: #8080ff"/>
    <circle id="Gate_PW_4" data-name="Gate PW 4" cx="108.11" cy="286.84" r="17.01" style="fill: #ff0040"/>
    <circle id="Gate_PW_Att_4" data-name="Gate PW Att 4" cx="66.6" cy="285.46" r="8.5" style="fill: #ff0080"/>
    <circle id="Gate_PW_CV_4" data-name="Gate PW CV 4" cx="22.73" cy="281.8" r="11.34" style="fill: lime"/>
    <circle id="Div_Mult_CV_3" data-name="Div Mult CV 3" cx="149.7" cy="235.12" r="8.5" style="fill: #ff0080"/>
    <circle id="LED_3" data-name="LED 3" cx="47.03" cy="240.97" r="4.25" style="fill: #f0f"/>
    <circle id="Inv_Out_3" data-name="Inv Out 3" cx="22.73" cy="240.76" r="11.34" style="fill: #8080ff"/>
    <circle id="Gate_PW_3" data-name="Gate PW 3" cx="108.11" cy="211.24" r="17.01" style="fill: #ff0040"/>
    <circle id="Gate_PW_Att_3" data-name="Gate PW Att 3" cx="66.6" cy="209.86" r="8.5" style="fill: #ff0080"/>
    <circle id="Gate_PW_CV_3" data-name="Gate PW CV 3" cx="22.73" cy="206.2" r="11.34" style="fill: lime"/>
    <circle id="Div_Mult_CV_2" data-name="Div Mult CV 2" cx="149.7" cy="159.52" r="8.5" style="fill: #ff0080"/>
    <circle id="LED_2" data-name="LED 2" cx="47.41" cy="165.51" r="4.25" style="fill: #f0f"/>
    <circle id="Inv_Out_2" data-name="Inv Out 2" cx="22.73" cy="165.16" r="11.34" style="fill: #8080ff"/>
    <circle id="Gate_PW_2" data-name="Gate PW 2" cx="108.11" cy="135.64" r="17.01" style="fill: #ff0040"/>
    <circle id="Gate_PW_Att_2" data-name="Gate PW Att 2" cx="66.6" cy="134.26" r="8.5" style="fill: #ff0080"/>
    <circle id="Gate_PW_CV_2" data-name="Gate PW CV 2" cx="22.73" cy="130.6" r="11.34" style="fill: lime"/>
    <circle id="Div_Mult_CV_1" data-name="Div Mult CV 1" cx="149.7" cy="83.92" r="8.5" style="fill: #ff0080"/>
    <circle id="LED_1" data-name="LED 1" cx="47.41" cy="89.91" r="4.25" style="fill: #f0f"/>
    <circle id="Inv_Out_1" data-name="Inv Out 1" cx="22.73" cy="89.56" r="11.34" style="fill: #8080ff"/>
    <circle id="Gate_PW_1" data-name="Gate PW 1" cx="108.11" cy="60.04" r="17.01" style="fill: #ff0040"/>
    <circle id="Gate_PW_Att_1" data-name="Gate PW Att 1" cx="66.6" cy="58.66" r="8.5" style="fill: #ff0080"/>
    <circle id="Gate_PW_CV_1" data-name="Gate PW CV 1" cx="22.73" cy="55" r="11.34" style="fill: lime"/>
    <text id="slug" transform="translate(59.86 372.7)" style="font-size: 6px;font-family: MyriadPro-Regular, Myriad Pro">QCDEXP</text>
    <text id="modulename" transform="translate(91.1 372.7)" style="font-size: 6px;font-family: MyriadPro-Regular, Myriad Pro"><tspan style="letter-spacing: 0.0030924479166666665em">Q</tspan><tspan x="4.15" y="0">uad Clock Dist</tspan><tspan x="39.73" y="0" style="letter-spacing: 0.004069010416666667em">r</tspan><tspan x="41.72" y="0" style="letter-spacing: -0.00016276041666666666em">ibu</tspan><tspan x="49.84" y="0" style="letter-spacing: -0.006022135416666667em">t</tspan><tspan x="51.79" y="0">or Expander</tspan></text>
  </g>
</svg>
