<svg xmlns="http://www.w3.org/2000/svg" width="61.05mm" height="130.34mm" viewBox="0 0 173.05 369.47">
  <g id="faceplate">
    <rect x="0.13" y="0.13" width="172.8" height="364.25" style="fill: #ededed;stroke: #9d9d9e;stroke-miterlimit: 10;stroke-width: 0.25px"/>
    <path d="M43.85,247.6" style="fill: none;stroke: #231f20"/>
    <path d="M48.33,209.19" style="fill: none;stroke: #231f20"/>
    <path d="M43.85,172" style="fill: none;stroke: #231f20"/>
    <path d="M48.33,133.59" style="fill: none;stroke: #231f20"/>
    <path d="M43.85,96.4" style="fill: none;stroke: #231f20"/>
    <path d="M48.33,58" style="fill: none;stroke: #231f20"/>
    <path d="M43.85,323.2" style="fill: none;stroke: #231f20"/>
    <path d="M48.33,284.79" style="fill: none;stroke: #231f20"/>
    <path d="M55.09,79.88" style="fill: #5db0e2;stroke: #231f20"/>
    <path d="M55.09,79.88" style="fill: #5db0e2;stroke: #231f20"/>
    <path d="M3.85,289.85v35.89H39.21c9,0,16.29-7.84,16.29-17.5a19.09,19.09,0,0,0-.36-3.66c-.24-1.17-4.5-14.73-4.5-14.73" style="fill: none;stroke: #000"/>
    <path d="M50.64,289.85l-7-23c-2.35-7.12-8.66-12.23-16.09-12.23H3.85v35.26" style="fill: #5ab947;stroke: #000"/>
    <path d="M3.85,214.25v35.89H39.21c9,0,16.29-7.84,16.29-17.5a19.09,19.09,0,0,0-.36-3.66c-.24-1.17-4.5-14.73-4.5-14.73" style="fill: none;stroke: #000"/>
    <path d="M50.64,214.25l-7-23C41.24,184.1,34.93,179,27.5,179H3.85v35.26" style="fill: #5db0e2;stroke: #000"/>
    <path d="M3.85,138.65v35.89H39.21c9,0,16.29-7.84,16.29-17.5a19.09,19.09,0,0,0-.36-3.66c-.24-1.17-4.5-14.73-4.5-14.73" style="fill: none;stroke: #000"/>
    <path d="M50.64,138.65l-7-23c-2.35-7.12-8.66-12.23-16.09-12.23H3.85v35.26" style="stroke: #000"/>
    <path d="M3.85,63.05V98.94H39.21c9,0,16.29-7.84,16.29-17.5a19.09,19.09,0,0,0-.36-3.66c-.24-1.17-4.5-14.73-4.5-14.73" style="fill: none;stroke: #000"/>
    <path d="M50.64,63.05l-7-23C41.24,32.9,34.93,27.79,27.5,27.79H3.85V63.05" style="fill: #ec1c24;stroke: #000"/>
    <path d="M94.73,44H67.29C59.45,44,53.1,50.78,53.1,59.21s6.35,15.25,14.19,15.25H94A24.32,24.32,0,0,1,94.73,44Z" style="fill: #ec1c24;stroke: #000"/>
    <path d="M95.09,119.55H67.29c-7.84,0-14.19,6.83-14.19,15.26s6.35,15.25,14.19,15.25h27a24.32,24.32,0,0,1,.76-30.51Z" style="stroke: #000"/>
    <path d="M95.17,195.15H67.29c-7.84,0-14.19,6.83-14.19,15.26s6.35,15.25,14.19,15.25H94.4a24.34,24.34,0,0,1,.77-30.51Z" style="fill: #5db0e2;stroke: #000"/>
    <path d="M95.09,270.75H67.29c-7.84,0-14.19,6.83-14.19,15.26s6.35,15.25,14.19,15.25h27a24.32,24.32,0,0,1,.76-30.51Z" style="fill: #5ab947;stroke: #000"/>
    <g>
      <g>
        <path d="M18.19,133.42a2,2,0,0,1-.09.59,1.48,1.48,0,0,1-.3.53,1.43,1.43,0,0,1-.54.41,2,2,0,0,1-.82.15H15.5v2H14.06v-5.41h2.38a2,2,0,0,1,.82.15,1.43,1.43,0,0,1,.54.41,1.61,1.61,0,0,1,.3.54A2.08,2.08,0,0,1,18.19,133.42Zm-1.46,0a.59.59,0,0,0-.21-.53,1.26,1.26,0,0,0-.72-.14h-.3v1.3h.31a2.51,2.51,0,0,0,.55-.05.44.44,0,0,0,.28-.19A.7.7,0,0,0,16.73,133.43Z" style="fill: #231f20"/>
        <path d="M20.15,137.13H18.71v-5.41h1.44Z" style="fill: #231f20"/>
        <path d="M26.24,137.13H25l-2.48-3v3H21.07v-5.41h1.28l2.46,3v-3h1.43Z" style="fill: #231f20"/>
        <path d="M31.65,136.75l-.26.11-.21.08-.3.09c-.22.05-.43.1-.65.13a5,5,0,0,1-.69,0,3,3,0,0,1-1.34-.3,2.31,2.31,0,0,1-1-.93,3,3,0,0,1-.37-1.56,3.57,3.57,0,0,1,.19-1.16,2.11,2.11,0,0,1,.58-.92,2.75,2.75,0,0,1,.66-.43,2.89,2.89,0,0,1,.65-.21,4.86,4.86,0,0,1,.69-.05,4.24,4.24,0,0,1,1,.11c.27.07.57.17.9.28v1.29a3,3,0,0,0-.69-.36,2.35,2.35,0,0,0-.9-.15,1.66,1.66,0,0,0-1,.27,1.44,1.44,0,0,0-.52.64,1.9,1.9,0,0,0-.15.72,1.72,1.72,0,0,0,.17.75,1.31,1.31,0,0,0,.51.56,1.54,1.54,0,0,0,.82.21,2.12,2.12,0,0,0,.59-.09v-.63h-.65v-1.09h1.9Z" style="fill: #231f20"/>
      </g>
      <g>
        <path d="M18.19,133.42a2,2,0,0,1-.09.59,1.48,1.48,0,0,1-.3.53,1.43,1.43,0,0,1-.54.41,2,2,0,0,1-.82.15H15.5v2H14.06v-5.41h2.38a2,2,0,0,1,.82.15,1.43,1.43,0,0,1,.54.41,1.61,1.61,0,0,1,.3.54A2.08,2.08,0,0,1,18.19,133.42Zm-1.46,0a.59.59,0,0,0-.21-.53,1.26,1.26,0,0,0-.72-.14h-.3v1.3h.31a2.51,2.51,0,0,0,.55-.05.44.44,0,0,0,.28-.19A.7.7,0,0,0,16.73,133.43Z" style="fill: #ededed"/>
        <path d="M20.15,137.13H18.71v-5.41h1.44Z" style="fill: #ededed"/>
        <path d="M26.24,137.13H25l-2.48-3v3H21.07v-5.41h1.28l2.46,3v-3h1.43Z" style="fill: #ededed"/>
        <path d="M31.65,136.75l-.26.11-.21.08-.3.09c-.22.05-.43.1-.65.13a5,5,0,0,1-.69,0,3,3,0,0,1-1.34-.3,2.31,2.31,0,0,1-1-.93,3,3,0,0,1-.37-1.56,3.57,3.57,0,0,1,.19-1.16,2.11,2.11,0,0,1,.58-.92,2.75,2.75,0,0,1,.66-.43,2.89,2.89,0,0,1,.65-.21,4.86,4.86,0,0,1,.69-.05,4.24,4.24,0,0,1,1,.11c.27.07.57.17.9.28v1.29a3,3,0,0,0-.69-.36,2.35,2.35,0,0,0-.9-.15,1.66,1.66,0,0,0-1,.27,1.44,1.44,0,0,0-.52.64,1.9,1.9,0,0,0-.15.72,1.72,1.72,0,0,0,.17.75,1.31,1.31,0,0,0,.51.56,1.54,1.54,0,0,0,.82.21,2.12,2.12,0,0,0,.59-.09v-.63h-.65v-1.09h1.9Z" style="fill: #ededed"/>
      </g>
    </g>
    <polygon points="6.54 207.52 6.54 212.37 10.77 209.95 6.54 207.52"/>
    <g>
      <path d="M93.55,6.45l-6.92,8.79V7.7a1.6,1.6,0,0,0-.8-1.46,1.11,1.11,0,0,0-1.41.36l-9.1,11.56a1.85,1.85,0,0,0,0,2.24,1.13,1.13,0,0,0,1.82,0s4.34-5.51,6.87-8.74v7.54a1.62,1.62,0,0,0,.81,1.47,1.15,1.15,0,0,0,1.42-.37s4.36-5.56,6.91-8.79v7.69a1.32,1.32,0,1,0,2.58,0V7.55A1.61,1.61,0,0,0,95,6.08,1.12,1.12,0,0,0,93.55,6.45Z" style="fill: #00adee;stroke: #00adee;stroke-width: 0.9623649999999999px"/>
      <path d="M75.32,6.36,69.3,14a1.85,1.85,0,0,0,0,2.24,1.14,1.14,0,0,0,1.83-.05L75,11.38v7.88a1.32,1.32,0,1,0,2.58,0V7.46A1.62,1.62,0,0,0,76.74,6,1.15,1.15,0,0,0,75.32,6.36Z" style="fill: #ec1c24;stroke: #ec1c24;stroke-width: 0.9623649999999999px"/>
      <path d="M104,12a1.32,1.32,0,0,0-1.19-1h-2.63l1.92-2.44s1-1.47.11-2.27-2,.07-2,.07l-4,5.13A1.87,1.87,0,0,0,96,13.25a1.31,1.31,0,0,0,1.19,1h2.64l-3.12,4s-1.3,1.41-.34,2.37,2.19-.17,2.19-.17l5.23-6.65A1.85,1.85,0,0,0,104,12Z" style="fill: #00a551;stroke: #00a551;stroke-width: 0.9623649999999999px"/>
    </g>
    <g>
      <path d="M18.19,209a2,2,0,0,1-.09.59,1.48,1.48,0,0,1-.3.53,1.43,1.43,0,0,1-.54.41,2,2,0,0,1-.82.15H15.5v2H14.06v-5.41h2.38a2,2,0,0,1,.82.15,1.43,1.43,0,0,1,.54.41,1.61,1.61,0,0,1,.3.54A2.08,2.08,0,0,1,18.19,209Zm-1.46,0a.59.59,0,0,0-.21-.53,1.26,1.26,0,0,0-.72-.14h-.3v1.3h.31a2.51,2.51,0,0,0,.55,0,.44.44,0,0,0,.28-.19A.7.7,0,0,0,16.73,209Z"/>
      <path d="M20.15,212.73H18.71v-5.41h1.44Z"/>
      <path d="M26.24,212.73H25l-2.48-3v3H21.07v-5.41h1.28l2.46,3v-3h1.43Z"/>
      <path d="M31.65,212.35l-.26.11-.21.08-.3.09c-.22.05-.43.1-.65.13a5,5,0,0,1-.69,0,3,3,0,0,1-1.34-.3,2.31,2.31,0,0,1-1-.93,3,3,0,0,1-.37-1.56,3.57,3.57,0,0,1,.19-1.16,2.11,2.11,0,0,1,.58-.92,2.75,2.75,0,0,1,.66-.43,2.89,2.89,0,0,1,.65-.21,4.86,4.86,0,0,1,.69,0,4.24,4.24,0,0,1,1,.11c.27.07.57.17.9.28v1.29a3,3,0,0,0-.69-.36,2.35,2.35,0,0,0-.9-.15,1.66,1.66,0,0,0-1,.27,1.44,1.44,0,0,0-.52.64,1.9,1.9,0,0,0-.15.72,1.72,1.72,0,0,0,.17.75,1.31,1.31,0,0,0,.51.56,1.54,1.54,0,0,0,.82.21,2.12,2.12,0,0,0,.59-.09v-.63h-.65v-1.09h1.9Z"/>
    </g>
    <g>
      <path d="M44.29,346.91l-1.2,1.43a8.21,8.21,0,0,1-1.41-.55,9.44,9.44,0,0,1-1.39-.85,4.2,4.2,0,0,1-.83-.74,3.1,3.1,0,0,1-.9-.69,3.71,3.71,0,0,1-.7-1.19,4.77,4.77,0,0,1-.27-1.68,4.86,4.86,0,0,1,.35-1.87A3.25,3.25,0,0,1,39,339.36a2.92,2.92,0,0,1,1.79-.53,3.1,3.1,0,0,1,1.43.31,2.79,2.79,0,0,1,1,.85,3.57,3.57,0,0,1,.6,1.22,5.25,5.25,0,0,1,.19,1.43,4.69,4.69,0,0,1-.25,1.61,3.62,3.62,0,0,1-.64,1.17,3.29,3.29,0,0,1-.9.74,6.49,6.49,0,0,0,.92.45,3,3,0,0,0,1.06.18Zm-2-4.27a2.64,2.64,0,0,0-.1-.76,1.66,1.66,0,0,0-.28-.6,1.39,1.39,0,0,0-.47-.4,1.43,1.43,0,0,0-1.72.38,2.28,2.28,0,0,0-.39,1.38,2.31,2.31,0,0,0,.39,1.39,1.31,1.31,0,0,0,1.09.53,1.27,1.27,0,0,0,.8-.25,1.58,1.58,0,0,0,.51-.67A2.79,2.79,0,0,0,42.3,342.64Z"/>
      <path d="M51.05,343a4.42,4.42,0,0,1-.27,1.63,2.69,2.69,0,0,1-.72,1.06,3,3,0,0,1-1,.57,3.48,3.48,0,0,1-1,.17,3.37,3.37,0,0,1-1.41-.32,2.67,2.67,0,0,1-1.14-1.1,3.88,3.88,0,0,1-.46-2v-4.11h1.71v3.53a3.77,3.77,0,0,0,.16,1.21,1.44,1.44,0,0,0,.46.71,1.07,1.07,0,0,0,.68.22,1.08,1.08,0,0,0,.67-.22,1.4,1.4,0,0,0,.45-.7,3.75,3.75,0,0,0,.17-1.21v-3.54h1.71Z"/>
      <path d="M58.66,346.37H56.9l-.47-1.51H54l-.47,1.51H51.73l2.52-7.44h1.9ZM56,343.57l-.84-2.72-.84,2.72Z"/>
      <path d="M65.27,342.78a4.47,4.47,0,0,1-.32,1.84,3.65,3.65,0,0,1-.75,1.12,2.28,2.28,0,0,1-1.71.63H59.41v-7.44h2.37a4.74,4.74,0,0,1,.91.07,4,4,0,0,1,.69.2,2.84,2.84,0,0,1,.52.3,3.22,3.22,0,0,1,.38.35,3.45,3.45,0,0,1,.51.74,4.17,4.17,0,0,1,.35,1A5.16,5.16,0,0,1,65.27,342.78Zm-1.75-.09a3.21,3.21,0,0,0-.26-1.42,1.47,1.47,0,0,0-.64-.68,1.87,1.87,0,0,0-.76-.17h-.73v4.41h.73a1.75,1.75,0,0,0,1.17-.42A2.23,2.23,0,0,0,63.52,342.69Z"/>
      <path d="M73.76,341.27a3.16,3.16,0,0,1-.11.81,2.24,2.24,0,0,1-.35.73,1.73,1.73,0,0,1-.66.56,2.1,2.1,0,0,1-1,.21H70.54v2.79H68.83v-7.44h2.84a2.1,2.1,0,0,1,1,.21,1.83,1.83,0,0,1,.66.56,2.34,2.34,0,0,1,.35.75A3.24,3.24,0,0,1,73.76,341.27Zm-1.75,0a.91.91,0,0,0-.24-.73,1.42,1.42,0,0,0-.86-.19h-.37v1.79h.37a2.24,2.24,0,0,0,.66-.07.54.54,0,0,0,.34-.26A1.23,1.23,0,0,0,72,341.28Z"/>
      <path d="M76.44,346.37H74.72v-7.44h1.72Z"/>
      <path d="M84.06,346.37H82.53l-3-4.14v4.14h-1.7v-7.44H79.4l2.95,4.12v-4.12h1.71Z"/>
      <path d="M90.86,345.85l-.31.15-.26.1a2.46,2.46,0,0,1-.35.13,5.49,5.49,0,0,1-.78.18,5.36,5.36,0,0,1-.82.06,3.28,3.28,0,0,1-1.6-.41,3,3,0,0,1-1.18-1.29,4.74,4.74,0,0,1-.44-2.14,5.84,5.84,0,0,1,.23-1.6,2.86,2.86,0,0,1,.7-1.26,3,3,0,0,1,.78-.6,2.45,2.45,0,0,1,.77-.27,5.35,5.35,0,0,1,2.08.07c.32.1.68.23,1.07.39v1.76a4.56,4.56,0,0,0-.82-.49,2.55,2.55,0,0,0-1.07-.2,1.77,1.77,0,0,0-1.19.37,1.85,1.85,0,0,0-.62.88,3,3,0,0,0-.18,1,2.66,2.66,0,0,0,.2,1,1.8,1.8,0,0,0,.61.77,1.67,1.67,0,0,0,1,.29,2.24,2.24,0,0,0,.7-.12v-.87h-.77v-1.5h2.27Z"/>
      <path d="M98.47,346.37H96.71l-.46-1.51H93.77l-.47,1.51H91.54l2.52-7.44H96Zm-2.62-2.8L95,340.85l-.85,2.72Z"/>
      <path d="M104.43,344.26a2.25,2.25,0,0,1-.51,1.54,1.76,1.76,0,0,1-1.4.57h-3.3v-7.44H102a2.94,2.94,0,0,1,.93.13,1.66,1.66,0,0,1,.64.37,1.54,1.54,0,0,1,.36.55,1.92,1.92,0,0,1,.12.69,2.29,2.29,0,0,1-.12.76,2.18,2.18,0,0,1-.31.57,1.13,1.13,0,0,1-.37.31,2.32,2.32,0,0,1,.89.76A2.06,2.06,0,0,1,104.43,344.26Zm-2-3.19a.78.78,0,0,0-.27-.71,1.56,1.56,0,0,0-.85-.18h-.36V342h.37a1.53,1.53,0,0,0,.85-.18A.8.8,0,0,0,102.42,341.07Zm.28,3.1c0-.64-.35-1-1.06-1h-.7v1.91h.7C102.35,345.12,102.7,344.8,102.7,344.17Z"/>
      <path d="M109.86,346.37h-4.33v-7.44h1.72v5.66h2.61Z"/>
      <path d="M115.15,346.37h-4.3v-7.44h4.23v1.49h-2.51v1.36H115v1.5h-2.39v1.59h2.58Z"/>
      <path d="M123.13,346.37H118.8v-7.44h1.72v5.66h2.61Z"/>
      <path d="M128.21,343.36h-2.37v3h-1.72v-7.44h4.09v1.49h-2.37v1.44h2.37Z"/>
      <path d="M135.45,342.64a5,5,0,0,1-.36,1.92A3.11,3.11,0,0,1,134,346a3.25,3.25,0,0,1-3.56,0,3.23,3.23,0,0,1-1.08-1.41,4.88,4.88,0,0,1-.36-1.88,5.05,5.05,0,0,1,.35-1.87,3.25,3.25,0,0,1,1.09-1.41,2.94,2.94,0,0,1,1.79-.53,3.18,3.18,0,0,1,1.41.3,3,3,0,0,1,1,.83,4,4,0,0,1,.6,1.22A5,5,0,0,1,135.45,342.64Zm-1.75,0a3,3,0,0,0-.09-.76,1.68,1.68,0,0,0-.29-.6,1.36,1.36,0,0,0-.46-.4,1.34,1.34,0,0,0-.64-.14,1.27,1.27,0,0,0-1.08.52,2.22,2.22,0,0,0-.4,1.38,2.25,2.25,0,0,0,.4,1.39,1.27,1.27,0,0,0,1.08.53,1.3,1.3,0,0,0,.81-.25,1.49,1.49,0,0,0,.5-.67A2.59,2.59,0,0,0,133.7,342.64Z"/>
    </g>
    <g>
      <path d="M88.05,248.68H86.51l-.38-1a4.3,4.3,0,0,0-.37-.77.87.87,0,0,0-.32-.32,1.18,1.18,0,0,0-.41-.06h-.16v2.11H83.44v-5.42h2.44a1.64,1.64,0,0,1,1,.28,1.55,1.55,0,0,1,.54.66,1.76,1.76,0,0,1,.17.74,1.62,1.62,0,0,1-.14.7,1.27,1.27,0,0,1-.29.41,3.12,3.12,0,0,1-.35.25,1.45,1.45,0,0,1,.38.36,4.62,4.62,0,0,1,.41.84Zm-2-3.7a.62.62,0,0,0-.22-.53,1.25,1.25,0,0,0-.7-.15h-.31v1.31h.31a1.47,1.47,0,0,0,.72-.13A.57.57,0,0,0,86.1,245Z"/>
      <path d="M91.81,247H89.34a1,1,0,0,0,.36.59.93.93,0,0,0,.64.23,3.09,3.09,0,0,0,1.38-.39v.87a4.18,4.18,0,0,1-.66.29,3.37,3.37,0,0,1-1,.13,2.15,2.15,0,0,1-1.11-.27,1.74,1.74,0,0,1-.67-.75,2.53,2.53,0,0,1,0-2.11,1.61,1.61,0,0,1,.67-.72,2.15,2.15,0,0,1,1.11-.27,1.75,1.75,0,0,1,.82.21,1.65,1.65,0,0,1,.65.68,2.61,2.61,0,0,1,.26,1.23Zm-1.16-.7a1,1,0,0,0-.17-.61.56.56,0,0,0-.48-.23.61.61,0,0,0-.5.24.88.88,0,0,0-.19.6Z"/>
      <path d="M94.87,247.52a1.21,1.21,0,0,1-.35.89,1.5,1.5,0,0,1-1,.34,2.84,2.84,0,0,1-.69-.08,4.77,4.77,0,0,1-.66-.23v-1a5.78,5.78,0,0,0,.54.31,1.25,1.25,0,0,0,.51.1c.31,0,.46-.09.46-.28a.28.28,0,0,0-.06-.18,1.07,1.07,0,0,0-.24-.17l-.44-.23a1.78,1.78,0,0,1-.59-.46,1.14,1.14,0,0,1-.08-1.28,1.21,1.21,0,0,1,.48-.44,1.61,1.61,0,0,1,.78-.18l.28,0a2.57,2.57,0,0,1,.93.3v1l-.19-.12-.19-.11a2,2,0,0,0-.29-.12,1.39,1.39,0,0,0-.35,0,.37.37,0,0,0-.29.09.25.25,0,0,0,0,.37,2,2,0,0,0,.37.21,2.82,2.82,0,0,1,.66.37,1,1,0,0,1,.35.41A1.27,1.27,0,0,1,94.87,247.52Z"/>
      <path d="M98.85,247H96.38a1,1,0,0,0,.36.59.93.93,0,0,0,.64.23,3.09,3.09,0,0,0,1.38-.39v.87a4.18,4.18,0,0,1-.66.29,3.37,3.37,0,0,1-1,.13,2.15,2.15,0,0,1-1.11-.27,1.74,1.74,0,0,1-.67-.75,2.53,2.53,0,0,1,0-2.11,1.61,1.61,0,0,1,.67-.72,2.15,2.15,0,0,1,1.11-.27,1.75,1.75,0,0,1,.82.21,1.65,1.65,0,0,1,.65.68,2.61,2.61,0,0,1,.26,1.23Zm-1.16-.7a1,1,0,0,0-.17-.61.56.56,0,0,0-.48-.23.61.61,0,0,0-.5.24.88.88,0,0,0-.19.6Z"/>
      <path d="M101.93,248.45a2.19,2.19,0,0,1-.53.2,2.13,2.13,0,0,1-.64.1c-.9,0-1.34-.5-1.34-1.49v-1.58h-.56v-.25l1.66-1.92h.14v1.19h1.18v1h-1.18V247a3.21,3.21,0,0,0,0,.36.43.43,0,0,0,.14.23.53.53,0,0,0,.34.09,1.61,1.61,0,0,0,.77-.28Z"/>
    </g>
    <polygon points="6.54 131.92 6.54 136.77 10.77 134.35 6.54 131.92" style="fill: #ededed"/>
    <g>
      <path d="M88.05,173.08H86.51l-.38-1a4.3,4.3,0,0,0-.37-.77.87.87,0,0,0-.32-.32A1.16,1.16,0,0,0,85,171h-.16v2.12H83.44v-5.42h2.44a1.64,1.64,0,0,1,1,.28,1.55,1.55,0,0,1,.54.66,1.76,1.76,0,0,1,.17.74,1.62,1.62,0,0,1-.14.7,1.27,1.27,0,0,1-.29.41c-.11.08-.22.17-.35.25a1.45,1.45,0,0,1,.38.36,4.62,4.62,0,0,1,.41.84Zm-2-3.71a.6.6,0,0,0-.22-.52,1.25,1.25,0,0,0-.7-.15h-.31V170h.31a1.47,1.47,0,0,0,.72-.13A.58.58,0,0,0,86.1,169.37Z"/>
      <path d="M91.81,171.43H89.34a1,1,0,0,0,.36.59.93.93,0,0,0,.64.23,3.09,3.09,0,0,0,1.38-.39v.87a4.18,4.18,0,0,1-.66.29,3.37,3.37,0,0,1-1,.13,2.06,2.06,0,0,1-1.11-.28,1.66,1.66,0,0,1-.67-.74,2.53,2.53,0,0,1,0-2.11,1.69,1.69,0,0,1,.67-.73,2.25,2.25,0,0,1,1.11-.26,1.75,1.75,0,0,1,.82.21,1.65,1.65,0,0,1,.65.68,2.61,2.61,0,0,1,.26,1.23Zm-1.16-.7a1,1,0,0,0-.17-.61.56.56,0,0,0-.48-.23.61.61,0,0,0-.5.24.88.88,0,0,0-.19.6Z"/>
      <path d="M94.87,171.92a1.21,1.21,0,0,1-.35.89,1.5,1.5,0,0,1-1,.34,2.84,2.84,0,0,1-.69-.08,6.6,6.6,0,0,1-.66-.23v-1a5.78,5.78,0,0,0,.54.31,1.25,1.25,0,0,0,.51.1c.31,0,.46-.09.46-.29a.27.27,0,0,0-.06-.17,1.07,1.07,0,0,0-.24-.17c-.11-.07-.26-.14-.44-.23a1.78,1.78,0,0,1-.59-.46,1.14,1.14,0,0,1-.08-1.28,1.31,1.31,0,0,1,.48-.45,1.73,1.73,0,0,1,.78-.17l.28,0a2.57,2.57,0,0,1,.93.3v1l-.19-.12-.19-.11A2,2,0,0,0,94,170a1.39,1.39,0,0,0-.35,0,.37.37,0,0,0-.29.09.25.25,0,0,0,0,.37,2,2,0,0,0,.37.21,2.82,2.82,0,0,1,.66.37,1,1,0,0,1,.35.41A1.27,1.27,0,0,1,94.87,171.92Z"/>
      <path d="M98.85,171.43H96.38a1,1,0,0,0,.36.59.93.93,0,0,0,.64.23,3.09,3.09,0,0,0,1.38-.39v.87a4.18,4.18,0,0,1-.66.29,3.37,3.37,0,0,1-1,.13,2.06,2.06,0,0,1-1.11-.28,1.66,1.66,0,0,1-.67-.74,2.53,2.53,0,0,1,0-2.11,1.69,1.69,0,0,1,.67-.73,2.25,2.25,0,0,1,1.11-.26,1.75,1.75,0,0,1,.82.21,1.65,1.65,0,0,1,.65.68,2.61,2.61,0,0,1,.26,1.23Zm-1.16-.7a1,1,0,0,0-.17-.61.56.56,0,0,0-.48-.23.61.61,0,0,0-.5.24.88.88,0,0,0-.19.6Z"/>
      <path d="M101.93,172.85a2.19,2.19,0,0,1-.53.2,2.13,2.13,0,0,1-.64.1c-.9,0-1.34-.5-1.34-1.49v-1.58h-.56v-.25l1.66-1.92h.14v1.19h1.18v1h-1.18v1.27a3.21,3.21,0,0,0,0,.36.43.43,0,0,0,.14.23.53.53,0,0,0,.34.09,1.61,1.61,0,0,0,.77-.28Z"/>
    </g>
    <polygon points="6.54 56.32 6.54 61.17 10.77 58.75 6.54 56.32"/>
    <g>
      <path d="M18.19,57.82a2,2,0,0,1-.09.59,1.48,1.48,0,0,1-.3.53,1.43,1.43,0,0,1-.54.41,2,2,0,0,1-.82.15H15.5v2H14.06V56.12h2.38a2,2,0,0,1,.82.15,1.43,1.43,0,0,1,.54.41,1.61,1.61,0,0,1,.3.54A2.08,2.08,0,0,1,18.19,57.82Zm-1.46,0a.6.6,0,0,0-.21-.53,1.26,1.26,0,0,0-.72-.14h-.3v1.3h.31a2,2,0,0,0,.55-.05.41.41,0,0,0,.28-.19A.7.7,0,0,0,16.73,57.83Z"/>
      <path d="M20.15,61.53H18.71V56.12h1.44Z"/>
      <path d="M26.24,61.53H25l-2.48-3v3H21.07V56.12h1.28l2.46,3v-3h1.43Z"/>
      <path d="M31.65,61.15l-.26.11-.21.08-.3.09c-.22,0-.43.1-.65.13a5,5,0,0,1-.69,0,3,3,0,0,1-1.34-.3,2.31,2.31,0,0,1-1-.93,3,3,0,0,1-.37-1.56A3.57,3.57,0,0,1,27,57.65a2.11,2.11,0,0,1,.58-.92,2.75,2.75,0,0,1,.66-.43,2.89,2.89,0,0,1,.65-.21,4.86,4.86,0,0,1,.69-.05,4.24,4.24,0,0,1,1,.11c.27.07.57.17.9.28v1.29a3,3,0,0,0-.69-.36,2.35,2.35,0,0,0-.9-.15,1.66,1.66,0,0,0-1,.27,1.44,1.44,0,0,0-.52.64,1.94,1.94,0,0,0-.15.72,1.72,1.72,0,0,0,.17.75,1.31,1.31,0,0,0,.51.56,1.54,1.54,0,0,0,.82.21,2.12,2.12,0,0,0,.59-.09v-.63h-.65V58.55h1.9Z"/>
    </g>
    <g>
      <path d="M20.06,94a3.08,3.08,0,0,1-.31,1.39,2.3,2.3,0,0,1-.92,1,2.76,2.76,0,0,1-1.48.38,2.71,2.71,0,0,1-1.49-.39,2.44,2.44,0,0,1-.91-1,3.26,3.26,0,0,1,0-2.73,2.35,2.35,0,0,1,.91-1,2.71,2.71,0,0,1,1.49-.39,2.92,2.92,0,0,1,1.18.22,2.32,2.32,0,0,1,.85.61,2.64,2.64,0,0,1,.51.88A3.43,3.43,0,0,1,20.06,94Zm-1.47,0a1.65,1.65,0,0,0-.08-.56,1.32,1.32,0,0,0-.23-.44,1.24,1.24,0,0,0-.39-.29,1.33,1.33,0,0,0-.54-.1,1.14,1.14,0,0,0-.9.38,1.5,1.5,0,0,0-.33,1,1.47,1.47,0,0,0,.33,1,1.12,1.12,0,0,0,.9.39,1.23,1.23,0,0,0,.68-.18,1.19,1.19,0,0,0,.42-.49A1.65,1.65,0,0,0,18.59,94Z"/>
      <path d="M25.63,94.24a2.87,2.87,0,0,1-.22,1.19,2.15,2.15,0,0,1-.61.77,2.39,2.39,0,0,1-.81.41,2.91,2.91,0,0,1-.87.13,3.07,3.07,0,0,1-1.18-.24,2.06,2.06,0,0,1-1-.79,2.55,2.55,0,0,1-.39-1.47v-3H22v2.57a2.44,2.44,0,0,0,.13.88,1,1,0,0,0,1.51.52,1.07,1.07,0,0,0,.38-.51,2.46,2.46,0,0,0,.14-.88V91.25h1.43Z"/>
      <path d="M31.05,92.57H29.3v4.1H27.87v-4.1H26.12V91.25h4.93Z"/>
    </g>
    <g>
      <path d="M20.06,169.56a3.08,3.08,0,0,1-.31,1.39,2.3,2.3,0,0,1-.92,1,2.76,2.76,0,0,1-1.48.38,2.71,2.71,0,0,1-1.49-.39,2.44,2.44,0,0,1-.91-1,3.14,3.14,0,0,1-.3-1.36,3.19,3.19,0,0,1,.3-1.37,2.35,2.35,0,0,1,.91-1,2.71,2.71,0,0,1,1.49-.39,2.92,2.92,0,0,1,1.18.22,2.32,2.32,0,0,1,.85.61,2.75,2.75,0,0,1,.51.88A3.43,3.43,0,0,1,20.06,169.56Zm-1.47,0a1.65,1.65,0,0,0-.08-.56,1.32,1.32,0,0,0-.23-.44,1.24,1.24,0,0,0-.39-.29,1.33,1.33,0,0,0-.54-.1,1.14,1.14,0,0,0-.9.38,1.5,1.5,0,0,0-.33,1,1.47,1.47,0,0,0,.33,1,1.12,1.12,0,0,0,.9.39,1.23,1.23,0,0,0,.68-.18,1.19,1.19,0,0,0,.42-.49A1.65,1.65,0,0,0,18.59,169.56Z"/>
      <path d="M25.63,169.84a2.84,2.84,0,0,1-.22,1.19,2.15,2.15,0,0,1-.61.77,2.39,2.39,0,0,1-.81.41,2.91,2.91,0,0,1-.87.13,3.07,3.07,0,0,1-1.18-.24,2.06,2.06,0,0,1-1-.79,2.55,2.55,0,0,1-.39-1.47v-3H22v2.57a2.44,2.44,0,0,0,.13.88.95.95,0,0,0,.95.68,1,1,0,0,0,.56-.16,1.07,1.07,0,0,0,.38-.51,2.46,2.46,0,0,0,.14-.88v-2.58h1.43Z"/>
      <path d="M31.05,168.17H29.3v4.1H27.87v-4.1H26.12v-1.32h4.93Z"/>
    </g>
    <g>
      <path d="M20.06,245.16a3.08,3.08,0,0,1-.31,1.39,2.3,2.3,0,0,1-.92,1,2.76,2.76,0,0,1-1.48.38,2.71,2.71,0,0,1-1.49-.39,2.38,2.38,0,0,1-.91-1,3.14,3.14,0,0,1-.3-1.36,3.19,3.19,0,0,1,.3-1.37,2.35,2.35,0,0,1,.91-1,2.71,2.71,0,0,1,1.49-.39,2.92,2.92,0,0,1,1.18.22,2.32,2.32,0,0,1,.85.61,2.75,2.75,0,0,1,.51.88A3.43,3.43,0,0,1,20.06,245.16Zm-1.47,0a1.65,1.65,0,0,0-.08-.56,1.32,1.32,0,0,0-.23-.44,1.24,1.24,0,0,0-.39-.29,1.53,1.53,0,0,0-.54-.1,1.14,1.14,0,0,0-.9.38,1.5,1.5,0,0,0-.33,1,1.47,1.47,0,0,0,.33,1,1.12,1.12,0,0,0,.9.39,1.23,1.23,0,0,0,.68-.18,1.19,1.19,0,0,0,.42-.49A1.65,1.65,0,0,0,18.59,245.16Z"/>
      <path d="M25.63,245.44a2.84,2.84,0,0,1-.22,1.19,2.15,2.15,0,0,1-.61.77,2.39,2.39,0,0,1-.81.41,2.91,2.91,0,0,1-.87.13,3.07,3.07,0,0,1-1.18-.24,2.06,2.06,0,0,1-1-.79,2.55,2.55,0,0,1-.39-1.47v-3H22V245a2.54,2.54,0,0,0,.13.89,1.07,1.07,0,0,0,.38.51,1,1,0,0,0,.57.16,1,1,0,0,0,.56-.16,1.07,1.07,0,0,0,.38-.51,2.42,2.42,0,0,0,.14-.88v-2.58h1.43Z"/>
      <path d="M31.05,243.77H29.3v4.1H27.87v-4.1H26.12v-1.32h4.93Z"/>
    </g>
    <g>
      <path d="M20.06,320.76a3.08,3.08,0,0,1-.31,1.39,2.3,2.3,0,0,1-.92,1,2.76,2.76,0,0,1-1.48.38,2.71,2.71,0,0,1-1.49-.39,2.44,2.44,0,0,1-.91-1,3.14,3.14,0,0,1-.3-1.36,3.19,3.19,0,0,1,.3-1.37,2.35,2.35,0,0,1,.91-1,2.71,2.71,0,0,1,1.49-.39,2.92,2.92,0,0,1,1.18.22,2.32,2.32,0,0,1,.85.61,2.75,2.75,0,0,1,.51.88A3.43,3.43,0,0,1,20.06,320.76Zm-1.47,0a1.65,1.65,0,0,0-.08-.56,1.32,1.32,0,0,0-.23-.44,1.24,1.24,0,0,0-.39-.29,1.53,1.53,0,0,0-.54-.1,1.14,1.14,0,0,0-.9.38,1.5,1.5,0,0,0-.33,1,1.47,1.47,0,0,0,.33,1,1.12,1.12,0,0,0,.9.39A1.23,1.23,0,0,0,18,322a1.19,1.19,0,0,0,.42-.49A1.65,1.65,0,0,0,18.59,320.76Z"/>
      <path d="M25.63,321a2.84,2.84,0,0,1-.22,1.19,2.15,2.15,0,0,1-.61.77,2.39,2.39,0,0,1-.81.41,2.91,2.91,0,0,1-.87.13,3.07,3.07,0,0,1-1.18-.24,2.06,2.06,0,0,1-1-.79A2.55,2.55,0,0,1,20.6,321v-3H22v2.57a2.54,2.54,0,0,0,.13.89,1.07,1.07,0,0,0,.38.51,1.06,1.06,0,0,0,.57.16,1,1,0,0,0,.56-.16,1.07,1.07,0,0,0,.38-.51,2.42,2.42,0,0,0,.14-.88v-2.58h1.43Z"/>
      <path d="M31.05,319.37H29.3v4.1H27.87v-4.1H26.12v-1.32h4.93Z"/>
    </g>
    <g>
      <path d="M108.29,84.85a1.87,1.87,0,0,1-.26,1,1.76,1.76,0,0,1-.71.64,2.54,2.54,0,0,1-1.06.22l-.41,0a3.79,3.79,0,0,1-.64-.13,4,4,0,0,1-.83-.33V84.72a4.76,4.76,0,0,0,.8.47,1.85,1.85,0,0,0,.84.19.68.68,0,0,0,.53-.15.5.5,0,0,0,.12-.3.53.53,0,0,0-.2-.41,3.2,3.2,0,0,0-.61-.35,4.46,4.46,0,0,1-.78-.46,1.91,1.91,0,0,1-.54-.62,1.76,1.76,0,0,1-.21-.88,1.86,1.86,0,0,1,.21-.89,1.6,1.6,0,0,1,.65-.64,2.2,2.2,0,0,1,1.07-.24,3.56,3.56,0,0,1,.83.1,4.12,4.12,0,0,1,.63.22,3.07,3.07,0,0,1,.34.2v1.43a4.19,4.19,0,0,0-.73-.48,1.86,1.86,0,0,0-.87-.21.63.63,0,0,0-.44.13.42.42,0,0,0-.13.32.44.44,0,0,0,.13.32,3.79,3.79,0,0,0,.49.32,9.22,9.22,0,0,1,1,.59,2,2,0,0,1,.58.61A1.61,1.61,0,0,1,108.29,84.85Z"/>
      <path d="M113.52,86.62h-1.76l-1.52-2.12v2.12h-1.4V80.53h1.4V84.1l1.38-2h1.68l-1.54,2.09Z"/>
      <path d="M117.69,84.76h-2.77a1.07,1.07,0,0,0,.39.67,1.16,1.16,0,0,0,.72.26,3.4,3.4,0,0,0,1.56-.45v1a4.3,4.3,0,0,1-.74.33,3.46,3.46,0,0,1-1.11.15,2.4,2.4,0,0,1-1.24-.31,1.93,1.93,0,0,1-.76-.84,2.7,2.7,0,0,1-.25-1.19,2.65,2.65,0,0,1,.25-1.18,1.88,1.88,0,0,1,.76-.82,2.4,2.4,0,0,1,1.24-.29,1.94,1.94,0,0,1,.93.23,1.82,1.82,0,0,1,.73.77,2.91,2.91,0,0,1,.29,1.38ZM116.38,84a1.11,1.11,0,0,0-.19-.69.61.61,0,0,0-.54-.25.68.68,0,0,0-.56.26,1,1,0,0,0-.21.68Z"/>
      <path d="M124.32,82.14l-1.55,4.48h-.88L121,84.18l-.87,2.44h-.88l-1.59-4.48h1.41l.72,2.26.77-2.26h.88l.78,2.26.7-2.26Z"/>
    </g>
    <path d="M101.79,158.44c-.83,0-5.71,0-5.71-4v4.37" style="fill: none;stroke: #000"/>
    <g>
      <path d="M108.29,160.45a1.87,1.87,0,0,1-.26,1,1.76,1.76,0,0,1-.71.64,2.54,2.54,0,0,1-1.06.22l-.41,0a3.79,3.79,0,0,1-.64-.13,4,4,0,0,1-.83-.33v-1.49a4.76,4.76,0,0,0,.8.47,1.85,1.85,0,0,0,.84.19.68.68,0,0,0,.53-.15.5.5,0,0,0,.12-.29.53.53,0,0,0-.2-.42,3.2,3.2,0,0,0-.61-.35,4.46,4.46,0,0,1-.78-.46,1.91,1.91,0,0,1-.54-.62,1.76,1.76,0,0,1-.21-.88,1.86,1.86,0,0,1,.21-.89,1.6,1.6,0,0,1,.65-.64,2.2,2.2,0,0,1,1.07-.24,3.56,3.56,0,0,1,.83.1,3.23,3.23,0,0,1,.63.23,2.16,2.16,0,0,1,.34.19V158a4.19,4.19,0,0,0-.73-.48,1.86,1.86,0,0,0-.87-.21.63.63,0,0,0-.44.13.42.42,0,0,0-.13.32.44.44,0,0,0,.13.32,3.79,3.79,0,0,0,.49.32,9.22,9.22,0,0,1,1,.59,2.09,2.09,0,0,1,.58.61A1.61,1.61,0,0,1,108.29,160.45Z"/>
      <path d="M113.52,162.22h-1.76l-1.52-2.12v2.12h-1.4v-6.09h1.4v3.57l1.38-2h1.68l-1.54,2.09Z"/>
      <path d="M117.69,160.36h-2.77a1.07,1.07,0,0,0,.39.67,1.16,1.16,0,0,0,.72.26,3.4,3.4,0,0,0,1.56-.45v1a4.3,4.3,0,0,1-.74.33,3.46,3.46,0,0,1-1.11.15,2.31,2.31,0,0,1-1.24-.31,2,2,0,0,1-.76-.83,2.74,2.74,0,0,1-.25-1.2,2.65,2.65,0,0,1,.25-1.18,1.88,1.88,0,0,1,.76-.82,2.4,2.4,0,0,1,1.24-.29,1.94,1.94,0,0,1,.93.23,1.82,1.82,0,0,1,.73.77,2.94,2.94,0,0,1,.29,1.38Zm-1.31-.78a1.13,1.13,0,0,0-.19-.69.61.61,0,0,0-.54-.25.68.68,0,0,0-.56.26,1,1,0,0,0-.21.68Z"/>
      <path d="M124.32,157.74l-1.55,4.48h-.88l-.88-2.44-.87,2.44h-.88l-1.59-4.48h1.41l.72,2.26.77-2.26h.88l.78,2.26.7-2.26Z"/>
    </g>
    <polyline points="126.11 158.85 131.64 154.8 131.64 158.85" style="fill: none;stroke: #000"/>
    <polyline points="111.01 114.24 114.03 110.53 117.26 114.24" style="fill: none;stroke: #000;stroke-width: 0.779874px"/>
    <polyline points="111.01 38.64 114.03 34.93 117.26 38.64" style="fill: none;stroke: #000;stroke-width: 0.779874px"/>
    <polyline points="111.01 189.84 114.03 186.13 117.26 189.84" style="fill: none;stroke: #000;stroke-width: 0.779874px"/>
    <polyline points="111.01 265.44 114.03 261.73 117.26 265.44" style="fill: none;stroke: #000;stroke-width: 0.779874px"/>
    <g>
      <path d="M108.29,236.05a1.87,1.87,0,0,1-.26,1,1.69,1.69,0,0,1-.71.64,2.54,2.54,0,0,1-1.06.22l-.41,0a3.79,3.79,0,0,1-.64-.13,4,4,0,0,1-.83-.33v-1.49a5.65,5.65,0,0,0,.8.48,2,2,0,0,0,.84.18.68.68,0,0,0,.53-.15.5.5,0,0,0,.12-.29.53.53,0,0,0-.2-.42,3.2,3.2,0,0,0-.61-.35,4.46,4.46,0,0,1-.78-.46,1.91,1.91,0,0,1-.54-.62,1.76,1.76,0,0,1-.21-.88,1.86,1.86,0,0,1,.21-.89,1.6,1.6,0,0,1,.65-.64,2.2,2.2,0,0,1,1.07-.23,3.58,3.58,0,0,1,.83.09,3.23,3.23,0,0,1,.63.23,2.16,2.16,0,0,1,.34.19v1.43a4.19,4.19,0,0,0-.73-.48,1.86,1.86,0,0,0-.87-.21.63.63,0,0,0-.44.13.46.46,0,0,0,0,.64,3.79,3.79,0,0,0,.49.32,11.24,11.24,0,0,1,1,.59,2.09,2.09,0,0,1,.58.61A1.64,1.64,0,0,1,108.29,236.05Z"/>
      <path d="M113.52,237.82h-1.76l-1.52-2.12v2.12h-1.4v-6.09h1.4v3.57l1.38-2h1.68l-1.54,2.08Z"/>
      <path d="M117.69,236h-2.77a1.07,1.07,0,0,0,.39.67,1.1,1.1,0,0,0,.72.26,3.4,3.4,0,0,0,1.56-.45v1a4.3,4.3,0,0,1-.74.33,3.46,3.46,0,0,1-1.11.15,2.31,2.31,0,0,1-1.24-.31,1.9,1.9,0,0,1-.76-.83,2.74,2.74,0,0,1-.25-1.2,2.65,2.65,0,0,1,.25-1.18,1.88,1.88,0,0,1,.76-.82,2.5,2.5,0,0,1,1.24-.29,2.06,2.06,0,0,1,.93.23,1.82,1.82,0,0,1,.73.77,2.94,2.94,0,0,1,.29,1.38Zm-1.31-.78a1.15,1.15,0,0,0-.19-.69.61.61,0,0,0-.54-.25.68.68,0,0,0-.56.26,1,1,0,0,0-.21.68Z"/>
      <path d="M124.32,233.35l-1.55,4.47h-.88l-.88-2.44-.87,2.44h-.88l-1.59-4.47h1.41l.72,2.25.77-2.25h.88l.78,2.25.7-2.25Z"/>
    </g>
    <g>
      <path d="M108.29,311.65a1.87,1.87,0,0,1-.26,1,1.76,1.76,0,0,1-.71.64,2.54,2.54,0,0,1-1.06.22l-.41,0a3.79,3.79,0,0,1-.64-.13,4,4,0,0,1-.83-.33v-1.49a4.76,4.76,0,0,0,.8.47,1.85,1.85,0,0,0,.84.19.68.68,0,0,0,.53-.15.5.5,0,0,0,.12-.29.53.53,0,0,0-.2-.42,3.2,3.2,0,0,0-.61-.35,4.46,4.46,0,0,1-.78-.46,1.91,1.91,0,0,1-.54-.62,1.76,1.76,0,0,1-.21-.88,1.86,1.86,0,0,1,.21-.89,1.6,1.6,0,0,1,.65-.64,2.2,2.2,0,0,1,1.07-.24,3.56,3.56,0,0,1,.83.1,3.23,3.23,0,0,1,.63.23,2.16,2.16,0,0,1,.34.19v1.43a4.19,4.19,0,0,0-.73-.48,1.86,1.86,0,0,0-.87-.21.63.63,0,0,0-.44.13.42.42,0,0,0-.13.32.44.44,0,0,0,.13.32,3.79,3.79,0,0,0,.49.32,9.22,9.22,0,0,1,1,.59,2.09,2.09,0,0,1,.58.61A1.64,1.64,0,0,1,108.29,311.65Z"/>
      <path d="M113.52,313.42h-1.76l-1.52-2.12v2.12h-1.4v-6.09h1.4v3.57l1.38-1.95h1.68L111.76,311Z"/>
      <path d="M117.69,311.56h-2.77a1.07,1.07,0,0,0,.39.67,1.1,1.1,0,0,0,.72.26,3.4,3.4,0,0,0,1.56-.45v1a4.3,4.3,0,0,1-.74.33,3.46,3.46,0,0,1-1.11.15,2.31,2.31,0,0,1-1.24-.31,1.9,1.9,0,0,1-.76-.83,2.74,2.74,0,0,1-.25-1.2,2.65,2.65,0,0,1,.25-1.18,1.88,1.88,0,0,1,.76-.82,2.4,2.4,0,0,1,1.24-.29,2.06,2.06,0,0,1,.93.23,1.82,1.82,0,0,1,.73.77,2.94,2.94,0,0,1,.29,1.38Zm-1.31-.78a1.13,1.13,0,0,0-.19-.69.61.61,0,0,0-.54-.25.68.68,0,0,0-.56.26,1,1,0,0,0-.21.68Z"/>
      <path d="M124.32,309l-1.55,4.47h-.88L121,311l-.87,2.44h-.88L117.67,309h1.41l.72,2.25.77-2.25h.88l.78,2.25.7-2.25Z"/>
    </g>
    <g>
      <path d="M88.05,97.48H86.51l-.38-1a4.67,4.67,0,0,0-.37-.77.91.91,0,0,0-.32-.31,1.16,1.16,0,0,0-.41-.07h-.16v2.12H83.44V92.06h2.44a1.57,1.57,0,0,1,1,.28,1.55,1.55,0,0,1,.54.66,1.76,1.76,0,0,1,.17.74,1.57,1.57,0,0,1-.14.69,1.33,1.33,0,0,1-.29.42l-.35.24a1.64,1.64,0,0,1,.38.36,4.82,4.82,0,0,1,.41.85Zm-2-3.71a.6.6,0,0,0-.22-.52,1.25,1.25,0,0,0-.7-.15h-.31v1.31h.31a1.35,1.35,0,0,0,.72-.14A.55.55,0,0,0,86.1,93.77Z"/>
      <path d="M91.81,95.83H89.34a1,1,0,0,0,1,.82,3,3,0,0,0,1.38-.4v.87a3.41,3.41,0,0,1-.66.3,3.37,3.37,0,0,1-1,.13A2.15,2.15,0,0,1,89,97.27a1.71,1.71,0,0,1-.67-.74,2.43,2.43,0,0,1-.23-1.06,2.38,2.38,0,0,1,.23-1,1.69,1.69,0,0,1,.67-.73,2.25,2.25,0,0,1,1.11-.26,1.75,1.75,0,0,1,.82.21,1.65,1.65,0,0,1,.65.68,2.61,2.61,0,0,1,.26,1.23Zm-1.16-.7a1,1,0,0,0-.17-.61.56.56,0,0,0-.48-.23.63.63,0,0,0-.5.23.93.93,0,0,0-.19.61Z"/>
      <path d="M94.87,96.32a1.17,1.17,0,0,1-.35.88,1.46,1.46,0,0,1-1,.35,2.84,2.84,0,0,1-.69-.08,6.6,6.6,0,0,1-.66-.23v-1a5.78,5.78,0,0,0,.54.31,1.25,1.25,0,0,0,.51.1c.31,0,.46-.09.46-.29a.27.27,0,0,0-.06-.17,1.07,1.07,0,0,0-.24-.17c-.11-.07-.26-.14-.44-.23a1.92,1.92,0,0,1-.59-.46,1.09,1.09,0,0,1-.24-.71,1.07,1.07,0,0,1,.16-.57,1.31,1.31,0,0,1,.48-.45,1.73,1.73,0,0,1,.78-.17,1.47,1.47,0,0,1,.28,0,2.57,2.57,0,0,1,.93.3v1l-.19-.12-.19-.12L94,94.37a1.41,1.41,0,0,0-.35-.05.34.34,0,0,0-.29.1.25.25,0,0,0,0,.37,2,2,0,0,0,.37.21,3.25,3.25,0,0,1,.66.36,1,1,0,0,1,.35.42A1.27,1.27,0,0,1,94.87,96.32Z"/>
      <path d="M98.85,95.83H96.38a1,1,0,0,0,1,.82,3,3,0,0,0,1.38-.4v.87a3.41,3.41,0,0,1-.66.3,3.37,3.37,0,0,1-1,.13A2.15,2.15,0,0,1,96,97.27a1.71,1.71,0,0,1-.67-.74,2.43,2.43,0,0,1-.23-1.06,2.38,2.38,0,0,1,.23-1,1.69,1.69,0,0,1,.67-.73,2.25,2.25,0,0,1,1.11-.26,1.75,1.75,0,0,1,.82.21,1.65,1.65,0,0,1,.65.68,2.61,2.61,0,0,1,.26,1.23Zm-1.16-.7a1,1,0,0,0-.17-.61.56.56,0,0,0-.48-.23.63.63,0,0,0-.5.23.93.93,0,0,0-.19.61Z"/>
      <path d="M101.93,97.25a2.71,2.71,0,0,1-.53.2,2.5,2.5,0,0,1-.64.1c-.9,0-1.34-.5-1.34-1.49V94.48h-.56v-.25l1.66-1.92h.14V93.5h1.18v1h-1.18v1.27a3.21,3.21,0,0,0,0,.36.43.43,0,0,0,.14.23.53.53,0,0,0,.34.09,1.61,1.61,0,0,0,.77-.28Z"/>
    </g>
    <polygon points="6.54 283.12 6.54 287.97 10.77 285.55 6.54 283.12"/>
    <g>
      <path d="M18.19,284.62a2,2,0,0,1-.09.59,1.48,1.48,0,0,1-.3.53,1.43,1.43,0,0,1-.54.41,2,2,0,0,1-.82.15H15.5v2H14.06v-5.41h2.38a2,2,0,0,1,.82.15,1.43,1.43,0,0,1,.54.41,1.61,1.61,0,0,1,.3.54A2.08,2.08,0,0,1,18.19,284.62Zm-1.46,0a.6.6,0,0,0-.21-.53,1.26,1.26,0,0,0-.72-.14h-.3v1.3h.31a2.51,2.51,0,0,0,.55-.05.41.41,0,0,0,.28-.19A.7.7,0,0,0,16.73,284.63Z"/>
      <path d="M20.15,288.33H18.71v-5.41h1.44Z"/>
      <path d="M26.24,288.33H25l-2.48-3v3H21.07v-5.41h1.28l2.46,3v-3h1.43Z"/>
      <path d="M31.65,288l-.26.11-.21.08-.3.09c-.22,0-.43.1-.65.13a5,5,0,0,1-.69,0,3,3,0,0,1-1.34-.3,2.31,2.31,0,0,1-1-.93,3,3,0,0,1-.37-1.56,3.57,3.57,0,0,1,.19-1.16,2.11,2.11,0,0,1,.58-.92,2.75,2.75,0,0,1,.66-.43,2.89,2.89,0,0,1,.65-.21,4.86,4.86,0,0,1,.69-.05,4.24,4.24,0,0,1,1,.11c.27.07.57.17.9.28v1.29a3,3,0,0,0-.69-.36A2.35,2.35,0,0,0,30,284a1.66,1.66,0,0,0-1,.27,1.44,1.44,0,0,0-.52.64,1.94,1.94,0,0,0-.15.72,1.72,1.72,0,0,0,.17.75A1.31,1.31,0,0,0,29,287a1.54,1.54,0,0,0,.82.21,2.12,2.12,0,0,0,.59-.09v-.63h-.65v-1.09h1.9Z"/>
    </g>
    <g>
      <path d="M88.05,324.28H86.51l-.38-1a4.3,4.3,0,0,0-.37-.77.87.87,0,0,0-.32-.32,1.16,1.16,0,0,0-.41-.07h-.16v2.12H83.44v-5.42h2.44a1.64,1.64,0,0,1,1,.28,1.55,1.55,0,0,1,.54.66,1.76,1.76,0,0,1,.17.74,1.62,1.62,0,0,1-.14.7,1.27,1.27,0,0,1-.29.41,3.12,3.12,0,0,1-.35.25,1.45,1.45,0,0,1,.38.36,4.62,4.62,0,0,1,.41.84Zm-2-3.71a.6.6,0,0,0-.22-.52,1.25,1.25,0,0,0-.7-.15h-.31v1.31h.31a1.47,1.47,0,0,0,.72-.13A.58.58,0,0,0,86.1,320.57Z"/>
      <path d="M91.81,322.63H89.34a1,1,0,0,0,.36.59.93.93,0,0,0,.64.23,3.09,3.09,0,0,0,1.38-.39v.87a4.18,4.18,0,0,1-.66.29,3.06,3.06,0,0,1-1,.13,2.06,2.06,0,0,1-1.11-.28,1.66,1.66,0,0,1-.67-.74,2.53,2.53,0,0,1,0-2.11,1.69,1.69,0,0,1,.67-.73,2.25,2.25,0,0,1,1.11-.26,1.75,1.75,0,0,1,.82.21,1.65,1.65,0,0,1,.65.68,2.61,2.61,0,0,1,.26,1.23Zm-1.16-.7a1,1,0,0,0-.17-.61.56.56,0,0,0-.48-.23.61.61,0,0,0-.5.24.88.88,0,0,0-.19.6Z"/>
      <path d="M94.87,323.12a1.21,1.21,0,0,1-.35.89,1.46,1.46,0,0,1-1,.34,2.84,2.84,0,0,1-.69-.08,4.77,4.77,0,0,1-.66-.23v-1a4.15,4.15,0,0,0,.54.31,1.25,1.25,0,0,0,.51.1c.31,0,.46-.09.46-.29a.27.27,0,0,0-.06-.17,1.07,1.07,0,0,0-.24-.17l-.44-.23a1.78,1.78,0,0,1-.59-.46,1.07,1.07,0,0,1-.24-.71,1.1,1.1,0,0,1,.16-.57,1.21,1.21,0,0,1,.48-.44,1.61,1.61,0,0,1,.78-.18l.28,0a2.57,2.57,0,0,1,.93.3v1a2.2,2.2,0,0,1-.19-.12l-.19-.11a2,2,0,0,0-.29-.12,1.39,1.39,0,0,0-.35,0,.37.37,0,0,0-.29.09.25.25,0,0,0,0,.37,1.51,1.51,0,0,0,.37.21,2.82,2.82,0,0,1,.66.37,1,1,0,0,1,.35.41A1.27,1.27,0,0,1,94.87,323.12Z"/>
      <path d="M98.85,322.63H96.38a1,1,0,0,0,.36.59.93.93,0,0,0,.64.23,3.09,3.09,0,0,0,1.38-.39v.87a4.18,4.18,0,0,1-.66.29,3.06,3.06,0,0,1-1,.13,2.06,2.06,0,0,1-1.11-.28,1.66,1.66,0,0,1-.67-.74,2.53,2.53,0,0,1,0-2.11,1.69,1.69,0,0,1,.67-.73,2.25,2.25,0,0,1,1.11-.26,1.75,1.75,0,0,1,.82.21,1.65,1.65,0,0,1,.65.68,2.61,2.61,0,0,1,.26,1.23Zm-1.16-.7a1,1,0,0,0-.17-.61.56.56,0,0,0-.48-.23.61.61,0,0,0-.5.24.88.88,0,0,0-.19.6Z"/>
      <path d="M101.93,324.05a2.19,2.19,0,0,1-.53.2,2.13,2.13,0,0,1-.64.1c-.9,0-1.34-.5-1.34-1.49v-1.58h-.56V321l1.66-1.92h.14v1.19h1.18v1h-1.18v1.27a3.21,3.21,0,0,0,0,.36.43.43,0,0,0,.14.23.53.53,0,0,0,.34.09,1.61,1.61,0,0,0,.77-.28Z"/>
    </g>
    <g>
      <path d="M152.25,56.82a2,2,0,0,1-.09.59,1.57,1.57,0,0,1-.85.94,2,2,0,0,1-.81.15h-.94v2h-1.44V55.12h2.38a2,2,0,0,1,.81.15,1.47,1.47,0,0,1,.55.41,1.61,1.61,0,0,1,.3.54A2.08,2.08,0,0,1,152.25,56.82Zm-1.47,0a.59.59,0,0,0-.2-.53,1.26,1.26,0,0,0-.72-.14h-.3v1.3h.31a2.51,2.51,0,0,0,.55-.05.44.44,0,0,0,.28-.19A.81.81,0,0,0,150.78,56.83Z"/>
      <path d="M153.86,60.53h-1.24v-4h1.24Zm-.1-4.89a.64.64,0,0,1-.15.42.5.5,0,0,1-.37.17.47.47,0,0,1-.26-.08.55.55,0,0,1-.19-.21.73.73,0,0,1-.07-.3.64.64,0,0,1,.15-.42.47.47,0,0,1,.74,0A.64.64,0,0,1,153.76,55.64Z"/>
      <path d="M158.17,60.53h-1.24V58.39a1.62,1.62,0,0,0-.09-.57.39.39,0,0,0-.42-.25.46.46,0,0,0-.26.07.65.65,0,0,0-.21.16,1.3,1.3,0,0,0-.15.2l-.13.2v2.33h-1.24v-4h1.24v.57a1.75,1.75,0,0,1,.59-.5,1.38,1.38,0,0,1,.65-.14q1.26,0,1.26,1.71Z"/>
      <path d="M162.15,57.4h-.61a1.06,1.06,0,0,1,.32.79,1.27,1.27,0,0,1-.09.47,1.09,1.09,0,0,1-.27.4,1.21,1.21,0,0,1-.43.29,2.11,2.11,0,0,1-.6.14c-.28,0-.43.1-.43.26a.15.15,0,0,0,.06.13.46.46,0,0,0,.17.07l.4,0a2.78,2.78,0,0,1,.6.11,1.18,1.18,0,0,1,.51.32,1,1,0,0,1,.24.72,1.21,1.21,0,0,1-.18.66,1.18,1.18,0,0,1-.57.44,2.79,2.79,0,0,1-1.05.16,2.57,2.57,0,0,1-1.37-.28.85.85,0,0,1-.38-1.06.86.86,0,0,1,.24-.33,1.13,1.13,0,0,1,.53-.21.44.44,0,0,1-.21-.2.53.53,0,0,1-.09-.3.71.71,0,0,1,.13-.41.57.57,0,0,1,.4-.26,1.43,1.43,0,0,1-.67-.45,1.21,1.21,0,0,1-.29-.84,1.79,1.79,0,0,1,.13-.68,1.35,1.35,0,0,1,.37-.48,1.71,1.71,0,0,1,.54-.27,2.49,2.49,0,0,1,.68-.08h1.92ZM161,61.27a.32.32,0,0,0-.24-.33,1.81,1.81,0,0,0-.51-.08,1.37,1.37,0,0,0-.62.1.35.35,0,0,0-.19.33c0,.3.26.45.79.45a1.13,1.13,0,0,0,.56-.12A.36.36,0,0,0,161,61.27Zm-.25-3.2a.65.65,0,0,0-.18-.48.55.55,0,0,0-.4-.18.52.52,0,0,0-.45.22.76.76,0,0,0-.16.46.64.64,0,0,0,.07.31.52.52,0,0,0,.2.24.62.62,0,0,0,.75-.11A.64.64,0,0,0,160.78,58.07Z"/>
    </g>
    <g>
      <path d="M155.58,96a3.12,3.12,0,0,1-.31,1.4,2.4,2.4,0,0,1-.91,1,2.79,2.79,0,0,1-1.49.37,2.73,2.73,0,0,1-1.49-.39,2.38,2.38,0,0,1-.91-1,3.23,3.23,0,0,1,0-2.72,2.32,2.32,0,0,1,.91-1,2.73,2.73,0,0,1,1.49-.39,2.92,2.92,0,0,1,1.18.23,2.22,2.22,0,0,1,.85.6,2.69,2.69,0,0,1,.51.89A3.36,3.36,0,0,1,155.58,96Zm-1.46,0a2,2,0,0,0-.08-.56,1.49,1.49,0,0,0-.24-.43,1.11,1.11,0,0,0-.39-.29,1.3,1.3,0,0,0-.54-.11,1.12,1.12,0,0,0-.9.39,1.47,1.47,0,0,0-.33,1,1.5,1.5,0,0,0,.33,1,1.14,1.14,0,0,0,.9.38,1.23,1.23,0,0,0,.68-.18,1.13,1.13,0,0,0,.42-.49A1.66,1.66,0,0,0,154.12,96Z"/>
      <path d="M159.73,98.69h-1.24V96.55a1.42,1.42,0,0,0-.1-.57.39.39,0,0,0-.41-.25.5.5,0,0,0-.27.07.74.74,0,0,0-.2.16l-.16.2-.12.2v2.33H156v-4h1.24v.57a1.73,1.73,0,0,1,.58-.5,1.45,1.45,0,0,1,.66-.14q1.26,0,1.26,1.71Z"/>
    </g>
    <g>
      <path d="M152.25,132.42a2,2,0,0,1-.09.59,1.57,1.57,0,0,1-.85.94,2,2,0,0,1-.81.15h-.94v2h-1.44v-5.41h2.38a2,2,0,0,1,.81.15,1.47,1.47,0,0,1,.55.41,1.61,1.61,0,0,1,.3.54A2.08,2.08,0,0,1,152.25,132.42Zm-1.47,0a.59.59,0,0,0-.2-.53,1.26,1.26,0,0,0-.72-.14h-.3v1.3h.31a2.51,2.51,0,0,0,.55-.05.44.44,0,0,0,.28-.19A.81.81,0,0,0,150.78,132.43Z"/>
      <path d="M153.86,136.13h-1.24v-4h1.24Zm-.1-4.89a.64.64,0,0,1-.15.42.5.5,0,0,1-.37.17.47.47,0,0,1-.26-.08.55.55,0,0,1-.19-.21.73.73,0,0,1-.07-.3.64.64,0,0,1,.15-.42.47.47,0,0,1,.74,0A.64.64,0,0,1,153.76,131.24Z"/>
      <path d="M158.17,136.13h-1.24V134a1.72,1.72,0,0,0-.09-.58.4.4,0,0,0-.42-.24.46.46,0,0,0-.26.07.65.65,0,0,0-.21.16,1.3,1.3,0,0,0-.15.2l-.13.2v2.33h-1.24v-4h1.24v.57a1.75,1.75,0,0,1,.59-.5,1.38,1.38,0,0,1,.65-.15c.84,0,1.26.58,1.26,1.72Z"/>
      <path d="M162.15,133h-.61a1.06,1.06,0,0,1,.32.79,1.27,1.27,0,0,1-.09.47,1.09,1.09,0,0,1-.27.4,1.21,1.21,0,0,1-.43.29,1.82,1.82,0,0,1-.6.13c-.28,0-.43.1-.43.27a.15.15,0,0,0,.06.13.46.46,0,0,0,.17.07l.4,0a2.78,2.78,0,0,1,.6.11,1.18,1.18,0,0,1,.51.32,1,1,0,0,1,.24.72,1.21,1.21,0,0,1-.18.66,1.25,1.25,0,0,1-.57.44,2.79,2.79,0,0,1-1.05.16,2.57,2.57,0,0,1-1.37-.28.85.85,0,0,1-.38-1.06.8.8,0,0,1,.24-.33,1.13,1.13,0,0,1,.53-.21.44.44,0,0,1-.21-.2.55.55,0,0,1-.09-.3.71.71,0,0,1,.13-.41.54.54,0,0,1,.4-.26,1.43,1.43,0,0,1-.67-.45,1.21,1.21,0,0,1-.29-.84,1.79,1.79,0,0,1,.13-.68,1.35,1.35,0,0,1,.37-.48,1.71,1.71,0,0,1,.54-.27,2.49,2.49,0,0,1,.68-.08h1.92ZM161,136.87a.32.32,0,0,0-.24-.33,1.81,1.81,0,0,0-.51-.08,1.37,1.37,0,0,0-.62.1.35.35,0,0,0-.19.33c0,.3.26.45.79.45a1.13,1.13,0,0,0,.56-.12A.36.36,0,0,0,161,136.87Zm-.25-3.2a.65.65,0,0,0-.18-.48.55.55,0,0,0-.4-.18.52.52,0,0,0-.45.22.76.76,0,0,0-.16.46.64.64,0,0,0,.07.31.52.52,0,0,0,.2.24.62.62,0,0,0,.75-.11A.64.64,0,0,0,160.78,133.67Z"/>
    </g>
    <g>
      <path d="M155.58,171.58a3.12,3.12,0,0,1-.31,1.4,2.4,2.4,0,0,1-.91,1,2.79,2.79,0,0,1-1.49.37,2.73,2.73,0,0,1-1.49-.39,2.38,2.38,0,0,1-.91-1,3.23,3.23,0,0,1,0-2.72,2.32,2.32,0,0,1,.91-1,2.73,2.73,0,0,1,1.49-.39,2.92,2.92,0,0,1,1.18.23,2.22,2.22,0,0,1,.85.6,2.69,2.69,0,0,1,.51.89A3.36,3.36,0,0,1,155.58,171.58Zm-1.46,0A2,2,0,0,0,154,171a1.49,1.49,0,0,0-.24-.43,1.11,1.11,0,0,0-.39-.29,1.3,1.3,0,0,0-.54-.11,1.12,1.12,0,0,0-.9.39,1.47,1.47,0,0,0-.33,1,1.52,1.52,0,0,0,.33,1,1.14,1.14,0,0,0,.9.38,1.23,1.23,0,0,0,.68-.18,1.13,1.13,0,0,0,.42-.49A1.66,1.66,0,0,0,154.12,171.58Z"/>
      <path d="M159.73,174.29h-1.24v-2.14a1.5,1.5,0,0,0-.1-.58.39.39,0,0,0-.41-.24.5.5,0,0,0-.27.07.74.74,0,0,0-.2.16l-.16.2-.12.2v2.33H156v-4h1.24v.57a1.73,1.73,0,0,1,.58-.5,1.45,1.45,0,0,1,.66-.15c.84,0,1.26.58,1.26,1.72Z"/>
    </g>
    <g>
      <path d="M152.25,208a2,2,0,0,1-.09.59,1.57,1.57,0,0,1-.85.94,2,2,0,0,1-.81.15h-.94v2h-1.44v-5.41h2.38a2,2,0,0,1,.81.15,1.47,1.47,0,0,1,.55.41,1.61,1.61,0,0,1,.3.54A2.08,2.08,0,0,1,152.25,208Zm-1.47,0a.6.6,0,0,0-.2-.53,1.35,1.35,0,0,0-.72-.14h-.3v1.3h.31a2,2,0,0,0,.55,0,.41.41,0,0,0,.28-.19A.81.81,0,0,0,150.78,208Z"/>
      <path d="M153.86,211.73h-1.24v-4h1.24Zm-.1-4.89a.64.64,0,0,1-.15.42.5.5,0,0,1-.37.17.47.47,0,0,1-.26-.08.55.55,0,0,1-.19-.21.73.73,0,0,1-.07-.3.64.64,0,0,1,.15-.42.47.47,0,0,1,.74,0A.64.64,0,0,1,153.76,206.84Z"/>
      <path d="M158.17,211.73h-1.24v-2.14a1.62,1.62,0,0,0-.09-.57.39.39,0,0,0-.42-.25.46.46,0,0,0-.26.07.65.65,0,0,0-.21.16,1.3,1.3,0,0,0-.15.2l-.13.2v2.33h-1.24v-4h1.24v.57a1.75,1.75,0,0,1,.59-.5,1.38,1.38,0,0,1,.65-.14q1.26,0,1.26,1.71Z"/>
      <path d="M162.15,208.6h-.61a1.06,1.06,0,0,1,.32.79,1.27,1.27,0,0,1-.09.47,1.09,1.09,0,0,1-.27.4,1.21,1.21,0,0,1-.43.29,2.11,2.11,0,0,1-.6.14c-.28,0-.43.1-.43.26a.14.14,0,0,0,.06.13.46.46,0,0,0,.17.07l.4,0a2.78,2.78,0,0,1,.6.11,1.18,1.18,0,0,1,.51.32,1,1,0,0,1,.24.72,1.21,1.21,0,0,1-.18.66,1.18,1.18,0,0,1-.57.44,2.79,2.79,0,0,1-1.05.16,2.57,2.57,0,0,1-1.37-.28.85.85,0,0,1-.38-1.06.86.86,0,0,1,.24-.33,1.13,1.13,0,0,1,.53-.21.44.44,0,0,1-.21-.2.53.53,0,0,1-.09-.3.71.71,0,0,1,.13-.41.57.57,0,0,1,.4-.26,1.48,1.48,0,0,1-.67-.44,1.24,1.24,0,0,1-.29-.84,1.84,1.84,0,0,1,.13-.69,1.23,1.23,0,0,1,.37-.47,1.55,1.55,0,0,1,.54-.28,2.49,2.49,0,0,1,.68-.08h1.92ZM161,212.47a.32.32,0,0,0-.24-.33,1.81,1.81,0,0,0-.51-.08,1.52,1.52,0,0,0-.62.1.35.35,0,0,0-.19.33c0,.3.26.45.79.45a1.13,1.13,0,0,0,.56-.12A.36.36,0,0,0,161,212.47Zm-.25-3.19a.66.66,0,0,0-.18-.49.55.55,0,0,0-.4-.18.52.52,0,0,0-.45.22.76.76,0,0,0-.16.46.64.64,0,0,0,.07.31.52.52,0,0,0,.2.24.62.62,0,0,0,.75-.11A.62.62,0,0,0,160.78,209.28Z"/>
    </g>
    <g>
      <path d="M155.58,247.18a3.05,3.05,0,0,1-.31,1.39,2.37,2.37,0,0,1-.91,1,2.79,2.79,0,0,1-1.49.37,2.73,2.73,0,0,1-1.49-.39,2.38,2.38,0,0,1-.91-1,3.14,3.14,0,0,1-.3-1.36,3.11,3.11,0,0,1,.3-1.36,2.32,2.32,0,0,1,.91-1,2.73,2.73,0,0,1,1.49-.39,2.92,2.92,0,0,1,1.18.23,2.22,2.22,0,0,1,.85.6,2.69,2.69,0,0,1,.51.89A3.36,3.36,0,0,1,155.58,247.18Zm-1.46,0a2,2,0,0,0-.08-.56,1.49,1.49,0,0,0-.24-.43,1.11,1.11,0,0,0-.39-.29,1.3,1.3,0,0,0-.54-.11,1.12,1.12,0,0,0-.9.39,1.47,1.47,0,0,0-.33,1,1.52,1.52,0,0,0,.33,1,1.14,1.14,0,0,0,.9.38,1.23,1.23,0,0,0,.68-.18,1.13,1.13,0,0,0,.42-.49A1.66,1.66,0,0,0,154.12,247.18Z"/>
      <path d="M159.73,249.89h-1.24v-2.14a1.5,1.5,0,0,0-.1-.58.39.39,0,0,0-.41-.24.6.6,0,0,0-.27.06,1.06,1.06,0,0,0-.2.17l-.16.2-.12.2v2.33H156v-4h1.24v.58a1.73,1.73,0,0,1,.58-.5,1.45,1.45,0,0,1,.66-.15c.84,0,1.26.57,1.26,1.72Z"/>
    </g>
    <g>
      <path d="M152.25,283.62a2,2,0,0,1-.09.59,1.57,1.57,0,0,1-.85.94,2,2,0,0,1-.81.15h-.94v2h-1.44v-5.41h2.38a2,2,0,0,1,.81.15,1.47,1.47,0,0,1,.55.41,1.61,1.61,0,0,1,.3.54A2.08,2.08,0,0,1,152.25,283.62Zm-1.47,0a.59.59,0,0,0-.2-.53,1.26,1.26,0,0,0-.72-.14h-.3v1.3h.31a2.51,2.51,0,0,0,.55-.05.44.44,0,0,0,.28-.19A.81.81,0,0,0,150.78,283.63Z"/>
      <path d="M153.86,287.33h-1.24v-4h1.24Zm-.1-4.89a.64.64,0,0,1-.15.42.5.5,0,0,1-.37.17A.47.47,0,0,1,153,283a.55.55,0,0,1-.19-.21.73.73,0,0,1-.07-.3.64.64,0,0,1,.15-.42.47.47,0,0,1,.74,0A.64.64,0,0,1,153.76,282.44Z"/>
      <path d="M158.17,287.33h-1.24v-2.14a1.62,1.62,0,0,0-.09-.57.39.39,0,0,0-.42-.25.46.46,0,0,0-.26.07.65.65,0,0,0-.21.16,1.3,1.3,0,0,0-.15.2l-.13.2v2.33h-1.24v-4h1.24v.57a1.75,1.75,0,0,1,.59-.5,1.38,1.38,0,0,1,.65-.15c.84,0,1.26.58,1.26,1.72Z"/>
      <path d="M162.15,284.2h-.61a1.06,1.06,0,0,1,.32.79,1.27,1.27,0,0,1-.09.47,1.09,1.09,0,0,1-.27.4,1.21,1.21,0,0,1-.43.29,1.82,1.82,0,0,1-.6.13c-.28,0-.43.1-.43.27a.15.15,0,0,0,.06.13.46.46,0,0,0,.17.07l.4.05a2.78,2.78,0,0,1,.6.11,1.18,1.18,0,0,1,.51.32,1,1,0,0,1,.24.72,1.23,1.23,0,0,1-.18.66,1.25,1.25,0,0,1-.57.44,2.79,2.79,0,0,1-1.05.16,2.57,2.57,0,0,1-1.37-.28.85.85,0,0,1-.38-1.06.8.8,0,0,1,.24-.33,1.13,1.13,0,0,1,.53-.21.44.44,0,0,1-.21-.2.55.55,0,0,1-.09-.3.71.71,0,0,1,.13-.41.57.57,0,0,1,.4-.26,1.43,1.43,0,0,1-.67-.45,1.21,1.21,0,0,1-.29-.84,1.79,1.79,0,0,1,.13-.68,1.35,1.35,0,0,1,.37-.48,1.71,1.71,0,0,1,.54-.27,2.49,2.49,0,0,1,.68-.08h1.92ZM161,288.07a.32.32,0,0,0-.24-.33,1.81,1.81,0,0,0-.51-.08,1.37,1.37,0,0,0-.62.1.35.35,0,0,0-.19.33c0,.3.26.45.79.45a1.13,1.13,0,0,0,.56-.12A.36.36,0,0,0,161,288.07Zm-.25-3.2a.65.65,0,0,0-.18-.48.55.55,0,0,0-.4-.18.52.52,0,0,0-.45.22.74.74,0,0,0-.16.46.64.64,0,0,0,.07.31.52.52,0,0,0,.2.24.62.62,0,0,0,.75-.11A.64.64,0,0,0,160.78,284.87Z"/>
    </g>
    <g>
      <path d="M155.58,322.78a3.12,3.12,0,0,1-.31,1.4,2.4,2.4,0,0,1-.91,1,2.79,2.79,0,0,1-1.49.37,2.73,2.73,0,0,1-1.49-.39,2.38,2.38,0,0,1-.91-1,3.23,3.23,0,0,1,0-2.72,2.32,2.32,0,0,1,.91-1,2.73,2.73,0,0,1,1.49-.39,2.92,2.92,0,0,1,1.18.23,2.22,2.22,0,0,1,.85.6,2.69,2.69,0,0,1,.51.89A3.36,3.36,0,0,1,155.58,322.78Zm-1.46,0a2,2,0,0,0-.08-.56,1.49,1.49,0,0,0-.24-.43,1.11,1.11,0,0,0-.39-.29,1.3,1.3,0,0,0-.54-.11,1.12,1.12,0,0,0-.9.39,1.47,1.47,0,0,0-.33,1,1.5,1.5,0,0,0,.33,1,1.14,1.14,0,0,0,.9.38,1.23,1.23,0,0,0,.68-.18,1.19,1.19,0,0,0,.42-.49A1.66,1.66,0,0,0,154.12,322.78Z"/>
      <path d="M159.73,325.49h-1.24v-2.14a1.42,1.42,0,0,0-.1-.57.39.39,0,0,0-.41-.25.5.5,0,0,0-.27.07.74.74,0,0,0-.2.16l-.16.2-.12.2v2.33H156v-4h1.24v.57a1.73,1.73,0,0,1,.58-.5,1.45,1.45,0,0,1,.66-.14q1.26,0,1.26,1.71Z"/>
    </g>
    <path d="M145.1,59.68" style="fill: none;stroke: #231f20"/>
    <path d="M114,28.61" style="fill: none;stroke: #231f20"/>
    <g>
      <path d="M102.44,153.34a21.45,21.45,0,0,1,6.88-39" style="fill: none;stroke: #000;stroke-width: 1.5141900000000001px"/>
      <path d="M118.74,114.37a21.45,21.45,0,0,1,6.87,39" style="fill: none;stroke: #000;stroke-width: 1.5141900000000001px"/>
    </g>
    <path d="M101.79,234c-.83,0-5.71,0-5.71-4v4.37" style="fill: none;stroke: #000"/>
    <polyline points="126.11 234.45 131.64 230.4 131.64 234.45" style="fill: none;stroke: #000"/>
    <g>
      <path d="M102.44,228.93a21.44,21.44,0,0,1,6.88-39" style="fill: none;stroke: #000;stroke-width: 1.5141900000000001px"/>
      <path d="M118.74,190a21.44,21.44,0,0,1,6.87,39" style="fill: none;stroke: #000;stroke-width: 1.5141900000000001px"/>
    </g>
    <path d="M101.79,309.64c-.83,0-5.71,0-5.71-4V310" style="fill: none;stroke: #000"/>
    <polyline points="126.11 310.05 131.64 306 131.64 310.05" style="fill: none;stroke: #000"/>
    <path d="M25.64,267.27" style="fill: none;stroke: #231f20;stroke-width: 1.5px"/>
    <path d="M66.26,255.46" style="fill: none;stroke: #231f20;stroke-width: 1.5px"/>
    <path d="M41.66,36H96.39a27.83,27.83,0,0,1,40.4,5.52h17.86" style="fill: none;stroke: #000"/>
    <path d="M41.66,111.58H96.39a27.83,27.83,0,0,1,40.4,5.52h17.86" style="fill: none;stroke: #000"/>
    <path d="M41.66,187.18H96.39a27.83,27.83,0,0,1,40.4,5.52h17.86" style="fill: none;stroke: #000"/>
    <path d="M41.66,262.78H96.39a27.83,27.83,0,0,1,40.4,5.52h17.86" style="fill: none;stroke: #000"/>
    <g>
      <path d="M102.44,304.53a21.44,21.44,0,0,1,6.88-39" style="fill: none;stroke: #231f20;stroke-width: 1.5141900000000001px"/>
      <path d="M118.74,265.57a21.44,21.44,0,0,1,6.87,39" style="fill: none;stroke: #231f20;stroke-width: 1.5141900000000001px"/>
    </g>
    <path d="M101.79,82.84c-.83,0-5.71,0-5.71-4v4.37" style="fill: none;stroke: #000"/>
    <polyline points="126.11 83.25 131.64 79.2 131.64 83.25" style="fill: none;stroke: #000"/>
    <g>
      <path d="M102.44,77.73a21.44,21.44,0,0,1,6.88-39" style="fill: none;stroke: #000;stroke-width: 1.5141900000000001px"/>
      <path d="M118.74,38.77a21.44,21.44,0,0,1,6.87,39" style="fill: none;stroke: #000;stroke-width: 1.5141900000000001px"/>
    </g>
    <path d="M148.54,96.27" style="fill: none;stroke: #231f20"/>
    <line x1="154.84" y1="74.1" x2="154.84" y2="63.41" style="fill: none;stroke: #000"/>
    <line x1="154.84" y1="149.7" x2="154.84" y2="139.01" style="fill: none;stroke: #000"/>
    <line x1="154.84" y1="300.9" x2="154.84" y2="290.21" style="fill: none;stroke: #000"/>
    <line x1="154.84" y1="225.3" x2="154.84" y2="214.61" style="fill: none;stroke: #000"/>
    <path d="M17.65,359.83a4.54,4.54,0,1,1,0-9.07h8.43a4.54,4.54,0,1,1,0,9.07Z"/>
    <path d="M148.8,359.83a4.54,4.54,0,0,1,0-9.07h8.44a4.54,4.54,0,1,1,0,9.07Z"/>
    <path d="M17.65,12.58a4.54,4.54,0,1,1,0-9.07h8.43a4.54,4.54,0,1,1,0,9.07Z"/>
    <path d="M148.8,12.58a4.54,4.54,0,0,1,0-9.07h8.44a4.54,4.54,0,1,1,0,9.07Z"/>
  </g>
  <g id="components">
    <circle id="On_4" data-name="On 4" cx="154.79" cy="307.86" r="10.63" style="fill: #ff8000"/>
    <circle id="Reset_4" data-name="Reset 4" cx="67.94" cy="320.82" r="11.34" style="fill: #80ff80"/>
    <circle id="LED_4" data-name="LED 4" cx="45.23" cy="303.75" r="4.25" style="fill: #f0f"/>
    <circle id="Out_4" data-name="Out 4" cx="22.57" cy="303.54" r="11.34" style="fill: blue"/>
    <circle id="Ping_4" data-name="Ping 4" cx="154.79" cy="269.98" r="10.63" style="fill: #ffc000"/>
    <circle id="Skew_4" data-name="Skew 4" cx="114.03" cy="286.48" r="17.01" style="fill: #ff0040"/>
    <circle id="Skew_4_Jack" data-name="Skew 4 Jack" cx="67.94" cy="286.26" r="11.34" style="fill: lime"/>
    <circle id="Ping_4_Jack" data-name="Ping 4 Jack" cx="22.57" cy="268.98" r="11.34" style="fill: #80ff80"/>
    <circle id="On_3" data-name="On 3" cx="154.79" cy="232.26" r="10.63" style="fill: #ff8000"/>
    <circle id="Reset_3" data-name="Reset 3" cx="67.94" cy="245.22" r="11.34" style="fill: #80ff80"/>
    <circle id="LED_3" data-name="LED 3" cx="45.23" cy="228.15" r="4.25" style="fill: #f0f"/>
    <circle id="Out_3" data-name="Out 3" cx="22.57" cy="227.94" r="11.34" style="fill: blue"/>
    <circle id="Ping_3" data-name="Ping 3" cx="154.79" cy="194.38" r="10.63" style="fill: #ffc000"/>
    <circle id="Skew_3" data-name="Skew 3" cx="114.03" cy="210.88" r="17.01" style="fill: #ff0040"/>
    <circle id="Skew_3_Jack" data-name="Skew 3 Jack" cx="67.94" cy="210.66" r="11.34" style="fill: lime"/>
    <circle id="Ping_3_Jack" data-name="Ping 3 Jack" cx="22.57" cy="193.38" r="11.34" style="fill: #80ff80"/>
    <circle id="On_2" data-name="On 2" cx="154.79" cy="156.66" r="10.63" style="fill: #ff8000"/>
    <circle id="Reset_2" data-name="Reset 2" cx="67.94" cy="169.62" r="11.34" style="fill: #80ff80"/>
    <circle id="LED_2" data-name="LED 2" cx="45.23" cy="152.55" r="4.25" style="fill: #f0f"/>
    <circle id="Out_2" data-name="Out 2" cx="22.57" cy="152.34" r="11.34" style="fill: blue"/>
    <circle id="Ping_2" data-name="Ping 2" cx="154.79" cy="118.78" r="10.63" style="fill: #ffc000"/>
    <circle id="Skew_2" data-name="Skew 2" cx="114.03" cy="135.28" r="17.01" style="fill: #ff0040"/>
    <circle id="Skew_2_Jack" data-name="Skew 2 Jack" cx="67.94" cy="135.06" r="11.34" style="fill: lime"/>
    <circle id="Ping_2_Jack" data-name="Ping 2 Jack" cx="22.57" cy="117.78" r="11.34" style="fill: #80ff80"/>
    <circle id="On_1" data-name="On 1" cx="154.79" cy="81.06" r="10.63" style="fill: #ff8000"/>
    <circle id="Reset_1" data-name="Reset 1" cx="67.94" cy="94.02" r="11.34" style="fill: #80ff80"/>
    <circle id="LED_1" data-name="LED 1" cx="45.23" cy="76.95" r="4.25" style="fill: #f0f"/>
    <circle id="Out_1" data-name="Out 1" cx="22.57" cy="76.74" r="11.34" style="fill: blue"/>
    <circle id="Ping_1" data-name="Ping 1" cx="154.79" cy="43.18" r="10.63" style="fill: #ffc000"/>
    <circle id="Skew_1" data-name="Skew 1" cx="114.03" cy="59.68" r="17.01" style="fill: #ff0040"/>
    <circle id="Skew_1_CV" data-name="Skew 1 CV" cx="67.94" cy="59.46" r="11.34" style="fill: lime"/>
    <circle id="Ping_1_Jack" data-name="Ping 1 Jack" cx="22.57" cy="42.18" r="11.34" style="fill: #80ff80"/>
    <text id="slug" transform="translate(116.23 368.72)" style="font-size: 3px;font-family: MyriadPro-Regular, Myriad Pro">QPLFO</text>
    <text id="modulename" transform="translate(142.18 368.72)" style="font-size: 3px;font-family: MyriadPro-Regular, Myriad Pro"><tspan style="letter-spacing: 0.0029296875em">Q</tspan><tspan x="2.08" y="0" style="letter-spacing: -0.0003255208333333333em">uad </tspan><tspan x="7.5" y="0" style="letter-spacing: -0.015950520833333332em">P</tspan><tspan x="9.05" y="0">ingable LFO</tspan></text>
  </g>
</svg>
