<svg xmlns="http://www.w3.org/2000/svg" width="28.45mm" height="131.3mm" viewBox="0 0 80.64 372.18">
  <g id="faceplate">
    <rect x="0.13" y="0.13" width="57.6" height="364.25" style="fill: #ededed;stroke: #9d9d9e;stroke-miterlimit: 10;stroke-width: 0.25px"/>
    <g>
      <path d="M14,148.92c-6.34,0-11.49-5.53-11.49-12.31S7.61,124.3,14,124.3H43.66c6.34,0,11.49,5.52,11.49,12.31S50,148.92,43.66,148.92Z" style="fill: #ec1c24"/>
      <path d="M43.66,124.8c6.07,0,11,5.29,11,11.81s-4.92,11.81-11,11.81H14c-6.07,0-11-5.29-11-11.81S7.88,124.8,14,124.8H43.66m0-1H14c-6.62,0-12,5.75-12,12.81s5.37,12.81,12,12.81H43.66c6.61,0,12-5.75,12-12.81s-5.38-12.81-12-12.81Z"/>
    </g>
    <g>
      <path d="M14,120.12c-6.34,0-11.49-5.53-11.49-12.31S7.61,95.5,14,95.5H43.66c6.34,0,11.49,5.52,11.49,12.31S50,120.12,43.66,120.12Z" style="fill: #00adee"/>
      <path d="M43.66,96c6.07,0,11,5.29,11,11.81s-4.92,11.81-11,11.81H14c-6.07,0-11-5.29-11-11.81S7.88,96,14,96H43.66m0-1H14c-6.62,0-12,5.75-12,12.81s5.37,12.81,12,12.81H43.66c6.61,0,12-5.75,12-12.81S50.27,95,43.66,95Z"/>
    </g>
    <g>
      <path d="M14,177.72c-6.34,0-11.49-5.52-11.49-12.31S7.61,153.1,14,153.1H43.66c6.34,0,11.49,5.52,11.49,12.31S50,177.72,43.66,177.72Z" style="fill: #00a551"/>
      <path d="M43.66,153.6c6.07,0,11,5.29,11,11.81s-4.92,11.81-11,11.81H14c-6.07,0-11-5.29-11-11.81S7.88,153.6,14,153.6H43.66m0-1H14c-6.62,0-12,5.75-12,12.81s5.37,12.81,12,12.81H43.66c6.61,0,12-5.75,12-12.81s-5.38-12.81-12-12.81Z"/>
    </g>
    <g>
      <path d="M14,206.51c-6.34,0-11.49-5.51-11.49-12.3S7.61,181.9,14,181.9H43.66c6.34,0,11.49,5.53,11.49,12.31s-5.15,12.3-11.49,12.3Z" style="fill: #ec1c24"/>
      <path d="M43.66,182.4c6.07,0,11,5.29,11,11.81S49.73,206,43.66,206H14c-6.07,0-11-5.29-11-11.81S7.88,182.4,14,182.4H43.66m0-1H14c-6.62,0-12,5.75-12,12.81S7.33,207,14,207H43.66c6.61,0,12-5.75,12-12.81s-5.38-12.81-12-12.81Z"/>
    </g>
    <g>
      <path d="M14,235.31c-6.34,0-11.49-5.51-11.49-12.3S7.61,210.7,14,210.7H43.66c6.34,0,11.49,5.52,11.49,12.31s-5.15,12.3-11.49,12.3Z" style="fill: #00adee"/>
      <path d="M43.66,211.2c6.07,0,11,5.29,11,11.81s-4.92,11.8-11,11.8H14c-6.07,0-11-5.28-11-11.8S7.88,211.2,14,211.2H43.66m0-1H14C7.33,210.2,2,216,2,223s5.37,12.8,12,12.8H43.66c6.61,0,12-5.74,12-12.8s-5.38-12.81-12-12.81Z"/>
    </g>
    <g>
      <path d="M14,264.11c-6.34,0-11.49-5.52-11.49-12.3S7.61,239.5,14,239.5H43.66c6.34,0,11.49,5.52,11.49,12.31s-5.15,12.3-11.49,12.3Z" style="fill: #00a551"/>
      <path d="M43.66,240c6.07,0,11,5.29,11,11.81s-4.92,11.8-11,11.8H14c-6.07,0-11-5.28-11-11.8S7.88,240,14,240H43.66m0-1H14c-6.62,0-12,5.75-12,12.81s5.37,12.8,12,12.8H43.66c6.61,0,12-5.74,12-12.8S50.27,239,43.66,239Z"/>
    </g>
    <g>
      <path d="M14,292.91c-6.34,0-11.49-5.52-11.49-12.3S7.61,268.3,14,268.3H43.66c6.34,0,11.49,5.52,11.49,12.31s-5.15,12.3-11.49,12.3Z" style="fill: #00adee"/>
      <path d="M43.66,268.8c6.07,0,11,5.29,11,11.81s-4.92,11.8-11,11.8H14c-6.07,0-11-5.28-11-11.8S7.88,268.8,14,268.8H43.66m0-1H14c-6.62,0-12,5.75-12,12.81s5.37,12.8,12,12.8H43.66c6.61,0,12-5.74,12-12.8s-5.38-12.81-12-12.81Z"/>
    </g>
    <g>
      <path d="M14,321.71c-6.34,0-11.49-5.52-11.49-12.3S7.61,297.1,14,297.1H43.66c6.34,0,11.49,5.52,11.49,12.31s-5.15,12.3-11.49,12.3Z" style="fill: #ec1c24"/>
      <path d="M43.66,297.6c6.07,0,11,5.29,11,11.81s-4.92,11.8-11,11.8H14c-6.07,0-11-5.28-11-11.8S7.88,297.6,14,297.6H43.66m0-1H14c-6.62,0-12,5.75-12,12.81s5.37,12.8,12,12.8H43.66c6.61,0,12-5.74,12-12.8s-5.38-12.81-12-12.81Z"/>
    </g>
    <path d="M43.66,67.17c6.07,0,11,5.3,11,11.84s-4.92,11.84-11,11.84H14C7.88,90.85,3,85.55,3,79S7.88,67.17,14,67.17H43.66m0-1.5H14c-6.89,0-12.49,6-12.49,13.34S7.06,92.35,14,92.35H43.66c6.89,0,12.49-6,12.49-13.34s-5.6-13.34-12.49-13.34Z"/>
    <g>
      <path d="M8.8,30.47H7.06l-.42-1.08a3.92,3.92,0,0,0-.42-.87.9.9,0,0,0-.36-.35,1.13,1.13,0,0,0-.45-.08H5.23v2.38H3.61V24.38H6.36a1.78,1.78,0,0,1,1.09.31,1.73,1.73,0,0,1,.61.74,2.11,2.11,0,0,1,.19.84,1.67,1.67,0,0,1-.16.78,1.24,1.24,0,0,1-.33.46,2.44,2.44,0,0,1-.39.28,1.41,1.41,0,0,1,.43.41,4.9,4.9,0,0,1,.46.95ZM6.6,26.3a.65.65,0,0,0-.24-.58,1.36,1.36,0,0,0-.79-.17H5.23V27h.34a1.51,1.51,0,0,0,.81-.15A.64.64,0,0,0,6.6,26.3Z" style="stroke: #ededed;stroke-width: 0.25px"/>
      <path d="M13.34,28.23a2.7,2.7,0,0,1-.26,1.19,2,2,0,0,1-.76.83,2.4,2.4,0,0,1-1.24.3,2.4,2.4,0,0,1-1.24-.3,2,2,0,0,1-.76-.83,2.7,2.7,0,0,1-.26-1.19A3,3,0,0,1,9,27.31a2.24,2.24,0,0,1,.43-.73,2,2,0,0,1,.71-.49,2.91,2.91,0,0,1,2,0,1.92,1.92,0,0,1,.71.49,2,2,0,0,1,.42.73A2.65,2.65,0,0,1,13.34,28.23Zm-1.47,0a1.5,1.5,0,0,0-.2-.83.73.73,0,0,0-1.18,0,1.5,1.5,0,0,0-.2.83,1.52,1.52,0,0,0,.2.83.72.72,0,0,0,1.18,0A1.58,1.58,0,0,0,11.87,28.23Z" style="stroke: #ededed;stroke-width: 0.25px"/>
      <path d="M16.85,30.21a3,3,0,0,1-.6.23,2.75,2.75,0,0,1-.73.11c-1,0-1.5-.56-1.5-1.67V27.1h-.63v-.28l1.86-2.16h.16V26h1.33v1.1H15.41v1.43a2.1,2.1,0,0,0,0,.4.43.43,0,0,0,.15.26.59.59,0,0,0,.38.1,1.86,1.86,0,0,0,.88-.31Z" style="stroke: #ededed;stroke-width: 0.25px"/>
      <path d="M21.23,30.25l-.57.22a2.22,2.22,0,0,1-.62.08.67.67,0,0,1-.48-.14.69.69,0,0,1-.19-.33,2.45,2.45,0,0,1-.5.34,1.85,1.85,0,0,1-.72.13,1.32,1.32,0,0,1-.7-.17.91.91,0,0,1-.37-.43,1.35,1.35,0,0,1-.1-.53,1.21,1.21,0,0,1,.18-.68,1.39,1.39,0,0,1,.49-.44,7.79,7.79,0,0,1,.82-.36l.44-.16.22-.08.16-.08a.92.92,0,0,0-.12-.51c-.07-.12-.24-.19-.5-.19a1.69,1.69,0,0,0-.85.23,3.06,3.06,0,0,0-.71.59V26.53a2.5,2.5,0,0,1,.56-.35,3.3,3.3,0,0,1,.63-.2,3.68,3.68,0,0,1,.66-.06,1.93,1.93,0,0,1,1.29.37,1.3,1.3,0,0,1,.43,1v1.73a1.11,1.11,0,0,0,0,.36.16.16,0,0,0,.15.12.83.83,0,0,0,.36-.12Zm-1.94-.86V28.33a3.56,3.56,0,0,0-.72.41.59.59,0,0,0-.23.5.5.5,0,0,0,.11.34.37.37,0,0,0,.27.12.51.51,0,0,0,.28-.09Z" style="stroke: #ededed;stroke-width: 0.25px"/>
      <path d="M24.45,30.21a2.6,2.6,0,0,1-.6.23,2.68,2.68,0,0,1-.72.11c-1,0-1.51-.56-1.51-1.67V27.1H21v-.28l1.87-2.16H23V26h1.33v1.1H23v1.43a3.9,3.9,0,0,0,0,.4.4.4,0,0,0,.16.26.58.58,0,0,0,.38.1,1.86,1.86,0,0,0,.87-.31Z" style="stroke: #ededed;stroke-width: 0.25px"/>
      <path d="M28.78,28.62H26a1.09,1.09,0,0,0,.4.66,1.07,1.07,0,0,0,.72.26,3.43,3.43,0,0,0,1.55-.44v1a4,4,0,0,1-.74.32,3.46,3.46,0,0,1-1.11.15,2.29,2.29,0,0,1-1.23-.31,1.93,1.93,0,0,1-.77-.83,2.71,2.71,0,0,1-.25-1.2A2.65,2.65,0,0,1,24.83,27a1.9,1.9,0,0,1,.77-.82,2.49,2.49,0,0,1,1.23-.29,2.06,2.06,0,0,1,.93.23,1.82,1.82,0,0,1,.73.77,2.82,2.82,0,0,1,.29,1.38Zm-1.3-.79a1.17,1.17,0,0,0-.19-.68.62.62,0,0,0-.54-.26.7.7,0,0,0-.56.26,1,1,0,0,0-.22.68Z" style="stroke: #ededed;stroke-width: 0.25px"/>
    </g>
    <g>
      <path d="M38.26,30.47H36.52l-.42-1.08a5.08,5.08,0,0,0-.42-.87.9.9,0,0,0-.36-.35,1.17,1.17,0,0,0-.45-.08h-.19v2.38H33.07V24.38h2.75a1.8,1.8,0,0,1,1.09.31,1.73,1.73,0,0,1,.61.74,2.11,2.11,0,0,1,.19.84,1.67,1.67,0,0,1-.16.78,1.24,1.24,0,0,1-.33.46,3.89,3.89,0,0,1-.39.28,1.53,1.53,0,0,1,.43.41,5.59,5.59,0,0,1,.46.95Zm-2.2-4.17a.65.65,0,0,0-.24-.58,1.4,1.4,0,0,0-.8-.17h-.34V27H35a1.51,1.51,0,0,0,.81-.15A.64.64,0,0,0,36.06,26.3Z" style="stroke: #ededed;stroke-width: 0.25px"/>
      <path d="M42.67,28.62H39.89a1.14,1.14,0,0,0,.4.66,1.07,1.07,0,0,0,.72.26,3.5,3.5,0,0,0,1.56-.44v1a4.44,4.44,0,0,1-.75.32,3.39,3.39,0,0,1-1.1.15,2.31,2.31,0,0,1-1.24-.31,1.85,1.85,0,0,1-.76-.83,2.71,2.71,0,0,1-.26-1.2A2.66,2.66,0,0,1,38.72,27a1.82,1.82,0,0,1,.76-.82,2.5,2.5,0,0,1,1.24-.29,2,2,0,0,1,.92.23,1.84,1.84,0,0,1,.74.77,2.94,2.94,0,0,1,.29,1.38Zm-1.31-.79a1.1,1.1,0,0,0-.19-.68.6.6,0,0,0-.54-.26.7.7,0,0,0-.56.26,1.07,1.07,0,0,0-.22.68Z" style="stroke: #ededed;stroke-width: 0.25px"/>
      <path d="M46.29,29.17a1.31,1.31,0,0,1-.39,1,1.63,1.63,0,0,1-1.18.39,3.1,3.1,0,0,1-.78-.09,6.68,6.68,0,0,1-.74-.26V29.08a4.5,4.5,0,0,0,.61.34,1.32,1.32,0,0,0,.57.12c.35,0,.52-.11.52-.32a.29.29,0,0,0-.07-.2,1.19,1.19,0,0,0-.27-.19l-.5-.26a1.94,1.94,0,0,1-.65-.52,1.14,1.14,0,0,1-.28-.79,1.24,1.24,0,0,1,.18-.64,1.36,1.36,0,0,1,.55-.51,1.82,1.82,0,0,1,.88-.19,1.9,1.9,0,0,1,.31,0,3,3,0,0,1,.48.1,2.78,2.78,0,0,1,.56.24v1.09l-.21-.14a1.83,1.83,0,0,0-.22-.13L45.33,27a1.21,1.21,0,0,0-.38-.06.42.42,0,0,0-.33.11.29.29,0,0,0,0,.42,1.59,1.59,0,0,0,.42.23,3.14,3.14,0,0,1,.74.42,1.22,1.22,0,0,1,.4.46A1.42,1.42,0,0,1,46.29,29.17Z" style="stroke: #ededed;stroke-width: 0.25px"/>
      <path d="M51,28.62H48.18a1.09,1.09,0,0,0,.4.66,1.07,1.07,0,0,0,.72.26,3.46,3.46,0,0,0,1.55-.44v1a4,4,0,0,1-.74.32,3.46,3.46,0,0,1-1.11.15,2.33,2.33,0,0,1-1.24-.31,1.9,1.9,0,0,1-.76-.83,2.71,2.71,0,0,1-.25-1.2A2.65,2.65,0,0,1,47,27a1.88,1.88,0,0,1,.76-.82A2.53,2.53,0,0,1,49,25.92a2.06,2.06,0,0,1,.93.23,1.82,1.82,0,0,1,.73.77A2.82,2.82,0,0,1,51,28.3Zm-1.31-.79a1.16,1.16,0,0,0-.18-.68.62.62,0,0,0-.54-.26.72.72,0,0,0-.57.26,1.06,1.06,0,0,0-.21.68Z" style="stroke: #ededed;stroke-width: 0.25px"/>
      <path d="M54.61,30.21a3,3,0,0,1-.6.23,2.75,2.75,0,0,1-.73.11c-1,0-1.5-.56-1.5-1.67V27.1h-.63v-.28L53,24.66h.16V26H54.5v1.1H53.17v1.43a2.1,2.1,0,0,0,0,.4.43.43,0,0,0,.15.26.59.59,0,0,0,.38.1,1.89,1.89,0,0,0,.88-.31Z" style="stroke: #ededed;stroke-width: 0.25px"/>
    </g>
    <g>
      <path d="M5.72,324.34H9.35a1.91,1.91,0,0,1,1.49.6,2.16,2.16,0,0,1,.54,1.5,2,2,0,0,1-.64,1.56,6.72,6.72,0,0,1,1.08,3.36H9.26a6.83,6.83,0,0,0-.31-2c-.17-.42-.42-.63-.77-.63v2.6H5.72Zm2.46,1.45v1.35h.07a.58.58,0,0,0,.66-.66.86.86,0,0,0-.13-.48.49.49,0,0,0-.45-.21Z" style="stroke: #ededed;stroke-width: 0.38898000000000005px"/>
      <path d="M15,331.47a2.48,2.48,0,0,1-2-1.05,4.39,4.39,0,0,1,0-5.14,2.48,2.48,0,0,1,2-1,2.51,2.51,0,0,1,2,1,4.39,4.39,0,0,1,0,5.14A2.51,2.51,0,0,1,15,331.47Zm0-4.55a.46.46,0,0,0-.39.21.84.84,0,0,0-.16.53.81.81,0,0,0,.16.52.46.46,0,0,0,.39.21.49.49,0,0,0,.4-.21.86.86,0,0,0,.15-.52.9.9,0,0,0-.15-.53A.49.49,0,0,0,15,326.92Z" style="stroke: #ededed;stroke-width: 0.38898000000000005px"/>
      <path d="M18.27,327.45v-3.11h4.95v3.11H22v3.91H19.51v-3.91Z" style="stroke: #ededed;stroke-width: 0.38898000000000005px"/>
      <path d="M25.3,331.36H22.84l1.93-7h3.52l1.93,7H27.76l-.32-1.19H25.62Zm.77-2.84H27l-.46-1.75Z" style="stroke: #ededed;stroke-width: 0.38898000000000005px"/>
      <path d="M29.84,327.45v-3.11h4.95v3.11H33.55v3.91H31.08v-3.91Z" style="stroke: #ededed;stroke-width: 0.38898000000000005px"/>
      <path d="M35.56,331.36v-7H38v7Z" style="stroke: #ededed;stroke-width: 0.38898000000000005px"/>
      <path d="M44.73,331.41H42.86l-1.2-2.21v2.16H39.2v-7H41l1.3,2.37v-2.37h2.47Z" style="stroke: #ededed;stroke-width: 0.38898000000000005px"/>
      <path d="M51.52,325.17l-1.19,2.11a2.73,2.73,0,0,0-1.38-.45.87.87,0,0,0-.67.27,1.05,1.05,0,0,0-.26.73c0,.57.3.85.89.85v-1.1h2.47v3.79c-1,.07-1.67.1-2,.1a3.28,3.28,0,0,1-2.84-1.09,4.23,4.23,0,0,1-.8-2.55,4.45,4.45,0,0,1,.37-1.84,2.83,2.83,0,0,1,2.73-1.76,4.44,4.44,0,0,1,1.39.25A4.56,4.56,0,0,1,51.52,325.17Z" style="stroke: #ededed;stroke-width: 0.38898000000000005px"/>
      <path d="M13.89,332.48,12.32,335a5.59,5.59,0,0,0-1.52-.2q-1.2,0-1.2.54c0,.17.11.3.34.4a2.35,2.35,0,0,0,.94.14,3.88,3.88,0,0,0,1.44-.24l1.57,2.65a6.75,6.75,0,0,1-1.61.53,9,9,0,0,1-1.81.2A5.33,5.33,0,0,1,7,338a3.14,3.14,0,0,1-1.28-2.54,3.18,3.18,0,0,1,1.33-2.63,5.36,5.36,0,0,1,3.38-1,9.08,9.08,0,0,1,1.84.2A5.83,5.83,0,0,1,13.89,332.48Z" style="stroke: #ededed;stroke-width: 0.38898000000000005px"/>
      <path d="M15,338.86v-7h3.75v5.25H22v1.76Z" style="stroke: #ededed;stroke-width: 0.38898000000000005px"/>
      <path d="M27.1,339A4.61,4.61,0,0,1,24,337.92a3.24,3.24,0,0,1,0-5.13,5,5,0,0,1,6.16,0,3.24,3.24,0,0,1,0,5.13A4.61,4.61,0,0,1,27.1,339Zm0-4.55a.88.88,0,0,0-.6.21.66.66,0,0,0-.24.52.68.68,0,0,0,.24.53.88.88,0,0,0,.6.21.86.86,0,0,0,.6-.21.68.68,0,0,0,.24-.53.66.66,0,0,0-.24-.52A.86.86,0,0,0,27.1,334.43Z" style="stroke: #ededed;stroke-width: 0.38898000000000005px"/>
      <path d="M40.81,332.48,39.24,335a5.59,5.59,0,0,0-1.52-.2c-.8,0-1.19.18-1.19.54,0,.17.11.3.33.4a2.41,2.41,0,0,0,1,.14,3.86,3.86,0,0,0,1.43-.24l1.57,2.65a6.75,6.75,0,0,1-1.61.53,8.93,8.93,0,0,1-1.8.2A5.36,5.36,0,0,1,34,338a3.21,3.21,0,0,1,0-5.17,5.37,5.37,0,0,1,3.39-1,9.06,9.06,0,0,1,1.83.2A5.72,5.72,0,0,1,40.81,332.48Z" style="stroke: #ededed;stroke-width: 0.38898000000000005px"/>
      <path d="M45.7,331.85v2.34a1.93,1.93,0,0,0,1.46-.67,2.6,2.6,0,0,0,.5-1.67h3.82a4.81,4.81,0,0,1-.41,2.11,3.33,3.33,0,0,1-1.26,1.38,4.27,4.27,0,0,1,1.91,3.52h-4c-.1-1.67-.75-2.52-2-2.56v2.56H42v-7Z" style="stroke: #ededed;stroke-width: 0.38898000000000005px"/>
      <path d="M5.82,339.36H9a3.4,3.4,0,0,1,2.67,1,3.56,3.56,0,0,1,.94,2.49,3.79,3.79,0,0,1-.42,1.75,3,3,0,0,1-1.26,1.28,4,4,0,0,1-2,.46H5.82ZM8.69,342v1.65h.07a1.14,1.14,0,0,0,.75-.2.77.77,0,0,0,.24-.64c0-.54-.3-.81-.88-.81Z" style="stroke: #ededed;stroke-width: 0.38898000000000005px"/>
      <path d="M13.77,346.37v-7h2.88v7Z" style="stroke: #ededed;stroke-width: 0.38898000000000005px"/>
      <path d="M24.81,339.36l-2.2,7H19.82l-2.21-7h2.87l.73,2.36.73-2.36Z" style="stroke: #ededed;stroke-width: 0.38898000000000005px"/>
      <path d="M25.78,346.37v-7h2.88v7Z" style="stroke: #ededed;stroke-width: 0.38898000000000005px"/>
      <path d="M30.19,339.36h3.19a3.4,3.4,0,0,1,2.67,1,3.56,3.56,0,0,1,.94,2.49,3.79,3.79,0,0,1-.42,1.75,3,3,0,0,1-1.26,1.28,4,4,0,0,1-2,.46H30.19ZM33.06,342v1.65h.07a1.14,1.14,0,0,0,.75-.2.77.77,0,0,0,.24-.64c0-.54-.29-.81-.88-.81Z" style="stroke: #ededed;stroke-width: 0.38898000000000005px"/>
      <path d="M43.52,344.61v1.76H38.13v-7h5.39v1.76H41V342h1.76v1.76H41v.86Z" style="stroke: #ededed;stroke-width: 0.38898000000000005px"/>
      <path d="M44.64,339.36h4.24a2.41,2.41,0,0,1,1.73.6,2,2,0,0,1,.63,1.5A1.81,1.81,0,0,1,50.5,343a6.18,6.18,0,0,1,1.26,3.36h-3a5.55,5.55,0,0,0-.37-2,1,1,0,0,0-.89-.64v2.6H44.64Zm2.87,1.44v1.35h.08c.52,0,.77-.22.77-.66a.81.81,0,0,0-.15-.48.62.62,0,0,0-.53-.21Z" style="stroke: #ededed;stroke-width: 0.38898000000000005px"/>
    </g>
    <g>
      <path d="M47.49,9.19,42.1,16V10.17A1.25,1.25,0,0,0,41.47,9a.88.88,0,0,0-1.1.29l-7.08,9a1.43,1.43,0,0,0,0,1.74.89.89,0,0,0,1.43,0l5.35-6.81v5.87a1.26,1.26,0,0,0,.63,1.15.89.89,0,0,0,1.1-.29l5.39-6.85v6a1,1,0,1,0,2,0V10a1.26,1.26,0,0,0-.63-1.14A.88.88,0,0,0,47.49,9.19Z" style="fill: #00adee;stroke: #00adee;stroke-width: 0.75px"/>
      <path d="M33.29,9.12l-4.7,6a1.44,1.44,0,0,0,0,1.74.88.88,0,0,0,1.42,0L33,13v6.14a1,1,0,1,0,2,0V10a1.26,1.26,0,0,0-.63-1.14A.88.88,0,0,0,33.29,9.12Z" style="fill: #ec1c24;stroke: #ec1c24;stroke-width: 0.75px"/>
      <path d="M55.64,13.52a1,1,0,0,0-.92-.75h-2l1.49-1.9s.78-1.15.09-1.78-1.54.06-1.54.06l-3.14,4a1.45,1.45,0,0,0-.2,1.33,1,1,0,0,0,.93.76h2.05l-2.43,3.09s-1,1.09-.26,1.84S51.37,20,51.37,20l4.07-5.18A1.44,1.44,0,0,0,55.64,13.52Z" style="fill: #00a551;stroke: #00a551;stroke-width: 0.75px"/>
    </g>
    <g>
      <polyline points="15.61 86.25 20.09 86.25 20.09 78.74 24.58 78.74" style="fill: none;stroke: #000"/>
      <path d="M20.06,79.26l-2.65,2.11Z" style="fill: none;stroke: #000"/>
      <line x1="22.56" y1="81.36" x2="20" y2="79.31" style="fill: none;stroke: #000"/>
    </g>
    <g>
      <line x1="15.54" y1="280.97" x2="19.47" y2="280.97" style="stroke: #231f20;stroke-width: 0.826027px"/>
      <path d="M18,279.46a.52.52,0,0,1-.91,0,1.27,1.27,0,0,1,0-1.33.51.51,0,0,1,.91,0A1.27,1.27,0,0,1,18,279.46Z"/>
      <path d="M18,283.81a.51.51,0,0,1-.91,0,1.26,1.26,0,0,1,0-1.32.51.51,0,0,1,.91,0A1.26,1.26,0,0,1,18,283.81Z"/>
    </g>
    <g>
      <line x1="15.54" y1="252.17" x2="19.47" y2="252.17" style="stroke: #231f20;stroke-width: 0.826027px"/>
      <ellipse cx="17.51" cy="249.99" rx="0.64" ry="0.94"/>
      <path d="M18,255a.51.51,0,0,1-.91,0,1.26,1.26,0,0,1,0-1.32.51.51,0,0,1,.91,0A1.26,1.26,0,0,1,18,255Z"/>
    </g>
    <g>
      <line x1="15.54" y1="223.37" x2="19.47" y2="223.37" style="stroke: #231f20;stroke-width: 0.826027px"/>
      <ellipse cx="17.51" cy="221.19" rx="0.64" ry="0.94"/>
      <path d="M18,226.21a.51.51,0,0,1-.91,0,1.26,1.26,0,0,1,0-1.32.51.51,0,0,1,.91,0A1.26,1.26,0,0,1,18,226.21Z"/>
    </g>
    <g>
      <line x1="15.54" y1="194.57" x2="19.47" y2="194.57" style="stroke: #231f20;stroke-width: 0.826027px"/>
      <ellipse cx="17.51" cy="192.39" rx="0.64" ry="0.94"/>
      <ellipse cx="17.51" cy="196.75" rx="0.64" ry="0.94"/>
    </g>
    <g>
      <line x1="15.54" y1="165.77" x2="19.47" y2="165.77" style="stroke: #231f20;stroke-width: 0.826027px"/>
      <ellipse cx="17.51" cy="163.59" rx="0.64" ry="0.94"/>
      <path d="M18,168.61a.51.51,0,0,1-.91,0,1.26,1.26,0,0,1,0-1.32.51.51,0,0,1,.91,0A1.26,1.26,0,0,1,18,168.61Z"/>
    </g>
    <g>
      <line x1="15.54" y1="136.97" x2="19.47" y2="136.97" style="stroke: #231f20;stroke-width: 0.826027px"/>
      <ellipse cx="17.51" cy="134.79" rx="0.64" ry="0.94"/>
      <path d="M18,139.81a.51.51,0,0,1-.91,0,1.26,1.26,0,0,1,0-1.32.51.51,0,0,1,.91,0A1.26,1.26,0,0,1,18,139.81Z"/>
    </g>
    <g>
      <line x1="15.54" y1="108.17" x2="19.47" y2="108.17" style="stroke: #231f20;stroke-width: 0.826027px"/>
      <ellipse cx="17.51" cy="105.99" rx="0.64" ry="0.94"/>
      <path d="M18,111a.51.51,0,0,1-.91,0,1.26,1.26,0,0,1,0-1.32.51.51,0,0,1,.91,0A1.26,1.26,0,0,1,18,111Z"/>
    </g>
    <g>
      <line x1="15.54" y1="309.77" x2="19.47" y2="309.77" style="stroke: #231f20;stroke-width: 0.826027px"/>
      <path d="M18,308.26a.52.52,0,0,1-.91,0,1.27,1.27,0,0,1,0-1.33.51.51,0,0,1,.91,0A1.27,1.27,0,0,1,18,308.26Z"/>
      <path d="M18,312.61a.51.51,0,0,1-.91,0,1.26,1.26,0,0,1,0-1.32.51.51,0,0,1,.91,0A1.26,1.26,0,0,1,18,312.61Z"/>
    </g>
    <path d="M21.46,106.67H20.19v-.85h.12a1.88,1.88,0,0,0,1-.24,1.09,1.09,0,0,0,.47-.78h1v6.37h-1.3Z"/>
    <path d="M20,140a3.31,3.31,0,0,1,.08-.79,2.8,2.8,0,0,1,.26-.7,4.46,4.46,0,0,1,.44-.66,7.32,7.32,0,0,1,.62-.64l.52-.49a2.88,2.88,0,0,0,.35-.35,1.55,1.55,0,0,0,.2-.32,1.06,1.06,0,0,0,.09-.35,2.81,2.81,0,0,0,0-.43c0-.53-.21-.8-.63-.8a.72.72,0,0,0-.39.1.71.71,0,0,0-.21.27,1.24,1.24,0,0,0-.1.4,3.7,3.7,0,0,0,0,.48H20v-.25a1.81,1.81,0,0,1,.47-1.36A2.06,2.06,0,0,1,22,133.6a2,2,0,0,1,1.43.45,1.68,1.68,0,0,1,.47,1.29,2.63,2.63,0,0,1-.05.57,2.54,2.54,0,0,1-.17.51,2.24,2.24,0,0,1-.31.47,4,4,0,0,1-.46.47l-.72.67a2.57,2.57,0,0,0-.45.51,1.56,1.56,0,0,0-.2.42h2.4v1Z"/>
    <path d="M21.39,167.76a.58.58,0,0,0,.57.29.78.78,0,0,0,.37-.08.66.66,0,0,0,.22-.22.8.8,0,0,0,.09-.33,2.6,2.6,0,0,0,0-.4,2.5,2.5,0,0,0,0-.4,1.21,1.21,0,0,0-.13-.35.64.64,0,0,0-.25-.24.89.89,0,0,0-.43-.09H21.4v-.85h.42a.65.65,0,0,0,.35-.09.58.58,0,0,0,.22-.22,1,1,0,0,0,.13-.32,1.58,1.58,0,0,0,0-.38,1.09,1.09,0,0,0-.15-.65.6.6,0,0,0-.47-.19.68.68,0,0,0-.34.08.48.48,0,0,0-.2.22,1,1,0,0,0-.1.33c0,.12,0,.26,0,.41H20.09a1.89,1.89,0,0,1,.48-1.42,1.92,1.92,0,0,1,1.4-.46,2.09,2.09,0,0,1,1.35.39A1.54,1.54,0,0,1,23.8,164a1.56,1.56,0,0,1-.26.94,1.16,1.16,0,0,1-.71.46v0a1.18,1.18,0,0,1,.88.5,1.83,1.83,0,0,1,.25,1,2.61,2.61,0,0,1-.08.67,1.51,1.51,0,0,1-.31.62,1.79,1.79,0,0,1-.65.45,2.89,2.89,0,0,1-1.07.17,1.82,1.82,0,0,1-1.39-.5,2.11,2.11,0,0,1-.46-1.44v0h1.24A2.27,2.27,0,0,0,21.39,167.76Z"/>
    <path d="M22.06,191.2H23.4v4H24v1H23.4v1.32H22.22v-1.32H20v-1.06Zm.14,1.62L21,195.24h1.26v-2.42Z"/>
    <path d="M21.3,221.13l-.14,1.45h0a1,1,0,0,1,.47-.36,1.83,1.83,0,0,1,.7-.12,1.45,1.45,0,0,1,.76.18,1.41,1.41,0,0,1,.48.46,1.93,1.93,0,0,1,.25.66,4.53,4.53,0,0,1,.07.74,4.75,4.75,0,0,1-.09,1,1.85,1.85,0,0,1-.32.74,1.32,1.32,0,0,1-.63.47,3.14,3.14,0,0,1-2,0,1.35,1.35,0,0,1-.57-.43,1.62,1.62,0,0,1-.27-.58,3,3,0,0,1-.06-.58v-.17h1.24c0,.11,0,.22,0,.34a1.69,1.69,0,0,0,.09.34.73.73,0,0,0,.19.26.53.53,0,0,0,.34.11.63.63,0,0,0,.58-.31,2.07,2.07,0,0,0,.17-.94,5.79,5.79,0,0,0,0-.65,1.64,1.64,0,0,0-.12-.42.51.51,0,0,0-.23-.21,1,1,0,0,0-.36-.07.58.58,0,0,0-.43.16.81.81,0,0,0-.19.43H20.09l.24-3.47h3.32v1Z"/>
    <path d="M22.49,249.84a.51.51,0,0,0-.45-.2.59.59,0,0,0-.41.13.76.76,0,0,0-.25.33,2.37,2.37,0,0,0-.11.52,6.25,6.25,0,0,0,0,.64v.32h0a1.16,1.16,0,0,1,.47-.4,1.83,1.83,0,0,1,1.45,0,1.28,1.28,0,0,1,.48.41,2,2,0,0,1,.27.63,3.38,3.38,0,0,1,.09.8,2.55,2.55,0,0,1-.49,1.68,2,2,0,0,1-1.57.57,2.18,2.18,0,0,1-1.07-.23,1.63,1.63,0,0,1-.6-.65,2.71,2.71,0,0,1-.28-.95,10.1,10.1,0,0,1-.06-1.12c0-.45,0-.89,0-1.31a3.76,3.76,0,0,1,.24-1.13,1.83,1.83,0,0,1,.64-.79,2.18,2.18,0,0,1,1.22-.29,2.39,2.39,0,0,1,.66.08,1.43,1.43,0,0,1,.57.27,1.32,1.32,0,0,1,.39.5,1.76,1.76,0,0,1,.15.77H22.62A1,1,0,0,0,22.49,249.84Zm-1.15,3.85a1.12,1.12,0,0,0,.1.4.64.64,0,0,0,.21.27.7.7,0,0,0,.37.09.65.65,0,0,0,.37-.09.56.56,0,0,0,.21-.27,1.46,1.46,0,0,0,.1-.4c0-.15,0-.32,0-.5a2,2,0,0,0-.16-.93.67.67,0,0,0-1.09,0,2,2,0,0,0-.16.93A3.84,3.84,0,0,0,21.34,253.69Z"/>
    <path d="M24,278.71a8.42,8.42,0,0,0-.71,1.2,12.51,12.51,0,0,0-.55,1.31,12.77,12.77,0,0,0-.38,1.38,13.58,13.58,0,0,0-.24,1.37H20.71a12,12,0,0,1,.22-1.21,11.21,11.21,0,0,1,1-2.62,10.7,10.7,0,0,1,.81-1.3H20v-1.12H24Z"/>
    <path d="M20.22,309.93a1.24,1.24,0,0,1,.81-.54h0a1.28,1.28,0,0,1-.44-.2,1.18,1.18,0,0,1-.28-.31,1.14,1.14,0,0,1-.15-.36,1.49,1.49,0,0,1-.05-.36,1.64,1.64,0,0,1,.5-1.34A2.06,2.06,0,0,1,22,306.4a2.1,2.1,0,0,1,1.38.41,1.64,1.64,0,0,1,.5,1.34,1.49,1.49,0,0,1-.05.36,1.46,1.46,0,0,1-.16.36,1.06,1.06,0,0,1-.29.31,1.26,1.26,0,0,1-.42.2h0a1.24,1.24,0,0,1,.81.54,1.94,1.94,0,0,1,.27,1,3.46,3.46,0,0,1-.07.61,1.65,1.65,0,0,1-.28.62,1.71,1.71,0,0,1-.62.48,2.47,2.47,0,0,1-1.07.19,2.42,2.42,0,0,1-1.06-.19,1.63,1.63,0,0,1-.62-.48,1.51,1.51,0,0,1-.28-.62A2.72,2.72,0,0,1,20,311,1.94,1.94,0,0,1,20.22,309.93Zm1.06,1.45a1.2,1.2,0,0,0,.11.35.63.63,0,0,0,.23.23.69.69,0,0,0,.36.09.64.64,0,0,0,.36-.09.51.51,0,0,0,.23-.23,1,1,0,0,0,.12-.35,3,3,0,0,0,0-.43,2.9,2.9,0,0,0,0-.43,1,1,0,0,0-.12-.35.57.57,0,0,0-.23-.23.64.64,0,0,0-.36-.09.69.69,0,0,0-.36.09.72.72,0,0,0-.23.23,1.2,1.2,0,0,0-.11.35,2.86,2.86,0,0,0,0,.43A3,3,0,0,0,21.28,311.38Zm.24-2.59A.55.55,0,0,0,22,309a.53.53,0,0,0,.46-.22,1,1,0,0,0,.17-.67c0-.59-.21-.88-.63-.88s-.63.29-.63.88A1.1,1.1,0,0,0,21.52,308.79Z"/>
    <g>
      <path d="M17.42,72.27a.73.73,0,0,1,0-1.46.69.69,0,0,1,.71.73.7.7,0,0,1-.72.73Zm-.63,5V72.84h1.28v4.41Z"/>
      <path d="M19.09,74.25c0-.55,0-1,0-1.41h1.1l.06.62h0a1.46,1.46,0,0,1,1.26-.72c.84,0,1.47.61,1.47,1.9v2.61H21.71V74.81c0-.57-.19-1-.65-1a.7.7,0,0,0-.65.51.92.92,0,0,0-.05.35v2.54H19.09Z"/>
    </g>
    <path d="M15.34,8.63a4.54,4.54,0,1,0,4.54-4.54A4.53,4.53,0,0,0,15.34,8.63Z"/>
    <path d="M15.34,355.87a4.54,4.54,0,1,0,4.54-4.53A4.54,4.54,0,0,0,15.34,355.87Z"/>
  </g>
  <g id="components">
    <circle id="d8" cx="39.17" cy="309.37" r="11.34" style="fill: #8080ff"/>
    <circle id="LED_d8" data-name="LED d8" cx="10.97" cy="309.35" r="4.25" style="fill: #f0f"/>
    <circle id="d7" cx="39.17" cy="280.58" r="11.34" style="fill: #8080ff"/>
    <circle id="LED_d7" data-name="LED d7" cx="10.97" cy="280.55" r="4.25" style="fill: #f0f"/>
    <circle id="d6" cx="39.17" cy="251.77" r="11.34" style="fill: #8080ff"/>
    <circle id="LED_d6" data-name="LED d6" cx="10.97" cy="251.75" r="4.25" style="fill: #f0f"/>
    <circle id="d5" cx="39.17" cy="222.98" r="11.34" style="fill: #8080ff"/>
    <circle id="LED_d5" data-name="LED d5" cx="10.97" cy="222.95" r="4.25" style="fill: #f0f"/>
    <circle id="d4" cx="39.17" cy="194.18" r="11.34" style="fill: #8080ff"/>
    <circle id="LED_d4" data-name="LED d4" cx="10.97" cy="194.15" r="4.25" style="fill: #f0f"/>
    <circle id="d3" cx="39.17" cy="165.38" r="11.34" style="fill: #8080ff"/>
    <circle id="LED_d3" data-name="LED d3" cx="10.97" cy="165.35" r="4.25" style="fill: #f0f"/>
    <circle id="d2" cx="39.17" cy="136.58" r="11.34" style="fill: #8080ff"/>
    <circle id="LED_d2" data-name="LED d2" cx="10.97" cy="136.55" r="4.25" style="fill: #f0f"/>
    <circle id="d1" cx="39.17" cy="107.81" r="11.34" style="fill: #8080ff"/>
    <circle id="LED_d1" data-name="LED d1" cx="10.97" cy="107.75" r="4.25" style="fill: #f0f"/>
    <circle id="Clk_In" data-name="Clk In" cx="39.17" cy="78.83" r="11.34" style="fill: #80ff80"/>
    <circle id="LED_in" data-name="LED in" cx="10.97" cy="78.95" r="4.25" style="fill: #f0f"/>
    <circle id="Reset" cx="44.79" cy="46.06" r="11.34" style="fill: #80ff80"/>
    <circle id="Rotate" cx="13.42" cy="46.06" r="11.34" style="fill: lime"/>
    <text id="slug" transform="translate(0.36 370.68)" style="font-size: 6px;font-family: MyriadPro-Regular, Myriad Pro"><tspan style="letter-spacing: 0.0030924479166666665em">R</tspan><tspan x="3.25" y="0">CD</tspan></text>
    <text id="modulename" transform="translate(24.89 370.68)" style="font-size: 6px;font-family: MyriadPro-Regular, Myriad Pro"><tspan style="letter-spacing: 0.004069010416666667em">R</tspan><tspan x="3.25" y="0">ot</tspan><tspan x="8.53" y="0" style="letter-spacing: -0.004069010416666667em">a</tspan><tspan x="11.4" y="0">ting Clock Divider</tspan></text>
  </g>
</svg>
