<svg xmlns="http://www.w3.org/2000/svg" width="20.41mm" height="131.57mm" viewBox="0 0 57.85 372.97">
  <g id="faceplate">
    <rect x="0.13" y="0.13" width="57.6" height="364.25" style="fill: #ededed;stroke: #9d9d9e;stroke-width: 0.25px"/>
    <g>
      <path d="M54.79,13.47a1,1,0,0,0-.93-.75h-2l1.5-1.91s.78-1.14.09-1.77-1.54.06-1.54.06l-3.14,4a1.45,1.45,0,0,0-.2,1.34,1,1,0,0,0,.92.75H51.5l-2.43,3.09s-1,1.1-.27,1.85S50.52,20,50.52,20l4.07-5.17A1.45,1.45,0,0,0,54.79,13.47Z" style="fill: #00a551;stroke: #00a551;stroke-width: 0.75px"/>
      <path d="M46.64,9.14,41.25,16V10.11A1.26,1.26,0,0,0,40.62,9a.87.87,0,0,0-1.1.29l-7.09,9a1.46,1.46,0,0,0,0,1.75.88.88,0,0,0,1.42,0l5.36-6.81V19a1.25,1.25,0,0,0,.63,1.14A.87.87,0,0,0,41,19.9l5.39-6.85v6a1,1,0,1,0,2,0V10a1.26,1.26,0,0,0-.63-1.14A.87.87,0,0,0,46.64,9.14Z" style="fill: #00adee;stroke: #00adee;stroke-width: 0.75px"/>
      <path d="M32.43,9.06l-4.69,6a1.45,1.45,0,0,0,0,1.75.89.89,0,0,0,1.43,0l3-3.77v6.14a1,1,0,1,0,2,0V9.92a1.26,1.26,0,0,0-.63-1.14A.88.88,0,0,0,32.43,9.06Z" style="fill: #ec1c24;stroke: #ec1c24;stroke-width: 0.75px"/>
    </g>
    <g>
      <path d="M15.69,130.42c-6.15,0-11.15-5.52-11.15-12.3s5-12.3,11.15-12.3H42.35c6.15,0,11.15,5.52,11.15,12.3s-5,12.3-11.15,12.3Z" style="fill: #ec1c24"/>
      <path d="M42.35,106.31c5.89,0,10.66,5.29,10.66,11.81s-4.77,11.81-10.66,11.81H15.69C9.8,129.93,5,124.64,5,118.12s4.77-11.81,10.66-11.81H42.35m0-1H15.69C9.27,105.33,4,111.07,4,118.12s5.23,12.79,11.65,12.79H42.35c6.42,0,11.65-5.74,11.65-12.79s-5.23-12.79-11.65-12.79Z"/>
    </g>
    <g>
      <path d="M15.69,90.32C9.54,90.32,4.53,84.8,4.53,78s5-12.31,11.16-12.31H42.35c6.16,0,11.16,5.52,11.16,12.31s-5,12.3-11.16,12.3Z" style="fill: #ec1c24"/>
      <path d="M42.35,66.21C48.24,66.21,53,71.5,53,78s-4.77,11.8-10.66,11.8H15.69C9.8,89.82,5,84.54,5,78S9.8,66.21,15.69,66.21H42.35m0-1H15.69C9.26,65.21,4,71,4,78s5.23,12.8,11.66,12.8H42.35C48.78,90.82,54,85.08,54,78S48.78,65.21,42.35,65.21Z"/>
    </g>
    <g>
      <path d="M15.51,170.06c-6.16,0-11.16-5.52-11.16-12.3s5-12.31,11.16-12.31H42.17c6.15,0,11.16,5.52,11.16,12.31s-5,12.3-11.16,12.3Z"/>
      <path d="M42.17,146c5.89,0,10.66,5.29,10.66,11.81s-4.77,11.8-10.66,11.8H15.51c-5.89,0-10.66-5.28-10.66-11.8S9.62,146,15.51,146H42.17m0-1H15.51c-6.43,0-11.66,5.74-11.66,12.81s5.23,12.8,11.66,12.8H42.17c6.43,0,11.66-5.74,11.66-12.8S48.6,145,42.17,145Z"/>
    </g>
    <g>
      <path d="M15.51,209.78c-6.16,0-11.16-5.52-11.16-12.3s5-12.31,11.16-12.31H42.17c6.15,0,11.16,5.52,11.16,12.31s-5,12.3-11.16,12.3Z"/>
      <path d="M42.17,185.67c5.89,0,10.66,5.29,10.66,11.81s-4.77,11.8-10.66,11.8H15.51c-5.89,0-10.66-5.28-10.66-11.8s4.77-11.81,10.66-11.81H42.17m0-1H15.51c-6.43,0-11.66,5.74-11.66,12.81s5.23,12.8,11.66,12.8H42.17c6.43,0,11.66-5.74,11.66-12.8s-5.23-12.81-11.66-12.81Z"/>
    </g>
    <g>
      <path d="M15.69,249.7c-6.15,0-11.16-5.52-11.16-12.3s5-12.31,11.16-12.31H42.35c6.16,0,11.16,5.52,11.16,12.31s-5,12.3-11.16,12.3Z" style="fill: #00adee"/>
      <path d="M42.35,225.59c5.89,0,10.66,5.29,10.66,11.81s-4.77,11.8-10.66,11.8H15.69C9.8,249.2,5,243.92,5,237.4s4.77-11.81,10.66-11.81H42.35m0-1H15.69C9.26,224.59,4,230.33,4,237.4s5.23,12.8,11.66,12.8H42.35c6.43,0,11.66-5.74,11.66-12.8s-5.23-12.81-11.66-12.81Z"/>
    </g>
    <g>
      <path d="M15.69,289.43c-6.15,0-11.16-5.52-11.16-12.31s5-12.31,11.16-12.31H42.35c6.16,0,11.16,5.53,11.16,12.31s-5,12.31-11.16,12.31Z" style="fill: #00adee"/>
      <path d="M42.35,265.31c5.89,0,10.66,5.29,10.66,11.81s-4.77,11.81-10.66,11.81H15.69C9.8,288.93,5,283.64,5,277.12s4.77-11.81,10.66-11.81H42.35m0-1H15.69C9.26,264.31,4,270.06,4,277.12s5.23,12.81,11.66,12.81H42.35c6.43,0,11.66-5.75,11.66-12.81s-5.23-12.81-11.66-12.81Z"/>
    </g>
    <g>
      <g>
        <path d="M14.62,139.5l-.25.12-.2.09-.28.1a3.6,3.6,0,0,1-.63.15,4.65,4.65,0,0,1-.66,0,2.48,2.48,0,0,1-1.28-.34,2.33,2.33,0,0,1-1-1,4,4,0,0,1-.35-1.75,4.87,4.87,0,0,1,.18-1.31,2.37,2.37,0,0,1,.56-1,2.7,2.7,0,0,1,.63-.49,2.35,2.35,0,0,1,.62-.23,4.57,4.57,0,0,1,.67-.05,3.43,3.43,0,0,1,1,.12c.27.08.55.19.87.32v1.44a3.8,3.8,0,0,0-.66-.41,2.16,2.16,0,0,0-.86-.16,1.45,1.45,0,0,0-1,.3,1.62,1.62,0,0,0-.5.72,2.65,2.65,0,0,0-.14.81,2.34,2.34,0,0,0,.16.85,1.45,1.45,0,0,0,.49.62,1.3,1.3,0,0,0,.79.24,1.92,1.92,0,0,0,.56-.09v-.72H12.8v-1.23h1.82Z"/>
        <path d="M18.72,139.71a4.9,4.9,0,0,1-.48.22,1.6,1.6,0,0,1-.53.08.5.5,0,0,1-.41-.14.85.85,0,0,1-.16-.33,2,2,0,0,1-.43.34,1.2,1.2,0,0,1-.61.13,1,1,0,0,1-.59-.17.88.88,0,0,1-.32-.42,1.64,1.64,0,0,1-.09-.53,1.31,1.31,0,0,1,.16-.69,1.26,1.26,0,0,1,.42-.44,4.52,4.52,0,0,1,.7-.35l.37-.17.19-.08.13-.08a1,1,0,0,0-.1-.51q-.09-.18-.42-.18a1.3,1.3,0,0,0-.73.22,3.08,3.08,0,0,0-.61.59V136a2.26,2.26,0,0,1,.48-.35,2.47,2.47,0,0,1,.54-.19,2.17,2.17,0,0,1,.57-.07,1.42,1.42,0,0,1,1.09.38,1.38,1.38,0,0,1,.37,1v1.73a1.6,1.6,0,0,0,0,.36c0,.08.07.12.13.12a.58.58,0,0,0,.3-.12Zm-1.65-.86v-1.06a3,3,0,0,0-.61.41.65.65,0,0,0-.2.5.49.49,0,0,0,.1.34.28.28,0,0,0,.23.12.4.4,0,0,0,.24-.09A1.6,1.6,0,0,0,17.07,138.85Z"/>
        <path d="M21.47,139.67a2.06,2.06,0,0,1-.51.23,2,2,0,0,1-.62.11c-.85,0-1.28-.56-1.28-1.67v-1.78h-.54v-.28l1.6-2.16h.13v1.34h1.13v1.1H20.25V138a3.9,3.9,0,0,0,0,.4.46.46,0,0,0,.13.26.47.47,0,0,0,.33.1,1.41,1.41,0,0,0,.74-.31Z"/>
        <path d="M25.17,138.08H22.8a1.23,1.23,0,0,0,.34.67.87.87,0,0,0,.61.25,2.55,2.55,0,0,0,1.33-.44v1a2.64,2.64,0,0,1-.63.32,2.56,2.56,0,0,1-.95.15,1.74,1.74,0,0,1-1.05-.31,1.8,1.8,0,0,1-.65-.83,3,3,0,0,1-.22-1.2,3,3,0,0,1,.22-1.18,1.74,1.74,0,0,1,.65-.81,1.8,1.8,0,0,1,1.05-.3,1.51,1.51,0,0,1,.79.23,1.7,1.7,0,0,1,.63.77,3.4,3.4,0,0,1,.25,1.38Zm-1.12-.78a1.26,1.26,0,0,0-.16-.69.52.52,0,0,0-.46-.26.56.56,0,0,0-.48.26,1.2,1.2,0,0,0-.18.69Z"/>
      </g>
      <g>
        <path d="M39.54,135.32H37.86v4.61H36.49v-4.61H34.81v-1.48h4.73Z"/>
        <path d="M42.83,135.7l-.44,1.58a.75.75,0,0,0-.55-.34.54.54,0,0,0-.43.23,2.45,2.45,0,0,0-.35.84v1.92H39.87v-4.47h1.19v1.08a2.2,2.2,0,0,1,.39-.78.8.8,0,0,1,.67-.38.67.67,0,0,1,.35.08A2.23,2.23,0,0,1,42.83,135.7Z"/>
        <path d="M44.19,139.93H43v-4.47h1.19Zm-.1-5.51a.72.72,0,0,1-.15.47.43.43,0,0,1-.35.2.38.38,0,0,1-.25-.09.55.55,0,0,1-.18-.24.74.74,0,0,1-.07-.34.78.78,0,0,1,.15-.47.41.41,0,0,1,.35-.19.42.42,0,0,1,.35.19A.78.78,0,0,1,44.09,134.42Z"/>
        <path d="M48.11,136.41h-.59a1.3,1.3,0,0,1,.31.88,1.61,1.61,0,0,1-.09.54,1.24,1.24,0,0,1-.25.45,1.46,1.46,0,0,1-.42.32,1.5,1.5,0,0,1-.57.15c-.28,0-.41.12-.41.3a.21.21,0,0,0,0,.15.34.34,0,0,0,.17.07l.38.06a2.62,2.62,0,0,1,.57.12,1.05,1.05,0,0,1,.49.37,1.27,1.27,0,0,1,.23.8,1.58,1.58,0,0,1-.17.74,1.13,1.13,0,0,1-.55.5,2.35,2.35,0,0,1-1,.18,2.14,2.14,0,0,1-1.32-.32,1,1,0,0,1-.42-.85,1.16,1.16,0,0,1,.06-.34.76.76,0,0,1,.23-.36.9.9,0,0,1,.51-.24.44.44,0,0,1-.2-.22.73.73,0,0,1-.09-.35,1,1,0,0,1,.12-.46.56.56,0,0,1,.39-.29,1.42,1.42,0,0,1-.65-.5,1.54,1.54,0,0,1-.27-.94,2.22,2.22,0,0,1,.12-.77,1.5,1.5,0,0,1,.36-.54,1.29,1.29,0,0,1,.52-.3,1.89,1.89,0,0,1,.65-.1h1.84ZM47,140.77a.35.35,0,0,0-.23-.38,1.37,1.37,0,0,0-.49-.09,1.11,1.11,0,0,0-.59.12.39.39,0,0,0-.19.37c0,.33.26.5.76.5a1,1,0,0,0,.54-.13A.43.43,0,0,0,47,140.77Zm-.23-3.6a.81.81,0,0,0-.18-.55.5.5,0,0,0-.38-.2.47.47,0,0,0-.43.25.88.88,0,0,0-.16.51.86.86,0,0,0,.07.36.7.7,0,0,0,.19.26.48.48,0,0,0,.29.1.54.54,0,0,0,.43-.22A.8.8,0,0,0,46.8,137.17Z"/>
      </g>
    </g>
    <g>
      <path d="M13.25,324.94a3.27,3.27,0,0,1,1.64.4A2.56,2.56,0,0,1,16,326.42a2.92,2.92,0,0,1,.37,1.47,3.07,3.07,0,0,1-.25,1.23,2.6,2.6,0,0,1-.74.94,7.63,7.63,0,0,1,1.13,2.09,10.85,10.85,0,0,1,.54,2.62h-4a8.58,8.58,0,0,0-.5-2.79,1.25,1.25,0,0,0-1.16-.85h0v3.64H7.55v-9.83Zm-1.88,3.92h.09a1.23,1.23,0,0,0,.8-.22.88.88,0,0,0,.25-.7,1,1,0,0,0-.23-.71.85.85,0,0,0-.68-.27h-.23Z" style="stroke: #ededed;stroke-width: 0.36833998560905457px"/>
      <path d="M17.74,332.84a2.48,2.48,0,0,1,.14-.82,2.13,2.13,0,0,1,.4-.67,1.85,1.85,0,0,1,.59-.45,1.58,1.58,0,0,1,.71-.17,1.65,1.65,0,0,1,.72.17,1.85,1.85,0,0,1,.59.45,2.11,2.11,0,0,1,.39.67,2.25,2.25,0,0,1,.15.82,2.16,2.16,0,0,1-.15.81,2.11,2.11,0,0,1-.39.67,1.85,1.85,0,0,1-.59.45,1.64,1.64,0,0,1-.72.16,1.57,1.57,0,0,1-.71-.16,1.85,1.85,0,0,1-.59-.45,2.13,2.13,0,0,1-.4-.67A2.38,2.38,0,0,1,17.74,332.84Z" style="stroke: #ededed;stroke-width: 0.36833998560905457px"/>
      <path d="M27.49,324.79a6.28,6.28,0,0,1,1.88.29,5,5,0,0,1,1.6.74l-1.6,3.48a4,4,0,0,0-.74-.21,4.43,4.43,0,0,0-.81-.07,1.73,1.73,0,0,0-.92.19.63.63,0,0,0-.3.56.62.62,0,0,0,.34.57,1.92,1.92,0,0,0,1,.2,3.33,3.33,0,0,0,.78-.09,2.91,2.91,0,0,0,.68-.26l1.6,3.73a5.8,5.8,0,0,1-1.64.74,6.79,6.79,0,0,1-1.85.27,4.87,4.87,0,0,1-2.52-.64,4.37,4.37,0,0,1-1.69-1.82,5.44,5.44,0,0,1-.6-2.54,5.68,5.68,0,0,1,.64-2.69,4.56,4.56,0,0,1,1.74-1.82A4.85,4.85,0,0,1,27.49,324.79Z" style="stroke: #ededed;stroke-width: 0.36833998560905457px"/>
      <path d="M31.78,332.84a2.48,2.48,0,0,1,.14-.82,2.13,2.13,0,0,1,.4-.67,1.85,1.85,0,0,1,.59-.45,1.58,1.58,0,0,1,.71-.17,1.65,1.65,0,0,1,.72.17,2,2,0,0,1,.59.45,2.32,2.32,0,0,1,.39.67,2.25,2.25,0,0,1,.15.82,2.16,2.16,0,0,1-.15.81,2.32,2.32,0,0,1-.39.67,2,2,0,0,1-.59.45,1.64,1.64,0,0,1-.72.16,1.57,1.57,0,0,1-.71-.16,1.85,1.85,0,0,1-.59-.45,2.13,2.13,0,0,1-.4-.67A2.38,2.38,0,0,1,31.78,332.84Z" style="stroke: #ededed;stroke-width: 0.36833998560905457px"/>
      <path d="M41.29,324.94a4.9,4.9,0,0,1,2.47.62,4.11,4.11,0,0,1,1.67,1.8,5.57,5.57,0,0,1,0,5.05,4.09,4.09,0,0,1-1.71,1.76,5.11,5.11,0,0,1-2.5.6H37v-9.83ZM40.8,331h.1a1.47,1.47,0,0,0,1-.27,1.16,1.16,0,0,0,.31-.9,1.14,1.14,0,0,0-.29-.84,1.2,1.2,0,0,0-.89-.3H40.8Z" style="stroke: #ededed;stroke-width: 0.36833998560905457px"/>
      <path d="M47,332.84a2.25,2.25,0,0,1,.15-.82,2.11,2.11,0,0,1,.39-.67,2,2,0,0,1,.59-.45,1.59,1.59,0,0,1,1.43,0,1.85,1.85,0,0,1,.59.45,2.13,2.13,0,0,1,.4.67,2.25,2.25,0,0,1,.14.82,2.16,2.16,0,0,1-.14.81,2.13,2.13,0,0,1-.4.67,1.85,1.85,0,0,1-.59.45,1.68,1.68,0,0,1-1.43,0,2,2,0,0,1-.59-.45,2.11,2.11,0,0,1-.39-.67A2.16,2.16,0,0,1,47,332.84Z" style="stroke: #ededed;stroke-width: 0.36833998560905457px"/>
      <path d="M8.07,336.6a1.78,1.78,0,0,1,1.52.72,3.24,3.24,0,0,1,.55,2A3.86,3.86,0,0,1,10,340.6a2.5,2.5,0,0,1-.53.86,2.62,2.62,0,0,1,.64.93,3.58,3.58,0,0,1,.21,1.32,3.47,3.47,0,0,1-.49,2,1.52,1.52,0,0,1-1.32.73H4.66V336.6Zm-1,3.89h.06a1,1,0,0,0,.33-.05.52.52,0,0,0,.22-.17.68.68,0,0,0,.12-.3,1.89,1.89,0,0,0,0-.44,1.25,1.25,0,0,0-.16-.73.53.53,0,0,0-.46-.22H7.06Zm0,3.77h.09a.66.66,0,0,0,.57-.23,1.36,1.36,0,0,0,.17-.78c0-.74-.22-1.11-.67-1.11H7.06Z" style="stroke: #ededed;stroke-width: 0.36833998560905457px"/>
      <path d="M14.58,336.6a1.48,1.48,0,0,1,1,.4,2.37,2.37,0,0,1,.67,1.07,4.85,4.85,0,0,1,.07,2.71,2.51,2.51,0,0,1-.46.94,9.48,9.48,0,0,1,.71,2.09,17.76,17.76,0,0,1,.34,2.62H14.46a13.11,13.11,0,0,0-.32-2.79c-.16-.57-.4-.85-.72-.85h0v3.64H11V336.6Zm-1.17,3.91h.05a.58.58,0,0,0,.5-.21,1.2,1.2,0,0,0,.16-.71,1.4,1.4,0,0,0-.15-.7.45.45,0,0,0-.42-.27h-.14Z" style="stroke: #ededed;stroke-width: 0.36833998560905457px"/>
      <path d="M22,336.6v2.47H19.9v1.21h1.46v2.47H19.9V344H22v2.47H17.51V336.6Z" style="stroke: #ededed;stroke-width: 0.36833998560905457px"/>
      <path d="M27.49,336.6l1.87,9.83H27l-.31-1.66H24.91l-.31,1.66H22.2l1.88-9.83Zm-2.15,5.85h.89L25.79,340h0Z" style="stroke: #ededed;stroke-width: 0.36833998560905457px"/>
      <path d="M32.31,336.6v3.28a.86.86,0,0,0,.52-.26,1.59,1.59,0,0,0,.39-.64,4.26,4.26,0,0,0,.25-1,9.35,9.35,0,0,0,.09-1.37H36a14,14,0,0,1-.26,2.95,5.14,5.14,0,0,1-.81,1.94,6,6,0,0,1,.85,2,14.44,14.44,0,0,1,.37,3H33.57c-.06-2.34-.48-3.54-1.26-3.59v3.59H29.92V336.6Z" style="stroke: #ededed;stroke-width: 0.36833998560905457px"/>
      <path d="M39.34,336.44a1.91,1.91,0,0,1,1.41.69,4.61,4.61,0,0,1,1,1.84,8.47,8.47,0,0,1,.37,2.54,8.63,8.63,0,0,1-.37,2.55,4.59,4.59,0,0,1-1,1.85,1.79,1.79,0,0,1-2.81,0,4.72,4.72,0,0,1-1-1.84,8.75,8.75,0,0,1-.36-2.56,8.55,8.55,0,0,1,.35-2.53,4.73,4.73,0,0,1,1-1.85A1.91,1.91,0,0,1,39.34,336.44Zm-.53,4.8A1.61,1.61,0,0,0,39,342c.11.19.23.28.38.28a.45.45,0,0,0,.39-.28,1.67,1.67,0,0,0,.15-.75,1.73,1.73,0,0,0,0-.41,1.28,1.28,0,0,0-.11-.33.6.6,0,0,0-.17-.21.37.37,0,0,0-.22-.08.45.45,0,0,0-.38.29A1.6,1.6,0,0,0,38.81,341.24Z" style="stroke: #ededed;stroke-width: 0.36833998560905457px"/>
      <path d="M48.26,336.6v4.55a15.51,15.51,0,0,1-.07,1.59A8.89,8.89,0,0,1,48,344a5,5,0,0,1-.4,1,3.54,3.54,0,0,1-.56.81,1.91,1.91,0,0,1-1.42.69A1.94,1.94,0,0,1,44.2,346a4.06,4.06,0,0,1-1-1.78,12,12,0,0,1-.33-3.2V336.6h2.39v4.63a3.69,3.69,0,0,0,.06.82c0,.15.12.22.23.22a.18.18,0,0,0,.15-.07.66.66,0,0,0,.09-.25,3.42,3.42,0,0,0,0-.43c0-.18,0-.39,0-.64V336.6Z" style="stroke: #ededed;stroke-width: 0.36833998560905457px"/>
      <path d="M53.65,336.6V341H52.44v5.48H50.05V341H48.84V336.6Z" style="stroke: #ededed;stroke-width: 0.36833998560905457px"/>
    </g>
    <g>
      <path d="M15.68,298.35H14.27l-.38-1.24h-2l-.38,1.24H10.12l2-6.09h1.52Zm-2.1-2.3-.67-2.22-.68,2.22Z"/>
      <path d="M19.35,298.35H18.17v-.64a2.1,2.1,0,0,1-.53.54,1.19,1.19,0,0,1-.66.18.94.94,0,0,1-1-.6,3.9,3.9,0,0,1-.22-1.33v-2.63H17v2.42a2.06,2.06,0,0,0,.09.64.37.37,0,0,0,.39.27.51.51,0,0,0,.42-.19,4.25,4.25,0,0,0,.31-.51v-2.63h1.18Z"/>
      <path d="M22.49,298.09a2.51,2.51,0,0,1-.51.23,2,2,0,0,1-.62.11c-.85,0-1.28-.56-1.28-1.67V295h-.54v-.28l1.59-2.16h.14v1.34H22.4V295H21.27v1.43c0,.17,0,.31,0,.41a.43.43,0,0,0,.13.25.45.45,0,0,0,.33.11,1.47,1.47,0,0,0,.74-.32Z"/>
      <path d="M26.45,296.1a3.21,3.21,0,0,1-.22,1.2,1.89,1.89,0,0,1-.65.82,1.82,1.82,0,0,1-1.06.31,1.79,1.79,0,0,1-1.05-.31,1.82,1.82,0,0,1-.65-.82,3,3,0,0,1-.22-1.2,3.23,3.23,0,0,1,.12-.91,2.15,2.15,0,0,1,.37-.74,1.56,1.56,0,0,1,.6-.48,2,2,0,0,1,1.67,0,1.56,1.56,0,0,1,.6.48,2.17,2.17,0,0,1,.36.73A3,3,0,0,1,26.45,296.1Zm-1.25,0a1.62,1.62,0,0,0-.18-.83.54.54,0,0,0-.5-.3.55.55,0,0,0-.5.3,1.74,1.74,0,0,0-.17.83,1.78,1.78,0,0,0,.17.84.57.57,0,0,0,.5.31.53.53,0,0,0,.5-.31A1.64,1.64,0,0,0,25.2,296.1Z"/>
      <path d="M29.15,296.82H27v-1.47h2.16Z"/>
      <path d="M34.45,298.35H33l-.36-1.09a4.52,4.52,0,0,0-.36-.86.77.77,0,0,0-.3-.35.75.75,0,0,0-.39-.08H31.4v2.38H30v-6.09h2.34a1.4,1.4,0,0,1,.93.3,1.85,1.85,0,0,1,.52.75,2.34,2.34,0,0,1,.16.83,2.08,2.08,0,0,1-.13.79,1.46,1.46,0,0,1-.28.46,2.42,2.42,0,0,1-.34.28,1.56,1.56,0,0,1,.37.4A7.62,7.62,0,0,1,34,297Zm-1.87-4.17a.72.72,0,0,0-.21-.59,1.09,1.09,0,0,0-.68-.17H31.4v1.47h.3a1.13,1.13,0,0,0,.69-.15A.65.65,0,0,0,32.58,294.18Z"/>
      <path d="M38.05,296.49H35.69a1.2,1.2,0,0,0,.34.67.87.87,0,0,0,.61.26A2.6,2.6,0,0,0,38,297v1a3.47,3.47,0,0,1-.64.33,2.5,2.5,0,0,1-.94.15,1.81,1.81,0,0,1-1-.31,1.88,1.88,0,0,1-.65-.84,3,3,0,0,1-.22-1.19,2.92,2.92,0,0,1,.22-1.18,1.77,1.77,0,0,1,.65-.82,1.8,1.8,0,0,1,1-.3,1.46,1.46,0,0,1,.79.24,1.77,1.77,0,0,1,.63.77,3.35,3.35,0,0,1,.24,1.38Zm-1.11-.78a1.35,1.35,0,0,0-.16-.69.52.52,0,0,0-.46-.26.55.55,0,0,0-.48.27,1.16,1.16,0,0,0-.18.68Z"/>
      <path d="M41,297a1.44,1.44,0,0,1-.34,1,1.25,1.25,0,0,1-1,.39,2.57,2.57,0,0,1-.66-.09,4.54,4.54,0,0,1-.64-.26V297a3.94,3.94,0,0,0,.52.35,1,1,0,0,0,.49.12c.29,0,.44-.11.44-.33a.33.33,0,0,0-.06-.19,1,1,0,0,0-.23-.2c-.1-.07-.24-.15-.42-.25a1.74,1.74,0,0,1-.56-.52,1.3,1.3,0,0,1-.23-.8,1.46,1.46,0,0,1,.15-.64,1.29,1.29,0,0,1,.46-.5,1.4,1.4,0,0,1,.75-.2l.27,0a2.32,2.32,0,0,1,.41.11,1.58,1.58,0,0,1,.47.23v1.1l-.17-.14-.19-.13a1.46,1.46,0,0,0-.28-.13,1.26,1.26,0,0,0-.33-.05.33.33,0,0,0-.28.11.35.35,0,0,0-.07.21.27.27,0,0,0,.08.2,1.41,1.41,0,0,0,.35.24,3,3,0,0,1,.63.41,1.25,1.25,0,0,1,.34.47A1.57,1.57,0,0,1,41,297Z"/>
      <path d="M44.8,296.49H42.44a1.2,1.2,0,0,0,.34.67.87.87,0,0,0,.61.26,2.6,2.6,0,0,0,1.33-.45v1a3.7,3.7,0,0,1-.63.33,2.59,2.59,0,0,1-1,.15,1.81,1.81,0,0,1-1-.31,1.88,1.88,0,0,1-.65-.84,3,3,0,0,1-.22-1.19,2.92,2.92,0,0,1,.22-1.18,1.77,1.77,0,0,1,.65-.82,1.8,1.8,0,0,1,1-.3,1.46,1.46,0,0,1,.79.24,1.77,1.77,0,0,1,.63.77,3.35,3.35,0,0,1,.24,1.38Zm-1.11-.78a1.26,1.26,0,0,0-.16-.69.52.52,0,0,0-.46-.26.55.55,0,0,0-.48.27,1.16,1.16,0,0,0-.18.68Z"/>
      <path d="M47.76,298.09a2.51,2.51,0,0,1-.51.23,2,2,0,0,1-.62.11c-.85,0-1.28-.56-1.28-1.67V295h-.54v-.28l1.6-2.16h.13v1.34h1.13V295H46.54v1.43c0,.17,0,.31,0,.41a.43.43,0,0,0,.13.25.45.45,0,0,0,.33.11,1.44,1.44,0,0,0,.74-.32Z"/>
    </g>
    <g>
      <path d="M21.62,180.62H20.24v-3.53l-1.24,2h-.11l-1.25-2v3.53H16.31v-6.09h1.24L19,176.81l1.41-2.28h1.25Z"/>
      <path d="M25.79,180.4l-.48.22a1.69,1.69,0,0,1-.53.08.5.5,0,0,1-.41-.14.84.84,0,0,1-.17-.34,1.74,1.74,0,0,1-.42.35,1.36,1.36,0,0,1-.62.13,1,1,0,0,1-.59-.17.84.84,0,0,1-.31-.43,1.55,1.55,0,0,1-.09-.53,1.4,1.4,0,0,1,.15-.68,1.36,1.36,0,0,1,.42-.44,5,5,0,0,1,.7-.36l.38-.16.18-.08.14-.08a1.15,1.15,0,0,0-.1-.51.46.46,0,0,0-.43-.19,1.26,1.26,0,0,0-.72.23,2.61,2.61,0,0,0-.61.59v-1.21a2,2,0,0,1,.48-.35,2.62,2.62,0,0,1,.53-.2,2.76,2.76,0,0,1,.57-.06,1.48,1.48,0,0,1,1.1.37,1.45,1.45,0,0,1,.36,1v1.72a1.14,1.14,0,0,0,0,.37q0,.12.12.12a.64.64,0,0,0,.31-.12Zm-1.65-.86v-1.06a3.14,3.14,0,0,0-.62.41.65.65,0,0,0-.19.5.57.57,0,0,0,.09.34.29.29,0,0,0,.23.12.4.4,0,0,0,.24-.09C24,179.7,24.05,179.62,24.14,179.54Z"/>
      <path d="M29.63,180.62H28.17l-.65-1.27-.65,1.27h-1.3l1.3-2.2-1.33-2.27H27l.62,1.21.63-1.21h1.3l-1.27,2.12Z"/>
      <path d="M36.4,177.68a3.73,3.73,0,0,1-.26,1.51,3.19,3.19,0,0,1-.6.92,1.81,1.81,0,0,1-1.37.51H31.7v-6.09h1.9a3.77,3.77,0,0,1,.73.06,2.42,2.42,0,0,1,1,.41,2.68,2.68,0,0,1,.3.28,2.41,2.41,0,0,1,.41.61,3,3,0,0,1,.28.8A4.48,4.48,0,0,1,36.4,177.68Zm-1.4-.07a2.58,2.58,0,0,0-.21-1.16,1.24,1.24,0,0,0-.52-.56,1.42,1.42,0,0,0-.6-.14h-.59v3.61h.59a1.4,1.4,0,0,0,.93-.34A1.84,1.84,0,0,0,35,177.61Z"/>
      <path d="M38,180.62H36.84v-4.47H38Zm-.09-5.51a.73.73,0,0,1-.15.47.45.45,0,0,1-.35.2.41.41,0,0,1-.26-.09.76.76,0,0,1-.18-.24.9.9,0,0,1-.06-.34.84.84,0,0,1,.14-.47.43.43,0,0,1,.71,0A.78.78,0,0,1,37.94,175.11Z"/>
      <path d="M42.12,176.15l-1.53,4.47h-.88l-1.49-4.47H39.5l.69,2.34.77-2.34Z"/>
    </g>
    <g>
      <path d="M21.53,257a2,2,0,0,1-.22,1,1.45,1.45,0,0,1-.61.64,1.77,1.77,0,0,1-.9.23l-.35,0a4,4,0,0,1-.54-.13,3.45,3.45,0,0,1-.71-.33v-1.49a4,4,0,0,0,.68.47,1.38,1.38,0,0,0,.71.19c.24,0,.39-.05.46-.15a.58.58,0,0,0,.11-.3.54.54,0,0,0-.18-.41,2.44,2.44,0,0,0-.52-.35,3.67,3.67,0,0,1-.66-.46,1.93,1.93,0,0,1-.46-.62,2,2,0,0,1-.18-.89,2.1,2.1,0,0,1,.18-.88,1.43,1.43,0,0,1,.55-.64,1.65,1.65,0,0,1,.91-.24,2.65,2.65,0,0,1,.71.1,2.74,2.74,0,0,1,.53.22,1.65,1.65,0,0,1,.29.2v1.42a3.74,3.74,0,0,0-.62-.47,1.39,1.39,0,0,0-.74-.22.47.47,0,0,0-.37.14.43.43,0,0,0-.11.32.42.42,0,0,0,.11.31,2,2,0,0,0,.41.32,7.44,7.44,0,0,1,.85.6,1.91,1.91,0,0,1,.49.61A1.83,1.83,0,0,1,21.53,257Z"/>
      <path d="M25.69,256.46a3.44,3.44,0,0,1-.1.86,2.66,2.66,0,0,1-.29.76,1.59,1.59,0,0,1-.5.53,1.34,1.34,0,0,1-.72.2,1.23,1.23,0,0,1-.52-.1,2.36,2.36,0,0,1-.38-.24v2.29H22v-6.51h1.18v.41a1.65,1.65,0,0,1,.4-.35,1.08,1.08,0,0,1,.58-.14,1.19,1.19,0,0,1,.72.25,1.68,1.68,0,0,1,.58.75A3.2,3.2,0,0,1,25.69,256.46Zm-1.25,0a1.71,1.71,0,0,0-.1-.65.79.79,0,0,0-.24-.37.56.56,0,0,0-.32-.11.59.59,0,0,0-.34.09,1.38,1.38,0,0,0-.26.23v1.71l.14.1.14.09.15.07.17,0a.53.53,0,0,0,.47-.31A1.68,1.68,0,0,0,24.44,256.49Z"/>
      <path d="M29,254.49l-.44,1.59a.74.74,0,0,0-.55-.34.51.51,0,0,0-.43.23,2.2,2.2,0,0,0-.35.83v1.93H26v-4.48h1.19v1.08a2.38,2.38,0,0,1,.39-.78.83.83,0,0,1,.67-.38.78.78,0,0,1,.35.08Z"/>
      <path d="M32.54,256.87H30.17a1.2,1.2,0,0,0,.34.67.89.89,0,0,0,.62.26,2.57,2.57,0,0,0,1.32-.45v1a3.07,3.07,0,0,1-.63.33,2.56,2.56,0,0,1-.95.15,1.81,1.81,0,0,1-1.05-.31,1.88,1.88,0,0,1-.65-.84,3,3,0,0,1-.22-1.19,3,3,0,0,1,.22-1.18,1.77,1.77,0,0,1,.65-.82,1.8,1.8,0,0,1,1.05-.3,1.43,1.43,0,0,1,.79.24,1.65,1.65,0,0,1,.63.77,3.34,3.34,0,0,1,.25,1.38Zm-1.12-.78a1.26,1.26,0,0,0-.16-.69.51.51,0,0,0-.46-.26.55.55,0,0,0-.48.27,1.16,1.16,0,0,0-.18.68Z"/>
      <path d="M36.33,258.5a3.31,3.31,0,0,1-.48.22,1.44,1.44,0,0,1-.53.09.52.52,0,0,1-.41-.14.91.91,0,0,1-.17-.34,1.7,1.7,0,0,1-.42.34,1.22,1.22,0,0,1-.61.14,1,1,0,0,1-.6-.17.94.94,0,0,1-.31-.43,1.6,1.6,0,0,1-.09-.53,1.4,1.4,0,0,1,.15-.68,1.36,1.36,0,0,1,.42-.44,4.08,4.08,0,0,1,.7-.36l.38-.16.19-.09.13-.08a1.08,1.08,0,0,0-.1-.51.45.45,0,0,0-.43-.18,1.26,1.26,0,0,0-.72.23,2.61,2.61,0,0,0-.61.59v-1.22a2.21,2.21,0,0,1,.48-.34,2.14,2.14,0,0,1,.53-.2,2.78,2.78,0,0,1,.57-.07,1.48,1.48,0,0,1,1.1.38,1.42,1.42,0,0,1,.36,1v1.73a1.52,1.52,0,0,0,0,.37c0,.08.06.12.13.12a.59.59,0,0,0,.3-.13Zm-1.65-.85v-1.06a3.14,3.14,0,0,0-.62.41.63.63,0,0,0-.19.49.53.53,0,0,0,.09.34.29.29,0,0,0,.23.12.4.4,0,0,0,.24-.09Z"/>
      <path d="M40,258.73H38.79v-.41a1.86,1.86,0,0,1-.4.35,1,1,0,0,1-.57.14,1.26,1.26,0,0,1-.72-.25,1.68,1.68,0,0,1-.58-.75,3.2,3.2,0,0,1-.23-1.29,3.78,3.78,0,0,1,.17-1.14,1.93,1.93,0,0,1,.54-.87,1.29,1.29,0,0,1,.9-.34,1.32,1.32,0,0,1,.53.1,1.36,1.36,0,0,1,.36.25v-1.88H40Zm-1.19-1.43v-1.71l-.32-.22a.61.61,0,0,0-.28-.06.52.52,0,0,0-.46.31,1.68,1.68,0,0,0-.19.87,1.42,1.42,0,0,0,.2.86.55.55,0,0,0,.45.27.63.63,0,0,0,.35-.09A1.34,1.34,0,0,0,38.79,257.3Z"/>
    </g>
    <g>
      <path d="M10.71,280H9.46v-6.09h1.25Z"/>
      <path d="M15.62,277.92a2.75,2.75,0,0,1-.13.81,2.27,2.27,0,0,1-.36.71,1.61,1.61,0,0,1-.56.48,1.43,1.43,0,0,1-.72.18,1.46,1.46,0,0,1-1-.34,2.1,2.1,0,0,1-.62-.88,3.34,3.34,0,0,1-.2-1.19,4.53,4.53,0,0,1,.12-1,5.13,5.13,0,0,1,.38-1,5.32,5.32,0,0,1,.57-.95,6.54,6.54,0,0,1,.75-.84l1.13.49-.47.56c-.13.17-.26.35-.38.53a6.22,6.22,0,0,0-.32.56,1,1,0,0,1,.31-.05,1.29,1.29,0,0,1,.74.25,1.67,1.67,0,0,1,.53.7A2.44,2.44,0,0,1,15.62,277.92Zm-1.19,0a.9.9,0,0,0-.18-.62.51.51,0,0,0-.41-.2.5.5,0,0,0-.46.26,1.15,1.15,0,0,0-.15.56,1.08,1.08,0,0,0,.17.6.51.51,0,0,0,.42.24.48.48,0,0,0,.35-.13.75.75,0,0,0,.19-.34A1,1,0,0,0,14.43,277.89Z"/>
    </g>
    <g>
      <path d="M10,200.12H8.76V194H10Z" style="fill: #fff"/>
      <path d="M14.92,198a2.74,2.74,0,0,1-.12.81,2.37,2.37,0,0,1-.36.71,1.74,1.74,0,0,1-.56.49,1.59,1.59,0,0,1-.72.17,1.51,1.51,0,0,1-1-.33,2,2,0,0,1-.62-.89,3.31,3.31,0,0,1-.21-1.19,4.1,4.1,0,0,1,.13-1,5.78,5.78,0,0,1,.37-1,6.51,6.51,0,0,1,.58-.95,6.36,6.36,0,0,1,.74-.84l1.13.5c-.18.2-.33.39-.47.56s-.25.34-.37.52a4.48,4.48,0,0,0-.32.56.87.87,0,0,1,.3,0,1.23,1.23,0,0,1,.74.24,1.67,1.67,0,0,1,.54.7A2.61,2.61,0,0,1,14.92,198Zm-1.19,0a.9.9,0,0,0-.17-.62.56.56,0,0,0-.42-.2.5.5,0,0,0-.46.27,1.18,1.18,0,0,0-.14.55,1,1,0,0,0,.17.6.5.5,0,0,0,.41.25.47.47,0,0,0,.35-.14.79.79,0,0,0,.2-.33A1.31,1.31,0,0,0,13.73,198Z" style="fill: #fff"/>
    </g>
    <g>
      <path d="M10.85,158.34a2.18,2.18,0,0,1-.14.81,1.5,1.5,0,0,1-.38.55,1.23,1.23,0,0,1-.49.31,1.53,1.53,0,0,1-.5.1,2.88,2.88,0,0,1-.77-.13,3.06,3.06,0,0,1-.7-.31V158.3a2.53,2.53,0,0,0,.5.43,1,1,0,0,0,.55.17.61.61,0,0,0,.36-.1.64.64,0,0,0,.22-.27.8.8,0,0,0,.07-.34.88.88,0,0,0-.09-.41.73.73,0,0,0-.26-.29.81.81,0,0,0-.41-.11H8.66v-1h.18a.6.6,0,0,0,.38-.12.63.63,0,0,0,.21-.28.73.73,0,0,0,.07-.31.78.78,0,0,0-.16-.49.51.51,0,0,0-.41-.21,1.08,1.08,0,0,0-.48.11,2.19,2.19,0,0,0-.46.31v-1.17A4.55,4.55,0,0,1,8.6,154a1.83,1.83,0,0,1,.64-.11,1.37,1.37,0,0,1,.87.27,1.56,1.56,0,0,1,.5.65,1.77,1.77,0,0,1,.16.71,2.09,2.09,0,0,1-.08.55,1.8,1.8,0,0,1-.24.48,1.21,1.21,0,0,1-.3.33,1.72,1.72,0,0,1,.49.54A1.85,1.85,0,0,1,10.85,158.34Z" style="fill: #fff"/>
      <path d="M14.88,160H11.4v-.12c.14-.17.29-.38.45-.62l.62-.95.32-.53a4.19,4.19,0,0,0,.27-.51,3.66,3.66,0,0,0,.18-.53,2.49,2.49,0,0,0,.08-.61,1.19,1.19,0,0,0-.19-.68.54.54,0,0,0-.46-.26,1.49,1.49,0,0,0-1.12.77v-1.43c.13-.12.24-.2.32-.27a2.11,2.11,0,0,1,.29-.2,2.4,2.4,0,0,1,.39-.17,1.85,1.85,0,0,1,.48-.07,1.34,1.34,0,0,1,.76.23,1.52,1.52,0,0,1,.54.65,2.41,2.41,0,0,1,.2,1,3,3,0,0,1-.09.76,4.9,4.9,0,0,1-.18.57c-.07.14-.15.32-.26.53-.19.37-.39.73-.6,1.07h1.48Z" style="fill: #fff"/>
    </g>
    <g>
      <path d="M8.38,178.36a2.75,2.75,0,0,1-.13.81,2.16,2.16,0,0,1-.36.71,1.64,1.64,0,0,1-.56.49,1.42,1.42,0,0,1-.72.17,1.51,1.51,0,0,1-1-.33,2,2,0,0,1-.62-.89,3.29,3.29,0,0,1-.2-1.18,4.61,4.61,0,0,1,.12-1,5.13,5.13,0,0,1,.38-1,5.69,5.69,0,0,1,.57-.95,7.29,7.29,0,0,1,.75-.84l1.13.5c-.18.2-.34.39-.47.56s-.26.34-.38.52-.22.37-.32.56a1,1,0,0,1,.31,0,1.28,1.28,0,0,1,.74.24,1.74,1.74,0,0,1,.53.7A2.44,2.44,0,0,1,8.38,178.36Zm-1.19,0a.9.9,0,0,0-.18-.62.54.54,0,0,0-.41-.2.49.49,0,0,0-.46.27,1.08,1.08,0,0,0-.15.55,1,1,0,0,0,.17.6.5.5,0,0,0,.42.25.46.46,0,0,0,.34-.14.7.7,0,0,0,.2-.33A1.06,1.06,0,0,0,7.19,178.33Z"/>
      <path d="M12.09,179.15h-.54v1.31H10.33v-1.31H8.48V178l2.09-3.62h1v3.73h.54Zm-1.76-1.05v-1.95L9.2,178.1Z"/>
    </g>
    <path d="M50.68,178.83a1.92,1.92,0,0,1-.07.49,1.83,1.83,0,0,1-.25.56,1.42,1.42,0,0,1-.55.47,2.3,2.3,0,0,1-1.83,0,1.42,1.42,0,0,1-.55-.47,1.61,1.61,0,0,1-.25-.56,2.18,2.18,0,0,1-.06-.49,1.85,1.85,0,0,1,.2-.87,1.54,1.54,0,0,1,.53-.64,1.82,1.82,0,0,1-.43-.53,1.73,1.73,0,0,1-.15-.77,1.92,1.92,0,0,1,.09-.56,1.65,1.65,0,0,1,.27-.57,1.64,1.64,0,0,1,.5-.44,2,2,0,0,1,1.55,0,1.43,1.43,0,0,1,.5.44,1.7,1.7,0,0,1,.27.56,2.24,2.24,0,0,1,.08.57,1.67,1.67,0,0,1-.15.77,1.76,1.76,0,0,1-.43.53,1.56,1.56,0,0,1,.38.39,2,2,0,0,1,.26.52A2,2,0,0,1,50.68,178.83Zm-1.17-.17a1.17,1.17,0,0,0-.09-.48.78.78,0,0,0-.24-.31.46.46,0,0,0-.28-.1.52.52,0,0,0-.42.24,1,1,0,0,0-.19.65,1,1,0,0,0,.19.68.55.55,0,0,0,.43.23.51.51,0,0,0,.42-.25A1.08,1.08,0,0,0,49.51,178.66Zm-.14-2.52a1.5,1.5,0,0,0-.1-.56.39.39,0,0,0-.73,0,1.32,1.32,0,0,0-.11.57,1,1,0,0,0,.14.58.36.36,0,0,0,.66,0A1,1,0,0,0,49.37,176.14Z"/>
    <g>
      <path d="M16.93,98.44a3.93,3.93,0,0,1-.7.31,3.5,3.5,0,0,1-.71.17,4.57,4.57,0,0,1-.75,0,3.49,3.49,0,0,1-1.29-.22,2.59,2.59,0,0,1-1-.65,2.66,2.66,0,0,1-.63-1,3.87,3.87,0,0,1-.2-1.26,3.61,3.61,0,0,1,.24-1.37,2.53,2.53,0,0,1,.69-1,2.77,2.77,0,0,1,1-.57,3.62,3.62,0,0,1,1.19-.19,5.89,5.89,0,0,1,2.12.46V94.8a4.84,4.84,0,0,0-.81-.47,2.23,2.23,0,0,0-.93-.19,2,2,0,0,0-.9.21,1.78,1.78,0,0,0-.67.61,1.7,1.7,0,0,0-.25.91,1.66,1.66,0,0,0,.22.85,1.73,1.73,0,0,0,.62.61,1.75,1.75,0,0,0,.89.22,2.66,2.66,0,0,0,.75-.1,4.66,4.66,0,0,0,.6-.24,5.91,5.91,0,0,0,.5-.32Z"/>
      <path d="M21.93,96.65a2.67,2.67,0,0,1-.26,1.19,2,2,0,0,1-.78.83,2.84,2.84,0,0,1-2.54,0,2,2,0,0,1-.78-.83,2.67,2.67,0,0,1-.26-1.19,2.73,2.73,0,0,1,.15-.92A2,2,0,0,1,17.9,95a2,2,0,0,1,.72-.49,2.79,2.79,0,0,1,1-.17,2.89,2.89,0,0,1,1,.17,2,2,0,0,1,.72.49,2,2,0,0,1,.43.73A2.73,2.73,0,0,1,21.93,96.65Zm-1.5,0a1.44,1.44,0,0,0-.21-.83.75.75,0,0,0-1.2,0,1.44,1.44,0,0,0-.21.83,1.49,1.49,0,0,0,.21.84.75.75,0,0,0,1.2,0A1.45,1.45,0,0,0,20.43,96.65Z"/>
      <path d="M26.59,98.89H25.16v-.63a2,2,0,0,1-.63.53,1.66,1.66,0,0,1-.8.18,1.15,1.15,0,0,1-1.18-.59,3.32,3.32,0,0,1-.26-1.33V94.42h1.42v2.42a1.83,1.83,0,0,0,.11.64.45.45,0,0,0,.47.27.65.65,0,0,0,.5-.2,3.82,3.82,0,0,0,.37-.5V94.42h1.43Z"/>
      <path d="M31.47,98.89H30.05V96.48a1.75,1.75,0,0,0-.11-.64.45.45,0,0,0-.48-.28.73.73,0,0,0-.3.07,1.12,1.12,0,0,0-.24.19l-.18.22-.14.23v2.62H27.17V94.42H28.6v.64a2.08,2.08,0,0,1,.67-.56,1.73,1.73,0,0,1,.76-.16c1,0,1.44.64,1.44,1.93Z"/>
      <path d="M35.18,98.63a2.91,2.91,0,0,1-.61.23,2.52,2.52,0,0,1-.75.11c-1,0-1.53-.55-1.53-1.67V95.52h-.65v-.28l1.91-2.16h.16v1.34h1.36v1.1H33.71V97a2.29,2.29,0,0,0,0,.41.4.4,0,0,0,.16.25.59.59,0,0,0,.39.11,2,2,0,0,0,.89-.32Z"/>
      <path d="M37,98.89H35.55V94.42H37Zm-.11-5.5a.67.67,0,0,1-.18.47.56.56,0,0,1-.43.19A.53.53,0,0,1,36,94a.61.61,0,0,1-.21-.24.62.62,0,0,1-.08-.33.67.67,0,0,1,.17-.47.53.53,0,0,1,.42-.2.53.53,0,0,1,.43.2A.67.67,0,0,1,36.87,93.39Z"/>
      <path d="M41.94,98.89H40.51V96.48a1.56,1.56,0,0,0-.11-.64.44.44,0,0,0-.47-.28.74.74,0,0,0-.31.07,1.12,1.12,0,0,0-.24.19,1.46,1.46,0,0,0-.17.22l-.15.23v2.62H37.64V94.42h1.42v.64a2.1,2.1,0,0,1,.68-.56,1.65,1.65,0,0,1,.75-.16c1,0,1.45.64,1.45,1.93Z"/>
      <path d="M46.52,95.37h-.71a1.19,1.19,0,0,1,.37.89,1.39,1.39,0,0,1-.1.53,1.25,1.25,0,0,1-.31.45,1.59,1.59,0,0,1-.5.32,2.06,2.06,0,0,1-.68.16c-.33,0-.5.11-.5.29a.16.16,0,0,0,.07.15.37.37,0,0,0,.19.08l.47.05a4.58,4.58,0,0,1,.68.12,1.39,1.39,0,0,1,.59.37,1.13,1.13,0,0,1,.27.81,1.41,1.41,0,0,1-.2.74,1.38,1.38,0,0,1-.66.5,3.3,3.3,0,0,1-1.2.18,3,3,0,0,1-1.58-.32,1,1,0,0,1-.51-.86,1.09,1.09,0,0,1,.07-.33.78.78,0,0,1,.28-.37,1.18,1.18,0,0,1,.61-.24.51.51,0,0,1-.25-.22.7.7,0,0,1-.1-.34.81.81,0,0,1,.15-.46.64.64,0,0,1,.47-.3,1.6,1.6,0,0,1-.78-.5,1.33,1.33,0,0,1-.33-.94,1.86,1.86,0,0,1,.15-.77,1.41,1.41,0,0,1,.42-.54,1.84,1.84,0,0,1,.63-.3,2.68,2.68,0,0,1,.78-.1h2.21Zm-1.29,4.36a.37.37,0,0,0-.29-.38,1.85,1.85,0,0,0-.58-.09,1.53,1.53,0,0,0-.71.12.39.39,0,0,0-.22.37c0,.33.3.5.91.5a1.34,1.34,0,0,0,.65-.13A.43.43,0,0,0,45.23,99.73Zm-.29-3.6a.7.7,0,0,0-.21-.54.64.64,0,0,0-1,0,.86.86,0,0,0-.18.52.72.72,0,0,0,.08.35.64.64,0,0,0,.23.26.58.58,0,0,0,.35.1.64.64,0,0,0,.51-.22A.69.69,0,0,0,44.94,96.13Z"/>
    </g>
    <line x1="8.77" y1="172.92" x2="8.77" y2="167.45" style="fill: none;stroke: #000"/>
    <line x1="8.77" y1="182.2" x2="8.77" y2="187.82" style="fill: none;stroke: #000"/>
    <line x1="48.79" y1="172.92" x2="48.79" y2="167.45" style="fill: none;stroke: #000"/>
    <line x1="48.79" y1="182.2" x2="48.79" y2="187.82" style="fill: none;stroke: #000"/>
    <g>
      <polygon points="9.44 78.71 14.72 78.71 12.08 81.35 9.44 78.71"/>
      <rect x="11.17" y="75.21" width="1.8" height="3.67"/>
    </g>
    <g>
      <polygon points="49.18 77.69 43.91 77.69 46.54 75.05 49.18 77.69"/>
      <rect x="45.66" y="77.55" width="1.8" height="3.67"/>
    </g>
    <g>
      <path d="M12.16,237.24a3.19,3.19,0,0,1-.21,1.19,1.91,1.91,0,0,1-.65.82,1.77,1.77,0,0,1-1.06.31,1.75,1.75,0,0,1-1.06-.31,1.84,1.84,0,0,1-.65-.82,3.19,3.19,0,0,1-.21-1.19,3.26,3.26,0,0,1,.12-.92,2.17,2.17,0,0,1,.36-.73,1.6,1.6,0,0,1,.61-.49,1.84,1.84,0,0,1,.83-.17,1.86,1.86,0,0,1,.84.17,1.66,1.66,0,0,1,.6.48,2.26,2.26,0,0,1,.36.73A3.38,3.38,0,0,1,12.16,237.24Zm-1.24,0a1.64,1.64,0,0,0-.18-.84.54.54,0,0,0-.5-.3.55.55,0,0,0-.5.3,1.65,1.65,0,0,0-.17.84,1.74,1.74,0,0,0,.17.83.54.54,0,0,0,.5.31.53.53,0,0,0,.5-.31A1.62,1.62,0,0,0,10.92,237.24Z"/>
      <path d="M16.09,239.48H14.91v-2.42a2.06,2.06,0,0,0-.09-.64.38.38,0,0,0-.4-.27.46.46,0,0,0-.26.07.69.69,0,0,0-.19.19,1.07,1.07,0,0,0-.15.22l-.12.22v2.63H12.51V235H13.7v.65a1.65,1.65,0,0,1,.56-.56,1.23,1.23,0,0,1,.63-.16q1.2,0,1.2,1.92Z"/>
    </g>
    <g>
      <path d="M45.57,277.78a3,3,0,0,1-.22,1.19,1.85,1.85,0,0,1-.65.83,2,2,0,0,1-2.11,0,1.85,1.85,0,0,1-.65-.83,3.16,3.16,0,0,1-.21-1.19,3.31,3.31,0,0,1,.12-.92,2.26,2.26,0,0,1,.36-.73,1.7,1.7,0,0,1,.61-.49,2,2,0,0,1,.83-.17,2.07,2.07,0,0,1,.84.17,1.69,1.69,0,0,1,.6.49,2.17,2.17,0,0,1,.36.73A3.31,3.31,0,0,1,45.57,277.78Zm-1.25,0a1.74,1.74,0,0,0-.17-.83.55.55,0,0,0-.5-.3.54.54,0,0,0-.5.3,1.62,1.62,0,0,0-.18.83,1.69,1.69,0,0,0,.18.84.57.57,0,0,0,1,0A1.78,1.78,0,0,0,44.32,277.78Z"/>
      <path d="M48.17,275.06a1.79,1.79,0,0,0-.44-.08.34.34,0,0,0-.3.17.88.88,0,0,0-.11.47v.16h.6v1.07h-.6V280H46.13v-3.17h-.55v-1.07h.55v-.08a2.91,2.91,0,0,1,.14-.89,1.43,1.43,0,0,1,.46-.69,1.25,1.25,0,0,1,.84-.27,2.47,2.47,0,0,1,.6.08Z"/>
      <path d="M50.39,275.06A1.79,1.79,0,0,0,50,275a.34.34,0,0,0-.3.17.88.88,0,0,0-.11.47v.16h.6v1.07h-.6V280H48.35v-3.17h-.54v-1.07h.54v-.08a2.91,2.91,0,0,1,.14-.89,1.43,1.43,0,0,1,.46-.69,1.25,1.25,0,0,1,.84-.27,2.47,2.47,0,0,1,.6.08Z"/>
    </g>
    <g>
      <path d="M45.57,237.24a3,3,0,0,1-.22,1.19,1.77,1.77,0,0,1-.65.82,2,2,0,0,1-2.11,0,1.77,1.77,0,0,1-.65-.82,3.19,3.19,0,0,1-.21-1.19,3.26,3.26,0,0,1,.12-.92,2.17,2.17,0,0,1,.36-.73,1.7,1.7,0,0,1,.61-.49,1.81,1.81,0,0,1,.83-.17,1.91,1.91,0,0,1,.84.17,1.69,1.69,0,0,1,.6.49,2.12,2.12,0,0,1,.36.72A3.38,3.38,0,0,1,45.57,237.24Zm-1.25,0a1.78,1.78,0,0,0-.17-.84.55.55,0,0,0-.5-.3.54.54,0,0,0-.5.3,1.66,1.66,0,0,0-.18.84,1.62,1.62,0,0,0,.18.83.56.56,0,0,0,1,0A1.74,1.74,0,0,0,44.32,237.24Z"/>
      <path d="M48.17,234.52a1.79,1.79,0,0,0-.44-.08.33.33,0,0,0-.3.16.92.92,0,0,0-.11.48v.16h.6v1.07h-.6v3.17H46.13v-3.17h-.55v-1.07h.55v-.08a2.86,2.86,0,0,1,.14-.89,1.43,1.43,0,0,1,.46-.69,1.2,1.2,0,0,1,.84-.28,2.08,2.08,0,0,1,.6.09Z"/>
      <path d="M50.39,234.52a1.79,1.79,0,0,0-.44-.08.33.33,0,0,0-.3.16.92.92,0,0,0-.11.48v.16h.6v1.07h-.6v3.17H48.35v-3.17h-.54v-1.07h.54v-.08a2.86,2.86,0,0,1,.14-.89,1.43,1.43,0,0,1,.46-.69,1.2,1.2,0,0,1,.84-.28,2.08,2.08,0,0,1,.6.09Z"/>
    </g>
    <path d="M49,168.15" style="fill: none;stroke: #fff;stroke-width: 1.0352100000000002px"/>
    <path d="M49,146.75" style="fill: none;stroke: #fff;stroke-width: 1.0352100000000002px"/>
    <path d="M14.89,355.5A4.54,4.54,0,1,0,19.43,351,4.54,4.54,0,0,0,14.89,355.5Z"/>
    <path d="M15.34,8.25a4.54,4.54,0,1,0,4.54-4.53A4.54,4.54,0,0,0,15.34,8.25Z"/>
  </g>
  <g id="components">
    <rect id="Aito-Reset" x="23.35" y="268.62" width="11.34" height="17.01" transform="translate(306.14 248.1) rotate(90)" style="fill: #ff8080"/>
    <rect id="Spread" x="23.35" y="228.89" width="11.34" height="17.01" transform="translate(266.42 208.37) rotate(90)" style="fill: #ff8080"/>
    <rect id="Max_Div_2" data-name="Max Div 2" x="23.17" y="188.97" width="11.34" height="17.01" transform="translate(226.31 168.64) rotate(90)" style="fill: #ff8080"/>
    <rect id="Max_Div_1" data-name="Max Div 1" x="23.17" y="149.25" width="11.34" height="17.01" transform="translate(186.59 128.92) rotate(90)" style="fill: #ff8080"/>
    <rect id="Gate_Trig" data-name="Gate Trig" x="23.35" y="109.62" width="11.34" height="17.01" transform="translate(147.14 89.1) rotate(90)" style="fill: #ff8080"/>
    <rect id="Counting" x="23.35" y="69.51" width="11.34" height="17.01" transform="translate(107.04 49) rotate(90)" style="fill: #ff8080"/>
    <text id="slug" transform="translate(0.57 371.47)" style="font-size: 6px;font-family: MyriadPro-Regular, Myriad Pro"><tspan style="letter-spacing: 0.0030924479166666665em">R</tspan><tspan x="3.25" y="0">CDBO</tspan></text>
    <text id="modulename" transform="translate(23.03 371.47)" style="font-size: 6px;font-family: MyriadPro-Regular, Myriad Pro"><tspan style="letter-spacing: 0.0030924479166666665em">R</tspan><tspan x="3.25" y="0">CD B</tspan><tspan x="15.25" y="0" style="letter-spacing: -0.010091145833333334em">r</tspan><tspan x="17.15" y="0">eakout</tspan></text>
  </g>
</svg>
