<svg xmlns="http://www.w3.org/2000/svg" width="61.05mm" height="131.71mm" viewBox="0 0 173.05 373.34">
  <g id="faceplate">
    <rect x="0.13" y="0.13" width="172.8" height="364.25" style="fill: #ededed;stroke: #9d9d9e;stroke-miterlimit: 10;stroke-width: 0.25px"/>
    <g>
      <path d="M15,8.63a4.54,4.54,0,1,0,4.54-4.54A4.54,4.54,0,0,0,15,8.63Z"/>
      <path d="M15,355.87a4.54,4.54,0,1,0,4.54-4.53A4.54,4.54,0,0,0,15,355.87Z"/>
    </g>
    <g>
      <path d="M157.41,8.54A4.54,4.54,0,1,1,152.87,4,4.53,4.53,0,0,1,157.41,8.54Z"/>
      <path d="M157.41,355.78a4.54,4.54,0,1,1-4.54-4.53A4.54,4.54,0,0,1,157.41,355.78Z"/>
    </g>
    <g>
      <g>
        <path d="M21.38,100.22c-6.34,0-11.49-5.53-11.49-12.31S15,75.6,21.38,75.6H51.09c6.34,0,11.49,5.52,11.49,12.31s-5.15,12.31-11.49,12.31Z" style="fill: #00adee"/>
        <path d="M51.09,76.1c6.07,0,11,5.29,11,11.81s-4.92,11.8-11,11.8H21.38c-6.07,0-11-5.28-11-11.8s4.92-11.81,11-11.81H51.09m0-1H21.38c-6.61,0-12,5.75-12,12.81s5.38,12.8,12,12.8H51.09c6.61,0,12-5.74,12-12.8S57.7,75.1,51.09,75.1Z"/>
      </g>
      <g>
        <path d="M27.28,86.43,26,88.78l1.32,2.49H26l-.72-1.58-.72,1.58H23.3l1.32-2.49-1.26-2.35h1.29l.67,1.46L26,86.43Z"/>
        <path d="M29.36,86.77H28.09v-.85h.12a1.88,1.88,0,0,0,1-.24,1.09,1.09,0,0,0,.47-.78h1v6.37h-1.3Z"/>
      </g>
    </g>
    <g>
      <g>
        <path d="M21.38,131.82c-6.34,0-11.49-5.52-11.49-12.3S15,107.21,21.38,107.21H51.09c6.34,0,11.49,5.52,11.49,12.31s-5.15,12.3-11.49,12.3Z" style="fill: #00adee"/>
        <path d="M51.09,107.71c6.07,0,11,5.29,11,11.81s-4.92,11.8-11,11.8H21.38c-6.07,0-11-5.28-11-11.8s4.92-11.81,11-11.81H51.09m0-1H21.38c-6.61,0-12,5.75-12,12.81s5.38,12.8,12,12.8H51.09c6.61,0,12-5.74,12-12.8s-5.38-12.81-12-12.81Z"/>
      </g>
      <g>
        <path d="M27.28,118,26,120.39l1.32,2.49H26l-.72-1.58-.72,1.58H23.3l1.32-2.49L23.36,118h1.29l.67,1.46L26,118Z"/>
        <path d="M27.88,122.88a3.29,3.29,0,0,1,.09-.79,2.8,2.8,0,0,1,.26-.7,3.79,3.79,0,0,1,.44-.66,6.14,6.14,0,0,1,.62-.64l.52-.49a2.88,2.88,0,0,0,.35-.35,1.87,1.87,0,0,0,.2-.32,1.06,1.06,0,0,0,.09-.35,2.81,2.81,0,0,0,0-.43c0-.53-.21-.8-.63-.8a.72.72,0,0,0-.39.1.71.71,0,0,0-.21.27,1.24,1.24,0,0,0-.1.4,3.62,3.62,0,0,0,0,.47H27.88v-.24a1.86,1.86,0,0,1,.48-1.37,2.09,2.09,0,0,1,1.5-.47,2,2,0,0,1,1.44.45,1.67,1.67,0,0,1,.47,1.28,3.48,3.48,0,0,1-.05.58,2.27,2.27,0,0,1-.17.5,2.3,2.3,0,0,1-.31.48,4,4,0,0,1-.46.47l-.72.67a2.85,2.85,0,0,0-.45.5,1.44,1.44,0,0,0-.2.43h2.4v1Z"/>
      </g>
    </g>
    <g>
      <g>
        <path d="M21.38,163.43c-6.34,0-11.49-5.52-11.49-12.3S15,138.82,21.38,138.82H51.09c6.34,0,11.49,5.52,11.49,12.31s-5.15,12.3-11.49,12.3Z" style="fill: #00a551"/>
        <path d="M51.09,139.32c6.07,0,11,5.29,11,11.81s-4.92,11.8-11,11.8H21.38c-6.07,0-11-5.28-11-11.8s4.92-11.81,11-11.81H51.09m0-1H21.38c-6.61,0-12,5.75-12,12.81s5.38,12.8,12,12.8H51.09c6.61,0,12-5.74,12-12.8s-5.38-12.81-12-12.81Z"/>
      </g>
      <g>
        <path d="M24.73,152.67a2.48,2.48,0,0,0,0,.41.68.68,0,0,0,.14.31.67.67,0,0,0,.26.2,1,1,0,0,0,.42.07.84.84,0,0,0,.53-.19.73.73,0,0,0,.24-.6,1.4,1.4,0,0,0-.05-.38.76.76,0,0,0-.2-.28,1.63,1.63,0,0,0-.35-.23,4.6,4.6,0,0,0-.55-.21,4.44,4.44,0,0,1-.75-.32,1.76,1.76,0,0,1-.52-.4,1.35,1.35,0,0,1-.31-.53,2.11,2.11,0,0,1-.1-.7,1.83,1.83,0,0,1,.53-1.42,2.13,2.13,0,0,1,1.46-.46,3.24,3.24,0,0,1,.79.09,1.44,1.44,0,0,1,.63.31,1.41,1.41,0,0,1,.42.54,1.84,1.84,0,0,1,.15.78v.18H26.26a1.25,1.25,0,0,0-.16-.7.59.59,0,0,0-.54-.25,1,1,0,0,0-.36.06.55.55,0,0,0-.34.41.86.86,0,0,0,0,.28,1,1,0,0,0,.13.5,1.09,1.09,0,0,0,.54.37l1,.43a2.72,2.72,0,0,1,.6.34,1.71,1.71,0,0,1,.38.38,1.34,1.34,0,0,1,.19.44,2.26,2.26,0,0,1,.05.54,1.75,1.75,0,0,1-.59,1.48,2.58,2.58,0,0,1-1.64.47,2.15,2.15,0,0,1-1.57-.48,1.88,1.88,0,0,1-.47-1.37v-.26h1.29Z"/>
        <path d="M29.81,153.47a.55.55,0,0,0,.56.3.78.78,0,0,0,.37-.08.58.58,0,0,0,.22-.22,1.15,1.15,0,0,0,.1-.33c0-.13,0-.26,0-.4a2.73,2.73,0,0,0,0-.41.92.92,0,0,0-.12-.34.63.63,0,0,0-.26-.25.86.86,0,0,0-.43-.09h-.43v-.84h.42a.63.63,0,0,0,.35-.09.8.8,0,0,0,.23-.22,1.52,1.52,0,0,0,.12-.32,1.58,1.58,0,0,0,0-.38,1.07,1.07,0,0,0-.15-.65.56.56,0,0,0-.47-.19A.68.68,0,0,0,30,149a.58.58,0,0,0-.2.21.9.9,0,0,0-.09.33,2.77,2.77,0,0,0,0,.42H28.51a1.89,1.89,0,0,1,.47-1.42,1.94,1.94,0,0,1,1.4-.46,2.09,2.09,0,0,1,1.35.39,1.53,1.53,0,0,1,.48,1.24,1.58,1.58,0,0,1-.25.94,1.13,1.13,0,0,1-.72.47v0a1.19,1.19,0,0,1,.88.49,1.87,1.87,0,0,1,.26,1,2.56,2.56,0,0,1-.09.66A1.43,1.43,0,0,1,32,154a1.83,1.83,0,0,1-.64.45,3,3,0,0,1-1.08.17,1.78,1.78,0,0,1-1.39-.51,2.06,2.06,0,0,1-.45-1.43v0h1.24A1.87,1.87,0,0,0,29.81,153.47Z"/>
      </g>
    </g>
    <g>
      <g>
        <path d="M21.38,195c-6.34,0-11.49-5.52-11.49-12.3S15,170.43,21.38,170.43H51.09c6.34,0,11.49,5.52,11.49,12.31S57.43,195,51.09,195Z" style="fill: #00a551"/>
        <path d="M51.09,170.93c6.07,0,11,5.29,11,11.81s-4.92,11.8-11,11.8H21.38c-6.07,0-11-5.28-11-11.8s4.92-11.81,11-11.81H51.09m0-1H21.38c-6.61,0-12,5.74-12,12.81s5.38,12.8,12,12.8H51.09c6.61,0,12-5.74,12-12.8s-5.38-12.81-12-12.81Z"/>
      </g>
      <g>
        <path d="M24.73,184.28a2.48,2.48,0,0,0,0,.41.68.68,0,0,0,.14.31.67.67,0,0,0,.26.2,1.22,1.22,0,0,0,.42.07.79.79,0,0,0,.53-.2.69.69,0,0,0,.24-.59,1.4,1.4,0,0,0-.05-.38.76.76,0,0,0-.2-.28,1.63,1.63,0,0,0-.35-.23,4.6,4.6,0,0,0-.55-.21,4.44,4.44,0,0,1-.75-.32,1.76,1.76,0,0,1-.52-.4,1.35,1.35,0,0,1-.31-.53,2.11,2.11,0,0,1-.1-.7,1.81,1.81,0,0,1,.53-1.42,2.13,2.13,0,0,1,1.46-.47,3.22,3.22,0,0,1,.79.1,1.44,1.44,0,0,1,.63.31,1.41,1.41,0,0,1,.42.54,1.84,1.84,0,0,1,.15.78v.18H26.26a1.25,1.25,0,0,0-.16-.7.59.59,0,0,0-.54-.25,1,1,0,0,0-.36.06.55.55,0,0,0-.34.41.86.86,0,0,0,0,.28.94.94,0,0,0,.13.49,1.1,1.1,0,0,0,.54.38l1,.43a2.72,2.72,0,0,1,.6.34,1.52,1.52,0,0,1,.38.38,1.34,1.34,0,0,1,.19.44,2.26,2.26,0,0,1,.05.54,1.75,1.75,0,0,1-.59,1.48,2.58,2.58,0,0,1-1.64.47,2.15,2.15,0,0,1-1.57-.48,1.9,1.9,0,0,1-.47-1.37v-.26h1.29Z"/>
        <path d="M30.48,179.72h1.34v4.05h.61v1h-.61v1.33H30.63v-1.33H28.36v-1.06Zm.13,1.62-1.24,2.43h1.26v-2.43Z"/>
      </g>
    </g>
    <g>
      <g>
        <path d="M21.38,226.65c-6.34,0-11.49-5.52-11.49-12.31S15,202,21.38,202H51.09c6.34,0,11.49,5.52,11.49,12.3s-5.15,12.31-11.49,12.31Z" style="fill: #00a551"/>
        <path d="M51.09,202.54c6.07,0,11,5.28,11,11.8s-4.92,11.81-11,11.81H21.38c-6.07,0-11-5.29-11-11.81s4.92-11.8,11-11.8H51.09m0-1H21.38c-6.61,0-12,5.74-12,12.8s5.38,12.81,12,12.81H51.09c6.61,0,12-5.75,12-12.81s-5.38-12.8-12-12.8Z"/>
      </g>
      <g>
        <path d="M24.73,215.89a2.59,2.59,0,0,0,0,.41.68.68,0,0,0,.14.31.57.57,0,0,0,.26.19,1,1,0,0,0,.42.08.79.79,0,0,0,.53-.2.71.71,0,0,0,.24-.6,1.38,1.38,0,0,0-.05-.37.76.76,0,0,0-.2-.28,1.33,1.33,0,0,0-.35-.23,4.6,4.6,0,0,0-.55-.21,4.44,4.44,0,0,1-.75-.32,1.94,1.94,0,0,1-.52-.4,1.35,1.35,0,0,1-.31-.53,2.11,2.11,0,0,1-.1-.7,1.81,1.81,0,0,1,.53-1.42,2.13,2.13,0,0,1,1.46-.47,2.8,2.8,0,0,1,.79.1,1.54,1.54,0,0,1,.63.3,1.41,1.41,0,0,1,.42.54,1.89,1.89,0,0,1,.15.79v.18H26.26a1.29,1.29,0,0,0-.16-.71.61.61,0,0,0-.54-.24,1,1,0,0,0-.36.06.66.66,0,0,0-.23.17.7.7,0,0,0-.11.23.9.9,0,0,0,0,.28,1,1,0,0,0,.13.5,1.1,1.1,0,0,0,.54.38l1,.43a2.72,2.72,0,0,1,.6.34,1.68,1.68,0,0,1,.38.37,1.49,1.49,0,0,1,.19.45,2.26,2.26,0,0,1,.05.54,1.75,1.75,0,0,1-.59,1.48,2.58,2.58,0,0,1-1.64.46,2.15,2.15,0,0,1-1.57-.47,1.9,1.9,0,0,1-.47-1.37v-.26h1.29Z"/>
        <path d="M29.71,212.47l-.13,1.45h0a1.07,1.07,0,0,1,.47-.37,2.06,2.06,0,0,1,.7-.11,1.55,1.55,0,0,1,.76.17,1.28,1.28,0,0,1,.48.47,2,2,0,0,1,.25.65,3.64,3.64,0,0,1,.07.74,4.78,4.78,0,0,1-.09,1,2,2,0,0,1-.32.74,1.41,1.41,0,0,1-.62.47,2.91,2.91,0,0,1-1,.15,2.48,2.48,0,0,1-1-.16,1.36,1.36,0,0,1-.83-1,2.47,2.47,0,0,1-.07-.58v-.17h1.24c0,.1,0,.22,0,.34a1.3,1.3,0,0,0,.08.34.73.73,0,0,0,.2.26.48.48,0,0,0,.33.1.61.61,0,0,0,.58-.31,1.91,1.91,0,0,0,.18-.93,5.68,5.68,0,0,0,0-.66,1,1,0,0,0-.12-.41.54.54,0,0,0-.23-.22,1,1,0,0,0-.36-.06.54.54,0,0,0-.43.16.68.68,0,0,0-.18.42H28.51l.23-3.46h3.32v1Z"/>
      </g>
    </g>
    <g>
      <g>
        <path d="M21.38,258.26C15,258.26,9.89,252.74,9.89,246s5.15-12.3,11.49-12.3H51.09c6.34,0,11.49,5.52,11.49,12.3s-5.15,12.31-11.49,12.31Z" style="fill: #00a551"/>
        <path d="M51.09,234.15c6.07,0,11,5.28,11,11.8s-4.92,11.81-11,11.81H21.38c-6.07,0-11-5.29-11-11.81s4.92-11.8,11-11.8H51.09m0-1H21.38c-6.61,0-12,5.74-12,12.8s5.38,12.81,12,12.81H51.09c6.61,0,12-5.75,12-12.81s-5.38-12.8-12-12.8Z"/>
      </g>
      <g>
        <path d="M24.73,247.49a2.61,2.61,0,0,0,0,.42.68.68,0,0,0,.14.31.57.57,0,0,0,.26.19,1,1,0,0,0,.42.08.79.79,0,0,0,.53-.2.73.73,0,0,0,.24-.6,1.32,1.32,0,0,0-.05-.37.69.69,0,0,0-.2-.28,1.33,1.33,0,0,0-.35-.23,4.6,4.6,0,0,0-.55-.21,5.45,5.45,0,0,1-.75-.32,1.94,1.94,0,0,1-.52-.4,1.35,1.35,0,0,1-.31-.53,2.11,2.11,0,0,1-.1-.7,1.81,1.81,0,0,1,.53-1.42,2.13,2.13,0,0,1,1.46-.47,2.8,2.8,0,0,1,.79.1,1.54,1.54,0,0,1,.63.3,1.41,1.41,0,0,1,.42.54,1.89,1.89,0,0,1,.15.79v.18H26.26a1.29,1.29,0,0,0-.16-.71.61.61,0,0,0-.54-.24,1,1,0,0,0-.36.06A.66.66,0,0,0,25,244a.55.55,0,0,0-.11.23.9.9,0,0,0,0,.28,1,1,0,0,0,.13.5,1.1,1.1,0,0,0,.54.38l1,.43a2.73,2.73,0,0,1,.6.33,2,2,0,0,1,.38.38,1.49,1.49,0,0,1,.19.45,2.26,2.26,0,0,1,.05.54,1.75,1.75,0,0,1-.59,1.48,2.58,2.58,0,0,1-1.64.46,2.2,2.2,0,0,1-1.57-.47,1.9,1.9,0,0,1-.47-1.37v-.26h1.29Z"/>
        <path d="M30.9,244a.47.47,0,0,0-.45-.2.65.65,0,0,0-.41.12.66.66,0,0,0-.24.34,1.74,1.74,0,0,0-.12.51c0,.2,0,.41,0,.65v.31h0a1.07,1.07,0,0,1,.46-.4,1.83,1.83,0,0,1,1.45,0,1.22,1.22,0,0,1,.48.42,1.51,1.51,0,0,1,.27.63,3.24,3.24,0,0,1,.09.79,2.5,2.5,0,0,1-.49,1.68,2,2,0,0,1-1.57.57,2.11,2.11,0,0,1-1.06-.23,1.53,1.53,0,0,1-.61-.65,2.88,2.88,0,0,1-.28-.94,10.28,10.28,0,0,1-.06-1.13c0-.45,0-.89,0-1.31a3.7,3.7,0,0,1,.24-1.12,1.77,1.77,0,0,1,.64-.79,2.14,2.14,0,0,1,1.22-.3,3,3,0,0,1,.67.08,1.71,1.71,0,0,1,.56.27,1.41,1.41,0,0,1,.39.5,2,2,0,0,1,.16.77H31A1,1,0,0,0,30.9,244Zm-1.15,3.85a1.46,1.46,0,0,0,.1.4.56.56,0,0,0,.22.26.64.64,0,0,0,.36.09.71.71,0,0,0,.38-.09.58.58,0,0,0,.21-.27,1.39,1.39,0,0,0,.09-.4,3.94,3.94,0,0,0,0-.5,1.89,1.89,0,0,0-.16-.92.57.57,0,0,0-.54-.28.58.58,0,0,0-.55.28,1.89,1.89,0,0,0-.16.92A4.12,4.12,0,0,0,29.75,247.84Z"/>
      </g>
    </g>
    <g>
      <g>
        <path d="M21.38,289.87c-6.34,0-11.49-5.52-11.49-12.31S15,265.25,21.38,265.25H51.09c6.34,0,11.49,5.52,11.49,12.31s-5.15,12.31-11.49,12.31Z" style="fill: #00a551"/>
        <path d="M51.09,265.75c6.07,0,11,5.29,11,11.81s-4.92,11.8-11,11.8H21.38c-6.07,0-11-5.28-11-11.8s4.92-11.81,11-11.81H51.09m0-1H21.38c-6.61,0-12,5.75-12,12.81s5.38,12.8,12,12.8H51.09c6.61,0,12-5.74,12-12.8s-5.38-12.81-12-12.81Z"/>
      </g>
      <g>
        <path d="M24.73,279.1a2.48,2.48,0,0,0,0,.41.59.59,0,0,0,.14.31.59.59,0,0,0,.26.2,1,1,0,0,0,.42.07.78.78,0,0,0,.53-.19.73.73,0,0,0,.24-.6,1.32,1.32,0,0,0-.05-.37.8.8,0,0,0-.2-.29,1.63,1.63,0,0,0-.35-.23l-.55-.21a4.47,4.47,0,0,1-.75-.31,1.94,1.94,0,0,1-.52-.4,1.42,1.42,0,0,1-.31-.53,2.15,2.15,0,0,1-.1-.7,1.8,1.8,0,0,1,.53-1.42,2.13,2.13,0,0,1,1.46-.47,3.24,3.24,0,0,1,.79.09,1.69,1.69,0,0,1,.63.31,1.41,1.41,0,0,1,.42.54,1.89,1.89,0,0,1,.15.79v.18H26.26a1.29,1.29,0,0,0-.16-.71.61.61,0,0,0-.54-.25.8.8,0,0,0-.36.07.63.63,0,0,0-.23.16.66.66,0,0,0-.11.24.86.86,0,0,0,0,.28,1,1,0,0,0,.13.5,1.09,1.09,0,0,0,.54.37l1,.44a2.73,2.73,0,0,1,.6.33,2,2,0,0,1,.38.38,1.39,1.39,0,0,1,.19.45,2.26,2.26,0,0,1,.05.54,1.76,1.76,0,0,1-.59,1.48,2.58,2.58,0,0,1-1.64.46,2.15,2.15,0,0,1-1.57-.48,1.86,1.86,0,0,1-.47-1.36v-.27h1.29Z"/>
        <path d="M28.63,278.09a1.17,1.17,0,0,1,.81-.54v0a1.18,1.18,0,0,1-.72-.51,1.14,1.14,0,0,1-.15-.36,1.49,1.49,0,0,1-.05-.36A1.64,1.64,0,0,1,29,275a2.51,2.51,0,0,1,2.75,0,1.64,1.64,0,0,1,.5,1.34,1.49,1.49,0,0,1-.05.36,1.46,1.46,0,0,1-.16.36,1.18,1.18,0,0,1-.28.31,1.14,1.14,0,0,1-.43.2v0a1.17,1.17,0,0,1,.81.54,1.88,1.88,0,0,1,.27,1,2.72,2.72,0,0,1-.07.61,1.45,1.45,0,0,1-.28.62,1.52,1.52,0,0,1-.62.48,3.08,3.08,0,0,1-2.13,0,1.52,1.52,0,0,1-.62-.48,1.45,1.45,0,0,1-.28-.62,2.72,2.72,0,0,1-.07-.61A1.88,1.88,0,0,1,28.63,278.09Zm1.06,1.44a.91.91,0,0,0,.12.35.59.59,0,0,0,.23.24.74.74,0,0,0,.36.08.8.8,0,0,0,.36-.08.64.64,0,0,0,.22-.24.91.91,0,0,0,.12-.35,3.1,3.1,0,0,0,0-.86,1,1,0,0,0-.12-.35.59.59,0,0,0-.58-.31.64.64,0,0,0-.36.08.63.63,0,0,0-.23.23,1,1,0,0,0-.12.35,3.1,3.1,0,0,0,0,.86Zm.25-2.59a.53.53,0,0,0,.46.22.52.52,0,0,0,.45-.22,1,1,0,0,0,.18-.67q0-.87-.63-.87t-.63.87A1,1,0,0,0,29.94,276.94Z"/>
      </g>
    </g>
    <g>
      <g>
        <path d="M21.38,321.47c-6.34,0-11.49-5.52-11.49-12.3S15,296.86,21.38,296.86H51.09c6.34,0,11.49,5.52,11.49,12.31s-5.15,12.3-11.49,12.3Z" style="fill: #00adee"/>
        <path d="M51.09,297.36c6.07,0,11,5.29,11,11.81s-4.92,11.8-11,11.8H21.38c-6.07,0-11-5.28-11-11.8s4.92-11.81,11-11.81H51.09m0-1H21.38c-6.61,0-12,5.75-12,12.81s5.38,12.8,12,12.8H51.09c6.61,0,12-5.74,12-12.8s-5.38-12.81-12-12.81Z"/>
      </g>
      <g>
        <path d="M27.28,307.69,26,310l1.32,2.49H26L25.32,311l-.72,1.58H23.3L24.62,310l-1.26-2.35h1.29l.67,1.46.67-1.46Z"/>
        <path d="M28.12,309.69a1.24,1.24,0,0,1,.81-.54h0a1.28,1.28,0,0,1-.44-.2,1,1,0,0,1-.28-.31,1.14,1.14,0,0,1-.15-.36,1.49,1.49,0,0,1,0-.36,1.64,1.64,0,0,1,.5-1.34,2.06,2.06,0,0,1,1.37-.41,2.1,2.1,0,0,1,1.38.41,1.64,1.64,0,0,1,.49,1.34,1.23,1.23,0,0,1-.2.72,1.06,1.06,0,0,1-.29.31,1.26,1.26,0,0,1-.42.2h0a1.24,1.24,0,0,1,.81.54,1.94,1.94,0,0,1,.27,1,3.57,3.57,0,0,1-.07.61,1.65,1.65,0,0,1-.28.62,1.71,1.71,0,0,1-.62.48,2.47,2.47,0,0,1-1.07.19,2.42,2.42,0,0,1-1.06-.19,1.63,1.63,0,0,1-.62-.48,1.51,1.51,0,0,1-.28-.62,2.79,2.79,0,0,1-.07-.61A1.94,1.94,0,0,1,28.12,309.69Zm1.06,1.45a1.2,1.2,0,0,0,.11.35.63.63,0,0,0,.23.23.69.69,0,0,0,.36.09.64.64,0,0,0,.36-.09.51.51,0,0,0,.23-.23,1,1,0,0,0,.12-.35,3,3,0,0,0,0-.43,2.9,2.9,0,0,0,0-.43,1,1,0,0,0-.12-.35.57.57,0,0,0-.23-.23.64.64,0,0,0-.36-.09.69.69,0,0,0-.36.09.72.72,0,0,0-.23.23,1.2,1.2,0,0,0-.11.35,2.86,2.86,0,0,0,0,.43A3,3,0,0,0,29.18,311.14Zm.24-2.59a.55.55,0,0,0,.46.22.54.54,0,0,0,.46-.22,1,1,0,0,0,.17-.67c0-.59-.21-.88-.63-.88s-.63.29-.63.88A1.1,1.1,0,0,0,29.42,308.55Z"/>
      </g>
    </g>
    <g>
      <path d="M51.09,44.47c6.07,0,11,5.29,11,11.83s-4.92,11.84-11,11.84H21.38c-6.07,0-11-5.3-11-11.84s4.92-11.83,11-11.83H51.09m0-1.5H21.38C14.49,43,8.89,49,8.89,56.3s5.6,13.34,12.49,13.34H51.09c6.89,0,12.49-6,12.49-13.34S58,43,51.09,43Z"/>
      <g>
        <polyline points="23.04 63.54 27.52 63.54 27.52 56.03 32.01 56.03" style="fill: none;stroke: #000"/>
        <path d="M27.49,56.55l-2.65,2.11Z" style="fill: none;stroke: #000"/>
        <line x1="29.99" y1="58.65" x2="27.43" y2="56.6" style="fill: none;stroke: #000"/>
      </g>
      <g>
        <path d="M25.1,49.56a.73.73,0,1,1,.73-.73.7.7,0,0,1-.73.73Zm-.63,5V50.13h1.27v4.41Z"/>
        <path d="M26.77,51.54c0-.55,0-1,0-1.41h1.11l.06.62h0A1.46,1.46,0,0,1,29.19,50c.83,0,1.46.61,1.46,1.9v2.61H29.38V52.1c0-.57-.18-1-.65-1a.7.7,0,0,0-.65.52A1.13,1.13,0,0,0,28,52v2.54H26.77Z"/>
      </g>
    </g>
    <g>
      <path d="M92,9.19,86.61,16V10.17A1.26,1.26,0,0,0,86,9a.88.88,0,0,0-1.1.29l-7.09,9a1.44,1.44,0,0,0,0,1.74.88.88,0,0,0,1.42,0l5.36-6.81v5.87a1.26,1.26,0,0,0,.63,1.15.89.89,0,0,0,1.1-.29l5.39-6.85v6a1,1,0,1,0,2,0V10A1.26,1.26,0,0,0,93.1,8.9.88.88,0,0,0,92,9.19Z" style="fill: #00adee;stroke: #00adee;stroke-width: 0.75px"/>
      <path d="M77.79,9.12l-4.69,6a1.43,1.43,0,0,0,0,1.74.88.88,0,0,0,1.42,0s1.58-2,3-3.77v6.14a1,1,0,1,0,2,0V10a1.26,1.26,0,0,0-.63-1.14A.89.89,0,0,0,77.79,9.12Z" style="fill: #ec1c24;stroke: #ec1c24;stroke-width: 0.75px"/>
      <path d="M100.15,13.52a1,1,0,0,0-.93-.75h-2l1.5-1.9s.78-1.15.09-1.78-1.54.06-1.54.06l-3.14,4a1.42,1.42,0,0,0-.2,1.33,1,1,0,0,0,.93.76h2l-2.43,3.09s-1,1.09-.26,1.84S95.88,20,95.88,20L100,14.86A1.44,1.44,0,0,0,100.15,13.52Z" style="fill: #00a551;stroke: #00a551;stroke-width: 0.75px"/>
    </g>
    <g>
      <path d="M62.78,342.27a2.32,2.32,0,0,1-.3,1.2,2,2,0,0,1-.83.79,2.63,2.63,0,0,1-1.21.27l-.47,0a4.35,4.35,0,0,1-.74-.17,5.38,5.38,0,0,1-1-.39v-1.83a6.33,6.33,0,0,0,.92.58,2.13,2.13,0,0,0,1,.23c.31,0,.52-.06.61-.19a.59.59,0,0,0,.14-.36.62.62,0,0,0-.24-.5,3.18,3.18,0,0,0-.7-.43,5.43,5.43,0,0,1-.89-.56,2.44,2.44,0,0,1-.62-.76,2.21,2.21,0,0,1-.25-1.08,2.3,2.3,0,0,1,.25-1.09,1.87,1.87,0,0,1,.75-.78,2.43,2.43,0,0,1,1.23-.29,3.58,3.58,0,0,1,1,.12,4.15,4.15,0,0,1,.73.28,2.48,2.48,0,0,1,.39.23v1.75a4.67,4.67,0,0,0-.84-.59,2.1,2.1,0,0,0-1-.26.66.66,0,0,0-.5.17A.51.51,0,0,0,60,339a.49.49,0,0,0,.16.38,2.51,2.51,0,0,0,.55.4,10.68,10.68,0,0,1,1.14.72,2.37,2.37,0,0,1,.67.75A2,2,0,0,1,62.78,342.27Z"/>
      <path d="M70.57,344.43H68.71v-2.91h-2.8v2.91H64V337h1.87v2.73h2.8V337h1.86Z"/>
      <path d="M78.56,341.09a4,4,0,0,1-.3,1.64,2.87,2.87,0,0,1-.78,1.06,3.37,3.37,0,0,1-1,.57,4,4,0,0,1-1.13.17,3.76,3.76,0,0,1-1.53-.33,2.8,2.8,0,0,1-1.24-1.09,3.71,3.71,0,0,1-.5-2V337h1.86v3.52a3.49,3.49,0,0,0,.18,1.22,1.41,1.41,0,0,0,.49.71,1.29,1.29,0,0,0,.74.22,1.31,1.31,0,0,0,.73-.22,1.45,1.45,0,0,0,.49-.7,3.47,3.47,0,0,0,.18-1.21V337h1.86Z"/>
      <path d="M84.45,341.42H81.88v3H80V337h4.43v1.49H81.88v1.44h2.57Z"/>
      <path d="M90.13,341.42H87.56v3H85.7V337h4.43v1.49H87.56v1.44h2.57Z"/>
      <path d="M96.07,344.43H91.38V337h1.86v5.66h2.83Z"/>
      <path d="M99,344.43H97.17V337H99Z"/>
      <path d="M107.3,344.43h-1.66l-3.2-4.15v4.15h-1.85V337h1.65l3.2,4.12V337h1.86Z"/>
      <path d="M114.68,343.9c-.14.06-.25.12-.35.15l-.27.11-.38.13c-.28.07-.56.13-.85.18a6.23,6.23,0,0,1-.89.06,3.66,3.66,0,0,1-1.73-.42,3,3,0,0,1-1.28-1.28,4.37,4.37,0,0,1-.48-2.14,5.14,5.14,0,0,1,.25-1.6,2.73,2.73,0,0,1,.75-1.26,3.49,3.49,0,0,1,.85-.6,3.32,3.32,0,0,1,.84-.28,6.35,6.35,0,0,1,.91-.07,5,5,0,0,1,1.34.15q.54.15,1.17.39v1.76a5.15,5.15,0,0,0-.89-.49,3,3,0,0,0-1.17-.2,2,2,0,0,0-1.29.37,1.9,1.9,0,0,0-.67.88,2.74,2.74,0,0,0-.19,1,2.36,2.36,0,0,0,.22,1,1.76,1.76,0,0,0,.66.77,1.91,1.91,0,0,0,1.06.28,2.64,2.64,0,0,0,.76-.11v-.88h-.84v-1.49h2.47Z"/>
      <path d="M44.51,352.87a4.06,4.06,0,0,1-.78.39,4.83,4.83,0,0,1-.81.21,5.77,5.77,0,0,1-.85.06,3.7,3.7,0,0,1-1.44-.27,3,3,0,0,1-1.11-.79,3.42,3.42,0,0,1-.71-1.23,5,5,0,0,1-.23-1.54,4.55,4.55,0,0,1,.28-1.68,3.22,3.22,0,0,1,.77-1.2,3.13,3.13,0,0,1,1.13-.71,4,4,0,0,1,1.34-.23,6.2,6.2,0,0,1,2.39.57v2a7.12,7.12,0,0,0-.91-.57,2.33,2.33,0,0,0-1.06-.23,2.07,2.07,0,0,0-1,.26,2,2,0,0,0-.76.74,2.31,2.31,0,0,0,0,2.15,2,2,0,0,0,.69.75,1.9,1.9,0,0,0,1,.27,2.61,2.61,0,0,0,.85-.13,3.38,3.38,0,0,0,.68-.29c.18-.11.37-.24.56-.38Z"/>
      <path d="M50.46,353.43H45.77V346h1.86v5.66h2.83Z"/>
      <path d="M57.63,349.7a4.49,4.49,0,0,1-.4,1.92A3.2,3.2,0,0,1,56.05,353a3.4,3.4,0,0,1-1.92.52,3.33,3.33,0,0,1-1.94-.54A3.23,3.23,0,0,1,51,351.58a4.59,4.59,0,0,1-.39-1.88,4.66,4.66,0,0,1,.38-1.87,3.24,3.24,0,0,1,1.18-1.41,3.39,3.39,0,0,1,2-.54,3.68,3.68,0,0,1,1.52.31,3,3,0,0,1,1.11.83,3.86,3.86,0,0,1,.65,1.22A4.69,4.69,0,0,1,57.63,349.7Zm-1.9,0a2.59,2.59,0,0,0-.1-.76,1.71,1.71,0,0,0-.31-.6,1.48,1.48,0,0,0-.5-.4,1.52,1.52,0,0,0-.69-.14,1.43,1.43,0,0,0-1.18.52,2.09,2.09,0,0,0-.43,1.38,2.14,2.14,0,0,0,.43,1.39,1.45,1.45,0,0,0,1.18.53,1.54,1.54,0,0,0,.87-.25,1.55,1.55,0,0,0,.55-.68A2.53,2.53,0,0,0,55.73,349.7Z"/>
      <path d="M64.32,352.87a4.06,4.06,0,0,1-.78.39,4.83,4.83,0,0,1-.81.21,5.73,5.73,0,0,1-.84.06,3.71,3.71,0,0,1-1.45-.27,3,3,0,0,1-1.11-.79,3.4,3.4,0,0,1-.7-1.23,4.74,4.74,0,0,1-.24-1.54,4.55,4.55,0,0,1,.28-1.68,3.22,3.22,0,0,1,.77-1.2,3.13,3.13,0,0,1,1.13-.71,4,4,0,0,1,1.34-.23,6.2,6.2,0,0,1,2.39.57v2a7.12,7.12,0,0,0-.91-.57,2.32,2.32,0,0,0-1-.23,2.08,2.08,0,0,0-1,.26,2,2,0,0,0-.75.74,2.15,2.15,0,0,0-.29,1.12,2.12,2.12,0,0,0,.25,1,2.07,2.07,0,0,0,.69.75,1.9,1.9,0,0,0,1,.27,2.71,2.71,0,0,0,.86-.13,3.54,3.54,0,0,0,.67-.29c.18-.11.37-.24.56-.38Z"/>
      <path d="M72.08,353.43H69.8l-2.36-3.49v3.49H65.58V346h1.86v3.33L69.68,346h2l-2.3,3.48Z"/>
      <path d="M82.79,353.43H80.92v-4.31l-1.68,2.5h-.15l-1.68-2.5v4.31H75.6V346h1.69l1.9,2.79L81.1,346h1.69Z"/>
      <path d="M90.78,350.09a4.22,4.22,0,0,1-.29,1.64,2.79,2.79,0,0,1-.79,1.06,3.17,3.17,0,0,1-1,.57,4,4,0,0,1-1.13.17A3.68,3.68,0,0,1,86,353.2a2.75,2.75,0,0,1-1.24-1.09,3.62,3.62,0,0,1-.5-2V346h1.86v3.52a3.51,3.51,0,0,0,.17,1.22,1.48,1.48,0,0,0,.49.71,1.32,1.32,0,0,0,.74.22,1.28,1.28,0,0,0,.73-.22,1.38,1.38,0,0,0,.49-.7,3.47,3.47,0,0,0,.18-1.21V346h1.86Z"/>
      <path d="M96.94,353.43H92.25V346h1.86v5.66h2.83Z"/>
      <path d="M102.77,347.8h-2.26v5.63H98.65V347.8H96.38V346h6.39Z"/>
      <path d="M105.73,353.43h-1.86V346h1.86Z"/>
      <path d="M112.64,348.33a2.84,2.84,0,0,1-.12.81,2.22,2.22,0,0,1-.38.73,1.93,1.93,0,0,1-.71.56,2.46,2.46,0,0,1-1.05.21h-1.23v2.79h-1.86V346h3.09a2.46,2.46,0,0,1,1.05.21,1.83,1.83,0,0,1,.71.56,2.22,2.22,0,0,1,.38.75A2.81,2.81,0,0,1,112.64,348.33Zm-1.9,0a.87.87,0,0,0-.26-.73,1.6,1.6,0,0,0-.93-.2h-.4v1.8h.41a2.68,2.68,0,0,0,.71-.07.58.58,0,0,0,.36-.26A1.12,1.12,0,0,0,110.74,348.34Z"/>
      <path d="M118.37,353.43h-4.69V346h1.86v5.66h2.83Z"/>
      <path d="M121.33,353.43h-1.87V346h1.87Z"/>
      <path d="M127.54,353.43h-4.65V346h4.58v1.49h-2.72v1.36h2.59v1.5h-2.59v1.59h2.79Z"/>
      <path d="M134.77,353.43h-2l-.48-1.32a6.22,6.22,0,0,0-.48-1.06,1.14,1.14,0,0,0-.42-.43,1.32,1.32,0,0,0-.53-.1h-.21v2.91h-1.86V346H132a2,2,0,0,1,1.26.37,2.19,2.19,0,0,1,.71.92,2.74,2.74,0,0,1,.21,1,2.27,2.27,0,0,1-.18.95,1.81,1.81,0,0,1-.38.57,3.27,3.27,0,0,1-.45.33,1.94,1.94,0,0,1,.49.5,6.42,6.42,0,0,1,.53,1.16Zm-2.53-5.09a.81.81,0,0,0-.28-.72,1.55,1.55,0,0,0-.91-.21h-.4v1.8h.41A1.71,1.71,0,0,0,132,349,.79.79,0,0,0,132.24,348.34Z"/>
    </g>
    <path d="M82.93,101.17a11.5,11.5,0,0,1-.84-23c.36,0,35.8-3.3,56.58-31.09a11.5,11.5,0,0,1,18.42,13.77C129.73,97.48,85.62,101,83.76,101.14c-.28,0-.55,0-.83,0" style="fill: #2eaae1;stroke: #000"/>
    <path d="M82.81,137.22a11.5,11.5,0,0,1-1-23c18.66-1.68,49.68-8.39,57-17.48a11.5,11.5,0,0,1,17.88,14.47c-16.12,19.93-63.52,25.09-72.86,25.92-.34,0-.69.05-1,.05" style="fill: #2eaae1;stroke: #000"/>
    <path d="M82.82,173.22a11.5,11.5,0,0,1-.62-23c24.39-1.33,54.37-4.17,60.25-6.44a11.5,11.5,0,0,1,10.85,20.28c-8.88,4.88-42.88,7.65-69.85,9.13l-.63,0" style="fill: #2eaae1;stroke: #000"/>
    <path d="M147.77,215.83a11.75,11.75,0,0,1-3.06-.41c-11.7-3.22-49-5.32-62.35-5.86a11.5,11.5,0,0,1,.44-23h.48c5.2.21,51.2,2.16,67.53,6.66a11.5,11.5,0,0,1,8,14.14,11.54,11.54,0,0,1-11.08,8.45" style="fill: #2eaae1;stroke: #000"/>
    <path d="M147.76,265.8a11.48,11.48,0,0,1-7.46-2.75c-13.64-11.61-46.77-16.58-58.39-17.51a11.5,11.5,0,0,1,.9-23c.31,0,.61,0,.92,0,5,.4,49.75,4.42,71.49,22.94a11.5,11.5,0,0,1-7.46,20.25" style="fill: #2eaae1;stroke: #000"/>
    <path d="M148,334.39a9.42,9.42,0,0,1-5.53-1.78c-6.25-4.48-36.17-14.93-60.3-16.7a9.5,9.5,0,0,1,.67-19c.24,0,.48,0,.71,0,13,1,56.56,10.56,70,20.22A9.5,9.5,0,0,1,148,334.39" style="fill: #01a64f;stroke: #000"/>
    <path d="M147.75,301.76a9.46,9.46,0,0,1-5.32-1.64C127.26,289.83,93,282,81.12,279.78a9.5,9.5,0,0,1,1.7-18.85,9.69,9.69,0,0,1,1.7.16c1.91.35,47,8.67,68.58,23.31a9.5,9.5,0,0,1-5.35,17.36" style="fill: #01a64f;stroke: #000"/>
    <path d="M83.2,67.27c-5,0-8.81-1.4-11.14-4-4.22-4.78-2.78-12.43-1.55-16.56,1.86-6.22,5.61-12.5,9.56-16a18.63,18.63,0,0,1,12.32-4.64,19.22,19.22,0,0,1,14.4,6.53,19,19,0,0,1-1.45,26.75C100.13,63.93,90.82,67.27,83.2,67.27Z" style="fill: #ec2227;stroke: #000"/>
    <path d="M101.52,80.47a2.21,2.21,0,0,1,1.62,0,2,2,0,0,1,1,1.27,2.38,2.38,0,0,1,.11,1.32,1.49,1.49,0,0,1-.73.93v0a1.44,1.44,0,0,1,1,.09,1.59,1.59,0,0,1,.63.8c.06.13.12.28.18.44l.21.54a8.08,8.08,0,0,0,.37.88.61.61,0,0,0,.41.34l0,.06-1.63.55a1,1,0,0,1-.26-.31,3,3,0,0,1-.18-.41l-.53-1.41a1.21,1.21,0,0,0-.45-.62.84.84,0,0,0-.75,0l-.8.27,1.06,3.15-1.5.5L98.75,81.4Zm.45,3.46a1.33,1.33,0,0,0,.75-.53,1.13,1.13,0,0,0,0-1,1,1,0,0,0-1.39-.68l-.71.24.73,2.15Z"/>
    <path d="M105.56,82.82a2.46,2.46,0,0,1,0-1A1.68,1.68,0,0,1,106,81a2.63,2.63,0,0,1,.94-.6,2.85,2.85,0,0,1,1.12-.26,1.65,1.65,0,0,1,.89.29,2.54,2.54,0,0,1,.71.77,8.13,8.13,0,0,1,.61,1.22,7.26,7.26,0,0,1,.38,1.29,2.64,2.64,0,0,1,0,1,1.81,1.81,0,0,1-.45.81,3.15,3.15,0,0,1-.95.58,3,3,0,0,1-1.12.26,1.49,1.49,0,0,1-.87-.27,2.52,2.52,0,0,1-.72-.76,8.17,8.17,0,0,1-.6-1.22,6.59,6.59,0,0,1-.39-1.29m2.13,1.49a3,3,0,0,0,.34.57,1,1,0,0,0,.39.31.64.64,0,0,0,.47,0,.65.65,0,0,0,.41-.69,5.33,5.33,0,0,0-.43-1.55,5.19,5.19,0,0,0-.76-1.41.64.64,0,0,0-.77-.21.62.62,0,0,0-.35.3.9.9,0,0,0-.07.5,2.3,2.3,0,0,0,.15.65c.08.24.17.5.29.78s.22.54.33.77"/>
    <path d="M110.85,77l.69,1.54.81-.36.42.94-.8.37,1.32,2.91a1,1,0,0,0,.3.41c.1.07.26,0,.46,0l.16-.08.14-.08.43,1a4.32,4.32,0,0,0-.43.22l-.45.22a3.58,3.58,0,0,1-.69.24.7.7,0,0,1-.48,0,1.07,1.07,0,0,1-.39-.35,6.16,6.16,0,0,1-.36-.66l-1.39-3.09-.7.32-.43-.94.7-.32-.7-1.55Z"/>
    <path d="M113.51,79.49a1.87,1.87,0,0,1-.24-.85,1.49,1.49,0,0,1,.14-.7,1.72,1.72,0,0,1,.45-.57,3.34,3.34,0,0,1,.68-.45,3.61,3.61,0,0,1,1-.38,1.53,1.53,0,0,1,.75,0,1.17,1.17,0,0,1,.54.37,3.39,3.39,0,0,1,.4.61l1.41,2.78a4.37,4.37,0,0,0,.33.56,2.1,2.1,0,0,0,.36.38l-1.3.65a1.21,1.21,0,0,1-.24-.21l-.2-.25h0a1.23,1.23,0,0,1-.27.81,2.46,2.46,0,0,1-.73.53,1.49,1.49,0,0,1-.66.18,1.2,1.2,0,0,1-.57-.14,1.78,1.78,0,0,1-.46-.37,2.6,2.6,0,0,1-.34-.5,2.53,2.53,0,0,1-.25-.69,1.25,1.25,0,0,1,0-.58,1.51,1.51,0,0,1,.25-.53,3.34,3.34,0,0,1,.49-.53l.66-.6a.9.9,0,0,0,.31-.42.72.72,0,0,0-.09-.47.83.83,0,0,0-.38-.4.7.7,0,0,0-.58.07.67.67,0,0,0-.37.43.83.83,0,0,0,.1.58l.07.15-1.21.61Zm2.85.21a1.8,1.8,0,0,1-.24.24,1.24,1.24,0,0,0-.44.59.92.92,0,0,0,.11.65,1.18,1.18,0,0,0,.38.46.47.47,0,0,0,.5,0,1.15,1.15,0,0,0,.26-.19.8.8,0,0,0,.2-.28.83.83,0,0,0,.08-.36,1,1,0,0,0-.12-.41l-.52-1a1.48,1.48,0,0,1-.21.32"/>
    <path d="M118.19,73.19l.84,1.48.76-.44.51.9-.77.43,1.59,2.79a.85.85,0,0,0,.33.38.5.5,0,0,0,.45-.08l.15-.09.14-.1.52.92-.41.25-.43.27a4.36,4.36,0,0,1-.66.3.69.69,0,0,1-.49,0,1,1,0,0,1-.42-.32,4.15,4.15,0,0,1-.41-.62l-1.68-3-.66.39-.52-.9.68-.38-.84-1.48Z"/>
    <path d="M123.24,76.41a2.59,2.59,0,0,0,.31.41,1.41,1.41,0,0,0,.34.31.87.87,0,0,0,.36.13.49.49,0,0,0,.36-.09.64.64,0,0,0,.33-.53,2.09,2.09,0,0,0-.25-.83l1.16-.73a2.34,2.34,0,0,1,.37,1.62A2.12,2.12,0,0,1,125.16,78a2.58,2.58,0,0,1-1.24.45,1.67,1.67,0,0,1-1-.25,2.84,2.84,0,0,1-.77-.71c-.23-.3-.44-.61-.64-.92a8.27,8.27,0,0,1-.54-1,2.71,2.71,0,0,1-.24-1,1.72,1.72,0,0,1,.23-1,2.55,2.55,0,0,1,.91-.87,2.35,2.35,0,0,1,1-.4,1.68,1.68,0,0,1,.89.15,2.77,2.77,0,0,1,.78.63,8.66,8.66,0,0,1,.74,1l.18.29L123,76Zm.22-2.48a1.49,1.49,0,0,0-.33-.3.57.57,0,0,0-.34-.11.7.7,0,0,0-.37.12.63.63,0,0,0-.32.65,1.46,1.46,0,0,0,.09.39,1.9,1.9,0,0,0,.2.37l.12.2,1.31-.83c-.13-.19-.25-.35-.36-.49"/>
    <path d="M106.3,122.49a2.72,2.72,0,0,0,.15.48,1,1,0,0,0,.24.34.84.84,0,0,0,.37.17,1.14,1.14,0,0,0,.51,0,1,1,0,0,0,.59-.36.89.89,0,0,0,.14-.78,1.21,1.21,0,0,0-.17-.43.84.84,0,0,0-.3-.29,1.5,1.5,0,0,0-.48-.18,5.2,5.2,0,0,0-.71-.12,5.81,5.81,0,0,1-1-.18,2.48,2.48,0,0,1-.73-.35,1.78,1.78,0,0,1-.51-.55,2.74,2.74,0,0,1-.3-.81,2.23,2.23,0,0,1,.27-1.84,2.63,2.63,0,0,1,1.63-.93,4.13,4.13,0,0,1,1-.09,1.89,1.89,0,0,1,.83.21,1.63,1.63,0,0,1,.63.54,2.19,2.19,0,0,1,.39.9l0,.21-1.49.32a1.53,1.53,0,0,0-.37-.8.74.74,0,0,0-.71-.16,1,1,0,0,0-.41.17.68.68,0,0,0-.23.25.72.72,0,0,0-.08.32,2,2,0,0,0,0,.34,1.18,1.18,0,0,0,.28.57,1.43,1.43,0,0,0,.74.31L108,120a3.29,3.29,0,0,1,.8.25,2.26,2.26,0,0,1,.55.35,1.61,1.61,0,0,1,.34.48,2.83,2.83,0,0,1,.2.64,2.14,2.14,0,0,1-.32,1.92,3.18,3.18,0,0,1-1.85,1,2.62,2.62,0,0,1-2-.17,2.28,2.28,0,0,1-.91-1.51l-.07-.32,1.55-.33Z"/>
    <rect x="110.13" y="115.79" width="1.52" height="7.85" transform="translate(-24.5 28.61) rotate(-13.25)"/>
    <path d="M113.21,115l.32,1.25-1.47.38-.32-1.26Zm.5,2,1.44,5.74-1.47.37-1.44-5.74Z"/>
    <path d="M116.13,116.34l.17.6h0a1.54,1.54,0,0,1,.38-.72,1.44,1.44,0,0,1,.7-.39,1.48,1.48,0,0,1,1.52.34,6.55,6.55,0,0,1,1.28,4.57,1.51,1.51,0,0,1-1.13,1.06,1.62,1.62,0,0,1-.75,0,1.52,1.52,0,0,1-.66-.35h0l.66,2.36-1.46.41-2.11-7.53Zm1.4,4.19a.62.62,0,0,0,.76.3.64.64,0,0,0,.49-.65,5.83,5.83,0,0,0-.25-1.44,5.74,5.74,0,0,0-.54-1.36.67.67,0,0,0-1.25.35,5.39,5.39,0,0,0,.25,1.44,4.86,4.86,0,0,0,.54,1.36"/>
    <path d="M98.35,161.4a2.49,2.49,0,0,0,.08.5.83.83,0,0,0,.19.36.8.8,0,0,0,.34.22,1.39,1.39,0,0,0,.52.05,1,1,0,0,0,.64-.29.87.87,0,0,0,.23-.75,1.24,1.24,0,0,0-.11-.45.79.79,0,0,0-.26-.32,1.47,1.47,0,0,0-.45-.25,7.11,7.11,0,0,0-.68-.21,7.08,7.08,0,0,1-.95-.31,2.51,2.51,0,0,1-.67-.44,1.73,1.73,0,0,1-.43-.63,2.49,2.49,0,0,1-.18-.84,2.18,2.18,0,0,1,.52-1.78,2.62,2.62,0,0,1,1.73-.7,3.92,3.92,0,0,1,1,0,2.06,2.06,0,0,1,.79.32,1.68,1.68,0,0,1,.56.62,2.31,2.31,0,0,1,.25.94l0,.22-1.52.11a1.55,1.55,0,0,0-.26-.84.73.73,0,0,0-.68-.25,1,1,0,0,0-.43.11.75.75,0,0,0-.27.22.79.79,0,0,0-.12.3,1.36,1.36,0,0,0,0,.35,1.09,1.09,0,0,0,.2.59,1.34,1.34,0,0,0,.69.41l1.26.43a3.61,3.61,0,0,1,.76.36,1.74,1.74,0,0,1,.49.43,1.46,1.46,0,0,1,.28.52,3,3,0,0,1,.12.66,2.16,2.16,0,0,1-.59,1.85,3.15,3.15,0,0,1-2,.72,2.59,2.59,0,0,1-2-.44,2.23,2.23,0,0,1-.7-1.62l0-.32,1.58-.12Z"/>
    <path d="M103.74,155.34l.21,2.53h0a1.55,1.55,0,0,1,1.38-.88,1.49,1.49,0,0,1,1.14.31,1.73,1.73,0,0,1,.49,1.25l.36,4.37-1.51.12-.34-4.06a1,1,0,0,0-.2-.63.62.62,0,0,0-.51-.14c-.53,0-.77.39-.72,1l.32,3.91-1.51.13-.64-7.83Z"/>
    <path d="M111.28,161.88a1.44,1.44,0,0,1-.57.68,2,2,0,0,1-.86.27,1.53,1.53,0,0,1-1.15-.29,1.72,1.72,0,0,1-.5-1.23l-.38-4.37,1.51-.13.36,4.06a.93.93,0,0,0,.21.63.57.57,0,0,0,.5.14c.54,0,.78-.4.72-1l-.34-3.92,1.51-.13.52,5.89-1.45.13-.06-.69Z"/>
    <path d="M112.9,157.53l-.09-1,.77-.07-.07-.67a1.81,1.81,0,0,1,0-.68,1.21,1.21,0,0,1,.27-.47,1.28,1.28,0,0,1,.47-.28,2.57,2.57,0,0,1,.66-.13c.27,0,.53,0,.81,0l.1,1.07h-.3a.64.64,0,0,0-.43.16.4.4,0,0,0-.1.37l0,.51.88-.08.1,1-.87.08.45,4.86-1.5.15-.47-4.87Z"/>
    <path d="M116.12,157.22l-.11-1,.77-.08-.07-.67a1.83,1.83,0,0,1,.05-.68,1.08,1.08,0,0,1,.26-.47,1.27,1.27,0,0,1,.48-.28,2.49,2.49,0,0,1,.65-.14c.27,0,.54,0,.81,0l.11,1.07h-.3a.79.79,0,0,0-.44.16.43.43,0,0,0-.09.37l.05.52.88-.09.1,1-.88.08.49,4.87-1.51.15-.49-4.86Z"/>
    <rect x="119.91" y="153.79" width="1.52" height="7.85" transform="translate(-15.96 13.6) rotate(-6.05)"/>
    <path d="M123.91,159.05a2.77,2.77,0,0,0,.1.5,1.6,1.6,0,0,0,.17.42.84.84,0,0,0,.27.29.54.54,0,0,0,.36.07.59.59,0,0,0,.52-.34,2,2,0,0,0,.15-.86l1.35-.16a2.34,2.34,0,0,1-.36,1.63,2.08,2.08,0,0,1-1.52.72,2.62,2.62,0,0,1-1.31-.12,1.73,1.73,0,0,1-.76-.65,2.71,2.71,0,0,1-.39-1c-.07-.37-.13-.74-.17-1.11a7.52,7.52,0,0,1-.06-1.15,3,3,0,0,1,.22-1,1.83,1.83,0,0,1,.63-.76,2.57,2.57,0,0,1,1.19-.39,2.38,2.38,0,0,1,1.1.09,1.64,1.64,0,0,1,.74.53,2.36,2.36,0,0,1,.43.9,7.58,7.58,0,0,1,.23,1.22l0,.34-3,.34Zm1.27-2.13a1.43,1.43,0,0,0-.17-.43.57.57,0,0,0-.26-.25.75.75,0,0,0-.38-.05.66.66,0,0,0-.37.15.69.69,0,0,0-.2.3,1.23,1.23,0,0,0-.08.39,2,2,0,0,0,0,.42l0,.23,1.54-.17a5.27,5.27,0,0,0-.11-.59"/>
    <path d="M103.28,200a2.73,2.73,0,0,0,0,.5,1,1,0,0,0,.14.39.79.79,0,0,0,.31.26,1.19,1.19,0,0,0,.5.12,1,1,0,0,0,.67-.19.86.86,0,0,0,.34-.71,1.34,1.34,0,0,0,0-.46.86.86,0,0,0-.22-.36,1.57,1.57,0,0,0-.41-.31,5.92,5.92,0,0,0-.65-.3,6.55,6.55,0,0,1-.88-.44,2.68,2.68,0,0,1-.61-.53,1.89,1.89,0,0,1-.34-.68,2.57,2.57,0,0,1-.06-.85,2.21,2.21,0,0,1,.76-1.7,2.62,2.62,0,0,1,1.82-.45,3.63,3.63,0,0,1,1,.18,1.86,1.86,0,0,1,.74.42,1.71,1.71,0,0,1,.46.69,2.32,2.32,0,0,1,.12,1v.21l-1.52-.09a1.53,1.53,0,0,0-.14-.88.73.73,0,0,0-.64-.35,1,1,0,0,0-.44.06.75.75,0,0,0-.3.18.85.85,0,0,0-.16.28,1.86,1.86,0,0,0-.06.34,1.21,1.21,0,0,0,.11.62,1.56,1.56,0,0,0,.63.5l1.19.6a5.16,5.16,0,0,1,.71.46,2.07,2.07,0,0,1,.42.49,1.4,1.4,0,0,1,.2.56,3.48,3.48,0,0,1,0,.66,2.18,2.18,0,0,1-.84,1.76,3.2,3.2,0,0,1-2,.44,2.65,2.65,0,0,1-1.88-.71,2.31,2.31,0,0,1-.47-1.71l0-.31,1.59.1Z"/>
    <polygon points="109.34 198.87 109.36 198.87 111.05 196.78 112.71 196.9 110.85 199.1 112.54 202.82 110.87 202.7 109.79 200.18 109.2 200.85 109.07 202.57 107.56 202.46 108.12 194.63 109.64 194.74 109.34 198.87"/>
    <path d="M115,197.08l-.46,5.9-1.52-.12.46-5.9Zm.15-2-.1,1.3-1.51-.12.1-1.3Z"/>
    <path d="M117.55,197.29l-.06.62h0a1.84,1.84,0,0,1,.62-.55,1.52,1.52,0,0,1,.79-.11,1.48,1.48,0,0,1,1.31.84,6.59,6.59,0,0,1-.4,4.73,1.5,1.5,0,0,1-1.43.6,1.65,1.65,0,0,1-.72-.22,1.63,1.63,0,0,1-.5-.56h0l-.2,2.44-1.52-.12.66-7.79Zm-.16,4.42a.63.63,0,0,0,.61.54.61.61,0,0,0,.68-.44,5.25,5.25,0,0,0,.28-1.44,5.51,5.51,0,0,0,0-1.46.63.63,0,0,0-.6-.54.61.61,0,0,0-.69.43,5.1,5.1,0,0,0-.27,1.44,5.26,5.26,0,0,0,0,1.47"/>
    <path d="M107.16,233.17a2.36,2.36,0,0,1,1,.41,1.88,1.88,0,0,1,.54.66,2.19,2.19,0,0,1,.2.81,3.57,3.57,0,0,1-.07.87,2.83,2.83,0,0,1-.4,1,1.88,1.88,0,0,1-.65.61,2,2,0,0,1-.85.26,3.42,3.42,0,0,1-1-.07l-.82-.17-.65,3.06-1.55-.33,1.62-7.68Zm-1.2,3.38a1,1,0,0,0,.8-.12,1.2,1.2,0,0,0,.47-.81,1.38,1.38,0,0,0-.06-.94,1,1,0,0,0-.77-.47l-.64-.14-.49,2.33Z"/>
    <polygon points="111.28 234.08 110.71 239.92 110.73 239.93 113.04 234.52 114.51 234.89 114 240.74 114.02 240.75 116.27 235.33 117.75 235.7 114.45 242.97 112.73 242.54 113.26 236.8 113.24 236.79 111 242.1 109.28 241.67 109.81 233.71 111.28 234.08"/>
    <polygon points="108.7 306.01 108.29 311.66 108.31 311.66 110.89 306.62 113.15 307.25 111.05 314.82 109.64 314.43 111.32 308.39 111.31 308.38 108.28 314.05 107.09 313.72 107.43 307.3 107.41 307.3 105.72 313.34 104.33 312.95 106.43 305.38 108.7 306.01"/>
    <path d="M115.11,315.31a1.38,1.38,0,0,1-.77.42,2,2,0,0,1-.9-.07,1.5,1.5,0,0,1-1-.69,1.72,1.72,0,0,1,0-1.32l1.26-4.21,1.45.44L114,313.79a1,1,0,0,0,0,.66.64.64,0,0,0,.42.31c.52.15.87-.08,1-.71l1.12-3.76,1.46.43-1.69,5.67-1.39-.41.2-.67Z"/>
    <path d="M121.32,310l-.5,1.62.83.26-.3,1-.84-.27-1,3.06a.87.87,0,0,0,0,.51c0,.11.16.2.37.27l.17.05.16,0-.31,1a4.27,4.27,0,0,0-.48-.13l-.48-.13a5.24,5.24,0,0,1-.67-.28.74.74,0,0,1-.34-.36,1.08,1.08,0,0,1,0-.52,4.69,4.69,0,0,1,.16-.73l1-3.23-.74-.23.31-1,.74.22.5-1.61Z"/>
    <path d="M122.29,315.92a3.24,3.24,0,0,0-.13.49,1.83,1.83,0,0,0,0,.46.91.91,0,0,0,.13.37.53.53,0,0,0,.3.22.62.62,0,0,0,.62-.09,2.16,2.16,0,0,0,.49-.71l1.29.42a2.32,2.32,0,0,1-1,1.32,2.09,2.09,0,0,1-1.69,0,2.47,2.47,0,0,1-1.13-.66,1.63,1.63,0,0,1-.42-.9,2.7,2.7,0,0,1,.06-1.05c.08-.37.19-.73.3-1.08a9.37,9.37,0,0,1,.44-1.06,2.78,2.78,0,0,1,.62-.83,1.89,1.89,0,0,1,.89-.42,2.62,2.62,0,0,1,1.25.14,2.43,2.43,0,0,1,1,.55,1.53,1.53,0,0,1,.44.78,2.6,2.6,0,0,1,0,1,9.55,9.55,0,0,1-.3,1.2l-.11.32-2.85-.94Zm2-1.4a1.92,1.92,0,0,0,0-.46.62.62,0,0,0-.14-.33.67.67,0,0,0-.33-.21.66.66,0,0,0-.39,0,.67.67,0,0,0-.31.19,1.16,1.16,0,0,0-.24.32,2.59,2.59,0,0,0-.17.38l-.07.22,1.47.49c.07-.22.11-.42.15-.58"/>
    <path d="M105.13,270.83l1.59.4L105.49,276l.72.18-.31,1.2-.72-.19-.4,1.57-1.41-.36.4-1.57-2.68-.69.32-1.26Zm-.33,1.95-2.21,2.49,1.49.39.74-2.87Z"/>
    <polygon points="111.94 274.59 109.69 276.95 110.44 280.32 108.91 279.9 108.57 277.8 107.21 279.43 105.69 279.01 108.04 276.5 107.31 273.32 108.84 273.74 109.16 275.68 110.41 274.17 111.94 274.59"/>
    <polygon points="120 274.97 119.63 276.21 116.94 275.4 116.41 277.17 118.93 277.93 118.55 279.18 116.03 278.41 115.04 281.67 113.52 281.21 115.8 273.69 120 274.97"/>
    <path d="M119.41,278.57a2.07,2.07,0,0,1,.42-.77,1.42,1.42,0,0,1,.6-.39,1.72,1.72,0,0,1,.72-.09,3.42,3.42,0,0,1,.81.16,4.11,4.11,0,0,1,1,.46,1.61,1.61,0,0,1,.5.56,1.2,1.2,0,0,1,.12.65,3.31,3.31,0,0,1-.15.72l-1,3a4.14,4.14,0,0,0-.16.63,2.2,2.2,0,0,0,0,.52l-1.39-.46a1.69,1.69,0,0,1,0-.32l0-.32h0a1.24,1.24,0,0,1-.77.38,2.24,2.24,0,0,1-.89-.15,1.56,1.56,0,0,1-.6-.33,1.18,1.18,0,0,1-.3-.5,1.91,1.91,0,0,1-.06-.59,2.69,2.69,0,0,1,.11-.59,2.54,2.54,0,0,1,.31-.66,1.36,1.36,0,0,1,.42-.41,1.39,1.39,0,0,1,.55-.2,4,4,0,0,1,.72,0l.89,0a.93.93,0,0,0,.52-.09.66.66,0,0,0,.27-.38.83.83,0,0,0,0-.56.83.83,0,0,0-1-.32.89.89,0,0,0-.35.48l0,.16-1.29-.42Zm1.86,2.16h-.33a1.21,1.21,0,0,0-.73.11.92.92,0,0,0-.38.54,1.23,1.23,0,0,0-.06.59.46.46,0,0,0,.34.37,1.13,1.13,0,0,0,.32.05,1.27,1.27,0,0,0,.34-.05.86.86,0,0,0,.3-.21,1,1,0,0,0,.21-.37l.37-1.11a1,1,0,0,1-.38.08"/>
    <path d="M124.73,283a.91.91,0,0,0,0,.65.71.71,0,0,0,.47.42.86.86,0,0,0,.59,0,.67.67,0,0,0,.37-.43.52.52,0,0,0,0-.46,1.17,1.17,0,0,0-.28-.35l-.88-.72a2,2,0,0,1-.68-.9,1.56,1.56,0,0,1,0-1.08,1.92,1.92,0,0,1,.34-.61,1.37,1.37,0,0,1,.55-.4A1.86,1.86,0,0,1,126,279a3,3,0,0,1,1,.2,2.25,2.25,0,0,1,1.3.92,1.59,1.59,0,0,1,.05,1.34l-.08.23-1.28-.46a1.19,1.19,0,0,0,.08-.69.57.57,0,0,0-.42-.37.8.8,0,0,0-.53,0,.59.59,0,0,0-.36.38.61.61,0,0,0,0,.42,1.06,1.06,0,0,0,.4.45l.75.6a2.12,2.12,0,0,1,.75.93,2.1,2.1,0,0,1-.51,1.82,1.63,1.63,0,0,1-.62.39,1.73,1.73,0,0,1-.76.08,3.2,3.2,0,0,1-.87-.2,3.9,3.9,0,0,1-1-.47,1.56,1.56,0,0,1-.51-.56,1.19,1.19,0,0,1-.13-.67,2.86,2.86,0,0,1,.16-.77l.07-.19,1.29.45Z"/>
    <path d="M132.08,279.42l-.6,1.58.82.32-.36,1-.82-.31L130,285a.86.86,0,0,0-.08.51c0,.12.15.22.35.29l.17.06.16,0-.37,1-.47-.16c-.15,0-.31-.1-.47-.16a3.31,3.31,0,0,1-.65-.31.77.77,0,0,1-.32-.38,1,1,0,0,1,0-.52,5.29,5.29,0,0,1,.21-.72l1.2-3.17-.71-.27.36-1,.72.28.6-1.59Z"/>
    <path d="M90.92,28.36a2.21,2.21,0,0,1,1.33.92,2,2,0,0,1,.1,1.62,2.48,2.48,0,0,1-.68,1.15,1.47,1.47,0,0,1-1.14.33v0a1.41,1.41,0,0,1,.72.62,1.57,1.57,0,0,1,0,1c0,.15-.06.3-.1.47s-.09.35-.15.56c-.1.41-.17.71-.21.93a.62.62,0,0,0,.15.52l0,.06-1.65-.49a.93.93,0,0,1,0-.41,3.82,3.82,0,0,1,.09-.44l.39-1.45a1.29,1.29,0,0,0,0-.76.87.87,0,0,0-.6-.46l-.81-.24-1,3.18-1.52-.45,2.25-7.53Zm-1.64,3.09a1.34,1.34,0,0,0,.93,0,1.18,1.18,0,0,0,.55-.78A1,1,0,0,0,90,29.31l-.72-.21-.65,2.16Z"/>
    <path d="M93.48,35.54c-.09.16-.17.31-.24.46a2.08,2.08,0,0,0-.12.44,1,1,0,0,0,0,.39.59.59,0,0,0,.24.28.64.64,0,0,0,.62.06,2,2,0,0,0,.65-.59l1.16.72a2.37,2.37,0,0,1-1.29,1.05A2.09,2.09,0,0,1,92.89,38a2.46,2.46,0,0,1-1-.91,1.6,1.6,0,0,1-.2-1,2.78,2.78,0,0,1,.3-1c.17-.33.35-.66.54-1a7.17,7.17,0,0,1,.68-.93,2.73,2.73,0,0,1,.79-.66,1.93,1.93,0,0,1,1-.21,2.58,2.58,0,0,1,1.18.44,2.29,2.29,0,0,1,.81.75,1.54,1.54,0,0,1,.25.86,2.62,2.62,0,0,1-.21,1,9.14,9.14,0,0,1-.58,1.1l-.18.29-2.55-1.58Zm2.32-.88a1.78,1.78,0,0,0,.13-.44.62.62,0,0,0-.05-.36.73.73,0,0,0-.28-.27.62.62,0,0,0-.37-.12.73.73,0,0,0-.35.12,1.42,1.42,0,0,0-.31.25,2.7,2.7,0,0,0-.25.34l-.12.2,1.32.81c.11-.2.21-.38.28-.53"/>
    <path d="M97.15,38.87a1,1,0,0,0-.29.58.75.75,0,0,0,.25.59.91.91,0,0,0,.52.27.62.62,0,0,0,.52-.23.51.51,0,0,0,.19-.42,1.4,1.4,0,0,0-.1-.44l-.49-1a2.06,2.06,0,0,1-.23-1.11,1.67,1.67,0,0,1,.5-1,2.18,2.18,0,0,1,.57-.4,1.41,1.41,0,0,1,.67-.13,1.94,1.94,0,0,1,.76.21,2.74,2.74,0,0,1,.8.6,2.29,2.29,0,0,1,.78,1.39,1.63,1.63,0,0,1-.53,1.23l-.17.17-1-1a1.16,1.16,0,0,0,.37-.59.6.6,0,0,0-.22-.52.78.78,0,0,0-.46-.23.54.54,0,0,0-.49.18.66.66,0,0,0-.19.38,1.18,1.18,0,0,0,.16.58l.43.86a2,2,0,0,1,.27,1.16,1.63,1.63,0,0,1-.54,1,1.85,1.85,0,0,1-.69.47,1.67,1.67,0,0,1-.73.09,2,2,0,0,1-.72-.26,3.51,3.51,0,0,1-.7-.56,4.42,4.42,0,0,1-.67-.83,1.69,1.69,0,0,1-.22-.73,1.41,1.41,0,0,1,.17-.66,3,3,0,0,1,.48-.62l.15-.15,1,1Z"/>
    <path d="M97.81,43.31a.78.78,0,0,0,.51.39,1.06,1.06,0,0,0,.6-.13L103,39l.85,1.34-3,2.93v0l3.87-1.54.81,1.29-5.44,1.74c-.48.15-.88.25-1.21.32a2.27,2.27,0,0,1-.82,0,1.12,1.12,0,0,1-.59-.33,4.64,4.64,0,0,1-.54-.7l-.32-.52,1-.61c.06.13.12.24.19.36"/>
    <path d="M106.7,45.85l-.65.21v0a1.62,1.62,0,0,1,.81.39,1.86,1.86,0,0,1,.47.78,1.49,1.49,0,0,1,0,1.18,1.82,1.82,0,0,1-1.1.78l-4.16,1.38-.48-1.44,3.87-1.29a1,1,0,0,0,.56-.34.64.64,0,0,0,0-.53c-.17-.51-.56-.66-1.19-.45l-3.72,1.23-.48-1.44,5.61-1.86Z"/>
    <path d="M106.55,53.67a1.4,1.4,0,0,0,.36-.13.52.52,0,0,0,.26-.22.51.51,0,0,0,.08-.36.68.68,0,0,0-.55-.67,2.69,2.69,0,0,0-.63-.08l-.9,0c-.37,0-.68.07-.94.11a2.28,2.28,0,0,0-.63.17.76.76,0,0,0-.35.27.63.63,0,0,0-.08.42.58.58,0,0,0,.37.53,2.14,2.14,0,0,0,1.06.1l.11,1.45a2.64,2.64,0,0,1-1.81-.39,2.22,2.22,0,0,1-.74-1.68,3.56,3.56,0,0,1,.07-1,1.46,1.46,0,0,1,.44-.74,2.56,2.56,0,0,1,.92-.49,6.66,6.66,0,0,1,1.48-.25,5.57,5.57,0,0,1,1.52.06,2.38,2.38,0,0,1,1,.43,1.72,1.72,0,0,1,.56.72,3.4,3.4,0,0,1,.21,1,2,2,0,0,1-.5,1.63,2.41,2.41,0,0,1-1.62.66l-.11-1.45.43-.06"/>
  </g>
  <g id="components">
    <circle id="x8" cx="46.48" cy="309.17" r="11.34" style="fill: #8080ff"/>
    <circle id="LED_x8" data-name="LED x8" cx="17.3" cy="309.17" r="4.25" style="fill: #f0f"/>
    <circle id="Mute" cx="148.84" cy="325.47" r="10.63" style="fill: #ff8000"/>
    <circle id="Mute_Jack" data-name="Mute Jack" cx="81.45" cy="306.12" r="11.34" style="fill: #80ff80"/>
    <circle id="S8" cx="46.48" cy="277.56" r="11.34" style="fill: #8080ff"/>
    <circle id="LED_S8" data-name="LED S8" cx="17.3" cy="277.56" r="4.25" style="fill: #f0f"/>
    <circle id="_4x_Fast" data-name="4x Fast" cx="148.84" cy="291.85" r="10.63" style="fill: #ff8000"/>
    <circle id="_4x_Fast_Jack" data-name="4x Fast Jack" cx="81.45" cy="270.12" r="11.34" style="fill: #80ff80"/>
    <circle id="S6" cx="46.48" cy="245.95" r="11.34" style="fill: #8080ff"/>
    <circle id="LED_S6" data-name="LED S6" cx="17.3" cy="245.95" r="4.25" style="fill: #f0f"/>
    <circle id="PW" cx="147.99" cy="254.01" r="17.01" style="fill: #ff0040"/>
    <circle id="PW_Jack" data-name="PW Jack" cx="81.45" cy="234.12" r="11.34" style="fill: lime"/>
    <circle id="S5" cx="46.48" cy="214.34" r="11.34" style="fill: #8080ff"/>
    <circle id="LED_S5" data-name="LED S5" cx="17.3" cy="214.34" r="4.25" style="fill: #f0f"/>
    <circle id="Skip" cx="147.99" cy="204.04" r="17.01" style="fill: #ff0020"/>
    <circle id="Skip_Jack" data-name="Skip Jack" cx="81.45" cy="198.12" r="11.34" style="fill: lime"/>
    <circle id="S4" cx="46.48" cy="182.73" r="11.34" style="fill: #8080ff"/>
    <circle id="LED_S4" data-name="LED S4" cx="17.3" cy="182.73" r="4.25" style="fill: #f0f"/>
    <circle id="Shuffle" cx="147.99" cy="154.07" r="17.01" style="fill: #ff0020"/>
    <circle id="Shuffle_Jack" data-name="Shuffle Jack" cx="81.45" cy="162.12" r="11.34" style="fill: lime"/>
    <circle id="S3" cx="46.48" cy="151.13" r="11.34" style="fill: #8080ff"/>
    <circle id="LED_S3" data-name="LED S3" cx="17.3" cy="151.13" r="4.25" style="fill: #f0f"/>
    <circle id="Slip" cx="147.99" cy="104.09" r="17.01" style="fill: #ff0040"/>
    <circle id="Slip_Jack" data-name="Slip Jack" cx="81.45" cy="126.12" r="11.34" style="fill: lime"/>
    <circle id="x2" cx="46.48" cy="119.52" r="11.34" style="fill: #8080ff"/>
    <circle id="LED_x2" data-name="LED x2" cx="17.3" cy="119.52" r="4.25" style="fill: #f0f"/>
    <circle id="Rotate" cx="147.99" cy="54.12" r="17.01" style="fill: red"/>
    <circle id="Rotate_Jack" data-name="Rotate Jack" cx="81.45" cy="90.12" r="11.34" style="fill: lime"/>
    <circle id="x1" cx="46.48" cy="87.91" r="11.34" style="fill: #8080ff"/>
    <circle id="LED_x1" data-name="LED x1" cx="17.3" cy="87.91" r="4.25" style="fill: #f0f"/>
    <circle id="Resync" cx="81.45" cy="55.11" r="11.34" style="fill: #80ff80"/>
    <circle id="Clk_In" data-name="Clk In" cx="46.48" cy="56.3" r="11.34" style="fill: #80ff80"/>
    <circle id="LED_in" data-name="LED in" cx="17.3" cy="56.3" r="4.25" style="fill: #f0f"/>
    <text id="slug" transform="translate(84.29 371.84)" style="font-size: 6px;font-family: MyriadPro-Regular, Myriad Pro">SCM</text>
    <text id="modulename" transform="translate(108.81 371.84)" style="font-size: 6px;font-family: MyriadPro-Regular, Myriad Pro">Shuffling Clock <tspan x="38.81" y="0" style="letter-spacing: 0.0029296875em">M</tspan><tspan x="43.65" y="0">ultiplier</tspan></text>
  </g>
</svg>
