<svg xmlns="http://www.w3.org/2000/svg" width="31.21mm" height="131.73mm" viewBox="0 0 88.47 373.41">
  <g id="faceplate">
    <rect x="0.13" y="0.13" width="57.6" height="364.25" style="fill: #ededed;stroke: #9d9d9e;stroke-miterlimit: 10;stroke-width: 0.25px"/>
    <g>
      <path d="M13.89,148.91c-6.34,0-11.49-5.52-11.49-12.3S7.55,124.3,13.89,124.3H43.6c6.34,0,11.49,5.52,11.49,12.31s-5.15,12.3-11.49,12.3Z" style="fill: #00adee"/>
      <path d="M43.6,124.8c6.07,0,11,5.29,11,11.81s-4.92,11.81-11,11.81H13.89c-6.07,0-11-5.29-11-11.81s4.92-11.81,11-11.81H43.6m0-1H13.89c-6.61,0-12,5.75-12,12.81s5.38,12.81,12,12.81H43.6c6.61,0,12-5.75,12-12.81s-5.38-12.81-12-12.81Z"/>
    </g>
    <g>
      <path d="M13.89,120.11c-6.34,0-11.49-5.52-11.49-12.3S7.55,95.5,13.89,95.5H43.6c6.34,0,11.49,5.52,11.49,12.31s-5.15,12.3-11.49,12.3Z" style="fill: #00adee"/>
      <path d="M43.6,96c6.07,0,11,5.29,11,11.81s-4.92,11.81-11,11.81H13.89c-6.07,0-11-5.29-11-11.81S7.82,96,13.89,96H43.6m0-1H13.89c-6.61,0-12,5.75-12,12.81s5.38,12.81,12,12.81H43.6c6.61,0,12-5.75,12-12.81S50.21,95,43.6,95Z"/>
    </g>
    <g>
      <path d="M13.89,177.71c-6.34,0-11.49-5.52-11.49-12.3S7.55,153.1,13.89,153.1H43.6c6.34,0,11.49,5.52,11.49,12.31s-5.15,12.3-11.49,12.3Z" style="fill: #00a551"/>
      <path d="M43.6,153.6c6.07,0,11,5.29,11,11.81s-4.92,11.8-11,11.8H13.89c-6.07,0-11-5.28-11-11.8s4.92-11.81,11-11.81H43.6m0-1H13.89c-6.61,0-12,5.75-12,12.81s5.38,12.8,12,12.8H43.6c6.61,0,12-5.74,12-12.8s-5.38-12.81-12-12.81Z"/>
    </g>
    <g>
      <path d="M13.89,206.51c-6.34,0-11.49-5.51-11.49-12.3S7.55,181.9,13.89,181.9H43.6c6.34,0,11.49,5.52,11.49,12.31s-5.15,12.3-11.49,12.3Z" style="fill: #00a551"/>
      <path d="M43.6,182.4c6.07,0,11,5.29,11,11.81S49.67,206,43.6,206H13.89c-6.07,0-11-5.28-11-11.8s4.92-11.81,11-11.81H43.6m0-1H13.89c-6.61,0-12,5.75-12,12.81s5.38,12.8,12,12.8H43.6c6.61,0,12-5.74,12-12.8s-5.38-12.81-12-12.81Z"/>
    </g>
    <g>
      <path d="M13.89,235.31C7.55,235.31,2.4,229.8,2.4,223S7.55,210.7,13.89,210.7H43.6c6.34,0,11.49,5.52,11.49,12.31s-5.15,12.3-11.49,12.3Z" style="fill: #00a551"/>
      <path d="M43.6,211.2c6.07,0,11,5.29,11,11.81s-4.92,11.8-11,11.8H13.89c-6.07,0-11-5.28-11-11.8s4.92-11.81,11-11.81H43.6m0-1H13.89c-6.61,0-12,5.75-12,12.81s5.38,12.8,12,12.8H43.6c6.61,0,12-5.74,12-12.8s-5.38-12.81-12-12.81Z"/>
    </g>
    <g>
      <path d="M13.89,264.11c-6.34,0-11.49-5.52-11.49-12.3S7.55,239.5,13.89,239.5H43.6c6.34,0,11.49,5.52,11.49,12.31s-5.15,12.3-11.49,12.3Z" style="fill: #00a551"/>
      <path d="M43.6,240c6.07,0,11,5.29,11,11.81s-4.92,11.8-11,11.8H13.89c-6.07,0-11-5.28-11-11.8S7.82,240,13.89,240H43.6m0-1H13.89c-6.61,0-12,5.75-12,12.81s5.38,12.8,12,12.8H43.6c6.61,0,12-5.74,12-12.8S50.21,239,43.6,239Z"/>
    </g>
    <g>
      <path d="M13.89,292.91c-6.34,0-11.49-5.52-11.49-12.3S7.55,268.3,13.89,268.3H43.6c6.34,0,11.49,5.52,11.49,12.31s-5.15,12.3-11.49,12.3Z" style="fill: #00a551"/>
      <path d="M43.6,268.8c6.07,0,11,5.29,11,11.81s-4.92,11.8-11,11.8H13.89c-6.07,0-11-5.28-11-11.8s4.92-11.81,11-11.81H43.6m0-1H13.89c-6.61,0-12,5.75-12,12.81s5.38,12.8,12,12.8H43.6c6.61,0,12-5.74,12-12.8s-5.38-12.81-12-12.81Z"/>
    </g>
    <g>
      <path d="M13.89,321.71c-6.34,0-11.49-5.52-11.49-12.3S7.55,297.1,13.89,297.1H43.6c6.34,0,11.49,5.52,11.49,12.31s-5.15,12.3-11.49,12.3Z" style="fill: #00adee"/>
      <path d="M43.6,297.6c6.07,0,11,5.29,11,11.81s-4.92,11.8-11,11.8H13.89c-6.07,0-11-5.28-11-11.8s4.92-11.81,11-11.81H43.6m0-1H13.89c-6.61,0-12,5.75-12,12.81s5.38,12.8,12,12.8H43.6c6.61,0,12-5.74,12-12.8s-5.38-12.81-12-12.81Z"/>
    </g>
    <path d="M43.6,67.17c6.07,0,11,5.3,11,11.84s-4.92,11.84-11,11.84H13.89c-6.07,0-11-5.3-11-11.84s4.92-11.84,11-11.84H43.6m0-1.5H13.89C7,65.67,1.4,71.66,1.4,79S7,92.35,13.89,92.35H43.6c6.89,0,12.49-6,12.49-13.34S50.49,65.67,43.6,65.67Z"/>
    <g>
      <path d="M9.74,30.47H8l-.43-1.08a4.51,4.51,0,0,0-.41-.87,1,1,0,0,0-.36-.35,1.19,1.19,0,0,0-.46-.08H6.17v2.38H4.55V24.38H7.3A1.79,1.79,0,0,1,9,25.43a2.27,2.27,0,0,1,.18.84,1.81,1.81,0,0,1-.15.78,1.52,1.52,0,0,1-.33.46,3.89,3.89,0,0,1-.39.28,1.49,1.49,0,0,1,.42.41,4.9,4.9,0,0,1,.46.95ZM7.55,26.3a.65.65,0,0,0-.25-.58,1.34,1.34,0,0,0-.79-.17H6.17V27h.35a1.56,1.56,0,0,0,.81-.15A.66.66,0,0,0,7.55,26.3Z" style="stroke: #ededed;stroke-width: 0.25px"/>
      <path d="M14.28,28.23A2.7,2.7,0,0,1,14,29.42a2,2,0,0,1-.76.83,2.4,2.4,0,0,1-1.24.3,2.4,2.4,0,0,1-1.24-.3,2,2,0,0,1-.76-.83,3,3,0,0,1-.11-2.11,1.93,1.93,0,0,1,.43-.73,1.88,1.88,0,0,1,.71-.49,2.44,2.44,0,0,1,1-.17,2.68,2.68,0,0,1,1,.17,1.84,1.84,0,0,1,.71.49,2,2,0,0,1,.43.73A2.91,2.91,0,0,1,14.28,28.23Zm-1.47,0a1.42,1.42,0,0,0-.2-.83.66.66,0,0,0-.59-.3.68.68,0,0,0-.59.3,1.5,1.5,0,0,0-.2.83,1.44,1.44,0,0,0,.21.83.64.64,0,0,0,.58.31.66.66,0,0,0,.59-.3A1.49,1.49,0,0,0,12.81,28.23Z" style="stroke: #ededed;stroke-width: 0.25px"/>
      <path d="M17.79,30.21a2.6,2.6,0,0,1-.6.23,2.69,2.69,0,0,1-.73.11c-1,0-1.5-.56-1.5-1.67V27.1h-.63v-.28l1.87-2.16h.16V26h1.33v1.1H16.36v1.43a3.9,3.9,0,0,0,0,.4.43.43,0,0,0,.16.26.58.58,0,0,0,.38.1,1.86,1.86,0,0,0,.87-.31Z" style="stroke: #ededed;stroke-width: 0.25px"/>
      <path d="M22.17,30.25l-.57.22a2.22,2.22,0,0,1-.62.08.67.67,0,0,1-.48-.14.75.75,0,0,1-.19-.34,2.15,2.15,0,0,1-.5.35,1.78,1.78,0,0,1-.72.13,1.26,1.26,0,0,1-.69-.17A.93.93,0,0,1,18,30a1.35,1.35,0,0,1-.1-.53,1.21,1.21,0,0,1,.18-.68,1.34,1.34,0,0,1,.5-.44,7,7,0,0,1,.82-.36l.43-.16.23-.08.15-.08a1,1,0,0,0-.11-.51.58.58,0,0,0-.51-.19,1.66,1.66,0,0,0-.84.23,3.06,3.06,0,0,0-.72.59V26.53a2.5,2.5,0,0,1,.56-.35,3.3,3.3,0,0,1,.63-.2,3.71,3.71,0,0,1,.67-.06,1.9,1.9,0,0,1,1.28.37,1.3,1.3,0,0,1,.43,1v1.73a1.49,1.49,0,0,0,0,.36.16.16,0,0,0,.15.12.83.83,0,0,0,.36-.12Zm-1.94-.86V28.33a3.56,3.56,0,0,0-.72.41.61.61,0,0,0-.23.5.51.51,0,0,0,.11.34.37.37,0,0,0,.27.12.51.51,0,0,0,.28-.09A2.77,2.77,0,0,0,20.23,29.39Z" style="stroke: #ededed;stroke-width: 0.25px"/>
      <path d="M25.39,30.21a2.69,2.69,0,0,1-.59.23,2.81,2.81,0,0,1-.73.11c-1,0-1.51-.56-1.51-1.67V27.1h-.63v-.28l1.87-2.16H24V26h1.33v1.1H24v1.43a2.1,2.1,0,0,0,0,.4.41.41,0,0,0,.15.26.58.58,0,0,0,.38.1,1.86,1.86,0,0,0,.87-.31Z" style="stroke: #ededed;stroke-width: 0.25px"/>
      <path d="M29.73,28.62H27a1.14,1.14,0,0,0,.4.66,1.07,1.07,0,0,0,.72.26,3.4,3.4,0,0,0,1.56-.45v1a3.75,3.75,0,0,1-.75.33,3.39,3.39,0,0,1-1.1.15,2.31,2.31,0,0,1-1.24-.31,1.85,1.85,0,0,1-.76-.83,2.71,2.71,0,0,1-.26-1.2A2.66,2.66,0,0,1,25.78,27a1.82,1.82,0,0,1,.76-.82,2.5,2.5,0,0,1,1.24-.29,2,2,0,0,1,.92.23,1.84,1.84,0,0,1,.74.77,2.94,2.94,0,0,1,.29,1.38Zm-1.31-.79a1.1,1.1,0,0,0-.19-.68.6.6,0,0,0-.54-.26.7.7,0,0,0-.56.26,1,1,0,0,0-.22.68Z" style="stroke: #ededed;stroke-width: 0.25px"/>
    </g>
    <g>
      <path d="M40.76,28.7a1.87,1.87,0,0,1-.26,1,1.66,1.66,0,0,1-.72.64,2.35,2.35,0,0,1-1.05.22l-.41,0a5.13,5.13,0,0,1-.64-.14,4.63,4.63,0,0,1-.84-.32v-1.5a6.27,6.27,0,0,0,.8.48,2,2,0,0,0,.84.19.69.69,0,0,0,.54-.16.48.48,0,0,0,.12-.29.53.53,0,0,0-.21-.42,2.91,2.91,0,0,0-.61-.35,4.36,4.36,0,0,1-.77-.46,1.91,1.91,0,0,1-.54-.62,1.76,1.76,0,0,1-.21-.88,1.86,1.86,0,0,1,.21-.89,1.54,1.54,0,0,1,.65-.64,2.32,2.32,0,0,1,1.07-.23,3.64,3.64,0,0,1,.83.09,3.23,3.23,0,0,1,.63.23,2.77,2.77,0,0,1,.34.19v1.43a4.28,4.28,0,0,0-.74-.48,1.85,1.85,0,0,0-.86-.21.61.61,0,0,0-.44.13.44.44,0,0,0-.13.33.42.42,0,0,0,.13.31,2.28,2.28,0,0,0,.49.32,9.61,9.61,0,0,1,1,.59,2.13,2.13,0,0,1,.59.61A1.64,1.64,0,0,1,40.76,28.7Z" style="stroke: #ededed;stroke-width: 0.25px"/>
      <path d="M43,30.47h-1.4V24.38H43Z" style="stroke: #ededed;stroke-width: 0.25px"/>
      <path d="M45.25,30.47h-1.4V26h1.4ZM45.14,25a.64.64,0,0,1-.18.47.53.53,0,0,1-.71.11A.61.61,0,0,1,44,25.3.74.74,0,0,1,44,25a.68.68,0,0,1,.17-.47.54.54,0,0,1,.82,0A.69.69,0,0,1,45.14,25Z" style="stroke: #ededed;stroke-width: 0.25px"/>
      <path d="M50.4,28.2a3.15,3.15,0,0,1-.12.87,2.14,2.14,0,0,1-.34.75,1.58,1.58,0,0,1-.59.53,1.74,1.74,0,0,1-.84.2,1.67,1.67,0,0,1-.61-.09,2.16,2.16,0,0,1-.44-.25v2.3H46.07V26h1.39v.4a1.89,1.89,0,0,1,.46-.34,1.36,1.36,0,0,1,.69-.14,1.68,1.68,0,0,1,.84.24,1.78,1.78,0,0,1,.68.75A2.74,2.74,0,0,1,50.4,28.2Zm-1.47,0a1.75,1.75,0,0,0-.11-.66.77.77,0,0,0-.29-.36.65.65,0,0,0-.37-.12.79.79,0,0,0-.4.09,1.33,1.33,0,0,0-.3.23v1.71l.15.1.17.09.18.07a.64.64,0,0,0,.2,0,.66.66,0,0,0,.55-.32A1.46,1.46,0,0,0,48.93,28.24Z" style="stroke: #ededed;stroke-width: 0.25px"/>
    </g>
    <g>
      <path d="M7.87,324.23a4.9,4.9,0,0,1,.54,0,3.76,3.76,0,0,1,.55.1,5,5,0,0,1,.53.14,3.21,3.21,0,0,1,.45.19l-.57,2.21a2.58,2.58,0,0,0-.59-.75,1.08,1.08,0,0,0-.69-.27.39.39,0,0,0-.31.12.44.44,0,0,0-.09.29.41.41,0,0,0,.18.31,3.22,3.22,0,0,0,.57.35,3.11,3.11,0,0,1,1.3,1,2.37,2.37,0,0,1,.29,1.2,2.26,2.26,0,0,1-.63,1.72,2.6,2.6,0,0,1-1.85.59,5.94,5.94,0,0,1-1.22-.12,4.11,4.11,0,0,1-1.14-.41l.56-2.34a2.32,2.32,0,0,0,.6.81,1.06,1.06,0,0,0,.69.31.38.38,0,0,0,.39-.39.46.46,0,0,0-.16-.36,2.34,2.34,0,0,0-.47-.32,2.64,2.64,0,0,1-1.1-.88,2.2,2.2,0,0,1-.29-1.18A2.33,2.33,0,0,1,6,324.82,2.59,2.59,0,0,1,7.87,324.23Z" style="stroke: #ededed;stroke-width: 0.388979971408844px"/>
      <path d="M12.82,324.34v2.57H14v-2.57h2.28v7H14v-2.61H12.82v2.61H10.53v-7Z" style="stroke: #ededed;stroke-width: 0.388979971408844px"/>
      <path d="M22.21,324.34v3.25a7.87,7.87,0,0,1-.07,1.13,4.52,4.52,0,0,1-.23.93,2.94,2.94,0,0,1-.38.75A2.44,2.44,0,0,1,21,331a2.06,2.06,0,0,1-1.35.5,2.13,2.13,0,0,1-1.3-.46,2.73,2.73,0,0,1-.94-1.27,6.43,6.43,0,0,1-.32-2.28v-3.12h2.29v3.31a2.53,2.53,0,0,0,.05.59.22.22,0,0,0,.22.15.2.2,0,0,0,.14-.05.38.38,0,0,0,.09-.18,1.82,1.82,0,0,0,.05-.31c0-.12,0-.27,0-.45v-3.06Z" style="stroke: #ededed;stroke-width: 0.388979971408844px"/>
      <path d="M27.28,324.34v1.76h-2v1.28h1.46v1.76H25.32v2.22H23v-7Z" style="stroke: #ededed;stroke-width: 0.388979971408844px"/>
      <path d="M31.94,324.34v1.76H30v1.28h1.45v1.76H30v2.22H27.7v-7Z" style="stroke: #ededed;stroke-width: 0.388979971408844px"/>
      <path d="M34.63,324.34v5.26h2v1.76H32.35v-7Z" style="stroke: #ededed;stroke-width: 0.388979971408844px"/>
      <path d="M39.38,324.34v7H37.1v-7Z" style="stroke: #ededed;stroke-width: 0.388979971408844px"/>
      <path d="M41.93,324.34l1.19,2.35h0v-2.35h2.29v7.07H43.69l-1.1-2.18h0v2.13H40.3v-7Z" style="stroke: #ededed;stroke-width: 0.388979971408844px"/>
      <path d="M49,324.23a3.72,3.72,0,0,1,1.31.26,5.4,5.4,0,0,1,.64.3,4.14,4.14,0,0,1,.55.38l-1.11,2.11a2.34,2.34,0,0,0-1.27-.45.77.77,0,0,0-.62.28,1,1,0,0,0-.24.72.94.94,0,0,0,.2.65.86.86,0,0,0,.63.2v-1.1H51.4v3.79l-1.12.07-.47,0h-.29a3.81,3.81,0,0,1-1.81-.37,2.61,2.61,0,0,1-1.12-1.25,4.54,4.54,0,0,1-.43-2,4.85,4.85,0,0,1,.35-1.86,2.85,2.85,0,0,1,1-1.29A2.57,2.57,0,0,1,49,324.23Z" style="stroke: #ededed;stroke-width: 0.388979971408844px"/>
      <path d="M10.41,331.74a8.47,8.47,0,0,1,1.85.21,6.27,6.27,0,0,1,1.57.53L12.26,335a4.1,4.1,0,0,0-.73-.15,6.84,6.84,0,0,0-.79-.05,2.28,2.28,0,0,0-.9.14.43.43,0,0,0-.3.4.44.44,0,0,0,.33.4,2.41,2.41,0,0,0,1,.14,4.72,4.72,0,0,0,.77-.06,3.28,3.28,0,0,0,.67-.18l1.57,2.65a6.61,6.61,0,0,1-1.61.53,8.87,8.87,0,0,1-1.81.2,6.2,6.2,0,0,1-2.48-.46,3.8,3.8,0,0,1-1.65-1.3,3.07,3.07,0,0,1-.58-1.81,3.21,3.21,0,0,1,.62-1.92A4,4,0,0,1,8,332.19,6.15,6.15,0,0,1,10.41,331.74Z" style="stroke: #ededed;stroke-width: 0.388979971408844px"/>
      <path d="M18.69,331.85v5.25H22v1.76h-7v-7Z" style="stroke: #ededed;stroke-width: 0.388979971408844px"/>
      <path d="M27,331.74a4.9,4.9,0,0,1,2.2.49,3.84,3.84,0,0,1,1.57,1.31,3.11,3.11,0,0,1,.57,1.81,3.16,3.16,0,0,1-.57,1.82,3.89,3.89,0,0,1-1.57,1.33,5.28,5.28,0,0,1-4.4,0,4,4,0,0,1-1.57-1.32,3.2,3.2,0,0,1,0-3.63,3.94,3.94,0,0,1,1.57-1.32A4.94,4.94,0,0,1,27,331.74Zm-.84,3.42a.68.68,0,0,0,.24.54,1,1,0,0,0,1.2,0,.68.68,0,0,0,.24-.54.72.72,0,0,0-.06-.29.66.66,0,0,0-.17-.23.92.92,0,0,0-.27-.16,1.29,1.29,0,0,0-.35-.05.87.87,0,0,0-.59.21A.64.64,0,0,0,26.2,335.16Z" style="stroke: #ededed;stroke-width: 0.388979971408844px"/>
      <path d="M37.34,331.74a8.38,8.38,0,0,1,1.84.21,6,6,0,0,1,1.57.53L39.18,335a3.76,3.76,0,0,0-.73-.15,6.84,6.84,0,0,0-.79-.05,2.28,2.28,0,0,0-.9.14.42.42,0,0,0-.29.4.44.44,0,0,0,.33.4,2.38,2.38,0,0,0,1,.14,4.68,4.68,0,0,0,.76-.06,3.11,3.11,0,0,0,.67-.18l1.57,2.65a6.46,6.46,0,0,1-1.61.53,8.8,8.8,0,0,1-1.81.2,6.15,6.15,0,0,1-2.47-.46,3.77,3.77,0,0,1-1.66-1.3,3.07,3.07,0,0,1-.58-1.81,3.16,3.16,0,0,1,.63-1.92,3.94,3.94,0,0,1,1.7-1.3A6.2,6.2,0,0,1,37.34,331.74Z" style="stroke: #ededed;stroke-width: 0.388979971408844px"/>
      <path d="M45.64,331.85v2.34a2.35,2.35,0,0,0,.82-.18,1.76,1.76,0,0,0,.62-.46,2.24,2.24,0,0,0,.38-.72,3,3,0,0,0,.14-1h3.82A4.78,4.78,0,0,1,51,334a3.32,3.32,0,0,1-1.26,1.38,4.05,4.05,0,0,1,1.33,1.4,5.24,5.24,0,0,1,.58,2.12h-4c-.09-1.67-.75-2.52-2-2.56v2.56H41.9v-7Z" style="stroke: #ededed;stroke-width: 0.388979971408844px"/>
      <path d="M7.59,339.36l.86,1.46.85-1.46h2v7H9.24v-3.51l-.79,1.36-.8-1.36v3.51H5.56v-7Z" style="stroke: #ededed;stroke-width: 0.388979971408844px"/>
      <path d="M17,339.36v3.24a9.82,9.82,0,0,1-.07,1.14,5.8,5.8,0,0,1-.21.93,3.16,3.16,0,0,1-.35.74,2.74,2.74,0,0,1-.49.58,1.85,1.85,0,0,1-1.24.5,1.92,1.92,0,0,1-1.2-.46,2.87,2.87,0,0,1-.86-1.27,7.16,7.16,0,0,1-.29-2.29v-3.11h2.1v3.3a2.07,2.07,0,0,0,.05.59c0,.1.1.16.19.16a.17.17,0,0,0,.14-.06.45.45,0,0,0,.08-.17,2.15,2.15,0,0,0,0-.31c0-.13,0-.28,0-.46v-3.05Z" style="stroke: #ededed;stroke-width: 0.388979971408844px"/>
      <path d="M20,339.36v5.25h1.83v1.76H17.88v-7Z" style="stroke: #ededed;stroke-width: 0.388979971408844px"/>
      <path d="M26.25,339.36v3.1H25.19v3.91H23.1v-3.91H22.05v-3.1Z" style="stroke: #ededed;stroke-width: 0.388979971408844px"/>
      <path d="M29,339.36v7H26.92v-7Z" style="stroke: #ededed;stroke-width: 0.388979971408844px"/>
      <path d="M34.78,341.73a3.07,3.07,0,0,1-.22,1.19,2.09,2.09,0,0,1-.57.86,1.2,1.2,0,0,1-.79.31,1,1,0,0,1-.53-.14,2.42,2.42,0,0,1-.55-.47v2.89H30v-7h2.9a1.93,1.93,0,0,1,.49.06,1.85,1.85,0,0,1,.45.21,1.73,1.73,0,0,1,.37.35,2.11,2.11,0,0,1,.29.49A3.18,3.18,0,0,1,34.78,341.73Zm-2.66.67a.65.65,0,0,0,.18,0,.42.42,0,0,0,.21-.06.64.64,0,0,0,.17-.16.82.82,0,0,0,.1-.25,1.15,1.15,0,0,0,0-.33,1.08,1.08,0,0,0-.12-.56.4.4,0,0,0-.35-.21h-.23Z" style="stroke: #ededed;stroke-width: 0.388979971408844px"/>
      <path d="M37.47,339.36v5.25H39.3v1.76H35.37v-7Z" style="stroke: #ededed;stroke-width: 0.388979971408844px"/>
      <path d="M42,339.36v7H39.9v-7Z" style="stroke: #ededed;stroke-width: 0.388979971408844px"/>
      <path d="M46.93,339.36v1.76H45.09V342h1.28v1.76H45.09v.86h1.84v1.76H43v-7Z" style="stroke: #ededed;stroke-width: 0.388979971408844px"/>
      <path d="M50.76,339.36a1.48,1.48,0,0,1,.9.28,1.75,1.75,0,0,1,.59.77,2.77,2.77,0,0,1,.2,1,2.71,2.71,0,0,1-.14.88,1.74,1.74,0,0,1-.4.67,6.12,6.12,0,0,1,.62,1.49,10.16,10.16,0,0,1,.3,1.87H50.65a7.71,7.71,0,0,0-.27-2c-.14-.4-.35-.61-.63-.61h0v2.6H47.64v-7Zm-1,2.79h.05a.57.57,0,0,0,.44-.15.8.8,0,0,0,.14-.51.9.9,0,0,0-.13-.5.42.42,0,0,0-.37-.19h-.13Z" style="stroke: #ededed;stroke-width: 0.388979971408844px"/>
    </g>
    <g>
      <polyline points="15.55 86.25 20.03 86.25 20.03 78.74 24.52 78.74" style="fill: none;stroke: #000"/>
      <path d="M20,79.26l-2.65,2.11Z" style="fill: none;stroke: #000"/>
      <line x1="22.5" y1="81.36" x2="19.94" y2="79.31" style="fill: none;stroke: #000"/>
    </g>
    <g>
      <path d="M19.79,106.33l-1.26,2.35,1.32,2.49h-1.3l-.72-1.58-.72,1.58h-1.3l1.32-2.49-1.26-2.35h1.29l.67,1.46.67-1.46Z"/>
      <path d="M21.87,106.67H20.6v-.85h.12a1.88,1.88,0,0,0,1-.24,1.09,1.09,0,0,0,.47-.78h1v6.37h-1.3Z"/>
    </g>
    <g>
      <path d="M19.79,135.13l-1.26,2.35L19.85,140h-1.3l-.72-1.58L17.11,140h-1.3l1.32-2.49-1.26-2.35h1.29l.67,1.46.67-1.46Z"/>
      <path d="M20.4,140a3.31,3.31,0,0,1,.08-.79,2.8,2.8,0,0,1,.26-.7,4.46,4.46,0,0,1,.44-.66,7.32,7.32,0,0,1,.62-.64l.52-.49a2.88,2.88,0,0,0,.35-.35,1.55,1.55,0,0,0,.2-.32,1.06,1.06,0,0,0,.09-.35,2.81,2.81,0,0,0,0-.43c0-.53-.21-.8-.63-.8a.72.72,0,0,0-.39.1.71.71,0,0,0-.21.27,1.24,1.24,0,0,0-.1.4,3.7,3.7,0,0,0,0,.48H20.4v-.25a1.81,1.81,0,0,1,.47-1.36,2,2,0,0,1,1.5-.48,2,2,0,0,1,1.44.45,1.68,1.68,0,0,1,.47,1.29,2.63,2.63,0,0,1-.05.57,2.54,2.54,0,0,1-.17.51,2.24,2.24,0,0,1-.31.47,4,4,0,0,1-.46.47l-.72.67a2.85,2.85,0,0,0-.45.5,1.75,1.75,0,0,0-.2.43h2.4v1Z"/>
    </g>
    <g>
      <path d="M17.25,167a2.54,2.54,0,0,0,0,.41.63.63,0,0,0,.14.31.59.59,0,0,0,.26.2,1,1,0,0,0,.42.07.83.83,0,0,0,.54-.19.75.75,0,0,0,.23-.6,1.32,1.32,0,0,0-.05-.37.8.8,0,0,0-.2-.29,1.63,1.63,0,0,0-.35-.23c-.15-.06-.33-.14-.55-.21a4.34,4.34,0,0,1-.74-.31,2,2,0,0,1-.53-.4,1.42,1.42,0,0,1-.31-.53,2.19,2.19,0,0,1-.1-.7,1.8,1.8,0,0,1,.53-1.42,2.09,2.09,0,0,1,1.46-.47,3.24,3.24,0,0,1,.79.09,1.69,1.69,0,0,1,.63.31,1.41,1.41,0,0,1,.42.54A1.89,1.89,0,0,1,20,164v.18H18.77a1.27,1.27,0,0,0-.16-.71.58.58,0,0,0-.54-.25.8.8,0,0,0-.36.07.63.63,0,0,0-.23.16.66.66,0,0,0-.11.24,1.26,1.26,0,0,0,0,.28,1,1,0,0,0,.13.5,1.15,1.15,0,0,0,.54.37l1,.43a2.72,2.72,0,0,1,.6.34,1.71,1.71,0,0,1,.38.38,1.3,1.3,0,0,1,.19.45,2.26,2.26,0,0,1,0,.54,1.76,1.76,0,0,1-.59,1.48,2.58,2.58,0,0,1-1.64.46,2.15,2.15,0,0,1-1.57-.48A1.88,1.88,0,0,1,16,167v-.26h1.3Z"/>
      <path d="M22.32,167.76a.56.56,0,0,0,.56.29.78.78,0,0,0,.37-.08.52.52,0,0,0,.22-.22,1,1,0,0,0,.1-.33c0-.13,0-.26,0-.4a2.73,2.73,0,0,0,0-.41,1,1,0,0,0-.12-.34.72.72,0,0,0-.25-.24.93.93,0,0,0-.44-.09h-.43v-.85h.42a.63.63,0,0,0,.35-.09.69.69,0,0,0,.23-.22,1.33,1.33,0,0,0,.12-.32,1.58,1.58,0,0,0,0-.38,1.09,1.09,0,0,0-.15-.65.59.59,0,0,0-.47-.19.68.68,0,0,0-.34.08.54.54,0,0,0-.2.22.8.8,0,0,0-.09.33,2.54,2.54,0,0,0,0,.41H21a1.89,1.89,0,0,1,.47-1.42,1.94,1.94,0,0,1,1.4-.46,2.09,2.09,0,0,1,1.35.39,1.54,1.54,0,0,1,.48,1.25,1.63,1.63,0,0,1-.25.94,1.15,1.15,0,0,1-.72.46v0a1.17,1.17,0,0,1,.88.5,1.81,1.81,0,0,1,.26,1,3.14,3.14,0,0,1-.08.67,1.53,1.53,0,0,1-.32.62,1.83,1.83,0,0,1-.64.45,3,3,0,0,1-1.08.17,1.82,1.82,0,0,1-1.39-.5,2.11,2.11,0,0,1-.45-1.44v0h1.24A1.93,1.93,0,0,0,22.32,167.76Z"/>
    </g>
    <g>
      <path d="M17.25,195.75a2.54,2.54,0,0,0,0,.41.59.59,0,0,0,.14.31.59.59,0,0,0,.26.2,1,1,0,0,0,.42.07.83.83,0,0,0,.54-.19.75.75,0,0,0,.23-.6,1.32,1.32,0,0,0-.05-.37.8.8,0,0,0-.2-.29,1.63,1.63,0,0,0-.35-.23c-.15-.06-.33-.14-.55-.21a4.34,4.34,0,0,1-.74-.31,2,2,0,0,1-.53-.4,1.42,1.42,0,0,1-.31-.53,2.15,2.15,0,0,1-.1-.7,1.8,1.8,0,0,1,.53-1.42A2.13,2.13,0,0,1,18,191a3.24,3.24,0,0,1,.79.09,1.69,1.69,0,0,1,.63.31,1.41,1.41,0,0,1,.42.54,1.89,1.89,0,0,1,.15.79v.18H18.77a1.27,1.27,0,0,0-.16-.71.58.58,0,0,0-.54-.25.8.8,0,0,0-.36.07.63.63,0,0,0-.23.16.66.66,0,0,0-.11.24,1.26,1.26,0,0,0,0,.28,1,1,0,0,0,.13.5,1.15,1.15,0,0,0,.54.37l1,.43a3.2,3.2,0,0,1,.6.34,1.71,1.71,0,0,1,.38.38,1.39,1.39,0,0,1,.19.45,2.26,2.26,0,0,1,0,.54,1.76,1.76,0,0,1-.59,1.48,2.64,2.64,0,0,1-1.64.46,2.15,2.15,0,0,1-1.57-.48,1.88,1.88,0,0,1-.47-1.37v-.26h1.3Z"/>
      <path d="M23,191.2h1.34v4h.61v1h-.61v1.32H23.14v-1.32H20.87v-1.06Zm.13,1.62-1.24,2.42h1.26v-2.42Z"/>
    </g>
    <g>
      <path d="M17.25,224.55a2.54,2.54,0,0,0,0,.41.59.59,0,0,0,.14.31.59.59,0,0,0,.26.2,1,1,0,0,0,.42.07.83.83,0,0,0,.54-.19.75.75,0,0,0,.23-.6,1.32,1.32,0,0,0-.05-.37.8.8,0,0,0-.2-.29,1.63,1.63,0,0,0-.35-.23c-.15-.06-.33-.14-.55-.21a4.34,4.34,0,0,1-.74-.31,2,2,0,0,1-.53-.4,1.42,1.42,0,0,1-.31-.53,2.15,2.15,0,0,1-.1-.7,1.8,1.8,0,0,1,.53-1.42,2.09,2.09,0,0,1,1.46-.47,3.24,3.24,0,0,1,.79.09,1.69,1.69,0,0,1,.63.31,1.41,1.41,0,0,1,.42.54,1.89,1.89,0,0,1,.15.79v.18H18.77a1.27,1.27,0,0,0-.16-.71.58.58,0,0,0-.54-.25.8.8,0,0,0-.36.07.63.63,0,0,0-.23.16.66.66,0,0,0-.11.24,1.26,1.26,0,0,0,0,.28,1,1,0,0,0,.13.5,1.15,1.15,0,0,0,.54.37l1,.43a3.2,3.2,0,0,1,.6.34,1.71,1.71,0,0,1,.38.38,1.39,1.39,0,0,1,.19.45,2.26,2.26,0,0,1,0,.54,1.76,1.76,0,0,1-.59,1.48,2.64,2.64,0,0,1-1.64.46,2.15,2.15,0,0,1-1.57-.48,1.88,1.88,0,0,1-.47-1.37v-.26h1.3Z"/>
      <path d="M22.22,221.13l-.13,1.45h0a1,1,0,0,1,.47-.36,1.86,1.86,0,0,1,.7-.12,1.51,1.51,0,0,1,.77.18,1.3,1.3,0,0,1,.47.46,2,2,0,0,1,.25.66,3.64,3.64,0,0,1,.07.74,4.75,4.75,0,0,1-.09,1,1.72,1.72,0,0,1-.32.74,1.34,1.34,0,0,1-.62.47,2.67,2.67,0,0,1-1,.16,2.48,2.48,0,0,1-1-.16,1.35,1.35,0,0,1-.57-.43,1.44,1.44,0,0,1-.26-.58,2.41,2.41,0,0,1-.07-.58v-.17h1.24c0,.11,0,.22,0,.34a1.21,1.21,0,0,0,.08.34.65.65,0,0,0,.2.26.49.49,0,0,0,.33.11.63.63,0,0,0,.58-.31,1.93,1.93,0,0,0,.18-.94,5.49,5.49,0,0,0,0-.65,1.05,1.05,0,0,0-.12-.42.51.51,0,0,0-.23-.21,1,1,0,0,0-.36-.07.58.58,0,0,0-.43.16.74.74,0,0,0-.18.43H21l.23-3.47h3.32v1Z"/>
    </g>
    <g>
      <path d="M17.25,253.35a2.54,2.54,0,0,0,0,.41.63.63,0,0,0,.14.31.59.59,0,0,0,.26.2,1,1,0,0,0,.42.07.83.83,0,0,0,.54-.19.75.75,0,0,0,.23-.6,1.32,1.32,0,0,0-.05-.37.8.8,0,0,0-.2-.29,1.63,1.63,0,0,0-.35-.23,4.6,4.6,0,0,0-.55-.21,4.34,4.34,0,0,1-.74-.31,2,2,0,0,1-.53-.4,1.42,1.42,0,0,1-.31-.53,2.15,2.15,0,0,1-.1-.7,1.8,1.8,0,0,1,.53-1.42,2.09,2.09,0,0,1,1.46-.47,3.24,3.24,0,0,1,.79.09,1.69,1.69,0,0,1,.63.31,1.41,1.41,0,0,1,.42.54,1.89,1.89,0,0,1,.15.79v.18H18.77a1.27,1.27,0,0,0-.16-.71.58.58,0,0,0-.54-.25,1,1,0,0,0-.36.06.81.81,0,0,0-.23.17.66.66,0,0,0-.11.24,1.26,1.26,0,0,0,0,.28,1,1,0,0,0,.13.5,1.15,1.15,0,0,0,.54.37l1,.43a2.72,2.72,0,0,1,.6.34,1.71,1.71,0,0,1,.38.38,1.3,1.3,0,0,1,.19.45,2.26,2.26,0,0,1,0,.54,1.76,1.76,0,0,1-.59,1.48,2.64,2.64,0,0,1-1.64.46,2.15,2.15,0,0,1-1.57-.48,1.88,1.88,0,0,1-.47-1.37v-.26h1.3Z"/>
      <path d="M23.41,249.84a.49.49,0,0,0-.45-.2.61.61,0,0,0-.41.13.75.75,0,0,0-.24.33,1.89,1.89,0,0,0-.12.52c0,.19,0,.41,0,.64v.32h0a1.07,1.07,0,0,1,.46-.4,1.61,1.61,0,0,1,.73-.15,1.57,1.57,0,0,1,.72.15,1.28,1.28,0,0,1,.48.41,1.63,1.63,0,0,1,.27.63,3.38,3.38,0,0,1,.09.8,2.5,2.5,0,0,1-.49,1.68,2,2,0,0,1-1.57.57,2.14,2.14,0,0,1-1.06-.23,1.59,1.59,0,0,1-.61-.65,2.71,2.71,0,0,1-.27-.95,8.11,8.11,0,0,1-.07-1.12c0-.45,0-.89,0-1.31a3.48,3.48,0,0,1,.25-1.13,1.74,1.74,0,0,1,.63-.79A2.22,2.22,0,0,1,23,248.8a3,3,0,0,1,.67.08,1.39,1.39,0,0,1,.56.27,1.41,1.41,0,0,1,.39.5,1.91,1.91,0,0,1,.16.77H23.54A1,1,0,0,0,23.41,249.84Zm-1.15,3.85a1.37,1.37,0,0,0,.1.4.59.59,0,0,0,.22.27.64.64,0,0,0,.36.09.71.71,0,0,0,.38-.09.71.71,0,0,0,.21-.27,1.47,1.47,0,0,0,.09-.4,3.94,3.94,0,0,0,0-.5,2,2,0,0,0-.16-.93.67.67,0,0,0-1.09,0,2.09,2.09,0,0,0-.16.93A3.84,3.84,0,0,0,22.26,253.69Z"/>
    </g>
    <g>
      <path d="M17.25,282.15a2.54,2.54,0,0,0,0,.41.63.63,0,0,0,.14.31.59.59,0,0,0,.26.2,1,1,0,0,0,.42.07.83.83,0,0,0,.54-.19.75.75,0,0,0,.23-.6,1.32,1.32,0,0,0-.05-.37.8.8,0,0,0-.2-.29,1.63,1.63,0,0,0-.35-.23,4.6,4.6,0,0,0-.55-.21,4.34,4.34,0,0,1-.74-.31,2,2,0,0,1-.53-.4,1.42,1.42,0,0,1-.31-.53,2.19,2.19,0,0,1-.1-.7,1.8,1.8,0,0,1,.53-1.42,2.09,2.09,0,0,1,1.46-.47,3.24,3.24,0,0,1,.79.09,1.69,1.69,0,0,1,.63.31,1.41,1.41,0,0,1,.42.54,1.89,1.89,0,0,1,.15.79v.18H18.77a1.27,1.27,0,0,0-.16-.71.58.58,0,0,0-.54-.25,1,1,0,0,0-.36.06.81.81,0,0,0-.23.17.66.66,0,0,0-.11.24,1.26,1.26,0,0,0,0,.28,1,1,0,0,0,.13.5A1.15,1.15,0,0,0,18,280l1,.43a2.72,2.72,0,0,1,.6.34,1.71,1.71,0,0,1,.38.38,1.3,1.3,0,0,1,.19.45,2.26,2.26,0,0,1,0,.54,1.76,1.76,0,0,1-.59,1.48,2.64,2.64,0,0,1-1.64.46,2.15,2.15,0,0,1-1.57-.48,1.88,1.88,0,0,1-.47-1.37V282h1.3Z"/>
      <path d="M21.14,281.13a1.24,1.24,0,0,1,.81-.54h0a1.18,1.18,0,0,1-.72-.51,1.14,1.14,0,0,1-.15-.36,1.49,1.49,0,0,1,0-.36,1.64,1.64,0,0,1,.5-1.34,2.08,2.08,0,0,1,1.38-.41,2.06,2.06,0,0,1,1.37.41,1.64,1.64,0,0,1,.5,1.34,1.49,1.49,0,0,1-.05.36,1.29,1.29,0,0,1-.44.67,1.14,1.14,0,0,1-.43.2h0a1.24,1.24,0,0,1,.81.54,1.94,1.94,0,0,1,.27,1,2.72,2.72,0,0,1-.07.61,1.51,1.51,0,0,1-.28.62,1.71,1.71,0,0,1-.62.48,2.42,2.42,0,0,1-1.06.19,2.47,2.47,0,0,1-1.07-.19,1.71,1.71,0,0,1-.62-.48,1.51,1.51,0,0,1-.28-.62,2.72,2.72,0,0,1-.07-.61A1.94,1.94,0,0,1,21.14,281.13Zm1.06,1.45a1,1,0,0,0,.12.35.51.51,0,0,0,.23.23.64.64,0,0,0,.36.09.69.69,0,0,0,.36-.09.63.63,0,0,0,.23-.23,1.2,1.2,0,0,0,.11-.35,3,3,0,0,0,0-.43,2.9,2.9,0,0,0,0-.43,1.2,1.2,0,0,0-.11-.35.72.72,0,0,0-.23-.23.69.69,0,0,0-.36-.09.64.64,0,0,0-.36.09.57.57,0,0,0-.23.23,1,1,0,0,0-.12.35,2.9,2.9,0,0,0,0,.43A3,3,0,0,0,22.2,282.58Zm.25-2.59a.53.53,0,0,0,.46.22.52.52,0,0,0,.45-.22,1,1,0,0,0,.18-.67c0-.59-.21-.88-.63-.88s-.63.29-.63.88A1,1,0,0,0,22.45,280Z"/>
    </g>
    <g>
      <path d="M19.79,307.93l-1.26,2.35,1.32,2.49h-1.3l-.72-1.58-.72,1.58h-1.3l1.32-2.49-1.26-2.35h1.29l.67,1.46.67-1.46Z"/>
      <path d="M20.63,309.93a1.24,1.24,0,0,1,.81-.54h0a1.12,1.12,0,0,1-.44-.2,1.18,1.18,0,0,1-.28-.31,1.14,1.14,0,0,1-.15-.36,1.49,1.49,0,0,1-.05-.36,1.64,1.64,0,0,1,.5-1.34,2.06,2.06,0,0,1,1.37-.41,2.1,2.1,0,0,1,1.38.41,1.64,1.64,0,0,1,.5,1.34,1.49,1.49,0,0,1-.05.36,1.46,1.46,0,0,1-.16.36,1.06,1.06,0,0,1-.29.31,1.09,1.09,0,0,1-.42.2h0a1.24,1.24,0,0,1,.81.54,1.94,1.94,0,0,1,.27,1,3.46,3.46,0,0,1-.07.61,1.65,1.65,0,0,1-.28.62,1.71,1.71,0,0,1-.62.48,2.47,2.47,0,0,1-1.07.19,2.42,2.42,0,0,1-1.06-.19,1.63,1.63,0,0,1-.62-.48,1.51,1.51,0,0,1-.28-.62,2.72,2.72,0,0,1-.07-.61A1.94,1.94,0,0,1,20.63,309.93Zm1.06,1.45a1.2,1.2,0,0,0,.11.35A.63.63,0,0,0,22,312a.69.69,0,0,0,.36.09.64.64,0,0,0,.36-.09.51.51,0,0,0,.23-.23,1,1,0,0,0,.12-.35,3,3,0,0,0,0-.43,2.9,2.9,0,0,0,0-.43,1,1,0,0,0-.12-.35.57.57,0,0,0-.23-.23.64.64,0,0,0-.36-.09.69.69,0,0,0-.36.09.72.72,0,0,0-.23.23,1.2,1.2,0,0,0-.11.35,2.86,2.86,0,0,0,0,.43A3,3,0,0,0,21.69,311.38Zm.24-2.59a.55.55,0,0,0,.46.22.54.54,0,0,0,.46-.22,1,1,0,0,0,.17-.67c0-.59-.21-.88-.63-.88s-.63.29-.63.88A1.1,1.1,0,0,0,21.93,308.79Z"/>
    </g>
    <g>
      <path d="M15.34,8.63a4.54,4.54,0,1,0,4.54-4.54A4.53,4.53,0,0,0,15.34,8.63Z"/>
      <path d="M15.34,355.87a4.54,4.54,0,1,0,4.54-4.53A4.54,4.54,0,0,0,15.34,355.87Z"/>
    </g>
    <g>
      <path d="M17.61,72.27a.73.73,0,1,1,.73-.73.7.7,0,0,1-.73.73Zm-.63,5V72.84h1.27v4.41Z"/>
      <path d="M19.28,74.25c0-.55,0-1,0-1.41h1.11l.06.62h0a1.46,1.46,0,0,1,1.27-.72c.83,0,1.46.61,1.46,1.9v2.61H21.89V74.81c0-.57-.18-1-.65-1a.7.7,0,0,0-.65.51,1.2,1.2,0,0,0,0,.35v2.54H19.28Z"/>
    </g>
    <g>
      <path d="M47.43,9.19,42,16V10.17A1.26,1.26,0,0,0,41.42,9a.89.89,0,0,0-1.11.29l-7.08,9a1.43,1.43,0,0,0,0,1.74.88.88,0,0,0,1.42,0L40,13.22v5.87a1.26,1.26,0,0,0,.63,1.15.89.89,0,0,0,1.1-.29l5.39-6.85v6a1,1,0,1,0,2,0V10a1.26,1.26,0,0,0-.63-1.14A.88.88,0,0,0,47.43,9.19Z" style="fill: #00adee;stroke: #00adee;stroke-width: 0.75px"/>
      <path d="M33.23,9.12l-4.69,6a1.43,1.43,0,0,0,0,1.74.88.88,0,0,0,1.42,0L33,13v6.14a1,1,0,1,0,2,0V10a1.26,1.26,0,0,0-.63-1.14A.88.88,0,0,0,33.23,9.12Z" style="fill: #ec1c24;stroke: #ec1c24;stroke-width: 0.75px"/>
      <path d="M55.58,13.52a1,1,0,0,0-.92-.75h-2l1.5-1.9s.78-1.15.09-1.78-1.54.06-1.54.06l-3.14,4a1.43,1.43,0,0,0-.21,1.33,1,1,0,0,0,.93.76h2l-2.43,3.09s-1,1.09-.26,1.84S51.31,20,51.31,20l4.07-5.18A1.44,1.44,0,0,0,55.58,13.52Z" style="fill: #00a551;stroke: #00a551;stroke-width: 0.75px"/>
    </g>
  </g>
  <g id="components">
    <circle id="x8" cx="38.99" cy="309.37" r="11.34" style="fill: #8080ff"/>
    <circle id="LED_x8" data-name="LED x8" cx="9.81" cy="309.35" r="4.25" style="fill: #f0f"/>
    <circle id="S8" cx="38.99" cy="280.58" r="11.34" style="fill: #8080ff"/>
    <circle id="LED_S8" data-name="LED S8" cx="9.81" cy="280.55" r="4.25" style="fill: #f0f"/>
    <circle id="S6" cx="38.99" cy="251.77" r="11.34" style="fill: #8080ff"/>
    <circle id="LED_S6" data-name="LED S6" cx="9.81" cy="251.75" r="4.25" style="fill: #f0f"/>
    <circle id="S5" cx="38.99" cy="222.98" r="11.34" style="fill: #8080ff"/>
    <circle id="LED_S5" data-name="LED S5" cx="9.81" cy="222.95" r="4.25" style="fill: #f0f"/>
    <circle id="S4" cx="38.99" cy="194.18" r="11.34" style="fill: #8080ff"/>
    <circle id="LED_S4" data-name="LED S4" cx="9.81" cy="194.15" r="4.25" style="fill: #f0f"/>
    <circle id="S3" cx="38.99" cy="165.38" r="11.34" style="fill: #8080ff"/>
    <circle id="LED_S3" data-name="LED S3" cx="9.81" cy="165.35" r="4.25" style="fill: #f0f"/>
    <circle id="x2" cx="38.99" cy="136.58" r="11.34" style="fill: #8080ff"/>
    <circle id="LED_x2" data-name="LED x2" cx="9.81" cy="136.55" r="4.25" style="fill: #f0f"/>
    <circle id="x1" cx="38.99" cy="107.81" r="11.34" style="fill: #8080ff"/>
    <circle id="LED_x1" data-name="LED x1" cx="9.81" cy="107.75" r="4.25" style="fill: #f0f"/>
    <circle id="Clk_In" data-name="Clk In" cx="38.99" cy="78.83" r="11.34" style="fill: #80ff80"/>
    <circle id="LED_in" data-name="LED in" cx="9.81" cy="78.95" r="4.25" style="fill: #f0f"/>
    <circle id="Slip" cx="44.61" cy="46.06" r="11.34" style="fill: lime"/>
    <circle id="Rotate" cx="13.24" cy="46.06" r="11.34" style="fill: lime"/>
    <text id="slug" transform="translate(0.98 371.91)" style="font-size: 6px;font-family: MyriadPro-Regular, Myriad Pro">SCM</text>
    <text id="modulename" transform="translate(25.5 371.91)" style="font-size: 6px;font-family: MyriadPro-Regular, Myriad Pro">Shuffling Clock <tspan x="38.81" y="0" style="letter-spacing: 0.0029296875em">M</tspan><tspan x="43.65" y="0">ultiplier</tspan></text>
  </g>
</svg>
