<svg xmlns="http://www.w3.org/2000/svg" width="40.73mm" height="131.71mm" viewBox="0 0 115.45 373.34">
  <g id="faceplate">
    <rect x="0.13" y="0.13" width="115.2" height="364.25" style="fill: #ededed;stroke: #9d9d9e;stroke-miterlimit: 10;stroke-width: 0.25px"/>
    <path d="M23.51,101.17a11.5,11.5,0,0,1-.84-23c.36,0,35.8-3.3,56.58-31.09A11.5,11.5,0,0,1,97.67,60.88C70.31,97.48,26.2,101,24.34,101.14c-.28,0-.55,0-.83,0" style="fill: #2eaae1;stroke: #000"/>
    <path d="M23.39,137.22a11.5,11.5,0,0,1-1-23c18.66-1.68,49.68-8.39,57-17.48a11.5,11.5,0,0,1,17.88,14.47c-16.12,19.93-63.52,25.09-72.86,25.92-.34,0-.69.05-1,.05" style="fill: #2eaae1;stroke: #000"/>
    <path d="M23.39,173.22a11.5,11.5,0,0,1-.61-23c24.39-1.33,54.36-4.17,60.25-6.44a11.5,11.5,0,0,1,10.85,20.28C85,169,51,171.72,24,173.2l-.64,0" style="fill: #2eaae1;stroke: #000"/>
    <path d="M88.35,215.83a11.75,11.75,0,0,1-3.06-.41c-11.7-3.22-49-5.32-62.35-5.86a11.5,11.5,0,0,1,.44-23h.48c5.2.21,51.2,2.16,67.53,6.66a11.5,11.5,0,0,1,8,14.14,11.54,11.54,0,0,1-11.08,8.45" style="fill: #2eaae1;stroke: #000"/>
    <path d="M88.34,265.8a11.48,11.48,0,0,1-7.46-2.75c-13.64-11.61-46.77-16.58-58.39-17.51a11.5,11.5,0,0,1,.9-23c.31,0,.61,0,.92,0,5,.4,49.75,4.42,71.49,22.94a11.5,11.5,0,0,1-7.46,20.25" style="fill: #2eaae1;stroke: #000"/>
    <path d="M88.54,334.39A9.42,9.42,0,0,1,83,332.61c-6.25-4.49-36.17-14.93-60.3-16.7a9.5,9.5,0,0,1,.67-19c.24,0,.48,0,.71,0,13,1,56.55,10.56,70,20.22a9.5,9.5,0,0,1-5.55,17.21" style="fill: #01a64f;stroke: #000"/>
    <path d="M88.33,301.76A9.46,9.46,0,0,1,83,300.12C67.84,289.83,33.61,282,21.7,279.78a9.5,9.5,0,0,1,1.69-18.85,9.71,9.71,0,0,1,1.71.16c1.91.35,47,8.67,68.58,23.31a9.5,9.5,0,0,1-5.35,17.36" style="fill: #01a64f;stroke: #000"/>
    <path d="M23.78,66.27c-5,0-8.81-1.39-11.14-4C8.42,57.45,9.86,49.8,11.09,45.67c1.86-6.22,5.61-12.49,9.56-16A18.59,18.59,0,0,1,33,25.05a19.2,19.2,0,0,1,14.4,6.54,19,19,0,0,1-1.45,26.74C40.71,62.93,31.39,66.27,23.78,66.27Z" style="fill: #ec2227;stroke: #000"/>
    <g>
      <path d="M43.12,333.78l-1,3.46a2.7,2.7,0,0,0-2.2-1.6c-.46,0-.69.22-.69.65a.58.58,0,0,0,.22.41,5.48,5.48,0,0,0,1.13.65,10.55,10.55,0,0,1,1.57.9,2.54,2.54,0,0,1,.82,1,3.72,3.72,0,0,1,.27,1.48,3.34,3.34,0,0,1-1.08,2.68,4.79,4.79,0,0,1-3.17.92,9.17,9.17,0,0,1-4.05-.82l1-3.67a3.68,3.68,0,0,0,1,1.28,2,2,0,0,0,1.19.47.67.67,0,0,0,.47-.18.57.57,0,0,0,.19-.43.74.74,0,0,0-.19-.47,3.51,3.51,0,0,0-1-.62,8.07,8.07,0,0,1-1.18-.68,3,3,0,0,1-.8-1,3.16,3.16,0,0,1-.35-1.56A3.44,3.44,0,0,1,36.41,334a4.69,4.69,0,0,1,3.16-.93,8.67,8.67,0,0,1,3.55.73" style="stroke: #ededed"/>
      <path d="M43.12,333.78l-1,3.46a2.7,2.7,0,0,0-2.2-1.6c-.46,0-.69.22-.69.65a.58.58,0,0,0,.22.41,5.48,5.48,0,0,0,1.13.65,10.55,10.55,0,0,1,1.57.9,2.54,2.54,0,0,1,.82,1,3.72,3.72,0,0,1,.27,1.48,3.34,3.34,0,0,1-1.08,2.68,4.79,4.79,0,0,1-3.17.92,9.17,9.17,0,0,1-4.05-.82l1-3.67a3.68,3.68,0,0,0,1,1.28,2,2,0,0,0,1.19.47.67.67,0,0,0,.47-.18.57.57,0,0,0,.19-.43.74.74,0,0,0-.19-.47,3.51,3.51,0,0,0-1-.62,8.07,8.07,0,0,1-1.18-.68,3,3,0,0,1-.8-1,3.16,3.16,0,0,1-.35-1.56A3.44,3.44,0,0,1,36.41,334a4.69,4.69,0,0,1,3.16-.93A8.67,8.67,0,0,1,43.12,333.78Z" style="stroke: #ededed;stroke-width: 0.75px"/>
      <path d="M44.15,342a2.56,2.56,0,0,1,.56-1.66,1.66,1.66,0,0,1,1.33-.68,1.69,1.69,0,0,1,1.34.68,2.77,2.77,0,0,1,0,3.31,1.67,1.67,0,0,1-1.34.69,1.64,1.64,0,0,1-1.33-.69,2.55,2.55,0,0,1-.56-1.65" style="stroke: #ededed"/>
      <path d="M44.15,342a2.56,2.56,0,0,1,.56-1.66,1.66,1.66,0,0,1,1.33-.68,1.69,1.69,0,0,1,1.34.68,2.77,2.77,0,0,1,0,3.31,1.67,1.67,0,0,1-1.34.69,1.64,1.64,0,0,1-1.33-.69A2.55,2.55,0,0,1,44.15,342Z" style="stroke: #ededed;stroke-width: 0.75px"/>
      <path d="M57.71,334.21l-1.64,3.88a3.93,3.93,0,0,0-1.59-.32c-.83,0-1.25.28-1.25.85a.73.73,0,0,0,.35.63,1.91,1.91,0,0,0,1,.22,2.79,2.79,0,0,0,1.5-.39l1.64,4.15a5.28,5.28,0,0,1-1.68.83,6.22,6.22,0,0,1-1.89.31,4.44,4.44,0,0,1-3.59-1.61,6.66,6.66,0,0,1,.05-8.08,4.45,4.45,0,0,1,3.54-1.63,6.33,6.33,0,0,1,1.92.32,4.92,4.92,0,0,1,1.65.84" style="stroke: #ededed"/>
      <path d="M57.71,334.21l-1.64,3.88a3.93,3.93,0,0,0-1.59-.32c-.83,0-1.25.28-1.25.85a.73.73,0,0,0,.35.63,1.91,1.91,0,0,0,1,.22,2.79,2.79,0,0,0,1.5-.39l1.64,4.15a5.28,5.28,0,0,1-1.68.83,6.22,6.22,0,0,1-1.89.31,4.44,4.44,0,0,1-3.59-1.61,6.66,6.66,0,0,1,.05-8.08,4.45,4.45,0,0,1,3.54-1.63,6.33,6.33,0,0,1,1.92.32A4.92,4.92,0,0,1,57.71,334.21Z" style="stroke: #ededed;stroke-width: 0.75px"/>
      <path d="M58.72,342a2.56,2.56,0,0,1,.55-1.66,1.69,1.69,0,0,1,1.34-.68,1.67,1.67,0,0,1,1.33.68,2.73,2.73,0,0,1,0,3.31,1.65,1.65,0,0,1-1.33.69,1.67,1.67,0,0,1-1.34-.69,2.55,2.55,0,0,1-.55-1.65" style="stroke: #ededed"/>
      <path d="M58.72,342a2.56,2.56,0,0,1,.55-1.66,1.69,1.69,0,0,1,1.34-.68,1.67,1.67,0,0,1,1.33.68,2.73,2.73,0,0,1,0,3.31,1.65,1.65,0,0,1-1.33.69,1.67,1.67,0,0,1-1.34-.69A2.55,2.55,0,0,1,58.72,342Z" style="stroke: #ededed;stroke-width: 0.75px"/>
      <polygon points="64 344.19 64 333.23 67.81 333.23 69.41 335.51 71.02 333.23 74.82 333.23 74.82 344.19 70.9 344.19 70.9 338.7 69.41 340.82 67.93 338.7 67.93 344.19 64 344.19" style="stroke: #ededed"/>
      <polygon points="64 344.19 64 333.23 67.81 333.23 69.41 335.51 71.02 333.23 74.82 333.23 74.82 344.19 70.9 344.19 70.9 338.7 69.41 340.82 67.93 338.7 67.93 344.19 64 344.19" style="stroke: #ededed;stroke-width: 0.75px"/>
      <path d="M76.32,342a2.56,2.56,0,0,1,.56-1.66,1.65,1.65,0,0,1,2.67,0,2.77,2.77,0,0,1,0,3.31,1.64,1.64,0,0,1-2.67,0,2.55,2.55,0,0,1-.56-1.65" style="stroke: #ededed"/>
      <path d="M76.32,342a2.56,2.56,0,0,1,.56-1.66,1.65,1.65,0,0,1,2.67,0,2.77,2.77,0,0,1,0,3.31,1.64,1.64,0,0,1-2.67,0A2.55,2.55,0,0,1,76.32,342Z" style="stroke: #ededed;stroke-width: 0.75px"/>
      <path d="M31.55,346.23H35a1.8,1.8,0,0,1,1.61.82,4,4,0,0,1,.54,2.24,3.42,3.42,0,0,1-.72,2.35,3,3,0,0,1,.64,1,4.24,4.24,0,0,1,.22,1.48,4.28,4.28,0,0,1-.49,2.21,1.55,1.55,0,0,1-1.4.82H31.55Zm2.45,2.2v2.14h.06a.63.63,0,0,0,.56-.24,1.53,1.53,0,0,0,.17-.83c0-.71-.22-1.07-.65-1.07Zm0,4v2.37h.07a.69.69,0,0,0,.6-.26,1.58,1.58,0,0,0,.18-.88q0-1.23-.69-1.23Z" style="stroke: #ededed"/>
      <path d="M31.55,346.23H35a1.8,1.8,0,0,1,1.61.82,4,4,0,0,1,.54,2.24,3.42,3.42,0,0,1-.72,2.35,3,3,0,0,1,.64,1,4.24,4.24,0,0,1,.22,1.48,4.28,4.28,0,0,1-.49,2.21,1.55,1.55,0,0,1-1.4.82H31.55Zm2.45,2.2v2.14h.06a.63.63,0,0,0,.56-.24,1.53,1.53,0,0,0,.17-.83c0-.71-.22-1.07-.65-1.07Zm0,4v2.37h.07a.69.69,0,0,0,.6-.26,1.58,1.58,0,0,0,.18-.88q0-1.23-.69-1.23Z" style="stroke: #ededed;stroke-width: 0.75px"/>
      <path d="M38.35,346.23H42a1.65,1.65,0,0,1,1.48.93,4.78,4.78,0,0,1,.53,2.35,4.08,4.08,0,0,1-.63,2.43,14.94,14.94,0,0,1,1.07,5.25H41.86a15.32,15.32,0,0,0-.31-3.07c-.16-.66-.42-1-.76-1v4.06H38.35Zm2.44,2.25v2.11h.07q.66,0,.66-1a2,2,0,0,0-.14-.76.46.46,0,0,0-.44-.33Z" style="stroke: #ededed"/>
      <path d="M38.35,346.23H42a1.65,1.65,0,0,1,1.48.93,4.78,4.78,0,0,1,.53,2.35,4.08,4.08,0,0,1-.63,2.43,14.94,14.94,0,0,1,1.07,5.25H41.86a15.32,15.32,0,0,0-.31-3.07c-.16-.66-.42-1-.76-1v4.06H38.35Zm2.44,2.25v2.11h.07q.66,0,.66-1a2,2,0,0,0-.14-.76.46.46,0,0,0-.44-.33Z" style="stroke: #ededed;stroke-width: 0.75px"/>
      <polygon points="49.87 354.44 49.87 357.19 45.29 357.19 45.29 346.23 49.87 346.23 49.87 348.98 47.73 348.98 47.73 350.34 49.22 350.34 49.22 353.09 47.73 353.09 47.73 354.44 49.87 354.44" style="stroke: #ededed"/>
      <polygon points="49.87 354.44 49.87 357.19 45.29 357.19 45.29 346.23 49.87 346.23 49.87 348.98 47.73 348.98 47.73 350.34 49.22 350.34 49.22 353.09 47.73 353.09 47.73 354.44 49.87 354.44" style="stroke: #ededed;stroke-width: 0.75px"/>
      <path d="M52.83,357.19H50.39l1.91-11h3.49l1.91,11H55.26L55,355.34h-1.8Zm.76-4.44h.91L54.05,350Z" style="stroke: #ededed"/>
      <path d="M52.83,357.19H50.39l1.91-11h3.49l1.91,11H55.26L55,355.34h-1.8Zm.76-4.44h.91L54.05,350Z" style="stroke: #ededed;stroke-width: 0.75px"/>
      <path d="M61,346.23v3.66c.41-.06.73-.41.95-1.05a8.37,8.37,0,0,0,.32-2.61h2.49a16.81,16.81,0,0,1-.26,3.3,6.29,6.29,0,0,1-.82,2.16,11,11,0,0,1,1.24,5.5H62.3c-.06-2.61-.49-3.95-1.28-4v4H58.57v-11Z" style="stroke: #ededed"/>
      <path d="M61,346.23v3.66c.41-.06.73-.41.95-1.05a8.37,8.37,0,0,0,.32-2.61h2.49a16.81,16.81,0,0,1-.26,3.3,6.29,6.29,0,0,1-.82,2.16,11,11,0,0,1,1.24,5.5H62.3c-.06-2.61-.49-3.95-1.28-4v4H58.57v-11Z" style="stroke: #ededed;stroke-width: 0.75px"/>
      <path d="M68.36,357.37c-.79,0-1.46-.55-2-1.65a8.92,8.92,0,0,1-.83-4,8.8,8.8,0,0,1,.83-4c.54-1.1,1.21-1.65,2-1.65s1.46.55,2,1.65a8.8,8.8,0,0,1,.82,4,8.92,8.92,0,0,1-.82,4q-.83,1.65-2,1.65m0-7.11q-.24,0-.39.33a1.93,1.93,0,0,0-.16.82,2,2,0,0,0,.16.82q.15.33.39.33c.16,0,.29-.11.4-.33a2,2,0,0,0,.15-.82,1.94,1.94,0,0,0-.15-.82c-.11-.22-.24-.33-.4-.33" style="stroke: #ededed"/>
      <path d="M68.36,357.37c-.79,0-1.46-.55-2-1.65a8.92,8.92,0,0,1-.83-4,8.8,8.8,0,0,1,.83-4c.54-1.1,1.21-1.65,2-1.65s1.46.55,2,1.65a8.8,8.8,0,0,1,.82,4,8.92,8.92,0,0,1-.82,4Q69.54,357.37,68.36,357.37Zm0-7.11q-.24,0-.39.33a1.93,1.93,0,0,0-.16.82,2,2,0,0,0,.16.82q.15.33.39.33c.16,0,.29-.11.4-.33a2,2,0,0,0,.15-.82,1.94,1.94,0,0,0-.15-.82C68.65,350.37,68.52,350.26,68.36,350.26Z" style="stroke: #ededed;stroke-width: 0.75px"/>
      <path d="M77.78,346.23v5a9.88,9.88,0,0,1-.84,4.71c-.55,1-1.19,1.46-1.91,1.46a1.94,1.94,0,0,1-1.47-.8,4.7,4.7,0,0,1-1-2.12,17.11,17.11,0,0,1-.28-3.47v-4.75h2.44v5.08a4,4,0,0,0,.08,1c0,.14.12.22.21.22s.23-.13.26-.4a9.74,9.74,0,0,0,.06-1.31v-4.62Z" style="stroke: #ededed"/>
      <path d="M77.78,346.23v5a9.88,9.88,0,0,1-.84,4.71c-.55,1-1.19,1.46-1.91,1.46a1.94,1.94,0,0,1-1.47-.8,4.7,4.7,0,0,1-1-2.12,17.11,17.11,0,0,1-.28-3.47v-4.75h2.44v5.08a4,4,0,0,0,.08,1c0,.14.12.22.21.22s.23-.13.26-.4a9.74,9.74,0,0,0,.06-1.31v-4.62Z" style="stroke: #ededed;stroke-width: 0.75px"/>
      <polygon points="78.68 351.09 78.68 346.23 83.58 346.23 83.58 351.09 82.35 351.09 82.35 357.19 79.91 357.19 79.91 351.09 78.68 351.09" style="stroke: #ededed"/>
      <polygon points="78.68 351.09 78.68 346.23 83.58 346.23 83.58 351.09 82.35 351.09 82.35 357.19 79.91 357.19 79.91 351.09 78.68 351.09" style="stroke: #ededed;stroke-width: 0.75px"/>
    </g>
    <path d="M42.1,80.47a2.21,2.21,0,0,1,1.62,0,2,2,0,0,1,1,1.27A2.38,2.38,0,0,1,44.84,83a1.49,1.49,0,0,1-.73.93v0a1.51,1.51,0,0,1,1,.08,1.67,1.67,0,0,1,.63.81c.06.13.12.28.18.44l.21.54a8.08,8.08,0,0,0,.37.88.61.61,0,0,0,.41.34l0,.06-1.63.55a.88.88,0,0,1-.26-.31,3,3,0,0,1-.18-.41l-.53-1.42a1.22,1.22,0,0,0-.45-.61.84.84,0,0,0-.75,0l-.8.27,1.06,3.15-1.5.5L39.33,81.4Zm.45,3.46a1.33,1.33,0,0,0,.75-.53,1.13,1.13,0,0,0,0-1,1,1,0,0,0-1.39-.68L41.2,82l.73,2.15Z"/>
    <path d="M46.14,82.82a2.64,2.64,0,0,1,0-1,1.79,1.79,0,0,1,.45-.82,2.63,2.63,0,0,1,.94-.6,2.85,2.85,0,0,1,1.12-.26,1.65,1.65,0,0,1,.89.29,2.42,2.42,0,0,1,.71.77,8.13,8.13,0,0,1,.61,1.22,7.26,7.26,0,0,1,.38,1.29,2.64,2.64,0,0,1,0,1,1.81,1.81,0,0,1-.45.81,3.15,3.15,0,0,1-.95.58,3,3,0,0,1-1.12.26,1.49,1.49,0,0,1-.87-.27,2.56,2.56,0,0,1-.72-.77,7.57,7.57,0,0,1-.6-1.21,6.59,6.59,0,0,1-.39-1.29m2.13,1.49a3,3,0,0,0,.34.57,1,1,0,0,0,.39.31.64.64,0,0,0,.47,0,.66.66,0,0,0,.41-.69,5.33,5.33,0,0,0-.43-1.55,5.19,5.19,0,0,0-.76-1.41.64.64,0,0,0-.77-.21.62.62,0,0,0-.35.3.89.89,0,0,0-.07.5,2.63,2.63,0,0,0,.14.65c.09.24.18.5.3.78s.22.53.33.77"/>
    <path d="M51.43,77l.69,1.54.81-.36.42.94-.8.37,1.32,2.91a1,1,0,0,0,.3.41c.1.07.26,0,.46,0l.16-.08.14-.08.43,1a4.32,4.32,0,0,0-.43.22l-.45.22a3.58,3.58,0,0,1-.69.24.7.7,0,0,1-.48,0,1.07,1.07,0,0,1-.39-.35,6.16,6.16,0,0,1-.36-.66l-1.39-3.09-.7.32L50,79.49l.7-.32L50,77.62Z"/>
    <path d="M54.09,79.49a1.87,1.87,0,0,1-.24-.85,1.49,1.49,0,0,1,.14-.7,1.72,1.72,0,0,1,.45-.57,3.34,3.34,0,0,1,.68-.45,3.61,3.61,0,0,1,1-.38,1.53,1.53,0,0,1,.75,0,1.17,1.17,0,0,1,.54.37,3.39,3.39,0,0,1,.4.61l1.41,2.78a4.37,4.37,0,0,0,.33.56,2.1,2.1,0,0,0,.36.38l-1.3.65a1.21,1.21,0,0,1-.24-.21l-.2-.25h0a1.23,1.23,0,0,1-.27.81,2.46,2.46,0,0,1-.73.53,1.49,1.49,0,0,1-.66.18,1.2,1.2,0,0,1-.57-.14,1.78,1.78,0,0,1-.46-.37,2.6,2.6,0,0,1-.34-.5,2.53,2.53,0,0,1-.25-.69,1.25,1.25,0,0,1,0-.58,1.51,1.51,0,0,1,.25-.53,3.77,3.77,0,0,1,.48-.53l.67-.6a.9.9,0,0,0,.31-.42.72.72,0,0,0-.09-.47.83.83,0,0,0-.38-.4.7.7,0,0,0-.58.07.67.67,0,0,0-.37.43.83.83,0,0,0,.1.58l.07.15-1.21.61Zm2.85.21a1.8,1.8,0,0,1-.24.24,1.24,1.24,0,0,0-.44.59.92.92,0,0,0,.11.65,1.18,1.18,0,0,0,.38.46.47.47,0,0,0,.5,0,1.15,1.15,0,0,0,.26-.19.8.8,0,0,0,.2-.28.83.83,0,0,0,.08-.36,1,1,0,0,0-.12-.41l-.53-1a1.16,1.16,0,0,1-.2.32"/>
    <path d="M58.77,73.19l.84,1.47.76-.43.51.9-.77.43,1.59,2.79a.85.85,0,0,0,.33.38.5.5,0,0,0,.45-.08.56.56,0,0,0,.15-.1l.14-.09.52.92c-.15.08-.29.17-.41.25l-.43.27a4.36,4.36,0,0,1-.66.3.69.69,0,0,1-.49,0,1,1,0,0,1-.42-.32,4.15,4.15,0,0,1-.41-.62l-1.68-3-.66.39-.52-.9.68-.39-.84-1.47Z"/>
    <path d="M63.82,76.41a2.59,2.59,0,0,0,.31.41,1.41,1.41,0,0,0,.34.31.87.87,0,0,0,.36.13.49.49,0,0,0,.36-.09.64.64,0,0,0,.33-.53,2.18,2.18,0,0,0-.25-.84l1.16-.73a2.44,2.44,0,0,1,.37,1.63A2.12,2.12,0,0,1,65.74,78a2.58,2.58,0,0,1-1.24.45,1.67,1.67,0,0,1-1-.25,2.84,2.84,0,0,1-.77-.71c-.23-.3-.44-.61-.64-.92a8.27,8.27,0,0,1-.54-1,2.71,2.71,0,0,1-.24-1,1.7,1.7,0,0,1,.23-1,2.55,2.55,0,0,1,.91-.87,2.35,2.35,0,0,1,1-.4,1.68,1.68,0,0,1,.89.15,2.77,2.77,0,0,1,.78.63,8.66,8.66,0,0,1,.74,1l.18.29L63.57,76ZM64,73.93a1.49,1.49,0,0,0-.33-.3.57.57,0,0,0-.34-.11.68.68,0,0,0-.69.77,1.55,1.55,0,0,0,.09.39,1.9,1.9,0,0,0,.2.37l.12.2,1.31-.83c-.13-.19-.25-.35-.36-.49"/>
    <path d="M46.88,122.49A2.72,2.72,0,0,0,47,123a.83.83,0,0,0,.24.33.76.76,0,0,0,.37.18,1.14,1.14,0,0,0,.51,0,1,1,0,0,0,.59-.36.89.89,0,0,0,.14-.78,1.21,1.21,0,0,0-.17-.43.76.76,0,0,0-.3-.29,1.5,1.5,0,0,0-.48-.18,5.2,5.2,0,0,0-.71-.12,5.81,5.81,0,0,1-1-.18,2.48,2.48,0,0,1-.73-.35,1.78,1.78,0,0,1-.51-.55,2.74,2.74,0,0,1-.3-.81,2.23,2.23,0,0,1,.27-1.84,2.63,2.63,0,0,1,1.63-.93,4.13,4.13,0,0,1,1-.09,1.89,1.89,0,0,1,.83.21,1.63,1.63,0,0,1,.63.54,2.19,2.19,0,0,1,.39.9l0,.21-1.49.32a1.53,1.53,0,0,0-.37-.8.74.74,0,0,0-.71-.16,1,1,0,0,0-.41.17.68.68,0,0,0-.23.25.72.72,0,0,0-.08.32,2,2,0,0,0,0,.34,1.18,1.18,0,0,0,.28.57,1.43,1.43,0,0,0,.74.31l1.31.26a3.29,3.29,0,0,1,.8.25,2,2,0,0,1,.55.35,1.82,1.82,0,0,1,.34.48,2.83,2.83,0,0,1,.2.64,2.14,2.14,0,0,1-.32,1.92,3.18,3.18,0,0,1-1.85,1,2.62,2.62,0,0,1-2-.17,2.28,2.28,0,0,1-.91-1.51l-.07-.32,1.55-.33Z"/>
    <rect x="50.71" y="115.79" width="1.52" height="7.85" transform="translate(-26.08 14.99) rotate(-13.25)"/>
    <path d="M53.79,115l.32,1.25-1.47.38-.32-1.26Zm.5,2,1.44,5.74-1.47.37-1.44-5.74Z"/>
    <path d="M56.71,116.34l.17.6h0a1.65,1.65,0,0,1,.39-.72,1.44,1.44,0,0,1,.7-.39,1.48,1.48,0,0,1,1.52.34,6.55,6.55,0,0,1,1.28,4.57,1.51,1.51,0,0,1-1.13,1.06,1.4,1.4,0,0,1-1.41-.31h0l.66,2.36-1.46.41-2.11-7.53Zm1.4,4.19a.62.62,0,0,0,.76.3.64.64,0,0,0,.49-.65,5.83,5.83,0,0,0-.25-1.44,5.56,5.56,0,0,0-.54-1.36.67.67,0,0,0-1.25.35,5,5,0,0,0,.25,1.44,4.86,4.86,0,0,0,.54,1.36"/>
    <path d="M38.93,161.4a2.49,2.49,0,0,0,.08.5.83.83,0,0,0,.19.36.8.8,0,0,0,.34.22,1.39,1.39,0,0,0,.52.05,1,1,0,0,0,.64-.29.87.87,0,0,0,.23-.75,1.24,1.24,0,0,0-.11-.45.79.79,0,0,0-.26-.32,1.47,1.47,0,0,0-.45-.25,7.11,7.11,0,0,0-.68-.21,7.08,7.08,0,0,1-1-.31,2.51,2.51,0,0,1-.67-.44,1.73,1.73,0,0,1-.43-.63,2.49,2.49,0,0,1-.18-.84,2.18,2.18,0,0,1,.52-1.78,2.57,2.57,0,0,1,1.73-.7,3.92,3.92,0,0,1,1,0,2.06,2.06,0,0,1,.79.32,1.68,1.68,0,0,1,.56.62,2.31,2.31,0,0,1,.25.94l0,.22-1.52.11a1.55,1.55,0,0,0-.26-.84.74.74,0,0,0-.68-.25,1,1,0,0,0-.43.11.75.75,0,0,0-.27.22.79.79,0,0,0-.12.3,1.36,1.36,0,0,0,0,.35,1.12,1.12,0,0,0,.2.59,1.34,1.34,0,0,0,.69.41l1.26.43a3.61,3.61,0,0,1,.76.36,1.74,1.74,0,0,1,.49.43,1.46,1.46,0,0,1,.28.52,3,3,0,0,1,.12.65A2.17,2.17,0,0,1,42,163a3.21,3.21,0,0,1-2,.72,2.59,2.59,0,0,1-1.95-.44,2.23,2.23,0,0,1-.7-1.62l0-.32,1.58-.12Z"/>
    <path d="M44.32,155.34l.21,2.53h0a1.56,1.56,0,0,1,1.38-.87,1.49,1.49,0,0,1,1.14.31,1.73,1.73,0,0,1,.49,1.25l.36,4.37-1.51.12L46.07,159a1,1,0,0,0-.2-.63.62.62,0,0,0-.51-.14c-.53,0-.77.39-.72,1l.32,3.91-1.51.13-.64-7.83Z"/>
    <path d="M51.86,161.88a1.44,1.44,0,0,1-.57.68,2,2,0,0,1-.86.27,1.57,1.57,0,0,1-1.15-.29,1.72,1.72,0,0,1-.5-1.23l-.38-4.37,1.51-.13.36,4.06a.93.93,0,0,0,.21.63.6.6,0,0,0,.5.14q.81-.07.72-1l-.34-3.91,1.51-.13.52,5.89-1.45.13-.06-.69Z"/>
    <path d="M53.48,157.53l-.09-1,.77-.07-.07-.67a1.81,1.81,0,0,1,0-.68,1.21,1.21,0,0,1,.27-.47,1.28,1.28,0,0,1,.47-.28,2.57,2.57,0,0,1,.66-.13c.27,0,.53,0,.81,0l.1,1.07h-.3a.64.64,0,0,0-.43.16.4.4,0,0,0-.1.37l0,.51.88-.08.1,1-.87.08.45,4.86-1.5.15-.47-4.87Z"/>
    <path d="M56.7,157.22l-.11-1,.77-.08-.07-.67a1.83,1.83,0,0,1,.05-.68,1.08,1.08,0,0,1,.26-.47,1.27,1.27,0,0,1,.48-.28,2.49,2.49,0,0,1,.65-.14c.27,0,.54,0,.81,0l.11,1.07h-.3a.79.79,0,0,0-.44.16.43.43,0,0,0-.09.37l0,.52.88-.09.1,1L59,157l.49,4.87L58,162l-.49-4.86Z"/>
    <rect x="60.49" y="153.79" width="1.52" height="7.85" transform="translate(-16.29 7.34) rotate(-6.05)"/>
    <path d="M64.49,159.05a2.77,2.77,0,0,0,.1.5,1.6,1.6,0,0,0,.17.42.94.94,0,0,0,.27.29.6.6,0,0,0,.36.07.62.62,0,0,0,.52-.34,2,2,0,0,0,.15-.86l1.35-.16a2.34,2.34,0,0,1-.36,1.63,2.08,2.08,0,0,1-1.52.72,2.62,2.62,0,0,1-1.31-.12,1.73,1.73,0,0,1-.76-.65,2.71,2.71,0,0,1-.39-1q-.1-.56-.18-1.11a9,9,0,0,1,0-1.15,2.93,2.93,0,0,1,.22-1,1.83,1.83,0,0,1,.63-.76,2.57,2.57,0,0,1,1.19-.39,2.38,2.38,0,0,1,1.1.09,1.69,1.69,0,0,1,.74.52,2.48,2.48,0,0,1,.43.91,7.58,7.58,0,0,1,.23,1.22l0,.34-3,.34Zm1.27-2.13a1.43,1.43,0,0,0-.17-.43.57.57,0,0,0-.26-.25.75.75,0,0,0-.38-.05.66.66,0,0,0-.37.15.69.69,0,0,0-.2.3,1.23,1.23,0,0,0-.08.39,2,2,0,0,0,0,.42l0,.23,1.54-.17a5.27,5.27,0,0,0-.11-.59"/>
    <path d="M43.86,200a2.73,2.73,0,0,0,0,.5,1,1,0,0,0,.14.39.79.79,0,0,0,.31.26,1.19,1.19,0,0,0,.5.12,1,1,0,0,0,.67-.19.86.86,0,0,0,.34-.71,1.34,1.34,0,0,0,0-.46.86.86,0,0,0-.22-.36,1.57,1.57,0,0,0-.41-.31,5.92,5.92,0,0,0-.65-.3,6.55,6.55,0,0,1-.88-.44,2.68,2.68,0,0,1-.61-.53,1.89,1.89,0,0,1-.34-.68,2.63,2.63,0,0,1-.06-.86,2.18,2.18,0,0,1,.76-1.69,2.62,2.62,0,0,1,1.82-.45,3.63,3.63,0,0,1,1,.18,1.86,1.86,0,0,1,.74.42,1.71,1.71,0,0,1,.46.69,2.32,2.32,0,0,1,.12,1v.21L46,196.63a1.53,1.53,0,0,0-.14-.88.73.73,0,0,0-.64-.35,1.19,1.19,0,0,0-.44,0,.91.91,0,0,0-.3.19.85.85,0,0,0-.16.28,1.86,1.86,0,0,0-.06.34,1.23,1.23,0,0,0,.11.62,1.56,1.56,0,0,0,.63.5l1.19.6a4.37,4.37,0,0,1,.71.46,2.07,2.07,0,0,1,.42.49,1.4,1.4,0,0,1,.2.56,3.48,3.48,0,0,1,0,.66,2.18,2.18,0,0,1-.84,1.76,3.2,3.2,0,0,1-2,.44,2.65,2.65,0,0,1-1.88-.71,2.31,2.31,0,0,1-.47-1.71l0-.31,1.59.1Z"/>
    <polygon points="49.92 198.87 49.94 198.87 51.63 196.78 53.29 196.9 51.43 199.1 53.12 202.82 51.45 202.7 50.37 200.18 49.78 200.84 49.65 202.57 48.14 202.46 48.7 194.63 50.22 194.74 49.92 198.87"/>
    <path d="M55.59,197.08l-.46,5.9-1.52-.12.46-5.9Zm.15-2-.1,1.3-1.51-.12.1-1.3Z"/>
    <path d="M58.13,197.29l-.06.62h0a1.84,1.84,0,0,1,.62-.55,1.52,1.52,0,0,1,.79-.11,1.48,1.48,0,0,1,1.31.84,6.59,6.59,0,0,1-.4,4.73,1.5,1.5,0,0,1-1.43.6,1.65,1.65,0,0,1-.72-.22,1.63,1.63,0,0,1-.5-.56h0l-.2,2.44L56,205l.66-7.79ZM58,201.7a.63.63,0,0,0,.61.55.61.61,0,0,0,.68-.44,5.25,5.25,0,0,0,.28-1.44,5.51,5.51,0,0,0,0-1.46.63.63,0,0,0-.6-.54.61.61,0,0,0-.69.43,5.1,5.1,0,0,0-.27,1.44,5.19,5.19,0,0,0,0,1.46"/>
    <path d="M47.74,233.17a2.36,2.36,0,0,1,1,.41,1.88,1.88,0,0,1,.54.66,2.19,2.19,0,0,1,.2.81,3.61,3.61,0,0,1-.07.87,2.83,2.83,0,0,1-.4,1,1.88,1.88,0,0,1-.65.61,2,2,0,0,1-.85.26,3.74,3.74,0,0,1-1-.07l-.82-.18L45,240.61l-1.55-.33L45,232.6Zm-1.2,3.38a1,1,0,0,0,.8-.12,1.2,1.2,0,0,0,.47-.81,1.44,1.44,0,0,0-.06-.94,1.08,1.08,0,0,0-.77-.48l-.64-.13-.49,2.33Z"/>
    <polygon points="51.86 234.08 51.29 239.92 51.31 239.93 53.62 234.52 55.09 234.89 54.58 240.74 54.6 240.75 56.85 235.33 58.33 235.7 55.03 242.97 53.31 242.54 53.84 236.8 53.82 236.79 51.58 242.1 49.86 241.67 50.39 233.71 51.86 234.08"/>
    <polygon points="49.28 306.01 48.87 311.66 48.89 311.66 51.47 306.62 53.73 307.25 51.62 314.82 50.22 314.43 51.9 308.39 51.89 308.38 48.86 314.05 47.67 313.72 48.01 307.3 47.99 307.3 46.3 313.34 44.91 312.95 47.01 305.38 49.28 306.01"/>
    <path d="M55.69,315.31a1.38,1.38,0,0,1-.77.42,2,2,0,0,1-.9-.07,1.5,1.5,0,0,1-1-.69,1.72,1.72,0,0,1,0-1.32l1.26-4.21,1.45.43-1.16,3.91a1.06,1.06,0,0,0,0,.67.64.64,0,0,0,.42.31c.52.15.87-.08,1.05-.71l1.12-3.76,1.46.43-1.69,5.67L55.52,316l.2-.67Z"/>
    <path d="M61.9,310l-.5,1.62.83.26-.3,1-.84-.27-1,3.06a.87.87,0,0,0-.05.51c0,.11.16.2.37.27l.17.05.16,0-.31,1a2.85,2.85,0,0,0-.48-.13c-.15,0-.31-.08-.48-.14a4.19,4.19,0,0,1-.67-.27.78.78,0,0,1-.34-.36,1.21,1.21,0,0,1,0-.52,6.56,6.56,0,0,1,.17-.73l1-3.23-.74-.23.31-1,.74.23.5-1.61Z"/>
    <path d="M62.87,315.91a3.36,3.36,0,0,0-.13.5,1.83,1.83,0,0,0,0,.46.91.91,0,0,0,.13.37.5.5,0,0,0,.3.22.62.62,0,0,0,.62-.09,2.16,2.16,0,0,0,.49-.71l1.29.42a2.32,2.32,0,0,1-1,1.32,2.09,2.09,0,0,1-1.69,0,2.47,2.47,0,0,1-1.13-.66,1.63,1.63,0,0,1-.42-.9,2.7,2.7,0,0,1,.06-1.05c.08-.37.19-.73.3-1.08a7.83,7.83,0,0,1,.44-1.06,2.78,2.78,0,0,1,.62-.83,1.89,1.89,0,0,1,.89-.42,2.62,2.62,0,0,1,1.25.14,2.43,2.43,0,0,1,1,.55,1.53,1.53,0,0,1,.44.78,2.6,2.6,0,0,1,0,1,9,9,0,0,1-.3,1.19l-.11.33L63,315.47Zm2.05-1.39a1.92,1.92,0,0,0,0-.46.62.62,0,0,0-.14-.33.67.67,0,0,0-.33-.21.59.59,0,0,0-.39,0,.67.67,0,0,0-.31.19,1.16,1.16,0,0,0-.24.32,2.59,2.59,0,0,0-.17.38l-.07.22,1.47.49c.07-.22.11-.42.15-.58"/>
    <path d="M45.71,270.83l1.59.4L46.07,276l.72.18-.31,1.2-.72-.19-.4,1.57L44,278.42l.4-1.57-2.68-.69L42,274.9Zm-.33,1.95-2.21,2.49,1.49.39.73-2.87Z"/>
    <polygon points="52.52 274.59 50.27 276.95 51.02 280.31 49.49 279.9 49.15 277.8 47.79 279.43 46.27 279.01 48.62 276.5 47.9 273.32 49.42 273.74 49.73 275.68 50.99 274.17 52.52 274.59"/>
    <polygon points="60.58 274.97 60.21 276.21 57.52 275.4 56.98 277.17 59.51 277.93 59.13 279.18 56.61 278.41 55.62 281.67 54.1 281.21 56.38 273.69 60.58 274.97"/>
    <path d="M60,278.57a2.07,2.07,0,0,1,.42-.77,1.42,1.42,0,0,1,.6-.39,1.72,1.72,0,0,1,.72-.09,3,3,0,0,1,.81.16,4.11,4.11,0,0,1,1,.46,1.61,1.61,0,0,1,.5.56,1.2,1.2,0,0,1,.12.65,3.31,3.31,0,0,1-.15.72l-1,3a4.14,4.14,0,0,0-.16.63,2.2,2.2,0,0,0,0,.52l-1.39-.46a1.69,1.69,0,0,1,0-.32l0-.32h0a1.24,1.24,0,0,1-.77.38,2.24,2.24,0,0,1-.89-.15,1.56,1.56,0,0,1-.6-.33,1.18,1.18,0,0,1-.3-.5,1.91,1.91,0,0,1-.06-.59,2.6,2.6,0,0,1,.42-1.26,1.45,1.45,0,0,1,.42-.4,1.39,1.39,0,0,1,.55-.2,4,4,0,0,1,.72,0l.89,0a.93.93,0,0,0,.52-.09.61.61,0,0,0,.26-.38.78.78,0,0,0,0-.56.83.83,0,0,0-1-.32.89.89,0,0,0-.35.48l0,.16L60,278.71Zm1.86,2.16h-.33a1.21,1.21,0,0,0-.73.11.92.92,0,0,0-.38.54,1.23,1.23,0,0,0-.06.59.46.46,0,0,0,.34.37,1.07,1.07,0,0,0,.32.05,1,1,0,0,0,.34-.06.72.72,0,0,0,.3-.2,1,1,0,0,0,.21-.37l.37-1.11a1,1,0,0,1-.38.08"/>
    <path d="M65.31,283a.91.91,0,0,0,0,.65.74.74,0,0,0,.47.42.86.86,0,0,0,.59,0,.67.67,0,0,0,.37-.43.52.52,0,0,0,0-.46,1.35,1.35,0,0,0-.28-.36l-.88-.71a2,2,0,0,1-.68-.9,1.56,1.56,0,0,1,0-1.08,1.92,1.92,0,0,1,.34-.61,1.37,1.37,0,0,1,.55-.4,1.86,1.86,0,0,1,.77-.14,3,3,0,0,1,1,.2,2.28,2.28,0,0,1,1.3.92,1.59,1.59,0,0,1,0,1.34l-.08.22-1.28-.45a1.19,1.19,0,0,0,.08-.69.57.57,0,0,0-.42-.37.8.8,0,0,0-.53,0,.57.57,0,0,0-.36.38.61.61,0,0,0,0,.42,1.06,1.06,0,0,0,.4.45l.75.6a2.12,2.12,0,0,1,.75.93,1.71,1.71,0,0,1-.08,1.1,1.82,1.82,0,0,1-.43.72,1.63,1.63,0,0,1-.62.39,1.73,1.73,0,0,1-.76.08,3.2,3.2,0,0,1-.87-.2,3.9,3.9,0,0,1-1-.47A1.56,1.56,0,0,1,64,284a1.19,1.19,0,0,1-.13-.67,2.86,2.86,0,0,1,.16-.77l.07-.19,1.29.45Z"/>
    <path d="M72.66,279.42l-.6,1.58.82.32-.36,1L71.7,282l-1.14,3a.86.86,0,0,0-.08.51.51.51,0,0,0,.35.29l.17.06.16,0-.37,1-.47-.16c-.15,0-.31-.1-.47-.16a4,4,0,0,1-.65-.31.77.77,0,0,1-.32-.38,1,1,0,0,1,0-.52,4.15,4.15,0,0,1,.21-.72l1.2-3.17-.71-.27.36-1,.72.28.6-1.59Z"/>
    <path d="M31.5,27.37a2.17,2.17,0,0,1,1.33.92,2,2,0,0,1,.1,1.62,2.45,2.45,0,0,1-.68,1.14,1.52,1.52,0,0,1-1.14.34v0a1.45,1.45,0,0,1,.72.61,1.61,1.61,0,0,1,.05,1c0,.14-.06.3-.1.47s-.09.35-.15.56q-.15.6-.21.93a.62.62,0,0,0,.15.52l0,.06-1.65-.49a.94.94,0,0,1,0-.41,3.82,3.82,0,0,1,.09-.44l.39-1.45a1.33,1.33,0,0,0,0-.77.86.86,0,0,0-.6-.45l-.81-.25-1,3.19-1.52-.46,2.25-7.52Zm-1.64,3.09a1.28,1.28,0,0,0,.93,0,1.15,1.15,0,0,0,.55-.78,1,1,0,0,0-.74-1.36l-.72-.21-.65,2.17Z"/>
    <path d="M34.06,34.55a5.06,5.06,0,0,0-.24.46,1.93,1.93,0,0,0-.12.44.94.94,0,0,0,0,.38.55.55,0,0,0,.24.28.62.62,0,0,0,.62.07,2.1,2.1,0,0,0,.65-.59l1.16.71a2.35,2.35,0,0,1-1.29,1.06A2.09,2.09,0,0,1,33.47,37a2.46,2.46,0,0,1-.95-.91,1.61,1.61,0,0,1-.2-1,2.79,2.79,0,0,1,.3-1c.17-.33.35-.66.54-1a6.55,6.55,0,0,1,.68-.93,2.73,2.73,0,0,1,.79-.66,1.74,1.74,0,0,1,1-.21,2.55,2.55,0,0,1,1.18.43,2.29,2.29,0,0,1,.81.75,1.6,1.6,0,0,1,.25.87,2.66,2.66,0,0,1-.21,1A8.37,8.37,0,0,1,37,35.43l-.18.3-2.55-1.58Zm2.32-.89a1.6,1.6,0,0,0,.13-.43.61.61,0,0,0,0-.36.75.75,0,0,0-.28-.28.68.68,0,0,0-.37-.11.85.85,0,0,0-.35.11,1.48,1.48,0,0,0-.31.26,2.6,2.6,0,0,0-.25.33l-.12.2,1.32.82c.11-.2.21-.38.28-.54"/>
    <path d="M37.73,37.88a1,1,0,0,0-.29.58.78.78,0,0,0,.25.59.91.91,0,0,0,.52.27.65.65,0,0,0,.52-.23.51.51,0,0,0,.19-.42,1.4,1.4,0,0,0-.1-.44l-.49-1a2,2,0,0,1-.23-1.11,1.67,1.67,0,0,1,.5-1,2.18,2.18,0,0,1,.57-.4,1.41,1.41,0,0,1,.67-.13,2.1,2.1,0,0,1,.76.2,3,3,0,0,1,.8.61,2.26,2.26,0,0,1,.78,1.39A1.63,1.63,0,0,1,41.65,38l-.17.17-1-1a1.2,1.2,0,0,0,.37-.59.59.59,0,0,0-.22-.52.86.86,0,0,0-.46-.24.57.57,0,0,0-.49.19.66.66,0,0,0-.19.38,1.18,1.18,0,0,0,.16.57l.43.87a2,2,0,0,1,.27,1.16,1.63,1.63,0,0,1-.54,1,1.85,1.85,0,0,1-.69.47,1.66,1.66,0,0,1-1.45-.18,3.44,3.44,0,0,1-.7-.55,4.15,4.15,0,0,1-.67-.84,1.65,1.65,0,0,1-.22-.73,1.44,1.44,0,0,1,.17-.66,3.24,3.24,0,0,1,.48-.62l.15-.14,1,1Z"/>
    <path d="M38.39,42.31a.72.72,0,0,0,.5.39,1,1,0,0,0,.61-.13L43.62,38l.85,1.34-3,2.93v0l3.87-1.54.81,1.29-5.44,1.74c-.48.14-.88.25-1.21.31a2.06,2.06,0,0,1-.82,0,1.18,1.18,0,0,1-.59-.32,5.22,5.22,0,0,1-.54-.7l-.32-.52,1-.61a3.9,3.9,0,0,0,.19.35"/>
    <path d="M47.28,44.85l-.65.22v0a1.54,1.54,0,0,1,.81.39,1.8,1.8,0,0,1,.47.78,1.49,1.49,0,0,1,0,1.18,1.82,1.82,0,0,1-1.1.78L42.63,49.6l-.49-1.44L46,46.87a1,1,0,0,0,.56-.35.61.61,0,0,0,0-.52c-.17-.51-.56-.66-1.19-.46l-3.72,1.24-.48-1.44,5.61-1.87Z"/>
    <path d="M47.13,52.68a1.4,1.4,0,0,0,.36-.13.57.57,0,0,0,.26-.22.52.52,0,0,0,.08-.36.69.69,0,0,0-.16-.44.77.77,0,0,0-.39-.24,2.77,2.77,0,0,0-.64-.07l-.89,0a9.09,9.09,0,0,0-.94.11,2.74,2.74,0,0,0-.63.16.72.72,0,0,0-.35.28.63.63,0,0,0-.08.42.59.59,0,0,0,.37.53,2.41,2.41,0,0,0,1.06.1l.11,1.45a2.69,2.69,0,0,1-1.81-.39,2.22,2.22,0,0,1-.74-1.69,3.49,3.49,0,0,1,.07-1,1.42,1.42,0,0,1,.44-.74,2.42,2.42,0,0,1,.92-.49,6.12,6.12,0,0,1,1.48-.25,5.57,5.57,0,0,1,1.52.06,2.51,2.51,0,0,1,1,.42,1.82,1.82,0,0,1,.56.73,3.4,3.4,0,0,1,.21.95,2,2,0,0,1-.5,1.63,2.45,2.45,0,0,1-1.62.65l-.11-1.44.43-.06"/>
    <path d="M17.46,8.63A4.54,4.54,0,1,0,22,4.09,4.53,4.53,0,0,0,17.46,8.63Z"/>
    <path d="M17.46,355.87A4.54,4.54,0,1,0,22,351.34,4.54,4.54,0,0,0,17.46,355.87Z"/>
    <g>
      <path d="M74.54,8.6l-5.39,6.85V9.58a1.25,1.25,0,0,0-.62-1.14.89.89,0,0,0-1.11.28l-7.08,9a1.44,1.44,0,0,0,0,1.74.88.88,0,0,0,1.42,0s3.38-4.29,5.35-6.81v5.88a1.26,1.26,0,0,0,.63,1.14.88.88,0,0,0,1.1-.29l5.39-6.85v6a1,1,0,1,0,2,0v-9a1.26,1.26,0,0,0-.63-1.15A.89.89,0,0,0,74.54,8.6Z" style="fill: #00adee;stroke: #00adee;stroke-width: 0.75px"/>
      <path d="M60.34,8.53l-4.69,6a1.43,1.43,0,0,0,0,1.74.87.87,0,0,0,1.42,0l3-3.77v6.14a1,1,0,1,0,2,0V9.39a1.26,1.26,0,0,0-.63-1.15A.89.89,0,0,0,60.34,8.53Z" style="fill: #ec1c24;stroke: #ec1c24;stroke-width: 0.75px"/>
      <path d="M82.69,12.93a1,1,0,0,0-.92-.75h-2l1.5-1.9s.78-1.14.09-1.77-1.54.06-1.54.06l-3.14,4a1.45,1.45,0,0,0-.21,1.34,1,1,0,0,0,.93.75H79.4L77,17.74s-1,1.1-.26,1.84,1.71-.13,1.71-.13l4.07-5.18A1.44,1.44,0,0,0,82.69,12.93Z" style="fill: #00a551;stroke: #00a551;stroke-width: 0.75px"/>
    </g>
  </g>
  <g id="components">
    <circle id="Mute" cx="89.42" cy="325.47" r="10.63" style="fill: #ff8000"/>
    <circle id="Mute_Jack" data-name="Mute Jack" cx="22.03" cy="306.12" r="11.34" style="fill: #80ff80"/>
    <circle id="_4x_Fast" data-name="4x Fast" cx="89.42" cy="291.84" r="10.63" style="fill: #ff8000"/>
    <circle id="_4x_Fast_Jack" data-name="4x Fast Jack" cx="22.03" cy="270.12" r="11.34" style="fill: #80ff80"/>
    <circle id="PW" cx="88.57" cy="254.01" r="17.01" style="fill: #ff0040"/>
    <circle id="PW_Jack" data-name="PW Jack" cx="22.03" cy="234.12" r="11.34" style="fill: lime"/>
    <circle id="Skip" cx="88.57" cy="204.04" r="17.01" style="fill: #ff0020"/>
    <circle id="Skip_Jack" data-name="Skip Jack" cx="22.03" cy="198.12" r="11.34" style="fill: lime"/>
    <circle id="Shuffle" cx="88.57" cy="154.07" r="17.01" style="fill: #ff0020"/>
    <circle id="Shuffle_Jack" data-name="Shuffle Jack" cx="22.03" cy="162.12" r="11.34" style="fill: lime"/>
    <circle id="Slip" cx="88.57" cy="104.09" r="17.01" style="fill: #ff0040"/>
    <circle id="Slip_Jack" data-name="Slip Jack" cx="22.03" cy="126.12" r="11.34" style="fill: lime"/>
    <circle id="Rotate" cx="88.57" cy="54.12" r="17.01" style="fill: red"/>
    <circle id="Rotate_Jack" data-name="Rotate Jack" cx="22.03" cy="90.12" r="11.34" style="fill: lime"/>
    <circle id="Resync" cx="22.03" cy="54.12" r="11.34" style="fill: #80ff80"/>
    <text id="slug" transform="translate(26.09 371.84)" style="font-size: 6px;font-family: MyriadPro-Regular, Myriad Pro">SCMBO</text>
    <text id="modulename" transform="translate(50.61 371.84)" style="font-size: 6px;font-family: MyriadPro-Regular, Myriad Pro">SCM B<tspan x="15.79" y="0" style="letter-spacing: -0.010091145833333334em">r</tspan><tspan x="17.69" y="0">eakout</tspan></text>
  </g>
</svg>
