<svg xmlns="http://www.w3.org/2000/svg" width="40.73mm" height="130.6mm" viewBox="0 0 115.45 370.19">
  <g id="faceplate">
    <rect x="0.13" y="0.13" width="115.2" height="364.25" style="fill: #ededed;stroke: #9d9d9e;stroke-miterlimit: 10;stroke-width: 0.25px"/>
    <g>
      <path d="M49.29,355.31a2.32,2.32,0,0,1-.29,1.2,1.9,1.9,0,0,1-.82.79,2.56,2.56,0,0,1-1.2.27l-.46,0a4.27,4.27,0,0,1-.73-.17,4.65,4.65,0,0,1-.95-.39v-1.83a6.26,6.26,0,0,0,.91.58,2.06,2.06,0,0,0,1,.23.74.74,0,0,0,.61-.19.62.62,0,0,0-.1-.86,3.18,3.18,0,0,0-.7-.43,5.77,5.77,0,0,1-.88-.56A2.47,2.47,0,0,1,45,351a1.91,1.91,0,0,1,.74-.78,2.38,2.38,0,0,1,1.21-.29,3.21,3.21,0,0,1,1,.13,3.31,3.31,0,0,1,.71.27,3.65,3.65,0,0,1,.39.23v1.75a5,5,0,0,0-.83-.59,2,2,0,0,0-1-.25.67.67,0,0,0-.5.16.54.54,0,0,0-.15.39.56.56,0,0,0,.15.39,3.89,3.89,0,0,0,.55.39,11.5,11.5,0,0,1,1.13.72,2.59,2.59,0,0,1,.66.75A2.09,2.09,0,0,1,49.29,355.31Z" transform="translate(0)"/>
      <path d="M55.15,357.47h-4.6V350h4.52v1.49H52.39v1.36H55v1.5H52.39V356h2.76Z" transform="translate(0)"/>
      <path d="M63,357.47H61.37l-3.16-4.15v4.15H56.38V350H58l3.15,4.12V350H63Z" transform="translate(0)"/>
      <path d="M70.82,353.88a4.14,4.14,0,0,1-.34,1.84,3.76,3.76,0,0,1-.81,1.12,2.53,2.53,0,0,1-1.83.63h-3.3V350h2.54a5.55,5.55,0,0,1,1,.07,4.26,4.26,0,0,1,.73.2,2.65,2.65,0,0,1,.56.3,3.58,3.58,0,0,1,.41.35,3.24,3.24,0,0,1,.55.74,4.17,4.17,0,0,1,.37,1A5.15,5.15,0,0,1,70.82,353.88ZM69,353.79a2.92,2.92,0,0,0-.29-1.42,1.48,1.48,0,0,0-.68-.68,2.14,2.14,0,0,0-.81-.17h-.79v4.41h.79a2,2,0,0,0,1.25-.42A2.15,2.15,0,0,0,69,353.79Z" transform="translate(0)"/>
    </g>
    <path d="M103,57.11h2.26A21.88,21.88,0,0,0,102.81,48l-2,1.12A19.6,19.6,0,0,1,103,57.11Z" transform="translate(0)"/>
    <path d="M103,59.11a19.55,19.55,0,0,1-2.13,8l2,1.13a21.88,21.88,0,0,0,2.44-9.12Z" transform="translate(0)"/>
    <g>
      <path d="M22.1,85.88H17.57V79.12h1.8v5.14H22.1Z" transform="translate(0)"/>
      <path d="M27,83.82H23.94a1.28,1.28,0,0,0,.44.75,1.24,1.24,0,0,0,.8.28,3.78,3.78,0,0,0,1.73-.49v1.08a4,4,0,0,1-.83.37,3.86,3.86,0,0,1-1.23.16,2.6,2.6,0,0,1-1.37-.34,2.18,2.18,0,0,1-.85-.93,3.25,3.25,0,0,1,0-2.64,2.11,2.11,0,0,1,.85-.9,2.7,2.7,0,0,1,1.37-.33,2.1,2.1,0,0,1,1,.26,2,2,0,0,1,.82.85A3.28,3.28,0,0,1,27,83.47ZM25.57,83a1.27,1.27,0,0,0-.21-.76.7.7,0,0,0-.6-.29.77.77,0,0,0-.63.3,1.18,1.18,0,0,0-.23.75Z" transform="translate(0)"/>
      <path d="M32,80.91l-2,5H28.91l-1.95-5h1.66l.91,2.61,1-2.61Z" transform="translate(0)"/>
      <path d="M36.69,83.82H33.61a1.28,1.28,0,0,0,.44.75,1.26,1.26,0,0,0,.8.28,3.78,3.78,0,0,0,1.73-.49v1.08a4.19,4.19,0,0,1-.82.37,3.86,3.86,0,0,1-1.23.16,2.62,2.62,0,0,1-1.38-.34,2.18,2.18,0,0,1-.85-.93,3.25,3.25,0,0,1,0-2.64,2.11,2.11,0,0,1,.85-.9,2.71,2.71,0,0,1,1.38-.33,2.13,2.13,0,0,1,1,.26,2,2,0,0,1,.81.85,3.16,3.16,0,0,1,.32,1.53ZM35.24,83a1.27,1.27,0,0,0-.21-.76.7.7,0,0,0-.6-.29.75.75,0,0,0-.62.3,1.13,1.13,0,0,0-.24.75Z" transform="translate(0)"/>
      <path d="M38.73,85.88H37.18V79.12h1.55Z" transform="translate(0)"/>
      <path d="M44.63,85.88H43V79.12h1.62Z" transform="translate(0)"/>
    </g>
    <g>
      <path d="M40.74,40.53l1.12-2a21.89,21.89,0,0,0-9.12-2.45v2.26A19.61,19.61,0,0,1,40.74,40.53Z" transform="translate(0)"/>
      <path d="M48.32,47.38l2-1.12a22.13,22.13,0,0,0-6.67-6.68l-1.13,2A19.89,19.89,0,0,1,48.32,47.38Z" transform="translate(0)"/>
      <path d="M21,41.53l-1.13-2a22.17,22.17,0,0,0-6.68,6.68l1.95,1.12A19.93,19.93,0,0,1,21,41.53Z" transform="translate(0)"/>
      <path d="M51.46,57.11h2.26A21.89,21.89,0,0,0,51.27,48l-2,1.12A19.45,19.45,0,0,1,51.46,57.11Z" transform="translate(0)"/>
      <path d="M30.74,38.39V36.13a21.89,21.89,0,0,0-9.12,2.45l1.13,2A19.6,19.6,0,0,1,30.74,38.39Z" transform="translate(0)"/>
      <path d="M15.16,68.84,13.21,70a22.17,22.17,0,0,0,6.68,6.68l1.13-2A20,20,0,0,1,15.16,68.84Z" transform="translate(0)"/>
      <path d="M42.47,74.69l1.13,2A22.13,22.13,0,0,0,50.27,70l-2-1.12A20,20,0,0,1,42.47,74.69Z" transform="translate(0)"/>
      <path d="M51.46,59.11a19.41,19.41,0,0,1-2.14,8l2,1.13a21.89,21.89,0,0,0,2.45-9.12Z" transform="translate(0)"/>
      <path d="M12,59.11H9.77a21.88,21.88,0,0,0,2.44,9.12l1.95-1.13A19.55,19.55,0,0,1,12,59.11Z" transform="translate(0)"/>
      <path d="M14.16,49.11,12.21,48a21.88,21.88,0,0,0-2.44,9.12H12A19.6,19.6,0,0,1,14.16,49.11Z" transform="translate(0)"/>
    </g>
    <g>
      <path d="M73.63,85.88H69.1V79.12h1.8v5.14h2.73Z" transform="translate(0)"/>
      <path d="M78.55,83.82H75.47a1.28,1.28,0,0,0,.44.75,1.26,1.26,0,0,0,.8.28,3.75,3.75,0,0,0,1.73-.49v1.08a3.94,3.94,0,0,1-.82.37,3.86,3.86,0,0,1-1.23.16A2.62,2.62,0,0,1,75,85.63a2.18,2.18,0,0,1-.85-.93,3.25,3.25,0,0,1,0-2.64,2.11,2.11,0,0,1,.85-.9,2.71,2.71,0,0,1,1.38-.33,2.13,2.13,0,0,1,1,.26,2,2,0,0,1,.81.85,3.16,3.16,0,0,1,.32,1.53ZM77.1,83a1.27,1.27,0,0,0-.21-.76.7.7,0,0,0-.6-.29.76.76,0,0,0-.62.3,1.13,1.13,0,0,0-.24.75Z" transform="translate(0)"/>
      <path d="M83.57,80.91l-2,5H80.44l-2-5h1.67l.9,2.61,1-2.61Z" transform="translate(0)"/>
      <path d="M88.23,83.82H85.15a1.23,1.23,0,0,0,.44.75,1.22,1.22,0,0,0,.8.28,3.74,3.74,0,0,0,1.72-.49v1.08a3.94,3.94,0,0,1-.82.37,3.86,3.86,0,0,1-1.23.16,2.56,2.56,0,0,1-1.37-.34,2.12,2.12,0,0,1-.85-.93,3.25,3.25,0,0,1,0-2.64,2,2,0,0,1,.85-.9,2.65,2.65,0,0,1,1.37-.33,2.1,2.1,0,0,1,1,.26,2,2,0,0,1,.82.85,3.28,3.28,0,0,1,.32,1.53ZM86.77,83a1.34,1.34,0,0,0-.2-.76.7.7,0,0,0-.6-.29.77.77,0,0,0-.63.3,1.13,1.13,0,0,0-.24.75Z" transform="translate(0)"/>
      <path d="M90.26,85.88H88.71V79.12h1.55Z" transform="translate(0)"/>
      <path d="M97.63,85.88H93.1v-.13c.18-.19.37-.42.58-.69s.48-.62.81-1.06c.15-.19.29-.39.42-.58a5.08,5.08,0,0,0,.35-.56,4.17,4.17,0,0,0,.24-.6,2.53,2.53,0,0,0,.1-.67,1.17,1.17,0,0,0-.24-.76.76.76,0,0,0-.61-.29,2,2,0,0,0-1.45.86V79.81l.41-.3a2.71,2.71,0,0,1,.38-.22A2.57,2.57,0,0,1,95.23,79a2,2,0,0,1,1,.26,1.74,1.74,0,0,1,.7.72,2.33,2.33,0,0,1,.26,1.11,2.84,2.84,0,0,1-.12.84,4.22,4.22,0,0,1-.24.63c-.08.16-.19.36-.33.59-.25.42-.51.82-.79,1.2h1.93Z" transform="translate(0)"/>
    </g>
    <path d="M92.27,40.53l1.13-2a21.89,21.89,0,0,0-9.12-2.45v2.26A19.56,19.56,0,0,1,92.27,40.53Z" transform="translate(0)"/>
    <path d="M99.86,47.38l2-1.12a22.17,22.17,0,0,0-6.68-6.68l-1.13,2A19.93,19.93,0,0,1,99.86,47.38Z" transform="translate(0)"/>
    <path d="M72.55,41.53l-1.13-2a22.13,22.13,0,0,0-6.67,6.68l2,1.12A19.89,19.89,0,0,1,72.55,41.53Z" transform="translate(0)"/>
    <path d="M82.28,38.39V36.13a21.89,21.89,0,0,0-9.12,2.45l1.12,2A19.61,19.61,0,0,1,82.28,38.39Z" transform="translate(0)"/>
    <path d="M66.7,68.84l-2,1.12a22.13,22.13,0,0,0,6.67,6.68l1.13-2A20,20,0,0,1,66.7,68.84Z" transform="translate(0)"/>
    <path d="M94,74.69l1.13,2A22.17,22.17,0,0,0,101.81,70l-2-1.12A20,20,0,0,1,94,74.69Z" transform="translate(0)"/>
    <path d="M63.56,59.11H61.3a21.89,21.89,0,0,0,2.45,9.12l2-1.13A19.41,19.41,0,0,1,63.56,59.11Z" transform="translate(0)"/>
    <path d="M65.7,49.11l-2-1.12a21.89,21.89,0,0,0-2.45,9.12h2.26A19.45,19.45,0,0,1,65.7,49.11Z" transform="translate(0)"/>
    <g>
      <path d="M22.1,147.2H17.57v-6.77h1.8v5.15H22.1Z" transform="translate(0)"/>
      <path d="M27,145.14H23.94a1.27,1.27,0,0,0,1.24,1,3.8,3.8,0,0,0,1.73-.5v1.09a4.68,4.68,0,0,1-.83.36,3.83,3.83,0,0,1-1.23.17,2.61,2.61,0,0,1-1.37-.35,2.1,2.1,0,0,1-.85-.92,3,3,0,0,1-.28-1.33,2.9,2.9,0,0,1,.28-1.31,2.08,2.08,0,0,1,.85-.91,2.7,2.7,0,0,1,1.37-.33,2.22,2.22,0,0,1,1,.26,2,2,0,0,1,.82.85,3.29,3.29,0,0,1,.32,1.54Zm-1.45-.87a1.28,1.28,0,0,0-.21-.77.7.7,0,0,0-.6-.28.79.79,0,0,0-.63.29,1.21,1.21,0,0,0-.23.76Z" transform="translate(0)"/>
      <path d="M32,142.23l-2,5H28.91l-1.95-5h1.66l.91,2.6,1-2.6Z" transform="translate(0)"/>
      <path d="M36.69,145.14H33.61a1.27,1.27,0,0,0,1.24,1,3.8,3.8,0,0,0,1.73-.5v1.09a4.9,4.9,0,0,1-.82.36,3.83,3.83,0,0,1-1.23.17,2.62,2.62,0,0,1-1.38-.35,2.1,2.1,0,0,1-.85-.92,3.16,3.16,0,0,1-.28-1.33,3,3,0,0,1,.28-1.31,2.08,2.08,0,0,1,.85-.91,2.71,2.71,0,0,1,1.38-.33,2.25,2.25,0,0,1,1,.26,2,2,0,0,1,.81.85,3.17,3.17,0,0,1,.32,1.54Zm-1.45-.87a1.28,1.28,0,0,0-.21-.77.7.7,0,0,0-.6-.28.77.77,0,0,0-.62.29,1.15,1.15,0,0,0-.24.76Z" transform="translate(0)"/>
      <path d="M38.73,147.2H37.18v-6.77h1.55Z" transform="translate(0)"/>
      <path d="M45.73,145.32a2.11,2.11,0,0,1-.19.91,1.74,1.74,0,0,1-.49.61,1.89,1.89,0,0,1-.64.34,2.23,2.23,0,0,1-.66.11,3.72,3.72,0,0,1-1-.15,4,4,0,0,1-.92-.34v-1.52a2.9,2.9,0,0,0,.65.47,1.45,1.45,0,0,0,.72.2.85.85,0,0,0,.76-.41.9.9,0,0,0,0-.84.78.78,0,0,0-.35-.32,1.08,1.08,0,0,0-.52-.12h-.2v-1.09h.23a.87.87,0,0,0,.5-.13.84.84,0,0,0,.28-.32.73.73,0,0,0,.08-.34.85.85,0,0,0-.2-.55.71.71,0,0,0-.54-.23,1.75,1.75,0,0,0-.62.12,2.61,2.61,0,0,0-.6.35v-1.3a5.46,5.46,0,0,1,.79-.32,3.11,3.11,0,0,1,.84-.11,2,2,0,0,1,1.13.3,1.88,1.88,0,0,1,.87,1.51,1.61,1.61,0,0,1-.12.6,2,2,0,0,1-.3.54,1.9,1.9,0,0,1-.39.37,2.07,2.07,0,0,1,.63.59A1.84,1.84,0,0,1,45.73,145.32Z" transform="translate(0)"/>
    </g>
    <path d="M40.74,101.93l1.12-2a21.73,21.73,0,0,0-9.12-2.44v2.25A19.77,19.77,0,0,1,40.74,101.93Z" transform="translate(0)"/>
    <path d="M48.32,108.78l2-1.12A22.13,22.13,0,0,0,43.6,101l-1.13,2A19.89,19.89,0,0,1,48.32,108.78Z" transform="translate(0)"/>
    <path d="M21,102.93l-1.13-2a22.17,22.17,0,0,0-6.68,6.68l1.95,1.12A19.93,19.93,0,0,1,21,102.93Z" transform="translate(0)"/>
    <path d="M51.46,118.51h2.26a21.89,21.89,0,0,0-2.45-9.12l-2,1.12A19.49,19.49,0,0,1,51.46,118.51Z" transform="translate(0)"/>
    <path d="M30.74,99.79V97.54A21.73,21.73,0,0,0,21.62,100l1.13,2A19.76,19.76,0,0,1,30.74,99.79Z" transform="translate(0)"/>
    <path d="M15.16,130.24l-1.95,1.12A22.17,22.17,0,0,0,19.89,138L21,136.09A19.93,19.93,0,0,1,15.16,130.24Z" transform="translate(0)"/>
    <path d="M42.47,136.09,43.6,138a22.13,22.13,0,0,0,6.67-6.68l-2-1.12A19.89,19.89,0,0,1,42.47,136.09Z" transform="translate(0)"/>
    <path d="M51.46,120.51a19.49,19.49,0,0,1-2.14,8l2,1.12a21.89,21.89,0,0,0,2.45-9.12Z" transform="translate(0)"/>
    <path d="M12,120.51H9.77a21.88,21.88,0,0,0,2.44,9.12l1.95-1.12A19.64,19.64,0,0,1,12,120.51Z" transform="translate(0)"/>
    <path d="M14.16,110.51l-1.95-1.12a21.88,21.88,0,0,0-2.44,9.12H12A19.64,19.64,0,0,1,14.16,110.51Z" transform="translate(0)"/>
    <g>
      <path d="M73.63,147.2H69.1v-6.77h1.8v5.15h2.73Z" transform="translate(0)"/>
      <path d="M78.55,145.14H75.47a1.27,1.27,0,0,0,1.24,1,3.77,3.77,0,0,0,1.73-.5v1.09a4.56,4.56,0,0,1-.82.36,3.83,3.83,0,0,1-1.23.17,2.62,2.62,0,0,1-1.38-.35,2.1,2.1,0,0,1-.85-.92,3.16,3.16,0,0,1-.28-1.33,3,3,0,0,1,.28-1.31,2.08,2.08,0,0,1,.85-.91,2.71,2.71,0,0,1,1.38-.33,2.25,2.25,0,0,1,1,.26,2,2,0,0,1,.81.85,3.17,3.17,0,0,1,.32,1.54Zm-1.45-.87a1.28,1.28,0,0,0-.21-.77.7.7,0,0,0-.6-.28.78.78,0,0,0-.62.29,1.15,1.15,0,0,0-.24.76Z" transform="translate(0)"/>
      <path d="M83.57,142.23l-2,5H80.44l-2-5h1.67l.9,2.6,1-2.6Z" transform="translate(0)"/>
      <path d="M88.23,145.14H85.15a1.21,1.21,0,0,0,.44.74,1.23,1.23,0,0,0,.8.29,3.77,3.77,0,0,0,1.72-.5v1.09a4.56,4.56,0,0,1-.82.36,3.83,3.83,0,0,1-1.23.17,2.56,2.56,0,0,1-1.37-.35,2,2,0,0,1-.85-.92,3,3,0,0,1-.28-1.33,2.9,2.9,0,0,1,.28-1.31,2,2,0,0,1,.85-.91,2.65,2.65,0,0,1,1.37-.33,2.22,2.22,0,0,1,1,.26,2,2,0,0,1,.82.85,3.29,3.29,0,0,1,.32,1.54Zm-1.46-.87a1.35,1.35,0,0,0-.2-.77.7.7,0,0,0-.6-.28.79.79,0,0,0-.63.29,1.15,1.15,0,0,0-.24.76Z" transform="translate(0)"/>
      <path d="M90.26,147.2H88.71v-6.77h1.55Z" transform="translate(0)"/>
      <path d="M97.65,145.74H97v1.46H95.36v-1.46H93v-1.29l2.72-4H97v4.15h.7Zm-2.29-1.16v-2.17l-1.47,2.17Z" transform="translate(0)"/>
    </g>
    <path d="M92.27,101.93l1.13-2a21.73,21.73,0,0,0-9.12-2.44v2.25A19.72,19.72,0,0,1,92.27,101.93Z" transform="translate(0)"/>
    <path d="M99.86,108.78l2-1.12A22.17,22.17,0,0,0,95.13,101l-1.13,2A19.93,19.93,0,0,1,99.86,108.78Z" transform="translate(0)"/>
    <path d="M72.55,102.93l-1.13-2a22.13,22.13,0,0,0-6.67,6.68l2,1.12A19.89,19.89,0,0,1,72.55,102.93Z" transform="translate(0)"/>
    <path d="M103,118.51h2.26a21.88,21.88,0,0,0-2.44-9.12l-2,1.12A19.64,19.64,0,0,1,103,118.51Z" transform="translate(0)"/>
    <path d="M82.28,99.79V97.54A21.73,21.73,0,0,0,73.16,100l1.12,2A19.77,19.77,0,0,1,82.28,99.79Z" transform="translate(0)"/>
    <path d="M66.7,130.24l-2,1.12A22.13,22.13,0,0,0,71.42,138l1.13-1.95A19.89,19.89,0,0,1,66.7,130.24Z" transform="translate(0)"/>
    <path d="M94,136.09,95.13,138a22.17,22.17,0,0,0,6.68-6.68l-2-1.12A19.93,19.93,0,0,1,94,136.09Z" transform="translate(0)"/>
    <path d="M103,120.51a19.64,19.64,0,0,1-2.13,8l2,1.12a21.88,21.88,0,0,0,2.44-9.12Z" transform="translate(0)"/>
    <path d="M63.56,120.51H61.3a21.89,21.89,0,0,0,2.45,9.12l2-1.12A19.49,19.49,0,0,1,63.56,120.51Z" transform="translate(0)"/>
    <path d="M65.7,110.51l-2-1.12a21.89,21.89,0,0,0-2.45,9.12h2.26A19.49,19.49,0,0,1,65.7,110.51Z" transform="translate(0)"/>
    <g>
      <path d="M63.34,8.16l-5.53,7v-6A1.29,1.29,0,0,0,57.17,8,.89.89,0,0,0,56,8.28l-7.28,9.25a1.49,1.49,0,0,0,0,1.79.91.91,0,0,0,1.46,0l5.5-7v6a1.29,1.29,0,0,0,.64,1.17.91.91,0,0,0,1.14-.3l5.53-7v6.16a1.05,1.05,0,1,0,2.06,0V9a1.29,1.29,0,0,0-.65-1.18A.91.91,0,0,0,63.34,8.16Z" transform="translate(0)" style="stroke: #000;stroke-width: 0.6000000000000001px"/>
      <path d="M48.76,8.09,44,14.21A1.47,1.47,0,0,0,44,16a.9.9,0,0,0,1.46,0l3-3.87v6.31a1.05,1.05,0,1,0,2.06,0V9a1.29,1.29,0,0,0-.65-1.17A.91.91,0,0,0,48.76,8.09Z" transform="translate(0)" style="stroke: #000;stroke-width: 0.6000000000000001px"/>
      <path d="M71.71,12.61a1,1,0,0,0-.95-.78h-2.1l1.53-1.95s.8-1.17.1-1.82a1.27,1.27,0,0,0-1.58.06l-3.23,4.1a1.47,1.47,0,0,0-.2,1.38,1.05,1.05,0,0,0,1,.77h2.1l-2.49,3.17s-1,1.13-.27,1.89,1.75-.14,1.75-.14L71.5,14A1.48,1.48,0,0,0,71.71,12.61Z" transform="translate(0)" style="stroke: #000;stroke-width: 0.6000000000000001px"/>
    </g>
    <path d="M17.77,253.3a19.31,19.31,0,0,0-2.19,8.46l-.07,6.64v-2.92l-.18,9.39,0,0v11A5.68,5.68,0,0,0,21,291.48H94.11a5.5,5.5,0,0,0,5.65-5.32V260.55a15.64,15.64,0,0,0-2-7.6h0l-.28-.49c-.08-.14-.17-.28-.26-.41L74.91,210.73c-5.19-8.14-8.37-12.67-17-12.67s-12.73,5.19-17,12.67Z" transform="translate(0)" style="fill: none;stroke: #000;stroke-miterlimit: 10"/>
    <g>
      <path d="M50.91,239.83H49.48v-5.41h1.43Z" transform="translate(0)"/>
      <path d="M55.37,239.83H54.13v-2.14a1.72,1.72,0,0,0-.09-.58.41.41,0,0,0-.42-.24.6.6,0,0,0-.27.06,1.06,1.06,0,0,0-.2.17,1.3,1.3,0,0,0-.15.2,1.27,1.27,0,0,0-.13.19v2.34H51.63v-4h1.24v.57a1.8,1.8,0,0,1,.58-.49,1.45,1.45,0,0,1,.66-.15q1.26,0,1.26,1.71Z" transform="translate(0)"/>
      <path d="M59.67,237.81a2.76,2.76,0,0,1-.1.77,2.4,2.4,0,0,1-.3.67,1.53,1.53,0,0,1-.53.48,1.6,1.6,0,0,1-.75.17,1.54,1.54,0,0,1-.54-.08,2.56,2.56,0,0,1-.39-.22v2H55.82v-5.79h1.24v.36a1.73,1.73,0,0,1,.41-.3,1.18,1.18,0,0,1,.61-.13,1.44,1.44,0,0,1,.75.22,1.52,1.52,0,0,1,.6.67A2.41,2.41,0,0,1,59.67,237.81Zm-1.3,0a1.61,1.61,0,0,0-.1-.59.66.66,0,0,0-.26-.32.56.56,0,0,0-.33-.1.68.68,0,0,0-.36.08,1.21,1.21,0,0,0-.26.2v1.52l.14.09.15.08.15.06.18,0a.57.57,0,0,0,.49-.28A1.32,1.32,0,0,0,58.37,237.85Z" transform="translate(0)"/>
      <path d="M63.72,239.83H62.48v-.57a1.73,1.73,0,0,1-.55.48,1.35,1.35,0,0,1-.69.16,1,1,0,0,1-1-.52,3,3,0,0,1-.23-1.19v-2.34h1.24V238a1.62,1.62,0,0,0,.09.57.4.4,0,0,0,.42.24.54.54,0,0,0,.43-.17,3.8,3.8,0,0,0,.32-.45v-2.34h1.24Z" transform="translate(0)"/>
      <path d="M67,239.6a2.58,2.58,0,0,1-.53.2,2.19,2.19,0,0,1-.65.1c-.89,0-1.34-.49-1.34-1.48v-1.59h-.56v-.25l1.66-1.92h.14v1.19H66.9v1H65.71v1.27a1.73,1.73,0,0,0,0,.36.36.36,0,0,0,.13.23.55.55,0,0,0,.34.09,1.64,1.64,0,0,0,.78-.28Z" transform="translate(0)"/>
    </g>
    <path d="M14.52,324.65l-.06-60.21V268l.06-6.21c.29-8.35,6.8-15,14-15H87.19c7.2,0,13.06,6.66,13.35,15l.06,6.21v67.64A5.67,5.67,0,0,1,95,341.31H65.48v0H20.19a5.68,5.68,0,0,1-5.67-5.67" transform="translate(0)"/>
    <g>
      <path d="M79.64,285.25a3.08,3.08,0,0,1-.31,1.39,2.42,2.42,0,0,1-.92,1,2.76,2.76,0,0,1-1.48.38,2.71,2.71,0,0,1-1.49-.39,2.44,2.44,0,0,1-.91-1,3.26,3.26,0,0,1,0-2.73,2.35,2.35,0,0,1,.91-1,2.69,2.69,0,0,1,1.49-.39,2.92,2.92,0,0,1,1.18.22,2.24,2.24,0,0,1,.85.61,2.64,2.64,0,0,1,.51.88A3.43,3.43,0,0,1,79.64,285.25Zm-1.47,0a1.65,1.65,0,0,0-.08-.56,1.32,1.32,0,0,0-.23-.44,1.24,1.24,0,0,0-.39-.29,1.33,1.33,0,0,0-.54-.1,1.14,1.14,0,0,0-.9.38,1.5,1.5,0,0,0-.33,1,1.47,1.47,0,0,0,.33,1,1.12,1.12,0,0,0,.9.39,1.23,1.23,0,0,0,.68-.18A1.19,1.19,0,0,0,78,286,1.65,1.65,0,0,0,78.17,285.25Z" transform="translate(0)" style="fill: #fff"/>
      <path d="M83.73,288H82.5v-.57a2.18,2.18,0,0,1-.55.48,1.54,1.54,0,0,1-.7.16,1,1,0,0,1-1-.53,2.79,2.79,0,0,1-.23-1.18V284h1.23v2.15a1.48,1.48,0,0,0,.1.57.39.39,0,0,0,.41.24.56.56,0,0,0,.43-.17,3.77,3.77,0,0,0,.33-.45V284h1.23Z" transform="translate(0)" style="fill: #fff"/>
      <path d="M87,287.73a2.71,2.71,0,0,1-.53.2,2.5,2.5,0,0,1-.64.1c-.9,0-1.34-.5-1.34-1.49V285h-.56v-.25l1.66-1.92h.14V284h1.18v1H85.73v1.27a3.21,3.21,0,0,0,0,.36.43.43,0,0,0,.14.23.53.53,0,0,0,.34.09,1.65,1.65,0,0,0,.77-.28Z" transform="translate(0)" style="fill: #fff"/>
      <path d="M92.59,288H89v-.11c.14-.15.29-.34.46-.55s.38-.5.65-.85l.34-.47a4.37,4.37,0,0,0,.27-.44,2.53,2.53,0,0,0,.19-.48,1.64,1.64,0,0,0,.08-.54.88.88,0,0,0-.19-.6.6.6,0,0,0-.48-.24,1.6,1.6,0,0,0-1.17.69v-1.28l.34-.23a2,2,0,0,1,.3-.18,1.86,1.86,0,0,1,.4-.15,2.1,2.1,0,0,1,.51-.06,1.63,1.63,0,0,1,.79.2,1.36,1.36,0,0,1,.56.58,1.83,1.83,0,0,1,.21.89,2.09,2.09,0,0,1-.1.67,2.63,2.63,0,0,1-.19.51c-.06.12-.15.28-.26.47a10.51,10.51,0,0,1-.64.95h1.55Z" transform="translate(0)" style="fill: #fff"/>
    </g>
    <g>
      <path d="M79.69,332.5a3.26,3.26,0,0,1-.3,1.4,2.42,2.42,0,0,1-.92,1,2.78,2.78,0,0,1-1.48.37,2.75,2.75,0,0,1-1.5-.39,2.42,2.42,0,0,1-.91-1,3.33,3.33,0,0,1-.29-1.37,3.14,3.14,0,0,1,.29-1.36,2.38,2.38,0,0,1,.91-1,2.74,2.74,0,0,1,1.5-.38,3,3,0,0,1,1.18.22,2.51,2.51,0,0,1,.85.6,2.6,2.6,0,0,1,.5.89A3.14,3.14,0,0,1,79.69,332.5Zm-1.46,0a1.87,1.87,0,0,0-.08-.55,1.15,1.15,0,0,0-.63-.73,1.25,1.25,0,0,0-.53-.1,1.12,1.12,0,0,0-.91.38,1.47,1.47,0,0,0-.33,1,1.5,1.5,0,0,0,.33,1,1.16,1.16,0,0,0,.91.38,1.28,1.28,0,0,0,.67-.17,1.08,1.08,0,0,0,.42-.5A1.66,1.66,0,0,0,78.23,332.5Z" transform="translate(0)" style="fill: #fff"/>
      <path d="M83.79,335.21H82.55v-.56a2,2,0,0,1-.55.48,1.47,1.47,0,0,1-.69.15,1,1,0,0,1-1-.52,3,3,0,0,1-.23-1.19v-2.33h1.24v2.15a1.6,1.6,0,0,0,.09.56.4.4,0,0,0,.42.25.55.55,0,0,0,.43-.18,3.12,3.12,0,0,0,.32-.45v-2.33h1.24Z" transform="translate(0)" style="fill: #fff"/>
      <path d="M87.06,335a3.23,3.23,0,0,1-.53.21,2.54,2.54,0,0,1-.65.09c-.89,0-1.34-.49-1.34-1.48v-1.59H84V332l1.66-1.92h.15v1.19H87v1H85.79v1.28a1.89,1.89,0,0,0,0,.36.4.4,0,0,0,.14.23.5.5,0,0,0,.33.09,1.76,1.76,0,0,0,.78-.28Z" transform="translate(0)" style="fill: #fff"/>
      <path d="M92.66,334.05H92.1v1.16H90.83v-1.16H88.9v-1l2.18-3.21h1v3.32h.56Zm-1.83-.93v-1.74l-1.18,1.74Z" transform="translate(0)" style="fill: #fff"/>
    </g>
    <g>
      <path d="M28.1,285.25a3.21,3.21,0,0,1-.3,1.39,2.42,2.42,0,0,1-.92,1,3.08,3.08,0,0,1-3,0,2.51,2.51,0,0,1-.91-1,3.36,3.36,0,0,1,0-2.73,2.42,2.42,0,0,1,.91-1,2.75,2.75,0,0,1,1.5-.39,3,3,0,0,1,1.18.22,2.32,2.32,0,0,1,.85.61,2.46,2.46,0,0,1,.5.88A3.16,3.16,0,0,1,28.1,285.25Zm-1.46,0a1.94,1.94,0,0,0-.08-.56,1.18,1.18,0,0,0-.24-.44,1.05,1.05,0,0,0-.39-.29,1.25,1.25,0,0,0-.53-.1,1.15,1.15,0,0,0-.91.38,1.5,1.5,0,0,0-.33,1,1.47,1.47,0,0,0,.33,1,1.14,1.14,0,0,0,.91.39,1.2,1.2,0,0,0,.67-.18,1.14,1.14,0,0,0,.43-.49A1.81,1.81,0,0,0,26.64,285.25Z" transform="translate(0)" style="fill: #fff"/>
      <path d="M32.2,288H31v-.57a2,2,0,0,1-.55.48,1.46,1.46,0,0,1-.69.16,1,1,0,0,1-1-.53,2.8,2.8,0,0,1-.24-1.18V284H29.7v2.15a1.7,1.7,0,0,0,.09.57.41.41,0,0,0,.42.24.58.58,0,0,0,.43-.17,3.8,3.8,0,0,0,.32-.45V284H32.2Z" transform="translate(0)" style="fill: #fff"/>
      <path d="M35.47,287.73a3,3,0,0,1-.53.2,2.57,2.57,0,0,1-.65.1c-.89,0-1.33-.5-1.33-1.49V285h-.57v-.25l1.67-1.92h.14V284h1.18v1H34.2v1.27a1.84,1.84,0,0,0,0,.36.37.37,0,0,0,.14.23.5.5,0,0,0,.33.09,1.64,1.64,0,0,0,.78-.28Z" transform="translate(0)" style="fill: #fff"/>
      <path d="M39.89,288H38.58v-5.42h1.31Z" transform="translate(0)" style="fill: #fff"/>
    </g>
    <g>
      <path d="M28.19,332.5a3.12,3.12,0,0,1-.31,1.4,2.4,2.4,0,0,1-.91,1,2.78,2.78,0,0,1-1.48.37,2.75,2.75,0,0,1-1.5-.39,2.42,2.42,0,0,1-.91-1,3.19,3.19,0,0,1-.3-1.37,3.14,3.14,0,0,1,.3-1.36,2.38,2.38,0,0,1,.91-1,2.74,2.74,0,0,1,1.5-.38,2.87,2.87,0,0,1,1.17.22,2.33,2.33,0,0,1,.85.6,2.46,2.46,0,0,1,.51.89A3.41,3.41,0,0,1,28.19,332.5Zm-1.46,0a1.87,1.87,0,0,0-.08-.55,1.15,1.15,0,0,0-.63-.73,1.25,1.25,0,0,0-.53-.1,1.12,1.12,0,0,0-.91.38,1.47,1.47,0,0,0-.33,1,1.5,1.5,0,0,0,.33,1,1.15,1.15,0,0,0,.91.38,1.31,1.31,0,0,0,.67-.17,1.08,1.08,0,0,0,.42-.5A1.66,1.66,0,0,0,26.73,332.5Z" transform="translate(0)" style="fill: #fff"/>
      <path d="M32.29,335.21H31.05v-.56a2.18,2.18,0,0,1-.55.48,1.47,1.47,0,0,1-.69.15,1,1,0,0,1-1-.52,3,3,0,0,1-.23-1.19v-2.33h1.24v2.15a1.6,1.6,0,0,0,.09.56.39.39,0,0,0,.41.25.56.56,0,0,0,.44-.18,3.12,3.12,0,0,0,.32-.45v-2.33h1.24Z" transform="translate(0)" style="fill: #fff"/>
      <path d="M35.56,335a3.23,3.23,0,0,1-.53.21,2.54,2.54,0,0,1-.65.09c-.89,0-1.34-.49-1.34-1.48v-1.59h-.56V332l1.66-1.92h.14v1.19h1.19v1H34.28v1.28a1.79,1.79,0,0,0,0,.36.39.39,0,0,0,.13.23.55.55,0,0,0,.34.09,1.76,1.76,0,0,0,.78-.28Z" transform="translate(0)" style="fill: #fff"/>
      <path d="M40.85,333.71a1.64,1.64,0,0,1-.15.73,1.46,1.46,0,0,1-.39.49,1.72,1.72,0,0,1-.52.27,1.61,1.61,0,0,1-.52.08,3,3,0,0,1-.8-.11,3.38,3.38,0,0,1-.73-.28v-1.21a2.39,2.39,0,0,0,.52.38,1.18,1.18,0,0,0,.57.15.74.74,0,0,0,.38-.09.59.59,0,0,0,.23-.24.61.61,0,0,0,.08-.3.76.76,0,0,0-.1-.37.69.69,0,0,0-.28-.25.82.82,0,0,0-.42-.1h-.16V332h.19a.67.67,0,0,0,.39-.1.63.63,0,0,0,.23-.26.72.72,0,0,0,.07-.27.66.66,0,0,0-.17-.44.56.56,0,0,0-.43-.19,1.28,1.28,0,0,0-.49.11,1.64,1.64,0,0,0-.48.27v-1a3.92,3.92,0,0,1,.63-.25,2.31,2.31,0,0,1,.67-.09,1.59,1.59,0,0,1,.9.23,1.52,1.52,0,0,1,.7,1.21,1.19,1.19,0,0,1-.1.49,1.64,1.64,0,0,1-.24.43,1.39,1.39,0,0,1-.31.29,1.92,1.92,0,0,1,.51.48A1.46,1.46,0,0,1,40.85,333.71Z" transform="translate(0)" style="fill: #fff"/>
    </g>
  </g>
  <g id="components">
    <circle id="Out_4" data-name="Out 4" cx="83.42" cy="312" r="11.34" style="fill: blue"/>
    <circle id="Out_3" data-name="Out 3" cx="31.89" cy="312" r="11.34" style="fill: blue"/>
    <circle id="Out_2" data-name="Out 2" cx="83.42" cy="263.28" r="11.34" style="fill: blue"/>
    <circle id="Out_1" data-name="Out 1" cx="32.39" cy="263.34" r="11.34" style="fill: blue"/>
    <circle id="Input" cx="57.93" cy="214.56" r="11.34" style="fill: lime"/>
    <circle id="Level_4" data-name="Level 4" cx="83.49" cy="119.21" r="17.01" style="fill: #ff0080"/>
    <circle id="Level_3" data-name="Level 3" cx="31.96" cy="119.21" r="17.01" style="fill: #ff0080"/>
    <circle id="Level_2" data-name="Level 2" cx="83.49" cy="57.97" r="17.01" style="fill: #ff0080"/>
    <circle id="Level_1" data-name="Level 1" cx="31.96" cy="57.97" r="17.01" style="fill: #ff0080"/>
    <text id="slug" transform="translate(81.02 369.44)" style="font-size: 3px;font-family: MyriadPro-Regular, Myriad Pro"><tspan style="letter-spacing: 0.006184895833333333em">S</tspan><tspan x="1.5" y="0">end</tspan></text>
    <text id="modulename" transform="translate(90.63 369.44)" style="font-size: 3px;font-family: MyriadPro-Regular, Myriad Pro">4 Ch. <tspan x="6.84" y="0" style="letter-spacing: 0.006184895833333333em">S</tspan><tspan x="8.33" y="0">end </tspan><tspan x="13.83" y="0" style="letter-spacing: 0.005859375em">M</tspan><tspan x="16.26" y="0" style="letter-spacing: -0.0003255208333333333em">odule</tspan></text>
  </g>
</svg>
