<svg xmlns="http://www.w3.org/2000/svg" width="61.05mm" height="131.71mm" viewBox="0 0 173.05 373.34">
  <g id="faceplate">
    <rect x="0.13" y="0.13" width="172.8" height="364.25" style="fill: #ededed;stroke: #9d9d9e;stroke-miterlimit: 10;stroke-width: 0.25px"/>
    <path d="M17.65,13.15a4.54,4.54,0,0,1,0-9.07h8.44a4.54,4.54,0,1,1,0,9.07Z"/>
    <path d="M17.65,360.41a4.54,4.54,0,0,1,0-9.07h8.44a4.54,4.54,0,1,1,0,9.07Z"/>
    <path d="M147,13.15a4.54,4.54,0,1,1,0-9.07h8.43a4.54,4.54,0,1,1,0,9.07Z"/>
    <path d="M147,360.41a4.54,4.54,0,1,1,0-9.07h8.43a4.54,4.54,0,1,1,0,9.07Z"/>
    <g>
      <g>
        <line x1="21.82" y1="71.71" x2="21.82" y2="93.62" style="fill: #fff"/>
        <path d="M22.59,95.39a30.47,30.47,0,0,1,1.12-3H19.92a28.75,28.75,0,0,1,1.12,3,22.86,22.86,0,0,1,.78,3.31A21.36,21.36,0,0,1,22.59,95.39Z" style="fill: #fff"/>
      </g>
      <g>
        <line x1="21.82" y1="71.71" x2="21.82" y2="93.62" style="fill: none;stroke: #231f20"/>
        <path d="M22.59,95.39a30.47,30.47,0,0,1,1.12-3H19.92a28.75,28.75,0,0,1,1.12,3,22.86,22.86,0,0,1,.78,3.31A21.36,21.36,0,0,1,22.59,95.39Z" style="fill: #231f20"/>
      </g>
    </g>
    <g>
      <g>
        <line x1="21.82" y1="201.75" x2="21.82" y2="223.66" style="fill: #fff"/>
        <path d="M22.59,225.44a30.47,30.47,0,0,1,1.12-3H19.92a27.9,27.9,0,0,1,1.12,3,22.56,22.56,0,0,1,.78,3.31A21.1,21.1,0,0,1,22.59,225.44Z" style="fill: #fff"/>
      </g>
      <g>
        <line x1="21.82" y1="201.75" x2="21.82" y2="223.66" style="fill: none;stroke: #000"/>
        <path d="M22.59,225.44a30.47,30.47,0,0,1,1.12-3H19.92a27.9,27.9,0,0,1,1.12,3,22.56,22.56,0,0,1,.78,3.31A21.1,21.1,0,0,1,22.59,225.44Z"/>
      </g>
    </g>
    <path d="M111.36,35.17h39c.28,0,.56,0,.85,0,10.09,0,18.26,8.86,18.27,19.8s-8.17,19.81-18.26,19.81l-39.85,0H62.55l-39.85,0c-10.09,0-18.26-8.87-18.25-19.81s8.18-19.8,18.26-19.8c.29,0,.57,0,.86,0h39" style="fill: #ec1c24;stroke: #231f20;stroke-width: 1.2000000000000002px"/>
    <path d="M87.89,49.12a23,23,0,1,0-23,23A23,23,0,0,0,87.89,49.12Z" style="fill: #ededed"/>
    <path d="M131.09,49.12a23,23,0,1,0-23,23A23,23,0,0,0,131.09,49.12Z" style="fill: #ededed"/>
    <path d="M62.57,100h-39c-.29,0-.57,0-.86,0-10.08,0-18.26,8.86-18.26,19.8s8.16,19.81,18.25,19.81l39.85,0h48.83l39.85,0c10.09,0,18.26-8.87,18.26-19.81s-8.18-19.8-18.27-19.8c-.29,0-.57,0-.85,0h-39" style="stroke: #000;stroke-width: 0.806526px"/>
    <path d="M87.89,113.92a23,23,0,1,0-23,23A23,23,0,0,0,87.89,113.92Z" style="fill: #ededed"/>
    <path d="M131.09,113.92a23,23,0,1,0-23,23A23,23,0,0,0,131.09,113.92Z" style="fill: #ededed"/>
    <path d="M62.57,164.77h-39c-.29,0-.57,0-.86,0-10.08,0-18.26,8.86-18.26,19.8s8.16,19.81,18.25,19.81l39.85,0h48.83l39.85,0c10.09,0,18.26-8.87,18.26-19.81s-8.18-19.8-18.27-19.8c-.29,0-.57,0-.85,0h-39" style="fill: #5db0e2;stroke: #000;stroke-width: 1.2000000000000002px"/>
    <path d="M87.89,178.72a23,23,0,1,0-23,23A23,23,0,0,0,87.89,178.72Z" style="fill: #ededed"/>
    <path d="M131.09,178.72a23,23,0,1,0-23,23A23,23,0,0,0,131.09,178.72Z" style="fill: #ededed"/>
    <path d="M62.57,229.57h-39c-.29,0-.57-.05-.86-.05-10.08,0-18.26,8.86-18.26,19.8s8.16,19.81,18.25,19.81l39.85,0h48.83l39.85,0c10.09,0,18.26-8.87,18.26-19.81s-8.18-19.8-18.27-19.8c-.29,0-.57,0-.85.05h-39" style="fill: #5ab947;stroke: #000;stroke-width: 1.2000000000000002px"/>
    <path d="M87.89,243.52a23,23,0,1,0-23,23A23,23,0,0,0,87.89,243.52Z" style="fill: #ededed"/>
    <path d="M131.09,243.52a23,23,0,1,0-23,23A23,23,0,0,0,131.09,243.52Z" style="fill: #ededed"/>
    <path d="M108.07,85.54" style="fill: #fff"/>
    <rect x="64.88" y="26.89" width="43.96" height="45.26" style="fill: #ededed"/>
    <rect x="64.88" y="91.69" width="43.96" height="45.26" style="fill: #ededed"/>
    <rect x="64.88" y="156.49" width="43.96" height="45.26" style="fill: #ededed"/>
    <rect x="64.88" y="221.29" width="43.96" height="45.26" style="fill: #ededed"/>
    <g>
      <path d="M19.61,71.65H18.36V66.91h1.25Z"/>
      <path d="M25,71.65H23.83L21.67,69v2.64H20.42V66.91h1.12l2.15,2.62V66.91H25Z"/>
    </g>
    <g>
      <path d="M149,69.85a3.23,3.23,0,0,1-.23,1.22,2.12,2.12,0,0,1-.69.89,2,2,0,0,1-2.22,0,2,2,0,0,1-.68-.89,3.41,3.41,0,0,1-.22-1.2,3.35,3.35,0,0,1,.22-1.19,2.12,2.12,0,0,1,.68-.9,1.88,1.88,0,0,1,1.12-.34,1.93,1.93,0,0,1,.88.2,1.79,1.79,0,0,1,.63.53,2.41,2.41,0,0,1,.38.77A3.6,3.6,0,0,1,149,69.85Zm-1.1,0a1.75,1.75,0,0,0-.06-.48,1.15,1.15,0,0,0-.17-.39.85.85,0,0,0-.69-.34.8.8,0,0,0-.68.33,1.5,1.5,0,0,0-.25.88,1.48,1.48,0,0,0,.25.88.85.85,0,0,0,1.18.18.87.87,0,0,0,.31-.43A1.54,1.54,0,0,0,147.9,69.85Z"/>
      <path d="M153.15,70.1a2.7,2.7,0,0,1-.17,1,1.69,1.69,0,0,1-.45.68,2.08,2.08,0,0,1-.6.36,2.16,2.16,0,0,1-.65.11,2,2,0,0,1-.88-.21,1.7,1.7,0,0,1-.71-.7,2.5,2.5,0,0,1-.29-1.28V67.49h1.07v2.24a2.51,2.51,0,0,0,.1.78.91.91,0,0,0,.28.44.64.64,0,0,0,.43.15.68.68,0,0,0,.42-.14,1,1,0,0,0,.28-.45,2.4,2.4,0,0,0,.1-.77V67.49h1.07Z"/>
      <path d="M157.19,68.64h-1.3v3.58h-1.07V68.64h-1.3V67.49h3.67Z"/>
    </g>
    <g>
      <path d="M43.61,345.74a1.91,1.91,0,0,1-.26,1,1.61,1.61,0,0,1-.7.64,2.31,2.31,0,0,1-1,.22l-.4,0a3.71,3.71,0,0,1-.63-.14,4.2,4.2,0,0,1-.82-.32v-1.51a4.7,4.7,0,0,0,.78.48,1.84,1.84,0,0,0,.83.19c.27,0,.45,0,.53-.16a.48.48,0,0,0,.12-.29.53.53,0,0,0-.21-.42,2.79,2.79,0,0,0-.6-.35,4.25,4.25,0,0,1-.76-.46,2,2,0,0,1-.53-.63,1.78,1.78,0,0,1-.21-.89,1.89,1.89,0,0,1,.21-.89,1.52,1.52,0,0,1,.64-.64,2.14,2.14,0,0,1,1-.24,3.54,3.54,0,0,1,.82.1,2.79,2.79,0,0,1,.61.23,1.76,1.76,0,0,1,.34.19v1.44a5.35,5.35,0,0,0-.72-.49,1.81,1.81,0,0,0-.85-.21.63.63,0,0,0-.43.13.45.45,0,0,0-.14.33.45.45,0,0,0,.14.32,2.78,2.78,0,0,0,.47.32,8.82,8.82,0,0,1,1,.6,2.06,2.06,0,0,1,.57.61A1.64,1.64,0,0,1,43.61,345.74Z"/>
      <path d="M50.26,347.52H48.67v-2.39H46.28v2.39H44.69V341.4h1.59v2.25h2.39V341.4h1.59Z"/>
      <path d="M53.18,347.52H51.59V341.4h1.59Z"/>
      <path d="M58.3,345H56.11v2.48H54.52V341.4H58.3v1.23H56.11v1.18H58.3Z"/>
      <path d="M64.42,342.89H62.49v4.63H60.9v-4.63H59V341.4h5.45Z"/>
      <path d="M67,347.52H65.36V341.4H67Z"/>
      <path d="M74,347.52H72.6l-2.74-3.41v3.41H68.28V341.4h1.41l2.73,3.39V341.4H74Z"/>
      <path d="M80.31,347.09l-.29.12-.24.09-.32.1a4.61,4.61,0,0,1-.72.15,4.7,4.7,0,0,1-.76.05,3.26,3.26,0,0,1-1.49-.34,2.56,2.56,0,0,1-1.09-1.05,3.55,3.55,0,0,1-.41-1.76,4.24,4.24,0,0,1,.21-1.32,2.44,2.44,0,0,1,.65-1,3.07,3.07,0,0,1,.72-.49,2.72,2.72,0,0,1,.72-.23,4.63,4.63,0,0,1,.77-.06,4.55,4.55,0,0,1,1.15.12c.31.09.64.19,1,.32v1.45a4.23,4.23,0,0,0-.76-.4,2.64,2.64,0,0,0-1-.17,1.84,1.84,0,0,0-1.1.31,1.57,1.57,0,0,0-.57.72,2.22,2.22,0,0,0-.17.81,2,2,0,0,0,.19.86,1.55,1.55,0,0,0,.56.63,1.78,1.78,0,0,0,.91.23,2.54,2.54,0,0,0,.65-.09v-.72h-.71v-1.23h2.1Z"/>
      <path d="M85.48,347.52h-1.6V341.4h1.6Z"/>
      <path d="M92.54,347.52H91.12l-2.74-3.41v3.41H86.81V341.4h1.41L91,344.79V341.4h1.59Z"/>
      <path d="M99,341.4l-2.38,6.2h-1l-2.33-6.2h1.65l1.21,3.53,1.24-3.53Z"/>
      <path d="M103.72,347.52h-4V341.4h3.91v1.23h-2.32v1.12h2.21V345h-2.21v1.31h2.38Z"/>
      <path d="M109.9,347.52h-1.71l-.42-1.08a5,5,0,0,0-.41-.88.9.9,0,0,0-.36-.35,1.08,1.08,0,0,0-.44-.08h-.18v2.39h-1.59V341.4h2.7a1.75,1.75,0,0,1,1.08.31,1.68,1.68,0,0,1,.6.75,2.21,2.21,0,0,1,.19.84,1.8,1.8,0,0,1-.16.78,1.41,1.41,0,0,1-.32.47,3.89,3.89,0,0,1-.39.28,1.49,1.49,0,0,1,.42.41,5.05,5.05,0,0,1,.45.95Zm-2.17-4.19a.67.67,0,0,0-.24-.59,1.41,1.41,0,0,0-.78-.17h-.33v1.48h.34a1.49,1.49,0,0,0,.8-.15A.66.66,0,0,0,107.73,343.33Z"/>
      <path d="M115.68,342.89h-1.94v4.63h-1.58v-4.63h-1.94V341.4h5.46Z"/>
      <path d="M118.2,347.52h-1.59V341.4h1.59Z"/>
      <path d="M125.27,347.52h-1.42l-2.74-3.41v3.41h-1.57V341.4H121l2.73,3.39V341.4h1.59Z"/>
      <path d="M131.56,347.09l-.29.12-.23.09-.33.1a5.36,5.36,0,0,1-1.48.2,3.22,3.22,0,0,1-1.48-.34,2.51,2.51,0,0,1-1.09-1.05,3.45,3.45,0,0,1-.41-1.76,4.24,4.24,0,0,1,.21-1.32,2.33,2.33,0,0,1,.64-1,2.92,2.92,0,0,1,.73-.49,2.51,2.51,0,0,1,.72-.23,4.54,4.54,0,0,1,.77-.06,4.61,4.61,0,0,1,1.15.12c.3.09.63.19,1,.32v1.45a4.23,4.23,0,0,0-.76-.4,2.55,2.55,0,0,0-1-.17,1.82,1.82,0,0,0-1.1.31,1.59,1.59,0,0,0-.58.72,2.2,2.2,0,0,0-.16.81,1.9,1.9,0,0,0,.19.86,1.48,1.48,0,0,0,.56.63,1.73,1.73,0,0,0,.91.23,2.6,2.6,0,0,0,.65-.09v-.72h-.72v-1.23h2.1Z"/>
      <path d="M44.87,355.72a2.63,2.63,0,0,1-.32,1.32,2.14,2.14,0,0,1-.88.86,2.86,2.86,0,0,1-1.3.29l-.5,0a4.31,4.31,0,0,1-.78-.18,5.81,5.81,0,0,1-1-.43v-2a7.09,7.09,0,0,0,1,.64,2.19,2.19,0,0,0,1,.25.78.78,0,0,0,.65-.21.69.69,0,0,0,.15-.39.7.7,0,0,0-.25-.55,3.64,3.64,0,0,0-.75-.47,5.76,5.76,0,0,1-1-.61,2.75,2.75,0,0,1-.67-.83,2.86,2.86,0,0,1,0-2.36,2,2,0,0,1,.79-.85,2.57,2.57,0,0,1,1.31-.32,3.64,3.64,0,0,1,1,.14,3.36,3.36,0,0,1,.77.29,2.49,2.49,0,0,1,.42.26v1.9a5.4,5.4,0,0,0-.9-.64,2.18,2.18,0,0,0-1.06-.28.72.72,0,0,0-.54.18.6.6,0,0,0-.16.43.6.6,0,0,0,.16.42,3,3,0,0,0,.6.43,10.22,10.22,0,0,1,1.21.79,2.63,2.63,0,0,1,.72.81A2.34,2.34,0,0,1,44.87,355.72Z"/>
      <path d="M48.21,358.09h-2V350h2Z"/>
      <path d="M56.07,357.51l-.36.17-.3.11-.4.14a7.21,7.21,0,0,1-.9.19,5.82,5.82,0,0,1-1,.07,3.89,3.89,0,0,1-1.85-.45,3.29,3.29,0,0,1-1.36-1.4,4.86,4.86,0,0,1-.51-2.33,6.08,6.08,0,0,1,.26-1.75,3.24,3.24,0,0,1,.81-1.38,3.91,3.91,0,0,1,.9-.65,3.4,3.4,0,0,1,.9-.3,5.64,5.64,0,0,1,1-.08,5.59,5.59,0,0,1,1.43.16c.38.11.79.25,1.24.43v1.92a5.46,5.46,0,0,0-.94-.54,3.21,3.21,0,0,0-1.24-.21,2.09,2.09,0,0,0-2.1,1.35,3.35,3.35,0,0,0-.2,1.08,2.71,2.71,0,0,0,.24,1.14,1.88,1.88,0,0,0,.7.83,2,2,0,0,0,1.13.31,3,3,0,0,0,.81-.12v-1h-.89v-1.63h2.62Z"/>
      <path d="M64.78,358.09H63l-3.41-4.53v4.53h-2V350h1.76l3.41,4.5V350h2Z"/>
      <path d="M73.65,358.09h-2l-.54-1.65H68.23l-.55,1.65h-2L68.56,350h2.19Zm-3-3.06-1-3-1,3Z"/>
      <path d="M79.52,358.09h-5V350h2v6.18h3Z"/>
      <path d="M91.21,358.09h-2v-4.71l-1.79,2.73h-.16l-1.79-2.73v4.71H83.56V350h1.8l2,3.05,2-3.05h1.8Z"/>
      <path d="M94.87,358.09h-2V350h2Z"/>
      <path d="M103.67,358.09H101.9l-3.41-4.53v4.53h-2V350h1.76l3.4,4.5V350h2Z"/>
      <path d="M111.53,357.51l-.37.17-.29.11-.41.14a7.21,7.21,0,0,1-.9.19,5.69,5.69,0,0,1-.94.07,3.93,3.93,0,0,1-1.86-.45,3.32,3.32,0,0,1-1.35-1.4,4.75,4.75,0,0,1-.52-2.33,5.76,5.76,0,0,1,.27-1.75,3.13,3.13,0,0,1,.8-1.38,3.75,3.75,0,0,1,.91-.65,3.22,3.22,0,0,1,.89-.3,5.64,5.64,0,0,1,1-.08,5.73,5.73,0,0,1,1.44.16c.38.11.79.25,1.24.43v1.92a5.55,5.55,0,0,0-1-.54,3.18,3.18,0,0,0-1.24-.21,2.2,2.2,0,0,0-1.38.4,2,2,0,0,0-.71.95,3.1,3.1,0,0,0-.2,1.08,2.7,2.7,0,0,0,.23,1.14,2,2,0,0,0,.7.83,2,2,0,0,0,1.14.31,2.93,2.93,0,0,0,.8-.12v-1h-.89v-1.63h2.63Z"/>
      <path d="M118.08,358.09h-5V350h2v6.18h3Z"/>
      <path d="M124.2,358.09h-5V350h4.88v1.63h-2.9v1.49H124v1.64h-2.76v1.73h3Z"/>
      <path d="M131.9,358.09h-2.14l-.51-1.45a5.9,5.9,0,0,0-.52-1.15,1.19,1.19,0,0,0-.44-.47,1.28,1.28,0,0,0-.56-.1h-.22v3.17h-2V350h3.37a2.14,2.14,0,0,1,1.34.41,2.35,2.35,0,0,1,.75,1,3.11,3.11,0,0,1,.23,1.11,2.48,2.48,0,0,1-.19,1,1.75,1.75,0,0,1-.41.62,3.79,3.79,0,0,1-.48.37,1.94,1.94,0,0,1,.53.54,7.82,7.82,0,0,1,.56,1.27Zm-2.7-5.56a.9.9,0,0,0-.3-.78,1.63,1.63,0,0,0-1-.23h-.42v2h.43a1.79,1.79,0,0,0,1-.2A.87.87,0,0,0,129.2,352.53Z"/>
    </g>
    <g>
      <path d="M13.25,331.83H11.8v1.92H11v-1.92H9.54v-1.09H11v-1.93h.82v1.93h1.45Z"/>
      <path d="M18.87,332.56a2.12,2.12,0,0,1-.21,1,1.48,1.48,0,0,1-.62.64,1.77,1.77,0,0,1-.9.23l-.34,0a2.78,2.78,0,0,1-.55-.13,3.71,3.71,0,0,1-.71-.33v-1.49a4.39,4.39,0,0,0,.68.47,1.39,1.39,0,0,0,.72.19.53.53,0,0,0,.45-.15.58.58,0,0,0,.11-.3.54.54,0,0,0-.18-.41,2.44,2.44,0,0,0-.52-.35,3.67,3.67,0,0,1-.66-.46,1.93,1.93,0,0,1-.46-.62,2,2,0,0,1-.18-.89,2.1,2.1,0,0,1,.18-.88,1.49,1.49,0,0,1,.55-.64,1.67,1.67,0,0,1,.91-.24,2.65,2.65,0,0,1,.71.1,2.86,2.86,0,0,1,.54.22l.29.2v1.42a4.3,4.3,0,0,0-.63-.47,1.37,1.37,0,0,0-.73-.21.46.46,0,0,0-.38.76,1.86,1.86,0,0,0,.42.32,7.21,7.21,0,0,1,.84.6,1.71,1.71,0,0,1,.67,1.47Z"/>
      <path d="M23,334.33H19.54v-6.09h1.38v4.63H23Z"/>
      <path d="M24.93,334.33H23.55v-6.09h1.38Z"/>
      <path d="M29.9,333.87a3,3,0,0,1-.58.32,3.38,3.38,0,0,1-.6.17,4.21,4.21,0,0,1-.62.05,2.59,2.59,0,0,1-1.07-.22,2.34,2.34,0,0,1-.82-.65,2.89,2.89,0,0,1-.52-1,4.26,4.26,0,0,1-.18-1.26,4.09,4.09,0,0,1,.21-1.38,2.56,2.56,0,0,1,.57-1,2.27,2.27,0,0,1,.84-.58,2.53,2.53,0,0,1,1-.19,4.34,4.34,0,0,1,1.76.46v1.62a4.55,4.55,0,0,0-.67-.47,1.61,1.61,0,0,0-.78-.18,1.38,1.38,0,0,0-.74.21,1.48,1.48,0,0,0-.56.6,1.88,1.88,0,0,0-.21.91,2,2,0,0,0,.18.85,1.56,1.56,0,0,0,.52.61,1.25,1.25,0,0,0,.74.23,1.8,1.8,0,0,0,.62-.11,2.12,2.12,0,0,0,.5-.24,3.77,3.77,0,0,0,.42-.31Z"/>
      <path d="M34,334.33H30.56v-6.09H34v1.22h-2v1.11h1.92v1.23H31.93v1.3H34Z"/>
    </g>
    <g>
      <path d="M55,332.8H52.79v-1.47H55Z"/>
      <path d="M60.76,332.56a2.12,2.12,0,0,1-.22,1,1.51,1.51,0,0,1-.61.64,1.77,1.77,0,0,1-.9.23l-.35,0a2.78,2.78,0,0,1-.55-.13,4,4,0,0,1-.71-.33v-1.49a4.39,4.39,0,0,0,.68.47,1.41,1.41,0,0,0,.72.19c.24,0,.39,0,.46-.15a.56.56,0,0,0,.1-.3.54.54,0,0,0-.18-.41,2.44,2.44,0,0,0-.52-.35,3.26,3.26,0,0,1-.65-.46,2,2,0,0,1-.47-.62,2,2,0,0,1-.18-.89,2.1,2.1,0,0,1,.18-.88,1.45,1.45,0,0,1,.56-.64,1.65,1.65,0,0,1,.91-.24,2.57,2.57,0,0,1,.7.1,2.86,2.86,0,0,1,.54.22,2.18,2.18,0,0,1,.29.2v1.42a4.21,4.21,0,0,0-.62-.47,1.41,1.41,0,0,0-.74-.21.45.45,0,0,0-.37.13.44.44,0,0,0-.12.32.43.43,0,0,0,.12.31,1.56,1.56,0,0,0,.41.32,7.21,7.21,0,0,1,.84.6,2,2,0,0,1,.5.61A1.83,1.83,0,0,1,60.76,332.56Z"/>
      <path d="M64.89,334.33H61.42v-6.09H62.8v4.63h2.09Z"/>
      <path d="M66.81,334.33H65.43v-6.09h1.38Z"/>
      <path d="M71.78,333.87a2.75,2.75,0,0,1-.58.32,3.06,3.06,0,0,1-.59.17,4.34,4.34,0,0,1-.63.05,2.62,2.62,0,0,1-1.07-.22,2.44,2.44,0,0,1-.82-.65,3.07,3.07,0,0,1-.52-1,4.62,4.62,0,0,1-.17-1.26,4.37,4.37,0,0,1,.2-1.38,2.85,2.85,0,0,1,.57-1,2.35,2.35,0,0,1,.84-.58,2.53,2.53,0,0,1,1-.19,4.31,4.31,0,0,1,1.76.46v1.62a4.55,4.55,0,0,0-.67-.47,1.61,1.61,0,0,0-.78-.18,1.41,1.41,0,0,0-.74.21,1.55,1.55,0,0,0-.56.6,1.88,1.88,0,0,0-.21.91,1.86,1.86,0,0,0,.19.85,1.46,1.46,0,0,0,.51.61,1.27,1.27,0,0,0,.74.23,1.9,1.9,0,0,0,.63-.11,2.33,2.33,0,0,0,.5-.24,4.92,4.92,0,0,0,.41-.31Z"/>
      <path d="M75.88,334.33H72.44v-6.09h3.39v1.22h-2v1.11h1.92v1.23H73.82v1.3h2.06Z"/>
    </g>
    <g>
      <path d="M97.19,334.33H95.82V330.8l-1.25,2h-.11l-1.24-2v3.53H91.88v-6.09h1.25l1.4,2.28,1.41-2.28h1.25Z"/>
      <path d="M99.46,334.33H98.08v-6.09h1.38Z"/>
      <path d="M105.5,334.33h-1.77l-.48-.77-.29-.47-.35-.57c-.26.47-.48.85-.64,1.12l-.42.69H99.8l1.94-3.17-1.85-2.92h1.76l.32.51c.18.29.39.66.64,1.1.24-.47.43-.81.58-1l.35-.57h1.73l-1.77,2.92Z"/>
      <path d="M109.83,336.44H109a7.75,7.75,0,0,1-.51-.59,8,8,0,0,1-.54-.85,6,6,0,0,1-.47-1.2,5.36,5.36,0,0,1-.19-1.48,5.52,5.52,0,0,1,.3-1.87,6.1,6.1,0,0,1,.65-1.33,12,12,0,0,1,.76-1h.87c-.24.36-.45.7-.63,1a5.49,5.49,0,0,0-.48,1.29,7.76,7.76,0,0,0,0,3.67,5.61,5.61,0,0,0,.47,1.27C109.37,335.73,109.58,336.07,109.83,336.44Z"/>
      <path d="M113.1,332.56a2.12,2.12,0,0,1-.22,1,1.48,1.48,0,0,1-.62.64,1.76,1.76,0,0,1-.89.23l-.35,0a2.78,2.78,0,0,1-.55-.13,3.71,3.71,0,0,1-.71-.33v-1.49a4.39,4.39,0,0,0,.68.47,1.39,1.39,0,0,0,.72.19.53.53,0,0,0,.45-.15.58.58,0,0,0,.11-.3.54.54,0,0,0-.18-.41,2.44,2.44,0,0,0-.52-.35,3.67,3.67,0,0,1-.66-.46,1.93,1.93,0,0,1-.46-.62,2,2,0,0,1-.18-.89,2.1,2.1,0,0,1,.18-.88,1.49,1.49,0,0,1,.55-.64,1.68,1.68,0,0,1,.92-.24,2.57,2.57,0,0,1,.7.1,2.86,2.86,0,0,1,.54.22l.29.2v1.42a4.3,4.3,0,0,0-.63-.47,1.37,1.37,0,0,0-.73-.21.49.49,0,0,0-.38.13.48.48,0,0,0-.11.32.47.47,0,0,0,.11.31,1.86,1.86,0,0,0,.42.32,7.21,7.21,0,0,1,.84.6,2,2,0,0,1,.5.61A1.83,1.83,0,0,1,113.1,332.56Z"/>
      <path d="M121.16,328.24l-2,6.17h-.8l-1.18-3.59L116,334.41h-.8l-1.94-6.17h1.43l1,3.37,1.08-3.37h1l1.07,3.37,1-3.37Z"/>
      <path d="M123.3,332.27a5.48,5.48,0,0,1-.19,1.49,5.87,5.87,0,0,1-.47,1.21,7.51,7.51,0,0,1-.54.87q-.27.35-.51.6h-.88a9.93,9.93,0,0,0,.64-1,5.77,5.77,0,0,0,.48-1.3,6.85,6.85,0,0,0,.22-1.83,7.33,7.33,0,0,0-.21-1.84,5.65,5.65,0,0,0-.48-1.26,10,10,0,0,0-.65-1h.88a7.27,7.27,0,0,1,.72.89,5.63,5.63,0,0,1,.68,1.37A5.26,5.26,0,0,1,123.3,332.27Z"/>
    </g>
    <g>
      <path d="M149.4,334.33H148V330.8l-1.24,2h-.11l-1.25-2v3.53h-1.34v-6.09h1.25l1.41,2.28,1.41-2.28h1.25Z"/>
      <path d="M151.67,334.33h-1.38v-6.09h1.38Z"/>
      <path d="M157.71,334.33h-1.77l-.49-.77s-.11-.18-.28-.47-.3-.47-.35-.57c-.27.47-.48.85-.65,1.12l-.42.69H152l1.94-3.17-1.85-2.92h1.76l.31.51c.18.29.4.66.65,1.1.24-.47.43-.81.57-1l.36-.57h1.73l-1.78,2.92Z"/>
    </g>
    <g>
      <path d="M91.59,7.91l-6.16,7.83V9a1.42,1.42,0,0,0-.72-1.3A1,1,0,0,0,83.46,8l-8.1,10.3a1.64,1.64,0,0,0,0,2,1,1,0,0,0,1.62,0l6.12-7.78v6.71a1.44,1.44,0,0,0,.72,1.3,1,1,0,0,0,1.26-.32l6.16-7.83v6.85a1.17,1.17,0,1,0,2.3,0V8.88a1.42,1.42,0,0,0-.72-1.3A1,1,0,0,0,91.59,7.91Z" style="fill: #00adee;stroke: #00adee;stroke-width: 0.8571749999999999px"/>
      <path d="M75.36,7.83,70,14.65a1.65,1.65,0,0,0,0,2,1,1,0,0,0,1.63,0L75,12.3v7a1.17,1.17,0,1,0,2.3,0V8.8a1.44,1.44,0,0,0-.72-1.3A1,1,0,0,0,75.36,7.83Z" style="fill: #ec1c24;stroke: #ec1c24;stroke-width: 0.8571749999999999px"/>
      <path d="M100.91,12.86A1.18,1.18,0,0,0,99.85,12H97.51l1.71-2.18s.89-1.3.1-2-1.76.07-1.76.07L94,12.43A1.66,1.66,0,0,0,93.74,14a1.18,1.18,0,0,0,1.06.86h2.35l-2.78,3.53s-1.15,1.26-.3,2.11,2-.16,2-.16l4.66-5.91A1.66,1.66,0,0,0,100.91,12.86Z" style="fill: #00a551;stroke: #00a551;stroke-width: 0.8571749999999999px"/>
    </g>
    <g>
      <path d="M19.61,136.45H18.36v-4.74h1.25Z" style="fill: #ededed"/>
      <path d="M25,136.45H23.83l-2.16-2.64v2.64H20.42v-4.74h1.12l2.15,2.63v-2.63H25Z" style="fill: #ededed"/>
    </g>
    <g>
      <path d="M149,134.65a3.23,3.23,0,0,1-.23,1.22,2.12,2.12,0,0,1-.69.89,2,2,0,0,1-2.22,0,2,2,0,0,1-.68-.9,3.31,3.31,0,0,1-.22-1.19,3.35,3.35,0,0,1,.22-1.19,2.12,2.12,0,0,1,.68-.9,1.88,1.88,0,0,1,1.12-.34,1.93,1.93,0,0,1,.88.2,1.79,1.79,0,0,1,.63.53,2.41,2.41,0,0,1,.38.77A3.6,3.6,0,0,1,149,134.65Zm-1.1,0a1.88,1.88,0,0,0-.06-.49,1.19,1.19,0,0,0-.17-.38.85.85,0,0,0-.69-.34.8.8,0,0,0-.68.33,1.5,1.5,0,0,0-.25.88,1.48,1.48,0,0,0,.25.88.85.85,0,0,0,1.18.18.87.87,0,0,0,.31-.43A1.54,1.54,0,0,0,147.9,134.65Z" style="fill: #ededed"/>
      <path d="M153.15,134.9a2.7,2.7,0,0,1-.17,1,1.76,1.76,0,0,1-.45.68,2.08,2.08,0,0,1-.6.36,2.16,2.16,0,0,1-.65.11,2,2,0,0,1-.88-.21,1.7,1.7,0,0,1-.71-.7,2.5,2.5,0,0,1-.29-1.28v-2.61h1.07v2.24a2.51,2.51,0,0,0,.1.78.91.91,0,0,0,.28.44.64.64,0,0,0,.43.15.68.68,0,0,0,.42-.14,1,1,0,0,0,.28-.45,2.4,2.4,0,0,0,.1-.77v-2.25h1.07Z" style="fill: #ededed"/>
      <path d="M157.19,133.44h-1.3V137h-1.07v-3.58h-1.3v-1.15h3.67Z" style="fill: #ededed"/>
    </g>
    <g>
      <path d="M19.61,201.25H18.36v-4.74h1.25Z"/>
      <path d="M25,201.25H23.83l-2.16-2.64v2.64H20.42v-4.74h1.12l2.15,2.63v-2.63H25Z"/>
    </g>
    <g>
      <path d="M149,199.45a3.23,3.23,0,0,1-.23,1.22,2.12,2.12,0,0,1-.69.89,2,2,0,0,1-2.22,0,2,2,0,0,1-.68-.9,3.31,3.31,0,0,1-.22-1.19,3.35,3.35,0,0,1,.22-1.19,2.12,2.12,0,0,1,.68-.9A1.82,1.82,0,0,1,147,197a1.93,1.93,0,0,1,.88.2,1.87,1.87,0,0,1,.63.52,2.57,2.57,0,0,1,.38.78A3.6,3.6,0,0,1,149,199.45Zm-1.1,0a1.88,1.88,0,0,0-.06-.49,1.19,1.19,0,0,0-.17-.38.85.85,0,0,0-.69-.34.8.8,0,0,0-.68.33,1.5,1.5,0,0,0-.25.88,1.48,1.48,0,0,0,.25.88.85.85,0,0,0,1.18.18.87.87,0,0,0,.31-.43A1.54,1.54,0,0,0,147.9,199.45Z"/>
      <path d="M153.15,199.7a2.7,2.7,0,0,1-.17,1,1.76,1.76,0,0,1-.45.68,2.08,2.08,0,0,1-.6.36,2.16,2.16,0,0,1-.65.11,2,2,0,0,1-.88-.21,1.7,1.7,0,0,1-.71-.7,2.5,2.5,0,0,1-.29-1.28v-2.61h1.07v2.24a2.51,2.51,0,0,0,.1.78.91.91,0,0,0,.28.44.64.64,0,0,0,.43.15.68.68,0,0,0,.42-.14,1,1,0,0,0,.28-.45,2.4,2.4,0,0,0,.1-.77v-2.25h1.07Z"/>
      <path d="M157.19,198.24h-1.3v3.58h-1.07v-3.58h-1.3v-1.15h3.67Z"/>
    </g>
    <g>
      <path d="M19.61,266.05H18.36v-4.74h1.25Z"/>
      <path d="M25,266.05H23.83l-2.16-2.64v2.64H20.42v-4.74h1.12l2.15,2.63v-2.63H25Z"/>
    </g>
    <g>
      <path d="M149,264.25a3.23,3.23,0,0,1-.23,1.22,2.12,2.12,0,0,1-.69.89,2,2,0,0,1-2.22,0,2,2,0,0,1-.68-.9,3.33,3.33,0,0,1,0-2.38,2.12,2.12,0,0,1,.68-.9,1.82,1.82,0,0,1,1.12-.34,1.93,1.93,0,0,1,.88.2,1.87,1.87,0,0,1,.63.52,2.57,2.57,0,0,1,.38.78A3.6,3.6,0,0,1,149,264.25Zm-1.1,0a1.88,1.88,0,0,0-.06-.49,1.19,1.19,0,0,0-.17-.38A.85.85,0,0,0,147,263a.8.8,0,0,0-.68.33,1.5,1.5,0,0,0-.25.88,1.48,1.48,0,0,0,.25.88.85.85,0,0,0,1.18.18.87.87,0,0,0,.31-.43A1.54,1.54,0,0,0,147.9,264.25Z"/>
      <path d="M153.15,264.5a2.7,2.7,0,0,1-.17,1,1.76,1.76,0,0,1-.45.68,2.08,2.08,0,0,1-.6.36,2.16,2.16,0,0,1-.65.11,2,2,0,0,1-.88-.21,1.7,1.7,0,0,1-.71-.7,2.53,2.53,0,0,1-.29-1.28v-2.61h1.07v2.24a2.51,2.51,0,0,0,.1.78.91.91,0,0,0,.28.44.64.64,0,0,0,.43.15.68.68,0,0,0,.42-.14,1,1,0,0,0,.28-.45,2.4,2.4,0,0,0,.1-.77v-2.25h1.07Z"/>
      <path d="M157.19,263h-1.3v3.58h-1.07V263h-1.3v-1.15h3.67Z"/>
    </g>
    <g>
      <g>
        <path d="M58.2,66.86a1.5,1.5,0,0,1-.2.77,1.33,1.33,0,0,1-.56.49,1.8,1.8,0,0,1-.82.18l-.32,0a3.93,3.93,0,0,1-.5-.11,3.31,3.31,0,0,1-.65-.25V66.76a4.6,4.6,0,0,0,.62.37,1.63,1.63,0,0,0,.66.14c.21,0,.35,0,.41-.12a.34.34,0,0,0,.1-.23.43.43,0,0,0-.16-.32,2,2,0,0,0-.48-.27,3.81,3.81,0,0,1-.6-.36,1.62,1.62,0,0,1-.42-.48,1.35,1.35,0,0,1-.16-.69,1.46,1.46,0,0,1,.16-.69,1.15,1.15,0,0,1,.51-.49,1.62,1.62,0,0,1,.83-.19,2.61,2.61,0,0,1,.64.08,2.75,2.75,0,0,1,.49.17,1.44,1.44,0,0,1,.27.15v1.11a3.72,3.72,0,0,0-.57-.37,1.45,1.45,0,0,0-.68-.16.48.48,0,0,0-.34.1.33.33,0,0,0-.1.25.31.31,0,0,0,.1.24,1.54,1.54,0,0,0,.38.25,8.2,8.2,0,0,1,.77.46,1.7,1.7,0,0,1,.45.48A1.26,1.26,0,0,1,58.2,66.86Z"/>
        <path d="M62.54,67.88a3.1,3.1,0,0,1-.53.24,2.78,2.78,0,0,1-.55.14,5.1,5.1,0,0,1-.57,0,2.55,2.55,0,0,1-1-.18,2.06,2.06,0,0,1-.74-.5,2.09,2.09,0,0,1-.48-.78,3.05,3.05,0,0,1-.16-1,2.73,2.73,0,0,1,.19-1.07A2.08,2.08,0,0,1,60,63.58a2.76,2.76,0,0,1,.91-.15,4.42,4.42,0,0,1,1.61.36v1.26a4.52,4.52,0,0,0-.61-.37,1.76,1.76,0,0,0-.71-.14,1.49,1.49,0,0,0-.69.16,1.26,1.26,0,0,0-.5.47,1.28,1.28,0,0,0-.2.71,1.35,1.35,0,0,0,.17.66,1.18,1.18,0,0,0,.47.47,1.28,1.28,0,0,0,.68.18,2.12,2.12,0,0,0,.57-.08,2.91,2.91,0,0,0,.46-.19l.38-.24Z"/>
        <path d="M67.71,68.23H66.42l-.34-1H64.27l-.34,1H62.64l1.85-4.73h1.38ZM65.8,66.45l-.61-1.73-.62,1.73Z"/>
        <path d="M71.19,68.23H68V63.5h1.26v3.6h1.91Z"/>
        <path d="M74.82,68.23H71.67V63.5h3.09v1H72.93v.86h1.75v1H72.93v1h1.89Z"/>
      </g>
      <g>
        <path d="M58.2,131.66a1.5,1.5,0,0,1-.2.77,1.33,1.33,0,0,1-.56.49,1.8,1.8,0,0,1-.82.18l-.32,0a3.93,3.93,0,0,1-.5-.11,3.31,3.31,0,0,1-.65-.25v-1.16a4.6,4.6,0,0,0,.62.37,1.48,1.48,0,0,0,.66.14c.21,0,.35,0,.41-.12a.33.33,0,0,0,.1-.22.44.44,0,0,0-.16-.33,2,2,0,0,0-.48-.27,3.81,3.81,0,0,1-.6-.36,1.62,1.62,0,0,1-.42-.48,1.35,1.35,0,0,1-.16-.69,1.46,1.46,0,0,1,.16-.69,1.15,1.15,0,0,1,.51-.49,1.62,1.62,0,0,1,.83-.19,2.61,2.61,0,0,1,.64.08,2.75,2.75,0,0,1,.49.17l.27.15v1.11a3.72,3.72,0,0,0-.57-.37,1.45,1.45,0,0,0-.68-.16.48.48,0,0,0-.34.1.33.33,0,0,0-.1.25.3.3,0,0,0,.1.24,1.54,1.54,0,0,0,.38.25,6.38,6.38,0,0,1,.77.47A1.54,1.54,0,0,1,58,131,1.26,1.26,0,0,1,58.2,131.66Z"/>
        <path d="M62.54,132.68a4.22,4.22,0,0,1-.53.25,3.65,3.65,0,0,1-.55.13,5.1,5.1,0,0,1-.57,0,2.76,2.76,0,0,1-1-.17,2.23,2.23,0,0,1-.74-.51,2.09,2.09,0,0,1-.48-.78,3.05,3.05,0,0,1-.16-1,2.73,2.73,0,0,1,.19-1.07A2.08,2.08,0,0,1,60,128.38a2.76,2.76,0,0,1,.91-.15,4.42,4.42,0,0,1,1.61.36v1.26a4.52,4.52,0,0,0-.61-.37,1.76,1.76,0,0,0-.71-.14,1.49,1.49,0,0,0-.69.16,1.26,1.26,0,0,0-.5.47,1.28,1.28,0,0,0-.2.71,1.35,1.35,0,0,0,.17.66,1.27,1.27,0,0,0,.47.48,1.37,1.37,0,0,0,.68.17,2.12,2.12,0,0,0,.57-.08,2.91,2.91,0,0,0,.46-.19l.38-.24Z"/>
        <path d="M67.71,133H66.42l-.34-1H64.27l-.34,1H62.64l1.85-4.73h1.38Zm-1.91-1.78-.61-1.73-.62,1.73Z"/>
        <path d="M71.19,133H68V128.3h1.26v3.6h1.91Z"/>
        <path d="M74.82,133H71.67V128.3h3.09v.95H72.93v.87h1.75v.95H72.93v1h1.89Z"/>
      </g>
      <g>
        <path d="M58.2,196.46a1.43,1.43,0,0,1-.2.76,1.29,1.29,0,0,1-.56.5,1.8,1.8,0,0,1-.82.17H56.3a3.93,3.93,0,0,1-.5-.11,4.1,4.1,0,0,1-.65-.25v-1.16a6,6,0,0,0,.62.37,1.63,1.63,0,0,0,.66.14c.21,0,.35,0,.41-.12a.36.36,0,0,0,.1-.23.43.43,0,0,0-.16-.32,2,2,0,0,0-.48-.27,3.81,3.81,0,0,1-.6-.36,1.62,1.62,0,0,1-.42-.48,1.38,1.38,0,0,1-.16-.69,1.46,1.46,0,0,1,.16-.69,1.15,1.15,0,0,1,.51-.49,1.62,1.62,0,0,1,.83-.19,2.61,2.61,0,0,1,.64.08,2.75,2.75,0,0,1,.49.17,1.44,1.44,0,0,1,.27.15v1.11a3.72,3.72,0,0,0-.57-.37,1.46,1.46,0,0,0-.68-.17.48.48,0,0,0-.34.11.33.33,0,0,0-.1.25.33.33,0,0,0,.1.24,1.89,1.89,0,0,0,.38.25,8.2,8.2,0,0,1,.77.46,1.7,1.7,0,0,1,.45.48A1.26,1.26,0,0,1,58.2,196.46Z"/>
        <path d="M62.54,197.48a3.1,3.1,0,0,1-.53.24,3.7,3.7,0,0,1-.55.14,5.17,5.17,0,0,1-.57,0,2.55,2.55,0,0,1-1-.17,2.06,2.06,0,0,1-.74-.5,2.09,2.09,0,0,1-.48-.78,3.05,3.05,0,0,1-.16-1,2.73,2.73,0,0,1,.19-1.07A2.08,2.08,0,0,1,60,193.18a2.76,2.76,0,0,1,.91-.15,4.42,4.42,0,0,1,1.61.36v1.26a4.52,4.52,0,0,0-.61-.37,1.76,1.76,0,0,0-.71-.14,1.49,1.49,0,0,0-.69.16,1.26,1.26,0,0,0-.5.47,1.28,1.28,0,0,0-.2.71,1.35,1.35,0,0,0,.17.66,1.18,1.18,0,0,0,.47.47,1.28,1.28,0,0,0,.68.18,2.12,2.12,0,0,0,.57-.08,2.91,2.91,0,0,0,.46-.19l.38-.24Z"/>
        <path d="M67.71,197.83H66.42l-.34-1H64.27l-.34,1H62.64l1.85-4.73h1.38Zm-1.91-1.78-.61-1.73-.62,1.73Z"/>
        <path d="M71.19,197.83H68V193.1h1.26v3.6h1.91Z"/>
        <path d="M74.82,197.83H71.67V193.1h3.09v1H72.93v.86h1.75v1H72.93v1h1.89Z"/>
      </g>
      <g>
        <path d="M58.2,261.26a1.5,1.5,0,0,1-.2.77,1.33,1.33,0,0,1-.56.49,1.8,1.8,0,0,1-.82.18l-.32,0a3.93,3.93,0,0,1-.5-.11,3.31,3.31,0,0,1-.65-.25v-1.16a4.6,4.6,0,0,0,.62.37,1.63,1.63,0,0,0,.66.14c.21,0,.35,0,.41-.12a.34.34,0,0,0,.1-.23.43.43,0,0,0-.16-.32,2,2,0,0,0-.48-.27,3.81,3.81,0,0,1-.6-.36,1.62,1.62,0,0,1-.42-.48,1.35,1.35,0,0,1-.16-.69,1.46,1.46,0,0,1,.16-.69,1.15,1.15,0,0,1,.51-.49,1.62,1.62,0,0,1,.83-.19,2.61,2.61,0,0,1,.64.08,2.75,2.75,0,0,1,.49.17l.27.15v1.11a3.72,3.72,0,0,0-.57-.37,1.45,1.45,0,0,0-.68-.16.48.48,0,0,0-.34.1.33.33,0,0,0-.1.25.31.31,0,0,0,.1.24,1.54,1.54,0,0,0,.38.25,6.38,6.38,0,0,1,.77.47,1.54,1.54,0,0,1,.45.47A1.26,1.26,0,0,1,58.2,261.26Z"/>
        <path d="M62.54,262.28a3.1,3.1,0,0,1-.53.24,2.78,2.78,0,0,1-.55.14,5.1,5.1,0,0,1-.57,0,2.55,2.55,0,0,1-1-.18,2.06,2.06,0,0,1-.74-.5,2.09,2.09,0,0,1-.48-.78,3.05,3.05,0,0,1-.16-1,2.73,2.73,0,0,1,.19-1.07A2.08,2.08,0,0,1,60,258a2.76,2.76,0,0,1,.91-.15,4.42,4.42,0,0,1,1.61.36v1.26a4.52,4.52,0,0,0-.61-.37,1.76,1.76,0,0,0-.71-.14,1.49,1.49,0,0,0-.69.16,1.26,1.26,0,0,0-.5.47,1.28,1.28,0,0,0-.2.71,1.35,1.35,0,0,0,.17.66,1.18,1.18,0,0,0,.47.47,1.28,1.28,0,0,0,.68.18,2.12,2.12,0,0,0,.57-.08,2.91,2.91,0,0,0,.46-.19l.38-.24Z"/>
        <path d="M67.71,262.63H66.42l-.34-1H64.27l-.34,1H62.64l1.85-4.73h1.38Zm-1.91-1.78-.61-1.73-.62,1.73Z"/>
        <path d="M71.19,262.63H68V257.9h1.26v3.6h1.91Z"/>
        <path d="M74.82,262.63H71.67V257.9h3.09v1H72.93v.86h1.75v1H72.93v1h1.89Z"/>
      </g>
    </g>
    <g>
      <g>
        <path d="M101.69,66.86a1.5,1.5,0,0,1-.2.77,1.33,1.33,0,0,1-.56.49,1.8,1.8,0,0,1-.82.18l-.32,0a4.34,4.34,0,0,1-.5-.11,3.31,3.31,0,0,1-.65-.25V66.76a4.13,4.13,0,0,0,.63.37,1.58,1.58,0,0,0,.65.14.55.55,0,0,0,.42-.12.37.37,0,0,0,.09-.23.4.4,0,0,0-.16-.32,2.17,2.17,0,0,0-.47-.27,3.93,3.93,0,0,1-.61-.36,1.62,1.62,0,0,1-.42-.48,1.35,1.35,0,0,1-.16-.69,1.46,1.46,0,0,1,.16-.69,1.15,1.15,0,0,1,.51-.49,1.62,1.62,0,0,1,.83-.19,2.55,2.55,0,0,1,.64.08,2.75,2.75,0,0,1,.49.17,1.44,1.44,0,0,1,.27.15v1.11a3.29,3.29,0,0,0-.57-.37,1.44,1.44,0,0,0-.67-.16.46.46,0,0,0-.34.1.34.34,0,0,0-.11.25.32.32,0,0,0,.11.24,1.44,1.44,0,0,0,.37.25,8.2,8.2,0,0,1,.77.46,1.7,1.7,0,0,1,.45.48A1.26,1.26,0,0,1,101.69,66.86Z"/>
        <path d="M106.7,68.23h-1.25V66.38h-1.9v1.85H102.3V63.5h1.25v1.74h1.9V63.5h1.25Z"/>
        <path d="M108.76,68.23H107.5V63.5h1.26Z"/>
        <path d="M112.56,66.32h-1.73v1.91h-1.26V63.5h3v1h-1.73v.91h1.73Z"/>
        <path d="M117.15,64.65h-1.53v3.58h-1.25V64.65h-1.53V63.5h4.31Z"/>
      </g>
      <g>
        <path d="M101.69,131.66a1.5,1.5,0,0,1-.2.77,1.33,1.33,0,0,1-.56.49,1.8,1.8,0,0,1-.82.18l-.32,0a4.34,4.34,0,0,1-.5-.11,3.31,3.31,0,0,1-.65-.25v-1.16a4.13,4.13,0,0,0,.63.37,1.44,1.44,0,0,0,.65.14.55.55,0,0,0,.42-.12.37.37,0,0,0,.09-.22.41.41,0,0,0-.16-.33,2.17,2.17,0,0,0-.47-.27,3.93,3.93,0,0,1-.61-.36,1.62,1.62,0,0,1-.42-.48,1.35,1.35,0,0,1-.16-.69,1.46,1.46,0,0,1,.16-.69,1.15,1.15,0,0,1,.51-.49,1.62,1.62,0,0,1,.83-.19,2.55,2.55,0,0,1,.64.08,2.75,2.75,0,0,1,.49.17l.27.15v1.11a3.29,3.29,0,0,0-.57-.37,1.44,1.44,0,0,0-.67-.16.46.46,0,0,0-.34.1.34.34,0,0,0-.11.25.3.3,0,0,0,.11.24,1.44,1.44,0,0,0,.37.25,6.38,6.38,0,0,1,.77.47,1.54,1.54,0,0,1,.45.47A1.26,1.26,0,0,1,101.69,131.66Z"/>
        <path d="M106.7,133h-1.25v-1.84h-1.9V133H102.3V128.3h1.25V130h1.9V128.3h1.25Z"/>
        <path d="M108.76,133H107.5V128.3h1.26Z"/>
        <path d="M112.56,131.12h-1.73V133h-1.26V128.3h3v.95h-1.73v.91h1.73Z"/>
        <path d="M117.15,129.45h-1.53V133h-1.25v-3.58h-1.53V128.3h4.31Z"/>
      </g>
      <g>
        <path d="M101.69,196.46a1.43,1.43,0,0,1-.2.76,1.29,1.29,0,0,1-.56.5,1.8,1.8,0,0,1-.82.17h-.32a4.34,4.34,0,0,1-.5-.11,4.1,4.1,0,0,1-.65-.25v-1.16a5.16,5.16,0,0,0,.63.37,1.58,1.58,0,0,0,.65.14.55.55,0,0,0,.42-.12.4.4,0,0,0,.09-.23.4.4,0,0,0-.16-.32,2.17,2.17,0,0,0-.47-.27,3.93,3.93,0,0,1-.61-.36,1.62,1.62,0,0,1-.42-.48,1.38,1.38,0,0,1-.16-.69,1.46,1.46,0,0,1,.16-.69,1.15,1.15,0,0,1,.51-.49,1.62,1.62,0,0,1,.83-.19,2.55,2.55,0,0,1,.64.08,2.75,2.75,0,0,1,.49.17,1.44,1.44,0,0,1,.27.15v1.11a3.29,3.29,0,0,0-.57-.37,1.45,1.45,0,0,0-.67-.17.46.46,0,0,0-.34.11.34.34,0,0,0-.11.25.34.34,0,0,0,.11.24,1.76,1.76,0,0,0,.37.25,8.2,8.2,0,0,1,.77.46,1.7,1.7,0,0,1,.45.48A1.26,1.26,0,0,1,101.69,196.46Z"/>
        <path d="M106.7,197.83h-1.25V196h-1.9v1.85H102.3V193.1h1.25v1.74h1.9V193.1h1.25Z"/>
        <path d="M108.76,197.83H107.5V193.1h1.26Z"/>
        <path d="M112.56,195.92h-1.73v1.91h-1.26V193.1h3v1h-1.73V195h1.73Z"/>
        <path d="M117.15,194.25h-1.53v3.58h-1.25v-3.58h-1.53V193.1h4.31Z"/>
      </g>
      <g>
        <path d="M101.69,261.26a1.5,1.5,0,0,1-.2.77,1.33,1.33,0,0,1-.56.49,1.8,1.8,0,0,1-.82.18l-.32,0a4.34,4.34,0,0,1-.5-.11,3.31,3.31,0,0,1-.65-.25v-1.16a4.13,4.13,0,0,0,.63.37,1.58,1.58,0,0,0,.65.14.55.55,0,0,0,.42-.12.37.37,0,0,0,.09-.23.4.4,0,0,0-.16-.32,2.17,2.17,0,0,0-.47-.27,3.93,3.93,0,0,1-.61-.36,1.62,1.62,0,0,1-.42-.48,1.35,1.35,0,0,1-.16-.69,1.46,1.46,0,0,1,.16-.69,1.15,1.15,0,0,1,.51-.49,1.62,1.62,0,0,1,.83-.19,2.55,2.55,0,0,1,.64.08,2.75,2.75,0,0,1,.49.17l.27.15v1.11a3.29,3.29,0,0,0-.57-.37,1.44,1.44,0,0,0-.67-.16.46.46,0,0,0-.34.1.34.34,0,0,0-.11.25.32.32,0,0,0,.11.24,1.44,1.44,0,0,0,.37.25,6.38,6.38,0,0,1,.77.47,1.54,1.54,0,0,1,.45.47A1.26,1.26,0,0,1,101.69,261.26Z"/>
        <path d="M106.7,262.63h-1.25v-1.85h-1.9v1.85H102.3V257.9h1.25v1.74h1.9V257.9h1.25Z"/>
        <path d="M108.76,262.63H107.5V257.9h1.26Z"/>
        <path d="M112.56,260.72h-1.73v1.91h-1.26V257.9h3v1h-1.73v.91h1.73Z"/>
        <path d="M117.15,259.05h-1.53v3.58h-1.25v-3.58h-1.53V257.9h4.31Z"/>
      </g>
    </g>
    <path d="M109.55,27.13a3.1,3.1,0,0,1-.16,1,1.88,1.88,0,0,1-1.1,1.13,2.38,2.38,0,0,1-1.55,0,1.83,1.83,0,0,1-1.09-1.13,3.12,3.12,0,0,1,0-2,1.87,1.87,0,0,1,.44-.71,1.73,1.73,0,0,1,.65-.42,2.22,2.22,0,0,1,1.55,0,1.93,1.93,0,0,1,.65.41,2,2,0,0,1,.45.72A3.12,3.12,0,0,1,109.55,27.13Zm-1.49,0a4.26,4.26,0,0,0-.09-1,.44.44,0,0,0-.46-.38.39.39,0,0,0-.36.21,1.28,1.28,0,0,0-.15.49,6,6,0,0,0,0,.65,4.18,4.18,0,0,0,.09,1,.47.47,0,0,0,.91,0A4.18,4.18,0,0,0,108.06,27.13Z" style="fill: #231f20"/>
    <path d="M71.7,59.42a15.06,15.06,0,1,0-14.89,0" style="fill: none;stroke: #000;stroke-width: 1.6100400000000001px"/>
    <line x1="67.04" y1="30.37" x2="64.25" y2="46.16" style="fill: none;stroke: #ededed;stroke-width: 1.12366px"/>
    <line x1="61.47" y1="30.37" x2="64.25" y2="46.16" style="fill: none;stroke: #ededed;stroke-width: 1.12366px"/>
    <polyline points="56.24 32.27 64.25 46.16 72.27 60.05" style="fill: none;stroke: #ededed;stroke-width: 1.12366px"/>
    <polyline points="51.97 35.85 64.25 46.16 76.53 56.47" style="fill: none;stroke: #ededed;stroke-width: 1.12366px"/>
    <polyline points="49.19 40.68 64.25 46.16 79.32 51.65" style="fill: none;stroke: #ededed;stroke-width: 1.12366px"/>
    <polyline points="48.22 46.16 64.25 46.16 80.29 46.16" style="fill: none;stroke: #ededed;stroke-width: 1.12366px"/>
    <polyline points="49.18 51.65 64.25 46.16 79.32 40.68" style="fill: none;stroke: #ededed;stroke-width: 1.12366px"/>
    <polyline points="51.97 56.47 64.25 46.16 76.53 35.85" style="fill: none;stroke: #ededed;stroke-width: 1.12366px"/>
    <polyline points="56.23 60.05 64.25 46.16 72.27 32.28" style="fill: none;stroke: #ededed;stroke-width: 1.12366px"/>
    <path d="M66.35,27.13a3.1,3.1,0,0,1-.16,1,1.88,1.88,0,0,1-1.1,1.13,2.38,2.38,0,0,1-1.55,0,1.83,1.83,0,0,1-1.09-1.13,3.12,3.12,0,0,1,0-2,1.87,1.87,0,0,1,.44-.71,1.73,1.73,0,0,1,.65-.42,2.22,2.22,0,0,1,1.55,0,1.93,1.93,0,0,1,.65.41,2,2,0,0,1,.45.72A3.12,3.12,0,0,1,66.35,27.13Zm-1.49,0a4.26,4.26,0,0,0-.09-1,.44.44,0,0,0-.46-.38A.39.39,0,0,0,64,26a1.28,1.28,0,0,0-.15.49,6,6,0,0,0,0,.65,4.18,4.18,0,0,0,.09,1,.47.47,0,0,0,.91,0A4.18,4.18,0,0,0,64.86,27.13Z" style="fill: #231f20"/>
    <path d="M109.55,91.93a3.1,3.1,0,0,1-.16,1,1.88,1.88,0,0,1-1.1,1.13,2.38,2.38,0,0,1-1.55,0,1.83,1.83,0,0,1-1.09-1.13,3.12,3.12,0,0,1,0-2,1.87,1.87,0,0,1,.44-.71,1.73,1.73,0,0,1,.65-.42,2.22,2.22,0,0,1,1.55,0,1.93,1.93,0,0,1,.65.41,2,2,0,0,1,.45.72A3.12,3.12,0,0,1,109.55,91.93Zm-1.49,0a4.26,4.26,0,0,0-.09-1,.44.44,0,0,0-.46-.38.39.39,0,0,0-.36.21,1.28,1.28,0,0,0-.15.49,6,6,0,0,0,0,.65,4.18,4.18,0,0,0,.09,1,.47.47,0,0,0,.91,0A4.18,4.18,0,0,0,108.06,91.93Z" style="fill: #231f20"/>
    <path d="M66.35,91.93a3.1,3.1,0,0,1-.16,1,1.88,1.88,0,0,1-1.1,1.13,2.38,2.38,0,0,1-1.55,0,1.83,1.83,0,0,1-1.09-1.13,3.12,3.12,0,0,1,0-2,1.87,1.87,0,0,1,.44-.71,1.73,1.73,0,0,1,.65-.42,2.22,2.22,0,0,1,1.55,0,1.93,1.93,0,0,1,.65.41,2,2,0,0,1,.45.72A3.12,3.12,0,0,1,66.35,91.93Zm-1.49,0a4.26,4.26,0,0,0-.09-1,.44.44,0,0,0-.46-.38.39.39,0,0,0-.36.21,1.28,1.28,0,0,0-.15.49,6,6,0,0,0,0,.65,4.18,4.18,0,0,0,.09,1,.47.47,0,0,0,.91,0A4.18,4.18,0,0,0,64.86,91.93Z" style="fill: #231f20"/>
    <path d="M109.55,156.73a3.1,3.1,0,0,1-.16,1,1.88,1.88,0,0,1-.45.71,1.73,1.73,0,0,1-.65.42,2.38,2.38,0,0,1-1.55,0,1.82,1.82,0,0,1-.65-.42,1.87,1.87,0,0,1-.44-.71,3.12,3.12,0,0,1,0-2,1.87,1.87,0,0,1,.44-.71,1.73,1.73,0,0,1,.65-.42,2.22,2.22,0,0,1,1.55,0,1.82,1.82,0,0,1,.65.42,1.88,1.88,0,0,1,.45.71A3.16,3.16,0,0,1,109.55,156.73Zm-1.49,0a4.26,4.26,0,0,0-.09-1,.44.44,0,0,0-.46-.38.39.39,0,0,0-.36.21,1.28,1.28,0,0,0-.15.49,6,6,0,0,0,0,.65,4.12,4.12,0,0,0,.09,1,.47.47,0,0,0,.91,0A4.12,4.12,0,0,0,108.06,156.73Z"/>
    <path d="M66.35,156.73a3.1,3.1,0,0,1-.16,1,1.88,1.88,0,0,1-.45.71,1.73,1.73,0,0,1-.65.42,2.38,2.38,0,0,1-1.55,0,1.82,1.82,0,0,1-.65-.42,1.87,1.87,0,0,1-.44-.71,3.12,3.12,0,0,1,0-2,1.87,1.87,0,0,1,.44-.71,1.73,1.73,0,0,1,.65-.42,2.22,2.22,0,0,1,1.55,0,1.82,1.82,0,0,1,.65.42,1.88,1.88,0,0,1,.45.71A3.16,3.16,0,0,1,66.35,156.73Zm-1.49,0a4.26,4.26,0,0,0-.09-1,.44.44,0,0,0-.46-.38.39.39,0,0,0-.36.21,1.28,1.28,0,0,0-.15.49,6,6,0,0,0,0,.65,4.12,4.12,0,0,0,.09,1,.47.47,0,0,0,.91,0A4.12,4.12,0,0,0,64.86,156.73Z"/>
    <g>
      <path d="M96,60.74H92V59.67H96Z"/>
      <path d="M96,125.54H92v-1.07H96Z"/>
      <path d="M96,190.34H92v-1.07H96Z"/>
      <path d="M96,255.14H92v-1.07H96Z"/>
    </g>
    <g>
      <path d="M123.76,60h-1.64v1.87h-.94V60h-1.64V58.9h1.64V57h.94V58.9h1.64Z"/>
      <path d="M123.76,124.76h-1.64v1.87h-.94v-1.87h-1.64V123.7h1.64v-1.87h.94v1.87h1.64Z"/>
      <path d="M123.76,189.56h-1.64v1.87h-.94v-1.87h-1.64V188.5h1.64v-1.87h.94v1.87h1.64Z"/>
      <path d="M123.76,254.36h-1.64v1.87h-.94v-1.87h-1.64V253.3h1.64v-1.87h.94v1.87h1.64Z"/>
    </g>
    <path d="M109.55,221.53a3.1,3.1,0,0,1-.16,1,1.88,1.88,0,0,1-1.1,1.13,2.38,2.38,0,0,1-1.55,0,1.83,1.83,0,0,1-1.09-1.13,3.12,3.12,0,0,1,0-2,1.87,1.87,0,0,1,.44-.71,1.73,1.73,0,0,1,.65-.42,2.22,2.22,0,0,1,1.55,0,1.93,1.93,0,0,1,.65.41,2,2,0,0,1,.45.72A3.12,3.12,0,0,1,109.55,221.53Zm-1.49,0a4.26,4.26,0,0,0-.09-1,.44.44,0,0,0-.46-.38.39.39,0,0,0-.36.21,1.28,1.28,0,0,0-.15.49,6,6,0,0,0,0,.65,4.12,4.12,0,0,0,.09,1,.47.47,0,0,0,.91,0A4.12,4.12,0,0,0,108.06,221.53Z" style="fill: #231f20"/>
    <g>
      <path d="M52.4,60.74H48.45V59.67H52.4Z"/>
      <path d="M52.4,125.54H48.45v-1.07H52.4Z"/>
      <path d="M52.4,190.34H48.45v-1.07H52.4Z"/>
      <path d="M52.4,255.14H48.45v-1.07H52.4Z"/>
    </g>
    <g>
      <path d="M80.92,60.32H79.28v1.87h-.94V60.32H76.7V59.26h1.64V57.39h.94v1.87h1.64Z"/>
      <path d="M80.92,125.12H79.28V127h-.94v-1.87H76.7v-1.06h1.64v-1.87h.94v1.87h1.64Z"/>
      <path d="M80.92,189.92H79.28v1.87h-.94v-1.87H76.7v-1.06h1.64V187h.94v1.87h1.64Z"/>
      <path d="M80.92,254.72H79.28v1.87h-.94v-1.87H76.7v-1.06h1.64v-1.87h.94v1.87h1.64Z"/>
    </g>
    <path d="M66.35,221.53a3.1,3.1,0,0,1-.16,1,1.88,1.88,0,0,1-1.1,1.13,2.38,2.38,0,0,1-1.55,0,1.83,1.83,0,0,1-1.09-1.13,3.12,3.12,0,0,1,0-2,1.87,1.87,0,0,1,.44-.71,1.73,1.73,0,0,1,.65-.42,2.22,2.22,0,0,1,1.55,0,1.93,1.93,0,0,1,.65.41,2,2,0,0,1,.45.72A3.12,3.12,0,0,1,66.35,221.53Zm-1.49,0a4.26,4.26,0,0,0-.09-1,.44.44,0,0,0-.46-.38.39.39,0,0,0-.36.21,1.28,1.28,0,0,0-.15.49,6,6,0,0,0,0,.65,4.12,4.12,0,0,0,.09,1,.47.47,0,0,0,.91,0A4.12,4.12,0,0,0,64.86,221.53Z" style="fill: #231f20"/>
    <path d="M114.9,59.42a15.06,15.06,0,1,0-14.89,0" style="fill: none;stroke: #000;stroke-width: 1.6100400000000001px"/>
    <line x1="110.24" y1="30.37" x2="107.45" y2="46.16" style="fill: none;stroke: #ededed;stroke-width: 1.12366px"/>
    <line x1="104.67" y1="30.37" x2="107.45" y2="46.16" style="fill: none;stroke: #ededed;stroke-width: 1.12366px"/>
    <polyline points="99.44 32.27 107.45 46.16 115.47 60.05" style="fill: none;stroke: #ededed;stroke-width: 1.12366px"/>
    <polyline points="95.17 35.85 107.45 46.16 119.73 56.47" style="fill: none;stroke: #ededed;stroke-width: 1.12366px"/>
    <polyline points="92.39 40.68 107.45 46.16 122.52 51.65" style="fill: none;stroke: #ededed;stroke-width: 1.12366px"/>
    <polyline points="91.42 46.16 107.45 46.16 123.49 46.16" style="fill: none;stroke: #ededed;stroke-width: 1.12366px"/>
    <polyline points="92.38 51.65 107.45 46.16 122.52 40.68" style="fill: none;stroke: #ededed;stroke-width: 1.12366px"/>
    <polyline points="95.17 56.47 107.45 46.16 119.73 35.85" style="fill: none;stroke: #ededed;stroke-width: 1.12366px"/>
    <polyline points="99.43 60.05 107.45 46.16 115.47 32.28" style="fill: none;stroke: #ededed;stroke-width: 1.12366px"/>
    <path d="M71.7,124.22a15.06,15.06,0,1,0-14.89,0" style="fill: none;stroke: #000;stroke-width: 1.6100400000000001px"/>
    <line x1="67.04" y1="95.17" x2="64.25" y2="110.96" style="fill: none;stroke: #ededed;stroke-width: 1.12366px"/>
    <line x1="61.47" y1="95.17" x2="64.25" y2="110.96" style="fill: none;stroke: #ededed;stroke-width: 1.12366px"/>
    <polyline points="56.24 97.08 64.25 110.96 72.27 124.85" style="fill: none;stroke: #ededed;stroke-width: 1.12366px"/>
    <polyline points="51.97 100.65 64.25 110.96 76.53 121.27" style="fill: none;stroke: #ededed;stroke-width: 1.12366px"/>
    <polyline points="49.19 105.48 64.25 110.96 79.32 116.45" style="fill: none;stroke: #ededed;stroke-width: 1.12366px"/>
    <polyline points="48.22 110.96 64.25 110.96 80.29 110.96" style="fill: none;stroke: #ededed;stroke-width: 1.12366px"/>
    <polyline points="49.18 116.45 64.25 110.96 79.32 105.48" style="fill: none;stroke: #ededed;stroke-width: 1.12366px"/>
    <polyline points="51.97 121.27 64.25 110.96 76.53 100.66" style="fill: none;stroke: #ededed;stroke-width: 1.12366px"/>
    <polyline points="56.23 124.85 64.25 110.96 72.27 97.08" style="fill: none;stroke: #ededed;stroke-width: 1.12366px"/>
    <path d="M114.9,124.22a15.06,15.06,0,1,0-14.89,0" style="fill: none;stroke: #000;stroke-width: 1.6100400000000001px"/>
    <line x1="110.24" y1="95.17" x2="107.45" y2="110.96" style="fill: none;stroke: #ededed;stroke-width: 1.12366px"/>
    <line x1="104.67" y1="95.17" x2="107.45" y2="110.96" style="fill: none;stroke: #ededed;stroke-width: 1.12366px"/>
    <polyline points="99.44 97.08 107.45 110.96 115.47 124.85" style="fill: none;stroke: #ededed;stroke-width: 1.12366px"/>
    <polyline points="95.17 100.65 107.45 110.96 119.73 121.27" style="fill: none;stroke: #ededed;stroke-width: 1.12366px"/>
    <polyline points="92.39 105.48 107.45 110.96 122.52 116.45" style="fill: none;stroke: #ededed;stroke-width: 1.12366px"/>
    <polyline points="91.42 110.96 107.45 110.96 123.49 110.96" style="fill: none;stroke: #ededed;stroke-width: 1.12366px"/>
    <polyline points="92.38 116.45 107.45 110.96 122.52 105.48" style="fill: none;stroke: #ededed;stroke-width: 1.12366px"/>
    <polyline points="95.17 121.27 107.45 110.96 119.73 100.66" style="fill: none;stroke: #ededed;stroke-width: 1.12366px"/>
    <polyline points="99.43 124.85 107.45 110.96 115.47 97.08" style="fill: none;stroke: #ededed;stroke-width: 1.12366px"/>
    <path d="M71.7,189a15.06,15.06,0,1,0-14.89,0" style="fill: none;stroke: #000;stroke-width: 1.6100400000000001px"/>
    <line x1="67.04" y1="159.97" x2="64.25" y2="175.76" style="fill: none;stroke: #ededed;stroke-width: 1.12366px"/>
    <line x1="61.47" y1="159.97" x2="64.25" y2="175.76" style="fill: none;stroke: #ededed;stroke-width: 1.12366px"/>
    <polyline points="56.24 161.88 64.25 175.76 72.27 189.65" style="fill: none;stroke: #ededed;stroke-width: 1.12366px"/>
    <polyline points="51.97 165.45 64.25 175.76 76.53 186.07" style="fill: none;stroke: #ededed;stroke-width: 1.12366px"/>
    <polyline points="49.19 170.28 64.25 175.76 79.32 181.25" style="fill: none;stroke: #ededed;stroke-width: 1.12366px"/>
    <polyline points="48.22 175.76 64.25 175.76 80.29 175.76" style="fill: none;stroke: #ededed;stroke-width: 1.12366px"/>
    <polyline points="49.18 181.25 64.25 175.76 79.32 170.28" style="fill: none;stroke: #ededed;stroke-width: 1.12366px"/>
    <polyline points="51.97 186.07 64.25 175.76 76.53 165.46" style="fill: none;stroke: #ededed;stroke-width: 1.12366px"/>
    <polyline points="56.23 189.65 64.25 175.76 72.27 161.88" style="fill: none;stroke: #ededed;stroke-width: 1.12366px"/>
    <path d="M114.9,189A15.06,15.06,0,1,0,100,189" style="fill: none;stroke: #000;stroke-width: 1.6100400000000001px"/>
    <line x1="110.24" y1="159.97" x2="107.45" y2="175.76" style="fill: none;stroke: #ededed;stroke-width: 1.12366px"/>
    <line x1="104.67" y1="159.97" x2="107.45" y2="175.76" style="fill: none;stroke: #ededed;stroke-width: 1.12366px"/>
    <polyline points="99.44 161.88 107.45 175.76 115.47 189.65" style="fill: none;stroke: #ededed;stroke-width: 1.12366px"/>
    <polyline points="95.17 165.45 107.45 175.76 119.73 186.07" style="fill: none;stroke: #ededed;stroke-width: 1.12366px"/>
    <polyline points="92.39 170.28 107.45 175.76 122.52 181.25" style="fill: none;stroke: #ededed;stroke-width: 1.12366px"/>
    <polyline points="91.42 175.76 107.45 175.76 123.49 175.76" style="fill: none;stroke: #ededed;stroke-width: 1.12366px"/>
    <polyline points="92.38 181.25 107.45 175.76 122.52 170.28" style="fill: none;stroke: #ededed;stroke-width: 1.12366px"/>
    <polyline points="95.17 186.07 107.45 175.76 119.73 165.46" style="fill: none;stroke: #ededed;stroke-width: 1.12366px"/>
    <polyline points="99.43 189.65 107.45 175.76 115.47 161.88" style="fill: none;stroke: #ededed;stroke-width: 1.12366px"/>
    <path d="M71.7,253.82a15.06,15.06,0,1,0-14.89,0" style="fill: none;stroke: #000;stroke-width: 1.6100400000000001px"/>
    <line x1="67.04" y1="224.77" x2="64.25" y2="240.56" style="fill: none;stroke: #ededed;stroke-width: 1.12366px"/>
    <line x1="61.47" y1="224.77" x2="64.25" y2="240.56" style="fill: none;stroke: #ededed;stroke-width: 1.12366px"/>
    <polyline points="56.24 226.67 64.25 240.56 72.27 254.45" style="fill: none;stroke: #ededed;stroke-width: 1.12366px"/>
    <polyline points="51.97 230.25 64.25 240.56 76.53 250.87" style="fill: none;stroke: #ededed;stroke-width: 1.12366px"/>
    <polyline points="49.19 235.08 64.25 240.56 79.32 246.05" style="fill: none;stroke: #ededed;stroke-width: 1.12366px"/>
    <polyline points="48.22 240.56 64.25 240.56 80.29 240.56" style="fill: none;stroke: #ededed;stroke-width: 1.12366px"/>
    <polyline points="49.18 246.05 64.25 240.56 79.32 235.08" style="fill: none;stroke: #ededed;stroke-width: 1.12366px"/>
    <polyline points="51.97 250.87 64.25 240.56 76.53 230.25" style="fill: none;stroke: #ededed;stroke-width: 1.12366px"/>
    <polyline points="56.23 254.45 64.25 240.56 72.27 226.68" style="fill: none;stroke: #ededed;stroke-width: 1.12366px"/>
    <path d="M114.9,253.82a15.06,15.06,0,1,0-14.89,0" style="fill: none;stroke: #000;stroke-width: 1.6100400000000001px"/>
    <line x1="110.24" y1="224.77" x2="107.45" y2="240.56" style="fill: none;stroke: #ededed;stroke-width: 1.12366px"/>
    <line x1="104.67" y1="224.77" x2="107.45" y2="240.56" style="fill: none;stroke: #ededed;stroke-width: 1.12366px"/>
    <polyline points="99.44 226.67 107.45 240.56 115.47 254.45" style="fill: none;stroke: #ededed;stroke-width: 1.12366px"/>
    <polyline points="95.17 230.25 107.45 240.56 119.73 250.87" style="fill: none;stroke: #ededed;stroke-width: 1.12366px"/>
    <polyline points="92.39 235.08 107.45 240.56 122.52 246.05" style="fill: none;stroke: #ededed;stroke-width: 1.12366px"/>
    <polyline points="91.42 240.56 107.45 240.56 123.49 240.56" style="fill: none;stroke: #ededed;stroke-width: 1.12366px"/>
    <polyline points="92.38 246.05 107.45 240.56 122.52 235.08" style="fill: none;stroke: #ededed;stroke-width: 1.12366px"/>
    <polyline points="95.17 250.87 107.45 240.56 119.73 230.25" style="fill: none;stroke: #ededed;stroke-width: 1.12366px"/>
    <polyline points="99.43 254.45 107.45 240.56 115.47 226.68" style="fill: none;stroke: #ededed;stroke-width: 1.12366px"/>
  </g>
  <g id="components">
    <circle id="Mix" cx="150.7" cy="312.16" r="11.34" style="fill: blue"/>
    <circle id="Mix_SW_" data-name="Mix (SW)" cx="107.45" cy="312.16" r="11.34" style="fill: blue"/>
    <circle id="_-_Slice" data-name="- Slice" cx="64.25" cy="312.16" r="11.34" style="fill: blue"/>
    <circle id="_Slice" data-name="+ Slice" cx="21.1" cy="312.16" r="11.34" style="fill: blue"/>
    <circle id="LED_Mix" data-name="LED + Mix" cx="157" cy="289.03" r="4.25" style="fill: #f0f"/>
    <circle id="LED_-_Mix" data-name="LED - Mix" cx="145.66" cy="289.03" r="4.25" style="fill: #f0f"/>
    <circle id="LED_Mix_SW_" data-name="LED + Mix (SW)" cx="113.66" cy="289.18" r="4.25" style="fill: #f0f"/>
    <circle id="LED_-_Mix_SW_" data-name="LED - Mix (SW)" cx="102.32" cy="289.18" r="4.25" style="fill: #f0f"/>
    <circle id="LED_-_Slice" data-name="LED - Slice" cx="64.26" cy="288.6" r="4.25" style="fill: #f0f"/>
    <circle id="LED_Slice" data-name="LED + Slice" cx="20.92" cy="289.03" r="4.25" style="fill: #f0f"/>
    <circle id="Out_4" data-name="Out 4" cx="150.52" cy="247.3" r="11.34" style="fill: blue"/>
    <circle id="LED_4" data-name="LED + 4" cx="156.63" cy="223.33" r="4.25" style="fill: #f0f"/>
    <circle id="LED_-_4" data-name="LED - 4" cx="145.11" cy="223.33" r="4.25" style="fill: #f0f"/>
    <circle id="Shift_4" data-name="Shift 4" cx="107.45" cy="241.04" r="8.5" style="fill: #ff0040"/>
    <circle id="Scale_4" data-name="Scale 4" cx="64.25" cy="241.04" r="8.5" style="fill: #ff0080"/>
    <circle id="In_4" data-name="In 4" cx="21.77" cy="247.24" r="11.34" style="fill: lime"/>
    <circle id="Out_3" data-name="Out 3" cx="150.52" cy="182.5" r="11.34" style="fill: blue"/>
    <circle id="LED_3" data-name="LED + 3" cx="156.54" cy="158.45" r="4.25" style="fill: #f0f"/>
    <circle id="LED_-_3" data-name="LED - 3" cx="145.02" cy="158.45" r="4.25" style="fill: #f0f"/>
    <circle id="Shift_3" data-name="Shift 3" cx="107.45" cy="176.24" r="8.5" style="fill: #ff0040"/>
    <circle id="Scale_3" data-name="Scale 3" cx="64.25" cy="176.24" r="8.5" style="fill: #ff0080"/>
    <circle id="In_3" data-name="In 3" cx="21.77" cy="182.44" r="11.34" style="fill: lime"/>
    <circle id="Out_2" data-name="Out 2" cx="150.52" cy="117.7" r="11.34" style="fill: blue"/>
    <circle id="LED_2" data-name="LED + 2" cx="156.5" cy="93.58" r="4.25" style="fill: #f0f"/>
    <circle id="LED_-_2" data-name="LED - 2" cx="144.99" cy="93.58" r="4.25" style="fill: #f0f"/>
    <circle id="Shift_2" data-name="Shift 2" cx="107.45" cy="111.44" r="8.5" style="fill: #ff0040"/>
    <circle id="Scale_2" data-name="Scale 2" cx="64.25" cy="111.44" r="8.5" style="fill: #ff0080"/>
    <circle id="In_2" data-name="In 2" cx="21.77" cy="117.64" r="11.34" style="fill: lime"/>
    <circle id="Out_1" data-name="Out 1" cx="150.52" cy="52.9" r="11.34" style="fill: blue"/>
    <circle id="LED_1" data-name="LED + 1" cx="158.21" cy="29.5" r="4.25" style="fill: #f0f"/>
    <circle id="LED_-_1" data-name="LED - 1" cx="146.69" cy="29.5" r="4.25" style="fill: #f0f"/>
    <circle id="Shift_1" data-name="Shift 1" cx="107.45" cy="46.64" r="8.5" style="fill: #ff0040"/>
    <circle id="Scale_1" data-name="Scale 1" cx="64.25" cy="46.64" r="8.5" style="fill: #ff0080"/>
    <circle id="In_1" data-name="In 1" cx="21.77" cy="52.84" r="11.34" style="fill: lime"/>
    <text id="slug" transform="translate(62.86 371.84)" style="font-size: 6px;font-family: MyriadPro-Regular, Myriad Pro">SISM</text>
    <text id="modulename" transform="translate(87.89 371.84)" style="font-size: 6px;font-family: MyriadPro-Regular, Myriad Pro">Shi<tspan x="7.69" y="0" style="letter-spacing: 0.010904947916666666em">f</tspan><tspan x="9.51" y="0">ting </tspan><tspan x="20.86" y="0" style="letter-spacing: 0.010091145833333334em">I</tspan><tspan x="22.35" y="0" style="letter-spacing: -0.013020833333333334em">n</tspan><tspan x="25.6" y="0" style="letter-spacing: -0.009928385416666666em">v</tspan><tspan x="28.43" y="0">e</tspan><tspan x="31.43" y="0" style="letter-spacing: 0.02392578125em">r</tspan><tspan x="33.54" y="0">ting Si</tspan><tspan x="49.25" y="0" style="letter-spacing: -0.005859375em">g</tspan><tspan x="52.57" y="0" style="letter-spacing: -0.00016276041666666666em">nal </tspan><tspan x="61.47" y="0" style="letter-spacing: 0.012044270833333334em">M</tspan><tspan x="66.37" y="0" style="letter-spacing: -0.00016276041666666666em">ingler</tspan></text>
  </g>
</svg>
