<?xml version="1.0" encoding="utf-8"?>
<!-- Generator: Adobe Illustrator 25.4.1, SVG Export Plug-In . SVG Version: 6.00 Build 0)  -->
<svg version="1.1" id="Layer_1" xmlns="http://www.w3.org/2000/svg" xmlns:xlink="http://www.w3.org/1999/xlink" x="0px" y="0px"
	 viewBox="0 0 18.2 18.2" style="enable-background:new 0 0 18.2 18.2;" xml:space="preserve">
<style type="text/css">
	.st0{stroke:#EDEDED;stroke-width:0.5;stroke-linecap:round;stroke-linejoin:round;stroke-miterlimit:10;}
</style>
<polygon class="st0" points="17.9,9.1 17.3,9.8 17.7,10.6 17,11.2 17.4,12.1 16.5,12.6 16.7,13.5 15.8,13.8 15.8,14.7 14.9,14.9 
	14.7,15.8 13.8,15.8 13.5,16.7 12.6,16.5 12.1,17.4 11.2,17 10.6,17.7 9.8,17.3 9.1,17.9 8.4,17.3 7.6,17.7 7,17 6.1,17.4 5.6,16.5 
	4.7,16.7 4.4,15.8 3.4,15.8 3.3,14.9 2.3,14.7 2.3,13.8 1.5,13.5 1.6,12.6 0.8,12.1 1.1,11.2 0.4,10.6 0.9,9.8 0.3,9.1 0.9,8.4 
	0.4,7.6 1.1,7 0.8,6.1 1.6,5.6 1.5,4.7 2.3,4.4 2.4,3.4 3.3,3.3 3.4,2.3 4.4,2.3 4.7,1.5 5.6,1.6 6.1,0.8 7,1.1 7.6,0.4 8.4,0.9 
	9.1,0.3 9.8,0.9 10.6,0.4 11.2,1.1 12.1,0.8 12.6,1.6 13.5,1.5 13.8,2.3 14.7,2.4 14.9,3.3 15.8,3.4 15.8,4.4 16.7,4.7 16.5,5.6 
	17.4,6.1 17,7 17.7,7.6 17.3,8.4 "/>
</svg>
