<svg id="Layer_1" data-name="Layer 1" xmlns="http://www.w3.org/2000/svg" width="18.18" height="18.18" viewBox="0 0 18.18 18.18">
  <g>
    <polygon points="17.88 9.09 17.28 9.8 17.74 10.61 17.03 11.22 17.35 12.09 16.54 12.56 16.7 13.48 15.82 13.8 15.82 14.74 14.9 14.9 14.73 15.82 13.8 15.82 13.48 16.7 12.56 16.54 12.09 17.35 11.22 17.03 10.61 17.74 9.8 17.28 9.09 17.88 8.37 17.28 7.56 17.74 6.96 17.03 6.08 17.35 5.61 16.54 4.69 16.7 4.37 15.82 3.44 15.82 3.27 14.9 2.35 14.73 2.35 13.8 1.48 13.48 1.64 12.56 0.83 12.09 1.15 11.22 0.43 10.61 0.9 9.8 0.3 9.09 0.9 8.37 0.43 7.56 1.15 6.96 0.83 6.08 1.64 5.61 1.48 4.69 2.35 4.37 2.36 3.44 3.27 3.27 3.44 2.35 4.37 2.35 4.69 1.48 5.61 1.64 6.08 0.83 6.96 1.15 7.56 0.43 8.37 0.9 9.09 0.3 9.8 0.9 10.61 0.43 11.22 1.15 12.09 0.83 12.56 1.64 13.48 1.48 13.8 2.35 14.74 2.36 14.9 3.27 15.82 3.44 15.82 4.37 16.7 4.69 16.54 5.61 17.35 6.08 17.03 6.96 17.74 7.56 17.28 8.37 17.88 9.09"/>
    <polygon points="17.88 9.09 17.28 9.8 17.74 10.61 17.03 11.22 17.35 12.09 16.54 12.56 16.7 13.48 15.82 13.8 15.82 14.74 14.9 14.9 14.73 15.82 13.8 15.82 13.48 16.7 12.56 16.54 12.09 17.35 11.22 17.03 10.61 17.74 9.8 17.28 9.09 17.88 8.37 17.28 7.56 17.74 6.96 17.03 6.08 17.35 5.61 16.54 4.69 16.7 4.37 15.82 3.44 15.82 3.27 14.9 2.35 14.73 2.35 13.8 1.48 13.48 1.64 12.56 0.83 12.09 1.15 11.22 0.43 10.61 0.9 9.8 0.3 9.09 0.9 8.37 0.43 7.56 1.15 6.96 0.83 6.08 1.64 5.61 1.48 4.69 2.35 4.37 2.36 3.44 3.27 3.27 3.44 2.35 4.37 2.35 4.69 1.48 5.61 1.64 6.08 0.83 6.96 1.15 7.56 0.43 8.37 0.9 9.09 0.3 9.8 0.9 10.61 0.43 11.22 1.15 12.09 0.83 12.56 1.64 13.48 1.48 13.8 2.35 14.74 2.36 14.9 3.27 15.82 3.44 15.82 4.37 16.7 4.69 16.54 5.61 17.35 6.08 17.03 6.96 17.74 7.56 17.28 8.37 17.88 9.09" style="fill: none;stroke: #fff;stroke-linejoin: round;stroke-width: 0.6000000238418579px"/>
  </g>
</svg>
