<svg id="Layer_1" data-name="Layer 1" xmlns="http://www.w3.org/2000/svg" width="36" height="36" viewBox="0 0 36 36">
  <g id="g6447">
    <path id="path6449" d="M35.9,16.1c-.79-1.28-2.12-2.54-2.86-4.33s-.69-3.61-1-5.07A18.14,18.14,0,0,0,29.3,4c-1.46-.34-3.29-.3-5.07-1S21.18.89,19.9.1C19.28,0,18.64,0,18,0s-1.28,0-1.9.1C14.82.89,13.56,2.22,11.77,3s-3.61.7-5.07,1A18.14,18.14,0,0,0,4,6.7C3.65,8.16,3.7,10,3,11.77S.89,14.82.1,16.1C0,16.72,0,17.36,0,18s0,1.28.1,1.91C.89,21.18,2.22,22.44,3,24.23s.69,3.61,1,5.07A18.69,18.69,0,0,0,6.7,32c1.46.34,3.29.29,5.07,1s3.05,2.07,4.33,2.86c.62.06,1.26.1,1.9.1s1.28,0,1.9-.1c1.28-.79,2.54-2.12,4.33-2.86s3.61-.69,5.07-1A18.69,18.69,0,0,0,32,29.3c.35-1.46.3-3.29,1-5.07s2.07-3.05,2.86-4.32c.06-.63.1-1.27.1-1.91s0-1.28-.1-1.9" style="fill-rule: evenodd"/>
  </g>
  <g id="g6451">
    <path id="path6453" d="M18.6.07A2.46,2.46,0,0,0,18,0a2.4,2.4,0,0,0-.6.07V18.23h1.2Z" style="fill: #fff;fill-rule: evenodd"/>
  </g>
</svg>
