<?xml version="1.0" encoding="utf-8"?>
<!-- Generator: Adobe Illustrator 25.4.1, SVG Export Plug-In . SVG Version: 6.00 Build 0)  -->
<svg version="1.1" id="Layer_1" xmlns="http://www.w3.org/2000/svg" xmlns:xlink="http://www.w3.org/1999/xlink" x="0px" y="0px"
	 viewBox="0 0 36.5 36.5" style="enable-background:new 0 0 36.5 36.5;" xml:space="preserve">
<style type="text/css">
	.st0{fill-rule:evenodd;clip-rule:evenodd;stroke:#EDEDED;stroke-width:0.5;stroke-miterlimit:10;}
	.st1{fill-rule:evenodd;clip-rule:evenodd;fill:#FFFFFF;}
</style>
<path id="path6449" class="st0" d="M36.2,16.4c-0.8-1.3-2.2-2.5-2.9-4.4s-0.7-3.6-1-5.1c-0.8-1-1.7-1.9-2.7-2.7
	c-1.5-0.3-3.3-0.3-5.1-1s-3.1-2.1-4.3-2.9c-0.6-0.1-1.3-0.1-1.9-0.1s-1.3,0-1.9,0.1c-1.3,0.8-2.5,2.1-4.3,2.9S8.4,4,7,4.2
	C6,5.1,5.1,6,4.2,7c-0.3,1.5-0.3,3.3-1,5.1s-2.1,3-2.9,4.3c-0.1,0.6-0.1,1.3-0.1,1.9s0,1.3,0.1,1.9c0.8,1.3,2.1,2.5,2.9,4.3
	s0.7,3.6,1,5.1c0.8,1,1.7,1.9,2.8,2.7c1.5,0.3,3.3,0.3,5.1,1s3.1,2.1,4.3,2.9c0.6,0.1,1.3,0.1,1.9,0.1s1.3,0,1.9-0.1
	c1.3-0.8,2.5-2.1,4.3-2.9s3.6-0.7,5.1-1c1-0.8,1.9-1.7,2.7-2.7c0.3-1.5,0.3-3.3,1-5.1s2.1-3,2.9-4.3c0.1-0.6,0.1-1.3,0.1-1.9
	C36.3,17.6,36.2,17,36.2,16.4"/>
<path id="path6453" class="st1" d="M18.9,0.3c-0.4-0.1-0.8-0.1-1.2,0v18.2h1.2V0.3z"/>
</svg>
