<svg id="big_Davies" data-name="big Davies" xmlns="http://www.w3.org/2000/svg" width="59.53" height="59.53" viewBox="0 0 59.53 59.53">
  <g id="g6443">
    <path id="path6445" d="M59.53,29.76A29.77,29.77,0,1,1,29.76,0,29.77,29.77,0,0,1,59.53,29.76" style="fill: #4c4c4c"/>
  </g>
  <g id="g6447">
    <path id="path6449" d="M56.61,27.25c-1.18-1.92-3.18-3.81-4.29-6.49s-1-5.41-1.55-7.6A26.87,26.87,0,0,0,46.71,9.1c-2.19-.52-4.92-.44-7.6-1.55s-4.58-3.11-6.49-4.29a25.55,25.55,0,0,0-5.71,0C25,4.44,23.11,6.43,20.42,7.55s-5.41,1-7.6,1.55a27.34,27.34,0,0,0-4.06,4.06c-.51,2.19-.44,4.92-1.55,7.6S4.1,25.33,2.92,27.25a27.25,27.25,0,0,0,0,5.71c1.18,1.91,3.18,3.8,4.29,6.49s1,5.41,1.55,7.6a27.83,27.83,0,0,0,4.06,4.06c2.19.51,4.93.44,7.6,1.55S25,55.76,26.91,57a27.25,27.25,0,0,0,5.71,0c1.91-1.19,3.8-3.18,6.49-4.29s5.41-1,7.6-1.55a27.34,27.34,0,0,0,4.06-4.06c.51-2.19.44-4.93,1.55-7.6s3.11-4.58,4.29-6.49a27.25,27.25,0,0,0,0-5.71" style="fill-rule: evenodd"/>
  </g>
  <g id="g6451">
    <path id="path6453" d="M30.66,3.85a4.06,4.06,0,0,0-1.79,0V31.09h1.79Z" style="fill: #fff;fill-rule: evenodd"/>
  </g>
  <circle cx="29.77" cy="1.49" r="1.06" style="fill: #fff"/>
</svg>
