<?xml version="1.0" encoding="utf-8"?>
<!-- Generator: Adobe Illustrator 25.4.1, SVG Export Plug-In . SVG Version: 6.00 Build 0)  -->
<svg version="1.1" id="Layer_1" xmlns="http://www.w3.org/2000/svg" xmlns:xlink="http://www.w3.org/1999/xlink" x="0px" y="0px"
	 viewBox="0 0 60 60.1" style="enable-background:new 0 0 60 60.1;" xml:space="preserve">
<style type="text/css">
	.st0{stroke:#EDEDED;stroke-width:0.5;stroke-miterlimit:10;}
	.st1{fill-rule:evenodd;clip-rule:evenodd;stroke:#FFFFFF;stroke-width:0.5;stroke-miterlimit:10;}
	.st2{fill-rule:evenodd;clip-rule:evenodd;fill:#FFFFFF;}
	.st3{fill:#FFFFFF;}
</style>
<path id="path6445" class="st0" d="M59.8,30c0,16.4-13.3,29.8-29.8,29.8C13.6,59.8,0.2,46.5,0.2,30S13.6,0.2,30,0.2l0,0
	C46.5,0.2,59.8,13.6,59.8,30"/>
<path id="path6449" class="st1" d="M56.8,27.5c-1.2-1.9-3.2-3.8-4.3-6.5s-1-5.4-1.5-7.6c-1.2-1.5-2.6-2.9-4.1-4.1
	c-2.2-0.5-4.9-0.4-7.6-1.6s-4.6-3.1-6.5-4.3c-1.9-0.2-3.8-0.2-5.7,0c-1.9,1.2-3.8,3.2-6.5,4.3s-5.4,1-7.6,1.6
	c-1.5,1.2-2.9,2.6-4.1,4.1c-0.5,2.2-0.4,4.9-1.6,7.6S4.2,25.6,3,27.5c-0.2,1.9-0.2,3.8,0,5.7c1.2,1.9,3.2,3.8,4.3,6.5s1,5.4,1.6,7.6
	c1.2,1.5,2.6,2.9,4.1,4.1c2.2,0.5,4.9,0.4,7.6,1.5s4.6,3.1,6.5,4.3c1.9,0.2,3.8,0.2,5.7,0c1.9-1.2,3.8-3.2,6.5-4.3s5.4-1,7.6-1.5
	c1.5-1.2,2.9-2.6,4.1-4.1c0.5-2.2,0.4-4.9,1.5-7.6s3.1-4.6,4.3-6.5C57,31.4,57,29.5,56.8,27.5"/>
<path id="path6453" class="st2" d="M31,4.3c-0.6-0.1-1.2-0.1-1.8,0v27.2H31V4.3z"/>
<circle class="st3" cx="30.1" cy="1.7" r="1"/>
</svg>
