<?xml version="1.0" encoding="UTF-8" standalone="no"?>
<svg
   xmlns:dc="http://purl.org/dc/elements/1.1/"
   xmlns:cc="http://creativecommons.org/ns#"
   xmlns:rdf="http://www.w3.org/1999/02/22-rdf-syntax-ns#"
   xmlns:svg="http://www.w3.org/2000/svg"
   xmlns="http://www.w3.org/2000/svg"
   xmlns:sodipodi="http://sodipodi.sourceforge.net/DTD/sodipodi-0.dtd"
   xmlns:inkscape="http://www.inkscape.org/namespaces/inkscape"
   sodipodi:docname="dual_opener.svg"
   inkscape:version="1.0 (4035a4f, 2020-05-01)"
   id="svg1669"
   version="1.1"
   viewBox="0 0 30.48 128.5"
   height="128.5mm"
   width="30.48mm">
  <defs
     id="defs1663">
    <clipPath
       clipPathUnits="userSpaceOnUse"
       id="clipPath3851">
      <path
         d="M 0,364.252 H 86.4 V 0 H 0 Z"
         id="path3849" />
    </clipPath>
    <clipPath
       clipPathUnits="userSpaceOnUse"
       id="clipPath3863">
      <path
         d="M 0,364.252 H 86.4 V 0 H 0 Z"
         id="path3861" />
    </clipPath>
    <clipPath
       clipPathUnits="userSpaceOnUse"
       id="clipPath4383">
      <path
         d="M 0,364.252 H 86.4 V 0 H 0 Z"
         id="path4381" />
    </clipPath>
  </defs>
  <sodipodi:namedview
     inkscape:window-maximized="0"
     inkscape:window-y="40"
     inkscape:window-x="16"
     inkscape:window-height="1283"
     inkscape:window-width="1270"
     fit-margin-bottom="0"
     fit-margin-right="0"
     fit-margin-left="0"
     fit-margin-top="0"
     showgrid="false"
     inkscape:document-rotation="0"
     inkscape:current-layer="g3859"
     inkscape:document-units="mm"
     inkscape:cy="471.78497"
     inkscape:cx="44.855609"
     inkscape:zoom="4.5680227"
     inkscape:pageshadow="2"
     inkscape:pageopacity="0.0"
     borderopacity="1.0"
     bordercolor="#666666"
     pagecolor="#ffffff"
     id="base" />
  <metadata
     id="metadata1666">
    <rdf:RDF>
      <cc:Work
         rdf:about="">
        <dc:format>image/svg+xml</dc:format>
        <dc:type
           rdf:resource="http://purl.org/dc/dcmitype/StillImage" />
        <dc:title></dc:title>
      </cc:Work>
    </rdf:RDF>
  </metadata>
  <g
     style="display:inline"
     transform="translate(0.14907478,-0.13478172)"
     inkscape:label="artwork"
     id="layer2"
     inkscape:groupmode="layer">
    <rect
       ry="0"
       y="0.13478172"
       x="0.0273141"
       height="128.50035"
       width="29.971998"
       id="rect6646"
       style="display:inline;fill:#ffffff;stroke:none;stroke-width:0.264583" />
    <g
       transform="matrix(0.35277777,0,0,-0.35277777,-0.22668589,128.63479)"
       id="g3857">
      <g
         clip-path="url(#clipPath3863)"
         id="g3859">
        <g
           transform="translate(38.2497,66.1434)"
           id="g3865">
          <path
             id="path3867"
             style="fill:#231f20;fill-opacity:1;fill-rule:nonzero;stroke:none"
             d="m 0,0 v -23.923 c 0,-8.82 -6.815,-15.254 -15.224,-15.254 -8.408,0 -15.223,6.434 -15.223,15.254 V 0 Z" />
        </g>
        <g
           transform="translate(38.2497,66.1434)"
           id="g3869">
          <path
             id="path3871"
             style="fill:none;stroke:#231f20;stroke-width:1;stroke-linecap:butt;stroke-linejoin:miter;stroke-miterlimit:10;stroke-dasharray:none;stroke-opacity:1"
             d="m 0,0 v -23.923 c 0,-8.82 -6.815,-15.254 -15.224,-15.254 -8.408,0 -15.223,6.434 -15.223,15.254 V 0 Z" />
        </g>
        <g
           transform="translate(63.2604,358.9759)"
           id="g3873">
          <path
             id="path3875"
             style="fill:#110f0e;fill-opacity:1;fill-rule:nonzero;stroke:none"
             d="m 0,0 c 0,0 -4.371,-5.554 -6.916,-8.79 v 7.535 c 0,0.646 -0.316,1.225 -0.805,1.468 -0.488,0.242 -1.049,0.095 -1.412,-0.368 l -9.094,-11.559 c -0.494,-0.629 -0.478,-1.63 0.036,-2.238 0.511,-0.604 1.328,-0.587 1.824,0.043 0,0 4.336,5.508 6.869,8.734 v -7.535 c 0,-0.645 0.32,-1.227 0.81,-1.467 0.489,-0.241 1.049,-0.095 1.415,0.368 0,0 4.367,5.556 6.914,8.789 v -7.69 c 0,-0.876 0.574,-1.583 1.289,-1.583 0.715,0 1.291,0.707 1.291,1.583 V -1.098 C 2.221,-0.451 1.9,0.127 1.412,0.369 0.922,0.612 0.367,0.465 0,0" />
        </g>
        <g
           transform="translate(63.2604,358.9759)"
           id="g3877">
          <path
             id="path3879"
             style="fill:none;stroke:#110f0e;stroke-width:1;stroke-linecap:butt;stroke-linejoin:miter;stroke-miterlimit:10;stroke-dasharray:none;stroke-opacity:1"
             d="m 0,0 c 0,0 -4.371,-5.554 -6.916,-8.79 v 7.535 c 0,0.646 -0.316,1.225 -0.805,1.468 -0.488,0.242 -1.049,0.095 -1.412,-0.368 l -9.094,-11.559 c -0.494,-0.629 -0.478,-1.63 0.036,-2.238 0.511,-0.604 1.328,-0.587 1.824,0.043 0,0 4.336,5.508 6.869,8.734 v -7.535 c 0,-0.645 0.32,-1.227 0.81,-1.467 0.489,-0.241 1.049,-0.095 1.415,0.368 0,0 4.367,5.556 6.914,8.789 v -7.69 c 0,-0.876 0.574,-1.583 1.289,-1.583 0.715,0 1.291,0.707 1.291,1.583 V -1.098 C 2.221,-0.451 1.9,0.127 1.412,0.369 0.922,0.612 0.367,0.465 0,0 Z" />
        </g>
        <g
           transform="translate(45.0339,359.0662)"
           id="g3881">
          <path
             id="path3883"
             style="fill:#110f0e;fill-opacity:1;fill-rule:nonzero;stroke:none"
             d="m 0,0 -6.021,-7.66 c -0.497,-0.631 -0.481,-1.631 0.029,-2.237 0.517,-0.606 1.33,-0.588 1.828,0.042 0,0 2.031,2.584 3.807,4.837 v -7.883 c 0,-0.874 0.572,-1.582 1.285,-1.582 0.717,0 1.293,0.708 1.293,1.582 V -1.098 C 2.221,-0.453 1.9,0.128 1.414,0.37 0.926,0.61 0.365,0.463 0,0" />
        </g>
        <g
           transform="translate(45.0339,359.0662)"
           id="g3885">
          <path
             id="path3887"
             style="fill:none;stroke:#110f0e;stroke-width:1;stroke-linecap:butt;stroke-linejoin:miter;stroke-miterlimit:10;stroke-dasharray:none;stroke-opacity:1"
             d="m 0,0 -6.021,-7.66 c -0.497,-0.631 -0.481,-1.631 0.029,-2.237 0.517,-0.606 1.33,-0.588 1.828,0.042 0,0 2.031,2.584 3.807,4.837 v -7.883 c 0,-0.874 0.572,-1.582 1.285,-1.582 0.717,0 1.293,0.708 1.293,1.582 V -1.098 C 2.221,-0.453 1.9,0.128 1.414,0.37 0.926,0.61 0.365,0.463 0,0 Z" />
        </g>
        <g
           transform="translate(73.7175,353.4168)"
           id="g3889">
          <path
             id="path3891"
             style="fill:#110f0e;fill-opacity:1;fill-rule:nonzero;stroke:none"
             d="m 0,0 c -0.201,0.584 -0.666,0.964 -1.186,0.964 h -2.632 l 1.923,2.442 c 0,0 0.999,1.468 0.114,2.273 C -2.662,6.485 -3.754,5.604 -3.754,5.604 L -7.785,0.479 c -0.361,-0.457 -0.461,-1.133 -0.258,-1.717 0.201,-0.583 0.672,-0.963 1.188,-0.963 h 2.634 L -7.34,-6.166 c 0,0 -1.293,-1.41 -0.338,-2.364 0.955,-0.955 2.196,0.17 2.196,0.17 l 5.224,6.644 C 0.102,-1.26 0.205,-0.585 0,0" />
        </g>
        <g
           transform="translate(73.7175,353.4168)"
           id="g3893">
          <path
             id="path3895"
             style="fill:none;stroke:#110f0e;stroke-width:1;stroke-linecap:butt;stroke-linejoin:miter;stroke-miterlimit:10;stroke-dasharray:none;stroke-opacity:1"
             d="m 0,0 c -0.201,0.584 -0.666,0.964 -1.186,0.964 h -2.632 l 1.923,2.442 c 0,0 0.999,1.468 0.114,2.273 C -2.662,6.485 -3.754,5.604 -3.754,5.604 L -7.785,0.479 c -0.361,-0.457 -0.461,-1.133 -0.258,-1.717 0.201,-0.583 0.672,-0.963 1.188,-0.963 h 2.634 L -7.34,-6.166 c 0,0 -1.293,-1.41 -0.338,-2.364 0.955,-0.955 2.196,0.17 2.196,0.17 l 5.224,6.644 C 0.102,-1.26 0.205,-0.585 0,0 Z" />
        </g>
        <g
           transform="translate(23.8068,290.618)"
           id="g3897">
          <path
             id="path3899"
             style="fill:#231f20;fill-opacity:1;fill-rule:nonzero;stroke:none"
             d="M 0,0 H -1.977 V -2.191 H -3.414 V 3.223 H 0 V 2.137 H -1.977 V 1.09 H 0 Z" />
        </g>
        <g
           transform="translate(27.5759,292.1883)"
           id="g3901">
          <path
             id="path3903"
             style="fill:#231f20;fill-opacity:1;fill-rule:nonzero;stroke:none"
             d="m 0,0 -0.457,-1.41 c -0.188,0.203 -0.378,0.305 -0.571,0.305 -0.174,0 -0.325,-0.067 -0.451,-0.202 -0.128,-0.134 -0.25,-0.382 -0.367,-0.744 v -1.711 h -1.237 v 3.977 h 1.237 v -0.961 c 0.078,0.237 0.216,0.468 0.413,0.693 0.197,0.225 0.428,0.338 0.694,0.338 0.14,0 0.262,-0.023 0.366,-0.07 C -0.269,0.168 -0.144,0.096 0,0" />
        </g>
        <g
           transform="translate(30.3278,290.7703)"
           id="g3905">
          <path
             id="path3907"
             style="fill:#231f20;fill-opacity:1;fill-rule:nonzero;stroke:none"
             d="M 0,0 C 0,0.255 -0.056,0.459 -0.167,0.611 -0.278,0.764 -0.438,0.84 -0.646,0.84 -0.853,0.84 -1.02,0.762 -1.146,0.607 -1.273,0.453 -1.337,0.25 -1.337,0 Z m 1.162,-0.695 h -2.465 c 0.048,-0.242 0.166,-0.44 0.354,-0.594 0.188,-0.154 0.401,-0.231 0.639,-0.231 0.417,0 0.878,0.133 1.382,0.399 v -0.871 c -0.18,-0.107 -0.4,-0.204 -0.658,-0.291 -0.258,-0.088 -0.586,-0.131 -0.985,-0.131 -0.43,0 -0.797,0.091 -1.1,0.273 -0.302,0.183 -0.529,0.43 -0.679,0.743 -0.15,0.312 -0.225,0.666 -0.225,1.062 0,0.391 0.075,0.74 0.225,1.049 0.15,0.308 0.377,0.551 0.679,0.726 0.303,0.176 0.67,0.264 1.1,0.264 0.284,0 0.559,-0.07 0.823,-0.209 C 0.517,1.355 0.735,1.127 0.906,0.811 1.076,0.494 1.162,0.086 1.162,-0.414 Z" />
        </g>
        <g
           transform="translate(34.489,289.618)"
           id="g3909">
          <path
             id="path3911"
             style="fill:#231f20;fill-opacity:1;fill-rule:nonzero;stroke:none"
             d="m 0,0 v 1.52 c -0.071,0.075 -0.156,0.141 -0.254,0.197 -0.099,0.056 -0.223,0.084 -0.371,0.084 -0.182,0 -0.34,-0.08 -0.477,-0.24 C -1.238,1.4 -1.306,1.145 -1.306,0.793 c 0,-0.323 0.065,-0.578 0.196,-0.766 0.131,-0.187 0.292,-0.281 0.485,-0.281 0.109,0 0.202,0.018 0.278,0.053 C -0.271,-0.166 -0.156,-0.099 0,0 M 1.241,-3 H 0 v 2.039 c -0.092,-0.065 -0.17,-0.116 -0.235,-0.152 -0.066,-0.037 -0.158,-0.071 -0.275,-0.102 -0.118,-0.031 -0.26,-0.047 -0.425,-0.047 -0.369,0 -0.681,0.099 -0.935,0.297 -0.254,0.198 -0.441,0.455 -0.56,0.772 -0.119,0.316 -0.179,0.655 -0.179,1.017 0,0.461 0.079,0.843 0.237,1.147 0.158,0.303 0.36,0.527 0.605,0.67 0.246,0.143 0.495,0.214 0.749,0.214 0.184,0 0.342,-0.023 0.475,-0.072 C -0.41,2.735 -0.303,2.681 -0.222,2.621 -0.14,2.561 -0.066,2.496 0,2.426 v 0.359 h 1.241 z" />
        </g>
        <path
           id="path3913"
           style="fill:#231f20;fill-opacity:1;fill-rule:nonzero;stroke:none"
           d="m 19.549,70.112 h -1.257 v 4.737 h 1.257 z" />
        <g
           transform="translate(23.4479,70.1121)"
           id="g3915">
          <path
             id="path3917"
             style="fill:#231f20;fill-opacity:1;fill-rule:nonzero;stroke:none"
             d="m 0,0 h -1.083 v 1.876 c 0,0.192 -0.027,0.359 -0.083,0.501 -0.055,0.143 -0.175,0.214 -0.362,0.214 -0.088,0 -0.166,-0.019 -0.233,-0.057 C -1.828,2.497 -1.888,2.448 -1.941,2.389 -1.995,2.33 -2.039,2.273 -2.075,2.218 -2.111,2.164 -2.148,2.105 -2.187,2.044 V 0 H -3.27 v 3.479 h 1.083 V 2.98 c 0.171,0.208 0.342,0.353 0.513,0.436 0.172,0.084 0.363,0.125 0.573,0.125 C -0.367,3.541 0,3.042 0,2.044 Z" />
        </g>
        <path
           id="path3919"
           style="fill:#231f20;fill-opacity:1;fill-rule:nonzero;stroke:none"
           d="m 27.485,70.112 h -1.14 v 4.737 h 1.14 z" />
        <g
           transform="translate(18.6804,32.5252)"
           id="g3921">
          <path
             id="path3923"
             style="fill:#ffffff;fill-opacity:1;fill-rule:nonzero;stroke:none"
             d="M 0,0 C 0,0.178 -0.023,0.34 -0.069,0.487 -0.115,0.634 -0.185,0.762 -0.278,0.87 -0.372,0.978 -0.485,1.062 -0.62,1.123 -0.754,1.183 -0.909,1.213 -1.086,1.213 -1.423,1.213 -1.687,1.102 -1.88,0.878 -2.072,0.655 -2.168,0.362 -2.168,0 c 0,-0.362 0.096,-0.656 0.29,-0.88 0.193,-0.224 0.457,-0.337 0.792,-0.337 0.231,0 0.427,0.052 0.59,0.155 0.162,0.104 0.286,0.248 0.37,0.431 C -0.042,-0.447 0,-0.237 0,0 m 1.281,0 c 0,-0.442 -0.09,-0.849 -0.269,-1.22 -0.179,-0.372 -0.447,-0.667 -0.802,-0.885 -0.355,-0.219 -0.787,-0.329 -1.296,-0.329 -0.515,0 -0.951,0.114 -1.308,0.342 -0.357,0.228 -0.623,0.528 -0.796,0.899 -0.173,0.372 -0.26,0.769 -0.26,1.193 0,0.426 0.086,0.824 0.259,1.194 0.172,0.371 0.437,0.669 0.795,0.896 0.358,0.227 0.795,0.34 1.31,0.34 0.385,0 0.729,-0.065 1.03,-0.195 C 0.246,2.105 0.494,1.93 0.689,1.707 0.883,1.485 1.031,1.227 1.131,0.932 1.231,0.636 1.281,0.326 1.281,0" />
        </g>
        <g
           transform="translate(23.5441,30.1532)"
           id="g3925">
          <path
             id="path3927"
             style="fill:#ffffff;fill-opacity:1;fill-rule:nonzero;stroke:none"
             d="M 0,0 H -1.083 V 0.496 C -1.236,0.309 -1.396,0.169 -1.564,0.077 c -0.168,-0.093 -0.37,-0.139 -0.604,-0.139 -0.463,0 -0.762,0.154 -0.897,0.46 C -3.202,0.705 -3.27,1.05 -3.27,1.436 v 2.043 h 1.083 V 1.6 c 0,-0.189 0.028,-0.355 0.083,-0.497 0.056,-0.143 0.176,-0.214 0.361,-0.214 0.159,0 0.284,0.051 0.377,0.153 0.092,0.103 0.187,0.234 0.283,0.394 V 3.479 H 0 Z" />
        </g>
        <g
           transform="translate(26.4079,30.3548)"
           id="g3929">
          <path
             id="path3931"
             style="fill:#ffffff;fill-opacity:1;fill-rule:nonzero;stroke:none"
             d="m 0,0 c -0.112,-0.062 -0.267,-0.121 -0.465,-0.178 -0.197,-0.057 -0.386,-0.085 -0.567,-0.085 -0.78,0 -1.17,0.433 -1.17,1.299 v 1.387 h -0.49 v 0.216 l 1.453,1.681 h 0.123 V 3.278 h 1.035 V 2.423 H -1.116 V 1.309 c 0,-0.13 0.007,-0.235 0.021,-0.314 0.014,-0.08 0.053,-0.147 0.119,-0.201 0.065,-0.053 0.164,-0.08 0.296,-0.08 0.173,0 0.399,0.082 0.68,0.246 z" />
        </g>
        <path
           id="path3933"
           style="fill:#ffffff;fill-opacity:1;fill-rule:nonzero;stroke:none"
           d="m 30.271,30.153 h -1.14 v 4.737 h 1.14 z" />
        <g
           transform="translate(48.0871,316.4173)"
           id="g3935">
          <path
             id="path3937"
             style="fill:none;stroke:#231f20;stroke-width:2;stroke-linecap:butt;stroke-linejoin:miter;stroke-miterlimit:4;stroke-dasharray:4.019, 2.01;stroke-dashoffset:0;stroke-opacity:1"
             d="m 0,0 c 0,11.131 -9.023,20.154 -20.154,20.154 -11.132,0 -20.155,-9.023 -20.155,-20.154 0,-11.131 9.023,-20.154 20.155,-20.154 C -9.023,-20.154 0,-11.131 0,0 Z" />
        </g>
        <g
           transform="translate(54.8752,202.3612)"
           id="g3939">
          <path
             id="path3941"
             style="fill:#231f20;fill-opacity:1;fill-rule:nonzero;stroke:none"
             d="M 0,0 H -1.977 V -2.191 H -3.414 V 3.223 H 0 V 2.137 H -1.977 V 1.09 H 0 Z" />
        </g>
        <g
           transform="translate(58.6442,203.9315)"
           id="g3943">
          <path
             id="path3945"
             style="fill:#231f20;fill-opacity:1;fill-rule:nonzero;stroke:none"
             d="m 0,0 -0.457,-1.41 c -0.188,0.203 -0.378,0.305 -0.571,0.305 -0.174,0 -0.325,-0.067 -0.451,-0.202 -0.128,-0.134 -0.25,-0.382 -0.367,-0.744 v -1.711 h -1.237 v 3.977 h 1.237 v -0.961 c 0.078,0.237 0.216,0.468 0.413,0.693 0.197,0.225 0.428,0.338 0.694,0.338 0.14,0 0.262,-0.023 0.366,-0.07 C -0.269,0.168 -0.144,0.096 0,0" />
        </g>
        <g
           transform="translate(61.3962,202.5135)"
           id="g3947">
          <path
             id="path3949"
             style="fill:#231f20;fill-opacity:1;fill-rule:nonzero;stroke:none"
             d="M 0,0 C 0,0.255 -0.056,0.459 -0.167,0.611 -0.278,0.764 -0.438,0.84 -0.646,0.84 -0.853,0.84 -1.02,0.762 -1.146,0.607 -1.273,0.453 -1.337,0.25 -1.337,0 Z m 1.162,-0.695 h -2.465 c 0.048,-0.242 0.166,-0.44 0.354,-0.594 0.188,-0.154 0.401,-0.231 0.639,-0.231 0.417,0 0.878,0.133 1.382,0.399 v -0.871 c -0.18,-0.107 -0.4,-0.204 -0.658,-0.291 -0.258,-0.088 -0.586,-0.131 -0.985,-0.131 -0.43,0 -0.797,0.091 -1.1,0.273 -0.302,0.183 -0.529,0.43 -0.679,0.743 -0.15,0.312 -0.225,0.666 -0.225,1.062 0,0.391 0.075,0.74 0.225,1.049 0.15,0.308 0.377,0.551 0.679,0.726 0.303,0.176 0.67,0.264 1.1,0.264 0.284,0 0.559,-0.07 0.823,-0.209 C 0.517,1.355 0.735,1.127 0.906,0.811 1.076,0.494 1.162,0.086 1.162,-0.414 Z" />
        </g>
        <g
           transform="translate(65.5573,201.3612)"
           id="g3951">
          <path
             id="path3953"
             style="fill:#231f20;fill-opacity:1;fill-rule:nonzero;stroke:none"
             d="m 0,0 v 1.52 c -0.071,0.075 -0.156,0.141 -0.254,0.197 -0.099,0.056 -0.223,0.084 -0.371,0.084 -0.182,0 -0.34,-0.08 -0.477,-0.24 C -1.238,1.4 -1.306,1.145 -1.306,0.793 c 0,-0.323 0.065,-0.578 0.196,-0.766 0.131,-0.187 0.292,-0.281 0.485,-0.281 0.109,0 0.202,0.018 0.278,0.053 C -0.271,-0.166 -0.156,-0.099 0,0 M 1.241,-3 H 0 v 2.039 c -0.092,-0.065 -0.17,-0.116 -0.235,-0.152 -0.066,-0.037 -0.158,-0.071 -0.275,-0.102 -0.118,-0.031 -0.26,-0.047 -0.425,-0.047 -0.369,0 -0.681,0.099 -0.935,0.297 -0.254,0.198 -0.441,0.455 -0.56,0.772 -0.119,0.316 -0.179,0.655 -0.179,1.017 0,0.461 0.079,0.843 0.237,1.147 0.158,0.303 0.36,0.527 0.605,0.67 0.246,0.143 0.495,0.214 0.749,0.214 0.184,0 0.342,-0.023 0.475,-0.072 C -0.41,2.735 -0.303,2.681 -0.222,2.621 -0.14,2.561 -0.066,2.496 0,2.426 v 0.359 h 1.241 z" />
        </g>
        <g
           transform="translate(79.155,228.161)"
           id="g3955">
          <path
             id="path3957"
             style="fill:none;stroke:#231f20;stroke-width:2;stroke-linecap:butt;stroke-linejoin:miter;stroke-miterlimit:4;stroke-dasharray:4.019, 2.01;stroke-dashoffset:0;stroke-opacity:1"
             d="m 0,0 c 0,11.131 -9.023,20.154 -20.154,20.154 -11.131,0 -20.155,-9.023 -20.155,-20.154 0,-11.131 9.024,-20.154 20.155,-20.154 C -9.023,-20.154 0,-11.131 0,0 Z" />
        </g>
        <g
           transform="translate(7.8029,66.9442)"
           id="g3959">
          <path
             id="path3961"
             style="fill:none;stroke:#231f20;stroke-width:1;stroke-linecap:butt;stroke-linejoin:miter;stroke-miterlimit:10;stroke-dasharray:none;stroke-opacity:1"
             d="m 0,0 v 23.923 c 0,8.82 6.815,15.254 15.224,15.254 8.408,0 15.223,-6.434 15.223,-15.254 L 30.447,0 Z" />
        </g>
        <g
           transform="translate(33.2805,107.8934)"
           id="g3963">
          <path
             id="path3965"
             style="fill:#cada12;fill-opacity:1;fill-rule:nonzero;stroke:none"
             d="m 0,0 c -2.511,0 -4.547,2.034 -4.547,4.545 0,2.514 2.036,4.547 4.547,4.547 h 19.404 c 2.51,0 4.546,-2.033 4.546,-4.547 C 23.95,2.034 21.914,0 19.404,0 Z" />
        </g>
        <g
           transform="translate(36.0461,112.6429)"
           id="g3967">
          <path
             id="path3969"
             style="fill:#231f20;fill-opacity:1;fill-rule:nonzero;stroke:none"
             d="M 0,0 C 0,0.178 -0.023,0.34 -0.069,0.487 -0.115,0.634 -0.185,0.762 -0.278,0.87 -0.372,0.978 -0.485,1.062 -0.62,1.123 -0.754,1.183 -0.909,1.213 -1.086,1.213 -1.423,1.213 -1.687,1.102 -1.88,0.878 -2.072,0.655 -2.168,0.362 -2.168,0 c 0,-0.362 0.096,-0.656 0.29,-0.88 0.193,-0.224 0.457,-0.337 0.792,-0.337 0.231,0 0.427,0.052 0.59,0.155 0.162,0.104 0.286,0.248 0.37,0.431 C -0.042,-0.447 0,-0.237 0,0 M 1.459,-2.714 0.578,-3.626 c -0.348,0.086 -0.69,0.203 -1.029,0.35 -0.339,0.147 -0.68,0.327 -1.023,0.542 -0.267,0.166 -0.467,0.324 -0.601,0.475 -0.233,0.093 -0.454,0.238 -0.662,0.436 -0.209,0.197 -0.38,0.449 -0.513,0.757 -0.133,0.307 -0.2,0.663 -0.2,1.066 0,0.426 0.086,0.824 0.259,1.194 0.172,0.371 0.437,0.669 0.795,0.896 0.358,0.227 0.795,0.34 1.31,0.34 0.397,0 0.747,-0.067 1.048,-0.2 C 0.264,2.097 0.512,1.917 0.705,1.69 0.899,1.463 1.043,1.204 1.139,0.911 1.234,0.618 1.281,0.314 1.281,0 1.281,-0.383 1.221,-0.724 1.101,-1.022 0.98,-1.32 0.823,-1.569 0.628,-1.767 0.434,-1.965 0.214,-2.123 -0.03,-2.239 0.194,-2.353 0.42,-2.448 0.646,-2.524 0.873,-2.601 1.132,-2.639 1.423,-2.639 Z" />
        </g>
        <g
           transform="translate(40.9099,110.2708)"
           id="g3971">
          <path
             id="path3973"
             style="fill:#231f20;fill-opacity:1;fill-rule:nonzero;stroke:none"
             d="M 0,0 H -1.083 V 0.496 C -1.236,0.309 -1.396,0.169 -1.564,0.077 c -0.168,-0.093 -0.37,-0.139 -0.604,-0.139 -0.463,0 -0.762,0.154 -0.897,0.46 C -3.202,0.705 -3.27,1.05 -3.27,1.436 v 2.043 h 1.083 V 1.6 c 0,-0.189 0.028,-0.355 0.083,-0.497 0.056,-0.143 0.176,-0.214 0.361,-0.214 0.159,0 0.284,0.051 0.377,0.153 0.092,0.103 0.187,0.234 0.283,0.394 V 3.479 H 0 Z" />
        </g>
        <g
           transform="translate(43.0275,111.1116)"
           id="g3975">
          <path
             id="path3977"
             style="fill:#231f20;fill-opacity:1;fill-rule:nonzero;stroke:none"
             d="M 0,0 V 0.824 C -0.257,0.705 -0.444,0.599 -0.562,0.504 -0.681,0.41 -0.74,0.281 -0.74,0.12 c 0,-0.117 0.03,-0.205 0.089,-0.267 0.059,-0.061 0.128,-0.092 0.206,-0.092 0.074,0 0.148,0.023 0.221,0.07 C -0.151,-0.123 -0.076,-0.066 0,0 M 1.507,-0.667 C 1.349,-0.737 1.202,-0.794 1.068,-0.837 0.934,-0.881 0.772,-0.902 0.583,-0.902 c -0.178,0 -0.302,0.036 -0.373,0.107 -0.069,0.072 -0.12,0.159 -0.15,0.262 -0.116,-0.107 -0.246,-0.196 -0.388,-0.265 -0.142,-0.07 -0.329,-0.104 -0.559,-0.104 -0.223,0 -0.403,0.044 -0.54,0.131 -0.137,0.088 -0.234,0.199 -0.289,0.332 -0.055,0.133 -0.082,0.271 -0.082,0.412 0,0.214 0.047,0.391 0.142,0.531 0.095,0.141 0.223,0.255 0.384,0.344 0.16,0.089 0.373,0.181 0.637,0.277 0.151,0.054 0.264,0.096 0.342,0.124 C -0.216,1.278 -0.158,1.3 -0.12,1.316 -0.082,1.332 -0.042,1.353 0,1.377 0,1.546 -0.03,1.678 -0.09,1.774 -0.15,1.87 -0.281,1.917 -0.481,1.917 -0.718,1.917 -0.937,1.858 -1.14,1.74 -1.342,1.621 -1.528,1.469 -1.696,1.282 v 0.943 c 0.134,0.109 0.279,0.199 0.436,0.268 0.156,0.07 0.32,0.122 0.49,0.156 0.17,0.034 0.343,0.051 0.518,0.051 0.442,0 0.776,-0.097 1,-0.292 C 0.971,2.213 1.083,1.945 1.083,1.603 V 0.26 c 0,-0.128 0.01,-0.223 0.031,-0.285 0.022,-0.063 0.06,-0.095 0.116,-0.095 0.068,0 0.161,0.034 0.277,0.099 z" />
        </g>
        <path
           id="path3979"
           style="fill:#231f20;fill-opacity:1;fill-rule:nonzero;stroke:none"
           d="m 45.768,110.271 h -1.086 v 4.737 h 1.086 z" />
        <g
           transform="translate(47.32,114.5535)"
           id="g3981">
          <path
             id="path3983"
             style="fill:#231f20;fill-opacity:1;fill-rule:nonzero;stroke:none"
             d="m 0,0 c 0,-0.144 -0.045,-0.266 -0.135,-0.366 -0.091,-0.1 -0.198,-0.15 -0.322,-0.15 -0.084,0 -0.161,0.023 -0.23,0.068 -0.069,0.046 -0.124,0.108 -0.164,0.187 -0.04,0.078 -0.06,0.165 -0.06,0.261 0,0.141 0.044,0.263 0.132,0.366 0.089,0.102 0.196,0.154 0.322,0.154 0.124,0 0.231,-0.052 0.322,-0.154 C -0.045,0.263 0,0.141 0,0 m 0.087,-4.283 h -1.086 v 3.479 h 1.086 z" />
        </g>
        <g
           transform="translate(50.3224,110.4725)"
           id="g3985">
          <path
             id="path3987"
             style="fill:#231f20;fill-opacity:1;fill-rule:nonzero;stroke:none"
             d="m 0,0 c -0.112,-0.062 -0.267,-0.121 -0.465,-0.178 -0.197,-0.057 -0.386,-0.085 -0.567,-0.085 -0.78,0 -1.17,0.433 -1.17,1.299 v 1.387 h -0.49 v 0.216 l 1.453,1.681 h 0.123 V 3.278 h 1.035 V 2.423 H -1.116 V 1.309 c 0,-0.13 0.007,-0.235 0.021,-0.314 0.014,-0.08 0.053,-0.147 0.119,-0.201 0.065,-0.053 0.164,-0.08 0.296,-0.08 0.173,0 0.399,0.082 0.68,0.246 z" />
        </g>
        <g
           transform="translate(53.8327,113.7503)"
           id="g3989">
          <path
             id="path3991"
             style="fill:#231f20;fill-opacity:1;fill-rule:nonzero;stroke:none"
             d="M 0,0 -2.082,-5.062 H -3.176 L -2.334,-3.025 -3.546,0 h 1.164 L -1.76,-1.729 -1.053,0 Z" />
        </g>
        <g
           transform="translate(39.716,152.4354)"
           id="g3993">
          <path
             id="path3995"
             style="fill:#231f20;fill-opacity:1;fill-rule:nonzero;stroke:none"
             d="M 0,0 H -1.729 V -1.917 H -2.987 V 2.82 H 0 V 1.87 H -1.729 V 0.954 H 0 Z" />
        </g>
        <g
           transform="translate(42.8293,153.8094)"
           id="g3997">
          <path
             id="path3999"
             style="fill:#231f20;fill-opacity:1;fill-rule:nonzero;stroke:none"
             d="m 0,0 -0.4,-1.234 c -0.164,0.178 -0.331,0.267 -0.499,0.267 -0.153,0 -0.285,-0.059 -0.396,-0.176 -0.111,-0.118 -0.218,-0.335 -0.32,-0.651 v -1.498 h -1.083 v 3.48 h 1.083 v -0.841 c 0.068,0.208 0.188,0.41 0.361,0.607 0.172,0.197 0.375,0.296 0.607,0.296 0.123,0 0.229,-0.021 0.32,-0.062 C -0.235,0.147 -0.126,0.084 0,0" />
        </g>
        <g
           transform="translate(45.0519,152.5687)"
           id="g4001">
          <path
             id="path4003"
             style="fill:#231f20;fill-opacity:1;fill-rule:nonzero;stroke:none"
             d="m 0,0 c 0,0.223 -0.048,0.401 -0.146,0.535 -0.097,0.133 -0.237,0.2 -0.419,0.2 -0.181,0 -0.327,-0.068 -0.438,-0.204 C -1.114,0.396 -1.17,0.219 -1.17,0 Z M 1.017,-0.608 H -1.14 c 0.042,-0.212 0.145,-0.386 0.31,-0.52 0.164,-0.134 0.351,-0.202 0.559,-0.202 0.365,0 0.769,0.117 1.209,0.349 V -1.743 C 0.78,-1.836 0.588,-1.921 0.363,-1.998 0.137,-2.074 -0.15,-2.112 -0.499,-2.112 c -0.377,0 -0.698,0.079 -0.962,0.239 -0.265,0.16 -0.463,0.376 -0.595,0.649 -0.131,0.274 -0.196,0.584 -0.196,0.93 0,0.342 0.065,0.648 0.196,0.918 0.132,0.27 0.33,0.481 0.595,0.636 0.264,0.153 0.585,0.23 0.962,0.23 0.249,0 0.489,-0.061 0.72,-0.182 C 0.453,1.186 0.644,0.986 0.793,0.709 0.942,0.433 1.017,0.075 1.017,-0.362 Z" />
        </g>
        <g
           transform="translate(48.5085,151.5604)"
           id="g4005">
          <path
             id="path4007"
             style="fill:#231f20;fill-opacity:1;fill-rule:nonzero;stroke:none"
             d="m 0,0 v 1.33 c -0.062,0.066 -0.136,0.123 -0.223,0.172 -0.086,0.049 -0.194,0.074 -0.324,0.074 -0.159,0 -0.298,-0.071 -0.417,-0.21 -0.119,-0.141 -0.179,-0.365 -0.179,-0.672 0,-0.283 0.057,-0.506 0.171,-0.67 0.115,-0.164 0.256,-0.246 0.425,-0.246 0.096,0 0.177,0.015 0.243,0.046 C -0.238,-0.145 -0.136,-0.086 0,0 M 1.086,-2.625 H 0 v 1.784 c -0.08,-0.057 -0.149,-0.101 -0.206,-0.133 -0.057,-0.032 -0.137,-0.062 -0.241,-0.089 -0.103,-0.027 -0.227,-0.041 -0.371,-0.041 -0.323,0 -0.596,0.086 -0.818,0.26 -0.223,0.173 -0.386,0.398 -0.49,0.675 -0.105,0.277 -0.157,0.573 -0.157,0.89 0,0.404 0.069,0.738 0.208,1.003 0.138,0.266 0.314,0.461 0.529,0.587 0.214,0.125 0.433,0.188 0.656,0.188 0.16,0 0.298,-0.021 0.415,-0.064 0.116,-0.042 0.21,-0.089 0.281,-0.142 C -0.123,2.241 -0.058,2.184 0,2.123 v 0.314 h 1.086 z" />
        </g>
        <g
           transform="translate(14.4572,207.3255)"
           id="g4009">
          <path
             id="path4011"
             style="fill:#231f20;fill-opacity:1;fill-rule:nonzero;stroke:none"
             d="M 0,0 H -1.977 V -2.191 H -3.414 V 3.223 H 0 V 2.137 H -1.977 V 1.09 H 0 Z" />
        </g>
        <g
           transform="translate(16.1418,210.0286)"
           id="g4013">
          <path
             id="path4015"
             style="fill:#231f20;fill-opacity:1;fill-rule:nonzero;stroke:none"
             d="m 0,0 c 0,-0.164 -0.052,-0.303 -0.155,-0.418 -0.103,-0.115 -0.226,-0.172 -0.367,-0.172 -0.097,0 -0.185,0.026 -0.264,0.078 -0.079,0.053 -0.141,0.123 -0.187,0.213 -0.046,0.09 -0.069,0.19 -0.069,0.299 0,0.162 0.051,0.301 0.151,0.418 0.101,0.117 0.224,0.176 0.369,0.176 0.141,0 0.264,-0.059 0.367,-0.176 C -0.052,0.301 0,0.162 0,0 m 0.1,-4.895 h -1.241 v 3.977 H 0.1 Z" />
        </g>
        <path
           id="path4017"
           style="fill:#231f20;fill-opacity:1;fill-rule:nonzero;stroke:none"
           d="m 18.115,205.134 h -1.241 v 5.414 h 1.241 z" />
        <g
           transform="translate(21.4465,205.3646)"
           id="g4019">
          <path
             id="path4021"
             style="fill:#231f20;fill-opacity:1;fill-rule:nonzero;stroke:none"
             d="m 0,0 c -0.128,-0.07 -0.306,-0.138 -0.531,-0.203 -0.226,-0.065 -0.442,-0.098 -0.648,-0.098 -0.892,0 -1.338,0.495 -1.338,1.485 V 2.77 h -0.56 v 0.246 l 1.66,1.921 h 0.142 V 3.746 h 1.182 V 2.77 H -1.275 V 1.496 c 0,-0.148 0.007,-0.268 0.024,-0.359 0.016,-0.092 0.061,-0.168 0.135,-0.229 0.075,-0.061 0.188,-0.092 0.339,-0.092 0.197,0 0.456,0.094 0.777,0.282 z" />
        </g>
        <g
           transform="translate(24.1349,207.4779)"
           id="g4023">
          <path
             id="path4025"
             style="fill:#231f20;fill-opacity:1;fill-rule:nonzero;stroke:none"
             d="M 0,0 C 0,0.255 -0.056,0.459 -0.167,0.611 -0.278,0.764 -0.438,0.84 -0.646,0.84 -0.853,0.84 -1.02,0.762 -1.146,0.607 -1.273,0.453 -1.337,0.25 -1.337,0 Z m 1.162,-0.695 h -2.465 c 0.048,-0.242 0.166,-0.44 0.354,-0.594 0.188,-0.154 0.401,-0.231 0.639,-0.231 0.417,0 0.878,0.133 1.382,0.399 v -0.871 c -0.18,-0.107 -0.4,-0.204 -0.658,-0.291 -0.258,-0.088 -0.586,-0.131 -0.985,-0.131 -0.43,0 -0.797,0.091 -1.1,0.273 -0.302,0.183 -0.529,0.43 -0.679,0.743 -0.15,0.312 -0.225,0.666 -0.225,1.062 0,0.391 0.075,0.74 0.225,1.049 0.15,0.308 0.377,0.551 0.679,0.726 0.303,0.176 0.67,0.264 1.1,0.264 0.284,0 0.559,-0.07 0.823,-0.209 C 0.517,1.355 0.735,1.127 0.906,0.811 1.076,0.494 1.162,0.086 1.162,-0.414 Z" />
        </g>
        <g
           transform="translate(28.6999,208.8958)"
           id="g4027">
          <path
             id="path4029"
             style="fill:#231f20;fill-opacity:1;fill-rule:nonzero;stroke:none"
             d="m 0,0 -0.457,-1.41 c -0.188,0.203 -0.378,0.305 -0.571,0.305 -0.174,0 -0.325,-0.067 -0.451,-0.202 -0.128,-0.134 -0.25,-0.382 -0.367,-0.744 v -1.711 h -1.237 v 3.977 h 1.237 v -0.961 c 0.078,0.237 0.216,0.468 0.413,0.693 0.197,0.225 0.428,0.338 0.694,0.338 0.14,0 0.262,-0.023 0.366,-0.07 C -0.269,0.168 -0.144,0.096 0,0" />
        </g>
        <g
           transform="translate(16.0646,202.2318)"
           id="g4031">
          <path
             id="path4033"
             style="fill:#231f20;fill-opacity:1;fill-rule:nonzero;stroke:none"
             d="M 0,0 H -1.746 V -4.098 H -3.18 V 0 H -4.926 V 1.316 H 0 Z" />
        </g>
        <g
           transform="translate(20.1691,202.1107)"
           id="g4035">
          <path
             id="path4037"
             style="fill:#231f20;fill-opacity:1;fill-rule:nonzero;stroke:none"
             d="M 0,0 -2.378,-5.785 H -3.63 L -2.667,-3.457 -4.053,0 h 1.331 L -2.011,-1.977 -1.203,0 Z" />
        </g>
        <g
           transform="translate(22.7819,200.1185)"
           id="g4039">
          <path
             id="path4041"
             style="fill:#231f20;fill-opacity:1;fill-rule:nonzero;stroke:none"
             d="m 0,0 c 0,0.24 -0.033,0.434 -0.1,0.584 -0.066,0.15 -0.152,0.258 -0.257,0.324 -0.106,0.067 -0.215,0.1 -0.327,0.1 -0.147,0 -0.267,-0.027 -0.361,-0.08 C -1.139,0.875 -1.227,0.807 -1.31,0.727 v -1.52 c 0.044,-0.026 0.09,-0.055 0.14,-0.088 0.049,-0.033 0.098,-0.06 0.148,-0.084 0.049,-0.023 0.102,-0.043 0.158,-0.058 0.056,-0.016 0.116,-0.024 0.18,-0.024 0.195,0 0.357,0.094 0.488,0.281 C -0.065,-0.578 0,-0.323 0,0 m 1.303,0.031 c 0,-0.265 -0.033,-0.522 -0.1,-0.769 C 1.137,-0.986 1.035,-1.209 0.899,-1.408 0.763,-1.607 0.587,-1.765 0.373,-1.881 0.159,-1.997 -0.09,-2.055 -0.375,-2.055 c -0.229,0 -0.409,0.028 -0.541,0.082 -0.132,0.055 -0.263,0.128 -0.394,0.219 V -3.793 H -2.547 V 1.992 H -1.31 V 1.633 c 0.124,0.122 0.261,0.224 0.411,0.306 0.15,0.082 0.354,0.124 0.61,0.124 0.255,0 0.504,-0.072 0.75,-0.215 C 0.706,1.705 0.908,1.481 1.066,1.178 1.224,0.875 1.303,0.492 1.303,0.031" />
        </g>
        <g
           transform="translate(26.8732,200.4779)"
           id="g4043">
          <path
             id="path4045"
             style="fill:#231f20;fill-opacity:1;fill-rule:nonzero;stroke:none"
             d="M 0,0 C 0,0.255 -0.056,0.459 -0.167,0.611 -0.278,0.764 -0.438,0.84 -0.646,0.84 -0.853,0.84 -1.02,0.762 -1.146,0.607 -1.273,0.453 -1.337,0.25 -1.337,0 Z m 1.162,-0.695 h -2.465 c 0.048,-0.242 0.166,-0.44 0.354,-0.594 0.188,-0.154 0.401,-0.231 0.639,-0.231 0.417,0 0.878,0.133 1.382,0.399 v -0.871 c -0.18,-0.107 -0.4,-0.204 -0.658,-0.291 -0.258,-0.088 -0.586,-0.131 -0.985,-0.131 -0.43,0 -0.797,0.091 -1.1,0.273 -0.302,0.183 -0.529,0.43 -0.679,0.743 -0.15,0.312 -0.225,0.666 -0.225,1.062 0,0.391 0.075,0.74 0.225,1.049 0.15,0.308 0.377,0.551 0.679,0.726 0.303,0.176 0.67,0.264 1.1,0.264 0.284,0 0.559,-0.07 0.823,-0.209 C 0.517,1.355 0.735,1.127 0.906,0.811 1.076,0.494 1.162,0.086 1.162,-0.414 Z" />
        </g>
        <g
           transform="translate(61.2629,300.3714)"
           id="g4047">
          <path
             id="path4049"
             style="fill:#231f20;fill-opacity:1;fill-rule:nonzero;stroke:none"
             d="M 0,0 H -1.977 V -2.191 H -3.414 V 3.223 H 0 V 2.137 H -1.977 V 1.09 H 0 Z" />
        </g>
        <g
           transform="translate(62.9474,303.0745)"
           id="g4051">
          <path
             id="path4053"
             style="fill:#231f20;fill-opacity:1;fill-rule:nonzero;stroke:none"
             d="m 0,0 c 0,-0.164 -0.052,-0.303 -0.155,-0.418 -0.103,-0.115 -0.226,-0.172 -0.367,-0.172 -0.097,0 -0.185,0.026 -0.264,0.078 -0.079,0.053 -0.141,0.123 -0.187,0.213 -0.046,0.09 -0.069,0.19 -0.069,0.299 0,0.162 0.051,0.301 0.151,0.418 0.101,0.117 0.224,0.176 0.369,0.176 0.141,0 0.264,-0.059 0.367,-0.176 C -0.052,0.301 0,0.162 0,0 m 0.1,-4.895 h -1.241 v 3.977 H 0.1 Z" />
        </g>
        <path
           id="path4055"
           style="fill:#231f20;fill-opacity:1;fill-rule:nonzero;stroke:none"
           d="M 64.921,298.18 H 63.68 v 5.414 h 1.241 z" />
        <g
           transform="translate(68.2521,298.4105)"
           id="g4057">
          <path
             id="path4059"
             style="fill:#231f20;fill-opacity:1;fill-rule:nonzero;stroke:none"
             d="m 0,0 c -0.128,-0.07 -0.306,-0.138 -0.531,-0.203 -0.226,-0.065 -0.442,-0.098 -0.648,-0.098 -0.892,0 -1.338,0.495 -1.338,1.485 V 2.77 h -0.56 v 0.246 l 1.66,1.921 h 0.142 V 3.746 h 1.182 V 2.77 H -1.275 V 1.496 c 0,-0.148 0.007,-0.268 0.024,-0.359 0.016,-0.092 0.061,-0.168 0.135,-0.229 0.075,-0.061 0.188,-0.092 0.339,-0.092 0.197,0 0.456,0.094 0.777,0.282 z" />
        </g>
        <g
           transform="translate(70.9406,300.5237)"
           id="g4061">
          <path
             id="path4063"
             style="fill:#231f20;fill-opacity:1;fill-rule:nonzero;stroke:none"
             d="M 0,0 C 0,0.255 -0.056,0.459 -0.167,0.611 -0.278,0.764 -0.438,0.84 -0.646,0.84 -0.853,0.84 -1.02,0.762 -1.146,0.607 -1.273,0.453 -1.337,0.25 -1.337,0 Z m 1.162,-0.695 h -2.465 c 0.048,-0.242 0.166,-0.44 0.354,-0.594 0.188,-0.154 0.401,-0.231 0.639,-0.231 0.417,0 0.878,0.133 1.382,0.399 v -0.871 c -0.18,-0.107 -0.4,-0.204 -0.658,-0.291 -0.258,-0.088 -0.586,-0.131 -0.985,-0.131 -0.43,0 -0.797,0.091 -1.1,0.273 -0.302,0.183 -0.529,0.43 -0.679,0.743 -0.15,0.312 -0.225,0.666 -0.225,1.062 0,0.391 0.075,0.74 0.225,1.049 0.15,0.308 0.377,0.551 0.679,0.726 0.303,0.176 0.67,0.264 1.1,0.264 0.284,0 0.559,-0.07 0.823,-0.209 C 0.517,1.355 0.735,1.127 0.906,0.811 1.076,0.494 1.162,0.086 1.162,-0.414 Z" />
        </g>
        <g
           transform="translate(75.5056,301.9417)"
           id="g4065">
          <path
             id="path4067"
             style="fill:#231f20;fill-opacity:1;fill-rule:nonzero;stroke:none"
             d="m 0,0 -0.457,-1.41 c -0.188,0.203 -0.378,0.305 -0.571,0.305 -0.174,0 -0.325,-0.067 -0.451,-0.202 -0.128,-0.134 -0.25,-0.382 -0.367,-0.744 v -1.711 h -1.237 v 3.977 h 1.237 v -0.961 c 0.078,0.237 0.216,0.468 0.413,0.693 0.197,0.225 0.428,0.338 0.694,0.338 0.14,0 0.262,-0.023 0.366,-0.07 C -0.269,0.168 -0.144,0.096 0,0" />
        </g>
        <g
           transform="translate(62.8703,295.2776)"
           id="g4069">
          <path
             id="path4071"
             style="fill:#231f20;fill-opacity:1;fill-rule:nonzero;stroke:none"
             d="M 0,0 H -1.746 V -4.098 H -3.18 V 0 H -4.926 V 1.316 H 0 Z" />
        </g>
        <g
           transform="translate(66.9748,295.1566)"
           id="g4073">
          <path
             id="path4075"
             style="fill:#231f20;fill-opacity:1;fill-rule:nonzero;stroke:none"
             d="M 0,0 -2.378,-5.785 H -3.63 L -2.667,-3.457 -4.053,0 h 1.331 L -2.011,-1.977 -1.203,0 Z" />
        </g>
        <g
           transform="translate(69.5876,293.1644)"
           id="g4077">
          <path
             id="path4079"
             style="fill:#231f20;fill-opacity:1;fill-rule:nonzero;stroke:none"
             d="m 0,0 c 0,0.24 -0.033,0.434 -0.1,0.584 -0.066,0.15 -0.152,0.258 -0.257,0.324 -0.106,0.067 -0.215,0.1 -0.327,0.1 -0.147,0 -0.267,-0.027 -0.361,-0.08 C -1.139,0.875 -1.227,0.807 -1.31,0.727 v -1.52 c 0.044,-0.026 0.09,-0.055 0.14,-0.088 0.049,-0.033 0.098,-0.06 0.148,-0.084 0.049,-0.023 0.102,-0.043 0.158,-0.058 0.056,-0.016 0.116,-0.024 0.18,-0.024 0.195,0 0.357,0.094 0.488,0.281 C -0.065,-0.578 0,-0.323 0,0 m 1.303,0.031 c 0,-0.265 -0.033,-0.522 -0.1,-0.769 C 1.137,-0.986 1.035,-1.209 0.899,-1.408 0.763,-1.607 0.587,-1.765 0.373,-1.881 0.159,-1.997 -0.09,-2.055 -0.375,-2.055 c -0.229,0 -0.409,0.028 -0.541,0.082 -0.132,0.055 -0.263,0.128 -0.394,0.219 V -3.793 H -2.547 V 1.992 H -1.31 V 1.633 c 0.124,0.122 0.261,0.224 0.411,0.306 0.15,0.082 0.354,0.124 0.61,0.124 0.255,0 0.504,-0.072 0.75,-0.215 C 0.706,1.705 0.908,1.481 1.066,1.178 1.224,0.875 1.303,0.492 1.303,0.031" />
        </g>
        <g
           transform="translate(73.6789,293.5237)"
           id="g4081">
          <path
             id="path4083"
             style="fill:#231f20;fill-opacity:1;fill-rule:nonzero;stroke:none"
             d="M 0,0 C 0,0.255 -0.056,0.459 -0.167,0.611 -0.278,0.764 -0.438,0.84 -0.646,0.84 -0.853,0.84 -1.02,0.762 -1.146,0.607 -1.273,0.453 -1.337,0.25 -1.337,0 Z m 1.162,-0.695 h -2.465 c 0.048,-0.242 0.166,-0.44 0.354,-0.594 0.188,-0.154 0.401,-0.231 0.639,-0.231 0.417,0 0.878,0.133 1.382,0.399 v -0.871 c -0.18,-0.107 -0.4,-0.204 -0.658,-0.291 -0.258,-0.088 -0.586,-0.131 -0.985,-0.131 -0.43,0 -0.797,0.091 -1.1,0.273 -0.302,0.183 -0.529,0.43 -0.679,0.743 -0.15,0.312 -0.225,0.666 -0.225,1.062 0,0.391 0.075,0.74 0.225,1.049 0.15,0.308 0.377,0.551 0.679,0.726 0.303,0.176 0.67,0.264 1.1,0.264 0.284,0 0.559,-0.07 0.823,-0.209 C 0.517,1.355 0.735,1.127 0.906,0.811 1.076,0.494 1.162,0.086 1.162,-0.414 Z" />
        </g>
        <g
           transform="translate(78.3161,66.1434)"
           id="g4085">
          <path
             id="path4087"
             style="fill:#231f20;fill-opacity:1;fill-rule:nonzero;stroke:none"
             d="m 0,0 v -23.923 c 0,-8.82 -6.815,-15.254 -15.224,-15.254 -8.408,0 -15.223,6.434 -15.223,15.254 V 0 Z" />
        </g>
        <g
           transform="translate(78.3161,66.1434)"
           id="g4089">
          <path
             id="path4091"
             style="fill:none;stroke:#231f20;stroke-width:1;stroke-linecap:butt;stroke-linejoin:miter;stroke-miterlimit:10;stroke-dasharray:none;stroke-opacity:1"
             d="m 0,0 v -23.923 c 0,-8.82 -6.815,-15.254 -15.224,-15.254 -8.408,0 -15.223,6.434 -15.223,15.254 V 0 Z" />
        </g>
        <g
           transform="translate(39.1149,18.9256)"
           id="g4093">
          <path
             id="path4095"
             style="fill:#231f20;fill-opacity:1;fill-rule:nonzero;stroke:none"
             d="M 0,0 C 0,0.55 -0.089,0.979 -0.267,1.287 -0.444,1.594 -0.657,1.8 -0.906,1.904 -1.155,2.008 -1.409,2.061 -1.667,2.061 h -0.735 v -4.009 h 0.735 c 0.451,0 0.842,0.127 1.172,0.381 C -0.165,-1.313 0,-0.791 0,0 m 1.754,-0.088 c 0,-0.693 -0.108,-1.25 -0.32,-1.67 C 1.221,-2.178 0.97,-2.518 0.681,-2.778 0.271,-3.159 -0.303,-3.35 -1.04,-3.35 h -3.087 v 6.768 h 2.377 c 0.357,0 0.664,-0.022 0.918,-0.066 C -0.577,3.308 -0.349,3.246 -0.145,3.167 0.059,3.087 0.232,2.997 0.375,2.898 0.519,2.799 0.646,2.692 0.759,2.578 0.954,2.389 1.126,2.167 1.272,1.909 1.42,1.652 1.537,1.354 1.623,1.016 1.71,0.677 1.754,0.309 1.754,-0.088" />
        </g>
        <g
           transform="translate(46.029,15.576)"
           id="g4097">
          <path
             id="path4099"
             style="fill:#231f20;fill-opacity:1;fill-rule:nonzero;stroke:none"
             d="m 0,0 h -1.486 v 0.708 c -0.209,-0.267 -0.43,-0.466 -0.66,-0.598 -0.23,-0.132 -0.506,-0.198 -0.83,-0.198 -0.633,0 -1.044,0.219 -1.23,0.657 -0.187,0.438 -0.279,0.931 -0.279,1.482 v 2.92 H -3 V 2.285 c 0,-0.27 0.038,-0.507 0.113,-0.71 0.076,-0.204 0.241,-0.305 0.495,-0.305 0.218,0 0.39,0.073 0.517,0.219 0.127,0.147 0.257,0.334 0.389,0.562 v 2.92 H 0 Z" />
        </g>
        <g
           transform="translate(49.1872,16.7772)"
           id="g4101">
          <path
             id="path4103"
             style="fill:#231f20;fill-opacity:1;fill-rule:nonzero;stroke:none"
             d="M 0,0 V 1.177 C -0.353,1.007 -0.609,0.855 -0.771,0.72 -0.934,0.585 -1.015,0.402 -1.015,0.171 c 0,-0.166 0.04,-0.293 0.121,-0.381 0.082,-0.088 0.176,-0.132 0.284,-0.132 0.101,0 0.202,0.033 0.302,0.1 C -0.207,-0.175 -0.104,-0.094 0,0 M 2.067,-0.952 C 1.85,-1.053 1.649,-1.134 1.465,-1.196 1.28,-1.258 1.06,-1.289 0.801,-1.289 c -0.245,0 -0.416,0.051 -0.512,0.154 -0.097,0.102 -0.165,0.227 -0.206,0.373 -0.16,-0.153 -0.338,-0.279 -0.532,-0.378 -0.197,-0.099 -0.452,-0.149 -0.768,-0.149 -0.305,0 -0.553,0.062 -0.741,0.188 -0.188,0.125 -0.32,0.283 -0.396,0.474 -0.076,0.19 -0.114,0.386 -0.114,0.588 0,0.306 0.066,0.559 0.197,0.759 0.13,0.2 0.305,0.364 0.526,0.491 0.22,0.127 0.512,0.259 0.875,0.395 0.206,0.079 0.362,0.138 0.468,0.179 0.106,0.04 0.185,0.072 0.237,0.095 C -0.112,1.903 -0.058,1.932 0,1.968 0,2.208 -0.041,2.397 -0.124,2.534 -0.206,2.671 -0.385,2.739 -0.66,2.739 -0.984,2.739 -1.286,2.655 -1.563,2.485 -1.842,2.316 -2.096,2.098 -2.327,1.831 v 1.348 c 0.184,0.156 0.384,0.284 0.598,0.383 0.214,0.099 0.439,0.173 0.672,0.222 0.235,0.049 0.471,0.073 0.71,0.073 0.609,0 1.066,-0.139 1.372,-0.417 0.307,-0.278 0.46,-0.662 0.46,-1.15 V 0.371 c 0,-0.182 0.015,-0.318 0.044,-0.408 0.029,-0.089 0.081,-0.134 0.158,-0.134 0.094,0 0.221,0.047 0.38,0.142 z" />
        </g>
        <path
           id="path4105"
           style="fill:#231f20;fill-opacity:1;fill-rule:nonzero;stroke:none"
           d="m 53.2,15.576 h -1.489 v 6.768 H 53.2 Z" />
        <g
           transform="translate(41.6403,6.576)"
           id="g4107">
          <path
             id="path4109"
             style="fill:#231f20;fill-opacity:1;fill-rule:nonzero;stroke:none"
             d="M 0,0 H -1.726 V 3.921 L -3.281,1.65 h -0.136 l -1.56,2.271 V 0 h -1.675 v 6.768 h 1.564 L -3.33,4.229 -1.564,6.768 H 0 Z" />
        </g>
        <g
           transform="translate(47.1804,6.576)"
           id="g4111">
          <path
             id="path4113"
             style="fill:#231f20;fill-opacity:1;fill-rule:nonzero;stroke:none"
             d="m 0,0 h -1.486 v 0.708 c -0.209,-0.267 -0.43,-0.466 -0.66,-0.599 -0.23,-0.13 -0.506,-0.197 -0.83,-0.197 -0.633,0 -1.044,0.219 -1.23,0.656 -0.187,0.439 -0.279,0.933 -0.279,1.483 v 2.92 H -3 V 2.285 c 0,-0.27 0.038,-0.507 0.113,-0.711 0.076,-0.203 0.241,-0.304 0.495,-0.304 0.218,0 0.39,0.073 0.517,0.219 0.127,0.147 0.257,0.334 0.389,0.562 v 2.92 H 0 Z" />
        </g>
        <path
           id="path4115"
           style="fill:#231f20;fill-opacity:1;fill-rule:nonzero;stroke:none"
           d="m 49.612,6.576 h -1.489 v 6.768 h 1.489 z" />
        <g
           transform="translate(53.8649,6.8641)"
           id="g4117">
          <path
             id="path4119"
             style="fill:#231f20;fill-opacity:1;fill-rule:nonzero;stroke:none"
             d="m 0,0 c -0.154,-0.088 -0.366,-0.173 -0.638,-0.254 -0.27,-0.081 -0.53,-0.122 -0.777,-0.122 -1.07,0 -1.606,0.618 -1.606,1.855 V 3.462 H -3.693 V 3.77 L -1.7,6.172 h 0.169 V 4.683 h 1.42 V 3.462 h -1.42 V 1.87 c 0,-0.185 0.01,-0.335 0.029,-0.449 0.02,-0.114 0.073,-0.209 0.163,-0.285 0.089,-0.077 0.225,-0.115 0.406,-0.115 0.237,0 0.548,0.117 0.933,0.351 z" />
        </g>
        <g
           transform="translate(55.8766,12.6942)"
           id="g4121">
          <path
             id="path4123"
             style="fill:#231f20;fill-opacity:1;fill-rule:nonzero;stroke:none"
             d="m 0,0 c 0,-0.205 -0.062,-0.379 -0.186,-0.522 -0.124,-0.144 -0.271,-0.215 -0.441,-0.215 -0.116,0 -0.221,0.032 -0.316,0.097 -0.095,0.065 -0.17,0.154 -0.225,0.266 -0.055,0.113 -0.082,0.237 -0.082,0.374 0,0.202 0.06,0.376 0.181,0.522 0.121,0.147 0.268,0.22 0.442,0.22 0.17,0 0.317,-0.073 0.441,-0.22 C -0.062,0.376 0,0.202 0,0 M 0.119,-6.118 H -1.37 v 4.971 h 1.489 z" />
        </g>
        <g
           transform="translate(63.7009,9.3153)"
           id="g4125">
          <path
             id="path4127"
             style="fill:#231f20;fill-opacity:1;fill-rule:nonzero;stroke:none"
             d="M 0,0 H -2.373 V -2.739 H -4.098 V 4.028 H 0 V 2.671 H -2.373 V 1.362 H 0 Z" />
        </g>
        <g
           transform="translate(65.9763,12.6942)"
           id="g4129">
          <path
             id="path4131"
             style="fill:#231f20;fill-opacity:1;fill-rule:nonzero;stroke:none"
             d="m 0,0 c 0,-0.205 -0.062,-0.379 -0.186,-0.522 -0.124,-0.144 -0.271,-0.215 -0.441,-0.215 -0.116,0 -0.221,0.032 -0.316,0.097 -0.095,0.065 -0.17,0.154 -0.225,0.266 -0.055,0.113 -0.082,0.237 -0.082,0.374 0,0.202 0.06,0.376 0.181,0.522 0.121,0.147 0.268,0.22 0.442,0.22 0.17,0 0.317,-0.073 0.441,-0.22 C -0.062,0.376 0,0.202 0,0 M 0.119,-6.118 H -1.37 v 4.971 h 1.489 z" />
        </g>
        <path
           id="path4133"
           style="fill:#231f20;fill-opacity:1;fill-rule:nonzero;stroke:none"
           d="m 68.598,6.576 h -1.489 v 6.768 h 1.489 z" />
        <g
           transform="translate(72.8513,6.8641)"
           id="g4135">
          <path
             id="path4137"
             style="fill:#231f20;fill-opacity:1;fill-rule:nonzero;stroke:none"
             d="m 0,0 c -0.154,-0.088 -0.366,-0.173 -0.638,-0.254 -0.27,-0.081 -0.53,-0.122 -0.777,-0.122 -1.07,0 -1.606,0.618 -1.606,1.855 V 3.462 H -3.693 V 3.77 L -1.7,6.172 h 0.169 V 4.683 h 1.42 V 3.462 h -1.42 V 1.87 c 0,-0.185 0.01,-0.335 0.029,-0.449 0.02,-0.114 0.073,-0.209 0.163,-0.285 0.089,-0.077 0.225,-0.115 0.406,-0.115 0.237,0 0.548,0.117 0.933,0.351 z" />
        </g>
        <g
           transform="translate(76.3317,9.5057)"
           id="g4139">
          <path
             id="path4141"
             style="fill:#231f20;fill-opacity:1;fill-rule:nonzero;stroke:none"
             d="M 0,0 C 0,0.319 -0.066,0.574 -0.2,0.764 -0.333,0.955 -0.525,1.05 -0.775,1.05 -1.023,1.05 -1.224,0.953 -1.376,0.76 -1.528,0.565 -1.605,0.312 -1.605,0 Z m 1.395,-0.869 h -2.958 c 0.057,-0.303 0.199,-0.55 0.424,-0.742 0.226,-0.193 0.482,-0.288 0.768,-0.288 0.501,0 1.054,0.166 1.658,0.498 V -2.49 c -0.217,-0.134 -0.48,-0.255 -0.79,-0.364 -0.31,-0.109 -0.703,-0.164 -1.182,-0.164 -0.517,0 -0.958,0.115 -1.32,0.342 -0.363,0.228 -0.636,0.537 -0.815,0.928 -0.181,0.391 -0.271,0.833 -0.271,1.328 0,0.488 0.09,0.926 0.271,1.311 0.179,0.386 0.452,0.689 0.815,0.908 0.362,0.221 0.803,0.33 1.32,0.33 0.341,0 0.67,-0.087 0.989,-0.262 C 0.621,1.693 0.883,1.408 1.088,1.014 1.292,0.617 1.395,0.107 1.395,-0.518 Z" />
        </g>
        <g
           transform="translate(82.0661,11.2782)"
           id="g4143">
          <path
             id="path4145"
             style="fill:#231f20;fill-opacity:1;fill-rule:nonzero;stroke:none"
             d="m 0,0 -0.549,-1.763 c -0.225,0.254 -0.454,0.381 -0.685,0.381 -0.209,0 -0.39,-0.084 -0.542,-0.252 -0.154,-0.167 -0.3,-0.477 -0.44,-0.929 v -2.139 h -1.486 v 4.971 h 1.486 v -1.202 c 0.093,0.296 0.258,0.585 0.495,0.868 0.237,0.281 0.514,0.421 0.833,0.421 0.168,0 0.315,-0.029 0.44,-0.087 C -0.323,0.21 -0.174,0.12 0,0" />
        </g>
        <path
           id="path4147"
           style="fill:#231f20;fill-opacity:1;fill-rule:nonzero;stroke:none"
           d="m 59.616,70.112 h -1.257 v 4.737 h 1.257 z" />
        <g
           transform="translate(63.5143,70.1121)"
           id="g4149">
          <path
             id="path4151"
             style="fill:#231f20;fill-opacity:1;fill-rule:nonzero;stroke:none"
             d="m 0,0 h -1.083 v 1.876 c 0,0.192 -0.027,0.359 -0.083,0.501 -0.055,0.143 -0.175,0.214 -0.362,0.214 -0.088,0 -0.166,-0.019 -0.233,-0.057 C -1.828,2.497 -1.888,2.448 -1.941,2.389 -1.995,2.33 -2.039,2.273 -2.075,2.218 -2.111,2.164 -2.148,2.105 -2.187,2.044 V 0 H -3.27 v 3.479 h 1.083 V 2.98 c 0.171,0.208 0.342,0.353 0.513,0.436 0.172,0.084 0.363,0.125 0.573,0.125 C -0.367,3.541 0,3.042 0,2.044 Z" />
        </g>
        <g
           transform="translate(68.5739,70.1121)"
           id="g4153">
          <path
             id="path4155"
             style="fill:#231f20;fill-opacity:1;fill-rule:nonzero;stroke:none"
             d="m 0,0 h -3.167 v 0.092 c 0.122,0.135 0.256,0.295 0.403,0.482 0.146,0.187 0.335,0.434 0.565,0.742 0.107,0.139 0.206,0.276 0.3,0.41 0.093,0.134 0.172,0.265 0.239,0.391 0.066,0.127 0.122,0.266 0.168,0.419 0.046,0.153 0.069,0.309 0.069,0.468 0,0.219 -0.056,0.396 -0.167,0.532 -0.111,0.135 -0.253,0.203 -0.425,0.203 -0.341,0 -0.68,-0.2 -1.017,-0.601 v 1.117 c 0.118,0.087 0.216,0.157 0.292,0.209 0.076,0.052 0.164,0.103 0.263,0.154 0.099,0.05 0.217,0.093 0.353,0.13 0.137,0.036 0.284,0.054 0.442,0.054 0.255,0 0.487,-0.058 0.695,-0.176 0.209,-0.117 0.373,-0.287 0.492,-0.509 0.12,-0.222 0.179,-0.481 0.179,-0.778 0,-0.209 -0.027,-0.405 -0.081,-0.588 C -0.451,2.569 -0.507,2.422 -0.565,2.311 -0.624,2.199 -0.701,2.061 -0.797,1.897 -0.97,1.605 -1.154,1.327 -1.351,1.063 H 0 Z" />
        </g>
        <path
           id="path4157"
           style="fill:#231f20;fill-opacity:1;fill-rule:nonzero;stroke:none"
           d="m 23.823,148.969 h -1.14 v 4.737 h 1.14 z" />
        <g
           transform="translate(64.9118,149.1273)"
           id="g4159">
          <path
             id="path4161"
             style="fill:#231f20;fill-opacity:1;fill-rule:nonzero;stroke:none"
             d="m 0,0 h -3.167 v 0.092 c 0.122,0.135 0.256,0.295 0.403,0.482 0.146,0.187 0.335,0.434 0.565,0.742 0.107,0.139 0.206,0.276 0.3,0.41 0.093,0.134 0.172,0.265 0.239,0.391 0.066,0.127 0.122,0.266 0.168,0.419 0.046,0.153 0.069,0.309 0.069,0.468 0,0.219 -0.056,0.396 -0.167,0.532 -0.111,0.135 -0.253,0.203 -0.425,0.203 -0.341,0 -0.68,-0.2 -1.017,-0.601 v 1.117 c 0.118,0.087 0.216,0.157 0.292,0.209 0.076,0.052 0.164,0.103 0.263,0.154 0.099,0.05 0.217,0.093 0.353,0.13 0.137,0.036 0.284,0.054 0.442,0.054 0.255,0 0.487,-0.058 0.695,-0.176 0.209,-0.117 0.373,-0.287 0.492,-0.509 0.12,-0.222 0.179,-0.481 0.179,-0.778 0,-0.209 -0.027,-0.405 -0.081,-0.588 C -0.451,2.569 -0.507,2.422 -0.565,2.311 -0.624,2.199 -0.701,2.061 -0.797,1.897 -0.97,1.605 -1.154,1.327 -1.351,1.063 H 0 Z" />
        </g>
        <g
           transform="translate(58.7468,32.5252)"
           id="g4163">
          <path
             id="path4165"
             style="fill:#ffffff;fill-opacity:1;fill-rule:nonzero;stroke:none"
             d="M 0,0 C 0,0.178 -0.023,0.34 -0.069,0.487 -0.115,0.634 -0.185,0.762 -0.278,0.87 -0.372,0.978 -0.485,1.062 -0.62,1.123 -0.754,1.183 -0.909,1.213 -1.086,1.213 -1.423,1.213 -1.687,1.102 -1.88,0.878 -2.072,0.655 -2.168,0.362 -2.168,0 c 0,-0.362 0.096,-0.656 0.29,-0.88 0.193,-0.224 0.457,-0.337 0.792,-0.337 0.231,0 0.427,0.052 0.59,0.155 0.162,0.104 0.286,0.248 0.37,0.431 C -0.042,-0.447 0,-0.237 0,0 m 1.281,0 c 0,-0.442 -0.09,-0.849 -0.269,-1.22 -0.179,-0.372 -0.447,-0.667 -0.802,-0.885 -0.355,-0.219 -0.787,-0.329 -1.296,-0.329 -0.515,0 -0.951,0.114 -1.308,0.342 -0.357,0.228 -0.623,0.528 -0.796,0.899 -0.173,0.372 -0.26,0.769 -0.26,1.193 0,0.426 0.086,0.824 0.259,1.194 0.172,0.371 0.437,0.669 0.795,0.896 0.358,0.227 0.795,0.34 1.31,0.34 0.385,0 0.729,-0.065 1.03,-0.195 C 0.246,2.105 0.494,1.93 0.689,1.707 0.883,1.485 1.031,1.227 1.131,0.932 1.231,0.636 1.281,0.326 1.281,0" />
        </g>
        <g
           transform="translate(63.6105,30.1532)"
           id="g4167">
          <path
             id="path4169"
             style="fill:#ffffff;fill-opacity:1;fill-rule:nonzero;stroke:none"
             d="M 0,0 H -1.083 V 0.496 C -1.236,0.309 -1.396,0.169 -1.564,0.077 c -0.168,-0.093 -0.37,-0.139 -0.604,-0.139 -0.463,0 -0.762,0.154 -0.897,0.46 C -3.202,0.705 -3.27,1.05 -3.27,1.436 v 2.043 h 1.083 V 1.6 c 0,-0.189 0.028,-0.355 0.083,-0.497 0.056,-0.143 0.176,-0.214 0.361,-0.214 0.159,0 0.284,0.051 0.377,0.153 0.092,0.103 0.187,0.234 0.283,0.394 V 3.479 H 0 Z" />
        </g>
        <g
           transform="translate(66.4743,30.3548)"
           id="g4171">
          <path
             id="path4173"
             style="fill:#ffffff;fill-opacity:1;fill-rule:nonzero;stroke:none"
             d="m 0,0 c -0.112,-0.062 -0.267,-0.121 -0.465,-0.178 -0.197,-0.057 -0.386,-0.085 -0.567,-0.085 -0.78,0 -1.17,0.433 -1.17,1.299 v 1.387 h -0.49 v 0.216 l 1.453,1.681 h 0.123 V 3.278 h 1.035 V 2.423 H -1.116 V 1.309 c 0,-0.13 0.007,-0.235 0.021,-0.314 0.014,-0.08 0.053,-0.147 0.119,-0.201 0.065,-0.053 0.164,-0.08 0.296,-0.08 0.173,0 0.399,0.082 0.68,0.246 z" />
        </g>
        <g
           transform="translate(71.3596,30.1532)"
           id="g4175">
          <path
             id="path4177"
             style="fill:#ffffff;fill-opacity:1;fill-rule:nonzero;stroke:none"
             d="m 0,0 h -3.167 v 0.092 c 0.122,0.135 0.256,0.295 0.403,0.482 0.146,0.187 0.335,0.434 0.565,0.742 0.107,0.139 0.206,0.276 0.3,0.41 0.093,0.134 0.172,0.265 0.239,0.391 0.066,0.127 0.122,0.266 0.168,0.419 0.046,0.153 0.069,0.309 0.069,0.468 0,0.219 -0.056,0.396 -0.167,0.532 -0.111,0.135 -0.253,0.203 -0.425,0.203 -0.341,0 -0.68,-0.2 -1.017,-0.601 v 1.117 c 0.118,0.087 0.216,0.157 0.292,0.209 0.076,0.052 0.164,0.103 0.263,0.154 0.099,0.05 0.217,0.093 0.353,0.13 0.137,0.036 0.284,0.054 0.442,0.054 0.255,0 0.487,-0.058 0.695,-0.176 0.209,-0.117 0.373,-0.287 0.492,-0.509 0.12,-0.222 0.179,-0.481 0.179,-0.778 0,-0.209 -0.027,-0.405 -0.081,-0.588 C -0.451,2.569 -0.507,2.422 -0.565,2.311 -0.624,2.199 -0.701,2.061 -0.797,1.897 -0.97,1.605 -1.154,1.327 -1.351,1.063 H 0 Z" />
        </g>
        <g
           transform="translate(47.8693,66.9442)"
           id="g4179">
          <path
             id="path4181"
             style="fill:none;stroke:#231f20;stroke-width:1;stroke-linecap:butt;stroke-linejoin:miter;stroke-miterlimit:10;stroke-dasharray:none;stroke-opacity:1"
             d="m 0,0 v 23.923 c 0,8.82 6.815,15.254 15.224,15.254 8.408,0 15.223,-6.434 15.223,-15.254 L 30.447,0 Z" />
        </g>
        <g
           transform="translate(18.7238,151.3807)"
           id="g4183">
          <path
             id="path4185"
             style="fill:none;stroke:#231f20;stroke-width:1;stroke-linecap:butt;stroke-linejoin:miter;stroke-miterlimit:10;stroke-dasharray:none;stroke-opacity:1"
             d="M 0,0 C 0,2.502 2.029,4.532 4.532,4.532 7.035,4.532 9.063,2.502 9.063,0 9.063,-2.503 7.035,-4.532 4.532,-4.532 2.029,-4.532 0,-2.503 0,0 Z" />
        </g>
        <path
           id="path4187"
           style="fill:#231f20;fill-opacity:1;fill-rule:nonzero;stroke:none"
           d="m 67.234,319.767 h -1.14 v 4.737 h 1.14 z" />
        <g
           transform="translate(62.1345,322.179)"
           id="g4189">
          <path
             id="path4191"
             style="fill:none;stroke:#231f20;stroke-width:1;stroke-linecap:butt;stroke-linejoin:miter;stroke-miterlimit:10;stroke-dasharray:none;stroke-opacity:1"
             d="M 0,0 C 0,2.503 2.029,4.532 4.532,4.532 7.035,4.532 9.063,2.503 9.063,0 9.063,-2.503 7.035,-4.532 4.532,-4.532 2.029,-4.532 0,-2.503 0,0 Z" />
        </g>
        <g
           transform="translate(58.7902,151.3807)"
           id="g4193">
          <path
             id="path4195"
             style="fill:none;stroke:#231f20;stroke-width:1;stroke-linecap:butt;stroke-linejoin:miter;stroke-miterlimit:10;stroke-dasharray:none;stroke-opacity:1"
             d="M 0,0 C 0,2.502 2.029,4.532 4.532,4.532 7.035,4.532 9.063,2.502 9.063,0 9.063,-2.503 7.035,-4.532 4.532,-4.532 2.029,-4.532 0,-2.503 0,0 Z" />
        </g>
        <g
           transform="translate(21.2355,227.2298)"
           id="g4197">
          <path
             id="path4199"
             style="fill:#231f20;fill-opacity:1;fill-rule:nonzero;stroke:none"
             d="m 0,0 h -3.167 v 0.092 c 0.122,0.135 0.256,0.295 0.403,0.482 0.146,0.187 0.335,0.434 0.565,0.742 0.107,0.139 0.206,0.276 0.3,0.41 0.093,0.134 0.172,0.265 0.239,0.391 0.066,0.127 0.122,0.266 0.168,0.419 0.046,0.153 0.069,0.309 0.069,0.468 0,0.219 -0.056,0.396 -0.167,0.532 -0.111,0.135 -0.253,0.203 -0.425,0.203 -0.341,0 -0.68,-0.2 -1.017,-0.601 v 1.117 c 0.118,0.087 0.216,0.157 0.292,0.209 0.076,0.052 0.164,0.103 0.263,0.154 0.099,0.05 0.217,0.093 0.353,0.13 0.137,0.036 0.284,0.054 0.442,0.054 0.255,0 0.487,-0.058 0.695,-0.176 0.209,-0.117 0.373,-0.287 0.492,-0.509 0.12,-0.222 0.179,-0.481 0.179,-0.778 0,-0.209 -0.027,-0.405 -0.081,-0.588 C -0.451,2.569 -0.507,2.422 -0.565,2.311 -0.624,2.199 -0.701,2.061 -0.797,1.897 -0.97,1.605 -1.154,1.327 -1.351,1.063 H 0 Z" />
        </g>
        <g
           transform="translate(15.114,229.4832)"
           id="g4201">
          <path
             id="path4203"
             style="fill:none;stroke:#231f20;stroke-width:1;stroke-linecap:butt;stroke-linejoin:miter;stroke-miterlimit:10;stroke-dasharray:none;stroke-opacity:1"
             d="M 0,0 C 0,2.502 2.029,4.532 4.532,4.532 7.035,4.532 9.063,2.502 9.063,0 9.063,-2.503 7.035,-4.532 4.532,-4.532 2.029,-4.532 0,-2.503 0,0 Z" />
        </g>
        <g
           transform="translate(23.2556,155.9124)"
           id="g4205">
          <path
             id="path4207"
             style="fill:none;stroke:#231f20;stroke-width:1;stroke-linecap:butt;stroke-linejoin:miter;stroke-miterlimit:10;stroke-dasharray:none;stroke-opacity:1"
             d="M 0,0 V 4.736" />
        </g>
        <g
           transform="translate(23.2556,106.1214)"
           id="g4209">
          <path
             id="path4211"
             style="fill:none;stroke:#231f20;stroke-width:1;stroke-linecap:butt;stroke-linejoin:miter;stroke-miterlimit:10;stroke-dasharray:none;stroke-opacity:1"
             d="M 0,0 V 14.623" />
        </g>
        <g
           transform="translate(23.2556,146.849)"
           id="g4213">
          <path
             id="path4215"
             style="fill:none;stroke:#231f20;stroke-width:1;stroke-linecap:butt;stroke-linejoin:miter;stroke-miterlimit:10;stroke-dasharray:none;stroke-opacity:1"
             d="M 0,0 V -5.194" />
        </g>
        <g
           transform="translate(63.322,155.9124)"
           id="g4217">
          <path
             id="path4219"
             style="fill:none;stroke:#231f20;stroke-width:1;stroke-linecap:butt;stroke-linejoin:miter;stroke-miterlimit:10;stroke-dasharray:none;stroke-opacity:1"
             d="M 0,0 V 4.736" />
        </g>
        <g
           transform="translate(63.322,106.1214)"
           id="g4221">
          <path
             id="path4223"
             style="fill:none;stroke:#231f20;stroke-width:1;stroke-linecap:butt;stroke-linejoin:miter;stroke-miterlimit:10;stroke-dasharray:none;stroke-opacity:1"
             d="M 0,0 V 14.623" />
        </g>
        <g
           transform="translate(63.322,146.849)"
           id="g4225">
          <path
             id="path4227"
             style="fill:none;stroke:#231f20;stroke-width:1;stroke-linecap:butt;stroke-linejoin:miter;stroke-miterlimit:10;stroke-dasharray:none;stroke-opacity:1"
             d="M 0,0 V -5.194" />
        </g>
        <g
           transform="translate(35.3967,171.1131)"
           id="g4229">
          <path
             id="path4231"
             style="fill:none;stroke:#231f20;stroke-width:0.5;stroke-linecap:butt;stroke-linejoin:miter;stroke-miterlimit:4;stroke-dasharray:none;stroke-opacity:1"
             d="M 0,0 H 11.358" />
        </g>
        <g
           transform="translate(48.5197,171.1131)"
           id="g4233">
          <path
             id="path4235"
             style="fill:#231f20;fill-opacity:1;fill-rule:nonzero;stroke:none"
             d="M 0,0 -2.487,-1.016 -1.897,0 -2.487,1.016 Z" />
        </g>
        <g
           transform="translate(39.8815,90.0037)"
           id="g4237">
          <path
             id="path4239"
             style="fill:none;stroke:#231f20;stroke-width:0.5;stroke-linecap:butt;stroke-linejoin:miter;stroke-miterlimit:4;stroke-dasharray:none;stroke-opacity:1"
             d="M 0,0 H 4.702" />
        </g>
        <g
           transform="translate(46.3483,90.0037)"
           id="g4241">
          <path
             id="path4243"
             style="fill:#231f20;fill-opacity:1;fill-rule:nonzero;stroke:none"
             d="M 0,0 -2.487,-1.017 -1.897,0 -2.487,1.016 Z" />
        </g>
        <g
           transform="translate(35.3967,131.513)"
           id="g4245">
          <path
             id="path4247"
             style="fill:none;stroke:#231f20;stroke-width:0.5;stroke-linecap:butt;stroke-linejoin:miter;stroke-miterlimit:4;stroke-dasharray:none;stroke-opacity:1"
             d="M 0,0 H 11.358" />
        </g>
        <g
           transform="translate(48.5197,131.513)"
           id="g4249">
          <path
             id="path4251"
             style="fill:#231f20;fill-opacity:1;fill-rule:nonzero;stroke:none"
             d="M 0,0 -2.487,-1.016 -1.897,0 -2.487,1.016 Z" />
        </g>
        <g
           transform="translate(34.8771,277.0501)"
           id="g4253">
          <path
             id="path4255"
             style="fill:#cada12;fill-opacity:1;fill-rule:nonzero;stroke:none"
             d="M 0,0 C 2.512,0 4.548,2.034 4.548,4.544 4.548,7.058 2.512,9.092 0,9.092 h -12.881 c -2.51,0 -4.546,-2.034 -4.546,-4.548 0,-2.51 2.036,-4.544 4.546,-4.544 z" />
        </g>
        <g
           transform="translate(65.9455,188.7933)"
           id="g4257">
          <path
             id="path4259"
             style="fill:#cada12;fill-opacity:1;fill-rule:nonzero;stroke:none"
             d="M 0,0 C 2.511,0 4.547,2.034 4.547,4.545 4.547,7.059 2.511,9.092 0,9.092 h -12.882 c -2.51,0 -4.545,-2.033 -4.545,-4.547 0,-2.511 2.035,-4.545 4.545,-4.545 z" />
        </g>
        <g
           transform="translate(22.1496,281.8651)"
           id="g4261">
          <path
             id="path4263"
             style="fill:#231f20;fill-opacity:1;fill-rule:nonzero;stroke:none"
             d="M 0,0 C 0,0.152 -0.02,0.292 -0.06,0.417 -0.099,0.543 -0.159,0.653 -0.238,0.746 -0.318,0.838 -0.416,0.911 -0.531,0.962 -0.646,1.014 -0.779,1.04 -0.931,1.04 -1.22,1.04 -1.446,0.944 -1.611,0.753 -1.776,0.562 -1.859,0.311 -1.859,0 c 0,-0.311 0.083,-0.562 0.249,-0.754 0.166,-0.193 0.392,-0.289 0.679,-0.289 0.198,0 0.367,0.044 0.505,0.133 0.14,0.089 0.245,0.212 0.318,0.369 C -0.036,-0.383 0,-0.203 0,0 M 1.25,-2.326 0.495,-3.108 c -0.298,0.074 -0.592,0.174 -0.882,0.3 -0.291,0.126 -0.583,0.281 -0.877,0.464 -0.228,0.143 -0.4,0.279 -0.515,0.407 -0.2,0.081 -0.389,0.205 -0.568,0.374 -0.178,0.169 -0.325,0.385 -0.439,0.649 C -2.9,-0.65 -2.957,-0.346 -2.957,0 c 0,0.365 0.073,0.707 0.222,1.024 0.147,0.317 0.375,0.573 0.681,0.768 0.307,0.194 0.681,0.291 1.123,0.291 0.34,0 0.64,-0.057 0.899,-0.171 C 0.227,1.797 0.438,1.643 0.604,1.449 0.771,1.254 0.894,1.032 0.976,0.781 1.058,0.53 1.098,0.27 1.098,0 1.098,-0.328 1.047,-0.62 0.943,-0.876 0.84,-1.132 0.705,-1.345 0.539,-1.515 0.372,-1.685 0.184,-1.819 -0.026,-1.919 0.167,-2.017 0.36,-2.098 0.554,-2.164 0.748,-2.229 0.97,-2.262 1.22,-2.262 Z" />
        </g>
        <g
           transform="translate(26.3185,279.8318)"
           id="g4265">
          <path
             id="path4267"
             style="fill:#231f20;fill-opacity:1;fill-rule:nonzero;stroke:none"
             d="m 0,0 h -0.929 v 0.425 c -0.131,-0.16 -0.268,-0.28 -0.412,-0.359 -0.143,-0.079 -0.316,-0.119 -0.518,-0.119 -0.396,0 -0.653,0.132 -0.769,0.394 C -2.744,0.604 -2.803,0.9 -2.803,1.23 v 1.752 h 0.928 V 1.371 c 0,-0.162 0.024,-0.304 0.071,-0.426 0.048,-0.122 0.151,-0.183 0.31,-0.183 0.136,0 0.243,0.044 0.322,0.132 0.08,0.087 0.161,0.2 0.243,0.336 V 2.982 H 0 Z" />
        </g>
        <g
           transform="translate(28.134,280.5526)"
           id="g4269">
          <path
             id="path4271"
             style="fill:#231f20;fill-opacity:1;fill-rule:nonzero;stroke:none"
             d="M 0,0 V 0.706 C -0.221,0.604 -0.381,0.513 -0.482,0.432 -0.584,0.351 -0.635,0.241 -0.635,0.103 c 0,-0.1 0.026,-0.176 0.076,-0.229 0.051,-0.053 0.11,-0.079 0.177,-0.079 0.064,0 0.127,0.02 0.19,0.06 C -0.13,-0.105 -0.065,-0.057 0,0 M 1.291,-0.571 C 1.155,-0.632 1.03,-0.681 0.915,-0.718 0.8,-0.755 0.661,-0.773 0.5,-0.773 c -0.153,0 -0.26,0.03 -0.319,0.092 -0.061,0.061 -0.104,0.136 -0.129,0.224 -0.1,-0.092 -0.211,-0.168 -0.333,-0.227 -0.122,-0.06 -0.282,-0.089 -0.48,-0.089 -0.19,0 -0.344,0.037 -0.463,0.112 -0.117,0.076 -0.2,0.17 -0.247,0.285 -0.048,0.114 -0.071,0.231 -0.071,0.353 0,0.183 0.041,0.335 0.122,0.455 0.082,0.12 0.191,0.218 0.329,0.295 0.138,0.076 0.32,0.155 0.547,0.237 0.129,0.047 0.227,0.082 0.292,0.107 0.066,0.024 0.116,0.043 0.148,0.057 C -0.07,1.142 -0.036,1.159 0,1.181 0,1.325 -0.026,1.438 -0.077,1.521 -0.129,1.603 -0.241,1.644 -0.413,1.644 -0.615,1.644 -0.804,1.593 -0.978,1.491 -1.151,1.39 -1.31,1.259 -1.454,1.099 v 0.808 c 0.115,0.094 0.239,0.171 0.374,0.23 0.134,0.06 0.273,0.104 0.42,0.134 0.146,0.029 0.294,0.043 0.443,0.043 0.38,0 0.666,-0.083 0.858,-0.25 C 0.832,1.897 0.928,1.667 0.928,1.374 V 0.223 c 0,-0.11 0.009,-0.191 0.027,-0.245 0.018,-0.054 0.051,-0.081 0.1,-0.081 0.057,0 0.136,0.029 0.236,0.085 z" />
        </g>
        <path
           id="path4273"
           style="fill:#231f20;fill-opacity:1;fill-rule:nonzero;stroke:none"
           d="m 30.483,279.832 h -0.931 v 4.061 h 0.931 z" />
        <g
           transform="translate(31.8137,283.5027)"
           id="g4275">
          <path
             id="path4277"
             style="fill:#231f20;fill-opacity:1;fill-rule:nonzero;stroke:none"
             d="m 0,0 c 0,-0.123 -0.039,-0.228 -0.116,-0.313 -0.077,-0.086 -0.17,-0.129 -0.277,-0.129 -0.072,0 -0.137,0.019 -0.197,0.058 -0.058,0.039 -0.105,0.092 -0.14,0.16 -0.035,0.067 -0.051,0.142 -0.051,0.224 0,0.121 0.037,0.226 0.113,0.313 0.075,0.088 0.167,0.132 0.275,0.132 0.107,0 0.2,-0.044 0.277,-0.132 C -0.039,0.226 0,0.121 0,0 m 0.074,-3.671 h -0.931 v 2.982 h 0.931 z" />
        </g>
        <g
           transform="translate(34.3869,280.0047)"
           id="g4279">
          <path
             id="path4281"
             style="fill:#231f20;fill-opacity:1;fill-rule:nonzero;stroke:none"
             d="m 0,0 c -0.097,-0.053 -0.229,-0.104 -0.398,-0.152 -0.17,-0.049 -0.332,-0.074 -0.487,-0.074 -0.669,0 -1.003,0.372 -1.003,1.114 v 1.189 h -0.42 v 0.185 l 1.246,1.441 h 0.105 V 2.81 H -0.07 V 2.077 H -0.957 V 1.122 c 0,-0.111 0.006,-0.201 0.019,-0.269 0.011,-0.069 0.045,-0.126 0.101,-0.172 0.056,-0.046 0.141,-0.069 0.254,-0.069 0.147,0 0.342,0.071 0.583,0.211 z" />
        </g>
        <g
           transform="translate(37.3957,282.8143)"
           id="g4283">
          <path
             id="path4285"
             style="fill:#231f20;fill-opacity:1;fill-rule:nonzero;stroke:none"
             d="M 0,0 -1.784,-4.339 H -2.723 L -2.001,-2.593 -3.04,0 h 0.998 L -1.509,-1.482 -0.902,0 Z" />
        </g>
        <g
           transform="translate(17.7414,264.8846)"
           id="g4287">
          <path
             id="path4289"
             style="fill:#231f20;fill-opacity:1;fill-rule:nonzero;stroke:none"
             d="m 0,0 -2.24,-2.239 -3.35,3.349 0.889,0.889 2.548,-2.547 1.35,1.35 z" />
        </g>
        <g
           transform="translate(17.4387,269.1649)"
           id="g4291">
          <path
             id="path4293"
             style="fill:#231f20;fill-opacity:1;fill-rule:nonzero;stroke:none"
             d="M 0,0 C -0.16,0.159 -0.311,0.227 -0.452,0.203 -0.594,0.179 -0.772,0.059 -0.986,-0.155 l -0.188,-0.187 0.808,-0.807 0.192,0.192 c 0.147,0.147 0.25,0.27 0.309,0.371 0.057,0.1 0.076,0.196 0.055,0.289 C 0.17,-0.206 0.105,-0.106 0,0 M 0.9,0.91 C 1.024,0.787 1.127,0.646 1.208,0.49 1.289,0.334 1.339,0.164 1.357,-0.022 1.376,-0.208 1.346,-0.405 1.268,-0.611 1.187,-0.817 1.053,-1.016 0.859,-1.209 l -0.582,-0.583 1.256,-1.257 -0.888,-0.889 -3.35,3.35 1.472,1.471 c 0.193,0.194 0.391,0.329 0.599,0.408 0.207,0.077 0.404,0.106 0.591,0.087 C 0.145,1.358 0.316,1.307 0.475,1.224 0.633,1.141 0.775,1.036 0.9,0.91" />
        </g>
        <g
           transform="translate(21.7111,271.5667)"
           id="g4295">
          <path
             id="path4297"
             style="fill:#231f20;fill-opacity:1;fill-rule:nonzero;stroke:none"
             d="m 0,0 -1.224,-1.223 1.357,-1.356 -0.889,-0.889 -3.349,3.35 2.112,2.112 0.672,-0.672 -1.224,-1.223 0.648,-0.648 1.222,1.223 z" />
        </g>
        <g
           transform="translate(32.5173,264.9764)"
           id="g4299">
          <path
             id="path4301"
             style="fill:#231f20;fill-opacity:1;fill-rule:nonzero;stroke:none"
             d="m 0,0 -2.24,-2.239 -3.35,3.349 0.889,0.889 2.548,-2.547 1.35,1.35 z" />
        </g>
        <g
           transform="translate(32.2145,269.2567)"
           id="g4303">
          <path
             id="path4305"
             style="fill:#231f20;fill-opacity:1;fill-rule:nonzero;stroke:none"
             d="M 0,0 C -0.16,0.159 -0.311,0.227 -0.451,0.203 -0.594,0.179 -0.771,0.06 -0.986,-0.155 l -0.188,-0.187 0.808,-0.807 0.192,0.192 c 0.147,0.147 0.25,0.27 0.309,0.371 0.057,0.1 0.076,0.196 0.055,0.289 C 0.17,-0.206 0.105,-0.106 0,0 M 0.901,0.911 C 1.025,0.787 1.128,0.647 1.209,0.49 1.289,0.334 1.339,0.164 1.357,-0.022 1.377,-0.208 1.346,-0.404 1.268,-0.611 1.188,-0.817 1.053,-1.016 0.859,-1.209 l -0.582,-0.583 1.256,-1.257 -0.888,-0.889 -3.35,3.35 1.472,1.471 c 0.193,0.194 0.392,0.329 0.599,0.408 0.208,0.077 0.405,0.107 0.591,0.087 C 0.145,1.358 0.316,1.307 0.475,1.224 0.634,1.141 0.775,1.037 0.901,0.911" />
        </g>
        <g
           transform="translate(38.2741,271.2073)"
           id="g4307">
          <path
             id="path4309"
             style="fill:#231f20;fill-opacity:1;fill-rule:nonzero;stroke:none"
             d="m 0,0 c -0.036,-0.091 -0.068,-0.168 -0.097,-0.231 -0.027,-0.062 -0.054,-0.123 -0.082,-0.179 -0.027,-0.057 -0.068,-0.135 -0.126,-0.237 -0.099,-0.171 -0.206,-0.332 -0.322,-0.485 -0.115,-0.152 -0.247,-0.303 -0.396,-0.452 -0.3,-0.299 -0.638,-0.513 -1.016,-0.644 -0.378,-0.129 -0.774,-0.139 -1.187,-0.031 -0.414,0.109 -0.81,0.354 -1.19,0.734 -0.245,0.245 -0.446,0.524 -0.604,0.839 -0.157,0.315 -0.225,0.624 -0.206,0.927 0.016,0.252 0.061,0.476 0.135,0.675 0.076,0.199 0.168,0.374 0.278,0.525 0.109,0.151 0.242,0.306 0.399,0.463 0.26,0.26 0.496,0.451 0.709,0.575 0.214,0.126 0.457,0.252 0.729,0.381 L -2.183,2.067 C -2.404,2.022 -2.618,1.956 -2.827,1.866 -3.036,1.777 -3.251,1.622 -3.475,1.398 -3.731,1.142 -3.88,0.881 -3.924,0.617 -3.968,0.354 -3.942,0.114 -3.851,-0.099 c 0.093,-0.213 0.211,-0.392 0.356,-0.535 0.168,-0.169 0.359,-0.291 0.571,-0.363 0.212,-0.074 0.431,-0.084 0.658,-0.028 0.227,0.053 0.439,0.179 0.638,0.378 0.113,0.113 0.216,0.251 0.311,0.412 l -0.395,0.394 -0.4,-0.4 -0.674,0.675 1.176,1.176 z" />
        </g>
        <g
           transform="translate(53.2175,193.6082)"
           id="g4311">
          <path
             id="path4313"
             style="fill:#231f20;fill-opacity:1;fill-rule:nonzero;stroke:none"
             d="M 0,0 C 0,0.152 -0.02,0.292 -0.06,0.417 -0.099,0.543 -0.159,0.653 -0.238,0.746 -0.318,0.838 -0.416,0.911 -0.531,0.962 -0.646,1.014 -0.779,1.04 -0.931,1.04 -1.22,1.04 -1.446,0.944 -1.611,0.753 -1.776,0.562 -1.859,0.311 -1.859,0 c 0,-0.311 0.083,-0.562 0.249,-0.754 0.166,-0.193 0.392,-0.289 0.679,-0.289 0.198,0 0.367,0.044 0.505,0.133 0.14,0.089 0.245,0.212 0.318,0.369 C -0.036,-0.383 0,-0.203 0,0 M 1.25,-2.326 0.495,-3.108 c -0.298,0.074 -0.592,0.174 -0.882,0.3 -0.291,0.126 -0.583,0.281 -0.877,0.464 -0.228,0.143 -0.4,0.279 -0.515,0.407 -0.2,0.081 -0.389,0.205 -0.568,0.374 -0.178,0.169 -0.325,0.385 -0.439,0.649 C -2.9,-0.65 -2.957,-0.346 -2.957,0 c 0,0.365 0.073,0.707 0.222,1.024 0.147,0.317 0.375,0.573 0.681,0.768 0.307,0.194 0.681,0.291 1.123,0.291 0.34,0 0.64,-0.057 0.899,-0.171 C 0.227,1.797 0.438,1.643 0.604,1.449 0.771,1.254 0.894,1.032 0.976,0.781 1.058,0.53 1.098,0.27 1.098,0 1.098,-0.328 1.047,-0.62 0.943,-0.876 0.84,-1.132 0.705,-1.345 0.539,-1.515 0.372,-1.685 0.184,-1.819 -0.026,-1.919 0.167,-2.017 0.36,-2.098 0.554,-2.164 0.748,-2.229 0.97,-2.262 1.22,-2.262 Z" />
        </g>
        <g
           transform="translate(57.3864,191.575)"
           id="g4315">
          <path
             id="path4317"
             style="fill:#231f20;fill-opacity:1;fill-rule:nonzero;stroke:none"
             d="m 0,0 h -0.929 v 0.425 c -0.131,-0.16 -0.268,-0.28 -0.412,-0.359 -0.143,-0.079 -0.316,-0.119 -0.518,-0.119 -0.396,0 -0.653,0.132 -0.769,0.394 C -2.744,0.604 -2.803,0.9 -2.803,1.23 v 1.752 h 0.928 V 1.371 c 0,-0.162 0.024,-0.304 0.071,-0.426 0.048,-0.122 0.151,-0.183 0.31,-0.183 0.136,0 0.243,0.044 0.322,0.132 0.08,0.087 0.161,0.2 0.243,0.336 V 2.982 H 0 Z" />
        </g>
        <g
           transform="translate(59.2018,192.2957)"
           id="g4319">
          <path
             id="path4321"
             style="fill:#231f20;fill-opacity:1;fill-rule:nonzero;stroke:none"
             d="M 0,0 V 0.706 C -0.221,0.604 -0.381,0.513 -0.482,0.432 -0.584,0.351 -0.635,0.241 -0.635,0.103 c 0,-0.1 0.026,-0.176 0.076,-0.229 0.051,-0.053 0.11,-0.079 0.177,-0.079 0.064,0 0.127,0.02 0.19,0.06 C -0.13,-0.105 -0.065,-0.057 0,0 M 1.291,-0.571 C 1.155,-0.632 1.03,-0.681 0.915,-0.718 0.8,-0.755 0.661,-0.773 0.5,-0.773 c -0.153,0 -0.26,0.03 -0.319,0.092 -0.061,0.061 -0.104,0.136 -0.129,0.224 -0.1,-0.092 -0.211,-0.168 -0.333,-0.227 -0.122,-0.06 -0.282,-0.089 -0.48,-0.089 -0.19,0 -0.344,0.037 -0.463,0.112 -0.117,0.076 -0.2,0.17 -0.247,0.285 -0.048,0.114 -0.071,0.231 -0.071,0.353 0,0.183 0.041,0.335 0.122,0.455 0.082,0.12 0.191,0.218 0.329,0.295 0.138,0.076 0.32,0.155 0.547,0.237 0.129,0.047 0.227,0.082 0.292,0.107 0.066,0.024 0.116,0.043 0.148,0.057 C -0.07,1.142 -0.036,1.159 0,1.181 0,1.325 -0.026,1.438 -0.077,1.521 -0.129,1.603 -0.241,1.644 -0.413,1.644 -0.615,1.644 -0.804,1.593 -0.978,1.491 -1.151,1.39 -1.31,1.259 -1.454,1.099 v 0.808 c 0.115,0.094 0.239,0.171 0.374,0.23 0.134,0.06 0.273,0.104 0.42,0.134 0.146,0.029 0.294,0.043 0.443,0.043 0.38,0 0.666,-0.083 0.858,-0.25 C 0.832,1.897 0.928,1.667 0.928,1.374 V 0.223 c 0,-0.11 0.009,-0.191 0.027,-0.245 0.018,-0.054 0.051,-0.081 0.1,-0.081 0.057,0 0.136,0.029 0.236,0.085 z" />
        </g>
        <path
           id="path4323"
           style="display:inline;fill:#231f20;fill-opacity:1;fill-rule:nonzero;stroke:none"
           d="m 61.55,191.575 h -0.931 v 4.061 h 0.931 z" />
        <g
           transform="translate(62.8815,195.2459)"
           id="g4325">
          <path
             id="path4327"
             style="fill:#231f20;fill-opacity:1;fill-rule:nonzero;stroke:none"
             d="m 0,0 c 0,-0.123 -0.039,-0.228 -0.116,-0.313 -0.077,-0.086 -0.17,-0.129 -0.277,-0.129 -0.072,0 -0.137,0.019 -0.197,0.058 -0.058,0.039 -0.105,0.092 -0.14,0.16 -0.035,0.067 -0.051,0.142 -0.051,0.224 0,0.121 0.037,0.226 0.113,0.313 0.075,0.088 0.167,0.132 0.275,0.132 0.107,0 0.2,-0.044 0.277,-0.132 C -0.039,0.226 0,0.121 0,0 m 0.074,-3.671 h -0.931 v 2.982 h 0.931 z" />
        </g>
        <g
           transform="translate(65.4548,191.7479)"
           id="g4329">
          <path
             id="path4331"
             style="fill:#231f20;fill-opacity:1;fill-rule:nonzero;stroke:none"
             d="m 0,0 c -0.097,-0.053 -0.229,-0.104 -0.398,-0.152 -0.17,-0.049 -0.332,-0.074 -0.487,-0.074 -0.669,0 -1.003,0.372 -1.003,1.114 v 1.189 h -0.42 v 0.185 l 1.246,1.441 h 0.105 V 2.81 H -0.07 V 2.077 H -0.957 V 1.122 c 0,-0.111 0.006,-0.201 0.019,-0.269 0.011,-0.069 0.045,-0.126 0.101,-0.172 0.056,-0.046 0.141,-0.069 0.254,-0.069 0.147,0 0.342,0.071 0.583,0.211 z" />
        </g>
        <g
           transform="translate(68.4636,194.5574)"
           id="g4333">
          <path
             id="path4335"
             style="fill:#231f20;fill-opacity:1;fill-rule:nonzero;stroke:none"
             d="M 0,0 -1.784,-4.339 H -2.723 L -2.001,-2.593 -3.04,0 h 0.998 L -1.509,-1.482 -0.902,0 Z" />
        </g>
        <g
           transform="translate(43.8967,268.8953)"
           id="g4337">
          <path
             id="path4339"
             style="fill:#231f20;fill-opacity:1;fill-rule:nonzero;stroke:none"
             d="m 0,0 2.064,-4.722 -0.586,-0.587 -4.697,2.089 0.925,0.926 2.606,-1.26 -1.238,2.627 z" />
        </g>
        <g
           transform="translate(49.8644,268.6663)"
           id="g4341">
          <path
             id="path4343"
             style="fill:#231f20;fill-opacity:1;fill-rule:nonzero;stroke:none"
             d="m 0,0 c -0.049,-0.194 -0.116,-0.377 -0.2,-0.548 -0.084,-0.172 -0.182,-0.331 -0.293,-0.479 -0.111,-0.149 -0.236,-0.292 -0.375,-0.431 -0.257,-0.257 -0.528,-0.446 -0.812,-0.569 -0.284,-0.124 -0.579,-0.181 -0.885,-0.174 -0.307,0.008 -0.603,0.08 -0.887,0.215 -0.285,0.137 -0.553,0.33 -0.805,0.581 -0.288,0.289 -0.497,0.585 -0.625,0.89 -0.129,0.305 -0.186,0.608 -0.172,0.909 0.015,0.301 0.089,0.587 0.222,0.858 0.134,0.271 0.312,0.518 0.537,0.742 0.334,0.334 0.799,0.629 1.392,0.884 l 0.89,-0.889 C -2.263,1.946 -2.493,1.887 -2.704,1.813 -2.915,1.74 -3.116,1.606 -3.31,1.413 -3.481,1.241 -3.603,1.042 -3.675,0.816 -3.745,0.59 -3.756,0.359 -3.702,0.125 c 0.052,-0.233 0.175,-0.446 0.366,-0.638 0.169,-0.169 0.363,-0.285 0.585,-0.347 0.22,-0.061 0.441,-0.062 0.666,-0.005 0.225,0.059 0.424,0.176 0.602,0.354 0.143,0.143 0.259,0.298 0.347,0.465 0.088,0.167 0.151,0.318 0.191,0.454 0.038,0.135 0.071,0.282 0.096,0.44 z" />
        </g>
        <g
           transform="translate(51.1603,271.9832)"
           id="g4345">
          <path
             id="path4347"
             style="fill:#231f20;fill-opacity:1;fill-rule:nonzero;stroke:none"
             d="m 0,0 -1.654,0.79 0.787,-1.658 z m 2.617,0.093 -0.911,-0.911 -0.919,0.439 -1.281,-1.28 0.435,-0.924 -0.91,-0.91 -2.047,4.653 0.984,0.983 z" />
        </g>
        <g
           transform="translate(76.3732,265.5218)"
           id="g4349">
          <path
             id="path4351"
             style="fill:#231f20;fill-opacity:1;fill-rule:nonzero;stroke:none"
             d="m 0,0 c -0.287,0.287 -0.613,0.248 -0.979,-0.119 l -0.362,-0.361 0.859,-0.859 0.361,0.362 C 0.246,-0.611 0.285,-0.286 0,0 M -1.539,1.25 C -1.701,1.411 -1.854,1.471 -2.001,1.431 -2.148,1.39 -2.32,1.271 -2.52,1.072 l -0.186,-0.187 0.802,-0.802 0.192,0.191 c 0.202,0.203 0.322,0.375 0.36,0.519 0.037,0.144 -0.026,0.295 -0.187,0.457 M 0.935,0.852 C 1.223,0.563 1.366,0.246 1.365,-0.1 1.363,-0.446 1.207,-0.775 0.896,-1.087 l -1.705,-1.704 -3.349,3.35 1.426,1.425 c 0.183,0.184 0.365,0.325 0.541,0.422 0.177,0.096 0.343,0.151 0.496,0.165 C -1.541,2.584 -1.396,2.564 -1.26,2.51 -1.123,2.457 -1,2.373 -0.887,2.26 -0.764,2.137 -0.672,2.003 -0.611,1.857 -0.549,1.709 -0.517,1.572 -0.513,1.442 -0.51,1.312 -0.525,1.201 -0.562,1.11 -0.271,1.221 -0.002,1.261 0.24,1.229 0.484,1.197 0.715,1.071 0.935,0.852" />
        </g>
        <g
           transform="translate(79.3342,266.5003)"
           id="g4353">
          <path
             id="path4355"
             style="fill:#231f20;fill-opacity:1;fill-rule:nonzero;stroke:none"
             d="m 0,0 -0.768,-0.768 -2.461,2.46 0.768,0.768 z M -3.091,2.966 C -2.989,2.864 -2.936,2.747 -2.928,2.612 -2.921,2.478 -2.961,2.366 -3.049,2.278 -3.108,2.219 -3.18,2.18 -3.26,2.164 -3.341,2.147 -3.423,2.152 -3.508,2.18 c -0.084,0.026 -0.16,0.074 -0.226,0.142 -0.101,0.1 -0.156,0.217 -0.166,0.352 -0.01,0.135 0.029,0.247 0.119,0.337 0.088,0.087 0.2,0.127 0.336,0.118 0.136,-0.009 0.254,-0.063 0.354,-0.163" />
        </g>
        <g
           transform="translate(81.2521,268.7034)"
           id="g4357">
          <path
             id="path4359"
             style="fill:#231f20;fill-opacity:1;fill-rule:nonzero;stroke:none"
             d="m 0,0 c -0.036,-0.123 -0.104,-0.273 -0.203,-0.454 -0.1,-0.18 -0.213,-0.334 -0.34,-0.462 -0.553,-0.551 -1.134,-0.521 -1.746,0.092 l -0.982,0.981 -0.346,-0.346 -0.153,0.151 -0.162,2.217 0.088,0.088 0.738,-0.738 0.731,0.731 0.604,-0.604 -0.731,-0.731 0.787,-0.788 c 0.092,-0.092 0.172,-0.161 0.236,-0.208 0.069,-0.046 0.143,-0.066 0.227,-0.057 0.084,0.009 0.173,0.06 0.266,0.152 0.123,0.123 0.224,0.341 0.306,0.655 z" />
        </g>
        <g
           transform="translate(61.1174,266.1287)"
           id="g4361">
          <path
             id="path4363"
             style="fill:#231f20;fill-opacity:1;fill-rule:nonzero;stroke:none"
             d="m 0,0 -1.223,-1.223 1.357,-1.356 -0.89,-0.889 -3.349,3.35 2.112,2.112 0.672,-0.672 -1.223,-1.223 0.648,-0.647 1.222,1.222 z" />
        </g>
        <g
           transform="translate(63.1242,267.889)"
           id="g4365">
          <path
             id="path4367"
             style="fill:#231f20;fill-opacity:1;fill-rule:nonzero;stroke:none"
             d="M 0,0 C -0.194,0.195 -0.386,0.31 -0.569,0.346 -0.755,0.381 -0.918,0.329 -1.06,0.187 -1.2,0.047 -1.251,-0.116 -1.216,-0.301 c 0.035,-0.184 0.151,-0.374 0.346,-0.569 0.193,-0.193 0.384,-0.31 0.572,-0.347 0.188,-0.038 0.352,0.013 0.49,0.152 0.142,0.142 0.194,0.306 0.157,0.492 C 0.312,-0.386 0.195,-0.195 0,0 M 0.806,0.806 C 1.051,0.561 1.222,0.295 1.321,0.01 1.419,-0.275 1.431,-0.566 1.354,-0.864 1.28,-1.162 1.108,-1.445 0.84,-1.713 0.571,-1.981 0.289,-2.152 -0.009,-2.228 c -0.297,-0.075 -0.588,-0.063 -0.873,0.036 -0.285,0.099 -0.549,0.271 -0.795,0.516 -0.184,0.185 -0.327,0.379 -0.427,0.582 -0.099,0.203 -0.155,0.416 -0.167,0.638 -0.009,0.223 0.03,0.443 0.122,0.66 0.091,0.218 0.24,0.428 0.441,0.63 0.205,0.205 0.417,0.353 0.637,0.447 0.22,0.093 0.439,0.134 0.656,0.122 0.218,-0.011 0.43,-0.069 0.635,-0.169 0.205,-0.1 0.4,-0.243 0.586,-0.428" />
        </g>
        <g
           transform="translate(66.1926,268.4915)"
           id="g4369">
          <path
             id="path4371"
             style="fill:#231f20;fill-opacity:1;fill-rule:nonzero;stroke:none"
             d="M 0,0 -0.769,-0.768 -4.118,2.582 -3.35,3.35 Z" />
        </g>
        <g
           transform="translate(67.2853,271.1502)"
           id="g4373">
          <path
             id="path4375"
             style="fill:#231f20;fill-opacity:1;fill-rule:nonzero;stroke:none"
             d="M 0,0 -0.94,0.94 C -1.086,0.907 -1.196,0.877 -1.271,0.852 -1.346,0.825 -1.417,0.778 -1.484,0.71 -1.605,0.589 -1.647,0.431 -1.611,0.235 c 0.035,-0.196 0.153,-0.394 0.353,-0.593 0.217,-0.218 0.418,-0.334 0.602,-0.349 0.182,-0.015 0.332,0.034 0.443,0.146 0.092,0.092 0.151,0.183 0.173,0.272 C -0.016,-0.199 -0.003,-0.103 0,0 M 1.551,-0.016 0.783,-0.783 0.561,-0.561 C 0.557,-0.719 0.535,-0.868 0.495,-1.008 0.455,-1.148 0.355,-1.297 0.197,-1.456 0.039,-1.613 -0.16,-1.724 -0.4,-1.787 c -0.241,-0.063 -0.503,-0.049 -0.789,0.04 -0.285,0.09 -0.571,0.278 -0.856,0.563 -0.224,0.225 -0.396,0.471 -0.519,0.741 -0.122,0.269 -0.165,0.543 -0.13,0.823 0.034,0.28 0.167,0.534 0.395,0.763 0.141,0.141 0.274,0.238 0.398,0.291 0.123,0.052 0.246,0.085 0.368,0.098 l -1.033,1.034 0.767,0.768 z" />
        </g>
        <rect
           transform="scale(1,-1)"
           y="-11.418807"
           x="-4.2129903"
           height="0.82092416"
           width="0.49255449"
           id="rect6649"
           style="fill:#ffffff;stroke:none;stroke-width:0.75" />
      </g>
    </g>
  </g>
  <g
     style="display:none"
     transform="translate(0.14907478,-0.13478172)"
     id="layer1"
     inkscape:groupmode="layer"
     inkscape:label="components">
    <path
       id="path3853"
       style="fill:none;stroke:#231f20;stroke-width:0.0352778;stroke-linecap:butt;stroke-linejoin:miter;stroke-miterlimit:4;stroke-dasharray:none;stroke-opacity:1"
       d="M 29.999313,128.63514 H 0.0273141 V 0.13478172 H 29.999313 Z" />
    <path
       id="path3855"
       style="fill:none;stroke:#231f20;stroke-width:0.352778;stroke-linecap:butt;stroke-linejoin:miter;stroke-miterlimit:4;stroke-dasharray:none;stroke-opacity:1"
       d="M 29.999313,128.63514 H 0.0273141 V 0.13478172 H 29.999313 Z" />
    <path
       d="M 6.4515384,65.731197 C 5.0495995,66.52918 4.5602968,68.312472 5.3579273,69.714764 6.1562634,71.116702 7.939555,71.606005 9.3411411,70.808375 10.74308,70.010391 11.233088,68.227453 10.435105,66.825161 9.6367689,65.422869 7.8534773,64.933214 6.4515384,65.731197"
       style="fill:#ffffff;fill-opacity:1;fill-rule:nonzero;stroke:none;stroke-width:0.352778"
       id="path4395" />
    <path
       d="m 6.414144,94.270884 c -1.4019389,0.797983 -1.8915944,2.581275 -1.0936111,3.983567 0.7979833,1.401938 2.581275,1.891239 3.9832138,1.093611 C 10.705686,98.550078 11.195341,96.76714 10.397358,95.364848 9.5993745,93.962556 7.8160829,93.472901 6.414144,94.270884"
       style="fill:#ffffff;fill-opacity:1;fill-rule:nonzero;stroke:none;stroke-width:0.352778"
       id="path4403" />
    <path
       d="M 6.4515384,79.701232 C 5.0495995,80.499215 4.5602968,82.282507 5.3579273,83.684799 6.1562634,85.086737 7.939555,85.57604 9.3411411,84.77841 10.74308,83.980426 11.233088,82.197488 10.435105,80.795196 9.6367689,79.392904 7.8534773,78.903249 6.4515384,79.701232"
       style="fill:#ffffff;fill-opacity:1;fill-rule:nonzero;stroke:none;stroke-width:0.352778"
       id="path4411" />
    <path
       d="m 20.510967,65.731197 c -1.401939,0.797983 -1.891594,2.581275 -1.093611,3.983567 0.798336,1.401938 2.581275,1.891241 3.983214,1.093611 1.401939,-0.797984 1.891947,-2.580922 1.093964,-3.983214 -0.798337,-1.402292 -2.581628,-1.891947 -3.983567,-1.093964"
       style="fill:#ffffff;fill-opacity:1;fill-rule:nonzero;stroke:none;stroke-width:0.352778"
       id="path4419" />
    <path
       d="m 20.510967,79.701232 c -1.401939,0.797983 -1.891594,2.581275 -1.093611,3.983567 0.798336,1.401938 2.581275,1.891241 3.983214,1.093611 1.401939,-0.797984 1.891947,-2.580922 1.093964,-3.983214 -0.798337,-1.402292 -2.581628,-1.891947 -3.983567,-1.093964"
       style="fill:#ffffff;fill-opacity:1;fill-rule:nonzero;stroke:none;stroke-width:0.352778"
       id="path4427" />
    <path
       d="m 6.414144,108.24092 c -1.4019389,0.79798 -1.8915944,2.58127 -1.0936111,3.98357 0.7979833,1.40194 2.581275,1.89124 3.9832138,1.09361 1.4019393,-0.79799 1.8915943,-2.58128 1.0936113,-3.98322 -0.7979835,-1.40229 -2.5812751,-1.89194 -3.983214,-1.09396"
       style="fill:#ffffff;fill-opacity:1;fill-rule:nonzero;stroke:none;stroke-width:0.352778"
       id="path4435" />
    <path
       d="m 20.548503,94.270884 c -1.401939,0.797983 -1.891594,2.581275 -1.093611,3.983567 0.798336,1.401938 2.581275,1.891239 3.983214,1.093611 1.401939,-0.797984 1.891947,-2.580922 1.093964,-3.983214 -0.798337,-1.402292 -2.581628,-1.891947 -3.983567,-1.093964"
       style="fill:#ffffff;fill-opacity:1;fill-rule:nonzero;stroke:none;stroke-width:0.352778"
       id="path4451" />
    <path
       d="m 20.548503,108.24092 c -1.401939,0.79798 -1.891594,2.58127 -1.093611,3.98357 0.798336,1.40194 2.581275,1.89124 3.983214,1.09361 1.401939,-0.79799 1.891947,-2.58128 1.093964,-3.98322 -0.798337,-1.40229 -2.581628,-1.89194 -3.983567,-1.09396"
       style="fill:#ffffff;fill-opacity:1;fill-rule:nonzero;stroke:none;stroke-width:0.352778"
       id="path4459" />
    <path
       d="m 25.362685,36.583111 c 1.032228,-0.161572 1.909233,0.716844 1.748719,1.749425 -0.09984,0.640292 -0.623005,1.163108 -1.263297,1.26118 -1.027289,0.156987 -1.90253,-0.712611 -1.747308,-1.741663 0.09666,-0.642409 0.620183,-1.1684 1.261886,-1.268942"
       style="fill:#f8a00e;fill-opacity:1;fill-rule:nonzero;stroke:none;stroke-width:0.352778"
       id="path4467" />
    <path
       d="m 25.362685,36.583111 c 1.032228,-0.161572 1.909233,0.716844 1.748719,1.749425 -0.09984,0.640292 -0.623005,1.163108 -1.263297,1.26118 -1.027289,0.156987 -1.90253,-0.712611 -1.747308,-1.741663 0.09666,-0.642409 0.620183,-1.1684 1.261886,-1.268942 z"
       style="fill:none;stroke:#231f20;stroke-width:0.0881944;stroke-linecap:butt;stroke-linejoin:miter;stroke-miterlimit:4;stroke-dasharray:none;stroke-opacity:1"
       id="path4471" />
    <path
       d="m 20.285824,36.583111 c 1.032228,-0.161572 1.909586,0.716844 1.748719,1.749425 -0.09984,0.640292 -0.622652,1.163108 -1.263297,1.26118 -1.027289,0.156987 -1.90253,-0.712611 -1.747308,-1.741663 0.09666,-0.642409 0.620183,-1.1684 1.261886,-1.268942"
       style="fill:#f8a00e;fill-opacity:1;fill-rule:nonzero;stroke:none;stroke-width:0.352778"
       id="path4475" />
    <path
       d="m 20.285824,36.583111 c 1.032228,-0.161572 1.909586,0.716844 1.748719,1.749425 -0.09984,0.640292 -0.622652,1.163108 -1.263297,1.26118 -1.027289,0.156987 -1.90253,-0.712611 -1.747308,-1.741663 0.09666,-0.642409 0.620183,-1.1684 1.261886,-1.268942 z"
       style="fill:none;stroke:#231f20;stroke-width:0.0881944;stroke-linecap:butt;stroke-linejoin:miter;stroke-miterlimit:4;stroke-dasharray:none;stroke-opacity:1"
       id="path4479" />
    <path
       d="m 15.209141,36.583111 c 1.032228,-0.161572 1.909233,0.716844 1.748719,1.749425 -0.09984,0.640292 -0.623005,1.163108 -1.263297,1.26118 -1.027289,0.156987 -1.90253,-0.712611 -1.747308,-1.741663 0.09666,-0.642409 0.620183,-1.1684 1.261886,-1.268942"
       style="fill:#f8a00e;fill-opacity:1;fill-rule:nonzero;stroke:none;stroke-width:0.352778"
       id="path4483" />
    <path
       d="m 15.209141,36.583111 c 1.032228,-0.161572 1.909233,0.716844 1.748719,1.749425 -0.09984,0.640292 -0.623005,1.163108 -1.263297,1.26118 -1.027289,0.156987 -1.90253,-0.712611 -1.747308,-1.741663 0.09666,-0.642409 0.620183,-1.1684 1.261886,-1.268942 z"
       style="fill:none;stroke:#231f20;stroke-width:0.0881944;stroke-linecap:butt;stroke-linejoin:miter;stroke-miterlimit:4;stroke-dasharray:none;stroke-opacity:1"
       id="path4487" />
    <path
       d="m 10.132422,36.583111 c 1.032228,-0.161572 1.909233,0.716844 1.748719,1.749425 -0.09984,0.640292 -0.623005,1.163108 -1.26365,1.26118 -1.0269357,0.156987 -1.9021773,-0.712611 -1.7469551,-1.741663 0.096661,-0.642409 0.6201833,-1.1684 1.2618861,-1.268942"
       style="fill:#f8a00e;fill-opacity:1;fill-rule:nonzero;stroke:none;stroke-width:0.352778"
       id="path4491" />
    <path
       d="m 10.132422,36.583111 c 1.032228,-0.161572 1.909233,0.716844 1.748719,1.749425 -0.09984,0.640292 -0.623005,1.163108 -1.26365,1.26118 -1.0269357,0.156987 -1.9021773,-0.712611 -1.7469551,-1.741663 0.096661,-0.642409 0.6201833,-1.1684 1.2618861,-1.268942 z"
       style="fill:none;stroke:#231f20;stroke-width:0.0881944;stroke-linecap:butt;stroke-linejoin:miter;stroke-miterlimit:4;stroke-dasharray:none;stroke-opacity:1"
       id="path4495" />
    <path
       d="m 5.0555615,36.583111 c 1.0322278,-0.161572 1.9092333,0.716844 1.7487194,1.749425 -0.099836,0.640292 -0.6230055,1.163108 -1.2632972,1.26118 -1.0272889,0.156987 -1.9025305,-0.712611 -1.7473083,-1.741663 0.096661,-0.642409 0.6201833,-1.1684 1.2618861,-1.268942"
       style="fill:#f8a00e;fill-opacity:1;fill-rule:nonzero;stroke:none;stroke-width:0.352778"
       id="path4499" />
    <path
       d="m 5.0555615,36.583111 c 1.0322278,-0.161572 1.9092333,0.716844 1.7487194,1.749425 -0.099836,0.640292 -0.6230055,1.163108 -1.2632972,1.26118 -1.0272889,0.156987 -1.9025305,-0.712611 -1.7473083,-1.741663 0.096661,-0.642409 0.6201833,-1.1684 1.2618861,-1.268942 z"
       style="fill:none;stroke:#231f20;stroke-width:0.0881944;stroke-linecap:butt;stroke-linejoin:miter;stroke-miterlimit:4;stroke-dasharray:none;stroke-opacity:1"
       id="path4503" />
    <path
       d="m 2.6002635,26.097603 c -0.1615722,-1.032228 0.7168444,-1.909586 1.749425,-1.748719 0.6402916,0.09984 1.1631083,0.623005 1.2611805,1.263297 0.1569861,1.027289 -0.7126111,1.90253 -1.7416639,1.747308 -0.6424083,-0.09666 -1.1683999,-0.620183 -1.2689416,-1.261886"
       style="fill:#f8a00e;fill-opacity:1;fill-rule:nonzero;stroke:none;stroke-width:0.352778"
       id="path4507" />
    <path
       d="m 2.6002635,26.097603 c -0.1615722,-1.032228 0.7168444,-1.909586 1.749425,-1.748719 0.6402916,0.09984 1.1631083,0.623005 1.2611805,1.263297 0.1569861,1.027289 -0.7126111,1.90253 -1.7416639,1.747308 -0.6424083,-0.09666 -1.1683999,-0.620183 -1.2689416,-1.261886 z"
       style="fill:#ff00ff;stroke:none;stroke-width:0.0881944;stroke-linecap:butt;stroke-linejoin:miter;stroke-miterlimit:4;stroke-dasharray:none;stroke-opacity:1"
       id="path4511" />
    <path
       d="m 2.6002635,29.652968 c -0.1615722,-1.032228 0.7168444,-1.909586 1.749425,-1.748719 0.6402916,0.09984 1.1631083,0.623005 1.2611805,1.263297 0.1569861,1.027289 -0.7126111,1.90253 -1.7416639,1.747308 -0.6424083,-0.09666 -1.1683999,-0.620183 -1.2689416,-1.261886"
       style="fill:#5988b2;fill-opacity:1;fill-rule:nonzero;stroke:none;stroke-width:0.352778"
       id="path4515" />
    <path
       d="m 2.6002635,29.652968 c -0.1615722,-1.032228 0.7168444,-1.909586 1.749425,-1.748719 0.6402916,0.09984 1.1631083,0.623005 1.2611805,1.263297 0.1569861,1.027289 -0.7126111,1.90253 -1.7416639,1.747308 -0.6424083,-0.09666 -1.1683999,-0.620183 -1.2689416,-1.261886 z"
       style="fill:none;stroke:#231f20;stroke-width:0.0881944;stroke-linecap:butt;stroke-linejoin:miter;stroke-miterlimit:4;stroke-dasharray:none;stroke-opacity:1"
       id="path4519" />
    <path
       d="m 13.560469,57.232499 c -0.161572,-1.032228 0.716844,-1.909233 1.749425,-1.748719 0.639939,0.09984 1.163108,0.623005 1.26118,1.263297 0.156987,1.027289 -0.712963,1.90253 -1.741663,1.747308 -0.642409,-0.09666 -1.1684,-0.620183 -1.268942,-1.261886"
       style="fill:#f8a00e;fill-opacity:1;fill-rule:nonzero;stroke:none;stroke-width:0.352778"
       id="path4523" />
    <path
       d="m 13.560469,57.232499 c -0.161572,-1.032228 0.716844,-1.909233 1.749425,-1.748719 0.639939,0.09984 1.163108,0.623005 1.26118,1.263297 0.156987,1.027289 -0.712963,1.90253 -1.741663,1.747308 -0.642409,-0.09666 -1.1684,-0.620183 -1.268942,-1.261886 z"
       style="display:inline;fill:none;stroke:#231f20;stroke-width:0.0881944;stroke-linecap:butt;stroke-linejoin:miter;stroke-miterlimit:4;stroke-dasharray:none;stroke-opacity:1"
       id="path4527" />
    <path
       d="m 13.560469,60.787828 c -0.161572,-1.032228 0.716844,-1.909233 1.749425,-1.748719 0.639939,0.09984 1.163108,0.623005 1.26118,1.263297 0.156987,1.027289 -0.712963,1.90253 -1.741663,1.747308 -0.642409,-0.09666 -1.1684,-0.620183 -1.268942,-1.261886"
       style="display:inline;fill:#5988b2;fill-opacity:1;fill-rule:nonzero;stroke:none;stroke-width:0.352778"
       id="path4531" />
    <path
       d="m 13.560469,60.787828 c -0.161572,-1.032228 0.716844,-1.909233 1.749425,-1.748719 0.639939,0.09984 1.163108,0.623005 1.26118,1.263297 0.156987,1.027289 -0.712963,1.90253 -1.741663,1.747308 -0.642409,-0.09666 -1.1684,-0.620183 -1.268942,-1.261886 z"
       style="display:inline;fill:none;stroke:#231f20;stroke-width:0.0881944;stroke-linecap:butt;stroke-linejoin:miter;stroke-miterlimit:4;stroke-dasharray:none;stroke-opacity:1"
       id="path4535" />
    <circle
       inkscape:label="Freq1Rotary"
       r="4.3063145"
       cy="17.009859"
       cx="9.6273699"
       id="path6161"
       style="fill:#ff0000;stroke:none;stroke-width:0.264583" />
    <circle
       style="display:inline;fill:#ff0000;stroke:none;stroke-width:0.264583"
       id="path6161-0"
       cx="20.587435"
       cy="48.144897"
       r="4.3063145"
       inkscape:label="Freq2Rotary" />
    <circle
       inkscape:label="Filter1Type"
       r="4.3063145"
       cy="14.977237"
       cx="23.291668"
       id="path6161-0-3"
       style="display:inline;fill:#ff0000;stroke:none;stroke-width:0.264583" />
    <circle
       style="display:inline;fill:#ff0000;stroke:none;stroke-width:0.264583"
       id="path6161-0-3-7"
       cx="6.7038803"
       cy="47.678253"
       r="4.3063145"
       inkscape:label="Filter2Type" />
    <circle
       r="1.7086623"
       cy="68.269714"
       cx="7.8965507"
       id="Freq1CV"
       style="fill:#00ff00;stroke:none;stroke-width:0.264583" />
    <circle
       style="display:inline;fill:#00ff00;stroke:none;stroke-width:0.264583"
       id="Freq2CV"
       cx="21.9559"
       cy="68.269714"
       r="1.7086623" />
    <circle
       style="display:inline;fill:#00ff00;stroke:none;stroke-width:0.264583"
       id="Q1CV"
       cx="7.8965507"
       cy="82.239746"
       r="1.7086623" />
    <circle
       r="1.7086623"
       cy="82.239746"
       cx="21.9559"
       id="Q2CV"
       style="display:inline;fill:#00ff00;stroke:none;stroke-width:0.264583" />
    <circle
       r="1.7086623"
       cy="96.809402"
       cx="7.8589454"
       id="In1"
       style="display:inline;fill:#00ff00;stroke:none;stroke-width:0.264583" />
    <circle
       style="display:inline;fill:#00ff00;stroke:none;stroke-width:0.264583"
       id="In2"
       cx="21.993437"
       cy="96.809402"
       r="1.7086623" />
    <circle
       style="display:inline;fill:#0000ff;stroke:none;stroke-width:0.264583"
       id="Out1"
       cx="7.8589454"
       cy="110.77944"
       r="1.7086623" />
    <circle
       r="1.7086623"
       cy="110.77944"
       cx="21.993437"
       id="Out2"
       style="display:inline;fill:#0000ff;stroke:none;stroke-width:0.264583" />
  </g>
</svg>
