<svg xmlns="http://www.w3.org/2000/svg" width="81.07mm" height="132.14mm" viewBox="0 0 229.8 374.58">
  <g id="faceplate">
    <rect x="0.13" y="0.13" width="229.55" height="364.25" style="fill: #fff;stroke: #231f20;stroke-width: 0.25px"/>
    <path d="M16.93,13a4.54,4.54,0,1,1,0-9.07h8.44a4.54,4.54,0,0,1,0,9.07Z" transform="translate(0.51 0.13)"/>
    <path d="M204,13A4.54,4.54,0,0,1,204,4h8.44a4.54,4.54,0,0,1,0,9.07Z" transform="translate(0.51 0.13)"/>
    <path d="M16.93,359.94a4.54,4.54,0,1,1,0-9.07h8.44a4.54,4.54,0,0,1,0,9.07Z" transform="translate(0.51 0.13)"/>
    <path d="M204,359.94a4.54,4.54,0,0,1,0-9.07h8.44a4.54,4.54,0,0,1,0,9.07Z" transform="translate(0.51 0.13)"/>
    <path d="M197.29,63.35a4.25,4.25,0,0,1,0-8.49H219a4.25,4.25,0,0,1,0,8.49Z" transform="translate(0.51 0.13)"/>
    <path d="M193,324.42V281.49h0a17.22,17.22,0,0,0,30.41-.05h0v43a15.23,15.23,0,1,1-30.45,0Z" transform="translate(0.51 0.13)" style="fill: #231f20"/>
    <path d="M208.19,288.53h0c-8.86,0-15.45-7.18-15.45-16V262.34c0-8.86,6.59-16,15.45-16h0c8.85,0,15.47,7.17,15.47,16v10.15C223.66,281.35,217,288.53,208.19,288.53Z" transform="translate(0.51 0.13)" style="fill: #231f20"/>
    <g>
      <path d="M13.67,64.22a4.63,4.63,0,1,1,0-9.26h13.4a4.63,4.63,0,0,1,0,9.26Z" transform="translate(0.51 0.13)"/>
      <path d="M27.07,55.35a4.24,4.24,0,0,1,0,8.48H13.67a4.24,4.24,0,1,1,0-8.48h13.4m0-.78H13.67a5,5,0,1,0,0,10h13.4a5,5,0,1,0,0-10Z" transform="translate(0.51 0.13)" style="fill: #fff"/>
    </g>
    <text transform="translate(120.15 285.55) scale(0.88 1)" style="font-size: 7px;fill: #231f20;font-family: GillSans-Bold, Gill Sans;font-weight: 700;letter-spacing: -0.040029550744501693em">Cross FM</text>
    <text transform="translate(51.67 297.85) scale(0.88 1)" style="font-size: 7px;fill: #231f20;font-family: GillSans-Bold, Gill Sans;font-weight: 700;letter-spacing: -0.03995028430738387em">Scale</text>
    <text transform="translate(104.74 179.96) scale(0.88 1)" style="font-size: 10px;fill: #231f20;font-family: GillSans-Bold, Gill Sans;font-weight: 700;letter-spacing: -0.04000577081336634em">Root</text>
    <text transform="translate(85.89 285.55) scale(0.88 1)" style="font-size: 7px;fill: #231f20;font-family: GillSans-Bold, Gill Sans;font-weight: 700;letter-spacing: -0.03995028430738387em">Spread</text>
    <text transform="translate(87.94 329.89) scale(0.88 1)" style="font-size: 7px;fill: #231f20;font-family: GillSans-Bold, Gill Sans;font-weight: 700;letter-spacing: -0.040029550744501693em">Twist</text>
    <text transform="translate(125.28 329.89) scale(0.88 1)" style="font-size: 7px;fill: #231f20;font-family: GillSans-Bold, Gill Sans;font-weight: 700;letter-spacing: -0.040029550744501693em">Warp</text>
    <text transform="translate(12.93 283.87) scale(0.88 1)" style="font-size: 8px;fill: #231f20;font-family: GillSans-Bold, Gill Sans;font-weight: 700;letter-spacing: -0.03995028430738387em">Pitch</text>
    <text transform="translate(51.95 234.63) scale(0.88 1)" style="font-size: 8px;fill: #231f20;font-family: GillSans-Bold, Gill Sans;font-weight: 700;letter-spacing: -0.04001964243986196em">Twist</text>
    <text transform="translate(158.65 234.92) scale(0.88 1)" style="font-size: 8px;fill: #231f20;font-family: GillSans-Bold, Gill Sans;font-weight: 700;letter-spacing: -0.03995028430738387em">Warp</text>
    <text transform="translate(102.69 230.09) scale(0.88 1)" style="font-size: 8px;fill: #231f20;font-family: GillSans-Bold, Gill Sans;font-weight: 700;letter-spacing: -0.03995028430738387em">Detune</text>
    <text transform="translate(182.09 171) scale(0.88 1)" style="font-size: 8px;fill: #231f20;font-family: GillSans-Bold, Gill Sans;font-weight: 700;letter-spacing: -0.04001964243986196em">Cross FM</text>
    <text transform="translate(167.64 105.15) scale(0.88 1)" style="font-size: 8px;fill: #231f20;font-family: GillSans-Bold, Gill Sans;font-weight: 700;letter-spacing: -0.03995028430738387em">Pitch</text>
    <text transform="translate(197.4 27.45) scale(0.88 1)" style="font-size: 8px;fill: #231f20;font-family: GillSans-Bold, Gill Sans;font-weight: 700;letter-spacing: -0.04001964243986196em">Freeze</text>
    <text transform="translate(12.26 62) scale(0.88 1)" style="font-size: 7px;fill: #fff;font-family: GillSans-Bold, Gill Sans;font-weight: 700;letter-spacing: -0.03995028430738387em">Learn</text>
    <path d="M104.48,190.33a4.25,4.25,0,1,1,0-8.49h21.17a4.25,4.25,0,1,1,0,8.49Z" transform="translate(0.51 0.13)"/>
    <text transform="translate(102.97 188.5) scale(0.88 1)" style="font-size: 7px;fill: #fff;font-family: GillSans-SemiBold, Gill Sans;font-weight: 600;letter-spacing: -0.03995028430738387em">Add Note</text>
    <path d="M165.1,115.26a4.25,4.25,0,1,1,0-8.49H187a4.25,4.25,0,0,1,0,8.49Z" transform="translate(0.51 0.13)"/>
    <text transform="translate(164.21 113.43) scale(0.88 1)" style="font-size: 7px;fill: #fff;font-family: GillSans-SemiBold, Gill Sans;font-weight: 600;letter-spacing: -0.040029550744501693em">Fine Tune</text>
    <text transform="translate(103.07 88.16) scale(0.88 1)" style="font-size: 8px;fill: #231f20;font-family: GillSans-Bold, Gill Sans;font-weight: 700;letter-spacing: -0.04001964243986196em">Spread</text>
    <text transform="translate(45.12 105) scale(0.88 1)" style="font-size: 8px;fill: #231f20;font-family: GillSans-Bold, Gill Sans;font-weight: 700;letter-spacing: -0.04001964243986196em">Scale</text>
    <text transform="translate(19.15 170.87) scale(0.88 1)" style="font-size: 8px;fill: #231f20;font-family: GillSans-Bold, Gill Sans;font-weight: 700;letter-spacing: -0.03995028430738387em">Balance</text>
    <path d="M114.46,195.41a13.32,13.32,0,0,0-1.56.11l-.25-1.4a13.53,13.53,0,0,1,1.81-.12,13.38,13.38,0,0,1,1.8.12l-.25,1.4A13.3,13.3,0,0,0,114.46,195.41Z" transform="translate(0.51 0.13)"/>
    <path d="M105.27,199.45l-1.1-.92a14.64,14.64,0,0,1,2.76-2.32l.71,1.23A12.37,12.37,0,0,0,105.27,199.45Z" transform="translate(0.51 0.13)"/>
    <path d="M108.73,196.81l-.71-1.23a13.23,13.23,0,0,1,3.39-1.24l.24,1.4A12.92,12.92,0,0,0,108.73,196.81Z" transform="translate(0.51 0.13)"/>
    <path d="M102.9,203.11l-1.33-.49a13.9,13.9,0,0,1,1.79-3.11l1.1.91A12.42,12.42,0,0,0,102.9,203.11Z" transform="translate(0.51 0.13)"/>
    <path d="M117.26,195.74l.25-1.4a13.66,13.66,0,0,1,3.38,1.23l-.71,1.24A12.3,12.3,0,0,0,117.26,195.74Z" transform="translate(0.51 0.13)"/>
    <path d="M102,207.35h-1.43a14.33,14.33,0,0,1,.6-3.54l1.34.49A12.32,12.32,0,0,0,102,207.35Z" transform="translate(0.51 0.13)"/>
    <path d="M102.51,211.66l-1.34.49a14,14,0,0,1-.64-3.53H102A12.45,12.45,0,0,0,102.51,211.66Z" transform="translate(0.51 0.13)"/>
    <path d="M104.5,215.52l-1.09.91a13.86,13.86,0,0,1-1.8-3.09l1.33-.49A12.52,12.52,0,0,0,104.5,215.52Z" transform="translate(0.51 0.13)"/>
    <path d="M124.46,200.42l1.09-.91a13.93,13.93,0,0,1,1.8,3.11l-1.34.49A12.38,12.38,0,0,0,124.46,200.42Z" transform="translate(0.51 0.13)"/>
    <path d="M126.44,204.3l1.34-.49a13.89,13.89,0,0,1,.61,3.54H127A12.33,12.33,0,0,0,126.44,204.3Z" transform="translate(0.51 0.13)"/>
    <path d="M127,208.62h1.42a14,14,0,0,1-.64,3.53l-1.33-.49A12,12,0,0,0,127,208.62Z" transform="translate(0.51 0.13)"/>
    <path d="M126,212.85l1.34.49a14.26,14.26,0,0,1-1.8,3.09l-1.09-.91A12.73,12.73,0,0,0,126,212.85Z" transform="translate(0.51 0.13)"/>
    <path d="M107.68,218.46l-.71,1.23a13.82,13.82,0,0,1-2.74-2.3l1.09-.91A11.87,11.87,0,0,0,107.68,218.46Z" transform="translate(0.51 0.13)"/>
    <path d="M123.6,216.48l1.08.91a14,14,0,0,1-2.73,2.3l-.71-1.23A12.46,12.46,0,0,0,123.6,216.48Z" transform="translate(0.51 0.13)"/>
    <path d="M121.28,197.44l.71-1.23a14.58,14.58,0,0,1,2.75,2.32l-1.1.92A12.62,12.62,0,0,0,121.28,197.44Z" transform="translate(0.51 0.13)"/>
    <path d="M111.65,195.74l-.24-1.4a10.38,10.38,0,0,1,1.24-.22l.25,1.4C112.48,195.57,112.06,195.65,111.65,195.74Z" transform="translate(0.51 0.13)" style="fill: #fff"/>
    <path d="M116,195.52l.25-1.4a10.54,10.54,0,0,1,1.25.22l-.25,1.4C116.85,195.65,116.43,195.57,116,195.52Z" transform="translate(0.51 0.13)" style="fill: #fff"/>
    <path d="M108.26,218.82l-.7,1.23-.59-.36.71-1.23C107.87,218.58,108.06,218.71,108.26,218.82Z" transform="translate(0.51 0.13)" style="fill: #fff"/>
    <path d="M120.18,196.81l.71-1.24c.38.2.74.41,1.1.64l-.71,1.23A12,12,0,0,0,120.18,196.81Z" transform="translate(0.51 0.13)" style="fill: #fff"/>
    <path d="M123.64,199.45l1.1-.92c.28.31.55.64.81,1l-1.09.91C124.2,200.09,123.93,199.76,123.64,199.45Z" transform="translate(0.51 0.13)" style="fill: #fff"/>
    <path d="M105.32,216.48l-1.09.91c-.29-.31-.56-.63-.82-1l1.09-.91A12.25,12.25,0,0,0,105.32,216.48Z" transform="translate(0.51 0.13)" style="fill: #fff"/>
    <path d="M126,203.11l1.34-.49c.16.39.3.79.43,1.19l-1.34.49A9.34,9.34,0,0,0,126,203.11Z" transform="translate(0.51 0.13)" style="fill: #fff"/>
    <path d="M102.51,211.66a12,12,0,0,0,.43,1.19l-1.33.49c-.17-.39-.31-.79-.44-1.19Z" transform="translate(0.51 0.13)" style="fill: #fff"/>
    <path d="M101.93,207.94c0,.23,0,.45,0,.68h-1.42c0-.23,0-.45,0-.68s0-.39,0-.59H102C102,207.55,101.93,207.74,101.93,207.94Z" transform="translate(0.51 0.13)" style="fill: #fff"/>
    <path d="M127,207.94c0-.2,0-.39,0-.59h1.43c0,.2,0,.39,0,.59s0,.45,0,.68H127C127,208.39,127,208.17,127,207.94Z" transform="translate(0.51 0.13)" style="fill: #fff"/>
    <path d="M102.47,204.3l-1.34-.49c.13-.4.28-.8.44-1.19l1.33.49A12,12,0,0,0,102.47,204.3Z" transform="translate(0.51 0.13)" style="fill: #fff"/>
    <path d="M126.41,211.66l1.33.49c-.13.4-.27.8-.43,1.19l-1.34-.49A12.08,12.08,0,0,0,126.41,211.66Z" transform="translate(0.51 0.13)" style="fill: #fff"/>
    <path d="M124.42,215.52l1.09.91c-.26.33-.54.65-.83,1l-1.08-.91C123.89,216.17,124.16,215.85,124.42,215.52Z" transform="translate(0.51 0.13)" style="fill: #fff"/>
    <path d="M104.46,200.42l-1.1-.91c.26-.34.53-.67.81-1l1.1.92A12.24,12.24,0,0,0,104.46,200.42Z" transform="translate(0.51 0.13)" style="fill: #fff"/>
    <path d="M107.64,197.44l-.71-1.23a11.84,11.84,0,0,1,1.09-.63l.71,1.23A11.84,11.84,0,0,0,107.64,197.44Z" transform="translate(0.51 0.13)" style="fill: #fff"/>
    <path d="M31.7,124.17a19.9,19.9,0,0,0-2.45.17l-.39-2.21a21.32,21.32,0,0,1,5.68,0l-.38,2.21A20.06,20.06,0,0,0,31.7,124.17Z" transform="translate(0.51 0.13)"/>
    <path d="M17.21,130.54l-1.73-1.45a22.35,22.35,0,0,1,4.34-3.65l1.12,1.94A20.14,20.14,0,0,0,17.21,130.54Z" transform="translate(0.51 0.13)"/>
    <path d="M22.67,126.38l-1.12-1.95a21.87,21.87,0,0,1,5.34-2l.39,2.21A19.43,19.43,0,0,0,22.67,126.38Z" transform="translate(0.51 0.13)"/>
    <path d="M13.47,136.31l-2.1-.76a22,22,0,0,1,2.83-4.92l1.73,1.45A19.81,19.81,0,0,0,13.47,136.31Z" transform="translate(0.51 0.13)"/>
    <path d="M36.12,124.69l.39-2.21a21.72,21.72,0,0,1,5.34,2l-1.12,1.94A19.68,19.68,0,0,0,36.12,124.69Z" transform="translate(0.51 0.13)"/>
    <path d="M12,143H9.73a21.81,21.81,0,0,1,1-5.58l2.11.76A19.22,19.22,0,0,0,12,143Z" transform="translate(0.51 0.13)"/>
    <path d="M12.85,149.81l-2.1.76a22.09,22.09,0,0,1-1-5.56H12A19.92,19.92,0,0,0,12.85,149.81Z" transform="translate(0.51 0.13)"/>
    <path d="M16,155.89l-1.72,1.44a22.46,22.46,0,0,1-2.84-4.88l2.11-.77A19.7,19.7,0,0,0,16,155.89Z" transform="translate(0.51 0.13)"/>
    <path d="M47.48,132.08l1.72-1.45A21.78,21.78,0,0,1,52,135.54l-2.1.77A19.77,19.77,0,0,0,47.48,132.08Z" transform="translate(0.51 0.13)"/>
    <path d="M50.61,138.19l2.11-.77a22,22,0,0,1,1,5.59H51.42A19.68,19.68,0,0,0,50.61,138.19Z" transform="translate(0.51 0.13)"/>
    <path d="M51.43,145h2.24a22.09,22.09,0,0,1-1,5.56l-2.1-.77A19.75,19.75,0,0,0,51.43,145Z" transform="translate(0.51 0.13)"/>
    <path d="M49.87,151.68l2.1.77a21.77,21.77,0,0,1-2.84,4.87l-1.71-1.43A20.12,20.12,0,0,0,49.87,151.68Z" transform="translate(0.51 0.13)"/>
    <path d="M21,160.53l-1.12,1.93a22.09,22.09,0,0,1-4.32-3.61l1.71-1.44A19.68,19.68,0,0,0,21,160.53Z" transform="translate(0.51 0.13)"/>
    <path d="M46.12,157.41l1.72,1.44a21.86,21.86,0,0,1-4.33,3.61l-1.11-1.93A19.62,19.62,0,0,0,46.12,157.41Z" transform="translate(0.51 0.13)"/>
    <path d="M42.46,127.38l1.12-1.94a22.35,22.35,0,0,1,4.34,3.65l-1.73,1.45A19.82,19.82,0,0,0,42.46,127.38Z" transform="translate(0.51 0.13)"/>
    <path d="M27.28,124.69l-.39-2.21c.65-.15,1.3-.26,2-.35l.39,2.21A18,18,0,0,0,27.28,124.69Z" transform="translate(0.51 0.13)" style="fill: #fff"/>
    <path d="M34.16,124.34l.38-2.21a18,18,0,0,1,2,.35l-.39,2.21A18.26,18.26,0,0,0,34.16,124.34Z" transform="translate(0.51 0.13)" style="fill: #fff"/>
    <path d="M21.93,161.1,20.82,163l-.93-.58L21,160.53C21.31,160.72,21.61,160.92,21.93,161.1Z" transform="translate(0.51 0.13)" style="fill: #fff"/>
    <path d="M40.73,126.37l1.12-1.94c.59.31,1.17.65,1.73,1l-1.12,1.94A20,20,0,0,0,40.73,126.37Z" transform="translate(0.51 0.13)" style="fill: #fff"/>
    <path d="M46.19,130.54l1.73-1.45c.45.5.88,1,1.28,1.54l-1.72,1.45A19.11,19.11,0,0,0,46.19,130.54Z" transform="translate(0.51 0.13)" style="fill: #fff"/>
    <path d="M17.28,157.41l-1.71,1.44c-.45-.49-.89-1-1.3-1.52L16,155.89C16.39,156.42,16.83,156.92,17.28,157.41Z" transform="translate(0.51 0.13)" style="fill: #fff"/>
    <path d="M49.93,136.31l2.1-.77c.26.62.49,1.24.69,1.88l-2.11.77C50.41,137.55,50.19,136.92,49.93,136.31Z" transform="translate(0.51 0.13)" style="fill: #fff"/>
    <path d="M12.85,149.81c.2.63.43,1.26.69,1.87l-2.11.77c-.26-.61-.48-1.24-.68-1.88Z" transform="translate(0.51 0.13)" style="fill: #fff"/>
    <path d="M11.94,143.93c0,.36,0,.72,0,1.08H9.74c0-.36,0-.72,0-1.08s0-.62,0-.92H12C12,143.32,11.94,143.62,11.94,143.93Z" transform="translate(0.51 0.13)" style="fill: #fff"/>
    <path d="M51.47,143.93c0-.31,0-.61,0-.92h2.26c0,.3,0,.61,0,.92s0,.72,0,1.08H51.43C51.45,144.65,51.47,144.29,51.47,143.93Z" transform="translate(0.51 0.13)" style="fill: #fff"/>
    <path d="M12.8,138.19l-2.11-.76c.2-.64.43-1.27.68-1.88l2.1.76A20,20,0,0,0,12.8,138.19Z" transform="translate(0.51 0.13)" style="fill: #fff"/>
    <path d="M50.56,149.8l2.1.77c-.21.64-.43,1.27-.69,1.88l-2.1-.77C50.13,151.07,50.36,150.44,50.56,149.8Z" transform="translate(0.51 0.13)" style="fill: #fff"/>
    <path d="M47.42,155.89l1.71,1.43c-.4.53-.84,1-1.29,1.53l-1.72-1.44C46.58,156.92,47,156.42,47.42,155.89Z" transform="translate(0.51 0.13)" style="fill: #fff"/>
    <path d="M15.93,132.08l-1.73-1.45c.41-.53.83-1,1.28-1.54l1.73,1.45C16.76,131,16.33,131.55,15.93,132.08Z" transform="translate(0.51 0.13)" style="fill: #fff"/>
    <path d="M20.94,127.38l-1.12-1.94c.56-.36,1.14-.7,1.73-1l1.12,1.95A19.89,19.89,0,0,0,20.94,127.38Z" transform="translate(0.51 0.13)" style="fill: #fff"/>
    <path d="M197.21,124.17a19.9,19.9,0,0,0-2.45.17l-.39-2.21a22.21,22.21,0,0,1,2.84-.19,22,22,0,0,1,2.84.19l-.38,2.21A19.92,19.92,0,0,0,197.21,124.17Z" transform="translate(0.51 0.13)"/>
    <path d="M182.72,130.54,181,129.09a22.35,22.35,0,0,1,4.34-3.65l1.13,1.94A19.88,19.88,0,0,0,182.72,130.54Z" transform="translate(0.51 0.13)"/>
    <path d="M188.19,126.38l-1.13-1.95a21.87,21.87,0,0,1,5.34-2l.39,2.21A19.19,19.19,0,0,0,188.19,126.38Z" transform="translate(0.51 0.13)"/>
    <path d="M179,136.31l-2.1-.76a22,22,0,0,1,2.83-4.92l1.73,1.45A19.81,19.81,0,0,0,179,136.31Z" transform="translate(0.51 0.13)"/>
    <path d="M201.63,124.69l.39-2.21a21.57,21.57,0,0,1,5.34,2l-1.12,1.94A19.68,19.68,0,0,0,201.63,124.69Z" transform="translate(0.51 0.13)"/>
    <path d="M177.5,143h-2.26a21.81,21.81,0,0,1,1-5.58l2.11.76A19.22,19.22,0,0,0,177.5,143Z" transform="translate(0.51 0.13)"/>
    <path d="M178.36,149.81l-2.1.76a22.09,22.09,0,0,1-1-5.56h2.24A19.92,19.92,0,0,0,178.36,149.81Z" transform="translate(0.51 0.13)"/>
    <path d="M181.5,155.89l-1.71,1.44a21.68,21.68,0,0,1-2.84-4.88l2.1-.77A19.7,19.7,0,0,0,181.5,155.89Z" transform="translate(0.51 0.13)"/>
    <path d="M213,132.08l1.72-1.45a22.2,22.2,0,0,1,2.84,4.91l-2.11.77A19.77,19.77,0,0,0,213,132.08Z" transform="translate(0.51 0.13)"/>
    <path d="M216.12,138.19l2.11-.77a22,22,0,0,1,1,5.59h-2.26A19.68,19.68,0,0,0,216.12,138.19Z" transform="translate(0.51 0.13)"/>
    <path d="M216.94,145h2.24a22.09,22.09,0,0,1-1,5.56l-2.1-.77A19.75,19.75,0,0,0,216.94,145Z" transform="translate(0.51 0.13)"/>
    <path d="M215.38,151.68l2.1.77a21.77,21.77,0,0,1-2.84,4.87l-1.71-1.43A20.12,20.12,0,0,0,215.38,151.68Z" transform="translate(0.51 0.13)"/>
    <path d="M186.52,160.53l-1.12,1.93a22.09,22.09,0,0,1-4.32-3.61l1.72-1.44A19.31,19.31,0,0,0,186.52,160.53Z" transform="translate(0.51 0.13)"/>
    <path d="M211.63,157.41l1.72,1.44a22.09,22.09,0,0,1-4.32,3.61l-1.12-1.93A19.62,19.62,0,0,0,211.63,157.41Z" transform="translate(0.51 0.13)"/>
    <path d="M208,127.38l1.12-1.94a22.35,22.35,0,0,1,4.34,3.65l-1.72,1.45A20.21,20.21,0,0,0,208,127.38Z" transform="translate(0.51 0.13)"/>
    <path d="M192.79,124.69l-.39-2.21c.65-.15,1.3-.26,2-.35l.39,2.21A18.44,18.44,0,0,0,192.79,124.69Z" transform="translate(0.51 0.13)" style="fill: #fff"/>
    <path d="M199.67,124.34l.38-2.21a18,18,0,0,1,2,.35l-.39,2.21A18.26,18.26,0,0,0,199.67,124.34Z" transform="translate(0.51 0.13)" style="fill: #fff"/>
    <path d="M187.44,161.1,186.33,163l-.93-.58,1.12-1.93C186.82,160.72,187.13,160.92,187.44,161.1Z" transform="translate(0.51 0.13)" style="fill: #fff"/>
    <path d="M206.24,126.37l1.12-1.94c.6.31,1.17.65,1.73,1L208,127.38A20,20,0,0,0,206.24,126.37Z" transform="translate(0.51 0.13)" style="fill: #fff"/>
    <path d="M211.71,130.54l1.72-1.45c.45.5.88,1,1.28,1.54L213,132.08C212.58,131.54,212.16,131,211.71,130.54Z" transform="translate(0.51 0.13)" style="fill: #fff"/>
    <path d="M182.8,157.41l-1.72,1.44c-.45-.49-.89-1-1.29-1.52l1.71-1.44A18.64,18.64,0,0,0,182.8,157.41Z" transform="translate(0.51 0.13)" style="fill: #fff"/>
    <path d="M215.44,136.31l2.11-.77c.25.62.48,1.24.68,1.88l-2.11.77C215.92,137.55,215.7,136.92,215.44,136.31Z" transform="translate(0.51 0.13)" style="fill: #fff"/>
    <path d="M178.36,149.81c.2.63.43,1.26.69,1.87l-2.1.77c-.26-.61-.49-1.24-.69-1.88Z" transform="translate(0.51 0.13)" style="fill: #fff"/>
    <path d="M177.45,143.93c0,.36,0,.72,0,1.08h-2.24c0-.36,0-.72,0-1.08s0-.62,0-.92h2.26C177.48,143.32,177.45,143.62,177.45,143.93Z" transform="translate(0.51 0.13)" style="fill: #fff"/>
    <path d="M217,143.93c0-.31,0-.61,0-.92h2.26c0,.3,0,.61,0,.92s0,.72,0,1.08h-2.24C217,144.65,217,144.29,217,143.93Z" transform="translate(0.51 0.13)" style="fill: #fff"/>
    <path d="M178.31,138.19l-2.11-.76c.2-.64.43-1.27.68-1.88l2.1.76A20,20,0,0,0,178.31,138.19Z" transform="translate(0.51 0.13)" style="fill: #fff"/>
    <path d="M216.07,149.8l2.1.77c-.21.64-.43,1.27-.69,1.88l-2.1-.77C215.64,151.07,215.87,150.44,216.07,149.8Z" transform="translate(0.51 0.13)" style="fill: #fff"/>
    <path d="M212.93,155.89l1.71,1.43c-.4.53-.84,1-1.29,1.53l-1.72-1.44A18.64,18.64,0,0,0,212.93,155.89Z" transform="translate(0.51 0.13)" style="fill: #fff"/>
    <path d="M181.44,132.08l-1.73-1.45c.41-.53.83-1,1.28-1.54l1.73,1.45C182.27,131,181.84,131.55,181.44,132.08Z" transform="translate(0.51 0.13)" style="fill: #fff"/>
    <path d="M186.46,127.38l-1.13-1.94c.56-.36,1.14-.7,1.73-1l1.13,1.95A17.31,17.31,0,0,0,186.46,127.38Z" transform="translate(0.51 0.13)" style="fill: #fff"/>
    <path d="M175.8,58.26a19.92,19.92,0,0,0-2.46.17L173,56.22a21.4,21.4,0,0,1,5.69,0l-.39,2.21A19.9,19.9,0,0,0,175.8,58.26Z" transform="translate(0.51 0.13)"/>
    <path d="M161.3,64.63l-1.72-1.45a22.06,22.06,0,0,1,4.34-3.66L165,61.47A19.52,19.52,0,0,0,161.3,64.63Z" transform="translate(0.51 0.13)"/>
    <path d="M166.77,60.46l-1.12-1.94a21.67,21.67,0,0,1,5.33-2l.39,2.22A19.61,19.61,0,0,0,166.77,60.46Z" transform="translate(0.51 0.13)"/>
    <path d="M157.57,70.4l-2.1-.77a21.78,21.78,0,0,1,2.83-4.91L160,66.17A19.36,19.36,0,0,0,157.57,70.4Z" transform="translate(0.51 0.13)"/>
    <path d="M180.22,58.78l.39-2.22a21.67,21.67,0,0,1,5.33,2l-1.12,1.94A19.61,19.61,0,0,0,180.22,58.78Z" transform="translate(0.51 0.13)"/>
    <path d="M156.08,77.09h-2.26a22,22,0,0,1,1-5.58l2.11.77A19.6,19.6,0,0,0,156.08,77.09Z" transform="translate(0.51 0.13)"/>
    <path d="M156.94,83.89l-2.1.77a22.17,22.17,0,0,1-1-5.57h2.24A19.74,19.74,0,0,0,156.94,83.89Z" transform="translate(0.51 0.13)"/>
    <path d="M160.08,90l-1.71,1.44a22.06,22.06,0,0,1-2.84-4.88l2.1-.76A19.8,19.8,0,0,0,160.08,90Z" transform="translate(0.51 0.13)"/>
    <path d="M191.57,66.16l1.73-1.44a22.16,22.16,0,0,1,2.83,4.91l-2.1.77A19.88,19.88,0,0,0,191.57,66.16Z" transform="translate(0.51 0.13)"/>
    <path d="M194.7,72.28l2.11-.77a21.56,21.56,0,0,1,1,5.58h-2.26A19.6,19.6,0,0,0,194.7,72.28Z" transform="translate(0.51 0.13)"/>
    <path d="M195.52,79.09h2.24a22.17,22.17,0,0,1-1,5.57l-2.1-.77A19.74,19.74,0,0,0,195.52,79.09Z" transform="translate(0.51 0.13)"/>
    <path d="M194,85.77l2.11.76a22.46,22.46,0,0,1-2.84,4.88L191.51,90A19.63,19.63,0,0,0,194,85.77Z" transform="translate(0.51 0.13)"/>
    <path d="M165.1,94.62,164,96.55a21.57,21.57,0,0,1-4.32-3.62l1.71-1.43A20.39,20.39,0,0,0,165.1,94.62Z" transform="translate(0.51 0.13)"/>
    <path d="M190.22,91.5l1.71,1.43a22.2,22.2,0,0,1-4.32,3.62l-1.12-1.93A20.45,20.45,0,0,0,190.22,91.5Z" transform="translate(0.51 0.13)"/>
    <path d="M186.55,61.46l1.12-1.94A22.12,22.12,0,0,1,192,63.18l-1.73,1.45A19.94,19.94,0,0,0,186.55,61.46Z" transform="translate(0.51 0.13)"/>
    <path d="M171.37,58.78,171,56.56c.65-.14,1.31-.26,2-.34l.39,2.21A18.44,18.44,0,0,0,171.37,58.78Z" transform="translate(0.51 0.13)" style="fill: #fff"/>
    <path d="M178.25,58.43l.39-2.21c.66.08,1.32.2,2,.34l-.39,2.22A18.9,18.9,0,0,0,178.25,58.43Z" transform="translate(0.51 0.13)" style="fill: #fff"/>
    <path d="M166,95.18l-1.1,1.94q-.48-.27-.93-.57l1.11-1.93Z" transform="translate(0.51 0.13)" style="fill: #fff"/>
    <path d="M184.82,60.46l1.12-1.94c.6.31,1.17.64,1.73,1l-1.12,1.94A19.5,19.5,0,0,0,184.82,60.46Z" transform="translate(0.51 0.13)" style="fill: #fff"/>
    <path d="M190.29,64.63,192,63.18c.45.49.87,1,1.28,1.54l-1.73,1.44C191.17,65.63,190.74,65.12,190.29,64.63Z" transform="translate(0.51 0.13)" style="fill: #fff"/>
    <path d="M161.38,91.5l-1.71,1.43a18.64,18.64,0,0,1-1.3-1.52L160.08,90C160.49,90.5,160.92,91,161.38,91.5Z" transform="translate(0.51 0.13)" style="fill: #fff"/>
    <path d="M194,70.4l2.1-.77c.25.61.48,1.24.68,1.88l-2.11.77A20,20,0,0,0,194,70.4Z" transform="translate(0.51 0.13)" style="fill: #fff"/>
    <path d="M156.94,83.89c.2.64.43,1.27.69,1.88l-2.1.76c-.26-.61-.48-1.24-.69-1.87Z" transform="translate(0.51 0.13)" style="fill: #fff"/>
    <path d="M156,78c0,.36,0,.72,0,1.07h-2.24c0-.35,0-.71,0-1.07s0-.62,0-.93h2.26C156.07,77.4,156,77.71,156,78Z" transform="translate(0.51 0.13)" style="fill: #fff"/>
    <path d="M195.56,78c0-.31,0-.62-.05-.93h2.26c0,.31,0,.62,0,.93s0,.72,0,1.07h-2.24C195.54,78.74,195.56,78.38,195.56,78Z" transform="translate(0.51 0.13)" style="fill: #fff"/>
    <path d="M156.89,72.28l-2.11-.77c.2-.64.43-1.26.69-1.88l2.1.77A17.54,17.54,0,0,0,156.89,72.28Z" transform="translate(0.51 0.13)" style="fill: #fff"/>
    <path d="M194.65,83.89l2.1.77c-.2.63-.43,1.26-.68,1.87L194,85.77C194.22,85.16,194.45,84.53,194.65,83.89Z" transform="translate(0.51 0.13)" style="fill: #fff"/>
    <path d="M191.51,90l1.72,1.44c-.41.53-.85,1-1.3,1.52l-1.71-1.43C190.67,91,191.11,90.5,191.51,90Z" transform="translate(0.51 0.13)" style="fill: #fff"/>
    <path d="M160,66.17l-1.72-1.45c.4-.53.83-1,1.28-1.54l1.72,1.45A19,19,0,0,0,160,66.17Z" transform="translate(0.51 0.13)" style="fill: #fff"/>
    <path d="M165,61.47l-1.12-1.95c.56-.36,1.13-.69,1.73-1l1.12,1.94A18.6,18.6,0,0,0,165,61.47Z" transform="translate(0.51 0.13)" style="fill: #fff"/>
    <path d="M167.9,188.51a19.92,19.92,0,0,0-2.46.17l-.39-2.22a21.4,21.4,0,0,1,5.69,0l-.39,2.22A19.9,19.9,0,0,0,167.9,188.51Z" transform="translate(0.51 0.13)"/>
    <path d="M153.4,194.88l-1.72-1.45a22.06,22.06,0,0,1,4.34-3.66l1.12,1.94A19.94,19.94,0,0,0,153.4,194.88Z" transform="translate(0.51 0.13)"/>
    <path d="M158.87,190.71l-1.12-1.94a21.27,21.27,0,0,1,5.33-2l.39,2.21A20.09,20.09,0,0,0,158.87,190.71Z" transform="translate(0.51 0.13)"/>
    <path d="M149.67,200.65l-2.1-.77A21.63,21.63,0,0,1,150.4,195l1.72,1.45A19.43,19.43,0,0,0,149.67,200.65Z" transform="translate(0.51 0.13)"/>
    <path d="M172.32,189l.39-2.21a21.64,21.64,0,0,1,5.33,1.95l-1.12,2A19.63,19.63,0,0,0,172.32,189Z" transform="translate(0.51 0.13)"/>
    <path d="M148.18,207.34h-2.26a22,22,0,0,1,1-5.58l2.11.77A19.6,19.6,0,0,0,148.18,207.34Z" transform="translate(0.51 0.13)"/>
    <path d="M149,214.14l-2.1.76a22,22,0,0,1-1-5.56h2.24A19.74,19.74,0,0,0,149,214.14Z" transform="translate(0.51 0.13)"/>
    <path d="M152.18,220.22l-1.71,1.44a22.06,22.06,0,0,1-2.84-4.88l2.1-.76A20.05,20.05,0,0,0,152.18,220.22Z" transform="translate(0.51 0.13)"/>
    <path d="M183.67,196.41,185.4,195a22,22,0,0,1,2.83,4.92l-2.1.76A19.81,19.81,0,0,0,183.67,196.41Z" transform="translate(0.51 0.13)"/>
    <path d="M186.8,202.53l2.11-.77a21.88,21.88,0,0,1,1,5.58h-2.26A19.6,19.6,0,0,0,186.8,202.53Z" transform="translate(0.51 0.13)"/>
    <path d="M187.62,209.34h2.24a22,22,0,0,1-1,5.56l-2.1-.76A19.74,19.74,0,0,0,187.62,209.34Z" transform="translate(0.51 0.13)"/>
    <path d="M186.06,216l2.11.76a22.46,22.46,0,0,1-2.84,4.88l-1.72-1.44A19.87,19.87,0,0,0,186.06,216Z" transform="translate(0.51 0.13)"/>
    <path d="M157.2,224.86l-1.11,1.94a21.91,21.91,0,0,1-4.32-3.62l1.71-1.43A19.94,19.94,0,0,0,157.2,224.86Z" transform="translate(0.51 0.13)"/>
    <path d="M182.32,221.74l1.71,1.44a22.2,22.2,0,0,1-4.32,3.62l-1.12-1.94A19.68,19.68,0,0,0,182.32,221.74Z" transform="translate(0.51 0.13)"/>
    <path d="M178.65,191.71l1.12-1.94a22.12,22.12,0,0,1,4.35,3.66l-1.73,1.45A19.94,19.94,0,0,0,178.65,191.71Z" transform="translate(0.51 0.13)"/>
    <path d="M163.47,189l-.39-2.21c.65-.14,1.31-.26,2-.35l.39,2.22C164.77,188.76,164.12,188.88,163.47,189Z" transform="translate(0.51 0.13)" style="fill: #fff"/>
    <path d="M170.35,188.68l.39-2.22c.66.09,1.32.21,2,.35l-.39,2.21C171.67,188.88,171,188.76,170.35,188.68Z" transform="translate(0.51 0.13)" style="fill: #fff"/>
    <path d="M158.12,225.43l-1.1,1.94c-.32-.18-.63-.38-.93-.57l1.11-1.94C157.51,225.06,157.81,225.25,158.12,225.43Z" transform="translate(0.51 0.13)" style="fill: #fff"/>
    <path d="M176.92,190.71l1.12-2c.6.31,1.17.65,1.73,1l-1.12,1.94A19.5,19.5,0,0,0,176.92,190.71Z" transform="translate(0.51 0.13)" style="fill: #fff"/>
    <path d="M182.39,194.88l1.73-1.45c.45.49.87,1,1.28,1.53l-1.73,1.45C183.27,195.88,182.84,195.37,182.39,194.88Z" transform="translate(0.51 0.13)" style="fill: #fff"/>
    <path d="M153.48,221.75l-1.71,1.43a18.64,18.64,0,0,1-1.3-1.52l1.71-1.44C152.59,220.75,153,221.26,153.48,221.75Z" transform="translate(0.51 0.13)" style="fill: #fff"/>
    <path d="M186.13,200.64l2.1-.76c.25.61.48,1.24.68,1.88l-2.11.77C186.61,201.88,186.38,201.26,186.13,200.64Z" transform="translate(0.51 0.13)" style="fill: #fff"/>
    <path d="M149,214.14c.2.64.43,1.27.69,1.88l-2.1.76c-.26-.61-.48-1.24-.69-1.88Z" transform="translate(0.51 0.13)" style="fill: #fff"/>
    <path d="M148.13,208.27c0,.36,0,.71,0,1.07h-2.24c0-.36,0-.71,0-1.07s0-.62,0-.93h2.26C148.17,207.65,148.13,208,148.13,208.27Z" transform="translate(0.51 0.13)" style="fill: #fff"/>
    <path d="M187.66,208.27c0-.32,0-.62,0-.93h2.26c0,.31,0,.62,0,.93s0,.71,0,1.07h-2.24C187.64,209,187.66,208.63,187.66,208.27Z" transform="translate(0.51 0.13)" style="fill: #fff"/>
    <path d="M149,202.53l-2.11-.77c.2-.64.43-1.27.69-1.88l2.1.77A17.54,17.54,0,0,0,149,202.53Z" transform="translate(0.51 0.13)" style="fill: #fff"/>
    <path d="M186.75,214.14l2.1.76c-.2.64-.43,1.27-.68,1.88l-2.11-.76C186.32,215.4,186.55,214.78,186.75,214.14Z" transform="translate(0.51 0.13)" style="fill: #fff"/>
    <path d="M183.61,220.22l1.72,1.44c-.41.53-.85,1-1.3,1.52l-1.71-1.44A18.81,18.81,0,0,0,183.61,220.22Z" transform="translate(0.51 0.13)" style="fill: #fff"/>
    <path d="M152.12,196.41,150.4,195c.4-.53.83-1,1.28-1.53l1.72,1.45C153,195.37,152.52,195.88,152.12,196.41Z" transform="translate(0.51 0.13)" style="fill: #fff"/>
    <path d="M157.14,191.71,156,189.77a18.51,18.51,0,0,1,1.73-1l1.12,1.94C158.27,191,157.7,191.35,157.14,191.71Z" transform="translate(0.51 0.13)" style="fill: #fff"/>
    <path d="M61,188.51a20.06,20.06,0,0,0-2.46.17l-.39-2.22a21.4,21.4,0,0,1,5.69,0l-.39,2.22A19.9,19.9,0,0,0,61,188.51Z" transform="translate(0.51 0.13)"/>
    <path d="M46.53,194.88l-1.73-1.45a22.06,22.06,0,0,1,4.34-3.66l1.12,1.94A19.87,19.87,0,0,0,46.53,194.88Z" transform="translate(0.51 0.13)"/>
    <path d="M52,190.71l-1.12-1.94a21.27,21.27,0,0,1,5.33-2l.4,2.21A20.17,20.17,0,0,0,52,190.71Z" transform="translate(0.51 0.13)"/>
    <path d="M42.79,200.65l-2.1-.77A21.63,21.63,0,0,1,43.52,195l1.72,1.45A19.84,19.84,0,0,0,42.79,200.65Z" transform="translate(0.51 0.13)"/>
    <path d="M65.44,189l.39-2.21a21.87,21.87,0,0,1,5.34,1.95l-1.13,2A19.63,19.63,0,0,0,65.44,189Z" transform="translate(0.51 0.13)"/>
    <path d="M41.3,207.34H39a22,22,0,0,1,1-5.58l2.11.77A19.6,19.6,0,0,0,41.3,207.34Z" transform="translate(0.51 0.13)"/>
    <path d="M42.17,214.14l-2.11.76a22,22,0,0,1-1-5.56h2.23A19.28,19.28,0,0,0,42.17,214.14Z" transform="translate(0.51 0.13)"/>
    <path d="M45.3,220.22l-1.71,1.44a22.06,22.06,0,0,1-2.84-4.88l2.1-.76A20.5,20.5,0,0,0,45.3,220.22Z" transform="translate(0.51 0.13)"/>
    <path d="M76.79,196.41,78.52,195a22,22,0,0,1,2.83,4.92l-2.1.76A19.81,19.81,0,0,0,76.79,196.41Z" transform="translate(0.51 0.13)"/>
    <path d="M79.92,202.53l2.11-.77a21.88,21.88,0,0,1,1,5.58H80.73A19.14,19.14,0,0,0,79.92,202.53Z" transform="translate(0.51 0.13)"/>
    <path d="M80.75,209.34H83a21.57,21.57,0,0,1-1,5.56l-2.1-.76A19.28,19.28,0,0,0,80.75,209.34Z" transform="translate(0.51 0.13)"/>
    <path d="M79.18,216l2.11.76a22.46,22.46,0,0,1-2.84,4.88l-1.72-1.44A19.87,19.87,0,0,0,79.18,216Z" transform="translate(0.51 0.13)"/>
    <path d="M50.32,224.86l-1.11,1.94a21.91,21.91,0,0,1-4.32-3.62l1.71-1.43A19.94,19.94,0,0,0,50.32,224.86Z" transform="translate(0.51 0.13)"/>
    <path d="M75.44,221.74l1.71,1.44a22.2,22.2,0,0,1-4.32,3.62l-1.12-1.94A19.68,19.68,0,0,0,75.44,221.74Z" transform="translate(0.51 0.13)"/>
    <path d="M71.77,191.71l1.12-1.94a21.83,21.83,0,0,1,4.35,3.66l-1.73,1.45A19.94,19.94,0,0,0,71.77,191.71Z" transform="translate(0.51 0.13)"/>
    <path d="M56.6,189l-.4-2.21c.65-.14,1.31-.26,2-.35l.39,2.22C57.9,188.76,57.24,188.88,56.6,189Z" transform="translate(0.51 0.13)" style="fill: #fff"/>
    <path d="M63.47,188.68l.39-2.22c.67.09,1.32.21,2,.35L65.44,189C64.79,188.88,64.14,188.76,63.47,188.68Z" transform="translate(0.51 0.13)" style="fill: #fff"/>
    <path d="M51.25,225.43l-1.11,1.94c-.32-.18-.63-.38-.93-.57l1.11-1.94C50.63,225.06,50.93,225.25,51.25,225.43Z" transform="translate(0.51 0.13)" style="fill: #fff"/>
    <path d="M70,190.71l1.13-2c.59.31,1.17.65,1.72,1l-1.12,1.94A19.5,19.5,0,0,0,70,190.71Z" transform="translate(0.51 0.13)" style="fill: #fff"/>
    <path d="M75.51,194.88l1.73-1.45c.45.49.87,1,1.28,1.53l-1.73,1.45C76.39,195.88,76,195.37,75.51,194.88Z" transform="translate(0.51 0.13)" style="fill: #fff"/>
    <path d="M46.6,221.75l-1.71,1.43c-.46-.49-.89-1-1.3-1.52l1.71-1.44C45.71,220.75,46.14,221.26,46.6,221.75Z" transform="translate(0.51 0.13)" style="fill: #fff"/>
    <path d="M79.25,200.64l2.1-.76c.25.61.48,1.24.68,1.88l-2.11.77C79.73,201.88,79.5,201.26,79.25,200.64Z" transform="translate(0.51 0.13)" style="fill: #fff"/>
    <path d="M42.17,214.14a17.54,17.54,0,0,0,.68,1.88l-2.1.76c-.26-.61-.48-1.24-.69-1.88Z" transform="translate(0.51 0.13)" style="fill: #fff"/>
    <path d="M41.25,208.27c0,.36,0,.71,0,1.07H39.06c0-.36,0-.71,0-1.07s0-.62,0-.93H41.3C41.29,207.65,41.25,208,41.25,208.27Z" transform="translate(0.51 0.13)" style="fill: #fff"/>
    <path d="M80.78,208.27c0-.32,0-.62,0-.93H83q0,.47,0,.93c0,.36,0,.71,0,1.07H80.75C80.77,209,80.78,208.63,80.78,208.27Z" transform="translate(0.51 0.13)" style="fill: #fff"/>
    <path d="M42.11,202.53,40,201.76c.2-.64.43-1.27.69-1.88l2.1.77C42.53,201.26,42.31,201.89,42.11,202.53Z" transform="translate(0.51 0.13)" style="fill: #fff"/>
    <path d="M79.87,214.14l2.1.76c-.2.64-.43,1.27-.68,1.88L79.18,216A18.43,18.43,0,0,0,79.87,214.14Z" transform="translate(0.51 0.13)" style="fill: #fff"/>
    <path d="M76.73,220.22l1.72,1.44c-.41.53-.85,1-1.3,1.52l-1.71-1.44A18.81,18.81,0,0,0,76.73,220.22Z" transform="translate(0.51 0.13)" style="fill: #fff"/>
    <path d="M45.24,196.41,43.52,195c.4-.53.83-1,1.28-1.53l1.73,1.45C46.07,195.37,45.65,195.88,45.24,196.41Z" transform="translate(0.51 0.13)" style="fill: #fff"/>
    <path d="M50.26,191.71l-1.12-1.94a19.89,19.89,0,0,1,1.73-1L52,190.71C51.4,191,50.82,191.35,50.26,191.71Z" transform="translate(0.51 0.13)" style="fill: #fff"/>
    <text transform="translate(56.02 357.27) scale(0.82 1)" style="font-size: 11px;fill: #231f20;font-family: GillSans-Bold, Gill Sans;font-weight: 700">ENSEMBLE OSCILLATOR</text>
    <path d="M163.88,13.13,157,21.92V14.38a1.61,1.61,0,0,0-.81-1.46,1.11,1.11,0,0,0-1.41.36l-9.09,11.56a1.85,1.85,0,0,0,0,2.24,1.14,1.14,0,0,0,1.83,0l6.87-8.74v7.54a1.62,1.62,0,0,0,.81,1.47,1.13,1.13,0,0,0,1.41-.37l6.91-8.79v7.69a1.32,1.32,0,1,0,2.58,0V14.23a1.62,1.62,0,0,0-.8-1.47A1.13,1.13,0,0,0,163.88,13.13Z" transform="translate(0.51 0.13)" style="fill: #231f20;stroke: #231f20;stroke-width: 0.9623649999999999px"/>
    <path d="M145.66,13l-6,7.66a1.85,1.85,0,0,0,0,2.24,1.13,1.13,0,0,0,1.82-.05l3.81-4.83v7.88a1.32,1.32,0,1,0,2.58,0V14.14a1.61,1.61,0,0,0-.81-1.47A1.12,1.12,0,0,0,145.66,13Z" transform="translate(0.51 0.13)" style="fill: #231f20;stroke: #231f20;stroke-width: 0.9623649999999999px"/>
    <path d="M174.34,18.69a1.31,1.31,0,0,0-1.18-1h-2.64l1.93-2.44s1-1.47.11-2.27-2,.07-2,.07l-4,5.13a1.81,1.81,0,0,0-.26,1.72,1.31,1.31,0,0,0,1.19,1h2.63l-3.12,4s-1.29,1.41-.34,2.37,2.2-.17,2.2-.17l5.22-6.65A1.82,1.82,0,0,0,174.34,18.69Z" transform="translate(0.51 0.13)" style="fill: #231f20;stroke: #231f20;stroke-width: 0.9623649999999999px"/>
    <text transform="translate(11.1 121.97) scale(0.89 1)" style="font-size: 7px;fill: #231f20;font-family: GillSans, Gill Sans;letter-spacing: -0.04012841155991825em">Free</text>
    <text transform="translate(26.22 111.14) scale(0.89 1)" style="font-size: 7px;fill: #231f20;font-family: GillSans, Gill Sans;letter-spacing: -0.039971659952262324em">Oct.</text>
    <text transform="translate(8.4 89.9) scale(0.89 1)" style="font-size: 7px;fill: #231f20;font-family: GillSans, Gill Sans;letter-spacing: -0.039971659952262324em">12TET</text>
    <text transform="translate(205.84 118.51) scale(0.89 1)" style="font-size: 7px;fill: #231f20;font-family: GillSans, Gill Sans;letter-spacing: -0.04012841155991825em">Down</text>
    <text transform="translate(193.45 105.4) scale(0.89 1)" style="font-size: 7px;fill: #231f20;font-family: GillSans, Gill Sans;letter-spacing: -0.039971659952262324em">All</text>
    <text transform="translate(209.62 88.9) scale(0.89 1)" style="font-size: 7px;fill: #231f20;font-family: GillSans, Gill Sans;letter-spacing: -0.039971659952262324em">Up</text>
    <text transform="translate(208.67 189.06) scale(0.89 1)" style="font-size: 7px;fill: #231f20;font-family: GillSans, Gill Sans;letter-spacing: -0.04012841155991825em">Fold</text>
    <text transform="translate(190.62 205.75) scale(0.76 1)" style="font-size: 7px;fill: #231f20;font-family: GillSans, Gill Sans;letter-spacing: -0.04003893339770204em">Cheb</text>
    <text transform="translate(203.63 218.52) scale(0.89 1)" style="font-size: 7px;fill: #231f20;font-family: GillSans, Gill Sans;letter-spacing: -0.039971659952262324em">Segment</text>
    <text transform="translate(9.67 201.01) scale(0.89 1)" style="font-size: 7px;fill: #231f20;font-family: GillSans, Gill Sans;letter-spacing: -0.039971659952262324em">Ramp</text>
    <text transform="translate(28.05 217.32) scale(0.76 1)" style="font-size: 7px;fill: #231f20;font-family: GillSans, Gill Sans;letter-spacing: -0.03984238261062744em">Pulsar</text>
    <text transform="translate(9.09 231.77) scale(0.89 1)" style="font-size: 7px;fill: #231f20;font-family: GillSans, Gill Sans;letter-spacing: -0.039971659952262324em">Crush</text>
    <text transform="translate(13.52 334.53) scale(0.89 1)" style="font-size: 7px;fill: #231f20;font-family: GillSans, Gill Sans;letter-spacing: -0.039971659952262324em">1V/oct</text>
    <text transform="translate(13.52 290.58) scale(0.89 1)" style="font-size: 7px;fill: #231f20;font-family: GillSans, Gill Sans;letter-spacing: -0.039971659952262324em">1V/oct</text>
    <path d="M62.17,60.45l1.12-2a21.89,21.89,0,0,0-9.12-2.45v2.26A19.45,19.45,0,0,1,62.17,60.45Z" transform="translate(0.51 0.13)"/>
    <path d="M69.75,67.3l2-1.13A22,22,0,0,0,65,59.5l-1.12,2A19.77,19.77,0,0,1,69.75,67.3Z" transform="translate(0.51 0.13)"/>
    <path d="M42.44,61.45l-1.12-2a22,22,0,0,0-6.68,6.67l2,1.13A19.77,19.77,0,0,1,42.44,61.45Z" transform="translate(0.51 0.13)"/>
    <path d="M72.89,77h2.25A21.82,21.82,0,0,0,72.7,67.9l-2,1.13A19.77,19.77,0,0,1,72.89,77Z" transform="translate(0.51 0.13)"/>
    <path d="M52.17,58.31V56.05a21.89,21.89,0,0,0-9.12,2.45l1.13,2A19.41,19.41,0,0,1,52.17,58.31Z" transform="translate(0.51 0.13)"/>
    <path d="M36.59,88.75l-2,1.13a22.17,22.17,0,0,0,6.68,6.68l1.12-2A19.93,19.93,0,0,1,36.59,88.75Z" transform="translate(0.51 0.13)"/>
    <path d="M63.9,94.61l1.12,2a22.17,22.17,0,0,0,6.68-6.68l-2-1.13A19.93,19.93,0,0,1,63.9,94.61Z" transform="translate(0.51 0.13)"/>
    <path d="M72.89,79a19.76,19.76,0,0,1-2.14,8l2,1.13A21.73,21.73,0,0,0,75.14,79Z" transform="translate(0.51 0.13)"/>
    <path d="M33.45,79H31.2a21.73,21.73,0,0,0,2.44,9.12l2-1.13A19.76,19.76,0,0,1,33.45,79Z" transform="translate(0.51 0.13)"/>
    <path d="M35.59,69l-2-1.13A21.82,21.82,0,0,0,31.2,77h2.25A19.77,19.77,0,0,1,35.59,69Z" transform="translate(0.51 0.13)"/>
    <text transform="translate(70.14 98.67) scale(0.8 1)" style="font-size: 7px;fill: #231f20;font-family: GillSans-Bold, Gill Sans;font-weight: 700;letter-spacing: -0.04996163430015649em">10</text>
    <text transform="translate(26.93 86.84) scale(0.8 1)" style="font-size: 7px;fill: #231f20;font-family: GillSans-Bold, Gill Sans;font-weight: 700;letter-spacing: -0.04996163430015649em">2</text>
    <text transform="translate(33.08 98.67) scale(0.8 1)" style="font-size: 7px;fill: #231f20;font-family: GillSans-Bold, Gill Sans;font-weight: 700;letter-spacing: -0.04996163430015649em">1</text>
    <text transform="translate(76.66 86.84) scale(0.8 1)" style="font-size: 7px;fill: #231f20;font-family: GillSans-Bold, Gill Sans;font-weight: 700;letter-spacing: -0.04996163430015649em">9</text>
    <text transform="translate(26.97 73.2) scale(0.8 1)" style="font-size: 7px;fill: #231f20;font-family: GillSans-Bold, Gill Sans;font-weight: 700;letter-spacing: -0.04996163430015649em">3</text>
    <text transform="translate(76.59 73.2) scale(0.8 1)" style="font-size: 7px;fill: #231f20;font-family: GillSans-Bold, Gill Sans;font-weight: 700;letter-spacing: -0.04996163430015649em">8</text>
    <text transform="translate(33.49 61.43) scale(0.8 1)" style="font-size: 7px;fill: #231f20;font-family: GillSans-Bold, Gill Sans;font-weight: 700;letter-spacing: -0.04996163430015649em">4</text>
    <text transform="translate(69.6 61.43) scale(0.8 1)" style="font-size: 7px;fill: #231f20;font-family: GillSans-Bold, Gill Sans;font-weight: 700;letter-spacing: -0.04996163430015649em">7</text>
    <text transform="translate(44.98 55.18) scale(0.8 1)" style="font-size: 7px;fill: #231f20;font-family: GillSans-Bold, Gill Sans;font-weight: 700;letter-spacing: -0.04996163430015649em">5</text>
    <text transform="translate(58.73 55.18) scale(0.8 1)" style="font-size: 7px;fill: #231f20;font-family: GillSans-Bold, Gill Sans;font-weight: 700;letter-spacing: -0.04996163430015649em">6</text>
    <path d="M123.44,44.19l1.13-1.95a21.89,21.89,0,0,0-9.12-2.45v2.26A19.56,19.56,0,0,1,123.44,44.19Z" transform="translate(0.51 0.13)"/>
    <path d="M131,51,133,49.91a22.25,22.25,0,0,0-6.68-6.67l-1.12,1.95A19.89,19.89,0,0,1,131,51Z" transform="translate(0.51 0.13)"/>
    <path d="M103.72,45.19l-1.12-1.95a22.25,22.25,0,0,0-6.68,6.67l2,1.13A19.89,19.89,0,0,1,103.72,45.19Z" transform="translate(0.51 0.13)"/>
    <path d="M134.17,60.77h2.25A21.73,21.73,0,0,0,134,51.65L132,52.77A19.77,19.77,0,0,1,134.17,60.77Z" transform="translate(0.51 0.13)"/>
    <path d="M113.45,42.05V39.79a21.89,21.89,0,0,0-9.12,2.45l1.12,1.95A19.61,19.61,0,0,1,113.45,42.05Z" transform="translate(0.51 0.13)"/>
    <path d="M97.87,72.49l-2,1.13a22.17,22.17,0,0,0,6.68,6.68l1.12-2A19.93,19.93,0,0,1,97.87,72.49Z" transform="translate(0.51 0.13)"/>
    <path d="M125.18,78.35l1.12,2A22.17,22.17,0,0,0,133,73.62L131,72.49A19.93,19.93,0,0,1,125.18,78.35Z" transform="translate(0.51 0.13)"/>
    <path d="M134.17,62.77a19.72,19.72,0,0,1-2.14,8L134,71.89a21.73,21.73,0,0,0,2.44-9.12Z" transform="translate(0.51 0.13)"/>
    <path d="M94.73,62.77H92.48a21.73,21.73,0,0,0,2.44,9.12l2-1.13A19.72,19.72,0,0,1,94.73,62.77Z" transform="translate(0.51 0.13)"/>
    <path d="M96.87,52.77l-2-1.12a21.73,21.73,0,0,0-2.44,9.12h2.25A19.77,19.77,0,0,1,96.87,52.77Z" transform="translate(0.51 0.13)"/>
    <text transform="translate(198.47 330.57) scale(0.88 1)" style="font-size: 8px;fill: #fff;font-family: GillSans-Bold, Gill Sans;font-weight: 700;letter-spacing: -0.04001964243986196em">Out B</text>
    <text transform="translate(198.03 283.51) scale(0.88 1)" style="font-size: 8px;fill: #fff;font-family: GillSans-Bold, Gill Sans;font-weight: 700;letter-spacing: -0.04001964243986196em">Out A</text>
    <rect x="70.14" y="23.66" width="49.22" height="0.87" style="fill: #231f20"/>
    <g>
      <path d="M76,16.76v5.51h-.82V18h0l-.85,4.3h-.45L73,18h0v4.3H72.2V16.76h1.23L74.1,20h0l.67-3.22Z" transform="translate(0.51 0.13)" style="fill: #231f20"/>
      <path d="M77.49,22.27h-.91l1-5.51h1.16l1,5.51h-.91l-.17-1.22h-1Zm.3-2h.76l-.37-2.37h0Z" transform="translate(0.51 0.13)" style="fill: #231f20"/>
      <path d="M80.92,17.59H80v-.83h2.75v.83h-.9v4.68h-.94Z" transform="translate(0.51 0.13)" style="fill: #231f20"/>
      <path d="M83.93,17.59H83v-.83h2.75v.83h-.91v4.68h-.94Z" transform="translate(0.51 0.13)" style="fill: #231f20"/>
      <path d="M86.4,22.27V16.76h.94V19h1V16.76h.93v5.51h-.93V19.83h-1v2.44Z" transform="translate(0.51 0.13)" style="fill: #231f20"/>
      <path d="M90.38,22.27V16.76h.94v5.51Z" transform="translate(0.51 0.13)" style="fill: #231f20"/>
      <path d="M93,22.27h-.91l1-5.51h1.17l1,5.51h-.91l-.16-1.22h-1Zm.3-2H94l-.37-2.37h0Z" transform="translate(0.51 0.13)" style="fill: #231f20"/>
      <path d="M97.57,18.12c0-.47-.29-.61-.5-.61s-.47.2-.47.54c0,.94,1.9,1.39,1.9,2.88A1.34,1.34,0,0,1,97,22.34a1.44,1.44,0,0,1-1.4-1.52l.89-.13c0,.56.26.83.56.83a.48.48,0,0,0,.54-.5c0-1.09-1.9-1.38-1.9-3a1.28,1.28,0,0,1,1.45-1.37A1.31,1.31,0,0,1,98.46,18Z" transform="translate(0.51 0.13)" style="fill: #231f20"/>
      <path d="M101,22.27V16.76h1.35c1.15,0,1.69.45,1.69,1.63S103.54,20,102.39,20H102v2.26Zm.94-3h.36c.61,0,.8-.19.8-.84s-.19-.85-.8-.85H102Z" transform="translate(0.51 0.13)" style="fill: #231f20"/>
      <path d="M104.89,16.76h.94v4.16c0,.4.16.6.5.6s.5-.2.5-.6V16.76h.93v4.12a1.44,1.44,0,1,1-2.87,0Z" transform="translate(0.51 0.13)" style="fill: #231f20"/>
      <path d="M108.75,22.27V16.76h2.5v.83h-1.57V19h1.21v.82h-1.21v1.61h1.68v.83Z" transform="translate(0.51 0.13)" style="fill: #231f20"/>
      <path d="M114.06,18.6v-.43c0-.46-.21-.66-.45-.66s-.5.2-.5.61v2.79c0,.41.12.61.5.61s.45-.2.45-.56V20.3H115v.63a1.41,1.41,0,1,1-2.82,0V18.1a1.31,1.31,0,0,1,1.43-1.41A1.35,1.35,0,0,1,115,18.2v.4Z" transform="translate(0.51 0.13)" style="fill: #231f20"/>
      <path d="M116,22.27V16.76H117V19h1V16.76h.94v5.51H118V19.83h-1v2.44Z" transform="translate(0.51 0.13)" style="fill: #231f20"/>
    </g>
    <g>
      <line x1="66.9" y1="25.37" x2="69.08" y2="24.95" style="fill: #dcddde"/>
      <rect x="56.16" y="24.96" width="1.34" height="0.84" rx="0.14" transform="translate(-3.33 11.62) rotate(-11.17)" style="fill: #dcddde"/>
      <rect x="55.87" y="23.46" width="1.34" height="0.84" rx="0.14" transform="translate(-3.05 11.53) rotate(-11.17)" style="fill: #dcddde"/>
      <rect x="55.57" y="21.96" width="1.34" height="0.84" rx="0.14" transform="translate(-2.76 11.45) rotate(-11.17)" style="fill: #dcddde"/>
      <rect x="55.28" y="20.46" width="1.34" height="0.84" rx="0.14" transform="translate(-2.48 11.36) rotate(-11.17)" style="fill: #dcddde"/>
      <rect x="54.98" y="18.96" width="1.34" height="0.84" rx="0.14" transform="translate(-2.19 11.28) rotate(-11.17)" style="fill: #dcddde"/>
      <g>
        <path d="M57.28,17.2h0s0,0,0,0c-.36-.07-.63-.79-.63-.79-.29-.88-2.08-2.19-2.29-2.3s-.17-.32-.17-.42a.1.1,0,0,0,0-.09L51.66,9.89a.18.18,0,0,0-.07-.05,8.36,8.36,0,0,1-2.51-1.67s.14,0,.21,0a.2.2,0,0,1,.08,0,11.11,11.11,0,0,0,2.41,1.57s2.26,3.45,2.48,3.78l0,0a6.92,6.92,0,0,1,2.42,2.33.17.17,0,0,0,.13.07c.45,0,.65.46.74.73A1.48,1.48,0,0,1,57.28,17.2Z" transform="translate(0.51 0.13)" style="fill: #231f20"/>
        <path d="M57.11,17.43l0-.1a1.68,1.68,0,0,1-.66-.89c-.27-.79-2-2.06-2.2-2.18a.59.59,0,0,1-.28-.6L51.5,10a6.73,6.73,0,0,1-2.64-1.86V8.08L48.94,8c.08-.07.19-.08.38-.06a.34.34,0,0,1,.19.09,10.08,10.08,0,0,0,2.29,1.5l.1.05c.05,0,.09.06,2.53,3.83a7.26,7.26,0,0,1,2.46,2.37c.41,0,.71.32.9.88l0,.07,0,.08a1.63,1.63,0,0,1-.37.55l0,0Zm-.34-1.23,0,.1a1.5,1.5,0,0,0,.43.64,1.59,1.59,0,0,0,.13-.22c-.13-.34-.3-.5-.52-.51Z" transform="translate(0.51 0.13)" style="fill: #231f20"/>
      </g>
      <g>
        <path d="M65.65,5.11A10.44,10.44,0,0,1,64,7.51s-.78,4.05-.85,4.45c0,0,0,0,0,.06a7,7,0,0,0-1.35,3.08.13.13,0,0,1-.09.1.81.81,0,0,0-.41.79.18.18,0,0,0,0,.1c.15.14.25.41.46.44a.17.17,0,0,0,0-.1c.3-.21.28-1,.28-1a7.13,7.13,0,0,1,1.25-3c.12-.14,0-.37,0-.46a.11.11,0,0,1,0-.08l.88-4.34a.1.1,0,0,1,0-.07A8.78,8.78,0,0,0,65.9,5s-.25.1-.25.1" transform="translate(0.51 0.13)" style="fill: #231f20"/>
        <path d="M61.94,16.77l-.2,0a.7.7,0,0,1-.46-.35l-.11-.15a.35.35,0,0,1-.11-.26,1,1,0,0,1,.51-1,7.15,7.15,0,0,1,1.37-3.13c.82-4.42.85-4.46.88-4.5l.08-.09A10.11,10.11,0,0,0,65.46,5l0-.06.05,0c.26-.15.35-.14.42-.11l.09,0,0,.09a6.71,6.71,0,0,1-1.73,2.72l-.87,4.29a.6.6,0,0,1,0,.66,7,7,0,0,0-1.2,2.84A1.75,1.75,0,0,1,62,16.52v.05ZM61.48,16c.06.06.1.12.15.18a.35.35,0,0,0,0,.08,1.43,1.43,0,0,0,.16-.76.34.34,0,0,1,0-.1l-.06,0C61.65,15.45,61.5,15.57,61.48,16Zm0,0Zm1.49-4Z" transform="translate(0.51 0.13)" style="fill: #231f20"/>
      </g>
      <path d="M61.94,16.77l-.2,0a.7.7,0,0,1-.46-.35l-.11-.15a.35.35,0,0,1-.11-.26,1,1,0,0,1,.51-1,7.15,7.15,0,0,1,1.37-3.13c.82-4.42.85-4.46.88-4.5l.08-.09a10.54,10.54,0,0,0,1.54-2.26.31.31,0,0,1,.15-.15h0c.16-.09.27-.13.37-.09l.09,0,0,.09a6.71,6.71,0,0,1-1.73,2.72l-.87,4.29a.6.6,0,0,1,0,.66,7,7,0,0,0-1.2,2.84A1.75,1.75,0,0,1,62,16.52v.05ZM61.48,16c.06.06.1.12.15.18a.35.35,0,0,0,0,.08,1.43,1.43,0,0,0,.16-.76.34.34,0,0,1,0-.1l-.06,0C61.65,15.45,61.5,15.57,61.48,16Zm0,0Zm1.49-4Z" transform="translate(0.51 0.13)" style="fill: #231f20"/>
      <rect x="64" y="16.52" width="1.34" height="0.84" rx="0.14" transform="translate(-1.55 12.98) rotate(-11.17)" style="fill: #231f20"/>
      <path d="M64.05,17.26l2.11-.42a.14.14,0,0,0,.12-.16l0-.15a.12.12,0,0,0-.13-.09L64,16.86a.16.16,0,0,0-.11.17l0,.15a.11.11,0,0,0,.13.08" transform="translate(0.51 0.13)" style="fill: #231f20"/>
      <rect x="64.29" y="18.01" width="1.34" height="0.84" rx="0.14" transform="translate(-1.83 13.06) rotate(-11.17)" style="fill: #231f20"/>
      <path d="M64.35,18.76l2.11-.42a.13.13,0,0,0,.11-.16l0-.15a.11.11,0,0,0-.13-.09l-2.11.42a.13.13,0,0,0-.11.17l0,.14a.11.11,0,0,0,.13.09" transform="translate(0.51 0.13)" style="fill: #231f20"/>
      <rect x="64.59" y="19.51" width="1.34" height="0.84" rx="0.14" transform="translate(-2.12 13.15) rotate(-11.17)" style="fill: #231f20"/>
      <path d="M64.64,20.26l2.06-.41a.2.2,0,0,0,.16-.23h0a.21.21,0,0,0-.24-.16l-2,.4a.14.14,0,0,0-.11.16l0,.15a.11.11,0,0,0,.13.09" transform="translate(0.51 0.13)" style="fill: #231f20"/>
      <rect x="64.89" y="21.01" width="1.34" height="0.84" rx="0.14" transform="translate(-2.4 13.24) rotate(-11.17)" style="fill: #231f20"/>
      <path d="M64.94,21.76l2.11-.42a.14.14,0,0,0,.11-.17l0-.15a.1.1,0,0,0-.12-.08l-2.12.42a.13.13,0,0,0-.11.16l0,.15a.11.11,0,0,0,.13.09" transform="translate(0.51 0.13)" style="fill: #231f20"/>
      <rect x="65.18" y="22.51" width="1.34" height="0.84" rx="0.14" transform="translate(-2.68 13.32) rotate(-11.17)" style="fill: #231f20"/>
      <path d="M65.23,23.26l2.12-.42a.16.16,0,0,0,.11-.17l0-.15a.1.1,0,0,0-.13-.08l-2.11.41a.14.14,0,0,0-.11.17l0,.15a.12.12,0,0,0,.13.09" transform="translate(0.51 0.13)" style="fill: #231f20"/>
      <rect x="65.48" y="24.01" width="1.34" height="0.84" rx="0.14" transform="translate(-2.97 13.41) rotate(-11.17)" style="fill: #231f20"/>
      <path d="M65.53,24.75l2.11-.41a.14.14,0,0,0,.11-.17l0-.15a.12.12,0,0,0-.13-.09l-2.12.42a.16.16,0,0,0-.11.17l0,.15a.1.1,0,0,0,.13.08" transform="translate(0.51 0.13)" style="fill: #231f20"/>
      <rect x="55.6" y="25.96" width="1.34" height="0.84" rx="0.14" transform="translate(-3.54 11.53) rotate(-11.17)" style="fill: #231f20"/>
      <path d="M56.89,26.05l-2.06.41a.18.18,0,0,0-.15.23h0a.2.2,0,0,0,.23.16l2-.4a.14.14,0,0,0,.11-.16l0-.15a.11.11,0,0,0-.13-.09" transform="translate(0.51 0.13)" style="fill: #231f20"/>
      <rect x="55.31" y="24.46" width="1.34" height="0.84" rx="0.14" transform="translate(-3.25 11.44) rotate(-11.17)" style="fill: #231f20"/>
      <path d="M56.59,24.55,54.54,25a.2.2,0,0,0-.16.23h0a.21.21,0,0,0,.24.16l2-.4a.13.13,0,0,0,.11-.16l0-.15a.11.11,0,0,0-.13-.09" transform="translate(0.51 0.13)" style="fill: #231f20"/>
      <rect x="55.01" y="22.96" width="1.34" height="0.84" rx="0.14" transform="translate(-2.97 11.36) rotate(-11.17)" style="fill: #231f20"/>
      <path d="M56.3,23.05l-2.06.41a.21.21,0,0,0-.16.24h0a.19.19,0,0,0,.24.15l2-.4a.14.14,0,0,0,.12-.16l0-.15a.12.12,0,0,0-.13-.09" transform="translate(0.51 0.13)" style="fill: #231f20"/>
      <rect x="54.71" y="21.46" width="1.34" height="0.84" rx="0.14" transform="translate(-2.68 11.27) rotate(-11.17)" style="fill: #231f20"/>
      <path d="M56,21.55,54,22a.21.21,0,0,0-.16.24h0a.2.2,0,0,0,.23.16l2-.4a.16.16,0,0,0,.11-.17l0-.15a.11.11,0,0,0-.13-.09" transform="translate(0.51 0.13)" style="fill: #231f20"/>
      <rect x="54.42" y="19.97" width="1.34" height="0.84" rx="0.14" transform="translate(-2.4 11.19) rotate(-11.17)" style="fill: #231f20"/>
      <path d="M55.71,20.06l-2.06.4a.21.21,0,0,0-.16.24h0a.21.21,0,0,0,.24.16l2-.4a.14.14,0,0,0,.11-.17l0-.15a.09.09,0,0,0-.12-.08" transform="translate(0.51 0.13)" style="fill: #231f20"/>
      <rect x="54.12" y="18.47" width="1.34" height="0.84" rx="0.14" transform="translate(-2.11 11.1) rotate(-11.17)" style="fill: #231f20"/>
      <path d="M55.41,18.56l-2.06.4a.2.2,0,0,0-.15.24h0a.2.2,0,0,0,.23.16l2-.4a.16.16,0,0,0,.11-.17l0-.15a.11.11,0,0,0-.13-.08" transform="translate(0.51 0.13)" style="fill: #231f20"/>
      <rect x="55.33" y="16.79" width="0.84" height="1.34" rx="0.14" transform="translate(-1.82 11.26) rotate(-11.17)" style="fill: #231f20"/>
      <path d="M56.08,18.08,55.67,16a.21.21,0,0,0-.24-.16h0a.21.21,0,0,0-.16.24l.4,2a.14.14,0,0,0,.17.11l.15,0a.1.1,0,0,0,.09-.12" transform="translate(0.51 0.13)" style="fill: #231f20"/>
      <rect x="56.83" y="16.49" width="0.84" height="1.34" rx="0.14" transform="translate(-1.73 11.54) rotate(-11.17)" style="fill: #231f20"/>
      <rect x="58.33" y="16.2" width="0.84" height="1.34" rx="0.14" transform="translate(-1.64 11.83) rotate(-11.17)" style="fill: #231f20"/>
      <path d="M59.07,17.48l-.42-2.11a.13.13,0,0,0-.16-.11l-.12,0a.14.14,0,0,0-.11.17l.41,2.08a.14.14,0,0,0,.17.11l.15,0a.11.11,0,0,0,.08-.13" transform="translate(0.51 0.13)" style="fill: #231f20"/>
      <rect x="59.82" y="15.9" width="0.84" height="1.34" rx="0.14" transform="translate(-1.56 12.11) rotate(-11.17)" style="fill: #231f20"/>
      <path d="M60.57,17.19l-.42-2.12A.14.14,0,0,0,60,15l-.12,0a.13.13,0,0,0-.11.16l.41,2.08a.15.15,0,0,0,.17.12l.14,0a.12.12,0,0,0,.09-.13" transform="translate(0.51 0.13)" style="fill: #231f20"/>
      <rect x="61.32" y="15.6" width="0.84" height="1.34" rx="0.14" transform="translate(-1.47 12.4) rotate(-11.17)" style="fill: #231f20"/>
      <rect x="62.82" y="15.31" width="0.84" height="1.34" rx="0.14" transform="translate(-1.39 12.68) rotate(-11.17)" style="fill: #231f20"/>
      <path d="M63.57,16.6l-.42-2.12a.16.16,0,0,0-.17-.11l-.11,0a.15.15,0,0,0-.12.17l.42,2.08a.13.13,0,0,0,.16.11l.15,0a.1.1,0,0,0,.09-.12" transform="translate(0.51 0.13)" style="fill: #231f20"/>
      <rect x="64.77" y="25.18" width="0.84" height="1.34" rx="0.14" transform="translate(-3.26 13.25) rotate(-11.17)" style="fill: #231f20"/>
      <path d="M64.86,25.24l.42,2.11a.14.14,0,0,0,.17.11l.11,0a.15.15,0,0,0,.12-.17l-.41-2.08a.14.14,0,0,0-.17-.11l-.15,0a.11.11,0,0,0-.09.13" transform="translate(0.51 0.13)" style="fill: #231f20"/>
      <rect x="63.27" y="25.48" width="0.84" height="1.34" rx="0.14" transform="translate(-3.35 12.96) rotate(-11.17)" style="fill: #231f20"/>
      <path d="M63.36,25.53l.42,2.12a.16.16,0,0,0,.17.11l.12,0a.14.14,0,0,0,.11-.16l-.41-2.08a.15.15,0,0,0-.17-.12l-.15,0a.12.12,0,0,0-.09.13" transform="translate(0.51 0.13)" style="fill: #231f20"/>
      <rect x="61.78" y="25.78" width="0.84" height="1.34" rx="0.14" transform="translate(-3.44 12.68) rotate(-11.17)" style="fill: #231f20"/>
      <path d="M61.87,25.83l.41,2.11a.14.14,0,0,0,.17.11l.12,0a.14.14,0,0,0,.11-.17l-.41-2.08a.14.14,0,0,0-.17-.11l-.15,0a.1.1,0,0,0-.08.13" transform="translate(0.51 0.13)" style="fill: #231f20"/>
      <rect x="60.28" y="26.07" width="0.84" height="1.34" rx="0.14" transform="translate(-3.52 12.39) rotate(-11.17)" style="fill: #231f20"/>
      <path d="M60.37,26.12l.42,2.12a.14.14,0,0,0,.16.11l.12,0a.14.14,0,0,0,.11-.17l-.41-2.08A.14.14,0,0,0,60.6,26l-.15,0a.1.1,0,0,0-.08.12" transform="translate(0.51 0.13)" style="fill: #231f20"/>
      <rect x="58.78" y="26.37" width="0.84" height="1.34" rx="0.14" transform="translate(-3.61 12.11) rotate(-11.17)" style="fill: #231f20"/>
      <path d="M58.87,26.42l.42,2.11a.14.14,0,0,0,.16.12l.12,0a.13.13,0,0,0,.11-.16l-.41-2.09a.14.14,0,0,0-.16-.11l-.15,0a.11.11,0,0,0-.09.13" transform="translate(0.51 0.13)" style="fill: #231f20"/>
      <rect x="57.28" y="26.66" width="0.84" height="1.34" rx="0.14" transform="translate(-3.69 11.82) rotate(-11.17)" style="fill: #231f20"/>
      <path d="M57.37,26.72l.42,2.11a.13.13,0,0,0,.17.11l.11,0a.14.14,0,0,0,.11-.17l-.41-2.08a.13.13,0,0,0-.16-.11l-.15,0a.11.11,0,0,0-.09.13" transform="translate(0.51 0.13)" style="fill: #231f20"/>
      <g>
        <path d="M65.22,25.81,57.66,27.3a1.13,1.13,0,0,1-1.34-.89l-1.49-7.56a1.13,1.13,0,0,1,.89-1.34L63.28,16a1.13,1.13,0,0,1,1.34.89l1.49,7.56a1.13,1.13,0,0,1-.89,1.34" transform="translate(0.51 0.13)" style="fill: #231f20"/>
        <path d="M57.44,27.54a1.36,1.36,0,0,1-1.33-1.09l-1.49-7.56a1.34,1.34,0,0,1,.2-1,1.36,1.36,0,0,1,.86-.58l7.56-1.49a1.34,1.34,0,0,1,1,.2,1.32,1.32,0,0,1,.58.86l1.49,7.56A1.35,1.35,0,0,1,65.26,26L57.7,27.51ZM63.5,16.21h-.18l-7.56,1.5a.88.88,0,0,0-.59.39,1,1,0,0,0-.14.7l1.5,7.56a.94.94,0,0,0,1.09.73l7.56-1.5a.93.93,0,0,0,.73-1.09L64.41,17a.88.88,0,0,0-.39-.59A1,1,0,0,0,63.5,16.21Z" transform="translate(0.51 0.13)" style="fill: #231f20"/>
      </g>
      <rect x="56.22" y="17.41" width="8.51" height="8.51" rx="0.4" transform="matrix(0.98, -0.19, 0.19, 0.98, -2.54, 12.25)" style="fill: #fff"/>
      <path d="M56.59,19.51a.54.54,0,0,0,.22-1s0,0,0,0a.54.54,0,0,0-.8.57.53.53,0,0,0,.62.41" transform="translate(0.51 0.13)" style="fill: #231f20"/>
    </g>
    <text transform="translate(165.64 298.65) scale(0.88 1)" style="font-size: 7px;fill: #231f20;font-family: GillSans-Bold, Gill Sans;font-weight: 700;letter-spacing: -0.03995028430738387em">Learn</text>
    <path d="M197.13,119.86v-1.45c0-7.22,4.27-9.83,7-10.52l3.78-.7" transform="translate(0.51 0.13)" style="fill: none;stroke: #231f20"/>
    <path d="M22,211.18c1.77-1.83,4.47-3.19,8.71-3.19h5.75" transform="translate(0.51 0.13)" style="fill: none;stroke: #231f20"/>
    <path d="M19.49,100c1.77-1.83,4.47-3.19,8.71-3.19h3.59" transform="translate(0.51 0.13)" style="fill: none;stroke: #231f20"/>
    <path d="M192.14,210.87h6A14.68,14.68,0,0,0,208,207.1l1.63-1.63" transform="translate(0.51 0.13)" style="fill: none;stroke: #231f20"/>
    <text transform="translate(48.52 340.07) scale(0.88 1)" style="font-size: 7px;fill: #231f20;font-family: GillSans-Bold, Gill Sans;font-weight: 700;letter-spacing: -0.03995028430738387em">Balance</text>
    <text transform="translate(162.36 339.92) scale(0.88 1)" style="font-size: 7px;fill: #231f20;font-family: GillSans-Bold, Gill Sans;font-weight: 700;letter-spacing: -0.040029550744501693em">Freeze</text>
    <path d="M59.86,338.25" transform="translate(0.51 0.13)" style="fill: none;stroke: #231f20;stroke-width: 1.05px"/>
    <text transform="translate(13.16 327.95) scale(0.88 1)" style="font-size: 8px;fill: #231f20;font-family: GillSans-Bold, Gill Sans;font-weight: 700;letter-spacing: -0.03995028430738387em">Root</text>
    <text transform="translate(195.44 61.3) scale(0.88 1)" style="font-size: 6px;fill: #fff;font-family: GillSans-SemiBold, Gill Sans;font-weight: 600;letter-spacing: -0.03995028430738387em">Delete Note</text>
    <polyline points="157.6 298.61 161.01 298.61 161.01 293.26 162.98 293.26 162.98 298.61" style="fill: none;stroke: #231f20;stroke-linecap: square;stroke-width: 0.5px"/>
    <polyline points="155.58 339.89 158.99 339.89 158.99 334.53 160.96 334.53 160.96 339.89" style="fill: none;stroke: #231f20;stroke-linecap: square;stroke-width: 0.5px"/>
    <path d="M5.23,260.74c0-8.08,7-14.63,15.71-14.63s15.72,6.55,15.72,14.63v64.13c0,8.08-7,14.63-15.72,14.63S5.23,333,5.23,324.87Z" transform="translate(0.51 0.13)" style="fill: none;stroke: #231f20;stroke-width: 1.05091px"/>
    <path d="M114.63,243.49a95.45,95.45,0,0,0-27.32,3.66L54.93,258l-1.93.69c-6.1,2.23-10.37,7.52-10.37,13.55v44.9c0,.3,0,16.44,0,16.73l0-41.18V333c0,8.08,7,13.19,15.72,13.19A33.93,33.93,0,0,0,70.28,344l.35-.14c19.09-7.62,44-7,44-7s24.77-.51,43.86,7.1l.35.14c3.26,1.45,8.64,2.05,12.08,2.05,8.68,0,15.71-5.11,15.71-13.19V292.69l0,41.18c0-.29,0-16.43,0-16.73v-44.9c0-6-4.27-11.32-10.36-13.55l-1.94-.69L142,247.15A95.47,95.47,0,0,0,114.63,243.49Z" transform="translate(0.51 0.13)" style="fill: none;stroke: #231f20;stroke-width: 1.05091px"/>
  </g>
  <g/></svg>