<svg xmlns="http://www.w3.org/2000/svg" width="76.29mm" height="130.28mm" viewBox="0 0 216.25 369.31">
  <g id="faceplate">
    <rect x="0.13" y="0.13" width="216" height="364.25" style="fill: #ededed;stroke: #9d9d9e;stroke-miterlimit: 10;stroke-width: 0.25px" />
    <path d="M198.41,316V292.79H176.87c-7.49,0-13.57,7-13.57,15.71v31.85h29.47a5.67,5.67,0,0,0,5.64-5.67V316Z" />
    <g>
      <path d="M41.86,129H39.39v2.74H37.6V125h4.26v1.36H39.39v1.31h2.47Z" />
      <path d="M49.64,131.73H47.85v-3.92l-1.62,2.27h-.14l-1.63-2.27v3.92H42.72V125h1.63l1.83,2.54L48,125h1.62Z" />
    </g>
    <path d="M43.62,85.73a19.9,19.9,0,0,0-2.45.17l-.39-2.21a21.4,21.4,0,0,1,5.69,0l-.39,2.21A19.92,19.92,0,0,0,43.62,85.73Z" />
    <path d="M29.13,92.11l-1.72-1.45A22.06,22.06,0,0,1,31.75,87l1.12,1.94A19.57,19.57,0,0,0,29.13,92.11Z" />
    <path d="M34.6,87.94l-1.13-2A21.87,21.87,0,0,1,38.81,84l.39,2.21A19.19,19.19,0,0,0,34.6,87.94Z" />
    <path d="M25.39,97.87l-2.1-.76a22.4,22.4,0,0,1,2.83-4.92l1.73,1.45A19.81,19.81,0,0,0,25.39,97.87Z" />
    <path d="M48.05,86.25,48.44,84A21.64,21.64,0,0,1,53.77,86l-1.12,2A19.19,19.19,0,0,0,48.05,86.25Z" />
    <path d="M23.91,104.57H21.65a21.88,21.88,0,0,1,1-5.58l2.11.77A19.6,19.6,0,0,0,23.91,104.57Z" />
    <path d="M24.77,111.37l-2.1.76a22,22,0,0,1-1-5.56H23.9A19.92,19.92,0,0,0,24.77,111.37Z" />
    <path d="M27.91,117.45l-1.71,1.44A22.06,22.06,0,0,1,23.36,114l2.1-.77A20.12,20.12,0,0,0,27.91,117.45Z" />
    <path d="M59.4,93.64l1.73-1.45A22.4,22.4,0,0,1,64,97.11l-2.1.76A19.81,19.81,0,0,0,59.4,93.64Z" />
    <path d="M62.53,99.75,64.64,99a21.81,21.81,0,0,1,1,5.58H63.34A19.68,19.68,0,0,0,62.53,99.75Z" />
    <path d="M63.35,106.57h2.24a22.09,22.09,0,0,1-1,5.56l-2.1-.76A19.92,19.92,0,0,0,63.35,106.57Z" />
    <path d="M61.79,113.24l2.1.77a21.68,21.68,0,0,1-2.84,4.88l-1.71-1.44A19.7,19.7,0,0,0,61.79,113.24Z" />
    <path d="M32.93,122.09,31.81,124a21.74,21.74,0,0,1-4.31-3.61L29.21,119A19.62,19.62,0,0,0,32.93,122.09Z" />
    <path d="M58,119l1.72,1.44A22.09,22.09,0,0,1,55.44,124l-1.12-1.93A19.31,19.31,0,0,0,58,119Z" />
    <path d="M54.38,88.94,55.5,87a22.41,22.41,0,0,1,4.35,3.66L58.12,92.1A19.88,19.88,0,0,0,54.38,88.94Z" />
    <g>
      <path d="M29.51,191h-1.8v-3.92l-1.62,2.27H26l-1.63-2.27V191H22.58v-6.77h1.63L26,186.76l1.84-2.54h1.63Z" />
      <path d="M35.23,188.5a3,3,0,0,1-.28,1.32,2.15,2.15,0,0,1-.85.92,3,3,0,0,1-2.75,0,2.15,2.15,0,0,1-.85-.92,3.29,3.29,0,0,1-.12-2.34,2.13,2.13,0,0,1,1.26-1.36,2.78,2.78,0,0,1,1.08-.19,2.88,2.88,0,0,1,1.1.19,2.1,2.1,0,0,1,.78.54,2.35,2.35,0,0,1,.48.81A3.33,3.33,0,0,1,35.23,188.5Zm-1.62,0a1.64,1.64,0,0,0-.23-.93.82.82,0,0,0-1.31,0,1.64,1.64,0,0,0-.22.93,1.55,1.55,0,0,0,.23.92.72.72,0,0,0,.64.35.76.76,0,0,0,.66-.34A1.68,1.68,0,0,0,33.61,188.5Z" />
      <path d="M40.31,191H38.76v-.45a2.39,2.39,0,0,1-.52.38,1.56,1.56,0,0,1-.75.15,1.83,1.83,0,0,1-.94-.26,2.07,2.07,0,0,1-.75-.84,3.06,3.06,0,0,1-.3-1.43,3.82,3.82,0,0,1,.22-1.28,2.26,2.26,0,0,1,.7-1,1.84,1.84,0,0,1,1.17-.37,1.74,1.74,0,0,1,.7.11,1.8,1.8,0,0,1,.47.27v-2.09h1.55Zm-1.55-1.59v-1.89a4,4,0,0,0-.42-.25.8.8,0,0,0-.36-.07.73.73,0,0,0-.61.35,1.66,1.66,0,0,0-.24,1,1.47,1.47,0,0,0,.25,1,.78.78,0,0,0,.6.3.94.94,0,0,0,.45-.1A1.35,1.35,0,0,0,38.76,189.4Z" />
      <path d="M44.36,189.54a1.51,1.51,0,0,1-.44,1.11,1.82,1.82,0,0,1-1.31.42,3.22,3.22,0,0,1-.86-.1,6.25,6.25,0,0,1-.83-.28v-1.25a4.52,4.52,0,0,0,.68.38,1.46,1.46,0,0,0,.63.14c.39,0,.58-.12.58-.36a.29.29,0,0,0-.08-.22,1.08,1.08,0,0,0-.29-.22l-.56-.28a2.43,2.43,0,0,1-.73-.58,1.32,1.32,0,0,1-.3-.88,1.45,1.45,0,0,1,.2-.72,1.46,1.46,0,0,1,.6-.55,2,2,0,0,1,1-.22l.35,0a3,3,0,0,1,.54.11,2.77,2.77,0,0,1,.61.27v1.21l-.23-.15-.24-.14a1.78,1.78,0,0,0-.37-.14,1.52,1.52,0,0,0-.42-.06.51.51,0,0,0-.37.11.36.36,0,0,0-.1.24.32.32,0,0,0,.1.22,2,2,0,0,0,.46.27,3.9,3.9,0,0,1,.83.46,1.41,1.41,0,0,1,.44.52A1.54,1.54,0,0,1,44.36,189.54Z" />
      <path d="M49.52,191H48v-2.64a1,1,0,0,0,0-.11,1.59,1.59,0,0,0-.14-.66.5.5,0,0,0-.51-.29.7.7,0,0,0-.51.22,2.93,2.93,0,0,0-.43.56V191H44.85v-6.77h1.54v2.51a2.21,2.21,0,0,1,.76-.63,1.8,1.8,0,0,1,.8-.17c1,0,1.57.67,1.57,2Z" />
      <path d="M54.63,190.74A5.67,5.67,0,0,1,54,191a2.31,2.31,0,0,1-.69.09.75.75,0,0,1-.53-.15,1,1,0,0,1-.22-.37,2.34,2.34,0,0,1-.55.38,2,2,0,0,1-.8.14,1.46,1.46,0,0,1-.77-.18,1,1,0,0,1-.41-.48,1.48,1.48,0,0,1-.12-.59,1.35,1.35,0,0,1,.2-.75,1.66,1.66,0,0,1,.55-.5,7.94,7.94,0,0,1,.91-.39l.49-.18.25-.09.17-.09a1,1,0,0,0-.13-.57c-.09-.14-.27-.2-.56-.2a1.81,1.81,0,0,0-.94.25,3.46,3.46,0,0,0-.79.65v-1.34a2.49,2.49,0,0,1,.62-.39,3.18,3.18,0,0,1,.7-.22,3.64,3.64,0,0,1,.74-.07,2.12,2.12,0,0,1,1.43.42A1.43,1.43,0,0,1,54,187.5v1.91a1.39,1.39,0,0,0,0,.41.18.18,0,0,0,.17.14.88.88,0,0,0,.39-.15Zm-2.15-1v-1.18a3.9,3.9,0,0,0-.81.46.67.67,0,0,0-.25.54.53.53,0,0,0,.13.39.41.41,0,0,0,.29.13.66.66,0,0,0,.32-.1Z" />
      <path d="M59.57,188.47a3.42,3.42,0,0,1-.13,1,2.67,2.67,0,0,1-.38.84,1.93,1.93,0,0,1-.65.59,2,2,0,0,1-.94.21,1.84,1.84,0,0,1-.68-.1,3.45,3.45,0,0,1-.49-.27v2.55H54.76V186H56.3v.45a2.15,2.15,0,0,1,.52-.39,1.6,1.6,0,0,1,.76-.15,1.85,1.85,0,0,1,.94.27,2,2,0,0,1,.75.83A3.07,3.07,0,0,1,59.57,188.47Zm-1.63,0a1.85,1.85,0,0,0-.12-.73.93.93,0,0,0-.33-.41.75.75,0,0,0-.41-.12.88.88,0,0,0-.45.1,1.79,1.79,0,0,0-.33.25v1.9l.18.11.18.1.2.08a.78.78,0,0,0,.22,0,.73.73,0,0,0,.62-.35A1.65,1.65,0,0,0,57.94,188.51Z" />
      <path d="M64.51,188.93H61.43a1.21,1.21,0,0,0,.44.74,1.23,1.23,0,0,0,.8.29,3.77,3.77,0,0,0,1.72-.5v1.09a4.56,4.56,0,0,1-.82.36,3.86,3.86,0,0,1-1.23.16,2.56,2.56,0,0,1-1.37-.34,2.09,2.09,0,0,1-.85-.92,3,3,0,0,1-.28-1.33,2.9,2.9,0,0,1,.28-1.31,2,2,0,0,1,.85-.91,2.65,2.65,0,0,1,1.37-.33,2.1,2.1,0,0,1,1,.26,2,2,0,0,1,.82.85,3.28,3.28,0,0,1,.32,1.53Zm-1.46-.87a1.35,1.35,0,0,0-.2-.77.7.7,0,0,0-.6-.28.76.76,0,0,0-.63.29,1.14,1.14,0,0,0-.24.76Z" />
    </g>
    <path d="M43.3,145a19.9,19.9,0,0,0-2.45.17L40.46,143a21.32,21.32,0,0,1,5.68,0l-.38,2.21A20.06,20.06,0,0,0,43.3,145Z" />
    <path d="M28.81,151.36l-1.73-1.45a22.4,22.4,0,0,1,4.34-3.66l1.12,1.95A19.77,19.77,0,0,0,28.81,151.36Z" />
    <path d="M34.27,147.19l-1.12-1.94a22.31,22.31,0,0,1,5.34-2l.39,2.22A19.85,19.85,0,0,0,34.27,147.19Z" />
    <path d="M25.07,157.13l-2.1-.77a22.16,22.16,0,0,1,2.83-4.91l1.73,1.45A19.81,19.81,0,0,0,25.07,157.13Z" />
    <path d="M47.72,145.51l.39-2.22a21.74,21.74,0,0,1,5.34,2l-1.12,1.94A19.68,19.68,0,0,0,47.72,145.51Z" />
    <path d="M23.59,163.82H21.33a22,22,0,0,1,1-5.58l2.11.77A19.14,19.14,0,0,0,23.59,163.82Z" />
    <path d="M24.45,170.62l-2.1.77a21.73,21.73,0,0,1-1-5.57h2.24A19.74,19.74,0,0,0,24.45,170.62Z" />
    <path d="M27.59,176.7l-1.72,1.44A22.39,22.39,0,0,1,23,173.27l2.11-.77A19.39,19.39,0,0,0,27.59,176.7Z" />
    <path d="M59.08,152.9l1.72-1.45a21.78,21.78,0,0,1,2.83,4.91l-2.1.77A19.77,19.77,0,0,0,59.08,152.9Z" />
    <path d="M62.21,159l2.11-.77a22,22,0,0,1,1,5.58H63A19.6,19.6,0,0,0,62.21,159Z" />
    <path d="M63,165.82h2.24a22.17,22.17,0,0,1-1,5.57l-2.1-.77A19.74,19.74,0,0,0,63,165.82Z" />
    <path d="M61.47,172.5l2.1.77a22.22,22.22,0,0,1-2.84,4.87L59,176.7A20.05,20.05,0,0,0,61.47,172.5Z" />
    <path d="M32.61,181.35l-1.12,1.93a22.45,22.45,0,0,1-4.32-3.61l1.71-1.44A20.06,20.06,0,0,0,32.61,181.35Z" />
    <path d="M57.72,178.23l1.71,1.43a21.57,21.57,0,0,1-4.32,3.62L54,181.35A20,20,0,0,0,57.72,178.23Z" />
    <path d="M54.06,148.2l1.12-1.95a22.06,22.06,0,0,1,4.34,3.66l-1.73,1.45A19.77,19.77,0,0,0,54.06,148.2Z" />
    <g>
      <path d="M35.13,234.33a2,2,0,0,1-.09.59,1.77,1.77,0,0,1-.29.54,1.54,1.54,0,0,1-.55.4,2,2,0,0,1-.81.15h-.94v2H31v-5.41h2.38a1.86,1.86,0,0,1,.81.16,1.54,1.54,0,0,1,.55.4,1.71,1.71,0,0,1,.29.55A2,2,0,0,1,35.13,234.33Zm-1.46,0a.62.62,0,0,0-.2-.53,1.35,1.35,0,0,0-.72-.14h-.3V235h.31a2.05,2.05,0,0,0,.55-.05.41.41,0,0,0,.27-.18A.76.76,0,0,0,33.67,234.34Z" />
      <path d="M41.19,238H39.76v-3.13l-1.3,1.81h-.11l-1.3-1.81V238h-1.4v-5.41H37l1.47,2,1.47-2h1.3Z" />
    </g>
    <g>
      <path d="M80.25,236.47a1.67,1.67,0,0,1-.22.88,1.53,1.53,0,0,1-.64.57,2.16,2.16,0,0,1-.94.19,2.43,2.43,0,0,1-.36,0,2.65,2.65,0,0,1-.57-.12,3.43,3.43,0,0,1-.74-.29v-1.32a4.4,4.4,0,0,0,.71.42,1.71,1.71,0,0,0,.74.17.61.61,0,0,0,.48-.14.41.41,0,0,0-.08-.63,2.14,2.14,0,0,0-.54-.31,4.49,4.49,0,0,1-.69-.41,2,2,0,0,1-.48-.55,1.65,1.65,0,0,1-.19-.79,1.74,1.74,0,0,1,.19-.79,1.43,1.43,0,0,1,.58-.56,2,2,0,0,1,1-.21,2.9,2.9,0,0,1,.74.08,3.56,3.56,0,0,1,.56.2l.3.17v1.27a3.62,3.62,0,0,0-.65-.42,1.6,1.6,0,0,0-.77-.19.54.54,0,0,0-.39.12.39.39,0,0,0,0,.56,1.82,1.82,0,0,0,.43.29,8.23,8.23,0,0,1,.88.52,1.93,1.93,0,0,1,.52.55A1.45,1.45,0,0,1,80.25,236.47Z" />
      <path d="M83.74,237.86a3,3,0,0,1-.32.12l-.39.1a3.38,3.38,0,0,1-.47,0,1.93,1.93,0,0,1-1-.22,1.63,1.63,0,0,1-.61-.55,2.15,2.15,0,0,1-.3-.68,2.4,2.4,0,0,1,0-1.23,2.23,2.23,0,0,1,.3-.67,1.58,1.58,0,0,1,.6-.54,2,2,0,0,1,1-.22,2.68,2.68,0,0,1,.63.06,3.28,3.28,0,0,1,.5.17v1.1a3.18,3.18,0,0,0-1-.22.85.85,0,0,0-.58.23.9.9,0,0,0-.26.7,1,1,0,0,0,.13.54.82.82,0,0,0,.32.32.94.94,0,0,0,.39.1,1.42,1.42,0,0,0,.43-.07c.15,0,.35-.1.57-.18Z" />
      <path d="M87.69,237.84a3.25,3.25,0,0,1-.5.2,1.79,1.79,0,0,1-.55.07.6.6,0,0,1-.43-.12.64.64,0,0,1-.17-.3,1.63,1.63,0,0,1-.44.3,1.49,1.49,0,0,1-.64.12,1.14,1.14,0,0,1-.62-.15.76.76,0,0,1-.33-.38,1.23,1.23,0,0,1-.09-.47,1,1,0,0,1,.16-.6,1.31,1.31,0,0,1,.44-.4,5,5,0,0,1,.73-.31l.39-.14.19-.08.14-.07a.81.81,0,0,0-.1-.45.5.5,0,0,0-.45-.17,1.5,1.5,0,0,0-.75.2,2.86,2.86,0,0,0-.64.53v-1.08a2.18,2.18,0,0,1,.5-.31,2.26,2.26,0,0,1,.56-.17,3,3,0,0,1,.59-.06,1.73,1.73,0,0,1,1.15.33,1.17,1.17,0,0,1,.38.92v1.54a.89.89,0,0,0,0,.32.13.13,0,0,0,.13.11.72.72,0,0,0,.31-.11ZM86,237.08v-.94a3.3,3.3,0,0,0-.64.37.5.5,0,0,0-.2.44.4.4,0,0,0,.1.3.3.3,0,0,0,.23.11.52.52,0,0,0,.26-.08Z" />
      <path d="M91.54,238H90.3V235.9a1.62,1.62,0,0,0-.09-.57.41.41,0,0,0-.42-.25.5.5,0,0,0-.27.07,1,1,0,0,0-.2.16l-.15.2a1.37,1.37,0,0,0-.13.2V238H87.8v-4H89v.57a1.73,1.73,0,0,1,.58-.5,1.45,1.45,0,0,1,.66-.14q1.26,0,1.26,1.71Z" />
    </g>
    <g>
      <path d="M130.8,238h-1.47l-.39-1.09h-2.07l-.4,1.09H125l2.11-5.41h1.59Zm-2.19-2-.7-2-.7,2Z" />
      <path d="M134.65,238h-1.24v-.36a1.75,1.75,0,0,1-.42.31,1.22,1.22,0,0,1-.6.12,1.5,1.5,0,0,1-1.35-.88,2.45,2.45,0,0,1-.24-1.15,2.79,2.79,0,0,1,.18-1,1.71,1.71,0,0,1,.56-.78,1.49,1.49,0,0,1,.93-.29,1.71,1.71,0,0,1,.56.08,1.57,1.57,0,0,1,.38.22v-1.67h1.24Zm-1.24-1.26v-1.52l-.34-.2a.65.65,0,0,0-.29-.06.56.56,0,0,0-.48.29,1.29,1.29,0,0,0-.2.76,1.16,1.16,0,0,0,.21.77.59.59,0,0,0,.47.24.74.74,0,0,0,.36-.08A1.56,1.56,0,0,0,133.41,236.78Z" />
      <path d="M138.85,238h-1.24v-.36a1.92,1.92,0,0,1-.41.31,1.29,1.29,0,0,1-.61.12,1.52,1.52,0,0,1-.75-.21,1.65,1.65,0,0,1-.6-.67,2.45,2.45,0,0,1-.24-1.15,2.79,2.79,0,0,1,.18-1,1.78,1.78,0,0,1,.56-.78,1.55,1.55,0,0,1,.94-.29,1.64,1.64,0,0,1,.55.08,1.4,1.4,0,0,1,.38.22v-1.67h1.24Zm-1.24-1.26v-1.52l-.34-.2A.61.61,0,0,0,137,235a.58.58,0,0,0-.49.29,1.3,1.3,0,0,0-.19.76,1.16,1.16,0,0,0,.2.77.61.61,0,0,0,.48.24.8.8,0,0,0,.36-.08A1.21,1.21,0,0,0,137.61,236.78Z" />
    </g>
    <g>
      <path d="M175.69,238h-1.54l-.37-1a4.2,4.2,0,0,0-.38-.77.77.77,0,0,0-.32-.31.93.93,0,0,0-.4-.07h-.16V238h-1.44v-5.41h2.44a1.61,1.61,0,0,1,1,.27,1.59,1.59,0,0,1,.55.67,1.93,1.93,0,0,1,.17.74,1.6,1.6,0,0,1-.14.69,1.17,1.17,0,0,1-.3.41,3,3,0,0,1-.34.25,1.45,1.45,0,0,1,.38.36,5.45,5.45,0,0,1,.4.85Zm-1.95-3.7a.57.57,0,0,0-.22-.52,1.23,1.23,0,0,0-.7-.15h-.3V235h.31a1.36,1.36,0,0,0,.72-.13A.55.55,0,0,0,173.74,234.34Z" />
      <path d="M179.45,236.4H177a.93.93,0,0,0,.35.59,1,1,0,0,0,.64.23,2.93,2.93,0,0,0,1.38-.4v.87a2.9,2.9,0,0,1-.66.29,3,3,0,0,1-1,.13,2.11,2.11,0,0,1-1.1-.27,1.73,1.73,0,0,1-.68-.74,2.43,2.43,0,0,1-.23-1.06,2.38,2.38,0,0,1,.23-1,1.71,1.71,0,0,1,.68-.73,2.11,2.11,0,0,1,1.1-.26,1.72,1.72,0,0,1,.82.21,1.61,1.61,0,0,1,.66.68,2.57,2.57,0,0,1,.25,1.22Zm-1.16-.7a1,1,0,0,0-.17-.61.56.56,0,0,0-.48-.23.64.64,0,0,0-.5.23,1,1,0,0,0-.19.61Z" />
      <path d="M182.51,236.88a1.16,1.16,0,0,1-.35.89,1.42,1.42,0,0,1-1,.34,2.54,2.54,0,0,1-.7-.08,6.36,6.36,0,0,1-.66-.22v-1a4.52,4.52,0,0,0,.55.3,1.18,1.18,0,0,0,.5.11c.31,0,.47-.1.47-.29a.28.28,0,0,0-.07-.17,1,1,0,0,0-.23-.18c-.12-.06-.26-.14-.45-.22a1.88,1.88,0,0,1-.58-.46,1.09,1.09,0,0,1-.24-.71,1.07,1.07,0,0,1,.16-.57,1.17,1.17,0,0,1,.48-.45,1.67,1.67,0,0,1,.78-.17h.28a4.11,4.11,0,0,1,.43.1,2.13,2.13,0,0,1,.49.21v1l-.18-.13-.2-.11a1.6,1.6,0,0,0-.29-.11,1.27,1.27,0,0,0-.34-.05.34.34,0,0,0-.29.1.24.24,0,0,0-.08.18.22.22,0,0,0,.08.18,1.11,1.11,0,0,0,.37.21,3.88,3.88,0,0,1,.66.37,1.23,1.23,0,0,1,.35.42A1.25,1.25,0,0,1,182.51,236.88Z" />
      <path d="M186.49,236.4H184a1,1,0,0,0,.35.59,1,1,0,0,0,.64.23,2.93,2.93,0,0,0,1.38-.4v.87a2.9,2.9,0,0,1-.66.29,3,3,0,0,1-1,.13,2.11,2.11,0,0,1-1.1-.27,1.73,1.73,0,0,1-.68-.74,2.42,2.42,0,0,1-.22-1.06,2.38,2.38,0,0,1,.22-1,1.71,1.71,0,0,1,.68-.73,2.11,2.11,0,0,1,1.1-.26,1.72,1.72,0,0,1,.82.21,1.61,1.61,0,0,1,.66.68,2.57,2.57,0,0,1,.25,1.22Zm-1.16-.7a1,1,0,0,0-.17-.61.56.56,0,0,0-.48-.23.64.64,0,0,0-.5.23,1,1,0,0,0-.19.61Z" />
      <path d="M189.58,237.81a3.23,3.23,0,0,1-.53.21,2.54,2.54,0,0,1-.65.09c-.89,0-1.34-.49-1.34-1.48V235h-.56v-.24l1.66-1.92h.14v1.19h1.19v1H188.3v1.28a1.73,1.73,0,0,0,0,.36.39.39,0,0,0,.13.23.55.55,0,0,0,.34.09,1.76,1.76,0,0,0,.78-.28Z" />
    </g>
    <g>
      <path d="M34.66,287.08H33.22v-3.14l-1.3,1.82h-.11l-1.3-1.82v3.14H29.12v-5.42h1.3l1.46,2,1.47-2h1.31Z" />
      <path d="M39.24,285.09a2.35,2.35,0,0,1-.23,1.05,1.62,1.62,0,0,1-.68.74,2.09,2.09,0,0,1-1.1.27,2.11,2.11,0,0,1-1.1-.27,1.68,1.68,0,0,1-.68-.74,2.35,2.35,0,0,1-.22-1.05,2.62,2.62,0,0,1,.12-.82,2,2,0,0,1,.38-.65,1.92,1.92,0,0,1,.64-.44,2.28,2.28,0,0,1,.86-.15,2.23,2.23,0,0,1,.88.16,1.65,1.65,0,0,1,.63.43,1.81,1.81,0,0,1,.37.65A2.35,2.35,0,0,1,39.24,285.09Zm-1.3,0a1.28,1.28,0,0,0-.18-.74.65.65,0,0,0-1,0,1.28,1.28,0,0,0-.18.74,1.33,1.33,0,0,0,.18.74.65.65,0,0,0,1,0A1.33,1.33,0,0,0,37.94,285.09Z" />
      <path d="M43.3,287.08H42.06v-.36a2.33,2.33,0,0,1-.41.31,1.29,1.29,0,0,1-.61.12,1.44,1.44,0,0,1-.75-.22,1.59,1.59,0,0,1-.6-.67,2.41,2.41,0,0,1-.24-1.14,2.88,2.88,0,0,1,.18-1,1.75,1.75,0,0,1,.56-.77,1.49,1.49,0,0,1,.94-.3,1.38,1.38,0,0,1,.93.31v-1.68H43.3Zm-1.24-1.27v-1.52a3.44,3.44,0,0,0-.34-.19.61.61,0,0,0-.28-.06.57.57,0,0,0-.49.28,1.33,1.33,0,0,0-.19.77,1.13,1.13,0,0,0,.2.76.61.61,0,0,0,.48.24.66.66,0,0,0,.36-.08A1.21,1.21,0,0,0,42.06,285.81Z" />
    </g>
    <g>
      <path d="M83.34,287.08H81.87l-.39-1.1H79.41l-.4,1.1H77.54l2.11-5.42h1.59Zm-2.19-2-.7-2-.7,2Z" />
      <path d="M87.33,285.12a2.41,2.41,0,0,1-.24,1.14,1.59,1.59,0,0,1-.6.67,1.44,1.44,0,0,1-.75.22,1.39,1.39,0,0,1-.48-.07,1.11,1.11,0,0,1-.31-.16,2.05,2.05,0,0,1-.23-.2v.36H83.48v-5.42h1.24v1.68a1.17,1.17,0,0,1,.37-.22,1.64,1.64,0,0,1,.56-.09,1.54,1.54,0,0,1,.75.18,1.49,1.49,0,0,1,.53.47,2.34,2.34,0,0,1,.3.66A2.88,2.88,0,0,1,87.33,285.12Zm-1.3,0a1.25,1.25,0,0,0-.21-.78.58.58,0,0,0-.48-.27,1.08,1.08,0,0,0-.62.25v1.52a.8.8,0,0,0,.62.28.67.67,0,0,0,.46-.21A1.08,1.08,0,0,0,86,285.09Z" />
      <path d="M90.43,285.92a1.18,1.18,0,0,1-.36.89,1.42,1.42,0,0,1-1,.34,2.84,2.84,0,0,1-.69-.08,4.36,4.36,0,0,1-.66-.23v-1a3.58,3.58,0,0,0,.54.31,1.19,1.19,0,0,0,.51.1c.3,0,.46-.09.46-.28a.24.24,0,0,0-.07-.18.8.8,0,0,0-.23-.17l-.45-.23a1.74,1.74,0,0,1-.58-.46,1.07,1.07,0,0,1-.24-.71,1.12,1.12,0,0,1,.16-.57,1.14,1.14,0,0,1,.48-.44A1.61,1.61,0,0,1,89,283l.28,0a2.37,2.37,0,0,1,.43.09,2.13,2.13,0,0,1,.49.21v1l-.18-.12-.2-.11-.29-.12a1.27,1.27,0,0,0-.34,0,.37.37,0,0,0-.29.09.25.25,0,0,0,0,.37,1.51,1.51,0,0,0,.37.21A3.3,3.3,0,0,1,90,285a1.12,1.12,0,0,1,.35.41A1.27,1.27,0,0,1,90.43,285.92Z" />
    </g>
    <g>
      <path d="M131.06,287.08h-3.62v-5.42h1.44v4.12h2.18Z" />
      <path d="M132.71,287.08h-1.24v-4h1.24Zm-.1-4.9a.6.6,0,0,1-.15.42.5.5,0,0,1-.63.1.67.67,0,0,1-.19-.22.6.6,0,0,1-.07-.3.59.59,0,0,1,.15-.41.47.47,0,0,1,.74,0A.59.59,0,0,1,132.61,282.18Z" />
      <path d="M137,287.08h-1.24v-2.15a1.66,1.66,0,0,0-.09-.57.4.4,0,0,0-.42-.24.53.53,0,0,0-.26.06.68.68,0,0,0-.21.17l-.15.19-.13.2v2.34h-1.24v-4h1.24v.57a2,2,0,0,1,.59-.5,1.51,1.51,0,0,1,.65-.14q1.26,0,1.26,1.71Z" />
    </g>
    <g>
      <path d="M174.88,283.37a2,2,0,0,1-.09.59,1.48,1.48,0,0,1-.3.53,1.32,1.32,0,0,1-.54.4,1.91,1.91,0,0,1-.82.16h-.94v2h-1.44v-5.42h2.38a2.07,2.07,0,0,1,.82.16,1.58,1.58,0,0,1,.84.95A2,2,0,0,1,174.88,283.37Zm-1.47,0a.59.59,0,0,0-.2-.53,1.24,1.24,0,0,0-.72-.15h-.3V284h.31a2.51,2.51,0,0,0,.55-.05.49.49,0,0,0,.28-.19A.71.71,0,0,0,173.41,283.38Z" />
      <path d="M178.93,287.08h-1.24v-2.2a1.24,1.24,0,0,0-.1-.52.41.41,0,0,0-.41-.24.57.57,0,0,0-.41.18,2,2,0,0,0-.34.44v2.34h-1.24v-5.42h1.24v2a1.87,1.87,0,0,1,.6-.5,1.57,1.57,0,0,1,.64-.14c.84,0,1.26.54,1.26,1.61Z" />
      <path d="M183,286.88a3.56,3.56,0,0,1-.5.19,1.84,1.84,0,0,1-.56.08.59.59,0,0,1-.42-.12.75.75,0,0,1-.17-.3,2,2,0,0,1-.45.3,1.43,1.43,0,0,1-.64.12,1.1,1.1,0,0,1-.61-.15.8.8,0,0,1-.33-.38,1.1,1.1,0,0,1-.1-.47,1.13,1.13,0,0,1,.16-.61,1.28,1.28,0,0,1,.44-.39,6,6,0,0,1,.73-.32l.39-.14.2-.08.14-.07a.83.83,0,0,0-.11-.45c-.06-.11-.21-.16-.44-.16a1.47,1.47,0,0,0-.76.2,2.57,2.57,0,0,0-.63.52v-1.08a2.29,2.29,0,0,1,.5-.3,2.62,2.62,0,0,1,.56-.18A2.88,2.88,0,0,1,181,283a1.64,1.64,0,0,1,1.14.34,1.12,1.12,0,0,1,.38.92v1.53a1.22,1.22,0,0,0,0,.33.13.13,0,0,0,.13.1.64.64,0,0,0,.32-.11Zm-1.72-.76v-.94a3,3,0,0,0-.65.36.56.56,0,0,0-.2.44.48.48,0,0,0,.1.31.33.33,0,0,0,.24.1.49.49,0,0,0,.25-.08Z" />
      <path d="M185.86,285.92a1.18,1.18,0,0,1-.35.89,1.43,1.43,0,0,1-1,.34,2.84,2.84,0,0,1-.69-.08,4.77,4.77,0,0,1-.66-.23v-1a3.62,3.62,0,0,0,.55.31,1.18,1.18,0,0,0,.5.1c.31,0,.46-.09.46-.28a.28.28,0,0,0-.06-.18.88.88,0,0,0-.24-.17l-.44-.23a1.88,1.88,0,0,1-.59-.46,1.07,1.07,0,0,1-.24-.71,1.23,1.23,0,0,1,.16-.57,1.17,1.17,0,0,1,.49-.44,1.55,1.55,0,0,1,.78-.18l.28,0a2.55,2.55,0,0,1,.43.09,2.33,2.33,0,0,1,.49.21v1l-.18-.12-.2-.11L185,284a1.32,1.32,0,0,0-.34,0,.4.4,0,0,0-.3.09.29.29,0,0,0-.08.19.26.26,0,0,0,.09.18,1.33,1.33,0,0,0,.37.21,3.3,3.3,0,0,1,.66.37,1.12,1.12,0,0,1,.35.41A1.27,1.27,0,0,1,185.86,285.92Z" />
      <path d="M189.84,285.43h-2.46a.93.93,0,0,0,.35.59,1,1,0,0,0,.64.23,3,3,0,0,0,1.38-.39v.87a4.18,4.18,0,0,1-.66.29,3,3,0,0,1-1,.13,2.11,2.11,0,0,1-1.1-.27,1.76,1.76,0,0,1-.68-.75,2.53,2.53,0,0,1,0-2.11,1.63,1.63,0,0,1,.68-.72,2.11,2.11,0,0,1,1.1-.27,1.72,1.72,0,0,1,.82.21,1.59,1.59,0,0,1,.65.68,2.61,2.61,0,0,1,.26,1.23Zm-1.16-.7a1,1,0,0,0-.17-.61.56.56,0,0,0-.48-.23.62.62,0,0,0-.5.24.88.88,0,0,0-.19.6Z" />
    </g>
    <g>
      <path d="M32.16,330.63a1.9,1.9,0,0,1-.09.58,1.66,1.66,0,0,1-.29.54,1.54,1.54,0,0,1-.55.4,2,2,0,0,1-.81.16h-1v2H28v-5.42h2.38a1.86,1.86,0,0,1,.81.16,1.45,1.45,0,0,1,.55.41,1.57,1.57,0,0,1,.29.54A2,2,0,0,1,32.16,330.63Zm-1.46,0a.64.64,0,0,0-.2-.53,1.4,1.4,0,0,0-.72-.14h-.31v1.31h.31a2.51,2.51,0,0,0,.55,0,.49.49,0,0,0,.28-.19A.72.72,0,0,0,30.7,330.63Z" />
      <path d="M33.78,334.34H32.54v-4h1.24Zm-.1-4.9a.57.57,0,0,1-.16.42.48.48,0,0,1-.36.17.43.43,0,0,1-.27-.08.55.55,0,0,1-.19-.21.73.73,0,0,1-.06-.3.64.64,0,0,1,.15-.42.48.48,0,0,1,.37-.17.48.48,0,0,1,.36.17A.6.6,0,0,1,33.68,329.44Z" />
      <path d="M37.11,334.11a3.33,3.33,0,0,1-.53.2,2.57,2.57,0,0,1-.65.1c-.89,0-1.34-.5-1.34-1.49v-1.58H34v-.25l1.66-1.92h.14v1.19H37v1H35.83v1.27a1.73,1.73,0,0,0,0,.36.36.36,0,0,0,.13.23.55.55,0,0,0,.34.09,1.64,1.64,0,0,0,.78-.28Z" />
      <path d="M40.37,334.15l-.33.13a2.84,2.84,0,0,1-.39.09,3.28,3.28,0,0,1-.46,0,2.09,2.09,0,0,1-1-.22,1.84,1.84,0,0,1-.61-.56,2.4,2.4,0,0,1-.3-.68,3,3,0,0,1-.08-.61,2.57,2.57,0,0,1,.09-.62,2.07,2.07,0,0,1,.29-.67,1.62,1.62,0,0,1,.61-.54,2,2,0,0,1,1-.22,2.8,2.8,0,0,1,.63.06,3.58,3.58,0,0,1,.49.17v1.11a2.9,2.9,0,0,0-.94-.22.87.87,0,0,0-.59.22.91.91,0,0,0-.26.71,1.06,1.06,0,0,0,.13.53.84.84,0,0,0,.33.32.81.81,0,0,0,.39.1,1.76,1.76,0,0,0,.42-.06l.58-.18Z" />
      <path d="M44.42,334.34H43.19v-2.2a1.32,1.32,0,0,0-.11-.53.4.4,0,0,0-.4-.23.53.53,0,0,0-.41.17,2.42,2.42,0,0,0-.35.45v2.34H40.69v-5.42h1.23v2a1.66,1.66,0,0,1,.61-.5,1.53,1.53,0,0,1,.64-.14c.83,0,1.25.54,1.25,1.61Z" />
    </g>
    <g>
      <path d="M78.92,334.34H77.37l-.37-1a4.47,4.47,0,0,0-.37-.78.91.91,0,0,0-.32-.31,1.16,1.16,0,0,0-.41-.07h-.16v2.12H74.3v-5.42h2.45a1.59,1.59,0,0,1,1,.28,1.55,1.55,0,0,1,.54.66,1.93,1.93,0,0,1,.17.74,1.62,1.62,0,0,1-.14.7,1.4,1.4,0,0,1-.29.41,3.07,3.07,0,0,1-.35.24,1.67,1.67,0,0,1,.38.37,5,5,0,0,1,.41.84Zm-2-3.71a.59.59,0,0,0-.21-.52A1.29,1.29,0,0,0,76,330h-.3v1.31h.31a1.47,1.47,0,0,0,.72-.13A.58.58,0,0,0,77,330.63Z" />
      <path d="M82.72,334.14l-.51.19a1.73,1.73,0,0,1-.55.08.57.57,0,0,1-.43-.13.77.77,0,0,1-.17-.29,1.9,1.9,0,0,1-.44.3,1.46,1.46,0,0,1-.64.12,1.16,1.16,0,0,1-.62-.15.92.92,0,0,1-.33-.38,1.27,1.27,0,0,1-.09-.47,1,1,0,0,1,.16-.61,1.28,1.28,0,0,1,.44-.39,5.37,5.37,0,0,1,.73-.32l.39-.14.2-.08.13-.07a.83.83,0,0,0-.1-.45.5.5,0,0,0-.45-.17,1.42,1.42,0,0,0-.75.21,2.81,2.81,0,0,0-.64.52v-1.08a2.55,2.55,0,0,1,.5-.3,2.81,2.81,0,0,1,.56-.18,3,3,0,0,1,.59-.06,1.73,1.73,0,0,1,1.15.33,1.18,1.18,0,0,1,.38.92v1.54a1,1,0,0,0,0,.33.13.13,0,0,0,.13.1.8.8,0,0,0,.32-.11ZM81,333.38v-.95a3.64,3.64,0,0,0-.64.37.54.54,0,0,0-.2.44.4.4,0,0,0,.1.3.33.33,0,0,0,.23.11.52.52,0,0,0,.26-.08A2.07,2.07,0,0,0,81,333.38Z" />
      <path d="M86.56,334.34H85.32v-2.15a1.62,1.62,0,0,0-.09-.57.4.4,0,0,0-.42-.24.53.53,0,0,0-.26.06.68.68,0,0,0-.21.17,1.25,1.25,0,0,0-.15.19l-.13.2v2.34H82.82v-4h1.24v.57a1.77,1.77,0,0,1,.59-.5,1.51,1.51,0,0,1,.65-.14q1.26,0,1.26,1.71Z" />
      <path d="M90.54,331.21h-.61a1.06,1.06,0,0,1,.32.78,1.32,1.32,0,0,1-.09.48,1.18,1.18,0,0,1-.27.4,1.48,1.48,0,0,1-.43.29,2.2,2.2,0,0,1-.6.13c-.28,0-.43.1-.43.26a.17.17,0,0,0,.06.14.3.3,0,0,0,.17.06l.4.05a3.75,3.75,0,0,1,.6.11,1.12,1.12,0,0,1,.51.33,1,1,0,0,1,.24.71,1.13,1.13,0,0,1-.75,1.11,3.05,3.05,0,0,1-1,.16,2.56,2.56,0,0,1-1.37-.29.87.87,0,0,1-.44-.76.89.89,0,0,1,.06-.3.63.63,0,0,1,.24-.32,1,1,0,0,1,.53-.21.5.5,0,0,1-.21-.2.59.59,0,0,1-.09-.31.81.81,0,0,1,.12-.41.63.63,0,0,1,.41-.26,1.36,1.36,0,0,1-.67-.44,1.19,1.19,0,0,1-.29-.84,1.59,1.59,0,0,1,.13-.68,1.19,1.19,0,0,1,.37-.48,1.52,1.52,0,0,1,.54-.27,2.43,2.43,0,0,1,.68-.09h1.92Zm-1.12,3.87a.32.32,0,0,0-.25-.34,1.68,1.68,0,0,0-.5-.07,1.34,1.34,0,0,0-.62.1.35.35,0,0,0-.2.33c0,.3.27.44.8.44a1.14,1.14,0,0,0,.56-.11A.37.37,0,0,0,89.42,335.08Zm-.25-3.2a.65.65,0,0,0-.18-.48.55.55,0,0,0-.4-.18.54.54,0,0,0-.45.21.76.76,0,0,0-.16.47.67.67,0,0,0,.07.31.55.55,0,0,0,.2.23.49.49,0,0,0,.3.09.62.62,0,0,0,.45-.19A.69.69,0,0,0,89.17,331.88Z" />
      <path d="M94.29,332.69H91.83a.93.93,0,0,0,.35.59,1,1,0,0,0,.64.23,2.93,2.93,0,0,0,1.38-.4V334a4.18,4.18,0,0,1-.66.29,3.32,3.32,0,0,1-1,.13,2,2,0,0,1-1.1-.28,1.73,1.73,0,0,1-.68-.74,2.43,2.43,0,0,1-.23-1.06,2.38,2.38,0,0,1,.23-1.05,1.71,1.71,0,0,1,.68-.73,2.21,2.21,0,0,1,1.1-.26,1.72,1.72,0,0,1,.82.21,1.59,1.59,0,0,1,.65.68,2.61,2.61,0,0,1,.26,1.23Zm-1.16-.7a1,1,0,0,0-.17-.61.56.56,0,0,0-.48-.23.62.62,0,0,0-.5.24.88.88,0,0,0-.19.6Z" />
    </g>
    <g>
      <path d="M130.7,332.15h-2v2.19h-1.44v-5.42h3.42V330h-2v1.05h2Z" />
      <path d="M136.92,334.34h-1.44V331.2L134.19,333h-.12l-1.3-1.82v3.14h-1.39v-5.42h1.3l1.47,2,1.47-2h1.3Z" />
    </g>
    <g>
      <path d="M179.19,331.63a3.21,3.21,0,0,1-.3,1.39,2.42,2.42,0,0,1-.92,1,3.08,3.08,0,0,1-3,0,2.51,2.51,0,0,1-.91-1,3.36,3.36,0,0,1,0-2.73,2.42,2.42,0,0,1,.91-1,2.75,2.75,0,0,1,1.5-.39,3,3,0,0,1,1.18.22,2.42,2.42,0,0,1,.85.6,2.6,2.6,0,0,1,.5.89A3.16,3.16,0,0,1,179.19,331.63Zm-1.46,0a1.94,1.94,0,0,0-.08-.56,1.18,1.18,0,0,0-.24-.44,1.05,1.05,0,0,0-.39-.29,1.25,1.25,0,0,0-.53-.1,1.15,1.15,0,0,0-.91.38,1.5,1.5,0,0,0-.33,1,1.47,1.47,0,0,0,.33,1,1.15,1.15,0,0,0,.91.39,1.2,1.2,0,0,0,.67-.18,1.14,1.14,0,0,0,.43-.49A1.81,1.81,0,0,0,177.73,331.63Z" style="fill: #ededed" />
      <path d="M183.29,334.34h-1.24v-.57a2,2,0,0,1-.55.48,1.46,1.46,0,0,1-.69.16,1,1,0,0,1-1-.53,2.8,2.8,0,0,1-.24-1.18v-2.34h1.24v2.15a1.48,1.48,0,0,0,.1.57.39.39,0,0,0,.41.24.55.55,0,0,0,.43-.18,3,3,0,0,0,.32-.44v-2.34h1.24Z" style="fill: #ededed" />
      <path d="M186.56,334.11a3,3,0,0,1-.53.2,2.5,2.5,0,0,1-.65.1c-.89,0-1.33-.5-1.33-1.49v-1.58h-.56v-.25l1.66-1.92h.14v1.19h1.18v1h-1.18v1.27a1.84,1.84,0,0,0,0,.36.37.37,0,0,0,.14.23.51.51,0,0,0,.34.09,1.65,1.65,0,0,0,.77-.28Z" style="fill: #ededed" />
    </g>
    <g>
      <path d="M37.63,65.13H35.45v5.12H33.66V65.13H31.47V63.48h6.16Z" />
      <path d="M41.92,65.55l-.57,1.76a1,1,0,0,0-.72-.38.75.75,0,0,0-.56.25,2.64,2.64,0,0,0-.46.93v2.14H38.06v-5h1.55v1.2a2.58,2.58,0,0,1,.52-.87,1.1,1.1,0,0,1,.86-.42,1.08,1.08,0,0,1,.46.09A3.58,3.58,0,0,1,41.92,65.55Z" />
      <path d="M46.6,70l-.63.25a2.31,2.31,0,0,1-.69.09.69.69,0,0,1-.53-.16.81.81,0,0,1-.22-.37,2.34,2.34,0,0,1-.55.38,1.84,1.84,0,0,1-.8.15,1.35,1.35,0,0,1-.77-.19,1,1,0,0,1-.42-.47,1.71,1.71,0,0,1-.11-.59,1.29,1.29,0,0,1,.2-.76,1.63,1.63,0,0,1,.55-.49,6.37,6.37,0,0,1,.91-.4l.49-.18.24-.09a.76.76,0,0,0,.18-.09,1.08,1.08,0,0,0-.13-.56.63.63,0,0,0-.56-.21,1.81,1.81,0,0,0-.94.25,3.31,3.31,0,0,0-.8.66V65.87a2.52,2.52,0,0,1,.63-.38,2.72,2.72,0,0,1,.7-.22,3.63,3.63,0,0,1,.73-.08,2.11,2.11,0,0,1,1.43.42A1.44,1.44,0,0,1,46,66.76v1.92a1.37,1.37,0,0,0,0,.41.16.16,0,0,0,.16.13,1,1,0,0,0,.4-.14Zm-2.15-1V67.87a3.9,3.9,0,0,0-.81.46.66.66,0,0,0-.25.55.52.52,0,0,0,.13.38.37.37,0,0,0,.29.13.57.57,0,0,0,.32-.1Z" />
      <path d="M50.48,70l-.41.16a4.32,4.32,0,0,1-.48.11,3.61,3.61,0,0,1-.59,0,2.38,2.38,0,0,1-1.21-.28,2.07,2.07,0,0,1-.77-.69,2.75,2.75,0,0,1-.37-.85,3,3,0,0,1,0-1.54,2.84,2.84,0,0,1,.37-.84,2,2,0,0,1,.76-.67A2.42,2.42,0,0,1,49,65.19a3.37,3.37,0,0,1,.79.08,4.12,4.12,0,0,1,.62.21v1.38a3.79,3.79,0,0,0-1.18-.27,1,1,0,0,0-.73.28,1.09,1.09,0,0,0-.32.88,1.38,1.38,0,0,0,.15.67,1.12,1.12,0,0,0,.41.4,1.07,1.07,0,0,0,.49.12,1.84,1.84,0,0,0,.53-.08c.19,0,.44-.12.72-.22Z" />
      <path d="M56.08,70.25h-2l-1.68-2.36v2.36H50.87V63.48h1.56v4L54,65.28h1.85L54.11,67.6Z" />
    </g>
    <g>
      <path d="M43.62,24.25a19.9,19.9,0,0,0-2.45.17l-.39-2.21a21.4,21.4,0,0,1,5.69,0l-.39,2.21A19.92,19.92,0,0,0,43.62,24.25Z" />
      <path d="M29.13,30.63l-1.72-1.45a22.06,22.06,0,0,1,4.34-3.66l1.12,1.94A19.57,19.57,0,0,0,29.13,30.63Z" />
      <path d="M34.6,26.46l-1.13-1.95a21.87,21.87,0,0,1,5.34-2l.39,2.21A19.19,19.19,0,0,0,34.6,26.46Z" />
      <path d="M25.39,36.39l-2.1-.76a22.4,22.4,0,0,1,2.83-4.92l1.73,1.45A19.81,19.81,0,0,0,25.39,36.39Z" />
      <path d="M48.05,24.77l.39-2.21a21.64,21.64,0,0,1,5.33,2l-1.12,1.95A19.19,19.19,0,0,0,48.05,24.77Z" />
      <path d="M23.91,43.09H21.65a21.88,21.88,0,0,1,1-5.58l2.11.77A19.6,19.6,0,0,0,23.91,43.09Z" />
      <path d="M24.77,49.89l-2.1.76a22,22,0,0,1-1-5.56H23.9A19.92,19.92,0,0,0,24.77,49.89Z" />
      <path d="M27.91,56,26.2,57.41a22.06,22.06,0,0,1-2.84-4.88l2.1-.77A20.12,20.12,0,0,0,27.91,56Z" />
      <path d="M59.4,32.16l1.73-1.45A22.4,22.4,0,0,1,64,35.63l-2.1.76A19.81,19.81,0,0,0,59.4,32.16Z" />
      <path d="M62.53,38.27l2.11-.76a21.81,21.81,0,0,1,1,5.58H63.34A19.68,19.68,0,0,0,62.53,38.27Z" />
      <path d="M63.35,45.09h2.24a22.09,22.09,0,0,1-1,5.56l-2.1-.76A19.92,19.92,0,0,0,63.35,45.09Z" />
      <path d="M61.79,51.76l2.1.77a21.68,21.68,0,0,1-2.84,4.88L59.34,56A19.7,19.7,0,0,0,61.79,51.76Z" />
      <path d="M32.93,60.61l-1.12,1.93a21.74,21.74,0,0,1-4.31-3.61l1.71-1.44A19.62,19.62,0,0,0,32.93,60.61Z" />
      <path d="M58,57.49l1.72,1.44a22.09,22.09,0,0,1-4.32,3.61l-1.12-1.93A19.31,19.31,0,0,0,58,57.49Z" />
      <path d="M54.38,27.46l1.12-1.94a22.41,22.41,0,0,1,4.35,3.66l-1.73,1.44A19.88,19.88,0,0,0,54.38,27.46Z" />
    </g>
    <g>
      <path d="M107.17,70.25h-1.84l-.49-1.37h-2.59l-.49,1.37H99.92l2.64-6.77h2Zm-2.74-2.55-.87-2.47-.88,2.47Z" />
      <path d="M112.16,67.8a3,3,0,0,1-.3,1.43,2,2,0,0,1-.76.84,1.84,1.84,0,0,1-1.53.18,1.4,1.4,0,0,1-.39-.2,3,3,0,0,1-.29-.25v.45h-1.55V63.48h1.55v2.09a1.38,1.38,0,0,1,.47-.26,2.09,2.09,0,0,1,1.63.1,1.79,1.79,0,0,1,.66.59,2.62,2.62,0,0,1,.38.83A3.85,3.85,0,0,1,112.16,67.8Zm-1.63,0a1.56,1.56,0,0,0-.26-1,.73.73,0,0,0-.6-.34,1.39,1.39,0,0,0-.78.32v1.9a1,1,0,0,0,.78.35.84.84,0,0,0,.57-.27A1.31,1.31,0,0,0,110.53,67.76Z" />
      <path d="M116,68.8a1.48,1.48,0,0,1-.44,1.11,1.8,1.8,0,0,1-1.31.43,3.3,3.3,0,0,1-.87-.1,6.31,6.31,0,0,1-.82-.29V68.7a5.88,5.88,0,0,0,.68.39,1.45,1.45,0,0,0,.63.13c.39,0,.58-.12.58-.36a.37.37,0,0,0-.08-.22,1.48,1.48,0,0,0-.3-.21c-.13-.08-.32-.18-.55-.29a2.16,2.16,0,0,1-.73-.57,1.37,1.37,0,0,1-.3-.89,1.32,1.32,0,0,1,.2-.71,1.42,1.42,0,0,1,.6-.56,2,2,0,0,1,1-.22l.35,0a4.14,4.14,0,0,1,.53.12,2.81,2.81,0,0,1,.62.26v1.22l-.23-.16a1.72,1.72,0,0,0-.25-.14,2.08,2.08,0,0,0-.36-.14,1.54,1.54,0,0,0-.43-.06.43.43,0,0,0-.36.12.34.34,0,0,0-.1.23.32.32,0,0,0,.1.23,1.54,1.54,0,0,0,.46.26,4.17,4.17,0,0,1,.83.46,1.51,1.51,0,0,1,.44.52A1.7,1.7,0,0,1,116,68.8Z" />
    </g>
    <path d="M108.12,24.25a19.9,19.9,0,0,0-2.45.17l-.39-2.21a21.4,21.4,0,0,1,5.69,0l-.39,2.21A19.92,19.92,0,0,0,108.12,24.25Z" />
    <path d="M93.63,30.63l-1.72-1.45a22.06,22.06,0,0,1,4.34-3.66l1.12,1.94A19.57,19.57,0,0,0,93.63,30.63Z" />
    <path d="M99.1,26.46,98,24.51a21.87,21.87,0,0,1,5.34-2l.39,2.21A19.19,19.19,0,0,0,99.1,26.46Z" />
    <path d="M89.89,36.39l-2.1-.76a22.4,22.4,0,0,1,2.83-4.92l1.73,1.45A19.81,19.81,0,0,0,89.89,36.39Z" />
    <path d="M112.55,24.77l.39-2.21a21.64,21.64,0,0,1,5.33,2l-1.12,1.95A19.19,19.19,0,0,0,112.55,24.77Z" />
    <path d="M88.41,43.09H86.15a21.88,21.88,0,0,1,1-5.58l2.11.77A19.6,19.6,0,0,0,88.41,43.09Z" />
    <path d="M89.27,49.89l-2.1.76a22,22,0,0,1-1-5.56H88.4A19.92,19.92,0,0,0,89.27,49.89Z" />
    <path d="M92.41,56,90.7,57.41a22.06,22.06,0,0,1-2.84-4.88l2.1-.77A20.12,20.12,0,0,0,92.41,56Z" />
    <path d="M123.9,32.16l1.73-1.45a22.4,22.4,0,0,1,2.83,4.92l-2.1.76A19.81,19.81,0,0,0,123.9,32.16Z" />
    <path d="M127,38.27l2.11-.76a21.81,21.81,0,0,1,1,5.58h-2.26A19.68,19.68,0,0,0,127,38.27Z" />
    <path d="M127.85,45.09h2.24a22.09,22.09,0,0,1-1,5.56l-2.1-.76A19.92,19.92,0,0,0,127.85,45.09Z" />
    <path d="M126.29,51.76l2.1.77a21.68,21.68,0,0,1-2.84,4.88L123.84,56A19.7,19.7,0,0,0,126.29,51.76Z" />
    <path d="M97.43,60.61l-1.12,1.93A21.74,21.74,0,0,1,92,58.93l1.71-1.44A19.62,19.62,0,0,0,97.43,60.61Z" />
    <path d="M122.54,57.49l1.72,1.44a22.09,22.09,0,0,1-4.32,3.61l-1.12-1.93A19.31,19.31,0,0,0,122.54,57.49Z" />
    <path d="M118.88,27.46,120,25.52a22.41,22.41,0,0,1,4.35,3.66l-1.73,1.44A19.88,19.88,0,0,0,118.88,27.46Z" />
    <g>
      <path d="M77,357.38H75.18v-7.44H77Z" />
      <path d="M85.19,357.38H83.55l-3.17-4.15v4.15H78.56v-7.44h1.63l3.16,4.12v-4.12h1.84Z" />
      <path d="M91.09,354.37H88.56v3H86.72v-7.44h4.37v1.49H88.56v1.44h2.53Z" />
      <path d="M94.18,357.38H92.34v-7.44h1.84Z" />
      <path d="M102.35,357.38h-1.64l-3.16-4.15v4.15H95.72v-7.44h1.64l3.15,4.12v-4.12h1.84Z" />
      <path d="M105.73,357.38h-1.84v-7.44h1.84Z" />
      <path d="M113.13,351.75h-2.24v5.63h-1.84v-5.63h-2.23v-1.81h6.31Z" />
      <path d="M118.81,357.38H114.2v-7.44h4.53v1.49H116v1.36h2.57v1.5H116v1.59h2.77Z" />
      <path d="M129.25,353.65a4.49,4.49,0,0,1-.4,1.92,3.18,3.18,0,0,1-1.17,1.39,3.31,3.31,0,0,1-1.9.52,3.28,3.28,0,0,1-1.91-.54,3.21,3.21,0,0,1-1.17-1.41,4.75,4.75,0,0,1-.38-1.88,4.66,4.66,0,0,1,.38-1.87,3.15,3.15,0,0,1,1.16-1.41,3.34,3.34,0,0,1,1.92-.54,3.6,3.6,0,0,1,1.51.31,3,3,0,0,1,1.09.83,3.86,3.86,0,0,1,.65,1.22A5,5,0,0,1,129.25,353.65Zm-1.88,0a2.59,2.59,0,0,0-.1-.76,1.71,1.71,0,0,0-.31-.6,1.31,1.31,0,0,0-.5-.4,1.45,1.45,0,0,0-.68-.14,1.4,1.4,0,0,0-1.16.52,2.14,2.14,0,0,0-.42,1.38,2.19,2.19,0,0,0,.42,1.39,1.41,1.41,0,0,0,1.16.53,1.48,1.48,0,0,0,.86-.25,1.55,1.55,0,0,0,.55-.68A2.5,2.5,0,0,0,127.37,353.65Z" />
      <path d="M134.66,355.22a2.49,2.49,0,0,1-.29,1.21,2.05,2.05,0,0,1-.82.78,2.59,2.59,0,0,1-1.2.27l-.47,0a4.75,4.75,0,0,1-.73-.17,5.62,5.62,0,0,1-1-.39v-1.83a6.26,6.26,0,0,0,.91.58,2.12,2.12,0,0,0,1,.23c.32,0,.52-.06.61-.19a.66.66,0,0,0,.14-.36.62.62,0,0,0-.24-.5,3.33,3.33,0,0,0-.69-.43,5.32,5.32,0,0,1-.88-.56,2.44,2.44,0,0,1-.62-.76,2.32,2.32,0,0,1-.24-1.08,2.42,2.42,0,0,1,.24-1.09,1.91,1.91,0,0,1,.74-.78,2.42,2.42,0,0,1,1.22-.29,3.5,3.5,0,0,1,.94.13,3.51,3.51,0,0,1,1.11.5v1.75a5.24,5.24,0,0,0-.84-.59,2,2,0,0,0-1-.25.65.65,0,0,0-.5.16.54.54,0,0,0-.15.39.56.56,0,0,0,.15.39,3.37,3.37,0,0,0,.55.39,11.5,11.5,0,0,1,1.13.72,2.59,2.59,0,0,1,.66.75A2.09,2.09,0,0,1,134.66,355.22Z" />
      <path d="M141.38,356.82a4.37,4.37,0,0,1-.78.39,4.49,4.49,0,0,1-.8.21,5.59,5.59,0,0,1-.83.06,3.61,3.61,0,0,1-1.43-.27,3.06,3.06,0,0,1-1.1-.79,3.38,3.38,0,0,1-.69-1.23,5.32,5.32,0,0,1,0-3.22,3.33,3.33,0,0,1,.76-1.2,3.23,3.23,0,0,1,1.12-.71,3.9,3.9,0,0,1,1.32-.23,6,6,0,0,1,2.36.57v2a6.5,6.5,0,0,0-.9-.58,2.25,2.25,0,0,0-1-.23,2,2,0,0,0-1,.26,2,2,0,0,0-.75.74,2.31,2.31,0,0,0,0,2.15,2,2,0,0,0,.68.75,1.84,1.84,0,0,0,1,.27,2.55,2.55,0,0,0,.84-.13,3.27,3.27,0,0,0,.67-.29c.18-.11.37-.24.56-.38Z" />
    </g>
    <g>
      <path d="M102.57,155.94a2.89,2.89,0,0,1-.14.88,2.47,2.47,0,0,1-.44.81,2.24,2.24,0,0,1-.82.6,3.05,3.05,0,0,1-1.22.23H98.54v3H96.38v-8.12H100a3.05,3.05,0,0,1,1.22.23,2.26,2.26,0,0,1,.82.61,2.42,2.42,0,0,1,.44.82A3,3,0,0,1,102.57,155.94Zm-2.2,0a.91.91,0,0,0-.3-.79A2,2,0,0,0,99,155h-.45v2H99a3.45,3.45,0,0,0,.82-.07.66.66,0,0,0,.42-.28A1.11,1.11,0,0,0,100.37,156Z" />
      <path d="M105,161.51h-1.86v-6H105Zm-.15-7.34a.91.91,0,0,1-.23.62.72.72,0,0,1-1,.14.73.73,0,0,1-.28-.32.92.92,0,0,1-.1-.44.89.89,0,0,1,.23-.63.68.68,0,0,1,.55-.26.7.7,0,0,1,.55.26A.94.94,0,0,1,104.84,154.17Z" />
      <path d="M110,161.16a4.07,4.07,0,0,1-1.77.45q-2,0-2-2.22V157h-.84v-.37l2.49-2.88h.21v1.78h1.78V157h-1.78v1.91a3.74,3.74,0,0,0,0,.54.55.55,0,0,0,.2.34.84.84,0,0,0,.51.14,2.52,2.52,0,0,0,1.17-.42Z" />
      <path d="M114.88,161.23l-.49.19c-.18.05-.37.1-.58.14a4,4,0,0,1-.71.05,2.93,2.93,0,0,1-1.45-.33,2.48,2.48,0,0,1-.92-.83,3.07,3.07,0,0,1-.45-1,4.22,4.22,0,0,1-.12-.92,4.15,4.15,0,0,1,.12-.92,3.37,3.37,0,0,1,.45-1,2.41,2.41,0,0,1,.91-.81,3,3,0,0,1,1.46-.33,4.07,4.07,0,0,1,1,.09,5.37,5.37,0,0,1,.74.25v1.66a4.43,4.43,0,0,0-1.41-.33,1.31,1.31,0,0,0-.88.34,1.34,1.34,0,0,0-.39,1.06,1.66,1.66,0,0,0,.19.8,1.32,1.32,0,0,0,.49.48,1.26,1.26,0,0,0,.59.15,2.27,2.27,0,0,0,.63-.1q.36-.09.87-.27Z" />
      <path d="M121,161.51H119.1v-3.1s0,0,0-.06v-.14a1.86,1.86,0,0,0-.16-.79.61.61,0,0,0-.61-.35.89.89,0,0,0-.62.26,3.36,3.36,0,0,0-.51.67v3.51h-1.85v-8.12h1.85v3a2.64,2.64,0,0,1,.91-.76,2.38,2.38,0,0,1,.95-.2c1.26,0,1.89.8,1.89,2.41Z" />
    </g>
    <g>
      <path d="M170.61,184.22,168,191.07h-1l-1.54-4-1.59,4h-1.05l-2.52-6.85h1.86l1.23,3.75,1.42-3.75h1.29l1.39,3.75,1.29-3.75Z" />
      <path d="M175.37,190.74a6.53,6.53,0,0,1-.63.24,2.31,2.31,0,0,1-.69.09.73.73,0,0,1-.53-.15.87.87,0,0,1-.22-.37,2.34,2.34,0,0,1-.55.38,2,2,0,0,1-.8.14,1.44,1.44,0,0,1-.77-.18,1.07,1.07,0,0,1-.42-.48,1.67,1.67,0,0,1-.11-.59,1.31,1.31,0,0,1,.2-.76,1.63,1.63,0,0,1,.55-.49,7.94,7.94,0,0,1,.91-.39l.49-.18.24-.09.18-.09a1.14,1.14,0,0,0-.13-.57c-.09-.14-.28-.2-.56-.2a1.81,1.81,0,0,0-.94.25,3.51,3.51,0,0,0-.8.65v-1.34a2.55,2.55,0,0,1,.63-.39,3.18,3.18,0,0,1,.7-.22,3.61,3.61,0,0,1,.73-.07,2.11,2.11,0,0,1,1.43.42,1.42,1.42,0,0,1,.48,1.14v1.92a1.33,1.33,0,0,0,.05.41c0,.09.08.14.16.14a.87.87,0,0,0,.4-.15Zm-2.15-1v-1.17a4.5,4.5,0,0,0-.81.45.67.67,0,0,0-.25.55.49.49,0,0,0,.13.38.38.38,0,0,0,.29.14.66.66,0,0,0,.32-.1A3.14,3.14,0,0,0,173.22,189.78Z" />
      <path d="M180.11,186l-2,5H177L175,186h1.67l.9,2.6,1-2.6Z" />
      <path d="M184.77,188.93h-3.08a1.21,1.21,0,0,0,.44.74,1.23,1.23,0,0,0,.8.29,3.77,3.77,0,0,0,1.72-.5v1.09a4.56,4.56,0,0,1-.82.36,3.86,3.86,0,0,1-1.23.16,2.56,2.56,0,0,1-1.37-.34,2.07,2.07,0,0,1-.85-.93,3,3,0,0,1-.28-1.32,2.9,2.9,0,0,1,.28-1.31,2,2,0,0,1,.85-.91,2.65,2.65,0,0,1,1.37-.33,2.1,2.1,0,0,1,1,.26,2,2,0,0,1,.82.85,3.28,3.28,0,0,1,.32,1.53Zm-1.46-.87a1.35,1.35,0,0,0-.2-.77.7.7,0,0,0-.6-.28.76.76,0,0,0-.63.29,1.14,1.14,0,0,0-.24.76Z" />
    </g>
    <path d="M172.63,145a19.92,19.92,0,0,0-2.46.17l-.39-2.21a21.4,21.4,0,0,1,5.69,0l-.39,2.21A19.9,19.9,0,0,0,172.63,145Z" />
    <path d="M158.13,151.36l-1.72-1.45a22.4,22.4,0,0,1,4.34-3.66l1.12,1.95A19.52,19.52,0,0,0,158.13,151.36Z" />
    <path d="M163.6,147.19l-1.13-1.94a21.89,21.89,0,0,1,5.34-2l.39,2.22A19.61,19.61,0,0,0,163.6,147.19Z" />
    <path d="M154.39,157.13l-2.1-.77a22.2,22.2,0,0,1,2.84-4.91l1.72,1.45A19.81,19.81,0,0,0,154.39,157.13Z" />
    <path d="M177.05,145.51l.39-2.22a21.67,21.67,0,0,1,5.33,2l-1.12,1.94A19.61,19.61,0,0,0,177.05,145.51Z" />
    <path d="M152.91,163.82h-2.26a22,22,0,0,1,1-5.58l2.11.77A19.6,19.6,0,0,0,152.91,163.82Z" />
    <path d="M153.77,170.62l-2.1.77a22.17,22.17,0,0,1-1-5.57h2.24A19.74,19.74,0,0,0,153.77,170.62Z" />
    <path d="M156.91,176.7l-1.71,1.44a22,22,0,0,1-2.84-4.87l2.1-.77A19.8,19.8,0,0,0,156.91,176.7Z" />
    <path d="M188.4,152.9l1.73-1.45a22.56,22.56,0,0,1,2.83,4.91l-2.1.77A19.81,19.81,0,0,0,188.4,152.9Z" />
    <path d="M191.53,159l2.11-.77a22,22,0,0,1,1,5.58h-2.26A19.6,19.6,0,0,0,191.53,159Z" />
    <path d="M192.35,165.82h2.24a22.17,22.17,0,0,1-1,5.57l-2.1-.77A19.74,19.74,0,0,0,192.35,165.82Z" />
    <path d="M190.79,172.5l2.1.77a21.83,21.83,0,0,1-2.84,4.87l-1.71-1.44A19.63,19.63,0,0,0,190.79,172.5Z" />
    <path d="M161.93,181.35l-1.12,1.93a22.09,22.09,0,0,1-4.31-3.61l1.71-1.44A20,20,0,0,0,161.93,181.35Z" />
    <path d="M187,178.23l1.72,1.43a22.14,22.14,0,0,1-4.32,3.62l-1.12-1.93A19.67,19.67,0,0,0,187,178.23Z" />
    <path d="M183.38,148.2l1.12-1.95a22.41,22.41,0,0,1,4.35,3.66l-1.73,1.45A19.52,19.52,0,0,0,183.38,148.2Z" />
    <path d="M17.85,324.31v9.88a5.68,5.68,0,0,0,5.67,5.67H184.38c7.49,0,13.56-6,13.56-14.64v-108l-.06-6.23c-.29-8.38-6.23-15.06-13.54-15.06H31.41c-7.31,0-13.25,6.7-13.54,15.07l-.06,6.23v46.63l.06,61.34" style="fill: none;stroke: #000;stroke-miterlimit: 10" />
    <g>
      <path d="M166.14,70.25h-1.93l-.47-1.2a4.81,4.81,0,0,0-.46-1,1.07,1.07,0,0,0-.4-.4,1.43,1.43,0,0,0-.51-.08h-.2v2.64h-1.8V63.48h3.06a2,2,0,0,1,1.21.35,1.88,1.88,0,0,1,.68.83,2.31,2.31,0,0,1,.21.92,2.08,2.08,0,0,1-.17.87A1.46,1.46,0,0,1,165,67a3.65,3.65,0,0,1-.43.31,1.84,1.84,0,0,1,.47.45,7.1,7.1,0,0,1,.51,1.06Zm-2.44-4.63a.73.73,0,0,0-.27-.65,1.53,1.53,0,0,0-.88-.19h-.38v1.63h.39a1.72,1.72,0,0,0,.9-.16A.72.72,0,0,0,163.7,65.62Z" />
      <path d="M170.89,70l-.63.25a2.31,2.31,0,0,1-.69.09.69.69,0,0,1-.53-.16.91.91,0,0,1-.22-.37,2.34,2.34,0,0,1-.55.38,1.84,1.84,0,0,1-.8.15,1.35,1.35,0,0,1-.77-.19.93.93,0,0,1-.41-.47,1.52,1.52,0,0,1-.12-.59,1.29,1.29,0,0,1,.2-.76,1.63,1.63,0,0,1,.55-.49,6.37,6.37,0,0,1,.91-.4l.49-.18.24-.09a.76.76,0,0,0,.18-.09,1.08,1.08,0,0,0-.13-.56c-.09-.14-.27-.21-.56-.21a1.81,1.81,0,0,0-.94.25,3.31,3.31,0,0,0-.8.66V65.87a2.52,2.52,0,0,1,.63-.38,2.72,2.72,0,0,1,.7-.22,3.65,3.65,0,0,1,.74-.08,2.09,2.09,0,0,1,1.42.42,1.44,1.44,0,0,1,.48,1.15v1.92a1.37,1.37,0,0,0,.05.41.16.16,0,0,0,.16.13,1,1,0,0,0,.4-.14Zm-2.15-1V67.87a3.9,3.9,0,0,0-.81.46.66.66,0,0,0-.25.55.52.52,0,0,0,.13.38.37.37,0,0,0,.29.13.57.57,0,0,0,.32-.1Z" />
      <path d="M175.69,70.25h-1.54V67.57a2,2,0,0,0-.12-.72.5.5,0,0,0-.52-.3.67.67,0,0,0-.33.08.86.86,0,0,0-.26.21,1.33,1.33,0,0,0-.19.24c0,.08-.11.16-.16.25v2.92H171v-5h1.55V66a2.37,2.37,0,0,1,.73-.62,1.86,1.86,0,0,1,.82-.18c1,0,1.57.72,1.57,2.14Z" />
      <path d="M180.67,66.34h-.77a1.33,1.33,0,0,1,.41,1,1.48,1.48,0,0,1-.12.59,1.29,1.29,0,0,1-.33.5,1.64,1.64,0,0,1-.55.36,2.06,2.06,0,0,1-.74.17c-.36,0-.53.13-.53.33a.22.22,0,0,0,.06.17.51.51,0,0,0,.22.08l.5.06a3.89,3.89,0,0,1,.74.14,1.4,1.4,0,0,1,.65.41,1.29,1.29,0,0,1,.29.89,1.5,1.5,0,0,1-.22.82,1.44,1.44,0,0,1-.72.56,3.55,3.55,0,0,1-1.3.2,3.22,3.22,0,0,1-1.72-.36,1.09,1.09,0,0,1-.55-.95,1.4,1.4,0,0,1,.07-.37,1,1,0,0,1,.31-.41,1.34,1.34,0,0,1,.66-.26.52.52,0,0,1-.26-.25.67.67,0,0,1-.11-.38,1,1,0,0,1,.15-.51.77.77,0,0,1,.51-.33,1.79,1.79,0,0,1-.84-.55,1.52,1.52,0,0,1-.36-1,2,2,0,0,1,.16-.85,1.55,1.55,0,0,1,.46-.6,2,2,0,0,1,.68-.34,3.24,3.24,0,0,1,.85-.11h2.4Zm-1.4,4.84a.39.39,0,0,0-.31-.42,1.93,1.93,0,0,0-.63-.1,1.69,1.69,0,0,0-.78.13.43.43,0,0,0-.24.41c0,.37.33.56,1,.56a1.57,1.57,0,0,0,.71-.14A.49.49,0,0,0,179.27,71.18Zm-.31-4a.81.81,0,0,0-.23-.6.7.7,0,0,0-.5-.23.65.65,0,0,0-.56.27,1,1,0,0,0-.21.58.86.86,0,0,0,.09.39.71.71,0,0,0,.25.29.75.75,0,0,0,.94-.13A.8.8,0,0,0,179,67.18Z" />
      <path d="M185.36,68.19h-3.08a1.21,1.21,0,0,0,.44.74,1.23,1.23,0,0,0,.8.29,3.8,3.8,0,0,0,1.73-.5v1.09a4.66,4.66,0,0,1-.83.37,4.17,4.17,0,0,1-1.23.16,2.65,2.65,0,0,1-1.37-.34,2.18,2.18,0,0,1-.85-.93,3,3,0,0,1-.28-1.33,2.93,2.93,0,0,1,.28-1.31,2.08,2.08,0,0,1,.85-.91,2.65,2.65,0,0,1,1.37-.33,2.22,2.22,0,0,1,1,.26,2.07,2.07,0,0,1,.82.86,3.22,3.22,0,0,1,.32,1.53Zm-1.45-.87a1.25,1.25,0,0,0-.21-.76.7.7,0,0,0-.6-.29.79.79,0,0,0-.63.29,1.17,1.17,0,0,0-.24.76Z" />
    </g>
    <path d="M172.63,24.25a19.92,19.92,0,0,0-2.46.17l-.39-2.21a21.4,21.4,0,0,1,5.69,0l-.39,2.21A19.9,19.9,0,0,0,172.63,24.25Z" />
    <path d="M158.13,30.63l-1.72-1.45a22.06,22.06,0,0,1,4.34-3.66l1.12,1.94A19.57,19.57,0,0,0,158.13,30.63Z" />
    <path d="M163.6,26.46l-1.13-1.95a21.87,21.87,0,0,1,5.34-2l.39,2.21A19.19,19.19,0,0,0,163.6,26.46Z" />
    <path d="M154.39,36.39l-2.1-.76a22,22,0,0,1,2.84-4.92l1.72,1.45A19.81,19.81,0,0,0,154.39,36.39Z" />
    <path d="M177.05,24.77l.39-2.21a21.64,21.64,0,0,1,5.33,2l-1.12,1.95A19.19,19.19,0,0,0,177.05,24.77Z" />
    <path d="M152.91,43.09h-2.26a21.88,21.88,0,0,1,1-5.58l2.11.77A19.6,19.6,0,0,0,152.91,43.09Z" />
    <path d="M153.77,49.89l-2.1.76a22,22,0,0,1-1-5.56h2.24A19.92,19.92,0,0,0,153.77,49.89Z" />
    <path d="M156.91,56l-1.71,1.44a22.06,22.06,0,0,1-2.84-4.88l2.1-.77A20.12,20.12,0,0,0,156.91,56Z" />
    <path d="M188.4,32.16l1.73-1.45A22.4,22.4,0,0,1,193,35.63l-2.1.76A19.81,19.81,0,0,0,188.4,32.16Z" />
    <path d="M191.53,38.27l2.11-.76a21.81,21.81,0,0,1,1,5.58h-2.26A19.68,19.68,0,0,0,191.53,38.27Z" />
    <path d="M192.35,45.09h2.24a22.09,22.09,0,0,1-1,5.56l-2.1-.76A19.92,19.92,0,0,0,192.35,45.09Z" />
    <path d="M190.79,51.76l2.1.77a21.68,21.68,0,0,1-2.84,4.88L188.34,56A19.7,19.7,0,0,0,190.79,51.76Z" />
    <path d="M161.93,60.61l-1.12,1.93a21.74,21.74,0,0,1-4.31-3.61l1.71-1.44A19.62,19.62,0,0,0,161.93,60.61Z" />
    <path d="M187,57.49l1.72,1.44a22.09,22.09,0,0,1-4.32,3.61l-1.12-1.93A19.31,19.31,0,0,0,187,57.49Z" />
    <path d="M183.38,27.46l1.12-1.94a22.41,22.41,0,0,1,4.35,3.66l-1.73,1.44A19.88,19.88,0,0,0,183.38,27.46Z" />
    <g>
      <path d="M115.15,4.28l-6.92,8.79V5.54a1.6,1.6,0,0,0-.8-1.47,1.13,1.13,0,0,0-1.41.37L96.92,16a1.85,1.85,0,0,0,0,2.24,1.13,1.13,0,0,0,1.82,0l6.87-8.73V17a1.61,1.61,0,0,0,.81,1.47,1.13,1.13,0,0,0,1.42-.37l6.91-8.79V17a1.32,1.32,0,1,0,2.58,0V5.38a1.62,1.62,0,0,0-.81-1.47A1.13,1.13,0,0,0,115.15,4.28Z" style="stroke: #000;stroke-width: 0.9623649999999999px" />
      <path d="M96.92,4.19l-6,7.66a1.86,1.86,0,0,0,0,2.24,1.13,1.13,0,0,0,1.83,0s2-2.59,3.81-4.84v7.88a1.31,1.31,0,1,0,2.57,0V5.29a1.65,1.65,0,0,0-.8-1.47A1.15,1.15,0,0,0,96.92,4.19Z" style="stroke: #000;stroke-width: 0.9623649999999999px" />
      <path d="M125.61,9.84a1.31,1.31,0,0,0-1.19-1h-2.63l1.92-2.44s1-1.47.12-2.28-2,.08-2,.08l-4,5.12a1.87,1.87,0,0,0-.26,1.72,1.33,1.33,0,0,0,1.19,1h2.64l-3.12,4s-1.3,1.41-.34,2.36,2.19-.17,2.19-.17l5.23-6.64A1.87,1.87,0,0,0,125.61,9.84Z" style="stroke: #000;stroke-width: 0.9623649999999999px" />
    </g>
    <g>
      <path d="M166.09,127.09a2.65,2.65,0,0,1-.11.74,2.11,2.11,0,0,1-.37.67,2,2,0,0,1-.68.5,2.48,2.48,0,0,1-1,.19h-1.18v2.54h-1.79V125h3a2.47,2.47,0,0,1,1,.2,1.87,1.87,0,0,1,.68.51,2,2,0,0,1,.37.68A2.65,2.65,0,0,1,166.09,127.09Zm-1.83,0a.75.75,0,0,0-.25-.66,1.64,1.64,0,0,0-.9-.18h-.38v1.63h.39a3,3,0,0,0,.69-.06.54.54,0,0,0,.34-.23A.88.88,0,0,0,164.26,127.1Z" />
      <path d="M171.16,131.73h-1.55V129a1.54,1.54,0,0,0-.13-.65.51.51,0,0,0-.51-.3.7.7,0,0,0-.51.22,3.29,3.29,0,0,0-.43.56v2.92h-1.55V125H168v2.51a2.21,2.21,0,0,1,.76-.63,1.93,1.93,0,0,1,.79-.17c1,0,1.58.67,1.58,2Z" />
      <path d="M176.27,131.48l-.63.25a2.31,2.31,0,0,1-.69.09.69.69,0,0,1-.53-.16.81.81,0,0,1-.22-.37,2.34,2.34,0,0,1-.55.38,1.84,1.84,0,0,1-.8.15,1.35,1.35,0,0,1-.77-.19,1,1,0,0,1-.42-.47,1.71,1.71,0,0,1-.11-.59,1.29,1.29,0,0,1,.2-.76,1.63,1.63,0,0,1,.55-.49,6.37,6.37,0,0,1,.91-.4l.49-.18.24-.09.18-.09A1.08,1.08,0,0,0,174,128a.63.63,0,0,0-.56-.21,1.81,1.81,0,0,0-.94.25,3.31,3.31,0,0,0-.8.66v-1.35a2.52,2.52,0,0,1,.63-.38,2.72,2.72,0,0,1,.7-.22,3.63,3.63,0,0,1,.73-.08,2.11,2.11,0,0,1,1.43.42,1.44,1.44,0,0,1,.48,1.15v1.92a1.37,1.37,0,0,0,.05.41.16.16,0,0,0,.16.13,1,1,0,0,0,.4-.14Zm-2.15-.95v-1.18a3.9,3.9,0,0,0-.81.46.66.66,0,0,0-.25.55.52.52,0,0,0,.13.38.37.37,0,0,0,.29.13.57.57,0,0,0,.32-.1Z" />
      <path d="M179.82,130.28a1.44,1.44,0,0,1-.44,1.11,1.78,1.78,0,0,1-1.31.43,3.22,3.22,0,0,1-.86-.1,6.4,6.4,0,0,1-.83-.29v-1.25a6.85,6.85,0,0,0,.68.39,1.53,1.53,0,0,0,.64.13c.38,0,.58-.12.58-.36a.33.33,0,0,0-.09-.22,1.14,1.14,0,0,0-.29-.21l-.56-.29a2.26,2.26,0,0,1-.73-.57,1.37,1.37,0,0,1-.3-.89,1.41,1.41,0,0,1,.2-.71,1.45,1.45,0,0,1,.61-.56,1.93,1.93,0,0,1,1-.22l.35,0a4.64,4.64,0,0,1,.54.12,2.73,2.73,0,0,1,.61.26v1.22l-.23-.16-.24-.14a2.61,2.61,0,0,0-.37-.14,1.47,1.47,0,0,0-.42-.06.47.47,0,0,0-.37.12.39.39,0,0,0-.1.23.33.33,0,0,0,.11.23,1.42,1.42,0,0,0,.46.26,4.06,4.06,0,0,1,.82.46,1.41,1.41,0,0,1,.44.52A1.54,1.54,0,0,1,179.82,130.28Z" />
      <path d="M184.79,129.67h-3.08a1.29,1.29,0,0,0,1.25,1,3.77,3.77,0,0,0,1.72-.5v1.09a4.53,4.53,0,0,1-.82.37,4.17,4.17,0,0,1-1.23.16,2.71,2.71,0,0,1-1.38-.34,2.24,2.24,0,0,1-.85-.93,3.13,3.13,0,0,1-.28-1.33,3.07,3.07,0,0,1,.28-1.31,2.13,2.13,0,0,1,.85-.91,2.71,2.71,0,0,1,1.38-.33,2.25,2.25,0,0,1,1,.26,2,2,0,0,1,.81.86,3.1,3.1,0,0,1,.32,1.53Zm-1.45-.87a1.25,1.25,0,0,0-.21-.76.7.7,0,0,0-.6-.29.78.78,0,0,0-.62.29,1.17,1.17,0,0,0-.24.76Z" />
    </g>
    <path d="M172.63,85.73a19.92,19.92,0,0,0-2.46.17l-.39-2.21a21.4,21.4,0,0,1,5.69,0l-.39,2.21A19.9,19.9,0,0,0,172.63,85.73Z" />
    <path d="M158.13,92.11l-1.72-1.45A22.06,22.06,0,0,1,160.75,87l1.12,1.94A19.57,19.57,0,0,0,158.13,92.11Z" />
    <path d="M163.6,87.94l-1.13-2A21.87,21.87,0,0,1,167.81,84l.39,2.21A19.19,19.19,0,0,0,163.6,87.94Z" />
    <path d="M154.39,97.87l-2.1-.76a22,22,0,0,1,2.84-4.92l1.72,1.45A19.81,19.81,0,0,0,154.39,97.87Z" />
    <path d="M177.05,86.25l.39-2.21A21.64,21.64,0,0,1,182.77,86l-1.12,2A19.19,19.19,0,0,0,177.05,86.25Z" />
    <path d="M152.91,104.57h-2.26a21.88,21.88,0,0,1,1-5.58l2.11.77A19.6,19.6,0,0,0,152.91,104.57Z" />
    <path d="M153.77,111.37l-2.1.76a22,22,0,0,1-1-5.56h2.24A19.92,19.92,0,0,0,153.77,111.37Z" />
    <path d="M156.91,117.45l-1.71,1.44a22.06,22.06,0,0,1-2.84-4.88l2.1-.77A20.12,20.12,0,0,0,156.91,117.45Z" />
    <path d="M188.4,93.64l1.73-1.45A22.4,22.4,0,0,1,193,97.11l-2.1.76A19.81,19.81,0,0,0,188.4,93.64Z" />
    <path d="M191.53,99.75l2.11-.76a21.81,21.81,0,0,1,1,5.58h-2.26A19.68,19.68,0,0,0,191.53,99.75Z" />
    <path d="M192.35,106.57h2.24a22.09,22.09,0,0,1-1,5.56l-2.1-.76A19.92,19.92,0,0,0,192.35,106.57Z" />
    <path d="M190.79,113.24l2.1.77a21.68,21.68,0,0,1-2.84,4.88l-1.71-1.44A19.7,19.7,0,0,0,190.79,113.24Z" />
    <path d="M161.93,122.09,160.81,124a21.74,21.74,0,0,1-4.31-3.61l1.71-1.44A19.62,19.62,0,0,0,161.93,122.09Z" />
    <path d="M187,119l1.72,1.44a22.09,22.09,0,0,1-4.32,3.61l-1.12-1.93A19.31,19.31,0,0,0,187,119Z" />
    <path d="M183.38,88.94,184.5,87a22.41,22.41,0,0,1,4.35,3.66l-1.73,1.44A19.88,19.88,0,0,0,183.38,88.94Z" />
  </g>
  <g /></svg>