<svg id="be730f78-6c36-4a80-a87a-021e0ae56cf4" data-name="silk" xmlns="http://www.w3.org/2000/svg" width="3.19in" height="5.06in" viewBox="0 0 229.45 364.41">
  <rect x="0.06" y="0.06" width="229.32" height="364.28" style="fill: #fff;stroke: #231f20;stroke-width: 0.129797756671906px"/>
  <path d="M133.4,298.88a18.66,18.66,0,0,0-37.32,0c0,.42,0,.82.06,1.23a2.12,2.12,0,0,0-.06.44v25.24a1.72,1.72,0,0,0,1.72,1.72h33.89a1.71,1.71,0,0,0,1.71-1.72V299.48a1.36,1.36,0,0,0,0-.2C133.39,299.15,133.4,299,133.4,298.88Z" transform="translate(0.08 -0.15)" style="fill: #231f20"/>
  <path d="M25.49,185c-.18.08-.35.15-.5.2a1.86,1.86,0,0,1-.56.07.59.59,0,0,1-.42-.12.65.65,0,0,1-.18-.3,1.9,1.9,0,0,1-.44.3,1.46,1.46,0,0,1-.64.12,1.16,1.16,0,0,1-.62-.15.87.87,0,0,1-.33-.38,1.27,1.27,0,0,1-.09-.47,1,1,0,0,1,.16-.6,1.31,1.31,0,0,1,.44-.4,5.5,5.5,0,0,1,.73-.31l.39-.15.2-.07.13-.07a.85.85,0,0,0-.1-.46.53.53,0,0,0-.45-.16,1.5,1.5,0,0,0-.75.2,2.61,2.61,0,0,0-.63.53v-1.08a2.13,2.13,0,0,1,.49-.31,2.81,2.81,0,0,1,.56-.18,4,4,0,0,1,.6,0,1.72,1.72,0,0,1,1.14.33,1.17,1.17,0,0,1,.38.92v1.54a.89.89,0,0,0,0,.32.14.14,0,0,0,.13.11.8.8,0,0,0,.32-.11Zm-1.73-.76v-.94a3.64,3.64,0,0,0-.64.37.53.53,0,0,0-.2.44.4.4,0,0,0,.1.3.34.34,0,0,0,.24.11.52.52,0,0,0,.25-.08A2.19,2.19,0,0,0,23.76,184.2Z" transform="translate(0.08 -0.15)" style="fill: #231f20"/>
  <g>
    <path d="M91.74,354.65h-1.9v-4.31l-1.71,2.49H88l-1.72-2.49v4.31H84.42v-7.44h1.72L88.07,350l2-2.79h1.72Z" transform="translate(0.08 -0.15)" style="fill: #231f20"/>
    <path d="M97.7,352.38H94.45a1.34,1.34,0,0,0,.47.82,1.28,1.28,0,0,0,.84.32,4,4,0,0,0,1.83-.55v1.2a5.09,5.09,0,0,1-.87.4,4,4,0,0,1-1.3.18,2.71,2.71,0,0,1-1.46-.38,2.38,2.38,0,0,1-.89-1,3.43,3.43,0,0,1-.3-1.46,3.31,3.31,0,0,1,.3-1.44,2.28,2.28,0,0,1,.89-1,2.8,2.8,0,0,1,1.46-.36,2.23,2.23,0,0,1,1.08.28,2.28,2.28,0,0,1,.87.94A3.77,3.77,0,0,1,97.7,352Zm-1.53-.95a1.42,1.42,0,0,0-.22-.84.73.73,0,0,0-.63-.32.79.79,0,0,0-.66.32,1.32,1.32,0,0,0-.26.84Z" transform="translate(0.08 -0.15)" style="fill: #231f20"/>
    <path d="M102.06,354.33a3.26,3.26,0,0,1-.7.28,3,3,0,0,1-.86.14c-1.17,0-1.76-.68-1.76-2v-2.18H98v-.34l2.19-2.65h.19v1.64h1.56v1.35h-1.56v1.75a3.19,3.19,0,0,0,0,.49.47.47,0,0,0,.18.31.63.63,0,0,0,.44.13,2.15,2.15,0,0,0,1-.39Z" transform="translate(0.08 -0.15)" style="fill: #231f20"/>
    <path d="M107.48,354.38q-.36.17-.66.27a2.65,2.65,0,0,1-.74.1.78.78,0,0,1-.56-.17,1.18,1.18,0,0,1-.23-.41,2.35,2.35,0,0,1-.58.41,1.89,1.89,0,0,1-.85.17,1.43,1.43,0,0,1-.81-.21,1.16,1.16,0,0,1-.44-.52,1.82,1.82,0,0,1-.12-.65,1.53,1.53,0,0,1,.21-.83,1.77,1.77,0,0,1,.58-.54,7.09,7.09,0,0,1,1-.44l.51-.19.26-.11a.81.81,0,0,0,.18-.1,1.22,1.22,0,0,0-.13-.62c-.09-.15-.29-.22-.59-.22a1.87,1.87,0,0,0-1,.28,3.5,3.5,0,0,0-.84.72v-1.49a3.34,3.34,0,0,1,.66-.42,3.2,3.2,0,0,1,.74-.24,3.44,3.44,0,0,1,.78-.08,2.21,2.21,0,0,1,1.51.45,1.63,1.63,0,0,1,.51,1.27v2.11a1.32,1.32,0,0,0,0,.45.18.18,0,0,0,.17.15.89.89,0,0,0,.42-.16Zm-2.28-1.05V352a4.22,4.22,0,0,0-.84.51.74.74,0,0,0-.27.6.6.6,0,0,0,.13.42.39.39,0,0,0,.31.14.57.57,0,0,0,.34-.11A2.5,2.5,0,0,0,105.2,353.33Z" transform="translate(0.08 -0.15)" style="fill: #231f20"/>
    <path d="M118.15,354.65h-1.9v-4.31l-1.71,2.49h-.15l-1.71-2.49v4.31h-1.85v-7.44h1.72l1.94,2.79,1.94-2.79h1.72Z" transform="translate(0.08 -0.15)" style="fill: #231f20"/>
    <path d="M124.48,351.91a3.4,3.4,0,0,1-.3,1.46,2.37,2.37,0,0,1-.9,1,2.74,2.74,0,0,1-1.45.37,2.8,2.8,0,0,1-1.46-.37,2.42,2.42,0,0,1-.89-1,3.4,3.4,0,0,1-.3-1.46,3.56,3.56,0,0,1,.17-1.12,2.64,2.64,0,0,1,.5-.9,2.25,2.25,0,0,1,.83-.59,3.25,3.25,0,0,1,2.3,0,2.2,2.2,0,0,1,.83.59,2.6,2.6,0,0,1,.5.89A3.67,3.67,0,0,1,124.48,351.91Zm-1.72,0a1.88,1.88,0,0,0-.24-1,.84.84,0,0,0-1.38,0,2.29,2.29,0,0,0,0,2,.82.82,0,0,0,1.38,0A1.85,1.85,0,0,0,122.76,351.91Z" transform="translate(0.08 -0.15)" style="fill: #231f20"/>
    <path d="M130.12,354.65h-1.63v-.49a3,3,0,0,1-.55.42,1.61,1.61,0,0,1-.8.17,1.9,1.9,0,0,1-1-.3,2.21,2.21,0,0,1-.8-.92A3.64,3.64,0,0,1,125,352a4.08,4.08,0,0,1,.24-1.4,2.35,2.35,0,0,1,.74-1.06,1.88,1.88,0,0,1,1.23-.4,2.18,2.18,0,0,1,.74.11,2.29,2.29,0,0,1,.5.3v-2.29h1.63Zm-1.63-1.74v-2.09l-.45-.27a.92.92,0,0,0-.38-.08.74.74,0,0,0-.64.39,1.9,1.9,0,0,0-.26,1.05A1.68,1.68,0,0,0,127,353a.8.8,0,0,0,.63.33,1,1,0,0,0,.48-.11A2.86,2.86,0,0,0,128.49,352.91Z" transform="translate(0.08 -0.15)" style="fill: #231f20"/>
    <path d="M135.93,354.65H134.3v-.78a2.77,2.77,0,0,1-.73.66,1.86,1.86,0,0,1-.91.22,1.29,1.29,0,0,1-1.35-.73,4,4,0,0,1-.31-1.63v-3.21h1.63v3a2.13,2.13,0,0,0,.13.78.51.51,0,0,0,.54.33.72.72,0,0,0,.57-.24,3.87,3.87,0,0,0,.43-.62v-3.21h1.63Z" transform="translate(0.08 -0.15)" style="fill: #231f20"/>
    <path d="M138.61,354.65H137v-7.44h1.64Z" transform="translate(0.08 -0.15)" style="fill: #231f20"/>
    <path d="M144.38,352.38h-3.26a1.39,1.39,0,0,0,.47.82,1.28,1.28,0,0,0,.85.32,3.89,3.89,0,0,0,1.82-.55v1.2a5.09,5.09,0,0,1-.87.4,4,4,0,0,1-1.3.18,2.68,2.68,0,0,1-1.45-.38,2.34,2.34,0,0,1-.9-1,3.43,3.43,0,0,1-.29-1.46,3.31,3.31,0,0,1,.29-1.44,2.24,2.24,0,0,1,.9-1,2.76,2.76,0,0,1,1.45-.36,2.24,2.24,0,0,1,1.09.28,2.2,2.2,0,0,1,.86.94,3.63,3.63,0,0,1,.34,1.69Zm-1.53-.95a1.49,1.49,0,0,0-.22-.84.74.74,0,0,0-.64-.32.81.81,0,0,0-.66.32,1.31,1.31,0,0,0-.25.84Z" transform="translate(0.08 -0.15)" style="fill: #231f20"/>
  </g>
  <g>
    <path d="M121.12,5.58l-6.91,8.79V6.84a1.61,1.61,0,0,0-.81-1.47,1.13,1.13,0,0,0-1.41.37L102.9,17.3a1.85,1.85,0,0,0,0,2.24,1.14,1.14,0,0,0,1.83-.05l6.87-8.73v7.53a1.61,1.61,0,0,0,.81,1.47,1.12,1.12,0,0,0,1.41-.37l6.91-8.79v7.69a1.32,1.32,0,1,0,2.58,0V6.68a1.63,1.63,0,0,0-.8-1.47A1.15,1.15,0,0,0,121.12,5.58Z" transform="translate(0.08 -0.15)" style="fill: #020202;stroke: #020202;stroke-miterlimit: 10"/>
    <path d="M102.9,5.49l-6,7.66a1.85,1.85,0,0,0,0,2.24,1.12,1.12,0,0,0,1.82,0s2-2.59,3.81-4.84v7.88a1.32,1.32,0,1,0,2.58,0V6.59a1.63,1.63,0,0,0-.81-1.47A1.13,1.13,0,0,0,102.9,5.49Z" transform="translate(0.08 -0.15)" style="fill: #020202;stroke: #020202;stroke-miterlimit: 10"/>
    <path d="M131.58,11.14a1.3,1.3,0,0,0-1.18-1h-2.64l1.93-2.44s1-1.47.11-2.28-2,.08-2,.08l-4,5.12a1.84,1.84,0,0,0-.26,1.72,1.31,1.31,0,0,0,1.19,1h2.63l-3.12,4s-1.29,1.41-.34,2.36,2.2-.17,2.2-.17l5.22-6.64A1.84,1.84,0,0,0,131.58,11.14Z" transform="translate(0.08 -0.15)" style="fill: #020202;stroke: #020202;stroke-miterlimit: 10"/>
  </g>
  <circle cx="197.69" cy="55.95" r="20.15" style="fill: none;stroke: #231f20;stroke-width: 2px;stroke-dasharray: 4.019052505493164,2.009526252746582"/>
  <g>
    <path d="M25.1,91.54a19.76,19.76,0,0,1,2.45.17l.39-2.22a21.32,21.32,0,0,0-5.68,0l.39,2.22A19.76,19.76,0,0,1,25.1,91.54Z" transform="translate(0.08 -0.15)"/>
    <path d="M39.59,97.91l1.73-1.45A22.06,22.06,0,0,0,37,92.8l-1.12,1.94A20.2,20.2,0,0,1,39.59,97.91Z" transform="translate(0.08 -0.15)"/>
    <path d="M34.13,93.74l1.12-1.95a21.72,21.72,0,0,0-5.34-2l-.39,2.21A20.17,20.17,0,0,1,34.13,93.74Z" transform="translate(0.08 -0.15)"/>
    <path d="M43.33,103.68l2.1-.77A21.63,21.63,0,0,0,42.6,98l-1.73,1.45A19.64,19.64,0,0,1,43.33,103.68Z" transform="translate(0.08 -0.15)"/>
    <path d="M20.68,92.05l-.39-2.21a21.87,21.87,0,0,0-5.34,2l1.13,1.95A19.19,19.19,0,0,1,20.68,92.05Z" transform="translate(0.08 -0.15)"/>
    <path d="M44.82,110.37h2.26a22.41,22.41,0,0,0-1-5.58l-2.11.77A20.08,20.08,0,0,1,44.82,110.37Z" transform="translate(0.08 -0.15)"/>
    <path d="M44,117.17l2.1.76a21.57,21.57,0,0,0,1-5.56H44.83A19.37,19.37,0,0,1,44,117.17Z" transform="translate(0.08 -0.15)"/>
    <path d="M40.81,123.25l1.72,1.44a22.46,22.46,0,0,0,2.84-4.88l-2.1-.76A20.35,20.35,0,0,1,40.81,123.25Z" transform="translate(0.08 -0.15)"/>
    <path d="M9.33,99.44,7.6,98a22,22,0,0,0-2.83,4.92l2.1.76A19.81,19.81,0,0,1,9.33,99.44Z" transform="translate(0.08 -0.15)"/>
    <path d="M6.19,105.55l-2.1-.76a21.88,21.88,0,0,0-1,5.58H5.38A20.25,20.25,0,0,1,6.19,105.55Z" transform="translate(0.08 -0.15)"/>
    <path d="M5.37,112.37H3.14a21.57,21.57,0,0,0,1,5.56l2.1-.76A19.37,19.37,0,0,1,5.37,112.37Z" transform="translate(0.08 -0.15)"/>
    <path d="M6.94,119.05l-2.11.76a22.46,22.46,0,0,0,2.84,4.88l1.72-1.44A19.87,19.87,0,0,1,6.94,119.05Z" transform="translate(0.08 -0.15)"/>
    <path d="M35.79,127.89l1.12,1.94a22.2,22.2,0,0,0,4.32-3.62l-1.71-1.44A19.68,19.68,0,0,1,35.79,127.89Z" transform="translate(0.08 -0.15)"/>
    <path d="M10.68,124.77,9,126.21a22.2,22.2,0,0,0,4.32,3.62l1.12-1.94A19.37,19.37,0,0,1,10.68,124.77Z" transform="translate(0.08 -0.15)"/>
    <path d="M14.34,94.74,13.22,92.8a22.06,22.06,0,0,0-4.34,3.66l1.73,1.45A20.2,20.2,0,0,1,14.34,94.74Z" transform="translate(0.08 -0.15)"/>
  </g>
  <g>
    <path d="M83,127.8a19.92,19.92,0,0,1,2.46.17l.39-2.21a21.4,21.4,0,0,0-5.69,0l.39,2.21A19.9,19.9,0,0,1,83,127.8Z" transform="translate(0.08 -0.15)"/>
    <path d="M97.53,134.17l1.72-1.45a22.35,22.35,0,0,0-4.34-3.65L93.79,131A20.21,20.21,0,0,1,97.53,134.17Z" transform="translate(0.08 -0.15)"/>
    <path d="M92.06,130l1.12-1.94a22.08,22.08,0,0,0-5.33-2l-.39,2.22A19.77,19.77,0,0,1,92.06,130Z" transform="translate(0.08 -0.15)"/>
    <path d="M101.27,139.94l2.1-.77a22.2,22.2,0,0,0-2.84-4.91l-1.72,1.45A19.81,19.81,0,0,1,101.27,139.94Z" transform="translate(0.08 -0.15)"/>
    <path d="M78.61,128.32l-.39-2.22a22.08,22.08,0,0,0-5.33,2L74,130A19.61,19.61,0,0,1,78.61,128.32Z" transform="translate(0.08 -0.15)"/>
    <path d="M102.75,146.64H105a21.81,21.81,0,0,0-1-5.58l-2.11.76A19.68,19.68,0,0,1,102.75,146.64Z" transform="translate(0.08 -0.15)"/>
    <path d="M101.89,153.43l2.1.77a22.17,22.17,0,0,0,1-5.56h-2.24A19.75,19.75,0,0,1,101.89,153.43Z" transform="translate(0.08 -0.15)"/>
    <path d="M98.75,159.51l1.71,1.44a22,22,0,0,0,2.84-4.87l-2.1-.77A19.8,19.8,0,0,1,98.75,159.51Z" transform="translate(0.08 -0.15)"/>
    <path d="M67.26,135.71l-1.73-1.45a22.16,22.16,0,0,0-2.83,4.91l2.1.77A19.81,19.81,0,0,1,67.26,135.71Z" transform="translate(0.08 -0.15)"/>
    <path d="M64.13,141.82,62,141.05a22,22,0,0,0-1,5.58h2.26A19.6,19.6,0,0,1,64.13,141.82Z" transform="translate(0.08 -0.15)"/>
    <path d="M63.31,148.63H61.07a22.17,22.17,0,0,0,1,5.57l2.1-.77A19.74,19.74,0,0,1,63.31,148.63Z" transform="translate(0.08 -0.15)"/>
    <path d="M64.87,155.31l-2.11.77A22.63,22.63,0,0,0,65.6,161l1.72-1.44A19.63,19.63,0,0,1,64.87,155.31Z" transform="translate(0.08 -0.15)"/>
    <path d="M93.73,164.16l1.11,1.93a21.86,21.86,0,0,0,4.32-3.61L97.45,161A20.39,20.39,0,0,1,93.73,164.16Z" transform="translate(0.08 -0.15)"/>
    <path d="M68.61,161l-1.71,1.44a22.51,22.51,0,0,0,4.32,3.61l1.12-1.93A20.45,20.45,0,0,1,68.61,161Z" transform="translate(0.08 -0.15)"/>
    <path d="M72.28,131l-1.12-1.95a22.46,22.46,0,0,0-4.35,3.66l1.73,1.45A19.52,19.52,0,0,1,72.28,131Z" transform="translate(0.08 -0.15)"/>
  </g>
  <g>
    <path d="M145.51,127.82A19.9,19.9,0,0,1,148,128l.39-2.21a20.34,20.34,0,0,0-5.69,0l.39,2.21A19.92,19.92,0,0,1,145.51,127.82Z" transform="translate(0.08 -0.15)"/>
    <path d="M160,134.19l1.72-1.45a21.77,21.77,0,0,0-4.34-3.66L156.26,131A19.52,19.52,0,0,1,160,134.19Z" transform="translate(0.08 -0.15)"/>
    <path d="M154.53,130l1.13-1.94a21.89,21.89,0,0,0-5.34-2l-.39,2.21A20.09,20.09,0,0,1,154.53,130Z" transform="translate(0.08 -0.15)"/>
    <path d="M163.74,140l2.1-.77a22.16,22.16,0,0,0-2.83-4.91l-1.73,1.45A19.81,19.81,0,0,1,163.74,140Z" transform="translate(0.08 -0.15)"/>
    <path d="M141.08,128.33l-.38-2.21a21.59,21.59,0,0,0-5.34,2l1.12,1.94A20.09,20.09,0,0,1,141.08,128.33Z" transform="translate(0.08 -0.15)"/>
    <path d="M165.22,146.65h2.26a22,22,0,0,0-1-5.58l-2.11.77A19.14,19.14,0,0,1,165.22,146.65Z" transform="translate(0.08 -0.15)"/>
    <path d="M164.36,153.45l2.1.77a22.17,22.17,0,0,0,1-5.57h-2.24A19.74,19.74,0,0,1,164.36,153.45Z" transform="translate(0.08 -0.15)"/>
    <path d="M161.22,159.53l1.71,1.44a22.06,22.06,0,0,0,2.84-4.88l-2.1-.76A19.63,19.63,0,0,1,161.22,159.53Z" transform="translate(0.08 -0.15)"/>
    <path d="M129.73,135.72,128,134.28a22.33,22.33,0,0,0-2.83,4.91l2.11.77A19.43,19.43,0,0,1,129.73,135.72Z" transform="translate(0.08 -0.15)"/>
    <path d="M126.6,141.84l-2.11-.77a22,22,0,0,0-1,5.58h2.26A19.6,19.6,0,0,1,126.6,141.84Z" transform="translate(0.08 -0.15)"/>
    <path d="M125.78,148.65h-2.24a22,22,0,0,0,1,5.56l2.1-.76A19.74,19.74,0,0,1,125.78,148.65Z" transform="translate(0.08 -0.15)"/>
    <path d="M127.34,155.33l-2.1.76a22.06,22.06,0,0,0,2.84,4.88l1.71-1.44A19.87,19.87,0,0,1,127.34,155.33Z" transform="translate(0.08 -0.15)"/>
    <path d="M156.2,164.17l1.12,1.94a22.13,22.13,0,0,0,4.31-3.62l-1.71-1.43A19.94,19.94,0,0,1,156.2,164.17Z" transform="translate(0.08 -0.15)"/>
    <path d="M131.09,161.05l-1.72,1.44a22.5,22.5,0,0,0,4.32,3.62l1.12-1.94A19.62,19.62,0,0,1,131.09,161.05Z" transform="translate(0.08 -0.15)"/>
    <path d="M134.75,131l-1.12-1.94a22.06,22.06,0,0,0-4.34,3.66l1.72,1.45A19.94,19.94,0,0,1,134.75,131Z" transform="translate(0.08 -0.15)"/>
  </g>
  <g>
    <path d="M203.94,91.54a19.76,19.76,0,0,1,2.45.17l.39-2.22a21.32,21.32,0,0,0-5.68,0l.39,2.22A19.76,19.76,0,0,1,203.94,91.54Z" transform="translate(0.08 -0.15)"/>
    <path d="M218.43,97.91l1.73-1.45a22.06,22.06,0,0,0-4.34-3.66l-1.12,1.94A20.2,20.2,0,0,1,218.43,97.91Z" transform="translate(0.08 -0.15)"/>
    <path d="M213,93.74l1.12-1.95a21.87,21.87,0,0,0-5.34-2l-.39,2.21A20.17,20.17,0,0,1,213,93.74Z" transform="translate(0.08 -0.15)"/>
    <path d="M222.17,103.68l2.1-.77A22,22,0,0,0,221.44,98l-1.73,1.45A19.64,19.64,0,0,1,222.17,103.68Z" transform="translate(0.08 -0.15)"/>
    <path d="M199.52,92.05l-.39-2.21a21.87,21.87,0,0,0-5.34,2l1.12,1.95A19.43,19.43,0,0,1,199.52,92.05Z" transform="translate(0.08 -0.15)"/>
    <path d="M223.66,110.37h2.25a22,22,0,0,0-1-5.58l-2.1.77A20.08,20.08,0,0,1,223.66,110.37Z" transform="translate(0.08 -0.15)"/>
    <path d="M222.79,117.17l2.1.76a21.57,21.57,0,0,0,1-5.56h-2.23A19.37,19.37,0,0,1,222.79,117.17Z" transform="translate(0.08 -0.15)"/>
    <path d="M219.65,123.25l1.72,1.44a22.46,22.46,0,0,0,2.84-4.88l-2.11-.76A19.87,19.87,0,0,1,219.65,123.25Z" transform="translate(0.08 -0.15)"/>
    <path d="M188.17,99.44,186.44,98a21.63,21.63,0,0,0-2.83,4.92l2.1.76A19.81,19.81,0,0,1,188.17,99.44Z" transform="translate(0.08 -0.15)"/>
    <path d="M185,105.55l-2.1-.76a21.46,21.46,0,0,0-1,5.58h2.25A20.25,20.25,0,0,1,185,105.55Z" transform="translate(0.08 -0.15)"/>
    <path d="M184.21,112.37H182a21.57,21.57,0,0,0,1,5.56l2.1-.76A19.37,19.37,0,0,1,184.21,112.37Z" transform="translate(0.08 -0.15)"/>
    <path d="M185.78,119.05l-2.11.76a22.06,22.06,0,0,0,2.84,4.88l1.71-1.44A20.27,20.27,0,0,1,185.78,119.05Z" transform="translate(0.08 -0.15)"/>
    <path d="M214.63,127.89l1.12,1.94a22.2,22.2,0,0,0,4.32-3.62l-1.71-1.44A19.68,19.68,0,0,1,214.63,127.89Z" transform="translate(0.08 -0.15)"/>
    <path d="M189.52,124.77l-1.71,1.44a21.91,21.91,0,0,0,4.32,3.62l1.11-1.94A19.62,19.62,0,0,1,189.52,124.77Z" transform="translate(0.08 -0.15)"/>
    <path d="M193.18,94.74l-1.12-1.94a22.06,22.06,0,0,0-4.34,3.66l1.73,1.45A20.2,20.2,0,0,1,193.18,94.74Z" transform="translate(0.08 -0.15)"/>
  </g>
  <path d="M23.45,332.76A16.09,16.09,0,1,0,7.36,316.68,16.08,16.08,0,0,0,23.45,332.76Z" transform="translate(0.08 -0.15)" style="fill: none;stroke: #231f20;stroke-miterlimit: 10"/>
  <path d="M68.7,301.33l-29.42.24.15.14c5.68,2.86,8.6,8.54,8.6,15.09s-3,12.25-8.65,15.11l-.14.11,29.46-.24a15.23,15.23,0,1,0,0-30.45Z" transform="translate(0.08 -0.15)" style="fill: none;stroke: #231f20;stroke-miterlimit: 10"/>
  <path d="M163.13,332.76A16.09,16.09,0,1,0,147,316.68,16.08,16.08,0,0,0,163.13,332.76Z" transform="translate(0.08 -0.15)" style="fill: #231f20"/>
  <path d="M133.4,250a18.66,18.66,0,0,0-37.32,0c0,.41,0,.82.06,1.23a2,2,0,0,0-.06.43V281.5a1.72,1.72,0,0,0,1.72,1.72c8.54-12.17,24.76-12.07,33.89-.6a1.71,1.71,0,0,0,1.71-1.72V250.62a1.23,1.23,0,0,0,0-.19C133.39,250.29,133.4,250.16,133.4,250Z" transform="translate(0.08 -0.15)" style="fill: none;stroke: #231f20"/>
  <path d="M208.4,301.33l-34.6.24v.14c5.68,2.86,8.75,8.54,8.75,15.09s-3.09,12.25-8.8,15.11V332l34.65-.24a15.23,15.23,0,1,0,0-30.45Z" transform="translate(0.08 -0.15)" style="fill: #231f20"/>
  <polyline points="156.31 256.9 140.22 256.9 140.22 289.07 156.31 289.07" style="fill: #231f20"/>
  <polyline points="73.88 289.67 89.97 289.67 89.97 257.5 73.88 257.5" style="fill: #231f20"/>
  <path d="M73.77,290a16.09,16.09,0,1,0-16.08-16.09A16.09,16.09,0,0,0,73.77,290Z" transform="translate(0.08 -0.15)" style="fill: #231f20"/>
  <path d="M156.23,289.22a16.09,16.09,0,1,0-16.09-16.08A16.08,16.08,0,0,0,156.23,289.22Z" transform="translate(0.08 -0.15)" style="fill: #231f20"/>
  <g>
    <path d="M24.27,157a11.46,11.46,0,0,0-1.56.11l-.25-1.41a15.42,15.42,0,0,1,1.81-.12,15.25,15.25,0,0,1,1.8.12l-.25,1.41A11.42,11.42,0,0,0,24.27,157Z" transform="translate(0.08 -0.15)"/>
    <path d="M15.08,161l-1.1-.92a13.87,13.87,0,0,1,2.75-2.32l.72,1.23A12.37,12.37,0,0,0,15.08,161Z" transform="translate(0.08 -0.15)"/>
    <path d="M18.54,158.37l-.71-1.24a14.1,14.1,0,0,1,3.38-1.24l.25,1.41A12,12,0,0,0,18.54,158.37Z" transform="translate(0.08 -0.15)"/>
    <path d="M12.71,164.67l-1.33-.49a14,14,0,0,1,1.79-3.12l1.1.92A12,12,0,0,0,12.71,164.67Z" transform="translate(0.08 -0.15)"/>
    <path d="M27.07,157.3l.25-1.41a14.1,14.1,0,0,1,3.38,1.24L30,158.37A11.88,11.88,0,0,0,27.07,157.3Z" transform="translate(0.08 -0.15)"/>
    <path d="M11.77,168.91H10.33a14.26,14.26,0,0,1,.61-3.54l1.34.49A12.32,12.32,0,0,0,11.77,168.91Z" transform="translate(0.08 -0.15)"/>
    <path d="M12.31,173.22,11,173.7a13.84,13.84,0,0,1-.64-3.52h1.42A12.93,12.93,0,0,0,12.31,173.22Z" transform="translate(0.08 -0.15)"/>
    <path d="M14.3,177.08l-1.08.91a13.86,13.86,0,0,1-1.8-3.09l1.33-.49A13.18,13.18,0,0,0,14.3,177.08Z" transform="translate(0.08 -0.15)"/>
    <path d="M34.27,162l1.09-.92a14,14,0,0,1,1.8,3.12l-1.34.48A12.55,12.55,0,0,0,34.27,162Z" transform="translate(0.08 -0.15)"/>
    <path d="M36.25,165.86l1.34-.49a13.82,13.82,0,0,1,.61,3.54H36.77A12.25,12.25,0,0,0,36.25,165.86Z" transform="translate(0.08 -0.15)"/>
    <path d="M36.77,170.18h1.42a13.84,13.84,0,0,1-.64,3.52l-1.33-.48A12.44,12.44,0,0,0,36.77,170.18Z" transform="translate(0.08 -0.15)"/>
    <path d="M35.78,174.41l1.34.49a14.68,14.68,0,0,1-1.8,3.09l-1.09-.92A12.84,12.84,0,0,0,35.78,174.41Z" transform="translate(0.08 -0.15)"/>
    <path d="M17.49,180l-.71,1.22A13.77,13.77,0,0,1,14,179l1.09-.91A12.21,12.21,0,0,0,17.49,180Z" transform="translate(0.08 -0.15)"/>
    <path d="M33.41,178l1.08.91a13.77,13.77,0,0,1-2.74,2.29l-.7-1.22A12.84,12.84,0,0,0,33.41,178Z" transform="translate(0.08 -0.15)"/>
    <path d="M31.08,159l.71-1.23a13.65,13.65,0,0,1,2.76,2.32l-1.1.92A12.37,12.37,0,0,0,31.08,159Z" transform="translate(0.08 -0.15)"/>
  </g>
  <g>
    <path d="M90.76,194.81a13.33,13.33,0,0,0-1.56.1l-.25-1.4a15.57,15.57,0,0,1,1.81-.12,15.25,15.25,0,0,1,1.8.12l-.25,1.4A13.3,13.3,0,0,0,90.76,194.81Z" transform="translate(0.08 -0.15)"/>
    <path d="M81.57,198.85l-1.09-.92a13.59,13.59,0,0,1,2.75-2.32l.71,1.23A12.68,12.68,0,0,0,81.57,198.85Z" transform="translate(0.08 -0.15)"/>
    <path d="M85,196.2,84.32,195a14,14,0,0,1,3.39-1.24l.24,1.41A12.43,12.43,0,0,0,85,196.2Z" transform="translate(0.08 -0.15)"/>
    <path d="M79.2,202.5,77.87,202a14,14,0,0,1,1.79-3.12l1.1.92A12.35,12.35,0,0,0,79.2,202.5Z" transform="translate(0.08 -0.15)"/>
    <path d="M93.56,195.13l.25-1.4A14.1,14.1,0,0,1,97.19,195l-.71,1.23A12.58,12.58,0,0,0,93.56,195.13Z" transform="translate(0.08 -0.15)"/>
    <path d="M78.26,206.75H76.83a13.82,13.82,0,0,1,.61-3.54l1.33.49A12.72,12.72,0,0,0,78.26,206.75Z" transform="translate(0.08 -0.15)"/>
    <path d="M78.81,211.06l-1.34.48a13.84,13.84,0,0,1-.64-3.52h1.42A12.45,12.45,0,0,0,78.81,211.06Z" transform="translate(0.08 -0.15)"/>
    <path d="M80.8,214.91l-1.09.92a13.71,13.71,0,0,1-1.8-3.1l1.33-.48A12.45,12.45,0,0,0,80.8,214.91Z" transform="translate(0.08 -0.15)"/>
    <path d="M100.76,199.82l1.09-.92a14,14,0,0,1,1.8,3.12l-1.34.48A12.31,12.31,0,0,0,100.76,199.82Z" transform="translate(0.08 -0.15)"/>
    <path d="M102.74,203.69l1.34-.48a13.74,13.74,0,0,1,.61,3.54h-1.43A12.41,12.41,0,0,0,102.74,203.69Z" transform="translate(0.08 -0.15)"/>
    <path d="M103.26,208h1.42a13.84,13.84,0,0,1-.64,3.53l-1.33-.48A12,12,0,0,0,103.26,208Z" transform="translate(0.08 -0.15)"/>
    <path d="M102.27,212.25l1.34.48a14,14,0,0,1-1.8,3.09l-1.09-.91A12,12,0,0,0,102.27,212.25Z" transform="translate(0.08 -0.15)"/>
    <path d="M84,217.86l-.71,1.22a13.77,13.77,0,0,1-2.74-2.29l1.09-.91A12.21,12.21,0,0,0,84,217.86Z" transform="translate(0.08 -0.15)"/>
    <path d="M99.9,215.88l1.08.91a14,14,0,0,1-2.73,2.29l-.71-1.22A13.25,13.25,0,0,0,99.9,215.88Z" transform="translate(0.08 -0.15)"/>
    <path d="M97.58,196.84l.71-1.23a13.87,13.87,0,0,1,2.75,2.32l-1.1.92A12.25,12.25,0,0,0,97.58,196.84Z" transform="translate(0.08 -0.15)"/>
  </g>
  <g>
    <path d="M138.73,194.81a13.3,13.3,0,0,0-1.55.1l-.25-1.4a13.56,13.56,0,0,1,3.6,0l-.24,1.4A13.33,13.33,0,0,0,138.73,194.81Z" transform="translate(0.08 -0.15)"/>
    <path d="M129.55,198.85l-1.1-.92a13.87,13.87,0,0,1,2.75-2.32l.71,1.23A12.62,12.62,0,0,0,129.55,198.85Z" transform="translate(0.08 -0.15)"/>
    <path d="M133,196.2,132.3,195a14,14,0,0,1,3.38-1.24l.25,1.41A12.12,12.12,0,0,0,133,196.2Z" transform="translate(0.08 -0.15)"/>
    <path d="M127.18,202.5l-1.34-.48a14,14,0,0,1,1.8-3.12l1.09.92A12.31,12.31,0,0,0,127.18,202.5Z" transform="translate(0.08 -0.15)"/>
    <path d="M141.54,195.13l.24-1.4a14,14,0,0,1,3.39,1.24l-.72,1.23A12.67,12.67,0,0,0,141.54,195.13Z" transform="translate(0.08 -0.15)"/>
    <path d="M126.23,206.75H124.8a13.82,13.82,0,0,1,.61-3.54l1.34.49A12.25,12.25,0,0,0,126.23,206.75Z" transform="translate(0.08 -0.15)"/>
    <path d="M126.78,211.06l-1.33.48a13.84,13.84,0,0,1-.64-3.52h1.42A12,12,0,0,0,126.78,211.06Z" transform="translate(0.08 -0.15)"/>
    <path d="M128.77,214.91l-1.09.92a14.09,14.09,0,0,1-1.8-3.1l1.34-.48A12.41,12.41,0,0,0,128.77,214.91Z" transform="translate(0.08 -0.15)"/>
    <path d="M148.73,199.82l1.1-.92a14,14,0,0,1,1.79,3.12l-1.33.48A12.35,12.35,0,0,0,148.73,199.82Z" transform="translate(0.08 -0.15)"/>
    <path d="M150.72,203.69l1.33-.48a13.33,13.33,0,0,1,.61,3.54h-1.43A12.88,12.88,0,0,0,150.72,203.69Z" transform="translate(0.08 -0.15)"/>
    <path d="M151.24,208h1.42a13.84,13.84,0,0,1-.64,3.53l-1.33-.48A12.92,12.92,0,0,0,151.24,208Z" transform="translate(0.08 -0.15)"/>
    <path d="M150.25,212.25l1.33.48a13.64,13.64,0,0,1-1.8,3.09l-1.08-.91A12.84,12.84,0,0,0,150.25,212.25Z" transform="translate(0.08 -0.15)"/>
    <path d="M132,217.86l-.7,1.22a13.77,13.77,0,0,1-2.74-2.29l1.08-.91A12.84,12.84,0,0,0,132,217.86Z" transform="translate(0.08 -0.15)"/>
    <path d="M147.87,215.88l1.09.91a13.77,13.77,0,0,1-2.74,2.29l-.71-1.22A12.58,12.58,0,0,0,147.87,215.88Z" transform="translate(0.08 -0.15)"/>
    <path d="M145.55,196.84l.71-1.23a13.93,13.93,0,0,1,2.76,2.32l-1.1.92A12.31,12.31,0,0,0,145.55,196.84Z" transform="translate(0.08 -0.15)"/>
  </g>
  <g>
    <path d="M205.52,157a11.31,11.31,0,0,0-1.55.11l-.25-1.41a13.56,13.56,0,0,1,3.6,0l-.24,1.41A11.57,11.57,0,0,0,205.52,157Z" transform="translate(0.08 -0.15)"/>
    <path d="M196.33,161l-1.09-.92a13.87,13.87,0,0,1,2.75-2.32l.71,1.23A13,13,0,0,0,196.33,161Z" transform="translate(0.08 -0.15)"/>
    <path d="M199.8,158.37l-.71-1.24a14,14,0,0,1,3.38-1.24l.25,1.41A11.73,11.73,0,0,0,199.8,158.37Z" transform="translate(0.08 -0.15)"/>
    <path d="M194,164.67l-1.33-.49a14,14,0,0,1,1.8-3.12l1.09.92A12.84,12.84,0,0,0,194,164.67Z" transform="translate(0.08 -0.15)"/>
    <path d="M208.32,157.3l.25-1.41a14,14,0,0,1,3.38,1.24l-.71,1.24A11.73,11.73,0,0,0,208.32,157.3Z" transform="translate(0.08 -0.15)"/>
    <path d="M193,168.91h-1.43a13.82,13.82,0,0,1,.61-3.54l1.34.49A12.33,12.33,0,0,0,193,168.91Z" transform="translate(0.08 -0.15)"/>
    <path d="M193.57,173.22l-1.33.48a13.84,13.84,0,0,1-.64-3.52H193A12,12,0,0,0,193.57,173.22Z" transform="translate(0.08 -0.15)"/>
    <path d="M195.56,177.08l-1.09.91a14.26,14.26,0,0,1-1.8-3.09l1.34-.49A12.31,12.31,0,0,0,195.56,177.08Z" transform="translate(0.08 -0.15)"/>
    <path d="M215.52,162l1.1-.92a14,14,0,0,1,1.79,3.12l-1.33.48A13,13,0,0,0,215.52,162Z" transform="translate(0.08 -0.15)"/>
    <path d="M217.51,165.86l1.33-.49a13.82,13.82,0,0,1,.61,3.54H218A12.72,12.72,0,0,0,217.51,165.86Z" transform="translate(0.08 -0.15)"/>
    <path d="M218,170.18h1.41a13,13,0,0,1-.64,3.52l-1.33-.48A12.45,12.45,0,0,0,218,170.18Z" transform="translate(0.08 -0.15)"/>
    <path d="M217,174.41l1.33.49a13.86,13.86,0,0,1-1.8,3.09l-1.09-.92A12.45,12.45,0,0,0,217,174.41Z" transform="translate(0.08 -0.15)"/>
    <path d="M198.74,180l-.71,1.22A14,14,0,0,1,195.3,179l1.08-.91A12.84,12.84,0,0,0,198.74,180Z" transform="translate(0.08 -0.15)"/>
    <path d="M214.66,178l1.09.91a13.77,13.77,0,0,1-2.74,2.29L212.3,180A12.21,12.21,0,0,0,214.66,178Z" transform="translate(0.08 -0.15)"/>
    <path d="M212.34,159l.71-1.23a13.59,13.59,0,0,1,2.75,2.32l-1.09.92A13,13,0,0,0,212.34,159Z" transform="translate(0.08 -0.15)"/>
  </g>
  <path d="M212.65,3.93h-8.88l.12.18a4.5,4.5,0,0,0,0,9l-.12-.06h8.88l.12.06a4.5,4.5,0,1,0,0-9" transform="translate(0.08 -0.15)" style="stroke: #010101;stroke-miterlimit: 10;stroke-width: 0.239999994635582px"/>
  <rect x="69.93" y="27.78" width="95.52" height="89.52" style="fill: #231f20"/>
  <path d="M16.81,3.93h9.12l.12.18a4.5,4.5,0,1,1,0,9l-.12-.06H16.81l.12.06a4.5,4.5,0,0,1,0-9" transform="translate(0.08 -0.15)" style="stroke: #010101;stroke-miterlimit: 10;stroke-width: 0.239999994635582px"/>
  <path d="M212.77,351.39a4.5,4.5,0,0,1,0,9l-.12-.06h-8.88l.12.06a4.5,4.5,0,0,1,0-9l-.12-.18h8.88" transform="translate(0.08 -0.15)" style="stroke: #010101;stroke-miterlimit: 10;stroke-width: 0.239999994635582px"/>
  <path d="M16.93,351.39a4.5,4.5,0,0,0,0,9l-.12-.06h9.12l.12.06a4.5,4.5,0,1,0,0-9l-.12-.18H16.81" transform="translate(0.08 -0.15)" style="stroke: #010101;stroke-miterlimit: 10;stroke-width: 0.239999994635582px"/>
</svg>
