<svg id="Layer_1" data-name="Layer 1" xmlns="http://www.w3.org/2000/svg" width="375.17" height="365.25" viewBox="0 0 375.17 365.25">
  <rect x="0.5" y="0.5" width="374.17" height="364.25" style="fill: #fff;stroke: #231f20"/>
  <g>
    <path d="M356.76,13a4.54,4.54,0,0,0,0-9.07h-8.44a4.54,4.54,0,0,0,0,9.07Z" transform="translate(0.5 0.5)"/>
    <path d="M356.76,360.29a4.54,4.54,0,0,0,0-9.07h-8.44a4.54,4.54,0,0,0,0,9.07Z" transform="translate(0.5 0.5)"/>
  </g>
  <g>
    <path d="M25.85,13a4.54,4.54,0,1,0,0-9.07H17.41a4.54,4.54,0,0,0,0,9.07Z" transform="translate(0.5 0.5)"/>
    <path d="M25.85,360.29a4.54,4.54,0,1,0,0-9.07H17.41a4.54,4.54,0,0,0,0,9.07Z" transform="translate(0.5 0.5)"/>
  </g>
  <path d="M352.24,235.41a16.09,16.09,0,1,0-16.09-16.08A16.08,16.08,0,0,0,352.24,235.41Z" transform="translate(0.5 0.5)" style="fill: #231f20"/>
  <g>
    <path d="M13.18,296.64l-.21.1-.18.07-.24.08a4.29,4.29,0,0,1-1.11.15,2.44,2.44,0,0,1-1.1-.26,1.94,1.94,0,0,1-.81-.82,2.71,2.71,0,0,1-.31-1.36,3.2,3.2,0,0,1,.16-1,1.74,1.74,0,0,1,.48-.8,2.23,2.23,0,0,1,.54-.38,2,2,0,0,1,.53-.18,3.52,3.52,0,0,1,.58,0,3.43,3.43,0,0,1,.86.09c.22.06.47.15.74.25v1.12a2.63,2.63,0,0,0-.57-.31,1.78,1.78,0,0,0-.74-.13,1.35,1.35,0,0,0-.82.23,1.27,1.27,0,0,0-.43.56,1.84,1.84,0,0,0-.12.63,1.59,1.59,0,0,0,.14.66,1.11,1.11,0,0,0,.42.49,1.23,1.23,0,0,0,.68.18,1.69,1.69,0,0,0,.48-.07v-.56h-.54v-.95h1.57Z" transform="translate(0.5 0.5)" style="fill: #231f20"/>
    <path d="M17,296.81l-.42.17a1.56,1.56,0,0,1-.46.06.45.45,0,0,1-.35-.11.72.72,0,0,1-.14-.26,1.54,1.54,0,0,1-.36.27,1.19,1.19,0,0,1-.53.1.88.88,0,0,1-.51-.13.71.71,0,0,1-.27-.33,1,1,0,0,1-.08-.41.93.93,0,0,1,.13-.53,1,1,0,0,1,.36-.35,5.23,5.23,0,0,1,.61-.28l.32-.12.16-.07a.24.24,0,0,0,.11-.06.77.77,0,0,0-.08-.4.41.41,0,0,0-.37-.14,1.15,1.15,0,0,0-.62.18,2.28,2.28,0,0,0-.53.46v-.95a1.83,1.83,0,0,1,.42-.26,1.79,1.79,0,0,1,.46-.16,2.63,2.63,0,0,1,.49-.05,1.37,1.37,0,0,1,.94.29,1.05,1.05,0,0,1,.32.81v1.34a.94.94,0,0,0,0,.28c0,.07.05.1.1.1a.53.53,0,0,0,.27-.1Zm-1.43-.67v-.82a2.36,2.36,0,0,0-.53.32.46.46,0,0,0-.16.38.38.38,0,0,0,.08.27.26.26,0,0,0,.19.09.44.44,0,0,0,.21-.07A1.57,1.57,0,0,0,15.52,296.14Z" transform="translate(0.5 0.5)" style="fill: #231f20"/>
    <path d="M19.54,296.78a2.32,2.32,0,0,1-.43.18,2.14,2.14,0,0,1-.54.08c-.73,0-1.1-.43-1.1-1.3v-1.39H17v-.21l1.37-1.68h.11v1h1v.85h-1v1.12a2.41,2.41,0,0,0,0,.31.36.36,0,0,0,.11.2.41.41,0,0,0,.28.08,1.31,1.31,0,0,0,.64-.24Z" transform="translate(0.5 0.5)" style="fill: #231f20"/>
    <path d="M23,295.54h-2a.93.93,0,0,0,.29.52.81.81,0,0,0,.53.2,2.43,2.43,0,0,0,1.14-.35v.76a2.27,2.27,0,0,1-1.36.37,1.63,1.63,0,0,1-.9-.24,1.42,1.42,0,0,1-.56-.65,2.35,2.35,0,0,1,0-1.85,1.42,1.42,0,0,1,.56-.63,1.72,1.72,0,0,1,.9-.23,1.36,1.36,0,0,1,.68.18,1.33,1.33,0,0,1,.54.6,2.37,2.37,0,0,1,.21,1.07Zm-1-.61a1,1,0,0,0-.13-.54.47.47,0,0,0-.4-.2.48.48,0,0,0-.41.21.8.8,0,0,0-.16.53Z" transform="translate(0.5 0.5)" style="fill: #231f20"/>
    <path d="M26.54,297H25.35v-4.74h1.19Z" transform="translate(0.5 0.5)" style="fill: #231f20"/>
    <path d="M30.45,297h-1V295.1a1.54,1.54,0,0,0-.08-.5.33.33,0,0,0-.34-.21.38.38,0,0,0-.22.06.46.46,0,0,0-.17.14l-.13.17c0,.06-.07.11-.1.18v2h-1V293.5h1v.5a1.6,1.6,0,0,1,.48-.44,1.19,1.19,0,0,1,.54-.12c.69,0,1,.5,1,1.5Z" transform="translate(0.5 0.5)" style="fill: #231f20"/>
    <path d="M34.72,297H33.65v-4.74h1.07Z" transform="translate(0.5 0.5)" style="fill: #231f20"/>
  </g>
  <g>
    <path d="M56.7,296.64l-.22.1-.17.07-.25.08a3.58,3.58,0,0,1-.53.11,3.48,3.48,0,0,1-.57,0,2.45,2.45,0,0,1-1.11-.26A2,2,0,0,1,53,296a2.82,2.82,0,0,1-.3-1.36,3.5,3.5,0,0,1,.15-1,1.93,1.93,0,0,1,.48-.8,2.23,2.23,0,0,1,.54-.38,2.14,2.14,0,0,1,.54-.18,3.45,3.45,0,0,1,.58,0,3.35,3.35,0,0,1,.85.09c.23.06.47.15.74.25v1.12a2.57,2.57,0,0,0-.56-.31,1.82,1.82,0,0,0-.74-.13,1.38,1.38,0,0,0-.83.23,1.32,1.32,0,0,0-.42.56,1.87,1.87,0,0,0-.13.63,1.59,1.59,0,0,0,.14.66,1.13,1.13,0,0,0,1.1.67,1.69,1.69,0,0,0,.48-.07v-.56h-.53v-.95H56.7Z" transform="translate(0.5 0.5)" style="fill: #231f20"/>
    <path d="M60.46,296.81l-.41.17a1.56,1.56,0,0,1-.46.06.42.42,0,0,1-.35-.11.6.6,0,0,1-.14-.26,1.59,1.59,0,0,1-.37.27,1.14,1.14,0,0,1-.53.1.88.88,0,0,1-.51-.13.71.71,0,0,1-.27-.33,1.19,1.19,0,0,1-.08-.41.92.92,0,0,1,.14-.53,1,1,0,0,1,.36-.35,4.35,4.35,0,0,1,.6-.28l.32-.12.17-.07.11-.06a.76.76,0,0,0-.09-.4c-.05-.09-.17-.14-.36-.14a1.18,1.18,0,0,0-.63.18,2.23,2.23,0,0,0-.52.46v-.95a1.77,1.77,0,0,1,.41-.26,1.93,1.93,0,0,1,.46-.16,2.72,2.72,0,0,1,.49-.05,1.36,1.36,0,0,1,.94.29,1,1,0,0,1,.32.81v1.34a.94.94,0,0,0,0,.28c0,.07.06.1.11.1a.54.54,0,0,0,.26-.1ZM59,296.14v-.82a2.15,2.15,0,0,0-.53.32.47.47,0,0,0-.17.38.38.38,0,0,0,.09.27.25.25,0,0,0,.19.09.44.44,0,0,0,.21-.07A1.57,1.57,0,0,0,59,296.14Z" transform="translate(0.5 0.5)" style="fill: #231f20"/>
    <path d="M63.06,296.78a2.46,2.46,0,0,1-.44.18,2,2,0,0,1-.53.08c-.74,0-1.11-.43-1.11-1.3v-1.39h-.46v-.21l1.37-1.68H62v1h1v.85H62v1.12a1.37,1.37,0,0,0,0,.31.31.31,0,0,0,.11.2.38.38,0,0,0,.28.08,1.34,1.34,0,0,0,.64-.24Z" transform="translate(0.5 0.5)" style="fill: #231f20"/>
    <path d="M66.47,295.54h-2a.88.88,0,0,0,.29.52.79.79,0,0,0,.53.2,2.43,2.43,0,0,0,1.14-.35v.76a2.57,2.57,0,0,1-.55.26A2.59,2.59,0,0,1,65,297a1.65,1.65,0,0,1-.91-.24,1.42,1.42,0,0,1-.56-.65,2.47,2.47,0,0,1,0-1.85,1.42,1.42,0,0,1,.56-.63,1.73,1.73,0,0,1,.91-.23,1.41,1.41,0,0,1,.68.18,1.33,1.33,0,0,1,.54.6,2.37,2.37,0,0,1,.21,1.07Zm-1-.61a1,1,0,0,0-.14-.54.45.45,0,0,0-.39-.2.51.51,0,0,0-.42.21.86.86,0,0,0-.15.53Z" transform="translate(0.5 0.5)" style="fill: #231f20"/>
    <path d="M70.06,297H68.87v-4.74h1.19Z" transform="translate(0.5 0.5)" style="fill: #231f20"/>
    <path d="M74,297h-1V295.1a1.31,1.31,0,0,0-.08-.5.32.32,0,0,0-.34-.21.43.43,0,0,0-.22.06.55.55,0,0,0-.17.14,1.36,1.36,0,0,0-.12.17l-.11.18v2h-1V293.5h1v.5a1.51,1.51,0,0,1,.49-.44,1.19,1.19,0,0,1,.54-.12c.69,0,1,.5,1,1.5Z" transform="translate(0.5 0.5)" style="fill: #231f20"/>
    <path d="M79.2,297h-3v-.09c.12-.14.25-.3.38-.48l.54-.75.28-.41a4,4,0,0,0,.23-.39,2.05,2.05,0,0,0,.15-.42,1.43,1.43,0,0,0,.07-.46.85.85,0,0,0-.16-.54.49.49,0,0,0-.4-.2,1.3,1.3,0,0,0-1,.6v-1.12l.28-.2a1.2,1.2,0,0,1,.25-.16,1.75,1.75,0,0,1,.33-.13,1.86,1.86,0,0,1,.42-.05,1.31,1.31,0,0,1,.65.17,1.29,1.29,0,0,1,.47.51,1.75,1.75,0,0,1,.16.78,2.22,2.22,0,0,1-.07.59,3,3,0,0,1-.16.44l-.22.41c-.16.29-.34.57-.52.84H79.2Z" transform="translate(0.5 0.5)" style="fill: #231f20"/>
  </g>
  <g>
    <path d="M340.23,240.8l-.22.09-.17.07-.25.08a3.58,3.58,0,0,1-.53.11,3.48,3.48,0,0,1-.57,0,2.45,2.45,0,0,1-1.11-.26,2,2,0,0,1-.81-.82,2.82,2.82,0,0,1-.3-1.36,3.5,3.5,0,0,1,.15-1,1.93,1.93,0,0,1,.48-.8,2.23,2.23,0,0,1,.54-.38,2,2,0,0,1,.54-.18,3.32,3.32,0,0,1,.57,0,3.38,3.38,0,0,1,.86.09c.23.06.47.15.74.25v1.12a3.06,3.06,0,0,0-.56-.31,1.83,1.83,0,0,0-.75-.13,1.37,1.37,0,0,0-.82.23,1.34,1.34,0,0,0-.43.56,1.84,1.84,0,0,0-.12.63,1.59,1.59,0,0,0,.14.66,1.19,1.19,0,0,0,.42.49,1.25,1.25,0,0,0,.68.18,1.69,1.69,0,0,0,.48-.07v-.56h-.53v-.95h1.57Z" transform="translate(0.5 0.5)" style="fill: #231f20"/>
    <path d="M344,241l-.41.17a1.56,1.56,0,0,1-.46.06.42.42,0,0,1-.35-.11.55.55,0,0,1-.14-.26,1.59,1.59,0,0,1-.37.27,1.14,1.14,0,0,1-.53.1.88.88,0,0,1-.51-.13.71.71,0,0,1-.27-.33,1.15,1.15,0,0,1-.08-.41,1,1,0,0,1,.14-.53,1,1,0,0,1,.36-.35,3.49,3.49,0,0,1,.6-.27l.32-.13.17-.07.11-.06a.76.76,0,0,0-.09-.4.39.39,0,0,0-.36-.14,1.18,1.18,0,0,0-.63.18,2.23,2.23,0,0,0-.52.46v-.95a1.77,1.77,0,0,1,.41-.26,2.51,2.51,0,0,1,.46-.16,2.72,2.72,0,0,1,.49,0,1.36,1.36,0,0,1,.94.29,1,1,0,0,1,.32.81V240a.94.94,0,0,0,0,.28c0,.07.06.1.11.1a.54.54,0,0,0,.26-.1Zm-1.42-.67v-.82a2.15,2.15,0,0,0-.53.32.47.47,0,0,0-.17.38.38.38,0,0,0,.09.27.25.25,0,0,0,.19.09.35.35,0,0,0,.21-.07A1.57,1.57,0,0,0,342.57,240.29Z" transform="translate(0.5 0.5)" style="fill: #231f20"/>
    <path d="M346.59,240.93a2.46,2.46,0,0,1-.44.18,2.07,2.07,0,0,1-.53.08c-.74,0-1.11-.43-1.11-1.3v-1.38h-.46v-.22l1.37-1.68h.12v1h1v.86h-1v1.11a1.37,1.37,0,0,0,0,.31.31.31,0,0,0,.11.2.38.38,0,0,0,.28.08,1.34,1.34,0,0,0,.64-.24Z" transform="translate(0.5 0.5)" style="fill: #231f20"/>
    <path d="M350,239.69h-2a1,1,0,0,0,.3.52.79.79,0,0,0,.53.2,2.36,2.36,0,0,0,1.13-.35v.76a2.47,2.47,0,0,1-.54.26,2.59,2.59,0,0,1-.81.11,1.65,1.65,0,0,1-.91-.24,1.42,1.42,0,0,1-.56-.65,2.27,2.27,0,0,1-.18-.93,2.21,2.21,0,0,1,.18-.91,1.4,1.4,0,0,1,.56-.64,1.73,1.73,0,0,1,.91-.23,1.41,1.41,0,0,1,.68.18,1.33,1.33,0,0,1,.54.6,2.37,2.37,0,0,1,.21,1.07Zm-1-.61a1,1,0,0,0-.14-.54.44.44,0,0,0-.39-.19.5.5,0,0,0-.42.2.86.86,0,0,0-.15.53Z" transform="translate(0.5 0.5)" style="fill: #231f20"/>
    <path d="M356.6,238.76a2.9,2.9,0,0,1-.25,1.22,2.1,2.1,0,0,1-.76.88,2.43,2.43,0,0,1-2.46,0,2.19,2.19,0,0,1-.75-.9,3.1,3.1,0,0,1,0-2.39,2,2,0,0,1,.75-.89,2.15,2.15,0,0,1,1.24-.34,2.33,2.33,0,0,1,1,.19,2,2,0,0,1,.7.53,2.43,2.43,0,0,1,.42.78A3.12,3.12,0,0,1,356.6,238.76Zm-1.21,0a1.88,1.88,0,0,0-.06-.49,1.15,1.15,0,0,0-.2-.38,1,1,0,0,0-.32-.25,1,1,0,0,0-1.19.24,1.36,1.36,0,0,0-.27.88,1.38,1.38,0,0,0,.27.88.92.92,0,0,0,.75.33,1,1,0,0,0,.55-.15.93.93,0,0,0,.35-.43A1.54,1.54,0,0,0,355.39,238.76Z" transform="translate(0.5 0.5)" style="fill: #231f20"/>
    <path d="M360.21,241.13h-1v-.5a1.47,1.47,0,0,1-.45.42,1,1,0,0,1-.57.14.81.81,0,0,1-.85-.46,2.61,2.61,0,0,1-.19-1v-2h1v1.88a1.5,1.5,0,0,0,.08.5.32.32,0,0,0,.34.21.43.43,0,0,0,.35-.15,2.31,2.31,0,0,0,.27-.4v-2h1Z" transform="translate(0.5 0.5)" style="fill: #231f20"/>
    <path d="M363.15,240.93a2.82,2.82,0,0,1-.44.18,2.14,2.14,0,0,1-.54.08c-.73,0-1.1-.43-1.1-1.3v-1.38h-.46v-.22l1.37-1.68h.11v1h1v.86h-1v1.11a2.41,2.41,0,0,0,0,.31.36.36,0,0,0,.11.2.41.41,0,0,0,.28.08,1.37,1.37,0,0,0,.65-.24Z" transform="translate(0.5 0.5)" style="fill: #231f20"/>
    <path d="M367.25,241.13h-1.07v-4.74h1.07Z" transform="translate(0.5 0.5)" style="fill: #231f20"/>
  </g>
  <path d="M331.8,238.33a16.09,16.09,0,1,0-16.08,16.09A16.08,16.08,0,0,0,331.8,238.33Z" transform="translate(0.5 0.5)" style="fill: #231f20"/>
  <g>
    <path d="M303.71,259.46l-.22.09-.17.07-.25.08a3.58,3.58,0,0,1-.53.11,3.48,3.48,0,0,1-.57,0,2.33,2.33,0,0,1-1.11-.26,1.94,1.94,0,0,1-.81-.82,2.82,2.82,0,0,1-.3-1.36,3.6,3.6,0,0,1,.15-1,1.93,1.93,0,0,1,.48-.8,2.54,2.54,0,0,1,.54-.38,2.14,2.14,0,0,1,.54-.18,5,5,0,0,1,.58,0,3.35,3.35,0,0,1,.85.09l.74.25v1.12a2.77,2.77,0,0,0-.56-.31,1.82,1.82,0,0,0-.74-.13,1.32,1.32,0,0,0-.83.24,1.24,1.24,0,0,0-.42.55,1.84,1.84,0,0,0-.12.63,1.67,1.67,0,0,0,.13.67,1.22,1.22,0,0,0,.42.48,1.25,1.25,0,0,0,.68.18,1.69,1.69,0,0,0,.48-.07v-.56h-.53v-.95h1.57Z" transform="translate(0.5 0.5)" style="fill: #231f20"/>
    <path d="M307.47,259.62l-.41.17a1.56,1.56,0,0,1-.46.06.46.46,0,0,1-.35-.1.63.63,0,0,1-.14-.27,1.41,1.41,0,0,1-.37.27,1.14,1.14,0,0,1-.53.1.88.88,0,0,1-.51-.13.71.71,0,0,1-.27-.33,1.15,1.15,0,0,1-.08-.41,1,1,0,0,1,.14-.53,1.1,1.1,0,0,1,.36-.35,3.49,3.49,0,0,1,.6-.27l.32-.13.17-.06.11-.07a.73.73,0,0,0-.09-.39q-.07-.15-.36-.15a1.18,1.18,0,0,0-.63.18,2.23,2.23,0,0,0-.52.46v-.94a1.82,1.82,0,0,1,.41-.27,2.51,2.51,0,0,1,.46-.16,2.72,2.72,0,0,1,.49-.05,1.4,1.4,0,0,1,.95.29,1.06,1.06,0,0,1,.31.81v1.34a1.07,1.07,0,0,0,0,.29.11.11,0,0,0,.11.09.54.54,0,0,0,.26-.1Zm-1.42-.67v-.82a2.51,2.51,0,0,0-.53.32.47.47,0,0,0-.17.38.37.37,0,0,0,.09.27.25.25,0,0,0,.19.09.35.35,0,0,0,.21-.07A1.57,1.57,0,0,0,306.05,259Z" transform="translate(0.5 0.5)" style="fill: #231f20"/>
    <path d="M310.07,259.59a2.46,2.46,0,0,1-.44.18,1.67,1.67,0,0,1-.53.08c-.74,0-1.11-.43-1.11-1.3v-1.38h-.46V257l1.37-1.68H309v1h1v.86h-1v1.11a1.47,1.47,0,0,0,0,.32.33.33,0,0,0,.11.2.43.43,0,0,0,.28.08,1.38,1.38,0,0,0,.64-.25Z" transform="translate(0.5 0.5)" style="fill: #231f20"/>
    <path d="M313.48,258.35h-2a.88.88,0,0,0,.29.52.79.79,0,0,0,.53.2,2.43,2.43,0,0,0,1.14-.35v.76a2.57,2.57,0,0,1-.55.26,2.33,2.33,0,0,1-.81.11,1.65,1.65,0,0,1-.91-.24,1.46,1.46,0,0,1-.56-.64,2.34,2.34,0,0,1-.18-.93,2.22,2.22,0,0,1,.18-.92,1.51,1.51,0,0,1,.56-.64,1.73,1.73,0,0,1,.91-.23,1.41,1.41,0,0,1,.68.18,1.44,1.44,0,0,1,.54.6,2.4,2.4,0,0,1,.21,1.07Zm-1-.61a.92.92,0,0,0-.14-.53.43.43,0,0,0-.39-.2.5.5,0,0,0-.42.2.88.88,0,0,0-.15.53Z" transform="translate(0.5 0.5)" style="fill: #231f20"/>
    <path d="M320.08,257.42a2.9,2.9,0,0,1-.25,1.22,2.06,2.06,0,0,1-.76.89,2.24,2.24,0,0,1-1.22.32,2.15,2.15,0,0,1-1.24-.34,2.19,2.19,0,0,1-.75-.9,3,3,0,0,1-.24-1.19,2.94,2.94,0,0,1,.24-1.19,2.12,2.12,0,0,1,.75-.9,2.15,2.15,0,0,1,1.24-.34,2.3,2.3,0,0,1,1,.19,2,2,0,0,1,.7.53,2.25,2.25,0,0,1,.42.78A3.12,3.12,0,0,1,320.08,257.42Zm-1.21,0a1.88,1.88,0,0,0-.06-.49,1.25,1.25,0,0,0-.2-.38,1,1,0,0,0-.32-.25,1,1,0,0,0-.44-.09.92.92,0,0,0-.75.33,1.57,1.57,0,0,0,0,1.76.92.92,0,0,0,.75.34.9.9,0,0,0,.55-.16.93.93,0,0,0,.35-.43A1.54,1.54,0,0,0,318.87,257.42Z" transform="translate(0.5 0.5)" style="fill: #231f20"/>
    <path d="M323.69,259.79h-1v-.49a1.76,1.76,0,0,1-.45.42,1.14,1.14,0,0,1-.57.13.81.81,0,0,1-.85-.46,2.59,2.59,0,0,1-.19-1v-2.05h1v1.88a1.5,1.5,0,0,0,.08.5.32.32,0,0,0,.34.21.43.43,0,0,0,.35-.15,2.19,2.19,0,0,0,.27-.39v-2.05h1Z" transform="translate(0.5 0.5)" style="fill: #231f20"/>
    <path d="M326.63,259.59a2.82,2.82,0,0,1-.44.18,1.77,1.77,0,0,1-.54.08c-.73,0-1.1-.43-1.1-1.3v-1.38h-.46V257l1.37-1.68h.11v1h1v.86h-1v1.11a2.58,2.58,0,0,0,0,.32.35.35,0,0,0,.12.2.41.41,0,0,0,.27.08,1.41,1.41,0,0,0,.65-.25Z" transform="translate(0.5 0.5)" style="fill: #231f20"/>
    <path d="M331.7,259.79h-3v-.09c.12-.13.24-.3.38-.48l.53-.74.29-.41a4.09,4.09,0,0,0,.22-.39,2.61,2.61,0,0,0,.16-.42,1.53,1.53,0,0,0,.07-.47.86.86,0,0,0-.16-.53.49.49,0,0,0-.4-.21,1.3,1.3,0,0,0-1,.6v-1.11l.27-.21a2.07,2.07,0,0,1,.25-.15,1.51,1.51,0,0,1,.34-.14,1.7,1.7,0,0,1,.41,0,1.26,1.26,0,0,1,.66.18,1.15,1.15,0,0,1,.46.51,1.71,1.71,0,0,1,.17.77,1.87,1.87,0,0,1-.08.59,3.16,3.16,0,0,1-.15.44l-.22.42a9.8,9.8,0,0,1-.53.83h1.28Z" transform="translate(0.5 0.5)" style="fill: #231f20"/>
  </g>
  <path d="M109.25,298.15a16.09,16.09,0,1,0-16.09-16.09A16.09,16.09,0,0,0,109.25,298.15Z" transform="translate(0.5 0.5)" style="fill: none;stroke: #231f20;stroke-miterlimit: 10"/>
  <path d="M66,290.29A16.09,16.09,0,1,0,49.88,274.2,16.09,16.09,0,0,0,66,290.29Z" transform="translate(0.5 0.5)" style="fill: none;stroke: #231f20;stroke-miterlimit: 10"/>
  <line x1="116.38" y1="264.16" x2="116.38" y2="264.09" style="fill: #231f20"/>
  <path d="M282.27,220.94h-3.59v-5.41h3.53v1.08h-2.09v1h2v1.09h-2v1.15h2.15Z" transform="translate(0.5 0.5)" style="fill: #231f20"/>
  <g>
    <path d="M253.53,355h-1.39l-.37-1.1h-2l-.37,1.1h-1.39l2-5.42h1.5Zm-2.07-2-.66-2-.66,2Z" transform="translate(0.5 0.5)" style="fill: #231f20"/>
    <path d="M257.5,355h-1.16v-.57a1.91,1.91,0,0,1-.52.48,1.23,1.23,0,0,1-.65.16.93.93,0,0,1-1-.53,3,3,0,0,1-.22-1.18V351h1.17v2.15a1.66,1.66,0,0,0,.09.57.36.36,0,0,0,.38.24.52.52,0,0,0,.41-.17,3.84,3.84,0,0,0,.31-.45V351h1.16Z" transform="translate(0.5 0.5)" style="fill: #231f20"/>
    <path d="M261.74,355h-1.17v-.36a1.9,1.9,0,0,1-.39.31,1.1,1.1,0,0,1-.57.12,1.25,1.25,0,0,1-.7-.22,1.53,1.53,0,0,1-.57-.67,2.54,2.54,0,0,1-.23-1.14,3.07,3.07,0,0,1,.17-1,1.7,1.7,0,0,1,.53-.77,1.5,1.5,0,0,1,1.41-.21,1.15,1.15,0,0,1,.35.22v-1.68h1.17Zm-1.17-1.27V352.2a2.6,2.6,0,0,0-.32-.19A.54.54,0,0,0,260,352a.55.55,0,0,0-.46.28,1.42,1.42,0,0,0-.18.77,1.26,1.26,0,0,0,.19.76.61.61,0,0,0,.79.16A1.16,1.16,0,0,0,260.57,353.72Z" transform="translate(0.5 0.5)" style="fill: #231f20"/>
    <path d="M263.71,355h-1.17v-4h1.17Zm-.09-4.9a.6.6,0,0,1-.15.42.41.41,0,0,1-.34.17.36.36,0,0,1-.25-.08.46.46,0,0,1-.18-.21.73.73,0,0,1-.06-.3.59.59,0,0,1,.14-.41.42.42,0,0,1,.35-.18.42.42,0,0,1,.34.18A.59.59,0,0,1,263.62,350.09Z" transform="translate(0.5 0.5)" style="fill: #231f20"/>
    <path d="M268.16,353a2.52,2.52,0,0,1-.21,1.05,1.77,1.77,0,0,1-.64.74,1.94,1.94,0,0,1-1,.27,1.89,1.89,0,0,1-1-.27,1.64,1.64,0,0,1-.64-.74,2.52,2.52,0,0,1-.21-1.05,3,3,0,0,1,.11-.82,1.88,1.88,0,0,1,.36-.65,1.64,1.64,0,0,1,.6-.44,2.07,2.07,0,0,1,.82-.15,1.94,1.94,0,0,1,.82.16,1.44,1.44,0,0,1,.59.43,1.79,1.79,0,0,1,.36.65A2.62,2.62,0,0,1,268.16,353Zm-1.23,0a1.37,1.37,0,0,0-.17-.74.55.55,0,0,0-.49-.27.53.53,0,0,0-.49.27,1.28,1.28,0,0,0-.18.74,1.35,1.35,0,0,0,.18.74.53.53,0,0,0,.49.27.55.55,0,0,0,.49-.27A1.42,1.42,0,0,0,266.93,353Z" transform="translate(0.5 0.5)" style="fill: #231f20"/>
    <path d="M271.81,349.5l-2.45,5.56h-.87l2.45-5.56Z" transform="translate(0.5 0.5)" style="fill: #231f20"/>
    <path d="M276.49,354.58a2.51,2.51,0,0,1-.57.28,3,3,0,0,1-.59.15,4.07,4.07,0,0,1-.61.05,2.69,2.69,0,0,1-1.05-.2,2.3,2.3,0,0,1-.81-.57,2.46,2.46,0,0,1-.51-.89,3.37,3.37,0,0,1-.17-1.12,3.31,3.31,0,0,1,.2-1.23,2.29,2.29,0,0,1,.56-.87,2.35,2.35,0,0,1,.82-.51,2.7,2.7,0,0,1,1-.17,4.54,4.54,0,0,1,1.73.41v1.44a4,4,0,0,0-.66-.42,1.64,1.64,0,0,0-.76-.17,1.57,1.57,0,0,0-.74.19,1.47,1.47,0,0,0-.54.54,1.53,1.53,0,0,0-.21.81,1.6,1.6,0,0,0,.18.75,1.47,1.47,0,0,0,.5.55,1.4,1.4,0,0,0,.73.2,2.38,2.38,0,0,0,1.11-.31,4.29,4.29,0,0,0,.41-.28Z" transform="translate(0.5 0.5)" style="fill: #231f20"/>
    <path d="M281.8,349.57l-2,5.49h-.89l-2-5.49h1.41l1,3.13,1.06-3.13Z" transform="translate(0.5 0.5)" style="fill: #231f20"/>
    <path d="M289.2,352.28a3.36,3.36,0,0,1-.29,1.39,2.38,2.38,0,0,1-.87,1,2.76,2.76,0,0,1-2.81,0,2.37,2.37,0,0,1-.85-1,3.28,3.28,0,0,1-.28-1.36,3.45,3.45,0,0,1,.27-1.37,2.44,2.44,0,0,1,.86-1,2.48,2.48,0,0,1,1.41-.39,2.67,2.67,0,0,1,1.12.22,2.22,2.22,0,0,1,.8.61,2.49,2.49,0,0,1,.47.88A3.43,3.43,0,0,1,289.2,352.28Zm-1.39,0a2,2,0,0,0-.07-.56,1.16,1.16,0,0,0-.23-.44,1.12,1.12,0,0,0-.36-.29,1.19,1.19,0,0,0-.51-.1,1.05,1.05,0,0,0-.85.38,1.54,1.54,0,0,0-.31,1,1.51,1.51,0,0,0,.31,1,1,1,0,0,0,.85.39,1.12,1.12,0,0,0,.64-.18,1.14,1.14,0,0,0,.4-.49A1.81,1.81,0,0,0,287.81,352.28Z" transform="translate(0.5 0.5)" style="fill: #231f20"/>
    <path d="M293.32,355h-1.16v-.57a1.91,1.91,0,0,1-.52.48,1.24,1.24,0,0,1-.66.16.93.93,0,0,1-1-.53,3,3,0,0,1-.22-1.18V351H291v2.15a2,2,0,0,0,.09.57.37.37,0,0,0,.39.24.53.53,0,0,0,.41-.17,3.84,3.84,0,0,0,.31-.45V351h1.16Z" transform="translate(0.5 0.5)" style="fill: #231f20"/>
    <path d="M296.67,354.76a2.57,2.57,0,0,1-.5.2,1.9,1.9,0,0,1-.61.1c-.84,0-1.26-.5-1.26-1.49V352h-.53v-.25l1.57-1.92h.13V351h1.12v1h-1.12v1.27a3.21,3.21,0,0,0,0,.36.41.41,0,0,0,.13.23.49.49,0,0,0,.32.09,1.46,1.46,0,0,0,.73-.28Z" transform="translate(0.5 0.5)" style="fill: #231f20"/>
    <path d="M299.77,353.83a1.24,1.24,0,0,1-.33.89,1.38,1.38,0,0,1-1,.34,2.51,2.51,0,0,1-.65-.08,6.27,6.27,0,0,1-.63-.23v-1a3.51,3.51,0,0,0,.52.31,1,1,0,0,0,.47.1c.3,0,.44-.09.44-.29a.27.27,0,0,0-.06-.17.88.88,0,0,0-.22-.17l-.42-.23a1.63,1.63,0,0,1-.55-.46,1.12,1.12,0,0,1-.23-.71,1.16,1.16,0,0,1,.15-.57,1.17,1.17,0,0,1,.46-.45,1.49,1.49,0,0,1,.73-.17l.27,0a2.14,2.14,0,0,1,.4.09,2.18,2.18,0,0,1,.47.21v1l-.18-.12a.94.94,0,0,0-.18-.11,1.47,1.47,0,0,0-.28-.12,1.12,1.12,0,0,0-.32,0,.36.36,0,0,0-.28.09.28.28,0,0,0-.07.19.29.29,0,0,0,.08.18,1.74,1.74,0,0,0,.34.21,3,3,0,0,1,.63.37,1.15,1.15,0,0,1,.33.41A1.27,1.27,0,0,1,299.77,353.83Z" transform="translate(0.5 0.5)" style="fill: #231f20"/>
  </g>
  <g>
    <path d="M83.63,353.44H82.24l-.36-1.1h-2l-.37,1.1H78.16l2-5.41h1.5Zm-2.07-2-.65-2-.67,2Z" transform="translate(0.5 0.5)" style="fill: #231f20"/>
    <path d="M87.6,353.44H86.44v-.57a1.77,1.77,0,0,1-.52.48,1.23,1.23,0,0,1-.65.16.93.93,0,0,1-1-.53,3,3,0,0,1-.22-1.18v-2.34h1.17v2.15a1.62,1.62,0,0,0,.09.57.37.37,0,0,0,.39.24.48.48,0,0,0,.4-.17,3.84,3.84,0,0,0,.31-.45v-2.34H87.6Z" transform="translate(0.5 0.5)" style="fill: #231f20"/>
    <path d="M91.84,353.44H90.67v-.36a1.61,1.61,0,0,1-.39.31,1.1,1.1,0,0,1-.57.12,1.35,1.35,0,0,1-.7-.21,1.66,1.66,0,0,1-.57-.67,2.62,2.62,0,0,1-.23-1.15,3.12,3.12,0,0,1,.17-1,1.7,1.7,0,0,1,.53-.77,1.5,1.5,0,0,1,1.41-.21,1.38,1.38,0,0,1,.35.22V348h1.17Zm-1.17-1.27v-1.52c-.13-.09-.24-.15-.31-.19a.61.61,0,0,0-.28-.06.52.52,0,0,0-.45.28,1.33,1.33,0,0,0-.19.77,1.24,1.24,0,0,0,.2.77.54.54,0,0,0,.44.24.63.63,0,0,0,.34-.08A1.21,1.21,0,0,0,90.67,352.17Z" transform="translate(0.5 0.5)" style="fill: #231f20"/>
    <path d="M93.81,353.44H92.64v-4h1.17Zm-.09-4.89a.59.59,0,0,1-.15.41.42.42,0,0,1-.34.18.44.44,0,0,1-.25-.08.49.49,0,0,1-.18-.22.72.72,0,0,1-.06-.29.59.59,0,0,1,.14-.42.42.42,0,0,1,.35-.18.42.42,0,0,1,.34.18A.6.6,0,0,1,93.72,348.55Z" transform="translate(0.5 0.5)" style="fill: #231f20"/>
    <path d="M98.26,351.45a2.57,2.57,0,0,1-.21,1.06,1.75,1.75,0,0,1-.64.73,1.92,1.92,0,0,1-1,.27,1.89,1.89,0,0,1-1-.27,1.62,1.62,0,0,1-.64-.73,2.57,2.57,0,0,1-.21-1.06,2.66,2.66,0,0,1,.12-.82A1.67,1.67,0,0,1,95,350a1.58,1.58,0,0,1,.59-.43,2.18,2.18,0,0,1,1.64,0,1.54,1.54,0,0,1,.6.43,1.93,1.93,0,0,1,.35.65A2.62,2.62,0,0,1,98.26,351.45Zm-1.23,0a1.31,1.31,0,0,0-.17-.74.55.55,0,0,0-.49-.27.53.53,0,0,0-.49.27,1.31,1.31,0,0,0-.17.74,1.33,1.33,0,0,0,.17.74.58.58,0,0,0,1,0A1.33,1.33,0,0,0,97,351.45Z" transform="translate(0.5 0.5)" style="fill: #231f20"/>
    <path d="M101.91,348l-2.45,5.56H98.6L101,348Z" transform="translate(0.5 0.5)" style="fill: #231f20"/>
    <path d="M106.59,353a2.51,2.51,0,0,1-.57.28,3,3,0,0,1-.59.16,4,4,0,0,1-.61,0,2.69,2.69,0,0,1-1-.2,2.3,2.3,0,0,1-.81-.57,2.46,2.46,0,0,1-.51-.89,3.83,3.83,0,0,1,0-2.35,2.29,2.29,0,0,1,.56-.87,2.35,2.35,0,0,1,.82-.51,2.93,2.93,0,0,1,1-.17,4.54,4.54,0,0,1,1.73.41v1.44a4,4,0,0,0-.66-.42,1.64,1.64,0,0,0-.76-.16,1.59,1.59,0,0,0-.74.18,1.47,1.47,0,0,0-.54.54,1.66,1.66,0,0,0,0,1.56,1.47,1.47,0,0,0,.5.55,1.4,1.4,0,0,0,.73.2,1.79,1.79,0,0,0,.62-.1,2.06,2.06,0,0,0,.49-.21,3.32,3.32,0,0,0,.41-.28Z" transform="translate(0.5 0.5)" style="fill: #231f20"/>
    <path d="M111.9,348l-2,5.48H109L107,348h1.41l1,3.12,1.06-3.12Z" transform="translate(0.5 0.5)" style="fill: #231f20"/>
    <path d="M115.85,353.44h-1.36V348h1.36Z" transform="translate(0.5 0.5)" style="fill: #231f20"/>
    <path d="M120.32,353.44h-1.17V351.3a1.72,1.72,0,0,0-.09-.58.37.37,0,0,0-.39-.24.51.51,0,0,0-.25.06.77.77,0,0,0-.19.17l-.15.19-.12.2v2.34h-1.17v-4H118V350a1.73,1.73,0,0,1,.55-.49,1.29,1.29,0,0,1,.62-.15c.79,0,1.19.57,1.19,1.71Z" transform="translate(0.5 0.5)" style="fill: #231f20"/>
    <path d="M123.6,352.28a1.24,1.24,0,0,1-.33.89,1.32,1.32,0,0,1-1,.34,2.51,2.51,0,0,1-.65-.08,4,4,0,0,1-.62-.23v-1a3,3,0,0,0,.51.31,1,1,0,0,0,.47.11c.3,0,.44-.1.44-.29a.28.28,0,0,0-.06-.18.88.88,0,0,0-.22-.17l-.42-.23a1.63,1.63,0,0,1-.55-.46,1.12,1.12,0,0,1-.23-.71,1.21,1.21,0,0,1,.15-.57,1.09,1.09,0,0,1,.46-.44,1.39,1.39,0,0,1,.73-.18l.27,0a2.14,2.14,0,0,1,.4.09,2.18,2.18,0,0,1,.47.21v1l-.18-.13-.18-.11a1.49,1.49,0,0,0-.28-.11.86.86,0,0,0-.32,0,.36.36,0,0,0-.28.09.37.37,0,0,0-.07.19.29.29,0,0,0,.08.18,1.07,1.07,0,0,0,.35.21,3.17,3.17,0,0,1,.62.37,1.15,1.15,0,0,1,.33.41A1.3,1.3,0,0,1,123.6,352.28Z" transform="translate(0.5 0.5)" style="fill: #231f20"/>
  </g>
  <g>
    <path d="M164.72,357.78h-1.89v-4.31l-1.71,2.5H161l-1.72-2.5v4.31h-1.84v-7.44h1.72l1.93,2.79,1.95-2.79h1.71Z" transform="translate(0.5 0.5)" style="fill: #231f20"/>
    <path d="M170.69,355.52h-3.25a1.38,1.38,0,0,0,.46.81,1.28,1.28,0,0,0,.85.32,3.77,3.77,0,0,0,1.82-.55v1.2a4.17,4.17,0,0,1-.87.4,4,4,0,0,1-1.3.18,2.7,2.7,0,0,1-1.45-.38,2.34,2.34,0,0,1-.9-1,3.77,3.77,0,0,1,0-2.9,2.29,2.29,0,0,1,.9-1,2.79,2.79,0,0,1,1.45-.36,2.15,2.15,0,0,1,1.09.29,2.09,2.09,0,0,1,.86.94,3.56,3.56,0,0,1,.34,1.68Zm-1.53-1a1.49,1.49,0,0,0-.22-.84.73.73,0,0,0-.64-.31.79.79,0,0,0-.66.32,1.34,1.34,0,0,0-.25.83Z" transform="translate(0.5 0.5)" style="fill: #231f20"/>
    <path d="M175.05,357.47a4.21,4.21,0,0,1-.7.28,3,3,0,0,1-.86.13q-1.77,0-1.77-2v-2.18H171v-.34l2.2-2.64h.18v1.64h1.56v1.34h-1.56v1.75a3.19,3.19,0,0,0,0,.49.64.64,0,0,0,.18.32.71.71,0,0,0,.45.12,2.14,2.14,0,0,0,1-.38Z" transform="translate(0.5 0.5)" style="fill: #231f20"/>
    <path d="M180.46,357.51a5.75,5.75,0,0,1-.66.27,2.22,2.22,0,0,1-.73.1.75.75,0,0,1-.56-.17,1,1,0,0,1-.23-.41,2.39,2.39,0,0,1-.58.42,1.9,1.9,0,0,1-.85.16,1.41,1.41,0,0,1-.81-.21,1.05,1.05,0,0,1-.44-.52,1.77,1.77,0,0,1-.12-.64,1.54,1.54,0,0,1,.21-.84,1.77,1.77,0,0,1,.58-.54,7.59,7.59,0,0,1,1-.44l.52-.19.26-.11.18-.09a1.13,1.13,0,0,0-.14-.63c-.09-.15-.28-.22-.59-.22a1.86,1.86,0,0,0-1,.28,3.32,3.32,0,0,0-.84.72V353a2.58,2.58,0,0,1,.66-.43,3.05,3.05,0,0,1,.74-.24,4.13,4.13,0,0,1,.78-.08,2.17,2.17,0,0,1,1.51.46,1.6,1.6,0,0,1,.5,1.26v2.11a1.64,1.64,0,0,0,.05.45.18.18,0,0,0,.18.15.83.83,0,0,0,.41-.16Zm-2.27-1.05v-1.29a4,4,0,0,0-.85.5.74.74,0,0,0-.27.6.57.57,0,0,0,.14.42.4.4,0,0,0,.31.15.62.62,0,0,0,.33-.11A2.68,2.68,0,0,0,178.19,356.46Z" transform="translate(0.5 0.5)" style="fill: #231f20"/>
    <path d="M191.14,357.78h-1.9v-4.31l-1.71,2.5h-.15l-1.72-2.5v4.31h-1.84v-7.44h1.72l1.93,2.79,1.95-2.79h1.72Z" transform="translate(0.5 0.5)" style="fill: #231f20"/>
    <path d="M197.47,355a3.4,3.4,0,0,1-.3,1.46,2.32,2.32,0,0,1-.9,1,3,3,0,0,1-2.91,0,2.24,2.24,0,0,1-.89-1,3.4,3.4,0,0,1-.3-1.46,3.61,3.61,0,0,1,.16-1.12,2.55,2.55,0,0,1,.51-.89,2.19,2.19,0,0,1,.83-.6,2.9,2.9,0,0,1,1.14-.21,3,3,0,0,1,1.16.21,2.28,2.28,0,0,1,.83.59,2.64,2.64,0,0,1,.5.9A3.6,3.6,0,0,1,197.47,355Zm-1.72,0a1.82,1.82,0,0,0-.24-1,.77.77,0,0,0-.7-.37.76.76,0,0,0-.68.37,1.82,1.82,0,0,0-.24,1,1.88,1.88,0,0,0,.24,1,.82.82,0,0,0,1.38,0A1.89,1.89,0,0,0,195.75,355Z" transform="translate(0.5 0.5)" style="fill: #231f20"/>
    <path d="M203.11,357.78h-1.64v-.49a2.43,2.43,0,0,1-.55.42,1.57,1.57,0,0,1-.79.17,1.84,1.84,0,0,1-1-.3,2.15,2.15,0,0,1-.8-.92,3.46,3.46,0,0,1-.31-1.57,4.24,4.24,0,0,1,.23-1.4,2.4,2.4,0,0,1,.74-1.06,1.87,1.87,0,0,1,1.24-.41,1.85,1.85,0,0,1,.73.12,1.9,1.9,0,0,1,.5.3v-2.3h1.64ZM201.47,356V354l-.44-.27a.92.92,0,0,0-.38-.08.76.76,0,0,0-.65.39,1.9,1.9,0,0,0-.25,1.05,1.66,1.66,0,0,0,.27,1.06.8.8,0,0,0,.63.33.93.93,0,0,0,.47-.11A1.79,1.79,0,0,0,201.47,356Z" transform="translate(0.5 0.5)" style="fill: #231f20"/>
    <path d="M208.92,357.78h-1.64V357a2.43,2.43,0,0,1-.72.66,1.78,1.78,0,0,1-.91.22,1.32,1.32,0,0,1-1.36-.72,4.23,4.23,0,0,1-.31-1.63v-3.21h1.64v2.95a2.28,2.28,0,0,0,.12.78.54.54,0,0,0,.55.34.7.7,0,0,0,.57-.25,3.57,3.57,0,0,0,.42-.61v-3.21h1.64Z" transform="translate(0.5 0.5)" style="fill: #231f20"/>
    <path d="M211.59,357.78H210v-7.44h1.63Z" transform="translate(0.5 0.5)" style="fill: #231f20"/>
    <path d="M217.37,355.52h-3.26a1.39,1.39,0,0,0,.47.81,1.28,1.28,0,0,0,.84.32,3.84,3.84,0,0,0,1.83-.55v1.2a4.42,4.42,0,0,1-.87.4,4,4,0,0,1-1.3.18,2.68,2.68,0,0,1-1.45-.38,2.34,2.34,0,0,1-.9-1,3.65,3.65,0,0,1,0-2.9,2.29,2.29,0,0,1,.9-1,2.76,2.76,0,0,1,1.45-.36,2.17,2.17,0,0,1,1.09.29,2.14,2.14,0,0,1,.86.94,3.68,3.68,0,0,1,.34,1.68Zm-1.54-1a1.42,1.42,0,0,0-.22-.84.73.73,0,0,0-.63-.31.79.79,0,0,0-.66.32,1.28,1.28,0,0,0-.25.83Z" transform="translate(0.5 0.5)" style="fill: #231f20"/>
  </g>
  <g>
    <path d="M194.11,8.58l-6.91,8.79V9.84a1.61,1.61,0,0,0-.81-1.47,1.13,1.13,0,0,0-1.41.37l-9.1,11.56a1.86,1.86,0,0,0,0,2.24,1.13,1.13,0,0,0,1.82-.05l6.87-8.73v7.53a1.61,1.61,0,0,0,.81,1.47,1.13,1.13,0,0,0,1.42-.37l6.91-8.79v7.69a1.32,1.32,0,1,0,2.58,0V9.68a1.62,1.62,0,0,0-.81-1.47A1.13,1.13,0,0,0,194.11,8.58Z" transform="translate(0.5 0.5)" style="fill: #030303;stroke: #030303;stroke-miterlimit: 10"/>
    <path d="M175.88,8.49l-6,7.66a1.86,1.86,0,0,0,0,2.24,1.13,1.13,0,0,0,1.83,0s2-2.59,3.81-4.84v7.88a1.32,1.32,0,1,0,2.58,0V9.59a1.63,1.63,0,0,0-.81-1.47A1.15,1.15,0,0,0,175.88,8.49Z" transform="translate(0.5 0.5)" style="fill: #030303;stroke: #030303;stroke-miterlimit: 10"/>
    <path d="M204.57,14.14a1.31,1.31,0,0,0-1.19-1h-2.63l1.92-2.44s1-1.47.12-2.28-2,.08-2,.08l-4,5.12a1.84,1.84,0,0,0-.25,1.72,1.31,1.31,0,0,0,1.18,1h2.64l-3.12,4s-1.29,1.41-.34,2.36,2.2-.17,2.2-.17l5.22-6.64A1.87,1.87,0,0,0,204.57,14.14Z" transform="translate(0.5 0.5)" style="fill: #030303;stroke: #030303;stroke-miterlimit: 10"/>
  </g>
  <g>
    <path d="M280.22,173.67a19.9,19.9,0,0,1,2.45.17l.39-2.22a21.32,21.32,0,0,0-5.68,0l.38,2.22A20.06,20.06,0,0,1,280.22,173.67Z" transform="translate(0.5 0.5)"/>
    <path d="M294.71,180l1.73-1.45a22.06,22.06,0,0,0-4.34-3.66L291,176.87A20.2,20.2,0,0,1,294.71,180Z" transform="translate(0.5 0.5)"/>
    <path d="M289.25,175.87l1.12-1.94a21.49,21.49,0,0,0-5.34-2l-.39,2.21A20.34,20.34,0,0,1,289.25,175.87Z" transform="translate(0.5 0.5)"/>
    <path d="M298.45,185.81l2.1-.77a22.23,22.23,0,0,0-2.83-4.92L296,181.57A19.64,19.64,0,0,1,298.45,185.81Z" transform="translate(0.5 0.5)"/>
    <path d="M275.8,174.18l-.39-2.21a21.72,21.72,0,0,0-5.34,1.95l1.12,2A19.71,19.71,0,0,1,275.8,174.18Z" transform="translate(0.5 0.5)"/>
    <path d="M299.94,192.5h2.25a22,22,0,0,0-1-5.58l-2.11.77A19.61,19.61,0,0,1,299.94,192.5Z" transform="translate(0.5 0.5)"/>
    <path d="M299.07,199.3l2.1.76a21.57,21.57,0,0,0,1-5.56H300A19.84,19.84,0,0,1,299.07,199.3Z" transform="translate(0.5 0.5)"/>
    <path d="M295.93,205.38l1.72,1.44a22.46,22.46,0,0,0,2.84-4.88l-2.11-.76A19.87,19.87,0,0,1,295.93,205.38Z" transform="translate(0.5 0.5)"/>
    <path d="M264.44,181.57l-1.72-1.45a21.63,21.63,0,0,0-2.83,4.92l2.1.76A19.77,19.77,0,0,1,264.44,181.57Z" transform="translate(0.5 0.5)"/>
    <path d="M261.31,187.69l-2.1-.77a21.54,21.54,0,0,0-1,5.58h2.26A19.6,19.6,0,0,1,261.31,187.69Z" transform="translate(0.5 0.5)"/>
    <path d="M260.49,194.5h-2.23a22,22,0,0,0,1,5.56l2.1-.76A19.83,19.83,0,0,1,260.49,194.5Z" transform="translate(0.5 0.5)"/>
    <path d="M262.05,201.18l-2.1.76a22.06,22.06,0,0,0,2.84,4.88l1.71-1.44A20.31,20.31,0,0,1,262.05,201.18Z" transform="translate(0.5 0.5)"/>
    <path d="M290.91,210,292,212a22.5,22.5,0,0,0,4.32-3.62l-1.71-1.43A20,20,0,0,1,290.91,210Z" transform="translate(0.5 0.5)"/>
    <path d="M265.8,206.9l-1.72,1.44a22.26,22.26,0,0,0,4.33,3.62l1.11-1.94A19.62,19.62,0,0,1,265.8,206.9Z" transform="translate(0.5 0.5)"/>
    <path d="M269.46,176.87l-1.12-1.94a22.06,22.06,0,0,0-4.34,3.66l1.73,1.45A19.87,19.87,0,0,1,269.46,176.87Z" transform="translate(0.5 0.5)"/>
  </g>
  <path d="M342.81,190.58h-2v2.19h-1.44v-5.41h3.42v1.08h-2v1.05h2Z" transform="translate(0.5 0.5)" style="fill: #231f20"/>
  <g>
    <path d="M340.84,146.4a22.09,22.09,0,0,1,2.46.16l.39-2.21a21.4,21.4,0,0,0-5.69,0l.39,2.21A22.07,22.07,0,0,1,340.84,146.4Z" transform="translate(0.5 0.5)"/>
    <path d="M355.34,152.77l1.72-1.45a22.06,22.06,0,0,0-4.34-3.66l-1.12,1.94A19.94,19.94,0,0,1,355.34,152.77Z" transform="translate(0.5 0.5)"/>
    <path d="M349.87,148.6l1.13-1.95a21.87,21.87,0,0,0-5.34-2l-.39,2.21A19.63,19.63,0,0,1,349.87,148.6Z" transform="translate(0.5 0.5)"/>
    <path d="M359.08,158.54l2.1-.77a22,22,0,0,0-2.83-4.92l-1.73,1.45A19.64,19.64,0,0,1,359.08,158.54Z" transform="translate(0.5 0.5)"/>
    <path d="M336.42,146.91,336,144.7a21.64,21.64,0,0,0-5.33,2l1.12,1.95A19.19,19.19,0,0,1,336.42,146.91Z" transform="translate(0.5 0.5)"/>
    <path d="M360.56,165.23h2.26a22,22,0,0,0-1-5.58l-2.11.77A19.6,19.6,0,0,1,360.56,165.23Z" transform="translate(0.5 0.5)"/>
    <path d="M359.7,172l2.1.76a22,22,0,0,0,1-5.56h-2.24A19.83,19.83,0,0,1,359.7,172Z" transform="translate(0.5 0.5)"/>
    <path d="M356.56,178.11l1.71,1.44a22.06,22.06,0,0,0,2.84-4.88l-2.1-.76A20.31,20.31,0,0,1,356.56,178.11Z" transform="translate(0.5 0.5)"/>
    <path d="M325.07,154.3l-1.73-1.45a22.4,22.4,0,0,0-2.83,4.92l2.1.76A19.81,19.81,0,0,1,325.07,154.3Z" transform="translate(0.5 0.5)"/>
    <path d="M321.94,160.41l-2.11-.76a21.88,21.88,0,0,0-1,5.58h2.26A19.76,19.76,0,0,1,321.94,160.41Z" transform="translate(0.5 0.5)"/>
    <path d="M321.12,167.23h-2.24a22,22,0,0,0,1,5.56L322,172A19.83,19.83,0,0,1,321.12,167.23Z" transform="translate(0.5 0.5)"/>
    <path d="M322.68,173.91l-2.1.76a21.68,21.68,0,0,0,2.84,4.88l1.71-1.44A19.87,19.87,0,0,1,322.68,173.91Z" transform="translate(0.5 0.5)"/>
    <path d="M351.54,182.75l1.12,1.94a22.13,22.13,0,0,0,4.31-3.62l-1.71-1.44A19.62,19.62,0,0,1,351.54,182.75Z" transform="translate(0.5 0.5)"/>
    <path d="M326.43,179.63l-1.72,1.44a22.5,22.5,0,0,0,4.32,3.62l1.12-1.94A19.31,19.31,0,0,1,326.43,179.63Z" transform="translate(0.5 0.5)"/>
    <path d="M330.09,149.6,329,147.66a22.41,22.41,0,0,0-4.35,3.66l1.73,1.45A19.94,19.94,0,0,1,330.09,149.6Z" transform="translate(0.5 0.5)"/>
  </g>
  <path d="M156.91,239.77a3,3,0,0,1-.6.28,3.6,3.6,0,0,1-.63.15,4.51,4.51,0,0,1-.65.05,3,3,0,0,1-1.11-.2,2.3,2.3,0,0,1-.86-.58,2.45,2.45,0,0,1-.54-.89,3.61,3.61,0,0,1,0-2.34,2.26,2.26,0,0,1,.6-.87,2.4,2.4,0,0,1,.87-.52,3.22,3.22,0,0,1,1-.16,4.89,4.89,0,0,1,1.84.41v1.44a4.32,4.32,0,0,0-.7-.42,1.86,1.86,0,0,0-.81-.17,1.73,1.73,0,0,0-.78.19,1.5,1.5,0,0,0-.58.54,1.53,1.53,0,0,0-.22.81,1.5,1.5,0,0,0,.2.75,1.31,1.31,0,0,0,.53.54,1.43,1.43,0,0,0,.77.2,2.39,2.39,0,0,0,.66-.09,4.64,4.64,0,0,0,.52-.21,4.46,4.46,0,0,0,.43-.28Z" transform="translate(0.5 0.5)" style="fill: #231f20"/>
  <g>
    <path d="M154.22,193.8a19.76,19.76,0,0,1,2.45.17l.4-2.21a22.49,22.49,0,0,0-2.85-.19,22.21,22.21,0,0,0-2.84.19l.39,2.21A19.76,19.76,0,0,1,154.22,193.8Z" transform="translate(0.5 0.5)"/>
    <path d="M168.71,200.17l1.73-1.45a22.4,22.4,0,0,0-4.34-3.66L165,197A19.77,19.77,0,0,1,168.71,200.17Z" transform="translate(0.5 0.5)"/>
    <path d="M163.25,196l1.12-1.94a22.15,22.15,0,0,0-5.34-2l-.39,2.22A19.68,19.68,0,0,1,163.25,196Z" transform="translate(0.5 0.5)"/>
    <path d="M172.45,205.94l2.1-.77a21.78,21.78,0,0,0-2.83-4.91L170,201.71A19.4,19.4,0,0,1,172.45,205.94Z" transform="translate(0.5 0.5)"/>
    <path d="M149.8,194.32l-.39-2.22a22.31,22.31,0,0,0-5.34,2L145.2,196A19.61,19.61,0,0,1,149.8,194.32Z" transform="translate(0.5 0.5)"/>
    <path d="M173.94,212.64h2.26a22.41,22.41,0,0,0-1-5.59l-2.11.77A19.68,19.68,0,0,1,173.94,212.64Z" transform="translate(0.5 0.5)"/>
    <path d="M173.07,219.43l2.11.77a22.16,22.16,0,0,0,1-5.56H174A19.29,19.29,0,0,1,173.07,219.43Z" transform="translate(0.5 0.5)"/>
    <path d="M169.93,225.51l1.72,1.44a22.22,22.22,0,0,0,2.84-4.87l-2.1-.77A19.84,19.84,0,0,1,169.93,225.51Z" transform="translate(0.5 0.5)"/>
    <path d="M138.45,201.71l-1.73-1.45a22.16,22.16,0,0,0-2.83,4.91l2.1.77A19.81,19.81,0,0,1,138.45,201.71Z" transform="translate(0.5 0.5)"/>
    <path d="M135.32,207.82l-2.11-.77a22,22,0,0,0-1,5.58h2.25A19.61,19.61,0,0,1,135.32,207.82Z" transform="translate(0.5 0.5)"/>
    <path d="M134.49,214.63h-2.23a21.73,21.73,0,0,0,1,5.57l2.1-.77A19.28,19.28,0,0,1,134.49,214.63Z" transform="translate(0.5 0.5)"/>
    <path d="M136.06,221.31l-2.11.77a22.63,22.63,0,0,0,2.84,4.87l1.72-1.44A19.63,19.63,0,0,1,136.06,221.31Z" transform="translate(0.5 0.5)"/>
    <path d="M164.91,230.16l1.12,1.93a21.85,21.85,0,0,0,4.32-3.62L168.64,227A20.12,20.12,0,0,1,164.91,230.16Z" transform="translate(0.5 0.5)"/>
    <path d="M139.8,227l-1.71,1.43a22.2,22.2,0,0,0,4.32,3.62l1.12-1.94A20,20,0,0,1,139.8,227Z" transform="translate(0.5 0.5)"/>
    <path d="M143.47,197l-1.13-1.95a22.4,22.4,0,0,0-4.34,3.66l1.73,1.45A19.52,19.52,0,0,1,143.47,197Z" transform="translate(0.5 0.5)"/>
  </g>
  <path d="M96.16,218.45a1.5,1.5,0,0,1-.42,1.11,1.59,1.59,0,0,1-1.18.42H91.81v-5.41h2.3a3,3,0,0,1,.78.09,1.7,1.7,0,0,1,.54.27,1.27,1.27,0,0,1,.3.4,1.22,1.22,0,0,1,.1.51,1.45,1.45,0,0,1-.1.55,1.51,1.51,0,0,1-.26.41.92.92,0,0,1-.31.23,1.83,1.83,0,0,1,.75.55A1.38,1.38,0,0,1,96.16,218.45Zm-1.67-2.32a.53.53,0,0,0-.23-.52,1.45,1.45,0,0,0-.71-.13h-.3v1.29h.31a1.45,1.45,0,0,0,.71-.13A.54.54,0,0,0,94.49,216.13Zm.23,2.25c0-.46-.3-.7-.89-.7h-.58v1.39h.58C94.42,219.07,94.72,218.84,94.72,218.38Z" transform="translate(0.5 0.5)" style="fill: #231f20"/>
  <g>
    <path d="M93.71,172.88a19.76,19.76,0,0,1,2.45.17l.39-2.21a21.32,21.32,0,0,0-5.68,0l.39,2.21A19.76,19.76,0,0,1,93.71,172.88Z" transform="translate(0.5 0.5)"/>
    <path d="M108.2,179.26l1.73-1.45a22.06,22.06,0,0,0-4.34-3.66l-1.12,1.94A19.82,19.82,0,0,1,108.2,179.26Z" transform="translate(0.5 0.5)"/>
    <path d="M102.74,175.09l1.12-2a21.87,21.87,0,0,0-5.34-1.95l-.39,2.21A19.43,19.43,0,0,1,102.74,175.09Z" transform="translate(0.5 0.5)"/>
    <path d="M111.94,185l2.1-.76a22,22,0,0,0-2.83-4.92l-1.73,1.45A19.81,19.81,0,0,1,111.94,185Z" transform="translate(0.5 0.5)"/>
    <path d="M89.29,173.4l-.39-2.21a21.87,21.87,0,0,0-5.34,1.95l1.12,2A19.27,19.27,0,0,1,89.29,173.4Z" transform="translate(0.5 0.5)"/>
    <path d="M113.43,191.72h2.25a21.88,21.88,0,0,0-1-5.58l-2.1.77A20,20,0,0,1,113.43,191.72Z" transform="translate(0.5 0.5)"/>
    <path d="M112.56,198.52l2.1.76a21.65,21.65,0,0,0,1-5.56h-2.23A19.45,19.45,0,0,1,112.56,198.52Z" transform="translate(0.5 0.5)"/>
    <path d="M109.42,204.6l1.72,1.44a22.46,22.46,0,0,0,2.84-4.88l-2.11-.77A19.7,19.7,0,0,1,109.42,204.6Z" transform="translate(0.5 0.5)"/>
    <path d="M77.94,180.79l-1.73-1.45a21.63,21.63,0,0,0-2.83,4.92l2.1.76A19.4,19.4,0,0,1,77.94,180.79Z" transform="translate(0.5 0.5)"/>
    <path d="M74.8,186.9l-2.1-.76a21.39,21.39,0,0,0-1,5.58H74A20.17,20.17,0,0,1,74.8,186.9Z" transform="translate(0.5 0.5)"/>
    <path d="M74,193.72H71.75a21.65,21.65,0,0,0,1,5.56l2.1-.77A19.29,19.29,0,0,1,74,193.72Z" transform="translate(0.5 0.5)"/>
    <path d="M75.54,200.39l-2.1.77A21.77,21.77,0,0,0,76.28,206L78,204.6A20.57,20.57,0,0,1,75.54,200.39Z" transform="translate(0.5 0.5)"/>
    <path d="M104.4,209.24l1.12,1.93a22.09,22.09,0,0,0,4.32-3.61l-1.71-1.44A19.68,19.68,0,0,1,104.4,209.24Z" transform="translate(0.5 0.5)"/>
    <path d="M79.29,206.12l-1.71,1.44a21.52,21.52,0,0,0,4.32,3.61L83,209.24A19.62,19.62,0,0,1,79.29,206.12Z" transform="translate(0.5 0.5)"/>
    <path d="M83,176.09l-1.12-1.94a22.06,22.06,0,0,0-4.34,3.66l1.73,1.44A20.14,20.14,0,0,1,83,176.09Z" transform="translate(0.5 0.5)"/>
  </g>
  <path d="M36.77,192.67H35.29l-.38-1.1H32.84l-.4,1.1H31l2.11-5.42h1.59Zm-2.19-2-.7-2-.71,2Z" transform="translate(0.5 0.5)" style="fill: #231f20"/>
  <g>
    <path d="M33.73,145.57a19.9,19.9,0,0,1,2.45.17l.39-2.21a21.4,21.4,0,0,0-5.69,0l.39,2.21A19.92,19.92,0,0,1,33.73,145.57Z" transform="translate(0.5 0.5)"/>
    <path d="M48.22,151.94,50,150.49a22.7,22.7,0,0,0-4.34-3.66l-1.13,1.95A19.52,19.52,0,0,1,48.22,151.94Z" transform="translate(0.5 0.5)"/>
    <path d="M42.75,147.77l1.13-1.94a22.31,22.31,0,0,0-5.34-2l-.39,2.22A19.61,19.61,0,0,1,42.75,147.77Z" transform="translate(0.5 0.5)"/>
    <path d="M52,157.71l2.1-.77A22.16,22.16,0,0,0,51.23,152l-1.73,1.45A19.81,19.81,0,0,1,52,157.71Z" transform="translate(0.5 0.5)"/>
    <path d="M29.3,146.09l-.38-2.22a22,22,0,0,0-5.34,2l1.12,1.94A19.77,19.77,0,0,1,29.3,146.09Z" transform="translate(0.5 0.5)"/>
    <path d="M53.44,164.4H55.7a22,22,0,0,0-1-5.58l-2.11.77A19.22,19.22,0,0,1,53.44,164.4Z" transform="translate(0.5 0.5)"/>
    <path d="M52.58,171.2l2.1.77a22.17,22.17,0,0,0,1-5.57H53.45A19.74,19.74,0,0,1,52.58,171.2Z" transform="translate(0.5 0.5)"/>
    <path d="M49.44,177.28l1.72,1.44A22.46,22.46,0,0,0,54,173.84l-2.11-.76A19.39,19.39,0,0,1,49.44,177.28Z" transform="translate(0.5 0.5)"/>
    <path d="M18,153.48,16.22,152a22.56,22.56,0,0,0-2.83,4.91l2.11.77A19.36,19.36,0,0,1,18,153.48Z" transform="translate(0.5 0.5)"/>
    <path d="M14.82,159.59l-2.11-.77a22,22,0,0,0-1,5.58H14A19.6,19.6,0,0,1,14.82,159.59Z" transform="translate(0.5 0.5)"/>
    <path d="M14,166.4H11.76a22.17,22.17,0,0,0,1,5.57l2.1-.77A19.74,19.74,0,0,1,14,166.4Z" transform="translate(0.5 0.5)"/>
    <path d="M15.56,173.08l-2.1.76a22.06,22.06,0,0,0,2.84,4.88L18,177.28A20.05,20.05,0,0,1,15.56,173.08Z" transform="translate(0.5 0.5)"/>
    <path d="M44.42,181.93l1.12,1.93a22.14,22.14,0,0,0,4.32-3.62l-1.72-1.43A20.39,20.39,0,0,1,44.42,181.93Z" transform="translate(0.5 0.5)"/>
    <path d="M19.31,178.81l-1.72,1.43a22.5,22.5,0,0,0,4.32,3.62L23,181.92A19.94,19.94,0,0,1,19.31,178.81Z" transform="translate(0.5 0.5)"/>
    <path d="M23,148.78l-1.12-1.95a22.06,22.06,0,0,0-4.34,3.66l1.72,1.45A19.83,19.83,0,0,1,23,148.78Z" transform="translate(0.5 0.5)"/>
  </g>
  <path d="M222.16,238a2.61,2.61,0,0,1-.89,2.16,2.1,2.1,0,0,1-1.43.45h-2.57v-5.41h2a5.47,5.47,0,0,1,.76,0,3.92,3.92,0,0,1,.57.15,2.57,2.57,0,0,1,.44.22,2.72,2.72,0,0,1,.32.25,2.29,2.29,0,0,1,.42.54,2.71,2.71,0,0,1,.3.71A3.54,3.54,0,0,1,222.16,238Zm-1.46-.07a2,2,0,0,0-.22-1,1.15,1.15,0,0,0-.53-.5,1.77,1.77,0,0,0-.64-.12h-.61v3.2h.61a1.61,1.61,0,0,0,1-.3C220.57,239,220.7,238.58,220.7,237.94Z" transform="translate(0.5 0.5)" style="fill: #231f20"/>
  <g>
    <path d="M219.54,194.25a19.92,19.92,0,0,1,2.46.17l.39-2.21a21.4,21.4,0,0,0-5.69,0l.39,2.21A19.9,19.9,0,0,1,219.54,194.25Z" transform="translate(0.5 0.5)"/>
    <path d="M234,200.62l1.72-1.45a22.06,22.06,0,0,0-4.34-3.66l-1.12,2A19.83,19.83,0,0,1,234,200.62Z" transform="translate(0.5 0.5)"/>
    <path d="M228.57,196.45l1.12-1.94a21.67,21.67,0,0,0-5.33-2l-.39,2.22A19.77,19.77,0,0,1,228.57,196.45Z" transform="translate(0.5 0.5)"/>
    <path d="M237.77,206.39l2.1-.77a21.78,21.78,0,0,0-2.83-4.91l-1.72,1.45A19.36,19.36,0,0,1,237.77,206.39Z" transform="translate(0.5 0.5)"/>
    <path d="M215.12,194.77l-.39-2.22a21.89,21.89,0,0,0-5.34,2l1.13,1.94A19.61,19.61,0,0,1,215.12,194.77Z" transform="translate(0.5 0.5)"/>
    <path d="M239.26,213.08h2.26a22,22,0,0,0-1-5.58l-2.11.77A19.6,19.6,0,0,1,239.26,213.08Z" transform="translate(0.5 0.5)"/>
    <path d="M238.4,219.88l2.1.77a22.17,22.17,0,0,0,1-5.57h-2.24A19.74,19.74,0,0,1,238.4,219.88Z" transform="translate(0.5 0.5)"/>
    <path d="M235.26,226,237,227.4a22.06,22.06,0,0,0,2.84-4.88l-2.1-.76A20.05,20.05,0,0,1,235.26,226Z" transform="translate(0.5 0.5)"/>
    <path d="M203.77,202.16,202,200.71a22.16,22.16,0,0,0-2.83,4.91l2.1.77A19.57,19.57,0,0,1,203.77,202.16Z" transform="translate(0.5 0.5)"/>
    <path d="M200.64,208.27l-2.11-.77a22,22,0,0,0-1,5.58h2.26A19.14,19.14,0,0,1,200.64,208.27Z" transform="translate(0.5 0.5)"/>
    <path d="M199.81,215.08h-2.23a21.73,21.73,0,0,0,1,5.57l2.1-.77A19.75,19.75,0,0,1,199.81,215.08Z" transform="translate(0.5 0.5)"/>
    <path d="M201.38,221.76l-2.11.76a22.46,22.46,0,0,0,2.84,4.88l1.72-1.44A19.87,19.87,0,0,1,201.38,221.76Z" transform="translate(0.5 0.5)"/>
    <path d="M230.24,230.61l1.11,1.93a21.91,21.91,0,0,0,4.32-3.62L234,227.49A20.39,20.39,0,0,1,230.24,230.61Z" transform="translate(0.5 0.5)"/>
    <path d="M205.12,227.49l-1.71,1.43a22.2,22.2,0,0,0,4.32,3.62l1.12-1.94A20,20,0,0,1,205.12,227.49Z" transform="translate(0.5 0.5)"/>
    <path d="M208.79,197.45l-1.12-1.94a21.83,21.83,0,0,0-4.35,3.66l1.73,1.45A19.94,19.94,0,0,1,208.79,197.45Z" transform="translate(0.5 0.5)"/>
  </g>
  <path d="M294.71,339.78a16.09,16.09,0,1,0-16.09-16.08A16.09,16.09,0,0,0,294.71,339.78Z" transform="translate(0.5 0.5)" style="fill: #231f20"/>
  <path d="M340,308.35l-34.6.24v.14c5.67,2.86,8.74,8.54,8.74,15.09s-3.09,12.25-8.79,15.11V339L340,338.8a15.23,15.23,0,1,0,0-30.45Z" transform="translate(0.5 0.5)" style="fill: #231f20"/>
  <path d="M208.78,339.76a16.09,16.09,0,1,0-16.08-16.08A16.08,16.08,0,0,0,208.78,339.76Z" transform="translate(0.5 0.5)" style="fill: #231f20"/>
  <path d="M254.06,308.33l-34.6.24v.14c5.68,2.86,8.75,8.54,8.75,15.09s-3.1,12.25-8.8,15.11V339l34.65-.24a15.23,15.23,0,1,0,0-30.45Z" transform="translate(0.5 0.5)" style="fill: #231f20"/>
  <path d="M308.4,297.74a16.09,16.09,0,1,0-16.08-16.09A16.09,16.09,0,0,0,308.4,297.74Z" transform="translate(0.5 0.5)" style="fill: #231f20"/>
  <path d="M353.68,266.31l-34.6.24v.13c5.68,2.86,8.75,8.54,8.75,15.09s-3.1,12.26-8.8,15.11V297l34.65-.24a15.23,15.23,0,1,0,0-30.45Z" transform="translate(0.5 0.5)" style="fill: #231f20"/>
  <path d="M221.66,298.38a16.09,16.09,0,1,0-16.08-16.09A16.09,16.09,0,0,0,221.66,298.38Z" transform="translate(0.5 0.5)" style="fill: #231f20"/>
  <path d="M225.71,301.15c0,1.76-1.81,3.18-4.05,3.18s-4-1.42-4-3.18v-4.54h8.1Z" transform="translate(0.5 0.5)" style="fill: #231f20"/>
  <path d="M269.23,301.15c0,1.76-1.81,3.18-4.05,3.18s-4.05-1.42-4.05-3.18v-4.54h8.1Z" transform="translate(0.5 0.5)" style="fill: #231f20"/>
  <path d="M266.94,267l-34.6.24v.13c5.68,2.86,8.75,8.54,8.75,15.09s-3.1,12.26-8.8,15.11v.12l34.65-.24a15.23,15.23,0,1,0,0-30.45Z" transform="translate(0.5 0.5)" style="fill: #231f20"/>
  <path d="M122.1,339.76A16.09,16.09,0,1,0,106,323.68,16.08,16.08,0,0,0,122.1,339.76Z" transform="translate(0.5 0.5)" style="fill: none;stroke: #231f20;stroke-miterlimit: 10"/>
  <path d="M167.38,308.33l-34.6.24v.14c5.68,2.86,8.75,8.54,8.75,15.09s-3.1,12.25-8.8,15.11V339l34.65-.24a15.23,15.23,0,1,0,0-30.45Z" transform="translate(0.5 0.5)" style="fill: none;stroke: #231f20;stroke-miterlimit: 10"/>
  <path d="M36.38,346.42H35.3v-4.73h1.08Z" transform="translate(0.5 0.5)" style="fill: #231f20"/>
  <path d="M80.86,346.42h-3v-.09c.11-.13.24-.29.38-.48s.32-.43.53-.74c.1-.14.2-.28.28-.41a4.35,4.35,0,0,0,.23-.39,2.61,2.61,0,0,0,.16-.42,1.84,1.84,0,0,0,.06-.47.86.86,0,0,0-.15-.53.49.49,0,0,0-.4-.21,1.28,1.28,0,0,0-1,.61v-1.12l.27-.21.25-.15a1.26,1.26,0,0,1,.33-.13,1.42,1.42,0,0,1,.42-.06,1.22,1.22,0,0,1,1.12.69,1.71,1.71,0,0,1,.17.77,2.21,2.21,0,0,1-.08.59,2.18,2.18,0,0,1-.16.44c0,.11-.13.25-.22.42a7.74,7.74,0,0,1-.52.83h1.28Z" transform="translate(0.5 0.5)" style="fill: #231f20"/>
  <path d="M123.36,345.14a1.56,1.56,0,0,1-.12.64,1.27,1.27,0,0,1-.32.43,1.42,1.42,0,0,1-.43.24,1.68,1.68,0,0,1-.43.07,2.35,2.35,0,0,1-.66-.1,2.87,2.87,0,0,1-.6-.24v-1.07a1.9,1.9,0,0,0,.42.34.94.94,0,0,0,.48.13.62.62,0,0,0,.31-.08.48.48,0,0,0,.19-.21.58.58,0,0,0,.06-.26.61.61,0,0,0-.31-.55.75.75,0,0,0-.35-.08h-.12v-.76h.15a.53.53,0,0,0,.32-.09.59.59,0,0,0,.19-.23.53.53,0,0,0,.06-.24.59.59,0,0,0-.14-.38.44.44,0,0,0-.36-.16,1,1,0,0,0-.4.09,1.1,1.1,0,0,0-.4.24V342a3.09,3.09,0,0,1,.52-.22,1.64,1.64,0,0,1,.56-.09,1.27,1.27,0,0,1,.74.21,1.34,1.34,0,0,1,.44.51,1.28,1.28,0,0,1,.06,1,1.46,1.46,0,0,1-.2.37,1.07,1.07,0,0,1-.26.26,1.4,1.4,0,0,1,.42.42A1.28,1.28,0,0,1,123.36,345.14Z" transform="translate(0.5 0.5)" style="fill: #231f20"/>
  <path d="M167.14,345.44h-.47v1h-1v-1H164v-.91l1.8-2.81h.84v2.9h.47Zm-1.51-.82V343.1l-1,1.52Z" transform="translate(0.5 0.5)" style="fill: #231f20"/>
  <path d="M35.84,339.73a16.09,16.09,0,1,0-16.09-16.08A16.09,16.09,0,0,0,35.84,339.73Z" transform="translate(0.5 0.5)" style="fill: none;stroke: #231f20;stroke-miterlimit: 10"/>
  <path d="M81.12,308.3l-34.6.24v.14c5.67,2.86,8.75,8.54,8.75,15.09s-3.1,12.25-8.8,15.11V339l34.65-.24a15.23,15.23,0,1,0,0-30.45Z" transform="translate(0.5 0.5)" style="fill: none;stroke: #231f20;stroke-miterlimit: 10"/>
  <path d="M46.56,242.1l-1,1a7.35,7.35,0,0,1-1.17-.4,8.28,8.28,0,0,1-1.17-.62,3.06,3.06,0,0,1-.69-.54,2.38,2.38,0,0,1-.76-.5,2.6,2.6,0,0,1-.58-.86A3.12,3.12,0,0,1,41,239a3.33,3.33,0,0,1,.29-1.37,2.42,2.42,0,0,1,.91-1,2.75,2.75,0,0,1,1.5-.39,3,3,0,0,1,1.2.23,2.34,2.34,0,0,1,.85.62,2.57,2.57,0,0,1,.49.89,3.29,3.29,0,0,1,.17,1,3.13,3.13,0,0,1-.21,1.17,2.69,2.69,0,0,1-.54.85,2.87,2.87,0,0,1-.75.54,4.64,4.64,0,0,0,.77.32,2.73,2.73,0,0,0,.89.13ZM44.89,239a1.65,1.65,0,0,0-.08-.56,1.18,1.18,0,0,0-.24-.44,1.05,1.05,0,0,0-.39-.29,1.43,1.43,0,0,0-.53-.1,1.16,1.16,0,0,0-.91.38,1.5,1.5,0,0,0-.33,1,1.43,1.43,0,0,0,.34,1,1.12,1.12,0,0,0,.9.39,1.2,1.2,0,0,0,.67-.18,1.14,1.14,0,0,0,.43-.49A1.81,1.81,0,0,0,44.89,239Z" transform="translate(0.5 0.5)" style="fill: #231f20"/>
  <g>
    <path d="M43.64,213.52a13.47,13.47,0,0,0-1.56.1l-.24-1.4a13.56,13.56,0,0,1,3.6,0l-.25,1.4A13.16,13.16,0,0,0,43.64,213.52Z" transform="translate(0.5 0.5)"/>
    <path d="M34.45,217.56l-1.09-.92a13.59,13.59,0,0,1,2.75-2.32l.71,1.23A13,13,0,0,0,34.45,217.56Z" transform="translate(0.5 0.5)"/>
    <path d="M37.92,214.91l-.72-1.23a14.18,14.18,0,0,1,3.39-1.24l.25,1.4A12.58,12.58,0,0,0,37.92,214.91Z" transform="translate(0.5 0.5)"/>
    <path d="M32.08,221.21l-1.33-.48a14,14,0,0,1,1.79-3.12l1.1.92A12.77,12.77,0,0,0,32.08,221.21Z" transform="translate(0.5 0.5)"/>
    <path d="M46.44,213.84l.25-1.4a14,14,0,0,1,3.38,1.24l-.71,1.23A12.58,12.58,0,0,0,46.44,213.84Z" transform="translate(0.5 0.5)"/>
    <path d="M31.14,225.46H29.71a13.82,13.82,0,0,1,.61-3.54l1.33.49A12.72,12.72,0,0,0,31.14,225.46Z" transform="translate(0.5 0.5)"/>
    <path d="M31.69,229.77l-1.33.48a13.84,13.84,0,0,1-.64-3.52h1.41A12.45,12.45,0,0,0,31.69,229.77Z" transform="translate(0.5 0.5)"/>
    <path d="M33.68,233.62l-1.09.92a14.09,14.09,0,0,1-1.8-3.1l1.33-.48A12.45,12.45,0,0,0,33.68,233.62Z" transform="translate(0.5 0.5)"/>
    <path d="M53.64,218.53l1.09-.92a14,14,0,0,1,1.8,3.12l-1.33.48A12.77,12.77,0,0,0,53.64,218.53Z" transform="translate(0.5 0.5)"/>
    <path d="M55.62,222.4l1.34-.48a13.74,13.74,0,0,1,.61,3.54H56.14A12.41,12.41,0,0,0,55.62,222.4Z" transform="translate(0.5 0.5)"/>
    <path d="M56.15,226.72h1.41a13.84,13.84,0,0,1-.64,3.53l-1.33-.48A12.45,12.45,0,0,0,56.15,226.72Z" transform="translate(0.5 0.5)"/>
    <path d="M55.15,231l1.34.48a14,14,0,0,1-1.8,3.09l-1.09-.91A12,12,0,0,0,55.15,231Z" transform="translate(0.5 0.5)"/>
    <path d="M36.86,236.57l-.71,1.22a14.06,14.06,0,0,1-2.74-2.29l1.09-.91A12.91,12.91,0,0,0,36.86,236.57Z" transform="translate(0.5 0.5)"/>
    <path d="M52.78,234.59l1.09.91a14.06,14.06,0,0,1-2.74,2.29l-.71-1.22A13.25,13.25,0,0,0,52.78,234.59Z" transform="translate(0.5 0.5)"/>
    <path d="M50.46,215.55l.71-1.23a13.87,13.87,0,0,1,2.75,2.32l-1.09.92A12.62,12.62,0,0,0,50.46,215.55Z" transform="translate(0.5 0.5)"/>
  </g>
  <path d="M30.12,103.14l-1.87,2.93v2.48H26.82V106.1l-1.9-3h1.49l1.09,1.7,1.1-1.7Z" transform="translate(0.5 0.5)" style="fill: #231f20"/>
  <g>
    <path d="M27.44,76a13.32,13.32,0,0,0-1.56.11l-.24-1.4a13.56,13.56,0,0,1,3.6,0L29,76.09A13.15,13.15,0,0,0,27.44,76Z" transform="translate(0.5 0.5)"/>
    <path d="M18.25,80l-1.09-.92a13.88,13.88,0,0,1,2.75-2.31L20.62,78A13,13,0,0,0,18.25,80Z" transform="translate(0.5 0.5)"/>
    <path d="M21.72,77.38,21,76.15a14.18,14.18,0,0,1,3.39-1.24l.25,1.4A12.58,12.58,0,0,0,21.72,77.38Z" transform="translate(0.5 0.5)"/>
    <path d="M15.88,83.68l-1.33-.48a14,14,0,0,1,1.79-3.12l1.1.92A12.77,12.77,0,0,0,15.88,83.68Z" transform="translate(0.5 0.5)"/>
    <path d="M30.24,76.31l.25-1.4a14,14,0,0,1,3.38,1.24l-.71,1.23A12.58,12.58,0,0,0,30.24,76.31Z" transform="translate(0.5 0.5)"/>
    <path d="M14.94,87.92H13.51a13.74,13.74,0,0,1,.61-3.53l1.33.48A12.89,12.89,0,0,0,14.94,87.92Z" transform="translate(0.5 0.5)"/>
    <path d="M15.49,92.24l-1.33.48a13.5,13.5,0,0,1-.64-3.53h1.41A12.45,12.45,0,0,0,15.49,92.24Z" transform="translate(0.5 0.5)"/>
    <path d="M17.48,96.09,16.39,97a14.26,14.26,0,0,1-1.8-3.09l1.33-.48A12.7,12.7,0,0,0,17.48,96.09Z" transform="translate(0.5 0.5)"/>
    <path d="M37.44,81l1.09-.92a13.93,13.93,0,0,1,1.8,3.11L39,83.68A12.77,12.77,0,0,0,37.44,81Z" transform="translate(0.5 0.5)"/>
    <path d="M39.42,84.87l1.34-.48a13.74,13.74,0,0,1,.61,3.53H39.94A12.33,12.33,0,0,0,39.42,84.87Z" transform="translate(0.5 0.5)"/>
    <path d="M40,89.19h1.41a13.92,13.92,0,0,1-.64,3.53l-1.33-.49A12.28,12.28,0,0,0,40,89.19Z" transform="translate(0.5 0.5)"/>
    <path d="M39,93.43l1.34.48A14.26,14.26,0,0,1,38.49,97l-1.09-.91A12.24,12.24,0,0,0,39,93.43Z" transform="translate(0.5 0.5)"/>
    <path d="M20.66,99,20,100.26A14.06,14.06,0,0,1,17.21,98l1.09-.91A12.47,12.47,0,0,0,20.66,99Z" transform="translate(0.5 0.5)"/>
    <path d="M36.58,97.06l1.09.91a14.06,14.06,0,0,1-2.74,2.29L34.22,99A12.79,12.79,0,0,0,36.58,97.06Z" transform="translate(0.5 0.5)"/>
    <path d="M34.26,78,35,76.79a14.17,14.17,0,0,1,2.75,2.31L36.63,80A13,13,0,0,0,34.26,78Z" transform="translate(0.5 0.5)"/>
  </g>
  <path d="M67.19,68.79H65.34l-.51-.68s-.11-.16-.3-.42l-.36-.51c-.27.42-.5.76-.67,1l-.44.61H61.24l2-2.82-1.93-2.59h1.84l.33.45.67,1c.25-.41.45-.72.6-.92l.37-.51h1.8L65.09,66Z" transform="translate(0.5 0.5)" style="fill: #231f20"/>
  <g>
    <path d="M64.07,40.6a13.16,13.16,0,0,0-1.55.1l-.25-1.4a13.56,13.56,0,0,1,3.6,0l-.24,1.4A13.33,13.33,0,0,0,64.07,40.6Z" transform="translate(0.5 0.5)"/>
    <path d="M54.88,44.64l-1.09-.92a13.87,13.87,0,0,1,2.75-2.32l.71,1.23A13,13,0,0,0,54.88,44.64Z" transform="translate(0.5 0.5)"/>
    <path d="M58.35,42l-.71-1.23A14,14,0,0,1,61,39.52l.25,1.4A12.58,12.58,0,0,0,58.35,42Z" transform="translate(0.5 0.5)"/>
    <path d="M52.51,48.29l-1.33-.48A14,14,0,0,1,53,44.69l1.09.92A12.77,12.77,0,0,0,52.51,48.29Z" transform="translate(0.5 0.5)"/>
    <path d="M66.88,40.92l.24-1.4a14,14,0,0,1,3.39,1.24L69.79,42A12.67,12.67,0,0,0,66.88,40.92Z" transform="translate(0.5 0.5)"/>
    <path d="M51.57,52.54H50.14A13.82,13.82,0,0,1,50.75,49l1.34.49A12.25,12.25,0,0,0,51.57,52.54Z" transform="translate(0.5 0.5)"/>
    <path d="M52.12,56.85l-1.33.48a13.84,13.84,0,0,1-.64-3.52h1.42A12,12,0,0,0,52.12,56.85Z" transform="translate(0.5 0.5)"/>
    <path d="M54.11,60.7,53,61.61a14,14,0,0,1-1.8-3.09L52.56,58A12.41,12.41,0,0,0,54.11,60.7Z" transform="translate(0.5 0.5)"/>
    <path d="M74.07,45.61l1.1-.92A14,14,0,0,1,77,47.81l-1.33.48A12.77,12.77,0,0,0,74.07,45.61Z" transform="translate(0.5 0.5)"/>
    <path d="M76.06,49.48,77.39,49A13.74,13.74,0,0,1,78,52.54H76.57A12.88,12.88,0,0,0,76.06,49.48Z" transform="translate(0.5 0.5)"/>
    <path d="M76.58,53.8H78a13.84,13.84,0,0,1-.64,3.53L76,56.85A12.45,12.45,0,0,0,76.58,53.8Z" transform="translate(0.5 0.5)"/>
    <path d="M75.59,58l1.33.48a13.64,13.64,0,0,1-1.8,3.09L74,60.7A12.7,12.7,0,0,0,75.59,58Z" transform="translate(0.5 0.5)"/>
    <path d="M57.29,63.65l-.71,1.22a14,14,0,0,1-2.73-2.29l1.08-.91A13.25,13.25,0,0,0,57.29,63.65Z" transform="translate(0.5 0.5)"/>
    <path d="M73.21,61.67l1.09.91a13.77,13.77,0,0,1-2.74,2.29l-.71-1.22A12.58,12.58,0,0,0,73.21,61.67Z" transform="translate(0.5 0.5)"/>
    <path d="M70.89,42.63l.71-1.23a13.93,13.93,0,0,1,2.76,2.32l-1.1.92A12.62,12.62,0,0,0,70.89,42.63Z" transform="translate(0.5 0.5)"/>
  </g>
  <path d="M345.26,108.54h-1.54l-.38-1a3.7,3.7,0,0,0-.37-.77.77.77,0,0,0-.32-.31.93.93,0,0,0-.4-.07h-.16v2.11h-1.44v-5.41h2.44a1.56,1.56,0,0,1,1.52.94,1.87,1.87,0,0,1,.16.74,1.47,1.47,0,0,1-.14.69,1.17,1.17,0,0,1-.29.41,2.41,2.41,0,0,1-.35.25,1.31,1.31,0,0,1,.38.36,4.48,4.48,0,0,1,.41.85Zm-1.95-3.7a.57.57,0,0,0-.22-.52,1.25,1.25,0,0,0-.7-.15h-.3v1.3h.31a1.36,1.36,0,0,0,.72-.13A.56.56,0,0,0,343.31,104.84Z" transform="translate(0.5 0.5)" style="fill: #231f20"/>
  <g>
    <path d="M342.74,80.35a11.42,11.42,0,0,0-1.55.11l-.25-1.4a12.6,12.6,0,0,1,3.61,0l-.25,1.4A11.46,11.46,0,0,0,342.74,80.35Z" transform="translate(0.5 0.5)"/>
    <path d="M333.56,84.39l-1.1-.92a14.22,14.22,0,0,1,2.75-2.32l.71,1.23A12.62,12.62,0,0,0,333.56,84.39Z" transform="translate(0.5 0.5)"/>
    <path d="M337,81.75l-.71-1.24a13.66,13.66,0,0,1,3.38-1.23l.25,1.4A12.14,12.14,0,0,0,337,81.75Z" transform="translate(0.5 0.5)"/>
    <path d="M331.19,88.05l-1.33-.49a13.8,13.8,0,0,1,1.79-3.12l1.09.92A12.38,12.38,0,0,0,331.19,88.05Z" transform="translate(0.5 0.5)"/>
    <path d="M345.55,80.68l.24-1.41a14,14,0,0,1,3.39,1.24l-.71,1.24A12.46,12.46,0,0,0,345.55,80.68Z" transform="translate(0.5 0.5)"/>
    <path d="M330.24,92.29h-1.43a13.89,13.89,0,0,1,.61-3.54l1.34.49A12.33,12.33,0,0,0,330.24,92.29Z" transform="translate(0.5 0.5)"/>
    <path d="M330.79,96.6l-1.33.49a14,14,0,0,1-.64-3.53h1.42A12.93,12.93,0,0,0,330.79,96.6Z" transform="translate(0.5 0.5)"/>
    <path d="M332.78,100.46l-1.08.91a13.86,13.86,0,0,1-1.8-3.09l1.33-.49A13.18,13.18,0,0,0,332.78,100.46Z" transform="translate(0.5 0.5)"/>
    <path d="M352.74,85.36l1.1-.92a14.19,14.19,0,0,1,1.79,3.12l-1.33.49A12,12,0,0,0,352.74,85.36Z" transform="translate(0.5 0.5)"/>
    <path d="M354.73,89.24l1.34-.49a14.26,14.26,0,0,1,.61,3.54h-1.44A12.32,12.32,0,0,0,354.73,89.24Z" transform="translate(0.5 0.5)"/>
    <path d="M355.25,93.56h1.42a14,14,0,0,1-.64,3.53l-1.33-.49A12.93,12.93,0,0,0,355.25,93.56Z" transform="translate(0.5 0.5)"/>
    <path d="M354.26,97.79l1.33.49a13.86,13.86,0,0,1-1.8,3.09l-1.08-.91A13.18,13.18,0,0,0,354.26,97.79Z" transform="translate(0.5 0.5)"/>
    <path d="M336,103.4l-.7,1.23a14.17,14.17,0,0,1-2.74-2.3l1.08-.91A12.84,12.84,0,0,0,336,103.4Z" transform="translate(0.5 0.5)"/>
    <path d="M351.89,101.42l1.08.91a14.17,14.17,0,0,1-2.74,2.3l-.71-1.23A12.59,12.59,0,0,0,351.89,101.42Z" transform="translate(0.5 0.5)"/>
    <path d="M349.56,82.38l.71-1.23A14,14,0,0,1,353,83.47l-1.1.92A12.37,12.37,0,0,0,349.56,82.38Z" transform="translate(0.5 0.5)"/>
  </g>
  <path d="M296.59,133.13H293v-5.41h1.43v4.11h2.19Z" transform="translate(0.5 0.5)" style="fill: #231f20"/>
  <g>
    <path d="M294.66,104.94a13.33,13.33,0,0,0-1.56.1l-.25-1.4a13.53,13.53,0,0,1,1.81-.12,13.38,13.38,0,0,1,1.8.12l-.25,1.4A13.3,13.3,0,0,0,294.66,104.94Z" transform="translate(0.5 0.5)"/>
    <path d="M285.47,109l-1.1-.92a13.65,13.65,0,0,1,2.76-2.32l.71,1.23A12,12,0,0,0,285.47,109Z" transform="translate(0.5 0.5)"/>
    <path d="M288.93,106.33l-.71-1.23a14,14,0,0,1,3.39-1.24l.24,1.4A12.92,12.92,0,0,0,288.93,106.33Z" transform="translate(0.5 0.5)"/>
    <path d="M283.1,112.63l-1.33-.48a14,14,0,0,1,1.79-3.12l1.1.92A12,12,0,0,0,283.1,112.63Z" transform="translate(0.5 0.5)"/>
    <path d="M297.46,105.26l.25-1.4a14.1,14.1,0,0,1,3.38,1.24l-.71,1.23A12.75,12.75,0,0,0,297.46,105.26Z" transform="translate(0.5 0.5)"/>
    <path d="M282.16,116.88h-1.44a14.74,14.74,0,0,1,.61-3.54l1.34.49A12.24,12.24,0,0,0,282.16,116.88Z" transform="translate(0.5 0.5)"/>
    <path d="M282.7,121.19l-1.33.48a13.84,13.84,0,0,1-.64-3.53h1.42A12.92,12.92,0,0,0,282.7,121.19Z" transform="translate(0.5 0.5)"/>
    <path d="M284.69,125l-1.08.91a13.64,13.64,0,0,1-1.8-3.09l1.33-.48A12.84,12.84,0,0,0,284.69,125Z" transform="translate(0.5 0.5)"/>
    <path d="M304.66,110l1.09-.92a14,14,0,0,1,1.8,3.12l-1.34.48A12.31,12.31,0,0,0,304.66,110Z" transform="translate(0.5 0.5)"/>
    <path d="M306.64,113.82l1.34-.48a13.74,13.74,0,0,1,.61,3.54h-1.43A12.41,12.41,0,0,0,306.64,113.82Z" transform="translate(0.5 0.5)"/>
    <path d="M307.16,118.14h1.42a13.92,13.92,0,0,1-.64,3.53l-1.33-.48A12,12,0,0,0,307.16,118.14Z" transform="translate(0.5 0.5)"/>
    <path d="M306.17,122.38l1.34.48a14.26,14.26,0,0,1-1.8,3.09l-1.09-.91A12.66,12.66,0,0,0,306.17,122.38Z" transform="translate(0.5 0.5)"/>
    <path d="M287.88,128l-.71,1.22a13.77,13.77,0,0,1-2.74-2.29l1.09-.91A12.58,12.58,0,0,0,287.88,128Z" transform="translate(0.5 0.5)"/>
    <path d="M303.8,126l1.08.91a13.77,13.77,0,0,1-2.74,2.29l-.7-1.22A13.25,13.25,0,0,0,303.8,126Z" transform="translate(0.5 0.5)"/>
    <path d="M301.47,107l.72-1.23a13.87,13.87,0,0,1,2.75,2.32l-1.1.92A12,12,0,0,0,301.47,107Z" transform="translate(0.5 0.5)"/>
  </g>
  <path d="M66.36,136.19H61.53L64,132.07H61.73v-1.3h4.63l-2.46,4.12h2.46Z" transform="translate(0.5 0.5)" style="fill: #231f20"/>
  <g>
    <path d="M64.12,107.67a13.32,13.32,0,0,0-1.56.11l-.25-1.4a13.53,13.53,0,0,1,1.81-.12,13.38,13.38,0,0,1,1.8.12l-.25,1.4A13.3,13.3,0,0,0,64.12,107.67Z" transform="translate(0.5 0.5)"/>
    <path d="M54.93,111.71l-1.1-.92a14.64,14.64,0,0,1,2.76-2.32l.71,1.24A12,12,0,0,0,54.93,111.71Z" transform="translate(0.5 0.5)"/>
    <path d="M58.39,109.07l-.71-1.23a13.23,13.23,0,0,1,3.39-1.24l.24,1.4A12.92,12.92,0,0,0,58.39,109.07Z" transform="translate(0.5 0.5)"/>
    <path d="M52.56,115.37l-1.33-.49A13.9,13.9,0,0,1,53,111.77l1.1.92A12.12,12.12,0,0,0,52.56,115.37Z" transform="translate(0.5 0.5)"/>
    <path d="M66.92,108l.25-1.4a13.3,13.3,0,0,1,3.38,1.24l-.71,1.23A12.75,12.75,0,0,0,66.92,108Z" transform="translate(0.5 0.5)"/>
    <path d="M51.62,119.61H50.19a14.18,14.18,0,0,1,.6-3.53l1.34.48A12.32,12.32,0,0,0,51.62,119.61Z" transform="translate(0.5 0.5)"/>
    <path d="M52.17,123.92l-1.34.49a13.92,13.92,0,0,1-.64-3.53h1.42A12.45,12.45,0,0,0,52.17,123.92Z" transform="translate(0.5 0.5)"/>
    <path d="M54.16,127.78l-1.09.91a13.86,13.86,0,0,1-1.8-3.09l1.33-.49A12.52,12.52,0,0,0,54.16,127.78Z" transform="translate(0.5 0.5)"/>
    <path d="M74.12,112.68l1.09-.91a13.93,13.93,0,0,1,1.8,3.11l-1.34.49A12.38,12.38,0,0,0,74.12,112.68Z" transform="translate(0.5 0.5)"/>
    <path d="M76.1,116.56l1.34-.49a13.89,13.89,0,0,1,.61,3.54H76.62A12.33,12.33,0,0,0,76.1,116.56Z" transform="translate(0.5 0.5)"/>
    <path d="M76.62,120.88H78a14,14,0,0,1-.64,3.53l-1.33-.49A12,12,0,0,0,76.62,120.88Z" transform="translate(0.5 0.5)"/>
    <path d="M75.63,125.11l1.34.49a14.26,14.26,0,0,1-1.8,3.09l-1.09-.91A12.48,12.48,0,0,0,75.63,125.11Z" transform="translate(0.5 0.5)"/>
    <path d="M57.34,130.72,56.63,132a14.12,14.12,0,0,1-2.74-2.29l1.09-.92A11.87,11.87,0,0,0,57.34,130.72Z" transform="translate(0.5 0.5)"/>
    <path d="M73.26,128.74l1.08.92A14.36,14.36,0,0,1,71.61,132l-.71-1.23A12.46,12.46,0,0,0,73.26,128.74Z" transform="translate(0.5 0.5)"/>
    <path d="M70.94,109.71l.71-1.24a14.58,14.58,0,0,1,2.75,2.32l-1.1.92A12.2,12.2,0,0,0,70.94,109.71Z" transform="translate(0.5 0.5)"/>
  </g>
  <path d="M223,301.56a1.49,1.49,0,0,1-.15.66,1.11,1.11,0,0,1-.43.48,1.2,1.2,0,0,1-.7.19,2.19,2.19,0,0,1-.63-.1,1.71,1.71,0,0,1-.55-.29v-.88a2,2,0,0,0,.46.29,1.35,1.35,0,0,0,.52.14.4.4,0,0,0,.37-.16.56.56,0,0,0,.11-.32.58.58,0,0,0-.06-.26.64.64,0,0,0-.22-.21.89.89,0,0,0-.4-.08,1.25,1.25,0,0,0-.54.12v-2.37h2.07v.86h-1.28v.7h.23a1.19,1.19,0,0,1,.63.17,1.24,1.24,0,0,1,.42.46A1.32,1.32,0,0,1,223,301.56Z" transform="translate(0.5 0.5)" style="fill: #fff"/>
  <path d="M266.66,301.43a1.61,1.61,0,0,1-.09.54,1.47,1.47,0,0,1-.28.47,1.31,1.31,0,0,1-.44.33,1.32,1.32,0,0,1-.57.12,1.29,1.29,0,0,1-.76-.23,1.35,1.35,0,0,1-.49-.59,2.06,2.06,0,0,1-.16-.79,2.74,2.74,0,0,1,.1-.69,3.66,3.66,0,0,1,.29-.68,4.09,4.09,0,0,1,.45-.64,5.3,5.3,0,0,1,.59-.56l.88.33-.37.38c-.1.11-.2.23-.29.35a3,3,0,0,0-.25.37.78.78,0,0,1,.24,0,1.08,1.08,0,0,1,.58.16,1.28,1.28,0,0,1,.42.47A1.52,1.52,0,0,1,266.66,301.43Zm-.92,0a.56.56,0,0,0-.14-.41.44.44,0,0,0-.33-.13.42.42,0,0,0-.36.17.72.72,0,0,0-.11.37.6.6,0,0,0,.13.4.42.42,0,0,0,.33.17.4.4,0,0,0,.27-.09.73.73,0,0,0,.16-.23A.74.74,0,0,0,265.74,301.41Z" transform="translate(0.5 0.5)" style="fill: #fff"/>
  <path d="M312.45,301c0,1.76-1.81,3.19-4.05,3.19s-4-1.43-4-3.19V296.5h8.1Z" transform="translate(0.5 0.5)" style="fill: #231f20"/>
  <path d="M356,301c0,1.76-1.81,3.19-4.05,3.19s-4.05-1.43-4.05-3.19V296.5H356Z" transform="translate(0.5 0.5)" style="fill: #231f20"/>
  <path d="M309.89,298.79l-1.53,4-.83-.3,1.09-2.91h-1.44v-.9h2.71Z" transform="translate(0.5 0.5)" style="fill: #fff"/>
  <path d="M353.4,301.64a1.16,1.16,0,0,1-.06.33,1,1,0,0,1-.2.37,1.19,1.19,0,0,1-.42.32,2.22,2.22,0,0,1-1.44,0,1.21,1.21,0,0,1-.43-.32,1,1,0,0,1-.19-.37,1.39,1.39,0,0,1-.05-.33,1.17,1.17,0,0,1,.15-.58,1.13,1.13,0,0,1,.42-.42,1.39,1.39,0,0,1-.33-.36,1,1,0,0,1-.12-.52,1,1,0,0,1,.07-.37A1.2,1.2,0,0,1,351,299a1.12,1.12,0,0,1,.4-.29,1.48,1.48,0,0,1,.59-.11,1.51,1.51,0,0,1,.61.11,1.12,1.12,0,0,1,.4.29,1.11,1.11,0,0,1,.21.38,1.24,1.24,0,0,1,.06.37,1,1,0,0,1-.12.52.31.31,0,1,0,0,.61,1.31,1.31,0,0,1,.19.35A1.1,1.1,0,0,1,353.4,301.64Zm-.92-.11a.7.7,0,0,0-.07-.33.52.52,0,0,0-.19-.2.36.36,0,0,0-.22-.07.44.44,0,0,0-.33.16.68.68,0,0,0-.14.44.65.65,0,0,0,.14.45.47.47,0,0,0,.34.16.43.43,0,0,0,.33-.17A.68.68,0,0,0,352.48,301.53Zm-.11-1.69a.83.83,0,0,0-.08-.37.3.3,0,0,0-.28-.17.31.31,0,0,0-.29.17.78.78,0,0,0-.09.37.61.61,0,0,0,.12.39.29.29,0,0,0,.51,0A.6.6,0,0,0,352.37,299.84Z" transform="translate(0.5 0.5)" style="fill: #fff"/>
  <path d="M212.83,342.53c0,1.76-1.81,3.19-4.05,3.19s-4.05-1.43-4.05-3.19V338h8.1Z" transform="translate(0.5 0.5)" style="fill: #231f20"/>
  <path d="M256.35,342.53c0,1.76-1.81,3.19-4.05,3.19s-4.05-1.43-4.05-3.19V338h8.1Z" transform="translate(0.5 0.5)" style="fill: #231f20"/>
  <path d="M209.37,344.22h-1v-4.06h1Z" transform="translate(0.5 0.5)" style="fill: #fff"/>
  <path d="M253.75,344.22H251v-.08l.35-.41.48-.64.26-.35a2.49,2.49,0,0,0,.2-.34,1.6,1.6,0,0,0,.15-.35,1.45,1.45,0,0,0,.06-.41.66.66,0,0,0-.15-.45A.43.43,0,0,0,252,341a1.21,1.21,0,0,0-.87.52v-1l.25-.18.22-.13a1.85,1.85,0,0,1,.31-.11,1.46,1.46,0,0,1,.38,0,1.2,1.2,0,0,1,.59.15,1.05,1.05,0,0,1,.42.44,1.41,1.41,0,0,1,.16.67,2,2,0,0,1-.07.5,2.5,2.5,0,0,1-.15.38c0,.09-.11.21-.2.35a6.84,6.84,0,0,1-.47.72h1.16Z" transform="translate(0.5 0.5)" style="fill: #fff"/>
  <path d="M298.76,343.09c0,1.76-1.81,3.19-4.05,3.19s-4-1.43-4-3.19v-4.54h8.1Z" transform="translate(0.5 0.5)" style="fill: #231f20"/>
  <path d="M342.28,343.09c0,1.76-1.82,3.19-4,3.19s-4.05-1.43-4.05-3.19v-4.54h8.1Z" transform="translate(0.5 0.5)" style="fill: #231f20"/>
  <path d="M296,343.65a1.13,1.13,0,0,1-.12.54,1,1,0,0,1-.29.37,1.3,1.3,0,0,1-.38.21,1.44,1.44,0,0,1-.4.06,2.3,2.3,0,0,1-.6-.09,2.11,2.11,0,0,1-.54-.2v-.91a2.47,2.47,0,0,0,.38.28.88.88,0,0,0,.44.12.61.61,0,0,0,.28-.07.58.58,0,0,0,.17-.18.46.46,0,0,0,.06-.23.6.6,0,0,0-.07-.27.48.48,0,0,0-.21-.19.66.66,0,0,0-.32-.08h-.12v-.65h.14a.56.56,0,0,0,.3-.08.44.44,0,0,0,.17-.19.53.53,0,0,0,0-.2.44.44,0,0,0-.13-.33.39.39,0,0,0-.32-.14,1,1,0,0,0-.37.07,1.31,1.31,0,0,0-.36.21v-.78a4.32,4.32,0,0,1,.48-.19,1.51,1.51,0,0,1,.5-.07,1.17,1.17,0,0,1,.67.18,1,1,0,0,1,.4.43,1,1,0,0,1,.06.84,1.4,1.4,0,0,1-.18.32,1,1,0,0,1-.24.22,1.43,1.43,0,0,1,.38.36A1.08,1.08,0,0,1,296,343.65Z" transform="translate(0.5 0.5)" style="fill: #fff"/>
  <path d="M339.69,343.9h-.42v.88h-1v-.88h-1.45v-.77l1.64-2.41h.77v2.48h.42Zm-1.38-.7v-1.3l-.88,1.3Z" transform="translate(0.5 0.5)" style="fill: #fff"/>
  <path d="M109.81,302.86a1.91,1.91,0,0,1-.15.76,1.34,1.34,0,0,1-.48.57,1.29,1.29,0,0,1-.77.22,2,2,0,0,1-.69-.12,1.74,1.74,0,0,1-.61-.34v-1a2.25,2.25,0,0,0,.51.33,1.34,1.34,0,0,0,.57.17.45.45,0,0,0,.41-.18.71.71,0,0,0,.12-.38.82.82,0,0,0-.07-.31.59.59,0,0,0-.24-.23.82.82,0,0,0-.44-.1,1.39,1.39,0,0,0-.6.14v-2.76h2.28v1h-1.41v.81h.25a1.25,1.25,0,0,1,.7.2,1.22,1.22,0,0,1,.46.54A1.58,1.58,0,0,1,109.81,302.86Z" transform="translate(0.5 0.5)" style="fill: #231f20"/>
  <path d="M153.57,302.71a1.89,1.89,0,0,1-.1.63,1.74,1.74,0,0,1-.31.55,1.58,1.58,0,0,1-.48.38,1.46,1.46,0,0,1-.63.14,1.36,1.36,0,0,1-.84-.27,1.53,1.53,0,0,1-.53-.69,2.32,2.32,0,0,1-.18-.92,3.21,3.21,0,0,1,.11-.8,3.61,3.61,0,0,1,.32-.8,4.58,4.58,0,0,1,.5-.74,4.36,4.36,0,0,1,.64-.65l1,.38c-.16.16-.29.31-.4.44s-.22.27-.33.41a3.87,3.87,0,0,0-.27.43,1,1,0,0,1,.26,0,1.14,1.14,0,0,1,.64.19,1.44,1.44,0,0,1,.46.54A1.75,1.75,0,0,1,153.57,302.71Zm-1,0a.7.7,0,0,0-.15-.49.49.49,0,0,0-.36-.15.41.41,0,0,0-.39.21.75.75,0,0,0-.13.43.73.73,0,0,0,.15.46.42.42,0,0,0,.36.19.39.39,0,0,0,.29-.1.68.68,0,0,0,.18-.26A1,1,0,0,0,152.55,302.69Z" transform="translate(0.5 0.5)" style="fill: #231f20"/>
  <path d="M22.48,290.29A16.09,16.09,0,1,0,6.39,274.2,16.09,16.09,0,0,0,22.48,290.29Z" transform="translate(0.5 0.5)" style="fill: none;stroke: #231f20;stroke-miterlimit: 10"/>
  <path d="M153.79,266.92l-34.6.24v.14c5.68,2.86,8.75,8.54,8.75,15.09s-3.09,12.25-8.79,15.11v.11l34.64-.24a15.23,15.23,0,1,0,0-30.45Z" transform="translate(0.5 0.5)" style="fill: none;stroke: #231f20;stroke-miterlimit: 10"/>
  <g>
    <path d="M12,61.18H10.23L8.41,58.64v2.54H7V55.76H8.41v2.42l1.72-2.42h1.56L9.92,58.3Z" transform="translate(0.5 0.5)" style="fill: #231f20"/>
    <path d="M15.86,61.18H14.62V59a1.62,1.62,0,0,0-.09-.57.42.42,0,0,0-.42-.25.53.53,0,0,0-.26.07.83.83,0,0,0-.21.16l-.15.2a1.37,1.37,0,0,0-.13.2v2.34H12.12v-4h1.24v.57a1.85,1.85,0,0,1,.58-.5,1.59,1.59,0,0,1,.66-.14q1.26,0,1.26,1.71Z" transform="translate(0.5 0.5)" style="fill: #231f20"/>
    <path d="M20.18,59.18A2.39,2.39,0,0,1,20,60.24a1.73,1.73,0,0,1-.68.74,2.11,2.11,0,0,1-1.1.27A2.15,2.15,0,0,1,17.07,61a1.71,1.71,0,0,1-.67-.74,2.39,2.39,0,0,1-.23-1.06,2.3,2.3,0,0,1,.13-.81,1.69,1.69,0,0,1,.38-.65,1.67,1.67,0,0,1,.63-.44,2.6,2.6,0,0,1,1.74,0,1.9,1.9,0,0,1,.63.43,2,2,0,0,1,.38.65A2.66,2.66,0,0,1,20.18,59.18Zm-1.3,0a1.33,1.33,0,0,0-.18-.74.59.59,0,0,0-.52-.26.6.6,0,0,0-.53.26,1.33,1.33,0,0,0-.17.74,1.36,1.36,0,0,0,.18.75.58.58,0,0,0,.52.27.59.59,0,0,0,.52-.27A1.34,1.34,0,0,0,18.88,59.18Z" transform="translate(0.5 0.5)" style="fill: #231f20"/>
    <path d="M24.39,59.21a2.42,2.42,0,0,1-.24,1.15,1.65,1.65,0,0,1-.6.67,1.54,1.54,0,0,1-.75.22,1.34,1.34,0,0,1-.48-.08A1.12,1.12,0,0,1,22,61l-.23-.2v.36H20.54V55.76h1.24v1.67a1.16,1.16,0,0,1,.37-.21,1.6,1.6,0,0,1,.56-.09,1.66,1.66,0,0,1,.75.17,1.47,1.47,0,0,1,.52.47,2.16,2.16,0,0,1,.31.67A3.18,3.18,0,0,1,24.39,59.21Zm-1.31,0a1.25,1.25,0,0,0-.2-.78.57.57,0,0,0-.48-.26,1.08,1.08,0,0,0-.62.25v1.52a.8.8,0,0,0,.62.28.69.69,0,0,0,.46-.21A1.09,1.09,0,0,0,23.08,59.18Z" transform="translate(0.5 0.5)" style="fill: #231f20"/>
    <path d="M30.09,59.6a1.67,1.67,0,0,1-.23.88,1.42,1.42,0,0,1-.64.57,2.12,2.12,0,0,1-.93.2l-.37,0a2.92,2.92,0,0,1-.57-.12,4.58,4.58,0,0,1-.74-.28V59.49a4.88,4.88,0,0,0,.71.42,1.72,1.72,0,0,0,.75.17.62.62,0,0,0,.48-.14.43.43,0,0,0,.1-.26.46.46,0,0,0-.18-.37,3.11,3.11,0,0,0-.54-.31,4.49,4.49,0,0,1-.69-.41,1.69,1.69,0,0,1-.48-.55,1.54,1.54,0,0,1-.19-.79,1.62,1.62,0,0,1,.19-.79,1.43,1.43,0,0,1,.58-.56,2,2,0,0,1,.95-.21,3.33,3.33,0,0,1,.73.08,3,3,0,0,1,.56.2,2.59,2.59,0,0,1,.3.17v1.27a3.3,3.3,0,0,0-.65-.42,1.57,1.57,0,0,0-.77-.19.52.52,0,0,0-.38.12.38.38,0,0,0-.12.29.36.36,0,0,0,.12.27,1.82,1.82,0,0,0,.43.29,7.49,7.49,0,0,1,.88.53,1.63,1.63,0,0,1,.51.54A1.38,1.38,0,0,1,30.09,59.6Z" transform="translate(0.5 0.5)" style="fill: #231f20"/>
    <path d="M34.17,59.53H31.71a.93.93,0,0,0,.35.59,1,1,0,0,0,.64.23,2.93,2.93,0,0,0,1.38-.4v.87a2.9,2.9,0,0,1-.66.29,3,3,0,0,1-1,.14,2.11,2.11,0,0,1-1.1-.28,1.73,1.73,0,0,1-.68-.74,2.43,2.43,0,0,1-.23-1.06,2.38,2.38,0,0,1,.23-1.05,1.71,1.71,0,0,1,.68-.73,2.21,2.21,0,0,1,1.1-.26,1.72,1.72,0,0,1,.82.21,1.53,1.53,0,0,1,.65.68,2.49,2.49,0,0,1,.26,1.23ZM33,58.83a1,1,0,0,0-.17-.61.56.56,0,0,0-.48-.23.64.64,0,0,0-.5.23,1,1,0,0,0-.19.61Z" transform="translate(0.5 0.5)" style="fill: #231f20"/>
    <path d="M37.26,60.94a3.23,3.23,0,0,1-.53.21,2.57,2.57,0,0,1-.65.1c-.89,0-1.34-.5-1.34-1.49V58.18h-.56v-.25L35.84,56H36V57.2h1.19v1H36v1.27a1.73,1.73,0,0,0,0,.36.39.39,0,0,0,.13.23.55.55,0,0,0,.34.09,1.76,1.76,0,0,0,.78-.28Z" transform="translate(0.5 0.5)" style="fill: #231f20"/>
  </g>
  <rect x="103.68" y="34.23" width="167.81" height="126.99" style="fill: #231f20"/>
</svg>
