<svg xmlns="http://www.w3.org/2000/svg" width="132.35mm" height="128.85mm" viewBox="0 0 375.17 365.25">
  <g id="outline">
    <g>
      <rect x="0.5" y="0.5" width="374.17" height="364.25" style="fill: #fff;stroke: #231f20"/>
      <g>
        <path d="M355.92,12.89a4.54,4.54,0,0,0,0-9.07h-8.44a4.54,4.54,0,0,0,0,9.07Z" transform="translate(0.92 0.57)"/>
        <path d="M355.92,360.15a4.54,4.54,0,0,0,0-9.07h-8.44a4.54,4.54,0,0,0,0,9.07Z" transform="translate(0.92 0.57)"/>
      </g>
      <g>
        <path d="M25,12.89a4.54,4.54,0,1,0,0-9.07H16.58a4.54,4.54,0,1,0,0,9.07Z" transform="translate(0.92 0.57)"/>
        <path d="M25,360.15a4.54,4.54,0,1,0,0-9.07H16.58a4.54,4.54,0,1,0,0,9.07Z" transform="translate(0.92 0.57)"/>
      </g>
    </g>
    <g>
      <rect x="0.5" y="0.5" width="374.17" height="364.25" style="fill: none;stroke: #231f20"/>
      <g>
        <path d="M355.92,12.89a4.54,4.54,0,0,0,0-9.07h-8.44a4.54,4.54,0,0,0,0,9.07Z" transform="translate(0.92 0.57)" style="fill: none;stroke: #231f20"/>
        <path d="M355.92,360.15a4.54,4.54,0,0,0,0-9.07h-8.44a4.54,4.54,0,0,0,0,9.07Z" transform="translate(0.92 0.57)" style="fill: none;stroke: #231f20"/>
      </g>
      <g>
        <path d="M25,12.89a4.54,4.54,0,1,0,0-9.07H16.58a4.54,4.54,0,1,0,0,9.07Z" transform="translate(0.92 0.57)" style="fill: none;stroke: #231f20"/>
        <path d="M25,360.15a4.54,4.54,0,1,0,0-9.07H16.58a4.54,4.54,0,1,0,0,9.07Z" transform="translate(0.92 0.57)" style="fill: none;stroke: #231f20"/>
      </g>
    </g>
  </g>
  <g id="faceplate">
    <g>
      <path d="M11.67,296.51l-.22.09-.17.07-.24.08a3.45,3.45,0,0,1-.54.11,3.48,3.48,0,0,1-.57,0,2.26,2.26,0,0,1-1.1-.26,2,2,0,0,1-.82-.82,2.82,2.82,0,0,1-.3-1.36,3.6,3.6,0,0,1,.15-1,1.84,1.84,0,0,1,.49-.8,1.9,1.9,0,0,1,.54-.38,2,2,0,0,1,.53-.18,3.52,3.52,0,0,1,.58,0,3.35,3.35,0,0,1,.85.09c.23.07.48.15.74.25v1.12a2.77,2.77,0,0,0-.56-.31,1.82,1.82,0,0,0-.74-.13,1.27,1.27,0,0,0-.82.24,1.19,1.19,0,0,0-.43.55,1.84,1.84,0,0,0-.12.63,1.45,1.45,0,0,0,.14.66,1.1,1.1,0,0,0,.41.49,1.25,1.25,0,0,0,.68.18,1.76,1.76,0,0,0,.49-.07v-.56H10.1v-.95h1.57Z" transform="translate(0.92 0.57)" style="fill: #231f20"/>
      <path d="M15.43,296.67l-.41.17a1.56,1.56,0,0,1-.46.06.47.47,0,0,1-.35-.1.63.63,0,0,1-.14-.27,1.41,1.41,0,0,1-.37.27,1.14,1.14,0,0,1-.53.1.84.84,0,0,1-.5-.13.73.73,0,0,1-.28-.33,1.15,1.15,0,0,1-.08-.41,1,1,0,0,1,.14-.53,1.1,1.1,0,0,1,.36-.35,3.49,3.49,0,0,1,.6-.27l.32-.13.17-.06.11-.07a.81.81,0,0,0-.08-.39.39.39,0,0,0-.37-.15,1.12,1.12,0,0,0-.62.18,2.28,2.28,0,0,0-.53.46v-1a2.57,2.57,0,0,1,.41-.26,2.36,2.36,0,0,1,.47-.16,2.61,2.61,0,0,1,.48-.05,1.38,1.38,0,0,1,1,.29,1.06,1.06,0,0,1,.31.81v1.34a1.07,1.07,0,0,0,0,.29.11.11,0,0,0,.11.09.5.5,0,0,0,.26-.1ZM14,296v-.82a2.51,2.51,0,0,0-.53.32.47.47,0,0,0-.17.38.37.37,0,0,0,.09.27.25.25,0,0,0,.19.09.35.35,0,0,0,.21-.07A1.57,1.57,0,0,0,14,296Z" transform="translate(0.92 0.57)" style="fill: #231f20"/>
      <path d="M18,296.64a2.18,2.18,0,0,1-.44.18,2,2,0,0,1-.53.08c-.74,0-1.11-.43-1.11-1.3v-1.38h-.46V294l1.37-1.68H17v1h1v.86H17v1.11a2.58,2.58,0,0,0,0,.32.33.33,0,0,0,.11.2.44.44,0,0,0,.28.08,1.38,1.38,0,0,0,.64-.25Z" transform="translate(0.92 0.57)" style="fill: #231f20"/>
      <path d="M21.44,295.4h-2a.88.88,0,0,0,.29.52.79.79,0,0,0,.53.2,2.43,2.43,0,0,0,1.14-.35v.76a2.57,2.57,0,0,1-.55.26,2.59,2.59,0,0,1-.81.11,1.67,1.67,0,0,1-.91-.24,1.48,1.48,0,0,1-.56-.65,2.27,2.27,0,0,1-.18-.93,2.21,2.21,0,0,1,.18-.91,1.51,1.51,0,0,1,.56-.64,1.76,1.76,0,0,1,.91-.23,1.32,1.32,0,0,1,1.22.78,2.4,2.4,0,0,1,.21,1.07Zm-1-.61a.85.85,0,0,0-.14-.53.43.43,0,0,0-.39-.2.47.47,0,0,0-.41.2.82.82,0,0,0-.16.53Z" transform="translate(0.92 0.57)" style="fill: #231f20"/>
      <path d="M25,296.84H23.84V292.1H25Z" transform="translate(0.92 0.57)" style="fill: #231f20"/>
      <path d="M28.94,296.84h-1V295a1.55,1.55,0,0,0-.07-.5.34.34,0,0,0-.35-.21.43.43,0,0,0-.22.06.55.55,0,0,0-.17.14,1.36,1.36,0,0,0-.12.17l-.11.18v2h-1v-3.48h1v.5a1.45,1.45,0,0,1,.49-.43,1.08,1.08,0,0,1,.54-.13c.69,0,1,.5,1,1.5Z" transform="translate(0.92 0.57)" style="fill: #231f20"/>
      <path d="M33.21,296.84H32.13V292.1h1.08Z" transform="translate(0.92 0.57)" style="fill: #231f20"/>
    </g>
    <g>
      <path d="M55.86,296.51l-.22.09-.17.07-.25.08a3.12,3.12,0,0,1-.53.11,3.48,3.48,0,0,1-.57,0,2.26,2.26,0,0,1-1.1-.26,2,2,0,0,1-.82-.82,2.82,2.82,0,0,1-.3-1.36,3.6,3.6,0,0,1,.15-1,1.84,1.84,0,0,1,.49-.8,1.9,1.9,0,0,1,.54-.38,2,2,0,0,1,.53-.18,3.45,3.45,0,0,1,.58,0,3.35,3.35,0,0,1,.85.09c.23.07.48.15.74.25v1.12a2.77,2.77,0,0,0-.56-.31,1.82,1.82,0,0,0-.74-.13,1.32,1.32,0,0,0-.83.24,1.24,1.24,0,0,0-.42.55,1.84,1.84,0,0,0-.12.63,1.59,1.59,0,0,0,.13.66,1.19,1.19,0,0,0,.42.49,1.25,1.25,0,0,0,.68.18,1.69,1.69,0,0,0,.48-.07v-.56h-.53v-.95h1.57Z" transform="translate(0.92 0.57)" style="fill: #231f20"/>
      <path d="M59.62,296.67l-.41.17a1.56,1.56,0,0,1-.46.06.47.47,0,0,1-.35-.1.63.63,0,0,1-.14-.27,1.41,1.41,0,0,1-.37.27,1.14,1.14,0,0,1-.53.1.88.88,0,0,1-.51-.13.71.71,0,0,1-.27-.33,1.15,1.15,0,0,1-.08-.41,1,1,0,0,1,.14-.53,1.1,1.1,0,0,1,.36-.35,3.49,3.49,0,0,1,.6-.27l.32-.13.17-.06.11-.07a.81.81,0,0,0-.08-.39.39.39,0,0,0-.37-.15,1.12,1.12,0,0,0-.62.18,2.09,2.09,0,0,0-.53.46v-1a2.19,2.19,0,0,1,.41-.26,2.51,2.51,0,0,1,.46-.16,2.81,2.81,0,0,1,.49-.05,1.4,1.4,0,0,1,.95.29,1.06,1.06,0,0,1,.31.81v1.34a1.07,1.07,0,0,0,0,.29.11.11,0,0,0,.11.09.5.5,0,0,0,.26-.1ZM58.2,296v-.82a2.51,2.51,0,0,0-.53.32.47.47,0,0,0-.17.38.37.37,0,0,0,.09.27.25.25,0,0,0,.19.09.35.35,0,0,0,.21-.07A1.57,1.57,0,0,0,58.2,296Z" transform="translate(0.92 0.57)" style="fill: #231f20"/>
      <path d="M62.22,296.64a2.46,2.46,0,0,1-.44.18,2,2,0,0,1-.53.08c-.74,0-1.11-.43-1.11-1.3v-1.38h-.46V294l1.37-1.68h.12v1h1v.86h-1v1.11a2.58,2.58,0,0,0,0,.32.33.33,0,0,0,.11.2.43.43,0,0,0,.28.08,1.38,1.38,0,0,0,.64-.25Z" transform="translate(0.92 0.57)" style="fill: #231f20"/>
      <path d="M65.63,295.4h-2a.88.88,0,0,0,.29.52.79.79,0,0,0,.53.2,2.43,2.43,0,0,0,1.14-.35v.76a2.57,2.57,0,0,1-.55.26,2.59,2.59,0,0,1-.81.11,1.67,1.67,0,0,1-.91-.24,1.48,1.48,0,0,1-.56-.65,2.27,2.27,0,0,1-.18-.93,2.21,2.21,0,0,1,.18-.91,1.51,1.51,0,0,1,.56-.64,1.76,1.76,0,0,1,.91-.23,1.41,1.41,0,0,1,.68.18,1.39,1.39,0,0,1,.54.6,2.4,2.4,0,0,1,.21,1.07Zm-1-.61a.85.85,0,0,0-.14-.53.43.43,0,0,0-.39-.2.5.5,0,0,0-.42.2.88.88,0,0,0-.15.53Z" transform="translate(0.92 0.57)" style="fill: #231f20"/>
      <path d="M69.22,296.84H68V292.1h1.19Z" transform="translate(0.92 0.57)" style="fill: #231f20"/>
      <path d="M73.13,296.84h-1V295a1.55,1.55,0,0,0-.07-.5.34.34,0,0,0-.35-.21.43.43,0,0,0-.22.06.55.55,0,0,0-.17.14,1.36,1.36,0,0,0-.12.17l-.11.18v2H70v-3.48h1v.5a1.45,1.45,0,0,1,.49-.43,1.08,1.08,0,0,1,.54-.13c.69,0,1,.5,1,1.5Z" transform="translate(0.92 0.57)" style="fill: #231f20"/>
      <path d="M78.36,296.84h-3v-.09l.38-.48.53-.75c.1-.13.19-.27.28-.41a4,4,0,0,0,.23-.39,3.19,3.19,0,0,0,.16-.41,1.89,1.89,0,0,0,.06-.47.8.8,0,0,0-.16-.53.48.48,0,0,0-.4-.21,1.3,1.3,0,0,0-1,.6v-1.11l.28-.21a1.2,1.2,0,0,1,.25-.16,1.75,1.75,0,0,1,.33-.13,1.86,1.86,0,0,1,.42,0,1.26,1.26,0,0,1,1.12.68,1.78,1.78,0,0,1,.16.78,2.22,2.22,0,0,1-.07.59,3,3,0,0,1-.16.44l-.22.41c-.16.3-.34.57-.52.84h1.27Z" transform="translate(0.92 0.57)" style="fill: #231f20"/>
    </g>
    <path d="M108.45,298.28A16.09,16.09,0,1,0,92.37,282.2,16.08,16.08,0,0,0,108.45,298.28Z" transform="translate(0.92 0.57)" style="fill: none;stroke: #231f20;stroke-miterlimit: 10"/>
    <path d="M65.25,290.15a16.09,16.09,0,1,0-16.08-16.09A16.09,16.09,0,0,0,65.25,290.15Z" transform="translate(0.92 0.57)" style="fill: none;stroke: #231f20;stroke-miterlimit: 10"/>
    <line x1="116.27" y1="264.09" x2="116.27" y2="264.02" style="fill: #231f20"/>
    <g>
      <path d="M252.69,354.85H251.3l-.37-1.1h-2l-.37,1.1h-1.39l2-5.41h1.5Zm-2.07-2-.65-2-.67,2Z" transform="translate(0.92 0.57)" style="fill: #231f20"/>
      <path d="M256.66,354.85H255.5v-.57a1.77,1.77,0,0,1-.52.48,1.23,1.23,0,0,1-.65.16.94.94,0,0,1-1-.53,3,3,0,0,1-.22-1.18v-2.34h1.17V353a1.62,1.62,0,0,0,.09.57.36.36,0,0,0,.38.24.52.52,0,0,0,.41-.17,3.84,3.84,0,0,0,.31-.45v-2.34h1.16Z" transform="translate(0.92 0.57)" style="fill: #231f20"/>
      <path d="M260.9,354.85h-1.17v-.36a1.9,1.9,0,0,1-.39.31,1.1,1.1,0,0,1-.57.12,1.25,1.25,0,0,1-.7-.22,1.53,1.53,0,0,1-.57-.67,2.54,2.54,0,0,1-.23-1.14,3.12,3.12,0,0,1,.17-1,1.7,1.7,0,0,1,.53-.77,1.5,1.5,0,0,1,1.41-.21,1.38,1.38,0,0,1,.35.22v-1.67h1.17Zm-1.17-1.27v-1.52a2.6,2.6,0,0,0-.32-.19.54.54,0,0,0-.27-.06.55.55,0,0,0-.46.28,1.42,1.42,0,0,0-.18.77,1.26,1.26,0,0,0,.19.76.61.61,0,0,0,.79.16A1.16,1.16,0,0,0,259.73,353.58Z" transform="translate(0.92 0.57)" style="fill: #231f20"/>
      <path d="M262.87,354.85H261.7v-4h1.17Zm-.09-4.9a.6.6,0,0,1-.15.42.45.45,0,0,1-.59.1.55.55,0,0,1-.18-.22.73.73,0,0,1-.06-.3.59.59,0,0,1,.14-.41.42.42,0,0,1,.35-.18.42.42,0,0,1,.34.18A.59.59,0,0,1,262.78,350Z" transform="translate(0.92 0.57)" style="fill: #231f20"/>
      <path d="M267.32,352.86a2.57,2.57,0,0,1-.21,1.06,1.75,1.75,0,0,1-.64.73,1.92,1.92,0,0,1-1,.27,1.89,1.89,0,0,1-1-.27,1.62,1.62,0,0,1-.64-.73,2.57,2.57,0,0,1-.21-1.06,3,3,0,0,1,.11-.82,1.83,1.83,0,0,1,.37-.65,1.63,1.63,0,0,1,.59-.44,2.1,2.1,0,0,1,.82-.15,1.94,1.94,0,0,1,.82.16,1.54,1.54,0,0,1,.6.43,1.93,1.93,0,0,1,.35.65A2.62,2.62,0,0,1,267.32,352.86Zm-1.23,0a1.4,1.4,0,0,0-.17-.74.55.55,0,0,0-.49-.27.53.53,0,0,0-.49.27,1.31,1.31,0,0,0-.17.74,1.33,1.33,0,0,0,.17.74.58.58,0,0,0,1,0A1.42,1.42,0,0,0,266.09,352.86Z" transform="translate(0.92 0.57)" style="fill: #231f20"/>
      <path d="M271,349.36l-2.45,5.56h-.87l2.45-5.56Z" transform="translate(0.92 0.57)" style="fill: #231f20"/>
      <path d="M275.65,354.44a2.51,2.51,0,0,1-.57.28,3,3,0,0,1-.59.15,4,4,0,0,1-.61.05,2.69,2.69,0,0,1-1.05-.2,2.3,2.3,0,0,1-.81-.57,2.46,2.46,0,0,1-.51-.89,3.37,3.37,0,0,1-.17-1.12,3.31,3.31,0,0,1,.2-1.23,2.29,2.29,0,0,1,.56-.87,2.35,2.35,0,0,1,.82-.51,2.93,2.93,0,0,1,1-.17,4.54,4.54,0,0,1,1.73.41v1.44a4,4,0,0,0-.66-.42,1.64,1.64,0,0,0-.76-.16,1.56,1.56,0,0,0-.74.18,1.47,1.47,0,0,0-.54.54,1.66,1.66,0,0,0,0,1.56,1.47,1.47,0,0,0,.5.55,1.4,1.4,0,0,0,.73.2,1.79,1.79,0,0,0,.62-.1,2.06,2.06,0,0,0,.49-.21,3.32,3.32,0,0,0,.41-.28Z" transform="translate(0.92 0.57)" style="fill: #231f20"/>
      <path d="M281,349.44l-2,5.48H278l-2-5.48h1.41l1,3.12,1.06-3.12Z" transform="translate(0.92 0.57)" style="fill: #231f20"/>
      <path d="M288.36,352.14a3.36,3.36,0,0,1-.29,1.39,2.38,2.38,0,0,1-.87,1,2.76,2.76,0,0,1-2.81,0,2.31,2.31,0,0,1-.85-1,3.28,3.28,0,0,1-.28-1.36,3.49,3.49,0,0,1,.27-1.37,2.44,2.44,0,0,1,.86-1,2.48,2.48,0,0,1,1.41-.39,2.83,2.83,0,0,1,1.12.22,2.22,2.22,0,0,1,.8.61,2.49,2.49,0,0,1,.47.88A3.47,3.47,0,0,1,288.36,352.14Zm-1.39,0a2,2,0,0,0-.07-.56,1.3,1.3,0,0,0-.22-.44,1.1,1.1,0,0,0-.37-.28,1.19,1.19,0,0,0-.51-.11,1.05,1.05,0,0,0-.85.38,1.54,1.54,0,0,0-.31,1,1.51,1.51,0,0,0,.31,1,1,1,0,0,0,.85.39,1.1,1.1,0,0,0,.64-.18,1.14,1.14,0,0,0,.4-.49A1.81,1.81,0,0,0,287,352.14Z" transform="translate(0.92 0.57)" style="fill: #231f20"/>
      <path d="M292.48,354.85h-1.16v-.57a1.77,1.77,0,0,1-.52.48,1.24,1.24,0,0,1-.66.16.93.93,0,0,1-1-.53,3,3,0,0,1-.22-1.18v-2.34h1.17V353a1.62,1.62,0,0,0,.09.57.35.35,0,0,0,.38.24.53.53,0,0,0,.41-.17,3.84,3.84,0,0,0,.31-.45v-2.34h1.16Z" transform="translate(0.92 0.57)" style="fill: #231f20"/>
      <path d="M295.84,354.62a2.35,2.35,0,0,1-.51.2,1.9,1.9,0,0,1-.61.1c-.84,0-1.26-.5-1.26-1.48v-1.59h-.53v-.25l1.57-1.92h.13v1.19h1.12v1h-1.12v1.27a3.21,3.21,0,0,0,0,.36.41.41,0,0,0,.13.23.49.49,0,0,0,.32.09,1.53,1.53,0,0,0,.74-.28Z" transform="translate(0.92 0.57)" style="fill: #231f20"/>
      <path d="M298.93,353.69a1.24,1.24,0,0,1-.33.89,1.32,1.32,0,0,1-1,.34,2.51,2.51,0,0,1-.65-.08,4,4,0,0,1-.62-.23v-1a3,3,0,0,0,.51.31,1,1,0,0,0,.47.1c.3,0,.44-.09.44-.28a.28.28,0,0,0-.06-.18.88.88,0,0,0-.22-.17l-.42-.23a1.63,1.63,0,0,1-.55-.46,1.12,1.12,0,0,1-.23-.71,1.21,1.21,0,0,1,.15-.57,1.09,1.09,0,0,1,.46-.44,1.39,1.39,0,0,1,.73-.18l.27,0a2.14,2.14,0,0,1,.4.09,2.18,2.18,0,0,1,.47.21v1l-.18-.13-.18-.11a1.49,1.49,0,0,0-.28-.11.86.86,0,0,0-.32-.05.36.36,0,0,0-.28.09.3.3,0,0,0-.07.19.29.29,0,0,0,.08.18,1.07,1.07,0,0,0,.35.21,3.17,3.17,0,0,1,.62.37,1.15,1.15,0,0,1,.33.41A1.3,1.3,0,0,1,298.93,353.69Z" transform="translate(0.92 0.57)" style="fill: #231f20"/>
    </g>
    <g>
      <path d="M82.79,353.3H81.4L81,352.2h-2l-.37,1.1H77.32l2-5.41h1.5Zm-2.07-2-.65-2-.67,2Z" transform="translate(0.92 0.57)" style="fill: #231f20"/>
      <path d="M86.77,353.3H85.6v-.57a1.77,1.77,0,0,1-.52.48,1.23,1.23,0,0,1-.65.16.93.93,0,0,1-1-.52,3,3,0,0,1-.22-1.19v-2.34h1.17v2.15a1.62,1.62,0,0,0,.09.57.38.38,0,0,0,.39.25.49.49,0,0,0,.4-.18,3.84,3.84,0,0,0,.31-.45v-2.34h1.17Z" transform="translate(0.92 0.57)" style="fill: #231f20"/>
      <path d="M91,353.3H89.84v-.36a1.88,1.88,0,0,1-.4.31,1.08,1.08,0,0,1-.56.12,1.36,1.36,0,0,1-.71-.21,1.66,1.66,0,0,1-.57-.67,2.62,2.62,0,0,1-.23-1.15,3.12,3.12,0,0,1,.17-1,1.84,1.84,0,0,1,.53-.77,1.5,1.5,0,0,1,1.41-.21,1.65,1.65,0,0,1,.36.22v-1.67H91ZM89.84,352v-1.52l-.32-.2a.6.6,0,0,0-.27-.06.54.54,0,0,0-.46.28,1.35,1.35,0,0,0-.19.77,1.22,1.22,0,0,0,.2.77.56.56,0,0,0,.45.24.68.68,0,0,0,.34-.08A2.19,2.19,0,0,0,89.84,352Z" transform="translate(0.92 0.57)" style="fill: #231f20"/>
      <path d="M93,353.3H91.8v-4H93Zm-.09-4.89a.59.59,0,0,1-.15.41.42.42,0,0,1-.34.18.44.44,0,0,1-.25-.08.53.53,0,0,1-.18-.21.73.73,0,0,1-.06-.3A.63.63,0,0,1,92,348a.44.44,0,0,1,.35-.18.42.42,0,0,1,.34.18A.64.64,0,0,1,92.88,348.41Z" transform="translate(0.92 0.57)" style="fill: #231f20"/>
      <path d="M97.42,351.31a2.57,2.57,0,0,1-.21,1.06,1.75,1.75,0,0,1-.64.73,1.92,1.92,0,0,1-1,.27,1.89,1.89,0,0,1-1-.27,1.62,1.62,0,0,1-.64-.73,2.57,2.57,0,0,1-.21-1.06,2.66,2.66,0,0,1,.12-.82,2,2,0,0,1,.36-.65,1.58,1.58,0,0,1,.59-.43,2.18,2.18,0,0,1,1.64,0,1.65,1.65,0,0,1,.6.43,1.93,1.93,0,0,1,.35.65A2.66,2.66,0,0,1,97.42,351.31Zm-1.23,0a1.31,1.31,0,0,0-.17-.74.55.55,0,0,0-.49-.27.53.53,0,0,0-.49.27,1.31,1.31,0,0,0-.17.74,1.33,1.33,0,0,0,.17.74.58.58,0,0,0,1,0A1.33,1.33,0,0,0,96.19,351.31Z" transform="translate(0.92 0.57)" style="fill: #231f20"/>
      <path d="M101.07,347.81l-2.44,5.56h-.87l2.44-5.56Z" transform="translate(0.92 0.57)" style="fill: #231f20"/>
      <path d="M105.75,352.9a3,3,0,0,1-.57.28,3.1,3.1,0,0,1-.58.15,4.21,4.21,0,0,1-.62,0,2.69,2.69,0,0,1-1-.19,2.32,2.32,0,0,1-.81-.58,2.38,2.38,0,0,1-.51-.89,3.6,3.6,0,0,1-.17-1.12,3.47,3.47,0,0,1,.2-1.22,2.33,2.33,0,0,1,.56-.88A2.3,2.3,0,0,1,103,348a2.83,2.83,0,0,1,1-.17,4.54,4.54,0,0,1,1.73.41v1.44a4.84,4.84,0,0,0-.66-.42,1.64,1.64,0,0,0-.76-.16,1.42,1.42,0,0,0-.73.19,1.4,1.4,0,0,0-.55.53,1.53,1.53,0,0,0-.21.81,1.61,1.61,0,0,0,.18.76,1.46,1.46,0,0,0,.51.54,1.34,1.34,0,0,0,.72.2,1.79,1.79,0,0,0,.62-.1,2.06,2.06,0,0,0,.49-.21,3.32,3.32,0,0,0,.41-.28Z" transform="translate(0.92 0.57)" style="fill: #231f20"/>
      <path d="M111.06,347.89l-2,5.48h-.9l-2-5.48h1.41l1,3.12,1.06-3.12Z" transform="translate(0.92 0.57)" style="fill: #231f20"/>
      <path d="M115,353.3h-1.35v-5.41H115Z" transform="translate(0.92 0.57)" style="fill: #231f20"/>
      <path d="M119.48,353.3h-1.17v-2.14a1.72,1.72,0,0,0-.09-.58.37.37,0,0,0-.39-.24.51.51,0,0,0-.25.06.77.77,0,0,0-.19.17,1.3,1.3,0,0,0-.15.2l-.12.2v2.33H116v-4h1.17v.58a1.77,1.77,0,0,1,.55-.5,1.29,1.29,0,0,1,.62-.15c.79,0,1.19.57,1.19,1.72Z" transform="translate(0.92 0.57)" style="fill: #231f20"/>
      <path d="M122.76,352.14a1.22,1.22,0,0,1-.33.89,1.31,1.31,0,0,1-1,.34,2.18,2.18,0,0,1-.65-.08,4,4,0,0,1-.62-.23v-1a3,3,0,0,0,.51.31,1,1,0,0,0,.47.11c.3,0,.44-.1.44-.29a.3.3,0,0,0-.06-.18,1.21,1.21,0,0,0-.22-.17l-.42-.23a1.53,1.53,0,0,1-.55-.46,1.11,1.11,0,0,1-.23-.7,1.16,1.16,0,0,1,.15-.57,1.05,1.05,0,0,1,.46-.45,1.41,1.41,0,0,1,.73-.18l.27,0a2.14,2.14,0,0,1,.4.09,2,2,0,0,1,.47.21v1l-.18-.13-.18-.11a1.49,1.49,0,0,0-.28-.11,1.13,1.13,0,0,0-.32-.05.3.3,0,0,0-.35.28.25.25,0,0,0,.08.18,1.07,1.07,0,0,0,.35.21,2.9,2.9,0,0,1,.62.37,1.08,1.08,0,0,1,.33.42A1.25,1.25,0,0,1,122.76,352.14Z" transform="translate(0.92 0.57)" style="fill: #231f20"/>
    </g>
    <g>
      <path d="M163.89,357.65H162v-4.32l-1.71,2.5h-.15l-1.72-2.5v4.32h-1.84V350.2h1.72l1.93,2.79,1.95-2.79h1.72Z" transform="translate(0.92 0.57)" style="fill: #231f20"/>
      <path d="M169.85,355.38H166.6a1.38,1.38,0,0,0,.46.81,1.24,1.24,0,0,0,.85.32,3.77,3.77,0,0,0,1.82-.55v1.2a4.17,4.17,0,0,1-.87.4,4,4,0,0,1-1.3.18,2.7,2.7,0,0,1-1.45-.37,2.31,2.31,0,0,1-.89-1,3.45,3.45,0,0,1-.3-1.47,3.37,3.37,0,0,1,.3-1.44,2.26,2.26,0,0,1,.89-1,2.79,2.79,0,0,1,1.45-.36,2.25,2.25,0,0,1,1.09.29,2.09,2.09,0,0,1,.86.94,3.56,3.56,0,0,1,.34,1.68Zm-1.53-1a1.49,1.49,0,0,0-.22-.84.73.73,0,0,0-.64-.31.79.79,0,0,0-.66.32,1.34,1.34,0,0,0-.25.83Z" transform="translate(0.92 0.57)" style="fill: #231f20"/>
      <path d="M174.21,357.33a3.49,3.49,0,0,1-.7.28,3,3,0,0,1-.86.13c-1.18,0-1.76-.68-1.76-2v-2.18h-.75v-.34l2.2-2.64h.18v1.64h1.56v1.34h-1.56v1.75a2.29,2.29,0,0,0,0,.5.53.53,0,0,0,.17.31.71.71,0,0,0,.45.13,2.18,2.18,0,0,0,1-.39Z" transform="translate(0.92 0.57)" style="fill: #231f20"/>
      <path d="M179.63,357.37a6.71,6.71,0,0,1-.67.27,2.22,2.22,0,0,1-.73.1.71.71,0,0,1-.56-.17,1,1,0,0,1-.23-.41,2.39,2.39,0,0,1-.58.42,1.9,1.9,0,0,1-.85.16,1.41,1.41,0,0,1-.81-.21,1.11,1.11,0,0,1-.44-.52,1.77,1.77,0,0,1-.12-.64,1.54,1.54,0,0,1,.21-.84,1.77,1.77,0,0,1,.58-.54,6.49,6.49,0,0,1,1-.43l.52-.2.26-.1.18-.1a1.19,1.19,0,0,0-.13-.62.66.66,0,0,0-.59-.23,1.87,1.87,0,0,0-1,.28,4,4,0,0,0-.84.72v-1.48a2.84,2.84,0,0,1,.66-.42,3.58,3.58,0,0,1,.74-.25,4.13,4.13,0,0,1,.78-.08,2.17,2.17,0,0,1,1.51.46,1.62,1.62,0,0,1,.5,1.27v2.11a1.51,1.51,0,0,0,.05.44.18.18,0,0,0,.18.15,1,1,0,0,0,.42-.15Zm-2.28-1.05V355a4.41,4.41,0,0,0-.85.5.75.75,0,0,0-.27.61.61.61,0,0,0,.14.42.43.43,0,0,0,.31.14.62.62,0,0,0,.33-.11A2,2,0,0,0,177.35,356.32Z" transform="translate(0.92 0.57)" style="fill: #231f20"/>
      <path d="M190.3,357.65h-1.9v-4.32l-1.71,2.5h-.15l-1.72-2.5v4.32H183V350.2h1.72l1.93,2.79,2-2.79h1.72Z" transform="translate(0.92 0.57)" style="fill: #231f20"/>
      <path d="M196.63,354.91a3.36,3.36,0,0,1-.3,1.45,2.32,2.32,0,0,1-.9,1,3,3,0,0,1-2.91,0,2.24,2.24,0,0,1-.89-1,3.36,3.36,0,0,1-.3-1.45,3.63,3.63,0,0,1,.16-1.13,2.55,2.55,0,0,1,.51-.89,2.19,2.19,0,0,1,.83-.6,2.9,2.9,0,0,1,1.14-.21,3,3,0,0,1,1.16.21,2.12,2.12,0,0,1,.83.6,2.51,2.51,0,0,1,.5.89A3.62,3.62,0,0,1,196.63,354.91Zm-1.72,0a1.83,1.83,0,0,0-.24-1,.77.77,0,0,0-.7-.37.76.76,0,0,0-.68.37,1.83,1.83,0,0,0-.24,1,1.88,1.88,0,0,0,.24,1,.76.76,0,0,0,.68.37.77.77,0,0,0,.7-.37A1.88,1.88,0,0,0,194.91,354.91Z" transform="translate(0.92 0.57)" style="fill: #231f20"/>
      <path d="M202.27,357.65h-1.64v-.5a3.09,3.09,0,0,1-.54.43,1.65,1.65,0,0,1-.8.16,1.92,1.92,0,0,1-1-.29,2.25,2.25,0,0,1-.8-.93,3.46,3.46,0,0,1-.31-1.57,4.24,4.24,0,0,1,.23-1.4,2.4,2.4,0,0,1,.74-1.06,1.93,1.93,0,0,1,1.24-.41,1.85,1.85,0,0,1,.73.12,1.9,1.9,0,0,1,.5.3v-2.3h1.64Zm-1.64-1.75v-2.08a4.09,4.09,0,0,0-.44-.27.8.8,0,0,0-1,.3,1.91,1.91,0,0,0-.25,1.06,1.65,1.65,0,0,0,.27,1,.8.8,0,0,0,.63.33.84.84,0,0,0,.47-.11A1.48,1.48,0,0,0,200.63,355.9Z" transform="translate(0.92 0.57)" style="fill: #231f20"/>
      <path d="M208.08,357.65h-1.64v-.78a2.53,2.53,0,0,1-.72.65,1.75,1.75,0,0,1-.91.22,1.32,1.32,0,0,1-1.36-.72,4.23,4.23,0,0,1-.31-1.63v-3.21h1.64v2.95a2.28,2.28,0,0,0,.12.78.53.53,0,0,0,.55.34A.72.72,0,0,0,206,356a3.69,3.69,0,0,0,.42-.62v-3.21h1.64Z" transform="translate(0.92 0.57)" style="fill: #231f20"/>
      <path d="M210.75,357.65h-1.63V350.2h1.63Z" transform="translate(0.92 0.57)" style="fill: #231f20"/>
      <path d="M216.53,355.38h-3.26a1.39,1.39,0,0,0,.47.81,1.23,1.23,0,0,0,.84.32,3.81,3.81,0,0,0,1.83-.55v1.2a4.42,4.42,0,0,1-.87.4,4,4,0,0,1-1.3.18,2.67,2.67,0,0,1-1.45-.37,2.4,2.4,0,0,1-.9-1,3.45,3.45,0,0,1-.3-1.47,3.37,3.37,0,0,1,.3-1.44,2.35,2.35,0,0,1,.9-1,2.76,2.76,0,0,1,1.45-.36,2.28,2.28,0,0,1,1.09.29,2.14,2.14,0,0,1,.86.94,3.68,3.68,0,0,1,.34,1.68Zm-1.54-1a1.42,1.42,0,0,0-.22-.84.71.71,0,0,0-.63-.31.79.79,0,0,0-.66.32,1.28,1.28,0,0,0-.25.83Z" transform="translate(0.92 0.57)" style="fill: #231f20"/>
    </g>
    <g>
      <path d="M193.27,8.45l-6.91,8.79V9.7a1.63,1.63,0,0,0-.81-1.47,1.13,1.13,0,0,0-1.41.37l-9.09,11.56a1.85,1.85,0,0,0,0,2.24,1.13,1.13,0,0,0,1.82,0s4.34-5.5,6.87-8.73v7.54a1.61,1.61,0,0,0,.81,1.46,1.13,1.13,0,0,0,1.42-.37l6.91-8.78v7.69a1.32,1.32,0,1,0,2.58,0V9.54a1.61,1.61,0,0,0-.81-1.46A1.11,1.11,0,0,0,193.27,8.45Z" transform="translate(0.92 0.57)" style="fill: #020202;stroke: #020202;stroke-miterlimit: 10"/>
      <path d="M175.05,8.36,169,16a1.84,1.84,0,0,0,0,2.23,1.13,1.13,0,0,0,1.83,0l3.81-4.84v7.89a1.32,1.32,0,1,0,2.58,0V9.45A1.61,1.61,0,0,0,176.46,8,1.12,1.12,0,0,0,175.05,8.36Z" transform="translate(0.92 0.57)" style="fill: #020202;stroke: #020202;stroke-miterlimit: 10"/>
      <path d="M203.73,14a1.31,1.31,0,0,0-1.19-1h-2.63l1.92-2.44s1-1.47.12-2.27-2,.07-2,.07l-4,5.13a1.82,1.82,0,0,0-.25,1.71,1.31,1.31,0,0,0,1.18,1h2.64l-3.12,4s-1.29,1.41-.34,2.37,2.2-.17,2.2-.17l5.22-6.65A1.86,1.86,0,0,0,203.73,14Z" transform="translate(0.92 0.57)" style="fill: #020202;stroke: #020202;stroke-miterlimit: 10"/>
    </g>
    <path d="M342,237.73h-2v2.2h-1.43v-5.42H342v1.09h-2v1.05h2Z" transform="translate(0.92 0.57)" style="fill: #231f20"/>
    <path d="M156.15,239.23a3,3,0,0,1-.6.28,3.6,3.6,0,0,1-.63.15,4.51,4.51,0,0,1-.65.05,3,3,0,0,1-1.11-.2,2.4,2.4,0,0,1-.86-.57,2.53,2.53,0,0,1-.54-.89,3.37,3.37,0,0,1-.18-1.12,3.3,3.3,0,0,1,.21-1.23,2.26,2.26,0,0,1,.6-.87,2.38,2.38,0,0,1,.87-.51,3,3,0,0,1,1-.17,5.1,5.1,0,0,1,1.84.41V236a4.32,4.32,0,0,0-.7-.42,1.86,1.86,0,0,0-.81-.16,1.72,1.72,0,0,0-.78.18,1.58,1.58,0,0,0-.58.54,1.53,1.53,0,0,0-.22.81,1.61,1.61,0,0,0,.19.75,1.5,1.5,0,0,0,.54.55,1.52,1.52,0,0,0,.77.2,2.39,2.39,0,0,0,.66-.1,2.55,2.55,0,0,0,.52-.21,4.46,4.46,0,0,0,.43-.28Z" transform="translate(0.92 0.57)" style="fill: #231f20"/>
    <path d="M95.33,226.94a1.51,1.51,0,0,1-.43,1.12,1.58,1.58,0,0,1-1.17.42H91v-5.41h2.31a3.1,3.1,0,0,1,.78.09,1.65,1.65,0,0,1,.53.27,1.06,1.06,0,0,1,.3.4,1.22,1.22,0,0,1,.1.51,1.37,1.37,0,0,1-.1.54,1.43,1.43,0,0,1-.26.42.92.92,0,0,1-.31.23,1.83,1.83,0,0,1,.75.55A1.38,1.38,0,0,1,95.33,226.94Zm-1.68-2.32a.53.53,0,0,0-.23-.51,1.45,1.45,0,0,0-.71-.13h-.3v1.29h.31a1.42,1.42,0,0,0,.71-.13A.55.55,0,0,0,93.65,224.62Zm.23,2.26c0-.46-.29-.7-.89-.7h-.58v1.39H93C93.59,227.57,93.88,227.34,93.88,226.88Z" transform="translate(0.92 0.57)" style="fill: #231f20"/>
    <path d="M35.8,239.93H34.33l-.39-1.1H31.87l-.39,1.1H30l2.1-5.42H33.7Zm-2.19-2-.69-2-.71,2Z" transform="translate(0.92 0.57)" style="fill: #231f20"/>
    <path d="M221.45,237a2.8,2.8,0,0,1-.27,1.33,2.64,2.64,0,0,1-.62.82,2.08,2.08,0,0,1-1.44.46h-2.57v-5.42h2a4.3,4.3,0,0,1,.77.06,2.38,2.38,0,0,1,.57.15,1.91,1.91,0,0,1,.43.21,1.65,1.65,0,0,1,.32.26,2.49,2.49,0,0,1,.43.53,2.78,2.78,0,0,1,.29.72A3.48,3.48,0,0,1,221.45,237ZM220,237a2,2,0,0,0-.22-1,1.09,1.09,0,0,0-.54-.49,1.51,1.51,0,0,0-.63-.13H218v3.21h.61a1.57,1.57,0,0,0,1-.31A1.5,1.5,0,0,0,220,237Z" transform="translate(0.92 0.57)" style="fill: #231f20"/>
    <path d="M221,298.23a16.09,16.09,0,1,0-16.08-16.08A16.08,16.08,0,0,0,221,298.23Z" transform="translate(0.92 0.57)" style="fill: #231f20"/>
    <path d="M225.06,300.9c0,1.76-1.81,3.19-4.05,3.19s-4-1.43-4-3.19v-4.54h8.1Z" transform="translate(0.92 0.57)" style="fill: #231f20"/>
    <path d="M268.5,300.9c0,1.76-1.81,3.19-4.05,3.19s-4.05-1.43-4.05-3.19v-4.54h8.1Z" transform="translate(0.92 0.57)" style="fill: #231f20"/>
    <path d="M265.19,266.85l-34.6.24v.14c5.67,2.86,8.75,8.54,8.75,15.09s-3.1,12.25-8.8,15.11v.11l34.65-.24a15.23,15.23,0,1,0,0-30.45Z" transform="translate(0.92 0.57)" style="fill: #231f20"/>
    <path d="M208,339.56A16.09,16.09,0,1,0,192,323.48,16.08,16.08,0,0,0,208,339.56Z" transform="translate(0.92 0.57)" style="fill: #231f20"/>
    <path d="M252.22,308.13l-34.6.24v.14c5.67,2.86,8.74,8.54,8.74,15.09s-3.09,12.25-8.79,15.11v.11l34.65-.24a15.23,15.23,0,1,0,0-30.45Z" transform="translate(0.92 0.57)" style="fill: #231f20"/>
    <path d="M307.65,298.23a16.09,16.09,0,1,0-16.08-16.08A16.08,16.08,0,0,0,307.65,298.23Z" transform="translate(0.92 0.57)" style="fill: #231f20"/>
    <path d="M351.83,266.8l-34.6.24v.14c5.67,2.86,8.75,8.54,8.75,15.09s-3.1,12.25-8.8,15.11v.11l34.65-.24a15.23,15.23,0,1,0,0-30.45Z" transform="translate(0.92 0.57)" style="fill: #231f20"/>
    <path d="M294,339.56a16.09,16.09,0,1,0-16.09-16.08A16.08,16.08,0,0,0,294,339.56Z" transform="translate(0.92 0.57)" style="fill: #231f20"/>
    <path d="M338.15,308.13l-34.6.24v.14c5.68,2.86,8.75,8.54,8.75,15.09s-3.1,12.25-8.8,15.11v.11l34.65-.24a15.23,15.23,0,1,0,0-30.45Z" transform="translate(0.92 0.57)" style="fill: #231f20"/>
    <path d="M121.17,339.8a16.09,16.09,0,1,0-16.08-16.08A16.08,16.08,0,0,0,121.17,339.8Z" transform="translate(0.92 0.57)" style="fill: none;stroke: #231f20;stroke-miterlimit: 10"/>
    <path d="M166.36,308.37l-34.6.24v.14c5.67,2.86,8.75,8.54,8.75,15.09s-3.1,12.25-8.8,15.11v.11l34.65-.24a15.23,15.23,0,1,0,0-30.45Z" transform="translate(0.92 0.57)" style="fill: none;stroke: #231f20;stroke-miterlimit: 10"/>
    <path d="M35.55,346.28H34.47v-4.74h1.08Z" transform="translate(0.92 0.57)" style="fill: #231f20"/>
    <path d="M80.19,346.28h-3v-.09l.38-.49.53-.74.28-.41a2.65,2.65,0,0,0,.23-.39,3.36,3.36,0,0,0,.16-.42,1.84,1.84,0,0,0,.06-.47.84.84,0,0,0-.16-.53.48.48,0,0,0-.4-.2,1.3,1.3,0,0,0-1,.6V342l.28-.2a1.2,1.2,0,0,1,.25-.16,1.75,1.75,0,0,1,.33-.13,1.42,1.42,0,0,1,.42,0,1.21,1.21,0,0,1,1.12.68,1.73,1.73,0,0,1,.17.78,2.21,2.21,0,0,1-.08.59,2.18,2.18,0,0,1-.16.44c0,.11-.13.25-.22.41s-.34.57-.52.84h1.27Z" transform="translate(0.92 0.57)" style="fill: #231f20"/>
    <path d="M122.43,345a1.51,1.51,0,0,1-.12.63,1.18,1.18,0,0,1-.32.43,1.42,1.42,0,0,1-.43.24,1.33,1.33,0,0,1-.43.07,2.35,2.35,0,0,1-.66-.1,2.09,2.09,0,0,1-.6-.24V345a2.18,2.18,0,0,0,.42.33,1,1,0,0,0,.48.14.62.62,0,0,0,.31-.08.63.63,0,0,0,.19-.21.6.6,0,0,0,.06-.27.59.59,0,0,0-.08-.32.54.54,0,0,0-.23-.22.65.65,0,0,0-.35-.09h-.12v-.76h.15a.53.53,0,0,0,.32-.09.5.5,0,0,0,.19-.22.6.6,0,0,0,.06-.24.57.57,0,0,0-.14-.38.45.45,0,0,0-.36-.17,1,1,0,0,0-.4.09,1.47,1.47,0,0,0-.4.24v-.91a4.22,4.22,0,0,1,.52-.22,1.94,1.94,0,0,1,.56-.08,1.27,1.27,0,0,1,.74.21,1.23,1.23,0,0,1,.44.5,1.37,1.37,0,0,1,.13.56,1.23,1.23,0,0,1-.07.42,1.52,1.52,0,0,1-.2.38,1,1,0,0,1-.26.25,1.4,1.4,0,0,1,.42.42A1.34,1.34,0,0,1,122.43,345Z" transform="translate(0.92 0.57)" style="fill: #231f20"/>
    <path d="M166.37,345.29h-.46v1h-1v-1h-1.6v-.9l1.8-2.82h.85v2.91h.46Zm-1.51-.81V343l-1,1.52Z" transform="translate(0.92 0.57)" style="fill: #231f20"/>
    <path d="M35,339.56a16.09,16.09,0,1,0-16.08-16.08A16.08,16.08,0,0,0,35,339.56Z" transform="translate(0.92 0.57)" style="fill: none;stroke: #231f20;stroke-miterlimit: 10"/>
    <path d="M80.11,308.13l-34.6.24v.14c5.68,2.86,8.75,8.54,8.75,15.09s-3.09,12.25-8.8,15.11v.11l34.65-.24a15.23,15.23,0,1,0,0-30.45Z" transform="translate(0.92 0.57)" style="fill: none;stroke: #231f20;stroke-miterlimit: 10"/>
    <path d="M28.58,92H27.34v-.56a2,2,0,0,1-.55.48,1.47,1.47,0,0,1-.69.15,1,1,0,0,1-1-.52,2.84,2.84,0,0,1-.24-1.19V88h1.24v2.15a1.4,1.4,0,0,0,.1.56.39.39,0,0,0,.41.25.55.55,0,0,0,.43-.18,2.64,2.64,0,0,0,.32-.45V88h1.24Z" transform="translate(0.92 0.57)" style="fill: #231f20"/>
    <path d="M347.42,110.14h-1.53l-.67-1.12-.68,1.12h-1.35l1.35-2-1.38-2h1.52l.65,1.08.65-1.08h1.36L346,108.05Z" transform="translate(0.92 0.57)" style="fill: #231f20"/>
    <path d="M29.59,172.56l-1.38,4h-.78l-.78-2.17-.78,2.17h-.78l-1.42-4h1.26l.64,2,.68-2H27l.69,2,.62-2Z" transform="translate(0.92 0.57)" style="fill: #231f20"/>
    <path d="M63.07,130.48l-1.59,4h-.92l-1.55-4h1.33l.72,2.09.81-2.09Z" transform="translate(0.92 0.57)" style="fill: #231f20"/>
    <path d="M304.14,138l-2.38,5.78h-1.25l1-2.32L300.09,138h1.33l.71,2,.81-2Z" transform="translate(0.92 0.57)" style="fill: #231f20"/>
    <path d="M347.13,171.9l-1.67,2.81h1.64v1h-3.59v-.13l1.68-2.81h-1.54v-1h3.48Z" transform="translate(0.92 0.57)" style="fill: #231f20"/>
    <path d="M222.3,300.82a1.44,1.44,0,0,1-.15.65,1.19,1.19,0,0,1-.43.49,1.28,1.28,0,0,1-.7.18,1.89,1.89,0,0,1-.63-.1,1.71,1.71,0,0,1-.55-.29v-.88a2,2,0,0,0,.46.29,1.35,1.35,0,0,0,.52.14.42.42,0,0,0,.37-.15.62.62,0,0,0,.11-.33.58.58,0,0,0-.06-.26.44.44,0,0,0-.22-.2.77.77,0,0,0-.4-.08,1.41,1.41,0,0,0-.54.11V298h2.07v.85h-1.28v.7h.23a1.19,1.19,0,0,1,.63.17,1.24,1.24,0,0,1,.42.46A1.33,1.33,0,0,1,222.3,300.82Z" transform="translate(0.92 0.57)" style="fill: #fff"/>
    <path d="M265.94,300.68a1.49,1.49,0,0,1-.1.55,1.5,1.5,0,0,1-.28.47,1.35,1.35,0,0,1-1,.44,1.32,1.32,0,0,1-.77-.22,1.35,1.35,0,0,1-.48-.6,1.86,1.86,0,0,1-.16-.79,2.33,2.33,0,0,1,.1-.68,2.6,2.6,0,0,1,.29-.69,3.59,3.59,0,0,1,.45-.63,3.86,3.86,0,0,1,.58-.56l.88.33c-.14.13-.26.26-.36.37s-.2.23-.3.35-.17.25-.25.37a.88.88,0,0,1,.24,0,1.09,1.09,0,0,1,.58.17,1.1,1.1,0,0,1,.42.46A1.41,1.41,0,0,1,265.94,300.68Zm-.93,0a.57.57,0,0,0-.14-.42.44.44,0,0,0-.32-.13.4.4,0,0,0-.36.18.64.64,0,0,0,0,.77.42.42,0,0,0,.32.16.4.4,0,0,0,.27-.09.57.57,0,0,0,.16-.22A.79.79,0,0,0,265,300.67Z" transform="translate(0.92 0.57)" style="fill: #fff"/>
    <path d="M311.7,300.9c0,1.76-1.81,3.19-4.05,3.19s-4-1.43-4-3.19v-4.54h8.1Z" transform="translate(0.92 0.57)" style="fill: #231f20"/>
    <path d="M355.14,300.9c0,1.76-1.81,3.19-4.05,3.19s-4-1.43-4-3.19v-4.54h8.1Z" transform="translate(0.92 0.57)" style="fill: #231f20"/>
    <path d="M309.13,298.14l-1.53,4-.83-.3,1.09-2.91h-1.44V298h2.71Z" transform="translate(0.92 0.57)" style="fill: #fff"/>
    <path d="M352.58,301a1.05,1.05,0,0,1-.06.33,1.08,1.08,0,0,1-.2.38,1.11,1.11,0,0,1-.43.31,1.61,1.61,0,0,1-.71.13,1.69,1.69,0,0,1-.72-.13,1.19,1.19,0,0,1-.43-.31,1.09,1.09,0,0,1-.19-.37,1,1,0,0,1,0-.34,1.22,1.22,0,0,1,.15-.58.39.39,0,0,0,.09-.77,1,1,0,0,1-.12-.52,1,1,0,0,1,.07-.37,1.11,1.11,0,0,1,.21-.38,1.05,1.05,0,0,1,.39-.29,1.57,1.57,0,0,1,.6-.11,1.51,1.51,0,0,1,.61.11,1,1,0,0,1,.4.29,1.07,1.07,0,0,1,.21.37,1.73,1.73,0,0,1,.05.38,1,1,0,0,1-.11.52,1.39,1.39,0,0,1-.34.35,1.08,1.08,0,0,1,.3.26,1,1,0,0,1,.2.35A1.09,1.09,0,0,1,352.58,301Zm-.92-.1a.81.81,0,0,0-.07-.33.46.46,0,0,0-.19-.2.36.36,0,0,0-.22-.07.44.44,0,0,0-.33.16.66.66,0,0,0-.14.44.69.69,0,0,0,.14.45.46.46,0,0,0,.34.15.42.42,0,0,0,.33-.17A.65.65,0,0,0,351.66,300.89Zm-.11-1.69a1,1,0,0,0-.08-.37.28.28,0,0,0-.28-.17.31.31,0,0,0-.29.16.82.82,0,0,0-.09.38.67.67,0,0,0,.11.39.34.34,0,0,0,.26.15.31.31,0,0,0,.26-.15A.6.6,0,0,0,351.55,299.2Z" transform="translate(0.92 0.57)" style="fill: #fff"/>
    <path d="M212.1,342.39c0,1.76-1.81,3.18-4,3.18s-4.05-1.42-4.05-3.18v-4.54h8.1Z" transform="translate(0.92 0.57)" style="fill: #231f20"/>
    <path d="M255.78,342.39c0,1.76-1.81,3.18-4.05,3.18s-4-1.42-4-3.18v-4.54h8.1Z" transform="translate(0.92 0.57)" style="fill: #231f20"/>
    <path d="M208.65,343.58h-1v-4.06h1Z" transform="translate(0.92 0.57)" style="fill: #fff"/>
    <path d="M253.2,343.58h-2.71v-.08c.1-.12.22-.26.34-.42l.49-.63.25-.35c.08-.12.15-.23.21-.34a3,3,0,0,0,.14-.36,1.34,1.34,0,0,0,.06-.4.74.74,0,0,0-.14-.46.48.48,0,0,0-.37-.17,1.18,1.18,0,0,0-.87.52v-1l.25-.18a1.26,1.26,0,0,1,.23-.13,1,1,0,0,1,.3-.11,1.52,1.52,0,0,1,.38-.05,1.15,1.15,0,0,1,.59.15,1.14,1.14,0,0,1,.43.44,1.4,1.4,0,0,1,.15.66,1.7,1.7,0,0,1-.07.51,3.14,3.14,0,0,1-.14.38l-.2.35a7.34,7.34,0,0,1-.48.71h1.16Z" transform="translate(0.92 0.57)" style="fill: #fff"/>
    <path d="M298,342.39c0,1.76-1.81,3.18-4,3.18s-4.05-1.42-4.05-3.18v-4.54H298Z" transform="translate(0.92 0.57)" style="fill: #231f20"/>
    <path d="M341.7,342.39c0,1.76-1.81,3.18-4.05,3.18s-4-1.42-4-3.18v-4.54h8.1Z" transform="translate(0.92 0.57)" style="fill: #231f20"/>
    <path d="M295.22,342.45a1.27,1.27,0,0,1-.11.54,1,1,0,0,1-.29.37,1.23,1.23,0,0,1-.39.21,1.37,1.37,0,0,1-.39.06,2.3,2.3,0,0,1-.6-.09,2.67,2.67,0,0,1-.55-.2v-.92a1.8,1.8,0,0,0,.39.29.85.85,0,0,0,.43.12.58.58,0,0,0,.28-.07.52.52,0,0,0,.18-.18.59.59,0,0,0,.05-.23.5.5,0,0,0-.07-.27.58.58,0,0,0-.21-.2.76.76,0,0,0-.32-.07h-.11v-.65h.14a.52.52,0,0,0,.29-.08.44.44,0,0,0,.17-.19.41.41,0,0,0,.05-.21.47.47,0,0,0-.12-.32.39.39,0,0,0-.32-.14,1,1,0,0,0-.37.07,1.31,1.31,0,0,0-.36.21v-.78a2.57,2.57,0,0,1,.47-.19,1.59,1.59,0,0,1,.5-.07,1.21,1.21,0,0,1,.68.18,1.17,1.17,0,0,1,.4.43,1.13,1.13,0,0,1,.12.48.92.92,0,0,1-.07.36,1.11,1.11,0,0,1-.18.32.79.79,0,0,1-.23.22,1.43,1.43,0,0,1,.38.36A1.06,1.06,0,0,1,295.22,342.45Z" transform="translate(0.92 0.57)" style="fill: #fff"/>
    <path d="M339.13,342.7h-.42v.88h-1v-.88H336.3v-.77l1.64-2.41h.77V342h.42Zm-1.38-.7v-1.3l-.88,1.3Z" transform="translate(0.92 0.57)" style="fill: #fff"/>
    <path d="M109.75,302.72a1.79,1.79,0,0,1-.16.76,1.31,1.31,0,0,1-.47.57,1.36,1.36,0,0,1-.77.21,2.33,2.33,0,0,1-.7-.11,2.16,2.16,0,0,1-.61-.34v-1a2.46,2.46,0,0,0,.52.34,1.27,1.27,0,0,0,.57.16.43.43,0,0,0,.4-.18.68.68,0,0,0,.12-.38.63.63,0,0,0-.07-.3.48.48,0,0,0-.23-.24,1,1,0,0,0-.45-.09,1.37,1.37,0,0,0-.59.13v-2.76h2.28v1h-1.41v.81h.25a1.2,1.2,0,0,1,.7.21,1.32,1.32,0,0,1,.46.53A1.6,1.6,0,0,1,109.75,302.72Z" transform="translate(0.92 0.57)" style="fill: #231f20"/>
    <path d="M153.43,302.56a2,2,0,0,1-.1.64,1.81,1.81,0,0,1-.31.54,1.35,1.35,0,0,1-.48.38,1.31,1.31,0,0,1-.62.14,1.43,1.43,0,0,1-.85-.26,1.53,1.53,0,0,1-.53-.69,2.36,2.36,0,0,1-.18-.92,3.22,3.22,0,0,1,.11-.81,4.45,4.45,0,0,1,.32-.8,4.1,4.1,0,0,1,.5-.73,5,5,0,0,1,.64-.66l1,.39c-.15.16-.29.3-.4.43s-.22.27-.33.41a4,4,0,0,0-.27.44.68.68,0,0,1,.26,0,1.14,1.14,0,0,1,.64.19,1.4,1.4,0,0,1,.46.55A1.71,1.71,0,0,1,153.43,302.56Zm-1,0a.66.66,0,0,0-.15-.48.46.46,0,0,0-.36-.16.41.41,0,0,0-.39.21.77.77,0,0,0-.13.43.75.75,0,0,0,.15.47.47.47,0,0,0,.36.19.4.4,0,0,0,.29-.11.61.61,0,0,0,.18-.26A1,1,0,0,0,152.41,302.54Z" transform="translate(0.92 0.57)" style="fill: #231f20"/>
    <path d="M21.74,290.13A16.09,16.09,0,1,0,5.65,274,16.09,16.09,0,0,0,21.74,290.13Z" transform="translate(0.92 0.57)" style="fill: none;stroke: #231f20;stroke-miterlimit: 10"/>
    <path d="M153.83,266.85l-34.6.24v.14c5.68,2.86,8.75,8.54,8.75,15.09s-3.09,12.25-8.79,15.11v.11l34.64-.24a15.23,15.23,0,1,0,0-30.45Z" transform="translate(0.92 0.57)" style="fill: none;stroke: #231f20;stroke-miterlimit: 10"/>
    <path d="M281.43,228.58h-3.59v-5.41h3.54v1.08h-2.1v1h2v1.09h-2v1.16h2.15Z" transform="translate(0.92 0.57)" style="fill: #231f20"/>
    <g>
      <path d="M312.6,35.63l1.73-1.44a22.15,22.15,0,0,0-4.24-3.48L309,32.66A20,20,0,0,1,312.6,35.63Z" transform="translate(0.92 0.57)" style="fill: #020202"/>
      <path d="M314.06,61.24l1.73,1.46a22,22,0,0,0,2.8-4.75l-2.12-.77A19.25,19.25,0,0,1,314.06,61.24Z" transform="translate(0.92 0.57)" style="fill: #020202"/>
      <path d="M318.08,50.41a19.35,19.35,0,0,1-.82,4.67l2.11.77a21.7,21.7,0,0,0,1-5.44Z" transform="translate(0.92 0.57)" style="fill: #020202"/>
      <path d="M316.47,41.4l2.12-.77a21.74,21.74,0,0,0-2.8-4.75l-1.73,1.45A19.58,19.58,0,0,1,316.47,41.4Z" transform="translate(0.92 0.57)" style="fill: #020202"/>
      <path d="M302.6,68.54l.39,2.21A21.44,21.44,0,0,0,308.13,69L307,67A19.62,19.62,0,0,1,302.6,68.54Z" transform="translate(0.92 0.57)" style="fill: #020202"/>
      <path d="M280.29,57l-2.11.77a22,22,0,0,0,2.62,4.6l1.73-1.45A20,20,0,0,1,280.29,57Z" transform="translate(0.92 0.57)" style="fill: #020202"/>
      <path d="M309,65.91l1.13,2a22.15,22.15,0,0,0,4.24-3.48L312.6,63A19.56,19.56,0,0,1,309,65.91Z" transform="translate(0.92 0.57)" style="fill: #020202"/>
      <path d="M307,31.58l1.13-2A21.44,21.44,0,0,0,303,27.83L302.6,30A19.62,19.62,0,0,1,307,31.58Z" transform="translate(0.92 0.57)" style="fill: #020202"/>
      <path d="M318.08,48.17h2.27a21.7,21.7,0,0,0-1-5.44l-2.11.76A19.52,19.52,0,0,1,318.08,48.17Z" transform="translate(0.92 0.57)" style="fill: #020202"/>
      <path d="M279.54,43.74,277.43,43a21.78,21.78,0,0,0-.91,5.2h2.27A20.22,20.22,0,0,1,279.54,43.74Z" transform="translate(0.92 0.57)" style="fill: #020202"/>
      <path d="M284,62.6l-1.73,1.45a21.92,21.92,0,0,0,4,3.47l1.12-1.94A20.26,20.26,0,0,1,284,62.6Z" transform="translate(0.92 0.57)" style="fill: #020202"/>
      <path d="M289.29,66.72l-1.12,2a22.1,22.1,0,0,0,5,1.92l.39-2.23A19.73,19.73,0,0,1,289.29,66.72Z" transform="translate(0.92 0.57)" style="fill: #020202"/>
      <path d="M282.53,37.71l-1.73-1.45a22,22,0,0,0-2.62,4.6l2.11.77A19.7,19.7,0,0,1,282.53,37.71Z" transform="translate(0.92 0.57)" style="fill: #020202"/>
      <path d="M278.79,50.41h-2.27a21.78,21.78,0,0,0,.91,5.2l2.11-.77A20.22,20.22,0,0,1,278.79,50.41Z" transform="translate(0.92 0.57)" style="fill: #020202"/>
      <path d="M287.37,33l-1.12-1.94a21.54,21.54,0,0,0-4,3.47L284,36A20.26,20.26,0,0,1,287.37,33Z" transform="translate(0.92 0.57)" style="fill: #020202"/>
      <path d="M298.44,69a19.5,19.5,0,0,1-2.67-.2l-.4,2.22a22.3,22.3,0,0,0,3.07.22,20.14,20.14,0,0,0,2.34-.13l-.39-2.21C299.74,69,299.09,69,298.44,69Z" transform="translate(0.92 0.57)" style="fill: #020202"/>
      <path d="M298.44,29.59a18.19,18.19,0,0,1,1.95.1l.39-2.21a20.14,20.14,0,0,0-2.34-.13,22.3,22.3,0,0,0-3.07.22l.4,2.22A19.5,19.5,0,0,1,298.44,29.59Z" transform="translate(0.92 0.57)" style="fill: #020202"/>
      <path d="M293.57,30.22,293.18,28a21.64,21.64,0,0,0-5,1.92l1.12,1.94A20.23,20.23,0,0,1,293.57,30.22Z" transform="translate(0.92 0.57)" style="fill: #020202"/>
    </g>
    <g>
      <path d="M293.55,188l1.72-1.44a21.85,21.85,0,0,0-4.24-3.48l-1.13,1.95A20.09,20.09,0,0,1,293.55,188Z" transform="translate(0.92 0.57)" style="fill: #020202"/>
      <path d="M295,213.65l1.73,1.45a21.74,21.74,0,0,0,2.8-4.75l-2.11-.77A19.62,19.62,0,0,1,295,213.65Z" transform="translate(0.92 0.57)" style="fill: #020202"/>
      <path d="M299,202.81a19.51,19.51,0,0,1-.81,4.68l2.11.76a21.69,21.69,0,0,0,1-5.44Z" transform="translate(0.92 0.57)" style="fill: #020202"/>
      <path d="M297.42,193.8l2.11-.77a22,22,0,0,0-2.8-4.75L295,189.73A19.62,19.62,0,0,1,297.42,193.8Z" transform="translate(0.92 0.57)" style="fill: #020202"/>
      <path d="M261.23,209.35l-2.1.77a21.5,21.5,0,0,0,2.61,4.6l1.73-1.45A20,20,0,0,1,261.23,209.35Z" transform="translate(0.92 0.57)" style="fill: #020202"/>
      <path d="M289.9,218.32l1.13,2a21.85,21.85,0,0,0,4.24-3.48l-1.72-1.44A20.09,20.09,0,0,1,289.9,218.32Z" transform="translate(0.92 0.57)" style="fill: #020202"/>
      <path d="M288,184l1.13-2a21.67,21.67,0,0,0-5.15-1.79l-.39,2.21A19.53,19.53,0,0,1,288,184Z" transform="translate(0.92 0.57)" style="fill: #020202"/>
      <path d="M299,200.57h2.27a21.69,21.69,0,0,0-1-5.44l-2.11.77A19.35,19.35,0,0,1,299,200.57Z" transform="translate(0.92 0.57)" style="fill: #020202"/>
      <path d="M260.49,196.14l-2.12-.77a21.77,21.77,0,0,0-.9,5.2h2.27A19.1,19.1,0,0,1,260.49,196.14Z" transform="translate(0.92 0.57)" style="fill: #020202"/>
      <path d="M264.89,215l-1.73,1.45a22.25,22.25,0,0,0,4,3.47l1.12-1.94A20.66,20.66,0,0,1,264.89,215Z" transform="translate(0.92 0.57)" style="fill: #020202"/>
      <path d="M263.47,190.11l-1.73-1.45a21.5,21.5,0,0,0-2.61,4.6l2.1.77A20,20,0,0,1,263.47,190.11Z" transform="translate(0.92 0.57)" style="fill: #020202"/>
      <path d="M259.74,202.81h-2.27a21.77,21.77,0,0,0,.9,5.2l2.12-.77A19.1,19.1,0,0,1,259.74,202.81Z" transform="translate(0.92 0.57)" style="fill: #020202"/>
      <path d="M268.31,185.4l-1.12-1.94a22.25,22.25,0,0,0-4,3.47l1.73,1.45A20.66,20.66,0,0,1,268.31,185.4Z" transform="translate(0.92 0.57)" style="fill: #020202"/>
      <path d="M279.38,223.63" transform="translate(0.92 0.57)" style="fill: #020202"/>
      <path d="M279.38,182c.66,0,1.31,0,1.95.1l.39-2.21a20.14,20.14,0,0,0-2.34-.13,22,22,0,0,0-3.06.22l.39,2.22A19.62,19.62,0,0,1,279.38,182Z" transform="translate(0.92 0.57)" style="fill: #020202"/>
      <path d="M274.51,182.62l-.39-2.23a21.82,21.82,0,0,0-5,1.92l1.13,1.94A20.15,20.15,0,0,1,274.51,182.62Z" transform="translate(0.92 0.57)" style="fill: #020202"/>
    </g>
    <g>
      <path d="M354.17,199.38l1.73-1.45a22.48,22.48,0,0,0-4.24-3.47l-1.13,1.95A20,20,0,0,1,354.17,199.38Z" transform="translate(0.92 0.57)" style="fill: #020202"/>
      <path d="M355.63,225l1.73,1.45a21.91,21.91,0,0,0,2.8-4.74l-2.11-.77A19.55,19.55,0,0,1,355.63,225Z" transform="translate(0.92 0.57)" style="fill: #020202"/>
      <path d="M359.65,214.16a19.53,19.53,0,0,1-.82,4.67l2.11.77a21.78,21.78,0,0,0,1-5.44Z" transform="translate(0.92 0.57)" style="fill: #020202"/>
      <path d="M358.05,205.15l2.11-.77a21.74,21.74,0,0,0-2.8-4.75l-1.73,1.45A19.62,19.62,0,0,1,358.05,205.15Z" transform="translate(0.92 0.57)" style="fill: #020202"/>
      <path d="M321.86,220.7l-2.11.77a22.23,22.23,0,0,0,2.62,4.6l1.73-1.46A19.62,19.62,0,0,1,321.86,220.7Z" transform="translate(0.92 0.57)" style="fill: #020202"/>
      <path d="M350.53,229.66l1.13,2a21.73,21.73,0,0,0,4.24-3.47l-1.73-1.45A19.61,19.61,0,0,1,350.53,229.66Z" transform="translate(0.92 0.57)" style="fill: #020202"/>
      <path d="M348.57,195.32l1.13-2a21.88,21.88,0,0,0-5.14-1.79l-.39,2.22A19.26,19.26,0,0,1,348.57,195.32Z" transform="translate(0.92 0.57)" style="fill: #020202"/>
      <path d="M359.65,211.92h2.27a21.86,21.86,0,0,0-1-5.45l-2.11.77A19.52,19.52,0,0,1,359.65,211.92Z" transform="translate(0.92 0.57)" style="fill: #020202"/>
      <path d="M321.12,207.49l-2.12-.77a22.29,22.29,0,0,0-.91,5.2h2.27A19.55,19.55,0,0,1,321.12,207.49Z" transform="translate(0.92 0.57)" style="fill: #020202"/>
      <path d="M325.52,226.34l-1.73,1.46a22.25,22.25,0,0,0,4,3.47l1.12-1.94A20.26,20.26,0,0,1,325.52,226.34Z" transform="translate(0.92 0.57)" style="fill: #020202"/>
      <path d="M324.1,201.46,322.37,200a21.72,21.72,0,0,0-2.62,4.6l2.11.76A19.91,19.91,0,0,1,324.1,201.46Z" transform="translate(0.92 0.57)" style="fill: #020202"/>
      <path d="M320.36,214.16h-2.27a22.29,22.29,0,0,0,.91,5.2l2.12-.77A19.65,19.65,0,0,1,320.36,214.16Z" transform="translate(0.92 0.57)" style="fill: #020202"/>
      <path d="M328.94,196.75l-1.12-1.95a22.31,22.31,0,0,0-4,3.48l1.73,1.45A19.77,19.77,0,0,1,328.94,196.75Z" transform="translate(0.92 0.57)" style="fill: #020202"/>
      <path d="M340,235" transform="translate(0.92 0.57)" style="fill: #020202"/>
      <path d="M340,193.34a17.93,17.93,0,0,1,1.95.1l.39-2.22a22.63,22.63,0,0,0-2.34-.12,22,22,0,0,0-3.06.21l.39,2.23A19.5,19.5,0,0,1,340,193.34Z" transform="translate(0.92 0.57)" style="fill: #020202"/>
      <path d="M335.14,194l-.39-2.23a21.62,21.62,0,0,0-5,1.91l1.13,1.95A19.62,19.62,0,0,1,335.14,194Z" transform="translate(0.92 0.57)" style="fill: #020202"/>
    </g>
    <g>
      <path d="M232.87,199.38l1.73-1.45a22.8,22.8,0,0,0-4.24-3.47l-1.13,1.95A20,20,0,0,1,232.87,199.38Z" transform="translate(0.92 0.57)" style="fill: #020202"/>
      <path d="M234.33,225l1.73,1.45a22.32,22.32,0,0,0,2.8-4.74l-2.12-.77A20,20,0,0,1,234.33,225Z" transform="translate(0.92 0.57)" style="fill: #020202"/>
      <path d="M238.35,214.16a19.53,19.53,0,0,1-.82,4.67l2.11.77a21.78,21.78,0,0,0,1-5.44Z" transform="translate(0.92 0.57)" style="fill: #020202"/>
      <path d="M236.74,205.15l2.12-.77a22.15,22.15,0,0,0-2.8-4.75l-1.73,1.45A20,20,0,0,1,236.74,205.15Z" transform="translate(0.92 0.57)" style="fill: #020202"/>
      <path d="M200.56,220.7l-2.11.77a22.23,22.23,0,0,0,2.62,4.6l1.73-1.46A19.15,19.15,0,0,1,200.56,220.7Z" transform="translate(0.92 0.57)" style="fill: #020202"/>
      <path d="M229.23,229.66l1.13,2a22,22,0,0,0,4.24-3.47l-1.73-1.45A19.61,19.61,0,0,1,229.23,229.66Z" transform="translate(0.92 0.57)" style="fill: #020202"/>
      <path d="M227.27,195.32l1.13-2a21.88,21.88,0,0,0-5.14-1.79l-.39,2.22A19.6,19.6,0,0,1,227.27,195.32Z" transform="translate(0.92 0.57)" style="fill: #020202"/>
      <path d="M238.35,211.92h2.27a21.86,21.86,0,0,0-1-5.45l-2.11.77A19.52,19.52,0,0,1,238.35,211.92Z" transform="translate(0.92 0.57)" style="fill: #020202"/>
      <path d="M199.81,207.49l-2.11-.77a21.78,21.78,0,0,0-.91,5.2h2.27A20.12,20.12,0,0,1,199.81,207.49Z" transform="translate(0.92 0.57)" style="fill: #020202"/>
      <path d="M204.22,226.34l-1.73,1.46a21.92,21.92,0,0,0,4,3.47l1.12-1.94A19.88,19.88,0,0,1,204.22,226.34Z" transform="translate(0.92 0.57)" style="fill: #020202"/>
      <path d="M202.8,201.46,201.07,200a21.72,21.72,0,0,0-2.62,4.6l2.11.76A19.42,19.42,0,0,1,202.8,201.46Z" transform="translate(0.92 0.57)" style="fill: #020202"/>
      <path d="M199.06,214.16h-2.27a21.78,21.78,0,0,0,.91,5.2l2.11-.77A20.22,20.22,0,0,1,199.06,214.16Z" transform="translate(0.92 0.57)" style="fill: #020202"/>
      <path d="M207.64,196.75l-1.12-1.95a22,22,0,0,0-4,3.48l1.73,1.45A19.41,19.41,0,0,1,207.64,196.75Z" transform="translate(0.92 0.57)" style="fill: #020202"/>
      <path d="M218.7,235" transform="translate(0.92 0.57)" style="fill: #020202"/>
      <path d="M218.7,193.34a18.25,18.25,0,0,1,2,.1l.39-2.22a22.68,22.68,0,0,0-2.35-.12,22.15,22.15,0,0,0-3.06.21l.4,2.23A19.48,19.48,0,0,1,218.7,193.34Z" transform="translate(0.92 0.57)" style="fill: #020202"/>
      <path d="M213.84,194l-.4-2.23a21.71,21.71,0,0,0-5,1.91l1.12,1.95A19.71,19.71,0,0,1,213.84,194Z" transform="translate(0.92 0.57)" style="fill: #020202"/>
    </g>
    <g>
      <path d="M167.93,199.38l1.73-1.45a22.8,22.8,0,0,0-4.24-3.47l-1.13,1.95A20,20,0,0,1,167.93,199.38Z" transform="translate(0.92 0.57)" style="fill: #020202"/>
      <path d="M169.39,225l1.72,1.45a22,22,0,0,0,2.81-4.74l-2.12-.77A20,20,0,0,1,169.39,225Z" transform="translate(0.92 0.57)" style="fill: #020202"/>
      <path d="M173.41,214.16a19.53,19.53,0,0,1-.82,4.67l2.11.77a21.78,21.78,0,0,0,1-5.44Z" transform="translate(0.92 0.57)" style="fill: #020202"/>
      <path d="M171.8,205.15l2.12-.77a21.78,21.78,0,0,0-2.81-4.75l-1.72,1.45A20,20,0,0,1,171.8,205.15Z" transform="translate(0.92 0.57)" style="fill: #020202"/>
      <path d="M135.62,220.7l-2.11.77a22.23,22.23,0,0,0,2.62,4.6l1.73-1.46A19.15,19.15,0,0,1,135.62,220.7Z" transform="translate(0.92 0.57)" style="fill: #020202"/>
      <path d="M164.29,229.66l1.13,2a22,22,0,0,0,4.24-3.47l-1.73-1.45A19.61,19.61,0,0,1,164.29,229.66Z" transform="translate(0.92 0.57)" style="fill: #020202"/>
      <path d="M162.33,195.32l1.13-2a22,22,0,0,0-5.14-1.79l-.39,2.22A19.6,19.6,0,0,1,162.33,195.32Z" transform="translate(0.92 0.57)" style="fill: #020202"/>
      <path d="M173.41,211.92h2.27a21.86,21.86,0,0,0-1-5.45l-2.11.77A19.52,19.52,0,0,1,173.41,211.92Z" transform="translate(0.92 0.57)" style="fill: #020202"/>
      <path d="M134.87,207.49l-2.11-.77a21.78,21.78,0,0,0-.91,5.2h2.27A20.12,20.12,0,0,1,134.87,207.49Z" transform="translate(0.92 0.57)" style="fill: #020202"/>
      <path d="M139.28,226.34l-1.73,1.46a21.92,21.92,0,0,0,4,3.47l1.12-1.94A19.88,19.88,0,0,1,139.28,226.34Z" transform="translate(0.92 0.57)" style="fill: #020202"/>
      <path d="M137.86,201.46,136.13,200a21.72,21.72,0,0,0-2.62,4.6l2.11.76A19.42,19.42,0,0,1,137.86,201.46Z" transform="translate(0.92 0.57)" style="fill: #020202"/>
      <path d="M134.12,214.16h-2.27a21.78,21.78,0,0,0,.91,5.2l2.11-.77A20.22,20.22,0,0,1,134.12,214.16Z" transform="translate(0.92 0.57)" style="fill: #020202"/>
      <path d="M142.7,196.75l-1.12-1.95a22,22,0,0,0-4,3.48l1.73,1.45A19.41,19.41,0,0,1,142.7,196.75Z" transform="translate(0.92 0.57)" style="fill: #020202"/>
      <path d="M153.76,235" transform="translate(0.92 0.57)" style="fill: #020202"/>
      <path d="M153.76,193.34a18.25,18.25,0,0,1,2,.1l.39-2.22a22.68,22.68,0,0,0-2.35-.12,22.15,22.15,0,0,0-3.06.21l.4,2.23A19.48,19.48,0,0,1,153.76,193.34Z" transform="translate(0.92 0.57)" style="fill: #020202"/>
      <path d="M148.9,194l-.4-2.23a21.54,21.54,0,0,0-5,1.91l1.12,1.95A19.71,19.71,0,0,1,148.9,194Z" transform="translate(0.92 0.57)" style="fill: #020202"/>
    </g>
    <g>
      <path d="M107,187.93l1.72-1.44a21.85,21.85,0,0,0-4.24-3.48l-1.13,2A20,20,0,0,1,107,187.93Z" transform="translate(0.92 0.57)" style="fill: #020202"/>
      <path d="M108.49,213.55l1.73,1.45a22.18,22.18,0,0,0,2.81-4.75l-2.12-.77A19.62,19.62,0,0,1,108.49,213.55Z" transform="translate(0.92 0.57)" style="fill: #020202"/>
      <path d="M112.51,202.71a19.51,19.51,0,0,1-.81,4.68l2.11.76a21.69,21.69,0,0,0,1-5.44Z" transform="translate(0.92 0.57)" style="fill: #020202"/>
      <path d="M110.91,193.7l2.12-.77a22.36,22.36,0,0,0-2.81-4.74l-1.73,1.45A19.29,19.29,0,0,1,110.91,193.7Z" transform="translate(0.92 0.57)" style="fill: #020202"/>
      <path d="M74.72,209.25l-2.1.77a21.5,21.5,0,0,0,2.61,4.6L77,213.17A19.7,19.7,0,0,1,74.72,209.25Z" transform="translate(0.92 0.57)" style="fill: #020202"/>
      <path d="M103.39,218.22l1.13,1.95a22.17,22.17,0,0,0,4.24-3.47L107,215.25A20.09,20.09,0,0,1,103.39,218.22Z" transform="translate(0.92 0.57)" style="fill: #020202"/>
      <path d="M101.44,183.88l1.13-2a21.67,21.67,0,0,0-5.15-1.79L97,182.34A19.53,19.53,0,0,1,101.44,183.88Z" transform="translate(0.92 0.57)" style="fill: #020202"/>
      <path d="M112.51,200.47h2.27a21.77,21.77,0,0,0-1-5.44l-2.11.77A19.52,19.52,0,0,1,112.51,200.47Z" transform="translate(0.92 0.57)" style="fill: #020202"/>
      <path d="M74,196l-2.12-.77a21.77,21.77,0,0,0-.9,5.2h2.27A19.1,19.1,0,0,1,74,196Z" transform="translate(0.92 0.57)" style="fill: #020202"/>
      <path d="M78.39,214.9l-1.74,1.45a22.31,22.31,0,0,0,4,3.48l1.13-2A19.88,19.88,0,0,1,78.39,214.9Z" transform="translate(0.92 0.57)" style="fill: #020202"/>
      <path d="M77,190l-1.73-1.46a21.5,21.5,0,0,0-2.61,4.6l2.1.77A19.62,19.62,0,0,1,77,190Z" transform="translate(0.92 0.57)" style="fill: #020202"/>
      <path d="M73.23,202.71H71a21.77,21.77,0,0,0,.9,5.2l2.12-.77A19,19,0,0,1,73.23,202.71Z" transform="translate(0.92 0.57)" style="fill: #020202"/>
      <path d="M81.81,185.3l-1.13-1.94a22.25,22.25,0,0,0-4,3.47l1.74,1.45A19.88,19.88,0,0,1,81.81,185.3Z" transform="translate(0.92 0.57)" style="fill: #020202"/>
      <path d="M92.87,223.53" transform="translate(0.92 0.57)" style="fill: #020202"/>
      <path d="M92.87,181.89c.66,0,1.31,0,1.95.1l.39-2.21a22.62,22.62,0,0,0-2.34-.13,22,22,0,0,0-3.06.22l.39,2.22A19.62,19.62,0,0,1,92.87,181.89Z" transform="translate(0.92 0.57)" style="fill: #020202"/>
      <path d="M88,182.52l-.39-2.23a22.28,22.28,0,0,0-5,1.92l1.13,1.95A19.65,19.65,0,0,1,88,182.52Z" transform="translate(0.92 0.57)" style="fill: #020202"/>
    </g>
    <g>
      <path d="M47.05,199.38l1.73-1.45a22.48,22.48,0,0,0-4.24-3.47l-1.13,1.95A19.69,19.69,0,0,1,47.05,199.38Z" transform="translate(0.92 0.57)" style="fill: #020202"/>
      <path d="M48.51,225l1.73,1.45A21.91,21.91,0,0,0,53,221.7l-2.11-.77A19.55,19.55,0,0,1,48.51,225Z" transform="translate(0.92 0.57)" style="fill: #020202"/>
      <path d="M52.53,214.16a19.52,19.52,0,0,1-.81,4.67l2.1.77a21.78,21.78,0,0,0,1-5.44Z" transform="translate(0.92 0.57)" style="fill: #020202"/>
      <path d="M50.93,205.15l2.11-.77a21.74,21.74,0,0,0-2.8-4.75l-1.73,1.45A19.62,19.62,0,0,1,50.93,205.15Z" transform="translate(0.92 0.57)" style="fill: #020202"/>
      <path d="M14.74,220.7l-2.11.77a22.23,22.23,0,0,0,2.62,4.6L17,224.61A19.62,19.62,0,0,1,14.74,220.7Z" transform="translate(0.92 0.57)" style="fill: #020202"/>
      <path d="M43.41,229.66l1.13,2a21.73,21.73,0,0,0,4.24-3.47l-1.73-1.45A19.29,19.29,0,0,1,43.41,229.66Z" transform="translate(0.92 0.57)" style="fill: #020202"/>
      <path d="M41.45,195.32l1.14-2a22.12,22.12,0,0,0-5.15-1.79l-.39,2.22A19.26,19.26,0,0,1,41.45,195.32Z" transform="translate(0.92 0.57)" style="fill: #020202"/>
      <path d="M52.53,211.92H54.8a21.86,21.86,0,0,0-1-5.45l-2.1.77A19.51,19.51,0,0,1,52.53,211.92Z" transform="translate(0.92 0.57)" style="fill: #020202"/>
      <path d="M14,207.49l-2.12-.77a21.77,21.77,0,0,0-.9,5.2h2.26A19.55,19.55,0,0,1,14,207.49Z" transform="translate(0.92 0.57)" style="fill: #020202"/>
      <path d="M18.4,226.34l-1.73,1.46a22.25,22.25,0,0,0,4,3.47l1.12-1.94A20.26,20.26,0,0,1,18.4,226.34Z" transform="translate(0.92 0.57)" style="fill: #020202"/>
      <path d="M17,201.46,15.25,200a21.72,21.72,0,0,0-2.62,4.6l2.11.76A19.91,19.91,0,0,1,17,201.46Z" transform="translate(0.92 0.57)" style="fill: #020202"/>
      <path d="M13.24,214.16H11a21.77,21.77,0,0,0,.9,5.2l2.12-.77A19.65,19.65,0,0,1,13.24,214.16Z" transform="translate(0.92 0.57)" style="fill: #020202"/>
      <path d="M21.82,196.75,20.7,194.8a22.31,22.31,0,0,0-4,3.48l1.73,1.45A19.77,19.77,0,0,1,21.82,196.75Z" transform="translate(0.92 0.57)" style="fill: #020202"/>
      <path d="M32.89,235" transform="translate(0.92 0.57)" style="fill: #020202"/>
      <path d="M32.89,193.34a17.93,17.93,0,0,1,2,.1l.39-2.22a22.63,22.63,0,0,0-2.34-.12,22,22,0,0,0-3.06.21l.39,2.23A19.5,19.5,0,0,1,32.89,193.34Z" transform="translate(0.92 0.57)" style="fill: #020202"/>
      <path d="M28,194l-.39-2.23a21.79,21.79,0,0,0-5,1.91l1.13,1.95A19.62,19.62,0,0,1,28,194Z" transform="translate(0.92 0.57)" style="fill: #020202"/>
    </g>
    <g>
      <path d="M356.81,86.45l1.38-.51a13.75,13.75,0,0,0-1.81-3.1l-1.13,1A12.38,12.38,0,0,1,356.81,86.45Z" transform="translate(0.92 0.57)" style="fill: #020202"/>
      <path d="M354.43,82.81l1.13-1a13.88,13.88,0,0,0-2.75-2.31l-.74,1.27A12.9,12.9,0,0,1,354.43,82.81Z" transform="translate(0.92 0.57)" style="fill: #020202"/>
      <path d="M345.27,105.32" transform="translate(0.92 0.57)" style="fill: #020202"/>
      <path d="M336.12,99.84l-1.13,1a13.88,13.88,0,0,0,2.75,2.31l.73-1.27A12.77,12.77,0,0,1,336.12,99.84Z" transform="translate(0.92 0.57)" style="fill: #020202"/>
      <path d="M332.78,92h-1.47a13.47,13.47,0,0,0,.61,3.55L333.3,95A12.17,12.17,0,0,1,332.78,92Z" transform="translate(0.92 0.57)" style="fill: #020202"/>
      <path d="M357.77,90.69h1.47a13.89,13.89,0,0,0-.61-3.55l-1.39.51A12.65,12.65,0,0,1,357.77,90.69Z" transform="translate(0.92 0.57)" style="fill: #020202"/>
      <path d="M351,80.18l.74-1.27a14.1,14.1,0,0,0-3.38-1.24l-.26,1.46A12.54,12.54,0,0,1,351,80.18Z" transform="translate(0.92 0.57)" style="fill: #020202"/>
      <path d="M338.47,80.82l-.73-1.27A13.88,13.88,0,0,0,335,81.86l1.13,1A12.77,12.77,0,0,1,338.47,80.82Z" transform="translate(0.92 0.57)" style="fill: #020202"/>
      <path d="M357.77,92a12.65,12.65,0,0,1-.53,3l1.39.51a13.89,13.89,0,0,0,.61-3.55Z" transform="translate(0.92 0.57)" style="fill: #020202"/>
      <path d="M333.74,96.2l-1.39.51a14.17,14.17,0,0,0,1.82,3.1l1.13-1A12,12,0,0,1,333.74,96.2Z" transform="translate(0.92 0.57)" style="fill: #020202"/>
      <path d="M335.3,83.79l-1.13-1a14.17,14.17,0,0,0-1.82,3.1l1.39.51A12,12,0,0,1,335.3,83.79Z" transform="translate(0.92 0.57)" style="fill: #020202"/>
      <path d="M355.25,98.86l1.13,1a13.75,13.75,0,0,0,1.81-3.1l-1.38-.51A12.38,12.38,0,0,1,355.25,98.86Z" transform="translate(0.92 0.57)" style="fill: #020202"/>
      <path d="M342.48,79.13l-.26-1.46a14.1,14.1,0,0,0-3.38,1.24l.74,1.27A12.54,12.54,0,0,1,342.48,79.13Z" transform="translate(0.92 0.57)" style="fill: #020202"/>
      <path d="M352.07,101.83l.74,1.27a14.17,14.17,0,0,0,2.75-2.31l-1.13-1A12.51,12.51,0,0,1,352.07,101.83Z" transform="translate(0.92 0.57)" style="fill: #020202"/>
      <path d="M333.3,87.65l-1.38-.51a13.47,13.47,0,0,0-.61,3.55h1.47A12.17,12.17,0,0,1,333.3,87.65Z" transform="translate(0.92 0.57)" style="fill: #020202"/>
      <path d="M345.27,78.8a11.31,11.31,0,0,1,1.55.11l.25-1.45a13.38,13.38,0,0,0-1.8-.13,13.23,13.23,0,0,0-1.79.13l.25,1.45A11.28,11.28,0,0,1,345.27,78.8Z" transform="translate(0.92 0.57)" style="fill: #020202"/>
    </g>
    <g>
      <path d="M313.56,118.3l1.39-.5a14,14,0,0,0-1.82-3.11l-1.13,1A12.21,12.21,0,0,1,313.56,118.3Z" transform="translate(0.92 0.57)" style="fill: #020202"/>
      <path d="M311.18,114.66l1.13-1a13.88,13.88,0,0,0-2.75-2.31l-.73,1.27A13.17,13.17,0,0,1,311.18,114.66Z" transform="translate(0.92 0.57)" style="fill: #020202"/>
      <path d="M302,137.18" transform="translate(0.92 0.57)" style="fill: #020202"/>
      <path d="M292.87,131.69l-1.13.95a14.47,14.47,0,0,0,2.75,2.31l.74-1.27A12.15,12.15,0,0,1,292.87,131.69Z" transform="translate(0.92 0.57)" style="fill: #020202"/>
      <path d="M289.53,123.81h-1.47a13.89,13.89,0,0,0,.61,3.55l1.39-.5A12.73,12.73,0,0,1,289.53,123.81Z" transform="translate(0.92 0.57)" style="fill: #020202"/>
      <path d="M314.52,122.54H316a13.89,13.89,0,0,0-.6-3.55l-1.39.51A12.25,12.25,0,0,1,314.52,122.54Z" transform="translate(0.92 0.57)" style="fill: #020202"/>
      <path d="M307.72,112l.74-1.28a14,14,0,0,0-3.38-1.24l-.25,1.46A12.21,12.21,0,0,1,307.72,112Z" transform="translate(0.92 0.57)" style="fill: #020202"/>
      <path d="M295.23,112.67l-.74-1.27a14.47,14.47,0,0,0-2.75,2.31l1.13,1A12.9,12.9,0,0,1,295.23,112.67Z" transform="translate(0.92 0.57)" style="fill: #020202"/>
      <path d="M314.52,123.81a12.25,12.25,0,0,1-.52,3l1.39.5a13.89,13.89,0,0,0,.6-3.55Z" transform="translate(0.92 0.57)" style="fill: #020202"/>
      <path d="M290.49,128.05l-1.38.51a13.9,13.9,0,0,0,1.81,3.1l1.13-.94A12.7,12.7,0,0,1,290.49,128.05Z" transform="translate(0.92 0.57)" style="fill: #020202"/>
      <path d="M292.05,115.64l-1.13-1a14,14,0,0,0-1.81,3.11l1.38.5A12.63,12.63,0,0,1,292.05,115.64Z" transform="translate(0.92 0.57)" style="fill: #020202"/>
      <path d="M312,130.72l1.13.94a13.94,13.94,0,0,0,1.82-3.1l-1.39-.51A12.28,12.28,0,0,1,312,130.72Z" transform="translate(0.92 0.57)" style="fill: #020202"/>
      <path d="M299.23,111l-.26-1.46a14.1,14.1,0,0,0-3.38,1.24l.74,1.28A12.12,12.12,0,0,1,299.23,111Z" transform="translate(0.92 0.57)" style="fill: #020202"/>
      <path d="M308.83,133.68l.73,1.27a13.88,13.88,0,0,0,2.75-2.31l-1.13-.95A12.39,12.39,0,0,1,308.83,133.68Z" transform="translate(0.92 0.57)" style="fill: #020202"/>
      <path d="M290.06,119.5l-1.39-.51a13.89,13.89,0,0,0-.61,3.55h1.47A12.73,12.73,0,0,1,290.06,119.5Z" transform="translate(0.92 0.57)" style="fill: #020202"/>
      <path d="M302,110.65a11.28,11.28,0,0,1,1.54.11l.26-1.45a12.53,12.53,0,0,0-3.6,0l.26,1.45A11.05,11.05,0,0,1,302,110.65Z" transform="translate(0.92 0.57)" style="fill: #020202"/>
    </g>
    <g>
      <path d="M356.81,152.05l1.38-.5a13.6,13.6,0,0,0-1.81-3.11l-1.13.95A12.88,12.88,0,0,1,356.81,152.05Z" transform="translate(0.92 0.57)" style="fill: #020202"/>
      <path d="M354.43,148.41l1.13-.94a13.59,13.59,0,0,0-2.75-2.32l-.74,1.28A12.46,12.46,0,0,1,354.43,148.41Z" transform="translate(0.92 0.57)" style="fill: #020202"/>
      <path d="M345.27,170.93" transform="translate(0.92 0.57)" style="fill: #020202"/>
      <path d="M336.12,165.45l-1.13.94a13.92,13.92,0,0,0,2.75,2.32l.73-1.28A12.72,12.72,0,0,1,336.12,165.45Z" transform="translate(0.92 0.57)" style="fill: #020202"/>
      <path d="M332.78,157.57h-1.47a13.4,13.4,0,0,0,.61,3.54l1.38-.5A12.25,12.25,0,0,1,332.78,157.57Z" transform="translate(0.92 0.57)" style="fill: #020202"/>
      <path d="M357.77,156.29h1.47a13.89,13.89,0,0,0-.61-3.55l-1.39.51A12.73,12.73,0,0,1,357.77,156.29Z" transform="translate(0.92 0.57)" style="fill: #020202"/>
      <path d="M351,145.79l.74-1.28a13.66,13.66,0,0,0-3.38-1.23l-.26,1.45A12.12,12.12,0,0,1,351,145.79Z" transform="translate(0.92 0.57)" style="fill: #020202"/>
      <path d="M338.47,146.43l-.73-1.28a13.59,13.59,0,0,0-2.75,2.32l1.13.94A12.72,12.72,0,0,1,338.47,146.43Z" transform="translate(0.92 0.57)" style="fill: #020202"/>
      <path d="M357.77,157.57a12.73,12.73,0,0,1-.53,3l1.39.5a13.82,13.82,0,0,0,.61-3.54Z" transform="translate(0.92 0.57)" style="fill: #020202"/>
      <path d="M333.74,161.81l-1.39.5a14,14,0,0,0,1.82,3.11l1.13-.95A12.45,12.45,0,0,1,333.74,161.81Z" transform="translate(0.92 0.57)" style="fill: #020202"/>
      <path d="M335.3,149.39l-1.13-.95a14,14,0,0,0-1.82,3.11l1.39.5A12.21,12.21,0,0,1,335.3,149.39Z" transform="translate(0.92 0.57)" style="fill: #020202"/>
      <path d="M355.25,164.47l1.13.95a13.6,13.6,0,0,0,1.81-3.11l-1.38-.5A12.88,12.88,0,0,1,355.25,164.47Z" transform="translate(0.92 0.57)" style="fill: #020202"/>
      <path d="M342.48,144.73l-.26-1.45a13.66,13.66,0,0,0-3.38,1.23l.74,1.28A12.12,12.12,0,0,1,342.48,144.73Z" transform="translate(0.92 0.57)" style="fill: #020202"/>
      <path d="M352.07,167.43l.74,1.28a14.22,14.22,0,0,0,2.75-2.32l-1.13-.94A12.46,12.46,0,0,1,352.07,167.43Z" transform="translate(0.92 0.57)" style="fill: #020202"/>
      <path d="M333.3,153.25l-1.38-.51a13.47,13.47,0,0,0-.61,3.55h1.47A12.25,12.25,0,0,1,333.3,153.25Z" transform="translate(0.92 0.57)" style="fill: #020202"/>
      <path d="M345.27,144.4a13.15,13.15,0,0,1,1.55.11l.25-1.45a13.38,13.38,0,0,0-1.8-.13,13.23,13.23,0,0,0-1.79.13l.25,1.45A13.13,13.13,0,0,1,345.27,144.4Z" transform="translate(0.92 0.57)" style="fill: #020202"/>
    </g>
    <g>
      <path d="M38.13,152.84l1.39-.5a14.37,14.37,0,0,0-1.81-3.11l-1.13,1A12.41,12.41,0,0,1,38.13,152.84Z" transform="translate(0.92 0.57)" style="fill: #020202"/>
      <path d="M35.76,149.2l1.12-.94a13.81,13.81,0,0,0-2.74-2.32l-.74,1.28A12.78,12.78,0,0,1,35.76,149.2Z" transform="translate(0.92 0.57)" style="fill: #020202"/>
      <path d="M26.6,171.72" transform="translate(0.92 0.57)" style="fill: #020202"/>
      <path d="M17.44,166.24l-1.13.94a14.16,14.16,0,0,0,2.75,2.32l.74-1.28A12.46,12.46,0,0,1,17.44,166.24Z" transform="translate(0.92 0.57)" style="fill: #020202"/>
      <path d="M14.11,158.36H12.63a14.18,14.18,0,0,0,.61,3.54l1.39-.5A12.25,12.25,0,0,1,14.11,158.36Z" transform="translate(0.92 0.57)" style="fill: #020202"/>
      <path d="M39.09,157.08h1.48a14.18,14.18,0,0,0-.61-3.54l-1.39.5A12.25,12.25,0,0,1,39.09,157.08Z" transform="translate(0.92 0.57)" style="fill: #020202"/>
      <path d="M32.29,146.58,33,145.3a13.52,13.52,0,0,0-3.38-1.23l-.25,1.45A12.33,12.33,0,0,1,32.29,146.58Z" transform="translate(0.92 0.57)" style="fill: #020202"/>
      <path d="M19.8,147.22l-.74-1.28a14.16,14.16,0,0,0-2.75,2.32l1.13.94A12.46,12.46,0,0,1,19.8,147.22Z" transform="translate(0.92 0.57)" style="fill: #020202"/>
      <path d="M39.09,158.36a12.25,12.25,0,0,1-.52,3l1.39.5a14.18,14.18,0,0,0,.61-3.54Z" transform="translate(0.92 0.57)" style="fill: #020202"/>
      <path d="M15.06,162.6l-1.38.5a14.37,14.37,0,0,0,1.81,3.11l1.13-1A12.88,12.88,0,0,1,15.06,162.6Z" transform="translate(0.92 0.57)" style="fill: #020202"/>
      <path d="M16.62,150.18l-1.13-1a14.37,14.37,0,0,0-1.81,3.11l1.38.5A12.88,12.88,0,0,1,16.62,150.18Z" transform="translate(0.92 0.57)" style="fill: #020202"/>
      <path d="M36.58,165.26l1.13,1a14.37,14.37,0,0,0,1.81-3.11l-1.39-.5A12.41,12.41,0,0,1,36.58,165.26Z" transform="translate(0.92 0.57)" style="fill: #020202"/>
      <path d="M23.8,145.52l-.26-1.45a13.45,13.45,0,0,0-3.37,1.23l.73,1.28A12.57,12.57,0,0,1,23.8,145.52Z" transform="translate(0.92 0.57)" style="fill: #020202"/>
      <path d="M33.4,168.22l.74,1.28a13.81,13.81,0,0,0,2.74-2.32l-1.12-.94A12.78,12.78,0,0,1,33.4,168.22Z" transform="translate(0.92 0.57)" style="fill: #020202"/>
      <path d="M14.63,154l-1.39-.5a14.18,14.18,0,0,0-.61,3.54h1.48A12.25,12.25,0,0,1,14.63,154Z" transform="translate(0.92 0.57)" style="fill: #020202"/>
      <path d="M26.6,145.2a13,13,0,0,1,1.54.1l.26-1.45a12.53,12.53,0,0,0-3.6,0l.26,1.45A13,13,0,0,1,26.6,145.2Z" transform="translate(0.92 0.57)" style="fill: #020202"/>
    </g>
    <g>
      <path d="M72.55,110.76l1.38-.5a14,14,0,0,0-1.81-3.11L71,108.1A12.88,12.88,0,0,1,72.55,110.76Z" transform="translate(0.92 0.57)" style="fill: #020202"/>
      <path d="M70.17,107.12l1.13-.94a14.16,14.16,0,0,0-2.75-2.32l-.74,1.28A12.46,12.46,0,0,1,70.17,107.12Z" transform="translate(0.92 0.57)" style="fill: #020202"/>
      <path d="M61,129.64" transform="translate(0.92 0.57)" style="fill: #020202"/>
      <path d="M51.86,124.16l-1.13.94a13.59,13.59,0,0,0,2.75,2.32l.73-1.28A12.72,12.72,0,0,1,51.86,124.16Z" transform="translate(0.92 0.57)" style="fill: #020202"/>
      <path d="M48.52,116.28H47.05a13.74,13.74,0,0,0,.6,3.54l1.39-.5A12.25,12.25,0,0,1,48.52,116.28Z" transform="translate(0.92 0.57)" style="fill: #020202"/>
      <path d="M73.5,115H75a14.18,14.18,0,0,0-.61-3.54L73,112A12.25,12.25,0,0,1,73.5,115Z" transform="translate(0.92 0.57)" style="fill: #020202"/>
      <path d="M66.71,104.5l.74-1.28A13.66,13.66,0,0,0,64.07,102l-.26,1.45A12.57,12.57,0,0,1,66.71,104.5Z" transform="translate(0.92 0.57)" style="fill: #020202"/>
      <path d="M54.21,105.14l-.73-1.28a13.59,13.59,0,0,0-2.75,2.32l1.13.94A12.72,12.72,0,0,1,54.21,105.14Z" transform="translate(0.92 0.57)" style="fill: #020202"/>
      <path d="M73.5,116.28a12.25,12.25,0,0,1-.52,3l1.39.5a14.18,14.18,0,0,0,.61-3.54Z" transform="translate(0.92 0.57)" style="fill: #020202"/>
      <path d="M49.48,120.52l-1.39.5a14,14,0,0,0,1.82,3.11l1.12-.95A12.84,12.84,0,0,1,49.48,120.52Z" transform="translate(0.92 0.57)" style="fill: #020202"/>
      <path d="M51,108.1l-1.12-.95a14,14,0,0,0-1.82,3.11l1.39.5A12.84,12.84,0,0,1,51,108.1Z" transform="translate(0.92 0.57)" style="fill: #020202"/>
      <path d="M71,123.18l1.13.95A14,14,0,0,0,73.93,121l-1.38-.5A12.88,12.88,0,0,1,71,123.18Z" transform="translate(0.92 0.57)" style="fill: #020202"/>
      <path d="M58.21,103.44,58,102a13.52,13.52,0,0,0-3.38,1.23l.74,1.28A12.49,12.49,0,0,1,58.21,103.44Z" transform="translate(0.92 0.57)" style="fill: #020202"/>
      <path d="M67.81,126.14l.74,1.28a14.16,14.16,0,0,0,2.75-2.32l-1.13-.94A12.46,12.46,0,0,1,67.81,126.14Z" transform="translate(0.92 0.57)" style="fill: #020202"/>
      <path d="M49,112l-1.39-.5a13.74,13.74,0,0,0-.6,3.54h1.47A12.25,12.25,0,0,1,49,112Z" transform="translate(0.92 0.57)" style="fill: #020202"/>
      <path d="M61,103.12a12.85,12.85,0,0,1,1.54.1l.26-1.45a12.53,12.53,0,0,0-3.6,0l.26,1.45A13.13,13.13,0,0,1,61,103.12Z" transform="translate(0.92 0.57)" style="fill: #020202"/>
    </g>
    <g>
      <path d="M38.13,68.26l1.39-.5a14.37,14.37,0,0,0-1.81-3.11l-1.13.95A12.17,12.17,0,0,1,38.13,68.26Z" transform="translate(0.92 0.57)" style="fill: #020202"/>
      <path d="M35.76,64.62l1.12-1a14.11,14.11,0,0,0-2.74-2.31l-.74,1.27A13.24,13.24,0,0,1,35.76,64.62Z" transform="translate(0.92 0.57)" style="fill: #020202"/>
      <path d="M26.6,87.13" transform="translate(0.92 0.57)" style="fill: #020202"/>
      <path d="M17.44,81.65l-1.13.95a14.47,14.47,0,0,0,2.75,2.31l.74-1.27A12.15,12.15,0,0,1,17.44,81.65Z" transform="translate(0.92 0.57)" style="fill: #020202"/>
      <path d="M14.11,73.77H12.63a14.34,14.34,0,0,0,.61,3.55l1.39-.5A12.25,12.25,0,0,1,14.11,73.77Z" transform="translate(0.92 0.57)" style="fill: #020202"/>
      <path d="M39.09,72.5h1.48A14.34,14.34,0,0,0,40,69l-1.39.51A12.25,12.25,0,0,1,39.09,72.5Z" transform="translate(0.92 0.57)" style="fill: #020202"/>
      <path d="M32.29,62,33,60.72a14,14,0,0,0-3.38-1.24l-.25,1.46A11.9,11.9,0,0,1,32.29,62Z" transform="translate(0.92 0.57)" style="fill: #020202"/>
      <path d="M19.8,62.63l-.74-1.27a14.47,14.47,0,0,0-2.75,2.31l1.13,1A12.9,12.9,0,0,1,19.8,62.63Z" transform="translate(0.92 0.57)" style="fill: #020202"/>
      <path d="M39.09,73.77a12.25,12.25,0,0,1-.52,3l1.39.5a14.34,14.34,0,0,0,.61-3.55Z" transform="translate(0.92 0.57)" style="fill: #020202"/>
      <path d="M15.06,78l-1.38.51a14.3,14.3,0,0,0,1.81,3.1l1.13-.94A12.7,12.7,0,0,1,15.06,78Z" transform="translate(0.92 0.57)" style="fill: #020202"/>
      <path d="M16.62,65.6l-1.13-.95a14.37,14.37,0,0,0-1.81,3.11l1.38.5A12.63,12.63,0,0,1,16.62,65.6Z" transform="translate(0.92 0.57)" style="fill: #020202"/>
      <path d="M36.58,80.68l1.13.94a14.3,14.3,0,0,0,1.81-3.1L38.13,78A12.24,12.24,0,0,1,36.58,80.68Z" transform="translate(0.92 0.57)" style="fill: #020202"/>
      <path d="M23.8,60.94l-.26-1.46a13.87,13.87,0,0,0-3.37,1.24L20.9,62A12.12,12.12,0,0,1,23.8,60.94Z" transform="translate(0.92 0.57)" style="fill: #020202"/>
      <path d="M33.4,83.64l.74,1.27a14.11,14.11,0,0,0,2.74-2.31l-1.12-.95A12.45,12.45,0,0,1,33.4,83.64Z" transform="translate(0.92 0.57)" style="fill: #020202"/>
      <path d="M14.63,69.46,13.24,69a14.34,14.34,0,0,0-.61,3.55h1.48A12.25,12.25,0,0,1,14.63,69.46Z" transform="translate(0.92 0.57)" style="fill: #020202"/>
      <path d="M26.6,60.61a11.17,11.17,0,0,1,1.54.11l.26-1.45a12.53,12.53,0,0,0-3.6,0l.26,1.45A11.17,11.17,0,0,1,26.6,60.61Z" transform="translate(0.92 0.57)" style="fill: #020202"/>
    </g>
    <g>
      <line x1="359.6" y1="61.4" x2="350.36" y2="61.4" style="fill: none;stroke: #231f20;stroke-miterlimit: 10"/>
      <polygon points="351.12 58.8 346.63 61.4 351.12 63.99 351.12 58.8" style="fill: #231f20"/>
    </g>
  </g>
</svg>
