<svg id="a5cfb56d-c4fd-431d-86ad-eebf38d568a0" data-name="silk" xmlns="http://www.w3.org/2000/svg" width="3.19in" height="5.06in" viewBox="0 0 229.45 364.41">
  <rect x="0.06" y="0.06" width="229.32" height="364.28" style="fill: #fff;stroke: #231f20;stroke-width: 0.129797756671906px"/>
  <path d="M133.4,298.88a18.66,18.66,0,0,0-37.32,0c0,.42,0,.82.06,1.23a2.12,2.12,0,0,0-.06.44v25.24a1.72,1.72,0,0,0,1.72,1.72h33.89a1.71,1.71,0,0,0,1.71-1.72V299.48a1.36,1.36,0,0,0,0-.2C133.39,299.15,133.4,299,133.4,298.88Z" transform="translate(0.08 -0.15)" style="fill: #231f20"/>
  <path d="M28.44,137.91H27l-.39-1.09H24.51l-.39,1.09H22.65l2.1-5.41h1.59Zm-2.19-2-.69-2-.71,2Z" transform="translate(0.08 -0.15)" style="fill: #231f20"/>
  <path d="M85.25,176.23a1.51,1.51,0,0,1-.42,1.12,1.6,1.6,0,0,1-1.18.41H80.9v-5.41h2.3a2.59,2.59,0,0,1,.78.1,1.26,1.26,0,0,1,.53.27,1,1,0,0,1,.31.4,1.35,1.35,0,0,1,.1.5,1.42,1.42,0,0,1-.11.55,1.24,1.24,0,0,1-.25.41,1,1,0,0,1-.31.23,2,2,0,0,1,.74.55A1.43,1.43,0,0,1,85.25,176.23Zm-1.68-2.32a.54.54,0,0,0-.23-.52,1.4,1.4,0,0,0-.7-.13h-.31v1.3h.31a1.51,1.51,0,0,0,.71-.13A.55.55,0,0,0,83.57,173.91Zm.23,2.25c0-.46-.29-.69-.88-.69h-.59v1.38h.59C83.51,176.85,83.8,176.62,83.8,176.16Z" transform="translate(0.08 -0.15)" style="fill: #231f20"/>
  <path d="M148.56,177.38a3.71,3.71,0,0,1-.61.28,3.5,3.5,0,0,1-.62.15,4.68,4.68,0,0,1-.66,0,3,3,0,0,1-1.11-.19,2.42,2.42,0,0,1-.86-.58,2.45,2.45,0,0,1-.54-.89,3.33,3.33,0,0,1-.18-1.12,3.28,3.28,0,0,1,.21-1.22,2.5,2.5,0,0,1,.6-.88,2.56,2.56,0,0,1,.87-.51,3.24,3.24,0,0,1,1-.17,5,5,0,0,1,1.83.41v1.44a5,5,0,0,0-.69-.41,1.8,1.8,0,0,0-.82-.17,1.57,1.57,0,0,0-.77.19,1.44,1.44,0,0,0-.59.53,1.53,1.53,0,0,0-.22.81,1.51,1.51,0,0,0,.2.76,1.37,1.37,0,0,0,.53.54,1.55,1.55,0,0,0,.77.2,2.07,2.07,0,0,0,.66-.1,2.34,2.34,0,0,0,.52-.21,4.54,4.54,0,0,0,.44-.28Z" transform="translate(0.08 -0.15)" style="fill: #231f20"/>
  <path d="M206.79,135a2.87,2.87,0,0,1-.27,1.34,2.92,2.92,0,0,1-.63.81,2,2,0,0,1-1.43.46h-2.57v-5.41h2a4.2,4.2,0,0,1,.76,0,2.34,2.34,0,0,1,.58.15,1.91,1.91,0,0,1,.43.21,2.78,2.78,0,0,1,.32.26,2.84,2.84,0,0,1,.43.53,2.93,2.93,0,0,1,.29.72A3.48,3.48,0,0,1,206.79,135Zm-1.46-.07a2.1,2.1,0,0,0-.22-1,1.09,1.09,0,0,0-.54-.49,1.58,1.58,0,0,0-.63-.13h-.61v3.21h.61a1.54,1.54,0,0,0,1-.31A1.47,1.47,0,0,0,205.33,134.88Z" transform="translate(0.08 -0.15)" style="fill: #231f20"/>
  <path d="M25.49,185c-.18.08-.35.15-.5.2a1.86,1.86,0,0,1-.56.07.59.59,0,0,1-.42-.12.65.65,0,0,1-.18-.3,1.9,1.9,0,0,1-.44.3,1.46,1.46,0,0,1-.64.12,1.16,1.16,0,0,1-.62-.15.87.87,0,0,1-.33-.38,1.27,1.27,0,0,1-.09-.47,1,1,0,0,1,.16-.6,1.31,1.31,0,0,1,.44-.4,5.5,5.5,0,0,1,.73-.31l.39-.15.2-.07.13-.07a.85.85,0,0,0-.1-.46.53.53,0,0,0-.45-.16,1.5,1.5,0,0,0-.75.2,2.61,2.61,0,0,0-.63.53v-1.08a2.13,2.13,0,0,1,.49-.31,2.81,2.81,0,0,1,.56-.18,4,4,0,0,1,.6,0,1.72,1.72,0,0,1,1.14.33,1.17,1.17,0,0,1,.38.92v1.54a.89.89,0,0,0,0,.32.14.14,0,0,0,.13.11.8.8,0,0,0,.32-.11Zm-1.73-.76v-.94a3.64,3.64,0,0,0-.64.37.53.53,0,0,0-.2.44.4.4,0,0,0,.1.3.34.34,0,0,0,.24.11.52.52,0,0,0,.25-.08A2.19,2.19,0,0,0,23.76,184.2Z" transform="translate(0.08 -0.15)" style="fill: #231f20"/>
  <path d="M92.75,223a2.54,2.54,0,0,1-.23,1.14,1.54,1.54,0,0,1-.61.67,1.39,1.39,0,0,1-.75.22,1.61,1.61,0,0,1-.47-.07,1.19,1.19,0,0,1-.32-.16c-.07-.06-.15-.12-.23-.2V225H88.9v-5.42h1.24v1.68a1.23,1.23,0,0,1,.38-.22,1.57,1.57,0,0,1,.56-.09,1.47,1.47,0,0,1,.74.18,1.41,1.41,0,0,1,.53.47,1.89,1.89,0,0,1,.3.66A2.88,2.88,0,0,1,92.75,223Zm-1.3,0a1.28,1.28,0,0,0-.2-.78.6.6,0,0,0-.48-.27,1.08,1.08,0,0,0-.63.25v1.52a.81.81,0,0,0,.63.28.67.67,0,0,0,.45-.21A1.08,1.08,0,0,0,91.45,223Z" transform="translate(0.08 -0.15)" style="fill: #231f20"/>
  <path d="M140.13,224.78l-.33.12a2,2,0,0,1-.39.09,2.29,2.29,0,0,1-.47,0,2.07,2.07,0,0,1-1-.22,1.66,1.66,0,0,1-.61-.56,2.4,2.4,0,0,1-.3-.68,2.37,2.37,0,0,1,0-1.22,2.28,2.28,0,0,1,.3-.68,1.76,1.76,0,0,1,.6-.54,2,2,0,0,1,1-.22,2.84,2.84,0,0,1,.64.06c.16.05.32.1.49.17v1.11a2.9,2.9,0,0,0-.94-.22.81.81,0,0,0-.59.23.88.88,0,0,0-.26.7,1.06,1.06,0,0,0,.13.53.76.76,0,0,0,.32.32.82.82,0,0,0,.4.1,1.76,1.76,0,0,0,.42-.06l.58-.18Z" transform="translate(0.08 -0.15)" style="fill: #231f20"/>
  <path d="M207.32,185.16h-1.25v-.36a1.7,1.7,0,0,1-.41.31,1.25,1.25,0,0,1-.6.12,1.47,1.47,0,0,1-.75-.21,1.66,1.66,0,0,1-.61-.67,2.48,2.48,0,0,1-.23-1.15,3.12,3.12,0,0,1,.17-1,1.81,1.81,0,0,1,.56-.77,1.68,1.68,0,0,1,1.5-.21,1.51,1.51,0,0,1,.37.22v-1.67h1.25Zm-1.25-1.26v-1.52l-.33-.2a.68.68,0,0,0-.29-.06.59.59,0,0,0-.49.28,1.35,1.35,0,0,0-.19.77,1.22,1.22,0,0,0,.2.77.63.63,0,0,0,.48.24.74.74,0,0,0,.36-.08A1.64,1.64,0,0,0,206.07,183.9Z" transform="translate(0.08 -0.15)" style="fill: #231f20"/>
  <g>
    <path d="M30.32,340.56H28.76l-.41-1.24h-2.2l-.41,1.24H24.17l2.24-6.09h1.68ZM28,338.26,27.26,336l-.75,2.22Z" transform="translate(0.08 -0.15)" style="fill: #231f20"/>
    <path d="M34.79,340.56H33.48v-.64a2.07,2.07,0,0,1-.58.54,1.44,1.44,0,0,1-.73.18,1.05,1.05,0,0,1-1.09-.59,3.37,3.37,0,0,1-.25-1.34v-2.63h1.31v2.42a2,2,0,0,0,.1.64.43.43,0,0,0,.44.27.58.58,0,0,0,.46-.19,4.09,4.09,0,0,0,.34-.51v-2.63h1.31Z" transform="translate(0.08 -0.15)" style="fill: #231f20"/>
    <path d="M39.57,340.56H38.25v-.41a2.33,2.33,0,0,1-.44.35,1.27,1.27,0,0,1-.64.14,1.52,1.52,0,0,1-.8-.24,1.87,1.87,0,0,1-.64-.76,3,3,0,0,1-.25-1.29,3.25,3.25,0,0,1,.19-1.14,2,2,0,0,1,.6-.87,1.5,1.5,0,0,1,1-.34,1.61,1.61,0,0,1,.59.1,1.8,1.8,0,0,1,.4.25v-1.88h1.32Zm-1.32-1.43v-1.71l-.36-.22a.73.73,0,0,0-.3-.06.6.6,0,0,0-.52.31,1.58,1.58,0,0,0-.21.87,1.41,1.41,0,0,0,.22.86.64.64,0,0,0,.51.27.74.74,0,0,0,.38-.09A1.49,1.49,0,0,0,38.25,339.13Z" transform="translate(0.08 -0.15)" style="fill: #231f20"/>
    <path d="M41.78,340.56H40.46v-4.48h1.32Zm-.11-5.51a.69.69,0,0,1-.16.47.49.49,0,0,1-.39.19.46.46,0,0,1-.28-.08.68.68,0,0,1-.2-.24.77.77,0,0,1-.07-.34.71.71,0,0,1,.16-.47.48.48,0,0,1,.78,0A.71.71,0,0,1,41.67,335.05Z" transform="translate(0.08 -0.15)" style="fill: #231f20"/>
    <path d="M46.78,338.32a2.84,2.84,0,0,1-.24,1.19,1.85,1.85,0,0,1-.72.82,2.08,2.08,0,0,1-1.17.31,2.05,2.05,0,0,1-1.16-.31,1.85,1.85,0,0,1-.72-.82,2.84,2.84,0,0,1-.24-1.19,2.92,2.92,0,0,1,.13-.92,2,2,0,0,1,.41-.73,1.64,1.64,0,0,1,.67-.49,2.17,2.17,0,0,1,.91-.18,2.27,2.27,0,0,1,.93.18,1.83,1.83,0,0,1,.67.48,2.07,2.07,0,0,1,.4.73A3,3,0,0,1,46.78,338.32Zm-1.38,0a1.54,1.54,0,0,0-.19-.84.66.66,0,0,0-1.11,0,1.93,1.93,0,0,0,0,1.67.65.65,0,0,0,1.11,0A1.52,1.52,0,0,0,45.4,338.32Z" transform="translate(0.08 -0.15)" style="fill: #231f20"/>
    <path d="M51.43,340.56H49.91v-6.09h1.52Z" transform="translate(0.08 -0.15)" style="fill: #231f20"/>
    <path d="M58.2,340.56H56.84l-2.62-3.4v3.4H52.71v-6.09h1.35l2.62,3.37v-3.37H58.2Z" transform="translate(0.08 -0.15)" style="fill: #231f20"/>
  </g>
  <g>
    <path d="M168.49,340.56h-1.57l-.41-1.24h-2.19l-.42,1.24h-1.57l2.24-6.09h1.68Zm-2.33-2.3-.74-2.22-.75,2.22Z" transform="translate(0.08 -0.15)" style="fill: #231f20"/>
    <path d="M173,340.56h-1.32v-.64a2.07,2.07,0,0,1-.58.54,1.41,1.41,0,0,1-.73.18,1.05,1.05,0,0,1-1.09-.59,3.37,3.37,0,0,1-.25-1.34v-2.63h1.31v2.42a2,2,0,0,0,.1.64.43.43,0,0,0,.44.27.58.58,0,0,0,.46-.19,3.22,3.22,0,0,0,.34-.51v-2.63H173Z" transform="translate(0.08 -0.15)" style="fill: #231f20"/>
    <path d="M177.73,340.56h-1.32v-.41a2.05,2.05,0,0,1-.44.35,1.27,1.27,0,0,1-.64.14,1.48,1.48,0,0,1-.79-.24,1.89,1.89,0,0,1-.65-.76,3,3,0,0,1-.25-1.29,3.49,3.49,0,0,1,.19-1.14,2,2,0,0,1,.6-.87,1.52,1.52,0,0,1,1-.34,1.61,1.61,0,0,1,.59.1,1.8,1.8,0,0,1,.4.25v-1.88h1.32Zm-1.32-1.43v-1.71l-.36-.22a.73.73,0,0,0-.3-.06.6.6,0,0,0-.52.31,1.58,1.58,0,0,0-.21.87,1.41,1.41,0,0,0,.22.86.64.64,0,0,0,.51.27.74.74,0,0,0,.38-.09A1.49,1.49,0,0,0,176.41,339.13Z" transform="translate(0.08 -0.15)" style="fill: #231f20"/>
    <path d="M179.94,340.56h-1.32v-4.48h1.32Zm-.11-5.51a.69.69,0,0,1-.16.47.49.49,0,0,1-.39.19.46.46,0,0,1-.28-.08.68.68,0,0,1-.2-.24.77.77,0,0,1-.07-.34.71.71,0,0,1,.16-.47.48.48,0,0,1,.78,0A.71.71,0,0,1,179.83,335.05Z" transform="translate(0.08 -0.15)" style="fill: #231f20"/>
    <path d="M185,338.32a2.84,2.84,0,0,1-.25,1.19,1.85,1.85,0,0,1-.72.82,2.34,2.34,0,0,1-2.33,0,1.85,1.85,0,0,1-.72-.82,2.84,2.84,0,0,1-.24-1.19,2.92,2.92,0,0,1,.13-.92,2.09,2.09,0,0,1,.41-.73,1.64,1.64,0,0,1,.67-.49,2.19,2.19,0,0,1,.92-.18,2.22,2.22,0,0,1,.92.18,1.75,1.75,0,0,1,.67.48,2.07,2.07,0,0,1,.4.73A3,3,0,0,1,185,338.32Zm-1.39,0a1.54,1.54,0,0,0-.19-.84.66.66,0,0,0-1.11,0,1.93,1.93,0,0,0,0,1.67.62.62,0,0,0,.56.31.61.61,0,0,0,.55-.31A1.52,1.52,0,0,0,183.56,338.32Z" transform="translate(0.08 -0.15)" style="fill: #231f20"/>
    <path d="M193.47,337.51a3.71,3.71,0,0,1-.33,1.57,2.66,2.66,0,0,1-1,1.13,2.73,2.73,0,0,1-1.57.43,2.78,2.78,0,0,1-1.59-.44,2.71,2.71,0,0,1-1-1.16,3.84,3.84,0,0,1,0-3.07,2.55,2.55,0,0,1,1-1.15,2.78,2.78,0,0,1,1.59-.44,3.1,3.1,0,0,1,1.25.25,2.68,2.68,0,0,1,.9.68,3.11,3.11,0,0,1,.54,1A4,4,0,0,1,193.47,337.51Zm-1.56,0a2.09,2.09,0,0,0-.08-.63,1.34,1.34,0,0,0-.25-.49,1.14,1.14,0,0,0-.42-.33,1.4,1.4,0,0,0-.56-.11,1.15,1.15,0,0,0-1,.43,1.7,1.7,0,0,0-.35,1.13,1.72,1.72,0,0,0,.35,1.13,1.15,1.15,0,0,0,1,.43,1.17,1.17,0,0,0,.71-.2,1.22,1.22,0,0,0,.45-.55A2.09,2.09,0,0,0,191.91,337.51Z" transform="translate(0.08 -0.15)" style="fill: #231f20"/>
    <path d="M199.68,337.83a3.33,3.33,0,0,1-.24,1.33,2.15,2.15,0,0,1-.64.87,2.59,2.59,0,0,1-.86.47,3.32,3.32,0,0,1-.92.14,3,3,0,0,1-1.25-.27,2.23,2.23,0,0,1-1-.89,3.06,3.06,0,0,1-.41-1.65v-3.36h1.53v2.88a2.83,2.83,0,0,0,.14,1,1.19,1.19,0,0,0,.4.57,1,1,0,0,0,.61.19,1,1,0,0,0,.59-.18,1.07,1.07,0,0,0,.4-.57,2.85,2.85,0,0,0,.15-1v-2.89h1.52Z" transform="translate(0.08 -0.15)" style="fill: #231f20"/>
    <path d="M205.73,336h-1.85v4.61h-1.53V336H200.5v-1.48h5.23Z" transform="translate(0.08 -0.15)" style="fill: #231f20"/>
  </g>
  <g>
    <path d="M18,233a3,3,0,0,1-.61.28,3.3,3.3,0,0,1-.62.15,4.62,4.62,0,0,1-.65,0,3,3,0,0,1-1.12-.2,2.36,2.36,0,0,1-.85-.57,2.42,2.42,0,0,1-.55-.89,3.37,3.37,0,0,1-.18-1.12,3.11,3.11,0,0,1,.22-1.23,2.35,2.35,0,0,1,.59-.87,2.51,2.51,0,0,1,.88-.51,3.18,3.18,0,0,1,1-.17,5.14,5.14,0,0,1,1.84.41v1.44a4.8,4.8,0,0,0-.7-.42,1.86,1.86,0,0,0-.81-.16,1.72,1.72,0,0,0-.78.18,1.51,1.51,0,0,0-.58.54,1.45,1.45,0,0,0-.22.81,1.47,1.47,0,0,0,.19.75,1.44,1.44,0,0,0,1.31.75,2,2,0,0,0,.65-.1,2.34,2.34,0,0,0,.52-.21,4.54,4.54,0,0,0,.44-.28Z" transform="translate(0.08 -0.15)" style="fill: #231f20"/>
    <path d="M23.29,228l-2.14,5.49H20.2L18.09,228h1.49l1.09,3.13L21.8,228Z" transform="translate(0.08 -0.15)" style="fill: #231f20"/>
    <path d="M30.71,233.41H29.23l-.38-1.1H26.78l-.4,1.1H24.91L27,228h1.59Zm-2.19-2-.7-2-.71,2Z" transform="translate(0.08 -0.15)" style="fill: #231f20"/>
  </g>
  <g>
    <path d="M15.72,291.46l-.26.11-.21.08-.3.09c-.21.05-.43.1-.65.13a4.88,4.88,0,0,1-.68,0,3,3,0,0,1-1.34-.3,2.33,2.33,0,0,1-1-.93,3.13,3.13,0,0,1-.37-1.56,3.86,3.86,0,0,1,.19-1.16,2.05,2.05,0,0,1,.58-.92,2.81,2.81,0,0,1,.66-.44,2.84,2.84,0,0,1,.65-.2,4.9,4.9,0,0,1,.7,0,4.15,4.15,0,0,1,1,.11c.28.07.58.17.9.28V288a4,4,0,0,0-.68-.36,2.58,2.58,0,0,0-.9-.14,1.67,1.67,0,0,0-1,.27,1.44,1.44,0,0,0-.52.64,1.84,1.84,0,0,0-.14.72,1.71,1.71,0,0,0,.16.75,1.45,1.45,0,0,0,.51.56,1.54,1.54,0,0,0,.82.2,2.09,2.09,0,0,0,.59-.08V290h-.65v-1.09h1.9Z" transform="translate(0.08 -0.15)" style="fill: #231f20"/>
    <path d="M20,291.64c-.18.08-.35.15-.5.2a1.79,1.79,0,0,1-.55.07.6.6,0,0,1-.43-.12.64.64,0,0,1-.17-.3,2,2,0,0,1-.45.3,1.43,1.43,0,0,1-.64.12,1.1,1.1,0,0,1-.61-.15.8.8,0,0,1-.33-.38,1.1,1.1,0,0,1-.1-.47,1.07,1.07,0,0,1,.17-.61,1.16,1.16,0,0,1,.43-.39,6,6,0,0,1,.73-.32l.39-.14.2-.07.14-.07a1,1,0,0,0-.1-.46c-.07-.11-.22-.16-.45-.16a1.5,1.5,0,0,0-.75.2,2.66,2.66,0,0,0-.64.52v-1.07a2,2,0,0,1,.5-.31,2.62,2.62,0,0,1,.56-.18,2.88,2.88,0,0,1,.59-.06,1.69,1.69,0,0,1,1.14.34,1.14,1.14,0,0,1,.39.92v1.53a1.31,1.31,0,0,0,0,.33c0,.07.07.11.13.11a.67.67,0,0,0,.32-.12Zm-1.72-.76v-.94a3.36,3.36,0,0,0-.64.36.54.54,0,0,0-.21.44.46.46,0,0,0,.1.31.33.33,0,0,0,.24.1.41.41,0,0,0,.25-.08A2.14,2.14,0,0,0,18.28,290.88Z" transform="translate(0.08 -0.15)" style="fill: #231f20"/>
    <path d="M22.87,291.61a2.58,2.58,0,0,1-.53.2,2.24,2.24,0,0,1-.65.1c-.89,0-1.34-.49-1.34-1.48v-1.59h-.56v-.25l1.66-1.92h.14v1.19h1.19v1H21.59v1.27a1.73,1.73,0,0,0,0,.36.36.36,0,0,0,.13.23.55.55,0,0,0,.34.09,1.64,1.64,0,0,0,.78-.28Z" transform="translate(0.08 -0.15)" style="fill: #231f20"/>
    <path d="M26.72,290.19H24.25a1,1,0,0,0,.36.6,1,1,0,0,0,.64.23,3.12,3.12,0,0,0,1.38-.4v.87a3.42,3.42,0,0,1-.66.29,3.06,3.06,0,0,1-1,.13,2.15,2.15,0,0,1-1.11-.27,1.77,1.77,0,0,1-.67-.74,2.47,2.47,0,0,1-.23-1.07,2.38,2.38,0,0,1,.23-1.05,1.66,1.66,0,0,1,.67-.72,2.15,2.15,0,0,1,1.11-.27,1.75,1.75,0,0,1,.82.21,1.62,1.62,0,0,1,.65.69,2.54,2.54,0,0,1,.26,1.22Zm-1.16-.69a1,1,0,0,0-.17-.61.54.54,0,0,0-.48-.23.6.6,0,0,0-.5.23.91.91,0,0,0-.19.61Z" transform="translate(0.08 -0.15)" style="fill: #231f20"/>
    <path d="M30.5,291.84H29.06v-5.41H30.5Z" transform="translate(0.08 -0.15)" style="fill: #231f20"/>
    <path d="M35,291.84H33.72V289.7a1.5,1.5,0,0,0-.1-.58.39.39,0,0,0-.41-.24.6.6,0,0,0-.27.06,1.06,1.06,0,0,0-.2.17.94.94,0,0,0-.16.2l-.12.19v2.34H31.22v-4h1.24v.57a1.8,1.8,0,0,1,.58-.49,1.45,1.45,0,0,1,.66-.15c.84,0,1.25.57,1.25,1.71Z" transform="translate(0.08 -0.15)" style="fill: #231f20"/>
    <path d="M39.57,291.84h-1.3v-5.41h1.3Z" transform="translate(0.08 -0.15)" style="fill: #231f20"/>
  </g>
  <g>
    <path d="M63.26,296.63a3.28,3.28,0,0,1-.6.28,3.72,3.72,0,0,1-.62.15,4.68,4.68,0,0,1-.66,0,3,3,0,0,1-1.11-.19,2.3,2.3,0,0,1-.86-.58,2.45,2.45,0,0,1-.54-.89,3.33,3.33,0,0,1-.18-1.12,3.28,3.28,0,0,1,.21-1.22,2.26,2.26,0,0,1,.6-.87,2.35,2.35,0,0,1,.87-.52,3.22,3.22,0,0,1,1-.16,4.85,4.85,0,0,1,1.84.41v1.43a5.09,5.09,0,0,0-.7-.41,1.86,1.86,0,0,0-.81-.17A1.61,1.61,0,0,0,61,293a1.48,1.48,0,0,0-.58.53,1.59,1.59,0,0,0-.22.82,1.5,1.5,0,0,0,.2.75,1.31,1.31,0,0,0,.53.54,1.45,1.45,0,0,0,.77.2,2.39,2.39,0,0,0,.66-.09,3.25,3.25,0,0,0,.52-.22,4.28,4.28,0,0,0,.43-.27Z" transform="translate(0.08 -0.15)" style="fill: #231f20"/>
    <path d="M68.61,291.62l-2.15,5.48h-.95l-2.1-5.48H64.9L66,294.74l1.12-3.12Z" transform="translate(0.08 -0.15)" style="fill: #231f20"/>
    <path d="M75.89,294.32a3.26,3.26,0,0,1-.31,1.4,2.42,2.42,0,0,1-.92,1,2.76,2.76,0,0,1-1.48.37,2.69,2.69,0,0,1-1.49-.39,2.42,2.42,0,0,1-.91-1,3.19,3.19,0,0,1-.3-1.37,3.14,3.14,0,0,1,.3-1.36,2.32,2.32,0,0,1,.91-1,2.77,2.77,0,0,1,1.49-.38,3,3,0,0,1,1.18.22,2.42,2.42,0,0,1,.85.6,2.79,2.79,0,0,1,.51.89A3.41,3.41,0,0,1,75.89,294.32Zm-1.47,0a1.59,1.59,0,0,0-.08-.55,1.23,1.23,0,0,0-.23-.44,1.06,1.06,0,0,0-.4-.29,1.25,1.25,0,0,0-.53-.1,1.13,1.13,0,0,0-.91.38,1.47,1.47,0,0,0-.33,1,1.5,1.5,0,0,0,.34,1,1.11,1.11,0,0,0,.9.38,1.32,1.32,0,0,0,.68-.17,1.21,1.21,0,0,0,.42-.5A1.65,1.65,0,0,0,74.42,294.32Z" transform="translate(0.08 -0.15)" style="fill: #231f20"/>
    <path d="M80,297H78.74v-.56a1.88,1.88,0,0,1-.55.48,1.47,1.47,0,0,1-.69.15,1,1,0,0,1-1-.52,2.84,2.84,0,0,1-.23-1.19v-2.33h1.23v2.15a1.4,1.4,0,0,0,.1.56A.39.39,0,0,0,78,296a.55.55,0,0,0,.43-.18,2.18,2.18,0,0,0,.32-.45v-2.33H80Z" transform="translate(0.08 -0.15)" style="fill: #231f20"/>
    <path d="M83.25,296.8a2.63,2.63,0,0,1-.53.21,2.47,2.47,0,0,1-.64.09c-.9,0-1.34-.49-1.34-1.48V294h-.56v-.24l1.66-1.92H82v1.19h1.18v1H82v1.28a3.21,3.21,0,0,0,0,.36.4.4,0,0,0,.14.23.53.53,0,0,0,.34.09,1.77,1.77,0,0,0,.77-.28Z" transform="translate(0.08 -0.15)" style="fill: #231f20"/>
    <path d="M87.67,297h-1.3v-5.41h1.3Z" transform="translate(0.08 -0.15)" style="fill: #231f20"/>
  </g>
  <g>
    <path d="M145.61,296.63a3.71,3.71,0,0,1-.61.28,3.3,3.3,0,0,1-.62.15,4.63,4.63,0,0,1-.65,0,3,3,0,0,1-1.12-.19,2.26,2.26,0,0,1-.85-.58,2.34,2.34,0,0,1-.55-.89,3.33,3.33,0,0,1-.18-1.12,3.28,3.28,0,0,1,.21-1.22,2.5,2.5,0,0,1,.6-.87,2.43,2.43,0,0,1,.87-.52,3.24,3.24,0,0,1,1-.16,4.93,4.93,0,0,1,1.84.41v1.43a5.76,5.76,0,0,0-.7-.41,1.87,1.87,0,0,0-.82-.17,1.6,1.6,0,0,0-.77.19,1.41,1.41,0,0,0-.58.53,1.61,1.61,0,0,0,0,1.57,1.38,1.38,0,0,0,.53.54,1.45,1.45,0,0,0,.77.2,2.34,2.34,0,0,0,.66-.09,2.9,2.9,0,0,0,.52-.22,4.37,4.37,0,0,0,.44-.27Z" transform="translate(0.08 -0.15)" style="fill: #231f20"/>
    <path d="M151,291.62l-2.15,5.48h-.94l-2.11-5.48h1.49l1.09,3.12,1.12-3.12Z" transform="translate(0.08 -0.15)" style="fill: #231f20"/>
    <path d="M158.23,294.32a3.12,3.12,0,0,1-.31,1.4,2.4,2.4,0,0,1-.91,1,2.78,2.78,0,0,1-1.48.37,2.75,2.75,0,0,1-1.5-.39,2.42,2.42,0,0,1-.91-1,3.19,3.19,0,0,1-.3-1.37,3.14,3.14,0,0,1,.3-1.36,2.38,2.38,0,0,1,.91-1,2.83,2.83,0,0,1,1.5-.38,2.91,2.91,0,0,1,1.17.22,2.33,2.33,0,0,1,.85.6,2.62,2.62,0,0,1,.51.89A3.41,3.41,0,0,1,158.23,294.32Zm-1.46,0a1.87,1.87,0,0,0-.08-.55,1.43,1.43,0,0,0-.24-.44,1.11,1.11,0,0,0-.39-.29,1.29,1.29,0,0,0-.53-.1,1.12,1.12,0,0,0-.91.38,1.47,1.47,0,0,0-.33,1,1.5,1.5,0,0,0,.33,1,1.12,1.12,0,0,0,.91.38,1.31,1.31,0,0,0,.67-.17,1.14,1.14,0,0,0,.42-.5A1.66,1.66,0,0,0,156.77,294.32Z" transform="translate(0.08 -0.15)" style="fill: #231f20"/>
    <path d="M162.32,297h-1.23v-.56a2.18,2.18,0,0,1-.55.48,1.49,1.49,0,0,1-.69.15,1,1,0,0,1-1-.52,3,3,0,0,1-.23-1.19v-2.33h1.23v2.15a1.6,1.6,0,0,0,.1.56.39.39,0,0,0,.41.25.54.54,0,0,0,.43-.18,2.19,2.19,0,0,0,.33-.45v-2.33h1.23Z" transform="translate(0.08 -0.15)" style="fill: #231f20"/>
    <path d="M165.6,296.8a3.23,3.23,0,0,1-.53.21,2.6,2.6,0,0,1-.65.09c-.89,0-1.34-.49-1.34-1.48V294h-.56v-.24l1.66-1.92h.14v1.19h1.18v1h-1.18v1.28a1.73,1.73,0,0,0,0,.36.39.39,0,0,0,.13.23.55.55,0,0,0,.34.09,1.76,1.76,0,0,0,.78-.28Z" transform="translate(0.08 -0.15)" style="fill: #231f20"/>
    <path d="M171.18,297h-3.62v-.1c.14-.15.29-.34.46-.55l.65-.85.34-.47a2.68,2.68,0,0,0,.27-.45,2.89,2.89,0,0,0,.2-.47,2,2,0,0,0,.07-.54.93.93,0,0,0-.19-.61.6.6,0,0,0-.48-.23,1.6,1.6,0,0,0-1.17.69v-1.28l.34-.24a2.14,2.14,0,0,1,.3-.17,1.86,1.86,0,0,1,.4-.15,2.1,2.1,0,0,1,.51-.06,1.52,1.52,0,0,1,.79.2,1.31,1.31,0,0,1,.56.58,1.8,1.8,0,0,1,.21.89,2.41,2.41,0,0,1-.09.67,2.86,2.86,0,0,1-.2.5c-.06.13-.15.29-.26.48s-.41.65-.63.95h1.54Z" transform="translate(0.08 -0.15)" style="fill: #231f20"/>
  </g>
  <g>
    <path d="M194,291.46l-.27.11-.21.08-.29.09c-.22.05-.44.1-.66.13a4.88,4.88,0,0,1-.68,0,3,3,0,0,1-1.34-.3,2.33,2.33,0,0,1-1-.93,3.13,3.13,0,0,1-.37-1.56,3.86,3.86,0,0,1,.19-1.16A2.07,2.07,0,0,1,190,287a2.57,2.57,0,0,1,.65-.44,2.84,2.84,0,0,1,.65-.2,4.9,4.9,0,0,1,.7,0,4.3,4.3,0,0,1,1,.11c.27.07.57.17.89.28V288a4,4,0,0,0-.68-.36,2.58,2.58,0,0,0-.9-.14,1.67,1.67,0,0,0-1,.27,1.44,1.44,0,0,0-.52.64,2,2,0,0,0-.14.72,1.59,1.59,0,0,0,.17.75,1.31,1.31,0,0,0,.51.56,1.51,1.51,0,0,0,.82.2,2,2,0,0,0,.58-.08V290h-.65v-1.09H194Z" transform="translate(0.08 -0.15)" style="fill: #231f20"/>
    <path d="M198.29,291.64c-.18.08-.35.15-.5.2a1.79,1.79,0,0,1-.55.07.6.6,0,0,1-.43-.12.64.64,0,0,1-.17-.3,1.9,1.9,0,0,1-.44.3,1.49,1.49,0,0,1-.64.12,1.14,1.14,0,0,1-.62-.15.8.8,0,0,1-.33-.38,1.28,1.28,0,0,1-.1-.47,1.07,1.07,0,0,1,.17-.61,1.19,1.19,0,0,1,.44-.39,5.17,5.17,0,0,1,.72-.32l.4-.14.19-.07.14-.07a.85.85,0,0,0-.1-.46c-.07-.11-.22-.16-.45-.16a1.5,1.5,0,0,0-.75.2,2.86,2.86,0,0,0-.64.52v-1.07a2.18,2.18,0,0,1,.5-.31,2.81,2.81,0,0,1,.56-.18,3,3,0,0,1,.59-.06,1.69,1.69,0,0,1,1.14.34,1.14,1.14,0,0,1,.39.92v1.53a1.31,1.31,0,0,0,0,.33c0,.07.07.11.14.11a.68.68,0,0,0,.31-.12Zm-1.72-.76v-.94a3.36,3.36,0,0,0-.64.36.53.53,0,0,0-.2.44.41.41,0,0,0,.1.31.29.29,0,0,0,.23.1.39.39,0,0,0,.25-.08A2.14,2.14,0,0,0,196.57,290.88Z" transform="translate(0.08 -0.15)" style="fill: #231f20"/>
    <path d="M201.16,291.61a2.58,2.58,0,0,1-.53.2,2.19,2.19,0,0,1-.65.1c-.89,0-1.34-.49-1.34-1.48v-1.59h-.56v-.25l1.66-1.92h.14v1.19h1.19v1h-1.19v1.27a1.73,1.73,0,0,0,0,.36.36.36,0,0,0,.13.23.55.55,0,0,0,.34.09,1.64,1.64,0,0,0,.78-.28Z" transform="translate(0.08 -0.15)" style="fill: #231f20"/>
    <path d="M205,290.19h-2.46a1,1,0,0,0,.35.6,1,1,0,0,0,.64.23,3.05,3.05,0,0,0,1.38-.4v.87a3.42,3.42,0,0,1-.66.29,3,3,0,0,1-1,.13,2.11,2.11,0,0,1-1.1-.27,1.73,1.73,0,0,1-.68-.74,2.47,2.47,0,0,1-.23-1.07,2.38,2.38,0,0,1,.23-1.05,1.63,1.63,0,0,1,.68-.72,2.11,2.11,0,0,1,1.1-.27,1.72,1.72,0,0,1,.82.21,1.62,1.62,0,0,1,.65.69,2.54,2.54,0,0,1,.26,1.22Zm-1.16-.69a1,1,0,0,0-.17-.61.54.54,0,0,0-.48-.23.6.6,0,0,0-.5.23.91.91,0,0,0-.19.61Z" transform="translate(0.08 -0.15)" style="fill: #231f20"/>
    <path d="M208.79,291.84h-1.44v-5.41h1.44Z" transform="translate(0.08 -0.15)" style="fill: #231f20"/>
    <path d="M213.25,291.84H212V289.7a1.5,1.5,0,0,0-.1-.58.39.39,0,0,0-.41-.24.6.6,0,0,0-.27.06,1.06,1.06,0,0,0-.2.17l-.16.2-.12.19v2.34h-1.24v-4h1.24v.57a1.8,1.8,0,0,1,.58-.49,1.45,1.45,0,0,1,.66-.15q1.26,0,1.26,1.71Z" transform="translate(0.08 -0.15)" style="fill: #231f20"/>
    <path d="M219,291.84h-3.62v-.1c.14-.16.29-.34.46-.56l.65-.84.34-.47a3.15,3.15,0,0,0,.27-.45,2.09,2.09,0,0,0,.19-.48,1.59,1.59,0,0,0,.08-.53.91.91,0,0,0-.19-.61.59.59,0,0,0-.48-.23,1.62,1.62,0,0,0-1.17.68V287l.34-.24a2.64,2.64,0,0,1,.3-.18l.4-.15a2.1,2.1,0,0,1,.51-.06,1.63,1.63,0,0,1,.79.2,1.39,1.39,0,0,1,.56.59,1.79,1.79,0,0,1,.21.88,2.15,2.15,0,0,1-.1.68,2.77,2.77,0,0,1-.19.5,4.88,4.88,0,0,1-.26.47c-.2.34-.41.65-.63,1H219Z" transform="translate(0.08 -0.15)" style="fill: #231f20"/>
  </g>
  <g>
    <path d="M203.18,233.4a3,3,0,0,1-.61.28,3.3,3.3,0,0,1-.62.15,4.62,4.62,0,0,1-.65,0,3,3,0,0,1-1.12-.2,2.36,2.36,0,0,1-.85-.57,2.42,2.42,0,0,1-.55-.89,3.37,3.37,0,0,1-.18-1.12,3.11,3.11,0,0,1,.22-1.23,2.35,2.35,0,0,1,.59-.87,2.56,2.56,0,0,1,.87-.51,3.29,3.29,0,0,1,1-.17,5.14,5.14,0,0,1,1.84.41v1.44a4.8,4.8,0,0,0-.7-.42,1.88,1.88,0,0,0-.82-.16,1.71,1.71,0,0,0-.77.18,1.51,1.51,0,0,0-.58.54,1.59,1.59,0,0,0,0,1.56,1.44,1.44,0,0,0,1.31.75,2,2,0,0,0,.65-.1,2.34,2.34,0,0,0,.52-.21,4.54,4.54,0,0,0,.44-.28Z" transform="translate(0.08 -0.15)" style="fill: #231f20"/>
    <path d="M208.52,228.4l-2.15,5.48h-.94l-2.11-5.48h1.49l1.09,3.12L207,228.4Z" transform="translate(0.08 -0.15)" style="fill: #231f20"/>
    <path d="M215.6,231.2a2.87,2.87,0,0,1-.27,1.34,2.72,2.72,0,0,1-.62.81,2.06,2.06,0,0,1-1.44.46H210.7V228.4h2a4.32,4.32,0,0,1,.77,0,2.38,2.38,0,0,1,.57.15,1.91,1.91,0,0,1,.43.21,2.13,2.13,0,0,1,.32.26,2.22,2.22,0,0,1,.43.53,2.93,2.93,0,0,1,.29.72A3.08,3.08,0,0,1,215.6,231.2Zm-1.46-.07a2,2,0,0,0-.22-1,1.12,1.12,0,0,0-.53-.49,1.59,1.59,0,0,0-.64-.13h-.61v3.21h.61a1.57,1.57,0,0,0,1-.31A1.5,1.5,0,0,0,214.14,231.13Z" transform="translate(0.08 -0.15)" style="fill: #231f20"/>
  </g>
  <g>
    <path d="M53.23,255.09a3.71,3.71,0,0,1-.61.28,3.3,3.3,0,0,1-.62.15,4.63,4.63,0,0,1-.65,0,3,3,0,0,1-1.12-.19,2.38,2.38,0,0,1-.86-.58,2.45,2.45,0,0,1-.54-.89,3.33,3.33,0,0,1-.18-1.12,3.28,3.28,0,0,1,.21-1.22,2.5,2.5,0,0,1,.6-.87,2.43,2.43,0,0,1,.87-.52,3.24,3.24,0,0,1,1-.16,4.93,4.93,0,0,1,1.84.41v1.43a5.76,5.76,0,0,0-.7-.41,1.87,1.87,0,0,0-.82-.17,1.6,1.6,0,0,0-.77.19,1.41,1.41,0,0,0-.58.53,1.61,1.61,0,0,0,0,1.57,1.38,1.38,0,0,0,.53.54,1.45,1.45,0,0,0,.77.2,2.29,2.29,0,0,0,.66-.09,2.9,2.9,0,0,0,.52-.22,4.37,4.37,0,0,0,.44-.27Z" transform="translate(0.08 -0.15)" style="fill: #231f20"/>
    <path d="M58.57,250.08l-2.15,5.48h-.94l-2.11-5.48h1.49L56,253.2l1.12-3.12Z" transform="translate(0.08 -0.15)" style="fill: #231f20"/>
    <path d="M65.1,254a1.52,1.52,0,0,1-.42,1.12,1.62,1.62,0,0,1-1.17.41H60.75v-5.41h2.31a2.57,2.57,0,0,1,.77.1,1.31,1.31,0,0,1,.54.27,1.08,1.08,0,0,1,.3.4,1.18,1.18,0,0,1,.1.5,1.42,1.42,0,0,1-.1.55,1.37,1.37,0,0,1-.26.41.81.81,0,0,1-.31.23,1.93,1.93,0,0,1,.75.55A1.4,1.4,0,0,1,65.1,254Zm-1.67-2.32a.54.54,0,0,0-.23-.52,1.45,1.45,0,0,0-.71-.13h-.3v1.3h.31a1.54,1.54,0,0,0,.71-.13A.57.57,0,0,0,63.43,251.64Zm.23,2.25c0-.46-.3-.69-.89-.69h-.58v1.38h.58C63.36,254.58,63.66,254.35,63.66,253.89Z" transform="translate(0.08 -0.15)" style="fill: #231f20"/>
  </g>
  <g>
    <path d="M168.46,255.13a3.71,3.71,0,0,1-.61.28,3.3,3.3,0,0,1-.62.15,4.63,4.63,0,0,1-.65,0,3,3,0,0,1-1.12-.19,2.26,2.26,0,0,1-.85-.58,2.34,2.34,0,0,1-.55-.89,3.33,3.33,0,0,1-.18-1.12,3.09,3.09,0,0,1,.22-1.22,2.48,2.48,0,0,1,.59-.88,2.51,2.51,0,0,1,.88-.51,3.18,3.18,0,0,1,1-.17,5.14,5.14,0,0,1,1.84.41v1.44a5.76,5.76,0,0,0-.7-.41,1.87,1.87,0,0,0-.82-.17,1.6,1.6,0,0,0-.77.19,1.41,1.41,0,0,0-.58.53,1.61,1.61,0,0,0,0,1.57,1.52,1.52,0,0,0,.53.54,1.56,1.56,0,0,0,.78.2,2.27,2.27,0,0,0,.65-.09A2.9,2.9,0,0,0,168,254l.44-.27Z" transform="translate(0.08 -0.15)" style="fill: #231f20"/>
    <path d="M173.8,250.12l-2.15,5.48h-.94l-2.11-5.48h1.49l1.09,3.12,1.12-3.12Z" transform="translate(0.08 -0.15)" style="fill: #231f20"/>
    <path d="M180.25,255.13a3.71,3.71,0,0,1-.61.28,3.3,3.3,0,0,1-.62.15,4.63,4.63,0,0,1-.65,0,3,3,0,0,1-1.12-.19,2.26,2.26,0,0,1-.85-.58,2.47,2.47,0,0,1-.55-.89,3.33,3.33,0,0,1-.18-1.12,3.09,3.09,0,0,1,.22-1.22,2.48,2.48,0,0,1,.59-.88,2.51,2.51,0,0,1,.88-.51,3.18,3.18,0,0,1,1-.17,5.14,5.14,0,0,1,1.84.41v1.44a5.76,5.76,0,0,0-.7-.41,1.86,1.86,0,0,0-.81-.17,1.61,1.61,0,0,0-.78.19,1.41,1.41,0,0,0-.58.53,1.61,1.61,0,0,0,0,1.57,1.52,1.52,0,0,0,.53.54,1.56,1.56,0,0,0,.78.2,2.27,2.27,0,0,0,.65-.09,2.9,2.9,0,0,0,.52-.22c.15-.08.29-.17.44-.27Z" transform="translate(0.08 -0.15)" style="fill: #231f20"/>
  </g>
  <g>
    <path d="M19.62,72.06a1.9,1.9,0,0,1-.09.58,1.52,1.52,0,0,1-.3.54,1.41,1.41,0,0,1-.54.4,2,2,0,0,1-.82.16h-.94v2H15.49V70.35h2.38a2,2,0,0,1,.82.16,1.34,1.34,0,0,1,.54.41,1.44,1.44,0,0,1,.3.54A2,2,0,0,1,19.62,72.06Zm-1.46,0a.61.61,0,0,0-.21-.53,1.35,1.35,0,0,0-.72-.14h-.3V72.7h.31a2.51,2.51,0,0,0,.55,0,.49.49,0,0,0,.28-.19A.72.72,0,0,0,18.16,72.06Z" transform="translate(0.08 -0.15)" style="fill: #231f20"/>
    <path d="M23.56,75.57c-.18.08-.35.14-.5.19a1.77,1.77,0,0,1-.55.08.55.55,0,0,1-.43-.13.66.66,0,0,1-.17-.29,1.9,1.9,0,0,1-.44.3,1.49,1.49,0,0,1-.64.12,1.14,1.14,0,0,1-.62-.15.8.8,0,0,1-.33-.38,1.27,1.27,0,0,1-.09-.47,1,1,0,0,1,.16-.61,1.19,1.19,0,0,1,.44-.39,4.86,4.86,0,0,1,.73-.32l.39-.14.19-.08.14-.07a.83.83,0,0,0-.1-.45.5.5,0,0,0-.45-.17,1.42,1.42,0,0,0-.75.21,2.61,2.61,0,0,0-.64.52V72.26a2.55,2.55,0,0,1,.5-.3,2.81,2.81,0,0,1,.56-.18,3,3,0,0,1,.59-.06,1.69,1.69,0,0,1,1.14.33,1.16,1.16,0,0,1,.39.92v1.54a1.37,1.37,0,0,0,0,.33.14.14,0,0,0,.14.1.64.64,0,0,0,.31-.11Zm-1.72-.76v-1a3.3,3.3,0,0,0-.64.37.53.53,0,0,0-.2.44.4.4,0,0,0,.1.3.3.3,0,0,0,.23.11.46.46,0,0,0,.25-.08A2.14,2.14,0,0,0,21.84,74.81Z" transform="translate(0.08 -0.15)" style="fill: #231f20"/>
    <path d="M26.43,75.54a3.33,3.33,0,0,1-.53.2,2.19,2.19,0,0,1-.65.1c-.89,0-1.34-.5-1.34-1.49V72.77h-.56v-.25L25,70.6h.14v1.19h1.19v1H25.15V74a1.73,1.73,0,0,0,0,.36.36.36,0,0,0,.13.23.55.55,0,0,0,.34.09,1.64,1.64,0,0,0,.78-.28Z" transform="translate(0.08 -0.15)" style="fill: #231f20"/>
    <path d="M29.69,75.58a2.52,2.52,0,0,1-.33.13,3,3,0,0,1-.38.09,3.43,3.43,0,0,1-.47,0,2,2,0,0,1-1-.22,1.78,1.78,0,0,1-.62-.56,2.12,2.12,0,0,1-.29-.68,2.5,2.5,0,0,1-.09-.61,2.57,2.57,0,0,1,.09-.62,2.07,2.07,0,0,1,.29-.67,1.62,1.62,0,0,1,.61-.54,2,2,0,0,1,1-.22,2.68,2.68,0,0,1,.63.06,3.17,3.17,0,0,1,.49.17v1.11a2.85,2.85,0,0,0-.94-.22.87.87,0,0,0-.59.22.92.92,0,0,0-.25.71,1.07,1.07,0,0,0,.12.53.84.84,0,0,0,.33.32.81.81,0,0,0,.39.1,1.76,1.76,0,0,0,.42-.06l.58-.18Z" transform="translate(0.08 -0.15)" style="fill: #231f20"/>
    <path d="M33.75,75.77H32.51v-2.2A1.17,1.17,0,0,0,32.4,73a.4.4,0,0,0-.4-.23.58.58,0,0,0-.41.17,2,2,0,0,0-.34.45v2.34H30V70.35h1.24v2a1.66,1.66,0,0,1,.6-.5,1.53,1.53,0,0,1,.64-.14c.84,0,1.26.54,1.26,1.61Z" transform="translate(0.08 -0.15)" style="fill: #231f20"/>
    <path d="M39.55,74.19a1.67,1.67,0,0,1-.23.88,1.48,1.48,0,0,1-.64.57,2.13,2.13,0,0,1-.94.2l-.36,0-.57-.12a4.34,4.34,0,0,1-.74-.29V74.08a4.88,4.88,0,0,0,.71.42,1.72,1.72,0,0,0,.75.17.6.6,0,0,0,.47-.14.39.39,0,0,0,.11-.26.47.47,0,0,0-.18-.37,3.11,3.11,0,0,0-.54-.31,3.81,3.81,0,0,1-.69-.41,1.59,1.59,0,0,1-.48-.55,1.5,1.5,0,0,1-.19-.78,1.63,1.63,0,0,1,.19-.8,1.37,1.37,0,0,1,.58-.56,1.92,1.92,0,0,1,.94-.21,2.83,2.83,0,0,1,.74.09,3.29,3.29,0,0,1,.56.19,1.52,1.52,0,0,1,.3.18V72a3.33,3.33,0,0,0-.65-.43,1.6,1.6,0,0,0-.77-.19.54.54,0,0,0-.39.12.38.38,0,0,0-.12.29.38.38,0,0,0,.12.28,2.66,2.66,0,0,0,.43.28,8.07,8.07,0,0,1,.88.53,1.77,1.77,0,0,1,.52.54A1.38,1.38,0,0,1,39.55,74.19Z" transform="translate(0.08 -0.15)" style="fill: #231f20"/>
    <path d="M43.63,74.12H41.16a1,1,0,0,0,.36.59,1,1,0,0,0,.64.23,3,3,0,0,0,1.38-.4v.88a4.18,4.18,0,0,1-.66.29,3.32,3.32,0,0,1-1,.13,2,2,0,0,1-1.1-.28,1.67,1.67,0,0,1-.68-.74,2.53,2.53,0,0,1,0-2.11A1.65,1.65,0,0,1,40.8,72a2.21,2.21,0,0,1,1.1-.26,1.72,1.72,0,0,1,.82.21,1.65,1.65,0,0,1,.65.68,2.61,2.61,0,0,1,.26,1.23Zm-1.16-.7a1,1,0,0,0-.17-.61.56.56,0,0,0-.48-.23.61.61,0,0,0-.5.24.88.88,0,0,0-.19.6Z" transform="translate(0.08 -0.15)" style="fill: #231f20"/>
    <path d="M45.26,75.77H44V70.35h1.24Z" transform="translate(0.08 -0.15)" style="fill: #231f20"/>
    <path d="M49.42,74.12H47a1,1,0,0,0,.36.59,1,1,0,0,0,.64.23,3,3,0,0,0,1.38-.4v.88a4.18,4.18,0,0,1-.66.29,3.37,3.37,0,0,1-1,.13,2,2,0,0,1-1.1-.28,1.67,1.67,0,0,1-.68-.74,2.53,2.53,0,0,1,0-2.11,1.65,1.65,0,0,1,.68-.73,2.21,2.21,0,0,1,1.1-.26,1.75,1.75,0,0,1,.82.21,1.65,1.65,0,0,1,.65.68,2.61,2.61,0,0,1,.26,1.23Zm-1.16-.7a1,1,0,0,0-.17-.61.56.56,0,0,0-.48-.23.61.61,0,0,0-.5.24.88.88,0,0,0-.19.6Z" transform="translate(0.08 -0.15)" style="fill: #231f20"/>
    <path d="M52.74,75.58l-.32.13a3.75,3.75,0,0,1-.39.09,3.3,3.3,0,0,1-.47,0,2,2,0,0,1-1-.22,1.66,1.66,0,0,1-.61-.56,1.94,1.94,0,0,1-.3-.68,2.43,2.43,0,0,1-.08-.61,3.1,3.1,0,0,1,.08-.62,2.34,2.34,0,0,1,.3-.67,1.66,1.66,0,0,1,.6-.54,2,2,0,0,1,1-.22,2.68,2.68,0,0,1,.63.06,3.28,3.28,0,0,1,.5.17v1.11a3,3,0,0,0-.95-.22.84.84,0,0,0-.58.22.92.92,0,0,0-.26.71,1,1,0,0,0,.13.53.76.76,0,0,0,.32.32.81.81,0,0,0,.39.1,1.77,1.77,0,0,0,.43-.06c.15,0,.35-.1.57-.18Z" transform="translate(0.08 -0.15)" style="fill: #231f20"/>
    <path d="M55.82,75.54a3,3,0,0,1-.53.2,2.14,2.14,0,0,1-.65.1c-.89,0-1.33-.5-1.33-1.49V72.77h-.56v-.25l1.66-1.92h.14v1.19h1.18v1H54.55V74a3.21,3.21,0,0,0,0,.36.37.37,0,0,0,.14.23.51.51,0,0,0,.34.09,1.65,1.65,0,0,0,.77-.28Z" transform="translate(0.08 -0.15)" style="fill: #231f20"/>
  </g>
  <g>
    <path d="M102.84,322.44a3,3,0,0,1-.61.28,3.3,3.3,0,0,1-.62.15,4.62,4.62,0,0,1-.65.05,3,3,0,0,1-1.12-.2,2.26,2.26,0,0,1-.85-.58,2.34,2.34,0,0,1-.55-.89,3.33,3.33,0,0,1-.18-1.12,3.28,3.28,0,0,1,.21-1.22,2.5,2.5,0,0,1,.6-.87,2.58,2.58,0,0,1,.87-.52,3.24,3.24,0,0,1,1-.16,4.93,4.93,0,0,1,1.84.41v1.43a5.76,5.76,0,0,0-.7-.41,1.87,1.87,0,0,0-.82-.17,1.72,1.72,0,0,0-.77.19,1.49,1.49,0,0,0-.8,1.35,1.49,1.49,0,0,0,.19.75,1.38,1.38,0,0,0,.53.54,1.45,1.45,0,0,0,.77.2,2.34,2.34,0,0,0,.66-.09,2.94,2.94,0,0,0,.52-.21,4.54,4.54,0,0,0,.44-.28Z" transform="translate(0.08 -0.15)" style="fill: #fff"/>
    <path d="M104.62,322.85h-1.24v-5.42h1.24Z" transform="translate(0.08 -0.15)" style="fill: #fff"/>
    <path d="M109.06,320.85a2.39,2.39,0,0,1-.23,1.06,1.73,1.73,0,0,1-.68.74,2.11,2.11,0,0,1-1.1.27,2.09,2.09,0,0,1-1.1-.27,1.73,1.73,0,0,1-.68-.74,2.39,2.39,0,0,1-.23-1.06,2.55,2.55,0,0,1,.13-.81,1.77,1.77,0,0,1,.38-.65,1.67,1.67,0,0,1,.63-.44,2.6,2.6,0,0,1,1.74,0,1.72,1.72,0,0,1,.63.43,2,2,0,0,1,.38.65A2.66,2.66,0,0,1,109.06,320.85Zm-1.31,0a1.33,1.33,0,0,0-.18-.74.65.65,0,0,0-1,0,1.33,1.33,0,0,0-.18.74,1.36,1.36,0,0,0,.18.75.64.64,0,0,0,1,0A1.34,1.34,0,0,0,107.75,320.85Z" transform="translate(0.08 -0.15)" style="fill: #fff"/>
    <path d="M112.41,322.66a1.75,1.75,0,0,1-.32.12,2.22,2.22,0,0,1-.39.1,3.3,3.3,0,0,1-.47,0,2.07,2.07,0,0,1-1-.22,1.74,1.74,0,0,1-.61-.56,2.4,2.4,0,0,1-.3-.68,2.4,2.4,0,0,1,0-1.23,2.34,2.34,0,0,1,.3-.67,1.66,1.66,0,0,1,.6-.54,2,2,0,0,1,1-.22,2.68,2.68,0,0,1,.63.06,3.28,3.28,0,0,1,.5.17v1.1a3.1,3.1,0,0,0-1-.21.84.84,0,0,0-.58.22.91.91,0,0,0-.26.71,1,1,0,0,0,.13.53.82.82,0,0,0,.32.32.81.81,0,0,0,.39.1,1.77,1.77,0,0,0,.43-.06c.16,0,.35-.11.57-.18Z" transform="translate(0.08 -0.15)" style="fill: #fff"/>
    <path d="M116.89,322.85h-1.57L114,321v1.89h-1.25v-5.42H114v3.18l1.23-1.74h1.48l-1.37,1.85Z" transform="translate(0.08 -0.15)" style="fill: #fff"/>
    <path d="M124.12,320.13a3.23,3.23,0,0,1-.31,1.4,2.42,2.42,0,0,1-.92,1,2.76,2.76,0,0,1-1.48.38,2.69,2.69,0,0,1-1.49-.39,2.38,2.38,0,0,1-.91-1,3.19,3.19,0,0,1-.3-1.37,3.14,3.14,0,0,1,.3-1.36,2.39,2.39,0,0,1,.9-1,2.75,2.75,0,0,1,1.5-.39,3,3,0,0,1,1.18.22,2.42,2.42,0,0,1,.85.6,2.6,2.6,0,0,1,.5.89A3.15,3.15,0,0,1,124.12,320.13Zm-1.47,0a1.63,1.63,0,0,0-.08-.55,1.18,1.18,0,0,0-.24-.44,1.05,1.05,0,0,0-.39-.29,1.25,1.25,0,0,0-.53-.1,1.16,1.16,0,0,0-.91.38,1.49,1.49,0,0,0-.33,1,1.45,1.45,0,0,0,.34,1,1.12,1.12,0,0,0,.9.39,1.25,1.25,0,0,0,.68-.18,1.19,1.19,0,0,0,.42-.49A1.83,1.83,0,0,0,122.65,320.13Z" transform="translate(0.08 -0.15)" style="fill: #fff"/>
    <path d="M128.21,322.85H127v-.57a1.88,1.88,0,0,1-.55.48,1.46,1.46,0,0,1-.69.16,1,1,0,0,1-1-.53,2.81,2.81,0,0,1-.24-1.19v-2.33h1.24V321a1.48,1.48,0,0,0,.1.57.39.39,0,0,0,.41.24.55.55,0,0,0,.43-.18,2.18,2.18,0,0,0,.32-.45v-2.33h1.24Z" transform="translate(0.08 -0.15)" style="fill: #fff"/>
    <path d="M131.48,322.61a2.15,2.15,0,0,1-.53.21,2.5,2.5,0,0,1-.65.1c-.89,0-1.33-.5-1.33-1.49v-1.58h-.56v-.25l1.66-1.92h.14v1.19h1.18v1h-1.18v1.27a3.21,3.21,0,0,0,0,.36.37.37,0,0,0,.14.23.53.53,0,0,0,.34.09,1.77,1.77,0,0,0,.77-.28Z" transform="translate(0.08 -0.15)" style="fill: #fff"/>
  </g>
  <g>
    <path d="M106,271.6a3.23,3.23,0,0,1-.6.28,3.6,3.6,0,0,1-.63.15,4.62,4.62,0,0,1-.65.05,3,3,0,0,1-1.12-.2,2.45,2.45,0,0,1-.85-.57,2.53,2.53,0,0,1-.54-.89,3.37,3.37,0,0,1-.19-1.12,3.29,3.29,0,0,1,.22-1.23,2.35,2.35,0,0,1,.59-.87,2.51,2.51,0,0,1,.88-.51,3.18,3.18,0,0,1,1-.17,5.14,5.14,0,0,1,1.84.41v1.44a4.8,4.8,0,0,0-.7-.42,1.86,1.86,0,0,0-.81-.16,1.72,1.72,0,0,0-.78.18,1.58,1.58,0,0,0-.58.54,1.45,1.45,0,0,0-.22.81,1.47,1.47,0,0,0,.19.75,1.47,1.47,0,0,0,1.31.75,2.27,2.27,0,0,0,.65-.1,2.66,2.66,0,0,0,.53-.21,4.46,4.46,0,0,0,.43-.28Z" transform="translate(0.08 -0.15)" style="fill: #231f20"/>
    <path d="M107.8,272h-1.24v-5.42h1.24Z" transform="translate(0.08 -0.15)" style="fill: #231f20"/>
    <path d="M112.24,270a2.35,2.35,0,0,1-.23,1.05,1.73,1.73,0,0,1-.68.74,2.38,2.38,0,0,1-2.2,0,1.73,1.73,0,0,1-.68-.74,2.35,2.35,0,0,1-.22-1.05,2.66,2.66,0,0,1,.12-.82,1.92,1.92,0,0,1,.38-.65,1.88,1.88,0,0,1,.63-.44,2.33,2.33,0,0,1,.87-.15,2.23,2.23,0,0,1,.88.16,1.65,1.65,0,0,1,.63.43,1.81,1.81,0,0,1,.37.65A2.35,2.35,0,0,1,112.24,270Zm-1.3,0a1.28,1.28,0,0,0-.18-.74.61.61,0,0,0-.53-.27.58.58,0,0,0-.52.27,1.28,1.28,0,0,0-.18.74,1.33,1.33,0,0,0,.18.74.59.59,0,0,0,.52.27.61.61,0,0,0,.53-.27A1.33,1.33,0,0,0,110.94,270Z" transform="translate(0.08 -0.15)" style="fill: #231f20"/>
    <path d="M115.6,271.82l-.33.13a1.87,1.87,0,0,1-.39.09,2.25,2.25,0,0,1-.46,0,2,2,0,0,1-1-.22,1.74,1.74,0,0,1-.61-.56,2.4,2.4,0,0,1-.3-.68,2.92,2.92,0,0,1-.08-.61,2.43,2.43,0,0,1,.09-.61,2,2,0,0,1,.29-.68,1.71,1.71,0,0,1,.61-.54,2,2,0,0,1,1-.22,2.8,2.8,0,0,1,.63.06,4.75,4.75,0,0,1,.49.17v1.11a2.9,2.9,0,0,0-.94-.22.83.83,0,0,0-.59.23.88.88,0,0,0-.25.7,1.07,1.07,0,0,0,.12.53.78.78,0,0,0,.33.32.81.81,0,0,0,.39.1,1.76,1.76,0,0,0,.42-.06l.58-.18Z" transform="translate(0.08 -0.15)" style="fill: #231f20"/>
    <path d="M120.08,272h-1.57l-1.35-1.89V272h-1.25v-5.42h1.25v3.18l1.23-1.74h1.48l-1.36,1.86Z" transform="translate(0.08 -0.15)" style="fill: #231f20"/>
    <path d="M123.65,272h-1.44v-5.42h1.44Z" transform="translate(0.08 -0.15)" style="fill: #231f20"/>
    <path d="M128.1,272h-1.24v-2.15a1.66,1.66,0,0,0-.09-.57.4.4,0,0,0-.42-.24.53.53,0,0,0-.26.06.87.87,0,0,0-.21.17l-.15.19-.13.2V272h-1.24v-4h1.24v.57a1.87,1.87,0,0,1,.59-.5,1.51,1.51,0,0,1,.65-.14q1.26,0,1.26,1.71Z" transform="translate(0.08 -0.15)" style="fill: #231f20"/>
  </g>
  <g>
    <path d="M91.74,354.65h-1.9v-4.31l-1.71,2.49H88l-1.72-2.49v4.31H84.42v-7.44h1.72L88.07,350l2-2.79h1.72Z" transform="translate(0.08 -0.15)" style="fill: #231f20"/>
    <path d="M97.7,352.38H94.45a1.34,1.34,0,0,0,.47.82,1.28,1.28,0,0,0,.84.32,4,4,0,0,0,1.83-.55v1.2a5.09,5.09,0,0,1-.87.4,4,4,0,0,1-1.3.18,2.71,2.71,0,0,1-1.46-.38,2.38,2.38,0,0,1-.89-1,3.43,3.43,0,0,1-.3-1.46,3.31,3.31,0,0,1,.3-1.44,2.28,2.28,0,0,1,.89-1,2.8,2.8,0,0,1,1.46-.36,2.23,2.23,0,0,1,1.08.28,2.28,2.28,0,0,1,.87.94A3.77,3.77,0,0,1,97.7,352Zm-1.53-.95a1.42,1.42,0,0,0-.22-.84.73.73,0,0,0-.63-.32.79.79,0,0,0-.66.32,1.32,1.32,0,0,0-.26.84Z" transform="translate(0.08 -0.15)" style="fill: #231f20"/>
    <path d="M102.06,354.33a3.26,3.26,0,0,1-.7.28,3,3,0,0,1-.86.14c-1.17,0-1.76-.68-1.76-2v-2.18H98v-.34l2.19-2.65h.19v1.64h1.56v1.35h-1.56v1.75a3.19,3.19,0,0,0,0,.49.47.47,0,0,0,.18.31.63.63,0,0,0,.44.13,2.15,2.15,0,0,0,1-.39Z" transform="translate(0.08 -0.15)" style="fill: #231f20"/>
    <path d="M107.48,354.38q-.36.17-.66.27a2.65,2.65,0,0,1-.74.1.78.78,0,0,1-.56-.17,1.18,1.18,0,0,1-.23-.41,2.35,2.35,0,0,1-.58.41,1.89,1.89,0,0,1-.85.17,1.43,1.43,0,0,1-.81-.21,1.16,1.16,0,0,1-.44-.52,1.82,1.82,0,0,1-.12-.65,1.53,1.53,0,0,1,.21-.83,1.77,1.77,0,0,1,.58-.54,7.09,7.09,0,0,1,1-.44l.51-.19.26-.11a.81.81,0,0,0,.18-.1,1.22,1.22,0,0,0-.13-.62c-.09-.15-.29-.22-.59-.22a1.87,1.87,0,0,0-1,.28,3.5,3.5,0,0,0-.84.72v-1.49a3.34,3.34,0,0,1,.66-.42,3.2,3.2,0,0,1,.74-.24,3.44,3.44,0,0,1,.78-.08,2.21,2.21,0,0,1,1.51.45,1.63,1.63,0,0,1,.51,1.27v2.11a1.32,1.32,0,0,0,0,.45.18.18,0,0,0,.17.15.89.89,0,0,0,.42-.16Zm-2.28-1.05V352a4.22,4.22,0,0,0-.84.51.74.74,0,0,0-.27.6.6.6,0,0,0,.13.42.39.39,0,0,0,.31.14.57.57,0,0,0,.34-.11A2.5,2.5,0,0,0,105.2,353.33Z" transform="translate(0.08 -0.15)" style="fill: #231f20"/>
    <path d="M118.15,354.65h-1.9v-4.31l-1.71,2.49h-.15l-1.71-2.49v4.31h-1.85v-7.44h1.72l1.94,2.79,1.94-2.79h1.72Z" transform="translate(0.08 -0.15)" style="fill: #231f20"/>
    <path d="M124.48,351.91a3.4,3.4,0,0,1-.3,1.46,2.37,2.37,0,0,1-.9,1,2.74,2.74,0,0,1-1.45.37,2.8,2.8,0,0,1-1.46-.37,2.42,2.42,0,0,1-.89-1,3.4,3.4,0,0,1-.3-1.46,3.56,3.56,0,0,1,.17-1.12,2.64,2.64,0,0,1,.5-.9,2.25,2.25,0,0,1,.83-.59,3.25,3.25,0,0,1,2.3,0,2.2,2.2,0,0,1,.83.59,2.6,2.6,0,0,1,.5.89A3.67,3.67,0,0,1,124.48,351.91Zm-1.72,0a1.88,1.88,0,0,0-.24-1,.84.84,0,0,0-1.38,0,2.29,2.29,0,0,0,0,2,.82.82,0,0,0,1.38,0A1.85,1.85,0,0,0,122.76,351.91Z" transform="translate(0.08 -0.15)" style="fill: #231f20"/>
    <path d="M130.12,354.65h-1.63v-.49a3,3,0,0,1-.55.42,1.61,1.61,0,0,1-.8.17,1.9,1.9,0,0,1-1-.3,2.21,2.21,0,0,1-.8-.92A3.64,3.64,0,0,1,125,352a4.08,4.08,0,0,1,.24-1.4,2.35,2.35,0,0,1,.74-1.06,1.88,1.88,0,0,1,1.23-.4,2.18,2.18,0,0,1,.74.11,2.29,2.29,0,0,1,.5.3v-2.29h1.63Zm-1.63-1.74v-2.09l-.45-.27a.92.92,0,0,0-.38-.08.74.74,0,0,0-.64.39,1.9,1.9,0,0,0-.26,1.05A1.68,1.68,0,0,0,127,353a.8.8,0,0,0,.63.33,1,1,0,0,0,.48-.11A2.86,2.86,0,0,0,128.49,352.91Z" transform="translate(0.08 -0.15)" style="fill: #231f20"/>
    <path d="M135.93,354.65H134.3v-.78a2.77,2.77,0,0,1-.73.66,1.86,1.86,0,0,1-.91.22,1.29,1.29,0,0,1-1.35-.73,4,4,0,0,1-.31-1.63v-3.21h1.63v3a2.13,2.13,0,0,0,.13.78.51.51,0,0,0,.54.33.72.72,0,0,0,.57-.24,3.87,3.87,0,0,0,.43-.62v-3.21h1.63Z" transform="translate(0.08 -0.15)" style="fill: #231f20"/>
    <path d="M138.61,354.65H137v-7.44h1.64Z" transform="translate(0.08 -0.15)" style="fill: #231f20"/>
    <path d="M144.38,352.38h-3.26a1.39,1.39,0,0,0,.47.82,1.28,1.28,0,0,0,.85.32,3.89,3.89,0,0,0,1.82-.55v1.2a5.09,5.09,0,0,1-.87.4,4,4,0,0,1-1.3.18,2.68,2.68,0,0,1-1.45-.38,2.34,2.34,0,0,1-.9-1,3.43,3.43,0,0,1-.29-1.46,3.31,3.31,0,0,1,.29-1.44,2.24,2.24,0,0,1,.9-1,2.76,2.76,0,0,1,1.45-.36,2.24,2.24,0,0,1,1.09.28,2.2,2.2,0,0,1,.86.94,3.63,3.63,0,0,1,.34,1.69Zm-1.53-.95a1.49,1.49,0,0,0-.22-.84.74.74,0,0,0-.64-.32.81.81,0,0,0-.66.32,1.31,1.31,0,0,0-.25.84Z" transform="translate(0.08 -0.15)" style="fill: #231f20"/>
  </g>
  <g>
    <path d="M121.12,5.58l-6.91,8.79V6.84a1.61,1.61,0,0,0-.81-1.47,1.13,1.13,0,0,0-1.41.37L102.9,17.3a1.85,1.85,0,0,0,0,2.24,1.14,1.14,0,0,0,1.83-.05l6.87-8.73v7.53a1.61,1.61,0,0,0,.81,1.47,1.12,1.12,0,0,0,1.41-.37l6.91-8.79v7.69a1.32,1.32,0,1,0,2.58,0V6.68a1.63,1.63,0,0,0-.8-1.47A1.15,1.15,0,0,0,121.12,5.58Z" transform="translate(0.08 -0.15)" style="fill: #020202;stroke: #020202;stroke-miterlimit: 10"/>
    <path d="M102.9,5.49l-6,7.66a1.85,1.85,0,0,0,0,2.24,1.12,1.12,0,0,0,1.82,0s2-2.59,3.81-4.84v7.88a1.32,1.32,0,1,0,2.58,0V6.59a1.63,1.63,0,0,0-.81-1.47A1.13,1.13,0,0,0,102.9,5.49Z" transform="translate(0.08 -0.15)" style="fill: #020202;stroke: #020202;stroke-miterlimit: 10"/>
    <path d="M131.58,11.14a1.3,1.3,0,0,0-1.18-1h-2.64l1.93-2.44s1-1.47.11-2.28-2,.08-2,.08l-4,5.12a1.84,1.84,0,0,0-.26,1.72,1.31,1.31,0,0,0,1.19,1h2.63l-3.12,4s-1.29,1.41-.34,2.36,2.2-.17,2.2-.17l5.22-6.64A1.84,1.84,0,0,0,131.58,11.14Z" transform="translate(0.08 -0.15)" style="fill: #020202;stroke: #020202;stroke-miterlimit: 10"/>
  </g>
  <circle cx="197.69" cy="55.95" r="20.15" style="fill: none;stroke: #231f20;stroke-width: 2px;stroke-dasharray: 4.019052505493164,2.009526252746582"/>
  <g>
    <path d="M25.1,91.54a19.76,19.76,0,0,1,2.45.17l.39-2.22a21.32,21.32,0,0,0-5.68,0l.39,2.22A19.76,19.76,0,0,1,25.1,91.54Z" transform="translate(0.08 -0.15)"/>
    <path d="M39.59,97.91l1.73-1.45A22.06,22.06,0,0,0,37,92.8l-1.12,1.94A20.2,20.2,0,0,1,39.59,97.91Z" transform="translate(0.08 -0.15)"/>
    <path d="M34.13,93.74l1.12-1.95a21.72,21.72,0,0,0-5.34-2l-.39,2.21A20.17,20.17,0,0,1,34.13,93.74Z" transform="translate(0.08 -0.15)"/>
    <path d="M43.33,103.68l2.1-.77A21.63,21.63,0,0,0,42.6,98l-1.73,1.45A19.64,19.64,0,0,1,43.33,103.68Z" transform="translate(0.08 -0.15)"/>
    <path d="M20.68,92.05l-.39-2.21a21.87,21.87,0,0,0-5.34,2l1.13,1.95A19.19,19.19,0,0,1,20.68,92.05Z" transform="translate(0.08 -0.15)"/>
    <path d="M44.82,110.37h2.26a22.41,22.41,0,0,0-1-5.58l-2.11.77A20.08,20.08,0,0,1,44.82,110.37Z" transform="translate(0.08 -0.15)"/>
    <path d="M44,117.17l2.1.76a21.57,21.57,0,0,0,1-5.56H44.83A19.37,19.37,0,0,1,44,117.17Z" transform="translate(0.08 -0.15)"/>
    <path d="M40.81,123.25l1.72,1.44a22.46,22.46,0,0,0,2.84-4.88l-2.1-.76A20.35,20.35,0,0,1,40.81,123.25Z" transform="translate(0.08 -0.15)"/>
    <path d="M9.33,99.44,7.6,98a22,22,0,0,0-2.83,4.92l2.1.76A19.81,19.81,0,0,1,9.33,99.44Z" transform="translate(0.08 -0.15)"/>
    <path d="M6.19,105.55l-2.1-.76a21.88,21.88,0,0,0-1,5.58H5.38A20.25,20.25,0,0,1,6.19,105.55Z" transform="translate(0.08 -0.15)"/>
    <path d="M5.37,112.37H3.14a21.57,21.57,0,0,0,1,5.56l2.1-.76A19.37,19.37,0,0,1,5.37,112.37Z" transform="translate(0.08 -0.15)"/>
    <path d="M6.94,119.05l-2.11.76a22.46,22.46,0,0,0,2.84,4.88l1.72-1.44A19.87,19.87,0,0,1,6.94,119.05Z" transform="translate(0.08 -0.15)"/>
    <path d="M35.79,127.89l1.12,1.94a22.2,22.2,0,0,0,4.32-3.62l-1.71-1.44A19.68,19.68,0,0,1,35.79,127.89Z" transform="translate(0.08 -0.15)"/>
    <path d="M10.68,124.77,9,126.21a22.2,22.2,0,0,0,4.32,3.62l1.12-1.94A19.37,19.37,0,0,1,10.68,124.77Z" transform="translate(0.08 -0.15)"/>
    <path d="M14.34,94.74,13.22,92.8a22.06,22.06,0,0,0-4.34,3.66l1.73,1.45A20.2,20.2,0,0,1,14.34,94.74Z" transform="translate(0.08 -0.15)"/>
  </g>
  <g>
    <path d="M83,127.8a19.92,19.92,0,0,1,2.46.17l.39-2.21a21.4,21.4,0,0,0-5.69,0l.39,2.21A19.9,19.9,0,0,1,83,127.8Z" transform="translate(0.08 -0.15)"/>
    <path d="M97.53,134.17l1.72-1.45a22.35,22.35,0,0,0-4.34-3.65L93.79,131A20.21,20.21,0,0,1,97.53,134.17Z" transform="translate(0.08 -0.15)"/>
    <path d="M92.06,130l1.12-1.94a22.08,22.08,0,0,0-5.33-2l-.39,2.22A19.77,19.77,0,0,1,92.06,130Z" transform="translate(0.08 -0.15)"/>
    <path d="M101.27,139.94l2.1-.77a22.2,22.2,0,0,0-2.84-4.91l-1.72,1.45A19.81,19.81,0,0,1,101.27,139.94Z" transform="translate(0.08 -0.15)"/>
    <path d="M78.61,128.32l-.39-2.22a22.08,22.08,0,0,0-5.33,2L74,130A19.61,19.61,0,0,1,78.61,128.32Z" transform="translate(0.08 -0.15)"/>
    <path d="M102.75,146.64H105a21.81,21.81,0,0,0-1-5.58l-2.11.76A19.68,19.68,0,0,1,102.75,146.64Z" transform="translate(0.08 -0.15)"/>
    <path d="M101.89,153.43l2.1.77a22.17,22.17,0,0,0,1-5.56h-2.24A19.75,19.75,0,0,1,101.89,153.43Z" transform="translate(0.08 -0.15)"/>
    <path d="M98.75,159.51l1.71,1.44a22,22,0,0,0,2.84-4.87l-2.1-.77A19.8,19.8,0,0,1,98.75,159.51Z" transform="translate(0.08 -0.15)"/>
    <path d="M67.26,135.71l-1.73-1.45a22.16,22.16,0,0,0-2.83,4.91l2.1.77A19.81,19.81,0,0,1,67.26,135.71Z" transform="translate(0.08 -0.15)"/>
    <path d="M64.13,141.82,62,141.05a22,22,0,0,0-1,5.58h2.26A19.6,19.6,0,0,1,64.13,141.82Z" transform="translate(0.08 -0.15)"/>
    <path d="M63.31,148.63H61.07a22.17,22.17,0,0,0,1,5.57l2.1-.77A19.74,19.74,0,0,1,63.31,148.63Z" transform="translate(0.08 -0.15)"/>
    <path d="M64.87,155.31l-2.11.77A22.63,22.63,0,0,0,65.6,161l1.72-1.44A19.63,19.63,0,0,1,64.87,155.31Z" transform="translate(0.08 -0.15)"/>
    <path d="M93.73,164.16l1.11,1.93a21.86,21.86,0,0,0,4.32-3.61L97.45,161A20.39,20.39,0,0,1,93.73,164.16Z" transform="translate(0.08 -0.15)"/>
    <path d="M68.61,161l-1.71,1.44a22.51,22.51,0,0,0,4.32,3.61l1.12-1.93A20.45,20.45,0,0,1,68.61,161Z" transform="translate(0.08 -0.15)"/>
    <path d="M72.28,131l-1.12-1.95a22.46,22.46,0,0,0-4.35,3.66l1.73,1.45A19.52,19.52,0,0,1,72.28,131Z" transform="translate(0.08 -0.15)"/>
  </g>
  <g>
    <path d="M145.51,127.82A19.9,19.9,0,0,1,148,128l.39-2.21a20.34,20.34,0,0,0-5.69,0l.39,2.21A19.92,19.92,0,0,1,145.51,127.82Z" transform="translate(0.08 -0.15)"/>
    <path d="M160,134.19l1.72-1.45a21.77,21.77,0,0,0-4.34-3.66L156.26,131A19.52,19.52,0,0,1,160,134.19Z" transform="translate(0.08 -0.15)"/>
    <path d="M154.53,130l1.13-1.94a21.89,21.89,0,0,0-5.34-2l-.39,2.21A20.09,20.09,0,0,1,154.53,130Z" transform="translate(0.08 -0.15)"/>
    <path d="M163.74,140l2.1-.77a22.16,22.16,0,0,0-2.83-4.91l-1.73,1.45A19.81,19.81,0,0,1,163.74,140Z" transform="translate(0.08 -0.15)"/>
    <path d="M141.08,128.33l-.38-2.21a21.59,21.59,0,0,0-5.34,2l1.12,1.94A20.09,20.09,0,0,1,141.08,128.33Z" transform="translate(0.08 -0.15)"/>
    <path d="M165.22,146.65h2.26a22,22,0,0,0-1-5.58l-2.11.77A19.14,19.14,0,0,1,165.22,146.65Z" transform="translate(0.08 -0.15)"/>
    <path d="M164.36,153.45l2.1.77a22.17,22.17,0,0,0,1-5.57h-2.24A19.74,19.74,0,0,1,164.36,153.45Z" transform="translate(0.08 -0.15)"/>
    <path d="M161.22,159.53l1.71,1.44a22.06,22.06,0,0,0,2.84-4.88l-2.1-.76A19.63,19.63,0,0,1,161.22,159.53Z" transform="translate(0.08 -0.15)"/>
    <path d="M129.73,135.72,128,134.28a22.33,22.33,0,0,0-2.83,4.91l2.11.77A19.43,19.43,0,0,1,129.73,135.72Z" transform="translate(0.08 -0.15)"/>
    <path d="M126.6,141.84l-2.11-.77a22,22,0,0,0-1,5.58h2.26A19.6,19.6,0,0,1,126.6,141.84Z" transform="translate(0.08 -0.15)"/>
    <path d="M125.78,148.65h-2.24a22,22,0,0,0,1,5.56l2.1-.76A19.74,19.74,0,0,1,125.78,148.65Z" transform="translate(0.08 -0.15)"/>
    <path d="M127.34,155.33l-2.1.76a22.06,22.06,0,0,0,2.84,4.88l1.71-1.44A19.87,19.87,0,0,1,127.34,155.33Z" transform="translate(0.08 -0.15)"/>
    <path d="M156.2,164.17l1.12,1.94a22.13,22.13,0,0,0,4.31-3.62l-1.71-1.43A19.94,19.94,0,0,1,156.2,164.17Z" transform="translate(0.08 -0.15)"/>
    <path d="M131.09,161.05l-1.72,1.44a22.5,22.5,0,0,0,4.32,3.62l1.12-1.94A19.62,19.62,0,0,1,131.09,161.05Z" transform="translate(0.08 -0.15)"/>
    <path d="M134.75,131l-1.12-1.94a22.06,22.06,0,0,0-4.34,3.66l1.72,1.45A19.94,19.94,0,0,1,134.75,131Z" transform="translate(0.08 -0.15)"/>
  </g>
  <g>
    <path d="M203.94,91.54a19.76,19.76,0,0,1,2.45.17l.39-2.22a21.32,21.32,0,0,0-5.68,0l.39,2.22A19.76,19.76,0,0,1,203.94,91.54Z" transform="translate(0.08 -0.15)"/>
    <path d="M218.43,97.91l1.73-1.45a22.06,22.06,0,0,0-4.34-3.66l-1.12,1.94A20.2,20.2,0,0,1,218.43,97.91Z" transform="translate(0.08 -0.15)"/>
    <path d="M213,93.74l1.12-1.95a21.87,21.87,0,0,0-5.34-2l-.39,2.21A20.17,20.17,0,0,1,213,93.74Z" transform="translate(0.08 -0.15)"/>
    <path d="M222.17,103.68l2.1-.77A22,22,0,0,0,221.44,98l-1.73,1.45A19.64,19.64,0,0,1,222.17,103.68Z" transform="translate(0.08 -0.15)"/>
    <path d="M199.52,92.05l-.39-2.21a21.87,21.87,0,0,0-5.34,2l1.12,1.95A19.43,19.43,0,0,1,199.52,92.05Z" transform="translate(0.08 -0.15)"/>
    <path d="M223.66,110.37h2.25a22,22,0,0,0-1-5.58l-2.1.77A20.08,20.08,0,0,1,223.66,110.37Z" transform="translate(0.08 -0.15)"/>
    <path d="M222.79,117.17l2.1.76a21.57,21.57,0,0,0,1-5.56h-2.23A19.37,19.37,0,0,1,222.79,117.17Z" transform="translate(0.08 -0.15)"/>
    <path d="M219.65,123.25l1.72,1.44a22.46,22.46,0,0,0,2.84-4.88l-2.11-.76A19.87,19.87,0,0,1,219.65,123.25Z" transform="translate(0.08 -0.15)"/>
    <path d="M188.17,99.44,186.44,98a21.63,21.63,0,0,0-2.83,4.92l2.1.76A19.81,19.81,0,0,1,188.17,99.44Z" transform="translate(0.08 -0.15)"/>
    <path d="M185,105.55l-2.1-.76a21.46,21.46,0,0,0-1,5.58h2.25A20.25,20.25,0,0,1,185,105.55Z" transform="translate(0.08 -0.15)"/>
    <path d="M184.21,112.37H182a21.57,21.57,0,0,0,1,5.56l2.1-.76A19.37,19.37,0,0,1,184.21,112.37Z" transform="translate(0.08 -0.15)"/>
    <path d="M185.78,119.05l-2.11.76a22.06,22.06,0,0,0,2.84,4.88l1.71-1.44A20.27,20.27,0,0,1,185.78,119.05Z" transform="translate(0.08 -0.15)"/>
    <path d="M214.63,127.89l1.12,1.94a22.2,22.2,0,0,0,4.32-3.62l-1.71-1.44A19.68,19.68,0,0,1,214.63,127.89Z" transform="translate(0.08 -0.15)"/>
    <path d="M189.52,124.77l-1.71,1.44a21.91,21.91,0,0,0,4.32,3.62l1.11-1.94A19.62,19.62,0,0,1,189.52,124.77Z" transform="translate(0.08 -0.15)"/>
    <path d="M193.18,94.74l-1.12-1.94a22.06,22.06,0,0,0-4.34,3.66l1.73,1.45A20.2,20.2,0,0,1,193.18,94.74Z" transform="translate(0.08 -0.15)"/>
  </g>
  <path d="M23.45,332.76A16.09,16.09,0,1,0,7.36,316.68,16.08,16.08,0,0,0,23.45,332.76Z" transform="translate(0.08 -0.15)" style="fill: none;stroke: #231f20;stroke-miterlimit: 10"/>
  <path d="M68.7,301.33l-29.42.24.15.14c5.68,2.86,8.6,8.54,8.6,15.09s-3,12.25-8.65,15.11l-.14.11,29.46-.24a15.23,15.23,0,1,0,0-30.45Z" transform="translate(0.08 -0.15)" style="fill: none;stroke: #231f20;stroke-miterlimit: 10"/>
  <path d="M163.13,332.76A16.09,16.09,0,1,0,147,316.68,16.08,16.08,0,0,0,163.13,332.76Z" transform="translate(0.08 -0.15)" style="fill: #231f20"/>
  <path d="M133.4,250a18.66,18.66,0,0,0-37.32,0c0,.41,0,.82.06,1.23a2,2,0,0,0-.06.43V281.5a1.72,1.72,0,0,0,1.72,1.72c8.54-12.17,24.76-12.07,33.89-.6a1.71,1.71,0,0,0,1.71-1.72V250.62a1.23,1.23,0,0,0,0-.19C133.39,250.29,133.4,250.16,133.4,250Z" transform="translate(0.08 -0.15)" style="fill: none;stroke: #231f20"/>
  <path d="M208.4,301.33l-34.6.24v.14c5.68,2.86,8.75,8.54,8.75,15.09s-3.09,12.25-8.8,15.11V332l34.65-.24a15.23,15.23,0,1,0,0-30.45Z" transform="translate(0.08 -0.15)" style="fill: #231f20"/>
  <polyline points="156.31 256.9 140.22 256.9 140.22 289.07 156.31 289.07" style="fill: #231f20"/>
  <polyline points="73.88 289.67 89.97 289.67 89.97 257.5 73.88 257.5" style="fill: #231f20"/>
  <path d="M73.77,290a16.09,16.09,0,1,0-16.08-16.09A16.09,16.09,0,0,0,73.77,290Z" transform="translate(0.08 -0.15)" style="fill: #231f20"/>
  <path d="M156.23,289.22a16.09,16.09,0,1,0-16.09-16.08A16.08,16.08,0,0,0,156.23,289.22Z" transform="translate(0.08 -0.15)" style="fill: #231f20"/>
  <g>
    <path d="M24.27,157a11.46,11.46,0,0,0-1.56.11l-.25-1.41a15.42,15.42,0,0,1,1.81-.12,15.25,15.25,0,0,1,1.8.12l-.25,1.41A11.42,11.42,0,0,0,24.27,157Z" transform="translate(0.08 -0.15)"/>
    <path d="M15.08,161l-1.1-.92a13.87,13.87,0,0,1,2.75-2.32l.72,1.23A12.37,12.37,0,0,0,15.08,161Z" transform="translate(0.08 -0.15)"/>
    <path d="M18.54,158.37l-.71-1.24a14.1,14.1,0,0,1,3.38-1.24l.25,1.41A12,12,0,0,0,18.54,158.37Z" transform="translate(0.08 -0.15)"/>
    <path d="M12.71,164.67l-1.33-.49a14,14,0,0,1,1.79-3.12l1.1.92A12,12,0,0,0,12.71,164.67Z" transform="translate(0.08 -0.15)"/>
    <path d="M27.07,157.3l.25-1.41a14.1,14.1,0,0,1,3.38,1.24L30,158.37A11.88,11.88,0,0,0,27.07,157.3Z" transform="translate(0.08 -0.15)"/>
    <path d="M11.77,168.91H10.33a14.26,14.26,0,0,1,.61-3.54l1.34.49A12.32,12.32,0,0,0,11.77,168.91Z" transform="translate(0.08 -0.15)"/>
    <path d="M12.31,173.22,11,173.7a13.84,13.84,0,0,1-.64-3.52h1.42A12.93,12.93,0,0,0,12.31,173.22Z" transform="translate(0.08 -0.15)"/>
    <path d="M14.3,177.08l-1.08.91a13.86,13.86,0,0,1-1.8-3.09l1.33-.49A13.18,13.18,0,0,0,14.3,177.08Z" transform="translate(0.08 -0.15)"/>
    <path d="M34.27,162l1.09-.92a14,14,0,0,1,1.8,3.12l-1.34.48A12.55,12.55,0,0,0,34.27,162Z" transform="translate(0.08 -0.15)"/>
    <path d="M36.25,165.86l1.34-.49a13.82,13.82,0,0,1,.61,3.54H36.77A12.25,12.25,0,0,0,36.25,165.86Z" transform="translate(0.08 -0.15)"/>
    <path d="M36.77,170.18h1.42a13.84,13.84,0,0,1-.64,3.52l-1.33-.48A12.44,12.44,0,0,0,36.77,170.18Z" transform="translate(0.08 -0.15)"/>
    <path d="M35.78,174.41l1.34.49a14.68,14.68,0,0,1-1.8,3.09l-1.09-.92A12.84,12.84,0,0,0,35.78,174.41Z" transform="translate(0.08 -0.15)"/>
    <path d="M17.49,180l-.71,1.22A13.77,13.77,0,0,1,14,179l1.09-.91A12.21,12.21,0,0,0,17.49,180Z" transform="translate(0.08 -0.15)"/>
    <path d="M33.41,178l1.08.91a13.77,13.77,0,0,1-2.74,2.29l-.7-1.22A12.84,12.84,0,0,0,33.41,178Z" transform="translate(0.08 -0.15)"/>
    <path d="M31.08,159l.71-1.23a13.65,13.65,0,0,1,2.76,2.32l-1.1.92A12.37,12.37,0,0,0,31.08,159Z" transform="translate(0.08 -0.15)"/>
  </g>
  <g>
    <path d="M90.76,194.81a13.33,13.33,0,0,0-1.56.1l-.25-1.4a15.57,15.57,0,0,1,1.81-.12,15.25,15.25,0,0,1,1.8.12l-.25,1.4A13.3,13.3,0,0,0,90.76,194.81Z" transform="translate(0.08 -0.15)"/>
    <path d="M81.57,198.85l-1.09-.92a13.59,13.59,0,0,1,2.75-2.32l.71,1.23A12.68,12.68,0,0,0,81.57,198.85Z" transform="translate(0.08 -0.15)"/>
    <path d="M85,196.2,84.32,195a14,14,0,0,1,3.39-1.24l.24,1.41A12.43,12.43,0,0,0,85,196.2Z" transform="translate(0.08 -0.15)"/>
    <path d="M79.2,202.5,77.87,202a14,14,0,0,1,1.79-3.12l1.1.92A12.35,12.35,0,0,0,79.2,202.5Z" transform="translate(0.08 -0.15)"/>
    <path d="M93.56,195.13l.25-1.4A14.1,14.1,0,0,1,97.19,195l-.71,1.23A12.58,12.58,0,0,0,93.56,195.13Z" transform="translate(0.08 -0.15)"/>
    <path d="M78.26,206.75H76.83a13.82,13.82,0,0,1,.61-3.54l1.33.49A12.72,12.72,0,0,0,78.26,206.75Z" transform="translate(0.08 -0.15)"/>
    <path d="M78.81,211.06l-1.34.48a13.84,13.84,0,0,1-.64-3.52h1.42A12.45,12.45,0,0,0,78.81,211.06Z" transform="translate(0.08 -0.15)"/>
    <path d="M80.8,214.91l-1.09.92a13.71,13.71,0,0,1-1.8-3.1l1.33-.48A12.45,12.45,0,0,0,80.8,214.91Z" transform="translate(0.08 -0.15)"/>
    <path d="M100.76,199.82l1.09-.92a14,14,0,0,1,1.8,3.12l-1.34.48A12.31,12.31,0,0,0,100.76,199.82Z" transform="translate(0.08 -0.15)"/>
    <path d="M102.74,203.69l1.34-.48a13.74,13.74,0,0,1,.61,3.54h-1.43A12.41,12.41,0,0,0,102.74,203.69Z" transform="translate(0.08 -0.15)"/>
    <path d="M103.26,208h1.42a13.84,13.84,0,0,1-.64,3.53l-1.33-.48A12,12,0,0,0,103.26,208Z" transform="translate(0.08 -0.15)"/>
    <path d="M102.27,212.25l1.34.48a14,14,0,0,1-1.8,3.09l-1.09-.91A12,12,0,0,0,102.27,212.25Z" transform="translate(0.08 -0.15)"/>
    <path d="M84,217.86l-.71,1.22a13.77,13.77,0,0,1-2.74-2.29l1.09-.91A12.21,12.21,0,0,0,84,217.86Z" transform="translate(0.08 -0.15)"/>
    <path d="M99.9,215.88l1.08.91a14,14,0,0,1-2.73,2.29l-.71-1.22A13.25,13.25,0,0,0,99.9,215.88Z" transform="translate(0.08 -0.15)"/>
    <path d="M97.58,196.84l.71-1.23a13.87,13.87,0,0,1,2.75,2.32l-1.1.92A12.25,12.25,0,0,0,97.58,196.84Z" transform="translate(0.08 -0.15)"/>
  </g>
  <g>
    <path d="M138.73,194.81a13.3,13.3,0,0,0-1.55.1l-.25-1.4a13.56,13.56,0,0,1,3.6,0l-.24,1.4A13.33,13.33,0,0,0,138.73,194.81Z" transform="translate(0.08 -0.15)"/>
    <path d="M129.55,198.85l-1.1-.92a13.87,13.87,0,0,1,2.75-2.32l.71,1.23A12.62,12.62,0,0,0,129.55,198.85Z" transform="translate(0.08 -0.15)"/>
    <path d="M133,196.2,132.3,195a14,14,0,0,1,3.38-1.24l.25,1.41A12.12,12.12,0,0,0,133,196.2Z" transform="translate(0.08 -0.15)"/>
    <path d="M127.18,202.5l-1.34-.48a14,14,0,0,1,1.8-3.12l1.09.92A12.31,12.31,0,0,0,127.18,202.5Z" transform="translate(0.08 -0.15)"/>
    <path d="M141.54,195.13l.24-1.4a14,14,0,0,1,3.39,1.24l-.72,1.23A12.67,12.67,0,0,0,141.54,195.13Z" transform="translate(0.08 -0.15)"/>
    <path d="M126.23,206.75H124.8a13.82,13.82,0,0,1,.61-3.54l1.34.49A12.25,12.25,0,0,0,126.23,206.75Z" transform="translate(0.08 -0.15)"/>
    <path d="M126.78,211.06l-1.33.48a13.84,13.84,0,0,1-.64-3.52h1.42A12,12,0,0,0,126.78,211.06Z" transform="translate(0.08 -0.15)"/>
    <path d="M128.77,214.91l-1.09.92a14.09,14.09,0,0,1-1.8-3.1l1.34-.48A12.41,12.41,0,0,0,128.77,214.91Z" transform="translate(0.08 -0.15)"/>
    <path d="M148.73,199.82l1.1-.92a14,14,0,0,1,1.79,3.12l-1.33.48A12.35,12.35,0,0,0,148.73,199.82Z" transform="translate(0.08 -0.15)"/>
    <path d="M150.72,203.69l1.33-.48a13.33,13.33,0,0,1,.61,3.54h-1.43A12.88,12.88,0,0,0,150.72,203.69Z" transform="translate(0.08 -0.15)"/>
    <path d="M151.24,208h1.42a13.84,13.84,0,0,1-.64,3.53l-1.33-.48A12.92,12.92,0,0,0,151.24,208Z" transform="translate(0.08 -0.15)"/>
    <path d="M150.25,212.25l1.33.48a13.64,13.64,0,0,1-1.8,3.09l-1.08-.91A12.84,12.84,0,0,0,150.25,212.25Z" transform="translate(0.08 -0.15)"/>
    <path d="M132,217.86l-.7,1.22a13.77,13.77,0,0,1-2.74-2.29l1.08-.91A12.84,12.84,0,0,0,132,217.86Z" transform="translate(0.08 -0.15)"/>
    <path d="M147.87,215.88l1.09.91a13.77,13.77,0,0,1-2.74,2.29l-.71-1.22A12.58,12.58,0,0,0,147.87,215.88Z" transform="translate(0.08 -0.15)"/>
    <path d="M145.55,196.84l.71-1.23a13.93,13.93,0,0,1,2.76,2.32l-1.1.92A12.31,12.31,0,0,0,145.55,196.84Z" transform="translate(0.08 -0.15)"/>
  </g>
  <g>
    <path d="M205.52,157a11.31,11.31,0,0,0-1.55.11l-.25-1.41a13.56,13.56,0,0,1,3.6,0l-.24,1.41A11.57,11.57,0,0,0,205.52,157Z" transform="translate(0.08 -0.15)"/>
    <path d="M196.33,161l-1.09-.92a13.87,13.87,0,0,1,2.75-2.32l.71,1.23A13,13,0,0,0,196.33,161Z" transform="translate(0.08 -0.15)"/>
    <path d="M199.8,158.37l-.71-1.24a14,14,0,0,1,3.38-1.24l.25,1.41A11.73,11.73,0,0,0,199.8,158.37Z" transform="translate(0.08 -0.15)"/>
    <path d="M194,164.67l-1.33-.49a14,14,0,0,1,1.8-3.12l1.09.92A12.84,12.84,0,0,0,194,164.67Z" transform="translate(0.08 -0.15)"/>
    <path d="M208.32,157.3l.25-1.41a14,14,0,0,1,3.38,1.24l-.71,1.24A11.73,11.73,0,0,0,208.32,157.3Z" transform="translate(0.08 -0.15)"/>
    <path d="M193,168.91h-1.43a13.82,13.82,0,0,1,.61-3.54l1.34.49A12.33,12.33,0,0,0,193,168.91Z" transform="translate(0.08 -0.15)"/>
    <path d="M193.57,173.22l-1.33.48a13.84,13.84,0,0,1-.64-3.52H193A12,12,0,0,0,193.57,173.22Z" transform="translate(0.08 -0.15)"/>
    <path d="M195.56,177.08l-1.09.91a14.26,14.26,0,0,1-1.8-3.09l1.34-.49A12.31,12.31,0,0,0,195.56,177.08Z" transform="translate(0.08 -0.15)"/>
    <path d="M215.52,162l1.1-.92a14,14,0,0,1,1.79,3.12l-1.33.48A13,13,0,0,0,215.52,162Z" transform="translate(0.08 -0.15)"/>
    <path d="M217.51,165.86l1.33-.49a13.82,13.82,0,0,1,.61,3.54H218A12.72,12.72,0,0,0,217.51,165.86Z" transform="translate(0.08 -0.15)"/>
    <path d="M218,170.18h1.41a13,13,0,0,1-.64,3.52l-1.33-.48A12.45,12.45,0,0,0,218,170.18Z" transform="translate(0.08 -0.15)"/>
    <path d="M217,174.41l1.33.49a13.86,13.86,0,0,1-1.8,3.09l-1.09-.92A12.45,12.45,0,0,0,217,174.41Z" transform="translate(0.08 -0.15)"/>
    <path d="M198.74,180l-.71,1.22A14,14,0,0,1,195.3,179l1.08-.91A12.84,12.84,0,0,0,198.74,180Z" transform="translate(0.08 -0.15)"/>
    <path d="M214.66,178l1.09.91a13.77,13.77,0,0,1-2.74,2.29L212.3,180A12.21,12.21,0,0,0,214.66,178Z" transform="translate(0.08 -0.15)"/>
    <path d="M212.34,159l.71-1.23a13.59,13.59,0,0,1,2.75,2.32l-1.09.92A13,13,0,0,0,212.34,159Z" transform="translate(0.08 -0.15)"/>
  </g>
  <polyline points="182.57 291.75 185.98 291.75 185.98 286.4 187.95 286.4 187.95 291.75" style="fill: none;stroke: #231f20;stroke-linecap: square;stroke-width: 0.5px"/>
  <polyline points="3.07 291.75 6.48 291.75 6.48 286.4 8.45 286.4 8.45 291.75" style="fill: none;stroke: #231f20;stroke-linecap: square;stroke-width: 0.5px"/>
  <path d="M212.65,3.93h-8.88l.12.18a4.5,4.5,0,0,0,0,9l-.12-.06h8.88l.12.06a4.5,4.5,0,1,0,0-9" transform="translate(0.08 -0.15)" style="stroke: #010101;stroke-miterlimit: 10;stroke-width: 0.239999994635582px"/>
  <rect x="69.93" y="27.78" width="95.52" height="89.52" style="fill: #231f20"/>
  <path d="M16.81,3.93h9.12l.12.18a4.5,4.5,0,1,1,0,9l-.12-.06H16.81l.12.06a4.5,4.5,0,0,1,0-9" transform="translate(0.08 -0.15)" style="stroke: #010101;stroke-miterlimit: 10;stroke-width: 0.239999994635582px"/>
  <path d="M212.77,351.39a4.5,4.5,0,0,1,0,9l-.12-.06h-8.88l.12.06a4.5,4.5,0,0,1,0-9l-.12-.18h8.88" transform="translate(0.08 -0.15)" style="stroke: #010101;stroke-miterlimit: 10;stroke-width: 0.239999994635582px"/>
  <path d="M16.93,351.39a4.5,4.5,0,0,0,0,9l-.12-.06h9.12l.12.06a4.5,4.5,0,1,0,0-9l-.12-.18H16.81" transform="translate(0.08 -0.15)" style="stroke: #010101;stroke-miterlimit: 10;stroke-width: 0.239999994635582px"/>
</svg>
