<?xml version="1.0" encoding="UTF-8" standalone="no"?>
<!-- Created with Inkscape (http://www.inkscape.org/) -->

<svg
   width="25.360001mm"
   height="128.5mm"
   viewBox="0 0 25.360001 128.5"
   version="1.1"
   id="svg1"
   inkscape:export-filename="../../firmware/assets/RackCore/Merge.png"
   inkscape:export-xdpi="47.439999"
   inkscape:export-ydpi="47.439999"
   inkscape:version="1.4.3 (0d15f75, 2025-12-25)"
   sodipodi:docname="Merge-16.svg"
   xml:space="preserve"
   xmlns:inkscape="http://www.inkscape.org/namespaces/inkscape"
   xmlns:sodipodi="http://sodipodi.sourceforge.net/DTD/sodipodi-0.dtd"
   xmlns="http://www.w3.org/2000/svg"
   xmlns:svg="http://www.w3.org/2000/svg"><sodipodi:namedview
     id="namedview1"
     pagecolor="#ffffff"
     bordercolor="#000000"
     borderopacity="0.25"
     inkscape:showpageshadow="2"
     inkscape:pageopacity="0.0"
     inkscape:pagecheckerboard="0"
     inkscape:deskcolor="#d1d1d1"
     inkscape:document-units="mm"
     inkscape:zoom="2.1086846"
     inkscape:cx="75.639572"
     inkscape:cy="225.25891"
     inkscape:window-width="2216"
     inkscape:window-height="1387"
     inkscape:window-x="1988"
     inkscape:window-y="25"
     inkscape:window-maximized="0"
     inkscape:current-layer="layer2"
     showgrid="false"
     inkscape:export-bgcolor="#ffffffff" /><defs
     id="defs1"><linearGradient
       id="aae5b07c-b446-4b70-86f6-2dd95e4bbb54"
       x1="60"
       x2="60"
       y2="380"
       gradientUnits="userSpaceOnUse"><stop
         offset="0"
         stop-color="#ebebeb"
         id="stop2" /><stop
         offset="1"
         stop-color="#e1e1e1"
         id="stop4" /></linearGradient><linearGradient
       id="f70f6fb2-de46-4cef-bd00-17d002639a4b"
       x1="37.5"
       x2="37.5"
       y2="380"
       gradientUnits="userSpaceOnUse"><stop
         offset="0"
         stop-color="#ebebeb"
         id="stop2-5" /><stop
         offset="1"
         stop-color="#e1e1e1"
         id="stop4-4" /></linearGradient></defs><g
     inkscape:groupmode="layer"
     id="layer2"
     inkscape:label="artwork"><rect
       style="display:inline;fill:#eeeeee;stroke-width:0.789072"
       id="rect3"
       width="25.360001"
       height="128.5"
       x="0"
       y="0" /><rect
       style="display:inline;fill:#000000;fill-opacity:1;stroke-width:0.471102;stroke-linecap:square;stroke-linejoin:bevel;stroke-miterlimit:0.6;stroke-opacity:0.444884"
       id="rect1"
       width="10.720418"
       height="17.709391"
       x="1.9096644"
       y="13.077606"
       ry="1.7846551" /><rect
       style="display:inline;fill:#000000;fill-opacity:1;stroke-width:0.421214;stroke-linecap:square;stroke-linejoin:bevel;stroke-miterlimit:0.6;stroke-opacity:0.444884"
       id="rect1-1"
       width="10.720418"
       height="14.157279"
       x="13.683564"
       y="15.255405"
       ry="1.4266928" /><path
       style="font-weight:bold;font-size:4.58611px;font-family:Sans;-inkscape-font-specification:'Sans, Bold';stroke-width:0.4"
       d="M 8.4705613,8.4781895 H 7.6151442 V 6.2455958 l -0.61805,1.4488346 H 6.4036767 L 5.7856267,6.2455958 V 8.4781895 H 4.9749959 v -3.334335 h 0.998733 L 6.7238982,6.8166203 7.4718283,5.1438545 h 0.998733 z M 11.753392,7.3697302 H 9.9081993 q 0.017914,0.2955892 0.2239307,0.452341 0.208256,0.1567518 0.611332,0.1567518 0.255282,0 0.494888,-0.091812 0.239607,-0.091812 0.378444,-0.1970594 h 0.08957 v 0.647161 q -0.273196,0.1097263 -0.515041,0.1589912 -0.241846,0.049265 -0.535196,0.049265 -0.756887,0 -1.1599631,-0.3403753 -0.4030761,-0.3403754 -0.4030761,-0.969622 0,-0.6225286 0.380683,-0.9852971 0.3829223,-0.3650077 1.0479982,-0.3650077 0.613571,0 0.922596,0.3112643 0.309025,0.309025 0.309025,0.891246 z M 10.951718,6.8972355 q -0.0067,-0.2530422 -0.125401,-0.380683 -0.118684,-0.1276407 -0.369486,-0.1276407 -0.232889,0 -0.382923,0.1209228 -0.1500336,0.1209228 -0.1679481,0.3874009 z m 3.193259,-0.1657091 h -0.07166 q -0.0515,-0.017914 -0.165709,-0.026872 -0.114205,-0.00896 -0.190341,-0.00896 -0.172427,0 -0.304547,0.022393 -0.132119,0.022393 -0.284392,0.076137 V 8.4781895 H 12.322177 V 5.9634426 H 13.12833 V 6.332929 q 0.266478,-0.2284098 0.463537,-0.3023071 0.19706,-0.076137 0.362769,-0.076137 0.04255,0 0.09629,0.00224 0.05374,0.00224 0.09405,0.00672 z m 2.902148,1.4577919 q 0,0.3538112 -0.100769,0.5956569 -0.100769,0.2418456 -0.282153,0.3784436 -0.181385,0.1388373 -0.438905,0.1992987 -0.255282,0.062701 -0.577743,0.062701 -0.261999,0 -0.517281,-0.03135 -0.253042,-0.03135 -0.438905,-0.076137 V 8.6886848 h 0.09853 q 0.147794,0.058222 0.360529,0.1052476 0.212735,0.049265 0.380683,0.049265 0.223931,0 0.362768,-0.042547 0.141077,-0.040308 0.214974,-0.1164442 0.06942,-0.071658 0.100769,-0.1836235 0.03135,-0.1119656 0.03135,-0.2687174 v -0.047026 q -0.145556,0.1186835 -0.322461,0.1881021 -0.176906,0.069419 -0.394119,0.069419 -0.528478,0 -0.815109,-0.3179823 -0.286632,-0.3179822 -0.286632,-0.9673826 0,-0.3112643 0.08733,-0.5374347 0.08733,-0.2261705 0.246324,-0.3941189 0.147795,-0.1567518 0.362769,-0.2440849 0.217213,-0.087333 0.443383,-0.087333 0.203778,0 0.369487,0.049265 0.167948,0.047025 0.304546,0.1321193 l 0.02911,-0.1119655 h 0.78152 z M 16.240973,7.6854732 V 6.5456636 q -0.06942,-0.029111 -0.170188,-0.044786 -0.100769,-0.017914 -0.181384,-0.017914 -0.317982,0 -0.476974,0.1836235 -0.158991,0.1813842 -0.158991,0.5083237 0,0.3627685 0.134359,0.5060844 0.136598,0.143316 0.403076,0.143316 0.120923,0 0.237367,-0.038068 0.116444,-0.038068 0.212735,-0.100769 z m 4.044196,-0.315743 h -1.845193 q 0.01791,0.2955892 0.223931,0.452341 0.208256,0.1567518 0.611332,0.1567518 0.255282,0 0.494888,-0.091812 0.239607,-0.091812 0.378444,-0.1970594 h 0.08957 v 0.647161 q -0.273196,0.1097263 -0.515041,0.1589912 -0.241846,0.049265 -0.535196,0.049265 -0.756887,0 -1.159963,-0.3403753 -0.403076,-0.3403754 -0.403076,-0.969622 0,-0.6225286 0.380683,-0.9852971 0.382922,-0.3650077 1.047998,-0.3650077 0.613571,0 0.922596,0.3112643 0.309025,0.309025 0.309025,0.891246 z M 19.483495,6.8972355 q -0.0067,-0.2530422 -0.125401,-0.380683 -0.118684,-0.1276407 -0.369486,-0.1276407 -0.232889,0 -0.382923,0.1209228 -0.150034,0.1209228 -0.167948,0.3874009 z"
       id="text1"
       aria-label="Merge" /><path
       style="font-weight:bold;font-size:3.26094px;font-family:GillSans-Bold, 'Gill Sans';stroke-width:0.363222"
       d="M 6.0384125,121.8911 H 5.3652349 v -1.56836 l -0.6071481,0.9082 h -0.053146 l -0.6087587,-0.9082 v 1.56836 H 3.4423305 v -2.70703 h 0.6103691 l 0.6860613,1.01562 0.6892823,-1.01562 h 0.6103691 z m 2.9519971,-1.35547 q 0,0.37891 -0.144944,0.69727 -0.143332,0.31835 -0.4283846,0.50585 -0.2850548,0.1875 -0.6941147,0.1875 -0.4138906,0 -0.7005552,-0.19531 -0.286664,-0.19531 -0.4267751,-0.51367 -0.1385007,-0.31836 -0.1385007,-0.68164 0,-0.36523 0.1385007,-0.68164 0.1385005,-0.31836 0.4251647,-0.51172 0.288275,-0.19531 0.7021656,-0.19531 0.3092106,0 0.5507817,0.11133 0.2431806,0.11133 0.3993966,0.30273 0.156216,0.18946 0.23674,0.44336 0.08052,0.25196 0.08052,0.53125 z m -0.6860622,0 q 0,-0.15234 -0.037038,-0.27734 -0.037038,-0.12695 -0.1127326,-0.21875 -0.074076,-0.0937 -0.1819838,-0.14453 -0.1079016,-0.0527 -0.2496236,-0.0527 -0.2705595,0 -0.4251643,0.19141 -0.1546058,0.19141 -0.1546058,0.50195 0,0.31055 0.1546058,0.50391 0.1562161,0.1914 0.4251643,0.1914 0.1852049,0 0.3156524,-0.0879 0.130448,-0.0898 0.1980882,-0.2461 0.067645,-0.1582 0.067645,-0.36133 z m 3.4818416,1.35547 h -0.599096 l -1.15793,-1.50781 v 1.50781 H 9.3624276 v -2.70703 h 0.597486 l 1.1547084,1.5 v -1.5 h 0.671567 z m 2.948775,-1.35547 q 0,0.37891 -0.144943,0.69727 -0.143332,0.31835 -0.428385,0.50585 -0.285055,0.1875 -0.694115,0.1875 -0.41389,0 -0.700555,-0.19531 -0.286663,-0.19531 -0.426775,-0.51367 -0.138501,-0.31836 -0.138501,-0.68164 0,-0.36523 0.138501,-0.68164 0.138501,-0.31836 0.425165,-0.51172 0.288275,-0.19531 0.702165,-0.19531 0.309212,0 0.550783,0.11133 0.243181,0.11133 0.399397,0.30273 0.156215,0.18946 0.236739,0.44336 0.08051,0.25196 0.08051,0.53125 z m -0.686061,0 q 0,-0.15234 -0.03704,-0.27734 -0.03703,-0.12695 -0.112733,-0.21875 -0.07408,-0.0937 -0.181984,-0.14453 -0.1079,-0.0527 -0.249623,-0.0527 -0.270559,0 -0.425164,0.19141 -0.154606,0.19141 -0.154606,0.50195 0,0.31055 0.154606,0.50391 0.156215,0.1914 0.425164,0.1914 0.185204,0 0.315654,-0.0879 0.130447,-0.0898 0.198086,-0.2461 0.06764,-0.1582 0.06764,-0.36133 z m 2.760349,1.35547 h -0.673178 v -2.70703 h 0.673178 z m 2.987426,0 h -0.599095 l -1.15793,-1.50781 v 1.50781 h -0.666736 v -2.70703 h 0.597485 l 1.154709,1.5 v -1.5 h 0.671567 z m 2.120992,-0.78711 q 0,0.25391 -0.107901,0.43945 -0.106291,0.18555 -0.297937,0.28516 -0.191646,0.0977 -0.43966,0.0977 -0.06925,0 -0.170709,-0.0118 -0.09985,-0.01 -0.26734,-0.0586 -0.165878,-0.0488 -0.346251,-0.14453 v -0.66406 q 0.169099,0.12695 0.331757,0.21093 0.164269,0.084 0.351084,0.084 0.172321,0 0.222245,-0.0684 0.05153,-0.0703 0.05153,-0.13086 0,-0.10938 -0.08697,-0.18359 -0.08697,-0.0762 -0.252844,-0.15625 -0.183594,-0.0937 -0.322094,-0.20313 -0.138501,-0.11133 -0.227077,-0.27734 -0.08697,-0.16602 -0.08697,-0.39258 0,-0.21875 0.08857,-0.39453 0.08857,-0.17773 0.270559,-0.2832 0.181983,-0.10547 0.44449,-0.10547 0.186816,0 0.344641,0.0449 0.159437,0.043 0.262507,0.0977 0.103071,0.0547 0.141723,0.0859 v 0.63477 q -0.136891,-0.11915 -0.30599,-0.21289 -0.16749,-0.0937 -0.359137,-0.0937 -0.125616,0 -0.181983,0.0586 -0.05637,0.0586 -0.05637,0.14453 0,0.0801 0.05637,0.13867 0.05637,0.0586 0.201309,0.14258 0.257675,0.14649 0.412282,0.26367 0.154605,0.11718 0.241571,0.27149 0.08857,0.15234 0.08857,0.38086 z"
       id="text1-4-1-9"
       aria-label="MONO INS" /><path
       style="font-weight:bold;font-size:3.26094px;font-family:GillSans-Bold, 'Gill Sans';fill:#ffffff;stroke-width:0.326095"
       d="m 7.4940285,22.981368 q 0,0.308897 -0.1433031,0.568435 -0.1417107,0.259538 -0.42354,0.412394 -0.2818293,0.152857 -0.6862623,0.152857 -0.4092098,0 -0.6926313,-0.159226 -0.2834216,-0.159225 -0.4219479,-0.418763 -0.136934,-0.259538 -0.136934,-0.555697 0,-0.297752 0.136934,-0.555698 0.136934,-0.259537 0.4203556,-0.417171 0.2850138,-0.159225 0.6942236,-0.159225 0.3057131,0 0.5445515,0.09076 0.2404306,0.09076 0.3948794,0.2468 0.1544489,0.154449 0.2340617,0.361442 0.079613,0.205401 0.079613,0.433094 z m -0.6783011,0 q 0,-0.124196 -0.036622,-0.226101 -0.036622,-0.103496 -0.111458,-0.178332 -0.073244,-0.07643 -0.1799249,-0.117827 -0.1066811,-0.04299 -0.2467996,-0.04299 -0.267499,0 -0.4203556,0.156041 -0.1528566,0.156041 -0.1528566,0.40921 0,0.253168 0.1528566,0.410802 0.1544488,0.156041 0.4203556,0.156041 0.1831094,0 0.3120821,-0.07165 0.1289728,-0.07324 0.1958475,-0.200624 0.066875,-0.128973 0.066875,-0.294567 z m 3.3915046,0.116234 q 0,0.283422 -0.106681,0.484046 -0.1050886,0.199032 -0.2802368,0.315267 -0.1735559,0.116235 -0.3757724,0.167187 -0.2006242,0.05095 -0.4012484,0.05095 -0.2802371,0 -0.5461438,-0.09554 Q 8.2328351,23.923983 8.0545024,23.694698 7.8761698,23.465414 7.8761698,23.097602 v -1.218075 h 0.6639707 v 1.046112 q 0,0.218139 0.062098,0.361442 0.06369,0.141711 0.1751481,0.208585 0.1130502,0.06528 0.2659068,0.06528 0.1464875,0 0.2595377,-0.06528 0.1130501,-0.06528 0.1751481,-0.206993 0.06369,-0.141711 0.06369,-0.35985 V 21.879527 H 10.207232 Z M 12.8456,22.416117 h -0.808866 v 1.670276 h -0.66397 v -1.670276 h -0.808866 v -0.53659 H 12.8456 Z"
       id="text1-4-7-8-9"
       transform="scale(0.81523624,1.2266383)"
       aria-label="OUT" /><path
       style="font-weight:bold;font-size:3.26094px;font-family:GillSans-Bold, 'Gill Sans';fill:#ffffff;stroke-width:0.326095"
       d="m 6.4025371,12.028346 q 0,0.122604 -0.042991,0.24043 -0.041399,0.116235 -0.1353418,0.21814 -0.093943,0.100312 -0.2547609,0.164002 -0.1592256,0.0621 -0.3757724,0.0621 H 5.157393 v 0.827973 H 4.49183 v -2.206867 h 1.1018411 q 0.2165468,0 0.3757724,0.06369 0.1608178,0.06369 0.2547609,0.165595 0.093943,0.101904 0.1353418,0.221324 0.042991,0.119419 0.042991,0.243615 z m -0.678301,0.0032 q 0,-0.157633 -0.093943,-0.214954 -0.092351,-0.05891 -0.3327815,-0.05891 H 5.157393 v 0.531814 h 0.143303 q 0.1655946,0 0.2547609,-0.0207 0.089166,-0.0207 0.1289728,-0.07643 0.039806,-0.05573 0.039806,-0.160818 z m 3.4090197,0.404433 q 0,0.308898 -0.143303,0.568436 -0.1417108,0.259537 -0.4235401,0.412394 -0.2818292,0.152857 -0.6862622,0.152857 -0.4092098,0 -0.6926314,-0.159226 -0.2834215,-0.159226 -0.4219478,-0.418763 -0.136934,-0.259538 -0.136934,-0.555698 0,-0.297752 0.136934,-0.555697 0.136934,-0.259538 0.4203556,-0.417171 0.2850138,-0.159226 0.6942236,-0.159226 0.3057131,0 0.5445515,0.09076 0.2404306,0.09076 0.3948794,0.2468 0.1544489,0.154448 0.2340617,0.361442 0.079613,0.205401 0.079613,0.433093 z m -0.678301,0 q 0,-0.124196 -0.036622,-0.2261 -0.036622,-0.103497 -0.111458,-0.178333 -0.073244,-0.07643 -0.1799249,-0.117827 -0.1066811,-0.04299 -0.2467996,-0.04299 -0.267499,0 -0.4203556,0.156042 -0.1528566,0.156041 -0.1528566,0.409209 0,0.253169 0.1528566,0.410802 0.1544488,0.156041 0.4203556,0.156041 0.1831094,0 0.3120821,-0.07165 0.1289727,-0.07324 0.1958475,-0.200624 0.066875,-0.128973 0.066875,-0.294568 z m 2.7689332,1.105026 H 9.5472423 v -2.206867 h 0.6655627 v 1.678238 h 1.011083 z m 2.119292,-2.206867 -0.864595,1.195784 v 1.011083 h -0.665563 v -0.998345 l -0.880517,-1.208522 h 0.691039 l 0.506337,0.694224 0.50793,-0.694224 z"
       id="text1-4-7-8-9-5"
       transform="scale(0.81523624,1.2266383)"
       aria-label="POLY" /></g></svg>
