<?xml version="1.0" encoding="UTF-8" standalone="no"?>
<!-- Generator: Adobe Illustrator 16.0.3, SVG Export Plug-In . SVG Version: 6.00 Build 0)  -->

<svg
   version="1.1"
   x="0px"
   y="0px"
   width="240px"
   height="380px"
   viewBox="0 0 240 380"
   enable-background="new 0 0 240 380"
   xml:space="preserve"
   id="svg1009"
   sodipodi:docname="Braids.svg"
   inkscape:version="1.3.2 (091e20e, 2023-11-25)"
   inkscape:export-filename="../../../firmware/assets/AudibleInstruments/Braids.png"
   inkscape:export-xdpi="60.63158"
   inkscape:export-ydpi="60.63158"
   xmlns:inkscape="http://www.inkscape.org/namespaces/inkscape"
   xmlns:sodipodi="http://sodipodi.sourceforge.net/DTD/sodipodi-0.dtd"
   xmlns="http://www.w3.org/2000/svg"
   xmlns:svg="http://www.w3.org/2000/svg"><defs
   id="defs1009" /><sodipodi:namedview
   id="namedview1009"
   pagecolor="#ffffff"
   bordercolor="#000000"
   borderopacity="0.25"
   inkscape:showpageshadow="2"
   inkscape:pageopacity="0.0"
   inkscape:pagecheckerboard="0"
   inkscape:deskcolor="#d1d1d1"
   showgrid="false"
   inkscape:zoom="3.2"
   inkscape:cx="131.25"
   inkscape:cy="162.5"
   inkscape:window-width="2512"
   inkscape:window-height="1387"
   inkscape:window-x="50"
   inkscape:window-y="25"
   inkscape:window-maximized="1"
   inkscape:current-layer="svg1009" />
<g
   id="faceplate">
	<rect
   id="background"
   fill="#E6E6E6"
   width="240"
   height="380" />
	
	
	<rect
   x="6.61"
   y="351.234"
   fill="#C6C6C5"
   width="227.554"
   height="2.089"
   id="rect774" />
	<rect
   x="6.61"
   y="289.561"
   fill="#C6C6C5"
   width="227.554"
   height="2.09"
   id="rect775" />
	<rect
   x="118.809"
   y="209.062"
   fill="#1D1D1B"
   width="0.888"
   height="8.694"
   id="rect776" />
	<path
   fill="#232020"
   d="M188.704,134.37c0,2.341-1.897,4.238-4.237,4.238c-2.341,0-4.236-1.896-4.236-4.238   c0-2.341,1.896-4.237,4.236-4.237S188.704,132.029,188.704,134.37"
   id="path776" />
	<path
   fill="#232020"
   d="M216.921,134.37c0,2.341-1.897,4.238-4.239,4.238c-2.34,0-4.236-1.896-4.236-4.238   c0-2.341,1.896-4.237,4.236-4.237C215.023,130.133,216.921,132.029,216.921,134.37"
   id="path777" />
	<polygon
   fill="#FFFFFF"
   points="213.302,134.982 213.302,136.59 212.075,136.59 212.075,134.982 210.457,134.982 210.457,133.757    212.075,133.757 212.075,132.149 213.302,132.149 213.302,133.757 214.908,133.757 214.908,134.982  "
   id="polygon777" />
	<rect
   x="182.531"
   y="133.609"
   fill="#FFFFFF"
   width="3.873"
   height="1.521"
   id="rect777" />
	<path
   fill="#232020"
   d="M109.382,213.301c0,2.34-1.897,4.236-4.238,4.236c-2.339,0-4.236-1.896-4.236-4.236   c0-2.341,1.897-4.238,4.236-4.238C107.485,209.062,109.382,210.96,109.382,213.301"
   id="path778" />
	<path
   fill="#232020"
   d="M137.6,213.301c0,2.34-1.896,4.236-4.238,4.236s-4.235-1.896-4.235-4.236c0-2.341,1.896-4.238,4.235-4.238   C135.702,209.062,137.6,210.96,137.6,213.301"
   id="path779" />
	<polygon
   fill="#FFFFFF"
   points="133.979,213.913 133.979,215.52 132.754,215.52 132.754,213.913 131.137,213.913 131.137,212.689    132.754,212.689 132.754,211.081 133.979,211.081 133.979,212.689 135.585,212.689 135.585,213.913  "
   id="polygon779" />
	<rect
   x="103.208"
   y="212.54"
   fill="#FFFFFF"
   width="3.875"
   height="1.522"
   id="rect779" />
	<rect
   x="198.129"
   y="130.023"
   fill="#1D1D1B"
   width="0.889"
   height="8.693"
   id="rect780" />
	<g
   id="g903"
   style="display:inline">
		
		<rect
   x="-0.34099999"
   y="23.593"
   fill="#c6c6c5"
   width="239.813"
   height="1.044"
   id="rect781" />
		
		
		
		
		
		
		
		
		
		
		
		
		
		
		
		
		
		
		
		
		
		
		
		
		
		
		
		
		
		
		
		
		
		
		
		
		
		
		
		
		
		
		
		
		
		
		
		
		
		
		
		
		
		
		
		
		
		
		
		
		
		
		
		
		
		
		
		
		
		
		
		
		
		
		
		
		
		
		
		
		
		
		
		
		
		
		
		
		
		
		
		
		
		
		
		
		
		
		
		
		
		
		
		
		
		
		
		
		
		
		
		
		
		
		
		
		
		
		
		
		
		
		
		
	</g>
	<g
   id="g909">
		
			<line
   fill="none"
   stroke="#1D1D1B"
   stroke-linecap="round"
   stroke-miterlimit="10"
   stroke-dasharray="0.5,2"
   x1="179.177"
   y1="80.356"
   x2="161.205"
   y2="80.356"
   id="line903" />
		<path
   fill="#0094A0"
   d="M153.77,309.092c0,1.631-1.334,2.963-2.963,2.963h-32.221c-1.628,0-2.96-1.332-2.96-2.963v-4.439    c0-1.631,1.333-2.961,2.96-2.961h32.221c1.629,0,2.963,1.33,2.963,2.961V309.092z"
   id="path904" />
		<path
   fill="#D83559"
   d="M188.65,309.092c0,1.631-1.334,2.963-2.961,2.963h-26.479c-1.628,0-2.961-1.332-2.961-2.963v-4.439    c0-1.631,1.333-2.961,2.961-2.961h26.479c1.627,0,2.961,1.33,2.961,2.961V309.092z"
   id="path905" />
		<path
   fill="#6F6F6E"
   d="M234.164,342.417c0,1.628-1.333,2.961-2.961,2.961h-27.18c-1.627,0-2.961-1.333-2.961-2.961v-41.908    c0-1.629,1.334-2.962,2.961-2.962h27.18c1.628,0,2.961,1.333,2.961,2.962V342.417z"
   id="path906" />
		<path
   fill="#D83559"
   d="M223.709,277.409c0,1.628-1.333,2.959-2.962,2.959H178.4c-1.629,0-2.961-1.331-2.961-2.959v-5.925    c0-1.629,1.332-2.961,2.961-2.961h42.347c1.629,0,2.962,1.332,2.962,2.961V277.409z"
   id="path907" />
		<path
   fill="#0094A0"
   d="M149.805,277.409c0,1.628-1.332,2.959-2.961,2.959H92.419c-1.629,0-2.961-1.331-2.961-2.959v-5.925    c0-1.629,1.332-2.961,2.961-2.961h54.425c1.629,0,2.961,1.332,2.961,2.961V277.409z"
   id="path908" />
		<path
   fill="#0094A0"
   d="M65.057,277.409c0,1.628-1.332,2.959-2.961,2.959H19.749c-1.63,0-2.961-1.331-2.961-2.959v-5.925    c0-1.629,1.332-2.961,2.961-2.961h42.347c1.629,0,2.961,1.332,2.961,2.961V277.409z"
   id="path909" />
	</g>
	<g
   id="g913">
		<path
   fill="#232020"
   d="M190.32,114.656v-5.951h3.92v1.036h-2.758v1.396h2.349v1.037h-2.349v1.446h2.758v1.036H190.32z"
   id="path910" />
		<path
   fill="#232020"
   d="M199.094,114.087c-0.391,0.393-0.951,0.568-1.57,0.568h-2.146v-5.951h2.146    c0.619,0,1.182,0.175,1.57,0.568c0.672,0.669,0.604,1.488,0.604,2.382C199.698,112.55,199.766,113.419,199.094,114.087z     M198.286,110.109c-0.202-0.243-0.47-0.368-0.87-0.368h-0.879v3.879h0.879c0.4,0,0.668-0.125,0.87-0.368    c0.216-0.268,0.251-0.694,0.251-1.597C198.537,110.752,198.501,110.376,198.286,110.109z"
   id="path911" />
		<path
   fill="#232020"
   d="M200.882,114.656v-5.951h1.161v5.951H200.882z"
   id="path912" />
		<path
   fill="#232020"
   d="M205.704,109.741v4.915h-1.161v-4.915h-1.557v-1.036h4.271v1.036H205.704z"
   id="path913" />
	</g>
	<g
   id="g915">
		<path
   fill="#232020"
   d="M195.577,192.203v1.462h2.348v1.037h-2.348v2.416h-1.161v-5.952h3.919v1.037H195.577L195.577,192.203z"
   id="path914" />
		<path
   fill="#232020"
   d="M203.574,197.118v-3.47l-1.137,2.258h-0.785l-1.146-2.258v3.47h-1.16v-5.952h1.146l1.553,3.219    l1.547-3.219h1.146v5.952H203.574z"
   id="path915" />
	</g>
	<g
   id="g921">
		<path
   fill="#232020"
   d="M106.815,197.167c-0.635,0-1.169-0.217-1.604-0.651c-0.259-0.26-0.418-0.561-0.485-0.895    c-0.066-0.334-0.1-0.828-0.1-1.479c0-0.652,0.034-1.146,0.1-1.479c0.067-0.345,0.226-0.636,0.485-0.896    c0.435-0.436,0.97-0.651,1.604-0.651c1.146,0,1.99,0.668,2.19,1.881h-1.178c-0.126-0.511-0.443-0.845-1.003-0.845    c-0.318,0-0.568,0.101-0.744,0.31c-0.243,0.259-0.293,0.526-0.293,1.681c0,1.152,0.05,1.42,0.293,1.681    c0.175,0.209,0.426,0.309,0.744,0.309c0.56,0,0.877-0.334,1.003-0.843h1.178C108.805,196.499,107.952,197.167,106.815,197.167z"
   id="path916" />
		<path
   fill="#232020"
   d="M113.342,196.516c-0.418,0.418-0.928,0.651-1.605,0.651c-0.677,0-1.195-0.233-1.613-0.651    c-0.602-0.602-0.585-1.346-0.585-2.373c0-1.028-0.017-1.771,0.585-2.375c0.418-0.418,0.936-0.651,1.613-0.651    c0.677,0,1.187,0.233,1.605,0.651c0.602,0.604,0.594,1.347,0.594,2.375S113.944,195.914,113.342,196.516z M112.481,192.471    c-0.167-0.193-0.427-0.318-0.744-0.318c-0.318,0-0.585,0.125-0.752,0.318c-0.226,0.25-0.284,0.526-0.284,1.672    s0.059,1.42,0.284,1.67c0.167,0.193,0.435,0.318,0.752,0.318c0.317,0,0.577-0.125,0.744-0.318c0.226-0.25,0.292-0.523,0.292-1.67    S112.707,192.721,112.481,192.471z"
   id="path917" />
		<path
   fill="#232020"
   d="M118.431,197.118l-0.351-1.054h-2.115l-0.359,1.054h-1.212l2.165-5.952h0.912l2.173,5.952H118.431z     M117.044,192.921l-0.753,2.165h1.48L117.044,192.921z"
   id="path918" />
		<path
   fill="#232020"
   d="M123.539,197.118l-1.163-2.375h-0.837v2.375h-1.161v-5.952h2.332c1.212,0,1.933,0.827,1.933,1.822    c0,0.836-0.511,1.354-1.088,1.562l1.329,2.566L123.539,197.118L123.539,197.118z M122.634,192.203h-1.096v1.57h1.096    c0.511,0,0.845-0.325,0.845-0.785C123.479,192.527,123.145,192.203,122.634,192.203z"
   id="path919" />
		<path
   fill="#232020"
   d="M127.482,197.167c-0.903,0-1.59-0.192-2.176-0.786l0.752-0.752c0.377,0.376,0.887,0.501,1.438,0.501    c0.688,0,1.054-0.259,1.054-0.735c0-0.209-0.059-0.383-0.187-0.5c-0.115-0.108-0.25-0.168-0.524-0.209l-0.72-0.102    c-0.51-0.075-0.887-0.232-1.153-0.493c-0.282-0.284-0.426-0.668-0.426-1.17c0-1.062,0.787-1.806,2.071-1.806    c0.818,0,1.412,0.201,1.925,0.693l-0.735,0.729c-0.377-0.359-0.826-0.41-1.221-0.41c-0.619,0-0.919,0.342-0.919,0.752    c0,0.15,0.049,0.311,0.175,0.426c0.116,0.109,0.311,0.201,0.553,0.234l0.701,0.102c0.544,0.073,0.887,0.226,1.139,0.459    c0.316,0.301,0.459,0.735,0.459,1.262C129.688,196.516,128.727,197.167,127.482,197.167z"
   id="path920" />
		<path
   fill="#232020"
   d="M130.781,197.118v-5.952h3.921v1.037h-2.759v1.395h2.35v1.039h-2.35v1.445h2.759v1.037L130.781,197.118    L130.781,197.118z"
   id="path921" />
	</g>
	<g
   id="g925">
		<path
   fill="#232020"
   d="M33.538,192.203v1.462h2.349v1.037h-2.349v2.416h-1.162v-5.952h3.92v1.037H33.538L33.538,192.203z"
   id="path922" />
		<path
   fill="#232020"
   d="M37.307,197.118v-5.952h1.162v5.952H37.307z"
   id="path923" />
		<path
   fill="#232020"
   d="M43.374,197.118l-2.357-3.653v3.653h-1.162v-5.952h1.036l2.357,3.645v-3.645h1.162v5.952H43.374z"
   id="path924" />
		<path
   fill="#232020"
   d="M45.796,197.118v-5.952h3.92v1.037h-2.759v1.395h2.349v1.039h-2.349v1.445h2.759v1.037L45.796,197.118    L45.796,197.118z"
   id="path925" />
	</g>
	<g
   id="g930">
		<path
   fill="#FFFFFF"
   d="M189.395,277.296c-0.637,0-1.17-0.216-1.605-0.651c-0.26-0.26-0.417-0.56-0.482-0.894    c-0.066-0.334-0.103-0.827-0.103-1.479c0-0.65,0.034-1.146,0.103-1.479c0.065-0.346,0.225-0.636,0.482-0.895    c0.438-0.438,0.971-0.652,1.605-0.652c1.146,0,1.988,0.669,2.188,1.881h-1.179c-0.125-0.511-0.441-0.846-1.004-0.846    c-0.315,0-0.566,0.103-0.742,0.31c-0.242,0.261-0.294,0.528-0.294,1.683c0,1.153,0.052,1.42,0.294,1.681    c0.176,0.21,0.427,0.312,0.742,0.312c0.562,0,0.879-0.336,1.004-0.846h1.179C191.383,276.628,190.531,277.296,189.395,277.296z"
   id="path926" />
		<path
   fill="#FFFFFF"
   d="M195.919,276.645c-0.418,0.42-0.928,0.651-1.604,0.651c-0.676,0-1.194-0.231-1.612-0.651    c-0.603-0.602-0.585-1.346-0.585-2.373s-0.018-1.771,0.585-2.373c0.418-0.418,0.938-0.651,1.612-0.651    c0.678,0,1.188,0.233,1.604,0.651c0.604,0.603,0.595,1.346,0.595,2.373S196.523,276.043,195.919,276.645z M195.059,272.6    c-0.166-0.19-0.426-0.317-0.742-0.317c-0.317,0-0.586,0.127-0.752,0.317c-0.228,0.25-0.287,0.526-0.287,1.672    c0,1.146,0.062,1.422,0.287,1.672c0.166,0.191,0.435,0.317,0.752,0.317c0.316,0,0.576-0.126,0.742-0.317    c0.229-0.25,0.295-0.524,0.295-1.672C195.354,273.126,195.286,272.85,195.059,272.6z"
   id="path927" />
		<path
   fill="#FFFFFF"
   d="M197.699,277.248v-5.953h1.16v4.916h2.701v1.037H197.699L197.699,277.248z"
   id="path928" />
		<path
   fill="#FFFFFF"
   d="M205.887,276.645c-0.418,0.42-0.928,0.651-1.604,0.651c-0.678,0-1.196-0.231-1.614-0.651    c-0.603-0.602-0.585-1.346-0.585-2.373s-0.018-1.771,0.585-2.373c0.418-0.418,0.938-0.651,1.614-0.651s1.186,0.233,1.604,0.651    c0.604,0.603,0.596,1.346,0.596,2.373S206.491,276.043,205.887,276.645z M205.027,272.6c-0.168-0.19-0.426-0.317-0.743-0.317    c-0.318,0-0.585,0.127-0.753,0.317c-0.227,0.25-0.285,0.526-0.285,1.672c0,1.146,0.061,1.422,0.285,1.672    c0.168,0.191,0.435,0.317,0.753,0.317c0.317,0,0.575-0.126,0.743-0.317c0.227-0.25,0.293-0.524,0.293-1.672    C205.32,273.126,205.253,272.85,205.027,272.6z"
   id="path929" />
		<path
   fill="#FFFFFF"
   d="M210.827,277.248l-1.163-2.374h-0.836v2.374h-1.161v-5.953H210c1.211,0,1.93,0.827,1.93,1.824    c0,0.836-0.509,1.354-1.086,1.562l1.329,2.564L210.827,277.248L210.827,277.248z M209.924,272.332h-1.097v1.57h1.097    c0.51,0,0.844-0.324,0.844-0.783C210.768,272.658,210.434,272.332,209.924,272.332z"
   id="path930" />
	</g>
	<g
   id="g940">
		<path
   fill="#FFFFFF"
   d="M98.794,277.248v-3.469l-1.137,2.256h-0.786l-1.146-2.256v3.469h-1.162v-5.953h1.145l1.555,3.221    l1.546-3.221h1.146v5.953H98.794z"
   id="path931" />
		<path
   fill="#FFFFFF"
   d="M104.944,276.645c-0.418,0.42-0.928,0.651-1.605,0.651c-0.677,0-1.195-0.231-1.613-0.651    c-0.602-0.602-0.585-1.346-0.585-2.373s-0.017-1.771,0.585-2.373c0.418-0.418,0.936-0.651,1.613-0.651    c0.677,0,1.187,0.233,1.605,0.651c0.602,0.603,0.594,1.346,0.594,2.373S105.545,276.043,104.944,276.645z M104.083,272.6    c-0.167-0.19-0.427-0.317-0.744-0.317c-0.318,0-0.585,0.127-0.752,0.317c-0.226,0.25-0.284,0.526-0.284,1.672    c0,1.146,0.059,1.422,0.284,1.672c0.167,0.191,0.435,0.317,0.752,0.317s0.577-0.126,0.744-0.317    c0.226-0.25,0.292-0.524,0.292-1.672C104.375,273.126,104.309,272.85,104.083,272.6z"
   id="path932" />
		<path
   fill="#FFFFFF"
   d="M110.443,276.68c-0.394,0.395-0.954,0.567-1.572,0.567h-2.148v-5.953h2.148    c0.618,0,1.178,0.179,1.572,0.567c0.668,0.67,0.602,1.488,0.602,2.384S111.111,276.01,110.443,276.68z M109.632,272.699    c-0.201-0.24-0.468-0.367-0.869-0.367h-0.878v3.879h0.878c0.401,0,0.668-0.125,0.869-0.367c0.217-0.269,0.25-0.695,0.25-1.598    C109.882,273.343,109.849,272.968,109.632,272.699z"
   id="path933" />
		<path
   fill="#FFFFFF"
   d="M114.328,277.296c-1.221,0-2.19-0.827-2.19-2.089v-3.913h1.162v3.87c0,0.688,0.401,1.097,1.028,1.097    c0.626,0,1.036-0.409,1.036-1.097v-3.87h1.154v3.913C116.518,276.469,115.548,277.296,114.328,277.296z"
   id="path934" />
		<path
   fill="#FFFFFF"
   d="M117.812,277.248v-5.953h1.161v4.916h2.7v1.037H117.812L117.812,277.248z"
   id="path935" />
		<path
   fill="#FFFFFF"
   d="M126.002,277.248l-0.352-1.055h-2.114l-0.359,1.055h-1.212l2.164-5.953h0.911l2.174,5.953H126.002z     M124.613,273.051l-0.752,2.164h1.479L124.613,273.051z"
   id="path936" />
		<path
   fill="#FFFFFF"
   d="M129.719,272.332v4.916h-1.16v-4.916h-1.557v-1.037h4.271v1.037H129.719z"
   id="path937" />
		<path
   fill="#FFFFFF"
   d="M132.218,277.248v-5.953h1.161v5.953H132.218z"
   id="path938" />
		<path
   fill="#FFFFFF"
   d="M138.369,276.645c-0.418,0.42-0.928,0.651-1.604,0.651c-0.678,0-1.197-0.231-1.613-0.651    c-0.604-0.602-0.586-1.346-0.586-2.373s-0.018-1.771,0.586-2.373c0.416-0.418,0.938-0.651,1.613-0.651    c0.674,0,1.187,0.233,1.604,0.651c0.604,0.603,0.595,1.346,0.595,2.373C138.963,275.299,138.971,276.043,138.369,276.645z     M137.508,272.6c-0.167-0.19-0.426-0.317-0.744-0.317c-0.315,0-0.584,0.127-0.752,0.317c-0.226,0.25-0.285,0.526-0.285,1.672    c0,1.146,0.062,1.422,0.285,1.672c0.168,0.191,0.437,0.317,0.752,0.317c0.318,0,0.577-0.126,0.744-0.317    c0.227-0.25,0.294-0.524,0.294-1.672C137.802,273.126,137.734,272.85,137.508,272.6z"
   id="path939" />
		<path
   fill="#FFFFFF"
   d="M143.667,277.248l-2.358-3.654v3.654h-1.16v-5.953h1.037l2.354,3.646v-3.646h1.164v5.953H143.667z"
   id="path940" />
	</g>
	<g
   id="g946">
		<path
   fill="#FFFFFF"
   d="M28.833,272.332v4.916h-1.162v-4.916h-1.555v-1.037h4.271v1.037H28.833z"
   id="path941" />
		<path
   fill="#FFFFFF"
   d="M31.332,277.248v-5.953h1.162v5.953H31.332z"
   id="path942" />
		<path
   fill="#FFFFFF"
   d="M38.109,277.248v-3.469l-1.137,2.256h-0.786l-1.145-2.256v3.469H33.88v-5.953h1.145l1.555,3.221    l1.546-3.221h1.146v5.953H38.109z"
   id="path943" />
		<path
   fill="#FFFFFF"
   d="M43.148,277.248h-2.491v-5.953h2.391c1.162,0,1.839,0.652,1.839,1.674c0,0.66-0.435,1.086-0.735,1.229    c0.359,0.167,0.819,0.542,0.819,1.337C44.97,276.645,44.209,277.248,43.148,277.248z M42.955,272.332h-1.137v1.372h1.137    c0.493,0,0.77-0.277,0.77-0.687C43.725,272.607,43.448,272.332,42.955,272.332z M43.031,274.747h-1.212v1.464h1.212    c0.526,0,0.777-0.334,0.777-0.736C43.808,275.073,43.557,274.747,43.031,274.747z"
   id="path944" />
		<path
   fill="#FFFFFF"
   d="M49.314,277.248l-1.162-2.374h-0.836v2.374h-1.162v-5.953h2.332c1.212,0,1.931,0.827,1.931,1.824    c0,0.836-0.51,1.354-1.086,1.562l1.329,2.564L49.314,277.248L49.314,277.248z M48.412,272.332h-1.095v1.57h1.095    c0.51,0,0.844-0.324,0.844-0.783C49.256,272.658,48.922,272.332,48.412,272.332z"
   id="path945" />
		<path
   fill="#FFFFFF"
   d="M51.62,277.248v-5.953h3.92v1.037h-2.758v1.396h2.349v1.037h-2.349v1.443h2.758v1.037L51.62,277.248    L51.62,277.248z"
   id="path946" />
	</g>
	<g
   id="g950">
		<path
   d="M16.758,305.072v4.916h-1.162v-4.916h-1.555v-1.037h4.271v1.037H16.758z"
   id="path947" />
		<path
   d="M22.416,309.988l-1.162-2.375h-0.836v2.375h-1.162v-5.953h2.332c1.212,0,1.931,0.826,1.931,1.824    c0,0.834-0.51,1.353-1.087,1.562l1.33,2.565h-1.346V309.988z M21.513,305.072h-1.095v1.57h1.095c0.51,0,0.844-0.326,0.844-0.783    C22.357,305.398,22.023,305.072,21.513,305.072z"
   id="path948" />
		<path
   d="M24.721,309.988v-5.953h1.162v5.953H24.721z"
   id="path949" />
		<path
   d="M30.939,309.359c-0.459,0.47-1.012,0.678-1.681,0.678c-0.635,0-1.169-0.217-1.604-0.652    c-0.259-0.259-0.418-0.559-0.485-0.893c-0.066-0.334-0.1-0.827-0.1-1.479c0-0.652,0.034-1.146,0.1-1.479    c0.067-0.345,0.226-0.636,0.485-0.896c0.435-0.438,0.97-0.652,1.604-0.652c1.354,0,2.082,0.869,2.24,1.906h-1.17    c-0.142-0.578-0.493-0.871-1.07-0.871c-0.309,0-0.56,0.109-0.744,0.316c-0.217,0.277-0.284,0.493-0.284,1.676    c0,1.17,0.05,1.402,0.284,1.678c0.176,0.211,0.426,0.312,0.744,0.312c0.343,0,0.619-0.11,0.828-0.335    c0.175-0.201,0.268-0.469,0.268-0.795v-0.227h-1.096v-0.97h2.249v0.869C31.507,308.417,31.349,308.925,30.939,309.359z"
   id="path950" />
	</g>
	<g
   id="g955">
		<path
   d="M50.744,309.988h-0.869l-1.964-5.953h1.204l1.195,3.88l1.195-3.88h1.212L50.744,309.988z"
   id="path951" />
		<path
   d="M53.76,310.605h-1.02l2.382-7.188h1.02L53.76,310.605z"
   id="path952" />
		<path
   d="M60.404,309.384c-0.418,0.421-0.928,0.652-1.605,0.652c-0.677,0-1.195-0.231-1.614-0.652    c-0.602-0.602-0.584-1.345-0.584-2.372c0-1.029-0.017-1.773,0.584-2.373c0.418-0.418,0.937-0.652,1.614-0.652    c0.677,0,1.187,0.234,1.605,0.652c0.602,0.602,0.593,1.344,0.593,2.373C60.998,308.04,61.006,308.783,60.404,309.384z     M59.543,305.338c-0.167-0.191-0.426-0.316-0.744-0.316c-0.318,0-0.585,0.125-0.752,0.316c-0.226,0.251-0.284,0.528-0.284,1.674    c0,1.146,0.059,1.42,0.284,1.672c0.167,0.19,0.435,0.317,0.752,0.317c0.317,0,0.577-0.127,0.744-0.317    c0.226-0.252,0.292-0.524,0.292-1.672C59.835,305.866,59.769,305.589,59.543,305.338z"
   id="path953" />
		<path
   d="M64.172,310.037c-0.635,0-1.17-0.217-1.605-0.652c-0.259-0.259-0.417-0.559-0.484-0.893s-0.101-0.827-0.101-1.479    c0-0.652,0.034-1.146,0.101-1.479c0.067-0.345,0.226-0.636,0.484-0.896c0.435-0.438,0.97-0.652,1.605-0.652    c1.146,0,1.99,0.668,2.19,1.882h-1.179c-0.125-0.513-0.443-0.847-1.003-0.847c-0.318,0-0.569,0.103-0.744,0.311    c-0.242,0.259-0.293,0.527-0.293,1.682c0,1.155,0.051,1.42,0.293,1.68c0.175,0.209,0.426,0.312,0.744,0.312    c0.56,0,0.877-0.335,1.003-0.844h1.179C66.162,309.368,65.31,310.037,64.172,310.037z"
   id="path954" />
		<path
   d="M69.471,305.072v4.916h-1.162v-4.916h-1.555v-1.037h4.271v1.037H69.471z"
   id="path955" />
	</g>
	<g
   id="g957">
		<path
   d="M92.509,305.072v1.463h2.349v1.035h-2.349v2.418h-1.162v-5.953h3.92v1.037H92.509z"
   id="path956" />
		<path
   d="M100.507,309.988v-3.469l-1.137,2.256h-0.786l-1.146-2.256v3.469h-1.162v-5.953h1.145l1.555,3.22l1.546-3.22h1.146v5.953    H100.507z"
   id="path957" />
	</g>
	<g
   id="g963">
		<path
   fill="#FFFFFF"
   d="M122.609,305.072v4.916h-1.162v-4.916h-1.555v-1.037h4.271v1.037H122.609z"
   id="path958" />
		<path
   fill="#FFFFFF"
   d="M125.107,309.988v-5.953h1.162v5.953H125.107z"
   id="path959" />
		<path
   fill="#FFFFFF"
   d="M131.885,309.988v-3.469l-1.137,2.256h-0.784l-1.146-2.256v3.469h-1.162v-5.953h1.146l1.554,3.22    l1.547-3.22h1.146v5.953H131.885z"
   id="path960" />
		<path
   fill="#FFFFFF"
   d="M136.923,309.988h-2.489v-5.953h2.392c1.159,0,1.84,0.652,1.84,1.673c0,0.66-0.437,1.086-0.733,1.229    c0.356,0.166,0.817,0.541,0.817,1.336C138.748,309.384,137.984,309.988,136.923,309.988z M136.732,305.072h-1.137v1.371h1.137    c0.492,0,0.769-0.276,0.769-0.688C137.5,305.348,137.225,305.072,136.732,305.072z M136.807,307.486h-1.211v1.464h1.211    c0.526,0,0.776-0.334,0.776-0.735C137.583,307.814,137.333,307.486,136.807,307.486z"
   id="path961" />
		<path
   fill="#FFFFFF"
   d="M143.092,309.988l-1.162-2.375h-0.837v2.375h-1.161v-5.953h2.334c1.209,0,1.93,0.826,1.93,1.824    c0,0.834-0.51,1.353-1.086,1.562l1.328,2.565h-1.346V309.988z M142.189,305.072h-1.098v1.57h1.098c0.51,0,0.845-0.326,0.845-0.783    C143.034,305.398,142.699,305.072,142.189,305.072z"
   id="path962" />
		<path
   fill="#FFFFFF"
   d="M145.396,309.988v-5.953h3.92v1.037h-2.758v1.396h2.349v1.037h-2.349v1.444h2.758v1.037h-3.92V309.988z"
   id="path963" />
	</g>
	<g
   id="g968">
		<path
   fill="#FFFFFF"
   d="M162.27,310.037c-0.635,0-1.17-0.217-1.604-0.652c-0.261-0.259-0.418-0.559-0.483-0.893    c-0.064-0.334-0.102-0.827-0.102-1.479c0-0.652,0.034-1.146,0.102-1.479c0.065-0.345,0.227-0.636,0.483-0.896    c0.437-0.438,0.974-0.652,1.604-0.652c1.146,0,1.989,0.668,2.189,1.882h-1.178c-0.127-0.513-0.444-0.847-1.006-0.847    c-0.315,0-0.565,0.103-0.743,0.311c-0.242,0.259-0.291,0.527-0.291,1.682c0,1.155,0.049,1.42,0.291,1.68    c0.178,0.209,0.428,0.312,0.743,0.312c0.562,0,0.879-0.335,1.006-0.844h1.178C164.259,309.368,163.406,310.037,162.27,310.037z"
   id="path964" />
		<path
   fill="#FFFFFF"
   d="M168.796,309.384c-0.418,0.421-0.928,0.652-1.606,0.652c-0.676,0-1.192-0.231-1.609-0.652    c-0.604-0.602-0.585-1.345-0.585-2.372c0-1.029-0.019-1.773,0.585-2.373c0.417-0.418,0.938-0.652,1.609-0.652    c0.681,0,1.188,0.234,1.606,0.652c0.601,0.602,0.593,1.344,0.593,2.373C169.389,308.04,169.396,308.783,168.796,309.384z     M167.934,305.338c-0.166-0.191-0.426-0.316-0.744-0.316c-0.313,0-0.584,0.125-0.752,0.316c-0.224,0.251-0.283,0.528-0.283,1.674    c0,1.146,0.062,1.42,0.283,1.672c0.168,0.19,0.438,0.317,0.752,0.317c0.318,0,0.578-0.127,0.744-0.317    c0.229-0.252,0.295-0.524,0.295-1.672C168.229,305.866,168.161,305.589,167.934,305.338z"
   id="path965" />
		<path
   fill="#FFFFFF"
   d="M170.576,309.988v-5.953h1.16v4.915h2.701v1.038H170.576z"
   id="path966" />
		<path
   fill="#FFFFFF"
   d="M178.771,309.384c-0.418,0.421-0.926,0.652-1.604,0.652c-0.677,0-1.194-0.231-1.612-0.652    c-0.604-0.602-0.587-1.345-0.587-2.372c0-1.029-0.017-1.773,0.587-2.373c0.418-0.418,0.938-0.652,1.612-0.652    s1.187,0.234,1.604,0.652c0.604,0.602,0.596,1.344,0.596,2.373C179.367,308.04,179.375,308.783,178.771,309.384z M177.912,305.338    c-0.167-0.191-0.426-0.316-0.743-0.316s-0.585,0.125-0.752,0.316c-0.228,0.251-0.286,0.528-0.286,1.674    c0,1.146,0.061,1.42,0.286,1.672c0.167,0.19,0.435,0.317,0.752,0.317s0.576-0.127,0.743-0.317    c0.227-0.252,0.294-0.524,0.294-1.672C178.206,305.866,178.139,305.589,177.912,305.338z"
   id="path967" />
		<path
   fill="#FFFFFF"
   d="M183.712,309.988l-1.164-2.375h-0.836v2.375h-1.161v-5.953h2.333c1.212,0,1.931,0.826,1.931,1.824    c0,0.834-0.51,1.353-1.086,1.562l1.328,2.565h-1.345V309.988z M182.809,305.072h-1.097v1.57h1.097c0.51,0,0.844-0.326,0.844-0.783    C183.652,305.398,183.318,305.072,182.809,305.072z"
   id="path968" />
	</g>
	<g
   id="g971">
		<path
   fill="#FFFFFF"
   d="M213.579,309.384c-0.418,0.421-0.929,0.652-1.606,0.652c-0.677,0-1.193-0.231-1.611-0.652    c-0.602-0.602-0.584-1.345-0.584-2.372c0-1.029-0.018-1.773,0.584-2.373c0.418-0.418,0.937-0.652,1.611-0.652    c0.68,0,1.188,0.234,1.606,0.652c0.601,0.602,0.593,1.344,0.593,2.373C214.171,308.04,214.18,308.783,213.579,309.384z     M212.716,305.338c-0.167-0.191-0.426-0.316-0.743-0.316c-0.314,0-0.586,0.125-0.752,0.316c-0.225,0.251-0.283,0.528-0.283,1.674    c0,1.146,0.061,1.42,0.283,1.672c0.166,0.19,0.438,0.317,0.752,0.317c0.317,0,0.576-0.127,0.743-0.317    c0.228-0.252,0.294-0.524,0.294-1.672C213.01,305.866,212.943,305.589,212.716,305.338z"
   id="path969" />
		<path
   fill="#FFFFFF"
   d="M217.455,310.037c-1.221,0-2.188-0.828-2.188-2.089v-3.913h1.159v3.869c0,0.688,0.401,1.098,1.027,1.098    c0.628,0,1.037-0.41,1.037-1.098v-3.869h1.151v3.913C219.645,309.208,218.675,310.037,217.455,310.037z"
   id="path970" />
		<path
   fill="#FFFFFF"
   d="M223.211,305.072v4.916h-1.161v-4.916h-1.555v-1.037h4.271v1.037H223.211z"
   id="path971" />
	</g>
	
<rect
   id="rect1009"
   x="13.723"
   y="53.437"
   display="inline"
   fill="none"
   stroke="#000000"
   stroke-miterlimit="10"
   width="148"
   height="56"
   style="fill:#000000;fill-opacity:1" /></g>
<g
   id="decoupe"
   display="none">
	<path
   display="inline"
   fill="none"
   stroke="#e6332d"
   stroke-width="0.25"
   stroke-miterlimit="10"
   d="m 17.447,371.127 c 0,2.614 2.119,4.732 4.731,4.732 2.614,0 4.733,-2.118 4.733,-4.732 0,-2.612 -2.119,-4.731 -4.733,-4.731 -2.612,0 -4.731,2.119 -4.731,4.731"
   id="path987" />
	<path
   display="inline"
   fill="none"
   stroke="#e6332d"
   stroke-width="0.25"
   stroke-miterlimit="10"
   d="m 17.447,8.872 c 0,2.613 2.119,4.73 4.731,4.73 2.614,0 4.733,-2.118 4.733,-4.73 0,-2.612 -2.119,-4.732 -4.732,-4.732 -2.613,0 -4.732,2.119 -4.732,4.732"
   id="path988" />
	<path
   display="inline"
   fill="none"
   stroke="#e6332d"
   stroke-width="0.25"
   stroke-miterlimit="10"
   d="m 212.741,371.127 c 0,2.614 2.119,4.732 4.731,4.732 2.612,0 4.729,-2.118 4.729,-4.732 0,-2.612 -2.117,-4.731 -4.729,-4.731 -2.612,0 -4.731,2.119 -4.731,4.731"
   id="path989" />
	<path
   display="inline"
   fill="none"
   stroke="#e6332d"
   stroke-width="0.25"
   stroke-miterlimit="10"
   d="m 212.741,8.872 c 0,2.613 2.119,4.73 4.731,4.73 2.612,0 4.729,-2.118 4.729,-4.73 0,-2.612 -2.117,-4.731 -4.729,-4.731 -2.612,0 -4.731,2.118 -4.731,4.731"
   id="path990" />
	<rect
   display="inline"
   fill="none"
   stroke="#e6332d"
   stroke-width="0.25"
   stroke-miterlimit="10"
   width="239.237"
   height="380"
   id="rect990"
   x="0"
   y="0" />
	<path
   display="inline"
   fill="none"
   stroke="#e6332d"
   stroke-width="0.25"
   stroke-miterlimit="10"
   d="m 207.493,328.545 c 0,5.392 4.368,9.758 9.758,9.758 5.389,0 9.757,-4.366 9.757,-9.758 0,-5.392 -4.368,-9.758 -9.757,-9.758 -5.39,0 -9.758,4.366 -9.758,9.758"
   id="path991" />
	<path
   display="inline"
   fill="none"
   stroke="#e6332d"
   stroke-width="0.25"
   stroke-miterlimit="10"
   d="m 12.213,328.545 c 0,5.392 4.369,9.76 9.758,9.76 5.392,0 9.758,-4.368 9.758,-9.76 0,-5.392 -4.367,-9.76 -9.758,-9.76 -5.389,0 -9.758,4.368 -9.758,9.76"
   id="path992" />
	<path
   display="inline"
   fill="none"
   stroke="#e6332d"
   stroke-width="0.25"
   stroke-miterlimit="10"
   d="m 49.77,328.545 c 0,5.392 4.37,9.76 9.759,9.76 5.388,0 9.757,-4.368 9.757,-9.76 0,-5.392 -4.37,-9.76 -9.757,-9.76 -5.39,0 -9.759,4.368 -9.759,9.76"
   id="path993" />
	<path
   display="inline"
   fill="none"
   stroke="#e6332d"
   stroke-width="0.25"
   stroke-miterlimit="10"
   d="m 87.326,328.545 c 0,5.392 4.37,9.76 9.759,9.76 5.388,0 9.757,-4.368 9.757,-9.76 0,-5.392 -4.369,-9.76 -9.757,-9.76 -5.389,0 -9.759,4.368 -9.759,9.76"
   id="path994" />
	<path
   display="inline"
   fill="none"
   stroke="#e6332d"
   stroke-width="0.25"
   stroke-miterlimit="10"
   d="m 124.883,328.545 c 0,5.392 4.368,9.758 9.76,9.758 5.389,0 9.757,-4.366 9.757,-9.758 0,-5.392 -4.368,-9.758 -9.757,-9.758 -5.392,0 -9.76,4.366 -9.76,9.758"
   id="path995" />
	<path
   display="inline"
   fill="none"
   stroke="#e6332d"
   stroke-width="0.25"
   stroke-miterlimit="10"
   d="m 162.439,328.545 c 0,5.392 4.369,9.76 9.758,9.76 5.39,0 9.76,-4.368 9.76,-9.76 0,-5.392 -4.37,-9.76 -9.76,-9.76 -5.388,0 -9.758,4.368 -9.758,9.76"
   id="path996" />
	<path
   display="inline"
   fill="none"
   stroke="#e6332d"
   stroke-width="0.25"
   stroke-miterlimit="10"
   d="m 29.661,240.286 c 0,6.125 4.964,11.091 11.09,11.091 6.124,0 11.088,-4.966 11.088,-11.091 0,-6.122 -4.964,-11.088 -11.088,-11.088 -6.126,0 -11.09,4.966 -11.09,11.088"
   id="path997" />
	<path
   display="inline"
   fill="none"
   stroke="#e6332d"
   stroke-width="0.25"
   stroke-miterlimit="10"
   d="m 108.529,240.286 c 0,6.125 4.964,11.091 11.09,11.091 6.123,0 11.089,-4.966 11.089,-11.091 0,-6.122 -4.966,-11.088 -11.089,-11.088 -6.126,0 -11.09,4.966 -11.09,11.088"
   id="path998" />
	<path
   display="inline"
   fill="none"
   stroke="#e6332d"
   stroke-width="0.25"
   stroke-miterlimit="10"
   d="m 187.397,240.286 c 0,6.125 4.963,11.091 11.09,11.091 6.125,0 11.088,-4.966 11.088,-11.091 0,-6.122 -4.963,-11.088 -11.088,-11.088 -6.127,0 -11.09,4.966 -11.09,11.088"
   id="path999" />
	<path
   display="inline"
   fill="none"
   stroke="#e6332d"
   stroke-width="0.25"
   stroke-miterlimit="10"
   d="m 29.661,161.418 c 0,6.125 4.964,11.088 11.09,11.088 6.124,0 11.088,-4.964 11.088,-11.088 0,-6.124 -4.964,-11.089 -11.088,-11.089 -6.126,0 -11.09,4.965 -11.09,11.089"
   id="path1000" />
	<path
   display="inline"
   fill="none"
   stroke="#e6332d"
   stroke-width="0.25"
   stroke-miterlimit="10"
   d="m 108.529,161.418 c 0,6.125 4.964,11.088 11.09,11.088 6.123,0 11.089,-4.964 11.089,-11.088 0,-6.124 -4.966,-11.089 -11.089,-11.089 -6.126,0 -11.09,4.965 -11.09,11.089"
   id="path1001" />
	<path
   display="inline"
   fill="none"
   stroke="#e6332d"
   stroke-width="0.25"
   stroke-miterlimit="10"
   d="m 187.397,161.418 c 0,6.125 4.963,11.089 11.09,11.089 6.125,0 11.088,-4.964 11.088,-11.089 0,-6.125 -4.963,-11.09 -11.088,-11.09 -6.127,0.001 -11.09,4.966 -11.09,11.09"
   id="path1002" />
	
		<line
   display="inline"
   fill="none"
   stroke="#e6332d"
   stroke-width="0.25"
   stroke-miterlimit="10"
   x1="13.535"
   y1="102.934"
   x2="13.582"
   y2="59.345001"
   id="line1002" />
	
		<line
   display="inline"
   fill="none"
   stroke="#e6332d"
   stroke-width="0.25"
   stroke-miterlimit="10"
   x1="19.497999"
   y1="53.437"
   x2="155.948"
   y2="53.437"
   id="line1003" />
	
		<line
   display="inline"
   fill="none"
   stroke="#e6332d"
   stroke-width="0.25"
   stroke-miterlimit="10"
   x1="161.86301"
   y1="59.351002"
   x2="161.86301"
   y2="102.939"
   id="line1004" />
	
		<line
   display="inline"
   fill="none"
   stroke="#e6332d"
   stroke-width="0.25"
   stroke-miterlimit="10"
   x1="155.948"
   y1="108.854"
   x2="19.451"
   y2="108.854"
   id="line1005" />
	<path
   display="inline"
   fill="none"
   stroke="#e6332d"
   stroke-width="0.25"
   stroke-miterlimit="10"
   d="m 187.397,80.672 c 0,6.124 4.965,11.089 11.09,11.089 6.123,0 11.088,-4.965 11.088,-11.089 0,-6.126 -4.965,-11.09 -11.088,-11.09 -6.125,0.001 -11.09,4.964 -11.09,11.09"
   id="path1005" />
	<path
   display="inline"
   fill="none"
   stroke="#e6332d"
   stroke-width="0.25"
   stroke-miterlimit="10"
   d="m 13.535,102.934 c -0.004,3.267 2.641,5.917 5.909,5.921 h 0.007"
   id="path1006" />
	<path
   display="inline"
   fill="none"
   stroke="#e6332d"
   stroke-width="0.25"
   stroke-miterlimit="10"
   d="m 19.498,53.437 c -3.266,0 -5.912,2.643 -5.916,5.908"
   id="path1007" />
	<path
   display="inline"
   fill="none"
   stroke="#e6332d"
   stroke-width="0.25"
   stroke-miterlimit="10"
   d="m 161.863,59.351 c 0,-3.266 -2.651,-5.914 -5.915,-5.914"
   id="path1008" />
	<path
   display="inline"
   fill="none"
   stroke="#e6332d"
   stroke-width="0.25"
   stroke-miterlimit="10"
   d="m 155.948,108.854 c 3.264,0 5.915,-2.648 5.915,-5.915"
   id="path1009" />
</g>
<g
   id="widgets"
   display="none">
	
		<rect
   id="PJ301_10_"
   x="10.771"
   y="317.047"
   display="inline"
   fill="none"
   stroke="#000000"
   stroke-miterlimit="10"
   width="22.992001"
   height="22.997" />
	
		<rect
   id="PJ301_1_"
   x="48.032001"
   y="317.047"
   display="inline"
   fill="none"
   stroke="#000000"
   stroke-miterlimit="10"
   width="22.992001"
   height="22.997" />
	
		<rect
   id="PJ301_2_"
   x="85.571999"
   y="317.047"
   display="inline"
   fill="none"
   stroke="#000000"
   stroke-miterlimit="10"
   width="22.992001"
   height="22.997" />
	
		<rect
   id="PJ301_3_"
   x="123.201"
   y="317.047"
   display="inline"
   fill="none"
   stroke="#000000"
   stroke-miterlimit="10"
   width="22.992001"
   height="22.997" />
	
		<rect
   id="PJ301_4_"
   x="160.702"
   y="317.047"
   display="inline"
   fill="none"
   stroke="#000000"
   stroke-miterlimit="10"
   width="22.992001"
   height="22.997" />
	
		<rect
   id="PJ301_5_"
   x="205.959"
   y="317.047"
   display="inline"
   fill="none"
   stroke="#000000"
   stroke-miterlimit="10"
   width="22.992001"
   height="22.997" />
	
		<rect
   id="Rogan2"
   x="181.34"
   y="63.525002"
   display="inline"
   fill="none"
   stroke="#000000"
   stroke-miterlimit="10"
   width="34.292999"
   height="34.292999" />
	
		<rect
   id="Rogan2_1_"
   x="181.34"
   y="144.035"
   display="inline"
   fill="none"
   stroke="#000000"
   stroke-miterlimit="10"
   width="34.292999"
   height="34.292999" />
	
		<rect
   id="Rogan2_2_"
   x="181.34"
   y="222.752"
   display="inline"
   fill="none"
   stroke="#000000"
   stroke-miterlimit="10"
   width="34.292999"
   height="34.292999" />
	
		<rect
   id="Rogan2_4_"
   x="102.352"
   y="144.035"
   display="inline"
   fill="none"
   stroke="#000000"
   stroke-miterlimit="10"
   width="34.292999"
   height="34.292999" />
	
		<rect
   id="Rogan2_3_"
   x="102.352"
   y="222.752"
   display="inline"
   fill="none"
   stroke="#000000"
   stroke-miterlimit="10"
   width="34.292999"
   height="34.292999" />
	
		<rect
   id="Rogan2_6_"
   x="23.891001"
   y="144.035"
   display="inline"
   fill="none"
   stroke="#000000"
   stroke-miterlimit="10"
   width="34.292999"
   height="34.292999" />
	
		<rect
   id="Rogan2_5_"
   x="23.891001"
   y="222.752"
   display="inline"
   fill="none"
   stroke="#000000"
   stroke-miterlimit="10"
   width="34.292999"
   height="34.292999" />
	
		<rect
   id="BraidsDisplay"
   x="13.723"
   y="53.437"
   display="inline"
   fill="none"
   stroke="#000000"
   stroke-miterlimit="10"
   width="148"
   height="56" />
</g>
</svg>
