<?xml version="1.0" encoding="UTF-8" standalone="no"?>
<!-- Generator: Adobe Illustrator 16.0.3, SVG Export Plug-In . SVG Version: 6.00 Build 0)  -->

<svg
   version="1.1"
   x="0px"
   y="0px"
   width="270px"
   height="380px"
   viewBox="0 0 270 380"
   enable-background="new 0 0 270 380"
   xml:space="preserve"
   id="svg2411"
   sodipodi:docname="Clouds.svg"
   inkscape:version="1.3.2 (091e20e, 2023-11-25)"
   inkscape:export-filename="Clouds.png"
   inkscape:export-xdpi="60.630001"
   inkscape:export-ydpi="60.630001"
   xmlns:inkscape="http://www.inkscape.org/namespaces/inkscape"
   xmlns:sodipodi="http://sodipodi.sourceforge.net/DTD/sodipodi-0.dtd"
   xmlns="http://www.w3.org/2000/svg"
   xmlns:svg="http://www.w3.org/2000/svg"><defs
   id="defs2411" /><sodipodi:namedview
   id="namedview2411"
   pagecolor="#ffffff"
   bordercolor="#000000"
   borderopacity="0.25"
   inkscape:showpageshadow="2"
   inkscape:pageopacity="0.0"
   inkscape:pagecheckerboard="0"
   inkscape:deskcolor="#d1d1d1"
   showgrid="false"
   inkscape:zoom="2.6653105"
   inkscape:cx="75.225758"
   inkscape:cy="180.46678"
   inkscape:window-width="2512"
   inkscape:window-height="1387"
   inkscape:window-x="50"
   inkscape:window-y="25"
   inkscape:window-maximized="1"
   inkscape:current-layer="g2351" />
<g
   id="faceplate">
	<rect
   id="background"
   fill="#E6E6E6"
   width="270"
   height="380" />
	
	<g
   id="g2061">
		<rect
   x="9.675"
   y="251.955"
   fill="#BBBDBF"
   width="250.773"
   height="2.087"
   id="rect2061" />
	</g>
	<g
   id="g2064">
		<g
   id="g2062">
			<line
   fill="none"
   x1="0.066"
   y1="24"
   x2="269.988"
   y2="24"
   id="line2061" />
			<rect
   x="0.066"
   y="23.478"
   fill="#BBBDBF"
   width="269.922"
   height="1.043"
   id="rect2062" />
		</g>
		<g
   id="g2063">
			<line
   fill="none"
   x1="0.066"
   y1="31.704"
   x2="269.988"
   y2="31.704"
   id="line2062" />
			<rect
   x="0.066"
   y="31.182"
   fill="#BBBDBF"
   width="269.922"
   height="1.043"
   id="rect2063" />
		</g>
	</g>
	<g
   id="g2065">
		<rect
   x="9.673"
   y="351.646"
   fill="#BBBDBF"
   width="250.771"
   height="2.086"
   id="rect2064" />
	</g>
	<g
   id="g2066">
		<path
   fill="#231F20"
   d="M210.857,75.843h-0.521c-0.288,0-0.521-0.233-0.521-0.521c0-0.289,0.232-0.521,0.521-0.521h0.521    c0.289,0,0.521,0.233,0.521,0.521C211.38,75.61,211.146,75.843,210.857,75.843z M208.25,75.843h-0.521    c-0.289,0-0.521-0.233-0.521-0.521c0-0.289,0.231-0.521,0.521-0.521h0.521c0.289,0,0.521,0.233,0.521,0.521    C208.771,75.61,208.539,75.843,208.25,75.843z M205.643,75.843h-0.521c-0.289,0-0.521-0.233-0.521-0.521    c0-0.289,0.231-0.521,0.521-0.521h0.521c0.289,0,0.521,0.233,0.521,0.521C206.164,75.61,205.932,75.843,205.643,75.843z     M203.034,75.843h-0.521c-0.289,0-0.521-0.233-0.521-0.521c0-0.289,0.232-0.521,0.521-0.521h0.521    c0.288,0,0.521,0.233,0.521,0.521C203.557,75.61,203.322,75.843,203.034,75.843z M200.426,75.843h-0.521    c-0.287,0-0.521-0.233-0.521-0.521c0-0.289,0.233-0.521,0.521-0.521h0.521c0.289,0,0.522,0.233,0.522,0.521    C200.948,75.61,200.715,75.843,200.426,75.843z M197.818,75.843h-0.521c-0.29,0-0.521-0.233-0.521-0.521    c0-0.289,0.231-0.521,0.521-0.521h0.521c0.287,0,0.521,0.233,0.521,0.521C198.34,75.61,198.105,75.843,197.818,75.843z     M195.21,75.843h-0.521c-0.289,0-0.521-0.233-0.521-0.521c0-0.289,0.232-0.521,0.521-0.521h0.521c0.288,0,0.521,0.233,0.521,0.521    C195.73,75.61,195.498,75.843,195.21,75.843z M192.602,75.843h-0.521c-0.289,0-0.521-0.233-0.521-0.521    c0-0.289,0.231-0.521,0.521-0.521h0.521c0.289,0,0.522,0.233,0.522,0.521C193.124,75.61,192.891,75.843,192.602,75.843z     M189.994,75.843h-0.521c-0.289,0-0.521-0.233-0.521-0.521c0-0.289,0.232-0.521,0.521-0.521h0.521    c0.288,0,0.521,0.233,0.521,0.521C190.516,75.61,190.282,75.843,189.994,75.843z M212.945,75.835    c-0.277,0-0.508-0.216-0.521-0.494c-0.015-0.288,0.206-0.534,0.494-0.548c0.159-0.008,0.314-0.023,0.467-0.046    c0.288-0.044,0.553,0.152,0.596,0.438c0.041,0.285-0.154,0.55-0.439,0.593c-0.186,0.028-0.377,0.045-0.566,0.056    C212.963,75.835,212.954,75.835,212.945,75.835z M215.436,75.136c-0.186,0-0.365-0.099-0.459-0.274    c-0.137-0.254-0.043-0.569,0.213-0.707c0.139-0.076,0.272-0.157,0.406-0.245c0.236-0.159,0.562-0.093,0.725,0.15    c0.156,0.24,0.091,0.564-0.15,0.722c-0.158,0.104-0.32,0.202-0.486,0.292C215.604,75.116,215.52,75.136,215.436,75.136z     M217.389,73.441c-0.109,0-0.218-0.034-0.312-0.103c-0.231-0.172-0.279-0.499-0.104-0.73c0.094-0.126,0.182-0.256,0.264-0.392    c0.15-0.246,0.474-0.323,0.717-0.173c0.246,0.15,0.324,0.471,0.175,0.716c-0.101,0.163-0.206,0.32-0.319,0.473    C217.705,73.369,217.548,73.441,217.389,73.441z M218.439,71.079c-0.035,0-0.067-0.003-0.104-0.01    c-0.281-0.056-0.465-0.33-0.409-0.613c0.03-0.155,0.054-0.312,0.072-0.472c0.032-0.287,0.28-0.497,0.577-0.46    c0.285,0.031,0.492,0.289,0.46,0.577c-0.022,0.188-0.05,0.376-0.086,0.559C218.902,70.906,218.684,71.079,218.439,71.079z     M218.553,68.478c-0.289,0-0.521-0.233-0.521-0.521v-0.522c0-0.288,0.231-0.521,0.521-0.521s0.521,0.233,0.521,0.521v0.522    C219.074,68.244,218.842,68.478,218.553,68.478z M218.553,65.87c-0.289,0-0.521-0.233-0.521-0.522v-0.521    c0-0.288,0.231-0.521,0.521-0.521s0.521,0.233,0.521,0.521v0.521C219.074,65.636,218.842,65.87,218.553,65.87z M218.553,63.261    c-0.289,0-0.521-0.233-0.521-0.521v-0.521c0-0.289,0.231-0.521,0.521-0.521s0.521,0.233,0.521,0.521v0.521    C219.074,63.028,218.842,63.261,218.553,63.261z M218.553,60.653c-0.289,0-0.521-0.233-0.521-0.521V59.61    c0-0.288,0.231-0.521,0.521-0.521s0.521,0.233,0.521,0.521v0.522C219.074,60.42,218.842,60.653,218.553,60.653z"
   id="path2065" />
	</g>
	<path
   fill="none"
   stroke="#000000"
   stroke-miterlimit="10"
   d="M99.54,134.253"
   id="path2066" />
	<g
   id="g2067">
		<path
   fill="#231F20"
   d="M71.146,329.064h-0.521c-0.289,0-0.521-0.231-0.521-0.521c0-0.287,0.232-0.521,0.521-0.521h0.521    c0.288,0,0.522,0.234,0.522,0.521C71.668,328.833,71.434,329.064,71.146,329.064z M68.539,329.064h-0.521    c-0.29,0-0.521-0.231-0.521-0.521c0-0.287,0.232-0.521,0.521-0.521h0.521c0.288,0,0.521,0.234,0.521,0.521    C69.06,328.833,68.826,329.064,68.539,329.064z M65.931,329.064H65.41c-0.29,0-0.522-0.231-0.522-0.521    c0-0.287,0.232-0.521,0.522-0.521h0.521c0.287,0,0.521,0.234,0.521,0.521C66.452,328.833,66.218,329.064,65.931,329.064z     M63.322,329.064h-0.521c-0.289,0-0.521-0.231-0.521-0.521c0-0.287,0.232-0.521,0.521-0.521h0.521    c0.288,0,0.522,0.234,0.522,0.521C63.844,328.833,63.61,329.064,63.322,329.064z M60.714,329.064h-0.521    c-0.29,0-0.521-0.231-0.521-0.521c0-0.287,0.232-0.521,0.521-0.521h0.521c0.287,0,0.521,0.234,0.521,0.521    C61.236,328.833,61.001,329.064,60.714,329.064z M58.106,329.064h-0.522c-0.289,0-0.521-0.231-0.521-0.521    c0-0.287,0.232-0.521,0.521-0.521h0.522c0.287,0,0.521,0.234,0.521,0.521C58.628,328.833,58.394,329.064,58.106,329.064z     M55.498,329.064h-0.521c-0.289,0-0.521-0.231-0.521-0.521c0-0.287,0.232-0.521,0.521-0.521h0.521    c0.288,0,0.522,0.234,0.522,0.521C56.02,328.833,55.786,329.064,55.498,329.064z M52.89,329.064h-0.521    c-0.29,0-0.522-0.231-0.522-0.521c0-0.287,0.232-0.521,0.522-0.521h0.521c0.287,0,0.521,0.234,0.521,0.521    C53.412,328.833,53.177,329.064,52.89,329.064z M50.282,329.064H49.76c-0.289,0-0.521-0.231-0.521-0.521    c0-0.287,0.232-0.521,0.521-0.521h0.522c0.287,0,0.521,0.234,0.521,0.521C50.804,328.833,50.569,329.064,50.282,329.064z     M47.674,329.064h-0.521c-0.29,0-0.521-0.231-0.521-0.521c0-0.287,0.232-0.521,0.521-0.521h0.521c0.288,0,0.522,0.234,0.522,0.521    C48.196,328.833,47.961,329.064,47.674,329.064z M45.066,329.064h-0.521c-0.29,0-0.522-0.231-0.522-0.521    c0-0.287,0.232-0.521,0.522-0.521h0.521c0.287,0,0.521,0.234,0.521,0.521C45.587,328.833,45.353,329.064,45.066,329.064z     M42.458,329.064h-0.522c-0.289,0-0.521-0.231-0.521-0.521c0-0.287,0.232-0.521,0.521-0.521h0.522    c0.287,0,0.521,0.234,0.521,0.521C42.979,328.833,42.745,329.064,42.458,329.064z M39.85,329.064h-0.521    c-0.29,0-0.521-0.231-0.521-0.521c0-0.287,0.232-0.521,0.521-0.521h0.521c0.288,0,0.521,0.234,0.521,0.521    C40.371,328.833,40.137,329.064,39.85,329.064z M37.242,329.064H36.72c-0.29,0-0.522-0.231-0.522-0.521    c0-0.287,0.232-0.521,0.522-0.521h0.521c0.287,0,0.521,0.234,0.521,0.521C37.763,328.833,37.529,329.064,37.242,329.064z     M34.633,329.064h-0.521c-0.289,0-0.521-0.231-0.521-0.521c0-0.287,0.232-0.521,0.521-0.521h0.521    c0.288,0,0.522,0.234,0.522,0.521C35.155,328.833,34.921,329.064,34.633,329.064z M32.025,329.064h-0.521    c-0.29,0-0.521-0.231-0.521-0.521c0-0.287,0.232-0.521,0.521-0.521h0.521c0.288,0,0.521,0.234,0.521,0.521    C32.547,328.833,32.313,329.064,32.025,329.064z M29.417,329.064h-0.522c-0.289,0-0.521-0.231-0.521-0.521    c0-0.287,0.232-0.521,0.521-0.521h0.522c0.287,0,0.521,0.234,0.521,0.521C29.939,328.833,29.705,329.064,29.417,329.064z     M26.809,329.064h-0.521c-0.289,0-0.521-0.231-0.521-0.521c0-0.287,0.232-0.521,0.521-0.521h0.521    c0.288,0,0.522,0.234,0.522,0.521C27.331,328.833,27.097,329.064,26.809,329.064z"
   id="path2067" />
	</g>
	<g
   id="g2071">
		<path
   fill="#6D6E70"
   d="M191.236,306.65c-0.317,0-0.584,0.125-0.75,0.316c-0.227,0.25-0.284,0.525-0.284,1.67    c0,1.143,0.06,1.418,0.284,1.668c0.166,0.19,0.433,0.315,0.75,0.315c0.316,0,0.576-0.125,0.742-0.315    c0.227-0.25,0.291-0.525,0.291-1.668c0-1.145-0.064-1.42-0.291-1.67C191.812,306.775,191.555,306.65,191.236,306.65z"
   id="path2068" />
		<path
   fill="#6D6E70"
   d="M234.838,310.305c0.225-0.25,0.292-0.525,0.292-1.668c0-1.144-0.067-1.419-0.292-1.669    c-0.166-0.19-0.425-0.315-0.742-0.315c-0.318,0-0.586,0.125-0.75,0.315c-0.227,0.25-0.285,0.525-0.285,1.669    c0,1.143,0.06,1.418,0.285,1.668c0.164,0.191,0.432,0.316,0.75,0.316C234.413,310.621,234.672,310.496,234.838,310.305z"
   id="path2069" />
		<path
   fill="#6D6E70"
   d="M252.005,306.7h-1.092v1.569h1.092c0.511,0,0.843-0.326,0.843-0.785S252.516,306.7,252.005,306.7z"
   id="path2070" />
		<path
   fill="#6D6E70"
   d="M255.461,302.906h-68.016c-1.627,0-2.957,1.33-2.957,2.957v35.547c0,1.629,1.33,2.959,2.957,2.959h68.016    c1.627,0,2.957-1.33,2.957-2.959v-35.547C258.418,304.236,257.088,302.906,255.461,302.906z M192.838,311.004    c-0.417,0.418-0.926,0.652-1.602,0.652s-1.192-0.234-1.609-0.652c-0.602-0.6-0.585-1.343-0.585-2.367    c0-1.027-0.017-1.77,0.585-2.369c0.417-0.416,0.934-0.65,1.609-0.65c0.675,0,1.185,0.234,1.602,0.65    c0.602,0.601,0.592,1.342,0.592,2.369C193.43,309.661,193.439,310.404,192.838,311.004z M198.896,309.568    c0,1.263-0.967,2.088-2.186,2.088s-2.188-0.825-2.188-2.088v-3.902h1.16v3.861c0,0.686,0.4,1.094,1.026,1.094    c0.625,0,1.033-0.408,1.033-1.094v-3.861h1.151v3.902H198.896z M204.014,306.7h-1.552v4.905h-1.159V306.7h-1.552v-1.034h4.263    V306.7z M206.895,305.666h1.158v4.906h2.696v1.033h-3.854V305.666z M231.9,308.637c0-1.027-0.018-1.77,0.584-2.369    c0.418-0.416,0.935-0.65,1.609-0.65c0.678,0,1.188,0.234,1.602,0.65c0.603,0.601,0.594,1.342,0.594,2.369    c0,1.024,0.009,1.77-0.594,2.367c-0.414,0.418-0.924,0.652-1.602,0.652c-0.676,0-1.191-0.234-1.609-0.652    C231.884,310.404,231.9,309.661,231.9,308.637z M237.387,309.568v-3.902h1.157v3.861c0,0.686,0.399,1.094,1.026,1.094    c0.625,0,1.035-0.408,1.035-1.094v-3.861h1.147v3.902c0,1.263-0.966,2.088-2.185,2.088    C238.352,311.656,237.387,310.831,237.387,309.568z M246.873,306.7h-1.553v4.905h-1.16V306.7h-1.551v-1.034h4.264V306.7z     M252.906,311.605l-1.16-2.369h-0.833v2.369h-1.159v-5.939h2.327c1.209,0,1.925,0.827,1.925,1.818c0,0.834-0.507,1.352-1.083,1.56    l1.326,2.562H252.906L252.906,311.605z"
   id="path2071" />
	</g>
	<path
   fill="#DA4061"
   d="M248.965,36.447h-4.517c-1.628,0-2.958,1.331-2.958,2.958v4.518c0,1.627,1.33,2.958,2.958,2.958h4.517   c1.627,0,2.958-1.331,2.958-2.958v-4.518C251.923,37.777,250.592,36.447,248.965,36.447z M243.509,44.861l0.54-1.983l1.439,1.445   L243.509,44.861z M245.9,43.914l-1.441-1.444l4.003-4.004l1.442,1.442L245.9,43.914z"
   id="path2072" />
	
	<g
   id="g2234">
		<path
   fill="#231F20"
   d="M13.813,263.414v1.461h2.343v1.033h-2.343v2.41h-1.159v-5.938h3.912v1.034H13.813z"
   id="path2229" />
		<path
   fill="#231F20"
   d="M20.731,268.318l-1.16-2.367h-0.835v2.367h-1.159v-5.938h2.328c1.209,0,1.927,0.827,1.927,1.819    c0,0.833-0.509,1.351-1.084,1.559l1.327,2.562h-1.344V268.318z M19.83,263.414h-1.093v1.568h1.093    c0.508,0,0.843-0.325,0.843-0.783C20.672,263.74,20.338,263.414,19.83,263.414z"
   id="path2230" />
		<path
   fill="#231F20"
   d="M23.036,268.318v-5.938h3.912v1.034h-2.752v1.395h2.345v1.032h-2.345v1.445h2.752v1.032H23.036z"
   id="path2231" />
		<path
   fill="#231F20"
   d="M28.085,268.318v-5.938h3.912v1.034h-2.753v1.395h2.345v1.032h-2.345v1.445h2.753v1.032H28.085z"
   id="path2232" />
		<path
   fill="#231F20"
   d="M32.775,268.318v-0.934l2.537-3.972h-2.427v-1.034h3.794v0.919l-2.544,3.987h2.544v1.033H32.775    L32.775,268.318z"
   id="path2233" />
		<path
   fill="#231F20"
   d="M37.708,268.318v-5.938h3.912v1.034h-2.752v1.395h2.343v1.032h-2.343v1.445h2.752v1.032H37.708z"
   id="path2234" />
	</g>
	<g
   id="g2239">
		<path
   fill="#231F20"
   d="M190.949,268.318h-0.868l-1.96-5.938h1.201l1.193,3.871l1.19-3.871h1.211L190.949,268.318z"
   id="path2235" />
		<path
   fill="#231F20"
   d="M193.963,268.938h-1.02l2.379-7.174h1.019L193.963,268.938z"
   id="path2236" />
		<path
   fill="#231F20"
   d="M200.598,267.718c-0.418,0.418-0.928,0.652-1.603,0.652c-0.677,0-1.193-0.234-1.611-0.652    c-0.6-0.599-0.582-1.343-0.582-2.366c0-1.027-0.018-1.77,0.582-2.371c0.418-0.416,0.937-0.649,1.611-0.649    s1.185,0.233,1.603,0.649c0.6,0.603,0.592,1.344,0.592,2.371C201.188,266.375,201.195,267.119,200.598,267.718z M199.736,263.682    c-0.166-0.19-0.426-0.315-0.741-0.315c-0.317,0-0.584,0.125-0.751,0.315c-0.225,0.25-0.283,0.525-0.283,1.67    c0,1.143,0.059,1.418,0.283,1.668c0.167,0.191,0.434,0.315,0.751,0.315c0.315,0,0.575-0.124,0.741-0.315    c0.226-0.25,0.293-0.525,0.293-1.668C200.029,264.207,199.962,263.932,199.736,263.682z"
   id="path2237" />
		<path
   fill="#231F20"
   d="M204.359,268.37c-0.633,0-1.166-0.218-1.602-0.652c-0.259-0.257-0.417-0.559-0.482-0.893    c-0.066-0.332-0.101-0.825-0.101-1.476c0-0.649,0.033-1.144,0.101-1.478c0.065-0.343,0.225-0.634,0.482-0.894    c0.436-0.434,0.969-0.649,1.602-0.649c1.145,0,1.986,0.667,2.188,1.877h-1.177c-0.125-0.511-0.44-0.843-1.001-0.843    c-0.318,0-0.566,0.102-0.742,0.309c-0.242,0.26-0.293,0.526-0.293,1.678c0,1.152,0.051,1.418,0.293,1.678    c0.176,0.207,0.424,0.308,0.742,0.308c0.561,0,0.876-0.334,1.001-0.842h1.177C206.348,267.701,205.496,268.37,204.359,268.37z"
   id="path2238" />
		<path
   fill="#231F20"
   d="M209.652,263.414v4.904h-1.159v-4.904h-1.554v-1.034h4.264v1.034H209.652z"
   id="path2239" />
	</g>
	<g
   id="g2242">
		<path
   fill="#231F20"
   d="M20.098,311.605v-5.939h1.159v5.939H20.098z"
   id="path2240" />
		<path
   fill="#231F20"
   d="M26.155,311.605l-2.354-3.646v3.646h-1.159v-5.939h1.035l2.352,3.637v-3.637h1.161v5.939H26.155z"
   id="path2241" />
		<path
   fill="#231F20"
   d="M30.514,311.605v-5.939h1.159v4.906h2.694v1.033H30.514z"
   id="path2242" />
	</g>
	<g
   id="g2245">
		<path
   fill="#231F20"
   d="M62.96,311.605v-5.939h1.159v5.939H62.96z"
   id="path2243" />
		<path
   fill="#231F20"
   d="M69.018,311.605l-2.354-3.646v3.646h-1.159v-5.939h1.035l2.352,3.637v-3.637h1.159v5.939H69.018z"
   id="path2244" />
		<path
   fill="#231F20"
   d="M76.528,311.605l-1.159-2.369h-0.833v2.369h-1.159v-5.939h2.327c1.209,0,1.927,0.827,1.927,1.818    c0,0.834-0.508,1.352-1.085,1.56l1.326,2.562H76.528L76.528,311.605z M75.627,306.7h-1.092v1.569h1.092    c0.509,0,0.842-0.326,0.842-0.785C76.47,307.025,76.137,306.7,75.627,306.7z"
   id="path2245" />
	</g>
	<g
   id="g2250">
		<path
   fill="#231F20"
   d="M208.02,160.041h-1.145v2.235h-1.159v-5.939h2.304c1.227,0,1.959,0.842,1.959,1.852    C209.979,159.199,209.245,160.041,208.02,160.041z M207.959,157.372h-1.084v1.626h1.084c0.525,0,0.859-0.325,0.859-0.809    S208.484,157.372,207.959,157.372z"
   id="path2246" />
		<path
   fill="#231F20"
   d="M210.956,162.276v-5.939h1.16v5.939H210.956z"
   id="path2247" />
		<path
   fill="#231F20"
   d="M215.771,157.372v4.904h-1.16v-4.904h-1.551v-1.035h4.26v1.035H215.771z"
   id="path2248" />
		<path
   fill="#231F20"
   d="M220.087,162.326c-0.634,0-1.168-0.217-1.603-0.651c-0.258-0.258-0.418-0.558-0.484-0.893    c-0.064-0.333-0.1-0.825-0.1-1.476c0-0.65,0.033-1.142,0.1-1.476c0.066-0.342,0.227-0.634,0.484-0.893    c0.435-0.434,0.969-0.651,1.603-0.651c1.144,0,1.983,0.667,2.187,1.877h-1.178c-0.125-0.509-0.441-0.843-1-0.843    c-0.318,0-0.568,0.1-0.742,0.309c-0.242,0.258-0.293,0.524-0.293,1.676c0,1.152,0.051,1.418,0.293,1.677    c0.174,0.209,0.424,0.309,0.742,0.309c0.559,0,0.875-0.334,1-0.842h1.178C222.07,161.659,221.221,162.326,220.087,162.326z"
   id="path2249" />
		<path
   fill="#231F20"
   d="M226.445,162.276v-2.486h-2.012v2.486h-1.158v-5.939h1.158v2.428h2.012v-2.428h1.16v5.939H226.445z"
   id="path2250" />
	</g>
	<g
   id="g2256">
		<path
   fill="#231F20"
   d="M45.848,55.816v1.46h2.343v1.034h-2.343v2.411h-1.159v-5.94h3.912v1.035H45.848z"
   id="path2251" />
		<path
   fill="#231F20"
   d="M52.766,60.721l-1.159-2.369h-0.835v2.369h-1.159v-5.94h2.328c1.209,0,1.927,0.827,1.927,1.819    c0,0.834-0.508,1.352-1.084,1.56l1.326,2.562L52.766,60.721L52.766,60.721z M51.863,55.816h-1.092v1.568h1.092    c0.509,0,0.843-0.325,0.843-0.784C52.707,56.141,52.373,55.816,51.863,55.816z"
   id="path2252" />
		<path
   fill="#231F20"
   d="M55.07,60.721v-5.94h3.912v1.035h-2.753v1.393h2.345v1.034h-2.345v1.444h2.753v1.034H55.07z"
   id="path2253" />
		<path
   fill="#231F20"
   d="M60.12,60.721v-5.94h3.912v1.035h-2.753v1.393h2.345v1.034h-2.345v1.444h2.753v1.034H60.12z"
   id="path2254" />
		<path
   fill="#231F20"
   d="M64.81,60.721v-0.935l2.537-3.97H64.92v-1.035h3.794v0.918l-2.545,3.988h2.545v1.034H64.81z"
   id="path2255" />
		<path
   fill="#231F20"
   d="M69.743,60.721v-5.94h3.912v1.035h-2.752v1.393h2.343v1.034h-2.343v1.444h2.752v1.034H69.743z"
   id="path2256" />
	</g>
	<g
   id="g2257">
		<path
   fill="#DA4061"
   d="M52.654,228.238h-32.53c-1.626,0-2.957,1.33-2.957,2.955v5.916c0,1.627,1.331,2.959,2.957,2.959h32.53    c1.626,0,2.957-1.332,2.957-2.959v-5.916C55.61,229.568,54.28,228.238,52.654,228.238z M23.514,237.107h-1.161v-5.939h1.161    V237.107z M29.446,237.107h-1.035l-2.351-3.646v3.646H24.9v-5.939h1.034l2.353,3.637v-3.637h1.159V237.107z M36.999,234.673    c0,0.868-0.159,1.375-0.568,1.81c-0.458,0.467-1.009,0.677-1.676,0.677c-0.634,0-1.167-0.218-1.602-0.651    c-0.258-0.257-0.417-0.559-0.484-0.893c-0.066-0.332-0.1-0.825-0.1-1.477c0-0.648,0.034-1.143,0.1-1.478    c0.067-0.343,0.226-0.634,0.484-0.892c0.434-0.436,0.968-0.65,1.602-0.65c1.352,0,2.077,0.867,2.236,1.9h-1.17    c-0.141-0.574-0.491-0.865-1.066-0.865c-0.309,0-0.56,0.106-0.743,0.314c-0.216,0.275-0.283,0.493-0.283,1.67    c0,1.168,0.05,1.401,0.283,1.676c0.175,0.209,0.426,0.309,0.743,0.309c0.342,0,0.617-0.107,0.826-0.334    c0.175-0.199,0.267-0.467,0.267-0.79v-0.228h-1.093v-0.967h2.244V234.673L36.999,234.673z M41.38,237.107l-0.351-1.053H38.92    l-0.358,1.053h-1.21l2.161-5.939h0.91l2.168,5.939H41.38z M44.487,237.107h-1.16v-5.939h1.16V237.107z M50.418,237.107h-1.035    l-2.351-3.646v3.646h-1.16v-5.939h1.035l2.352,3.637v-3.637h1.159V237.107z"
   id="path2257" />
		<polygon
   fill="#DA4061"
   points="39.246,235.08 40.722,235.08 39.997,232.92   "
   id="polygon2257" />
	</g>
	<g
   id="g2258">
		<path
   fill="#231F20"
   d="M218.553,57.601c-0.289,0-0.521-0.233-0.521-0.521v-0.151c0-0.289,0.231-0.522,0.521-0.522    s0.521,0.233,0.521,0.522v0.151C219.074,57.368,218.842,57.601,218.553,57.601z M218.553,55.364c-0.289,0-0.521-0.233-0.521-0.521    V54.32c0-0.288,0.231-0.521,0.521-0.521s0.521,0.233,0.521,0.521v0.522C219.074,55.13,218.842,55.364,218.553,55.364z     M218.553,52.756c-0.289,0-0.521-0.233-0.521-0.522v-0.521c0-0.288,0.231-0.521,0.521-0.521s0.521,0.233,0.521,0.521v0.521    C219.074,52.522,218.842,52.756,218.553,52.756z M218.553,50.147c-0.289,0-0.521-0.233-0.521-0.521v-0.521    c0-0.289,0.231-0.522,0.521-0.522s0.521,0.233,0.521,0.522v0.521C219.074,49.914,218.842,50.147,218.553,50.147z M218.518,47.541    c-0.262,0-0.488-0.198-0.518-0.463c-0.02-0.16-0.042-0.317-0.072-0.472c-0.056-0.283,0.129-0.558,0.409-0.613    c0.274-0.056,0.558,0.126,0.614,0.409c0.035,0.184,0.062,0.371,0.086,0.56c0.031,0.286-0.174,0.545-0.46,0.577    C218.557,47.54,218.536,47.541,218.518,47.541z M217.682,45.094c-0.176,0-0.348-0.088-0.445-0.25    c-0.082-0.134-0.17-0.265-0.264-0.391c-0.175-0.231-0.127-0.559,0.104-0.73c0.229-0.17,0.557-0.125,0.729,0.107    c0.113,0.153,0.221,0.31,0.319,0.473c0.149,0.246,0.071,0.566-0.175,0.716C217.868,45.07,217.773,45.094,217.682,45.094z     M215.883,43.235c-0.1,0-0.199-0.028-0.287-0.086c-0.134-0.087-0.269-0.169-0.406-0.244c-0.256-0.138-0.35-0.454-0.213-0.707    c0.137-0.255,0.457-0.345,0.707-0.212c0.166,0.089,0.326,0.187,0.485,0.291c0.241,0.158,0.308,0.482,0.149,0.723    C216.218,43.153,216.052,43.235,215.883,43.235z M213.465,42.319c-0.025,0-0.053-0.002-0.08-0.006    c-0.152-0.022-0.308-0.038-0.467-0.046c-0.288-0.014-0.509-0.26-0.494-0.548c0.016-0.288,0.284-0.53,0.549-0.493    c0.19,0.01,0.383,0.027,0.567,0.056c0.285,0.042,0.479,0.308,0.438,0.593C213.939,42.134,213.717,42.319,213.465,42.319z     M210.857,42.26h-0.521c-0.288,0-0.521-0.233-0.521-0.521c0-0.289,0.232-0.522,0.521-0.522h0.521c0.289,0,0.521,0.233,0.521,0.522    C211.38,42.027,211.146,42.26,210.857,42.26z M208.25,42.26h-0.521c-0.289,0-0.521-0.233-0.521-0.521    c0-0.289,0.231-0.522,0.521-0.522h0.521c0.289,0,0.521,0.233,0.521,0.522C208.771,42.027,208.539,42.26,208.25,42.26z     M205.643,42.26h-0.521c-0.289,0-0.521-0.233-0.521-0.521c0-0.289,0.231-0.522,0.521-0.522h0.521c0.289,0,0.521,0.233,0.521,0.522    C206.164,42.027,205.932,42.26,205.643,42.26z M203.034,42.26h-0.521c-0.289,0-0.521-0.233-0.521-0.521    c0-0.289,0.232-0.522,0.521-0.522h0.521c0.288,0,0.521,0.233,0.521,0.522C203.557,42.027,203.322,42.26,203.034,42.26z     M200.426,42.26h-0.521c-0.287,0-0.521-0.233-0.521-0.521c0-0.289,0.233-0.522,0.521-0.522h0.521c0.289,0,0.522,0.233,0.522,0.522    C200.948,42.027,200.715,42.26,200.426,42.26z M197.818,42.26h-0.521c-0.29,0-0.521-0.233-0.521-0.521    c0-0.289,0.231-0.522,0.521-0.522h0.521c0.287,0,0.521,0.233,0.521,0.522C198.34,42.027,198.105,42.26,197.818,42.26z     M195.21,42.26h-0.521c-0.289,0-0.521-0.233-0.521-0.521c0-0.289,0.232-0.522,0.521-0.522h0.521c0.288,0,0.521,0.233,0.521,0.522    C195.73,42.027,195.498,42.26,195.21,42.26z M192.602,42.26h-0.521c-0.289,0-0.521-0.233-0.521-0.521    c0-0.289,0.231-0.522,0.521-0.522h0.521c0.289,0,0.522,0.233,0.522,0.522C193.124,42.027,192.891,42.26,192.602,42.26z     M189.994,42.26h-0.521c-0.289,0-0.521-0.233-0.521-0.521c0-0.289,0.232-0.522,0.521-0.522h0.521c0.288,0,0.521,0.233,0.521,0.522    C190.516,42.027,190.282,42.26,189.994,42.26z"
   id="path2258" />
	</g>
	<g
   id="g2259">
		<circle
   fill="#DA4061"
   cx="119.013"
   cy="41.663"
   r="1.827"
   id="circle2258" />
		<path
   fill="#DA4061"
   d="M119.013,36.447c-2.881,0-5.216,2.335-5.216,5.216s2.335,5.216,5.216,5.216    c2.881,0,5.216-2.335,5.216-5.216S121.895,36.447,119.013,36.447z M119.013,44.533c-1.581,0-2.867-1.288-2.867-2.87    s1.286-2.87,2.867-2.87c1.583,0,2.871,1.288,2.871,2.87S120.596,44.533,119.013,44.533z"
   id="path2259" />
	</g>
	<g
   id="g2263">
		<path
   fill="#DA4061"
   d="M86.21,41.663c0-0.585,0.193-1.122,0.512-1.563c-0.144-0.041-0.292-0.07-0.449-0.07    c-0.902,0-1.636,0.732-1.636,1.633s0.733,1.633,1.636,1.633c0.157,0,0.306-0.03,0.449-0.071    C86.404,42.785,86.21,42.248,86.21,41.663z"
   id="path2260" />
		<path
   fill="#DA4061"
   d="M87.254,41.663c0,0.364,0.124,0.697,0.326,0.969c0.202-0.272,0.326-0.605,0.326-0.969    c0-0.364-0.125-0.697-0.326-0.969C87.378,40.966,87.254,41.299,87.254,41.663z"
   id="path2261" />
		<path
   fill="#DA4061"
   d="M87.578,36.447c-2.878,0-5.216,2.335-5.216,5.216s2.338,5.216,5.216,5.216    c2.881,0,5.216-2.335,5.216-5.216S90.459,36.447,87.578,36.447z M88.887,44.339c-0.478,0-0.919-0.135-1.307-0.355    c-0.387,0.22-0.829,0.355-1.306,0.355c-1.477,0-2.679-1.2-2.679-2.676s1.202-2.676,2.679-2.676c0.477,0,0.919,0.135,1.306,0.355    c0.388-0.22,0.83-0.355,1.307-0.355c1.478,0,2.678,1.2,2.678,2.676S90.364,44.339,88.887,44.339z"
   id="path2262" />
		<path
   fill="#DA4061"
   d="M88.887,40.03c-0.158,0-0.307,0.029-0.449,0.071c0.318,0.44,0.511,0.977,0.511,1.562    s-0.193,1.122-0.511,1.562c0.143,0.042,0.292,0.071,0.449,0.071c0.902,0,1.635-0.732,1.635-1.633    C90.522,40.763,89.789,40.03,88.887,40.03z"
   id="path2263" />
	</g>
	<g
   id="g2265">
		<polygon
   fill="#DA4061"
   points="153.169,40.588 152.35,40.588 152.35,39.817 151.082,39.817 151.082,39.849 151.425,39.849     151.425,40.588 151.425,40.606 151.836,40.606 151.836,41.346 151.836,42.119 151.836,42.858 151.425,42.858 151.425,42.89     151.425,43.629 151.082,43.629 151.082,43.661 152.35,43.661 152.35,42.89 153.169,42.89 153.169,42.119 153.58,42.119     153.58,41.346 153.169,41.346   "
   id="polygon2263" />
		<polygon
   fill="#DA4061"
   points="149.523,43.629 149.523,42.89 149.523,42.858 149.111,42.858 149.111,42.119 149.111,41.346     149.111,40.606 149.523,40.606 149.523,40.588 149.523,39.849 149.866,39.849 149.866,39.817 148.602,39.817 148.602,40.588     147.779,40.588 147.779,41.346 147.37,41.346 147.37,42.119 147.779,42.119 147.779,42.89 148.602,42.89 148.602,43.661     149.866,43.661 149.866,43.629   "
   id="polygon2264" />
		<polygon
   fill="#DA4061"
   points="150.686,42.119 151.098,42.119 151.098,41.346 150.686,41.346 150.686,40.588 150.264,40.588     150.264,41.346 149.852,41.346 149.852,42.119 150.264,42.119 150.264,42.89 150.686,42.89   "
   id="polygon2265" />
		<path
   fill="#DA4061"
   d="M150.477,36.447c-2.884,0-5.218,2.335-5.218,5.216s2.334,5.216,5.218,5.216    c2.881,0,5.215-2.335,5.215-5.216S153.355,36.447,150.477,36.447z M154.32,42.119v0.74h-0.412v0.031v0.74h-0.739h-0.081v0.032    V44.4h-0.738h-1.268h-0.477h-0.264h-0.477H148.6h-0.74v-0.739v-0.032h-0.082h-0.738v-0.74v-0.031h-0.409v-0.74v-0.772v-0.74h0.409    v-0.018v-0.74h0.738h0.082v-0.032v-0.739h0.74h1.266h0.477h0.264h0.477h1.268h0.738v0.739v0.032h0.081h0.739v0.74v0.018h0.412    v0.74V42.119z"
   id="path2265" />
	</g>
	<g
   id="g2266">
		<polygon
   fill="#DA4061"
   points="183.979,40.219 182.812,40.219 182.812,39.25 181.014,39.25 181.014,40.219 179.848,40.219     179.848,41.172 179.262,41.172 179.262,42.14 179.848,42.14 179.848,43.108 181.014,43.108 181.014,44.076 182.812,44.076     182.812,43.108 183.979,43.108 183.979,42.14 184.564,42.14 184.564,41.172 183.979,41.172   "
   id="polygon2266" />
		<path
   fill="#DA4061"
   d="M181.913,36.447c-2.882,0-5.218,2.335-5.218,5.216s2.336,5.216,5.218,5.216    c2.879,0,5.216-2.335,5.216-5.216S184.792,36.447,181.913,36.447z M185.305,41.172v0.968v0.739h-0.586v0.229v0.739h-0.74h-0.426    v0.229v0.74h-0.738h-1.801h-0.74v-0.74v-0.229h-0.426h-0.74v-0.739v-0.229h-0.584V42.14v-0.968v-0.739h0.584v-0.214v-0.74h0.74    h0.426V39.25v-0.739h0.74h1.801h0.738v0.739v0.229h0.426h0.74v0.74v0.214h0.586V41.172z"
   id="path2266" />
	</g>
	<g
   id="g2268">
		<g
   id="g2267">
			<rect
   x="216.218"
   y="84.674"
   fill="#231F20"
   width="0.886"
   height="8.682"
   id="rect2266" />
		</g>
	</g>
	<g
   id="g2272">
		<path
   fill="#231F20"
   d="M223.367,237.107h-2.485v-5.939h2.386c1.159,0,1.836,0.65,1.836,1.669c0,0.658-0.436,1.084-0.735,1.228    c0.358,0.164,0.819,0.541,0.819,1.334C225.188,236.507,224.427,237.107,223.367,237.107z M223.176,232.203h-1.135v1.367h1.135    c0.491,0,0.768-0.275,0.768-0.686C223.941,232.479,223.667,232.203,223.176,232.203z M223.251,234.613h-1.21v1.459h1.21    c0.522,0,0.774-0.334,0.774-0.733C224.025,234.938,223.773,234.613,223.251,234.613z"
   id="path2268" />
		<path
   fill="#231F20"
   d="M226.373,237.107v-5.939h1.159v4.904h2.692v1.035H226.373z"
   id="path2269" />
		<path
   fill="#231F20"
   d="M231.171,237.107v-5.939h3.912v1.035h-2.753v1.393h2.346v1.034h-2.346v1.442h2.753v1.035H231.171z"
   id="path2270" />
		<path
   fill="#231F20"
   d="M239.732,237.107l-2.354-3.646v3.646h-1.16v-5.939h1.035l2.354,3.637v-3.637h1.16v5.939H239.732z"
   id="path2271" />
		<path
   fill="#231F20"
   d="M245.866,236.539c-0.392,0.395-0.951,0.568-1.567,0.568h-2.145v-5.939h2.145    c0.616,0,1.176,0.175,1.567,0.566c0.668,0.668,0.601,1.484,0.601,2.377C246.467,235.005,246.534,235.873,245.866,236.539z     M245.057,232.57c-0.199-0.243-0.466-0.367-0.865-0.367h-0.877v3.869h0.877c0.399,0,0.666-0.124,0.865-0.366    c0.219-0.269,0.252-0.692,0.252-1.595C245.309,233.211,245.273,232.837,245.057,232.57z"
   id="path2272" />
	</g>
	<g
   id="g2277">
		<path
   fill="#231F20"
   d="M232.756,268.318h-2.484v-5.938h2.385c1.158,0,1.835,0.651,1.835,1.668c0,0.66-0.435,1.084-0.733,1.228    c0.358,0.168,0.817,0.541,0.817,1.334C234.574,267.718,233.812,268.318,232.756,268.318z M232.562,263.414h-1.133v1.367h1.133    c0.492,0,0.769-0.274,0.769-0.682C233.331,263.689,233.057,263.414,232.562,263.414z M232.639,265.825h-1.209v1.461h1.209    c0.525,0,0.775-0.334,0.775-0.735C233.414,266.15,233.164,265.825,232.639,265.825z"
   id="path2273" />
		<path
   fill="#231F20"
   d="M235.762,268.318v-5.938h1.159v4.906h2.694v1.032H235.762z"
   id="path2274" />
		<path
   fill="#231F20"
   d="M240.561,268.318v-5.938h3.912v1.034h-2.752v1.395h2.342v1.032h-2.342v1.445h2.752v1.032H240.561z"
   id="path2275" />
		<path
   fill="#231F20"
   d="M249.122,268.318l-2.354-3.646v3.646h-1.158v-5.938h1.035l2.352,3.638v-3.638h1.158v5.938H249.122z"
   id="path2276" />
		<path
   fill="#231F20"
   d="M255.255,267.753c-0.392,0.392-0.95,0.565-1.567,0.565h-2.145v-5.938h2.145    c0.617,0,1.177,0.175,1.567,0.568c0.667,0.665,0.603,1.485,0.603,2.378C255.855,266.218,255.922,267.084,255.255,267.753z     M254.445,263.781c-0.199-0.24-0.467-0.367-0.867-0.367h-0.876v3.872h0.876c0.4,0,0.668-0.127,0.867-0.369    c0.217-0.267,0.252-0.69,0.252-1.591C254.697,264.423,254.662,264.048,254.445,263.781z"
   id="path2277" />
	</g>
	<g
   id="g2281">
		<path
   fill="#DA4061"
   d="M42.875,157.321c-0.318,0-0.585,0.125-0.752,0.318c-0.224,0.249-0.283,0.526-0.283,1.667    c0,1.143,0.059,1.418,0.283,1.669c0.167,0.191,0.434,0.318,0.752,0.318c0.316,0,0.575-0.126,0.742-0.318    c0.225-0.251,0.292-0.526,0.292-1.669c0-1.141-0.066-1.418-0.292-1.667C43.45,157.446,43.191,157.321,42.875,157.321z"
   id="path2278" />
		<path
   fill="#DA4061"
   d="M63.038,157.321c-0.317,0-0.583,0.125-0.75,0.318c-0.226,0.249-0.283,0.526-0.283,1.667    c0,1.143,0.058,1.418,0.283,1.669c0.167,0.191,0.434,0.318,0.75,0.318s0.576-0.126,0.743-0.318    c0.224-0.251,0.292-0.526,0.292-1.669c0-1.141-0.067-1.418-0.292-1.667C63.614,157.446,63.355,157.321,63.038,157.321z"
   id="path2279" />
		<path
   fill="#DA4061"
   d="M37.883,157.373h-1.084v1.626h1.084c0.526,0,0.86-0.326,0.86-0.809    C38.743,157.705,38.409,157.373,37.883,157.373z"
   id="path2280" />
		<path
   fill="#DA4061"
   d="M72.526,153.19H34.082c-1.626,0-2.957,1.331-2.957,2.958v5.913c0,1.627,1.331,2.958,2.957,2.958h38.445    c1.626,0,2.956-1.331,2.956-2.958v-5.913C75.482,154.521,74.152,153.19,72.526,153.19z M37.942,160.042h-1.143v2.235H35.64v-5.939    h2.302c1.227,0,1.96,0.841,1.96,1.852C39.903,159.198,39.169,160.042,37.942,160.042z M44.477,161.676    c-0.418,0.418-0.927,0.65-1.602,0.65c-0.676,0-1.194-0.232-1.612-0.65c-0.599-0.601-0.583-1.343-0.583-2.37    c0-1.025-0.017-1.767,0.583-2.368c0.418-0.418,0.936-0.652,1.612-0.652c0.674,0,1.184,0.234,1.602,0.652    c0.6,0.601,0.591,1.343,0.591,2.368C45.068,160.333,45.077,161.075,44.477,161.676z M47.891,162.326    c-0.902,0-1.586-0.191-2.169-0.782l0.751-0.752c0.375,0.375,0.884,0.501,1.433,0.501c0.685,0,1.052-0.259,1.052-0.736    c0-0.208-0.058-0.383-0.184-0.499c-0.116-0.108-0.25-0.167-0.526-0.21l-0.717-0.1c-0.507-0.073-0.884-0.232-1.15-0.491    c-0.285-0.283-0.425-0.668-0.425-1.167c0-1.06,0.783-1.803,2.068-1.803c0.817,0,1.41,0.202,1.917,0.692l-0.734,0.726    c-0.375-0.358-0.825-0.408-1.218-0.408c-0.617,0-0.917,0.342-0.917,0.75c0,0.151,0.051,0.31,0.175,0.426    c0.117,0.108,0.31,0.2,0.55,0.234l0.701,0.1c0.542,0.075,0.884,0.224,1.135,0.458c0.317,0.3,0.458,0.734,0.458,1.259    C50.093,161.676,49.133,162.326,47.891,162.326z M52.348,162.277h-1.159v-5.939h1.159V162.277z M57.554,157.373h-1.552v4.904    h-1.159v-4.904h-1.552v-1.035h4.263V157.373z M59.659,162.277H58.5v-5.939h1.159V162.277z M64.64,161.676    c-0.417,0.418-0.926,0.65-1.602,0.65c-0.675,0-1.193-0.232-1.61-0.65c-0.601-0.601-0.583-1.343-0.583-2.37    c0-1.025-0.018-1.767,0.583-2.368c0.417-0.418,0.935-0.652,1.61-0.652c0.676,0,1.185,0.234,1.602,0.652    c0.6,0.601,0.592,1.343,0.592,2.368C65.231,160.333,65.24,161.075,64.64,161.676z M70.965,162.277H69.93l-2.351-3.645v3.645h-1.16    v-5.939h1.035l2.352,3.637v-3.637h1.159V162.277z"
   id="path2281" />
	</g>
	<g
   id="g2284">
		<path
   fill="#DA4061"
   d="M108.557,263.714h-1.085v1.626h1.085c0.525,0,0.858-0.324,0.858-0.809    C109.415,264.048,109.082,263.714,108.557,263.714z"
   id="path2282" />
		<path
   fill="#DA4061"
   d="M113.546,263.665c-0.316,0-0.583,0.124-0.75,0.315c-0.226,0.25-0.284,0.525-0.284,1.668    c0,1.145,0.058,1.42,0.284,1.67c0.167,0.19,0.434,0.315,0.75,0.315c0.318,0,0.577-0.125,0.743-0.315    c0.225-0.25,0.292-0.525,0.292-1.67c0-1.143-0.067-1.418-0.292-1.668C114.123,263.789,113.864,263.665,113.546,263.665z"
   id="path2283" />
		<path
   fill="#DA4061"
   d="M122.267,259.625h-17.745c-1.626,0-2.957,1.33-2.957,2.956v5.915c0,1.628,1.331,2.959,2.957,2.959h17.745    c1.626,0,2.957-1.331,2.957-2.959v-5.915C125.224,260.955,123.893,259.625,122.267,259.625z M108.616,266.383h-1.144v2.235h-1.16    v-5.938h2.304c1.225,0,1.959,0.844,1.959,1.853C110.575,265.542,109.84,266.383,108.616,266.383z M115.148,268.018    c-0.417,0.418-0.925,0.652-1.602,0.652c-0.675,0-1.192-0.234-1.61-0.652c-0.601-0.6-0.583-1.343-0.583-2.367    c0-1.026-0.018-1.77,0.583-2.369c0.418-0.416,0.935-0.65,1.61-0.65c0.677,0,1.185,0.234,1.602,0.65    c0.601,0.601,0.593,1.343,0.593,2.369C115.741,266.675,115.749,267.418,115.148,268.018z M118.563,268.67    c-0.901,0-1.585-0.191-2.169-0.785l0.751-0.75c0.375,0.375,0.884,0.5,1.434,0.5c0.685,0,1.052-0.259,1.052-0.734    c0-0.207-0.06-0.383-0.184-0.5c-0.117-0.107-0.25-0.168-0.526-0.209l-0.717-0.1c-0.509-0.074-0.884-0.234-1.151-0.492    c-0.283-0.283-0.426-0.666-0.426-1.168c0-1.06,0.784-1.802,2.069-1.802c0.818,0,1.409,0.2,1.918,0.692l-0.733,0.726    c-0.376-0.358-0.827-0.409-1.219-0.409c-0.617,0-0.917,0.344-0.917,0.752c0,0.148,0.049,0.309,0.175,0.424    c0.116,0.11,0.308,0.201,0.55,0.234l0.701,0.1c0.542,0.076,0.884,0.228,1.133,0.459c0.318,0.302,0.46,0.735,0.46,1.262    C120.766,268.018,119.806,268.67,118.563,268.67z"
   id="path2284" />
	</g>
	<g
   id="g2289">
		<path
   fill="#00A1A7"
   d="M87.578,69.08c-2.881,0-5.216,2.335-5.216,5.216s2.335,5.216,5.216,5.216c2.881,0,5.216-2.335,5.216-5.216    S90.459,69.08,87.578,69.08z M87.578,76.935c-1.041,0-1.816-0.942-1.673-2.051c0.204-1.587,1.673-3.517,1.673-3.517    s1.449,1.887,1.667,3.463C89.399,75.961,88.635,76.935,87.578,76.935z"
   id="path2285" />
		<path
   fill="#00A1A7"
   d="M119.013,69.08c-2.878,0-5.216,2.335-5.216,5.216s2.338,5.216,5.216,5.216    c2.881,0,5.216-2.335,5.216-5.216S121.895,69.08,119.013,69.08z M122.489,75.534h-3.476h-3.476v-2.307l3.476,2.307l3.476-2.307    V75.534z"
   id="path2286" />
		<g
   id="g2288">
			<polygon
   fill="#00A1A7"
   points="180.167,72.862 181.923,73.875 183.777,72.931 181.913,71.855    "
   id="polygon2286" />
			<polygon
   fill="#00A1A7"
   points="179.798,75.519 181.544,76.526 181.544,74.509 179.798,73.502    "
   id="polygon2287" />
			<polygon
   fill="#00A1A7"
   points="182.284,76.526 184.025,75.519 184.025,73.632 182.284,74.522    "
   id="polygon2288" />
			<path
   fill="#00A1A7"
   d="M181.913,69.08c-2.882,0-5.218,2.335-5.218,5.216s2.336,5.216,5.218,5.216     c2.881,0,5.216-2.335,5.216-5.216S184.794,69.08,181.913,69.08z M184.768,75.944l-2.854,1.648l-2.854-1.648v-3.295l2.854-1.648     l2.854,1.648V75.944z"
   id="path2288" />
		</g>
		<path
   fill="#00A1A7"
   d="M150.479,69.08c-2.881,0-5.217,2.335-5.217,5.216s2.336,5.216,5.217,5.216    c2.879,0,5.215-2.335,5.215-5.216S153.355,69.08,150.479,69.08z M150.479,77.396c-1.711,0-3.101-1.391-3.101-3.1    c0-0.204,0.165-0.37,0.369-0.37s0.371,0.166,0.371,0.37c0,1.302,1.058,2.36,2.358,2.36s2.36-1.059,2.36-2.36    c0-1.191-0.89-2.168-2.036-2.328v0.703l-1.916-1.105l1.916-1.105v0.768c1.557,0.165,2.775,1.469,2.775,3.068    C153.577,76.005,152.188,77.396,150.479,77.396z"
   id="path2289" />
	</g>
	<path
   fill="#00A1A7"
   d="M146.896,153.19h-23.829c-1.626,0-2.957,1.331-2.957,2.958v5.913c0,1.627,1.331,2.958,2.957,2.958h23.829   c1.625,0,2.955-1.331,2.955-2.958v-5.913C149.852,154.521,148.521,153.19,146.896,153.19z M128.759,162.104   c-0.9,0-1.585-0.191-2.168-0.784l0.75-0.75c0.376,0.375,0.884,0.499,1.435,0.499c0.685,0,1.051-0.258,1.051-0.733   c0-0.208-0.059-0.383-0.184-0.501c-0.116-0.108-0.25-0.167-0.525-0.208l-0.717-0.1c-0.508-0.076-0.884-0.234-1.151-0.493   c-0.283-0.283-0.426-0.667-0.426-1.167c0-1.06,0.785-1.801,2.07-1.801c0.817,0,1.409,0.2,1.917,0.693l-0.733,0.725   c-0.375-0.358-0.825-0.41-1.218-0.41c-0.618,0-0.917,0.342-0.917,0.752c0,0.149,0.051,0.308,0.175,0.424   c0.116,0.11,0.31,0.202,0.55,0.234l0.701,0.1c0.542,0.075,0.884,0.226,1.135,0.458c0.316,0.302,0.458,0.736,0.458,1.261   C130.961,161.452,130.002,162.104,128.759,162.104z M133.216,162.053h-1.16v-5.938h1.16V162.053z M138.148,157.032l-2.545,3.987   h2.545v1.033h-3.904v-0.933l2.533-3.971h-2.425v-1.035h3.796V157.032z M143.087,157.148h-2.753v1.394h2.346v1.033h-2.346v1.444   h2.753v1.033h-3.912v-5.939h3.912V157.148z"
   id="path2290" />
	<path
   fill="#00A1A7"
   d="M254.71,234.07c0,1.715-1.39,3.103-3.103,3.103c-1.715,0-3.104-1.388-3.104-3.103s1.389-3.103,3.104-3.103   C253.32,230.969,254.71,232.355,254.71,234.07z"
   id="path2291" />
	<g
   id="g2293">
		<path
   fill="#00A1A7"
   d="M178.123,232.203h-1.094v1.566h1.094c0.51,0,0.842-0.324,0.842-0.785    C178.965,232.527,178.633,232.203,178.123,232.203z"
   id="path2292" />
		<path
   fill="#00A1A7"
   d="M188.488,228.238h-41.303c-1.627,0-2.957,1.33-2.957,2.957v5.914c0,1.625,1.33,2.957,2.957,2.957h41.303    c1.626,0,2.957-1.332,2.957-2.957v-5.914C191.445,229.568,190.113,228.238,188.488,228.238z M154.504,232.203h-1.553v4.904h-1.159    v-4.904h-1.551v-1.035h4.263V232.203L154.504,232.203z M159.359,232.203h-2.754v1.393h2.346v1.034h-2.346v1.442h2.754v1.035    h-3.912v-5.939h3.912V232.203z M163.467,237.107l-1.15-2.068l-1.144,2.068h-1.327l1.846-3.045l-1.729-2.896h1.317l1.035,1.92    l1.043-1.92h1.31l-1.726,2.896l1.852,3.045H163.467z M169.352,232.203h-1.553v4.904h-1.158v-4.904h-1.552v-1.035h4.263V232.203z     M174.573,235.072c0,1.259-0.968,2.084-2.185,2.084c-1.219,0-2.187-0.825-2.187-2.084v-3.904h1.159v3.861    c0,0.685,0.4,1.094,1.027,1.094c0.625,0,1.031-0.409,1.031-1.094v-3.861h1.15v3.904H174.573z M179.023,237.107l-1.16-2.369h-0.834    v2.369h-1.16v-5.939h2.328c1.209,0,1.927,0.825,1.927,1.816c0,0.836-0.508,1.354-1.084,1.562l1.326,2.562H179.023L179.023,237.107    z M185.24,232.203h-2.754v1.393h2.347v1.034h-2.347v1.442h2.754v1.035h-3.912v-5.939h3.912V232.203z"
   id="path2293" />
	</g>
	<g
   id="g2295">
		<path
   fill="#DA4061"
   d="M123.109,228.24H81.145c-1.628,0-2.958,1.33-2.958,2.958v5.915c0,1.626,1.33,2.957,2.958,2.957h41.964    c1.626,0,2.957-1.331,2.957-2.957v-5.915C126.065,229.57,124.735,228.24,123.109,228.24z M89.782,236.539    c-0.393,0.395-0.952,0.568-1.569,0.568H86.07v-5.939h2.144c0.617,0,1.176,0.175,1.569,0.566c0.667,0.668,0.599,1.484,0.599,2.377    C90.382,235.005,90.449,235.873,89.782,236.539z M95.481,232.203h-2.753v1.393h2.344v1.034h-2.344v1.442h2.753v1.035h-3.912    v-5.939h3.912V232.203z M101.164,237.107h-1.035l-2.351-3.646v3.646h-1.16v-5.939h1.035l2.352,3.637v-3.637h1.159V237.107z     M104.188,237.156c-0.903,0-1.585-0.191-2.17-0.782l0.751-0.752c0.375,0.375,0.885,0.501,1.435,0.501    c0.683,0,1.051-0.259,1.051-0.734c0-0.209-0.059-0.384-0.184-0.5c-0.117-0.107-0.25-0.166-0.525-0.209l-0.718-0.101    c-0.508-0.073-0.883-0.231-1.15-0.491c-0.284-0.283-0.426-0.668-0.426-1.168c0-1.061,0.784-1.803,2.068-1.803    c0.817,0,1.41,0.201,1.919,0.691l-0.734,0.727c-0.376-0.358-0.827-0.407-1.218-0.407c-0.617,0-0.919,0.343-0.919,0.75    c0,0.149,0.051,0.31,0.175,0.427c0.118,0.106,0.31,0.198,0.55,0.233l0.701,0.101c0.543,0.074,0.886,0.223,1.135,0.457    c0.318,0.301,0.458,0.733,0.458,1.26C106.389,236.507,105.431,237.156,104.188,237.156z M108.644,237.107h-1.159v-5.939h1.159    V237.107z M113.85,232.203h-1.551v4.904h-1.159v-4.904h-1.553v-1.035h4.263V232.203z M117.064,234.671v2.437h-1.151v-2.437    l-1.785-3.503h1.26l1.109,2.395l1.093-2.395h1.259L117.064,234.671z"
   id="path2294" />
		<path
   fill="#DA4061"
   d="M88.105,232.203h-0.876v3.869h0.876c0.399,0,0.666-0.124,0.866-0.366c0.218-0.269,0.251-0.692,0.251-1.595    c0-0.9-0.033-1.274-0.251-1.541C88.771,232.327,88.505,232.203,88.105,232.203z"
   id="path2295" />
	</g>
	<g
   id="g2300">
		<g
   id="g2299">
			<path
   fill="#231F20"
   d="M64.123,263.414v4.904h-1.159v-4.904h-1.552v-1.034h4.262v1.034H64.123z"
   id="path2296" />
			<path
   fill="#231F20"
   d="M69.773,268.318l-1.159-2.367h-0.835v2.367h-1.16v-5.938h2.327c1.21,0,1.927,0.827,1.927,1.819     c0,0.833-0.509,1.351-1.084,1.559l1.327,2.562h-1.343V268.318z M68.872,263.414h-1.093v1.568h1.093     c0.509,0,0.843-0.325,0.843-0.783C69.714,263.74,69.38,263.414,68.872,263.414z"
   id="path2297" />
			<path
   fill="#231F20"
   d="M72.078,268.318v-5.938h1.159v5.938H72.078z"
   id="path2298" />
			<path
   fill="#231F20"
   d="M78.284,267.693c-0.458,0.467-1.008,0.677-1.676,0.677c-0.635,0-1.167-0.218-1.602-0.652     c-0.258-0.257-0.417-0.559-0.484-0.893c-0.066-0.332-0.1-0.825-0.1-1.476c0-0.649,0.033-1.144,0.1-1.478     c0.067-0.343,0.226-0.634,0.484-0.894c0.434-0.434,0.967-0.649,1.602-0.649c1.352,0,2.077,0.868,2.236,1.901h-1.169     c-0.141-0.574-0.491-0.867-1.067-0.867c-0.309,0-0.559,0.109-0.743,0.316c-0.216,0.275-0.283,0.493-0.283,1.67     c0,1.166,0.051,1.4,0.283,1.676c0.175,0.209,0.426,0.309,0.743,0.309c0.342,0,0.617-0.107,0.826-0.334     c0.175-0.2,0.267-0.467,0.267-0.791v-0.227h-1.093v-0.969h2.245v0.868C78.853,266.752,78.694,267.26,78.284,267.693z"
   id="path2299" />
		</g>
	</g>
	<g
   id="g2301">
		<path
   fill="#DA4061"
   d="M105.445,306.4h-0.872v3.871h0.872c0.399,0,0.665-0.125,0.864-0.367c0.216-0.266,0.25-0.691,0.25-1.592    c0-0.902-0.034-1.277-0.25-1.545C106.11,306.527,105.844,306.4,105.445,306.4z"
   id="path2300" />
		<path
   fill="#DA4061"
   d="M124.942,302.611h-23.096c-1.627,0-2.958,1.33-2.958,2.955v5.916c0,1.627,1.331,2.959,2.958,2.959h23.096    c1.626,0,2.957-1.332,2.957-2.959v-5.916C127.899,303.941,126.568,302.611,124.942,302.611z M107.116,310.739    c-0.391,0.391-0.947,0.565-1.562,0.565h-2.136v-5.938h2.136c0.615,0,1.171,0.173,1.562,0.566c0.665,0.666,0.597,1.484,0.597,2.377    C107.713,309.204,107.78,310.07,107.116,310.739z M112.793,306.4h-2.741v1.395h2.335v1.033h-2.335v1.443h2.741v1.033h-3.897    v-5.938h3.897V306.4z M118.455,311.307h-1.031l-2.341-3.646v3.646h-1.158v-5.938h1.031l2.343,3.635v-3.635h1.155L118.455,311.307    L118.455,311.307z M121.466,311.355c-0.898,0-1.579-0.19-2.161-0.783l0.748-0.75c0.374,0.375,0.881,0.498,1.43,0.498    c0.683,0,1.047-0.258,1.047-0.732c0-0.208-0.059-0.383-0.184-0.501c-0.116-0.108-0.25-0.167-0.523-0.208l-0.715-0.1    c-0.505-0.076-0.88-0.234-1.146-0.493c-0.282-0.283-0.424-0.667-0.424-1.168c0-1.06,0.781-1.802,2.061-1.802    c0.814,0,1.404,0.199,1.911,0.692l-0.731,0.726c-0.374-0.357-0.822-0.408-1.213-0.408c-0.614,0-0.914,0.342-0.914,0.751    c0,0.149,0.05,0.308,0.175,0.427c0.116,0.107,0.308,0.199,0.548,0.23l0.698,0.102c0.54,0.075,0.881,0.227,1.13,0.458    c0.315,0.302,0.457,0.735,0.457,1.263C123.66,310.706,122.704,311.355,121.466,311.355z"
   id="path2301" />
	</g>
	<path
   fill="#00A1A7"
   d="M165.455,259.625h-17.743c-1.627,0-2.957,1.33-2.957,2.956v5.915c0,1.628,1.33,2.959,2.957,2.959h17.743   c1.626,0,2.957-1.331,2.957-2.959v-5.915C168.412,260.955,167.081,259.625,165.455,259.625z M150.361,268.37   c-0.9,0-1.586-0.19-2.17-0.784l0.752-0.75c0.375,0.375,0.884,0.499,1.435,0.499c0.685,0,1.052-0.259,1.052-0.733   c0-0.207-0.06-0.384-0.185-0.502c-0.118-0.106-0.25-0.166-0.524-0.207l-0.718-0.101c-0.51-0.075-0.885-0.233-1.151-0.493   c-0.283-0.283-0.426-0.666-0.426-1.167c0-1.06,0.784-1.802,2.067-1.802c0.817,0,1.409,0.199,1.92,0.693l-0.733,0.726   c-0.377-0.358-0.824-0.41-1.219-0.41c-0.617,0-0.917,0.343-0.917,0.752c0,0.149,0.049,0.308,0.177,0.425   c0.115,0.109,0.307,0.201,0.549,0.233l0.701,0.101c0.543,0.075,0.885,0.227,1.135,0.459c0.315,0.301,0.459,0.734,0.459,1.26   C152.562,267.718,151.604,268.37,150.361,268.37z M154.816,268.318h-1.158v-5.938h1.158V268.318z M159.749,263.299l-2.544,3.987   h2.544v1.032h-3.903v-0.934l2.535-3.972h-2.427v-1.034h3.795V263.299L159.749,263.299z M164.689,263.414h-2.754v1.395h2.346v1.032   h-2.346v1.445h2.754v1.032h-3.912v-5.938h3.912V263.414z"
   id="path2302" />
	<path
   fill="#00A1A7"
   d="M167.617,302.611h-22.062c-1.625,0-2.957,1.33-2.957,2.955v5.916c0,1.627,1.332,2.959,2.957,2.959h22.062   c1.626,0,2.957-1.332,2.957-2.959v-5.916C170.574,303.941,169.243,302.611,167.617,302.611z M151.292,306.7h-1.553v4.905h-1.159   V306.7h-1.551v-1.034h4.263V306.7L151.292,306.7z M156.146,306.7h-2.752v1.396h2.346v1.031h-2.346v1.445h2.752v1.033h-3.912v-5.939   h3.912V306.7z M160.256,311.605l-1.15-2.068l-1.145,2.068h-1.326l1.844-3.045l-1.728-2.896h1.317l1.035,1.919l1.043-1.919h1.31   l-1.728,2.896l1.853,3.045H160.256z M166.139,306.7h-1.551v4.905h-1.16V306.7h-1.553v-1.034h4.264V306.7z"
   id="path2303" />
	<g
   display="none"
   id="g2333">
		
			<path
   display="inline"
   fill="none"
   stroke="#ED342C"
   stroke-width="0.7087"
   stroke-linecap="round"
   stroke-linejoin="round"
   stroke-miterlimit="10"
   d="    M17.447,371.126c0,2.612,2.117,4.731,4.731,4.731c2.614,0,4.731-2.119,4.731-4.731c0-2.608-2.117-4.729-4.731-4.729    C19.564,366.396,17.447,368.518,17.447,371.126"
   id="path2304" />
		
			<path
   display="inline"
   fill="none"
   stroke="#ED342C"
   stroke-width="0.7087"
   stroke-linecap="round"
   stroke-linejoin="round"
   stroke-miterlimit="10"
   d="    M17.447,8.873c0,2.613,2.117,4.731,4.731,4.731c2.614,0,4.731-2.118,4.731-4.731c0-2.614-2.117-4.731-4.731-4.731    C19.564,4.142,17.447,6.258,17.447,8.873"
   id="path2305" />
		
			<path
   display="inline"
   fill="none"
   stroke="#ED342C"
   stroke-width="0.7087"
   stroke-linecap="round"
   stroke-linejoin="round"
   stroke-miterlimit="10"
   d="    M242.785,371.126c0,2.612,2.123,4.731,4.73,4.731c2.614,0,4.731-2.119,4.731-4.731c0-2.608-2.117-4.729-4.731-4.729    C244.908,366.396,242.785,368.518,242.785,371.126"
   id="path2306" />
		
			<path
   display="inline"
   fill="none"
   stroke="#ED342C"
   stroke-width="0.7087"
   stroke-linecap="round"
   stroke-linejoin="round"
   stroke-miterlimit="10"
   d="    M242.785,8.873c0,2.613,2.123,4.731,4.73,4.731c2.614,0,4.731-2.118,4.731-4.731c0-2.614-2.117-4.731-4.731-4.731    C244.908,4.141,242.785,6.258,242.785,8.873"
   id="path2307" />
		
			<polyline
   display="inline"
   fill="none"
   stroke="#ED342C"
   stroke-width="0.7087"
   stroke-linecap="round"
   stroke-linejoin="round"
   stroke-miterlimit="10"
   points="    0.001,380 0.001,0 269.993,0 269.993,380 0.001,380   "
   id="polyline2307" />
		
			<path
   display="inline"
   fill="none"
   stroke="#ED342C"
   stroke-width="0.7087"
   stroke-linecap="round"
   stroke-linejoin="round"
   stroke-miterlimit="10"
   d="    M17.402,328.545c0,5.305,4.303,9.609,9.613,9.609c5.308,0,9.609-4.305,9.609-9.609c0-5.306-4.301-9.609-9.609-9.609    C21.705,318.936,17.402,323.239,17.402,328.545"
   id="path2308" />
		
			<path
   display="inline"
   fill="none"
   stroke="#ED342C"
   stroke-width="0.7087"
   stroke-linecap="round"
   stroke-linejoin="round"
   stroke-miterlimit="10"
   d="    M60.594,328.545c0,5.305,4.301,9.609,9.609,9.609c5.31,0,9.611-4.305,9.611-9.609c0-5.306-4.301-9.609-9.611-9.609    C64.896,318.936,60.594,323.239,60.594,328.545"
   id="path2309" />
		
			<path
   display="inline"
   fill="none"
   stroke="#ED342C"
   stroke-width="0.7087"
   stroke-linecap="round"
   stroke-linejoin="round"
   stroke-miterlimit="10"
   d="    M103.785,328.545c0,5.305,4.301,9.609,9.609,9.609s9.611-4.305,9.611-9.609c0-5.306-4.303-9.609-9.611-9.609    S103.785,323.239,103.785,328.545"
   id="path2310" />
		
			<path
   display="inline"
   fill="none"
   stroke="#ED342C"
   stroke-width="0.7087"
   stroke-linecap="round"
   stroke-linejoin="round"
   stroke-miterlimit="10"
   d="    M146.975,328.545c0,5.305,4.303,9.609,9.609,9.609c5.311,0,9.611-4.305,9.611-9.609c0-5.306-4.303-9.609-9.611-9.609    S146.975,323.239,146.975,328.545"
   id="path2311" />
		
			<path
   display="inline"
   fill="none"
   stroke="#ED342C"
   stroke-width="0.7087"
   stroke-linecap="round"
   stroke-linejoin="round"
   stroke-miterlimit="10"
   d="    M190.165,328.545c0,5.305,4.302,9.609,9.608,9.609c5.308,0,9.613-4.305,9.613-9.609c0-5.306-4.306-9.609-9.613-9.609    C194.467,318.936,190.165,323.239,190.165,328.545"
   id="path2312" />
		
			<path
   display="inline"
   fill="none"
   stroke="#ED342C"
   stroke-width="0.7087"
   stroke-linecap="round"
   stroke-linejoin="round"
   stroke-miterlimit="10"
   d="    M233.355,328.545c0,5.305,4.299,9.609,9.608,9.609c5.306,0,9.608-4.305,9.608-9.609c0-5.306-4.303-9.609-9.608-9.609    C237.654,318.936,233.355,323.239,233.355,328.545"
   id="path2313" />
		
			<path
   display="inline"
   fill="none"
   stroke="#ED342C"
   stroke-width="0.7087"
   stroke-linecap="round"
   stroke-linejoin="round"
   stroke-miterlimit="10"
   d="    M17.402,285.357c0,5.306,4.303,9.607,9.613,9.607c5.308,0,9.609-4.303,9.609-9.607c0-5.312-4.301-9.615-9.609-9.615    C21.705,275.742,17.402,280.047,17.402,285.357"
   id="path2314" />
		
			<path
   display="inline"
   fill="none"
   stroke="#ED342C"
   stroke-width="0.7087"
   stroke-linecap="round"
   stroke-linejoin="round"
   stroke-miterlimit="10"
   d="    M60.594,285.357c0,5.306,4.301,9.607,9.609,9.607c5.31,0,9.611-4.303,9.611-9.607c0-5.312-4.301-9.615-9.611-9.615    C64.896,275.742,60.594,280.047,60.594,285.357"
   id="path2315" />
		
			<path
   display="inline"
   fill="none"
   stroke="#ED342C"
   stroke-width="0.7087"
   stroke-linecap="round"
   stroke-linejoin="round"
   stroke-miterlimit="10"
   d="    M103.785,285.357c0,5.306,4.301,9.607,9.609,9.607s9.611-4.303,9.611-9.607c0-5.312-4.303-9.615-9.611-9.615    S103.785,280.047,103.785,285.357"
   id="path2316" />
		
			<path
   display="inline"
   fill="none"
   stroke="#ED342C"
   stroke-width="0.7087"
   stroke-linecap="round"
   stroke-linejoin="round"
   stroke-miterlimit="10"
   d="    M146.975,285.357c0,5.306,4.303,9.607,9.609,9.607c5.311,0,9.611-4.303,9.611-9.607c0-5.312-4.303-9.615-9.611-9.615    S146.975,280.047,146.975,285.357"
   id="path2317" />
		
			<path
   display="inline"
   fill="none"
   stroke="#ED342C"
   stroke-width="0.7087"
   stroke-linecap="round"
   stroke-linejoin="round"
   stroke-miterlimit="10"
   d="    M190.165,285.357c0,5.306,4.302,9.607,9.608,9.607c5.308,0,9.613-4.303,9.613-9.607c0-5.312-4.306-9.615-9.613-9.615    C194.467,275.742,190.165,280.047,190.165,285.357"
   id="path2318" />
		
			<path
   display="inline"
   fill="none"
   stroke="#ED342C"
   stroke-width="0.7087"
   stroke-linecap="round"
   stroke-linejoin="round"
   stroke-miterlimit="10"
   d="    M233.355,285.357c0,5.306,4.299,9.607,9.608,9.607c5.306,0,9.608-4.303,9.608-9.607c0-5.312-4.303-9.615-9.608-9.615    C237.654,275.742,233.355,280.047,233.355,285.357"
   id="path2319" />
		
			<path
   display="inline"
   fill="none"
   stroke="#ED342C"
   stroke-width="0.7087"
   stroke-linecap="round"
   stroke-linejoin="round"
   stroke-miterlimit="10"
   d="    M42.215,120.121c0,6.126,4.963,11.088,11.088,11.088c6.123,0,11.088-4.962,11.088-11.088c0-6.123-4.965-11.088-11.088-11.088    C47.179,109.032,42.215,113.998,42.215,120.121"
   id="path2320" />
		
			<path
   display="inline"
   fill="none"
   stroke="#ED342C"
   stroke-width="0.7087"
   stroke-linecap="round"
   stroke-linejoin="round"
   stroke-miterlimit="10"
   d="    M91.038,202.744c0,6.127,4.965,11.093,11.09,11.093c6.123,0,11.088-4.966,11.088-11.093c0-6.124-4.965-11.09-11.088-11.09    C96.003,191.654,91.038,196.62,91.038,202.744"
   id="path2321" />
		
			<path
   display="inline"
   fill="none"
   stroke="#ED342C"
   stroke-width="0.7087"
   stroke-linecap="round"
   stroke-linejoin="round"
   stroke-miterlimit="10"
   d="    M15.48,58.139c0,6.368,5.163,11.533,11.535,11.533c6.367,0,11.533-5.165,11.533-11.533c0-6.369-5.166-11.535-11.533-11.535    C20.644,46.604,15.48,51.77,15.48,58.139"
   id="path2322" />
		
			<path
   display="inline"
   fill="none"
   stroke="#ED342C"
   stroke-width="0.7087"
   stroke-linecap="round"
   stroke-linejoin="round"
   stroke-miterlimit="10"
   d="    M156.747,202.744c0,6.127,4.966,11.093,11.088,11.093c6.125,0,11.093-4.966,11.093-11.093c0-6.124-4.968-11.09-11.093-11.09    C161.713,191.654,156.747,196.62,156.747,202.744"
   id="path2323" />
		
			<path
   display="inline"
   fill="none"
   stroke="#ED342C"
   stroke-width="0.7087"
   stroke-linecap="round"
   stroke-linejoin="round"
   stroke-miterlimit="10"
   d="    M222.486,202.744c0,6.127,4.966,11.093,11.089,11.093s11.089-4.966,11.089-11.093c0-6.124-4.966-11.09-11.089-11.09    S222.486,196.62,222.486,202.744"
   id="path2324" />
		
			<path
   display="inline"
   fill="none"
   stroke="#ED342C"
   stroke-width="0.7087"
   stroke-linecap="round"
   stroke-linejoin="round"
   stroke-miterlimit="10"
   d="    M25.299,202.744c0,6.127,4.964,11.093,11.088,11.093c6.125,0,11.088-4.966,11.088-11.093c0-6.124-4.963-11.09-11.088-11.09    C30.263,191.654,25.299,196.62,25.299,202.744"
   id="path2325" />
		
			<path
   display="inline"
   fill="none"
   stroke="#ED342C"
   stroke-width="0.7087"
   stroke-linecap="round"
   stroke-linejoin="round"
   stroke-miterlimit="10"
   d="    M123.891,120.121c0,6.126,4.966,11.088,11.093,11.088c6.124,0,11.088-4.962,11.088-11.088c0-6.123-4.967-11.088-11.088-11.088    C128.857,109.032,123.891,113.998,123.891,120.121"
   id="path2326" />
		
			<path
   display="inline"
   fill="none"
   stroke="#ED342C"
   stroke-width="0.7087"
   stroke-linecap="round"
   stroke-linejoin="round"
   stroke-miterlimit="10"
   d="    M205.57,120.121c0,6.126,4.964,11.088,11.089,11.088c6.127,0,11.093-4.962,11.093-11.088c0-6.123-4.966-11.088-11.093-11.088    C210.534,109.032,205.57,113.998,205.57,120.121"
   id="path2327" />
		
			<path
   display="inline"
   fill="none"
   stroke="#ED342C"
   stroke-width="0.7087"
   stroke-linecap="round"
   stroke-linejoin="round"
   stroke-miterlimit="10"
   d="    M143.083,58.139c0,4.083,3.313,7.394,7.396,7.394s7.392-3.31,7.392-7.394c0-4.083-3.31-7.393-7.392-7.393    S143.083,54.056,143.083,58.139"
   id="path2328" />
		
			<path
   display="inline"
   fill="none"
   stroke="#ED342C"
   stroke-width="0.7087"
   stroke-linecap="round"
   stroke-linejoin="round"
   stroke-miterlimit="10"
   d="    M80.186,58.139c0,4.083,3.309,7.394,7.392,7.394s7.395-3.31,7.395-7.394c0-4.083-3.311-7.393-7.395-7.393    S80.186,54.056,80.186,58.139"
   id="path2329" />
		
			<path
   display="inline"
   fill="none"
   stroke="#ED342C"
   stroke-width="0.7087"
   stroke-linecap="round"
   stroke-linejoin="round"
   stroke-miterlimit="10"
   d="    M111.621,58.139c0,4.083,3.309,7.394,7.392,7.394c4.082,0,7.395-3.31,7.395-7.394c0-4.083-3.313-7.393-7.395-7.393    C114.93,50.746,111.621,54.056,111.621,58.139"
   id="path2330" />
		
			<path
   display="inline"
   fill="none"
   stroke="#ED342C"
   stroke-width="0.7087"
   stroke-linecap="round"
   stroke-linejoin="round"
   stroke-miterlimit="10"
   d="    M174.52,58.139c0,4.083,3.312,7.394,7.395,7.394s7.395-3.31,7.395-7.394c0-4.083-3.312-7.393-7.395-7.393    S174.52,54.056,174.52,58.139"
   id="path2331" />
		
			<path
   display="inline"
   fill="none"
   stroke="#ED342C"
   stroke-width="0.7087"
   stroke-linecap="round"
   stroke-linejoin="round"
   stroke-miterlimit="10"
   d="    M239.02,58.139c0,4.247,3.439,7.688,7.685,7.688c4.249,0,7.69-3.441,7.69-7.688c0-4.246-3.441-7.689-7.69-7.689    C242.459,50.449,239.02,53.893,239.02,58.139"
   id="path2332" />
		
			<path
   display="inline"
   fill="none"
   stroke="#ED342C"
   stroke-width="0.7087"
   stroke-linecap="round"
   stroke-linejoin="round"
   stroke-miterlimit="10"
   d="    M210.861,58.139c0,4.247,3.443,7.688,7.69,7.688c4.246,0,7.689-3.441,7.689-7.688c0-4.246-3.443-7.689-7.689-7.689    C214.307,50.449,210.861,53.893,210.861,58.139"
   id="path2333" />
	</g>
	<g
   id="g2351">
		<path
   d="M143.188,18.438c-0.215,0-0.398-0.035-0.556-0.105s-0.286-0.165-0.39-0.285s-0.182-0.26-0.235-0.42    c-0.053-0.16-0.08-0.33-0.08-0.51v-3.05h-0.62v-0.55h0.62v-1.51h0.72v1.51h1.051v0.55h-1.051v3.03c0,0.227,0.055,0.403,0.16,0.53    c0.106,0.127,0.277,0.19,0.512,0.19h0.379v0.62H143.188z"
   id="path2334" />
		<path
   d="M145.576,16.167c0,0.54,0.122,0.958,0.365,1.255c0.242,0.297,0.604,0.445,1.084,0.445c0.287,0,0.525-0.045,0.716-0.135    c0.19-0.09,0.382-0.231,0.575-0.425l0.49,0.43c-0.127,0.127-0.252,0.237-0.375,0.33c-0.123,0.094-0.258,0.172-0.4,0.235    c-0.145,0.063-0.299,0.111-0.465,0.146c-0.168,0.034-0.354,0.05-0.561,0.05c-0.326,0-0.624-0.05-0.891-0.15    c-0.268-0.1-0.493-0.253-0.68-0.46c-0.188-0.207-0.33-0.468-0.431-0.785c-0.101-0.316-0.149-0.691-0.149-1.125    c0-0.807,0.18-1.428,0.539-1.865c0.36-0.437,0.854-0.655,1.48-0.655c0.646,0,1.145,0.212,1.494,0.635    c0.352,0.424,0.525,1.009,0.525,1.755v0.32H145.576z M148.188,15.627c-0.008-0.1-0.015-0.187-0.021-0.26    c-0.007-0.073-0.017-0.14-0.024-0.2c-0.01-0.06-0.025-0.118-0.045-0.175c-0.021-0.057-0.045-0.119-0.07-0.185    c-0.106-0.227-0.258-0.407-0.455-0.54c-0.196-0.133-0.428-0.2-0.694-0.2c-0.269,0-0.499,0.067-0.694,0.2    c-0.197,0.133-0.35,0.313-0.455,0.54c-0.033,0.066-0.06,0.128-0.076,0.185c-0.016,0.057-0.029,0.115-0.039,0.175    s-0.018,0.127-0.021,0.2c-0.004,0.073-0.009,0.16-0.016,0.26H148.188z"
   id="path2335" />
		<path
   d="M153.105,18.438l-1.18-1.91l-1.199,1.91h-0.871l1.67-2.51l-1.6-2.41h0.869l1.131,1.82l1.109-1.82h0.869l-1.6,2.41    l1.67,2.51H153.105z"
   id="path2336" />
		<path
   d="M156.587,18.438c-0.214,0-0.397-0.035-0.556-0.105c-0.156-0.07-0.286-0.165-0.391-0.285    c-0.104-0.12-0.182-0.26-0.234-0.42s-0.08-0.33-0.08-0.51v-3.05h-0.619v-0.55h0.619v-1.51h0.721v1.51h1.051v0.55h-1.051v3.03    c0,0.227,0.053,0.403,0.16,0.53c0.105,0.127,0.275,0.19,0.51,0.19h0.381v0.62H156.587z"
   id="path2337" />
		<path
   d="M161.637,18.438v-0.55c-0.174,0.2-0.379,0.352-0.615,0.455c-0.236,0.104-0.494,0.155-0.774,0.155    c-0.54,0-0.964-0.153-1.271-0.46c-0.174-0.173-0.301-0.375-0.381-0.605s-0.119-0.488-0.119-0.775v-3.14h0.721v3.03    c0,0.44,0.105,0.769,0.318,0.985c0.215,0.216,0.508,0.325,0.881,0.325s0.672-0.11,0.896-0.33c0.224-0.22,0.335-0.546,0.335-0.98    v-3.03h0.721v4.92H161.637z"
   id="path2338" />
		<path
   d="M166.896,14.458c-0.135-0.133-0.262-0.227-0.381-0.28c-0.119-0.054-0.277-0.08-0.471-0.08c-0.18,0-0.343,0.033-0.49,0.1    c-0.146,0.067-0.27,0.16-0.369,0.28c-0.101,0.12-0.179,0.26-0.234,0.42c-0.057,0.16-0.085,0.333-0.085,0.52v3.02h-0.72v-4.92h0.72    v0.6c0.133-0.207,0.325-0.369,0.575-0.485c0.25-0.116,0.518-0.175,0.805-0.175c0.232,0,0.445,0.033,0.635,0.1    c0.189,0.066,0.372,0.187,0.545,0.36L166.896,14.458z"
   id="path2339" />
		<path
   d="M168.506,16.167c0,0.54,0.122,0.958,0.365,1.255c0.242,0.297,0.605,0.445,1.085,0.445c0.287,0,0.524-0.045,0.715-0.135    c0.19-0.09,0.382-0.231,0.575-0.425l0.49,0.43c-0.127,0.127-0.252,0.237-0.375,0.33c-0.123,0.094-0.258,0.172-0.4,0.235    c-0.145,0.063-0.298,0.111-0.465,0.146c-0.167,0.034-0.354,0.05-0.561,0.05c-0.326,0-0.623-0.05-0.891-0.15    s-0.492-0.253-0.68-0.46c-0.188-0.207-0.33-0.468-0.43-0.785c-0.102-0.316-0.15-0.691-0.15-1.125c0-0.807,0.18-1.428,0.54-1.865    s0.854-0.655,1.479-0.655c0.646,0,1.146,0.212,1.494,0.635c0.352,0.424,0.525,1.009,0.525,1.755v0.32H168.506z M171.116,15.627    c-0.007-0.1-0.015-0.187-0.021-0.26c-0.007-0.073-0.016-0.14-0.025-0.2c-0.008-0.06-0.024-0.118-0.045-0.175    c-0.021-0.057-0.043-0.119-0.069-0.185c-0.106-0.227-0.258-0.407-0.455-0.54c-0.196-0.133-0.428-0.2-0.694-0.2    c-0.268,0-0.498,0.067-0.695,0.2c-0.196,0.133-0.348,0.313-0.454,0.54c-0.033,0.066-0.06,0.128-0.075,0.185    c-0.016,0.057-0.03,0.115-0.04,0.175s-0.017,0.127-0.021,0.2c-0.004,0.073-0.008,0.16-0.016,0.26H171.116z"
   id="path2340" />
		<path
   d="M179.396,16.998c0,0.473-0.185,0.842-0.551,1.105c-0.367,0.263-0.851,0.395-1.449,0.395c-0.42,0-0.795-0.054-1.125-0.16    s-0.629-0.29-0.896-0.55l0.48-0.48c0.192,0.2,0.42,0.345,0.68,0.435c0.26,0.09,0.543,0.135,0.851,0.135    c0.413,0,0.734-0.071,0.966-0.215c0.229-0.144,0.344-0.362,0.344-0.655c0-0.22-0.062-0.388-0.189-0.505    c-0.126-0.117-0.336-0.188-0.63-0.215l-0.81-0.07c-0.48-0.04-0.846-0.167-1.096-0.38s-0.375-0.526-0.375-0.94    c0-0.227,0.045-0.428,0.135-0.605s0.215-0.327,0.375-0.45s0.351-0.218,0.57-0.285c0.221-0.067,0.463-0.1,0.729-0.1    c0.361,0,0.688,0.043,0.986,0.13c0.295,0.087,0.557,0.22,0.784,0.4l-0.471,0.47c-0.173-0.133-0.371-0.231-0.595-0.295    c-0.225-0.064-0.463-0.095-0.715-0.095c-0.36,0-0.635,0.072-0.82,0.215c-0.188,0.143-0.28,0.341-0.28,0.595    c0,0.22,0.069,0.387,0.21,0.5c0.141,0.113,0.363,0.187,0.671,0.22l0.771,0.07c0.213,0.02,0.41,0.057,0.59,0.11    c0.18,0.054,0.333,0.132,0.46,0.235s0.226,0.235,0.295,0.395C179.361,16.567,179.396,16.764,179.396,16.998z"
   id="path2341" />
		<path
   d="M182.025,19.627c-0.094,0.26-0.209,0.453-0.351,0.58c-0.133,0.126-0.282,0.215-0.448,0.265    c-0.168,0.05-0.338,0.075-0.512,0.075h-0.311v-0.64h0.221c0.247,0,0.424-0.045,0.529-0.135c0.107-0.09,0.201-0.249,0.281-0.475    l0.35-0.96l-1.77-4.82h0.778l1.351,3.95l1.34-3.95h0.781L182.025,19.627z"
   id="path2342" />
		<path
   d="M188.426,18.438v-3.03c0-0.44-0.107-0.769-0.324-0.985c-0.218-0.216-0.513-0.325-0.886-0.325s-0.67,0.11-0.89,0.33    c-0.221,0.22-0.33,0.546-0.33,0.98v3.03h-0.721v-4.92h0.721v0.54c0.173-0.2,0.376-0.35,0.609-0.45c0.232-0.1,0.49-0.15,0.771-0.15    c0.533,0,0.953,0.153,1.261,0.46c0.34,0.333,0.51,0.79,0.51,1.37v3.15H188.426z"
   id="path2343" />
		<path
   d="M192.275,18.438c-0.213,0-0.397-0.035-0.555-0.105c-0.156-0.07-0.287-0.165-0.391-0.285s-0.182-0.26-0.234-0.42    c-0.054-0.16-0.08-0.33-0.08-0.51v-3.05h-0.619v-0.55h0.619v-1.51h0.721v1.51h1.05v0.55h-1.05v3.03c0,0.227,0.053,0.403,0.16,0.53    c0.105,0.127,0.275,0.19,0.51,0.19h0.38v0.62H192.275z"
   id="path2344" />
		<path
   d="M197.365,18.438v-3.04c0-0.44-0.104-0.767-0.314-0.98c-0.21-0.213-0.505-0.32-0.886-0.32c-0.38,0-0.681,0.106-0.899,0.32    s-0.33,0.54-0.33,0.98v3.04h-0.72v-7.12h0.72v2.74c0.36-0.4,0.82-0.6,1.381-0.6c0.565,0,1.002,0.164,1.31,0.49    c0.308,0.327,0.46,0.77,0.46,1.33v3.16H197.365z"
   id="path2345" />
		<path
   d="M200.285,16.167c0,0.54,0.122,0.958,0.365,1.255c0.242,0.297,0.604,0.445,1.084,0.445c0.287,0,0.525-0.045,0.716-0.135    c0.19-0.09,0.382-0.231,0.575-0.425l0.49,0.43c-0.127,0.127-0.252,0.237-0.375,0.33c-0.123,0.094-0.258,0.172-0.4,0.235    c-0.145,0.063-0.299,0.111-0.465,0.146c-0.168,0.034-0.354,0.05-0.561,0.05c-0.326,0-0.624-0.05-0.891-0.15    c-0.268-0.1-0.493-0.253-0.68-0.46c-0.188-0.207-0.33-0.468-0.431-0.785c-0.101-0.316-0.149-0.691-0.149-1.125    c0-0.807,0.18-1.428,0.539-1.865c0.36-0.437,0.854-0.655,1.48-0.655c0.646,0,1.145,0.212,1.494,0.635    c0.352,0.424,0.525,1.009,0.525,1.755v0.32H200.285z M202.896,15.627c-0.008-0.1-0.015-0.187-0.021-0.26    c-0.007-0.073-0.017-0.14-0.024-0.2c-0.01-0.06-0.025-0.118-0.045-0.175c-0.021-0.057-0.045-0.119-0.07-0.185    c-0.106-0.227-0.258-0.407-0.455-0.54c-0.196-0.133-0.428-0.2-0.694-0.2c-0.269,0-0.499,0.067-0.694,0.2    c-0.197,0.133-0.35,0.313-0.455,0.54c-0.033,0.066-0.06,0.128-0.076,0.185c-0.016,0.057-0.029,0.115-0.039,0.175    s-0.018,0.127-0.021,0.2c-0.004,0.073-0.009,0.16-0.016,0.26H202.896z"
   id="path2346" />
		<path
   d="M208.686,16.998c0,0.473-0.184,0.842-0.549,1.105c-0.367,0.263-0.852,0.395-1.451,0.395c-0.42,0-0.795-0.054-1.125-0.16    s-0.629-0.29-0.896-0.55l0.479-0.48c0.193,0.2,0.42,0.345,0.681,0.435c0.26,0.09,0.543,0.135,0.851,0.135    c0.413,0,0.734-0.071,0.965-0.215c0.229-0.144,0.346-0.362,0.346-0.655c0-0.22-0.063-0.388-0.19-0.505    c-0.126-0.117-0.336-0.188-0.63-0.215l-0.811-0.07c-0.479-0.04-0.845-0.167-1.095-0.38s-0.375-0.526-0.375-0.94    c0-0.227,0.046-0.428,0.136-0.605s0.215-0.327,0.375-0.45s0.35-0.218,0.569-0.285s0.464-0.1,0.729-0.1    c0.359,0,0.688,0.043,0.984,0.13s0.559,0.22,0.785,0.4l-0.471,0.47c-0.174-0.133-0.371-0.231-0.596-0.295    c-0.224-0.064-0.461-0.095-0.715-0.095c-0.359,0-0.634,0.072-0.82,0.215c-0.187,0.143-0.279,0.341-0.279,0.595    c0,0.22,0.07,0.387,0.21,0.5c0.142,0.113,0.363,0.187,0.671,0.22l0.77,0.07c0.214,0.02,0.41,0.057,0.591,0.11    c0.18,0.054,0.333,0.132,0.46,0.235s0.227,0.235,0.295,0.395C208.65,16.567,208.686,16.764,208.686,16.998z"
   id="path2347" />
		<path
   d="M210.057,12.118v-0.81h0.81v0.81H210.057z M210.096,18.438v-4.92h0.721v4.92H210.096z"
   id="path2348" />
		<path
   d="M212.216,18.438v-0.62l2.74-3.66h-2.59v-0.64h3.42v0.61l-2.75,3.67h2.75v0.64H212.216z"
   id="path2349" />
		<path
   d="M217.654,16.167c0,0.54,0.123,0.958,0.365,1.255c0.244,0.297,0.605,0.445,1.086,0.445c0.287,0,0.524-0.045,0.715-0.135    c0.189-0.09,0.382-0.231,0.574-0.425l0.49,0.43c-0.127,0.127-0.252,0.237-0.375,0.33c-0.123,0.094-0.257,0.172-0.4,0.235    c-0.144,0.063-0.297,0.111-0.465,0.146c-0.166,0.034-0.354,0.05-0.56,0.05c-0.327,0-0.624-0.05-0.892-0.15    c-0.266-0.1-0.492-0.253-0.68-0.46c-0.187-0.207-0.33-0.468-0.43-0.785c-0.102-0.316-0.15-0.691-0.15-1.125    c0-0.807,0.181-1.428,0.541-1.865c0.359-0.437,0.854-0.655,1.479-0.655c0.646,0,1.146,0.212,1.494,0.635    c0.351,0.424,0.524,1.009,0.524,1.755v0.32H217.654z M220.266,15.627c-0.007-0.1-0.014-0.187-0.02-0.26    c-0.008-0.073-0.016-0.14-0.025-0.2c-0.009-0.06-0.025-0.118-0.045-0.175c-0.021-0.057-0.044-0.119-0.07-0.185    c-0.105-0.227-0.258-0.407-0.455-0.54c-0.195-0.133-0.428-0.2-0.693-0.2c-0.268,0-0.499,0.067-0.695,0.2    c-0.197,0.133-0.349,0.313-0.455,0.54c-0.033,0.066-0.059,0.128-0.074,0.185c-0.017,0.057-0.03,0.115-0.041,0.175    c-0.01,0.06-0.017,0.127-0.02,0.2c-0.004,0.073-0.009,0.16-0.016,0.26H220.266z"
   id="path2350" />
		<path
   d="M225.256,14.458c-0.134-0.133-0.261-0.227-0.381-0.28c-0.119-0.054-0.275-0.08-0.471-0.08c-0.18,0-0.342,0.033-0.489,0.1    c-0.146,0.067-0.271,0.16-0.369,0.28c-0.101,0.12-0.179,0.26-0.235,0.42c-0.056,0.16-0.084,0.333-0.084,0.52v3.02h-0.721v-4.92    h0.721v0.6c0.133-0.207,0.324-0.369,0.574-0.485c0.25-0.116,0.518-0.175,0.805-0.175c0.233,0,0.445,0.033,0.636,0.1    c0.19,0.066,0.372,0.187,0.545,0.36L225.256,14.458z"
   id="path2351" />
	</g>
</g>
<g
   id="decoupe"
   display="none">
	
		<path
   display="inline"
   fill="none"
   stroke="#ED342C"
   stroke-width="0.7087"
   stroke-linecap="round"
   stroke-linejoin="round"
   stroke-miterlimit="10"
   d="   M6330.723,432.745c0,2.505,2.029,4.535,4.535,4.535s4.535-2.03,4.535-4.535c0-2.501-2.029-4.535-4.535-4.535   S6330.723,430.244,6330.723,432.745"
   id="path2352" />
	
		<path
   display="inline"
   fill="none"
   stroke="#ED342C"
   stroke-width="0.7087"
   stroke-linecap="round"
   stroke-linejoin="round"
   stroke-miterlimit="10"
   d="   M6330.723,85.505c0,2.505,2.029,4.535,4.535,4.535s4.535-2.03,4.535-4.535c0-2.506-2.029-4.535-4.535-4.535   S6330.723,82.999,6330.723,85.505"
   id="path2353" />
	
		<path
   display="inline"
   fill="none"
   stroke="#ED342C"
   stroke-width="0.7087"
   stroke-linecap="round"
   stroke-linejoin="round"
   stroke-miterlimit="10"
   d="   M6546.723,432.745c0,2.505,2.035,4.535,4.535,4.535c2.506,0,4.535-2.03,4.535-4.535c0-2.501-2.029-4.535-4.535-4.535   C6548.758,428.21,6546.723,430.244,6546.723,432.745"
   id="path2354" />
	
		<path
   display="inline"
   fill="none"
   stroke="#ED342C"
   stroke-width="0.7087"
   stroke-linecap="round"
   stroke-linejoin="round"
   stroke-miterlimit="10"
   d="   M6546.723,85.505c0,2.505,2.035,4.535,4.535,4.535c2.506,0,4.535-2.03,4.535-4.535c0-2.506-2.029-4.535-4.535-4.535   C6548.758,80.97,6546.723,82.999,6546.723,85.505"
   id="path2355" />
	
		<polyline
   display="inline"
   fill="none"
   stroke="#ED342C"
   stroke-width="0.7087"
   stroke-linecap="round"
   stroke-linejoin="round"
   stroke-miterlimit="10"
   points="   6314,441.252 6314,77 6572.803,77 6572.803,441.252 6314,441.252  "
   id="polyline2355" />
	
		<path
   display="inline"
   fill="none"
   stroke="#ED342C"
   stroke-width="0.7087"
   stroke-linecap="round"
   stroke-linejoin="round"
   stroke-miterlimit="10"
   d="   M6330.68,391.929c0,5.085,4.125,9.211,9.215,9.211c5.088,0,9.211-4.126,9.211-9.211c0-5.086-4.123-9.212-9.211-9.212   C6334.805,382.717,6330.68,386.843,6330.68,391.929"
   id="path2356" />
	
		<path
   display="inline"
   fill="none"
   stroke="#ED342C"
   stroke-width="0.7087"
   stroke-linecap="round"
   stroke-linejoin="round"
   stroke-miterlimit="10"
   d="   M6372.082,391.929c0,5.085,4.123,9.211,9.211,9.211c5.09,0,9.213-4.126,9.213-9.211c0-5.086-4.123-9.212-9.213-9.212   C6376.205,382.717,6372.082,386.843,6372.082,391.929"
   id="path2357" />
	
		<path
   display="inline"
   fill="none"
   stroke="#ED342C"
   stroke-width="0.7087"
   stroke-linecap="round"
   stroke-linejoin="round"
   stroke-miterlimit="10"
   d="   M6413.482,391.929c0,5.085,4.123,9.211,9.211,9.211s9.213-4.126,9.213-9.211c0-5.086-4.125-9.212-9.213-9.212   S6413.482,386.843,6413.482,391.929"
   id="path2358" />
	
		<path
   display="inline"
   fill="none"
   stroke="#ED342C"
   stroke-width="0.7087"
   stroke-linecap="round"
   stroke-linejoin="round"
   stroke-miterlimit="10"
   d="   M6454.883,391.929c0,5.085,4.123,9.211,9.211,9.211c5.09,0,9.213-4.126,9.213-9.211c0-5.086-4.123-9.212-9.213-9.212   C6459.006,382.717,6454.883,386.843,6454.883,391.929"
   id="path2359" />
	
		<path
   display="inline"
   fill="none"
   stroke="#ED342C"
   stroke-width="0.7087"
   stroke-linecap="round"
   stroke-linejoin="round"
   stroke-miterlimit="10"
   d="   M6496.283,391.929c0,5.085,4.123,9.211,9.211,9.211s9.215-4.126,9.215-9.211c0-5.086-4.127-9.212-9.215-9.212   S6496.283,386.843,6496.283,391.929"
   id="path2360" />
	
		<path
   display="inline"
   fill="none"
   stroke="#ED342C"
   stroke-width="0.7087"
   stroke-linecap="round"
   stroke-linejoin="round"
   stroke-miterlimit="10"
   d="   M6537.684,391.929c0,5.085,4.121,9.211,9.211,9.211c5.086,0,9.211-4.126,9.211-9.211c0-5.086-4.125-9.212-9.211-9.212   C6541.805,382.717,6537.684,386.843,6537.684,391.929"
   id="path2361" />
	
		<path
   display="inline"
   fill="none"
   stroke="#ED342C"
   stroke-width="0.7087"
   stroke-linecap="round"
   stroke-linejoin="round"
   stroke-miterlimit="10"
   d="   M6330.68,350.53c0,5.086,4.125,9.212,9.215,9.212c5.088,0,9.211-4.126,9.211-9.212c0-5.09-4.123-9.216-9.211-9.216   C6334.805,341.314,6330.68,345.44,6330.68,350.53"
   id="path2362" />
	
		<path
   display="inline"
   fill="none"
   stroke="#ED342C"
   stroke-width="0.7087"
   stroke-linecap="round"
   stroke-linejoin="round"
   stroke-miterlimit="10"
   d="   M6372.082,350.53c0,5.086,4.123,9.212,9.211,9.212c5.09,0,9.213-4.126,9.213-9.212c0-5.09-4.123-9.216-9.213-9.216   C6376.205,341.314,6372.082,345.44,6372.082,350.53"
   id="path2363" />
	
		<path
   display="inline"
   fill="none"
   stroke="#ED342C"
   stroke-width="0.7087"
   stroke-linecap="round"
   stroke-linejoin="round"
   stroke-miterlimit="10"
   d="   M6413.482,350.53c0,5.086,4.123,9.212,9.211,9.212s9.213-4.126,9.213-9.212c0-5.09-4.125-9.216-9.213-9.216   S6413.482,345.44,6413.482,350.53"
   id="path2364" />
	
		<path
   display="inline"
   fill="none"
   stroke="#ED342C"
   stroke-width="0.7087"
   stroke-linecap="round"
   stroke-linejoin="round"
   stroke-miterlimit="10"
   d="   M6454.883,350.53c0,5.086,4.123,9.212,9.211,9.212c5.09,0,9.213-4.126,9.213-9.212c0-5.09-4.123-9.216-9.213-9.216   C6459.006,341.314,6454.883,345.44,6454.883,350.53"
   id="path2365" />
	
		<path
   display="inline"
   fill="none"
   stroke="#ED342C"
   stroke-width="0.7087"
   stroke-linecap="round"
   stroke-linejoin="round"
   stroke-miterlimit="10"
   d="   M6496.283,350.53c0,5.086,4.123,9.212,9.211,9.212s9.215-4.126,9.215-9.212c0-5.09-4.127-9.216-9.215-9.216   S6496.283,345.44,6496.283,350.53"
   id="path2366" />
	
		<path
   display="inline"
   fill="none"
   stroke="#ED342C"
   stroke-width="0.7087"
   stroke-linecap="round"
   stroke-linejoin="round"
   stroke-miterlimit="10"
   d="   M6537.684,350.53c0,5.086,4.121,9.212,9.211,9.212c5.086,0,9.211-4.126,9.211-9.212c0-5.09-4.125-9.216-9.211-9.216   C6541.805,341.314,6537.684,345.44,6537.684,350.53"
   id="path2367" />
	
		<path
   display="inline"
   fill="none"
   stroke="#ED342C"
   stroke-width="0.7087"
   stroke-linecap="round"
   stroke-linejoin="round"
   stroke-miterlimit="10"
   d="   M6354.465,192.143c0,5.872,4.758,10.629,10.629,10.629c5.869,0,10.629-4.757,10.629-10.629c0-5.869-4.76-10.629-10.629-10.629   C6359.223,181.514,6354.465,186.273,6354.465,192.143"
   id="path2368" />
	
		<path
   display="inline"
   fill="none"
   stroke="#ED342C"
   stroke-width="0.7087"
   stroke-linecap="round"
   stroke-linejoin="round"
   stroke-miterlimit="10"
   d="   M6401.264,271.341c0,5.874,4.76,10.634,10.631,10.634c5.869,0,10.629-4.76,10.629-10.634c0-5.869-4.76-10.629-10.629-10.629   C6406.023,260.712,6401.264,265.472,6401.264,271.341"
   id="path2369" />
	
		<path
   display="inline"
   fill="none"
   stroke="#ED342C"
   stroke-width="0.7087"
   stroke-linecap="round"
   stroke-linejoin="round"
   stroke-miterlimit="10"
   d="   M6328.838,132.729c0,6.104,4.949,11.055,11.057,11.055c6.104,0,11.055-4.951,11.055-11.055c0-6.105-4.951-11.057-11.055-11.057   C6333.787,121.673,6328.838,126.624,6328.838,132.729"
   id="path2370" />
	
		<path
   display="inline"
   fill="none"
   stroke="#ED342C"
   stroke-width="0.7087"
   stroke-linecap="round"
   stroke-linejoin="round"
   stroke-miterlimit="10"
   d="   M6464.25,271.341c0,5.874,4.76,10.634,10.629,10.634c5.871,0,10.633-4.76,10.633-10.634c0-5.869-4.762-10.629-10.633-10.629   C6469.01,260.712,6464.25,265.472,6464.25,271.341"
   id="path2371" />
	
		<path
   display="inline"
   fill="none"
   stroke="#ED342C"
   stroke-width="0.7087"
   stroke-linecap="round"
   stroke-linejoin="round"
   stroke-miterlimit="10"
   d="   M6527.266,271.341c0,5.874,4.76,10.634,10.629,10.634s10.629-4.76,10.629-10.634c0-5.869-4.76-10.629-10.629-10.629   S6527.266,265.472,6527.266,271.341"
   id="path2372" />
	
		<path
   display="inline"
   fill="none"
   stroke="#ED342C"
   stroke-width="0.7087"
   stroke-linecap="round"
   stroke-linejoin="round"
   stroke-miterlimit="10"
   d="   M6338.25,271.341c0,5.874,4.758,10.634,10.629,10.634s10.629-4.76,10.629-10.634c0-5.869-4.758-10.629-10.629-10.629   S6338.25,265.472,6338.25,271.341"
   id="path2373" />
	
		<path
   display="inline"
   fill="none"
   stroke="#ED342C"
   stroke-width="0.7087"
   stroke-linecap="round"
   stroke-linejoin="round"
   stroke-miterlimit="10"
   d="   M6432.756,192.143c0,5.872,4.76,10.629,10.633,10.629c5.869,0,10.629-4.757,10.629-10.629c0-5.869-4.76-10.629-10.629-10.629   C6437.516,181.514,6432.756,186.273,6432.756,192.143"
   id="path2374" />
	
		<path
   display="inline"
   fill="none"
   stroke="#ED342C"
   stroke-width="0.7087"
   stroke-linecap="round"
   stroke-linejoin="round"
   stroke-miterlimit="10"
   d="   M6511.051,192.143c0,5.872,4.758,10.629,10.629,10.629c5.873,0,10.633-4.757,10.633-10.629c0-5.869-4.76-10.629-10.633-10.629   C6515.809,181.514,6511.051,186.273,6511.051,192.143"
   id="path2375" />
	
		<path
   display="inline"
   fill="none"
   stroke="#ED342C"
   stroke-width="0.7087"
   stroke-linecap="round"
   stroke-linejoin="round"
   stroke-miterlimit="10"
   d="   M6451.152,132.729c0,3.914,3.176,7.087,7.088,7.087c3.914,0,7.086-3.173,7.086-7.087s-3.172-7.087-7.086-7.087   C6454.328,125.643,6451.152,128.815,6451.152,132.729"
   id="path2376" />
	
		<path
   display="inline"
   fill="none"
   stroke="#ED342C"
   stroke-width="0.7087"
   stroke-linecap="round"
   stroke-linejoin="round"
   stroke-miterlimit="10"
   d="   M6390.861,132.729c0,3.914,3.172,7.087,7.086,7.087s7.088-3.173,7.088-7.087s-3.174-7.087-7.088-7.087   S6390.861,128.815,6390.861,132.729"
   id="path2377" />
	
		<path
   display="inline"
   fill="none"
   stroke="#ED342C"
   stroke-width="0.7087"
   stroke-linecap="round"
   stroke-linejoin="round"
   stroke-miterlimit="10"
   d="   M6420.994,132.729c0,3.914,3.172,7.087,7.086,7.087c3.912,0,7.088-3.173,7.088-7.087s-3.176-7.087-7.088-7.087   C6424.166,125.643,6420.994,128.815,6420.994,132.729"
   id="path2378" />
	
		<path
   display="inline"
   fill="none"
   stroke="#ED342C"
   stroke-width="0.7087"
   stroke-linecap="round"
   stroke-linejoin="round"
   stroke-miterlimit="10"
   d="   M6481.285,132.729c0,3.914,3.174,7.087,7.088,7.087s7.088-3.173,7.088-7.087s-3.174-7.087-7.088-7.087   S6481.285,128.815,6481.285,132.729"
   id="path2379" />
	
		<path
   display="inline"
   fill="none"
   stroke="#ED342C"
   stroke-width="0.7087"
   stroke-linecap="round"
   stroke-linejoin="round"
   stroke-miterlimit="10"
   d="   M6543.113,132.729c0,4.07,3.297,7.369,7.365,7.369c4.072,0,7.371-3.299,7.371-7.369s-3.299-7.371-7.371-7.371   C6546.41,125.358,6543.113,128.659,6543.113,132.729"
   id="path2380" />
	
		<path
   display="inline"
   fill="none"
   stroke="#ED342C"
   stroke-width="0.7087"
   stroke-linecap="round"
   stroke-linejoin="round"
   stroke-miterlimit="10"
   d="   M6516.123,132.729c0,4.07,3.301,7.369,7.371,7.369s7.371-3.299,7.371-7.369s-3.301-7.371-7.371-7.371   S6516.123,128.659,6516.123,132.729"
   id="path2381" />
	
		<path
   display="inline"
   fill="none"
   stroke="#ED342C"
   stroke-width="0.7087"
   stroke-linecap="round"
   stroke-linejoin="round"
   stroke-miterlimit="10"
   d="   M17.469,371.615c0,2.617,2.12,4.738,4.737,4.738s4.738-2.121,4.738-4.738c0-2.612-2.12-4.737-4.738-4.737   S17.469,369.003,17.469,371.615"
   id="path2382" />
	
		<path
   display="inline"
   fill="none"
   stroke="#ED342C"
   stroke-width="0.7087"
   stroke-linecap="round"
   stroke-linejoin="round"
   stroke-miterlimit="10"
   d="   M17.469,8.884c0,2.617,2.12,4.737,4.737,4.737s4.738-2.121,4.738-4.737c0-2.618-2.12-4.737-4.738-4.737S17.469,6.267,17.469,8.884"
   id="path2383" />
	
		<path
   display="inline"
   fill="none"
   stroke="#ED342C"
   stroke-width="0.7087"
   stroke-linecap="round"
   stroke-linejoin="round"
   stroke-miterlimit="10"
   d="   M243.104,371.615c0,2.617,2.126,4.738,4.738,4.738c2.617,0,4.737-2.121,4.737-4.738c0-2.612-2.12-4.737-4.737-4.737   C245.23,366.878,243.104,369.003,243.104,371.615"
   id="path2384" />
	
		<path
   display="inline"
   fill="none"
   stroke="#ED342C"
   stroke-width="0.7087"
   stroke-linecap="round"
   stroke-linejoin="round"
   stroke-miterlimit="10"
   d="   M243.104,8.884c0,2.617,2.126,4.737,4.738,4.737c2.617,0,4.737-2.121,4.737-4.737c0-2.618-2.12-4.737-4.737-4.737   C245.23,4.147,243.104,6.267,243.104,8.884"
   id="path2385" />
	
		<polyline
   display="inline"
   fill="none"
   stroke="#ED342C"
   stroke-width="0.7087"
   stroke-linecap="round"
   stroke-linejoin="round"
   stroke-miterlimit="10"
   points="   0,380.502 0,0 270.349,0 270.349,380.502 0,380.502  "
   id="polyline2385" />
	
		<path
   display="inline"
   fill="none"
   stroke="#ED342C"
   stroke-width="0.7087"
   stroke-linecap="round"
   stroke-linejoin="round"
   stroke-miterlimit="10"
   d="   M17.424,328.979c0,5.312,4.309,9.622,9.626,9.622c5.315,0,9.622-4.311,9.622-9.622c0-5.313-4.307-9.623-9.622-9.623   C21.733,319.355,17.424,323.665,17.424,328.979"
   id="path2386" />
	
		<path
   display="inline"
   fill="none"
   stroke="#ED342C"
   stroke-width="0.7087"
   stroke-linecap="round"
   stroke-linejoin="round"
   stroke-miterlimit="10"
   d="   M60.673,328.979c0,5.312,4.307,9.622,9.622,9.622c5.317,0,9.624-4.311,9.624-9.622c0-5.313-4.307-9.623-9.624-9.623   C64.98,319.355,60.673,323.665,60.673,328.979"
   id="path2387" />
	
		<path
   display="inline"
   fill="none"
   stroke="#ED342C"
   stroke-width="0.7087"
   stroke-linecap="round"
   stroke-linejoin="round"
   stroke-miterlimit="10"
   d="   M103.92,328.979c0,5.312,4.307,9.622,9.622,9.622s9.624-4.311,9.624-9.622c0-5.313-4.309-9.623-9.624-9.623   S103.92,323.665,103.92,328.979"
   id="path2388" />
	
		<path
   display="inline"
   fill="none"
   stroke="#ED342C"
   stroke-width="0.7087"
   stroke-linecap="round"
   stroke-linejoin="round"
   stroke-miterlimit="10"
   d="   M147.168,328.979c0,5.312,4.307,9.622,9.622,9.622c5.316,0,9.624-4.311,9.624-9.622c0-5.313-4.308-9.623-9.624-9.623   C151.475,319.355,147.168,323.665,147.168,328.979"
   id="path2389" />
	
		<path
   display="inline"
   fill="none"
   stroke="#ED342C"
   stroke-width="0.7087"
   stroke-linecap="round"
   stroke-linejoin="round"
   stroke-miterlimit="10"
   d="   M190.415,328.979c0,5.312,4.308,9.622,9.622,9.622s9.626-4.311,9.626-9.622c0-5.313-4.312-9.623-9.626-9.623   S190.415,323.665,190.415,328.979"
   id="path2390" />
	
		<path
   display="inline"
   fill="none"
   stroke="#ED342C"
   stroke-width="0.7087"
   stroke-linecap="round"
   stroke-linejoin="round"
   stroke-miterlimit="10"
   d="   M233.662,328.979c0,5.312,4.306,9.622,9.622,9.622c5.313,0,9.622-4.311,9.622-9.622c0-5.313-4.309-9.623-9.622-9.623   C237.968,319.355,233.662,323.665,233.662,328.979"
   id="path2391" />
	
		<path
   display="inline"
   fill="none"
   stroke="#ED342C"
   stroke-width="0.7087"
   stroke-linecap="round"
   stroke-linejoin="round"
   stroke-miterlimit="10"
   d="   M17.424,285.733c0,5.312,4.309,9.622,9.626,9.622c5.315,0,9.622-4.31,9.622-9.622c0-5.317-4.307-9.627-9.622-9.627   C21.733,276.106,17.424,280.416,17.424,285.733"
   id="path2392" />
	
		<path
   display="inline"
   fill="none"
   stroke="#ED342C"
   stroke-width="0.7087"
   stroke-linecap="round"
   stroke-linejoin="round"
   stroke-miterlimit="10"
   d="   M60.673,285.733c0,5.312,4.307,9.622,9.622,9.622c5.317,0,9.624-4.31,9.624-9.622c0-5.317-4.307-9.627-9.624-9.627   C64.98,276.106,60.673,280.416,60.673,285.733"
   id="path2393" />
	
		<path
   display="inline"
   fill="none"
   stroke="#ED342C"
   stroke-width="0.7087"
   stroke-linecap="round"
   stroke-linejoin="round"
   stroke-miterlimit="10"
   d="   M103.92,285.733c0,5.312,4.307,9.622,9.622,9.622s9.624-4.31,9.624-9.622c0-5.317-4.309-9.627-9.624-9.627   S103.92,280.416,103.92,285.733"
   id="path2394" />
	
		<path
   display="inline"
   fill="none"
   stroke="#ED342C"
   stroke-width="0.7087"
   stroke-linecap="round"
   stroke-linejoin="round"
   stroke-miterlimit="10"
   d="   M147.168,285.733c0,5.312,4.307,9.622,9.622,9.622c5.316,0,9.624-4.31,9.624-9.622c0-5.317-4.308-9.627-9.624-9.627   C151.475,276.106,147.168,280.416,147.168,285.733"
   id="path2395" />
	
		<path
   display="inline"
   fill="none"
   stroke="#ED342C"
   stroke-width="0.7087"
   stroke-linecap="round"
   stroke-linejoin="round"
   stroke-miterlimit="10"
   d="   M190.415,285.733c0,5.312,4.308,9.622,9.622,9.622s9.626-4.31,9.626-9.622c0-5.317-4.312-9.627-9.626-9.627   S190.415,280.416,190.415,285.733"
   id="path2396" />
	
		<path
   display="inline"
   fill="none"
   stroke="#ED342C"
   stroke-width="0.7087"
   stroke-linecap="round"
   stroke-linejoin="round"
   stroke-miterlimit="10"
   d="   M233.662,285.733c0,5.312,4.306,9.622,9.622,9.622c5.313,0,9.622-4.31,9.622-9.622c0-5.317-4.309-9.627-9.622-9.627   C237.968,276.106,233.662,280.416,233.662,285.733"
   id="path2397" />
	
		<path
   display="inline"
   fill="none"
   stroke="#ED342C"
   stroke-width="0.7087"
   stroke-linecap="round"
   stroke-linejoin="round"
   stroke-miterlimit="10"
   d="   M42.27,120.279c0,6.134,4.97,11.103,11.103,11.103c6.131,0,11.103-4.969,11.103-11.103c0-6.131-4.972-11.103-11.103-11.103   C47.24,109.176,42.27,114.148,42.27,120.279"
   id="path2398" />
	
		<path
   display="inline"
   fill="none"
   stroke="#ED342C"
   stroke-width="0.7087"
   stroke-linecap="round"
   stroke-linejoin="round"
   stroke-miterlimit="10"
   d="   M91.157,203.011c0,6.136,4.972,11.108,11.105,11.108c6.131,0,11.103-4.973,11.103-11.108c0-6.131-4.972-11.104-11.103-11.104   C96.129,191.907,91.157,196.88,91.157,203.011"
   id="path2399" />
	
		<path
   display="inline"
   fill="none"
   stroke="#ED342C"
   stroke-width="0.7087"
   stroke-linecap="round"
   stroke-linejoin="round"
   stroke-miterlimit="10"
   d="   M15.5,58.216c0,6.375,5.17,11.548,11.55,11.548c6.376,0,11.548-5.172,11.548-11.548c0-6.378-5.172-11.55-11.548-11.55   C20.67,46.666,15.5,51.838,15.5,58.216"
   id="path2400" />
	
		<path
   display="inline"
   fill="none"
   stroke="#ED342C"
   stroke-width="0.7087"
   stroke-linecap="round"
   stroke-linejoin="round"
   stroke-miterlimit="10"
   d="   M156.953,203.011c0,6.136,4.972,11.108,11.103,11.108c6.134,0,11.107-4.973,11.107-11.108c0-6.131-4.974-11.104-11.107-11.104   C161.925,191.907,156.953,196.88,156.953,203.011"
   id="path2401" />
	
		<path
   display="inline"
   fill="none"
   stroke="#ED342C"
   stroke-width="0.7087"
   stroke-linecap="round"
   stroke-linejoin="round"
   stroke-miterlimit="10"
   d="   M222.78,203.011c0,6.136,4.972,11.108,11.103,11.108s11.104-4.973,11.104-11.108c0-6.131-4.973-11.104-11.104-11.104   S222.78,196.88,222.78,203.011"
   id="path2402" />
	
		<path
   display="inline"
   fill="none"
   stroke="#ED342C"
   stroke-width="0.7087"
   stroke-linecap="round"
   stroke-linejoin="round"
   stroke-miterlimit="10"
   d="   M25.332,203.011c0,6.136,4.97,11.108,11.103,11.108c6.133,0,11.103-4.973,11.103-11.108c0-6.131-4.97-11.104-11.103-11.104   C30.302,191.907,25.332,196.88,25.332,203.011"
   id="path2403" />
	
		<path
   display="inline"
   fill="none"
   stroke="#ED342C"
   stroke-width="0.7087"
   stroke-linecap="round"
   stroke-linejoin="round"
   stroke-miterlimit="10"
   d="   M124.054,120.279c0,6.134,4.972,11.103,11.107,11.103c6.131,0,11.103-4.969,11.103-11.103c0-6.131-4.972-11.103-11.103-11.103   C129.026,109.176,124.054,114.148,124.054,120.279"
   id="path2404" />
	
		<path
   display="inline"
   fill="none"
   stroke="#ED342C"
   stroke-width="0.7087"
   stroke-linecap="round"
   stroke-linejoin="round"
   stroke-miterlimit="10"
   d="   M205.842,120.279c0,6.134,4.97,11.103,11.103,11.103c6.136,0,11.107-4.969,11.107-11.103c0-6.131-4.972-11.103-11.107-11.103   C210.812,109.176,205.842,114.148,205.842,120.279"
   id="path2405" />
	
		<path
   display="inline"
   fill="none"
   stroke="#ED342C"
   stroke-width="0.7087"
   stroke-linecap="round"
   stroke-linejoin="round"
   stroke-miterlimit="10"
   d="   M143.271,58.216c0,4.088,3.318,7.403,7.404,7.403c4.089,0,7.402-3.314,7.402-7.403c0-4.089-3.313-7.403-7.402-7.403   C146.589,50.812,143.271,54.127,143.271,58.216"
   id="path2406" />
	
		<path
   display="inline"
   fill="none"
   stroke="#ED342C"
   stroke-width="0.7087"
   stroke-linecap="round"
   stroke-linejoin="round"
   stroke-miterlimit="10"
   d="   M80.29,58.216c0,4.088,3.313,7.403,7.402,7.403c4.088,0,7.404-3.314,7.404-7.403c0-4.089-3.315-7.403-7.404-7.403   C83.604,50.812,80.29,54.127,80.29,58.216"
   id="path2407" />
	
		<path
   display="inline"
   fill="none"
   stroke="#ED342C"
   stroke-width="0.7087"
   stroke-linecap="round"
   stroke-linejoin="round"
   stroke-miterlimit="10"
   d="   M111.768,58.216c0,4.088,3.313,7.403,7.402,7.403c4.086,0,7.404-3.314,7.404-7.403c0-4.089-3.318-7.403-7.404-7.403   C115.081,50.812,111.768,54.127,111.768,58.216"
   id="path2408" />
	
		<path
   display="inline"
   fill="none"
   stroke="#ED342C"
   stroke-width="0.7087"
   stroke-linecap="round"
   stroke-linejoin="round"
   stroke-miterlimit="10"
   d="   M174.748,58.216c0,4.088,3.315,7.403,7.404,7.403s7.404-3.314,7.404-7.403c0-4.089-3.315-7.403-7.404-7.403   S174.748,54.127,174.748,58.216"
   id="path2409" />
	
		<path
   display="inline"
   fill="none"
   stroke="#ED342C"
   stroke-width="0.7087"
   stroke-linecap="round"
   stroke-linejoin="round"
   stroke-miterlimit="10"
   d="   M239.334,58.216c0,4.252,3.444,7.698,7.694,7.698c4.254,0,7.7-3.446,7.7-7.698s-3.446-7.7-7.7-7.7   C242.778,50.516,239.334,53.964,239.334,58.216"
   id="path2410" />
	
		<path
   display="inline"
   fill="none"
   stroke="#ED342C"
   stroke-width="0.7087"
   stroke-linecap="round"
   stroke-linejoin="round"
   stroke-miterlimit="10"
   d="   M211.141,58.216c0,4.252,3.447,7.698,7.699,7.698s7.7-3.446,7.7-7.698s-3.448-7.7-7.7-7.7S211.141,53.964,211.141,58.216"
   id="path2411" />
</g>
<g
   id="widgets"
   display="none">
	
		<rect
   id="Rogan3"
   x="32.492"
   y="99.398"
   display="inline"
   fill="none"
   stroke="#000000"
   stroke-miterlimit="10"
   width="41.762"
   height="41.762" />
	
		<rect
   id="Rogan3_1_"
   x="114.248"
   y="99.398"
   display="inline"
   fill="none"
   stroke="#000000"
   stroke-miterlimit="10"
   width="41.762"
   height="41.762" />
	
		<rect
   id="Rogan3_2_"
   x="195.779"
   y="99.398"
   display="inline"
   fill="none"
   stroke="#000000"
   stroke-miterlimit="10"
   width="41.762"
   height="41.762" />
	
		<rect
   id="Rogan1"
   x="16.666"
   y="183.013"
   display="inline"
   fill="none"
   stroke="#000000"
   stroke-miterlimit="10"
   width="40"
   height="40" />
	
		<rect
   id="Rogan1_1_"
   x="81.714"
   y="183.013"
   display="inline"
   fill="none"
   stroke="#000000"
   stroke-miterlimit="10"
   width="40"
   height="40" />
	
		<rect
   id="Rogan1_2_"
   x="147.71"
   y="183.013"
   display="inline"
   fill="none"
   stroke="#000000"
   stroke-miterlimit="10"
   width="40"
   height="40" />
	
		<rect
   id="Rogan1_3_"
   x="214.016"
   y="183.013"
   display="inline"
   fill="none"
   stroke="#000000"
   stroke-miterlimit="10"
   width="40"
   height="40" />
	
		<rect
   id="PJ301_5_"
   x="15.69"
   y="274.23"
   display="inline"
   fill="none"
   stroke="#000000"
   stroke-miterlimit="10"
   width="23"
   height="23" />
	
		<rect
   id="PJ301_1_"
   x="15.69"
   y="317.564"
   display="inline"
   fill="none"
   stroke="#000000"
   stroke-miterlimit="10"
   width="23"
   height="23" />
	
		<rect
   id="PJ301_3_"
   x="58.796"
   y="274.23"
   display="inline"
   fill="none"
   stroke="#000000"
   stroke-miterlimit="10"
   width="23"
   height="23" />
	
		<rect
   id="PJ301_2_"
   x="58.796"
   y="317.564"
   display="inline"
   fill="none"
   stroke="#000000"
   stroke-miterlimit="10"
   width="23"
   height="23" />
	
		<rect
   id="PJ301_6_"
   x="102.046"
   y="274.23"
   display="inline"
   fill="none"
   stroke="#000000"
   stroke-miterlimit="10"
   width="23"
   height="23" />
	
		<rect
   id="PJ301_4_"
   x="102.046"
   y="317.564"
   display="inline"
   fill="none"
   stroke="#000000"
   stroke-miterlimit="10"
   width="23"
   height="23" />
	
		<rect
   id="PJ301_8_"
   x="145.291"
   y="274.23"
   display="inline"
   fill="none"
   stroke="#000000"
   stroke-miterlimit="10"
   width="23"
   height="23" />
	
		<rect
   id="PJ301_7_"
   x="145.291"
   y="317.564"
   display="inline"
   fill="none"
   stroke="#000000"
   stroke-miterlimit="10"
   width="23"
   height="23" />
	
		<rect
   id="PJ301_10_"
   x="188.539"
   y="274.23"
   display="inline"
   fill="none"
   stroke="#000000"
   stroke-miterlimit="10"
   width="23"
   height="23" />
	
		<rect
   id="PJ301_9_"
   x="188.539"
   y="317.564"
   display="inline"
   fill="none"
   stroke="#000000"
   stroke-miterlimit="10"
   width="23"
   height="23" />
	
		<rect
   id="PJ301_12_"
   x="231.784"
   y="274.23"
   display="inline"
   fill="none"
   stroke="#000000"
   stroke-miterlimit="10"
   width="23"
   height="23" />
	
		<rect
   id="PJ301_11_"
   x="231.784"
   y="317.564"
   display="inline"
   fill="none"
   stroke="#000000"
   stroke-miterlimit="10"
   width="23"
   height="23" />
	
		<rect
   id="MediumLight"
   x="82.783"
   y="53.216"
   display="inline"
   fill="none"
   stroke="#000000"
   stroke-miterlimit="10"
   width="10"
   height="10" />
	
		<rect
   id="MediumLight_1_"
   x="114.16"
   y="53.216"
   display="inline"
   fill="none"
   stroke="#000000"
   stroke-miterlimit="10"
   width="10"
   height="10" />
	
		<rect
   id="MediumLight_2_"
   x="145.395"
   y="53.216"
   display="inline"
   fill="none"
   stroke="#000000"
   stroke-miterlimit="10"
   width="10"
   height="10" />
	
		<rect
   id="MediumLight_3_"
   x="177.141"
   y="53.216"
   display="inline"
   fill="none"
   stroke="#000000"
   stroke-miterlimit="10"
   width="10"
   height="10" />
	
		<rect
   id="CKD6"
   x="13.2"
   y="44.217"
   display="inline"
   fill="none"
   stroke="#000000"
   stroke-miterlimit="10"
   width="28"
   height="27.996" />
	
		<rect
   id="TL1105"
   x="211.042"
   y="50.217"
   display="inline"
   fill="none"
   stroke="#000000"
   stroke-miterlimit="10"
   width="16"
   height="15.998" />
	
		<rect
   id="TL1105_1_"
   x="239.031"
   y="50.217"
   display="inline"
   fill="none"
   stroke="#000000"
   stroke-miterlimit="10"
   width="16"
   height="15.998" />
</g>
</svg>
