<?xml version="1.0" encoding="UTF-8" standalone="no"?>
<!-- Generator: Adobe Illustrator 16.0.3, SVG Export Plug-In . SVG Version: 6.00 Build 0)  -->

<svg
   version="1.1"
   x="0px"
   y="0px"
   width="120px"
   height="380px"
   viewBox="0 0 120 380"
   enable-background="new 0 0 120 380"
   xml:space="preserve"
   id="svg255"
   sodipodi:docname="Peaks.svg"
   inkscape:version="1.3.2 (091e20e, 2023-11-25)"
   inkscape:export-filename="Peaks.png"
   inkscape:export-xdpi="96"
   inkscape:export-ydpi="96"
   xmlns:inkscape="http://www.inkscape.org/namespaces/inkscape"
   xmlns:sodipodi="http://sodipodi.sourceforge.net/DTD/sodipodi-0.dtd"
   xmlns:xlink="http://www.w3.org/1999/xlink"
   xmlns="http://www.w3.org/2000/svg"
   xmlns:svg="http://www.w3.org/2000/svg"><defs
   id="defs255" /><sodipodi:namedview
   id="namedview255"
   pagecolor="#ffffff"
   bordercolor="#000000"
   borderopacity="0.25"
   inkscape:showpageshadow="2"
   inkscape:pageopacity="0.0"
   inkscape:pagecheckerboard="0"
   inkscape:deskcolor="#d1d1d1"
   inkscape:zoom="1.9957251"
   inkscape:cx="81.674574"
   inkscape:cy="167.35772"
   inkscape:window-width="1392"
   inkscape:window-height="1027"
   inkscape:window-x="2713"
   inkscape:window-y="398"
   inkscape:window-maximized="0"
   inkscape:current-layer="faceplate" />
<g
   id="faceplate">
	<rect
   id="background"
   fill="#e6e6e6"
   width="120"
   height="380"
   x="0"
   y="0"
   style="display:inline" />
	<g
   id="g5">
		<path
   fill="#1D1D1B"
   d="M27.172,79.519c-0.9,0-1.584-0.191-2.168-0.783l0.75-0.75c0.375,0.375,0.884,0.5,1.435,0.5    c0.684,0,1.05-0.259,1.05-0.734c0-0.208-0.059-0.382-0.184-0.5c-0.117-0.108-0.25-0.167-0.524-0.209l-0.717-0.1    c-0.509-0.074-0.884-0.233-1.15-0.491c-0.283-0.283-0.426-0.667-0.426-1.167c0-1.059,0.783-1.802,2.068-1.802    c0.816,0,1.408,0.201,1.917,0.692l-0.733,0.725c-0.376-0.358-0.825-0.409-1.217-0.409c-0.618,0-0.917,0.342-0.917,0.751    c0,0.15,0.049,0.308,0.175,0.424c0.116,0.109,0.308,0.201,0.55,0.234l0.7,0.1c0.542,0.076,0.884,0.226,1.134,0.458    c0.317,0.3,0.459,0.734,0.459,1.259C29.374,78.868,28.414,79.519,27.172,79.519z"
   id="path1" />
		<path
   fill="#1D1D1B"
   d="M32.768,77.234h-1.142v2.234h-1.159v-5.937h2.301c1.226,0,1.959,0.842,1.959,1.852    S33.994,77.234,32.768,77.234z M32.71,74.566h-1.084v1.625h1.084c0.526,0,0.859-0.325,0.859-0.809    C33.569,74.899,33.236,74.566,32.71,74.566z"
   id="path2" />
		<path
   fill="#1D1D1B"
   d="M35.707,79.469v-5.937h1.158v4.903h2.693v1.034H35.707z"
   id="path3" />
		<path
   fill="#1D1D1B"
   d="M40.503,79.469v-5.937h1.159v5.937H40.503z"
   id="path4" />
		<path
   fill="#1D1D1B"
   d="M45.314,74.566v4.902h-1.158v-4.902h-1.552v-1.035h4.261v1.035H45.314z"
   id="path5" />
	</g>
	<g
   id="g8">
		<path
   fill="#1D1D1B"
   d="M25.538,117.024v-5.937h3.91v1.035h-2.751v1.392h2.343v1.033h-2.343v1.443h2.751v1.033H25.538z"
   id="path6" />
		<path
   fill="#1D1D1B"
   d="M34.094,117.024l-2.351-3.643v3.643h-1.159v-5.937h1.034l2.35,3.635v-3.635h1.161v5.937H34.094z"
   id="path7" />
		<path
   fill="#1D1D1B"
   d="M38.674,117.024h-0.867l-1.959-5.937h1.201l1.191,3.87l1.193-3.87h1.208L38.674,117.024z"
   id="path8" />
	</g>
	<g
   id="g11">
		<path
   fill="#1D1D1B"
   d="M25.538,132.994v-5.937h1.159v4.903h2.693v1.034H25.538z"
   id="path9" />
		<path
   fill="#1D1D1B"
   d="M31.494,128.092v1.459h2.342v1.034h-2.342v2.41h-1.159v-5.937h3.91v1.035H31.494z"
   id="path10" />
		<path
   fill="#1D1D1B"
   d="M38.682,132.393c-0.417,0.417-0.925,0.65-1.601,0.65c-0.676,0-1.192-0.233-1.608-0.65    c-0.601-0.6-0.585-1.342-0.585-2.368s-0.016-1.767,0.585-2.367c0.417-0.417,0.932-0.651,1.608-0.651    c0.676,0,1.183,0.234,1.601,0.651c0.601,0.601,0.592,1.342,0.592,2.367S39.283,131.793,38.682,132.393z M37.823,128.358    c-0.166-0.192-0.425-0.317-0.742-0.317c-0.318,0-0.584,0.125-0.75,0.317c-0.226,0.25-0.285,0.526-0.285,1.667    c0,1.143,0.059,1.417,0.285,1.668c0.166,0.192,0.433,0.316,0.75,0.316c0.317,0,0.576-0.125,0.742-0.316    c0.225-0.25,0.292-0.525,0.292-1.668C38.115,128.884,38.048,128.608,37.823,128.358z"
   id="path11" />
	</g>
	<g
   id="g14">
		<path
   fill="#1D1D1B"
   d="M27.805,144.061v4.902h-1.158v-4.902h-1.551v-1.035h4.261v1.035H27.805z"
   id="path12" />
		<path
   fill="#1D1D1B"
   d="M33.177,148.963l-0.351-1.051h-2.109l-0.358,1.051h-1.209l2.16-5.937h0.909l2.167,5.937H33.177z     M31.793,144.778l-0.75,2.159h1.475L31.793,144.778z"
   id="path13" />
		<path
   fill="#1D1D1B"
   d="M37.424,146.729h-1.143v2.234h-1.158v-5.937h2.301c1.225,0,1.959,0.842,1.959,1.851    C39.383,145.887,38.648,146.729,37.424,146.729z M37.365,144.061h-1.084v1.625h1.084c0.526,0,0.859-0.325,0.859-0.809    C38.224,144.394,37.891,144.061,37.365,144.061z"
   id="path14" />
	</g>
	<g
   id="g18">
		<path
   fill="#1D1D1B"
   d="M29.247,164.364c-0.391,0.393-0.95,0.567-1.566,0.567h-2.144v-5.936h2.144    c0.616,0,1.175,0.175,1.566,0.567c0.667,0.667,0.6,1.484,0.6,2.376C29.847,162.831,29.915,163.698,29.247,164.364z     M28.438,160.396c-0.2-0.241-0.467-0.367-0.866-0.367h-0.876v3.869h0.876c0.399,0,0.667-0.125,0.866-0.368    c0.217-0.267,0.25-0.691,0.25-1.592C28.689,161.038,28.655,160.663,28.438,160.396z"
   id="path15" />
		<path
   fill="#1D1D1B"
   d="M34.185,164.931l-1.158-2.367h-0.833v2.367h-1.158v-5.936h2.326c1.208,0,1.926,0.826,1.926,1.817    c0,0.834-0.508,1.351-1.084,1.559l1.325,2.56H34.185z M33.286,160.029h-1.092v1.567h1.092c0.509,0,0.842-0.325,0.842-0.784    C34.127,160.354,33.795,160.029,33.286,160.029z"
   id="path16" />
		<path
   fill="#1D1D1B"
   d="M38.583,164.981c-1.218,0-2.185-0.825-2.185-2.084v-3.902h1.16v3.86c0,0.685,0.4,1.093,1.025,1.093    c0.625,0,1.035-0.408,1.035-1.093v-3.86h1.15v3.902C40.768,164.157,39.801,164.981,38.583,164.981z"
   id="path17" />
		<path
   fill="#1D1D1B"
   d="M46.28,164.931v-3.459l-1.134,2.251h-0.784l-1.142-2.251v3.459h-1.158v-5.936h1.141l1.552,3.21l1.541-3.21    h1.143v5.936H46.28z"
   id="path18" />
	</g>
	<rect
   x="6.371"
   y="350.975"
   fill="#C6C6C5"
   width="106.566"
   height="2.086"
   id="rect18" />
	<g
   id="g23">
		<path
   fill="#1D1D1B"
   d="M12.812,220.481v4.901h-1.159v-4.901h-1.552v-1.035h4.261v1.035H12.812z"
   id="path19" />
		<path
   fill="#1D1D1B"
   d="M18.458,225.383l-1.159-2.368h-0.833v2.368h-1.158v-5.937h2.325c1.21,0,1.927,0.826,1.927,1.818    c0,0.833-0.508,1.351-1.083,1.559l1.326,2.56H18.458z M17.557,220.481h-1.091v1.566h1.091c0.509,0,0.844-0.325,0.844-0.783    C18.4,220.806,18.066,220.481,17.557,220.481z"
   id="path20" />
		<path
   fill="#1D1D1B"
   d="M20.763,225.383v-5.937h1.159v5.937H20.763z"
   id="path21" />
		<path
   fill="#1D1D1B"
   d="M26.966,224.758c-0.458,0.466-1.011,0.675-1.676,0.675c-0.633,0-1.167-0.218-1.601-0.65    c-0.258-0.259-0.417-0.559-0.484-0.893c-0.065-0.333-0.1-0.825-0.1-1.475c0-0.651,0.035-1.143,0.1-1.477    c0.067-0.342,0.227-0.633,0.484-0.892c0.434-0.434,0.968-0.649,1.601-0.649c1.35,0,2.076,0.866,2.234,1.899h-1.167    c-0.143-0.574-0.493-0.867-1.067-0.867c-0.31,0-0.558,0.109-0.741,0.318c-0.218,0.273-0.286,0.491-0.286,1.667    c0,1.167,0.051,1.4,0.286,1.676c0.173,0.209,0.424,0.309,0.741,0.309c0.343,0,0.617-0.108,0.824-0.334    c0.175-0.2,0.267-0.467,0.267-0.793v-0.225H25.29v-0.967h2.243v0.866C27.533,223.815,27.374,224.324,26.966,224.758z"
   id="path22" />
		<path
   fill="#1D1D1B"
   d="M29.994,225.383v-4.769l-1.209,1.05v-1.167l1.209-1.051h1.084v5.937H29.994z"
   id="path23" />
	</g>
	<g
   id="g24">
		<path
   fill="#1D1D1B"
   d="M81.617,44.058V40.17h-0.516c-0.206,0-0.397-0.023-0.573-0.069c-0.177-0.046-0.34-0.125-0.493-0.237    c-0.154-0.111-0.267-0.234-0.34-0.369c-0.071-0.134-0.108-0.275-0.108-0.421c0-0.13,0.037-0.259,0.108-0.386    c0.073-0.127,0.182-0.244,0.322-0.352c0.143-0.107,0.304-0.188,0.488-0.243c0.099-0.023,0.194-0.042,0.286-0.058    c0.091-0.015,0.195-0.023,0.31-0.023c0.136,0,0.236,0.004,0.297,0.011c0.062,0.008,0.167,0.035,0.322,0.081    c0.152,0.046,0.298,0.117,0.436,0.213c0.137,0.096,0.245,0.209,0.32,0.339c0.077,0.13,0.116,0.269,0.116,0.415v4.985H81.617z     M81.617,38.716l-0.047-0.035l-0.035-0.035l-0.218-0.036h-0.184h-0.342l-0.127,0.036l-0.045,0.071v0.668l0.035,0.083l0.105,0.048    h0.353h0.198h0.259l0.047-0.023v-0.059V38.716z"
   id="path24" />
	</g>
	<g
   id="g25">
		<path
   fill="#1D1D1B"
   d="M83.155,107.067c-0.092,0.115-0.225,0.219-0.396,0.311c-0.173,0.091-0.369,0.165-0.587,0.218    s-0.456,0.081-0.715,0.081l1.153,1.59l-0.72,0.478l-1.765-2.319l0.585-0.551l0.905,0.195h0.321    c0.114-0.015,0.206-0.037,0.275-0.063s0.118-0.056,0.148-0.087l0.069-0.151v-2.311c-0.022-0.054-0.043-0.089-0.057-0.104    c-0.039-0.039-0.092-0.073-0.161-0.104l-0.058-0.012l-0.057-0.023h-0.057l-0.06-0.023h-0.148h-0.149c-0.145,0-0.248,0-0.31,0    c-0.083,0-0.158,0.014-0.224,0.042c-0.063,0.027-0.116,0.06-0.153,0.099l-0.047,0.142v1.083H80.08v-1.073    c0-0.124,0.041-0.238,0.12-0.346c0.082-0.107,0.198-0.209,0.351-0.305c0.153-0.097,0.3-0.162,0.442-0.197    c0.141-0.035,0.261-0.06,0.36-0.075c0.099-0.016,0.206-0.023,0.32-0.023c0.222,0,0.43,0.023,0.621,0.068    c0.189,0.046,0.365,0.115,0.521,0.208c0.157,0.092,0.273,0.196,0.351,0.311c0.037,0.054,0.067,0.111,0.09,0.172    s0.035,0.126,0.035,0.195v2.15C83.292,106.788,83.245,106.93,83.155,107.067z"
   id="path25" />
	</g>
	<g
   id="g26">
		<path
   fill="#1D1D1B"
   d="M82.69,171.734c-0.069,0.107-0.177,0.21-0.322,0.31c-0.038,0.023-0.094,0.054-0.167,0.092    s-0.177,0.084-0.315,0.138c-0.178,0.045-0.369,0.068-0.574,0.068l0.99,1.12l-0.701,0.458l-1.868-2.05l0.55-0.573l0.471,0.39h0.503    h0.069h0.069h0.058h0.069h0.102l0.104-0.035l0.139-0.083c0.037-0.023,0.062-0.059,0.067-0.105v-0.998l-0.067-0.105    c-0.03-0.047-0.092-0.086-0.186-0.117l-0.297-0.059l-0.285-0.023h-0.645v-0.55h0.645h0.319c0.114-0.015,0.208-0.036,0.281-0.063    c0.073-0.026,0.128-0.059,0.167-0.097c0.037-0.038,0.062-0.084,0.067-0.138v-1.032l-0.057-0.058l-0.149-0.058l-0.527-0.069    c-0.145,0-0.249,0-0.31,0l-0.229,0.069c-0.069,0-0.122,0.016-0.161,0.046l-0.047,0.08v0.838h-0.859v-0.728    c0-0.124,0.036-0.239,0.107-0.347c0.073-0.107,0.188-0.209,0.345-0.306c0.157-0.096,0.31-0.161,0.454-0.196    s0.268-0.06,0.367-0.076c0.1-0.015,0.205-0.023,0.319-0.023c0.223,0,0.431,0.023,0.62,0.069c0.191,0.046,0.366,0.115,0.523,0.208    c0.156,0.092,0.272,0.2,0.349,0.322c0.077,0.123,0.116,0.242,0.116,0.357v0.887c0,0.116-0.025,0.223-0.076,0.323    c-0.049,0.1-0.132,0.196-0.246,0.289c0.107,0.069,0.184,0.151,0.23,0.247c0.045,0.096,0.075,0.205,0.092,0.327v0.884    C82.795,171.481,82.76,171.604,82.69,171.734z"
   id="path26" />
	</g>
	<g
   id="g27">
		<path
   fill="#1D1D1B"
   d="M83.022,235.047c-0.03,0.061-0.087,0.148-0.171,0.262l-0.287,0.241l-0.379,0.218    c0.229,0.161,0.405,0.329,0.527,0.506c0.039,0.054,0.079,0.122,0.12,0.206c0.043,0.084,0.063,0.18,0.063,0.287v0.436    c0,0.153-0.024,0.294-0.073,0.424c-0.051,0.131-0.129,0.249-0.236,0.355c-0.108,0.107-0.229,0.188-0.361,0.241    c-0.134,0.054-0.267,0.08-0.396,0.08h-0.905c-0.13,0-0.263-0.024-0.396-0.074c-0.134-0.05-0.25-0.125-0.35-0.225    c-0.054-0.061-0.09-0.106-0.11-0.138c-0.019-0.03-0.06-0.1-0.12-0.208c-0.045-0.13-0.069-0.274-0.069-0.435v-0.438    c0-0.092,0.01-0.172,0.03-0.241c0.019-0.069,0.06-0.149,0.12-0.241l0.218-0.254c0.084-0.092,0.188-0.184,0.311-0.274    c-0.306-0.139-0.534-0.292-0.683-0.461c-0.151-0.167-0.225-0.335-0.225-0.504v-2.553h0.907v2.444l0.034,0.148l0.171,0.173    l0.266,0.194l0.354,0.206l0.606-0.377l0.174-0.15l0.069-0.126v-2.513h0.859v2.536C83.092,234.87,83.069,234.955,83.022,235.047z     M81.989,236.661l-0.047-0.117c-0.022-0.054-0.064-0.104-0.126-0.151l-0.081-0.069l-0.104-0.094l-0.081-0.059l-0.082-0.058    l-0.047-0.035l-0.034-0.034c-0.161,0.093-0.289,0.197-0.381,0.313c-0.062,0.086-0.101,0.19-0.116,0.314v0.896    c0.03,0.038,0.057,0.062,0.079,0.07h0.23h0.191h0.336c0.096,0,0.159-0.008,0.191-0.023c0.033-0.016,0.056-0.035,0.071-0.059    v-0.081V236.661z"
   id="path27" />
	</g>
	<g
   id="g32">
		<path
   fill="#1D1D1B"
   d="M12.812,306.57v4.901h-1.159v-4.901h-1.551v-1.034h4.26v1.034H12.812z"
   id="path28" />
		<path
   fill="#1D1D1B"
   d="M18.458,311.472l-1.159-2.366h-0.833v2.366h-1.159v-5.936h2.325c1.209,0,1.925,0.826,1.925,1.817    c0,0.834-0.507,1.351-1.083,1.56l1.326,2.559H18.458z M17.558,306.57h-1.091v1.567h1.091c0.509,0,0.843-0.325,0.843-0.784    C18.4,306.896,18.067,306.57,17.558,306.57z"
   id="path29" />
		<path
   fill="#1D1D1B"
   d="M20.763,311.472v-5.936h1.159v5.936H20.763z"
   id="path30" />
		<path
   fill="#1D1D1B"
   d="M26.966,310.847c-0.458,0.467-1.01,0.676-1.676,0.676c-0.633,0-1.167-0.218-1.601-0.65    c-0.258-0.259-0.416-0.559-0.483-0.892c-0.066-0.334-0.1-0.825-0.1-1.476c0-0.651,0.034-1.144,0.1-1.477    c0.067-0.341,0.225-0.634,0.483-0.893c0.434-0.434,0.968-0.649,1.601-0.649c1.351,0,2.077,0.868,2.234,1.9h-1.167    c-0.142-0.574-0.492-0.866-1.067-0.866c-0.309,0-0.558,0.108-0.741,0.316c-0.217,0.274-0.285,0.492-0.285,1.668    c0,1.167,0.05,1.4,0.285,1.676c0.174,0.208,0.425,0.308,0.741,0.308c0.343,0,0.617-0.107,0.826-0.333    c0.175-0.2,0.267-0.468,0.267-0.793v-0.224H25.29v-0.968h2.244v0.868C27.534,309.905,27.375,310.413,26.966,310.847z"
   id="path31" />
		<path
   fill="#1D1D1B"
   d="M28.419,311.472v-0.976l2.218-2.576c0.217-0.258,0.309-0.442,0.309-0.717c0-0.441-0.258-0.741-0.717-0.741    c-0.359,0-0.726,0.184-0.726,0.758h-1.084c0-1.084,0.792-1.733,1.81-1.733c1.05,0,1.8,0.658,1.8,1.725    c0,0.577-0.224,0.885-0.632,1.361l-1.659,1.924h2.291v0.976H28.419z"
   id="path32" />
	</g>
	<g
   id="g34">
		<path
   fill="#6F6F6E"
   d="M56.897,306.521c-0.318,0-0.583,0.124-0.751,0.316c-0.224,0.25-0.283,0.524-0.283,1.667    c0,1.142,0.059,1.417,0.283,1.668c0.167,0.191,0.433,0.316,0.751,0.316c0.316,0,0.575-0.125,0.742-0.316    c0.225-0.251,0.292-0.526,0.292-1.668c0-1.143-0.066-1.417-0.292-1.667C57.472,306.645,57.213,306.521,56.897,306.521z"
   id="path33" />
		<path
   fill="#6F6F6E"
   d="M76.055,301.583H52.607c-1.626,0-2.956,1.331-2.956,2.957v37.306c0,1.626,1.33,2.955,2.956,2.955h23.448    c1.626,0,2.956-1.329,2.956-2.955V304.54C79.011,302.914,77.681,301.583,76.055,301.583z M58.499,310.871    c-0.417,0.417-0.927,0.65-1.602,0.65c-0.675,0-1.193-0.233-1.61-0.65c-0.6-0.6-0.583-1.343-0.583-2.367    c0-1.026-0.016-1.767,0.583-2.368c0.417-0.416,0.935-0.65,1.61-0.65c0.674,0,1.184,0.234,1.602,0.65    c0.599,0.602,0.59,1.342,0.59,2.368C59.089,309.528,59.097,310.271,58.499,310.871z M64.554,309.438    c0,1.26-0.968,2.084-2.185,2.084c-1.218,0-2.184-0.824-2.184-2.084v-3.902h1.158v3.86c0,0.685,0.401,1.093,1.026,1.093    c0.624,0,1.033-0.408,1.033-1.093v-3.86h1.151V309.438z M69.666,306.57h-1.548v4.901h-1.159v-4.901h-1.553v-1.035h4.26V306.57z     M73.071,311.472h-1.084v-4.768l-1.208,1.049v-1.166l1.208-1.052h1.084V311.472z"
   id="path34" />
	</g>
	<g
   id="g36">
		<path
   fill="#6F6F6E"
   d="M90.698,306.521c-0.318,0-0.585,0.124-0.752,0.316c-0.224,0.25-0.283,0.524-0.283,1.667    c0,1.142,0.06,1.417,0.283,1.668c0.167,0.191,0.434,0.316,0.752,0.316c0.315,0,0.574-0.125,0.741-0.316    c0.225-0.251,0.292-0.526,0.292-1.668c0-1.143-0.067-1.417-0.292-1.667C91.272,306.645,91.014,306.521,90.698,306.521z"
   id="path35" />
		<path
   fill="#6F6F6E"
   d="M109.855,301.583H86.407c-1.626,0-2.957,1.331-2.957,2.957v37.306c0,1.626,1.331,2.955,2.957,2.955h23.448    c1.626,0,2.956-1.329,2.956-2.955V304.54C112.812,302.914,111.481,301.583,109.855,301.583z M92.298,310.871    c-0.416,0.417-0.925,0.65-1.6,0.65c-0.677,0-1.194-0.233-1.609-0.65c-0.602-0.6-0.583-1.343-0.583-2.367    c0-1.026-0.019-1.767,0.583-2.368c0.415-0.416,0.933-0.65,1.609-0.65c0.675,0,1.184,0.234,1.6,0.65    c0.601,0.602,0.593,1.342,0.593,2.368C92.891,309.528,92.898,310.271,92.298,310.871z M98.354,309.438    c0,1.26-0.966,2.084-2.185,2.084c-1.217,0-2.185-0.824-2.185-2.084v-3.902h1.16v3.86c0,0.685,0.399,1.093,1.024,1.093    c0.626,0,1.035-0.408,1.035-1.093v-3.86h1.149V309.438z M103.468,306.57h-1.551v4.901h-1.159v-4.901h-1.551v-1.035h4.261V306.57z     M107.822,310.496v0.976h-3.611v-0.976l2.22-2.576c0.216-0.259,0.308-0.442,0.308-0.717c0-0.441-0.259-0.742-0.718-0.742    c-0.356,0-0.724,0.184-0.724,0.758h-1.086c0-1.083,0.793-1.733,1.81-1.733c1.052,0,1.802,0.659,1.802,1.726    c0,0.576-0.225,0.885-0.634,1.36l-1.659,1.925H107.822z"
   id="path36" />
	</g>
	<g
   id="g150">
		<defs
   id="defs36">
			<rect
   id="SVGID_1_"
   y="15.522"
   width="119.022"
   height="19.009" />
		</defs>
		<clipPath
   id="SVGID_2_">
			<use
   xlink:href="#SVGID_1_"
   overflow="visible"
   id="use36" />
		</clipPath>
		
		<g
   clip-path="url(#SVGID_2_)"
   id="g149">
			<g
   id="g147">
				
				<rect
   x="0.064999998"
   y="23.841"
   fill="#c6c6c5"
   width="119.46708"
   height="1.043"
   id="rect146"
   style="stroke-width:0.753062" />
			</g>
			<g
   id="g148"
   transform="matrix(0.56948168,0,0,1,0.02798369,0)">
				
				<rect
   x="0.064999998"
   y="31.541"
   fill="#c6c6c5"
   width="210.662"
   height="1.043"
   id="rect147" />
			</g>
		</g>
	</g>
	
	<g
   id="g233">
		<path
   fill="#1D1D1B"
   d="M44.368,16.54c0,0.4-0.038,0.785-0.114,1.155c-0.077,0.37-0.238,0.682-0.485,0.935    c-0.134,0.134-0.304,0.239-0.51,0.315c-0.207,0.077-0.437,0.115-0.69,0.115c-0.273,0-0.521-0.043-0.745-0.13    c-0.223-0.087-0.438-0.257-0.645-0.51v2.78h-0.72v-7.12h0.72v0.58c0.206-0.253,0.42-0.423,0.64-0.51    c0.221-0.086,0.471-0.13,0.75-0.13c0.254,0,0.483,0.039,0.69,0.115c0.206,0.077,0.376,0.182,0.51,0.315    c0.12,0.12,0.22,0.26,0.3,0.42c0.08,0.16,0.142,0.33,0.186,0.51c0.043,0.18,0.073,0.369,0.09,0.565    C44.36,16.142,44.368,16.34,44.368,16.54z M43.648,16.54c0-0.24-0.014-0.473-0.04-0.7c-0.026-0.227-0.083-0.426-0.17-0.6    s-0.212-0.313-0.375-0.42c-0.163-0.106-0.378-0.16-0.645-0.16c-0.273,0-0.49,0.053-0.65,0.16c-0.16,0.107-0.285,0.247-0.375,0.42    s-0.148,0.373-0.175,0.6c-0.027,0.227-0.04,0.46-0.04,0.7c0,0.24,0.013,0.474,0.04,0.7c0.026,0.227,0.085,0.426,0.175,0.6    c0.09,0.174,0.215,0.313,0.375,0.42c0.16,0.107,0.377,0.16,0.65,0.16c0.267,0,0.481-0.053,0.645-0.16    c0.163-0.106,0.288-0.246,0.375-0.42c0.087-0.173,0.144-0.373,0.17-0.6S43.648,16.78,43.648,16.54z"
   id="path219" />
		<path
   fill="#1D1D1B"
   d="M46.358,16.73c0,0.54,0.122,0.958,0.365,1.255c0.243,0.297,0.605,0.445,1.085,0.445    c0.287,0,0.525-0.045,0.715-0.135c0.19-0.09,0.382-0.231,0.575-0.425l0.49,0.43c-0.127,0.127-0.252,0.237-0.375,0.33    c-0.123,0.094-0.257,0.172-0.4,0.235c-0.144,0.063-0.298,0.111-0.465,0.145c-0.167,0.034-0.354,0.05-0.56,0.05    c-0.327,0-0.624-0.05-0.891-0.15c-0.267-0.1-0.493-0.253-0.68-0.46s-0.33-0.468-0.43-0.785c-0.101-0.316-0.15-0.691-0.15-1.125    c0-0.807,0.18-1.428,0.54-1.865c0.36-0.437,0.854-0.655,1.48-0.655c0.646,0,1.145,0.212,1.494,0.635    c0.351,0.424,0.525,1.009,0.525,1.755v0.32H46.358z M48.969,16.19c-0.007-0.1-0.014-0.187-0.02-0.26    c-0.007-0.073-0.016-0.14-0.025-0.2s-0.025-0.118-0.045-0.175c-0.021-0.057-0.044-0.119-0.07-0.185    c-0.106-0.227-0.258-0.407-0.455-0.54c-0.196-0.133-0.428-0.2-0.694-0.2c-0.268,0-0.499,0.067-0.695,0.2    c-0.197,0.133-0.349,0.313-0.455,0.54c-0.033,0.066-0.059,0.128-0.075,0.185s-0.03,0.115-0.04,0.175s-0.017,0.127-0.02,0.2    c-0.004,0.073-0.009,0.16-0.016,0.26H48.969z"
   id="path220" />
		<path
   fill="#1D1D1B"
   d="M53.959,15.02c-0.134-0.133-0.261-0.227-0.381-0.28c-0.119-0.054-0.276-0.08-0.47-0.08    c-0.18,0-0.343,0.033-0.49,0.1c-0.146,0.067-0.27,0.16-0.369,0.28c-0.101,0.12-0.179,0.26-0.235,0.42s-0.085,0.333-0.085,0.52V19    h-0.72v-4.92h0.72v0.6c0.133-0.207,0.325-0.369,0.575-0.485c0.25-0.116,0.518-0.175,0.805-0.175c0.233,0,0.445,0.033,0.635,0.1    c0.19,0.066,0.372,0.187,0.545,0.36L53.959,15.02z"
   id="path221" />
		<path
   fill="#1D1D1B"
   d="M58.648,18.33c-0.253,0.273-0.501,0.463-0.745,0.57c-0.243,0.106-0.534,0.16-0.875,0.16    c-0.313,0-0.602-0.052-0.864-0.155c-0.264-0.103-0.494-0.26-0.69-0.47s-0.35-0.473-0.46-0.79c-0.11-0.316-0.165-0.685-0.165-1.105    s0.055-0.787,0.165-1.1c0.11-0.313,0.264-0.575,0.46-0.785c0.196-0.21,0.427-0.368,0.69-0.475c0.263-0.107,0.551-0.16,0.864-0.16    c0.341,0,0.632,0.053,0.875,0.16c0.244,0.106,0.492,0.296,0.745,0.57l-0.489,0.46c-0.188-0.207-0.364-0.35-0.53-0.43    c-0.167-0.08-0.367-0.12-0.601-0.12c-0.239,0-0.456,0.046-0.649,0.14c-0.193,0.094-0.356,0.233-0.49,0.42    c-0.113,0.16-0.195,0.341-0.245,0.545c-0.05,0.203-0.075,0.461-0.075,0.775s0.025,0.572,0.075,0.775    c0.05,0.204,0.132,0.385,0.245,0.545c0.134,0.187,0.297,0.327,0.49,0.42c0.193,0.094,0.41,0.14,0.649,0.14    c0.233,0,0.434-0.042,0.601-0.125c0.166-0.083,0.343-0.228,0.53-0.435L58.648,18.33z"
   id="path222" />
		<path
   fill="#1D1D1B"
   d="M63.128,19v-0.55c-0.173,0.2-0.378,0.352-0.615,0.455c-0.236,0.104-0.494,0.155-0.774,0.155    c-0.54,0-0.964-0.153-1.271-0.46c-0.173-0.173-0.3-0.375-0.38-0.605s-0.12-0.488-0.12-0.775v-3.14h0.721v3.03    c0,0.44,0.106,0.769,0.319,0.985c0.214,0.216,0.507,0.325,0.88,0.325c0.374,0,0.672-0.11,0.896-0.33    c0.224-0.22,0.335-0.546,0.335-0.98v-3.03h0.72V19H63.128z"
   id="path223" />
		<path
   fill="#1D1D1B"
   d="M69.188,17.56c0,0.473-0.184,0.842-0.55,1.105c-0.367,0.263-0.851,0.395-1.45,0.395    c-0.42,0-0.795-0.054-1.125-0.16s-0.629-0.29-0.896-0.55l0.48-0.48c0.193,0.2,0.42,0.345,0.68,0.435    c0.26,0.09,0.543,0.135,0.851,0.135c0.413,0,0.734-0.071,0.965-0.215c0.229-0.144,0.345-0.362,0.345-0.655    c0-0.22-0.063-0.388-0.19-0.505c-0.126-0.117-0.336-0.188-0.63-0.215l-0.81-0.07c-0.48-0.04-0.845-0.167-1.095-0.38    s-0.375-0.526-0.375-0.94c0-0.227,0.045-0.428,0.135-0.605s0.215-0.327,0.375-0.45c0.16-0.123,0.35-0.218,0.57-0.285    c0.22-0.067,0.463-0.1,0.729-0.1c0.36,0,0.688,0.043,0.985,0.13c0.296,0.087,0.558,0.22,0.785,0.4l-0.471,0.47    c-0.173-0.133-0.371-0.231-0.595-0.295s-0.462-0.095-0.715-0.095c-0.36,0-0.634,0.072-0.82,0.215    c-0.187,0.143-0.28,0.341-0.28,0.595c0,0.22,0.07,0.387,0.21,0.5c0.141,0.113,0.363,0.187,0.671,0.22l0.77,0.07    c0.213,0.02,0.41,0.057,0.59,0.11c0.18,0.054,0.333,0.132,0.46,0.235c0.127,0.103,0.226,0.235,0.295,0.395    C69.153,17.13,69.188,17.327,69.188,17.56z"
   id="path224" />
		<path
   fill="#1D1D1B"
   d="M74.148,17.56c0,0.473-0.184,0.842-0.55,1.105c-0.367,0.263-0.851,0.395-1.45,0.395    c-0.42,0-0.795-0.054-1.125-0.16s-0.629-0.29-0.896-0.55l0.48-0.48c0.193,0.2,0.42,0.345,0.68,0.435    c0.26,0.09,0.543,0.135,0.851,0.135c0.413,0,0.734-0.071,0.965-0.215c0.229-0.144,0.345-0.362,0.345-0.655    c0-0.22-0.063-0.388-0.19-0.505c-0.126-0.117-0.336-0.188-0.63-0.215l-0.81-0.07c-0.48-0.04-0.845-0.167-1.095-0.38    s-0.375-0.526-0.375-0.94c0-0.227,0.045-0.428,0.135-0.605s0.215-0.327,0.375-0.45c0.16-0.123,0.35-0.218,0.57-0.285    c0.22-0.067,0.463-0.1,0.729-0.1c0.36,0,0.688,0.043,0.985,0.13c0.296,0.087,0.558,0.22,0.785,0.4l-0.471,0.47    c-0.173-0.133-0.371-0.231-0.595-0.295s-0.462-0.095-0.715-0.095c-0.36,0-0.634,0.072-0.82,0.215    c-0.187,0.143-0.28,0.341-0.28,0.595c0,0.22,0.07,0.387,0.21,0.5c0.141,0.113,0.363,0.187,0.671,0.22l0.77,0.07    c0.213,0.02,0.41,0.057,0.59,0.11c0.18,0.054,0.333,0.132,0.46,0.235c0.127,0.103,0.226,0.235,0.295,0.395    C74.113,17.13,74.148,17.327,74.148,17.56z"
   id="path225" />
		<path
   fill="#1D1D1B"
   d="M75.519,12.68v-0.81h0.81v0.81H75.519z M75.559,19v-4.92h0.72V19H75.559z"
   id="path226" />
		<path
   fill="#1D1D1B"
   d="M79.728,19h-0.64l-1.8-4.92h0.779l1.341,3.95l1.35-3.95h0.78L79.728,19z"
   id="path227" />
		<path
   fill="#1D1D1B"
   d="M82.998,16.73c0,0.54,0.122,0.958,0.365,1.255c0.243,0.297,0.605,0.445,1.085,0.445    c0.287,0,0.525-0.045,0.715-0.135c0.19-0.09,0.382-0.231,0.575-0.425l0.49,0.43c-0.127,0.127-0.252,0.237-0.375,0.33    c-0.123,0.094-0.257,0.172-0.4,0.235c-0.144,0.063-0.298,0.111-0.465,0.145c-0.167,0.034-0.354,0.05-0.56,0.05    c-0.327,0-0.624-0.05-0.891-0.15c-0.267-0.1-0.493-0.253-0.68-0.46s-0.33-0.468-0.43-0.785c-0.101-0.316-0.15-0.691-0.15-1.125    c0-0.807,0.18-1.428,0.54-1.865c0.36-0.437,0.854-0.655,1.48-0.655c0.646,0,1.145,0.212,1.494,0.635    c0.351,0.424,0.525,1.009,0.525,1.755v0.32H82.998z M85.608,16.19c-0.007-0.1-0.014-0.187-0.02-0.26    c-0.007-0.073-0.016-0.14-0.025-0.2s-0.025-0.118-0.045-0.175c-0.021-0.057-0.044-0.119-0.07-0.185    c-0.106-0.227-0.258-0.407-0.455-0.54c-0.196-0.133-0.428-0.2-0.694-0.2c-0.268,0-0.499,0.067-0.695,0.2    c-0.197,0.133-0.349,0.313-0.455,0.54c-0.033,0.066-0.059,0.128-0.075,0.185s-0.03,0.115-0.04,0.175s-0.017,0.127-0.02,0.2    c-0.004,0.073-0.009,0.16-0.016,0.26H85.608z"
   id="path228" />
		<path
   fill="#1D1D1B"
   d="M93.888,17.56c0,0.473-0.184,0.842-0.55,1.105c-0.367,0.263-0.851,0.395-1.45,0.395    c-0.42,0-0.795-0.054-1.125-0.16s-0.629-0.29-0.896-0.55l0.48-0.48c0.193,0.2,0.42,0.345,0.68,0.435    c0.26,0.09,0.543,0.135,0.851,0.135c0.413,0,0.734-0.071,0.965-0.215c0.229-0.144,0.345-0.362,0.345-0.655    c0-0.22-0.063-0.388-0.19-0.505c-0.126-0.117-0.336-0.188-0.63-0.215l-0.81-0.07c-0.48-0.04-0.845-0.167-1.095-0.38    s-0.375-0.526-0.375-0.94c0-0.227,0.045-0.428,0.135-0.605s0.215-0.327,0.375-0.45c0.16-0.123,0.35-0.218,0.57-0.285    c0.22-0.067,0.463-0.1,0.729-0.1c0.36,0,0.688,0.043,0.985,0.13c0.296,0.087,0.558,0.22,0.785,0.4l-0.471,0.47    c-0.173-0.133-0.371-0.231-0.595-0.295s-0.462-0.095-0.715-0.095c-0.36,0-0.634,0.072-0.82,0.215    c-0.187,0.143-0.28,0.341-0.28,0.595c0,0.22,0.07,0.387,0.21,0.5c0.141,0.113,0.363,0.187,0.671,0.22l0.77,0.07    c0.213,0.02,0.41,0.057,0.59,0.11c0.18,0.054,0.333,0.132,0.46,0.235c0.127,0.103,0.226,0.235,0.295,0.395    C93.853,17.13,93.888,17.327,93.888,17.56z"
   id="path229" />
		<path
   fill="#1D1D1B"
   d="M96.518,20.19c-0.094,0.26-0.21,0.453-0.351,0.58c-0.133,0.126-0.283,0.215-0.449,0.265    c-0.167,0.05-0.337,0.075-0.511,0.075h-0.31v-0.64h0.22c0.247,0,0.424-0.045,0.53-0.135s0.2-0.249,0.28-0.475l0.35-0.96    l-1.77-4.82h0.779l1.351,3.95l1.34-3.95h0.78L96.518,20.19z"
   id="path230" />
		<path
   fill="#1D1D1B"
   d="M102.918,19v-3.03c0-0.44-0.108-0.769-0.325-0.985c-0.217-0.216-0.512-0.325-0.885-0.325    s-0.67,0.11-0.89,0.33c-0.22,0.22-0.33,0.546-0.33,0.98V19h-0.72v-4.92h0.72v0.54c0.173-0.2,0.376-0.35,0.61-0.45    c0.232-0.1,0.489-0.15,0.77-0.15c0.533,0,0.953,0.153,1.26,0.46c0.34,0.333,0.51,0.79,0.51,1.37V19H102.918z"
   id="path231" />
		<path
   fill="#1D1D1B"
   d="M106.768,19c-0.214,0-0.398-0.035-0.556-0.105c-0.156-0.07-0.286-0.165-0.39-0.285    c-0.104-0.12-0.182-0.26-0.235-0.42c-0.053-0.16-0.08-0.33-0.08-0.51v-3.05h-0.619v-0.55h0.619v-1.51h0.721v1.51h1.05v0.55h-1.05    v3.03c0,0.227,0.053,0.403,0.16,0.53c0.106,0.127,0.276,0.19,0.51,0.19h0.38V19H106.768z"
   id="path232" />
		<path
   fill="#1D1D1B"
   d="M111.857,19v-3.04c0-0.44-0.104-0.767-0.314-0.98s-0.505-0.32-0.886-0.32c-0.38,0-0.68,0.106-0.899,0.32    s-0.33,0.54-0.33,0.98V19h-0.72v-7.12h0.72v2.74c0.36-0.4,0.82-0.6,1.38-0.6c0.566,0,1.003,0.164,1.31,0.49    c0.307,0.327,0.46,0.77,0.46,1.33V19H111.857z"
   id="path233" />
	</g>
</g>
<g
   id="decoupe"
   display="none">
	<g
   display="inline"
   id="g252">
		
			<path
   fill="none"
   stroke="#E20613"
   stroke-width="0.2833"
   stroke-linecap="round"
   stroke-linejoin="round"
   stroke-miterlimit="10"
   d="    M17.512,371.129c0,2.612,2.118,4.73,4.731,4.73s4.733-2.118,4.733-4.73s-2.12-4.73-4.733-4.73S17.512,368.517,17.512,371.129"
   id="path234" />
		
			<path
   fill="none"
   stroke="#E20613"
   stroke-width="0.2833"
   stroke-linecap="round"
   stroke-linejoin="round"
   stroke-miterlimit="10"
   d="    M17.512,8.872c0,2.613,2.118,4.732,4.731,4.732s4.733-2.119,4.733-4.732s-2.12-4.731-4.733-4.731S17.512,6.258,17.512,8.872"
   id="path235" />
		
			<rect
   x="0.065"
   fill="none"
   stroke="#E20613"
   stroke-width="0.2833"
   stroke-linecap="round"
   stroke-linejoin="round"
   stroke-miterlimit="10"
   width="119.175"
   height="380"
   id="rect235" />
		
			<path
   fill="none"
   stroke="#E20613"
   stroke-width="0.2833"
   stroke-linecap="round"
   stroke-linejoin="round"
   stroke-miterlimit="10"
   d="    M11.84,328.544c0,5.146,4.169,9.316,9.316,9.316c5.144,0,9.314-4.171,9.314-9.316c0-5.144-4.171-9.314-9.314-9.314    C16.009,319.229,11.84,323.4,11.84,328.544"
   id="path236" />
		
			<path
   fill="none"
   stroke="#E20613"
   stroke-width="0.2833"
   stroke-linecap="round"
   stroke-linejoin="round"
   stroke-miterlimit="10"
   d="    M55.015,328.544c0,5.146,4.169,9.316,9.317,9.316c5.143,0,9.313-4.171,9.313-9.316c0-5.144-4.171-9.314-9.313-9.314    C59.185,319.229,55.015,323.4,55.015,328.544"
   id="path237" />
		
			<path
   fill="none"
   stroke="#E20613"
   stroke-width="0.2833"
   stroke-linecap="round"
   stroke-linejoin="round"
   stroke-miterlimit="10"
   d="    M88.817,328.544c0,5.146,4.169,9.316,9.313,9.316c5.146,0,9.316-4.171,9.316-9.316c0-5.144-4.171-9.314-9.316-9.314    C92.986,319.229,88.817,323.4,88.817,328.544"
   id="path238" />
		
			<path
   fill="none"
   stroke="#E20613"
   stroke-width="0.2833"
   stroke-linecap="round"
   stroke-linejoin="round"
   stroke-miterlimit="10"
   d="    M70.155,264.698c0,6.126,4.966,11.092,11.089,11.092c6.127,0,11.09-4.966,11.09-11.092c0-6.124-4.963-11.089-11.09-11.089    C75.121,253.609,70.155,258.574,70.155,264.698"
   id="path239" />
		
			<path
   fill="none"
   stroke="#E20613"
   stroke-width="0.2833"
   stroke-linecap="round"
   stroke-linejoin="round"
   stroke-miterlimit="10"
   d="    M70.155,199.907c0,6.124,4.966,11.089,11.089,11.089c6.127,0,11.09-4.965,11.09-11.089c0-6.126-4.963-11.09-11.09-11.09    C75.121,188.817,70.155,193.781,70.155,199.907"
   id="path240" />
		
			<path
   fill="none"
   stroke="#E20613"
   stroke-width="0.2833"
   stroke-linecap="round"
   stroke-linejoin="round"
   stroke-miterlimit="10"
   d="    M70.155,135.114c0,6.125,4.966,11.09,11.089,11.09c6.127,0,11.09-4.965,11.09-11.09c0-6.125-4.963-11.09-11.09-11.09    C75.121,124.024,70.155,128.99,70.155,135.114"
   id="path241" />
		
			<path
   fill="none"
   stroke="#E20613"
   stroke-width="0.2833"
   stroke-linecap="round"
   stroke-linejoin="round"
   stroke-miterlimit="10"
   d="    M70.155,70.323c0,6.124,4.966,11.089,11.089,11.089c6.127,0,11.09-4.965,11.09-11.089c0-6.125-4.963-11.09-11.09-11.09    C75.121,59.232,70.155,64.198,70.155,70.323"
   id="path242" />
		
			<path
   fill="none"
   stroke="#E20613"
   stroke-width="0.2833"
   stroke-linecap="round"
   stroke-linejoin="round"
   stroke-miterlimit="10"
   d="    M11.84,242.166c0,5.143,4.17,9.313,9.316,9.313c5.143,0,9.313-4.171,9.313-9.313c0-5.146-4.171-9.316-9.313-9.316    C16.01,232.85,11.84,237.021,11.84,242.166"
   id="path243" />
		
			<path
   fill="none"
   stroke="#E20613"
   stroke-width="0.2833"
   stroke-linecap="round"
   stroke-linejoin="round"
   stroke-miterlimit="10"
   d="    M8.734,286.286c0,6.858,5.562,12.421,12.422,12.421c6.857,0,12.419-5.562,12.419-12.421c0-6.857-5.562-12.42-12.419-12.42    C14.296,273.866,8.734,279.429,8.734,286.286"
   id="path244" />
		
			<path
   fill="none"
   stroke="#E20613"
   stroke-width="0.2833"
   stroke-linecap="round"
   stroke-linejoin="round"
   stroke-miterlimit="10"
   d="    M9.326,199.907c0,6.532,5.295,11.827,11.83,11.827c6.532,0,11.828-5.295,11.828-11.827c0-6.533-5.295-11.83-11.828-11.83    C14.622,188.078,9.326,193.374,9.326,199.907"
   id="path245" />
		
			<path
   fill="none"
   stroke="#E20613"
   stroke-width="0.2833"
   stroke-linecap="round"
   stroke-linejoin="round"
   stroke-miterlimit="10"
   d="    M10.922,162.35c0,2.531,2.053,4.583,4.583,4.583c2.532,0,4.584-2.052,4.584-4.583c0-2.532-2.053-4.584-4.584-4.584    C12.975,157.766,10.922,159.818,10.922,162.35"
   id="path246" />
		
			<path
   fill="none"
   stroke="#E20613"
   stroke-width="0.2833"
   stroke-linecap="round"
   stroke-linejoin="round"
   stroke-miterlimit="10"
   d="    M10.922,146.382c0,2.531,2.053,4.583,4.583,4.583c2.532,0,4.584-2.052,4.584-4.583c0-2.532-2.053-4.584-4.584-4.584    C12.975,141.798,10.922,143.85,10.922,146.382"
   id="path247" />
		
			<path
   fill="none"
   stroke="#E20613"
   stroke-width="0.2833"
   stroke-linecap="round"
   stroke-linejoin="round"
   stroke-miterlimit="10"
   d="    M10.922,130.413c0,2.531,2.053,4.584,4.583,4.584c2.532,0,4.584-2.053,4.584-4.584c0-2.532-2.053-4.583-4.584-4.583    C12.975,125.829,10.922,127.881,10.922,130.413"
   id="path248" />
		
			<path
   fill="none"
   stroke="#E20613"
   stroke-width="0.2833"
   stroke-linecap="round"
   stroke-linejoin="round"
   stroke-miterlimit="10"
   d="    M10.922,114.444c0,2.531,2.053,4.583,4.583,4.583c2.532,0,4.584-2.052,4.584-4.583c0-2.532-2.053-4.584-4.584-4.584    C12.975,109.86,10.922,111.912,10.922,114.444"
   id="path249" />
		
			<path
   fill="none"
   stroke="#E20613"
   stroke-width="0.2833"
   stroke-linecap="round"
   stroke-linejoin="round"
   stroke-miterlimit="10"
   d="    M10.922,76.887c0,2.532,2.053,4.584,4.583,4.584c2.532,0,4.584-2.052,4.584-4.584c0-2.531-2.053-4.583-4.584-4.583    C12.975,72.304,10.922,74.356,10.922,76.887"
   id="path250" />
		
			<path
   fill="none"
   stroke="#E20613"
   stroke-width="0.2833"
   stroke-linecap="round"
   stroke-linejoin="round"
   stroke-miterlimit="10"
   d="    M7.818,95.665c0,4.247,3.442,7.689,7.688,7.689c4.246,0,7.689-3.442,7.689-7.689c0-4.246-3.443-7.688-7.689-7.688    C11.261,87.977,7.818,91.419,7.818,95.665"
   id="path251" />
		
			<path
   fill="none"
   stroke="#E20613"
   stroke-width="0.2833"
   stroke-linecap="round"
   stroke-linejoin="round"
   stroke-miterlimit="10"
   d="    M7.818,58.109c0,4.246,3.442,7.688,7.688,7.688c4.246,0,7.689-3.442,7.689-7.688s-3.443-7.689-7.689-7.689    C11.261,50.42,7.818,53.863,7.818,58.109"
   id="path252" />
	</g>
</g>
<g
   id="widgets"
   display="none">
	
		<rect
   id="MediumLight_1_"
   x="10.507"
   y="109.298"
   display="inline"
   fill="none"
   stroke="#000000"
   stroke-miterlimit="10"
   width="10"
   height="10" />
	
		<rect
   id="MediumLight_2_"
   x="10.507"
   y="71.888"
   display="inline"
   fill="none"
   stroke="#000000"
   stroke-miterlimit="10"
   width="10"
   height="10" />
	
		<rect
   id="MediumLight_3_"
   x="10.507"
   y="125.413"
   display="inline"
   fill="none"
   stroke="#000000"
   stroke-miterlimit="10"
   width="10"
   height="10" />
	
		<rect
   id="MediumLight_4_"
   x="10.507"
   y="141.382"
   display="inline"
   fill="none"
   stroke="#000000"
   stroke-miterlimit="10"
   width="10"
   height="10" />
	
		<rect
   id="MediumLight_5_"
   x="10.507"
   y="157.35"
   display="inline"
   fill="none"
   stroke="#000000"
   stroke-miterlimit="10"
   width="10"
   height="10" />
	
		<rect
   id="Rogan_10_"
   x="61.751"
   y="50.324"
   display="inline"
   fill="none"
   stroke="#000000"
   stroke-miterlimit="10"
   width="38.987"
   height="39.996" />
	
		<rect
   id="Rogan_1_"
   x="61.751"
   y="114.999"
   display="inline"
   fill="none"
   stroke="#000000"
   stroke-miterlimit="10"
   width="38.987"
   height="39.996" />
	
		<rect
   id="Rogan_2_"
   x="61.751"
   y="179.908"
   display="inline"
   fill="none"
   stroke="#000000"
   stroke-miterlimit="10"
   width="38.987"
   height="39.996" />
	
		<rect
   id="Rogan_3_"
   x="61.751"
   y="244.701"
   display="inline"
   fill="none"
   stroke="#000000"
   stroke-miterlimit="10"
   width="38.987"
   height="39.996" />
	
		<rect
   id="PJ301_11_"
   x="9.659"
   y="317.047"
   display="inline"
   fill="none"
   stroke="#000000"
   stroke-miterlimit="10"
   width="22.992"
   height="22.996" />
	
		<rect
   id="PJ301_3_"
   x="9.659"
   y="230.666"
   display="inline"
   fill="none"
   stroke="#000000"
   stroke-miterlimit="10"
   width="22.992"
   height="22.996" />
	
		<rect
   id="PJ301_1_"
   x="52.834"
   y="317.047"
   display="inline"
   fill="none"
   stroke="#000000"
   stroke-miterlimit="10"
   width="22.992"
   height="22.996" />
	
		<rect
   id="PJ301_2_"
   x="86.637"
   y="317.047"
   display="inline"
   fill="none"
   stroke="#000000"
   stroke-miterlimit="10"
   width="22.992"
   height="22.996" />
	<rect
   x="7.506"
   y="87.666"
   display="inline"
   fill="none"
   stroke="#000000"
   stroke-miterlimit="10"
   width="16"
   height="15.998"
   id="rect252" />
	<rect
   x="7.506"
   y="50.109"
   display="inline"
   fill="none"
   stroke="#000000"
   stroke-miterlimit="10"
   width="16"
   height="15.998"
   id="rect253" />
	
		<rect
   x="10.524"
   y="189.276"
   display="inline"
   fill="none"
   stroke="#000000"
   stroke-miterlimit="10"
   width="21.261"
   height="21.26"
   id="rect254" />
	
		<rect
   x="10.524"
   y="275.79"
   display="inline"
   fill="none"
   stroke="#000000"
   stroke-miterlimit="10"
   width="21.261"
   height="21.26"
   id="rect255" />
</g>
</svg>
