<?xml version="1.0" encoding="UTF-8" standalone="no"?>
<!-- Generator: Adobe Illustrator 16.0.3, SVG Export Plug-In . SVG Version: 6.00 Build 0)  -->

<svg
   version="1.1"
   x="0px"
   y="0px"
   width="210px"
   height="380px"
   viewBox="0 0 210 380"
   enable-background="new 0 0 210 380"
   xml:space="preserve"
   id="svg956"
   sodipodi:docname="Sheep.svg"
   inkscape:version="1.3.2 (091e20e, 2023-11-25)"
   inkscape:export-filename="Sheep.png"
   inkscape:export-xdpi="60.630001"
   inkscape:export-ydpi="60.630001"
   xmlns:inkscape="http://www.inkscape.org/namespaces/inkscape"
   xmlns:sodipodi="http://sodipodi.sourceforge.net/DTD/sodipodi-0.dtd"
   xmlns="http://www.w3.org/2000/svg"
   xmlns:svg="http://www.w3.org/2000/svg"><defs
   id="defs956" /><sodipodi:namedview
   id="namedview956"
   pagecolor="#ffffff"
   bordercolor="#000000"
   borderopacity="0.25"
   inkscape:showpageshadow="2"
   inkscape:pageopacity="0.0"
   inkscape:pagecheckerboard="0"
   inkscape:deskcolor="#d1d1d1"
   inkscape:zoom="2.2633719"
   inkscape:cx="139.6147"
   inkscape:cy="181.36657"
   inkscape:window-width="1392"
   inkscape:window-height="1212"
   inkscape:window-x="278"
   inkscape:window-y="55"
   inkscape:window-maximized="0"
   inkscape:current-layer="faceplate" />
<g
   id="faceplate">
	<rect
   id="background"
   fill="#E6E6E6"
   width="210"
   height="380" />
	
	
	
	<g
   id="g809">
		<g
   id="g807">
			<line
   fill="#BBBDBF"
   x1="0.065"
   y1="24.583"
   x2="210.763"
   y2="24.583"
   id="line806" />
			<rect
   x="0.065"
   y="24.062"
   fill="#BBBDBF"
   width="210.698"
   height="1.043"
   id="rect806" />
		</g>
		<g
   id="g808">
			<line
   fill="#BBBDBF"
   x1="0.065"
   y1="32.285"
   x2="210.763"
   y2="32.285"
   id="line807" />
			<rect
   x="0.065"
   y="31.764"
   fill="#BBBDBF"
   width="210.698"
   height="1.043"
   id="rect807" />
		</g>
	</g>
	<g
   id="g810">
		<path
   fill="#231F20"
   d="M190.311,57.276c-2.338,0-4.231,1.892-4.231,4.229c0,2.338,1.894,4.23,4.231,4.23    c2.335,0,4.229-1.892,4.229-4.23C194.54,59.168,192.646,57.276,190.311,57.276z M192.532,62.118h-1.604v1.605h-1.224v-1.605    h-1.615v-1.224h1.615v-1.605h1.224v1.605h1.604V62.118z"
   id="path809" />
		<path
   fill="#231F20"
   d="M162.139,57.276c-2.336,0-4.231,1.892-4.231,4.229c0,2.338,1.896,4.23,4.231,4.23    c2.335,0,4.229-1.892,4.229-4.23C166.368,59.168,164.474,57.276,162.139,57.276z M164.074,62.264h-3.869v-1.518h3.869V62.264z"
   id="path810" />
		<rect
   x="175.781"
   y="57.166"
   fill="#231F20"
   width="0.887"
   height="8.679"
   id="rect810" />
	</g>
	<g
   id="g811">
		<rect
   x="9.67"
   y="251.873"
   fill="#BBBDBF"
   width="191.517"
   height="2.085"
   id="rect811" />
	</g>
	<g
   id="g813">
		<path
   fill="#00A1A7"
   d="M89.049,127.018h-1.092v1.566h1.092c0.509,0,0.843-0.325,0.843-0.783    C89.893,127.341,89.559,127.018,89.049,127.018z"
   id="path811" />
		<path
   fill="#00A1A7"
   d="M99.295,126.966c-0.315,0-0.583,0.125-0.75,0.318c-0.226,0.25-0.283,0.524-0.283,1.666    c0,1.143,0.057,1.418,0.283,1.668c0.167,0.191,0.434,0.318,0.75,0.318c0.143,0,0.277-0.035,0.385-0.109l-0.518-0.508l0.617-0.609    l0.442,0.442c0.092-0.259,0.108-0.601,0.108-1.202c0-1.142-0.067-1.417-0.292-1.666C99.872,127.092,99.613,126.966,99.295,126.966    z"
   id="path812" />
		<path
   fill="#00A1A7"
   d="M130.857,123.294H78.706c-1.625,0-2.956,1.33-2.956,2.957v5.913c0,1.626,1.33,2.957,2.956,2.957h52.151    c1.625,0,2.955-1.33,2.955-2.957v-5.913C133.812,124.624,132.482,123.294,130.857,123.294z M85.789,127.018h-2.752v1.458h2.342    v1.035h-2.342v2.41h-1.159v-5.938h3.911V127.018z M89.95,131.92l-1.159-2.369h-0.833v2.369h-1.159v-5.938h2.326    c1.21,0,1.927,0.825,1.927,1.818c0,0.834-0.509,1.352-1.083,1.559l1.326,2.561H89.95z M96.167,127.018h-2.752v1.391h2.342v1.035    h-2.342v1.442h2.752v1.035h-3.911v-5.938h3.911V127.018z M101.022,132.17l-0.525-0.524c-0.334,0.216-0.733,0.324-1.202,0.324    c-0.674,0-1.191-0.232-1.609-0.65c-0.599-0.601-0.583-1.342-0.583-2.369c0-1.024-0.017-1.767,0.583-2.367    c0.417-0.417,0.935-0.651,1.609-0.651c0.676,0,1.186,0.233,1.601,0.651c0.601,0.6,0.593,1.342,0.593,2.367    c0,0.894,0.008,1.552-0.367,2.103l0.509,0.509L101.022,132.17z M106.945,129.885c0,1.259-0.967,2.084-2.185,2.084    c-1.218,0-2.184-0.825-2.184-2.084v-3.902h1.159v3.861c0,0.683,0.399,1.093,1.025,1.093c0.625,0,1.035-0.41,1.035-1.093v-3.861    h1.15V129.885z M112.152,127.018H109.4v1.391h2.342v1.035H109.4v1.442h2.752v1.035h-3.911v-5.938h3.911V127.018z M117.833,131.92    h-1.032l-2.354-3.644v3.644h-1.158v-5.938h1.034l2.351,3.636v-3.636h1.159V131.92z M120.471,130.627    c0.175,0.208,0.426,0.31,0.741,0.31c0.561,0,0.876-0.334,1.003-0.843h1.175c-0.199,1.21-1.051,1.876-2.186,1.876    c-0.634,0-1.167-0.216-1.601-0.65c-0.259-0.259-0.416-0.558-0.483-0.892s-0.1-0.825-0.1-1.477c0-0.649,0.032-1.142,0.1-1.475    c0.067-0.342,0.225-0.633,0.483-0.892c0.434-0.434,0.967-0.651,1.601-0.651c1.143,0,1.986,0.667,2.186,1.876h-1.175    c-0.127-0.508-0.442-0.842-1.003-0.842c-0.315,0-0.566,0.1-0.741,0.309c-0.242,0.259-0.291,0.526-0.291,1.675    C120.18,130.101,120.229,130.368,120.471,130.627z M126.569,129.484v2.437h-1.151v-2.437l-1.784-3.501h1.259l1.11,2.393    l1.092-2.393h1.259L126.569,129.484z"
   id="path813" />
	</g>
	<path
   fill="#00A1A7"
   d="M185.028,123.294H167.42c-1.626,0-2.956,1.33-2.956,2.957v5.913c0,1.626,1.33,2.957,2.956,2.957h17.608   c1.626,0,2.956-1.33,2.956-2.957v-5.913C187.984,124.624,186.654,123.294,185.028,123.294z M174.983,127.018h-2.751v1.458h2.343   v1.035h-2.343v2.41h-1.159v-5.938h3.91V127.018z M181.372,131.92h-1.158v-3.461l-1.133,2.251h-0.784l-1.142-2.251v3.461h-1.159   v-5.938h1.142l1.551,3.21l1.543-3.21h1.141V131.92z"
   id="path814" />
	<g
   id="g814">
		<polygon
   fill="#6D6E70"
   points="172.793,150.685 172.037,149.968 176.225,145.555 180.411,149.968 179.655,150.685     176.225,147.071   "
   id="polygon814" />
	</g>
	<g
   id="g815">
		<polygon
   fill="#6D6E70"
   points="193.209,199.253 192.577,198.424 193.694,197.572 193.83,194.909 195.368,195.746     196.653,194.017 198.136,195.578 199.972,195.127 199.793,197.324 200.889,198.48 200.133,199.197 198.716,197.705     198.814,196.485 197.796,196.734 196.751,195.634 195.665,197.094 194.787,196.616 194.711,198.107   "
   id="polygon815" />
	</g>
	<g
   id="g816">
		<path
   fill="#6D6E70"
   d="M157.484,199.654c-1.307,0-2.37-1.107-2.37-2.47c0-0.787-0.596-1.428-1.328-1.428    s-1.328,0.641-1.328,1.428v1.948h-1.043v-1.948c0-1.362,1.063-2.471,2.371-2.471s2.371,1.108,2.371,2.471    c0,0.787,0.596,1.427,1.327,1.427s1.327-0.64,1.327-1.427v-1.949h1.043v1.949C159.854,198.547,158.791,199.654,157.484,199.654z"
   id="path815" />
	</g>
	<g
   id="g817">
		<path
   fill="#00A1A7"
   d="M103.738,264.307c-0.318,0-0.585,0.125-0.752,0.317c-0.224,0.249-0.283,0.525-0.283,1.667    c0,1.143,0.059,1.418,0.283,1.668c0.167,0.191,0.434,0.316,0.752,0.316c0.315,0,0.574-0.125,0.741-0.316    c0.225-0.25,0.292-0.525,0.292-1.668c0-1.142-0.066-1.418-0.292-1.667C104.312,264.432,104.053,264.307,103.738,264.307z"
   id="path816" />
		<path
   fill="#00A1A7"
   d="M117.988,260.578H91.05c-1.625,0-2.956,1.33-2.956,2.957v5.913c0,1.626,1.33,2.956,2.956,2.956h26.938    c1.625,0,2.955-1.33,2.955-2.956v-5.913C120.943,261.908,119.613,260.578,117.988,260.578z M95.694,269.26h-0.868l-1.959-5.938    h1.202l1.191,3.87l1.193-3.87h1.209L95.694,269.26z M98.707,269.877H97.69l2.375-7.171h1.019L98.707,269.877z M105.339,268.659    c-0.418,0.417-0.927,0.65-1.601,0.65c-0.676,0-1.194-0.233-1.61-0.65c-0.6-0.601-0.583-1.343-0.583-2.368    s-0.017-1.768,0.583-2.368c0.417-0.416,0.934-0.65,1.61-0.65c0.674,0,1.183,0.234,1.601,0.65c0.599,0.601,0.59,1.343,0.59,2.368    S105.938,268.059,105.339,268.659z M108.367,267.967c0.176,0.209,0.426,0.309,0.743,0.309c0.559,0,0.874-0.334,1.001-0.842h1.175    c-0.199,1.209-1.051,1.876-2.186,1.876c-0.633,0-1.167-0.217-1.601-0.65c-0.258-0.258-0.416-0.559-0.483-0.893    c-0.066-0.333-0.1-0.825-0.1-1.476c0-0.649,0.033-1.142,0.1-1.476c0.067-0.343,0.226-0.634,0.483-0.893    c0.434-0.434,0.968-0.65,1.601-0.65c1.143,0,1.986,0.667,2.186,1.877h-1.175c-0.127-0.51-0.442-0.843-1.001-0.843    c-0.317,0-0.567,0.101-0.743,0.309c-0.242,0.258-0.291,0.524-0.291,1.676C108.076,267.441,108.125,267.709,108.367,267.967z     M115.941,264.356h-1.551v4.903h-1.159v-4.903h-1.551v-1.034h4.261V264.356z"
   id="path817" />
	</g>
	<path
   fill="#00A1A7"
   d="M149.15,260.577h-17.821c-1.625,0-2.955,1.33-2.955,2.957v5.913c0,1.626,1.33,2.956,2.955,2.956h17.821   c1.626,0,2.956-1.33,2.956-2.956v-5.913C152.106,261.907,150.776,260.577,149.15,260.577z M138.998,264.356h-2.751v1.46h2.342   v1.033h-2.342v2.41h-1.159v-5.937h3.91V264.356z M145.389,269.26h-1.159v-3.461l-1.135,2.252h-0.784l-1.141-2.252v3.461h-1.159   v-5.937h1.141l1.553,3.21l1.541-3.21h1.144V269.26z"
   id="path818" />
	<g
   id="g825">
		<g
   id="g824">
			<path
   fill="#231F20"
   d="M55.349,264.356v1.46h2.343v1.033h-2.343v2.41h-1.16v-5.938H58.1v1.034H55.349z"
   id="path819" />
			<path
   fill="#231F20"
   d="M62.263,269.26l-1.159-2.368H60.27v2.368h-1.159v-5.938h2.326c1.21,0,1.927,0.826,1.927,1.817     c0,0.835-0.509,1.352-1.084,1.56l1.326,2.561H62.263z M61.362,264.356H60.27v1.567h1.092c0.509,0,0.843-0.324,0.843-0.784     C62.205,264.682,61.871,264.356,61.362,264.356z"
   id="path820" />
			<path
   fill="#231F20"
   d="M64.568,269.26v-5.938h3.911v1.034h-2.751v1.393h2.342v1.034h-2.342v1.442h2.751v1.034H64.568z"
   id="path821" />
			<path
   fill="#231F20"
   d="M69.615,269.26v-5.938h3.911v1.034h-2.752v1.393h2.342v1.034h-2.342v1.442h2.752v1.034H69.615z"
   id="path822" />
			<path
   fill="#231F20"
   d="M74.304,269.26v-0.934l2.534-3.97h-2.426v-1.034h3.795v0.918l-2.544,3.985h2.544v1.034H74.304z"
   id="path823" />
			<path
   fill="#231F20"
   d="M79.233,269.26v-5.938h3.911v1.034h-2.752v1.393h2.345v1.034h-2.345v1.442h2.752v1.034H79.233z"
   id="path824" />
		</g>
	</g>
	<g
   id="g830">
		<g
   id="g829">
			<path
   fill="#231F20"
   d="M164.647,269.26v-5.938h1.159v4.903h2.693v1.034H164.647z"
   id="path825" />
			<path
   fill="#231F20"
   d="M169.445,269.26v-5.938h3.911v1.034h-2.752v1.393h2.343v1.034h-2.343v1.442h2.752v1.034H169.445z"
   id="path826" />
			<path
   fill="#231F20"
   d="M176.652,269.26h-0.867l-1.96-5.938h1.201l1.192,3.87l1.191-3.87h1.21L176.652,269.26z"
   id="path827" />
			<path
   fill="#231F20"
   d="M179.34,269.26v-5.938h3.91v1.034h-2.752v1.393h2.345v1.034h-2.345v1.442h2.752v1.034H179.34z"
   id="path828" />
			<path
   fill="#231F20"
   d="M184.387,269.26v-5.938h1.159v4.903h2.692v1.034H184.387z"
   id="path829" />
		</g>
	</g>
	<g
   id="g831">
		<path
   fill="#231F20"
   d="M53.715,107.597h-0.521c-0.288,0-0.521-0.233-0.521-0.521s0.233-0.521,0.521-0.521h0.521    c0.287,0,0.521,0.233,0.521,0.521S54.002,107.597,53.715,107.597z M51.108,107.597h-0.521c-0.288,0-0.521-0.233-0.521-0.521    s0.233-0.521,0.521-0.521h0.521c0.287,0,0.521,0.233,0.521,0.521S51.395,107.597,51.108,107.597z M48.501,107.597h-0.521    c-0.289,0-0.521-0.233-0.521-0.521s0.233-0.521,0.521-0.521h0.521c0.287,0,0.521,0.233,0.521,0.521S48.788,107.597,48.501,107.597    z M45.894,107.597h-0.521c-0.288,0-0.521-0.233-0.521-0.521s0.233-0.521,0.521-0.521h0.521c0.287,0,0.521,0.233,0.521,0.521    S46.181,107.597,45.894,107.597z M43.286,107.597h-0.521c-0.288,0-0.521-0.233-0.521-0.521s0.233-0.521,0.521-0.521h0.521    c0.288,0,0.521,0.233,0.521,0.521S43.574,107.597,43.286,107.597z M40.679,107.597h-0.521c-0.288,0-0.521-0.233-0.521-0.521    s0.233-0.521,0.521-0.521h0.521c0.287,0,0.521,0.233,0.521,0.521S40.966,107.597,40.679,107.597z M38.072,107.597H37.55    c-0.288,0-0.521-0.233-0.521-0.521s0.233-0.521,0.521-0.521h0.521c0.287,0,0.521,0.233,0.521,0.521S38.359,107.597,38.072,107.597    z M35.464,107.597h-0.521c-0.289,0-0.521-0.233-0.521-0.521s0.233-0.521,0.521-0.521h0.521c0.288,0,0.521,0.233,0.521,0.521    S35.752,107.597,35.464,107.597z M32.857,107.597h-0.521c-0.288,0-0.521-0.233-0.521-0.521s0.233-0.521,0.521-0.521h0.521    c0.287,0,0.521,0.233,0.521,0.521S33.145,107.597,32.857,107.597z"
   id="path830" />
	</g>
	<g
   id="g832">
		<path
   fill="#231F20"
   d="M53.715,66.222h-0.521c-0.288,0-0.521-0.233-0.521-0.521c0-0.288,0.233-0.521,0.521-0.521h0.521    c0.287,0,0.521,0.233,0.521,0.521C54.237,65.989,54.002,66.222,53.715,66.222z M51.108,66.222h-0.521    c-0.288,0-0.521-0.233-0.521-0.521c0-0.288,0.233-0.521,0.521-0.521h0.521c0.287,0,0.521,0.233,0.521,0.521    C51.629,65.989,51.395,66.222,51.108,66.222z M48.501,66.222h-0.521c-0.289,0-0.521-0.233-0.521-0.521    c0-0.288,0.233-0.521,0.521-0.521h0.521c0.287,0,0.521,0.233,0.521,0.521C49.022,65.989,48.788,66.222,48.501,66.222z     M45.894,66.222h-0.521c-0.288,0-0.521-0.233-0.521-0.521c0-0.288,0.233-0.521,0.521-0.521h0.521c0.287,0,0.521,0.233,0.521,0.521    C46.415,65.989,46.181,66.222,45.894,66.222z M43.286,66.222h-0.521c-0.288,0-0.521-0.233-0.521-0.521    c0-0.288,0.233-0.521,0.521-0.521h0.521c0.288,0,0.521,0.233,0.521,0.521C43.808,65.989,43.574,66.222,43.286,66.222z     M40.679,66.222h-0.521c-0.288,0-0.521-0.233-0.521-0.521c0-0.288,0.233-0.521,0.521-0.521h0.521c0.287,0,0.521,0.233,0.521,0.521    C41.201,65.989,40.966,66.222,40.679,66.222z M38.072,66.222H37.55c-0.288,0-0.521-0.233-0.521-0.521    c0-0.288,0.233-0.521,0.521-0.521h0.521c0.287,0,0.521,0.233,0.521,0.521C38.593,65.989,38.359,66.222,38.072,66.222z     M35.464,66.222h-0.521c-0.289,0-0.521-0.233-0.521-0.521c0-0.288,0.233-0.521,0.521-0.521h0.521c0.288,0,0.521,0.233,0.521,0.521    C35.986,65.989,35.752,66.222,35.464,66.222z M32.857,66.222h-0.521c-0.288,0-0.521-0.233-0.521-0.521    c0-0.288,0.233-0.521,0.521-0.521h0.521c0.287,0,0.521,0.233,0.521,0.521C33.379,65.989,33.145,66.222,32.857,66.222z"
   id="path831" />
	</g>
	<g
   id="g833">
		<path
   fill="#231F20"
   d="M89.058,87.153h-0.521c-0.288,0-0.521-0.233-0.521-0.521c0-0.289,0.233-0.521,0.521-0.521h0.521    c0.288,0,0.521,0.233,0.521,0.521C89.579,86.92,89.346,87.153,89.058,87.153z M86.45,87.153h-0.521    c-0.288,0-0.521-0.233-0.521-0.521c0-0.289,0.233-0.521,0.521-0.521h0.521c0.289,0,0.521,0.233,0.521,0.521    C86.972,86.92,86.739,87.153,86.45,87.153z M83.843,87.153h-0.521c-0.288,0-0.521-0.233-0.521-0.521    c0-0.289,0.233-0.521,0.521-0.521h0.521c0.288,0,0.521,0.233,0.521,0.521C84.365,86.92,84.131,87.153,83.843,87.153z     M81.236,87.153h-0.521c-0.288,0-0.521-0.233-0.521-0.521c0-0.289,0.233-0.521,0.521-0.521h0.521c0.288,0,0.521,0.233,0.521,0.521    C81.757,86.92,81.524,87.153,81.236,87.153z M78.629,87.153h-0.521c-0.289,0-0.521-0.233-0.521-0.521    c0-0.289,0.233-0.521,0.521-0.521h0.521c0.288,0,0.521,0.233,0.521,0.521C79.15,86.92,78.917,87.153,78.629,87.153z     M76.021,87.153H75.5c-0.288,0-0.521-0.233-0.521-0.521c0-0.289,0.233-0.521,0.521-0.521h0.521c0.288,0,0.521,0.233,0.521,0.521    C76.543,86.92,76.31,87.153,76.021,87.153z M73.414,87.153h-0.521c-0.288,0-0.521-0.233-0.521-0.521    c0-0.289,0.233-0.521,0.521-0.521h0.521c0.289,0,0.521,0.233,0.521,0.521C73.936,86.92,73.703,87.153,73.414,87.153z     M70.807,87.153h-0.521c-0.289,0-0.521-0.233-0.521-0.521c0-0.289,0.233-0.521,0.521-0.521h0.521c0.288,0,0.521,0.233,0.521,0.521    C71.329,86.92,71.095,87.153,70.807,87.153z M68.2,87.153h-0.521c-0.288,0-0.521-0.233-0.521-0.521    c0-0.289,0.233-0.521,0.521-0.521H68.2c0.288,0,0.521,0.233,0.521,0.521C68.721,86.92,68.488,87.153,68.2,87.153z"
   id="path832" />
	</g>
	<g
   id="g835">
		<path
   fill="#00A1A7"
   d="M10.989,91.745c-2.536,0-4.591,2.054-4.591,4.59s2.055,4.59,4.591,4.59c2.536,0,4.591-2.054,4.591-4.59    S13.525,91.745,10.989,91.745z M12.439,98.571h-2.9v-4.469h0.872v3.69h2.029V98.571z"
   id="path833" />
		<path
   fill="#231F20"
   d="M10.989,102.485c-2.536,0-4.591,2.053-4.591,4.589c0,2.536,2.055,4.591,4.591,4.591    c2.536,0,4.591-2.055,4.591-4.591C15.58,104.538,13.525,102.485,10.989,102.485z M13.014,109.311h-0.872v-2.605l-0.854,1.694    h-0.591l-0.859-1.694v2.605H8.964v-4.469h0.862l1.167,2.416l1.161-2.416h0.859V109.311z"
   id="path834" />
		<path
   fill="#DA4061"
   d="M10.991,113.224c-2.538,0-4.593,2.054-4.593,4.59c0,2.536,2.055,4.59,4.593,4.59    c2.534,0,4.589-2.054,4.589-4.59C15.58,115.278,13.525,113.224,10.991,113.224z M12.619,120.049h-0.872v-1.872h-1.514v1.872H9.362    v-4.469h0.872v1.826h1.514v-1.826h0.872V120.049z"
   id="path835" />
	</g>
	<g
   id="g836">
		<rect
   x="9.67"
   y="351.253"
   fill="#BBBDBF"
   width="191.517"
   height="2.086"
   id="rect835" />
	</g>
	<g
   id="g845">
		<path
   fill="#231F20"
   d="M151.97,209.999c-0.9,0-1.585-0.191-2.167-0.783l0.749-0.751c0.376,0.375,0.884,0.5,1.436,0.5    c0.683,0,1.05-0.258,1.05-0.734c0-0.207-0.059-0.383-0.184-0.5c-0.116-0.107-0.249-0.167-0.525-0.208l-0.717-0.101    c-0.509-0.074-0.885-0.232-1.151-0.491c-0.283-0.283-0.424-0.667-0.424-1.167c0-1.06,0.782-1.802,2.065-1.802    c0.819,0,1.412,0.2,1.919,0.692l-0.733,0.725c-0.374-0.358-0.825-0.408-1.218-0.408c-0.616,0-0.917,0.343-0.917,0.751    c0,0.149,0.049,0.309,0.176,0.425c0.116,0.108,0.308,0.2,0.55,0.234l0.7,0.1c0.542,0.075,0.885,0.225,1.135,0.458    c0.317,0.301,0.459,0.734,0.459,1.26C154.172,209.349,153.212,209.999,151.97,209.999z"
   id="path836" />
		<path
   fill="#231F20"
   d="M159.484,209.949v-3.461l-1.133,2.252h-0.784l-1.143-2.252v3.461h-1.158v-5.938h1.142l1.55,3.211    l1.544-3.211h1.143v5.938H159.484z"
   id="path837" />
		<path
   fill="#231F20"
   d="M165.626,209.349c-0.417,0.417-0.925,0.65-1.601,0.65s-1.192-0.233-1.609-0.65    c-0.6-0.601-0.584-1.343-0.584-2.368s-0.016-1.768,0.584-2.368c0.417-0.417,0.934-0.65,1.609-0.65s1.184,0.233,1.601,0.65    c0.601,0.601,0.592,1.343,0.592,2.368S166.227,208.748,165.626,209.349z M164.768,205.313c-0.167-0.193-0.426-0.317-0.742-0.317    c-0.317,0-0.584,0.124-0.751,0.317c-0.226,0.249-0.283,0.525-0.283,1.667c0,1.143,0.058,1.418,0.283,1.668    c0.167,0.191,0.434,0.316,0.751,0.316c0.316,0,0.575-0.125,0.742-0.316c0.225-0.25,0.292-0.525,0.292-1.668    C165.06,205.839,164.992,205.562,164.768,205.313z"
   id="path838" />
		<path
   fill="#231F20"
   d="M170.998,209.349c-0.415,0.417-0.924,0.65-1.601,0.65c-0.675,0-1.19-0.233-1.608-0.65    c-0.6-0.601-0.583-1.343-0.583-2.368s-0.017-1.768,0.583-2.368c0.418-0.417,0.934-0.65,1.608-0.65c0.677,0,1.186,0.233,1.601,0.65    c0.603,0.601,0.594,1.343,0.594,2.368S171.601,208.748,170.998,209.349z M170.141,205.313c-0.167-0.193-0.426-0.317-0.743-0.317    c-0.315,0-0.583,0.124-0.75,0.317c-0.225,0.249-0.283,0.525-0.283,1.667c0,1.143,0.059,1.418,0.283,1.668    c0.167,0.191,0.435,0.316,0.75,0.316c0.317,0,0.576-0.125,0.743-0.316c0.226-0.25,0.292-0.525,0.292-1.668    C170.433,205.839,170.366,205.562,170.141,205.313z"
   id="path839" />
		<path
   fill="#231F20"
   d="M174.88,205.046v4.903h-1.16v-4.903h-1.55v-1.034h4.26v1.034H174.88z"
   id="path840" />
		<path
   fill="#231F20"
   d="M180.544,209.949v-2.485h-2.009v2.485h-1.159v-5.938h1.159v2.427h2.009v-2.427h1.159v5.938H180.544z"
   id="path841" />
		<path
   fill="#231F20"
   d="M186.601,209.949l-2.351-3.645v3.645h-1.158v-5.938h1.033l2.352,3.636v-3.636h1.159v5.938H186.601z"
   id="path842" />
		<path
   fill="#231F20"
   d="M189.022,209.949v-5.938h3.911v1.034h-2.752v1.393h2.343v1.034h-2.343v1.442h2.752v1.034H189.022z"
   id="path843" />
		<path
   fill="#231F20"
   d="M195.704,209.999c-0.9,0-1.584-0.191-2.167-0.783l0.749-0.751c0.377,0.375,0.884,0.5,1.436,0.5    c0.683,0,1.05-0.258,1.05-0.734c0-0.207-0.059-0.383-0.184-0.5c-0.116-0.107-0.25-0.167-0.525-0.208l-0.717-0.101    c-0.509-0.074-0.885-0.232-1.151-0.491c-0.283-0.283-0.426-0.667-0.426-1.167c0-1.06,0.784-1.802,2.067-1.802    c0.819,0,1.41,0.2,1.919,0.692l-0.733,0.725c-0.374-0.358-0.825-0.408-1.217-0.408c-0.617,0-0.918,0.343-0.918,0.751    c0,0.149,0.051,0.309,0.176,0.425c0.116,0.108,0.309,0.2,0.55,0.234l0.7,0.1c0.542,0.075,0.885,0.225,1.135,0.458    c0.316,0.301,0.459,0.734,0.459,1.26C197.906,209.349,196.946,209.999,195.704,209.999z"
   id="path844" />
		<path
   fill="#231F20"
   d="M200.584,209.999c-0.9,0-1.584-0.191-2.167-0.783l0.75-0.751c0.376,0.375,0.884,0.5,1.434,0.5    c0.685,0,1.051-0.258,1.051-0.734c0-0.207-0.058-0.383-0.183-0.5c-0.116-0.107-0.25-0.167-0.525-0.208l-0.718-0.101    c-0.508-0.074-0.884-0.232-1.15-0.491c-0.283-0.283-0.426-0.667-0.426-1.167c0-1.06,0.784-1.802,2.067-1.802    c0.818,0,1.41,0.2,1.919,0.692l-0.733,0.725c-0.375-0.358-0.826-0.408-1.218-0.408c-0.616,0-0.917,0.343-0.917,0.751    c0,0.149,0.049,0.309,0.175,0.425c0.116,0.108,0.308,0.2,0.551,0.234l0.7,0.1c0.542,0.075,0.884,0.225,1.135,0.458    c0.316,0.301,0.458,0.734,0.458,1.26C202.786,209.349,201.827,209.999,200.584,209.999z"
   id="path845" />
	</g>
	
	<g
   id="g856">
		<path
   fill="#231F20"
   d="M190.364,57.215c-2.339,0-4.232,1.893-4.232,4.23c0,2.339,1.894,4.232,4.232,4.232    c2.336,0,4.23-1.893,4.23-4.232C194.595,59.108,192.7,57.215,190.364,57.215z M192.587,62.058h-1.605v1.605h-1.224v-1.605h-1.616    v-1.225h1.616v-1.605h1.224v1.605h1.605V62.058z"
   id="path855" />
		<path
   fill="#231F20"
   d="M162.184,57.215c-2.338,0-4.233,1.893-4.233,4.23c0,2.339,1.896,4.232,4.233,4.232    c2.336,0,4.23-1.893,4.23-4.232C166.414,59.108,164.52,57.215,162.184,57.215z M164.119,62.205h-3.87v-1.518h3.87V62.205z"
   id="path856" />
		<rect
   x="175.83"
   y="57.105"
   fill="#231F20"
   width="0.887"
   height="8.682"
   id="rect856" />
	</g>
	<g
   id="g860">
		<g
   id="g857">
			<polygon
   fill="#6D6E70"
   points="172.841,150.655 172.085,149.938 176.274,145.523 180.461,149.938 179.705,150.655      176.274,147.039    "
   id="polygon856" />
		</g>
		<g
   id="g858">
			<polygon
   fill="#6D6E70"
   points="193.264,199.238 192.632,198.409 193.749,197.557 193.885,194.894 195.423,195.729 196.709,194      198.192,195.562 200.028,195.11 199.85,197.309 200.946,198.465 200.19,199.183 198.771,197.689 198.871,196.47 197.852,196.719      196.807,195.617 195.721,197.078 194.843,196.601 194.766,198.092    "
   id="polygon857" />
		</g>
		<g
   id="g859">
			<path
   fill="#6D6E70"
   d="M157.527,199.64c-1.307,0-2.371-1.108-2.371-2.471c0-0.787-0.596-1.428-1.328-1.428     s-1.328,0.641-1.328,1.428v1.949h-1.044v-1.949c0-1.363,1.064-2.472,2.372-2.472c1.309,0,2.372,1.108,2.372,2.472     c0,0.788,0.596,1.428,1.327,1.428s1.327-0.64,1.327-1.428v-1.95h1.044v1.95C159.898,198.531,158.835,199.64,157.527,199.64z"
   id="path858" />
		</g>
	</g>
	<g
   id="g866">
		<path
   fill="#6D6E70"
   d="M175.316,310.275h-1.21v1.46h1.21c0.524,0,0.775-0.334,0.775-0.734S175.841,310.275,175.316,310.275z"
   id="path860" />
		<g
   id="g865">
			<path
   fill="#6D6E70"
   d="M191.066,303.773H52.429c-1.626,0-2.957,1.331-2.957,2.958v35.547c0,1.627,1.331,2.958,2.957,2.958     h138.638c1.626,0,2.958-1.331,2.958-2.958v-35.547C194.024,305.104,192.692,303.773,191.066,303.773z M61.834,312.762H60.75     v-4.771l-1.21,1.051v-1.168l1.21-1.051h1.084V312.762z M66.274,310.885h-2.569v-1.01h2.569V310.885z M69.946,312.762h-2.484     v-5.939h2.384c1.16,0,1.836,0.65,1.836,1.669c0,0.659-0.434,1.084-0.733,1.227c0.358,0.166,0.817,0.542,0.817,1.334     C71.765,312.16,71.005,312.762,69.946,312.762z M74.112,312.762h-1.159v-5.939h1.159V312.762z M79.318,307.857h-1.55v4.904h-1.16     v-4.904h-1.553v-1.035h4.263V307.857z M99.136,312.812c-0.9,0-1.585-0.191-2.168-0.783l0.75-0.751     c0.375,0.375,0.884,0.5,1.435,0.5c0.685,0,1.051-0.259,1.051-0.734c0-0.208-0.059-0.383-0.184-0.5     c-0.116-0.108-0.25-0.167-0.525-0.209l-0.717-0.1c-0.509-0.075-0.884-0.233-1.151-0.492c-0.283-0.283-0.426-0.668-0.426-1.168     c0-1.06,0.785-1.802,2.068-1.802c0.819,0,1.41,0.2,1.919,0.692l-0.733,0.726c-0.375-0.358-0.827-0.409-1.218-0.409     c-0.618,0-0.917,0.343-0.917,0.751c0,0.15,0.049,0.309,0.175,0.425c0.116,0.109,0.308,0.201,0.55,0.234l0.701,0.101     c0.542,0.075,0.884,0.225,1.135,0.458c0.316,0.301,0.458,0.734,0.458,1.26C101.338,312.16,100.379,312.812,99.136,312.812z      M106.712,310.726c0,1.261-0.968,2.086-2.185,2.086c-1.219,0-2.187-0.825-2.187-2.086v-3.903h1.16v3.862     c0,0.685,0.401,1.093,1.027,1.093s1.033-0.408,1.033-1.093v-3.862h1.151V310.726z M110.493,312.762h-2.483v-5.939h2.384     c1.159,0,1.836,0.65,1.836,1.669c0,0.659-0.435,1.084-0.733,1.227c0.358,0.166,0.816,0.542,0.816,1.334     C112.312,312.16,111.553,312.762,110.493,312.762z M138.485,310.734c0,1.26-0.968,2.085-2.187,2.085     c-1.218,0-2.187-0.825-2.187-2.085v-3.904h1.161v3.862c0,0.685,0.4,1.093,1.025,1.093c0.626,0,1.035-0.408,1.035-1.093v-3.862     h1.151V310.734z M144.327,312.77h-1.035l-2.353-3.646v3.646h-1.159v-5.939h1.034l2.353,3.637v-3.637h1.16V312.77z      M146.874,312.77h-1.159v-5.939h1.159V312.77z M175.433,312.77h-2.486v-5.939h2.387c1.159,0,1.833,0.651,1.833,1.669     c0,0.659-0.434,1.084-0.733,1.227c0.359,0.166,0.817,0.542,0.817,1.335C177.25,312.169,176.492,312.77,175.433,312.77z      M179.598,312.77h-1.16v-5.939h1.16V312.77z"
   id="path861" />
			<path
   fill="#6D6E70"
   d="M70.522,308.541c0-0.409-0.275-0.684-0.768-0.684h-1.133v1.367h1.133     C70.247,309.225,70.522,308.949,70.522,308.541z"
   id="path862" />
			<path
   fill="#6D6E70"
   d="M111.07,308.541c0-0.409-0.275-0.684-0.769-0.684h-1.133v1.367h1.133     C110.795,309.225,111.07,308.949,111.07,308.541z"
   id="path863" />
			<path
   fill="#6D6E70"
   d="M69.83,310.268h-1.208v1.46h1.208c0.526,0,0.776-0.334,0.776-0.734S70.355,310.268,69.83,310.268z"
   id="path864" />
			<path
   fill="#6D6E70"
   d="M110.377,310.268h-1.208v1.46h1.208c0.525,0,0.776-0.334,0.776-0.734S110.902,310.268,110.377,310.268z"
   id="path865" />
		</g>
		<path
   fill="#6D6E70"
   d="M176.008,308.549c0-0.408-0.275-0.684-0.767-0.684h-1.135v1.367h1.135    C175.732,309.232,176.008,308.957,176.008,308.549z"
   id="path866" />
	</g>
	<g
   id="g867">
		<path
   fill="#231F20"
   d="M53.725,107.552h-0.521c-0.289,0-0.522-0.233-0.522-0.521c0-0.288,0.233-0.521,0.522-0.521h0.521    c0.287,0,0.521,0.233,0.521,0.521C54.246,107.319,54.012,107.552,53.725,107.552z M51.117,107.552h-0.522    c-0.288,0-0.521-0.233-0.521-0.521c0-0.288,0.233-0.521,0.521-0.521h0.522c0.287,0,0.521,0.233,0.521,0.521    C51.638,107.319,51.404,107.552,51.117,107.552z M48.508,107.552h-0.521c-0.288,0-0.521-0.233-0.521-0.521    c0-0.288,0.233-0.521,0.521-0.521h0.521c0.288,0,0.522,0.233,0.522,0.521C49.03,107.319,48.796,107.552,48.508,107.552z     M45.9,107.552h-0.521c-0.289,0-0.522-0.233-0.522-0.521c0-0.288,0.233-0.521,0.522-0.521H45.9c0.287,0,0.521,0.233,0.521,0.521    C46.422,107.319,46.188,107.552,45.9,107.552z M43.292,107.552h-0.522c-0.288,0-0.521-0.233-0.521-0.521    c0-0.288,0.233-0.521,0.521-0.521h0.522c0.287,0,0.521,0.233,0.521,0.521C43.814,107.319,43.58,107.552,43.292,107.552z     M40.684,107.552h-0.521c-0.289,0-0.521-0.233-0.521-0.521c0-0.288,0.233-0.521,0.521-0.521h0.521    c0.288,0,0.522,0.233,0.522,0.521C41.206,107.319,40.972,107.552,40.684,107.552z M38.076,107.552h-0.521    c-0.289,0-0.522-0.233-0.522-0.521c0-0.288,0.233-0.521,0.522-0.521h0.521c0.287,0,0.521,0.233,0.521,0.521    C38.598,107.319,38.363,107.552,38.076,107.552z M35.468,107.552h-0.522c-0.288,0-0.521-0.233-0.521-0.521    c0-0.288,0.233-0.521,0.521-0.521h0.522c0.287,0,0.521,0.233,0.521,0.521C35.99,107.319,35.755,107.552,35.468,107.552z     M32.86,107.552h-0.521c-0.289,0-0.521-0.233-0.521-0.521c0-0.288,0.233-0.521,0.521-0.521h0.521c0.288,0,0.521,0.233,0.521,0.521    C33.381,107.319,33.147,107.552,32.86,107.552z"
   id="path867" />
	</g>
	<g
   id="g868">
		<path
   fill="#231F20"
   d="M53.725,66.164h-0.521c-0.289,0-0.522-0.233-0.522-0.522c0-0.288,0.233-0.521,0.522-0.521h0.521    c0.287,0,0.521,0.233,0.521,0.521C54.246,65.931,54.012,66.164,53.725,66.164z M51.117,66.164h-0.522    c-0.288,0-0.521-0.233-0.521-0.522c0-0.288,0.233-0.521,0.521-0.521h0.522c0.287,0,0.521,0.233,0.521,0.521    C51.638,65.931,51.404,66.164,51.117,66.164z M48.508,66.164h-0.521c-0.288,0-0.521-0.233-0.521-0.522    c0-0.288,0.233-0.521,0.521-0.521h0.521c0.288,0,0.522,0.233,0.522,0.521C49.03,65.931,48.796,66.164,48.508,66.164z M45.9,66.164    h-0.521c-0.289,0-0.522-0.233-0.522-0.522c0-0.288,0.233-0.521,0.522-0.521H45.9c0.287,0,0.521,0.233,0.521,0.521    C46.422,65.931,46.188,66.164,45.9,66.164z M43.292,66.164h-0.522c-0.288,0-0.521-0.233-0.521-0.522    c0-0.288,0.233-0.521,0.521-0.521h0.522c0.287,0,0.521,0.233,0.521,0.521C43.814,65.931,43.58,66.164,43.292,66.164z     M40.684,66.164h-0.521c-0.289,0-0.521-0.233-0.521-0.522c0-0.288,0.233-0.521,0.521-0.521h0.521c0.288,0,0.522,0.233,0.522,0.521    C41.206,65.931,40.972,66.164,40.684,66.164z M38.076,66.164h-0.521c-0.289,0-0.522-0.233-0.522-0.522    c0-0.288,0.233-0.521,0.522-0.521h0.521c0.287,0,0.521,0.233,0.521,0.521C38.598,65.931,38.363,66.164,38.076,66.164z     M35.468,66.164h-0.522c-0.288,0-0.521-0.233-0.521-0.522c0-0.288,0.233-0.521,0.521-0.521h0.522c0.287,0,0.521,0.233,0.521,0.521    C35.99,65.931,35.755,66.164,35.468,66.164z M32.86,66.164h-0.521c-0.289,0-0.521-0.233-0.521-0.522    c0-0.288,0.233-0.521,0.521-0.521h0.521c0.288,0,0.521,0.233,0.521,0.521C33.381,65.931,33.147,66.164,32.86,66.164z"
   id="path868" />
	</g>
	<g
   id="g869">
		<path
   fill="#231F20"
   d="M89.079,87.102h-0.522c-0.288,0-0.521-0.233-0.521-0.522c0-0.288,0.233-0.521,0.521-0.521h0.522    c0.288,0,0.521,0.233,0.521,0.521C89.6,86.869,89.367,87.102,89.079,87.102z M86.47,87.102h-0.521    c-0.288,0-0.521-0.233-0.521-0.522c0-0.288,0.233-0.521,0.521-0.521h0.521c0.289,0,0.522,0.233,0.522,0.521    C86.992,86.869,86.759,87.102,86.47,87.102z M83.862,87.102h-0.521c-0.289,0-0.522-0.233-0.522-0.522    c0-0.288,0.233-0.521,0.522-0.521h0.521c0.288,0,0.521,0.233,0.521,0.521C84.384,86.869,84.15,87.102,83.862,87.102z     M81.254,87.102h-0.522c-0.288,0-0.521-0.233-0.521-0.522c0-0.288,0.233-0.521,0.521-0.521h0.522c0.288,0,0.521,0.233,0.521,0.521    C81.776,86.869,81.542,87.102,81.254,87.102z M78.646,87.102h-0.521c-0.289,0-0.521-0.233-0.521-0.522    c0-0.288,0.233-0.521,0.521-0.521h0.521c0.289,0,0.521,0.233,0.521,0.521C79.167,86.869,78.935,87.102,78.646,87.102z     M76.038,87.102h-0.521c-0.289,0-0.522-0.233-0.522-0.522c0-0.288,0.233-0.521,0.522-0.521h0.521c0.288,0,0.521,0.233,0.521,0.521    C76.56,86.869,76.326,87.102,76.038,87.102z M73.43,87.102h-0.521c-0.288,0-0.521-0.233-0.521-0.522    c0-0.288,0.233-0.521,0.521-0.521h0.521c0.289,0,0.522,0.233,0.522,0.521C73.952,86.869,73.718,87.102,73.43,87.102z     M70.822,87.102H70.3c-0.289,0-0.521-0.233-0.521-0.522c0-0.288,0.233-0.521,0.521-0.521h0.521c0.289,0,0.521,0.233,0.521,0.521    C71.343,86.869,71.11,87.102,70.822,87.102z M68.214,87.102h-0.521c-0.289,0-0.522-0.233-0.522-0.522    c0-0.288,0.233-0.521,0.522-0.521h0.521c0.288,0,0.521,0.233,0.521,0.521C68.735,86.869,68.502,87.102,68.214,87.102z"
   id="path869" />
	</g>
	<g
   id="g879">
		<path
   fill="#231F20"
   d="M152.011,209.987c-0.9,0-1.585-0.191-2.168-0.783l0.75-0.751c0.376,0.375,0.884,0.5,1.436,0.5    c0.684,0,1.05-0.259,1.05-0.734c0-0.208-0.058-0.383-0.184-0.5c-0.115-0.108-0.249-0.167-0.525-0.209l-0.717-0.1    c-0.509-0.074-0.885-0.233-1.151-0.492c-0.283-0.283-0.424-0.667-0.424-1.168c0-1.06,0.782-1.802,2.066-1.802    c0.818,0,1.412,0.2,1.919,0.692l-0.733,0.726c-0.375-0.358-0.826-0.408-1.219-0.408c-0.616,0-0.917,0.342-0.917,0.751    c0,0.149,0.049,0.309,0.176,0.425c0.116,0.108,0.308,0.2,0.55,0.234l0.701,0.1c0.542,0.075,0.884,0.225,1.135,0.458    c0.316,0.301,0.458,0.734,0.458,1.261C154.213,209.337,153.254,209.987,152.011,209.987z"
   id="path870" />
		<path
   fill="#231F20"
   d="M159.528,209.938v-3.462l-1.134,2.253h-0.784l-1.143-2.253v3.462h-1.159v-5.939h1.142l1.551,3.212    l1.545-3.212h1.143v5.939H159.528z"
   id="path871" />
		<path
   fill="#231F20"
   d="M165.672,209.337c-0.417,0.417-0.926,0.65-1.602,0.65s-1.192-0.233-1.61-0.65    c-0.6-0.601-0.583-1.343-0.583-2.369c0-1.025-0.017-1.768,0.583-2.368c0.418-0.417,0.935-0.651,1.61-0.651    s1.185,0.234,1.602,0.651c0.601,0.601,0.592,1.343,0.592,2.368C166.264,207.994,166.272,208.736,165.672,209.337z M164.812,205.3    c-0.167-0.192-0.426-0.316-0.742-0.316c-0.317,0-0.584,0.124-0.751,0.316c-0.226,0.25-0.283,0.526-0.283,1.668    c0,1.144,0.058,1.418,0.283,1.669c0.167,0.191,0.434,0.316,0.751,0.316c0.316,0,0.575-0.125,0.742-0.316    c0.226-0.251,0.293-0.525,0.293-1.669C165.105,205.826,165.038,205.55,164.812,205.3z"
   id="path872" />
		<path
   fill="#231F20"
   d="M171.046,209.337c-0.416,0.417-0.924,0.65-1.602,0.65c-0.675,0-1.191-0.233-1.608-0.65    c-0.601-0.601-0.584-1.343-0.584-2.369c0-1.025-0.017-1.768,0.584-2.368c0.417-0.417,0.934-0.651,1.608-0.651    c0.678,0,1.186,0.234,1.602,0.651c0.602,0.601,0.594,1.343,0.594,2.368C171.64,207.994,171.647,208.736,171.046,209.337z     M170.188,205.3c-0.167-0.192-0.426-0.316-0.743-0.316c-0.316,0-0.583,0.124-0.75,0.316c-0.226,0.25-0.283,0.526-0.283,1.668    c0,1.144,0.058,1.418,0.283,1.669c0.167,0.191,0.434,0.316,0.75,0.316c0.317,0,0.576-0.125,0.743-0.316    c0.226-0.251,0.293-0.525,0.293-1.669C170.48,205.826,170.413,205.55,170.188,205.3z"
   id="path873" />
		<path
   fill="#231F20"
   d="M174.929,205.033v4.904h-1.161v-4.904h-1.551v-1.035h4.262v1.035H174.929z"
   id="path874" />
		<path
   fill="#231F20"
   d="M180.595,209.938v-2.485h-2.01v2.485h-1.16v-5.939h1.16v2.428h2.01v-2.428h1.159v5.939H180.595z"
   id="path875" />
		<path
   fill="#231F20"
   d="M186.653,209.938l-2.352-3.646v3.646h-1.159v-5.939h1.034l2.353,3.637v-3.637h1.159v5.939H186.653z"
   id="path876" />
		<path
   fill="#231F20"
   d="M189.076,209.938v-5.939h3.912v1.035h-2.753v1.393h2.344v1.034h-2.344v1.443h2.753v1.034H189.076z"
   id="path877" />
		<path
   fill="#231F20"
   d="M195.76,209.987c-0.901,0-1.585-0.191-2.168-0.783l0.749-0.751c0.377,0.375,0.885,0.5,1.436,0.5    c0.684,0,1.051-0.259,1.051-0.734c0-0.208-0.059-0.383-0.184-0.5c-0.116-0.108-0.251-0.167-0.525-0.209l-0.718-0.1    c-0.508-0.074-0.884-0.233-1.151-0.492c-0.283-0.283-0.426-0.667-0.426-1.168c0-1.06,0.785-1.802,2.068-1.802    c0.819,0,1.41,0.2,1.92,0.692l-0.734,0.726c-0.374-0.358-0.826-0.408-1.217-0.408c-0.617,0-0.918,0.342-0.918,0.751    c0,0.149,0.05,0.309,0.175,0.425c0.116,0.108,0.309,0.2,0.551,0.234l0.7,0.1c0.542,0.075,0.885,0.225,1.136,0.458    c0.315,0.301,0.458,0.734,0.458,1.261C197.962,209.337,197.002,209.987,195.76,209.987z"
   id="path878" />
		<path
   fill="#231F20"
   d="M200.642,209.987c-0.901,0-1.586-0.191-2.168-0.783l0.75-0.751c0.375,0.375,0.884,0.5,1.434,0.5    c0.685,0,1.052-0.259,1.052-0.734c0-0.208-0.058-0.383-0.184-0.5c-0.116-0.108-0.249-0.167-0.525-0.209l-0.718-0.1    c-0.508-0.074-0.884-0.233-1.15-0.492c-0.283-0.283-0.426-0.667-0.426-1.168c0-1.06,0.784-1.802,2.067-1.802    c0.819,0,1.411,0.2,1.92,0.692l-0.733,0.726c-0.375-0.358-0.826-0.408-1.219-0.408c-0.616,0-0.917,0.342-0.917,0.751    c0,0.149,0.049,0.309,0.175,0.425c0.116,0.108,0.309,0.2,0.551,0.234l0.701,0.1c0.542,0.075,0.884,0.225,1.135,0.458    c0.316,0.301,0.458,0.734,0.458,1.261C202.844,209.337,201.884,209.987,200.642,209.987z"
   id="path879" />
	</g>
	<g
   id="g880">
		<polygon
   fill="#00A1A7"
   points="10.438,55.613 11.545,55.613 11.001,53.993   "
   id="polygon879" />
		<path
   fill="#00A1A7"
   d="M10.983,50.556c-2.537,0-4.593,2.056-4.593,4.592c0,2.537,2.057,4.592,4.593,4.592    c2.537,0,4.593-2.056,4.593-4.592C15.576,52.612,13.521,50.556,10.983,50.556z M12.04,57.133l-0.263-0.789h-1.583l-0.269,0.789    H9.019l1.62-4.454h0.681l1.628,4.454H12.04z"
   id="path880" />
	</g>
	<g
   id="g883">
		<path
   fill="#231F20"
   d="M11.282,66.08h-0.907v1.095h0.907c0.393,0,0.583-0.25,0.583-0.551    C11.865,66.324,11.675,66.08,11.282,66.08z"
   id="path881" />
		<path
   fill="#231F20"
   d="M11.802,64.786c0-0.307-0.206-0.514-0.577-0.514h-0.85v1.026h0.85    C11.596,65.298,11.802,65.092,11.802,64.786z"
   id="path882" />
		<path
   fill="#231F20"
   d="M10.985,61.194c-2.537,0-4.595,2.056-4.595,4.593c0,2.537,2.058,4.592,4.595,4.592    c2.536,0,4.592-2.056,4.592-4.592C15.577,63.25,13.521,61.194,10.985,61.194z M11.37,67.951H9.505v-4.454h1.789    c0.87,0,1.377,0.488,1.377,1.251c0,0.494-0.326,0.813-0.552,0.92c0.271,0.125,0.613,0.407,0.613,1    C12.733,67.5,12.165,67.951,11.37,67.951z"
   id="path883" />
	</g>
	<path
   fill="#DA4061"
   d="M10.986,71.833c-2.539,0-4.596,2.056-4.596,4.591c0,2.537,2.057,4.593,4.596,4.593   c2.536,0,4.591-2.056,4.591-4.593C15.577,73.889,13.521,71.833,10.986,71.833z M10.445,77.509c0.124,0.144,0.318,0.231,0.556,0.231   c0.438,0,0.662-0.275,0.75-0.632h0.882c-0.157,0.933-0.813,1.408-1.638,1.408c-0.489,0-0.888-0.175-1.202-0.488   c-0.45-0.451-0.438-1.008-0.438-1.777c0-0.77-0.012-1.327,0.438-1.777c0.314-0.313,0.713-0.488,1.202-0.488   c0.832,0,1.481,0.476,1.638,1.408h-0.882c-0.088-0.356-0.312-0.633-0.75-0.633c-0.238,0-0.432,0.088-0.556,0.232   c-0.169,0.188-0.22,0.4-0.22,1.257C10.225,77.108,10.275,77.322,10.445,77.509z"
   id="path884" />
	<g
   id="g889">
		<path
   fill="#231F20"
   d="M23.695,131.743l-1.159-2.369h-0.833v2.369h-1.159v-5.94h2.327c1.208,0,1.926,0.827,1.926,1.819    c0,0.834-0.507,1.352-1.084,1.56l1.326,2.562H23.695z M22.794,126.838h-1.092v1.568h1.092c0.509,0,0.841-0.325,0.841-0.784    C23.636,127.164,23.304,126.838,22.794,126.838z"
   id="path885" />
		<path
   fill="#231F20"
   d="M29.38,131.743l-0.351-1.052h-2.111l-0.359,1.052h-1.21l2.162-5.94h0.909l2.168,5.94H29.38z     M27.994,127.556l-0.75,2.16h1.475L27.994,127.556z"
   id="path886" />
		<path
   fill="#231F20"
   d="M34.836,131.743l-2.352-3.646v3.646h-1.159v-5.94h1.033l2.353,3.637v-3.637h1.16v5.94H34.836z"
   id="path887" />
		<path
   fill="#231F20"
   d="M40.92,131.117c-0.477,0.492-1.043,0.676-1.677,0.676c-0.65,0-1.184-0.233-1.602-0.651    c-0.601-0.6-0.585-1.342-0.585-2.369c0-1.026-0.016-1.768,0.585-2.369c0.417-0.417,0.933-0.651,1.602-0.651    c1.375,0,2.076,0.902,2.235,1.902h-1.167c-0.135-0.559-0.475-0.867-1.068-0.867c-0.318,0-0.577,0.125-0.742,0.317    c-0.226,0.25-0.285,0.526-0.285,1.667c0,1.143,0.059,1.427,0.285,1.677c0.165,0.191,0.424,0.309,0.742,0.309    c0.351,0,0.634-0.125,0.825-0.334c0.191-0.216,0.267-0.483,0.267-0.792v-0.225h-1.092v-0.968h2.243v0.867    C41.487,130.167,41.336,130.684,40.92,131.117z"
   id="path888" />
		<path
   fill="#231F20"
   d="M42.667,131.743v-5.94h3.912v1.035h-2.753v1.393h2.343v1.034h-2.343v1.444h2.753v1.034H42.667z"
   id="path889" />
	</g>
	<g
   id="g892">
		<path
   fill="#231F20"
   d="M28.204,209.987l-1.159-2.368h-0.833v2.368h-1.16v-5.939h2.327c1.21,0,1.928,0.826,1.928,1.818    c0,0.835-0.51,1.353-1.084,1.561l1.326,2.561H28.204z M27.304,205.083h-1.092v1.568h1.092c0.509,0,0.843-0.325,0.843-0.785    C28.147,205.408,27.813,205.083,27.304,205.083z"
   id="path890" />
		<path
   fill="#231F20"
   d="M34.105,209.387c-0.418,0.417-0.925,0.65-1.602,0.65c-0.677,0-1.192-0.233-1.61-0.65    c-0.601-0.601-0.584-1.343-0.584-2.369c0-1.025-0.017-1.768,0.584-2.368c0.418-0.417,0.933-0.651,1.61-0.651    c0.676,0,1.184,0.234,1.602,0.651c0.601,0.601,0.593,1.343,0.593,2.368C34.698,208.044,34.706,208.786,34.105,209.387z     M33.245,205.35c-0.167-0.192-0.424-0.316-0.742-0.316s-0.585,0.124-0.75,0.316c-0.226,0.25-0.285,0.526-0.285,1.668    c0,1.144,0.059,1.418,0.285,1.669c0.165,0.191,0.432,0.316,0.75,0.316s0.575-0.125,0.742-0.316    c0.226-0.251,0.293-0.525,0.293-1.669C33.539,205.876,33.471,205.6,33.245,205.35z"
   id="path891" />
		<path
   fill="#231F20"
   d="M40.863,209.987h-0.966l-1.094-3.604l-1.092,3.604h-0.968l-1.585-5.939h1.21l0.917,3.746l1.084-3.746    h0.868l1.084,3.746l0.927-3.746h1.208L40.863,209.987z"
   id="path892" />
	</g>
	<g
   id="g896">
		<path
   fill="#231F20"
   d="M25.439,269.323c-0.9,0-1.583-0.191-2.168-0.783l0.75-0.751c0.377,0.375,0.884,0.5,1.437,0.5    c0.683,0,1.049-0.259,1.049-0.734c0-0.208-0.057-0.383-0.184-0.5c-0.116-0.108-0.249-0.168-0.525-0.209l-0.717-0.101    c-0.507-0.074-0.884-0.232-1.151-0.491c-0.283-0.283-0.424-0.668-0.424-1.168c0-1.06,0.783-1.802,2.068-1.802    c0.817,0,1.41,0.2,1.917,0.692l-0.733,0.726c-0.375-0.358-0.825-0.409-1.216-0.409c-0.617,0-0.919,0.343-0.919,0.751    c0,0.15,0.051,0.309,0.175,0.425c0.118,0.109,0.31,0.201,0.55,0.234l0.701,0.1c0.542,0.076,0.884,0.226,1.135,0.459    c0.318,0.301,0.458,0.734,0.458,1.26C27.642,268.672,26.682,269.323,25.439,269.323z"
   id="path893" />
		<path
   fill="#231F20"
   d="M30.841,266.837v2.437h-1.151v-2.437l-1.785-3.503h1.259l1.109,2.394l1.092-2.394h1.261L30.841,266.837z"
   id="path894" />
		<path
   fill="#231F20"
   d="M36.855,269.273l-2.351-3.646v3.646h-1.16v-5.939h1.033l2.354,3.637v-3.637h1.159v5.939H36.855z"
   id="path895" />
		<path
   fill="#231F20"
   d="M41.263,269.323c-0.65,0-1.184-0.233-1.602-0.651c-0.599-0.6-0.583-1.343-0.583-2.368    c0-1.026-0.016-1.768,0.583-2.369c0.418-0.417,0.952-0.65,1.602-0.65c1.111,0,1.979,0.634,2.187,1.877h-1.176    c-0.118-0.476-0.417-0.843-1.002-0.843c-0.316,0-0.575,0.116-0.742,0.31c-0.224,0.249-0.292,0.533-0.292,1.676    s0.067,1.426,0.292,1.677c0.167,0.191,0.426,0.309,0.742,0.309c0.585,0,0.884-0.367,1.002-0.843h1.176    C43.241,268.689,42.365,269.323,41.263,269.323z"
   id="path896" />
	</g>
	<g
   id="g900">
		<path
   fill="#231F20"
   d="M25.463,313.081H22.98v-5.939h2.384c1.159,0,1.836,0.65,1.836,1.669c0,0.659-0.434,1.084-0.734,1.227    c0.359,0.166,0.817,0.542,0.817,1.334C27.283,312.479,26.523,313.081,25.463,313.081z M25.272,308.177h-1.133v1.367h1.133    c0.493,0,0.768-0.275,0.768-0.684C26.04,308.451,25.765,308.177,25.272,308.177z M25.348,310.587h-1.208v1.46h1.208    c0.525,0,0.776-0.334,0.776-0.734S25.873,310.587,25.348,310.587z"
   id="path897" />
		<path
   fill="#231F20"
   d="M31.849,313.081l-0.35-1.052h-2.111l-0.358,1.052h-1.21l2.162-5.939h0.909l2.168,5.939H31.849z     M30.464,308.894l-0.75,2.16h1.475L30.464,308.894z"
   id="path898" />
		<path
   fill="#231F20"
   d="M37.308,313.081l-2.354-3.646v3.646h-1.159v-5.939h1.035l2.352,3.637v-3.637h1.159v5.939H37.308z"
   id="path899" />
		<path
   fill="#231F20"
   d="M43.182,313.081l-1.526-2.703l-0.768,0.918v1.785h-1.16v-5.939h1.16v2.587l2.094-2.587h1.408l-1.968,2.361    l2.111,3.578H43.182z"
   id="path900" />
	</g>
	<g
   id="g906">
		<path
   fill="#231F20"
   d="M90.723,210.037c-0.65,0-1.184-0.233-1.602-0.65c-0.601-0.601-0.584-1.343-0.584-2.369    c0-1.025-0.017-1.768,0.584-2.368c0.418-0.417,0.952-0.651,1.602-0.651c1.108,0,1.977,0.635,2.185,1.878h-1.176    c-0.116-0.476-0.416-0.843-1-0.843c-0.318,0-0.577,0.116-0.742,0.309c-0.226,0.25-0.293,0.534-0.293,1.676    c0,1.144,0.067,1.427,0.293,1.677c0.165,0.191,0.424,0.309,0.742,0.309c0.585,0,0.884-0.366,1-0.842h1.176    C92.699,209.403,91.823,210.037,90.723,210.037z"
   id="path901" />
		<path
   fill="#231F20"
   d="M97.506,209.387c-0.416,0.417-0.925,0.65-1.602,0.65c-0.674,0-1.192-0.233-1.61-0.65    c-0.599-0.601-0.583-1.343-0.583-2.369c0-1.025-0.016-1.768,0.583-2.368c0.418-0.417,0.936-0.651,1.61-0.651    c0.676,0,1.186,0.234,1.602,0.651c0.601,0.601,0.593,1.343,0.593,2.368C98.099,208.044,98.107,208.786,97.506,209.387z     M96.648,205.35c-0.167-0.192-0.426-0.316-0.744-0.316c-0.316,0-0.583,0.124-0.75,0.316c-0.226,0.25-0.283,0.526-0.283,1.668    c0,1.144,0.057,1.418,0.283,1.669c0.167,0.191,0.434,0.316,0.75,0.316c0.318,0,0.577-0.125,0.744-0.316    c0.224-0.251,0.292-0.525,0.292-1.669C96.939,205.876,96.872,205.6,96.648,205.35z"
   id="path902" />
		<path
   fill="#231F20"
   d="M99.287,209.987v-5.939h1.159v4.905h2.694v1.034H99.287z"
   id="path903" />
		<path
   fill="#231F20"
   d="M106.08,210.037c-1.219,0-2.187-0.825-2.187-2.085v-3.904h1.159v3.862c0,0.685,0.401,1.093,1.027,1.093    c0.625,0,1.033-0.408,1.033-1.093v-3.862h1.15v3.904C108.264,209.212,107.296,210.037,106.08,210.037z"
   id="path904" />
		<path
   fill="#231F20"
   d="M113.78,209.987v-3.462l-1.134,2.253h-0.784l-1.143-2.253v3.462h-1.159v-5.939h1.143l1.551,3.212    l1.544-3.212h1.144v5.939H113.78z"
   id="path905" />
		<path
   fill="#231F20"
   d="M119.842,209.987l-2.354-3.645v3.645h-1.159v-5.939h1.035l2.351,3.638v-3.638h1.16v5.939H119.842z"
   id="path906" />
	</g>
	<g
   id="g910">
		<path
   fill="#231F20"
   d="M24.726,46.822H22.24v-5.939h2.386c1.16,0,1.834,0.651,1.834,1.669c0,0.659-0.432,1.084-0.733,1.227    c0.358,0.166,0.817,0.542,0.817,1.334C26.543,46.221,25.786,46.822,24.726,46.822z M24.535,41.918h-1.135v1.367h1.135    c0.491,0,0.766-0.275,0.766-0.684C25.301,42.193,25.025,41.918,24.535,41.918z M24.61,44.328h-1.21v1.46h1.21    c0.526,0,0.774-0.334,0.774-0.734S25.136,44.328,24.61,44.328z"
   id="path907" />
		<path
   fill="#231F20"
   d="M31.11,46.822l-0.351-1.051h-2.111l-0.359,1.051h-1.208l2.16-5.939h0.909l2.17,5.939H31.11z     M29.724,42.635l-0.75,2.16h1.478L29.724,42.635z"
   id="path908" />
		<path
   fill="#231F20"
   d="M36.568,46.822l-2.352-3.645v3.645h-1.159v-5.939h1.033l2.353,3.637v-3.637h1.16v5.939H36.568z"
   id="path909" />
		<path
   fill="#231F20"
   d="M42.442,46.822l-1.526-2.703l-0.766,0.917v1.785h-1.159v-5.939h1.159v2.586l2.093-2.586h1.41l-1.968,2.361    l2.111,3.578H42.442z"
   id="path910" />
	</g>
	<g
   id="g929">
		<path
   d="M84.607,19.098h-0.67l-1.29-3.82l-1.28,3.82h-0.67l-1.56-4.92h0.78l1.13,3.95l1.29-3.95h0.62l1.3,3.95l1.12-3.95h0.78    L84.607,19.098z"
   id="path911" />
		<path
   d="M89.957,19.098v-0.47c-0.193,0.194-0.396,0.33-0.61,0.41s-0.483,0.12-0.81,0.12c-0.34,0-0.613-0.034-0.82-0.1    c-0.207-0.066-0.397-0.183-0.57-0.35c-0.126-0.12-0.22-0.268-0.28-0.445s-0.09-0.362-0.09-0.555c0-0.44,0.147-0.787,0.44-1.04    c0.293-0.253,0.716-0.38,1.27-0.38h1.47v-0.47c0-0.36-0.095-0.63-0.285-0.81c-0.19-0.18-0.515-0.27-0.975-0.27    c-0.313,0-0.56,0.043-0.74,0.13c-0.18,0.087-0.347,0.233-0.5,0.44l-0.49-0.45c0.213-0.286,0.455-0.481,0.725-0.585    c0.27-0.103,0.608-0.155,1.015-0.155c0.667,0,1.162,0.14,1.485,0.42c0.323,0.28,0.485,0.687,0.485,1.22v3.34H89.957z     M89.957,16.828h-1.37c-0.74,0-1.11,0.29-1.11,0.87c0,0.287,0.09,0.499,0.27,0.635c0.18,0.137,0.47,0.205,0.87,0.205    c0.207,0,0.4-0.018,0.58-0.055c0.18-0.036,0.35-0.128,0.51-0.275c0.167-0.16,0.25-0.443,0.25-0.85V16.828z"
   id="path912" />
		<path
   d="M94.077,19.098h-0.64l-1.8-4.92h0.78l1.34,3.95l1.35-3.95h0.78L94.077,19.098z"
   id="path913" />
		<path
   d="M97.347,16.828c0,0.54,0.122,0.958,0.365,1.255c0.244,0.297,0.605,0.445,1.085,0.445c0.287,0,0.525-0.045,0.715-0.135    s0.381-0.231,0.575-0.425l0.49,0.43c-0.127,0.127-0.252,0.237-0.375,0.33c-0.124,0.094-0.257,0.172-0.4,0.235    c-0.144,0.063-0.299,0.111-0.465,0.145c-0.167,0.034-0.354,0.05-0.56,0.05c-0.327,0-0.623-0.05-0.89-0.15    c-0.267-0.1-0.494-0.253-0.68-0.46s-0.33-0.468-0.43-0.785c-0.1-0.316-0.15-0.691-0.15-1.125c0-0.807,0.18-1.428,0.54-1.865    c0.36-0.437,0.854-0.655,1.48-0.655c0.646,0,1.145,0.212,1.495,0.635c0.35,0.424,0.525,1.009,0.525,1.755v0.32H97.347z     M99.957,16.288c-0.007-0.1-0.013-0.187-0.02-0.26s-0.015-0.14-0.025-0.2c-0.01-0.06-0.025-0.118-0.045-0.175    s-0.043-0.119-0.07-0.185c-0.106-0.227-0.258-0.407-0.455-0.54c-0.197-0.133-0.429-0.2-0.695-0.2s-0.499,0.067-0.695,0.2    c-0.197,0.133-0.349,0.313-0.455,0.54c-0.033,0.066-0.059,0.128-0.075,0.185s-0.03,0.115-0.04,0.175    c-0.01,0.06-0.017,0.127-0.02,0.2c-0.004,0.073-0.009,0.16-0.015,0.26H99.957z"
   id="path914" />
		<path
   d="M103.576,19.098c-0.213,0-0.398-0.035-0.555-0.105c-0.157-0.07-0.287-0.165-0.39-0.285c-0.104-0.12-0.182-0.26-0.235-0.42    c-0.054-0.16-0.08-0.33-0.08-0.51v-3.05h-0.62v-0.55h0.62v-1.51h0.72v1.51h1.05v0.55h-1.05v3.03c0,0.227,0.053,0.403,0.16,0.53    c0.106,0.127,0.277,0.19,0.51,0.19h0.38v0.62H103.576z"
   id="path915" />
		<path
   d="M108.307,19.098v-0.47c-0.193,0.194-0.396,0.33-0.61,0.41s-0.483,0.12-0.81,0.12c-0.34,0-0.613-0.034-0.82-0.1    s-0.397-0.183-0.57-0.35c-0.126-0.12-0.22-0.268-0.28-0.445s-0.09-0.362-0.09-0.555c0-0.44,0.147-0.787,0.44-1.04    c0.293-0.253,0.717-0.38,1.27-0.38h1.471v-0.47c0-0.36-0.096-0.63-0.285-0.81c-0.19-0.18-0.516-0.27-0.975-0.27    c-0.314,0-0.561,0.043-0.74,0.13c-0.181,0.087-0.347,0.233-0.5,0.44l-0.49-0.45c0.213-0.286,0.455-0.481,0.725-0.585    c0.27-0.103,0.608-0.155,1.016-0.155c0.666,0,1.161,0.14,1.484,0.42c0.323,0.28,0.485,0.687,0.485,1.22v3.34H108.307z     M108.307,16.828h-1.371c-0.739,0-1.109,0.29-1.109,0.87c0,0.287,0.09,0.499,0.27,0.635c0.181,0.137,0.471,0.205,0.871,0.205    c0.206,0,0.399-0.018,0.58-0.055c0.18-0.036,0.35-0.128,0.51-0.275c0.166-0.16,0.25-0.443,0.25-0.85V16.828z"
   id="path916" />
		<path
   d="M114.687,16.638c0,0.4-0.039,0.785-0.115,1.155c-0.076,0.37-0.238,0.682-0.484,0.935c-0.135,0.134-0.304,0.239-0.51,0.315    c-0.207,0.077-0.438,0.115-0.69,0.115c-0.28,0-0.53-0.043-0.75-0.13c-0.221-0.087-0.434-0.26-0.641-0.52v0.59h-0.72v-7.12h0.72    v2.77c0.207-0.253,0.422-0.421,0.646-0.505s0.472-0.125,0.745-0.125c0.253,0,0.483,0.039,0.69,0.115    c0.206,0.077,0.375,0.182,0.51,0.315c0.119,0.12,0.219,0.26,0.299,0.42c0.08,0.16,0.143,0.33,0.186,0.51    c0.043,0.18,0.074,0.369,0.09,0.565C114.679,16.24,114.687,16.438,114.687,16.638z M113.966,16.638c0-0.24-0.014-0.473-0.039-0.7    c-0.027-0.227-0.084-0.426-0.17-0.6c-0.087-0.173-0.212-0.313-0.375-0.42c-0.163-0.106-0.379-0.16-0.646-0.16    c-0.273,0-0.49,0.053-0.65,0.16c-0.16,0.107-0.285,0.247-0.375,0.42s-0.148,0.373-0.174,0.6c-0.027,0.227-0.041,0.46-0.041,0.7    c0,0.24,0.014,0.474,0.041,0.7c0.025,0.227,0.084,0.426,0.174,0.6c0.09,0.174,0.215,0.313,0.375,0.42    c0.16,0.107,0.377,0.16,0.65,0.16c0.267,0,0.482-0.053,0.646-0.16c0.163-0.106,0.288-0.246,0.375-0.42    c0.086-0.173,0.143-0.373,0.17-0.6C113.952,17.112,113.966,16.878,113.966,16.638z"
   id="path917" />
		<path
   d="M117.456,19.098c-0.434,0-0.75-0.125-0.95-0.375c-0.199-0.25-0.3-0.562-0.3-0.935v-5.81h0.72v5.78    c0,0.24,0.047,0.42,0.141,0.54c0.093,0.12,0.267,0.18,0.52,0.18h0.391v0.62H117.456z"
   id="path918" />
		<path
   d="M119.616,16.828c0,0.54,0.122,0.958,0.365,1.255c0.243,0.297,0.605,0.445,1.085,0.445c0.287,0,0.525-0.045,0.715-0.135    c0.19-0.09,0.382-0.231,0.575-0.425l0.49,0.43c-0.127,0.127-0.252,0.237-0.375,0.33c-0.123,0.094-0.257,0.172-0.4,0.235    c-0.144,0.063-0.298,0.111-0.465,0.145c-0.167,0.034-0.354,0.05-0.56,0.05c-0.327,0-0.624-0.05-0.891-0.15    c-0.267-0.1-0.493-0.253-0.68-0.46s-0.33-0.468-0.43-0.785c-0.101-0.316-0.15-0.691-0.15-1.125c0-0.807,0.18-1.428,0.54-1.865    c0.36-0.437,0.854-0.655,1.48-0.655c0.646,0,1.145,0.212,1.494,0.635c0.351,0.424,0.525,1.009,0.525,1.755v0.32H119.616z     M122.227,16.288c-0.007-0.1-0.014-0.187-0.02-0.26c-0.007-0.073-0.016-0.14-0.025-0.2s-0.025-0.118-0.045-0.175    c-0.021-0.057-0.044-0.119-0.07-0.185c-0.106-0.227-0.258-0.407-0.455-0.54c-0.196-0.133-0.428-0.2-0.694-0.2    c-0.268,0-0.499,0.067-0.695,0.2c-0.197,0.133-0.349,0.313-0.455,0.54c-0.033,0.066-0.059,0.128-0.075,0.185    s-0.03,0.115-0.04,0.175s-0.017,0.127-0.02,0.2c-0.004,0.073-0.009,0.16-0.016,0.26H122.227z"
   id="path919" />
		<path
   d="M130.716,16.638c0,0.38-0.039,0.738-0.115,1.075c-0.076,0.336-0.238,0.631-0.485,0.885    c-0.173,0.173-0.376,0.31-0.609,0.41c-0.233,0.1-0.5,0.15-0.8,0.15c-0.301,0-0.567-0.05-0.801-0.15    c-0.233-0.1-0.437-0.237-0.609-0.41c-0.127-0.126-0.229-0.265-0.306-0.415c-0.076-0.15-0.137-0.307-0.18-0.47    c-0.043-0.164-0.073-0.335-0.09-0.515c-0.017-0.18-0.025-0.367-0.025-0.56c0-0.38,0.037-0.738,0.11-1.075    c0.073-0.336,0.236-0.631,0.49-0.885c0.173-0.173,0.376-0.31,0.609-0.41s0.5-0.15,0.801-0.15c0.3,0,0.566,0.05,0.8,0.15    s0.437,0.237,0.609,0.41c0.254,0.253,0.417,0.548,0.49,0.885C130.679,15.9,130.716,16.258,130.716,16.638z M129.996,16.638    c0-0.28-0.021-0.558-0.061-0.835s-0.149-0.505-0.33-0.685c-0.24-0.24-0.54-0.36-0.899-0.36c-0.354,0-0.65,0.12-0.891,0.36    c-0.18,0.18-0.291,0.408-0.335,0.685c-0.043,0.277-0.064,0.555-0.064,0.835c0,0.14,0.003,0.28,0.01,0.42s0.023,0.277,0.05,0.41    s0.066,0.258,0.12,0.375s0.127,0.222,0.22,0.315c0.24,0.24,0.537,0.36,0.891,0.36c0.359,0,0.659-0.12,0.899-0.36    c0.181-0.187,0.29-0.417,0.33-0.69S129.996,16.918,129.996,16.638z"
   id="path920" />
		<path
   d="M135.807,17.658c0,0.473-0.184,0.842-0.55,1.105c-0.367,0.263-0.851,0.395-1.45,0.395c-0.42,0-0.795-0.054-1.125-0.16    s-0.629-0.29-0.896-0.55l0.48-0.48c0.193,0.2,0.42,0.345,0.68,0.435c0.26,0.09,0.543,0.135,0.851,0.135    c0.413,0,0.734-0.071,0.965-0.215c0.229-0.144,0.345-0.362,0.345-0.655c0-0.22-0.063-0.388-0.19-0.505    c-0.126-0.117-0.336-0.188-0.63-0.215l-0.81-0.07c-0.48-0.04-0.845-0.167-1.095-0.38s-0.375-0.526-0.375-0.94    c0-0.227,0.045-0.428,0.135-0.605s0.215-0.327,0.375-0.45c0.16-0.123,0.35-0.218,0.57-0.285c0.22-0.067,0.463-0.1,0.729-0.1    c0.36,0,0.688,0.043,0.985,0.13c0.296,0.087,0.558,0.22,0.785,0.4l-0.471,0.47c-0.173-0.133-0.371-0.231-0.595-0.295    s-0.462-0.095-0.715-0.095c-0.36,0-0.634,0.072-0.82,0.215c-0.187,0.143-0.28,0.341-0.28,0.595c0,0.22,0.07,0.387,0.21,0.5    c0.141,0.113,0.363,0.187,0.671,0.22l0.77,0.07c0.213,0.02,0.41,0.057,0.59,0.11c0.18,0.054,0.333,0.132,0.46,0.235    c0.127,0.103,0.226,0.235,0.295,0.395C135.771,17.228,135.807,17.425,135.807,17.658z"
   id="path921" />
		<path
   d="M140.746,18.428c-0.253,0.273-0.501,0.463-0.745,0.57c-0.243,0.106-0.534,0.16-0.875,0.16    c-0.313,0-0.602-0.052-0.864-0.155c-0.264-0.103-0.494-0.26-0.69-0.47s-0.35-0.473-0.46-0.79c-0.11-0.316-0.165-0.685-0.165-1.105    s0.055-0.787,0.165-1.1c0.11-0.313,0.264-0.575,0.46-0.785c0.196-0.21,0.427-0.368,0.69-0.475c0.263-0.107,0.551-0.16,0.864-0.16    c0.341,0,0.632,0.053,0.875,0.16c0.244,0.106,0.492,0.296,0.745,0.57l-0.489,0.46c-0.188-0.207-0.364-0.35-0.53-0.43    c-0.167-0.08-0.367-0.12-0.601-0.12c-0.239,0-0.456,0.046-0.649,0.14c-0.193,0.094-0.356,0.233-0.49,0.42    c-0.113,0.16-0.195,0.341-0.245,0.545c-0.05,0.203-0.075,0.461-0.075,0.775s0.025,0.572,0.075,0.775    c0.05,0.204,0.132,0.385,0.245,0.545c0.134,0.187,0.297,0.327,0.49,0.42c0.193,0.094,0.41,0.14,0.649,0.14    c0.233,0,0.434-0.042,0.601-0.125c0.166-0.083,0.343-0.228,0.53-0.435L140.746,18.428z"
   id="path922" />
		<path
   d="M142.076,12.778v-0.81h0.81v0.81H142.076z M142.116,19.098v-4.92h0.72v4.92H142.116z"
   id="path923" />
		<path
   d="M145.866,19.098c-0.434,0-0.75-0.125-0.95-0.375c-0.199-0.25-0.3-0.562-0.3-0.935v-5.81h0.72v5.78    c0,0.24,0.047,0.42,0.141,0.54c0.093,0.12,0.267,0.18,0.52,0.18h0.391v0.62H145.866z"
   id="path924" />
		<path
   d="M148.806,19.098c-0.434,0-0.75-0.125-0.95-0.375c-0.199-0.25-0.3-0.562-0.3-0.935v-5.81h0.72v5.78    c0,0.24,0.047,0.42,0.141,0.54c0.093,0.12,0.267,0.18,0.52,0.18h0.391v0.62H148.806z"
   id="path925" />
		<path
   d="M153.306,19.098v-0.47c-0.194,0.194-0.397,0.33-0.61,0.41c-0.214,0.08-0.483,0.12-0.811,0.12    c-0.34,0-0.613-0.034-0.819-0.1c-0.207-0.066-0.396-0.183-0.57-0.35c-0.127-0.12-0.22-0.268-0.28-0.445    c-0.06-0.177-0.09-0.362-0.09-0.555c0-0.44,0.146-0.787,0.44-1.04c0.293-0.253,0.717-0.38,1.27-0.38h1.471v-0.47    c0-0.36-0.096-0.63-0.285-0.81c-0.19-0.18-0.516-0.27-0.976-0.27c-0.313,0-0.56,0.043-0.739,0.13    c-0.181,0.087-0.347,0.233-0.5,0.44l-0.49-0.45c0.213-0.286,0.455-0.481,0.725-0.585c0.271-0.103,0.608-0.155,1.016-0.155    c0.666,0,1.161,0.14,1.484,0.42c0.323,0.28,0.485,0.687,0.485,1.22v3.34H153.306z M153.306,16.828h-1.37    c-0.74,0-1.11,0.29-1.11,0.87c0,0.287,0.09,0.499,0.271,0.635c0.18,0.137,0.47,0.205,0.869,0.205c0.207,0,0.4-0.018,0.58-0.055    c0.181-0.036,0.351-0.128,0.511-0.275c0.166-0.16,0.25-0.443,0.25-0.85V16.828z"
   id="path926" />
		<path
   d="M157.156,19.098c-0.214,0-0.398-0.035-0.556-0.105c-0.156-0.07-0.286-0.165-0.39-0.285c-0.104-0.12-0.182-0.26-0.235-0.42    c-0.053-0.16-0.08-0.33-0.08-0.51v-3.05h-0.619v-0.55h0.619v-1.51h0.721v1.51h1.05v0.55h-1.05v3.03c0,0.227,0.053,0.403,0.16,0.53    c0.106,0.127,0.276,0.19,0.51,0.19h0.38v0.62H157.156z"
   id="path927" />
		<path
   d="M162.855,16.638c0,0.38-0.039,0.738-0.115,1.075c-0.076,0.336-0.238,0.631-0.485,0.885    c-0.173,0.173-0.376,0.31-0.609,0.41c-0.233,0.1-0.5,0.15-0.8,0.15c-0.301,0-0.567-0.05-0.801-0.15    c-0.233-0.1-0.437-0.237-0.609-0.41c-0.127-0.126-0.229-0.265-0.306-0.415c-0.076-0.15-0.137-0.307-0.18-0.47    c-0.043-0.164-0.073-0.335-0.09-0.515c-0.017-0.18-0.025-0.367-0.025-0.56c0-0.38,0.037-0.738,0.11-1.075    c0.073-0.336,0.236-0.631,0.49-0.885c0.173-0.173,0.376-0.31,0.609-0.41s0.5-0.15,0.801-0.15c0.3,0,0.566,0.05,0.8,0.15    s0.437,0.237,0.609,0.41c0.254,0.253,0.417,0.548,0.49,0.885C162.818,15.9,162.855,16.258,162.855,16.638z M162.136,16.638    c0-0.28-0.021-0.558-0.061-0.835s-0.149-0.505-0.33-0.685c-0.24-0.24-0.54-0.36-0.899-0.36c-0.354,0-0.65,0.12-0.891,0.36    c-0.18,0.18-0.291,0.408-0.335,0.685c-0.043,0.277-0.064,0.555-0.064,0.835c0,0.14,0.003,0.28,0.01,0.42s0.023,0.277,0.05,0.41    s0.066,0.258,0.12,0.375s0.127,0.222,0.22,0.315c0.24,0.24,0.537,0.36,0.891,0.36c0.359,0,0.659-0.12,0.899-0.36    c0.181-0.187,0.29-0.417,0.33-0.69S162.136,16.918,162.136,16.638z"
   id="path928" />
		<path
   d="M167.146,15.118c-0.134-0.133-0.261-0.227-0.381-0.28c-0.119-0.054-0.276-0.08-0.47-0.08c-0.18,0-0.343,0.033-0.49,0.1    c-0.146,0.067-0.27,0.16-0.369,0.28c-0.101,0.12-0.179,0.26-0.235,0.42s-0.085,0.333-0.085,0.52v3.02h-0.72v-4.92h0.72v0.6    c0.133-0.207,0.325-0.369,0.575-0.485c0.25-0.116,0.518-0.175,0.805-0.175c0.233,0,0.445,0.033,0.635,0.1    c0.19,0.066,0.372,0.187,0.545,0.36L167.146,15.118z"
   id="path929" />
	</g>
</g>
<g
   id="decoupe"
   display="none">
	
		<path
   display="inline"
   fill="none"
   stroke="#ED312D"
   stroke-width="0.2835"
   stroke-linecap="round"
   stroke-linejoin="round"
   stroke-miterlimit="10"
   d="   M17.441,371.008c0,2.613,2.119,4.73,4.731,4.73s4.73-2.117,4.73-4.73s-2.118-4.729-4.73-4.729S17.441,368.395,17.441,371.008"
   id="path930" />
	
		<path
   display="inline"
   fill="none"
   stroke="#ED312D"
   stroke-width="0.2835"
   stroke-linecap="round"
   stroke-linejoin="round"
   stroke-miterlimit="10"
   d="   M17.441,8.869c0,2.612,2.119,4.729,4.731,4.729s4.73-2.117,4.73-4.729s-2.118-4.729-4.73-4.729S17.441,6.256,17.441,8.869"
   id="path931" />
	
		<path
   display="inline"
   fill="none"
   stroke="#ED312D"
   stroke-width="0.2835"
   stroke-linecap="round"
   stroke-linejoin="round"
   stroke-miterlimit="10"
   d="   M182.637,371.008c0,2.613,2.12,4.73,4.73,4.73c2.611,0,4.731-2.117,4.731-4.73s-2.12-4.729-4.731-4.729   C184.757,366.278,182.637,368.395,182.637,371.008"
   id="path932" />
	
		<path
   display="inline"
   fill="none"
   stroke="#ED312D"
   stroke-width="0.2835"
   stroke-linecap="round"
   stroke-linejoin="round"
   stroke-miterlimit="10"
   d="   M182.637,8.869c0,2.612,2.12,4.729,4.73,4.729c2.611,0,4.731-2.117,4.731-4.729s-2.12-4.729-4.731-4.729   C184.757,4.139,182.637,6.256,182.637,8.869"
   id="path933" />
	
		<rect
   display="inline"
   fill="none"
   stroke="#ED312D"
   stroke-width="0.2835"
   stroke-linecap="round"
   stroke-linejoin="round"
   stroke-miterlimit="10"
   width="209.303"
   height="379.877"
   id="rect933" />
	
		<path
   display="inline"
   fill="none"
   stroke="#ED312D"
   stroke-width="0.2835"
   stroke-linecap="round"
   stroke-linejoin="round"
   stroke-miterlimit="10"
   d="   M23.842,328.438c0,5.225,4.236,9.461,9.459,9.461c5.225,0,9.461-4.236,9.461-9.461c0-5.224-4.237-9.46-9.461-9.46   C28.078,318.978,23.842,323.214,23.842,328.438"
   id="path934" />
	
		<path
   display="inline"
   fill="none"
   stroke="#ED312D"
   stroke-width="0.2835"
   stroke-linecap="round"
   stroke-linejoin="round"
   stroke-miterlimit="10"
   d="   M59.523,328.438c0,5.225,4.237,9.461,9.46,9.461c5.225,0,9.46-4.236,9.46-9.461c0-5.224-4.236-9.46-9.46-9.46   C63.76,318.978,59.523,323.214,59.523,328.438"
   id="path935" />
	
		<path
   display="inline"
   fill="none"
   stroke="#ED312D"
   stroke-width="0.2835"
   stroke-linecap="round"
   stroke-linejoin="round"
   stroke-miterlimit="10"
   d="   M95.205,328.438c0,5.225,4.237,9.461,9.461,9.461c5.223,0,9.459-4.236,9.459-9.461c0-5.224-4.236-9.46-9.459-9.46   C99.442,318.978,95.205,323.214,95.205,328.438"
   id="path936" />
	
		<path
   display="inline"
   fill="none"
   stroke="#ED312D"
   stroke-width="0.2835"
   stroke-linecap="round"
   stroke-linejoin="round"
   stroke-miterlimit="10"
   d="   M130.888,328.438c0,5.225,4.234,9.461,9.46,9.461s9.46-4.236,9.46-9.461c0-5.224-4.234-9.46-9.46-9.46   S130.888,323.214,130.888,328.438"
   id="path937" />
	
		<path
   display="inline"
   fill="none"
   stroke="#ED312D"
   stroke-width="0.2835"
   stroke-linecap="round"
   stroke-linejoin="round"
   stroke-miterlimit="10"
   d="   M166.569,328.438c0,5.225,4.235,9.461,9.461,9.461c5.224,0,9.459-4.236,9.459-9.461c0-5.224-4.235-9.46-9.459-9.46   C170.805,318.978,166.569,323.214,166.569,328.438"
   id="path938" />
	
		<path
   display="inline"
   fill="none"
   stroke="#ED312D"
   stroke-width="0.2835"
   stroke-linecap="round"
   stroke-linejoin="round"
   stroke-miterlimit="10"
   d="   M23.842,285.277c0,5.225,4.236,9.46,9.459,9.46c5.225,0,9.461-4.235,9.461-9.46c0-5.224-4.237-9.461-9.461-9.461   C28.078,275.816,23.842,280.054,23.842,285.277"
   id="path939" />
	
		<path
   display="inline"
   fill="none"
   stroke="#ED312D"
   stroke-width="0.2835"
   stroke-linecap="round"
   stroke-linejoin="round"
   stroke-miterlimit="10"
   d="   M59.523,285.277c0,5.225,4.237,9.46,9.46,9.46c5.225,0,9.46-4.235,9.46-9.46c0-5.224-4.236-9.461-9.46-9.461   C63.76,275.816,59.523,280.054,59.523,285.277"
   id="path940" />
	
		<path
   display="inline"
   fill="none"
   stroke="#ED312D"
   stroke-width="0.2835"
   stroke-linecap="round"
   stroke-linejoin="round"
   stroke-miterlimit="10"
   d="   M95.205,285.277c0,5.225,4.237,9.46,9.461,9.46c5.223,0,9.459-4.235,9.459-9.46c0-5.224-4.236-9.461-9.459-9.461   C99.442,275.816,95.205,280.054,95.205,285.277"
   id="path941" />
	
		<path
   display="inline"
   fill="none"
   stroke="#ED312D"
   stroke-width="0.2835"
   stroke-linecap="round"
   stroke-linejoin="round"
   stroke-miterlimit="10"
   d="   M130.888,285.277c0,5.225,4.234,9.46,9.46,9.46s9.46-4.235,9.46-9.46c0-5.224-4.234-9.461-9.46-9.461   S130.888,280.054,130.888,285.277"
   id="path942" />
	
		<path
   display="inline"
   fill="none"
   stroke="#ED312D"
   stroke-width="0.2835"
   stroke-linecap="round"
   stroke-linejoin="round"
   stroke-miterlimit="10"
   d="   M166.569,285.277c0,5.225,4.235,9.46,9.461,9.46c5.224,0,9.459-4.235,9.459-9.46c0-5.224-4.235-9.461-9.459-9.461   C170.805,275.816,166.569,280.054,166.569,285.277"
   id="path943" />
	
		<path
   display="inline"
   fill="none"
   stroke="#ED312D"
   stroke-width="0.2835"
   stroke-linecap="round"
   stroke-linejoin="round"
   stroke-miterlimit="10"
   d="   M23.842,230.823c0,5.224,4.236,9.46,9.459,9.46c5.225,0,9.461-4.236,9.461-9.46c0-5.225-4.237-9.46-9.461-9.46   C28.078,221.363,23.842,225.599,23.842,230.823"
   id="path944" />
	
		<path
   display="inline"
   fill="none"
   stroke="#ED312D"
   stroke-width="0.2835"
   stroke-linecap="round"
   stroke-linejoin="round"
   stroke-miterlimit="10"
   d="   M95.205,230.823c0,5.224,4.237,9.46,9.461,9.46c5.223,0,9.459-4.236,9.459-9.46c0-5.225-4.236-9.46-9.459-9.46   C99.442,221.363,95.205,225.599,95.205,230.823"
   id="path945" />
	
		<path
   display="inline"
   fill="none"
   stroke="#ED312D"
   stroke-width="0.2835"
   stroke-linecap="round"
   stroke-linejoin="round"
   stroke-miterlimit="10"
   d="   M166.569,230.823c0,5.224,4.235,9.46,9.461,9.46c5.224,0,9.459-4.236,9.459-9.46c0-5.225-4.235-9.46-9.459-9.46   C170.805,221.363,166.569,225.599,166.569,230.823"
   id="path946" />
	
		<path
   display="inline"
   fill="none"
   stroke="#ED312D"
   stroke-width="0.2835"
   stroke-linecap="round"
   stroke-linejoin="round"
   stroke-miterlimit="10"
   d="   M22.216,174.507c0,6.123,4.962,11.086,11.085,11.086c6.124,0,11.087-4.963,11.087-11.086s-4.963-11.086-11.087-11.086   C27.178,163.421,22.216,168.384,22.216,174.507"
   id="path947" />
	
		<path
   display="inline"
   fill="none"
   stroke="#ED312D"
   stroke-width="0.2835"
   stroke-linecap="round"
   stroke-linejoin="round"
   stroke-miterlimit="10"
   d="   M93.58,174.507c0,6.123,4.964,11.086,11.087,11.086c6.123,0,11.084-4.963,11.084-11.086s-4.962-11.086-11.084-11.086   C98.543,163.421,93.58,168.384,93.58,174.507"
   id="path948" />
	
		<path
   display="inline"
   fill="none"
   stroke="#ED312D"
   stroke-width="0.2835"
   stroke-linecap="round"
   stroke-linejoin="round"
   stroke-miterlimit="10"
   d="   M164.943,174.507c0,6.123,4.964,11.086,11.087,11.086c6.122,0,11.085-4.963,11.085-11.086s-4.963-11.086-11.085-11.086   C169.907,163.421,164.943,168.384,164.943,174.507"
   id="path949" />
	
		<path
   display="inline"
   fill="none"
   stroke="#ED312D"
   stroke-width="0.2835"
   stroke-linecap="round"
   stroke-linejoin="round"
   stroke-miterlimit="10"
   d="   M93.58,86.292c0,6.124,4.964,11.087,11.087,11.087c6.123,0,11.084-4.963,11.084-11.087c0-6.122-4.962-11.085-11.084-11.085   C98.543,75.207,93.58,80.169,93.58,86.292"
   id="path950" />
	
		<path
   display="inline"
   fill="none"
   stroke="#ED312D"
   stroke-width="0.2835"
   stroke-linecap="round"
   stroke-linejoin="round"
   stroke-miterlimit="10"
   d="   M164.943,86.292c0,6.124,4.964,11.087,11.087,11.087c6.122,0,11.085-4.963,11.085-11.087c0-6.122-4.963-11.085-11.085-11.085   C169.907,75.207,164.943,80.169,164.943,86.292"
   id="path951" />
	
		<path
   display="inline"
   fill="none"
   stroke="#ED312D"
   stroke-width="0.2835"
   stroke-linecap="round"
   stroke-linejoin="round"
   stroke-miterlimit="10"
   d="   M18.521,106.957c0,8.163,6.617,14.781,14.78,14.781c8.165,0,14.782-6.618,14.782-14.781c0-8.164-6.617-14.781-14.782-14.781   C25.139,92.176,18.521,98.793,18.521,106.957"
   id="path952" />
	
		<path
   display="inline"
   fill="none"
   stroke="#ED312D"
   stroke-width="0.2835"
   stroke-linecap="round"
   stroke-linejoin="round"
   stroke-miterlimit="10"
   d="   M18.521,65.628c0,8.164,6.617,14.782,14.78,14.782c8.165,0,14.782-6.618,14.782-14.782c0-8.163-6.617-14.781-14.782-14.781   C25.139,50.847,18.521,57.465,18.521,65.628"
   id="path953" />
	
		<path
   display="inline"
   fill="none"
   stroke="#ED312D"
   stroke-width="0.2835"
   stroke-linecap="round"
   stroke-linejoin="round"
   stroke-miterlimit="10"
   d="   M56.893,106.957c0,2.53,2.051,4.582,4.583,4.582c2.53,0,4.581-2.052,4.581-4.582c0-2.532-2.051-4.583-4.581-4.583   C58.944,102.374,56.893,104.425,56.893,106.957"
   id="path954" />
	
		<path
   display="inline"
   fill="none"
   stroke="#ED312D"
   stroke-width="0.2835"
   stroke-linecap="round"
   stroke-linejoin="round"
   stroke-miterlimit="10"
   d="   M56.893,65.628c0,2.531,2.051,4.582,4.583,4.582c2.53,0,4.581-2.051,4.581-4.582c0-2.531-2.051-4.582-4.581-4.582   C58.944,61.046,56.893,63.097,56.893,65.628"
   id="path955" />
	
		<path
   display="inline"
   fill="none"
   stroke="#ED312D"
   stroke-width="0.2835"
   stroke-linecap="round"
   stroke-linejoin="round"
   stroke-miterlimit="10"
   d="   M56.893,86.292c0,2.531,2.051,4.583,4.583,4.583c2.53,0,4.581-2.052,4.581-4.583c0-2.53-2.051-4.582-4.581-4.582   C58.944,81.709,56.893,83.762,56.893,86.292"
   id="path956" />
</g>
<g
   id="widgets"
   display="none">
	
		<rect
   id="PJ301_1_"
   x="21.806"
   y="316.939"
   display="inline"
   fill="none"
   stroke="#000000"
   stroke-miterlimit="10"
   width="22.992"
   height="22.996" />
	
		<rect
   id="PJ301_2_"
   x="57.509"
   y="316.939"
   display="inline"
   fill="none"
   stroke="#000000"
   stroke-miterlimit="10"
   width="22.992"
   height="22.996" />
	
		<rect
   id="PJ301_3_"
   x="93.274"
   y="316.939"
   display="inline"
   fill="none"
   stroke="#000000"
   stroke-miterlimit="10"
   width="22.992"
   height="22.996" />
	
		<rect
   id="PJ301_4_"
   x="128.852"
   y="316.939"
   display="inline"
   fill="none"
   stroke="#000000"
   stroke-miterlimit="10"
   width="22.992"
   height="22.996" />
	
		<rect
   id="PJ301_5_"
   x="164.533"
   y="316.939"
   display="inline"
   fill="none"
   stroke="#000000"
   stroke-miterlimit="10"
   width="22.992"
   height="22.996" />
	
		<rect
   id="PJ301_10_"
   x="21.806"
   y="273.779"
   display="inline"
   fill="none"
   stroke="#000000"
   stroke-miterlimit="10"
   width="22.992"
   height="22.996" />
	
		<rect
   id="PJ301_9_"
   x="57.509"
   y="273.779"
   display="inline"
   fill="none"
   stroke="#000000"
   stroke-miterlimit="10"
   width="22.992"
   height="22.996" />
	
		<rect
   id="PJ301_8_"
   x="93.274"
   y="273.779"
   display="inline"
   fill="none"
   stroke="#000000"
   stroke-miterlimit="10"
   width="22.992"
   height="22.996" />
	
		<rect
   id="PJ301_7_"
   x="128.852"
   y="273.779"
   display="inline"
   fill="none"
   stroke="#000000"
   stroke-miterlimit="10"
   width="22.992"
   height="22.996" />
	
		<rect
   id="PJ301_6_"
   x="164.533"
   y="273.779"
   display="inline"
   fill="none"
   stroke="#000000"
   stroke-miterlimit="10"
   width="22.992"
   height="22.996" />
	
		<rect
   id="PJ301_13_"
   x="21.806"
   y="219.325"
   display="inline"
   fill="none"
   stroke="#000000"
   stroke-miterlimit="10"
   width="22.992"
   height="22.996" />
	
		<rect
   id="PJ301_12_"
   x="93.274"
   y="219.325"
   display="inline"
   fill="none"
   stroke="#000000"
   stroke-miterlimit="10"
   width="22.992"
   height="22.996" />
	
		<rect
   id="PJ301_11_"
   x="164.533"
   y="219.325"
   display="inline"
   fill="none"
   stroke="#000000"
   stroke-miterlimit="10"
   width="22.992"
   height="22.996" />
	
		<rect
   id="Rogan_5_"
   x="13.809"
   y="154.509"
   display="inline"
   fill="none"
   stroke="#000000"
   stroke-miterlimit="10"
   width="38.987"
   height="39.996" />
	
		<rect
   id="Rogan_1_"
   x="85.507"
   y="154.509"
   display="inline"
   fill="none"
   stroke="#000000"
   stroke-miterlimit="10"
   width="38.987"
   height="39.996" />
	
		<rect
   id="Rogan_2_"
   x="156.536"
   y="154.509"
   display="inline"
   fill="none"
   stroke="#000000"
   stroke-miterlimit="10"
   width="38.987"
   height="39.996" />
	
		<rect
   id="Rogan_3_"
   x="85.172"
   y="66.294"
   display="inline"
   fill="none"
   stroke="#000000"
   stroke-miterlimit="10"
   width="38.987"
   height="39.996" />
	
		<rect
   id="Rogan_4_"
   x="156.536"
   y="66.294"
   display="inline"
   fill="none"
   stroke="#000000"
   stroke-miterlimit="10"
   width="38.987"
   height="39.996" />
	
		<rect
   id="MediumLight_3_"
   x="56.475"
   y="60.628"
   display="inline"
   fill="none"
   stroke="#000000"
   stroke-miterlimit="10"
   width="10"
   height="10" />
	
		<rect
   id="MediumLight_1_"
   x="56.475"
   y="81.292"
   display="inline"
   fill="none"
   stroke="#000000"
   stroke-miterlimit="10"
   width="10"
   height="10" />
	
		<rect
   id="MediumLight_2_"
   x="56.475"
   y="101.957"
   display="inline"
   fill="none"
   stroke="#000000"
   stroke-miterlimit="10"
   width="10"
   height="10" />
	
		<rect
   id="CKD6"
   x="19.302"
   y="51.63"
   display="inline"
   fill="none"
   stroke="#000000"
   stroke-miterlimit="10"
   width="28"
   height="27.996" />
	
		<rect
   id="CKD6_1_"
   x="19.302"
   y="92.958"
   display="inline"
   fill="none"
   stroke="#000000"
   stroke-miterlimit="10"
   width="28"
   height="27.996" />
</g>
</svg>
