<?xml version="1.0" encoding="UTF-8" standalone="no"?>
<svg
   sodipodi:docname="Streams.svg"
   inkscape:version="1.3.2 (091e20e, 2023-11-25)"
   id="svg477"
   version="1.1"
   viewBox="0 0 60.850727 128.75081"
   height="128.75081mm"
   width="60.850727mm"
   inkscape:export-filename="Streams.png"
   inkscape:export-xdpi="47.349998"
   inkscape:export-ydpi="47.349998"
   xmlns:inkscape="http://www.inkscape.org/namespaces/inkscape"
   xmlns:sodipodi="http://sodipodi.sourceforge.net/DTD/sodipodi-0.dtd"
   xmlns="http://www.w3.org/2000/svg"
   xmlns:svg="http://www.w3.org/2000/svg"
   xmlns:rdf="http://www.w3.org/1999/02/22-rdf-syntax-ns#"
   xmlns:cc="http://creativecommons.org/ns#"
   xmlns:dc="http://purl.org/dc/elements/1.1/">
  <defs
     id="defs471" />
  <sodipodi:namedview
     inkscape:bbox-nodes="true"
     inkscape:snap-page="true"
     inkscape:snap-nodes="false"
     inkscape:snap-bbox-midpoints="false"
     inkscape:snap-bbox="false"
     inkscape:window-maximized="0"
     inkscape:window-y="25"
     inkscape:window-x="53"
     inkscape:window-height="1212"
     inkscape:window-width="1392"
     fit-margin-bottom="0"
     fit-margin-right="0"
     fit-margin-left="0"
     fit-margin-top="0"
     showgrid="false"
     inkscape:document-rotation="0"
     inkscape:current-layer="layer1"
     inkscape:document-units="mm"
     inkscape:cy="284.28663"
     inkscape:cx="87.072933"
     inkscape:zoom="1.5389398"
     inkscape:pageshadow="2"
     inkscape:pageopacity="0.0"
     borderopacity="1.0"
     bordercolor="#666666"
     pagecolor="#ffffff"
     id="base"
     inkscape:showpageshadow="2"
     inkscape:pagecheckerboard="0"
     inkscape:deskcolor="#d1d1d1" />
  <metadata
     id="metadata474">
    <rdf:RDF>
      <cc:Work
         rdf:about="">
        <dc:format>image/svg+xml</dc:format>
        <dc:type
           rdf:resource="http://purl.org/dc/dcmitype/StillImage" />
        <dc:title />
      </cc:Work>
    </rdf:RDF>
  </metadata>
  <g
     transform="translate(0.12505973,0.12505846)"
     id="layer1"
     inkscape:groupmode="layer"
     inkscape:label="Layer 1">
    <rect
       id="background"
       width="60.850727"
       height="128.75081"
       x="-0.12505972"
       y="-0.12505846"
       style="display:inline;fill:#e6e6e6;stroke-width:0.313334" />
    <path
       id="path48"
       d="M 57.318122,85.905529 H 3.2494141 V 85.199973 H 57.318122 Z m 0,0"
       style="fill:#c7c7c7;fill-opacity:1;fill-rule:nonzero;stroke:none;stroke-width:0.352777" />
    <path
       id="path50"
       d="m 24.666885,41.875828 c -0.09646,0 -0.176389,-0.07855 -0.176389,-0.176387 v -0.17639 c 0,-0.09784 0.07993,-0.17639 0.176389,-0.17639 0.09784,0 0.176389,0.07855 0.176389,0.17639 v 0.17639 c 0,0.09784 -0.07855,0.176387 -0.176389,0.176387 m 11.265464,0.465778 c -0.09784,0 -0.17639,-0.07855 -0.17639,-0.17639 v -0.17639 c 0,-0.09784 0.07855,-0.176387 0.17639,-0.176387 0.09784,0 0.176387,0.07854 0.176387,0.176387 v 0.17639 c 0,0.09784 -0.07855,0.17639 -0.176387,0.17639 m -11.265464,0.416168 c -0.09646,0 -0.176389,-0.07855 -0.176389,-0.17639 v -0.176389 c 0,-0.09784 0.07993,-0.176387 0.176389,-0.176387 0.09784,0 0.176389,0.07854 0.176389,0.176387 v 0.176389 c 0,0.09784 -0.07855,0.17639 -0.176389,0.17639 m 11.265464,0.465775 c -0.09784,0 -0.17639,-0.07855 -0.17639,-0.176389 v -0.176388 c 0,-0.09784 0.07855,-0.176389 0.17639,-0.176389 0.09784,0 0.176387,0.07855 0.176387,0.176389 v 0.176388 c 0,0.09784 -0.07855,0.176389 -0.176387,0.176389 m -11.265464,0.416169 c -0.09646,0 -0.176389,-0.07855 -0.176389,-0.17639 v -0.176387 c 0,-0.09784 0.07993,-0.17639 0.176389,-0.17639 0.09784,0 0.176389,0.07855 0.176389,0.17639 v 0.176387 c 0,0.09784 -0.07855,0.17639 -0.176389,0.17639 m 11.265464,0.465778 c -0.09784,0 -0.17639,-0.07855 -0.17639,-0.17639 v -0.17639 c 0,-0.09784 0.07855,-0.17639 0.17639,-0.17639 0.09784,0 0.176387,0.07855 0.176387,0.17639 v 0.17639 c 0,0.09784 -0.07855,0.17639 -0.176387,0.17639 m -11.265464,0.416168 c -0.09646,0 -0.176389,-0.07855 -0.176389,-0.17639 v -0.17639 c 0,-0.09784 0.07993,-0.176389 0.176389,-0.176389 0.09784,0 0.176389,0.07855 0.176389,0.176389 v 0.17639 c 0,0.09784 -0.07855,0.17639 -0.176389,0.17639 m 11.265464,0.465775 c -0.09784,0 -0.17639,-0.07855 -0.17639,-0.17639 v -0.176387 c 0,-0.09784 0.07855,-0.17639 0.17639,-0.17639 0.09784,0 0.176387,0.07855 0.176387,0.17639 v 0.176387 c 0,0.09784 -0.07855,0.17639 -0.176387,0.17639 m -11.265464,0.416166 c -0.09646,0 -0.176389,-0.07855 -0.176389,-0.17639 v -0.176384 c 0,-0.09784 0.07993,-0.17639 0.176389,-0.17639 0.09784,0 0.176389,0.07855 0.176389,0.17639 v 0.176384 c 0,0.09784 -0.07855,0.17639 -0.176389,0.17639 m 11.265464,0.465778 c -0.09784,0 -0.17639,-0.07855 -0.17639,-0.176387 v -0.17639 c 0,-0.09784 0.07855,-0.17639 0.17639,-0.17639 0.09784,0 0.176387,0.07855 0.176387,0.17639 v 0.17639 c 0,0.09784 -0.07855,0.176387 -0.176387,0.176387 m -11.211721,0.410654 c -0.07441,0 -0.143316,-0.04685 -0.166743,-0.121266 -0.02343,-0.06339 -0.03996,-0.130913 -0.04961,-0.199816 -0.01516,-0.09646 0.05099,-0.187415 0.14745,-0.201195 0.09646,-0.01378 0.186035,0.05099 0.201194,0.147453 0.0083,0.04961 0.01929,0.09646 0.03445,0.141935 0.03169,0.09233 -0.01792,0.191548 -0.110243,0.223245 -0.01929,0.0055 -0.03859,0.0096 -0.0565,0.0096 m 10.914062,0.389985 c -0.04685,0 -0.09095,-0.01654 -0.126783,-0.05099 -0.06752,-0.07028 -0.06752,-0.181901 0.0013,-0.249422 0.03446,-0.03447 0.06752,-0.07166 0.09508,-0.111623 0.0565,-0.07993 0.166743,-0.09784 0.24529,-0.04134 0.07993,0.0565 0.09922,0.166746 0.04134,0.24529 -0.03996,0.0565 -0.08406,0.108868 -0.132292,0.157099 -0.03447,0.03447 -0.07993,0.05099 -0.124021,0.05099 m -10.321506,0.224621 c -0.02067,0 -0.04272,-0.0041 -0.06339,-0.01241 -0.06477,-0.02479 -0.128157,-0.05512 -0.187413,-0.08958 -0.08268,-0.05099 -0.108865,-0.15985 -0.05926,-0.242535 0.05099,-0.08406 0.159853,-0.110242 0.242535,-0.06063 0.04134,0.02479 0.08406,0.04685 0.130914,0.06339 0.09095,0.03447 0.136425,0.136427 0.100596,0.227375 -0.02618,0.07166 -0.09371,0.11438 -0.163986,0.11438 m 0.873676,0.06476 h -0.176389 c -0.09784,0 -0.176389,-0.07855 -0.176389,-0.176387 0,-0.09646 0.07855,-0.17639 0.176389,-0.17639 h 0.176389 c 0.09646,0 0.176388,0.07993 0.176388,0.17639 0,0.09784 -0.07992,0.176387 -0.176388,0.176387 m 0.881945,0 h -0.17639 c -0.09784,0 -0.176387,-0.07855 -0.176387,-0.176387 0,-0.09646 0.07855,-0.17639 0.176387,-0.17639 h 0.17639 c 0.09646,0 0.17639,0.07993 0.17639,0.17639 0,0.09784 -0.07993,0.176387 -0.17639,0.176387 m 0.881943,0 h -0.176387 c -0.09784,0 -0.176389,-0.07855 -0.176389,-0.176387 0,-0.09646 0.07855,-0.17639 0.176389,-0.17639 h 0.176387 c 0.09646,0 0.17639,0.07993 0.17639,0.17639 0,0.09784 -0.07992,0.176387 -0.17639,0.176387 m 0.881947,0 h -0.17639 c -0.09784,0 -0.17639,-0.07855 -0.17639,-0.176387 0,-0.09646 0.07855,-0.17639 0.17639,-0.17639 h 0.17639 c 0.09646,0 0.176387,0.07993 0.176387,0.17639 0,0.09784 -0.07993,0.176387 -0.176387,0.176387 m 0.881943,0 h -0.17639 c -0.09784,0 -0.176387,-0.07855 -0.176387,-0.176387 0,-0.09646 0.07855,-0.17639 0.176387,-0.17639 h 0.17639 c 0.09646,0 0.17639,0.07993 0.17639,0.17639 0,0.09784 -0.07993,0.176387 -0.17639,0.176387 m 0.881944,0 h -0.176387 c -0.09784,0 -0.17639,-0.07855 -0.17639,-0.176387 0,-0.09646 0.07855,-0.17639 0.17639,-0.17639 h 0.176387 c 0.09646,0 0.17639,0.07993 0.17639,0.17639 0,0.09784 -0.07993,0.176387 -0.17639,0.176387 m 0.881946,0 h -0.17639 c -0.09784,0 -0.17639,-0.07855 -0.17639,-0.176387 0,-0.09646 0.07855,-0.17639 0.17639,-0.17639 h 0.17639 c 0.09646,0 0.176387,0.07993 0.176387,0.17639 0,0.09784 -0.07992,0.176387 -0.176387,0.176387 m 0.881944,0 h -0.17639 c -0.09784,0 -0.176387,-0.07855 -0.176387,-0.176387 0,-0.09646 0.07855,-0.17639 0.176387,-0.17639 h 0.17639 c 0.09646,0 0.176389,0.07993 0.176389,0.17639 0,0.09784 -0.07993,0.176387 -0.176389,0.176387 m 0.881943,0 h -0.176387 c -0.09784,0 -0.17639,-0.07855 -0.17639,-0.176387 0,-0.09646 0.07855,-0.17639 0.17639,-0.17639 h 0.176387 c 0.09647,0 0.17639,0.07993 0.17639,0.17639 0,0.09784 -0.07993,0.176387 -0.17639,0.176387 m 0.881946,0 H 33.94788 c -0.09784,0 -0.17639,-0.07855 -0.17639,-0.176387 0,-0.09646 0.07855,-0.17639 0.17639,-0.17639 h 0.176389 c 0.09646,0 0.176387,0.07993 0.176387,0.17639 0,0.09784 -0.07993,0.176387 -0.176387,0.176387 m 0.80753,0 h -0.101976 c -0.09784,0 -0.176387,-0.07855 -0.176387,-0.176387 0,-0.09646 0.07855,-0.17639 0.176387,-0.17639 h 0.101976 c 0.02066,0 0.03996,0 0.06063,-0.0013 0.09233,-0.0055 0.180523,0.06477 0.188791,0.161232 0.0083,0.09784 -0.06477,0.181901 -0.161232,0.19017 -0.02894,0.0028 -0.05788,0.0028 -0.08819,0.0028"
       style="fill:#1c1c19;fill-opacity:1;fill-rule:nonzero;stroke:none;stroke-width:0.352777" />
    <path
       style="clip-rule:nonzero;fill:#c7c7c5;fill-opacity:1;fill-rule:nonzero;stroke:none;stroke-width:0.352777"
       d="M 60.589587,8.2916573 H -2.2541335e-7 V 7.9388793 H 60.589587 Z m 0,0"
       id="path242" />
    <path
       style="clip-rule:nonzero;fill:#c7c7c5;fill-opacity:1;fill-rule:nonzero;stroke:none;stroke-width:0.352777"
       d="M 60.589587,10.897527 H -2.2541335e-7 V 10.544749 H 60.589587 Z m 0,0"
       id="path246" />
    <path
       id="path250"
       d="M 57.318122,119.61648 H 3.2494141 v -0.70556 H 57.318122 Z m 0,0"
       style="fill:#c7c7c5;fill-opacity:1;fill-rule:nonzero;stroke:none;stroke-width:0.352777" />
    <path
       id="path252"
       d="m 3.9591036,90.734175 v -2.007804 h 1.3229167 v 0.350023 H 4.3504666 v 0.469911 h 0.792372 v 0.350022 h -0.792372 v 0.487826 h 0.9315537 v 0.350022 z m 0,0"
       style="fill:#1c1c19;fill-opacity:1;fill-rule:nonzero;stroke:none;stroke-width:0.352777" />
    <path
       id="path254"
       d="M 6.6697048,90.734175 6.2810983,90.035509 5.8952475,90.734175 H 5.4460069 L 6.0702582,89.704779 5.4859699,88.726371 h 0.4451064 l 0.350022,0.647679 0.3527777,-0.647679 h 0.4423503 l -0.5842881,0.978408 0.6270075,1.029396 z m 0,0"
       style="fill:#1c1c19;fill-opacity:1;fill-rule:nonzero;stroke:none;stroke-width:0.352777" />
    <path
       id="path256"
       d="m 8.0119144,90.750709 c -0.2149745,0 -0.395497,-0.07303 -0.5415693,-0.219107 -0.088195,-0.08819 -0.1419378,-0.188793 -0.1639863,-0.301791 -0.023429,-0.112999 -0.034452,-0.279742 -0.034452,-0.500227 0,-0.219107 0.011025,-0.385852 0.034452,-0.498851 0.022048,-0.115755 0.075792,-0.213595 0.1639863,-0.301789 0.1460723,-0.146071 0.3265948,-0.220488 0.5415693,-0.220488 0.3858506,0 0.6711042,0.226002 0.7386286,0.635276 H 8.3522895 c -0.041341,-0.172255 -0.1488281,-0.285253 -0.3376192,-0.285253 -0.1074872,0 -0.1915475,0.03447 -0.2508033,0.10473 -0.082682,0.08682 -0.099219,0.177768 -0.099219,0.566375 0,0.389985 0.016539,0.479557 0.099219,0.567754 0.059256,0.07028 0.1433161,0.104727 0.2508033,0.104727 0.1887911,0 0.2962783,-0.114377 0.3376192,-0.285253 H 8.750543 c -0.067524,0.407901 -0.3555342,0.633897 -0.7386286,0.633897"
       style="fill:#1c1c19;fill-opacity:1;fill-rule:nonzero;stroke:none;stroke-width:0.352777" />
    <path
       id="path258"
       d="M 9.0895401,88.726371 H 9.482281 v 2.007804 H 9.0895401 Z m 0,0"
       style="fill:#1c1c19;fill-opacity:1;fill-rule:nonzero;stroke:none;stroke-width:0.352777" />
    <path
       id="path260"
       d="m 10.718381,89.076394 v 1.657781 H 10.32564 V 89.076394 H 9.8006078 v -0.350023 h 1.4414282 v 0.350023 z m 0,0"
       style="fill:#1c1c19;fill-opacity:1;fill-rule:nonzero;stroke:none;stroke-width:0.352777" />
    <path
       id="path262"
       d="m 11.561741,90.734175 v -2.007804 h 1.322917 v 0.350023 h -0.931554 v 0.469911 h 0.79375 v 0.350022 h -0.79375 v 0.487826 h 0.931554 v 0.350022 z m 0,0"
       style="fill:#1c1c19;fill-opacity:1;fill-rule:nonzero;stroke:none;stroke-width:0.352777" />
    <path
       id="path264"
       d="m 21.790919,88.726371 h 0.391363 v 2.007804 h -0.391363 z m 0,0"
       style="fill:#1c1c19;fill-opacity:1;fill-rule:nonzero;stroke:none;stroke-width:0.352777" />
    <path
       id="path266"
       d="m 23.838684,90.734175 -0.795129,-1.231969 v 1.231969 h -0.391362 v -2.007804 h 0.348643 l 0.796506,1.229212 v -1.229212 h 0.391363 v 2.007804 z m 0,0"
       style="fill:#1c1c19;fill-opacity:1;fill-rule:nonzero;stroke:none;stroke-width:0.352777" />
    <path
       id="path268"
       d="m 36.400878,88.726371 h 0.392745 v 2.007804 h -0.392745 z m 0,0"
       style="fill:#1c1c19;fill-opacity:1;fill-rule:nonzero;stroke:none;stroke-width:0.352777" />
    <path
       id="path270"
       d="m 38.448645,90.734175 -0.795126,-1.231969 v 1.231969 h -0.391364 v -2.007804 h 0.350023 l 0.795126,1.229212 v -1.229212 h 0.391363 v 2.007804 z m 0,0"
       style="fill:#1c1c19;fill-opacity:1;fill-rule:nonzero;stroke:none;stroke-width:0.352777" />
    <path
       id="path272"
       d="m 47.788987,90.734175 v -2.007804 h 1.322916 v 0.350023 h -0.93155 v 0.469911 h 0.792369 v 0.350022 h -0.792369 v 0.487826 h 0.93155 v 0.350022 z m 0,0"
       style="fill:#1c1c19;fill-opacity:1;fill-rule:nonzero;stroke:none;stroke-width:0.352777" />
    <path
       id="path274"
       d="m 50.500966,90.734175 -0.389985,-0.698666 -0.38585,0.698666 h -0.449239 l 0.624253,-1.029396 -0.58429,-0.978408 h 0.445108 l 0.350018,0.647679 0.352779,-0.647679 h 0.442352 l -0.58429,0.978408 0.627007,1.029396 z m 0,0"
       style="fill:#1c1c19;fill-opacity:1;fill-rule:nonzero;stroke:none;stroke-width:0.352777" />
    <path
       id="path276"
       d="m 51.841797,90.750709 c -0.214971,0 -0.395496,-0.07303 -0.541567,-0.219107 -0.08819,-0.08819 -0.141939,-0.188793 -0.163989,-0.301791 -0.02204,-0.112999 -0.03447,-0.279742 -0.03447,-0.500227 0,-0.219107 0.01241,-0.385852 0.03447,-0.498851 0.02204,-0.115755 0.07579,-0.213595 0.163989,-0.301789 0.146071,-0.146071 0.326596,-0.220488 0.541567,-0.220488 0.38585,0 0.671108,0.226002 0.73863,0.635276 h -0.398251 c -0.04134,-0.172255 -0.148831,-0.285253 -0.337619,-0.285253 -0.10749,0 -0.191548,0.03447 -0.250804,0.10473 -0.08268,0.08682 -0.09922,0.177768 -0.09922,0.566375 0,0.389985 0.01654,0.479557 0.09922,0.567754 0.05926,0.07028 0.143314,0.104727 0.250804,0.104727 0.188788,0 0.296275,-0.114377 0.337619,-0.285253 h 0.398251 c -0.06752,0.407901 -0.355534,0.633897 -0.73863,0.633897"
       style="fill:#1c1c19;fill-opacity:1;fill-rule:nonzero;stroke:none;stroke-width:0.352777" />
    <path
       id="path278"
       d="m 52.919424,88.726371 h 0.391364 v 2.007804 h -0.391364 z m 0,0"
       style="fill:#1c1c19;fill-opacity:1;fill-rule:nonzero;stroke:none;stroke-width:0.352777" />
    <path
       id="path280"
       d="m 54.548265,89.076394 v 1.657781 h -0.392739 v -1.657781 h -0.525031 v -0.350023 h 1.441423 v 0.350023 z m 0,0"
       style="fill:#1c1c19;fill-opacity:1;fill-rule:nonzero;stroke:none;stroke-width:0.352777" />
    <path
       id="path282"
       d="m 55.391625,90.734175 v -2.007804 h 1.322916 v 0.350023 h -0.931553 v 0.469911 h 0.79375 v 0.350022 h -0.79375 v 0.487826 h 0.931553 v 0.350022 z m 0,0"
       style="fill:#1c1c19;fill-opacity:1;fill-rule:nonzero;stroke:none;stroke-width:0.352777" />
    <path
       id="path284"
       d="m 12.445063,105.18979 h -1.303624 v -2.00917 h 0.392741 v 1.65915 h 0.910883 z m -1.688097,-1.65915 H 9.8254125 v 0.47129 h 0.7937495 v 0.35002 H 9.8254125 v 0.48782 h 0.9315535 v 0.35002 H 9.4340498 v -2.00917 h 1.3229162 z m -2.2310434,1.65915 H 8.2324004 l -0.6628365,-2.00917 h 0.4051435 l 0.403765,1.30913 0.402387,-1.30913 H 9.1901368 Z M 7.4097114,103.53064 H 6.4795358 v 0.47129 h 0.7923718 v 0.35002 H 6.4795358 v 0.48782 h 0.9301756 v 0.35002 H 6.0867947 v -2.00917 h 1.3229167 z m -1.6426217,1.65915 H 4.4648438 v -2.00917 h 0.3913627 v 1.65915 h 0.9108832 z m 6.6132063,-3.0055 H 4.3807836 c -0.5512155,0 -1.000456,0.45062 -1.000456,1.00046 v 2.00091 c 0,0.54984 0.4492405,0.99908 1.000456,0.99908 h 7.9995124 c 0.549837,0 0.999077,-0.44924 0.999077,-0.99908 v -2.00091 c 0,-0.54984 -0.44924,-1.00046 -0.999077,-1.00046"
       style="fill:#d93557;fill-opacity:1;fill-rule:nonzero;stroke:none;stroke-width:0.352777" />
    <path
       id="path286"
       d="m 21.241082,103.696 c -0.107487,0 -0.19706,0.0427 -0.253559,0.10749 -0.07717,0.0841 -0.09646,0.17777 -0.09646,0.56362 0,0.38723 0.01929,0.47955 0.09646,0.56499 0.0565,0.0648 0.146072,0.10749 0.253559,0.10749 0.107487,0 0.195681,-0.0427 0.250802,-0.10749 0.07717,-0.0854 0.09922,-0.17776 0.09922,-0.56499 0,-0.38585 -0.02205,-0.47956 -0.09922,-0.56362 -0.05512,-0.0648 -0.143315,-0.10749 -0.250802,-0.10749"
       style="fill:#6e6e6e;fill-opacity:1;fill-rule:nonzero;stroke:none;stroke-width:0.352777" />
    <path
       id="path288"
       d="m 25.56261,103.71392 h -0.525033 v 1.65778 h -0.392741 v -1.65778 h -0.525032 v -0.35003 h 1.442806 z m -1.730816,0.97014 c 0,0.42581 -0.326596,0.70417 -0.738629,0.70417 -0.412033,0 -0.740007,-0.27836 -0.740007,-0.70417 v -1.32017 h 0.392741 v 1.30501 c 0,0.23151 0.135048,0.37069 0.347266,0.37069 0.21084,0 0.348644,-0.13918 0.348644,-0.37069 v -1.30501 h 0.389985 z m -2.049143,0.48506 c -0.140561,0.14056 -0.312815,0.21911 -0.541569,0.21911 -0.228755,0 -0.403766,-0.0785 -0.544326,-0.21911 -0.202571,-0.20395 -0.197059,-0.45475 -0.197059,-0.80201 0,-0.34727 -0.0055,-0.59807 0.197059,-0.80064 0.14056,-0.14056 0.315571,-0.22049 0.544326,-0.22049 0.228754,0 0.401008,0.0799 0.541569,0.22049 0.202571,0.20257 0.199815,0.45337 0.199815,0.80064 0,0.34726 0.0028,0.59806 -0.199815,0.80201 m 5.207607,-2.98345 h -7.999513 c -0.549837,0 -1.000456,0.44924 -1.000456,0.99908 v 12.44782 c 0,0.55121 0.450619,1.00045 1.000456,1.00045 h 7.999513 c 0.549835,0 1.000455,-0.44924 1.000455,-1.00045 v -12.44782 c 0,-0.54984 -0.45062,-0.99908 -1.000455,-0.99908"
       style="fill:#6e6e6e;fill-opacity:1;fill-rule:nonzero;stroke:none;stroke-width:0.352777" />
    <path
       id="path290"
       d="m 40.172572,103.71392 h -0.525034 v 1.65778 h -0.39274 v -1.65778 h -0.525031 v -0.35003 h 1.442805 z m -1.730817,0.97014 c 0,0.42581 -0.326594,0.70417 -0.738629,0.70417 -0.412033,0 -0.740008,-0.27836 -0.740008,-0.70417 v -1.32017 h 0.392745 v 1.30501 c 0,0.23151 0.135046,0.37069 0.347263,0.37069 0.210841,0 0.348644,-0.13918 0.348644,-0.37069 v -1.30501 h 0.389985 z m -2.049142,0.48506 c -0.14056,0.14056 -0.312815,0.21911 -0.541571,0.21911 -0.228753,0 -0.403764,-0.0785 -0.544324,-0.21911 -0.202571,-0.20395 -0.197059,-0.45475 -0.197059,-0.80201 0,-0.34727 -0.0055,-0.59807 0.197059,-0.80064 0.14056,-0.14056 0.315571,-0.22049 0.544324,-0.22049 0.228756,0 0.401011,0.0799 0.541571,0.22049 0.202573,0.20257 0.199813,0.45337 0.199813,0.80064 0,0.34726 0.0028,0.59806 -0.199813,0.80201 m 5.207608,-2.98345 h -7.999513 c -0.549838,0 -1.000458,0.44924 -1.000458,0.99908 v 12.44782 c 0,0.55121 0.45062,1.00045 1.000458,1.00045 h 7.999513 c 0.549836,0 1.000453,-0.44924 1.000453,-1.00045 v -12.44782 c 0,-0.54984 -0.450617,-0.99908 -1.000453,-0.99908"
       style="fill:#6e6e6e;fill-opacity:1;fill-rule:nonzero;stroke:none;stroke-width:0.352777" />
    <path
       id="path292"
       d="m 35.851042,103.696 c -0.107487,0 -0.197056,0.0427 -0.253558,0.10749 -0.07579,0.0841 -0.09508,0.17777 -0.09508,0.56362 0,0.38723 0.01929,0.47955 0.09508,0.56499 0.0565,0.0648 0.146071,0.10749 0.253558,0.10749 0.10749,0 0.195683,-0.0427 0.25218,-0.10749 0.07579,-0.0854 0.09784,-0.17776 0.09784,-0.56499 0,-0.38585 -0.02204,-0.47956 -0.09784,-0.56362 -0.0565,-0.0648 -0.14469,-0.10749 -0.25218,-0.10749"
       style="fill:#6e6e6e;fill-opacity:1;fill-rule:nonzero;stroke:none;stroke-width:0.352777" />
    <path
       id="path294"
       d="m 56.274947,105.18979 h -1.303623 v -2.00917 h 0.392742 v 1.65915 h 0.910881 z m -1.688097,-1.65915 h -0.931553 v 0.47129 h 0.79375 v 0.35002 h -0.79375 v 0.48782 h 0.931553 v 0.35002 h -1.322917 v -2.00917 h 1.322917 z m -2.231041,1.65915 h -0.293526 l -0.662834,-2.00917 h 0.405145 l 0.403765,1.30913 0.402384,-1.30913 h 0.409278 z m -1.116214,-1.65915 h -0.930177 v 0.47129 h 0.792374 v 0.35002 h -0.792374 v 0.48782 h 0.930177 v 0.35002 h -1.322916 v -2.00917 h 1.322916 z m -1.64262,1.65915 H 48.29473 v -2.00917 h 0.391361 v 1.65915 h 0.910884 z m 6.613207,-3.0055 h -7.999513 c -0.551214,0 -1.000456,0.45062 -1.000456,1.00046 v 2.00091 c 0,0.54984 0.449242,0.99908 1.000456,0.99908 h 7.999513 c 0.549836,0 0.999077,-0.44924 0.999077,-0.99908 v -2.00091 c 0,-0.54984 -0.449241,-1.00046 -0.999077,-1.00046"
       style="fill:#0094a1;fill-opacity:1;fill-rule:nonzero;stroke:none;stroke-width:0.352777" />
    <path
       id="path296"
       d="M 9.6187068,55.507381 V 54.336049 L 9.2342341,55.098102 H 8.9696508 L 8.582422,54.336049 v 1.171332 H 8.1910593 v -2.009177 h 0.3858506 l 0.5250325,1.085892 0.5222767,-1.085892 H 10.01007 v 2.009177 z m 0,0"
       style="fill:#1c1c19;fill-opacity:1;fill-rule:nonzero;stroke:none;stroke-width:0.352777" />
    <path
       id="path298"
       d="m 11.404645,53.939174 c -0.0565,-0.06614 -0.143317,-0.107487 -0.250804,-0.107487 -0.107486,0 -0.197059,0.04134 -0.253558,0.107487 -0.07579,0.08406 -0.09646,0.177766 -0.09646,0.563616 0,0.385852 0.02067,0.47956 0.09646,0.56362 0.0565,0.06477 0.146072,0.107487 0.253558,0.107487 0.107487,0 0.194304,-0.04272 0.250804,-0.107487 0.07717,-0.08406 0.09922,-0.177768 0.09922,-0.56362 0,-0.38585 -0.02205,-0.479555 -0.09922,-0.563616 m 0.290765,1.364256 c -0.140559,0.141941 -0.312814,0.220487 -0.541569,0.220487 -0.228754,0 -0.403765,-0.07855 -0.544325,-0.220487 -0.202571,-0.202568 -0.197059,-0.453372 -0.197059,-0.80064 0,-0.347263 -0.0055,-0.598067 0.197059,-0.80064 0.14056,-0.141936 0.315571,-0.220485 0.544325,-0.220485 0.228755,0 0.40101,0.07855 0.541569,0.220485 0.202572,0.202573 0.199816,0.453377 0.199816,0.80064 0,0.347268 0.0028,0.598072 -0.199816,0.80064"
       style="fill:#1c1c19;fill-opacity:1;fill-rule:nonzero;stroke:none;stroke-width:0.352777" />
    <path
       id="path300"
       d="m 13.278776,53.972247 c -0.06752,-0.0813 -0.157096,-0.124026 -0.293522,-0.124026 h -0.296278 v 1.309137 h 0.296278 c 0.136426,0 0.225999,-0.04272 0.293522,-0.12402 0.07304,-0.09095 0.08406,-0.234268 0.08406,-0.538814 0,-0.304548 -0.01103,-0.431326 -0.08406,-0.522277 m 0.272852,1.342208 c -0.132292,0.13367 -0.321083,0.192926 -0.529167,0.192926 h -0.724848 v -2.009177 h 0.724848 c 0.208084,0 0.396875,0.05926 0.529167,0.191548 0.225999,0.225996 0.20395,0.502983 0.20395,0.804772 0,0.301789 0.02205,0.595313 -0.20395,0.819931"
       style="fill:#1c1c19;fill-opacity:1;fill-rule:nonzero;stroke:none;stroke-width:0.352777" />
    <path
       id="path302"
       d="m 48.338828,55.507381 v -1.171332 l -0.384477,0.762053 h -0.264583 l -0.387226,-0.762053 v 1.171332 h -0.391363 v -2.009177 h 0.387228 l 0.523653,1.085892 0.522277,-1.085892 h 0.385852 v 2.009177 z m 0,0"
       style="fill:#1c1c19;fill-opacity:1;fill-rule:nonzero;stroke:none;stroke-width:0.352777" />
    <path
       id="path304"
       d="m 50.126141,53.939174 c -0.0565,-0.06614 -0.144692,-0.107487 -0.252179,-0.107487 -0.10749,0 -0.197059,0.04134 -0.253561,0.107487 -0.07579,0.08406 -0.09508,0.177766 -0.09508,0.563616 0,0.385852 0.01929,0.47956 0.09508,0.56362 0.0565,0.06477 0.146071,0.107487 0.253561,0.107487 0.107487,0 0.19568,-0.04272 0.252179,-0.107487 0.07579,-0.08406 0.09784,-0.177768 0.09784,-0.56362 0,-0.38585 -0.02204,-0.479555 -0.09784,-0.563616 m 0.289391,1.364256 c -0.140563,0.141941 -0.312817,0.220487 -0.54157,0.220487 -0.227378,0 -0.402389,-0.07855 -0.544328,-0.220487 -0.20257,-0.202568 -0.197056,-0.453372 -0.197056,-0.80064 0,-0.347263 -0.0055,-0.598067 0.197056,-0.80064 0.141939,-0.141936 0.31695,-0.220485 0.544328,-0.220485 0.228753,0 0.401007,0.07855 0.54157,0.220485 0.202568,0.202573 0.201192,0.453377 0.201192,0.80064 0,0.347268 0.0013,0.598072 -0.201192,0.80064"
       style="fill:#1c1c19;fill-opacity:1;fill-rule:nonzero;stroke:none;stroke-width:0.352777" />
    <path
       id="path306"
       d="m 51.998896,53.972247 c -0.06752,-0.0813 -0.157099,-0.124026 -0.292145,-0.124026 h -0.297656 v 1.309137 h 0.297656 c 0.135046,0 0.224621,-0.04272 0.292145,-0.12402 0.07304,-0.09095 0.08406,-0.234268 0.08406,-0.538814 0,-0.304548 -0.01101,-0.431326 -0.08406,-0.522277 m 0.274228,1.342208 c -0.13367,0.13367 -0.322458,0.192926 -0.530545,0.192926 h -0.724845 v -2.009177 h 0.724845 c 0.208087,0 0.396875,0.05926 0.530545,0.191548 0.224621,0.225996 0.202573,0.502983 0.202573,0.804772 0,0.301789 0.02204,0.595313 -0.202573,0.819931"
       style="fill:#1c1c19;fill-opacity:1;fill-rule:nonzero;stroke:none;stroke-width:0.352777" />
    <path
       id="path308"
       d="m 27.421584,52.647952 v -1.169956 l -0.383096,0.762056 h -0.264583 l -0.387228,-0.762056 v 1.169956 h -0.391363 v -2.007804 h 0.387227 l 0.523656,1.085898 0.522277,-1.085898 h 0.38585 v 2.007804 z m 0,0"
       style="fill:#1c1c19;fill-opacity:1;fill-rule:nonzero;stroke:none;stroke-width:0.352777" />
    <path
       id="path310"
       d="m 28.284234,52.647952 v -2.007804 h 1.322917 v 0.350023 h -0.931553 v 0.471292 h 0.792371 v 0.348641 h -0.792371 v 0.489204 h 0.931553 v 0.348644 z m 0,0"
       style="fill:#1c1c19;fill-opacity:1;fill-rule:nonzero;stroke:none;stroke-width:0.352777" />
    <path
       id="path312"
       d="m 30.759192,50.990171 v 1.657781 h -0.39274 v -1.657781 h -0.525034 v -0.350023 h 1.441429 v 0.350023 z m 0,0"
       style="fill:#1c1c19;fill-opacity:1;fill-rule:nonzero;stroke:none;stroke-width:0.352777" />
    <path
       id="path314"
       d="m 31.602551,52.647952 v -2.007804 h 1.322917 v 0.350023 h -0.931553 v 0.471292 h 0.79375 v 0.348641 h -0.79375 v 0.489204 h 0.931553 v 0.348644 z m 0,0"
       style="fill:#1c1c19;fill-opacity:1;fill-rule:nonzero;stroke:none;stroke-width:0.352777" />
    <path
       id="path316"
       d="m 34.071995,50.990171 h -0.370692 v 0.530548 h 0.370692 c 0.170878,0 0.285255,-0.110244 0.285255,-0.265965 0,-0.154339 -0.114377,-0.264583 -0.285255,-0.264583 m 0.304548,1.657781 -0.391364,-0.80064 h -0.283876 v 0.80064 h -0.391361 v -2.007804 h 0.78686 c 0.409276,0 0.651811,0.279744 0.651811,0.614606 0,0.282498 -0.172254,0.457512 -0.366559,0.527791 l 0.447863,0.865407 z m 0,0"
       style="fill:#1c1c19;fill-opacity:1;fill-rule:nonzero;stroke:none;stroke-width:0.352777" />
    <path
       id="path318"
       d="m 17.463879,77.449885 h -0.297657 v 1.309137 h 0.297657 c 0.135047,0 0.22462,-0.04272 0.292144,-0.124026 0.07304,-0.09095 0.08406,-0.234264 0.08406,-0.53881 0,-0.304546 -0.01103,-0.431329 -0.08406,-0.522277 -0.06752,-0.08131 -0.157097,-0.124024 -0.292144,-0.124024"
       style="fill:#d93557;fill-opacity:1;fill-rule:nonzero;stroke:none;stroke-width:0.352777" />
    <path
       id="path320"
       d="m 15.631088,77.433346 c -0.107487,0 -0.19706,0.04134 -0.253559,0.10749 -0.07579,0.08406 -0.09646,0.177768 -0.09646,0.563618 0,0.38585 0.02067,0.479555 0.09646,0.563615 0.0565,0.06477 0.146072,0.107487 0.253559,0.107487 0.107487,0 0.195681,-0.04272 0.250803,-0.107487 0.07717,-0.08406 0.09922,-0.177765 0.09922,-0.563615 0,-0.38585 -0.02205,-0.47956 -0.09922,-0.563618 -0.05512,-0.06615 -0.143316,-0.10749 -0.250803,-0.10749"
       style="fill:#d93557;fill-opacity:1;fill-rule:nonzero;stroke:none;stroke-width:0.352777" />
    <path
       id="path322"
       d="m 18.030252,78.916119 c -0.133669,0.133667 -0.321082,0.192923 -0.530544,0.192923 h -0.724849 v -2.009179 h 0.724849 c 0.209462,0 0.396875,0.05926 0.530544,0.191547 0.225999,0.225997 0.202572,0.502984 0.202572,0.804776 0,0.301789 0.02343,0.595312 -0.202572,0.819933 m -1.857595,-0.01101 c -0.14056,0.141936 -0.312815,0.220485 -0.541569,0.220485 -0.228755,0 -0.402387,-0.07855 -0.544325,-0.220485 -0.20395,-0.202573 -0.19706,-0.453377 -0.19706,-0.80064 0,-0.347268 -0.0069,-0.598072 0.19706,-0.800639 0.141938,-0.141941 0.31557,-0.220488 0.544325,-0.220488 0.228754,0 0.401009,0.07855 0.541569,0.220488 0.203949,0.202567 0.201193,0.453371 0.201193,0.800639 0,0.347263 0.0028,0.598067 -0.201193,0.80064 m -1.685341,0.203946 h -0.391363 v -1.171331 l -0.383094,0.762058 h -0.265962 l -0.387229,-0.762058 v 1.171331 h -0.391363 v -2.009174 h 0.387229 l 0.523655,1.085895 0.522276,-1.085895 h 0.385851 z m -2.793283,0 h -1.303625 v -2.009174 h 0.392741 v 1.65916 h 0.910884 z M 10.005936,77.449904 H 9.0757595 v 0.471289 h 0.7923721 v 0.35002 H 9.0757595 v 0.487828 h 0.9301765 v 0.350017 H 8.6830187 V 77.099881 H 10.005936 Z M 7.7748914,79.109058 H 7.4813693 L 6.818533,77.099881 h 0.4051432 l 0.4037653,1.309137 0.4037653,-1.309137 H 8.4391062 Z M 6.6600587,77.449904 h -0.931554 v 0.471289 h 0.792372 v 0.35002 h -0.792372 v 0.487828 h 0.931554 v 0.350017 h -1.322917 v -2.009177 h 1.322917 z M 5.016059,79.109058 H 3.7138129 v -2.009177 h 0.391363 v 1.65916 H 5.016059 Z m 13.423471,-3.0055 H 3.4395831 c -0.5498372,0 -0.9990775,0.45062 -0.9990775,1.000456 v 1.999536 c 0,0.551214 0.4492403,1.000455 0.9990775,1.000455 H 18.43953 c 0.551215,0 1.000456,-0.449241 1.000456,-1.000455 v -1.999536 c 0,-0.549836 -0.449241,-1.000456 -1.000456,-1.000456"
       style="fill:#d93557;fill-opacity:1;fill-rule:nonzero;stroke:none;stroke-width:0.352777" />
    <path
       id="path324"
       d="m 54.351209,77.433346 c -0.10749,0 -0.197062,0.04134 -0.253561,0.10749 -0.07717,0.08406 -0.09646,0.177768 -0.09646,0.563618 0,0.38585 0.01929,0.479555 0.09646,0.563615 0.0565,0.06477 0.146071,0.107487 0.253561,0.107487 0.107484,0 0.195678,-0.04272 0.250799,-0.107487 0.07717,-0.08406 0.09922,-0.177765 0.09922,-0.563615 0,-0.38585 -0.02204,-0.47956 -0.09922,-0.563618 -0.05512,-0.06615 -0.143315,-0.10749 -0.250799,-0.10749"
       style="fill:#0094a1;fill-opacity:1;fill-rule:nonzero;stroke:none;stroke-width:0.352777" />
    <path
       id="path326"
       d="m 56.183999,77.449885 h -0.297656 v 1.309137 h 0.297656 c 0.135046,0 0.224621,-0.04272 0.292142,-0.124026 0.07304,-0.09095 0.08406,-0.234264 0.08406,-0.53881 0,-0.304546 -0.01101,-0.431329 -0.08406,-0.522277 -0.06752,-0.08131 -0.157096,-0.124024 -0.292142,-0.124024"
       style="fill:#0094a1;fill-opacity:1;fill-rule:nonzero;stroke:none;stroke-width:0.352777" />
    <path
       id="path328"
       d="m 56.750371,78.916119 c -0.13367,0.133667 -0.321082,0.192923 -0.530545,0.192923 h -0.72485 v -2.009179 h 0.72485 c 0.209463,0 0.396875,0.05926 0.530545,0.191547 0.225997,0.225997 0.202573,0.502984 0.202573,0.804776 0,0.301789 0.02342,0.595312 -0.202573,0.819933 m -1.857597,-0.01101 c -0.14056,0.141936 -0.312814,0.220485 -0.541565,0.220485 -0.228756,0 -0.402389,-0.07855 -0.544327,-0.220485 -0.203952,-0.202573 -0.197062,-0.453377 -0.197062,-0.80064 0,-0.347268 -0.0069,-0.598072 0.197062,-0.800639 0.141938,-0.141941 0.315571,-0.220488 0.544327,-0.220488 0.228751,0 0.401005,0.07855 0.541565,0.220488 0.203951,0.202567 0.201194,0.453371 0.201194,0.800639 0,0.347263 0.0028,0.598067 -0.201194,0.80064 m -1.685338,0.203946 H 52.81607 v -1.171331 l -0.38309,0.762058 h -0.265965 l -0.387228,-0.762058 v 1.171331 h -0.391361 v -2.009174 h 0.387226 l 0.523655,1.085895 0.522277,-1.085895 h 0.385852 z m -2.793285,0 h -1.303623 v -2.009174 h 0.392742 v 1.65916 h 0.910881 z m -1.688097,-1.659154 h -0.930178 v 0.471289 h 0.792375 v 0.35002 h -0.792375 v 0.487831 h 0.930178 v 0.350017 h -1.322917 v -2.009177 h 1.322917 z m -2.231044,1.659157 h -0.293523 l -0.662834,-2.009177 h 0.40514 l 0.40377,1.309137 0.403765,-1.309137 h 0.409273 z m -1.114832,-1.659154 h -0.931556 v 0.471289 h 0.792374 v 0.35002 h -0.792374 v 0.487828 h 0.931556 v 0.350017 h -1.322917 v -2.009177 h 1.322917 z m -1.644002,1.659154 h -1.302242 v -2.009177 h 0.391361 v 1.65916 h 0.910881 z m 13.423471,-3.0055 H 42.16108 c -0.551215,0 -1.000456,0.45062 -1.000456,1.000456 v 1.999536 c 0,0.551214 0.449241,1.000455 1.000456,1.000455 h 14.998567 c 0.551215,0 1.000456,-0.449241 1.000456,-1.000455 v -1.999536 c 0,-0.549836 -0.449241,-1.000456 -1.000456,-1.000456"
       style="fill:#0094a1;fill-opacity:1;fill-rule:nonzero;stroke:none;stroke-width:0.352777" />
    <path
       id="path330"
       d="m 7.2856882,32.142744 c -0.3045468,0 -0.5360572,-0.06615 -0.7331165,-0.265962 l 0.2535592,-0.253558 c 0.1281573,0.126778 0.2990342,0.169497 0.4850693,0.169497 0.2315105,0 0.3555336,-0.08819 0.3555336,-0.248047 0,-0.07166 -0.019293,-0.130913 -0.062011,-0.169497 -0.039963,-0.03721 -0.08406,-0.0565 -0.1777669,-0.07028 l -0.2425353,-0.03445 c -0.1708766,-0.02479 -0.2990342,-0.07855 -0.3886067,-0.166743 -0.096463,-0.09509 -0.144694,-0.22462 -0.144694,-0.394118 0,-0.358291 0.2659612,-0.609094 0.7000433,-0.609094 0.2756077,0 0.4768011,0.06752 0.6490562,0.234267 L 7.7321726,30.57867 c -0.1281576,-0.119888 -0.2797419,-0.1378 -0.4120335,-0.1378 -0.2094619,0 -0.3100586,0.115755 -0.3100586,0.253558 0,0.05099 0.016534,0.10473 0.059255,0.144693 0.038586,0.03583 0.1047314,0.06752 0.1846575,0.07855 l 0.2370225,0.03445 c 0.1846569,0.02479 0.3004124,0.07579 0.3844729,0.154342 0.1074867,0.101973 0.1543402,0.249423 0.1543402,0.425812 0,0.389986 -0.3238391,0.610471 -0.7441406,0.610471"
       style="fill:#1c1c19;fill-opacity:1;fill-rule:nonzero;stroke:none;stroke-width:0.352777" />
    <path
       id="path332"
       d="M 9.4726345,32.124829 V 31.284226 H 8.7932618 v 0.840603 H 8.4018989 v -2.007801 h 0.3913629 v 0.821309 h 0.6793727 v -0.821309 h 0.3927412 v 2.007801 z m 0,0"
       style="fill:#1c1c19;fill-opacity:1;fill-rule:nonzero;stroke:none;stroke-width:0.352777" />
    <path
       id="path334"
       d="m 11.009147,30.709583 -0.254937,0.730361 h 0.49885 z m 0.467155,1.415246 -0.118511,-0.355534 h -0.712446 l -0.121267,0.355534 h -0.409277 l 0.73036,-2.007801 h 0.307302 l 0.733117,2.007801 z m 0,0"
       style="fill:#1c1c19;fill-opacity:1;fill-rule:nonzero;stroke:none;stroke-width:0.352777" />
    <path
       id="path336"
       d="m 12.892926,30.467048 h -0.366559 v 0.549838 h 0.366559 c 0.179145,0 0.290766,-0.110244 0.290766,-0.27423 0,-0.163986 -0.111621,-0.275608 -0.290766,-0.275608 m 0.02067,0.902615 h -0.387228 v 0.755166 h -0.391362 v -2.007801 h 0.778591 c 0.413412,0 0.662837,0.283874 0.662837,0.625628 0,0.341754 -0.249425,0.627007 -0.662837,0.627007"
       style="fill:#1c1c19;fill-opacity:1;fill-rule:nonzero;stroke:none;stroke-width:0.352777" />
    <path
       id="path338"
       d="m 13.907162,32.124829 v -2.007801 h 1.322917 v 0.35002 h -0.931554 v 0.471289 h 0.79375 v 0.348644 h -0.79375 v 0.489204 h 0.931554 v 0.348644 z m 0,0"
       style="fill:#1c1c19;fill-opacity:1;fill-rule:nonzero;stroke:none;stroke-width:0.352777" />
    <path
       id="path340"
       d="m 46.005809,32.142744 c -0.304549,0 -0.536059,-0.06615 -0.733118,-0.265962 l 0.254939,-0.253558 c 0.125402,0.126778 0.297656,0.169497 0.485069,0.169497 0.230131,0 0.354152,-0.08819 0.354152,-0.248047 0,-0.07166 -0.01929,-0.130913 -0.06201,-0.169497 -0.03996,-0.03721 -0.08406,-0.0565 -0.17639,-0.07028 l -0.243909,-0.03445 c -0.170878,-0.02479 -0.297656,-0.07855 -0.388609,-0.166743 -0.09646,-0.09509 -0.143317,-0.22462 -0.143317,-0.394118 0,-0.358291 0.264583,-0.609094 0.698667,-0.609094 0.275606,0 0.4768,0.06752 0.649057,0.234267 l -0.248049,0.243911 c -0.128157,-0.119888 -0.279742,-0.137803 -0.412033,-0.137803 -0.208082,0 -0.310058,0.115756 -0.310058,0.253559 0,0.05099 0.01654,0.104732 0.05925,0.144695 0.03859,0.03583 0.104732,0.06752 0.186036,0.07855 l 0.237022,0.03445 c 0.183279,0.02479 0.299035,0.07579 0.383095,0.154339 0.107487,0.101976 0.155721,0.249426 0.155721,0.425815 0,0.389983 -0.325221,0.610471 -0.745519,0.610471"
       style="fill:#1c1c19;fill-opacity:1;fill-rule:nonzero;stroke:none;stroke-width:0.352777" />
    <path
       id="path342"
       d="m 48.192751,32.124829 v -0.840603 h -0.67937 v 0.840603 H 47.12202 v -2.007801 h 0.391361 v 0.821309 h 0.67937 v -0.821309 h 0.392745 v 2.007801 z m 0,0"
       style="fill:#1c1c19;fill-opacity:1;fill-rule:nonzero;stroke:none;stroke-width:0.352777" />
    <path
       id="path344"
       d="m 49.729266,30.709583 -0.254936,0.730361 h 0.49885 z m 0.467154,1.415246 -0.118512,-0.355534 h -0.712444 l -0.121269,0.355534 h -0.409273 l 0.730358,-2.007801 h 0.3073 l 0.733119,2.007801 z m 0,0"
       style="fill:#1c1c19;fill-opacity:1;fill-rule:nonzero;stroke:none;stroke-width:0.352777" />
    <path
       id="path346"
       d="m 51.614422,30.467048 h -0.366559 v 0.549838 h 0.366559 c 0.177769,0 0.289391,-0.110244 0.289391,-0.27423 0,-0.163986 -0.111622,-0.275608 -0.289391,-0.275608 m 0.01929,0.902615 h -0.38585 v 0.755166 H 50.85512 v -2.007801 h 0.778592 c 0.41479,0 0.662836,0.283874 0.662836,0.625628 0,0.341754 -0.248046,0.627007 -0.662836,0.627007"
       style="fill:#1c1c19;fill-opacity:1;fill-rule:nonzero;stroke:none;stroke-width:0.352777" />
    <path
       id="path348"
       d="m 52.627282,32.124829 v -2.007801 h 1.322917 v 0.35002 h -0.931556 v 0.471289 h 0.79375 v 0.348644 h -0.79375 v 0.489204 h 0.931556 v 0.348644 z m 0,0"
       style="fill:#1c1c19;fill-opacity:1;fill-rule:nonzero;stroke:none;stroke-width:0.352777" />
    <path
       id="path350"
       d="m 27.048135,63.917548 c -0.04548,0 -0.09233,-0.01791 -0.12678,-0.05374 -0.835091,-0.873675 -1.295356,-2.021583 -1.295356,-3.231501 0,-2.576928 2.097374,-4.674307 4.674307,-4.674307 2.576931,0 4.674304,2.097379 4.674304,4.674307 0,1.209918 -0.460264,2.356448 -1.293977,3.228747 -0.06752,0.07028 -0.179144,0.07441 -0.249425,0.0055 -0.07028,-0.06752 -0.07304,-0.179144 -0.0055,-0.249425 0.771702,-0.806154 1.196136,-1.867241 1.196136,-2.984833 0,-2.382626 -1.938898,-4.321527 -4.321527,-4.321527 -2.382628,0 -4.321528,1.938901 -4.321528,4.321527 0,1.11897 0.425814,2.180058 1.197516,2.986211 0.06752,0.07166 0.06477,0.18328 -0.0055,0.249426 -0.03445,0.03305 -0.07855,0.04961 -0.122645,0.04961"
       style="fill:#d93557;fill-opacity:1;fill-rule:nonzero;stroke:none;stroke-width:0.352777" />
    <path
       id="path8571"
       d="m 30.300313,20.116604 c -0.974272,0 -1.763889,0.789616 -1.763889,1.763889 0,0.974273 0.789617,1.763889 1.763889,1.763889 0.974273,0 1.76389,-0.789616 1.76389,-1.763889 0,-0.974273 -0.789617,-1.763889 -1.76389,-1.763889"
       style="fill:#6e6e6e;fill-opacity:1;fill-rule:nonzero;stroke:none;stroke-width:0.352777" />
    <path
       id="path352"
       d="m 31.442698,22.555731 c -0.04685,0.05237 -0.1254,0.05788 -0.176387,0.0124 L 29.988868,21.45881 29.46108,22.557106 c -0.02204,0.04548 -0.06615,0.07166 -0.112999,0.07166 -0.01791,0 -0.03721,-0.0041 -0.05374,-0.0124 -0.06339,-0.03032 -0.08957,-0.104731 -0.05926,-0.166743 l 0.671105,-1.394575 1.524112,1.324295 c 0.05099,0.04547 0.0565,0.125402 0.01241,0.176389"
       style="fill:#e6e6e6;fill-opacity:1;fill-rule:nonzero;stroke:none;stroke-width:0.352777" />
    <path
       id="path354"
       d="m 31.46337,33.421562 c -0.09922,0.119891 -0.242536,0.261829 -0.363803,0.261829 -0.124023,0 -0.173632,-0.118512 -0.212217,-0.213598 -0.0097,-0.02341 -0.02479,-0.05926 -0.03859,-0.08682 -0.01654,0.03307 -0.03583,0.07717 -0.04823,0.108866 -0.05374,0.130913 -0.121267,0.29352 -0.27423,0.29352 -0.172255,0 -0.201192,-0.19568 -0.227375,-0.385849 -0.0055,-0.04272 -0.01516,-0.104733 -0.02619,-0.158475 -0.01379,0.08682 -0.02342,0.199816 -0.03169,0.286631 -0.03032,0.355534 -0.06063,0.690398 -0.300411,0.690398 -0.249425,0 -0.257694,-0.377584 -0.268719,-0.901237 -0.0028,-0.150206 -0.0069,-0.356912 -0.02341,-0.485071 -0.04272,0.125402 -0.09508,0.37207 -0.11851,0.611849 -0.0069,0.06752 -0.06615,0.118512 -0.136427,0.111623 -0.0689,-0.0055 -0.11851,-0.06753 -0.112998,-0.136428 0.03996,-0.416165 0.143317,-0.915016 0.405143,-0.915016 0.219107,0 0.225999,0.304546 0.237022,0.807529 0.0028,0.159854 0.0083,0.394121 0.02894,0.544328 0.01929,-0.107487 0.03307,-0.254937 0.04134,-0.350023 0.03032,-0.345887 0.05374,-0.618739 0.265962,-0.618739 0.219109,0 0.256315,0.264584 0.286634,0.476801 0.0028,0.02066 0.0069,0.04272 0.01103,0.06615 0.0041,-0.01241 0.0097,-0.02342 0.01378,-0.03307 0.0565,-0.137803 0.11989,-0.293521 0.272851,-0.293521 0.162611,0 0.230135,0.162607 0.27423,0.270094 0.0041,0.0097 0.0097,0.02204 0.01516,0.03307 0.03583,-0.03307 0.09095,-0.08819 0.136424,-0.143316 0.04548,-0.05374 0.124024,-0.06063 0.17639,-0.01654 0.05374,0.0441 0.06063,0.122645 0.01791,0.175011 m -1.163063,-1.865865 c -0.974273,0 -1.76389,0.789617 -1.76389,1.76389 0,0.974272 0.789617,1.763889 1.76389,1.763889 0.974273,0 1.76389,-0.789617 1.76389,-1.763889 0,-0.974273 -0.789617,-1.76389 -1.76389,-1.76389"
       style="fill:#6e6e6e;fill-opacity:1;fill-rule:nonzero;stroke:none;stroke-width:0.352777" />
    <path
       id="path356"
       d="m 31.289737,38.491368 -1.303624,0.622871 -0.427193,0.877809 c -0.02204,0.0441 -0.06752,0.07028 -0.112998,0.07028 -0.01791,0 -0.03721,-0.0041 -0.05512,-0.01241 -0.06201,-0.0303 -0.0882,-0.10473 -0.05788,-0.166741 l 0.467154,-0.95636 1.382173,-0.661458 c 0.06063,-0.02893 0.136424,-0.0028 0.166743,0.05926 0.03032,0.06201 0.0028,0.137803 -0.05926,0.166743 M 30.300301,37.27593 c -0.974275,0 -1.76389,0.789617 -1.76389,1.763889 0,0.974273 0.789615,1.76389 1.76389,1.76389 0.974273,0 1.763887,-0.789617 1.763887,-1.76389 0,-0.974272 -0.789614,-1.763889 -1.763887,-1.763889"
       style="fill:#6e6e6e;fill-opacity:1;fill-rule:nonzero;stroke:none;stroke-width:0.352777" />
    <path
       id="path358"
       d="m 30.318218,26.67193 c -0.537434,0 -0.599445,0.526413 -0.602202,0.549839 v 0.560861 h 1.167199 v -0.574641 c -0.0028,-0.04823 -0.04823,-0.536059 -0.564997,-0.536059"
       style="fill:#6e6e6e;fill-opacity:1;fill-rule:nonzero;stroke:none;stroke-width:0.352777" />
    <path
       id="path360"
       d="m 30.752302,28.652173 c 0,0.0689 -0.05512,0.125402 -0.124024,0.125402 -0.07028,0 -0.125402,-0.0565 -0.125402,-0.125402 v -0.618739 h -0.405143 v 0.618739 c 0,0.0689 -0.0565,0.125402 -0.125402,0.125402 -0.0689,0 -0.125402,-0.0565 -0.125402,-0.125402 v -0.618739 h -0.380338 v -0.825445 c 0.02894,-0.281119 0.243914,-0.785481 0.851627,-0.785481 0.611849,0 0.800643,0.509873 0.814422,0.778589 l 0.0013,0.832337 H 30.752223 Z M 30.300306,25.83684 c -0.974275,0 -1.76389,0.789616 -1.76389,1.763889 0,0.972894 0.789615,1.76389 1.76389,1.76389 0.974273,0 1.763887,-0.790996 1.763887,-1.76389 0,-0.974273 -0.789614,-1.763889 -1.763887,-1.763889"
       style="fill:#6e6e6e;fill-opacity:1;fill-rule:nonzero;stroke:none;stroke-width:0.352777" />
    <path
       id="path362"
       d="m 25.125771,65.438903 c -0.304546,0.228756 -0.564995,0.282498 -0.738628,0.282498 -0.130914,0 -0.213596,-0.0303 -0.232889,-0.03858 l 0.12678,-0.327975 c 0.01103,0.0028 0.257693,0.08406 0.633898,-0.198438 0.387228,-0.289385 0.363802,-0.857138 0.363802,-0.86265 l 0.3514,-0.01929 c 0.0028,0.03168 0.03721,0.759301 -0.504363,1.164442 M 24.93698,63.513792 c -0.828201,0 -1.499306,0.672483 -1.499306,1.500685 0,0.828198 0.671105,1.499306 1.499306,1.499306 0.829579,0 1.500685,-0.671108 1.500685,-1.499306 0,-0.828202 -0.671106,-1.500685 -1.500685,-1.500685"
       style="fill:#d93557;fill-opacity:1;fill-rule:nonzero;stroke:none;stroke-width:0.352777" />
    <path
       id="path364"
       d="m 35.171672,65.755852 -0.249426,-0.249425 1.233342,-1.23472 0.249426,0.249422 z m 0.491958,-2.24069 c -0.828201,0 -1.499306,0.671105 -1.499306,1.499307 0,0.828198 0.671105,1.499306 1.499306,1.499306 0.828201,0 1.499306,-0.671108 1.499306,-1.499306 0,-0.828202 -0.671105,-1.499307 -1.499306,-1.499307"
       style="fill:#d93557;fill-opacity:1;fill-rule:nonzero;stroke:none;stroke-width:0.352777" />
    <path
       id="path366"
       d="m 25.125771,80.061267 c -0.304546,0.228756 -0.563617,0.282499 -0.738628,0.282499 -0.130914,0 -0.213596,-0.03031 -0.232889,-0.03858 l 0.12678,-0.327975 c 0.0096,0.0028 0.256315,0.08406 0.633898,-0.198437 0.387228,-0.289385 0.363802,-0.857142 0.363802,-0.86265 l 0.3514,-0.01929 c 0.0028,0.03168 0.03721,0.759298 -0.504363,1.164444 M 24.93698,78.203683 c -0.828201,0 -1.499306,0.671103 -1.499306,1.499307 0,0.829577 0.671105,1.500682 1.499306,1.500682 0.829579,0 1.500685,-0.671105 1.500685,-1.500682 0,-0.828204 -0.671106,-1.499307 -1.500685,-1.499307"
       style="fill:#0094a1;fill-opacity:1;fill-rule:nonzero;stroke:none;stroke-width:0.352777" />
    <path
       id="path368"
       d="m 35.171672,80.445741 -0.249426,-0.249428 1.233342,-1.234723 0.249426,0.249428 z m 0.491958,-2.242068 c -0.828201,0 -1.499306,0.671102 -1.499306,1.499306 0,0.829577 0.671105,1.500682 1.499306,1.500682 0.828201,0 1.499306,-0.671105 1.499306,-1.500682 0,-0.828204 -0.671105,-1.499306 -1.499306,-1.499306"
       style="fill:#0094a1;fill-opacity:1;fill-rule:nonzero;stroke:none;stroke-width:0.352777" />
    <path
       id="path370"
       d="m 27.048135,78.418644 c -0.04548,0 -0.09233,-0.01929 -0.12678,-0.05512 -0.835091,-0.873675 -1.295356,-2.020202 -1.295356,-3.23012 0,-2.576934 2.097374,-4.674307 4.674307,-4.674307 2.576931,0 4.674304,2.097373 4.674304,4.674307 0,1.208537 -0.460264,2.355067 -1.293977,3.228744 -0.06752,0.07028 -0.179144,0.07304 -0.249425,0.0055 -0.07028,-0.06752 -0.07304,-0.179144 -0.0055,-0.249426 0.771702,-0.807529 1.196136,-1.867241 1.196136,-2.98483 0,-2.382626 -1.938898,-4.321527 -4.321527,-4.321527 -2.382628,0 -4.321528,1.938901 -4.321528,4.321527 0,1.117589 0.425814,2.178677 1.197516,2.986212 0.06752,0.07028 0.06477,0.181898 -0.0055,0.249422 -0.03445,0.03306 -0.07855,0.04961 -0.122645,0.04961"
       style="fill:#0094a1;fill-opacity:1;fill-rule:nonzero;stroke:none;stroke-width:0.352777" />
    <path
       id="path372"
       d="M 4.0004448,16.055525 2.7698566,15.287957 v 0.617362 H 2.4170787 v -1.254016 l 1.7694015,1.103809 z m 0,0"
       style="fill:#6e6e6e;fill-opacity:1;fill-rule:nonzero;stroke:none;stroke-width:0.352777" />
    <path
       id="path374"
       d="m 19.614996,15.985244 -0.735872,-0.712445 -0.609093,0.701421 -0.265961,-0.23151 0.853005,-0.983919 1.003212,0.972895 z m 0,0"
       style="fill:#6e6e6e;fill-opacity:1;fill-rule:nonzero;stroke:none;stroke-width:0.352777" />
    <path
       id="path376"
       d="m 42.690246,16.055525 -1.229212,-0.767568 v 0.617362 h -0.352776 v -1.254016 l 1.769403,1.103809 z m 0,0"
       style="fill:#6e6e6e;fill-opacity:1;fill-rule:nonzero;stroke:none;stroke-width:0.352777" />
    <path
       id="path378"
       d="m 58.306174,15.985244 -0.737248,-0.712445 -0.607716,0.701421 -0.265959,-0.23151 0.853006,-0.983919 1.001831,0.972895 z m 0,0"
       style="fill:#6e6e6e;fill-opacity:1;fill-rule:nonzero;stroke:none;stroke-width:0.352777" />
    <path
       id="path380"
       d="M 6.9081055,36.427062 H 5.2434353 L 6.9081055,35.443146 Z M 6.176367,34.605298 c -0.7909938,0 -1.4317813,0.63941 -1.4317813,1.430403 0,0.790996 0.6407875,1.430407 1.4317813,1.430407 0.7896161,0 1.4304039,-0.639411 1.4304039,-1.430407 0,-0.790993 -0.6407878,-1.430403 -1.4304039,-1.430403"
       style="fill:#1c1c19;fill-opacity:1;fill-rule:nonzero;stroke:none;stroke-width:0.352777" />
    <path
       id="path382"
       d="m 14.972385,36.628259 v -0.985297 h 1.664671 z m 0.731739,-2.022961 c -0.789616,0 -1.430404,0.63941 -1.430404,1.430403 0,0.790996 0.640788,1.430407 1.430404,1.430407 0.789616,0 1.431782,-0.639411 1.431782,-1.430407 0,-0.790993 -0.642166,-1.430403 -1.431782,-1.430403"
       style="fill:#1c1c19;fill-opacity:1;fill-rule:nonzero;stroke:none;stroke-width:0.352777" />
    <path
       id="path384"
       d="m 11.090452,34.568089 h -0.300413 v 2.935222 h 0.300413 z m 0,0"
       style="fill:#1c1c19;fill-opacity:1;fill-rule:nonzero;stroke:none;stroke-width:0.352777" />
    <path
       id="path386"
       d="m 45.628225,36.427062 h -1.664671 l 1.664671,-0.983916 z m -0.731737,-1.821764 c -0.790993,0 -1.431785,0.63941 -1.431785,1.430403 0,0.790996 0.640792,1.430407 1.431785,1.430407 0.789617,0 1.430401,-0.639411 1.430401,-1.430407 0,-0.790993 -0.640784,-1.430403 -1.430401,-1.430403"
       style="fill:#1c1c19;fill-opacity:1;fill-rule:nonzero;stroke:none;stroke-width:0.352777" />
    <path
       id="path388"
       d="m 53.692505,36.628259 v -0.985297 h 1.664671 z m 0.733115,-2.022961 c -0.790993,0 -1.431782,0.63941 -1.431782,1.430403 0,0.790996 0.640789,1.430407 1.431782,1.430407 0.789615,0 1.430404,-0.639411 1.430404,-1.430407 0,-0.790993 -0.640789,-1.430403 -1.430404,-1.430403"
       style="fill:#1c1c19;fill-opacity:1;fill-rule:nonzero;stroke:none;stroke-width:0.352777" />
    <path
       id="path390"
       d="m 49.81057,34.568089 h -0.299032 v 2.935222 h 0.299032 z m 0,0"
       style="fill:#1c1c19;fill-opacity:1;fill-rule:nonzero;stroke:none;stroke-width:0.352777" />
    <path
       id="path392"
       d="m 3.8461046,57.989231 -0.075792,-0.01101 h -0.176389 l -0.039963,0.01101 -0.016534,0.02479 v 0.224621 l 0.011025,0.02755 0.037207,0.01654 h 0.2700957 l 0.016534,-0.0083 v -0.26045 L 3.85713,58.001616 Z m 0,0"
       style="fill:#d93557;fill-opacity:1;fill-rule:nonzero;stroke:none;stroke-width:0.352777" />
    <path
       id="path394"
       d="M 4.1988823,59.809617 H 3.872287 v -1.30638 H 3.6986544 c -0.068902,0 -0.1336696,-0.0083 -0.1929254,-0.02479 -0.057877,-0.01378 -0.1129988,-0.04134 -0.1653646,-0.07855 -0.050987,-0.03721 -0.088194,-0.07855 -0.1129988,-0.124021 -0.023426,-0.04548 -0.037207,-0.09233 -0.037207,-0.140563 0,-0.04548 0.013779,-0.08819 0.037207,-0.130916 0.024805,-0.04272 0.059255,-0.08268 0.1088647,-0.118506 0.046854,-0.03583 0.099219,-0.06339 0.1612304,-0.08131 0.034451,-0.0083 0.067524,-0.01516 0.096463,-0.01929 0.031693,-0.0055 0.066146,-0.0069 0.1047308,-0.0069 0.046854,0 0.079926,0 0.1005967,0.0028 0.020669,0.0041 0.0565,0.01241 0.1074873,0.02755 0.050987,0.01516 0.099219,0.03858 0.1446937,0.07166 0.048231,0.03168 0.085438,0.07028 0.1102431,0.114377 0.024805,0.0441 0.037207,0.08957 0.037207,0.139181 z M 3.795117,57.05354 c -0.9742728,0 -1.7638891,0.789614 -1.7638891,1.76389 0,0.974272 0.7896163,1.763887 1.7638891,1.763887 0.9742731,0 1.763889,-0.789615 1.763889,-1.763887 0,-0.974276 -0.7896159,-1.76389 -1.763889,-1.76389"
       style="fill:#d93557;fill-opacity:1;fill-rule:nonzero;stroke:none;stroke-width:0.352777" />
    <path
       id="path396"
       d="m 57.376,58.821562 c 0,0.04823 -0.01654,0.09509 -0.04685,0.143317 -0.03168,0.03721 -0.07717,0.07304 -0.133667,0.103354 -0.05788,0.0303 -0.122648,0.05512 -0.197062,0.07304 -0.07303,0.01791 -0.152961,0.02755 -0.239781,0.02755 l 0.387231,0.534678 -0.241155,0.159853 -0.593936,-0.77997 0.197061,-0.184658 0.303165,0.06615 h 0.108868 c 0.03858,-0.0055 0.0689,-0.01241 0.09233,-0.02204 0.02341,-0.0083 0.03996,-0.01929 0.04961,-0.03031 l 0.02342,-0.04961 v -0.775835 c -0.0083,-0.01929 -0.01241,-0.03031 -0.02066,-0.03583 -0.01241,-0.01241 -0.02893,-0.02479 -0.05237,-0.03446 l -0.01929,-0.0041 -0.01929,-0.0083 h -0.01929 l -0.01791,-0.0083 h -0.205328 c -0.02893,0 -0.05374,0.0055 -0.07441,0.01516 -0.02479,0.0096 -0.03996,0.02066 -0.05374,0.03305 l -0.01378,0.04685 v 0.365178 h -0.293523 v -0.362421 c 0,-0.03996 0.01378,-0.07993 0.04134,-0.115755 0.02479,-0.03583 0.06339,-0.07028 0.117134,-0.101976 0.04961,-0.03306 0.09922,-0.05512 0.147449,-0.06615 0.04961,-0.01101 0.08958,-0.02066 0.119891,-0.02479 0.03447,-0.0055 0.07166,-0.0083 0.108866,-0.0083 0.07579,0 0.144695,0.0083 0.20946,0.02341 0.06339,0.01516 0.122647,0.03858 0.176389,0.0689 0.05099,0.03168 0.09095,0.06615 0.117134,0.104732 0.01101,0.01791 0.02204,0.03721 0.0303,0.05788 0.0069,0.02066 0.01241,0.04272 0.01241,0.06615 z M 56.835808,57.05354 c -0.97427,0 -1.76389,0.789614 -1.76389,1.76389 0,0.974272 0.78962,1.763887 1.76389,1.763887 0.974272,0 1.76389,-0.789615 1.76389,-1.763887 0,-0.974276 -0.789618,-1.76389 -1.76389,-1.76389"
       style="fill:#0094a1;fill-opacity:1;fill-rule:nonzero;stroke:none;stroke-width:0.352777" />
    <g
       style="font-size:3.52778px;line-height:6.01325px;font-family:DINPro;-inkscape-font-specification:DINPro;letter-spacing:0px;word-spacing:0px;writing-mode:lr-tb;fill:#000000;fill-opacity:1;stroke:none;stroke-width:0.264583px;stroke-linecap:butt;stroke-linejoin:miter;stroke-opacity:1"
       id="text8534"
       aria-label="dual dynamics gate">
      <path
         id="path8536"
         style="font-size:3.52778px;fill:#000000;fill-opacity:1;stroke:none;stroke-width:0.264583px"
         d="M 20.03436,6.0342345 V 3.5224551 h -0.254 V 4.4996502 C 19.639249,4.3197334 19.480499,4.2774001 19.289999,4.2774001 c -0.176389,0 -0.331612,0.059972 -0.423334,0.1516945 -0.176389,0.176389 -0.211667,0.465667 -0.211667,0.737306 0,0.2716391 0.03528,0.5609171 0.211667,0.7373061 0.09172,0.091722 0.246945,0.1516945 0.423334,0.1516945 0.1905,0 0.352778,-0.045861 0.493889,-0.2293057 v 0.208139 z m -0.254,-0.8678339 c 0,0.3386669 -0.05645,0.6632227 -0.433917,0.6632227 -0.377472,0 -0.437445,-0.3245558 -0.437445,-0.6632227 0,-0.3386669 0.05997,-0.6632226 0.437445,-0.6632226 0.377472,0 0.433917,0.3245557 0.433917,0.6632226 z" />
      <path
         id="path8538"
         style="font-size:3.52778px;fill:#000000;fill-opacity:1;stroke:none;stroke-width:0.264583px"
         d="M 22.016966,6.0342345 V 4.2985667 h -0.254 v 1.0689174 c 0,0.3033891 -0.172861,0.4621392 -0.433917,0.4621392 -0.261056,0 -0.423334,-0.1552223 -0.423334,-0.4621392 V 4.2985667 h -0.254 v 1.107723 c 0,0.2010834 0.05292,0.3668891 0.176389,0.4868336 0.105834,0.1058334 0.261056,0.1622779 0.448028,0.1622779 0.194028,0 0.366889,-0.074083 0.490362,-0.2151946 v 0.1940279 z" />
      <path
         id="path8540"
         style="font-size:3.52778px;fill:#000000;fill-opacity:1;stroke:none;stroke-width:0.264583px"
         d="M 23.890212,6.0342345 V 4.855956 c 0,-0.3774725 -0.229306,-0.5785559 -0.694973,-0.5785559 -0.282223,0 -0.458612,0.056444 -0.613834,0.2575279 l 0.172861,0.1587501 c 0.102306,-0.144639 0.215195,-0.1975557 0.437445,-0.1975557 0.3175,0 0.4445,0.1270001 0.4445,0.3810003 V 5.0429283 H 23.1141 c -0.388056,0 -0.599723,0.1975557 -0.599723,0.5009448 0,0.1375834 0.04586,0.2681113 0.130528,0.352778 0.109361,0.112889 0.250473,0.1587501 0.490362,0.1587501 0.232833,0 0.359833,-0.045861 0.500944,-0.1869723 V 6.0342345 Z M 23.636211,5.4204008 c 0,0.144639 -0.02822,0.2434168 -0.08819,0.2998613 -0.109361,0.1058334 -0.239889,0.1164167 -0.388056,0.1164167 -0.275167,0 -0.398639,-0.09525 -0.398639,-0.2963335 0,-0.2010834 0.127,-0.3069168 0.388056,-0.3069168 h 0.486833 z" />
      <path
         id="path8542"
         style="font-size:3.52778px;fill:#000000;fill-opacity:1;stroke:none;stroke-width:0.264583px"
         d="M 25.124931,6.0342345 V 5.8155122 h -0.137583 c -0.176389,0 -0.232834,-0.084667 -0.232834,-0.2540002 V 3.5224551 h -0.254 v 2.0496402 c 0,0.2645835 0.137584,0.4621392 0.440973,0.4621392 z" />
      <path
         id="path8544"
         style="font-size:3.52778px;fill:#000000;fill-opacity:1;stroke:none;stroke-width:0.264583px"
         d="M 27.721369,6.0342345 V 3.5224551 h -0.254 V 4.4996502 C 27.326258,4.3197334 27.167508,4.2774001 26.977007,4.2774001 c -0.176389,0 -0.331611,0.059972 -0.423333,0.1516945 -0.176389,0.176389 -0.211667,0.465667 -0.211667,0.737306 0,0.2716391 0.03528,0.5609171 0.211667,0.7373061 0.09172,0.091722 0.246944,0.1516945 0.423333,0.1516945 0.190501,0 0.352778,-0.045861 0.49389,-0.2293057 v 0.208139 z m -0.254,-0.8678339 c 0,0.3386669 -0.05645,0.6632227 -0.433917,0.6632227 -0.377473,0 -0.437445,-0.3245558 -0.437445,-0.6632227 0,-0.3386669 0.05997,-0.6632226 0.437445,-0.6632226 0.377472,0 0.433917,0.3245557 0.433917,0.6632226 z" />
      <path
         id="path8546"
         style="font-size:3.52778px;fill:#000000;fill-opacity:1;stroke:none;stroke-width:0.264583px"
         d="m 29.576974,4.2985667 h -0.275167 l -0.472722,1.3934732 -0.47625,-1.3934732 h -0.275167 l 0.624417,1.70039 -0.123472,0.3386669 c -0.05645,0.1587501 -0.109362,0.2151946 -0.285751,0.2151946 h -0.07761 v 0.2257779 h 0.109361 c 0.123473,0 0.246945,-0.03175 0.338667,-0.1199445 0.04939,-0.045861 0.0882,-0.1093612 0.123473,-0.2046112 z" />
      <path
         id="path8548"
         style="font-size:3.52778px;fill:#000000;fill-opacity:1;stroke:none;stroke-width:0.264583px"
         d="M 31.298526,6.0342345 V 4.9229838 c 0,-0.2010835 -0.05644,-0.3633613 -0.179917,-0.4833059 -0.105833,-0.1058334 -0.257528,-0.1622778 -0.4445,-0.1622778 -0.194028,0 -0.363361,0.070556 -0.486834,0.2116668 V 4.2985667 h -0.254 v 1.7356678 h 0.254 V 4.9653172 c 0,-0.3033891 0.169334,-0.4621392 0.43039,-0.4621392 0.261055,0 0.426861,0.1552223 0.426861,0.4621392 v 1.0689173 z" />
      <path
         id="path8550"
         style="font-size:3.52778px;fill:#000000;fill-opacity:1;stroke:none;stroke-width:0.264583px"
         d="M 33.154133,6.0342345 V 4.855956 c 0,-0.3774725 -0.229306,-0.5785559 -0.694973,-0.5785559 -0.282222,0 -0.458611,0.056444 -0.613833,0.2575279 l 0.172861,0.1587501 c 0.102305,-0.144639 0.215194,-0.1975557 0.437445,-0.1975557 0.3175,0 0.4445,0.1270001 0.4445,0.3810003 v 0.1658056 h -0.522112 c -0.388055,0 -0.599722,0.1975557 -0.599722,0.5009448 0,0.1375834 0.04586,0.2681113 0.130528,0.352778 0.109361,0.112889 0.250472,0.1587501 0.490361,0.1587501 0.232834,0 0.359834,-0.045861 0.500945,-0.1869723 v 0.1658056 z m -0.254,-0.6138337 c 0,0.144639 -0.02822,0.2434168 -0.08819,0.2998613 -0.109361,0.1058334 -0.239889,0.1164167 -0.388055,0.1164167 -0.275167,0 -0.39864,-0.09525 -0.39864,-0.2963335 0,-0.2010834 0.127,-0.3069168 0.388056,-0.3069168 h 0.486834 z" />
      <path
         id="path8552"
         style="font-size:3.52778px;fill:#000000;fill-opacity:1;stroke:none;stroke-width:0.264583px"
         d="M 36.255048,6.0342345 V 4.9229838 c 0,-0.2010835 -0.0635,-0.3633613 -0.186972,-0.4833059 -0.105833,-0.1023056 -0.261056,-0.1622778 -0.448028,-0.1622778 -0.243417,0 -0.437445,0.098778 -0.5715,0.2892779 -0.105834,-0.1905001 -0.292806,-0.2892779 -0.532695,-0.2892779 -0.194028,0 -0.366889,0.070556 -0.490362,0.2116668 V 4.2985667 h -0.254 v 1.7356678 h 0.254 V 4.9653172 c 0,-0.3033891 0.172862,-0.4621392 0.433917,-0.4621392 0.261056,0 0.426862,0.1552223 0.426862,0.4621392 v 1.0689173 h 0.254 V 4.9370949 c 0,-0.2751668 0.179917,-0.4339169 0.433917,-0.4339169 0.261055,0 0.426861,0.1552223 0.426861,0.4621392 v 1.0689173 z" />
      <path
         id="path8554"
         style="font-size:3.52778px;fill:#000000;fill-opacity:1;stroke:none;stroke-width:0.264583px"
         d="M 37.126409,6.0342345 V 4.2985667 h -0.254 v 1.7356678 z m 0.01764,-2.229557 V 3.5189273 h -0.28575 v 0.2857502 z" />
      <path
         id="path8556"
         style="font-size:3.52778px;fill:#000000;fill-opacity:1;stroke:none;stroke-width:0.264583px"
         d="M 39.010238,5.7978733 38.837377,5.6320676 c -0.130528,0.144639 -0.232834,0.1975557 -0.398639,0.1975557 -0.169334,0 -0.310445,-0.067028 -0.402167,-0.1975557 -0.08114,-0.112889 -0.112889,-0.2469446 -0.112889,-0.465667 0,-0.2187223 0.03175,-0.352778 0.112889,-0.4656669 0.09172,-0.1305279 0.232833,-0.1975557 0.402167,-0.1975557 0.165805,0 0.268111,0.049389 0.398639,0.1940279 L 39.010238,4.534928 c -0.179917,-0.1940279 -0.331611,-0.2575279 -0.5715,-0.2575279 -0.437445,0 -0.769056,0.2963335 -0.769056,0.8890005 0,0.5926671 0.331611,0.8890006 0.769056,0.8890006 0.239889,0 0.391583,-0.0635 0.5715,-0.2575279 z" />
      <path
         id="path8558"
         style="font-size:3.52778px;fill:#000000;fill-opacity:1;stroke:none;stroke-width:0.264583px"
         d="m 40.745905,5.5262342 c 0,-0.3245558 -0.208139,-0.4409725 -0.511528,-0.4691948 L 39.955682,5.032345 C 39.73696,5.0147061 39.652293,4.9265116 39.652293,4.7783448 c 0,-0.176389 0.134056,-0.2857502 0.388056,-0.2857502 0.179916,0 0.338667,0.042333 0.462139,0.1375835 L 40.668294,4.4643724 C 40.513071,4.3373723 40.290821,4.2774001 40.043876,4.2774001 c -0.370416,0 -0.638528,0.1905001 -0.638528,0.5080003 0,0.2857502 0.179917,0.4374447 0.518584,0.465667 l 0.28575,0.024694 c 0.201084,0.017639 0.289278,0.1023056 0.289278,0.2540002 0,0.2046112 -0.176389,0.3069168 -0.462139,0.3069168 -0.215195,0 -0.402167,-0.056444 -0.53975,-0.2010834 l -0.169334,0.1693334 c 0.1905,0.1834446 0.419806,0.2504724 0.712612,0.2504724 0.419805,0 0.705556,-0.1940279 0.705556,-0.529167 z" />
      <path
         id="path8560"
         style="font-size:3.52778px;fill:#000000;fill-opacity:1;stroke:none;stroke-width:0.264583px"
         d="M 43.402312,6.0871512 V 4.2985667 H 43.15184 V 4.503178 C 43.010729,4.3197334 42.855506,4.2774001 42.665006,4.2774001 c -0.176389,0 -0.331611,0.059972 -0.423333,0.1516945 -0.172862,0.1728612 -0.211667,0.4409725 -0.211667,0.7231949 0,0.2822224 0.0388,0.5503337 0.211667,0.7231949 0.09172,0.091722 0.243416,0.1552223 0.419805,0.1552223 0.186973,0 0.345723,-0.045861 0.486834,-0.2257779 v 0.2716391 c 0,0.2963335 -0.141111,0.5326948 -0.47625,0.5326948 -0.201084,0 -0.289278,-0.059972 -0.416278,-0.1728612 l -0.165806,0.1622778 c 0.183445,0.1658057 0.328084,0.2328335 0.589139,0.2328335 0.455084,0 0.723195,-0.3139724 0.723195,-0.7443616 z m -0.254,-0.9348617 c 0,0.3245558 -0.05292,0.6491115 -0.430389,0.6491115 -0.377473,0 -0.433917,-0.3245557 -0.433917,-0.6491115 0,-0.3245558 0.05644,-0.6491115 0.433917,-0.6491115 0.377472,0 0.430389,0.3245557 0.430389,0.6491115 z" />
      <path
         id="path8562"
         style="font-size:3.52778px;fill:#000000;fill-opacity:1;stroke:none;stroke-width:0.264583px"
         d="M 45.275561,6.0342345 V 4.855956 c 0,-0.3774725 -0.229305,-0.5785559 -0.694972,-0.5785559 -0.282223,0 -0.458612,0.056444 -0.613834,0.2575279 l 0.172861,0.1587501 c 0.102306,-0.144639 0.215195,-0.1975557 0.437445,-0.1975557 0.3175,0 0.4445,0.1270001 0.4445,0.3810003 V 5.0429283 H 44.49945 c -0.388056,0 -0.599723,0.1975557 -0.599723,0.5009448 0,0.1375834 0.04586,0.2681113 0.130528,0.352778 0.109361,0.112889 0.250473,0.1587501 0.490362,0.1587501 0.232833,0 0.359833,-0.045861 0.500944,-0.1869723 v 0.1658056 z m -0.254,-0.6138337 c 0,0.144639 -0.02822,0.2434168 -0.08819,0.2998613 -0.109361,0.1058334 -0.239889,0.1164167 -0.388056,0.1164167 -0.275167,0 -0.398639,-0.09525 -0.398639,-0.2963335 0,-0.2010834 0.127,-0.3069168 0.388056,-0.3069168 h 0.486833 z" />
      <path
         id="path8564"
         style="font-size:3.52778px;fill:#000000;fill-opacity:1;stroke:none;stroke-width:0.264583px"
         d="M 46.559669,6.0342345 V 5.8155122 h -0.134056 c -0.162277,0 -0.236361,-0.09525 -0.236361,-0.2540002 V 4.503178 h 0.370417 V 4.3091501 H 46.189252 V 3.7658719 h -0.254 V 4.3091501 H 45.71653 V 4.503178 h 0.218722 v 1.0653896 c 0,0.2575279 0.148167,0.4656669 0.4445,0.4656669 z" />
      <path
         id="path8566"
         style="font-size:3.52778px;fill:#000000;fill-opacity:1;stroke:none;stroke-width:0.264583px"
         d="M 48.365884,5.2334285 V 5.1170117 c 0,-0.5150559 -0.264584,-0.8396116 -0.712612,-0.8396116 -0.440972,0 -0.712611,0.3280835 -0.712611,0.8890005 0,0.6138338 0.299861,0.8890006 0.758472,0.8890006 0.296334,0 0.458612,-0.091722 0.635001,-0.2681113 L 48.161273,5.6355954 c -0.137584,0.1375834 -0.254001,0.1975557 -0.455084,0.1975557 -0.331611,0 -0.511528,-0.2187224 -0.511528,-0.5997226 z m -0.254,-0.1905002 h -0.917223 c 0.0071,-0.1411112 0.01411,-0.1940279 0.05292,-0.2892779 0.06703,-0.1587501 0.22225,-0.2610558 0.405694,-0.2610558 0.183445,0 0.338667,0.1023057 0.405695,0.2610558 0.0388,0.09525 0.04586,0.1481667 0.05292,0.2892779 z" />
    </g>
  </g>
  <g
     style="display:none"
     inkscape:label="components"
     id="layer2"
     inkscape:groupmode="layer">
    <circle
       r="2"
       cy="21.055393"
       cx="11.065306"
       id="shape_1"
       style="opacity:0.25;fill:#ff0000;fill-opacity:1;fill-rule:evenodd;stroke-width:0.352999;stroke-miterlimit:10" />
    <circle
       style="opacity:0.25;fill:#ff0000;fill-opacity:1;fill-rule:evenodd;stroke-width:0.352999;stroke-miterlimit:10"
       id="shape_2"
       cx="49.785423"
       cy="21.055393"
       r="2" />
    <circle
       r="2"
       cy="15.025098"
       cx="24.715464"
       id="button_1"
       style="opacity:0.25;fill:#ff0000;fill-opacity:1;fill-rule:evenodd;stroke-width:0.352999;stroke-miterlimit:10" />
    <circle
       style="opacity:0.25;fill:#ff0000;fill-opacity:1;fill-rule:evenodd;stroke-width:0.352999;stroke-miterlimit:10"
       id="button_2"
       cx="36.135265"
       cy="15.025098"
       r="2" />
    <circle
       r="2"
       cy="44.55508"
       cx="11.065306"
       id="mod_1"
       style="opacity:0.25;fill:#ff0000;fill-opacity:1;fill-rule:evenodd;stroke-width:0.352999;stroke-miterlimit:10" />
    <circle
       style="opacity:0.25;fill:#ff0000;fill-opacity:1;fill-rule:evenodd;stroke-width:0.352999;stroke-miterlimit:10"
       id="mod_2"
       cx="49.785423"
       cy="44.55508"
       r="2" />
    <circle
       r="2"
       cy="68.04512"
       cx="11.065306"
       id="level_mod_1"
       style="opacity:0.25;fill:#ff0000;fill-opacity:1;fill-rule:evenodd;stroke-width:0.352999;stroke-miterlimit:10" />
    <circle
       r="2"
       cy="68.04512"
       cx="49.785423"
       id="level_mod_2"
       style="opacity:0.25;fill:#ff0000;fill-opacity:1;fill-rule:evenodd;stroke-width:0.352999;stroke-miterlimit:10" />
    <circle
       style="opacity:0.25;fill:#ff0000;fill-opacity:1;fill-rule:evenodd;stroke-width:0.352999;stroke-miterlimit:10"
       id="meter"
       cx="30.424675"
       cy="46.775101"
       r="2" />
    <circle
       r="2"
       cy="60.744961"
       cx="30.425364"
       id="knob_1"
       style="opacity:0.25;fill:#ff0000;fill-opacity:1;fill-rule:evenodd;stroke-width:0.352999;stroke-miterlimit:10" />
    <circle
       style="opacity:0.25;fill:#ff0000;fill-opacity:1;fill-rule:evenodd;stroke-width:0.352999;stroke-miterlimit:10"
       id="knob_2"
       cx="30.425364"
       cy="75.345276"
       r="2" />
    <circle
       r="2"
       cy="96.614609"
       cx="8.505599"
       id="excite_1"
       style="opacity:0.25;fill:#00ff00;fill-opacity:1;fill-rule:evenodd;stroke-width:0.352999;stroke-miterlimit:10" />
    <circle
       style="opacity:0.25;fill:#00ff00;fill-opacity:1;fill-rule:evenodd;stroke-width:0.352999;stroke-miterlimit:10"
       id="in_1"
       cx="23.115561"
       cy="96.614609"
       r="2" />
    <circle
       r="2"
       cy="96.614609"
       cx="37.725525"
       id="in_2"
       style="opacity:0.25;fill:#00ff00;fill-opacity:1;fill-rule:evenodd;stroke-width:0.352999;stroke-miterlimit:10" />
    <circle
       style="opacity:0.25;fill:#00ff00;fill-opacity:1;fill-rule:evenodd;stroke-width:0.352999;stroke-miterlimit:10"
       id="excite_2"
       cx="52.335487"
       cy="96.614609"
       r="2" />
    <circle
       r="2"
       cy="111.22457"
       cx="8.505599"
       id="level_1"
       style="opacity:0.25;fill:#00ff00;fill-opacity:1;fill-rule:evenodd;stroke-width:0.352999;stroke-miterlimit:10" />
    <circle
       style="opacity:0.25;fill:#00ff00;fill-opacity:1;fill-rule:evenodd;stroke-width:0.352999;stroke-miterlimit:10"
       id="level_2"
       cx="52.335487"
       cy="111.22457"
       r="2" />
    <circle
       r="1.9599944"
       cy="111.22457"
       cx="23.115561"
       id="out_1"
       style="opacity:0.25;fill:#0000ff;fill-opacity:1;fill-rule:evenodd;stroke-width:0.345938;stroke-miterlimit:10" />
    <circle
       style="opacity:0.25;fill:#0000ff;fill-opacity:1;fill-rule:evenodd;stroke-width:0.345938;stroke-miterlimit:10"
       id="out_2"
       cx="37.725525"
       cy="111.22457"
       r="1.9599944" />
    <circle
       style="opacity:0.25;fill:#ff00ff;fill-opacity:1;fill-rule:evenodd;stroke-width:0.352999;stroke-miterlimit:10"
       id="meter_1"
       cx="24.715464"
       cy="22.004862"
       r="2" />
    <circle
       r="2"
       cy="27.725098"
       cx="24.715464"
       id="circle2323"
       style="opacity:0.25;fill:#ff00ff;fill-opacity:1;fill-rule:evenodd;stroke-width:0.352999;stroke-miterlimit:10" />
    <circle
       style="opacity:0.25;fill:#ff00ff;fill-opacity:1;fill-rule:evenodd;stroke-width:0.352999;stroke-miterlimit:10"
       id="circle2325"
       cx="24.715464"
       cy="33.445335"
       r="2" />
    <circle
       r="2"
       cy="39.165573"
       cx="24.715464"
       id="circle2327"
       style="opacity:0.25;fill:#ff00ff;fill-opacity:1;fill-rule:evenodd;stroke-width:0.352999;stroke-miterlimit:10" />
    <circle
       style="opacity:0.25;fill:#ff00ff;fill-opacity:1;fill-rule:evenodd;stroke-width:0.352999;stroke-miterlimit:10"
       id="circle2329"
       cx="36.135265"
       cy="22.004862"
       r="2" />
    <circle
       r="2"
       cy="27.725098"
       cx="36.135265"
       id="circle2331"
       style="opacity:0.25;fill:#ff00ff;fill-opacity:1;fill-rule:evenodd;stroke-width:0.352999;stroke-miterlimit:10" />
    <circle
       style="opacity:0.25;fill:#ff00ff;fill-opacity:1;fill-rule:evenodd;stroke-width:0.352999;stroke-miterlimit:10"
       id="circle2333"
       cx="36.135265"
       cy="33.445335"
       r="2" />
    <circle
       r="2"
       cy="39.165573"
       cx="36.135265"
       id="circle2335"
       style="opacity:0.25;fill:#ff00ff;fill-opacity:1;fill-rule:evenodd;stroke-width:0.352999;stroke-miterlimit:10" />
  </g>
</svg>
