<?xml version="1.0" encoding="UTF-8" standalone="no"?>
<!-- Generator: Adobe Illustrator 16.0.3, SVG Export Plug-In . SVG Version: 6.00 Build 0)  -->

<svg
   version="1.1"
   x="0px"
   y="0px"
   width="210px"
   height="380px"
   viewBox="0 0 210 380"
   enable-background="new 0 0 210 380"
   xml:space="preserve"
   id="svg932"
   sodipodi:docname="Tides.svg"
   inkscape:version="1.3.2 (091e20e, 2023-11-25)"
   inkscape:export-filename="Tides.png"
   inkscape:export-xdpi="96"
   inkscape:export-ydpi="96"
   xmlns:inkscape="http://www.inkscape.org/namespaces/inkscape"
   xmlns:sodipodi="http://sodipodi.sourceforge.net/DTD/sodipodi-0.dtd"
   xmlns="http://www.w3.org/2000/svg"
   xmlns:svg="http://www.w3.org/2000/svg"><defs
   id="defs932" /><sodipodi:namedview
   id="namedview932"
   pagecolor="#ffffff"
   bordercolor="#000000"
   borderopacity="0.25"
   inkscape:showpageshadow="2"
   inkscape:pageopacity="0.0"
   inkscape:pagecheckerboard="0"
   inkscape:deskcolor="#d1d1d1"
   inkscape:zoom="2.2549855"
   inkscape:cx="111.75238"
   inkscape:cy="173.17185"
   inkscape:window-width="1392"
   inkscape:window-height="1212"
   inkscape:window-x="50"
   inkscape:window-y="25"
   inkscape:window-maximized="0"
   inkscape:current-layer="faceplate" />
<g
   id="faceplate">
	<rect
   id="background"
   fill="#e6e6e6"
   width="210"
   height="380"
   x="0"
   y="0"
   style="display:inline" />
	
	
	
	<g
   id="g809">
		<g
   id="g807">
			<line
   fill="#BBBDBF"
   x1="0.065"
   y1="24.583"
   x2="210.763"
   y2="24.583"
   id="line806" />
			<rect
   x="0.065"
   y="24.062"
   fill="#BBBDBF"
   width="210.698"
   height="1.043"
   id="rect806" />
		</g>
		<g
   id="g808">
			<line
   fill="#BBBDBF"
   x1="0.065"
   y1="32.285"
   x2="210.763"
   y2="32.285"
   id="line807" />
			<rect
   x="0.065"
   y="31.764"
   fill="#BBBDBF"
   width="210.698"
   height="1.043"
   id="rect807" />
		</g>
	</g>
	<g
   id="g810">
		<path
   fill="#231F20"
   d="M190.311,57.276c-2.338,0-4.231,1.892-4.231,4.229c0,2.338,1.894,4.23,4.231,4.23    c2.335,0,4.229-1.892,4.229-4.23C194.54,59.168,192.646,57.276,190.311,57.276z M192.532,62.118h-1.604v1.605h-1.224v-1.605    h-1.615v-1.224h1.615v-1.605h1.224v1.605h1.604V62.118z"
   id="path809" />
		<path
   fill="#231F20"
   d="M162.139,57.276c-2.336,0-4.231,1.892-4.231,4.229c0,2.338,1.896,4.23,4.231,4.23    c2.335,0,4.229-1.892,4.229-4.23C166.368,59.168,164.474,57.276,162.139,57.276z M164.074,62.264h-3.869v-1.518h3.869V62.264z"
   id="path810" />
		<rect
   x="175.781"
   y="57.166"
   fill="#231F20"
   width="0.887"
   height="8.679"
   id="rect810" />
	</g>
	<g
   id="g815">
		<path
   fill="#231F20"
   d="M21.645,210.029c-0.901,0-1.584-0.191-2.168-0.784l0.75-0.749c0.377,0.374,0.885,0.499,1.435,0.499    c0.683,0,1.051-0.259,1.051-0.733c0-0.208-0.058-0.383-0.184-0.501c-0.116-0.108-0.25-0.167-0.526-0.208l-0.717-0.1    c-0.507-0.075-0.884-0.234-1.15-0.493c-0.284-0.283-0.425-0.666-0.425-1.167c0-1.06,0.783-1.801,2.068-1.801    c0.816,0,1.409,0.199,1.917,0.692l-0.734,0.726c-0.375-0.358-0.825-0.41-1.218-0.41c-0.616,0-0.917,0.343-0.917,0.752    c0,0.148,0.051,0.308,0.175,0.424c0.117,0.11,0.31,0.201,0.55,0.234l0.701,0.1c0.542,0.075,0.884,0.226,1.134,0.458    c0.317,0.302,0.458,0.735,0.458,1.261C23.846,209.378,22.887,210.029,21.645,210.029z"
   id="path811" />
		<path
   fill="#231F20"
   d="M28.11,209.979v-2.485h-2.009v2.485h-1.159v-5.938h1.159v2.428h2.009v-2.428h1.158v5.938H28.11z"
   id="path812" />
		<path
   fill="#231F20"
   d="M34.033,209.979l-0.351-1.051h-2.108l-0.358,1.051h-1.21l2.16-5.938h0.909l2.167,5.938H34.033z     M32.649,205.793l-0.75,2.159h1.476L32.649,205.793z"
   id="path813" />
		<path
   fill="#231F20"
   d="M38.282,207.744h-1.143v2.234H35.98v-5.938h2.302c1.224,0,1.959,0.844,1.959,1.852    C40.241,206.903,39.506,207.744,38.282,207.744z M38.223,205.076h-1.084v1.625h1.084c0.525,0,0.859-0.324,0.859-0.809    C39.082,205.41,38.748,205.076,38.223,205.076z"
   id="path814" />
		<path
   fill="#231F20"
   d="M41.219,209.979v-5.938h3.911v1.035h-2.752v1.393h2.342v1.033h-2.342v1.444h2.752v1.032H41.219z"
   id="path815" />
	</g>
	<g
   id="g816">
		<rect
   x="9.67"
   y="251.873"
   fill="#BBBDBF"
   width="191.517"
   height="2.085"
   id="rect815" />
	</g>
	<g
   id="g818">
		<path
   fill="#00A1A7"
   d="M89.049,127.018h-1.092v1.566h1.092c0.509,0,0.843-0.325,0.843-0.783    C89.893,127.341,89.559,127.018,89.049,127.018z"
   id="path816" />
		<path
   fill="#00A1A7"
   d="M99.295,126.966c-0.315,0-0.583,0.125-0.75,0.318c-0.226,0.25-0.283,0.524-0.283,1.666    c0,1.143,0.057,1.418,0.283,1.668c0.167,0.191,0.434,0.318,0.75,0.318c0.143,0,0.277-0.035,0.385-0.109l-0.518-0.508l0.617-0.609    l0.442,0.442c0.092-0.259,0.108-0.601,0.108-1.202c0-1.142-0.067-1.417-0.292-1.666C99.872,127.092,99.613,126.966,99.295,126.966    z"
   id="path817" />
		<path
   fill="#00A1A7"
   d="M130.857,123.294H78.706c-1.625,0-2.956,1.33-2.956,2.957v5.913c0,1.626,1.33,2.957,2.956,2.957h52.151    c1.625,0,2.955-1.33,2.955-2.957v-5.913C133.812,124.624,132.482,123.294,130.857,123.294z M85.789,127.018h-2.752v1.458h2.342    v1.035h-2.342v2.41h-1.159v-5.938h3.911V127.018z M89.95,131.92l-1.159-2.369h-0.833v2.369h-1.159v-5.938h2.326    c1.21,0,1.927,0.825,1.927,1.818c0,0.834-0.509,1.352-1.083,1.559l1.326,2.561H89.95z M96.167,127.018h-2.752v1.391h2.342v1.035    h-2.342v1.442h2.752v1.035h-3.911v-5.938h3.911V127.018z M101.022,132.17l-0.525-0.524c-0.334,0.216-0.733,0.324-1.202,0.324    c-0.674,0-1.191-0.232-1.609-0.65c-0.599-0.601-0.583-1.342-0.583-2.369c0-1.024-0.017-1.767,0.583-2.367    c0.417-0.417,0.935-0.651,1.609-0.651c0.676,0,1.186,0.233,1.601,0.651c0.601,0.6,0.593,1.342,0.593,2.367    c0,0.894,0.008,1.552-0.367,2.103l0.509,0.509L101.022,132.17z M106.945,129.885c0,1.259-0.967,2.084-2.185,2.084    c-1.218,0-2.184-0.825-2.184-2.084v-3.902h1.159v3.861c0,0.683,0.399,1.093,1.025,1.093c0.625,0,1.035-0.41,1.035-1.093v-3.861    h1.15V129.885z M112.152,127.018H109.4v1.391h2.342v1.035H109.4v1.442h2.752v1.035h-3.911v-5.938h3.911V127.018z M117.833,131.92    h-1.032l-2.354-3.644v3.644h-1.158v-5.938h1.034l2.351,3.636v-3.636h1.159V131.92z M120.471,130.627    c0.175,0.208,0.426,0.31,0.741,0.31c0.561,0,0.876-0.334,1.003-0.843h1.175c-0.199,1.21-1.051,1.876-2.186,1.876    c-0.634,0-1.167-0.216-1.601-0.65c-0.259-0.259-0.416-0.558-0.483-0.892s-0.1-0.825-0.1-1.477c0-0.649,0.032-1.142,0.1-1.475    c0.067-0.342,0.225-0.633,0.483-0.892c0.434-0.434,0.967-0.651,1.601-0.651c1.143,0,1.986,0.667,2.186,1.876h-1.175    c-0.127-0.508-0.442-0.842-1.003-0.842c-0.315,0-0.566,0.1-0.741,0.309c-0.242,0.259-0.291,0.526-0.291,1.675    C120.18,130.101,120.229,130.368,120.471,130.627z M126.569,129.484v2.437h-1.151v-2.437l-1.784-3.501h1.259l1.11,2.393    l1.092-2.393h1.259L126.569,129.484z"
   id="path818" />
	</g>
	<path
   fill="#00A1A7"
   d="M185.028,123.294H167.42c-1.626,0-2.956,1.33-2.956,2.957v5.913c0,1.626,1.33,2.957,2.956,2.957h17.608   c1.626,0,2.956-1.33,2.956-2.957v-5.913C187.984,124.624,186.654,123.294,185.028,123.294z M174.983,127.018h-2.751v1.458h2.343   v1.035h-2.343v2.41h-1.159v-5.938h3.91V127.018z M181.372,131.92h-1.158v-3.461l-1.133,2.251h-0.784l-1.142-2.251v3.461h-1.159   v-5.938h1.142l1.551,3.21l1.543-3.21h1.141V131.92z"
   id="path819" />
	<g
   id="g819">
		<polygon
   fill="#6D6E70"
   points="108.213,150.685 104.78,147.071 101.351,150.685 100.595,149.968 104.78,145.555 108.969,149.968       "
   id="polygon819" />
	</g>
	<g
   id="g820">
		<polygon
   fill="#6D6E70"
   points="172.793,150.685 172.037,149.968 176.225,145.555 180.411,149.968 179.655,150.685     176.225,147.071   "
   id="polygon820" />
	</g>
	<g
   id="g821">
		<polygon
   fill="#6D6E70"
   points="87.661,199.595 80.808,195.983 80.808,199.133 79.765,199.133 79.765,194.256 88.148,198.672       "
   id="polygon821" />
	</g>
	<g
   id="g822">
		<polygon
   fill="#6D6E70"
   points="121.901,199.595 121.415,198.672 129.798,194.256 129.798,199.133 128.755,199.133     128.755,195.983   "
   id="polygon822" />
	</g>
	<g
   id="g823">
		<polygon
   fill="#6D6E70"
   points="193.209,199.253 192.577,198.424 193.694,197.572 193.83,194.909 195.368,195.746     196.653,194.017 198.136,195.578 199.972,195.127 199.793,197.324 200.889,198.48 200.133,199.197 198.716,197.705     198.814,196.485 197.796,196.734 196.751,195.634 195.665,197.094 194.787,196.616 194.711,198.107   "
   id="polygon823" />
	</g>
	<g
   id="g824">
		<path
   fill="#6D6E70"
   d="M157.484,199.654c-1.307,0-2.37-1.107-2.37-2.47c0-0.787-0.596-1.428-1.328-1.428    s-1.328,0.641-1.328,1.428v1.948h-1.043v-1.948c0-1.362,1.063-2.471,2.371-2.471s2.371,1.108,2.371,2.471    c0,0.787,0.596,1.427,1.327,1.427s1.327-0.64,1.327-1.427v-1.949h1.043v1.949C159.854,198.547,158.791,199.654,157.484,199.654z"
   id="path823" />
	</g>
	<g
   id="g828">
		<path
   fill="#6D6E70"
   d="M175.268,310.272h-1.21v1.46h1.21c0.524,0,0.775-0.334,0.775-0.734S175.792,310.272,175.268,310.272z"
   id="path824" />
		<path
   fill="#6D6E70"
   d="M191.013,303.773H52.42c-1.625,0-2.956,1.33-2.956,2.956v35.536c0,1.626,1.33,2.956,2.956,2.956h138.593    c1.626,0,2.957-1.33,2.957-2.956v-35.536C193.97,305.104,192.639,303.773,191.013,303.773z M96.838,306.828h1.159v4.904h2.693    v1.033h-3.852V306.828z M61.266,310.281v2.484h-1.159v-5.938h1.159v2.428h2.01v-2.428h1.159v5.938h-1.159v-2.484H61.266z     M65.137,329.156h-0.521c-0.288,0-0.521-0.233-0.521-0.521s0.233-0.521,0.521-0.521h0.521c0.288,0,0.521,0.233,0.521,0.521    S65.425,329.156,65.137,329.156z M65.823,306.828h1.159v5.938h-1.159V306.828z M67.745,329.156h-0.521    c-0.289,0-0.521-0.233-0.521-0.521s0.233-0.521,0.521-0.521h0.521c0.288,0,0.521,0.233,0.521,0.521S68.033,329.156,67.745,329.156    z M68.267,311.272c-0.067-0.333-0.1-0.824-0.1-1.476c0-0.649,0.033-1.142,0.1-1.476c0.067-0.342,0.226-0.634,0.483-0.892    c0.434-0.435,0.967-0.651,1.601-0.651c1.352,0,2.077,0.868,2.236,1.901h-1.168c-0.142-0.575-0.492-0.866-1.067-0.866    c-0.309,0-0.559,0.107-0.742,0.316c-0.216,0.275-0.283,0.492-0.283,1.667c0,1.169,0.05,1.401,0.283,1.677    c0.175,0.209,0.426,0.309,0.742,0.309c0.342,0,0.616-0.109,0.826-0.334c0.175-0.2,0.267-0.467,0.267-0.791v-0.226h-1.093v-0.968    h2.244v0.867c0,0.867-0.159,1.376-0.568,1.81c-0.458,0.467-1.008,0.675-1.675,0.675c-0.634,0-1.167-0.217-1.601-0.65    C68.493,311.907,68.334,311.607,68.267,311.272z M70.352,329.156H69.83c-0.288,0-0.521-0.233-0.521-0.521s0.233-0.521,0.521-0.521    h0.521c0.289,0,0.521,0.233,0.521,0.521S70.64,329.156,70.352,329.156z M72.959,329.156h-0.521c-0.288,0-0.521-0.233-0.521-0.521    s0.233-0.521,0.521-0.521h0.521c0.288,0,0.521,0.233,0.521,0.521S73.247,329.156,72.959,329.156z M75.566,329.156h-0.521    c-0.289,0-0.521-0.233-0.521-0.521s0.233-0.521,0.521-0.521h0.521c0.288,0,0.521,0.233,0.521,0.521S75.854,329.156,75.566,329.156    z M74.84,310.281v2.484h-1.159v-5.938h1.159v2.428h2.011v-2.428h1.159v5.938h-1.159v-2.484H74.84z M78.173,329.156h-0.521    c-0.288,0-0.521-0.233-0.521-0.521s0.233-0.521,0.521-0.521h0.521c0.288,0,0.521,0.233,0.521,0.521S78.461,329.156,78.173,329.156    z M80.781,329.156h-0.521c-0.288,0-0.521-0.233-0.521-0.521s0.233-0.521,0.521-0.521h0.521c0.288,0,0.521,0.233,0.521,0.521    S81.069,329.156,80.781,329.156z M82.182,319.796h-0.87v-3.677h-1.163v-0.775h3.195v0.775h-1.162V319.796z M83.388,329.156h-0.521    c-0.288,0-0.521-0.233-0.521-0.521s0.233-0.521,0.521-0.521h0.521c0.289,0,0.521,0.233,0.521,0.521S83.676,329.156,83.388,329.156    z M84.923,319.796h-0.869v-4.452h0.869V319.796z M85.995,329.156h-0.521c-0.288,0-0.521-0.233-0.521-0.521    s0.233-0.521,0.521-0.521h0.521c0.288,0,0.521,0.233,0.521,0.521S86.283,329.156,85.995,329.156z M88.603,329.156h-0.521    c-0.289,0-0.521-0.233-0.521-0.521s0.233-0.521,0.521-0.521h0.521c0.288,0,0.521,0.233,0.521,0.521S88.891,329.156,88.603,329.156    z M88.744,319.371c-0.292,0.294-0.712,0.425-1.174,0.425h-1.607v-4.452h1.607c0.462,0,0.882,0.131,1.174,0.425    c0.502,0.501,0.451,1.113,0.451,1.783C89.195,318.221,89.246,318.871,88.744,319.371z M90.086,315.344h2.933v0.775h-2.065v1.045    h1.758v0.774h-1.758v1.083h2.065v0.774h-2.933V315.344z M91.209,329.156h-0.521c-0.288,0-0.521-0.233-0.521-0.521    s0.233-0.521,0.521-0.521h0.521c0.289,0,0.521,0.233,0.521,0.521S91.498,329.156,91.209,329.156z M93.817,329.156h-0.521    c-0.288,0-0.521-0.233-0.521-0.521s0.233-0.521,0.521-0.521h0.521c0.288,0,0.521,0.233,0.521,0.521S94.105,329.156,93.817,329.156    z M96.424,329.156h-0.521c-0.289,0-0.521-0.233-0.521-0.521s0.233-0.521,0.521-0.521h0.521c0.288,0,0.521,0.233,0.521,0.521    S96.712,329.156,96.424,329.156z M99.031,329.156H98.51c-0.288,0-0.521-0.233-0.521-0.521s0.233-0.521,0.521-0.521h0.521    c0.288,0,0.521,0.233,0.521,0.521S99.319,329.156,99.031,329.156z M101.639,329.156h-0.521c-0.288,0-0.521-0.233-0.521-0.521    s0.233-0.521,0.521-0.521h0.521c0.288,0,0.521,0.233,0.521,0.521S101.927,329.156,101.639,329.156z M104.246,329.156h-0.521    c-0.289,0-0.521-0.233-0.521-0.521s0.233-0.521,0.521-0.521h0.521c0.289,0,0.521,0.233,0.521,0.521    S104.534,329.156,104.246,329.156z M105.013,312.165c-0.417,0.418-0.925,0.65-1.601,0.65c-0.675,0-1.191-0.232-1.609-0.65    c-0.601-0.6-0.584-1.342-0.584-2.368c0-1.025-0.017-1.767,0.584-2.367c0.417-0.417,0.934-0.651,1.609-0.651    c0.676,0,1.185,0.234,1.601,0.651c0.601,0.601,0.593,1.342,0.593,2.367C105.605,310.823,105.614,311.565,105.013,312.165z     M106.854,329.156h-0.521c-0.289,0-0.522-0.233-0.522-0.521s0.233-0.521,0.522-0.521h0.521c0.288,0,0.521,0.233,0.521,0.521    S107.142,329.156,106.854,329.156z M109.46,329.156h-0.521c-0.288,0-0.521-0.233-0.521-0.521s0.233-0.521,0.521-0.521h0.521    c0.288,0,0.521,0.233,0.521,0.521S109.748,329.156,109.46,329.156z M112.067,329.156h-0.521c-0.288,0-0.521-0.233-0.521-0.521    s0.233-0.521,0.521-0.521h0.521c0.288,0,0.521,0.233,0.521,0.521S112.355,329.156,112.067,329.156z M111.771,312.766h-0.969    l-1.092-3.602l-1.092,3.602h-0.968l-1.585-5.938h1.21l0.917,3.745l1.084-3.745h0.867l1.084,3.745l0.927-3.745h1.208    L111.771,312.766z M138.448,310.731c0,1.26-0.967,2.084-2.186,2.084c-1.218,0-2.186-0.824-2.186-2.084v-3.903h1.16v3.861    c0,0.685,0.4,1.093,1.025,1.093c0.626,0,1.035-0.408,1.035-1.093v-3.861h1.15V310.731z M144.288,312.766h-1.034l-2.352-3.644    v3.644h-1.159v-5.938h1.033l2.352,3.636v-3.636h1.16V312.766z M146.835,312.766h-1.159v-5.938h1.159V312.766z M175.384,312.766    h-2.485v-5.938h2.386c1.159,0,1.833,0.651,1.833,1.669c0,0.658-0.434,1.083-0.733,1.226c0.358,0.166,0.817,0.542,0.817,1.334    C177.201,312.165,176.443,312.766,175.384,312.766z M179.547,312.766h-1.158v-5.938h1.158V312.766z"
   id="path825" />
		<path
   fill="#6D6E70"
   d="M87.488,316.119h-0.657v2.902h0.657c0.3,0,0.5-0.095,0.651-0.276c0.162-0.199,0.187-0.519,0.187-1.193    c0-0.677-0.025-0.957-0.187-1.158C87.988,316.213,87.789,316.119,87.488,316.119z"
   id="path826" />
		<path
   fill="#6D6E70"
   d="M175.959,308.547c0-0.409-0.275-0.684-0.767-0.684h-1.135v1.366h1.135    C175.684,309.229,175.959,308.955,175.959,308.547z"
   id="path827" />
		<path
   fill="#6D6E70"
   d="M103.412,307.813c-0.315,0-0.583,0.124-0.75,0.316c-0.226,0.25-0.285,0.525-0.285,1.667    c0,1.143,0.059,1.418,0.285,1.669c0.167,0.191,0.434,0.316,0.75,0.316c0.318,0,0.577-0.125,0.743-0.316    c0.225-0.251,0.292-0.526,0.292-1.669c0-1.142-0.067-1.417-0.292-1.667C103.988,307.938,103.729,307.813,103.412,307.813z"
   id="path828" />
	</g>
	<g
   id="g834">
		<g
   id="g833">
			<path
   fill="#231F20"
   d="M23.092,312.815c-0.633,0-1.167-0.217-1.601-0.65c-0.258-0.258-0.417-0.558-0.483-0.893     c-0.066-0.333-0.101-0.824-0.101-1.476c0-0.649,0.035-1.142,0.101-1.476c0.066-0.342,0.225-0.634,0.483-0.892     c0.434-0.435,0.968-0.651,1.601-0.651c1.143,0,1.984,0.667,2.185,1.877h-1.176c-0.124-0.509-0.442-0.842-1-0.842     c-0.318,0-0.567,0.1-0.743,0.309c-0.241,0.258-0.292,0.524-0.292,1.675c0,1.151,0.051,1.418,0.292,1.677     c0.175,0.209,0.425,0.309,0.743,0.309c0.558,0,0.876-0.334,1-0.843h1.176C25.076,312.148,24.226,312.815,23.092,312.815z"
   id="path829" />
			<path
   fill="#231F20"
   d="M26.28,312.766v-5.938h1.159v4.904h2.693v1.033H26.28z"
   id="path830" />
			<path
   fill="#231F20"
   d="M34.454,312.165c-0.417,0.418-0.925,0.65-1.601,0.65c-0.675,0-1.191-0.232-1.609-0.65     c-0.601-0.6-0.584-1.342-0.584-2.368c0-1.025-0.017-1.767,0.584-2.367c0.417-0.417,0.934-0.651,1.609-0.651     c0.676,0,1.185,0.234,1.601,0.651c0.601,0.601,0.593,1.342,0.593,2.367C35.047,310.823,35.055,311.565,34.454,312.165z      M33.595,308.13c-0.165-0.192-0.424-0.316-0.742-0.316c-0.315,0-0.583,0.124-0.75,0.316c-0.226,0.25-0.284,0.525-0.284,1.667     c0,1.143,0.058,1.418,0.284,1.669c0.166,0.191,0.434,0.316,0.75,0.316c0.318,0,0.577-0.125,0.742-0.316     c0.226-0.251,0.293-0.526,0.293-1.669C33.888,308.655,33.821,308.38,33.595,308.13z"
   id="path831" />
			<path
   fill="#231F20"
   d="M38.218,312.815c-0.633,0-1.167-0.217-1.601-0.65c-0.259-0.258-0.418-0.558-0.485-0.893     c-0.065-0.333-0.1-0.824-0.1-1.476c0-0.649,0.035-1.142,0.1-1.476c0.067-0.342,0.226-0.634,0.485-0.892     c0.434-0.435,0.967-0.651,1.601-0.651c1.143,0,1.984,0.667,2.185,1.877h-1.176c-0.124-0.509-0.442-0.842-1-0.842     c-0.318,0-0.567,0.1-0.742,0.309c-0.242,0.258-0.292,0.524-0.292,1.675c0,1.151,0.051,1.418,0.292,1.677     c0.175,0.209,0.424,0.309,0.742,0.309c0.558,0,0.876-0.334,1-0.843h1.176C40.203,312.148,39.351,312.815,38.218,312.815z"
   id="path832" />
			<path
   fill="#231F20"
   d="M44.859,312.766l-1.526-2.701l-0.768,0.917v1.784h-1.159v-5.938h1.159v2.586l2.094-2.586h1.409     l-1.969,2.361l2.11,3.576H44.859z"
   id="path833" />
		</g>
	</g>
	<g
   id="g835">
		<path
   fill="#00A1A7"
   d="M103.738,264.307c-0.318,0-0.585,0.125-0.752,0.317c-0.224,0.249-0.283,0.525-0.283,1.667    c0,1.143,0.059,1.418,0.283,1.668c0.167,0.191,0.434,0.316,0.752,0.316c0.315,0,0.574-0.125,0.741-0.316    c0.225-0.25,0.292-0.525,0.292-1.668c0-1.142-0.066-1.418-0.292-1.667C104.312,264.432,104.053,264.307,103.738,264.307z"
   id="path834" />
		<path
   fill="#00A1A7"
   d="M117.988,260.578H91.05c-1.625,0-2.956,1.33-2.956,2.957v5.913c0,1.626,1.33,2.956,2.956,2.956h26.938    c1.625,0,2.955-1.33,2.955-2.956v-5.913C120.943,261.908,119.613,260.578,117.988,260.578z M95.694,269.26h-0.868l-1.959-5.938    h1.202l1.191,3.87l1.193-3.87h1.209L95.694,269.26z M98.707,269.877H97.69l2.375-7.171h1.019L98.707,269.877z M105.339,268.659    c-0.418,0.417-0.927,0.65-1.601,0.65c-0.676,0-1.194-0.233-1.61-0.65c-0.6-0.601-0.583-1.343-0.583-2.368    s-0.017-1.768,0.583-2.368c0.417-0.416,0.934-0.65,1.61-0.65c0.674,0,1.183,0.234,1.601,0.65c0.599,0.601,0.59,1.343,0.59,2.368    S105.938,268.059,105.339,268.659z M108.367,267.967c0.176,0.209,0.426,0.309,0.743,0.309c0.559,0,0.874-0.334,1.001-0.842h1.175    c-0.199,1.209-1.051,1.876-2.186,1.876c-0.633,0-1.167-0.217-1.601-0.65c-0.258-0.258-0.416-0.559-0.483-0.893    c-0.066-0.333-0.1-0.825-0.1-1.476c0-0.649,0.033-1.142,0.1-1.476c0.067-0.343,0.226-0.634,0.483-0.893    c0.434-0.434,0.968-0.65,1.601-0.65c1.143,0,1.986,0.667,2.186,1.877h-1.175c-0.127-0.51-0.442-0.843-1.001-0.843    c-0.317,0-0.567,0.101-0.743,0.309c-0.242,0.258-0.291,0.524-0.291,1.676C108.076,267.441,108.125,267.709,108.367,267.967z     M115.941,264.356h-1.551v4.903h-1.159v-4.903h-1.551v-1.034h4.261V264.356z"
   id="path835" />
	</g>
	<path
   fill="#00A1A7"
   d="M149.15,260.577h-17.821c-1.625,0-2.955,1.33-2.955,2.957v5.913c0,1.626,1.33,2.956,2.955,2.956h17.821   c1.626,0,2.956-1.33,2.956-2.956v-5.913C152.106,261.907,150.776,260.577,149.15,260.577z M138.998,264.356h-2.751v1.46h2.342   v1.033h-2.342v2.41h-1.159v-5.937h3.91V264.356z M145.389,269.26h-1.159v-3.461l-1.135,2.252h-0.784l-1.141-2.252v3.461h-1.159   v-5.937h1.141l1.553,3.21l1.541-3.21h1.144V269.26z"
   id="path836" />
	<g
   id="g843">
		<g
   id="g842">
			<path
   fill="#231F20"
   d="M55.349,264.356v1.46h2.343v1.033h-2.343v2.41h-1.16v-5.938H58.1v1.034H55.349z"
   id="path837" />
			<path
   fill="#231F20"
   d="M62.263,269.26l-1.159-2.368H60.27v2.368h-1.159v-5.938h2.326c1.21,0,1.927,0.826,1.927,1.817     c0,0.835-0.509,1.352-1.084,1.56l1.326,2.561H62.263z M61.362,264.356H60.27v1.567h1.092c0.509,0,0.843-0.324,0.843-0.784     C62.205,264.682,61.871,264.356,61.362,264.356z"
   id="path838" />
			<path
   fill="#231F20"
   d="M64.568,269.26v-5.938h3.911v1.034h-2.751v1.393h2.342v1.034h-2.342v1.442h2.751v1.034H64.568z"
   id="path839" />
			<path
   fill="#231F20"
   d="M69.615,269.26v-5.938h3.911v1.034h-2.752v1.393h2.342v1.034h-2.342v1.442h2.752v1.034H69.615z"
   id="path840" />
			<path
   fill="#231F20"
   d="M74.304,269.26v-0.934l2.534-3.97h-2.426v-1.034h3.795v0.918l-2.544,3.985h2.544v1.034H74.304z"
   id="path841" />
			<path
   fill="#231F20"
   d="M79.233,269.26v-5.938h3.911v1.034h-2.752v1.393h2.345v1.034h-2.345v1.442h2.752v1.034H79.233z"
   id="path842" />
		</g>
	</g>
	<g
   id="g848">
		<g
   id="g847">
			<path
   fill="#231F20"
   d="M164.647,269.26v-5.938h1.159v4.903h2.693v1.034H164.647z"
   id="path843" />
			<path
   fill="#231F20"
   d="M169.445,269.26v-5.938h3.911v1.034h-2.752v1.393h2.343v1.034h-2.343v1.442h2.752v1.034H169.445z"
   id="path844" />
			<path
   fill="#231F20"
   d="M176.652,269.26h-0.867l-1.96-5.938h1.201l1.192,3.87l1.191-3.87h1.21L176.652,269.26z"
   id="path845" />
			<path
   fill="#231F20"
   d="M179.34,269.26v-5.938h3.91v1.034h-2.752v1.393h2.345v1.034h-2.345v1.442h2.752v1.034H179.34z"
   id="path846" />
			<path
   fill="#231F20"
   d="M184.387,269.26v-5.938h1.159v4.903h2.692v1.034H184.387z"
   id="path847" />
		</g>
	</g>
	<g
   id="g849">
		<path
   fill="#231F20"
   d="M53.715,107.597h-0.521c-0.288,0-0.521-0.233-0.521-0.521s0.233-0.521,0.521-0.521h0.521    c0.287,0,0.521,0.233,0.521,0.521S54.002,107.597,53.715,107.597z M51.108,107.597h-0.521c-0.288,0-0.521-0.233-0.521-0.521    s0.233-0.521,0.521-0.521h0.521c0.287,0,0.521,0.233,0.521,0.521S51.395,107.597,51.108,107.597z M48.501,107.597h-0.521    c-0.289,0-0.521-0.233-0.521-0.521s0.233-0.521,0.521-0.521h0.521c0.287,0,0.521,0.233,0.521,0.521S48.788,107.597,48.501,107.597    z M45.894,107.597h-0.521c-0.288,0-0.521-0.233-0.521-0.521s0.233-0.521,0.521-0.521h0.521c0.287,0,0.521,0.233,0.521,0.521    S46.181,107.597,45.894,107.597z M43.286,107.597h-0.521c-0.288,0-0.521-0.233-0.521-0.521s0.233-0.521,0.521-0.521h0.521    c0.288,0,0.521,0.233,0.521,0.521S43.574,107.597,43.286,107.597z M40.679,107.597h-0.521c-0.288,0-0.521-0.233-0.521-0.521    s0.233-0.521,0.521-0.521h0.521c0.287,0,0.521,0.233,0.521,0.521S40.966,107.597,40.679,107.597z M38.072,107.597H37.55    c-0.288,0-0.521-0.233-0.521-0.521s0.233-0.521,0.521-0.521h0.521c0.287,0,0.521,0.233,0.521,0.521S38.359,107.597,38.072,107.597    z M35.464,107.597h-0.521c-0.289,0-0.521-0.233-0.521-0.521s0.233-0.521,0.521-0.521h0.521c0.288,0,0.521,0.233,0.521,0.521    S35.752,107.597,35.464,107.597z M32.857,107.597h-0.521c-0.288,0-0.521-0.233-0.521-0.521s0.233-0.521,0.521-0.521h0.521    c0.287,0,0.521,0.233,0.521,0.521S33.145,107.597,32.857,107.597z"
   id="path848" />
	</g>
	<g
   id="g850">
		<path
   fill="#231F20"
   d="M53.715,66.222h-0.521c-0.288,0-0.521-0.233-0.521-0.521c0-0.288,0.233-0.521,0.521-0.521h0.521    c0.287,0,0.521,0.233,0.521,0.521C54.237,65.989,54.002,66.222,53.715,66.222z M51.108,66.222h-0.521    c-0.288,0-0.521-0.233-0.521-0.521c0-0.288,0.233-0.521,0.521-0.521h0.521c0.287,0,0.521,0.233,0.521,0.521    C51.629,65.989,51.395,66.222,51.108,66.222z M48.501,66.222h-0.521c-0.289,0-0.521-0.233-0.521-0.521    c0-0.288,0.233-0.521,0.521-0.521h0.521c0.287,0,0.521,0.233,0.521,0.521C49.022,65.989,48.788,66.222,48.501,66.222z     M45.894,66.222h-0.521c-0.288,0-0.521-0.233-0.521-0.521c0-0.288,0.233-0.521,0.521-0.521h0.521c0.287,0,0.521,0.233,0.521,0.521    C46.415,65.989,46.181,66.222,45.894,66.222z M43.286,66.222h-0.521c-0.288,0-0.521-0.233-0.521-0.521    c0-0.288,0.233-0.521,0.521-0.521h0.521c0.288,0,0.521,0.233,0.521,0.521C43.808,65.989,43.574,66.222,43.286,66.222z     M40.679,66.222h-0.521c-0.288,0-0.521-0.233-0.521-0.521c0-0.288,0.233-0.521,0.521-0.521h0.521c0.287,0,0.521,0.233,0.521,0.521    C41.201,65.989,40.966,66.222,40.679,66.222z M38.072,66.222H37.55c-0.288,0-0.521-0.233-0.521-0.521    c0-0.288,0.233-0.521,0.521-0.521h0.521c0.287,0,0.521,0.233,0.521,0.521C38.593,65.989,38.359,66.222,38.072,66.222z     M35.464,66.222h-0.521c-0.289,0-0.521-0.233-0.521-0.521c0-0.288,0.233-0.521,0.521-0.521h0.521c0.288,0,0.521,0.233,0.521,0.521    C35.986,65.989,35.752,66.222,35.464,66.222z M32.857,66.222h-0.521c-0.288,0-0.521-0.233-0.521-0.521    c0-0.288,0.233-0.521,0.521-0.521h0.521c0.287,0,0.521,0.233,0.521,0.521C33.379,65.989,33.145,66.222,32.857,66.222z"
   id="path849" />
	</g>
	<g
   id="g851">
		<path
   fill="#231F20"
   d="M89.058,87.153h-0.521c-0.288,0-0.521-0.233-0.521-0.521c0-0.289,0.233-0.521,0.521-0.521h0.521    c0.288,0,0.521,0.233,0.521,0.521C89.579,86.92,89.346,87.153,89.058,87.153z M86.45,87.153h-0.521    c-0.288,0-0.521-0.233-0.521-0.521c0-0.289,0.233-0.521,0.521-0.521h0.521c0.289,0,0.521,0.233,0.521,0.521    C86.972,86.92,86.739,87.153,86.45,87.153z M83.843,87.153h-0.521c-0.288,0-0.521-0.233-0.521-0.521    c0-0.289,0.233-0.521,0.521-0.521h0.521c0.288,0,0.521,0.233,0.521,0.521C84.365,86.92,84.131,87.153,83.843,87.153z     M81.236,87.153h-0.521c-0.288,0-0.521-0.233-0.521-0.521c0-0.289,0.233-0.521,0.521-0.521h0.521c0.288,0,0.521,0.233,0.521,0.521    C81.757,86.92,81.524,87.153,81.236,87.153z M78.629,87.153h-0.521c-0.289,0-0.521-0.233-0.521-0.521    c0-0.289,0.233-0.521,0.521-0.521h0.521c0.288,0,0.521,0.233,0.521,0.521C79.15,86.92,78.917,87.153,78.629,87.153z     M76.021,87.153H75.5c-0.288,0-0.521-0.233-0.521-0.521c0-0.289,0.233-0.521,0.521-0.521h0.521c0.288,0,0.521,0.233,0.521,0.521    C76.543,86.92,76.31,87.153,76.021,87.153z M73.414,87.153h-0.521c-0.288,0-0.521-0.233-0.521-0.521    c0-0.289,0.233-0.521,0.521-0.521h0.521c0.289,0,0.521,0.233,0.521,0.521C73.936,86.92,73.703,87.153,73.414,87.153z     M70.807,87.153h-0.521c-0.289,0-0.521-0.233-0.521-0.521c0-0.289,0.233-0.521,0.521-0.521h0.521c0.288,0,0.521,0.233,0.521,0.521    C71.329,86.92,71.095,87.153,70.807,87.153z M68.2,87.153h-0.521c-0.288,0-0.521-0.233-0.521-0.521    c0-0.289,0.233-0.521,0.521-0.521H68.2c0.288,0,0.521,0.233,0.521,0.521C68.721,86.92,68.488,87.153,68.2,87.153z"
   id="path850" />
	</g>
	<g
   id="g852">
		<polygon
   fill="#6D6E70"
   points="35.983,150.685 32.551,147.071 29.12,150.685 28.364,149.968 32.551,145.555 36.739,149.968   "
   id="polygon851" />
	</g>
	<g
   id="g853">
		<path
   fill="#6D6E70"
   d="M10.889,199.623l-0.354-0.979c0.579-0.211,2.219-0.884,2.848-1.465c0.55-0.508,0.633-1.645,0.617-2.04    l-0.028-0.797l0.74,0.293c0.073,0.027,1.788,0.71,2.845,1.816c1.281,1.343,1.295,2.628,1.295,2.682h-1.043    c-0.001-0.032-0.033-0.939-1.006-1.961c-0.522-0.546-1.269-0.986-1.805-1.259c-0.083,0.63-0.309,1.479-0.906,2.031    C13.179,198.789,10.983,199.589,10.889,199.623z"
   id="path852" />
	</g>
	<g
   id="g854">
		<path
   fill="#6D6E70"
   d="M54.002,199.622c-0.093-0.034-2.29-0.833-3.202-1.678c-0.598-0.553-0.823-1.401-0.906-2.031    c-0.536,0.272-1.282,0.713-1.805,1.26c-0.974,1.021-1.006,1.927-1.006,1.965l-1.043-0.006c0-0.054,0.015-1.338,1.295-2.68    c1.058-1.107,2.771-1.79,2.844-1.817l0.738-0.29l-0.025,0.793c-0.013,0.396,0.072,1.537,0.617,2.041    c0.629,0.582,2.269,1.254,2.848,1.464L54.002,199.622z"
   id="path853" />
	</g>
	<g
   id="g855">
		<path
   fill="#6D6E70"
   d="M9.698,182.798c-0.064-0.017-1.588-0.423-2.73-1.549c-0.414-0.407-0.716-0.807-0.935-1.153    c-0.219,0.351-0.531,0.753-0.97,1.163c-1.201,1.118-2.655,1.521-2.716,1.538l-0.274-1.006c0.013-0.003,1.273-0.357,2.279-1.295    c0.964-0.899,1.156-1.724,1.156-1.731l0.463-2.108l0.552,2.082c0.001,0.005,0.245,0.854,1.174,1.768    c0.941,0.927,2.251,1.28,2.264,1.285L9.698,182.798z"
   id="path854" />
	</g>
	<g
   id="g856">
		<path
   fill="#6D6E70"
   d="M63.662,182.445c-0.012-0.037-1.129-3.643-3.311-3.643s-3.3,3.606-3.311,3.643l-0.998-0.302    c0.054-0.178,1.354-4.384,4.309-4.384s4.256,4.206,4.309,4.384L63.662,182.445z"
   id="path855" />
	</g>
	<g
   id="g857">
		<path
   fill="#6D6E70"
   d="M12.716,161.366h-1.043c0-0.62-0.781-1.189-1.537-1.739c-0.172-0.125-0.343-0.251-0.505-0.375    c-0.505-0.39-0.923-0.79-1.212-1.087c-0.242,0.284-0.591,0.646-1.034,0.986c-0.193,0.149-0.401,0.3-0.612,0.451    c-0.786,0.566-1.677,1.208-1.677,1.764H4.055c0-1.09,1.072-1.863,2.11-2.61c0.202-0.146,0.4-0.289,0.587-0.432    c0.756-0.582,1.19-1.247,1.194-1.254l0.387-0.599l0.454,0.549c0.006,0.008,0.606,0.73,1.481,1.405    c0.155,0.119,0.318,0.237,0.483,0.358C11.672,159.454,12.716,160.215,12.716,161.366z"
   id="path856" />
	</g>
	<g
   id="g858">
		<path
   fill="#6D6E70"
   d="M61.204,161.887c-1.317,0-2.088-1.372-2.767-2.582c-0.281-0.5-0.805-1.432-1.043-1.432    c-0.275,0-0.892,1.022-1.223,1.572c-0.724,1.2-1.472,2.441-2.586,2.441v-1.043c0.525,0,1.2-1.119,1.692-1.937    c0.672-1.114,1.252-2.077,2.117-2.077c0.849,0,1.36,0.911,1.953,1.965c0.539,0.96,1.15,2.049,1.857,2.049V161.887z"
   id="path857" />
	</g>
	<path
   fill="#00A1A7"
   d="M10.988,50.619c-2.536,0-4.592,2.055-4.592,4.59c0,2.536,2.056,4.591,4.592,4.591   c2.536,0,4.591-2.055,4.591-4.591C15.579,52.674,13.524,50.619,10.988,50.619z M13.377,57.248l-2.392-2.964l-2.385,2.964   l-0.526-0.587l2.911-3.621l2.914,3.621L13.377,57.248z"
   id="path858" />
	<path
   fill="#DA4061"
   d="M10.99,71.89c-2.538,0-4.594,2.055-4.594,4.59c0,2.536,2.056,4.591,4.594,4.591   c2.535,0,4.59-2.055,4.59-4.591C15.58,73.945,13.525,71.89,10.99,71.89z M13.54,78.293l-1.237-2.834H9.726l-1.292,2.839   l-0.725-0.33l1.504-3.307h3.611l1.447,3.312L13.54,78.293z"
   id="path859" />
	<path
   fill="#231F20"
   d="M10.989,61.254c-2.536,0-4.593,2.055-4.593,4.591c0,2.536,2.057,4.591,4.593,4.591   c2.535,0,4.591-2.055,4.591-4.591C15.58,63.309,13.524,61.254,10.989,61.254z M13.175,67.257L12.836,66.1l-0.588,1.646   l-0.639-1.721l-0.619,1.762l-0.63-1.774l-0.621,1.733L9.133,66.11l-0.328,1.145l-0.652-0.187l0.898-3.125l0.676,1.825l0.636-1.774   l0.624,1.76l0.604-1.725l0.646,1.739l0.666-1.864l0.921,3.164L13.175,67.257z"
   id="path860" />
	<g
   id="g863">
		<path
   fill="#00A1A7"
   d="M10.989,91.745c-2.536,0-4.591,2.054-4.591,4.59s2.055,4.59,4.591,4.59c2.536,0,4.591-2.054,4.591-4.59    S13.525,91.745,10.989,91.745z M12.439,98.571h-2.9v-4.469h0.872v3.69h2.029V98.571z"
   id="path861" />
		<path
   fill="#231F20"
   d="M10.989,102.485c-2.536,0-4.591,2.053-4.591,4.589c0,2.536,2.055,4.591,4.591,4.591    c2.536,0,4.591-2.055,4.591-4.591C15.58,104.538,13.525,102.485,10.989,102.485z M13.014,109.311h-0.872v-2.605l-0.854,1.694    h-0.591l-0.859-1.694v2.605H8.964v-4.469h0.862l1.167,2.416l1.161-2.416h0.859V109.311z"
   id="path862" />
		<path
   fill="#DA4061"
   d="M10.991,113.224c-2.538,0-4.593,2.054-4.593,4.59c0,2.536,2.055,4.59,4.593,4.59    c2.534,0,4.589-2.054,4.589-4.59C15.58,115.278,13.525,113.224,10.991,113.224z M12.619,120.049h-0.872v-1.872h-1.514v1.872H9.362    v-4.469h0.872v1.826h1.514v-1.826h0.872V120.049z"
   id="path863" />
	</g>
	<g
   id="g864">
		<rect
   x="9.67"
   y="351.253"
   fill="#BBBDBF"
   width="191.517"
   height="2.086"
   id="rect863" />
	</g>
	<g
   id="g868">
		<path
   fill="#231F20"
   d="M94.529,210.028c-0.9,0-1.583-0.191-2.167-0.783l0.75-0.75c0.377,0.374,0.884,0.5,1.436,0.5    c0.683,0,1.049-0.259,1.049-0.734c0-0.208-0.057-0.383-0.184-0.5c-0.116-0.108-0.249-0.167-0.525-0.209l-0.717-0.1    c-0.507-0.074-0.884-0.233-1.151-0.492c-0.283-0.283-0.424-0.667-0.424-1.167c0-1.06,0.782-1.802,2.067-1.802    c0.817,0,1.41,0.2,1.917,0.692l-0.733,0.726C95.472,205.051,95.021,205,94.63,205c-0.617,0-0.918,0.343-0.918,0.751    c0,0.149,0.051,0.309,0.175,0.425c0.118,0.108,0.31,0.2,0.55,0.234l0.701,0.1c0.542,0.075,0.884,0.225,1.135,0.458    c0.318,0.301,0.458,0.734,0.458,1.26C96.73,209.378,95.771,210.028,94.529,210.028z"
   id="path864" />
		<path
   fill="#231F20"
   d="M97.827,209.979v-5.938h1.159v4.904h2.693v1.033H97.827z"
   id="path865" />
		<path
   fill="#231F20"
   d="M106.001,209.378c-0.418,0.417-0.925,0.65-1.602,0.65s-1.191-0.233-1.609-0.65    c-0.601-0.601-0.584-1.343-0.584-2.368s-0.017-1.767,0.584-2.368c0.417-0.416,0.933-0.65,1.609-0.65s1.184,0.234,1.602,0.65    c0.601,0.602,0.593,1.343,0.593,2.368S106.602,208.777,106.001,209.378z M105.141,205.343c-0.167-0.192-0.424-0.317-0.742-0.317    c-0.317,0-0.584,0.125-0.75,0.317c-0.226,0.249-0.285,0.525-0.285,1.667c0,1.143,0.059,1.418,0.285,1.668    c0.165,0.191,0.432,0.317,0.75,0.317c0.318,0,0.575-0.126,0.742-0.317c0.226-0.25,0.293-0.525,0.293-1.668    C105.435,205.868,105.367,205.592,105.141,205.343z"
   id="path866" />
		<path
   fill="#231F20"
   d="M110.08,207.744h-1.141v2.234h-1.158v-5.938h2.299c1.227,0,1.96,0.842,1.96,1.852    C112.04,206.901,111.307,207.744,110.08,207.744z M110.023,205.076h-1.084v1.625h1.084c0.525,0,0.857-0.325,0.857-0.809    S110.549,205.076,110.023,205.076z"
   id="path867" />
		<path
   fill="#231F20"
   d="M113.02,209.979v-5.938h3.911v1.035h-2.752v1.392h2.343v1.034h-2.343v1.443h2.752v1.033H113.02z"
   id="path868" />
	</g>
	<g
   id="g878">
		<path
   fill="#231F20"
   d="M151.97,209.999c-0.9,0-1.585-0.191-2.167-0.783l0.749-0.751c0.376,0.375,0.884,0.5,1.436,0.5    c0.683,0,1.05-0.258,1.05-0.734c0-0.207-0.059-0.383-0.184-0.5c-0.116-0.107-0.249-0.167-0.525-0.208l-0.717-0.101    c-0.509-0.074-0.885-0.232-1.151-0.491c-0.283-0.283-0.424-0.667-0.424-1.167c0-1.06,0.782-1.802,2.065-1.802    c0.819,0,1.412,0.2,1.919,0.692l-0.733,0.725c-0.374-0.358-0.825-0.408-1.218-0.408c-0.616,0-0.917,0.343-0.917,0.751    c0,0.149,0.049,0.309,0.176,0.425c0.116,0.108,0.308,0.2,0.55,0.234l0.7,0.1c0.542,0.075,0.885,0.225,1.135,0.458    c0.317,0.301,0.459,0.734,0.459,1.26C154.172,209.349,153.212,209.999,151.97,209.999z"
   id="path869" />
		<path
   fill="#231F20"
   d="M159.484,209.949v-3.461l-1.133,2.252h-0.784l-1.143-2.252v3.461h-1.158v-5.938h1.142l1.55,3.211    l1.544-3.211h1.143v5.938H159.484z"
   id="path870" />
		<path
   fill="#231F20"
   d="M165.626,209.349c-0.417,0.417-0.925,0.65-1.601,0.65s-1.192-0.233-1.609-0.65    c-0.6-0.601-0.584-1.343-0.584-2.368s-0.016-1.768,0.584-2.368c0.417-0.417,0.934-0.65,1.609-0.65s1.184,0.233,1.601,0.65    c0.601,0.601,0.592,1.343,0.592,2.368S166.227,208.748,165.626,209.349z M164.768,205.313c-0.167-0.193-0.426-0.317-0.742-0.317    c-0.317,0-0.584,0.124-0.751,0.317c-0.226,0.249-0.283,0.525-0.283,1.667c0,1.143,0.058,1.418,0.283,1.668    c0.167,0.191,0.434,0.316,0.751,0.316c0.316,0,0.575-0.125,0.742-0.316c0.225-0.25,0.292-0.525,0.292-1.668    C165.06,205.839,164.992,205.562,164.768,205.313z"
   id="path871" />
		<path
   fill="#231F20"
   d="M170.998,209.349c-0.415,0.417-0.924,0.65-1.601,0.65c-0.675,0-1.19-0.233-1.608-0.65    c-0.6-0.601-0.583-1.343-0.583-2.368s-0.017-1.768,0.583-2.368c0.418-0.417,0.934-0.65,1.608-0.65c0.677,0,1.186,0.233,1.601,0.65    c0.603,0.601,0.594,1.343,0.594,2.368S171.601,208.748,170.998,209.349z M170.141,205.313c-0.167-0.193-0.426-0.317-0.743-0.317    c-0.315,0-0.583,0.124-0.75,0.317c-0.225,0.249-0.283,0.525-0.283,1.667c0,1.143,0.059,1.418,0.283,1.668    c0.167,0.191,0.435,0.316,0.75,0.316c0.317,0,0.576-0.125,0.743-0.316c0.226-0.25,0.292-0.525,0.292-1.668    C170.433,205.839,170.366,205.562,170.141,205.313z"
   id="path872" />
		<path
   fill="#231F20"
   d="M174.88,205.046v4.903h-1.16v-4.903h-1.55v-1.034h4.26v1.034H174.88z"
   id="path873" />
		<path
   fill="#231F20"
   d="M180.544,209.949v-2.485h-2.009v2.485h-1.159v-5.938h1.159v2.427h2.009v-2.427h1.159v5.938H180.544z"
   id="path874" />
		<path
   fill="#231F20"
   d="M186.601,209.949l-2.351-3.645v3.645h-1.158v-5.938h1.033l2.352,3.636v-3.636h1.159v5.938H186.601z"
   id="path875" />
		<path
   fill="#231F20"
   d="M189.022,209.949v-5.938h3.911v1.034h-2.752v1.393h2.343v1.034h-2.343v1.442h2.752v1.034H189.022z"
   id="path876" />
		<path
   fill="#231F20"
   d="M195.704,209.999c-0.9,0-1.584-0.191-2.167-0.783l0.749-0.751c0.377,0.375,0.884,0.5,1.436,0.5    c0.683,0,1.05-0.258,1.05-0.734c0-0.207-0.059-0.383-0.184-0.5c-0.116-0.107-0.25-0.167-0.525-0.208l-0.717-0.101    c-0.509-0.074-0.885-0.232-1.151-0.491c-0.283-0.283-0.426-0.667-0.426-1.167c0-1.06,0.784-1.802,2.067-1.802    c0.819,0,1.41,0.2,1.919,0.692l-0.733,0.725c-0.374-0.358-0.825-0.408-1.217-0.408c-0.617,0-0.918,0.343-0.918,0.751    c0,0.149,0.051,0.309,0.176,0.425c0.116,0.108,0.309,0.2,0.55,0.234l0.7,0.1c0.542,0.075,0.885,0.225,1.135,0.458    c0.316,0.301,0.459,0.734,0.459,1.26C197.906,209.349,196.946,209.999,195.704,209.999z"
   id="path877" />
		<path
   fill="#231F20"
   d="M200.584,209.999c-0.9,0-1.584-0.191-2.167-0.783l0.75-0.751c0.376,0.375,0.884,0.5,1.434,0.5    c0.685,0,1.051-0.258,1.051-0.734c0-0.207-0.058-0.383-0.183-0.5c-0.116-0.107-0.25-0.167-0.525-0.208l-0.718-0.101    c-0.508-0.074-0.884-0.232-1.15-0.491c-0.283-0.283-0.426-0.667-0.426-1.167c0-1.06,0.784-1.802,2.067-1.802    c0.818,0,1.41,0.2,1.919,0.692l-0.733,0.725c-0.375-0.358-0.826-0.408-1.218-0.408c-0.616,0-0.917,0.343-0.917,0.751    c0,0.149,0.049,0.309,0.175,0.425c0.116,0.108,0.308,0.2,0.551,0.234l0.7,0.1c0.542,0.075,0.884,0.225,1.135,0.458    c0.316,0.301,0.458,0.734,0.458,1.26C202.786,209.349,201.827,209.999,200.584,209.999z"
   id="path878" />
	</g>
	<g
   id="g882">
		<path
   fill="#231F20"
   d="M27.213,264.371v4.903h-1.16v-4.903h-1.55v-1.033h4.26v1.033H27.213z"
   id="path879" />
		<path
   fill="#231F20"
   d="M32.86,269.274l-1.159-2.368h-0.834v2.368h-1.158v-5.937h2.326c1.208,0,1.926,0.824,1.926,1.816    c0,0.834-0.508,1.352-1.083,1.56l1.326,2.561H32.86z M31.96,264.371h-1.093v1.567h1.093c0.508,0,0.842-0.325,0.842-0.784    C32.802,264.696,32.468,264.371,31.96,264.371z"
   id="path880" />
		<path
   fill="#231F20"
   d="M35.165,269.274v-5.937h1.159v5.937H35.165z"
   id="path881" />
		<path
   fill="#231F20"
   d="M41.371,268.648c-0.458,0.467-1.009,0.676-1.676,0.676c-0.634,0-1.167-0.217-1.601-0.65    c-0.259-0.259-0.417-0.559-0.484-0.893c-0.067-0.333-0.1-0.825-0.1-1.477c0-0.649,0.032-1.142,0.1-1.476    c0.067-0.342,0.225-0.633,0.484-0.892c0.434-0.435,0.967-0.651,1.601-0.651c1.352,0,2.077,0.868,2.234,1.901h-1.167    c-0.142-0.575-0.492-0.866-1.067-0.866c-0.309,0-0.558,0.107-0.743,0.316c-0.216,0.275-0.283,0.492-0.283,1.667    c0,1.168,0.05,1.402,0.283,1.677c0.175,0.209,0.426,0.309,0.743,0.309c0.342,0,0.617-0.108,0.826-0.334    c0.175-0.199,0.267-0.467,0.267-0.791v-0.227h-1.093v-0.967h2.244v0.867C41.938,267.707,41.779,268.215,41.371,268.648z"
   id="path882" />
	</g>
	<g
   id="g896">
		<path
   d="M101.791,19.098c-0.214,0-0.398-0.035-0.556-0.105c-0.156-0.07-0.286-0.165-0.39-0.285c-0.104-0.12-0.182-0.26-0.235-0.42    c-0.053-0.16-0.08-0.33-0.08-0.51v-3.05h-0.619v-0.55h0.619v-1.51h0.721v1.51h1.05v0.55h-1.05v3.03c0,0.227,0.053,0.403,0.16,0.53    c0.106,0.127,0.276,0.19,0.51,0.19h0.38v0.62H101.791z"
   id="path883" />
		<path
   d="M103.691,12.778v-0.81h0.81v0.81H103.691z M103.731,19.098v-4.92h0.72v4.92H103.731z"
   id="path884" />
		<path
   d="M109.19,19.098v-0.59c-0.207,0.26-0.422,0.433-0.645,0.52c-0.224,0.086-0.476,0.13-0.755,0.13    c-0.254,0-0.483-0.039-0.69-0.115c-0.207-0.076-0.377-0.181-0.51-0.315c-0.247-0.253-0.408-0.565-0.485-0.935    c-0.076-0.37-0.115-0.755-0.115-1.155c0-0.2,0.009-0.398,0.025-0.595c0.017-0.196,0.047-0.385,0.09-0.565    c0.043-0.18,0.105-0.35,0.186-0.51c0.079-0.16,0.18-0.3,0.3-0.42c0.133-0.133,0.303-0.238,0.51-0.315    c0.207-0.076,0.437-0.115,0.69-0.115c0.279,0,0.529,0.042,0.75,0.125c0.22,0.083,0.433,0.251,0.64,0.505v-2.77h0.72v7.12H109.19z     M109.181,16.638c0-0.24-0.014-0.473-0.04-0.7c-0.026-0.227-0.083-0.426-0.17-0.6s-0.212-0.313-0.375-0.42    c-0.163-0.106-0.379-0.16-0.646-0.16c-0.273,0-0.489,0.053-0.649,0.16c-0.16,0.107-0.285,0.247-0.375,0.42s-0.148,0.373-0.175,0.6    c-0.027,0.227-0.04,0.46-0.04,0.7c0,0.24,0.013,0.474,0.04,0.7c0.026,0.227,0.085,0.426,0.175,0.6    c0.09,0.174,0.215,0.313,0.375,0.42c0.16,0.107,0.376,0.16,0.649,0.16c0.267,0,0.482-0.053,0.646-0.16    c0.163-0.106,0.288-0.246,0.375-0.42c0.087-0.173,0.144-0.373,0.17-0.6S109.181,16.878,109.181,16.638z"
   id="path885" />
		<path
   d="M114.491,19.098v-0.47c-0.194,0.194-0.397,0.33-0.61,0.41c-0.214,0.08-0.483,0.12-0.811,0.12    c-0.34,0-0.613-0.034-0.819-0.1c-0.207-0.066-0.396-0.183-0.57-0.35c-0.127-0.12-0.22-0.268-0.28-0.445    c-0.06-0.177-0.09-0.362-0.09-0.555c0-0.44,0.146-0.787,0.44-1.04c0.293-0.253,0.717-0.38,1.27-0.38h1.471v-0.47    c0-0.36-0.096-0.63-0.285-0.81c-0.19-0.18-0.516-0.27-0.976-0.27c-0.313,0-0.56,0.043-0.739,0.13    c-0.181,0.087-0.347,0.233-0.5,0.44l-0.49-0.45c0.213-0.286,0.455-0.481,0.725-0.585c0.271-0.103,0.608-0.155,1.016-0.155    c0.666,0,1.161,0.14,1.484,0.42c0.323,0.28,0.485,0.687,0.485,1.22v3.34H114.491z M114.491,16.828h-1.37    c-0.74,0-1.11,0.29-1.11,0.87c0,0.287,0.09,0.499,0.271,0.635c0.18,0.137,0.47,0.205,0.869,0.205c0.207,0,0.4-0.018,0.58-0.055    c0.181-0.036,0.351-0.128,0.511-0.275c0.166-0.16,0.25-0.443,0.25-0.85V16.828z"
   id="path886" />
		<path
   d="M118.19,19.098c-0.434,0-0.75-0.125-0.95-0.375c-0.199-0.25-0.3-0.562-0.3-0.935v-5.81h0.72v5.78    c0,0.24,0.047,0.42,0.141,0.54c0.093,0.12,0.267,0.18,0.52,0.18h0.391v0.62H118.19z"
   id="path887" />
		<path
   d="M128.71,19.098v-3.03c0-0.44-0.108-0.769-0.325-0.985c-0.216-0.216-0.512-0.325-0.885-0.325    c-0.359,0-0.654,0.106-0.885,0.32s-0.345,0.517-0.345,0.91v3.11h-0.721v-3.03c0-0.44-0.108-0.769-0.324-0.985    c-0.217-0.216-0.512-0.325-0.886-0.325c-0.373,0-0.671,0.11-0.895,0.33c-0.224,0.22-0.335,0.546-0.335,0.98v3.03h-0.72v-4.92h0.72    v0.54c0.173-0.2,0.378-0.35,0.615-0.45c0.236-0.1,0.495-0.15,0.774-0.15c0.34,0,0.639,0.068,0.896,0.205    c0.256,0.137,0.461,0.342,0.614,0.615c0.387-0.546,0.927-0.82,1.62-0.82c0.267,0,0.507,0.04,0.721,0.12    c0.213,0.08,0.396,0.193,0.55,0.34c0.354,0.34,0.53,0.797,0.53,1.37v3.15H128.71z"
   id="path888" />
		<path
   d="M134.94,16.638c0,0.38-0.039,0.738-0.115,1.075c-0.076,0.336-0.238,0.631-0.485,0.885c-0.173,0.173-0.376,0.31-0.609,0.41    c-0.233,0.1-0.5,0.15-0.8,0.15c-0.301,0-0.567-0.05-0.801-0.15c-0.233-0.1-0.437-0.237-0.609-0.41    c-0.127-0.126-0.229-0.265-0.306-0.415c-0.076-0.15-0.137-0.307-0.18-0.47c-0.043-0.164-0.073-0.335-0.09-0.515    c-0.017-0.18-0.025-0.367-0.025-0.56c0-0.38,0.037-0.738,0.11-1.075c0.073-0.336,0.236-0.631,0.49-0.885    c0.173-0.173,0.376-0.31,0.609-0.41s0.5-0.15,0.801-0.15c0.3,0,0.566,0.05,0.8,0.15s0.437,0.237,0.609,0.41    c0.254,0.253,0.417,0.548,0.49,0.885C134.903,15.9,134.94,16.258,134.94,16.638z M134.221,16.638c0-0.28-0.021-0.558-0.061-0.835    s-0.149-0.505-0.33-0.685c-0.24-0.24-0.54-0.36-0.899-0.36c-0.354,0-0.65,0.12-0.891,0.36c-0.18,0.18-0.291,0.408-0.335,0.685    c-0.043,0.277-0.064,0.555-0.064,0.835c0,0.14,0.003,0.28,0.01,0.42s0.023,0.277,0.05,0.41s0.066,0.258,0.12,0.375    s0.127,0.222,0.22,0.315c0.24,0.24,0.537,0.36,0.891,0.36c0.359,0,0.659-0.12,0.899-0.36c0.181-0.187,0.29-0.417,0.33-0.69    S134.221,16.918,134.221,16.638z"
   id="path889" />
		<path
   d="M139.42,19.098v-0.59c-0.207,0.26-0.422,0.433-0.645,0.52c-0.224,0.086-0.476,0.13-0.755,0.13    c-0.254,0-0.483-0.039-0.69-0.115c-0.207-0.076-0.377-0.181-0.51-0.315c-0.247-0.253-0.408-0.565-0.485-0.935    c-0.076-0.37-0.115-0.755-0.115-1.155c0-0.2,0.009-0.398,0.025-0.595c0.017-0.196,0.047-0.385,0.09-0.565    c0.043-0.18,0.105-0.35,0.186-0.51c0.079-0.16,0.18-0.3,0.3-0.42c0.133-0.133,0.303-0.238,0.51-0.315    c0.207-0.076,0.437-0.115,0.69-0.115c0.279,0,0.529,0.042,0.75,0.125c0.22,0.083,0.433,0.251,0.64,0.505v-2.77h0.72v7.12H139.42z     M139.41,16.638c0-0.24-0.014-0.473-0.04-0.7c-0.026-0.227-0.083-0.426-0.17-0.6s-0.212-0.313-0.375-0.42    c-0.163-0.106-0.379-0.16-0.646-0.16c-0.273,0-0.489,0.053-0.649,0.16c-0.16,0.107-0.285,0.247-0.375,0.42s-0.148,0.373-0.175,0.6    c-0.027,0.227-0.04,0.46-0.04,0.7c0,0.24,0.013,0.474,0.04,0.7c0.026,0.227,0.085,0.426,0.175,0.6    c0.09,0.174,0.215,0.313,0.375,0.42c0.16,0.107,0.376,0.16,0.649,0.16c0.267,0,0.482-0.053,0.646-0.16    c0.163-0.106,0.288-0.246,0.375-0.42c0.087-0.173,0.144-0.373,0.17-0.6S139.41,16.878,139.41,16.638z"
   id="path890" />
		<path
   d="M145.04,19.098v-0.55c-0.173,0.2-0.378,0.352-0.615,0.455c-0.236,0.104-0.494,0.155-0.774,0.155    c-0.54,0-0.964-0.153-1.271-0.46c-0.173-0.173-0.3-0.375-0.38-0.605s-0.12-0.488-0.12-0.775v-3.14h0.721v3.03    c0,0.44,0.106,0.769,0.319,0.985c0.214,0.216,0.507,0.325,0.88,0.325c0.374,0,0.672-0.11,0.896-0.33    c0.224-0.22,0.335-0.546,0.335-0.98v-3.03h0.72v4.92H145.04z"
   id="path891" />
		<path
   d="M148.78,19.098c-0.434,0-0.75-0.125-0.95-0.375c-0.199-0.25-0.3-0.562-0.3-0.935v-5.81h0.72v5.78    c0,0.24,0.047,0.42,0.141,0.54c0.093,0.12,0.267,0.18,0.52,0.18h0.391v0.62H148.78z"
   id="path892" />
		<path
   d="M153.28,19.098v-0.47c-0.194,0.194-0.397,0.33-0.61,0.41c-0.214,0.08-0.483,0.12-0.811,0.12    c-0.34,0-0.613-0.034-0.819-0.1c-0.207-0.066-0.396-0.183-0.57-0.35c-0.127-0.12-0.22-0.268-0.28-0.445    c-0.06-0.177-0.09-0.362-0.09-0.555c0-0.44,0.146-0.787,0.44-1.04c0.293-0.253,0.717-0.38,1.27-0.38h1.471v-0.47    c0-0.36-0.096-0.63-0.285-0.81c-0.19-0.18-0.516-0.27-0.976-0.27c-0.313,0-0.56,0.043-0.739,0.13    c-0.181,0.087-0.347,0.233-0.5,0.44l-0.49-0.45c0.213-0.286,0.455-0.481,0.725-0.585c0.271-0.103,0.608-0.155,1.016-0.155    c0.666,0,1.161,0.14,1.484,0.42c0.323,0.28,0.485,0.687,0.485,1.22v3.34H153.28z M153.28,16.828h-1.37    c-0.74,0-1.11,0.29-1.11,0.87c0,0.287,0.09,0.499,0.271,0.635c0.18,0.137,0.47,0.205,0.869,0.205c0.207,0,0.4-0.018,0.58-0.055    c0.181-0.036,0.351-0.128,0.511-0.275c0.166-0.16,0.25-0.443,0.25-0.85V16.828z"
   id="path893" />
		<path
   d="M157.13,19.098c-0.214,0-0.398-0.035-0.556-0.105c-0.156-0.07-0.286-0.165-0.39-0.285c-0.104-0.12-0.182-0.26-0.235-0.42    c-0.053-0.16-0.08-0.33-0.08-0.51v-3.05h-0.619v-0.55h0.619v-1.51h0.721v1.51h1.05v0.55h-1.05v3.03c0,0.227,0.053,0.403,0.16,0.53    c0.106,0.127,0.276,0.19,0.51,0.19h0.38v0.62H157.13z"
   id="path894" />
		<path
   d="M162.83,16.638c0,0.38-0.039,0.738-0.115,1.075c-0.076,0.336-0.238,0.631-0.485,0.885c-0.173,0.173-0.376,0.31-0.609,0.41    c-0.233,0.1-0.5,0.15-0.8,0.15c-0.301,0-0.567-0.05-0.801-0.15c-0.233-0.1-0.437-0.237-0.609-0.41    c-0.127-0.126-0.229-0.265-0.306-0.415c-0.076-0.15-0.137-0.307-0.18-0.47c-0.043-0.164-0.073-0.335-0.09-0.515    c-0.017-0.18-0.025-0.367-0.025-0.56c0-0.38,0.037-0.738,0.11-1.075c0.073-0.336,0.236-0.631,0.49-0.885    c0.173-0.173,0.376-0.31,0.609-0.41s0.5-0.15,0.801-0.15c0.3,0,0.566,0.05,0.8,0.15s0.437,0.237,0.609,0.41    c0.254,0.253,0.417,0.548,0.49,0.885C162.793,15.9,162.83,16.258,162.83,16.638z M162.11,16.638c0-0.28-0.021-0.558-0.061-0.835    s-0.149-0.505-0.33-0.685c-0.24-0.24-0.54-0.36-0.899-0.36c-0.354,0-0.65,0.12-0.891,0.36c-0.18,0.18-0.291,0.408-0.335,0.685    c-0.043,0.277-0.064,0.555-0.064,0.835c0,0.14,0.003,0.28,0.01,0.42s0.023,0.277,0.05,0.41s0.066,0.258,0.12,0.375    s0.127,0.222,0.22,0.315c0.24,0.24,0.537,0.36,0.891,0.36c0.359,0,0.659-0.12,0.899-0.36c0.181-0.187,0.29-0.417,0.33-0.69    S162.11,16.918,162.11,16.638z"
   id="path895" />
		<path
   d="M167.12,15.118c-0.134-0.133-0.261-0.227-0.381-0.28c-0.119-0.054-0.276-0.08-0.47-0.08c-0.18,0-0.343,0.033-0.49,0.1    c-0.146,0.067-0.27,0.16-0.369,0.28c-0.101,0.12-0.179,0.26-0.235,0.42s-0.085,0.333-0.085,0.52v3.02h-0.72v-4.92h0.72v0.6    c0.133-0.207,0.325-0.369,0.575-0.485c0.25-0.116,0.518-0.175,0.805-0.175c0.233,0,0.445,0.033,0.635,0.1    c0.19,0.066,0.372,0.187,0.545,0.36L167.12,15.118z"
   id="path896" />
	</g>
	
</g>
<g
   id="decoupe"
   display="none">
	
		<path
   display="inline"
   fill="none"
   stroke="#ED312D"
   stroke-width="0.2835"
   stroke-linecap="round"
   stroke-linejoin="round"
   stroke-miterlimit="10"
   d="   M17.441,371.008c0,2.613,2.119,4.73,4.731,4.73s4.73-2.117,4.73-4.73s-2.118-4.729-4.73-4.729S17.441,368.395,17.441,371.008"
   id="path906" />
	
		<path
   display="inline"
   fill="none"
   stroke="#ED312D"
   stroke-width="0.2835"
   stroke-linecap="round"
   stroke-linejoin="round"
   stroke-miterlimit="10"
   d="   M17.441,8.869c0,2.612,2.119,4.729,4.731,4.729s4.73-2.117,4.73-4.729s-2.118-4.729-4.73-4.729S17.441,6.256,17.441,8.869"
   id="path907" />
	
		<path
   display="inline"
   fill="none"
   stroke="#ED312D"
   stroke-width="0.2835"
   stroke-linecap="round"
   stroke-linejoin="round"
   stroke-miterlimit="10"
   d="   M182.637,371.008c0,2.613,2.12,4.73,4.73,4.73c2.611,0,4.731-2.117,4.731-4.73s-2.12-4.729-4.731-4.729   C184.757,366.278,182.637,368.395,182.637,371.008"
   id="path908" />
	
		<path
   display="inline"
   fill="none"
   stroke="#ED312D"
   stroke-width="0.2835"
   stroke-linecap="round"
   stroke-linejoin="round"
   stroke-miterlimit="10"
   d="   M182.637,8.869c0,2.612,2.12,4.729,4.73,4.729c2.611,0,4.731-2.117,4.731-4.729s-2.12-4.729-4.731-4.729   C184.757,4.139,182.637,6.256,182.637,8.869"
   id="path909" />
	
		<rect
   display="inline"
   fill="none"
   stroke="#ED312D"
   stroke-width="0.2835"
   stroke-linecap="round"
   stroke-linejoin="round"
   stroke-miterlimit="10"
   width="209.303"
   height="379.877"
   id="rect909" />
	
		<path
   display="inline"
   fill="none"
   stroke="#ED312D"
   stroke-width="0.2835"
   stroke-linecap="round"
   stroke-linejoin="round"
   stroke-miterlimit="10"
   d="   M23.842,328.438c0,5.225,4.236,9.461,9.459,9.461c5.225,0,9.461-4.236,9.461-9.461c0-5.224-4.237-9.46-9.461-9.46   C28.078,318.978,23.842,323.214,23.842,328.438"
   id="path910" />
	
		<path
   display="inline"
   fill="none"
   stroke="#ED312D"
   stroke-width="0.2835"
   stroke-linecap="round"
   stroke-linejoin="round"
   stroke-miterlimit="10"
   d="   M59.523,328.438c0,5.225,4.237,9.461,9.46,9.461c5.225,0,9.46-4.236,9.46-9.461c0-5.224-4.236-9.46-9.46-9.46   C63.76,318.978,59.523,323.214,59.523,328.438"
   id="path911" />
	
		<path
   display="inline"
   fill="none"
   stroke="#ED312D"
   stroke-width="0.2835"
   stroke-linecap="round"
   stroke-linejoin="round"
   stroke-miterlimit="10"
   d="   M95.205,328.438c0,5.225,4.237,9.461,9.461,9.461c5.223,0,9.459-4.236,9.459-9.461c0-5.224-4.236-9.46-9.459-9.46   C99.442,318.978,95.205,323.214,95.205,328.438"
   id="path912" />
	
		<path
   display="inline"
   fill="none"
   stroke="#ED312D"
   stroke-width="0.2835"
   stroke-linecap="round"
   stroke-linejoin="round"
   stroke-miterlimit="10"
   d="   M130.888,328.438c0,5.225,4.234,9.461,9.46,9.461s9.46-4.236,9.46-9.461c0-5.224-4.234-9.46-9.46-9.46   S130.888,323.214,130.888,328.438"
   id="path913" />
	
		<path
   display="inline"
   fill="none"
   stroke="#ED312D"
   stroke-width="0.2835"
   stroke-linecap="round"
   stroke-linejoin="round"
   stroke-miterlimit="10"
   d="   M166.569,328.438c0,5.225,4.235,9.461,9.461,9.461c5.224,0,9.459-4.236,9.459-9.461c0-5.224-4.235-9.46-9.459-9.46   C170.805,318.978,166.569,323.214,166.569,328.438"
   id="path914" />
	
		<path
   display="inline"
   fill="none"
   stroke="#ED312D"
   stroke-width="0.2835"
   stroke-linecap="round"
   stroke-linejoin="round"
   stroke-miterlimit="10"
   d="   M23.842,285.277c0,5.225,4.236,9.46,9.459,9.46c5.225,0,9.461-4.235,9.461-9.46c0-5.224-4.237-9.461-9.461-9.461   C28.078,275.816,23.842,280.054,23.842,285.277"
   id="path915" />
	
		<path
   display="inline"
   fill="none"
   stroke="#ED312D"
   stroke-width="0.2835"
   stroke-linecap="round"
   stroke-linejoin="round"
   stroke-miterlimit="10"
   d="   M59.523,285.277c0,5.225,4.237,9.46,9.46,9.46c5.225,0,9.46-4.235,9.46-9.46c0-5.224-4.236-9.461-9.46-9.461   C63.76,275.816,59.523,280.054,59.523,285.277"
   id="path916" />
	
		<path
   display="inline"
   fill="none"
   stroke="#ED312D"
   stroke-width="0.2835"
   stroke-linecap="round"
   stroke-linejoin="round"
   stroke-miterlimit="10"
   d="   M95.205,285.277c0,5.225,4.237,9.46,9.461,9.46c5.223,0,9.459-4.235,9.459-9.46c0-5.224-4.236-9.461-9.459-9.461   C99.442,275.816,95.205,280.054,95.205,285.277"
   id="path917" />
	
		<path
   display="inline"
   fill="none"
   stroke="#ED312D"
   stroke-width="0.2835"
   stroke-linecap="round"
   stroke-linejoin="round"
   stroke-miterlimit="10"
   d="   M130.888,285.277c0,5.225,4.234,9.46,9.46,9.46s9.46-4.235,9.46-9.46c0-5.224-4.234-9.461-9.46-9.461   S130.888,280.054,130.888,285.277"
   id="path918" />
	
		<path
   display="inline"
   fill="none"
   stroke="#ED312D"
   stroke-width="0.2835"
   stroke-linecap="round"
   stroke-linejoin="round"
   stroke-miterlimit="10"
   d="   M166.569,285.277c0,5.225,4.235,9.46,9.461,9.46c5.224,0,9.459-4.235,9.459-9.46c0-5.224-4.235-9.461-9.459-9.461   C170.805,275.816,166.569,280.054,166.569,285.277"
   id="path919" />
	
		<path
   display="inline"
   fill="none"
   stroke="#ED312D"
   stroke-width="0.2835"
   stroke-linecap="round"
   stroke-linejoin="round"
   stroke-miterlimit="10"
   d="   M23.842,230.823c0,5.224,4.236,9.46,9.459,9.46c5.225,0,9.461-4.236,9.461-9.46c0-5.225-4.237-9.46-9.461-9.46   C28.078,221.363,23.842,225.599,23.842,230.823"
   id="path920" />
	
		<path
   display="inline"
   fill="none"
   stroke="#ED312D"
   stroke-width="0.2835"
   stroke-linecap="round"
   stroke-linejoin="round"
   stroke-miterlimit="10"
   d="   M95.205,230.823c0,5.224,4.237,9.46,9.461,9.46c5.223,0,9.459-4.236,9.459-9.46c0-5.225-4.236-9.46-9.459-9.46   C99.442,221.363,95.205,225.599,95.205,230.823"
   id="path921" />
	
		<path
   display="inline"
   fill="none"
   stroke="#ED312D"
   stroke-width="0.2835"
   stroke-linecap="round"
   stroke-linejoin="round"
   stroke-miterlimit="10"
   d="   M166.569,230.823c0,5.224,4.235,9.46,9.461,9.46c5.224,0,9.459-4.236,9.459-9.46c0-5.225-4.235-9.46-9.459-9.46   C170.805,221.363,166.569,225.599,166.569,230.823"
   id="path922" />
	
		<path
   display="inline"
   fill="none"
   stroke="#ED312D"
   stroke-width="0.2835"
   stroke-linecap="round"
   stroke-linejoin="round"
   stroke-miterlimit="10"
   d="   M22.216,174.507c0,6.123,4.962,11.086,11.085,11.086c6.124,0,11.087-4.963,11.087-11.086s-4.963-11.086-11.087-11.086   C27.178,163.421,22.216,168.384,22.216,174.507"
   id="path923" />
	
		<path
   display="inline"
   fill="none"
   stroke="#ED312D"
   stroke-width="0.2835"
   stroke-linecap="round"
   stroke-linejoin="round"
   stroke-miterlimit="10"
   d="   M93.58,174.507c0,6.123,4.964,11.086,11.087,11.086c6.123,0,11.084-4.963,11.084-11.086s-4.962-11.086-11.084-11.086   C98.543,163.421,93.58,168.384,93.58,174.507"
   id="path924" />
	
		<path
   display="inline"
   fill="none"
   stroke="#ED312D"
   stroke-width="0.2835"
   stroke-linecap="round"
   stroke-linejoin="round"
   stroke-miterlimit="10"
   d="   M164.943,174.507c0,6.123,4.964,11.086,11.087,11.086c6.122,0,11.085-4.963,11.085-11.086s-4.963-11.086-11.085-11.086   C169.907,163.421,164.943,168.384,164.943,174.507"
   id="path925" />
	
		<path
   display="inline"
   fill="none"
   stroke="#ED312D"
   stroke-width="0.2835"
   stroke-linecap="round"
   stroke-linejoin="round"
   stroke-miterlimit="10"
   d="   M93.58,86.292c0,6.124,4.964,11.087,11.087,11.087c6.123,0,11.084-4.963,11.084-11.087c0-6.122-4.962-11.085-11.084-11.085   C98.543,75.207,93.58,80.169,93.58,86.292"
   id="path926" />
	
		<path
   display="inline"
   fill="none"
   stroke="#ED312D"
   stroke-width="0.2835"
   stroke-linecap="round"
   stroke-linejoin="round"
   stroke-miterlimit="10"
   d="   M164.943,86.292c0,6.124,4.964,11.087,11.087,11.087c6.122,0,11.085-4.963,11.085-11.087c0-6.122-4.963-11.085-11.085-11.085   C169.907,75.207,164.943,80.169,164.943,86.292"
   id="path927" />
	
		<path
   display="inline"
   fill="none"
   stroke="#ED312D"
   stroke-width="0.2835"
   stroke-linecap="round"
   stroke-linejoin="round"
   stroke-miterlimit="10"
   d="   M18.521,106.957c0,8.163,6.617,14.781,14.78,14.781c8.165,0,14.782-6.618,14.782-14.781c0-8.164-6.617-14.781-14.782-14.781   C25.139,92.176,18.521,98.793,18.521,106.957"
   id="path928" />
	
		<path
   display="inline"
   fill="none"
   stroke="#ED312D"
   stroke-width="0.2835"
   stroke-linecap="round"
   stroke-linejoin="round"
   stroke-miterlimit="10"
   d="   M18.521,65.628c0,8.164,6.617,14.782,14.78,14.782c8.165,0,14.782-6.618,14.782-14.782c0-8.163-6.617-14.781-14.782-14.781   C25.139,50.847,18.521,57.465,18.521,65.628"
   id="path929" />
	
		<path
   display="inline"
   fill="none"
   stroke="#ED312D"
   stroke-width="0.2835"
   stroke-linecap="round"
   stroke-linejoin="round"
   stroke-miterlimit="10"
   d="   M56.893,106.957c0,2.53,2.051,4.582,4.583,4.582c2.53,0,4.581-2.052,4.581-4.582c0-2.532-2.051-4.583-4.581-4.583   C58.944,102.374,56.893,104.425,56.893,106.957"
   id="path930" />
	
		<path
   display="inline"
   fill="none"
   stroke="#ED312D"
   stroke-width="0.2835"
   stroke-linecap="round"
   stroke-linejoin="round"
   stroke-miterlimit="10"
   d="   M56.893,65.628c0,2.531,2.051,4.582,4.583,4.582c2.53,0,4.581-2.051,4.581-4.582c0-2.531-2.051-4.582-4.581-4.582   C58.944,61.046,56.893,63.097,56.893,65.628"
   id="path931" />
	
		<path
   display="inline"
   fill="none"
   stroke="#ED312D"
   stroke-width="0.2835"
   stroke-linecap="round"
   stroke-linejoin="round"
   stroke-miterlimit="10"
   d="   M56.893,86.292c0,2.531,2.051,4.583,4.583,4.583c2.53,0,4.581-2.052,4.581-4.583c0-2.53-2.051-4.582-4.581-4.582   C58.944,81.709,56.893,83.762,56.893,86.292"
   id="path932" />
</g>
<g
   id="widgets"
   display="none">
	
		<rect
   id="PJ301_1_"
   x="21.806"
   y="316.939"
   display="inline"
   fill="none"
   stroke="#000000"
   stroke-miterlimit="10"
   width="22.992"
   height="22.996" />
	
		<rect
   id="PJ301_2_"
   x="57.509"
   y="316.939"
   display="inline"
   fill="none"
   stroke="#000000"
   stroke-miterlimit="10"
   width="22.992"
   height="22.996" />
	
		<rect
   id="PJ301_3_"
   x="93.274"
   y="316.939"
   display="inline"
   fill="none"
   stroke="#000000"
   stroke-miterlimit="10"
   width="22.992"
   height="22.996" />
	
		<rect
   id="PJ301_4_"
   x="128.852"
   y="316.939"
   display="inline"
   fill="none"
   stroke="#000000"
   stroke-miterlimit="10"
   width="22.992"
   height="22.996" />
	
		<rect
   id="PJ301_5_"
   x="164.533"
   y="316.939"
   display="inline"
   fill="none"
   stroke="#000000"
   stroke-miterlimit="10"
   width="22.992"
   height="22.996" />
	
		<rect
   id="PJ301_10_"
   x="21.806"
   y="273.779"
   display="inline"
   fill="none"
   stroke="#000000"
   stroke-miterlimit="10"
   width="22.992"
   height="22.996" />
	
		<rect
   id="PJ301_9_"
   x="57.509"
   y="273.779"
   display="inline"
   fill="none"
   stroke="#000000"
   stroke-miterlimit="10"
   width="22.992"
   height="22.996" />
	
		<rect
   id="PJ301_8_"
   x="93.274"
   y="273.779"
   display="inline"
   fill="none"
   stroke="#000000"
   stroke-miterlimit="10"
   width="22.992"
   height="22.996" />
	
		<rect
   id="PJ301_7_"
   x="128.852"
   y="273.779"
   display="inline"
   fill="none"
   stroke="#000000"
   stroke-miterlimit="10"
   width="22.992"
   height="22.996" />
	
		<rect
   id="PJ301_6_"
   x="164.533"
   y="273.779"
   display="inline"
   fill="none"
   stroke="#000000"
   stroke-miterlimit="10"
   width="22.992"
   height="22.996" />
	
		<rect
   id="PJ301_13_"
   x="21.806"
   y="219.325"
   display="inline"
   fill="none"
   stroke="#000000"
   stroke-miterlimit="10"
   width="22.992"
   height="22.996" />
	
		<rect
   id="PJ301_12_"
   x="93.274"
   y="219.325"
   display="inline"
   fill="none"
   stroke="#000000"
   stroke-miterlimit="10"
   width="22.992"
   height="22.996" />
	
		<rect
   id="PJ301_11_"
   x="164.533"
   y="219.325"
   display="inline"
   fill="none"
   stroke="#000000"
   stroke-miterlimit="10"
   width="22.992"
   height="22.996" />
	
		<rect
   id="Rogan_5_"
   x="13.809"
   y="154.509"
   display="inline"
   fill="none"
   stroke="#000000"
   stroke-miterlimit="10"
   width="38.987"
   height="39.996" />
	
		<rect
   id="Rogan_1_"
   x="85.507"
   y="154.509"
   display="inline"
   fill="none"
   stroke="#000000"
   stroke-miterlimit="10"
   width="38.987"
   height="39.996" />
	
		<rect
   id="Rogan_2_"
   x="156.536"
   y="154.509"
   display="inline"
   fill="none"
   stroke="#000000"
   stroke-miterlimit="10"
   width="38.987"
   height="39.996" />
	
		<rect
   id="Rogan_3_"
   x="85.172"
   y="66.294"
   display="inline"
   fill="none"
   stroke="#000000"
   stroke-miterlimit="10"
   width="38.987"
   height="39.996" />
	
		<rect
   id="Rogan_4_"
   x="156.536"
   y="66.294"
   display="inline"
   fill="none"
   stroke="#000000"
   stroke-miterlimit="10"
   width="38.987"
   height="39.996" />
	
		<rect
   id="MediumLight_3_"
   x="56.475"
   y="60.628"
   display="inline"
   fill="none"
   stroke="#000000"
   stroke-miterlimit="10"
   width="10"
   height="10" />
	
		<rect
   id="MediumLight_1_"
   x="56.475"
   y="81.292"
   display="inline"
   fill="none"
   stroke="#000000"
   stroke-miterlimit="10"
   width="10"
   height="10" />
	
		<rect
   id="MediumLight_2_"
   x="56.475"
   y="101.957"
   display="inline"
   fill="none"
   stroke="#000000"
   stroke-miterlimit="10"
   width="10"
   height="10" />
	
		<rect
   id="CKD6"
   x="19.302"
   y="51.63"
   display="inline"
   fill="none"
   stroke="#000000"
   stroke-miterlimit="10"
   width="28"
   height="27.996" />
	
		<rect
   id="CKD6_1_"
   x="19.302"
   y="92.958"
   display="inline"
   fill="none"
   stroke="#000000"
   stroke-miterlimit="10"
   width="28"
   height="27.996" />
</g>
</svg>
