<svg xmlns="http://www.w3.org/2000/svg" width="15.33mm" height="130.74mm" viewBox="0 0 43.45 370.59">
  <g id="faceplate">
    <rect x="0.13" y="0.13" width="43.2" height="364.25" style="fill: #ededed;stroke: #9d9d9e;stroke-width: 0.25px"/>
    <polyline points="14.66 4.93 14.35 5.17 14.06 5.44 13.8 5.73 13.56 6.04 13.35 6.37 13.17 6.72 13.02 7.08 12.9 7.46 12.81 7.84 12.76 8.23 12.74 8.62 12.76 9.01 12.81 9.4 12.9 9.79 13.02 10.16 13.17 10.52 13.35 10.87 13.56 11.2 13.8 11.51 14.06 11.8 14.35 12.07 14.66 12.31 14.99 12.52 15.34 12.7 15.71 12.85 16.08 12.97 16.46 13.05 16.85 13.1 17.25 13.12 26.25 13.12 26.64 13.1 27.03 13.05 27.41 12.97 27.78 12.85 28.15 12.7 28.5 12.52 28.83 12.31 29.14 12.07 29.43 11.8 29.69 11.51 29.93 11.2 30.14 10.87 30.32 10.52 30.47 10.16 30.59 9.79 30.68 9.4 30.73 9.01 30.75 8.62 30.73 8.23 30.68 7.84 30.59 7.46 30.47 7.08 30.32 6.72 30.14 6.37 29.93 6.04 29.69 5.73 29.43 5.44 29.14 5.17 28.83 4.93 28.5 4.72 28.15 4.54 27.78 4.39 27.41 4.27 27.03 4.19 26.64 4.14 26.25 4.12"/>
    <polyline points="16.46 4.19 16.08 4.27 15.71 4.39"/>
    <g>
      <g>
        <path d="M26.77,332.83l-5.23,6.63v-5.69a1.25,1.25,0,0,0-.6-1.11.86.86,0,0,0-1.07.28L13,341.67a1.4,1.4,0,0,0,0,1.69.86.86,0,0,0,1.38,0l5.18-6.6v5.69a1.23,1.23,0,0,0,.61,1.11.86.86,0,0,0,1.07-.28l5.22-6.63v5.8a1,1,0,1,0,2,0v-8.77a1.21,1.21,0,0,0-.61-1.1A.82.82,0,0,0,26.77,332.83Z"/>
        <path d="M13.7,344.06a1.24,1.24,0,0,1-.95-.47,1.73,1.73,0,0,1,0-2.14l6.86-8.73a1.21,1.21,0,0,1,1.52-.38,1.58,1.58,0,0,1,.81,1.43v4.64l4.57-5.81a1.2,1.2,0,0,1,1.51-.38,1.57,1.57,0,0,1,.82,1.43v8.77A1.46,1.46,0,0,1,27.47,344a1.44,1.44,0,0,1-1.34-1.56v-4.76l-4.57,5.82a1.23,1.23,0,0,1-1.52.37,1.57,1.57,0,0,1-.81-1.43v-4.64l-4.54,5.77a1.27,1.27,0,0,1-1,.51Zm6.87-11.12a.55.55,0,0,0-.42.23l-6.86,8.73a1,1,0,0,0,0,1.23.6.6,0,0,0,.41.2.52.52,0,0,0,.41-.23l5.19-6.59.65-.83v6.74a.86.86,0,0,0,.4.78A.49.49,0,0,0,21,343l5.88-7.46v6.85c0,.46.27.83.61.83s.61-.37.61-.83v-8.77a.86.86,0,0,0-.41-.78.49.49,0,0,0-.62.18h0l-5.87,7.46v-6.74a.85.85,0,0,0-.41-.78A.46.46,0,0,0,20.57,332.94Z"/>
      </g>
      <g>
        <path d="M13,332.76l-4.55,5.78a1.41,1.41,0,0,0,0,1.69.86.86,0,0,0,1.38,0l2.88-3.65v5.95a1.09,1.09,0,0,0,1,1.19,1.1,1.1,0,0,0,1-1.19v-8.92a1.21,1.21,0,0,0-.61-1.1A.86.86,0,0,0,13,332.76Z"/>
        <path d="M13.7,344.06a1.46,1.46,0,0,1-1.33-1.56v-4.91l-2.23,2.83a1.26,1.26,0,0,1-1,.51,1.3,1.3,0,0,1-1-.46,1.76,1.76,0,0,1,0-2.15l4.56-5.79a1.22,1.22,0,0,1,1.51-.38,1.59,1.59,0,0,1,.81,1.43v8.92A1.46,1.46,0,0,1,13.7,344.06Zm-.61-8.56v7c0,.45.28.83.61.83s.62-.38.62-.83v-8.92a.88.88,0,0,0-.41-.78.5.5,0,0,0-.62.18l-4.56,5.79a1,1,0,0,0,0,1.23.58.58,0,0,0,.41.2.5.5,0,0,0,.4-.23Z"/>
      </g>
      <g>
        <path d="M34.66,337a1,1,0,0,0-.89-.73h-2l1.45-1.84s.76-1.11.09-1.72-1.49.06-1.49.06l-3,3.87a1.42,1.42,0,0,0-.19,1.3,1,1,0,0,0,.9.73h2l-2.36,3s-1,1.06-.25,1.78,1.65-.12,1.65-.12l3.95-5A1.39,1.39,0,0,0,34.66,337Z"/>
        <path d="M29.53,344.12a1.27,1.27,0,0,1-.92-.4c-.77-.76-.18-1.83.24-2.29l1.88-2.38H29.49a1.34,1.34,0,0,1-1.24-1,1.75,1.75,0,0,1,.25-1.64l3-3.86a1.52,1.52,0,0,1,2-.1c.71.64.32,1.68,0,2.18l-1,1.28h1.24a1.34,1.34,0,0,1,1.23,1,1.74,1.74,0,0,1-.25,1.64l-3.94,5A2,2,0,0,1,29.53,344.12Zm3.13-11.28a1.17,1.17,0,0,0-.61.23l-3,3.81a1,1,0,0,0-.14,1,.64.64,0,0,0,.56.48h2.73l-2.81,3.58s-.75.84-.29,1.31,1.13-.12,1.16-.14l3.9-5a1,1,0,0,0,.14-.95h0a.64.64,0,0,0-.55-.48H31L33,334.23h0s.54-.85.12-1.23A.58.58,0,0,0,32.66,332.84Z"/>
      </g>
    </g>
    <g>
      <path d="M16.52,311.66A2,2,0,0,1,16,313a1.92,1.92,0,0,1-1.39,3.27H13a.34.34,0,0,1-.35-.36v-5.85a.39.39,0,0,1,.31-.38h1.58A2,2,0,0,1,16.52,311.66Zm-2,.76a.76.76,0,0,0,0-1.51H14a.19.19,0,0,0-.18.2v1.12c0,.12.07.19.18.19Zm0,2.69a.73.73,0,0,0,.74-.75.77.77,0,0,0-.74-.75H14a.19.19,0,0,0-.18.19v1.13c0,.12.06.18.18.18Z"/>
      <path d="M20.89,309.71a.41.41,0,0,1,.36.34v4.44a2,2,0,0,1-.26.9,1.94,1.94,0,0,1-3.34,0,1.7,1.7,0,0,1-.25-.9v-4.44a.38.38,0,0,1,.35-.34h.46a.38.38,0,0,1,.36.38c0,1.47,0,2.93,0,4.4a.66.66,0,0,0,.72.7.67.67,0,0,0,.77-.69v-4.41a.38.38,0,0,1,.36-.38Z"/>
      <path d="M25.58,309.7a.41.41,0,0,1,.38.38v.45a.37.37,0,0,1-.38.37h-2.1a.21.21,0,0,0-.19.2v1.13a.19.19,0,0,0,.19.19h1.33a.36.36,0,0,1,.36.36v.47a.34.34,0,0,1-.37.35H23.48a.21.21,0,0,0-.19.2v2.12a.37.37,0,0,1-.36.37h-.45a.33.33,0,0,1-.35-.32v-5.9a.35.35,0,0,1,.31-.37Z"/>
      <path d="M30.08,309.7a.41.41,0,0,1,.37.38v.45a.37.37,0,0,1-.38.37H28a.21.21,0,0,0-.2.2v1.13a.19.19,0,0,0,.2.19H29.3a.36.36,0,0,1,.36.36v.47a.34.34,0,0,1-.37.35H28a.21.21,0,0,0-.2.2v2.12a.37.37,0,0,1-.36.37H27a.34.34,0,0,1-.35-.32v-5.9a.35.35,0,0,1,.31-.37Z"/>
      <path d="M16.49,319s0,0,0,0v5.87a.37.37,0,0,1-.37.36h-.45a.37.37,0,0,1-.37-.37v-3.79c-.28.48-.56,1-.85,1.44a.34.34,0,0,1-.16.13h-.12a.32.32,0,0,1-.14,0,.4.4,0,0,1-.15-.14L13,321.12v3.8a.38.38,0,0,1-.37.37h-.45a.35.35,0,0,1-.36-.33V319c0-.2.1-.3.31-.31h.51A.55.55,0,0,1,13,319c.39.62.78,1.23,1.18,1.84l1.19-1.87a.42.42,0,0,1,.3-.21h.52A.28.28,0,0,1,16.49,319Z"/>
      <path d="M20.87,318.71a.42.42,0,0,1,.36.34v4.44a2.18,2.18,0,0,1-.26.9,1.94,1.94,0,0,1-3.34,0,1.7,1.7,0,0,1-.25-.9v-4.44a.38.38,0,0,1,.35-.34h.46a.38.38,0,0,1,.36.38c0,1.47,0,2.93,0,4.4a.74.74,0,0,0,1.48,0c0-1.47,0-2.94,0-4.41a.38.38,0,0,1,.36-.38Z"/>
      <path d="M25.59,325.29H22.44a.36.36,0,0,1-.33-.36v-5.88a.37.37,0,0,1,.36-.34h.46a.37.37,0,0,1,.37.37v4.84a.18.18,0,0,0,.18.18h2.1a.41.41,0,0,1,.38.37v.46A.39.39,0,0,1,25.59,325.29Z"/>
      <path d="M30.69,318.71a.4.4,0,0,1,.37.37v.45a.38.38,0,0,1-.37.37h-1a.2.2,0,0,0-.19.19V325a.46.46,0,0,1-.07.14.32.32,0,0,1-.11.12s0,0,0,0h0a.26.26,0,0,1-.17,0h-.46a.36.36,0,0,1-.36-.33v-4.87a.2.2,0,0,0-.19-.19h-1a.35.35,0,0,1-.36-.37v-.45a.37.37,0,0,1,.36-.37Z"/>
    </g>
    <g>
      <path d="M35,169.37l0,0,0,0Z"/>
      <path d="M35.1,168.16a9.38,9.38,0,0,1,1.07,1,7.94,7.94,0,0,0,2-5.95.76.76,0,0,0-.81-.68.75.75,0,0,0-.69.81A6.5,6.5,0,0,1,35.1,168.16Z"/>
    </g>
    <g>
      <path d="M36.94,191.22V196a5.38,5.38,0,0,1,1,.21v-5a7.83,7.83,0,0,0-2.69-5.91.5.5,0,0,0-.65.76A6.82,6.82,0,0,1,36.94,191.22Z"/>
      <path d="M36.94,206v89.85a6.82,6.82,0,0,1-6.8,6.81H12.78A6.82,6.82,0,0,1,6,295.87V191.22a6.75,6.75,0,0,1,2-4.77.5.5,0,0,0-.72-.7A7.77,7.77,0,0,0,5,191.22V295.87a7.83,7.83,0,0,0,7.81,7.81H30.14a7.82,7.82,0,0,0,7.8-7.81V205.82A4.67,4.67,0,0,1,36.94,206Z"/>
    </g>
    <path d="M36.43,57.7c.13,0,.26,0,.4,0a7.56,7.56,0,0,0,1.09-3.89V35.8A7.51,7.51,0,0,0,36.18,31L35.05,29.9a7.43,7.43,0,0,0-4.66-1.63H12.52A7.53,7.53,0,0,0,5,35.8V53.85a7.53,7.53,0,0,0,7.52,7.53H30.39a8.14,8.14,0,0,0,1.22-.11A5.06,5.06,0,0,1,36.43,57.7ZM21.76,56.11A11.37,11.37,0,1,1,33.13,44.75,11.37,11.37,0,0,1,21.76,56.11Z"/>
    <path d="M36.43,195.94c.14,0,.27,0,.41,0a7.48,7.48,0,0,0,1.08-3.87V174.06a7.51,7.51,0,0,0-1.74-4.81c-.34.34-1.43,1.39-1.83,1.68.31,0,.86,0,.94.3a.78.78,0,0,1-.59.94l-2.64.28-.17,0a.78.78,0,0,1-.61-.29.77.77,0,0,1-.11-.81l.85-2.45a.77.77,0,0,1,1-.4c.4.17.29.92.11,1.32a18.89,18.89,0,0,0,1.89-1.68,7.43,7.43,0,0,0-4.66-1.63H12.52A7.53,7.53,0,0,0,5,174.06v18.05a7.53,7.53,0,0,0,7.52,7.53H30.39a7.89,7.89,0,0,0,1.21-.11A5.07,5.07,0,0,1,36.43,195.94Zm-14.67-1.57A11.37,11.37,0,1,1,33.13,183,11.37,11.37,0,0,1,21.76,194.37Z"/>
    <g>
      <path d="M36.94,49.36v8.39a5.38,5.38,0,0,1,1,.21v-8.6a7.84,7.84,0,0,0-3.19-6.3.5.5,0,1,0-.59.81A6.84,6.84,0,0,1,36.94,49.36Z"/>
      <path d="M36.94,67.78v89a6.82,6.82,0,0,1-6.8,6.81H12.78A6.82,6.82,0,0,1,6,156.79V49.36A6.73,6.73,0,0,1,8.7,43.92a.52.52,0,0,0,.1-.71.51.51,0,0,0-.71-.09A7.74,7.74,0,0,0,5,49.36V156.79a7.83,7.83,0,0,0,7.81,7.81H30.14a7.82,7.82,0,0,0,7.8-7.81V67.58A4.67,4.67,0,0,1,36.94,67.78Z"/>
    </g>
    <g>
      <line x1="21.76" y1="181.21" x2="21.76" y2="184.81" style="fill: #555;stroke: #231f20;stroke-miterlimit: 10"/>
      <line x1="19.96" y1="183.01" x2="23.56" y2="183.01" style="fill: #555;stroke: #231f20;stroke-miterlimit: 10"/>
    </g>
    <polyline points="26.2 4.12 26.6 4.14 26.99 4.19 27.37 4.27 27.74 4.39 28.11 4.54 28.45 4.72 28.79 4.93 29.1 5.17 29.39 5.44 29.65 5.73 29.89 6.04 30.1 6.37 30.28 6.72 30.43 7.08 30.55 7.46 30.64 7.84 30.69 8.23 30.7 8.62 30.69 9.01 30.64 9.4 30.55 9.79 30.43 10.16 30.28 10.52 30.1 10.87 29.89 11.2 29.65 11.51 29.39 11.8 29.1 12.07 28.79 12.31 28.45 12.52 28.11 12.7 27.74 12.85 27.37 12.97 26.99 13.05 26.6 13.1 26.2 13.12 17.2 13.12 16.81 13.1 16.42 13.05 16.04 12.97 15.67 12.85 15.3 12.7 14.96 12.52 14.62 12.31 14.31 12.07 14.02 11.8 13.76 11.51 13.52 11.2 13.31 10.87 13.13 10.52 12.98 10.16 12.86 9.79 12.77 9.4 12.72 9.01 12.71 8.62 12.72 8.23 12.77 7.84 12.86 7.46 12.98 7.08 13.13 6.72 13.31 6.37 13.52 6.04 13.76 5.73 14.02 5.44 14.31 5.17 14.62 4.93 14.96 4.72 15.3 4.54 15.67 4.39 16.04 4.27 16.42 4.19 16.81 4.14 17.2 4.12 26.2 4.12 26.25 4.12 17.25 4.12"/>
    <polygon points="26.25 351.38 17.25 351.38 16.85 351.4 16.46 351.45 16.08 351.53 15.71 351.65 15.34 351.8 14.99 351.98 14.66 352.19 14.35 352.43 14.06 352.7 13.8 352.99 13.56 353.3 13.35 353.63 13.17 353.98 13.02 354.34 12.9 354.72 12.81 355.1 12.76 355.49 12.74 355.88 12.76 356.27 12.81 356.66 12.9 357.05 13.02 357.42 13.17 357.78 13.35 358.13 13.56 358.46 13.8 358.77 14.06 359.06 14.35 359.33 14.66 359.57 14.99 359.78 15.34 359.96 15.71 360.11 16.08 360.23 16.46 360.31 16.85 360.36 17.25 360.38 26.25 360.38 26.64 360.36 27.03 360.31 27.41 360.23 27.78 360.11 28.15 359.96 28.5 359.78 28.83 359.57 29.14 359.33 29.43 359.06 29.69 358.77 29.93 358.46 30.14 358.13 30.32 357.78 30.47 357.42 30.59 357.05 30.68 356.66 30.73 356.27 30.75 355.88 30.73 355.49 30.68 355.1 30.59 354.72 30.47 354.34 30.32 353.98 30.14 353.63 29.93 353.3 29.69 352.99 29.43 352.7 29.14 352.43 28.83 352.19 28.5 351.98 28.15 351.8 27.78 351.65 27.41 351.53 27.03 351.45 26.64 351.4 26.25 351.38"/>
  </g>
  <g id="components">
    <circle id="Output_D" data-name="Output D" cx="21.71" cy="286.66" r="11.34" style="fill: blue"/>
    <circle id="Output_E" data-name="Output E" cx="21.71" cy="252.1" r="11.34" style="fill: blue"/>
    <circle id="Output_F" data-name="Output F" cx="21.71" cy="217.54" r="11.34" style="fill: blue"/>
    <circle id="Input_2_LED" data-name="Input 2 LED" cx="36.49" cy="201.01" r="4.96" style="fill: #f0f"/>
    <circle id="Input_2" data-name="Input 2" cx="21.71" cy="182.98" r="11.34" style="fill: lime"/>
    <circle id="Output_C" data-name="Output C" cx="21.71" cy="148.42" r="11.34" style="fill: blue"/>
    <circle id="Output_B" data-name="Output B" cx="21.71" cy="113.89" r="11.34" style="fill: blue"/>
    <circle id="Output_A" data-name="Output A" cx="21.71" cy="79.31" r="11.34" style="fill: blue"/>
    <circle id="Input_1_LED" data-name="Input 1 LED" cx="36.49" cy="62.81" r="4.96" style="fill: #f0f"/>
    <circle id="Input_1" data-name="Input 1" cx="21.71" cy="44.75" r="11.34" style="fill: lime"/>
    <text id="slug" transform="translate(5.38 369.84)" style="font-size: 3px;font-family: MyriadPro-Regular, Myriad Pro">Buff<tspan x="5.03" y="0" style="letter-spacing: 0.0029296875em">M</tspan><tspan x="7.45" y="0" style="letter-spacing: -0.0003255208333333333em">ult</tspan></text>
    <text id="modulename" transform="translate(20.64 369.84)" style="font-size: 3px;font-family: MyriadPro-Regular, Myriad Pro">Bu<tspan x="3.28" y="0" style="letter-spacing: -0.013020833333333334em">ff</tspan><tspan x="4.99" y="0">e</tspan><tspan x="6.49" y="0" style="letter-spacing: -0.010091145833333334em">r</tspan><tspan x="7.44" y="0">ed </tspan><tspan x="11.27" y="0" style="letter-spacing: 0.0029296875em">M</tspan><tspan x="13.69" y="0">ultiple</tspan></text>
  </g>
</svg>
