<svg xmlns="http://www.w3.org/2000/svg" width="30.57mm" height="132.36mm" viewBox="0 0 86.65 375.21">
  <g id="faceplate">
    <rect x="0.13" y="0.13" width="86.4" height="364.25" style="fill: #ededee;stroke: #9c9c9e;stroke-miterlimit: 10;stroke-width: 0.25px"/>
    <path d="M28.92,191.55l-1.73-1.45a22.06,22.06,0,0,1,4.34-3.66l1.12,1.94A20.2,20.2,0,0,0,28.92,191.55Z"/>
    <path d="M34.38,187.38l-1.12-1.95a21.87,21.87,0,0,1,5.34-2l.39,2.21A19.43,19.43,0,0,0,34.38,187.38Z"/>
    <path d="M25.18,197.31l-2.1-.76a22,22,0,0,1,2.83-4.92l1.73,1.45A19.81,19.81,0,0,0,25.18,197.31Z"/>
    <path d="M47.83,185.69l.39-2.21a21.87,21.87,0,0,1,5.34,2l-1.12,1.95A19.27,19.27,0,0,0,47.83,185.69Z"/>
    <path d="M23.69,204H21.44a22,22,0,0,1,1-5.58l2.11.77A19.61,19.61,0,0,0,23.69,204Z"/>
    <path d="M24.56,210.81l-2.1.76a21.57,21.57,0,0,1-1-5.56h2.23A19.84,19.84,0,0,0,24.56,210.81Z"/>
    <path d="M27.7,216.89,26,218.33a22.46,22.46,0,0,1-2.84-4.88l2.11-.76A19.87,19.87,0,0,0,27.7,216.89Z"/>
    <path d="M59.18,193.08l1.73-1.45a21.63,21.63,0,0,1,2.83,4.92l-2.1.76A19.4,19.4,0,0,0,59.18,193.08Z"/>
    <path d="M62.32,199.19l2.11-.76a21.88,21.88,0,0,1,1,5.58H63.13A20.25,20.25,0,0,0,62.32,199.19Z"/>
    <path d="M63.14,206h2.23a21.57,21.57,0,0,1-1,5.56l-2.1-.76A19.45,19.45,0,0,0,63.14,206Z"/>
    <path d="M61.58,212.69l2.1.76a22.06,22.06,0,0,1-2.84,4.88l-1.71-1.44A20.77,20.77,0,0,0,61.58,212.69Z"/>
    <path d="M32.72,221.53l-1.12,1.94a22.5,22.5,0,0,1-4.32-3.62L29,218.41A19.68,19.68,0,0,0,32.72,221.53Z"/>
    <path d="M57.83,218.41l1.71,1.44a21.91,21.91,0,0,1-4.32,3.62l-1.11-1.94A19.62,19.62,0,0,0,57.83,218.41Z"/>
    <path d="M54.17,188.38l1.12-1.94a22.06,22.06,0,0,1,4.34,3.66l-1.73,1.45A20.2,20.2,0,0,0,54.17,188.38Z"/>
    <g>
      <path d="M59.66,108.94H57.93l-.43-1.08a4.67,4.67,0,0,0-.41-.86,1,1,0,0,0-.37-.36,1.12,1.12,0,0,0-.45-.07h-.18v2.37H54.47v-6.09h2.75a1.85,1.85,0,0,1,1.09.31,1.74,1.74,0,0,1,.61.75,2,2,0,0,1,.19.83,1.81,1.81,0,0,1-.15.78,1.43,1.43,0,0,1-.34.47,2.42,2.42,0,0,1-.39.27,1.54,1.54,0,0,1,.43.41,5.23,5.23,0,0,1,.46,1Zm-2.2-4.16a.67.67,0,0,0-.24-.59,1.45,1.45,0,0,0-.79-.17h-.34v1.47h.35a1.56,1.56,0,0,0,.81-.15A.63.63,0,0,0,57.46,104.78Z"/>
      <path d="M63.89,107.09H61.12a1.1,1.1,0,0,0,.39.67,1.12,1.12,0,0,0,.72.26,3.4,3.4,0,0,0,1.56-.45v1a4.3,4.3,0,0,1-.74.33,3.8,3.8,0,0,1-1.11.14,2.4,2.4,0,0,1-1.24-.3,2,2,0,0,1-.76-.84,2.7,2.7,0,0,1-.26-1.19,2.63,2.63,0,0,1,.26-1.18,1.88,1.88,0,0,1,.76-.82,2.4,2.4,0,0,1,1.24-.3,2,2,0,0,1,.93.24,1.76,1.76,0,0,1,.73.77,2.87,2.87,0,0,1,.29,1.37Zm-1.31-.78a1.11,1.11,0,0,0-.19-.69.62.62,0,0,0-.54-.26.7.7,0,0,0-.56.26,1.09,1.09,0,0,0-.21.69Z"/>
      <path d="M67.63,108.74l-.37.14-.43.1a3,3,0,0,1-.53,0,2.32,2.32,0,0,1-1.1-.24,2,2,0,0,1-.68-.63,2.39,2.39,0,0,1-.34-.77,3.11,3.11,0,0,1-.09-.69,3.26,3.26,0,0,1,.09-.69,2.77,2.77,0,0,1,.33-.75,1.88,1.88,0,0,1,.69-.61,2.16,2.16,0,0,1,1.1-.25,3.32,3.32,0,0,1,.71.07,4.63,4.63,0,0,1,.56.19v1.24a3.5,3.5,0,0,0-1.07-.24,1,1,0,0,0-.66.25,1,1,0,0,0-.29.79,1.11,1.11,0,0,0,.15.6.78.78,0,0,0,.36.36.94.94,0,0,0,.44.12,2.31,2.31,0,0,0,.48-.07l.65-.21Z"/>
      <path d="M72.33,106.7a2.64,2.64,0,0,1-.25,1.19,2,2,0,0,1-.76.83,2.42,2.42,0,0,1-1.24.3,2.4,2.4,0,0,1-1.24-.3,1.85,1.85,0,0,1-.76-.83,2.64,2.64,0,0,1-.26-1.19,3,3,0,0,1,.14-.92,2.34,2.34,0,0,1,.43-.73,2,2,0,0,1,.71-.49,2.68,2.68,0,0,1,1-.17,2.48,2.48,0,0,1,1,.18,1.79,1.79,0,0,1,.71.48,2.11,2.11,0,0,1,.42.73A2.73,2.73,0,0,1,72.33,106.7Zm-1.46,0a1.52,1.52,0,0,0-.2-.83.68.68,0,0,0-.59-.3.67.67,0,0,0-.59.3,1.52,1.52,0,0,0-.2.83,1.58,1.58,0,0,0,.2.84.68.68,0,0,0,.59.31.69.69,0,0,0,.59-.31A1.53,1.53,0,0,0,70.87,106.7Z"/>
      <path d="M76.2,104.71l-.51,1.59a.89.89,0,0,0-.64-.34.67.67,0,0,0-.51.22,2.16,2.16,0,0,0-.41.84v1.92h-1.4v-4.47h1.4v1.08a2.28,2.28,0,0,1,.46-.78,1,1,0,0,1,.78-.38,1,1,0,0,1,.41.08A2.4,2.4,0,0,1,76.2,104.71Z"/>
      <path d="M80.49,108.94H79.1v-.4a2.21,2.21,0,0,1-.47.35A1.42,1.42,0,0,1,78,109a1.68,1.68,0,0,1-.84-.24,1.85,1.85,0,0,1-.68-.75,2.74,2.74,0,0,1-.27-1.29,3.35,3.35,0,0,1,.2-1.15,2,2,0,0,1,.63-.86,1.64,1.64,0,0,1,1.06-.34,1.58,1.58,0,0,1,.62.1,2,2,0,0,1,.43.24v-1.88h1.39Zm-1.39-1.42v-1.71l-.38-.22a.81.81,0,0,0-.33-.06.63.63,0,0,0-.54.31,1.46,1.46,0,0,0-.22.86,1.35,1.35,0,0,0,.23.87.68.68,0,0,0,.53.27.8.8,0,0,0,.41-.09A2,2,0,0,0,79.1,107.52Z"/>
    </g>
    <g>
      <path d="M17.42,333.94l-2.27,6.5h-.92l-1.37-3.78-1.4,3.78h-.93l-2.23-6.5H10L11,337.5l1.25-3.56h1.14l1.23,3.56,1.14-3.56Z"/>
      <path d="M23.93,340.36H22.3l-.43-1.31H19.59l-.44,1.31H17.53l2.32-6.42h1.76Zm-2.42-2.42-.77-2.34L20,337.94Z"/>
      <path d="M29.77,333.94l-2.37,6.5h-1L24,333.94h1.65l1.21,3.7,1.23-3.7Z"/>
      <path d="M37.89,340.36h-1.7l-.42-1.14a5.32,5.32,0,0,0-.41-.92,1,1,0,0,0-.35-.37,1.17,1.17,0,0,0-.45-.08h-.18v2.51H32.8v-6.42h2.69a1.65,1.65,0,0,1,1.07.33,1.85,1.85,0,0,1,.61.78,2.43,2.43,0,0,1,.18.88,2,2,0,0,1-.15.82,1.43,1.43,0,0,1-.33.49,2.92,2.92,0,0,1-.38.29,1.71,1.71,0,0,1,.42.43,6.1,6.1,0,0,1,.45,1ZM35.73,336a.72.72,0,0,0-.24-.62,1.26,1.26,0,0,0-.77-.18h-.34v1.55h.34a1.39,1.39,0,0,0,.8-.16A.69.69,0,0,0,35.73,336Z"/>
      <path d="M42.58,340.36h-4v-6.42h3.9v1.29H40.2v1.17h2.2v1.29H40.2v1.37h2.38Z"/>
      <path d="M48.35,339.87a3.84,3.84,0,0,1-.67.34,4.39,4.39,0,0,1-.69.18,5.55,5.55,0,0,1-.72.05,3.17,3.17,0,0,1-1.23-.23,2.67,2.67,0,0,1-.94-.69,2.88,2.88,0,0,1-.6-1,4.61,4.61,0,0,1,0-2.78,2.86,2.86,0,0,1,.66-1,2.58,2.58,0,0,1,1-.61,3.33,3.33,0,0,1,1.14-.2,5.29,5.29,0,0,1,2,.49V336a5.49,5.49,0,0,0-.77-.49,1.93,1.93,0,0,0-.9-.2,1.79,1.79,0,0,0-.85.22,1.64,1.64,0,0,0-.64.64,1.76,1.76,0,0,0-.25,1,1.89,1.89,0,0,0,.21.89,1.71,1.71,0,0,0,.6.65,1.61,1.61,0,0,0,.85.23,2.17,2.17,0,0,0,.72-.11,3.59,3.59,0,0,0,.58-.25,5.22,5.22,0,0,0,.48-.33Z"/>
      <path d="M55,337.14a4,4,0,0,1-.34,1.66,2.73,2.73,0,0,1-1,1.19,2.87,2.87,0,0,1-1.64.45A2.91,2.91,0,0,1,50.4,340a2.84,2.84,0,0,1-1-1.22,4.12,4.12,0,0,1,0-3.23,2.84,2.84,0,0,1,1-1.22,2.91,2.91,0,0,1,1.65-.46,3,3,0,0,1,1.3.27,2.49,2.49,0,0,1,.94.71,3.11,3.11,0,0,1,.56,1.05A4,4,0,0,1,55,337.14Zm-1.62,0a2.71,2.71,0,0,0-.08-.66,1.47,1.47,0,0,0-.27-.51,1.33,1.33,0,0,0-.43-.35,1.35,1.35,0,0,0-.59-.12,1.23,1.23,0,0,0-1,.45,1.87,1.87,0,0,0-.36,1.19,1.9,1.9,0,0,0,.36,1.2,1.23,1.23,0,0,0,1,.45,1.3,1.3,0,0,0,.75-.21,1.27,1.27,0,0,0,.46-.58A2.13,2.13,0,0,0,53.42,337.14Z"/>
      <path d="M61.12,340.36h-1.7L59,339.22a5.32,5.32,0,0,0-.41-.92,1,1,0,0,0-.35-.37,1.17,1.17,0,0,0-.45-.08h-.18v2.51H56v-6.42h2.69a1.65,1.65,0,0,1,1.07.33,1.85,1.85,0,0,1,.61.78,2.43,2.43,0,0,1,.18.88,2,2,0,0,1-.15.82,1.43,1.43,0,0,1-.33.49,2.92,2.92,0,0,1-.38.29,1.71,1.71,0,0,1,.42.43,6.1,6.1,0,0,1,.45,1ZM59,336a.72.72,0,0,0-.24-.62,1.26,1.26,0,0,0-.77-.18h-.34v1.55H58a1.39,1.39,0,0,0,.8-.16A.69.69,0,0,0,59,336Z"/>
      <path d="M67.25,337.26a3.58,3.58,0,0,1-.3,1.59,3.08,3.08,0,0,1-.69,1,2.2,2.2,0,0,1-1.58.55H61.84v-6.42H64a5.08,5.08,0,0,1,.84.06,3.6,3.6,0,0,1,.63.18,2.07,2.07,0,0,1,.83.56,2.72,2.72,0,0,1,.47.63,3.42,3.42,0,0,1,.33.85A4.3,4.3,0,0,1,67.25,337.26Zm-1.62-.08a2.56,2.56,0,0,0-.24-1.22,1.26,1.26,0,0,0-.59-.58,1.73,1.73,0,0,0-.7-.15h-.67V339h.67a1.68,1.68,0,0,0,1.08-.36A1.88,1.88,0,0,0,65.63,337.18Z"/>
      <path d="M72.19,340.36h-4v-6.42h3.9v1.29H69.81v1.17H72v1.29H69.81v1.37h2.38Z"/>
      <path d="M78.35,340.36H76.64l-.41-1.14a5.32,5.32,0,0,0-.41-.92,1,1,0,0,0-.36-.37,1.08,1.08,0,0,0-.44-.08h-.18v2.51H73.25v-6.42H76a1.67,1.67,0,0,1,1.07.33,1.75,1.75,0,0,1,.6.78,2.26,2.26,0,0,1,.19.88,1.82,1.82,0,0,1-.16.82,1.43,1.43,0,0,1-.32.49,2.92,2.92,0,0,1-.38.29,1.71,1.71,0,0,1,.42.43,7.46,7.46,0,0,1,.44,1ZM76.19,336a.72.72,0,0,0-.24-.62,1.32,1.32,0,0,0-.78-.18h-.33v1.55h.34a1.41,1.41,0,0,0,.8-.16A.69.69,0,0,0,76.19,336Z"/>
    </g>
    <g>
      <path d="M64.84,8.93l-6.91,8.79V10.19a1.61,1.61,0,0,0-.81-1.47,1.13,1.13,0,0,0-1.41.37L46.62,20.65a1.85,1.85,0,0,0,0,2.24,1.13,1.13,0,0,0,1.82-.05l6.87-8.73v7.53a1.61,1.61,0,0,0,.81,1.47,1.13,1.13,0,0,0,1.42-.37L64.48,14v7.69a1.32,1.32,0,1,0,2.58,0V10a1.61,1.61,0,0,0-.81-1.46A1.12,1.12,0,0,0,64.84,8.93Z" style="stroke: #000;stroke-width: 0.9623649999999999px"/>
      <path d="M46.62,8.84l-6,7.66a1.86,1.86,0,0,0,0,2.24,1.13,1.13,0,0,0,1.83,0s2-2.59,3.81-4.84v7.88a1.32,1.32,0,1,0,2.58,0V9.94A1.63,1.63,0,0,0,48,8.47,1.13,1.13,0,0,0,46.62,8.84Z" style="stroke: #000;stroke-width: 0.9623649999999999px"/>
      <path d="M75.3,14.49a1.31,1.31,0,0,0-1.19-1H71.48l1.92-2.44s1-1.47.12-2.28-2,.08-2,.08l-4,5.12a1.84,1.84,0,0,0-.25,1.72,1.31,1.31,0,0,0,1.18,1h2.64l-3.12,4s-1.29,1.41-.34,2.36,2.2-.17,2.2-.17L75,16.21A1.87,1.87,0,0,0,75.3,14.49Z" style="stroke: #000;stroke-width: 0.9623649999999999px"/>
    </g>
    <g>
      <path d="M19,281v4.64h2.33v.82H18.11V281Z"/>
      <path d="M23.05,282.73a1.35,1.35,0,0,1,1.12.52,2.24,2.24,0,0,1,.41,1.42v.15H22.31a1.18,1.18,0,0,0,.32.75,1,1,0,0,0,.74.26,1.43,1.43,0,0,0,.58-.12,2.48,2.48,0,0,0,.58-.36v.72a2.1,2.1,0,0,1-1.36.45,1.63,1.63,0,0,1-1.25-.52,2,2,0,0,1-.48-1.38,2,2,0,0,1,.45-1.36A1.44,1.44,0,0,1,23.05,282.73Zm.74,1.5a1.2,1.2,0,0,0-.22-.62.57.57,0,0,0-.49-.22.66.66,0,0,0-.51.21,1.18,1.18,0,0,0-.25.63Z"/>
      <path d="M26.31,280.92l.31,0a.73.73,0,0,1,.25.09v.78a1.16,1.16,0,0,0-.38-.06.57.57,0,0,0-.46.18,1,1,0,0,0-.14.6v.26h.54v.73h-.54v2.92H25v-2.92h-.46v-.73H25v-.27a1.81,1.81,0,0,1,.35-1.17A1.12,1.12,0,0,1,26.31,280.92Z"/>
      <path d="M27.48,281.83h.07v1h1.1v.73h-1.1v1.68a.62.62,0,0,0,.13.4.46.46,0,0,0,.36.15,1.33,1.33,0,0,0,.68-.24v.77a2,2,0,0,1-.86.23,1.09,1.09,0,0,1-.85-.34,1.3,1.3,0,0,1-.3-.91v-1.74h-.5v-.16Z"/>
    </g>
    <g>
      <path d="M58,281a1.47,1.47,0,0,1,1.53,1.54,1.53,1.53,0,0,1-.21.81,1.4,1.4,0,0,1-.63.54,1.51,1.51,0,0,1,.41.39,4.5,4.5,0,0,1,.44.81c.3.66.51,1.12.66,1.37h-1c-.07-.12-.17-.31-.29-.57a11.75,11.75,0,0,0-.58-1.18,1.65,1.65,0,0,0-.36-.43.68.68,0,0,0-.39-.13h-.34v2.31h-.93V281Zm-.21,2.33a.77.77,0,0,0,.57-.21.73.73,0,0,0,.21-.56.7.7,0,0,0-.21-.56.8.8,0,0,0-.58-.19h-.58v1.52Z"/>
      <path d="M60.83,281.11a.44.44,0,0,1,.33.16.55.55,0,0,1,.14.39.58.58,0,0,1-.13.38.44.44,0,0,1-.68,0,.59.59,0,0,1-.14-.38.6.6,0,0,1,.14-.39A.47.47,0,0,1,60.83,281.11Zm.42,1.69v3.65H60.4V282.8Z"/>
      <path d="M64.8,282.8v.68h-.55a1.22,1.22,0,0,1,.19.35.93.93,0,0,1,0,.34,1.26,1.26,0,0,1-.28.8,1.33,1.33,0,0,1-.88.41,1.41,1.41,0,0,0-.44.11.19.19,0,0,0,0,.36,2,2,0,0,0,.42.11,2.51,2.51,0,0,1,1.07.41.86.86,0,0,1,.34.72,1,1,0,0,1-.42.89,1.92,1.92,0,0,1-1.19.31A2.12,2.12,0,0,1,62,288a.92.92,0,0,1-.44-.79c0-.46.29-.78.85-1-.25-.12-.37-.28-.37-.47s.19-.43.55-.53v0a1,1,0,0,1-.59-.41,1.16,1.16,0,0,1-.23-.71,1.24,1.24,0,0,1,.4-.95,1.44,1.44,0,0,1,1-.36Zm-2.49,4.37c0,.32.29.49.86.49a1.06,1.06,0,0,0,.58-.14.42.42,0,0,0,.22-.35.41.41,0,0,0-.24-.37,1.56,1.56,0,0,0-.68-.12,1,1,0,0,0-.53.14A.41.41,0,0,0,62.31,287.17Zm.2-3.05a.68.68,0,0,0,.18.48.59.59,0,0,0,.43.19.54.54,0,0,0,.43-.2.71.71,0,0,0,.17-.5.64.64,0,0,0-.17-.45.58.58,0,0,0-.43-.18.56.56,0,0,0-.43.19A.69.69,0,0,0,62.51,284.12Z"/>
      <path d="M65.86,281v2.32h0a1.17,1.17,0,0,1,1-.58,1,1,0,0,1,.83.38,1.53,1.53,0,0,1,.31,1v2.34h-.84V284.3a1,1,0,0,0-.15-.59.51.51,0,0,0-.42-.21.6.6,0,0,0-.36.12,1.44,1.44,0,0,0-.37.42v2.41H65V281Z"/>
      <path d="M69.42,281.83h.07v1h1.1v.73h-1.1v1.68a.57.57,0,0,0,.13.4.43.43,0,0,0,.35.15,1.36,1.36,0,0,0,.69-.24v.77a2,2,0,0,1-.86.23,1.06,1.06,0,0,1-.85-.34,1.3,1.3,0,0,1-.31-.91v-1.74h-.5v-.16Z"/>
    </g>
    <g>
      <path d="M40.22,256.77H38.6v-6.09h1.62Z"/>
      <path d="M47.08,256.77H45.64l-2.78-3.39v3.39h-1.6v-6.09h1.43l2.77,3.37v-3.37h1.62Z"/>
    </g>
    <g>
      <path d="M39.7,293.88a3.55,3.55,0,0,1-.35,1.57,2.64,2.64,0,0,1-1,1.14,3.11,3.11,0,0,1-1.67.42,3,3,0,0,1-1.68-.44,2.63,2.63,0,0,1-1-1.15,3.64,3.64,0,0,1-.33-1.54,3.6,3.6,0,0,1,.33-1.53,2.63,2.63,0,0,1,1-1.15,3.09,3.09,0,0,1,1.68-.44A3.29,3.29,0,0,1,38,291a2.61,2.61,0,0,1,1,.68,2.73,2.73,0,0,1,.56,1A3.62,3.62,0,0,1,39.7,293.88Zm-1.65,0a2.06,2.06,0,0,0-.09-.62,1.29,1.29,0,0,0-.27-.49,1.22,1.22,0,0,0-.44-.33,1.4,1.4,0,0,0-.6-.12,1.31,1.31,0,0,0-1,.43,1.73,1.73,0,0,0-.37,1.13,1.69,1.69,0,0,0,.38,1.14,1.27,1.27,0,0,0,1,.43,1.41,1.41,0,0,0,.76-.2,1.26,1.26,0,0,0,.48-.56A1.86,1.86,0,0,0,38.05,293.88Z"/>
      <path d="M46,294.2a3,3,0,0,1-.26,1.34,2.14,2.14,0,0,1-.68.87,2.7,2.7,0,0,1-.91.46,3.32,3.32,0,0,1-1,.14,3.57,3.57,0,0,1-1.32-.26,2.45,2.45,0,0,1-1.08-.9,2.85,2.85,0,0,1-.43-1.65v-3.36h1.61v2.89a2.65,2.65,0,0,0,.16,1,1.16,1.16,0,0,0,.42.57,1.14,1.14,0,0,0,.64.18,1.08,1.08,0,0,0,1.06-.75,2.79,2.79,0,0,0,.15-1v-2.9H46Z"/>
      <path d="M52.06,292.32h-2v4.61H48.49v-4.61h-2v-1.48h5.54Z"/>
    </g>
    <polyline points="47.71 108.77 49.93 108.77 49.93 103.07 52.39 103.07 52.39 108.77" style="fill: none;stroke: #000;stroke-linecap: square;stroke-width: 0.838420897722244px"/>
    <line x1="26.84" y1="49.18" x2="55.78" y2="49.18" style="fill: none;stroke: #000;stroke-miterlimit: 10"/>
    <g>
      <path d="M40.7,124.2a3.09,3.09,0,0,1,.8.11,3.66,3.66,0,0,1,.84.36v1a4,4,0,0,0-.82-.42,2.55,2.55,0,0,0-.78-.13,1.84,1.84,0,0,0-.93.24,1.68,1.68,0,0,0-.64.68,2.18,2.18,0,0,0,0,2,1.54,1.54,0,0,0,.64.67,1.79,1.79,0,0,0,.93.24,2.11,2.11,0,0,0,.75-.13,5.15,5.15,0,0,0,.91-.46v1a4.47,4.47,0,0,1-.86.39,3.16,3.16,0,0,1-.92.12,2.63,2.63,0,0,1-1.35-.34,2.37,2.37,0,0,1-.94-1,3.14,3.14,0,0,1,0-2.9,2.4,2.4,0,0,1,1-1A2.75,2.75,0,0,1,40.7,124.2Z"/>
      <path d="M43.77,124.27v5.46h-.85v-5.46Z"/>
      <path d="M44.81,124.39a.44.44,0,0,1,.33.16.55.55,0,0,1,.14.39.58.58,0,0,1-.13.38.44.44,0,0,1-.68,0,.59.59,0,0,1-.14-.38.6.6,0,0,1,.14-.39A.47.47,0,0,1,44.81,124.39Zm.42,1.69v3.65h-.85v-3.65Z"/>
      <path d="M47.47,126a1.38,1.38,0,0,1,1.11.52A2.13,2.13,0,0,1,49,127.9a2.38,2.38,0,0,1-.19,1,1.59,1.59,0,0,1-.57.68,1.44,1.44,0,0,1-.82.24,1.52,1.52,0,0,1-.75-.21v2h-.85v-5.49h.84v.24A1.25,1.25,0,0,1,47.47,126Zm-.8,2.87a1.09,1.09,0,0,0,.59.21.76.76,0,0,0,.64-.33,1.34,1.34,0,0,0,.24-.83,1.51,1.51,0,0,0-.22-.88.68.68,0,0,0-.61-.31.87.87,0,0,0-.28.05,1.83,1.83,0,0,0-.36.24Z"/>
    </g>
    <g>
      <path d="M26,236.11H24.42V230H26Z"/>
      <path d="M31.05,236.11H29.66v-2.42a1.79,1.79,0,0,0-.11-.64.44.44,0,0,0-.47-.27.54.54,0,0,0-.29.07,1.08,1.08,0,0,0-.24.18l-.17.22c-.05.07-.09.15-.14.23v2.63H26.85v-4.48h1.39v.64a2.19,2.19,0,0,1,.66-.56,1.74,1.74,0,0,1,.73-.16c.95,0,1.42.65,1.42,1.93Z"/>
      <path d="M35.89,233.84a3.43,3.43,0,0,1-.11.86,2.76,2.76,0,0,1-.34.76,1.76,1.76,0,0,1-.59.53,1.81,1.81,0,0,1-.85.2,1.59,1.59,0,0,1-.6-.1,2.46,2.46,0,0,1-.45-.24v2.29H31.56v-6.51H33V232a2.15,2.15,0,0,1,.46-.35,1.48,1.48,0,0,1,.69-.14,1.55,1.55,0,0,1,.84.25,1.72,1.72,0,0,1,.68.75A2.74,2.74,0,0,1,35.89,233.84Zm-1.46,0a1.51,1.51,0,0,0-.12-.65.79.79,0,0,0-.29-.37.69.69,0,0,0-.36-.11.83.83,0,0,0-.41.09,1.6,1.6,0,0,0-.3.23v1.71l.16.1.17.09.17.07.21,0a.65.65,0,0,0,.55-.31A1.58,1.58,0,0,0,34.43,233.87Z"/>
      <path d="M40.44,236.11H39.05v-.64a2.06,2.06,0,0,1-.62.54,1.54,1.54,0,0,1-.77.18,1.13,1.13,0,0,1-1.16-.6,3.29,3.29,0,0,1-.26-1.33v-2.63h1.39v2.42a1.79,1.79,0,0,0,.11.64.44.44,0,0,0,.46.27.63.63,0,0,0,.49-.19,3.21,3.21,0,0,0,.36-.51v-2.63h1.39Z"/>
      <path d="M44.13,235.85a3.81,3.81,0,0,1-.6.23,2.81,2.81,0,0,1-.73.11c-1,0-1.5-.56-1.5-1.67v-1.79h-.64v-.28l1.87-2.16h.16v1.34H44v1.1H42.69v1.43a2.22,2.22,0,0,0,0,.41.41.41,0,0,0,.15.25.57.57,0,0,0,.38.11,2,2,0,0,0,.88-.32Z"/>
      <path d="M51.74,235.68l-.3.12-.24.09-.33.1a6.26,6.26,0,0,1-.73.14,4.81,4.81,0,0,1-.77.06,3.45,3.45,0,0,1-1.51-.34,2.67,2.67,0,0,1-1.11-1,3.41,3.41,0,0,1-.42-1.75,4.19,4.19,0,0,1,.22-1.31,2.26,2.26,0,0,1,.65-1,2.87,2.87,0,0,1,.74-.49,2.67,2.67,0,0,1,.73-.23,4.79,4.79,0,0,1,.79-.06,4.64,4.64,0,0,1,1.16.12c.31.08.65.19,1,.32v1.44a4.32,4.32,0,0,0-.77-.4,2.71,2.71,0,0,0-1-.16,1.88,1.88,0,0,0-1.12.3,1.59,1.59,0,0,0-.58.72,2.13,2.13,0,0,0-.17.8,2,2,0,0,0,.19.85,1.57,1.57,0,0,0,.57.63,1.74,1.74,0,0,0,.93.23,2.74,2.74,0,0,0,.66-.09V234H49.6v-1.22h2.14Z"/>
      <path d="M56.55,235.88a4.69,4.69,0,0,1-.57.22,1.89,1.89,0,0,1-.62.09.67.67,0,0,1-.48-.14.88.88,0,0,1-.19-.34,2.1,2.1,0,0,1-.5.34,1.62,1.62,0,0,1-.72.14,1.26,1.26,0,0,1-.69-.17,1,1,0,0,1-.38-.43,1.39,1.39,0,0,1-.1-.53,1.19,1.19,0,0,1,.18-.68,1.39,1.39,0,0,1,.49-.44,5.07,5.07,0,0,1,.82-.36l.44-.16.23-.09a.74.74,0,0,0,.15-.08,1,1,0,0,0-.12-.51c-.07-.12-.24-.18-.5-.18a1.72,1.72,0,0,0-.85.23,3,3,0,0,0-.71.59v-1.22a2.46,2.46,0,0,1,.56-.34,2.72,2.72,0,0,1,.63-.2,3.71,3.71,0,0,1,.67-.07,1.9,1.9,0,0,1,1.28.38,1.28,1.28,0,0,1,.43,1v1.73a1.52,1.52,0,0,0,0,.37.16.16,0,0,0,.15.12.75.75,0,0,0,.36-.13ZM54.61,235V234a3.56,3.56,0,0,0-.72.41.59.59,0,0,0-.23.49.48.48,0,0,0,.11.34.37.37,0,0,0,.27.12.51.51,0,0,0,.28-.09A2.64,2.64,0,0,0,54.61,235Z"/>
      <path d="M58.13,236.11H56.74v-4.48h1.39ZM58,230.6a.71.71,0,0,1-.17.47.55.55,0,0,1-.42.19.6.6,0,0,1-.29-.08.61.61,0,0,1-.21-.24.81.81,0,0,1-.08-.34.71.71,0,0,1,.17-.47.53.53,0,0,1,.41-.2.56.56,0,0,1,.42.2A.71.71,0,0,1,58,230.6Z"/>
      <path d="M63,236.11H61.59v-2.42a1.79,1.79,0,0,0-.11-.64.44.44,0,0,0-.47-.27.54.54,0,0,0-.29.07,1.08,1.08,0,0,0-.24.18l-.17.22c-.05.07-.09.15-.14.23v2.63H58.78v-4.48h1.39v.64a2.19,2.19,0,0,1,.66-.56,1.74,1.74,0,0,1,.73-.16c.95,0,1.42.65,1.42,1.93Z"/>
    </g>
    <g>
      <path d="M30.79,85.36a1.52,1.52,0,0,1,1.08.39,1.26,1.26,0,0,1,.41,1,1.2,1.2,0,0,1-.17.66,1.16,1.16,0,0,1-.5.45v0a1.32,1.32,0,0,1,.78.51,1.43,1.43,0,0,1,.28.89,1.68,1.68,0,0,1-.2.81,1.35,1.35,0,0,1-.57.54,1.91,1.91,0,0,1-.86.18H29V85.36Zm-.24,2.26a.8.8,0,0,0,.58-.2.71.71,0,0,0,.21-.55.65.65,0,0,0-.2-.5.69.69,0,0,0-.51-.19H30v1.44ZM30.76,90a1.09,1.09,0,0,0,.71-.2.72.72,0,0,0,.24-.59.7.7,0,0,0-.23-.55,1,1,0,0,0-.65-.2H30V90Z" style="fill: #231f20"/>
      <path d="M33.88,87.17v2.25A.82.82,0,0,0,34,90a.51.51,0,0,0,.41.18.67.67,0,0,0,.41-.15,1.07,1.07,0,0,0,.32-.42V87.17H36v3.65h-.84v-.5a1.3,1.3,0,0,1-1,.57,1,1,0,0,1-.84-.39,1.51,1.51,0,0,1-.31-1V87.17Z" style="fill: #231f20"/>
      <path d="M37.63,87.1a2.07,2.07,0,0,1,.5.06,2.57,2.57,0,0,1,.49.22v.77a2.12,2.12,0,0,0-.51-.28,1.46,1.46,0,0,0-.5-.11.47.47,0,0,0-.28.08.27.27,0,0,0-.11.22.24.24,0,0,0,.09.17,5.3,5.3,0,0,0,.47.3,2.66,2.66,0,0,1,.77.58,1,1,0,0,1,.23.64,1.07,1.07,0,0,1-.33.83,1.21,1.21,0,0,1-.87.31,2.2,2.2,0,0,1-.64-.09,2.35,2.35,0,0,1-.5-.21v-.8a2.1,2.1,0,0,0,1.05.39.63.63,0,0,0,.35-.09.26.26,0,0,0,.08-.38.64.64,0,0,0-.14-.15c-.07,0-.27-.17-.6-.35a1.9,1.9,0,0,1-.58-.46,1,1,0,0,1-.18-.59,1,1,0,0,1,.33-.77A1.25,1.25,0,0,1,37.63,87.1Z" style="fill: #231f20"/>
      <path d="M39.65,87.17l.76,2,.77-2h.9l-2.21,5.49H39l1-2.52-1.25-3Z" style="fill: #231f20"/>
    </g>
    <g>
      <path d="M8.81,60.18a1.42,1.42,0,0,1,1.09.45,1.76,1.76,0,0,1,0,2.28,1.48,1.48,0,0,1-1.13.44H7.88v2.29H7V60.18Zm-.23,2.35a.82.82,0,0,0,.58-.2.73.73,0,0,0,.21-.57c0-.5-.29-.75-.86-.75H7.88v1.52Z"/>
      <path d="M11.55,60.18v5.46H10.7V60.18Z"/>
      <path d="M13.3,61.92a1.34,1.34,0,0,1,.94.3,1.07,1.07,0,0,1,.33.83v1.79q0,.21.15.21a.43.43,0,0,0,.17-.06.94.94,0,0,0,.19-.14v.55a1.45,1.45,0,0,1-.82.31.63.63,0,0,1-.34-.08.45.45,0,0,1-.17-.31,1.57,1.57,0,0,1-1,.39.79.79,0,0,1-.59-.26.89.89,0,0,1-.25-.64,1,1,0,0,1,.25-.75,1.94,1.94,0,0,1,.86-.47l.68-.23v-.17c0-.36-.18-.53-.57-.53a1.28,1.28,0,0,0-.58.15,1.67,1.67,0,0,0-.52.45v-.87A1.81,1.81,0,0,1,13.3,61.92Zm-.52,2.74a.46.46,0,0,0,.11.32.35.35,0,0,0,.28.13.79.79,0,0,0,.55-.29v-1a3.72,3.72,0,0,0-.55.25,1.32,1.32,0,0,0-.3.25A.49.49,0,0,0,12.78,64.66Z"/>
      <path d="M15.76,62l.76,2,.77-2h.9L16,67.48h-.91l1-2.51-1.25-3Z"/>
      <path d="M19.19,60.18v2a1.27,1.27,0,0,1,.85-.31,1.29,1.29,0,0,1,.76.24,1.53,1.53,0,0,1,.54.66,2.32,2.32,0,0,1,.19,1,2,2,0,0,1-.47,1.41,1.63,1.63,0,0,1-1.29.52,3.41,3.41,0,0,1-1.43-.31V60.18Zm0,4.7a1.74,1.74,0,0,0,.63.1.71.71,0,0,0,.62-.32,1.52,1.52,0,0,0,.23-.89,1.35,1.35,0,0,0-.23-.82.74.74,0,0,0-.94-.23,1.12,1.12,0,0,0-.31.23Z"/>
      <path d="M23.08,61.92a1.33,1.33,0,0,1,.94.3,1.07,1.07,0,0,1,.33.83v1.79q0,.21.15.21a.38.38,0,0,0,.17-.06.72.72,0,0,0,.19-.14v.55a1.45,1.45,0,0,1-.81.31.67.67,0,0,1-.35-.08.49.49,0,0,1-.17-.31,1.55,1.55,0,0,1-1,.39.83.83,0,0,1-.6-.26.89.89,0,0,1-.25-.64,1,1,0,0,1,.25-.75,1.94,1.94,0,0,1,.86-.47l.69-.23v-.17c0-.36-.19-.53-.57-.53a1.22,1.22,0,0,0-.58.15,1.7,1.7,0,0,0-.53.45v-.87A1.83,1.83,0,0,1,23.08,61.92Zm-.52,2.74a.42.42,0,0,0,.12.32.32.32,0,0,0,.27.13.81.81,0,0,0,.56-.29v-1a3.92,3.92,0,0,0-.56.25,1.07,1.07,0,0,0-.29.25A.49.49,0,0,0,22.56,64.66Z"/>
      <path d="M26.58,61.92a2.06,2.06,0,0,1,1,.25V63a1.63,1.63,0,0,0-.86-.29.91.91,0,0,0-.7.3,1.19,1.19,0,0,0-.28.83,1.18,1.18,0,0,0,.28.83.92.92,0,0,0,.74.31,2.09,2.09,0,0,0,.88-.26v.78a2.53,2.53,0,0,1-1,.23,1.67,1.67,0,0,1-1.27-.51,1.85,1.85,0,0,1-.49-1.34,2,2,0,0,1,.48-1.41A1.6,1.6,0,0,1,26.58,61.92Z"/>
      <path d="M28.85,60.18v5.46H28V60.18ZM31.18,62l-1.3,1.8,1.46,1.85H30.27l-1.4-1.85L30.19,62Z"/>
    </g>
    <g>
      <path d="M10.77,31.31a1.49,1.49,0,0,1,1.1.42,1.54,1.54,0,0,1,.43,1.11,1.45,1.45,0,0,1-.22.81,1.52,1.52,0,0,1-.62.55,1.46,1.46,0,0,1,.41.38,5,5,0,0,1,.44.82c.29.66.51,1.11.65,1.36h-1c-.07-.12-.17-.31-.29-.57-.27-.58-.46-1-.58-1.17a1.52,1.52,0,0,0-.36-.43.64.64,0,0,0-.4-.13H10v2.3H9V31.31Zm-.21,2.33a.72.72,0,0,0,.78-.78.7.7,0,0,0-.21-.56.87.87,0,0,0-.59-.18H10v1.52Z"/>
      <path d="M14.62,33.05a1.36,1.36,0,0,1,1.12.51A2.19,2.19,0,0,1,16.15,35v.14H13.88a1.19,1.19,0,0,0,.32.75,1,1,0,0,0,.74.27,1.52,1.52,0,0,0,.59-.12,2.7,2.7,0,0,0,.58-.36v.71a2.15,2.15,0,0,1-1.37.45,1.59,1.59,0,0,1-1.24-.52A1.94,1.94,0,0,1,13,34.93a2,2,0,0,1,.45-1.36A1.44,1.44,0,0,1,14.62,33.05Zm.74,1.5a1.09,1.09,0,0,0-.21-.62.61.61,0,0,0-.5-.23.64.64,0,0,0-.51.22,1.14,1.14,0,0,0-.25.63Z"/>
      <path d="M18.08,33.05a2.12,2.12,0,0,1,1,.24v.82a1.54,1.54,0,0,0-.85-.3.89.89,0,0,0-.71.31,1.36,1.36,0,0,0,0,1.65.94.94,0,0,0,.74.31,2.16,2.16,0,0,0,.88-.25v.77a2.34,2.34,0,0,1-1,.23,1.72,1.72,0,0,1-1.27-.5A1.89,1.89,0,0,1,16.37,35a2,2,0,0,1,.47-1.4A1.57,1.57,0,0,1,18.08,33.05Z"/>
      <path d="M21.09,33.05a1.74,1.74,0,0,1,.91.23,1.63,1.63,0,0,1,.63.67,2.07,2.07,0,0,1,.23,1,2.14,2.14,0,0,1-.22,1,1.62,1.62,0,0,1-.63.67,1.88,1.88,0,0,1-1.84,0,1.66,1.66,0,0,1-.62-.67,2.14,2.14,0,0,1-.22-1,2,2,0,0,1,.23-1,1.63,1.63,0,0,1,.63-.67A1.72,1.72,0,0,1,21.09,33.05Zm-.87,1.87a1.53,1.53,0,0,0,.23.88.76.76,0,0,0,.63.32.75.75,0,0,0,.65-.31,1.45,1.45,0,0,0,.24-.89,1.35,1.35,0,0,0-.24-.86.78.78,0,0,0-.65-.3.73.73,0,0,0-.62.32A1.35,1.35,0,0,0,20.22,34.92Z"/>
      <path d="M25.09,33.05a.67.67,0,0,1,.33.08,1.66,1.66,0,0,1,.38.29l-.3.84a1.07,1.07,0,0,0-.59-.31.6.6,0,0,0-.39.16,1.2,1.2,0,0,0-.31.44,1.58,1.58,0,0,0-.11.55v1.66h-.85V33.12h.85v.93h0a2.57,2.57,0,0,1,.47-.77A.67.67,0,0,1,25.09,33.05Z"/>
      <path d="M28.08,33.2V31.31h.84v5.45H27.44a1.58,1.58,0,0,1-1.23-.5,2,2,0,0,1-.47-1.37A2.07,2.07,0,0,1,26,34a1.64,1.64,0,0,1,.59-.66,1.47,1.47,0,0,1,.81-.24A1.94,1.94,0,0,1,28.08,33.2ZM27.64,36h.44V33.92a1,1,0,0,0-.54-.16.85.85,0,0,0-.68.3,1.26,1.26,0,0,0-.25.79C26.61,35.64,27,36,27.64,36Z"/>
    </g>
    <polyline points="22.71 96.19 34.95 96.19 34.95 92.38" style="fill: none;stroke: #000;stroke-miterlimit: 10"/>
    <g>
      <path d="M39.54,172.59a1.3,1.3,0,0,1,1.16.75,4.19,4.19,0,0,1,.42,2,4.25,4.25,0,0,1-.42,2.06,1.29,1.29,0,0,1-1.15.75,1.32,1.32,0,0,1-1.18-.75,4.17,4.17,0,0,1-.43-2.05,4.07,4.07,0,0,1,.43-2A1.31,1.31,0,0,1,39.54,172.59Zm-.7,2.84c0,1.24.23,1.87.7,1.87s.69-.66.69-2-.23-1.84-.7-1.84S38.84,174.13,38.84,175.43Z"/>
      <path d="M43.7,174.55v-1.89h.84v5.46H43.06a1.62,1.62,0,0,1-1.24-.5,2.23,2.23,0,0,1-.24-2.32,1.64,1.64,0,0,1,.59-.66,1.47,1.47,0,0,1,.81-.24A1.94,1.94,0,0,1,43.7,174.55Zm-.44,2.84h.44v-2.12a1.08,1.08,0,0,0-.54-.15.84.84,0,0,0-.68.3,1.19,1.19,0,0,0-.25.79C42.23,177,42.57,177.39,43.26,177.39Z"/>
      <path d="M47,172.66a1.52,1.52,0,0,1,1.08.39,1.33,1.33,0,0,1,.41,1,1.2,1.2,0,0,1-.17.66,1.22,1.22,0,0,1-.5.45v.05a1.41,1.41,0,0,1,.78.51,1.45,1.45,0,0,1,.28.89,1.53,1.53,0,0,1-.21.81,1.27,1.27,0,0,1-.56.54,1.94,1.94,0,0,1-.86.18h-2v-5.46Zm-.25,2.27a.82.82,0,0,0,.58-.2.77.77,0,0,0,0-1.06.72.72,0,0,0-.51-.18h-.67v1.44Zm.22,2.37a1.11,1.11,0,0,0,.71-.2.75.75,0,0,0,.24-.6.66.66,0,0,0-.24-.54.93.93,0,0,0-.64-.21h-.87v1.55Z"/>
    </g>
    <line x1="43.39" y1="185.07" x2="43.39" y2="179.25" style="fill: none;stroke: #231f20;stroke-miterlimit: 10;stroke-width: 2px"/>
    <g>
      <path d="M21.36,222.51v1h-2v-1Z"/>
      <path d="M24.23,223.06c-.4.46-.82,1-1.46,1a1.2,1.2,0,0,1-1.14-1.34,1.26,1.26,0,0,1,1.2-1.33c.59,0,1,.53,1.4,1,.41-.45.83-1,1.47-1a1.2,1.2,0,0,1,1.14,1.33A1.28,1.28,0,0,1,25.63,224C25.05,224,24.61,223.49,24.23,223.06Zm-.31-.37c-.31-.32-.64-.79-1.1-.79a.75.75,0,0,0-.69.79.72.72,0,0,0,.67.8C23.25,223.49,23.62,223,23.92,222.69Zm2.42,0a.72.72,0,0,0-.67-.79c-.46,0-.82.44-1.12.79.31.33.63.8,1.09.8A.75.75,0,0,0,26.34,222.69Z"/>
    </g>
    <g>
      <path d="M61.89,220.89v1.33h1.18V223H61.89v1.33h-.66V223H60.06v-.76h1.17v-1.33Z"/>
      <path d="M64.53,220.23a1.21,1.21,0,0,1,1,.39,1.46,1.46,0,0,1,.36,1,2.52,2.52,0,0,1-.27,1.06,10.15,10.15,0,0,1-.92,1.52h1.44v.83H63.37V225q.47-.66.81-1.2c.23-.35.41-.65.53-.88a3.51,3.51,0,0,0,.26-.6,1.42,1.42,0,0,0,.08-.5.87.87,0,0,0-.18-.56.56.56,0,0,0-.45-.22,1.37,1.37,0,0,0-1,.61v-.93A1.73,1.73,0,0,1,64.53,220.23Z"/>
      <path d="M67.75,220.23a1.12,1.12,0,0,1,1,.66,3.57,3.57,0,0,1,.38,1.78,3.77,3.77,0,0,1-.37,1.8,1.13,1.13,0,0,1-1,.66,1.15,1.15,0,0,1-1-.65,4.43,4.43,0,0,1,0-3.59A1.14,1.14,0,0,1,67.75,220.23Zm-.61,2.48c0,1.09.2,1.64.61,1.64s.6-.58.6-1.72-.2-1.61-.6-1.61S67.14,221.58,67.14,222.71Z"/>
      <path d="M71.39,222V220.3h.74v4.77h-1.3a1.41,1.41,0,0,1-1.08-.44,1.71,1.71,0,0,1-.4-1.2,1.83,1.83,0,0,1,.18-.82,1.47,1.47,0,0,1,.52-.58,1.31,1.31,0,0,1,.71-.21A1.65,1.65,0,0,1,71.39,222ZM71,224.43h.39v-1.85a.9.9,0,0,0-.47-.13.7.7,0,0,0-.59.26,1,1,0,0,0-.23.69C70.1,224.08,70.4,224.43,71,224.43Z"/>
      <path d="M74.26,220.3a1.33,1.33,0,0,1,.94.34,1.13,1.13,0,0,1,.36.85,1.11,1.11,0,0,1-.15.58,1.07,1.07,0,0,1-.44.4v0a1.15,1.15,0,0,1,.68.44,1.25,1.25,0,0,1,.25.78,1.39,1.39,0,0,1-.18.71,1.13,1.13,0,0,1-.5.47,1.6,1.6,0,0,1-.75.16H72.72V220.3Zm-.22,2a.72.72,0,0,0,.51-.18.62.62,0,0,0,.18-.48.55.55,0,0,0-.17-.44.61.61,0,0,0-.45-.16h-.58v1.26Zm.19,2.07a.94.94,0,0,0,.62-.18.62.62,0,0,0,.21-.51.61.61,0,0,0-.21-.49.87.87,0,0,0-.56-.17h-.76v1.35Z"/>
    </g>
    <rect x="15.62" y="76.26" width="7.09" height="36.85" transform="translate(38.33 189.37) rotate(180)"/>
    <path d="M17.83,13.15a4.54,4.54,0,1,1,0-9.07h8.43a4.54,4.54,0,1,1,0,9.07Z"/>
    <path d="M17.83,360.41a4.54,4.54,0,1,1,0-9.07h8.43a4.54,4.54,0,1,1,0,9.07Z"/>
    <g>
      <rect x="17.15" y="78.1" width="3.99" height="33.17" rx="0.57" style="fill: #5a5a5b"/>
      <path d="M21.18,110.7a.54.54,0,0,1-.5.57.55.55,0,0,1-.5-.57v-32a.55.55,0,0,1,.5-.57.54.54,0,0,1,.5.57Z" style="fill: #9c9c9e"/>
      <rect x="20.18" y="78.1" width="0.5" height="33.17" style="fill: #9c9c9e"/>
    </g>
  </g>
  <g id="components">
    <circle id="Right_Out" data-name="Right Out" cx="63.17" cy="307.97" r="11.34" style="fill: blue"/>
    <circle id="Left_Out" data-name="Left Out" cx="23.13" cy="307.97" r="11.34" style="fill: blue"/>
    <circle id="Right_In" data-name="Right In" cx="63.05" cy="264.93" r="11.34" style="fill: lime"/>
    <circle id="Left_In" data-name="Left In" cx="23.09" cy="264.93" r="11.34" style="fill: lime"/>
    <circle id="Input_Gain" data-name="Input Gain" cx="43.41" cy="205.12" r="17.01" style="fill: #ff0040"/>
    <circle id="LED_R1" data-name="LED R1" cx="76.38" cy="172.32" r="4.25" style="fill: #f0f"/>
    <circle id="LED_R2" data-name="LED R2" cx="76.38" cy="157.21" r="4.25" style="fill: #f0f"/>
    <circle id="LED_R3" data-name="LED R3" cx="76.38" cy="142.1" r="4.25" style="fill: #f0f"/>
    <circle id="LED_R4" data-name="LED R4" cx="76.38" cy="126.99" r="4.25" style="fill: #f0f"/>
    <circle id="LED_L1" data-name="LED L1" cx="10.63" cy="172.32" r="4.25" style="fill: #f0f"/>
    <circle id="LED_L2" data-name="LED L2" cx="10.63" cy="157.21" r="4.25" style="fill: #f0f"/>
    <circle id="LED_L3" data-name="LED L3" cx="10.63" cy="142.1" r="4.25" style="fill: #f0f"/>
    <circle id="LED_L4" data-name="LED L4" cx="10.63" cy="126.99" r="4.25" style="fill: #f0f"/>
    <circle id="Record_Jack" data-name="Record Jack" cx="65.73" cy="85.76" r="11.34" style="fill: #80ff80"/>
    <circle id="Busy_LED" data-name="Busy LED" cx="35.07" cy="78.5" r="4.25" style="fill: #f0f"/>
    <circle id="Record" cx="65.83" cy="49.2" r="8.5" style="fill: #ff8000"/>
    <rect id="Rrecord_Playback" data-name="Rrecord Playback" x="13.15" y="40.51" width="11.34" height="17.01" style="fill: #ff8080"/>
    <text id="slug" transform="translate(26.73 373.71)" style="font-size: 6px;font-family: MyriadPro-Regular, Myriad Pro"><tspan style="letter-spacing: 0.004069010416666667em">R</tspan><tspan x="3.25" y="0">ec</tspan></text>
    <text id="modulename" transform="translate(51.25 373.71)" style="font-size: 6px;font-family: MyriadPro-Regular, Myriad Pro"><tspan style="letter-spacing: -0.056966145833333336em">W</tspan><tspan x="4.73" y="0" style="letter-spacing: -0.053059895833333336em">A</tspan><tspan x="8.09" y="0" style="letter-spacing: 0.00016276041666666666em">V </tspan><tspan x="12.71" y="0" style="letter-spacing: 0.004069010416666667em">R</tspan><tspan x="15.96" y="0">e</tspan><tspan x="18.97" y="0" style="letter-spacing: -0.005859375em">c</tspan><tspan x="21.62" y="0">o</tspan><tspan x="24.91" y="0" style="letter-spacing: -0.010091145833333334em">r</tspan><tspan x="26.81" y="0" style="letter-spacing: 0.00016276041666666666em">der</tspan></text>
  </g>
</svg>
