<?xml version="1.0" encoding="utf-8"?>
<!-- Generator: Adobe Illustrator 28.1.0, SVG Export Plug-In . SVG Version: 6.00 Build 0)  -->
<svg version="1.1"
	 id="Layer_1" xmlns:sodipodi="http://sodipodi.sourceforge.net/DTD/sodipodi-0.dtd" xmlns:inkscape="http://www.inkscape.org/namespaces/inkscape" xmlns:svg="http://www.w3.org/2000/svg"
	 xmlns="http://www.w3.org/2000/svg" xmlns:xlink="http://www.w3.org/1999/xlink" x="0px" y="0px" viewBox="0 0 33.7 33.7"
	 style="enable-background:new 0 0 33.7 33.7;" xml:space="preserve">
<style type="text/css">
	.st0{fill-rule:evenodd;clip-rule:evenodd;stroke:#595959;stroke-width:0.652;stroke-miterlimit:9.9987;}
	.st1{fill-rule:evenodd;clip-rule:evenodd;fill:#FFFFFF;}
</style>
<sodipodi:namedview  bordercolor="#000000" borderopacity="0.25" id="namedview5" inkscape:current-layer="Layer_1" inkscape:cx="7.6492558" inkscape:cy="18.172921" inkscape:deskcolor="#d1d1d1" inkscape:document-units="mm" inkscape:pagecheckerboard="0" inkscape:pageopacity="0.0" inkscape:showpageshadow="2" inkscape:window-height="1205" inkscape:window-maximized="0" inkscape:window-width="1390" inkscape:window-x="732" inkscape:window-y="149" inkscape:zoom="21.047799" pagecolor="#ffffff" showgrid="false">
	</sodipodi:namedview>
<g>
	<path id="path6449" class="st0" d="M32.7,15.2C32,14,30.8,13,30.2,11.3c-0.4-1.5-0.7-3-0.9-4.5c-0.7-0.9-1.5-1.7-2.4-2.4
		c-1.5-0.1-3-0.4-4.5-0.9c-1.6-0.6-2.7-1.9-3.8-2.6c-0.6-0.1-1.1-0.1-1.7-0.1c-0.6,0-1.1,0-1.7,0.1C14,1.6,13,2.8,11.4,3.5
		C9.9,4,8.4,4.3,6.9,4.4C6,5.2,5.2,6,4.4,6.9c-0.1,1.5-0.4,3-0.9,4.5C2.9,13,1.6,14,0.9,15.2c-0.1,0.6-0.1,1.1-0.1,1.7
		c0,0.6,0,1.1,0.1,1.7c0.7,1.2,1.9,2.2,2.6,3.8c0.7,1.6,0.6,3.2,0.9,4.5c0.7,0.9,1.5,1.7,2.5,2.4c1.5,0.1,3,0.4,4.5,0.9
		c1.6,0.6,2.7,1.9,3.8,2.6c0.6,0.1,1.1,0.1,1.7,0.1c0.6,0,1.1,0,1.7-0.1c1.2-0.7,2.2-1.9,3.8-2.6c1.6-0.7,3.2-0.6,4.5-0.9
		c0.9-0.7,1.7-1.5,2.4-2.4c0.1-1.5,0.4-3,0.9-4.5c0.6-1.6,1.9-2.7,2.6-3.8c0.1-0.6,0.1-1.1,0.1-1.7C32.8,16.2,32.7,15.7,32.7,15.2"
		/>
	<path id="path6453" class="st1" d="M17.3,1.1c-0.3-0.1-0.6-0.1-0.9,0v13.4h0.9V1.1z"/>
</g>
</svg>
