<?xml version="1.0" encoding="UTF-8" standalone="no"?>
<!-- Generator: Adobe Illustrator 25.4.1, SVG Export Plug-In . SVG Version: 6.00 Build 0)  -->

<svg
   version="1.0"
   id="svg56722"
   inkscape:version="1.2.2 (b0a84865, 2022-12-01)"
   x="0px"
   y="0px"
   width="10px"
   height="20.64111px"
   viewBox="0 0 10 20.64111"
   enable-background="new 0 0 10 20.64111"
   xml:space="preserve"
   sodipodi:docname="SwitchNarrow_bg.svg"
   xmlns:inkscape="http://www.inkscape.org/namespaces/inkscape"
   xmlns:sodipodi="http://sodipodi.sourceforge.net/DTD/sodipodi-0.dtd"
   xmlns="http://www.w3.org/2000/svg"
   xmlns:svg="http://www.w3.org/2000/svg"><defs
   id="defs37" />
<sodipodi:namedview
   bordercolor="#666666"
   borderopacity="1.0"
   fit-margin-bottom="0"
   fit-margin-left="0"
   fit-margin-right="0"
   fit-margin-top="0"
   id="base"
   inkscape:current-layer="svg56722"
   inkscape:cx="6.0609152"
   inkscape:cy="9.3596946"
   inkscape:document-rotation="0"
   inkscape:document-units="mm"
   inkscape:pageopacity="0.0"
   inkscape:pageshadow="2"
   inkscape:window-height="1051"
   inkscape:window-maximized="0"
   inkscape:window-width="1676"
   inkscape:window-x="52"
   inkscape:window-y="38"
   inkscape:zoom="31.678384"
   pagecolor="#ffffff"
   showgrid="false"
   units="px"
   inkscape:showpageshadow="2"
   inkscape:pagecheckerboard="0"
   inkscape:deskcolor="#d1d1d1">
	</sodipodi:namedview>
<path
   id="path5785_1_"
   inkscape:connector-curvature="0"
   d="M0,1.5416c0-0.81043,0.66471-1.47508,1.47514-1.47508h7.04972  C9.33523,0.06652,10,0.7313,10,1.5416v17.69189c0,0.81043-0.66471,1.47406-1.47514,1.47406H1.47514  C0.66477,20.70754,0,20.04391,0,19.23348V1.5416z" />
<g
   id="g5795_1_"
   opacity="0.54">
	<g
   id="g5797_1_">
		
			<linearGradient
   id="path5805_00000026147093842360495760000000346361381535047831_"
   gradientUnits="userSpaceOnUse"
   x1="4.99917"
   y1="1.39937"
   x2="4.99917"
   y2="19.52606">
			<stop
   offset="0"
   style="stop-color:#3B3B3B"
   id="stop11" />
			<stop
   offset="1"
   style="stop-color:#242424"
   id="stop13" />
		</linearGradient>
		
			<path
   id="path5805_1_"
   inkscape:connector-curvature="0"
   fill="url(#path5805_00000026147093842360495760000000346361381535047831_)"
   d="    M2.19312,1.39937c-0.48687,0-0.88421,0.39734-0.88421,0.88421l0,0v16.35726c0,0.48687,0.3974,0.88522,0.88421,0.88522l0,0h5.61312    c0.48477,0,0.88319-0.39848,0.88319-0.88522l0,0V2.28358c0-0.48687-0.39842-0.88421-0.88319-0.88421l0,0H2.19312z" />
	</g>
</g>
<rect
   x="1.30993"
   y="18.65077"
   fill="none"
   width="0.6829"
   height="0.89523"
   id="rect19" />
<rect
   x="0.99908"
   y="0.88113"
   opacity="0.3"
   width="8.00019"
   height="1.71664"
   id="rect21" />

</svg>
