<?xml version="1.0" encoding="UTF-8" standalone="no"?>
<svg
   version="1.0"
   id="svg56722"
   inkscape:version="1.2.2 (b0a84865, 2022-12-01)"
   x="0px"
   y="0px"
   width="20.641029"
   height="10"
   viewBox="0 0 20.641029 10"
   enable-background="new 0 0 10 20.64111"
   xml:space="preserve"
   sodipodi:docname="SwitchNarrowHoriz_bg.svg"
   xmlns:inkscape="http://www.inkscape.org/namespaces/inkscape"
   xmlns:sodipodi="http://sodipodi.sourceforge.net/DTD/sodipodi-0.dtd"
   xmlns="http://www.w3.org/2000/svg"
   xmlns:svg="http://www.w3.org/2000/svg"
   xmlns:rdf="http://www.w3.org/1999/02/22-rdf-syntax-ns#"
   xmlns:cc="http://creativecommons.org/ns#"
   xmlns:dc="http://purl.org/dc/elements/1.1/"><metadata
   id="metadata32"><rdf:RDF><cc:Work
       rdf:about=""><dc:format>image/svg+xml</dc:format><dc:type
         rdf:resource="http://purl.org/dc/dcmitype/StillImage" /><dc:title /></cc:Work></rdf:RDF></metadata><defs
   id="defs30" />
<sodipodi:namedview
   bordercolor="#666666"
   borderopacity="1.0"
   fit-margin-bottom="0"
   fit-margin-left="0"
   fit-margin-right="0"
   fit-margin-top="0"
   id="base"
   inkscape:current-layer="g1501"
   inkscape:cx="-1.7677669"
   inkscape:cy="3.9932593"
   inkscape:document-rotation="0"
   inkscape:document-units="mm"
   inkscape:pageopacity="0.0"
   inkscape:pageshadow="2"
   inkscape:window-height="1051"
   inkscape:window-maximized="0"
   inkscape:window-width="1676"
   inkscape:window-x="52"
   inkscape:window-y="38"
   inkscape:zoom="31.678384"
   pagecolor="#ffffff"
   showgrid="false"
   units="px"
   inkscape:showpageshadow="2"
   inkscape:pagecheckerboard="0"
   inkscape:deskcolor="#d1d1d1">
	</sodipodi:namedview>




<g
   id="g1501"
   transform="rotate(90,10.353775,10.353775)"><path
     id="path5785_1_"
     inkscape:connector-curvature="0"
     d="M 0,1.5416 C 0,0.73117 0.66471,0.06652 1.47514,0.06652 H 8.52486 C 9.33523,0.06652 10,0.7313 10,1.5416 v 17.69189 c 0,0.81043 -0.66471,1.47406 -1.47514,1.47406 H 1.47514 C 0.66477,20.70754 0,20.04391 0,19.23348 Z" /><g
     id="g5795_1_"
     opacity="0.54">
	<g
   id="g5797_1_">
		
			<linearGradient
   id="path5805_00000026147093842360495760000000346361381535047831_"
   gradientUnits="userSpaceOnUse"
   x1="4.9991698"
   y1="1.39937"
   x2="4.9991698"
   y2="19.52606">
			<stop
   offset="0"
   style="stop-color:#3B3B3B"
   id="stop4" />
			<stop
   offset="1"
   style="stop-color:#242424"
   id="stop6" />
		</linearGradient>
		
			<path
   id="path5805_1_"
   inkscape:connector-curvature="0"
   fill="url(#path5805_00000026147093842360495760000000346361381535047831_)"
   d="m 2.19312,1.39937 c -0.48687,0 -0.88421,0.39734 -0.88421,0.88421 v 0 16.35726 c 0,0.48687 0.3974,0.88522 0.88421,0.88522 v 0 h 5.61312 c 0.48477,0 0.88319,-0.39848 0.88319,-0.88522 v 0 -16.35726 c 0,-0.48687 -0.39842,-0.88421 -0.88319,-0.88421 v 0 z"
   style="fill:url(#path5805_00000026147093842360495760000000346361381535047831_)" />
	</g>
</g><rect
     x="1.30993"
     y="18.65077"
     fill="none"
     width="0.68290001"
     height="0.89523"
     id="rect12" /><rect
     x="0.99908"
     y="0.88112998"
     opacity="0.3"
     width="8.0001898"
     height="1.71664"
     id="rect14" /></g>
</svg>
