<?xml version="1.0" encoding="UTF-8" standalone="no"?>
<svg
   id="Layer_1"
   data-name="Layer 1"
   width="7.0990567mm"
   height="6.1489811mm"
   viewBox="0 0 20.117327 17.422113"
   version="1.1"
   sodipodi:docname="jack_x.svg"
   inkscape:version="1.2.2 (b0a84865, 2022-12-01)"
   inkscape:export-filename="jack_x.png"
   inkscape:export-xdpi="96"
   inkscape:export-ydpi="96"
   xmlns:inkscape="http://www.inkscape.org/namespaces/inkscape"
   xmlns:sodipodi="http://sodipodi.sourceforge.net/DTD/sodipodi-0.dtd"
   xmlns="http://www.w3.org/2000/svg"
   xmlns:svg="http://www.w3.org/2000/svg">
  <defs
     id="defs11" />
  <sodipodi:namedview
     id="namedview9"
     pagecolor="#ffffff"
     bordercolor="#000000"
     borderopacity="0.25"
     inkscape:showpageshadow="2"
     inkscape:pageopacity="0.0"
     inkscape:pagecheckerboard="0"
     inkscape:deskcolor="#d1d1d1"
     inkscape:document-units="mm"
     showgrid="false"
     inkscape:zoom="5.4379435"
     inkscape:cx="1.8389305"
     inkscape:cy="21.239647"
     inkscape:window-width="1928"
     inkscape:window-height="1205"
     inkscape:window-x="222"
     inkscape:window-y="122"
     inkscape:window-maximized="0"
     inkscape:current-layer="Layer_1" />
  <polygon
     points="10.35,34.35 29.89,34.35 39.66,17.43 29.89,0.5 10.35,0.5 0.58,17.42 "
     style="fill:#acafb0;stroke:#8c8d8e"
     id="polygon2"
     transform="matrix(0.5,0,0,0.5,-0.00133707,-0.00288723)" />
  <path
     d="m 12.663663,14.337113 c 3.135,-1.395 4.545,-5.0650002 3.145,-8.2000002 -1.395,-3.135 -5.065,-4.54 -8.2000001,-3.145 -3.135,1.395 -4.54,5.065 -3.15,8.2000002 1.395,3.135 5.065,4.54 8.2000001,3.145 z"
     style="fill:#ffffff;stroke:#cdcfd0;stroke-width:0.75px"
     id="path4" />
  <path
     d="m 8.1936629,13.192113 c 2.5000001,1.075 5.4000001,-0.08 6.4750001,-2.58 1.075,-2.5000002 -0.08,-5.4000002 -2.58,-6.4750002 -2.5000001,-1.075 -5.4000001,0.08 -6.4750001,2.58 -1.075,2.5 0.08,5.4000002 2.58,6.4750002 z"
     style="fill:#161616;stroke-width:0.5"
     id="path6" />
</svg>
