<?xml version="1.0" encoding="UTF-8"?>
<svg id="Layer_1" data-name="Layer 1" xmlns="http://www.w3.org/2000/svg" width="14.2mm" height="12.3mm" viewBox="0 0 40.24 34.85">
  <polygon points="29.89 .5 10.35 .5 .58 17.42 10.35 34.35 29.89 34.35 39.66 17.43 29.89 .5" style="fill: #acafb0; stroke: #8c8d8e;"/>
  <path d="m25.33,28.68c6.27-2.79,9.09-10.13,6.29-16.4-2.79-6.27-10.13-9.08-16.4-6.29-6.27,2.79-9.08,10.13-6.3,16.4,2.79,6.27,10.13,9.08,16.4,6.29Z" style="fill: #fff; stroke: #cdcfd0; stroke-width: 1.5px;"/>
  <path d="m16.39,26.39c5,2.15,10.8-.16,12.95-5.16,2.15-5-.16-10.8-5.16-12.95-5-2.15-10.8.16-12.95,5.16-2.15,5,.16,10.8,5.16,12.95Z" style="fill: #161616;"/>
</svg>