<?xml version="1.0" encoding="UTF-8" standalone="no"?>
<svg
   id="Layer_1"
   data-name="Layer 1"
   width="9.6249056mm"
   height="9.6249056mm"
   viewBox="0 0 27.286719 27.286719"
   version="1.1"
   sodipodi:docname="knob_x.svg"
   inkscape:version="1.2.2 (b0a84865, 2022-12-01)"
   xmlns:inkscape="http://www.inkscape.org/namespaces/inkscape"
   xmlns:sodipodi="http://sodipodi.sourceforge.net/DTD/sodipodi-0.dtd"
   xmlns="http://www.w3.org/2000/svg"
   xmlns:svg="http://www.w3.org/2000/svg">
  <defs
     id="defs7" />
  <sodipodi:namedview
     id="namedview5"
     pagecolor="#ffffff"
     bordercolor="#000000"
     borderopacity="0.25"
     inkscape:showpageshadow="2"
     inkscape:pageopacity="0.0"
     inkscape:pagecheckerboard="0"
     inkscape:deskcolor="#d1d1d1"
     inkscape:document-units="mm"
     showgrid="false"
     inkscape:zoom="21.047799"
     inkscape:cx="7.6492558"
     inkscape:cy="18.172921"
     inkscape:window-width="1390"
     inkscape:window-height="1205"
     inkscape:window-x="732"
     inkscape:window-y="149"
     inkscape:window-maximized="0"
     inkscape:current-layer="Layer_1" />
  <path
     id="path6449"
     d="M 26.883887,12.278738 C 26.29378,11.319815 25.261092,10.434654 24.744749,9.0331497 A 20.993058,20.993058 0 0 1 24.007115,5.2712172 12.716807,12.716807 0 0 0 22.015504,3.2796059 19.827596,19.827596 0 0 1 18.253571,2.5419721 C 16.92583,2.0256285 15.966906,0.99294116 15.081746,0.40283406 a 8.9253689,8.9253689 0 0 0 -1.401504,-0.0737634 8.9253689,8.9253689 0 0 0 -1.401505,0.0737634 C 11.319814,0.99294116 10.434653,1.9518651 9.1069123,2.5419721 A 12.974978,12.974978 0 0 1 5.3449803,3.2796059 27.29245,27.29245 0 0 0 3.2796055,5.3449807 19.827596,19.827596 0 0 1 2.5419717,9.1069127 C 2.0256281,10.434654 0.99294083,11.319815 0.40283373,12.278738 a 8.9253689,8.9253689 0 0 0 -0.073763,1.401505 8.9253689,8.9253689 0 0 0 0.073763,1.401504 c 0.5901071,0.958924 1.54903097,1.844084 2.13913797,3.171825 0.5901071,1.327741 0.5163437,2.655482 0.7376338,3.761933 a 10.607174,10.607174 0 0 0 2.0653748,1.991611 19.827596,19.827596 0 0 1 3.761932,0.737634 c 1.3277407,0.516343 2.2866647,1.549031 3.1718247,2.139138 a 8.9253689,8.9253689 0 0 0 1.401505,0.07376 8.9253689,8.9253689 0 0 0 1.401504,-0.07376 c 0.958924,-0.590107 1.844084,-1.549031 3.171825,-2.139138 1.327741,-0.590107 2.655482,-0.516344 3.761933,-0.737634 a 12.716807,12.716807 0 0 0 1.991611,-1.991611 19.827596,19.827596 0 0 1 0.737634,-3.761933 c 0.516343,-1.327741 1.549031,-2.212901 2.139138,-3.171825 a 8.9253689,8.9253689 0 0 0 0.07376,-1.401504 c 0,-0.516344 -0.07376,-0.958924 -0.07376,-1.401505"
     style="fill-rule:evenodd;stroke:#595959;stroke-width:0.652053;stroke-miterlimit:10;stroke-dasharray:none;stroke-opacity:1" />
  <path
     id="path6453"
     d="m 14.122822,0.40283406 a 1.7998265,1.7998265 0 0 0 -0.885161,0 V 13.827769 h 0.885161 z"
     style="fill:#ffffff;fill-rule:evenodd;stroke-width:0.737634" />
</svg>
