<?xml version="1.0" encoding="UTF-8" standalone="no"?>
<svg
   id="Layer_1"
   data-name="Layer 1"
   width="6.39mm"
   height="6.39mm"
   viewBox="0 0 18.1 18.1"
   version="1.1"
   sodipodi:docname="knob9mm_x.svg"
   inkscape:version="1.2.2 (b0a84865, 2022-12-01)"
   xmlns:inkscape="http://www.inkscape.org/namespaces/inkscape"
   xmlns:sodipodi="http://sodipodi.sourceforge.net/DTD/sodipodi-0.dtd"
   xmlns="http://www.w3.org/2000/svg"
   xmlns:svg="http://www.w3.org/2000/svg">
  <defs
     id="defs387" />
  <sodipodi:namedview
     id="namedview385"
     pagecolor="#ffffff"
     bordercolor="#000000"
     borderopacity="0.25"
     inkscape:showpageshadow="2"
     inkscape:pageopacity="0.0"
     inkscape:pagecheckerboard="0"
     inkscape:deskcolor="#d1d1d1"
     inkscape:document-units="mm"
     showgrid="false"
     inkscape:zoom="13.487798"
     inkscape:cx="27.95119"
     inkscape:cy="12.27035"
     inkscape:window-width="1390"
     inkscape:window-height="1205"
     inkscape:window-x="50"
     inkscape:window-y="86"
     inkscape:window-maximized="0"
     inkscape:current-layer="Layer_1" />
  <polygon
     points="17.25,9.75 17.65,10.55 16.95,11.15 17.35,12.05 16.45,12.55 16.65,13.45 15.75,13.75 15.75,14.65 14.85,14.85 14.65,15.75 13.75,15.75 13.45,16.65 12.55,16.45 12.05,17.35 11.15,16.95 10.55,17.65 9.75,17.25 9.05,17.85 8.35,17.25 7.55,17.65 6.95,16.95 6.05,17.35 5.55,16.45 4.65,16.65 4.35,15.75 3.35,15.75 3.25,14.85 2.25,14.65 2.25,13.75 1.45,13.45 1.55,12.55 0.75,12.05 1.05,11.15 0.35,10.55 0.85,9.75 0.25,9.05 0.85,8.35 0.35,7.55 1.05,6.95 0.75,6.05 1.55,5.55 1.45,4.65 2.25,4.35 2.35,3.35 3.25,3.25 3.35,2.25 4.35,2.25 4.65,1.45 5.55,1.55 6.05,0.75 6.95,1.05 7.55,0.35 8.35,0.85 9.05,0.25 9.75,0.85 10.55,0.35 11.15,1.05 12.05,0.75 12.55,1.55 13.45,1.45 13.75,2.25 14.65,2.35 14.85,3.25 15.75,3.35 15.75,4.35 16.65,4.65 16.45,5.55 17.35,6.05 16.95,6.95 17.65,7.55 17.25,8.35 17.85,9.05 "
     style="stroke:#ededed;stroke-width:0.5px;stroke-linecap:round;stroke-linejoin:round"
     id="polygon380"
     transform="rotate(135,9.05,9.05)" />
  <line
     x1="9.0500002"
     y1="4.948781"
     x2="9.0500002"
     y2="1.5546678"
     style="fill:none;stroke:#ffffff;stroke-linejoin:round"
     id="line382" />
</svg>
