<?xml version="1.0" encoding="UTF-8" standalone="no"?>
<svg
   width="0.30000001in"
   height="0.23in"
   viewBox="0 0 22.069566 16.675"
   version="1.1"
   id="svg283"
   sodipodi:docname="switch_horiz_right.svg"
   inkscape:version="1.2.2 (b0a84865, 2022-12-01)"
   xmlns:inkscape="http://www.inkscape.org/namespaces/inkscape"
   xmlns:sodipodi="http://sodipodi.sourceforge.net/DTD/sodipodi-0.dtd"
   xmlns="http://www.w3.org/2000/svg"
   xmlns:svg="http://www.w3.org/2000/svg">
  <defs
     id="defs287" />
  <sodipodi:namedview
     id="namedview285"
     pagecolor="#ffffff"
     bordercolor="#000000"
     borderopacity="0.25"
     inkscape:showpageshadow="2"
     inkscape:pageopacity="0.0"
     inkscape:pagecheckerboard="0"
     inkscape:deskcolor="#d1d1d1"
     inkscape:document-units="in"
     showgrid="false"
     inkscape:zoom="8.390816"
     inkscape:cx="-9.5938226"
     inkscape:cy="16.148608"
     inkscape:window-width="1593"
     inkscape:window-height="1205"
     inkscape:window-x="50"
     inkscape:window-y="86"
     inkscape:window-maximized="0"
     inkscape:current-layer="bottom" />
  <g
     id="Layer_1"
     data-name="Layer 1"
     transform="rotate(-90,8.4711419,8.3196341)">
    <path
       id="path7255"
       d="M 8.46,19 A 8.11,8.11 0 1 1 16.57,10.89 8.12,8.12 0 0 1 8.46,19"
       style="fill:#e6e6e6;stroke:#666666;stroke-width:0.7px;stroke-miterlimit:11.3386" />
    <path
       id="path7261"
       d="M 8.46,16.71 A 5.84,5.84 0 1 1 14.3,10.87 5.84,5.84 0 0 1 8.46,16.71"
       style="fill:#e6e6e6;stroke:#666666;stroke-width:0.7px;stroke-miterlimit:11.3386" />
    <path
       id="path7265"
       d="M 13,10.87 A 4.5,4.5 0 1 1 8.5,6.37 4.51,4.51 0 0 1 13,10.87" />
  </g>
  <g
     id="bottom"
     transform="rotate(-90,8.5585338,8.2389664)">
    <g
       id="g280">
      <circle
         cx="8.46"
         cy="10.87"
         r="3"
         style="fill:#656565"
         id="circle276" />
      <path
         d="m 8.46,21.4 v 0 a 4,4 0 0 1 -4,-4 l 0.3,-4 C 5,11.09 6.26,9.55 8.46,9.55 v 0 c 2.2,0 3.53,1.62 3.7,3.85 l 0.3,4 a 4,4 0 0 1 -4,4 z"
         style="fill:#ffffff;stroke:#666666;stroke-width:0.7px;stroke-miterlimit:10"
         id="path278" />
    </g>
  </g>
</svg>
