<?xml version="1.0" encoding="UTF-8" standalone="no"?>
<!-- Generator: Adobe Illustrator 25.4.1, SVG Export Plug-In . SVG Version: 6.00 Build 0)  -->

<svg
   version="1.1"
   id="SubMiniToggle_1"
   x="0px"
   y="0px"
   viewBox="0 0 21.6 16.6"
   xml:space="preserve"
   sodipodi:docname="switch_horiz_center.svg"
   width="21.6"
   height="16.6"
   inkscape:version="1.2.2 (b0a84865, 2022-12-01)"
   xmlns:inkscape="http://www.inkscape.org/namespaces/inkscape"
   xmlns:sodipodi="http://sodipodi.sourceforge.net/DTD/sodipodi-0.dtd"
   xmlns="http://www.w3.org/2000/svg"
   xmlns:svg="http://www.w3.org/2000/svg"><defs
   id="defs13" /><sodipodi:namedview
   id="namedview11"
   pagecolor="#ffffff"
   bordercolor="#000000"
   borderopacity="0.25"
   inkscape:showpageshadow="2"
   inkscape:pageopacity="0.0"
   inkscape:pagecheckerboard="0"
   inkscape:deskcolor="#d1d1d1"
   showgrid="false"
   inkscape:zoom="17.240495"
   inkscape:cx="7.1053642"
   inkscape:cy="20.272039"
   inkscape:window-width="1390"
   inkscape:window-height="1205"
   inkscape:window-x="50"
   inkscape:window-y="86"
   inkscape:window-maximized="0"
   inkscape:current-layer="SubMiniToggle_1" />
<style
   type="text/css"
   id="style2">
	.st0{fill:#E6E6E6;stroke:#666666;stroke-width:0.6851;stroke-miterlimit:11.0973;}
	.st1{fill:#FFFFFF;stroke:#666666;stroke-width:0.6851;stroke-miterlimit:9.7872;}
</style>
<path
   id="path7255"
   class="st0"
   d="m 10.8,16.2 c -4.3999998,0 -7.8999998,-3.6 -7.8999998,-7.8999998 0,-4.3 3.6,-7.90000001 7.8999998,-7.90000001 4.3,0 7.9,3.60000001 7.9,7.90000001 v 0 C 18.7,12.7 15.2,16.2 10.8,16.2" />
<path
   id="path7261"
   class="st0"
   d="M 10.8,14 C 7.6000002,14 5.1000002,11.4 5.1000002,8.3000002 c 0,-3.1 2.6,-5.7 5.6999998,-5.7 3.1,0 5.7,2.5 5.7,5.7 v 0 C 16.5,11.4 13.9,14 10.8,14" />
<path
   id="path7265"
   d="M 15.2,8.3000002 C 15.2,10.7 13.2,12.7 10.8,12.7 c -2.3999998,0 -4.3999998,-2 -4.3999998,-4.3999998 0,-2.4 2,-4.4 4.3999998,-4.4 v 0 c 2.4,0 4.4,1.9 4.4,4.4" />
<g
   id="middle"
   transform="translate(2.5000002,-2.4999998)">
	<circle
   class="st1"
   cx="8.3000002"
   cy="10.8"
   r="3.4000001"
   id="circle7" />
</g>
</svg>
