<?xml version="1.0" encoding="UTF-8"?>
<svg id="Layer_1" data-name="Layer 1" xmlns="http://www.w3.org/2000/svg" width="13.89mm" height="12.03mm" xmlns:xlink="http://www.w3.org/1999/xlink" viewBox="0 0 39.38 34.1">
  <defs>
    <filter id="drop-shadow-1" filterUnits="userSpaceOnUse">
      <feOffset dx="0" dy="2.83"/>
      <feGaussianBlur result="blur" stdDeviation="2.83"/>
      <feFlood flood-color="#000" flood-opacity=".58"/>
      <feComposite in2="blur" operator="in"/>
      <feComposite in="SourceGraphic"/>
    </filter>
    <linearGradient id="linear-gradient" x1="1.02" y1="144.88" x2="27.36" y2="144.88" gradientTransform="translate(145.74 -56.13) rotate(65.45)" gradientUnits="userSpaceOnUse">
      <stop offset="0" stop-color="#fff"/>
      <stop offset="1" stop-color="#333"/>
    </linearGradient>
  </defs>
  <polygon points="29.46 .13 9.92 .13 .14 17.05 9.91 33.97 29.46 33.98 39.23 17.05 29.46 .13" style="fill: #acafb0; stroke: #8c8d8e; stroke-width: .25px;"/>
  <path d="m27.69,30.55c7.51-4.33,10.08-13.93,5.75-21.44C29.11,1.61,19.51-.97,12,3.37,4.5,7.7,1.92,17.3,6.26,24.81c4.33,7.51,13.93,10.08,21.44,5.75Z" style="fill: #9c9ea1; filter: url(#drop-shadow-1);"/>
  <path d="m24.9,28.31c6.27-2.79,9.09-10.13,6.29-16.4-2.79-6.27-10.13-9.08-16.4-6.29-6.27,2.79-9.08,10.13-6.3,16.4,2.79,6.27,10.13,9.08,16.4,6.29Z" style="fill: none; stroke: url(#linear-gradient); stroke-width: 1.5px;"/>
  <path d="m15.95,26.02c5,2.15,10.8-.16,12.95-5.16,2.15-5-.16-10.8-5.16-12.95-5-2.15-10.8.16-12.95,5.16-2.15,5,.16,10.8,5.16,12.95Z" style="fill: #161616;"/>
</svg>