<?xml version="1.0" encoding="utf-8"?>
<!-- Generator: Adobe Illustrator 25.4.1, SVG Export Plug-In . SVG Version: 6.00 Build 0)  -->
<svg version="1.1" id="Layer_1" xmlns="http://www.w3.org/2000/svg" xmlns:xlink="http://www.w3.org/1999/xlink" x="0px" y="0px"
	 viewBox="0 0 23.7 30.4" style="enable-background:new 0 0 23.7 30.4;" xml:space="preserve">
<style type="text/css">
	.st0{fill:#E6E6E6;stroke:#666666;stroke-width:0.7;stroke-miterlimit:11.3386;}
	.st1{fill:#FFFFFF;stroke:#666666;stroke-width:0.6851;stroke-miterlimit:9.7872;}
	.st2{fill:#FFFFFF;stroke:#666666;stroke-width:0.7;stroke-miterlimit:10;}
</style>
<g id="Layer_1_00000079454118045590934010000015340186904597957024_">
	<path id="path7255" class="st0" d="M11.8,26.7c-6.3,0-11.5-5.1-11.5-11.5S5.5,3.7,11.8,3.7s11.5,5.1,11.5,11.5l0,0
		C23.3,21.5,18.2,26.7,11.8,26.7"/>
	<path id="path7261" class="st0" d="M11.8,23.5c-4.6,0-8.3-3.7-8.3-8.3c0-4.6,3.7-8.3,8.3-8.3c4.6,0,8.3,3.7,8.3,8.3c0,0,0,0,0,0
		C20.1,19.7,16.4,23.4,11.8,23.5"/>
	<path id="path7265" d="M18.2,15.2c0,3.5-2.9,6.4-6.4,6.4s-6.4-2.9-6.4-6.4s2.9-6.4,6.4-6.4l0,0C15.4,8.8,18.2,11.6,18.2,15.2"/>
	<g id="middle_00000046312024280727367870000010458939987654204295_">
		<circle class="st1" cx="11.8" cy="15.2" r="5"/>
	</g>
</g>
<g id="middle">
	<circle class="st2" cx="11.8" cy="15.2" r="5"/>
</g>
</svg>
