<?xml version="1.0" encoding="utf-8"?>
<!-- Generator: Adobe Illustrator 25.4.1, SVG Export Plug-In . SVG Version: 6.00 Build 0)  -->
<svg version="1.1" id="SubMiniToggle_1" xmlns="http://www.w3.org/2000/svg" xmlns:xlink="http://www.w3.org/1999/xlink" x="0px"
	 y="0px" viewBox="0 0 16.6 21.6" style="enable-background:new 0 0 16.6 21.6;" xml:space="preserve">
<style type="text/css">
	.st0{fill:#E6E6E6;stroke:#666666;stroke-width:0.6851;stroke-miterlimit:11.0973;}
	.st1{fill:#FFFFFF;stroke:#666666;stroke-width:0.6851;stroke-miterlimit:9.7872;}
</style>
<path id="path7255" class="st0" d="M8.3,18.7c-4.4,0-7.9-3.6-7.9-7.9s3.6-7.9,7.9-7.9s7.9,3.6,7.9,7.9l0,0
	C16.2,15.2,12.7,18.7,8.3,18.7"/>
<path id="path7261" class="st0" d="M8.3,16.5c-3.2,0-5.7-2.6-5.7-5.7s2.6-5.7,5.7-5.7S14,7.6,14,10.8l0,0
	C14,13.9,11.4,16.5,8.3,16.5"/>
<path id="path7265" d="M12.7,10.8c0,2.4-2,4.4-4.4,4.4s-4.4-2-4.4-4.4s2-4.4,4.4-4.4l0,0C10.7,6.4,12.7,8.3,12.7,10.8"/>
<g id="middle">
	<circle class="st1" cx="8.3" cy="10.8" r="3.4"/>
</g>
</svg>
