<?xml version="1.0" encoding="utf-8"?>
<!-- Generator: Adobe Illustrator 25.4.1, SVG Export Plug-In . SVG Version: 6.00 Build 0)  -->
<svg version="1.1" id="Layer_1" xmlns="http://www.w3.org/2000/svg" xmlns:xlink="http://www.w3.org/1999/xlink" x="0px" y="0px"
	 viewBox="0 0 23.7 30.4" style="enable-background:new 0 0 23.7 30.4;" xml:space="preserve">
<style type="text/css">
	.st0{fill:#E6E6E6;stroke:#666666;stroke-width:0.7;stroke-miterlimit:11.3386;}
	.st1{fill:#656565;}
	.st2{fill:#FFFFFF;stroke:#666666;stroke-width:0.7;stroke-miterlimit:10;}
</style>
<g id="Layer_1_00000048478159714068197150000014872650069237446578_">
	<path id="path7255" class="st0" d="M11.8,26.7c-6.5,0-11.7-5.4-11.5-11.9c0.2-5.9,5.1-10.8,11-11c6.5-0.2,11.9,5,11.9,11.5l0,0
		C23.3,21.5,18.2,26.7,11.8,26.7"/>
	<path id="path7261" class="st0" d="M11.8,23.5c-5.1,0-9.2-4.6-8.1-9.9c0.6-3.2,3.2-5.8,6.4-6.5c5.3-1,9.9,3,10,8.1c0,0,0,0,0,0
		C20.1,19.7,16.4,23.4,11.8,23.5"/>
	<path id="path7265" d="M18.2,15.2c0,3.6-2.9,6.4-6.5,6.4c-3.4,0-6.2-2.9-6.3-6.3c0-3.6,2.8-6.5,6.4-6.5l0,0
		C15.4,8.8,18.2,11.6,18.2,15.2"/>
</g>
<g id="top">
	<g>
		<circle class="st1" cx="11.8" cy="15.3" r="4.2"/>
		<path class="st2" d="M11.8,0.3L11.8,0.3c3.1,0,5.7,2.5,5.7,5.7l-0.4,5.7c-0.3,3.3-2.1,5.5-5.2,5.5l0,0c-3.1,0-5-2.3-5.2-5.4L6.2,6
			C6.2,2.9,8.7,0.4,11.8,0.3z"/>
	</g>
</g>
</svg>
