<?xml version="1.0" encoding="utf-8"?>
<!-- Generator: Adobe Illustrator 26.0.3, SVG Export Plug-In . SVG Version: 6.00 Build 0)  -->
<svg version="1.1" xmlns="http://www.w3.org/2000/svg" xmlns:xlink="http://www.w3.org/1999/xlink" x="0px" y="0px"
	 viewBox="0 0 156.1 157.3" style="enable-background:new 0 0 156.1 157.3;" xml:space="preserve">
<style type="text/css">
	.st0{fill:#545454;stroke:#272827;stroke-width:0.68;stroke-miterlimit:9.9993;}
	.st1{fill:#595959;stroke:#272827;stroke-width:0.425;stroke-linejoin:bevel;stroke-miterlimit:3.9997;}
	.st2{fill:none;stroke:#272827;stroke-width:0.425;stroke-linejoin:bevel;stroke-miterlimit:3.9997;}
	.st3{fill:none;stroke:#272827;stroke-width:0.68;stroke-linejoin:bevel;stroke-miterlimit:3.9997;}
	.st4{fill:none;stroke:#272827;stroke-width:0.9919;stroke-linejoin:bevel;stroke-miterlimit:3.9997;}
	.st5{fill:#292929;stroke:#000000;stroke-width:0.968;stroke-miterlimit:9.9993;}
	.st6{stroke:#292929;stroke-miterlimit:9.9993;}
	.st7{fill:#E6E6E6;stroke:#666666;stroke-width:0.6851;stroke-miterlimit:11.0973;}
	.st8{fill:#FFFFFF;stroke:#666666;stroke-width:0.6851;stroke-miterlimit:9.7872;}
	.st9{fill:#E6E6E6;stroke:#636663;stroke-width:0.7087;stroke-miterlimit:11.3386;}
	.st10{fill:#545454;}
	.st11{fill:none;stroke:#272827;stroke-width:0.7087;stroke-miterlimit:11.3386;}
	.st12{fill:#3B3B3B;stroke:#000000;stroke-width:0.68;stroke-miterlimit:9.9993;}
	.st13{fill:#595959;stroke:#000000;stroke-width:0.425;stroke-linejoin:bevel;stroke-miterlimit:3.9997;}
	.st14{stroke:#292929;stroke-width:0.5;stroke-miterlimit:9.9993;}
	.st15{fill:none;stroke:#000000;stroke-width:0.425;stroke-linejoin:bevel;stroke-miterlimit:3.9997;}
	.st16{fill:none;stroke:#000000;stroke-width:0.68;stroke-linejoin:bevel;stroke-miterlimit:3.9997;}
	.st17{fill:none;stroke:#000000;stroke-width:0.9919;stroke-linejoin:bevel;stroke-miterlimit:3.9997;}
</style>
<g id="Layer_1">
	<path class="st0" d="M49.8,47.9L49.8,47.9c0-13.7-11.1-24.7-24.8-24.7C11.4,23.2,0.3,34.3,0.3,48c0,13.6,11.1,24.7,24.7,24.7
		C38.7,72.7,49.8,61.6,49.8,47.9C49.8,47.9,49.8,47.9,49.8,47.9"/>
	<polygon class="st1" points="35.7,66.3 14.4,66.3 3.8,47.9 14.4,29.5 35.7,29.5 46.3,47.9 	"/>
	<line class="st2" x1="38.1" y1="28.1" x2="35.7" y2="29.5"/>
	<line class="st2" x1="14.4" y1="69.2" x2="14.4" y2="66.3"/>
	<line class="st2" x1="14.4" y1="26.6" x2="14.4" y2="29.5"/>
	<path class="st2" d="M23.1,69.2L23.1,69.2c0.4,0,0.8,0.1,1.2,0.1"/>
	<path class="st2" d="M26.9,26.7L26.9,26.7c-0.6,0-1.2-0.1-1.9-0.1c-0.6,0-1.2,0-1.9,0.1"/>
	<path class="st2" d="M44.4,38.9L44.4,38.9c-0.5-1.1-1.2-2.2-1.9-3.2"/>
	<path class="st2" d="M42.5,60.2L42.5,60.2c0.7-1,1.3-2.1,1.9-3.2"/>
	<path class="st2" d="M5.7,56.9L5.7,56.9c0.5,1.1,1.2,2.2,1.9,3.2"/>
	<path class="st2" d="M7.6,35.7L7.6,35.7c-0.7,1-1.4,2.1-1.9,3.2"/>
	<line class="st2" x1="48.8" y1="49.3" x2="46.3" y2="47.9"/>
	<line class="st2" x1="11.9" y1="28.1" x2="14.4" y2="29.5"/>
	<line class="st2" x1="48.8" y1="46.5" x2="46.3" y2="47.9"/>
	<line class="st2" x1="11.9" y1="67.7" x2="14.4" y2="66.3"/>
	<line class="st2" x1="35.7" y1="69.2" x2="35.7" y2="66.3"/>
	<line class="st2" x1="35.7" y1="26.6" x2="35.7" y2="29.5"/>
	<line class="st2" x1="1.3" y1="46.5" x2="3.8" y2="47.9"/>
	<line class="st2" x1="38.1" y1="67.7" x2="35.7" y2="66.3"/>
	<line class="st2" x1="1.3" y1="49.3" x2="3.8" y2="47.9"/>
	<path class="st2" d="M25.7,69.2L25.7,69.2c0.4,0,0.8,0,1.2-0.1"/>
	<line class="st3" x1="11.9" y1="67.7" x2="1.3" y2="49.3"/>
	<line class="st3" x1="35.7" y1="69.2" x2="14.4" y2="69.2"/>
	<line class="st3" x1="1.3" y1="46.5" x2="11.9" y2="28.1"/>
	<line class="st3" x1="38.1" y1="28.1" x2="48.8" y2="46.5"/>
	<line class="st3" x1="14.4" y1="26.6" x2="35.7" y2="26.6"/>
	<line class="st3" x1="48.8" y1="49.3" x2="38.1" y2="67.7"/>
	<line class="st4" x1="25.7" y1="69.2" x2="25.7" y2="69.4"/>
	<line class="st4" x1="24.3" y1="69.2" x2="24.3" y2="69.4"/>
	<path class="st3" d="M48.8,49.3L48.8,49.3c0.5-0.9,0.5-2,0-2.8"/>
	<path class="st3" d="M35.7,69.2L35.7,69.2c1,0,1.9-0.5,2.4-1.4"/>
	<path class="st3" d="M11.9,67.7L11.9,67.7c0.5,0.9,1.4,1.4,2.4,1.4"/>
	<path class="st3" d="M1.3,46.5L1.3,46.5c-0.5,0.9-0.5,2,0,2.8"/>
	<path class="st3" d="M14.4,26.7L14.4,26.7c-1,0-1.9,0.5-2.4,1.4"/>
	<path class="st3" d="M38.1,28.1L38.1,28.1c-0.5-0.9-1.4-1.4-2.4-1.4"/>
	<circle class="st5" cx="25.5" cy="142.2" r="14.6"/>
	<circle class="st6" cx="25" cy="47.9" r="14"/>
	<path class="st0" d="M49.8,100.1L49.8,100.1c0-13.7-11.1-24.7-24.8-24.7S0.3,86.5,0.3,100.2c0,13.6,11.1,24.7,24.7,24.7
		C38.7,124.9,49.8,113.8,49.8,100.1C49.8,100.2,49.8,100.1,49.8,100.1"/>
	<polygon class="st1" points="35.7,118.5 14.4,118.5 3.8,100.1 14.4,81.7 35.7,81.7 46.3,100.1 	"/>
	<line class="st2" x1="38.1" y1="80.3" x2="35.7" y2="81.7"/>
	<line class="st2" x1="14.4" y1="121.4" x2="14.4" y2="118.5"/>
	<line class="st2" x1="14.4" y1="78.9" x2="14.4" y2="81.7"/>
	<path class="st2" d="M23.1,121.4L23.1,121.4c0.4,0,0.8,0.1,1.2,0.1"/>
	<path class="st2" d="M26.9,78.9L26.9,78.9c-0.6-0.1-1.2-0.1-1.9-0.1c-0.6,0-1.2,0-1.9,0.1"/>
	<path class="st2" d="M44.4,91.1L44.4,91.1c-0.5-1.1-1.2-2.2-1.9-3.2"/>
	<path class="st2" d="M42.5,112.4L42.5,112.4c0.7-1,1.3-2.1,1.9-3.2"/>
	<path class="st2" d="M5.7,109.1L5.7,109.1c0.5,1.1,1.2,2.2,1.9,3.2"/>
	<path class="st2" d="M7.6,87.9L7.6,87.9c-0.7,1-1.4,2.1-1.9,3.2"/>
	<line class="st2" x1="48.8" y1="101.5" x2="46.3" y2="100.1"/>
	<line class="st2" x1="11.9" y1="80.3" x2="14.4" y2="81.7"/>
	<line class="st2" x1="48.8" y1="98.7" x2="46.3" y2="100.1"/>
	<line class="st2" x1="11.9" y1="120" x2="14.4" y2="118.5"/>
	<line class="st2" x1="35.7" y1="121.4" x2="35.7" y2="118.5"/>
	<line class="st2" x1="35.7" y1="78.9" x2="35.7" y2="81.7"/>
	<line class="st2" x1="1.3" y1="98.7" x2="3.8" y2="100.1"/>
	<line class="st2" x1="38.1" y1="120" x2="35.7" y2="118.5"/>
	<line class="st2" x1="1.3" y1="101.5" x2="3.8" y2="100.1"/>
	<path class="st2" d="M25.7,121.4L25.7,121.4c0.4,0,0.8,0,1.2-0.1"/>
	<line class="st3" x1="11.9" y1="120" x2="1.3" y2="101.5"/>
	<line class="st3" x1="35.7" y1="121.4" x2="14.4" y2="121.4"/>
	<line class="st3" x1="1.3" y1="98.7" x2="11.9" y2="80.3"/>
	<line class="st3" x1="38.1" y1="80.3" x2="48.8" y2="98.7"/>
	<line class="st3" x1="14.4" y1="78.9" x2="35.7" y2="78.9"/>
	<line class="st3" x1="48.8" y1="101.5" x2="38.1" y2="120"/>
	<line class="st4" x1="25.7" y1="121.4" x2="25.7" y2="121.7"/>
	<line class="st4" x1="24.3" y1="121.4" x2="24.3" y2="121.7"/>
	<path class="st3" d="M35.7,121.4L35.7,121.4c1,0,1.9-0.5,2.4-1.4"/>
	<path class="st3" d="M11.9,120L11.9,120c0.5,0.9,1.4,1.4,2.4,1.4"/>
	<path class="st3" d="M1.3,98.7L1.3,98.7c-0.5,0.9-0.5,2,0,2.8"/>
	<path class="st3" d="M14.4,78.9L14.4,78.9c-1,0-1.9,0.5-2.4,1.4"/>
	<path class="st3" d="M38.1,80.3L38.1,80.3c-0.5-0.9-1.4-1.4-2.4-1.4"/>
	<circle cx="25" cy="100.1" r="14"/>
	<path id="path7255" class="st7" d="M61.4,54.4c-4.4,0-7.9-3.6-7.9-7.9s3.6-7.9,7.9-7.9s7.9,3.6,7.9,7.9l0,0
		C69.3,50.9,65.8,54.4,61.4,54.4"/>
	<path id="path7261" class="st7" d="M61.4,52.2c-3.2,0-5.7-2.6-5.7-5.7c0-3.1,2.6-5.7,5.7-5.7c3.1,0,5.7,2.5,5.7,5.7l0,0
		C67.1,49.6,64.5,52.2,61.4,52.2"/>
	<path id="path7265" d="M65.8,46.5c0,2.4-2,4.4-4.4,4.4s-4.4-2-4.4-4.4c0-2.4,2-4.4,4.4-4.4l0,0C63.8,42.1,65.8,44,65.8,46.5"/>
	<g id="middle">
		<circle class="st8" cx="61.4" cy="46.5" r="3.4"/>
	</g>
	<path id="path9179" class="st9" d="M56.8,33.9c-0.4,0-1-0.3-1.2-0.7l-7.1-12.6c-0.2-0.4-0.2-1,0-1.4l7.1-12.6
		c0.2-0.4,0.7-0.7,1.2-0.7h14.3c0.4,0,1,0.3,1.2,0.7l7.1,12.6c0.2,0.4,0.2,1,0,1.4l-7.1,12.6c-0.2,0.4-0.7,0.7-1.2,0.7H56.8z"/>
	<path id="path9183" class="st10" d="M52.9,19.9c0-6.1,4.9-11,11-11c6.1,0,11,4.9,11,11c0,6.1-4.9,11-11,11
		C57.9,30.9,52.9,26,52.9,19.9"/>
	<path id="path9185" d="M58.3,19.9c0-3.1,2.5-5.7,5.7-5.7c3.1,0,5.7,2.5,5.7,5.7c0,3.1-2.5,5.7-5.7,5.7C60.8,25.6,58.3,23,58.3,19.9
		"/>
	<path id="path18865" class="st11" d="M55.5,19.9c0-4.6,3.8-8.4,8.4-8.4c4.6,0,8.4,3.8,8.4,8.4c0,4.7-3.8,8.4-8.4,8.4
		C59.3,28.3,55.5,24.5,55.5,19.9"/>
	<path class="st3" d="M48.8,101.5L48.8,101.5c0.5-0.9,0.5-2,0-2.8"/>
	<path id="path9179_00000000922410764226333290000010546418841542339459_" class="st9" d="M67.3,149.5c-0.7,0-1.5-0.5-1.8-1.1
		l-11.1-19.7c-0.3-0.6-0.3-1.5,0-2.2l11.1-19.7c0.3-0.6,1.2-1.1,1.8-1.1h22.2c0.7,0,1.5,0.5,1.8,1.1l11.1,19.7
		c0.3,0.6,0.3,1.5,0,2.2l-11.1,19.7c-0.3,0.6-1.2,1.1-1.8,1.1H67.3z"/>
	<path id="path9183_00000039835822324665757590000008559382154542118571_" class="st10" d="M61.3,127.6c0-9.4,7.7-17.1,17.1-17.1
		s17.1,7.7,17.1,17.1c0,9.4-7.7,17.1-17.1,17.1C69,144.7,61.3,137.1,61.3,127.6"/>
	<path id="path9185_00000052810933517161654620000015623117236024942734_" d="M64.3,127.6c0-7.8,6.3-14.2,14.2-14.2
		c7.8,0,14.2,6.3,14.2,14.2c0,7.8-6.3,14.2-14.2,14.2C70.6,141.8,64.3,135.5,64.3,127.6"/>
	<path id="path18865_00000107577029133990906080000015221613740445375905_" class="st11" d="M65.3,127.6c0-7.2,5.9-13.1,13.1-13.1
		c7.2,0,13.1,5.9,13.1,13.1c0,7.2-5.9,13.1-13.1,13.1C71.2,140.7,65.3,134.9,65.3,127.6"/>
	<path id="path9179_00000111871939258483506430000016366175163298196386_" class="st9" d="M120.3,146.7c-0.7,0-1.5-0.5-1.8-1.1
		L107.3,126c-0.3-0.6-0.3-1.5,0-2.2l11.1-19.7c0.3-0.6,1.2-1.1,1.8-1.1h22.2c0.7,0,1.5,0.5,1.8,1.1l11.1,19.7c0.3,0.6,0.3,1.5,0,2.2
		l-11.1,19.7c-0.3,0.6-1.2,1.1-1.8,1.1H120.3z"/>
	<path id="path9183_00000085941314593978488660000009599811577603401097_" class="st10" d="M114.3,124.9c0-9.4,7.7-17.1,17.1-17.1
		s17.1,7.7,17.1,17.1c0,9.4-7.7,17.1-17.1,17.1C122,142,114.3,134.3,114.3,124.9"/>
	<path id="path9185_00000028295911217598863330000008610123189929243555_" d="M118.6,124.9c0-7,5.7-12.8,12.8-12.8
		c7,0,12.8,5.7,12.8,12.8c0,7-5.7,12.8-12.8,12.8C124.3,137.6,118.6,131.9,118.6,124.9"/>
</g>
<g id="source">
	<path class="st12" d="M118.7,78.2L118.7,78.2c0-13.7-11.1-24.7-24.8-24.7c-13.7,0-24.7,11.1-24.7,24.8c0,13.6,11.1,24.7,24.7,24.7
		C107.6,103,118.7,91.9,118.7,78.2C118.7,78.2,118.7,78.2,118.7,78.2"/>
	<polygon class="st13" points="104.6,96.6 83.3,96.6 72.7,78.2 83.3,59.8 104.6,59.8 115.3,78.2 	"/>
	<circle class="st5" cx="94.5" cy="77.5" r="14.6"/>
	<circle class="st14" cx="93.9" cy="78.2" r="14"/>
	<circle class="st5" cx="136.4" cy="26.2" r="14.6"/>
	<circle class="st14" cx="97.3" cy="14.2" r="14"/>
	<line class="st15" x1="107.1" y1="58.3" x2="104.6" y2="59.8"/>
	<line class="st15" x1="83.3" y1="99.4" x2="83.3" y2="96.6"/>
	<line class="st15" x1="83.3" y1="56.9" x2="83.3" y2="59.8"/>
	<path class="st15" d="M92.1,99.4L92.1,99.4c0.4,0,0.8,0.1,1.2,0.1"/>
	<path class="st15" d="M95.9,57L95.9,57c-0.6,0-1.2-0.1-1.9-0.1s-1.2,0-1.9,0.1"/>
	<path class="st15" d="M113.3,69.2L113.3,69.2c-0.5-1.1-1.2-2.2-1.9-3.2"/>
	<path class="st15" d="M111.4,90.4L111.4,90.4c0.7-1,1.3-2.1,1.9-3.2"/>
	<path class="st15" d="M74.6,87.2L74.6,87.2c0.5,1.1,1.2,2.2,1.9,3.2"/>
	<path class="st15" d="M76.5,65.9L76.5,65.9c-0.7,1-1.4,2.1-1.9,3.2"/>
	<line class="st15" x1="117.7" y1="79.6" x2="115.3" y2="78.2"/>
	<line class="st15" x1="80.9" y1="58.3" x2="83.3" y2="59.8"/>
	<line class="st15" x1="117.7" y1="76.8" x2="115.3" y2="78.2"/>
	<line class="st15" x1="80.9" y1="98" x2="83.3" y2="96.6"/>
	<line class="st15" x1="104.6" y1="99.4" x2="104.6" y2="96.6"/>
	<line class="st15" x1="104.6" y1="56.9" x2="104.6" y2="59.8"/>
	<line class="st15" x1="70.2" y1="76.8" x2="72.7" y2="78.2"/>
	<line class="st15" x1="107.1" y1="98" x2="104.6" y2="96.6"/>
	<line class="st15" x1="70.2" y1="79.6" x2="72.7" y2="78.2"/>
	<path class="st15" d="M94.7,99.5L94.7,99.5c0.4,0,0.8,0,1.2-0.1"/>
	<line class="st16" x1="80.9" y1="98" x2="70.2" y2="79.6"/>
	<line class="st16" x1="104.6" y1="99.4" x2="83.3" y2="99.4"/>
	<line class="st16" x1="70.2" y1="76.8" x2="80.9" y2="58.3"/>
	<line class="st16" x1="107.1" y1="58.3" x2="117.7" y2="76.8"/>
	<line class="st16" x1="83.3" y1="56.9" x2="104.6" y2="56.9"/>
	<line class="st16" x1="117.7" y1="79.6" x2="107.1" y2="98"/>
	<line class="st17" x1="94.7" y1="99.4" x2="94.7" y2="99.7"/>
	<line class="st17" x1="93.3" y1="99.4" x2="93.3" y2="99.7"/>
	<path class="st16" d="M117.7,79.6L117.7,79.6c0.5-0.9,0.5-2,0-2.8"/>
	<path class="st16" d="M104.6,99.4L104.6,99.4c1,0,1.9-0.5,2.4-1.4"/>
	<path class="st16" d="M80.9,98L80.9,98c0.5,0.9,1.4,1.4,2.4,1.4"/>
	<path class="st16" d="M70.2,76.8L70.2,76.8c-0.5,0.9-0.5,2,0,2.8"/>
	<path class="st16" d="M83.3,57L83.3,57c-1,0-1.9,0.5-2.4,1.4"/>
	<path class="st16" d="M107.1,58.3L107.1,58.3c-0.5-0.9-1.4-1.4-2.4-1.4"/>
</g>
</svg>
