<svg xmlns="http://www.w3.org/2000/svg" id="Layer_1" data-name="Layer 1" width="76.29mm" height="130.14mm" viewBox="0 0 216.25 368.89">
  <g id="faceplate">
    <rect x="0.13" y="0.13" width="216" height="364.26" style="fill: #ededed;stroke: #9d9d9e;stroke-miterlimit: 10.000159740447998;stroke-width: 0.25000399351119995px" />
    <g>
      <path d="M162.28,187.63a2,2,0,0,1-.29,1.1,1.81,1.81,0,0,1-.79.71,2.66,2.66,0,0,1-1.18.24h-.45a4.49,4.49,0,0,1-.71-.15,5.26,5.26,0,0,1-.93-.36v-1.66a6.66,6.66,0,0,0,.89.52,2.14,2.14,0,0,0,.93.21c.31,0,.51-.05.6-.17a.48.48,0,0,0,.13-.32.54.54,0,0,0-.23-.46,2.8,2.8,0,0,0-.67-.39,5,5,0,0,1-.86-.51,2.39,2.39,0,0,1-.61-.69,2.25,2.25,0,0,1,0-2,1.76,1.76,0,0,1,.72-.71,2.54,2.54,0,0,1,1.18-.26,3.9,3.9,0,0,1,1.62.35,2.36,2.36,0,0,1,.38.22v1.58a5.65,5.65,0,0,0-.81-.53,2.29,2.29,0,0,0-1-.23.78.78,0,0,0-.49.14.51.51,0,0,0-.15.37.47.47,0,0,0,.15.34,2.31,2.31,0,0,0,.54.36,10,10,0,0,1,1.1.66,2.44,2.44,0,0,1,.65.67A1.87,1.87,0,0,1,162.28,187.63Z" transform="translate(-0.01 -0.01)" />
      <path d="M167.5,189.6H166v-.71a2.06,2.06,0,0,1-.68.6,1.73,1.73,0,0,1-.87.19,1.24,1.24,0,0,1-1.28-.65,3.94,3.94,0,0,1-.29-1.48v-2.92h1.55v2.68a2.08,2.08,0,0,0,.12.71.48.48,0,0,0,.51.31.68.68,0,0,0,.54-.22,3.17,3.17,0,0,0,.4-.56v-2.92h1.55Z" transform="translate(-0.01 -0.01)" />
      <path d="M171.56,188.15a1.44,1.44,0,0,1-.44,1.11,1.77,1.77,0,0,1-1.31.42,3.16,3.16,0,0,1-.86-.1,5.07,5.07,0,0,1-.83-.28v-1.25a4.18,4.18,0,0,0,.68.38,1.41,1.41,0,0,0,.63.14c.39,0,.58-.12.58-.36a.27.27,0,0,0-.08-.22,1.06,1.06,0,0,0-.29-.22c-.14-.08-.33-.17-.56-.28a2.53,2.53,0,0,1-.73-.58A1.35,1.35,0,0,1,168,186a1.42,1.42,0,0,1,.8-1.27,2.06,2.06,0,0,1,1-.22h.35a2.83,2.83,0,0,1,1.15.38v1.21l-.23-.15-.24-.14a2,2,0,0,0-.37-.14,1.42,1.42,0,0,0-.42-.06.56.56,0,0,0-.37.11.43.43,0,0,0-.1.24.32.32,0,0,0,.1.22,2.13,2.13,0,0,0,.46.27,3.89,3.89,0,0,1,.87.55,1.46,1.46,0,0,1,.44.52A1.36,1.36,0,0,1,171.56,188.15Z" transform="translate(-0.01 -0.01)" />
      <path d="M175.5,189.31a2.57,2.57,0,0,1-.67.25,2.74,2.74,0,0,1-.81.12c-1.11,0-1.67-.61-1.67-1.85v-2h-.7v-.31l2.08-2.4h.17v1.49h1.48v1.22H173.9v1.59a3.38,3.38,0,0,0,0,.45.51.51,0,0,0,.17.28.67.67,0,0,0,.43.12,2.07,2.07,0,0,0,1-.35Z" transform="translate(-0.01 -0.01)" />
      <path d="M180.36,189.35a3.41,3.41,0,0,1-.63.24,2,2,0,0,1-.69.09.75.75,0,0,1-.53-.15.85.85,0,0,1-.21-.37,2.4,2.4,0,0,1-.56.38,2,2,0,0,1-.8.14,1.41,1.41,0,0,1-.77-.18,1.07,1.07,0,0,1-.41-.48,1.45,1.45,0,0,1-.12-.59,1.53,1.53,0,0,1,.2-.75,2,2,0,0,1,.55-.5,8,8,0,0,1,.91-.39l.49-.18.25-.09.17-.09a1,1,0,0,0-.13-.57c-.09-.14-.27-.2-.56-.2a1.94,1.94,0,0,0-.94.25,3.8,3.8,0,0,0-.79.65v-1.34a3.08,3.08,0,0,1,.62-.39,3.55,3.55,0,0,1,.7-.22,3.78,3.78,0,0,1,.74-.07,2.14,2.14,0,0,1,1.43.42,1.41,1.41,0,0,1,.48,1.15V188a1.41,1.41,0,0,0,0,.41.18.18,0,0,0,.17.14.7.7,0,0,0,.39-.15Zm-2.15-.95v-1.18a4.25,4.25,0,0,0-.8.46.67.67,0,0,0-.26.54.53.53,0,0,0,.13.39.41.41,0,0,0,.29.13.58.58,0,0,0,.32-.1Z" transform="translate(-0.01 -0.01)" />
      <path d="M182.12,189.6h-1.55v-5h1.55Zm-.09-6.12a.72.72,0,0,1-.19.52.59.59,0,0,1-.79.12.78.78,0,0,1-.24-.27.91.91,0,0,1-.08-.37.83.83,0,0,1,.19-.52.59.59,0,0,1,.92,0A.73.73,0,0,1,182,183.48Z" transform="translate(-0.01 -0.01)" />
      <path d="M187.51,189.6H186v-2.68a1.79,1.79,0,0,0-.12-.72.5.5,0,0,0-.51-.3.67.67,0,0,0-.3.1,1.64,1.64,0,0,0-.26.2l-.19.25-.16.25v2.92h-1.58v-5h1.54v.71a2.45,2.45,0,0,1,.74-.62,2,2,0,0,1,.82-.18c1,0,1.57.71,1.57,2.14Z" transform="translate(-0.01 -0.01)" />
    </g>
    <path d="M43.62,143.6a22.24,22.24,0,0,0-2.45.17l-.39-2.21a21.68,21.68,0,0,1,5.69,0l-.39,2.21A20.2,20.2,0,0,0,43.62,143.6Z" transform="translate(-0.01 -0.01)" />
    <path d="M29.13,150l-1.72-1.45a22,22,0,0,1,4.34-3.65l1.12,1.94A19.83,19.83,0,0,0,29.13,150Z" transform="translate(-0.01 -0.01)" />
    <path d="M34.6,145.8l-1.13-1.94a22.62,22.62,0,0,1,5.34-2l.39,2.22A19.93,19.93,0,0,0,34.6,145.8Z" transform="translate(-0.01 -0.01)" />
    <path d="M25.39,155.74l-2.1-.77a22.62,22.62,0,0,1,2.83-4.91l1.73,1.45A20.12,20.12,0,0,0,25.39,155.74Z" transform="translate(-0.01 -0.01)" />
    <path d="M48.05,144.12l.39-2.22a21.56,21.56,0,0,1,5.33,2l-1.12,1.94A19.76,19.76,0,0,0,48.05,144.12Z" transform="translate(-0.01 -0.01)" />
    <path d="M23.91,162.43H21.65a22.11,22.11,0,0,1,1-5.58l2.11.77A19.66,19.66,0,0,0,23.91,162.43Z" transform="translate(-0.01 -0.01)" />
    <path d="M24.77,169.23l-2.1.77a22.4,22.4,0,0,1-1-5.57H23.9A19.61,19.61,0,0,0,24.77,169.23Z" transform="translate(-0.01 -0.01)" />
    <path d="M27.91,175.31l-1.71,1.44a21.77,21.77,0,0,1-2.84-4.87l2.1-.77A19.8,19.8,0,0,0,27.91,175.31Z" transform="translate(-0.01 -0.01)" />
    <path d="M59.4,151.51l1.73-1.45A22.58,22.58,0,0,1,64,155l-2.1.77A19.59,19.59,0,0,0,59.4,151.51Z" transform="translate(-0.01 -0.01)" />
    <path d="M62.53,157.62l2.11-.77a22.11,22.11,0,0,1,1,5.58h-2.3A19.69,19.69,0,0,0,62.53,157.62Z" transform="translate(-0.01 -0.01)" />
    <path d="M63.35,164.43h2.24a22,22,0,0,1-1,5.57l-2.1-.77A19.6,19.6,0,0,0,63.35,164.43Z" transform="translate(-0.01 -0.01)" />
    <path d="M61.79,171.11l2.1.77a21.39,21.39,0,0,1-2.84,4.87l-1.71-1.44A19.39,19.39,0,0,0,61.79,171.11Z" transform="translate(-0.01 -0.01)" />
    <path d="M32.93,180l-1.12,1.93a22.21,22.21,0,0,1-4.31-3.61l1.71-1.44A19.81,19.81,0,0,0,32.93,180Z" transform="translate(-0.01 -0.01)" />
    <path d="M58,176.84l1.72,1.43a21.69,21.69,0,0,1-4.32,3.62L54.32,180A19.46,19.46,0,0,0,58,176.84Z" transform="translate(-0.01 -0.01)" />
    <path d="M54.38,146.81l1.12-1.95a22.41,22.41,0,0,1,4.35,3.66L58.12,150A19.67,19.67,0,0,0,54.38,146.81Z" transform="translate(-0.01 -0.01)" />
    <g>
      <path d="M36.39,73.6H34.55l-.48-1.38H31.48L31,73.6H29.15l2.63-6.77h2Zm-2.74-2.55-.87-2.47-.88,2.47Z" transform="translate(-0.01 -0.01)" />
      <path d="M40,73.31a3.18,3.18,0,0,1-.67.25,2.74,2.74,0,0,1-.81.12c-1.11,0-1.67-.62-1.67-1.85v-2h-.7v-.31l2.08-2.4h.17V68.6h1.48v1.23H38.43v1.59a3.38,3.38,0,0,0,0,.45.46.46,0,0,0,.17.28.67.67,0,0,0,.43.12,2.11,2.11,0,0,0,1-.35Z" transform="translate(-0.01 -0.01)" />
      <path d="M43.8,73.31a3.09,3.09,0,0,1-.66.25,2.74,2.74,0,0,1-.81.12c-1.11,0-1.67-.62-1.67-1.85v-2H40v-.31l2-2.38h.18v1.48h1.48v1.23H42.21v1.59a3.38,3.38,0,0,0,0,.45.46.46,0,0,0,.17.28.63.63,0,0,0,.42.12,2.11,2.11,0,0,0,1-.35Z" transform="translate(-0.01 -0.01)" />
      <path d="M48.67,73.35a5.87,5.87,0,0,1-.63.24,2,2,0,0,1-.69.09.72.72,0,0,1-.53-.15.87.87,0,0,1-.22-.37,2,2,0,0,1-.55.37,1.81,1.81,0,0,1-.8.15,1.48,1.48,0,0,1-.77-.18,1.09,1.09,0,0,1-.42-.48,1.71,1.71,0,0,1-.11-.59,1.36,1.36,0,0,1,.2-.76,1.72,1.72,0,0,1,.55-.49,7.33,7.33,0,0,1,.91-.39l.49-.18.24-.1.18-.08a1.14,1.14,0,0,0-.13-.57.63.63,0,0,0-.56-.21,1.85,1.85,0,0,0-.94.26,3.61,3.61,0,0,0-.8.65V69.22a2.55,2.55,0,0,1,.63-.39,3.55,3.55,0,0,1,.7-.22,3.61,3.61,0,0,1,.73-.07,2.15,2.15,0,0,1,1.43.41,1.44,1.44,0,0,1,.48,1.15V72a1.41,1.41,0,0,0,0,.41.15.15,0,0,0,.16.14.81.81,0,0,0,.4-.15Zm-2.15-1V71.22a4.62,4.62,0,0,0-.81.45.68.68,0,0,0-.25.55.52.52,0,0,0,.13.38.37.37,0,0,0,.29.14.58.58,0,0,0,.32-.1,3.92,3.92,0,0,0,.32-.25Z" transform="translate(-0.01 -0.01)" />
      <path d="M52.55,73.37l-.41.15a2,2,0,0,1-.48.12,2.91,2.91,0,0,1-.59,0,2.55,2.55,0,0,1-1.21-.27,2.25,2.25,0,0,1-.77-.7,2.68,2.68,0,0,1-.37-.85,3,3,0,0,1,0-1.53,2.63,2.63,0,0,1,.37-.84,2,2,0,0,1,.76-.68,2.59,2.59,0,0,1,1.22-.27,3.47,3.47,0,0,1,.79.07l.62.21v1.39a3.64,3.64,0,0,0-1.18-.28,1.05,1.05,0,0,0-.73.29,1.1,1.1,0,0,0-.32.88,1.36,1.36,0,0,0,.15.66,1.06,1.06,0,0,0,.9.53,1.89,1.89,0,0,0,.53-.08,2.78,2.78,0,0,0,.72-.23Z" transform="translate(-0.01 -0.01)" />
      <path d="M58.15,73.6h-2L54.5,71.24V73.6H52.94V66.83H54.5v4L56,68.62h1.85l-1.71,2.32Z" transform="translate(-0.01 -0.01)" />
    </g>
    <g>
      <path d="M43.62,26.74a20,20,0,0,0-2.45.16l-.39-2.21a21.68,21.68,0,0,1,5.69,0l-.39,2.21A20.19,20.19,0,0,0,43.62,26.74Z" transform="translate(-0.01 -0.01)" />
      <path d="M29.13,33.11l-1.72-1.45A22.06,22.06,0,0,1,31.75,28l1.12,1.94A19.88,19.88,0,0,0,29.13,33.11Z" transform="translate(-0.01 -0.01)" />
      <path d="M34.6,28.94l-1.13-2A21.62,21.62,0,0,1,38.81,25l.39,2.21A19.35,19.35,0,0,0,34.6,28.94Z" transform="translate(-0.01 -0.01)" />
      <path d="M25.39,38.87l-2.1-.76a22.29,22.29,0,0,1,2.83-4.92l1.73,1.45A19.63,19.63,0,0,0,25.39,38.87Z" transform="translate(-0.01 -0.01)" />
      <path d="M48.05,27.25,48.44,25a21.56,21.56,0,0,1,5.33,2l-1.12,2A19,19,0,0,0,48.05,27.25Z" transform="translate(-0.01 -0.01)" />
      <path d="M23.91,45.57H21.65a22.11,22.11,0,0,1,1-5.58l2.11.77A19.66,19.66,0,0,0,23.91,45.57Z" transform="translate(-0.01 -0.01)" />
      <path d="M24.77,52.37l-2.1.76a21.87,21.87,0,0,1-1-5.56H23.9A19.61,19.61,0,0,0,24.77,52.37Z" transform="translate(-0.01 -0.01)" />
      <path d="M27.91,58.45,26.2,59.89A21.9,21.9,0,0,1,23.36,55l2.1-.76A20.57,20.57,0,0,0,27.91,58.45Z" transform="translate(-0.01 -0.01)" />
      <path d="M59.4,34.64l1.73-1.45A22.45,22.45,0,0,1,64,38.11l-2.1.76A19.39,19.39,0,0,0,59.4,34.64Z" transform="translate(-0.01 -0.01)" />
      <path d="M62.53,40.75,64.64,40a21.67,21.67,0,0,1,1,5.58h-2.3A19.76,19.76,0,0,0,62.53,40.75Z" transform="translate(-0.01 -0.01)" />
      <path d="M63.35,47.57h2.24a21.87,21.87,0,0,1-1,5.56l-2.1-.76A20.08,20.08,0,0,0,63.35,47.57Z" transform="translate(-0.01 -0.01)" />
      <path d="M61.79,54.25l2.1.76a21.46,21.46,0,0,1-2.84,4.88l-1.71-1.44A19.39,19.39,0,0,0,61.79,54.25Z" transform="translate(-0.01 -0.01)" />
      <path d="M32.93,63.09,31.81,65a22.26,22.26,0,0,1-4.31-3.62L29.21,60A19.65,19.65,0,0,0,32.93,63.09Z" transform="translate(-0.01 -0.01)" />
      <path d="M58,60l1.72,1.44A22.13,22.13,0,0,1,55.44,65l-1.12-1.94A19,19,0,0,0,58,60Z" transform="translate(-0.01 -0.01)" />
      <path d="M54.38,29.94,55.5,28a22.41,22.41,0,0,1,4.35,3.66l-1.73,1.45A19.57,19.57,0,0,0,54.38,29.94Z" transform="translate(-0.01 -0.01)" />
    </g>
    <g>
      <path d="M102.13,69.66a3.55,3.55,0,0,1-.33,1.67,3.3,3.3,0,0,1-.78,1,2.57,2.57,0,0,1-1.79.57H96V66.15h2.48a6.63,6.63,0,0,1,1,.07,3.47,3.47,0,0,1,.72.19,2.24,2.24,0,0,1,.54.26,3.12,3.12,0,0,1,.4.32,3.07,3.07,0,0,1,.53.67,3.22,3.22,0,0,1,.37.9A4.06,4.06,0,0,1,102.13,69.66Zm-1.82-.09a2.38,2.38,0,0,0-.28-1.28,1.37,1.37,0,0,0-.66-.62,2,2,0,0,0-.8-.16h-.76v4h.76a2,2,0,0,0,1.22-.38A1.85,1.85,0,0,0,100.31,69.57Z" transform="translate(-0.01 -0.01)" />
      <path d="M107.12,70.86H104a1.3,1.3,0,0,0,1.24,1,3.62,3.62,0,0,0,1.73-.5v1.09a3.56,3.56,0,0,1-.82.37A4.06,4.06,0,0,1,105,73a2.57,2.57,0,0,1-1.38-.34,2.18,2.18,0,0,1-.85-.93,3.21,3.21,0,0,1-.28-1.33,3.12,3.12,0,0,1,.28-1.31,2.13,2.13,0,0,1,.85-.91,2.78,2.78,0,0,1,1.38-.33,2.32,2.32,0,0,1,1,.26,2,2,0,0,1,.81.86,3,3,0,0,1,.32,1.53ZM105.67,70a1.22,1.22,0,0,0-.21-.76.7.7,0,0,0-.6-.29.78.78,0,0,0-.62.29A1.23,1.23,0,0,0,104,70Z" transform="translate(-0.01 -0.01)" />
      <path d="M111.28,72.69l-.41.16a4.15,4.15,0,0,1-.48.11,3.81,3.81,0,0,1-.59.05,2.32,2.32,0,0,1-1.21-.28,2.13,2.13,0,0,1-.77-.69,2.93,2.93,0,0,1-.37-.85,3.09,3.09,0,0,1,0-1.54,3.24,3.24,0,0,1,.37-.83,2,2,0,0,1,.76-.68,2.48,2.48,0,0,1,1.22-.28,3.22,3.22,0,0,1,1.41.29v1.38a3.9,3.9,0,0,0-1.18-.27,1,1,0,0,0-.73.28,1.1,1.1,0,0,0-.32.88,1.43,1.43,0,0,0,.15.67,1,1,0,0,0,.9.52,1.89,1.89,0,0,0,.53-.08,2.7,2.7,0,0,0,.72-.22Z" transform="translate(-0.01 -0.01)" />
      <path d="M116.22,72.67l-.63.25a2,2,0,0,1-.69.09.76.76,0,0,1-.54-.15,1,1,0,0,1-.21-.38,2.34,2.34,0,0,1-.55.38,1.81,1.81,0,0,1-.8.15,1.43,1.43,0,0,1-.78-.19,1,1,0,0,1-.41-.47,1.52,1.52,0,0,1-.12-.59,1.29,1.29,0,0,1,.21-.76,1.62,1.62,0,0,1,.55-.49,6.62,6.62,0,0,1,.91-.4l.48-.17.25-.1a.56.56,0,0,0,.17-.09.93.93,0,0,0-.13-.56c-.08-.14-.27-.21-.55-.21a1.94,1.94,0,0,0-.94.25,3.39,3.39,0,0,0-.8.66V68.54a3,3,0,0,1,.62-.38,3.55,3.55,0,0,1,.7-.22,3.72,3.72,0,0,1,.74-.08,2.1,2.1,0,0,1,1.43.42,1.4,1.4,0,0,1,.48,1.15v1.92a1.41,1.41,0,0,0,0,.41.16.16,0,0,0,.16.13,1,1,0,0,0,.4-.14Zm-2.16-1V70.54a4.25,4.25,0,0,0-.8.46.68.68,0,0,0-.25.55.58.58,0,0,0,.12.38.43.43,0,0,0,.3.13.5.5,0,0,0,.31-.1,1.91,1.91,0,0,0,.32-.24Z" transform="translate(-0.01 -0.01)" />
      <path d="M121,68l-3,7.23h-1.5l1.2-2.91L116,68h1.66l.89,2.47,1-2.47Z" transform="translate(-0.01 -0.01)" />
    </g>
    <path d="M108.12,26.06a20,20,0,0,0-2.45.17L105.28,24A21.07,21.07,0,0,1,111,24l-.39,2.21A20.67,20.67,0,0,0,108.12,26.06Z" transform="translate(-0.01 -0.01)" />
    <path d="M93.63,32.43,91.91,31a22,22,0,0,1,4.34-3.65l1.12,1.94A19.72,19.72,0,0,0,93.63,32.43Z" transform="translate(-0.01 -0.01)" />
    <path d="M99.1,28.26,98,26.32a22.62,22.62,0,0,1,5.34-2l.39,2.22A19.7,19.7,0,0,0,99.1,28.26Z" transform="translate(-0.01 -0.01)" />
    <path d="M89.89,38.2l-2.1-.76a22.29,22.29,0,0,1,2.83-4.92L92.35,34A19.84,19.84,0,0,0,89.89,38.2Z" transform="translate(-0.01 -0.01)" />
    <path d="M112.55,26.58l.39-2.22a22,22,0,0,1,5.33,2l-1.12,1.94A19.76,19.76,0,0,0,112.55,26.58Z" transform="translate(-0.01 -0.01)" />
    <path d="M88.41,44.9H86.15a22.1,22.1,0,0,1,1-5.59l2.11.77A19.74,19.74,0,0,0,88.41,44.9Z" transform="translate(-0.01 -0.01)" />
    <path d="M89.27,51.69l-2.1.77a22.32,22.32,0,0,1-1-5.56H88.4A19.92,19.92,0,0,0,89.27,51.69Z" transform="translate(-0.01 -0.01)" />
    <path d="M92.41,57.78,90.7,59.21a21.77,21.77,0,0,1-2.84-4.87l2.1-.77A20.57,20.57,0,0,0,92.41,57.78Z" transform="translate(-0.01 -0.01)" />
    <path d="M123.9,34l1.73-1.45a22.22,22.22,0,0,1,2.83,4.91l-2.1.77A19.63,19.63,0,0,0,123.9,34Z" transform="translate(-0.01 -0.01)" />
    <path d="M127,40.08l2.11-.77a21.67,21.67,0,0,1,1,5.58h-2.26A19.2,19.2,0,0,0,127,40.08Z" transform="translate(-0.01 -0.01)" />
    <path d="M127.85,46.89h2.24a22,22,0,0,1-1,5.57l-2.1-.77A19.14,19.14,0,0,0,127.85,46.89Z" transform="translate(-0.01 -0.01)" />
    <path d="M126.29,53.57l2.1.77a21.39,21.39,0,0,1-2.84,4.87l-1.71-1.44A19,19,0,0,0,126.29,53.57Z" transform="translate(-0.01 -0.01)" />
    <path d="M97.43,62.42l-1.12,1.93A21.86,21.86,0,0,1,92,60.74l1.71-1.44A19.81,19.81,0,0,0,97.43,62.42Z" transform="translate(-0.01 -0.01)" />
    <path d="M122.54,59.3l1.72,1.44a22,22,0,0,1-4.32,3.61l-1.12-1.93A19.19,19.19,0,0,0,122.54,59.3Z" transform="translate(-0.01 -0.01)" />
    <path d="M118.88,29.27,120,27.32A22.87,22.87,0,0,1,124.35,31l-1.73,1.45A19.62,19.62,0,0,0,118.88,29.27Z" transform="translate(-0.01 -0.01)" />
    <g>
      <path d="M163.05,72.92h-1.93l-.47-1.2a4.34,4.34,0,0,0-.47-1,.94.94,0,0,0-.4-.39,1.43,1.43,0,0,0-.5-.09h-.2v2.64h-1.8V66.15h3.06a2,2,0,0,1,1.21.35,2,2,0,0,1,.68.83,2.1,2.1,0,0,1,.21.92,1.86,1.86,0,0,1-.18.87,1.38,1.38,0,0,1-.37.52,2.74,2.74,0,0,1-.43.3,1.88,1.88,0,0,1,.48.45,6,6,0,0,1,.5,1.06Zm-2.44-4.63a.72.72,0,0,0-.27-.65,1.61,1.61,0,0,0-.89-.19h-.37v1.63h.38a1.74,1.74,0,0,0,.9-.16A.69.69,0,0,0,160.61,68.29Z" transform="translate(-0.01 -0.01)" />
      <path d="M167.74,70.86h-3.08a1.28,1.28,0,0,0,1.24,1,3.62,3.62,0,0,0,1.73-.5v1.09a3.38,3.38,0,0,1-.82.37,3.92,3.92,0,0,1-1.23.16,2.57,2.57,0,0,1-1.38-.34,2.18,2.18,0,0,1-.85-.93,3.21,3.21,0,0,1-.28-1.33,3.12,3.12,0,0,1,.28-1.31,2.13,2.13,0,0,1,.85-.91,2.78,2.78,0,0,1,1.38-.33,2.32,2.32,0,0,1,1,.26,2,2,0,0,1,.81.86,3,3,0,0,1,.32,1.53ZM166.29,70a1.22,1.22,0,0,0-.21-.76.69.69,0,0,0-.6-.29.78.78,0,0,0-.62.29,1.23,1.23,0,0,0-.24.76Z" transform="translate(-0.01 -0.01)" />
      <path d="M169.78,72.92h-1.55V66.15h1.55Z" transform="translate(-0.01 -0.01)" />
      <path d="M175,70.86h-3.1a1.28,1.28,0,0,0,1.24,1,3.62,3.62,0,0,0,1.73-.5v1.09a4,4,0,0,1-.82.37,4.31,4.31,0,0,1-1.24.16,2.54,2.54,0,0,1-1.37-.34,2.18,2.18,0,0,1-.85-.93,3,3,0,0,1-.28-1.33,3,3,0,0,1,.28-1.31,2.13,2.13,0,0,1,.85-.91,2.75,2.75,0,0,1,1.37-.33,2.29,2.29,0,0,1,1,.26,2,2,0,0,1,.82.86,3.24,3.24,0,0,1,.32,1.53ZM173.53,70a1.22,1.22,0,0,0-.21-.76.69.69,0,0,0-.6-.29.75.75,0,0,0-.62.29,1.23,1.23,0,0,0-.24.76Z" transform="translate(-0.01 -0.01)" />
      <path d="M179.93,72.67l-.63.25a2,2,0,0,1-.69.09.76.76,0,0,1-.54-.15,1,1,0,0,1-.21-.38,2.34,2.34,0,0,1-.55.38,1.81,1.81,0,0,1-.8.15,1.43,1.43,0,0,1-.78-.19,1,1,0,0,1-.41-.47,1.52,1.52,0,0,1-.12-.59,1.36,1.36,0,0,1,.21-.76,1.62,1.62,0,0,1,.55-.49,6.62,6.62,0,0,1,.91-.4l.48-.17.25-.1a.56.56,0,0,0,.17-.09.93.93,0,0,0-.13-.56c-.08-.14-.27-.21-.55-.21a2.06,2.06,0,0,0-1,.25,3.56,3.56,0,0,0-.79.66V68.54a3,3,0,0,1,.62-.38,3.55,3.55,0,0,1,.7-.22,3.72,3.72,0,0,1,.74-.08,2.09,2.09,0,0,1,1.43.42,1.4,1.4,0,0,1,.48,1.15v1.92a1.84,1.84,0,0,0,0,.41.17.17,0,0,0,.16.13.91.91,0,0,0,.4-.14Zm-2.16-1V70.54a4.25,4.25,0,0,0-.8.46.68.68,0,0,0-.25.55.58.58,0,0,0,.12.38.43.43,0,0,0,.3.13.5.5,0,0,0,.31-.1,1.91,1.91,0,0,0,.32-.24Z" transform="translate(-0.01 -0.01)" />
      <path d="M183.48,71.47a1.44,1.44,0,0,1-.44,1.11,1.78,1.78,0,0,1-1.31.43,3.11,3.11,0,0,1-.86-.1,6.28,6.28,0,0,1-.83-.29V71.37a5.17,5.17,0,0,0,.68.39,1.4,1.4,0,0,0,.63.13c.39,0,.58-.12.58-.36a.27.27,0,0,0-.08-.22,1.27,1.27,0,0,0-.29-.21l-.56-.29a2.13,2.13,0,0,1-.73-.57,1.37,1.37,0,0,1-.3-.89,1.61,1.61,0,0,1,.2-.71,1.54,1.54,0,0,1,.6-.56,2.18,2.18,0,0,1,1-.22h.35a4.28,4.28,0,0,1,.54.12,2.55,2.55,0,0,1,.61.26v1.22L183,69.3l-.24-.14-.37-.14a1.54,1.54,0,0,0-.43,0,.48.48,0,0,0-.36.12.31.31,0,0,0,0,.46,1.75,1.75,0,0,0,.46.26,3.53,3.53,0,0,1,.83.46,1.38,1.38,0,0,1,.44.52A1.46,1.46,0,0,1,183.48,71.47Z" transform="translate(-0.01 -0.01)" />
      <path d="M188.45,70.86h-3.08a1.28,1.28,0,0,0,1.24,1,3.62,3.62,0,0,0,1.73-.5v1.09a3.6,3.6,0,0,1-2.05.53,2.57,2.57,0,0,1-1.38-.34,2.25,2.25,0,0,1-.85-.93,3.21,3.21,0,0,1-.28-1.33,3.28,3.28,0,0,1,.28-1.31,2.13,2.13,0,0,1,.85-.91,2.78,2.78,0,0,1,1.38-.33,2.32,2.32,0,0,1,1,.26,2,2,0,0,1,.81.86,3,3,0,0,1,.32,1.53ZM187,70a1.22,1.22,0,0,0-.21-.76.69.69,0,0,0-.6-.29.78.78,0,0,0-.62.29,1.23,1.23,0,0,0-.24.76Z" transform="translate(-0.01 -0.01)" />
    </g>
    <path d="M172.62,26.06a20.17,20.17,0,0,0-2.45.17L169.78,24a21.68,21.68,0,0,1,5.69,0l-.39,2.21A20.06,20.06,0,0,0,172.62,26.06Z" transform="translate(-0.01 -0.01)" />
    <path d="M158.13,32.43,156.41,31a22.24,22.24,0,0,1,4.34-3.65l1.12,1.94A19.72,19.72,0,0,0,158.13,32.43Z" transform="translate(-0.01 -0.01)" />
    <path d="M163.6,28.26l-1.13-1.94a22.79,22.79,0,0,1,5.34-2l.39,2.22A19.93,19.93,0,0,0,163.6,28.26Z" transform="translate(-0.01 -0.01)" />
    <path d="M154.39,38.2l-2.1-.76a22.69,22.69,0,0,1,2.83-4.92L156.85,34A19.84,19.84,0,0,0,154.39,38.2Z" transform="translate(-0.01 -0.01)" />
    <path d="M177.05,26.58l.39-2.22a22,22,0,0,1,5.33,2l-1.12,1.94A19.76,19.76,0,0,0,177.05,26.58Z" transform="translate(-0.01 -0.01)" />
    <path d="M152.91,44.9h-2.26a22.1,22.1,0,0,1,1-5.59l2.11.77A19.74,19.74,0,0,0,152.91,44.9Z" transform="translate(-0.01 -0.01)" />
    <path d="M153.77,51.69l-2.1.77a22.32,22.32,0,0,1-1-5.56h2.24A19.91,19.91,0,0,0,153.77,51.69Z" transform="translate(-0.01 -0.01)" />
    <path d="M156.91,57.78l-1.71,1.43a21.77,21.77,0,0,1-2.84-4.87l2.1-.77A20.57,20.57,0,0,0,156.91,57.78Z" transform="translate(-0.01 -0.01)" />
    <path d="M188.4,34l1.73-1.45A22.18,22.18,0,0,1,193,37.43l-2.1.77A19.19,19.19,0,0,0,188.4,34Z" transform="translate(-0.01 -0.01)" />
    <path d="M191.53,40.08l2.11-.77a21.67,21.67,0,0,1,1,5.58h-2.26A19.2,19.2,0,0,0,191.53,40.08Z" transform="translate(-0.01 -0.01)" />
    <path d="M192.35,46.89h2.24a22,22,0,0,1-1,5.57l-2.1-.77A19.14,19.14,0,0,0,192.35,46.89Z" transform="translate(-0.01 -0.01)" />
    <path d="M190.79,53.57l2.1.77a21.39,21.39,0,0,1-2.84,4.87l-1.71-1.44A19,19,0,0,0,190.79,53.57Z" transform="translate(-0.01 -0.01)" />
    <path d="M161.93,62.42l-1.12,1.93a21.86,21.86,0,0,1-4.31-3.61l1.71-1.44A19.81,19.81,0,0,0,161.93,62.42Z" transform="translate(-0.01 -0.01)" />
    <path d="M187,59.3l1.72,1.44a22,22,0,0,1-4.32,3.61l-1.12-1.93A19.19,19.19,0,0,0,187,59.3Z" transform="translate(-0.01 -0.01)" />
    <path d="M183.38,29.27l1.12-1.95A22.87,22.87,0,0,1,188.85,31l-1.73,1.45A19.32,19.32,0,0,0,183.38,29.27Z" transform="translate(-0.01 -0.01)" />
    <g>
      <path d="M33.57,131H31.73l-.48-1.37H28.66l-.5,1.37H26.33L29,124.28h2Zm-2.74-2.55L30,126l-.88,2.47Z" transform="translate(-0.01 -0.01)" />
      <path d="M41.6,130.54a4.35,4.35,0,0,1-.76.35,3.4,3.4,0,0,1-.78.18,5.52,5.52,0,0,1-.81.06,3.7,3.7,0,0,1-1.39-.24,3.11,3.11,0,0,1-1.07-.72,2.94,2.94,0,0,1-.68-1.12,4.15,4.15,0,0,1-.23-1.4,4,4,0,0,1,.27-1.53,3.1,3.1,0,0,1,.74-1.09,3.28,3.28,0,0,1,1.1-.64,4.05,4.05,0,0,1,1.29-.21,6.27,6.27,0,0,1,2.3.52v1.79a7,7,0,0,0-.88-.52,2.42,2.42,0,0,0-1-.21,2.05,2.05,0,0,0-1,.24,2,2,0,0,0-.72.67,1.87,1.87,0,0,0-.28,1,1.91,1.91,0,0,0,.24.94,1.84,1.84,0,0,0,1.67.93,2.81,2.81,0,0,0,.82-.12,3,3,0,0,0,.65-.26c.17-.1.35-.22.54-.35Z" transform="translate(-0.01 -0.01)" />
      <path d="M46.81,131H45.26v-.7a2.39,2.39,0,0,1-.68.59,1.66,1.66,0,0,1-.87.2,1.24,1.24,0,0,1-1.28-.66,3.59,3.59,0,0,1-.29-1.48V126h1.55v2.69a2.15,2.15,0,0,0,.11.71.49.49,0,0,0,.52.3.65.65,0,0,0,.54-.22,3.17,3.17,0,0,0,.4-.56V126h1.55Z" transform="translate(-0.01 -0.01)" />
      <path d="M51.3,126.34l-.58,1.76a1,1,0,0,0-.71-.38.75.75,0,0,0-.56.25,2.53,2.53,0,0,0-.46.93V131H47.44v-5H49v1.2a2.88,2.88,0,0,1,.51-.86,1.17,1.17,0,0,1,.87-.43,1.18,1.18,0,0,1,.46.09A5.48,5.48,0,0,1,51.3,126.34Z" transform="translate(-0.01 -0.01)" />
      <path d="M56.05,126.07l-2,5H52.92l-2-5h1.66l.91,2.6,1-2.6Z" transform="translate(-0.01 -0.01)" />
      <path d="M60.7,129H57.62a1.21,1.21,0,0,0,.44.74,1.23,1.23,0,0,0,.8.29,3.62,3.62,0,0,0,1.73-.5v1.09a4,4,0,0,1-.82.37,3.65,3.65,0,0,1-1.23.16,2.57,2.57,0,0,1-1.38-.34,2.18,2.18,0,0,1-.85-.93,3.21,3.21,0,0,1-.28-1.33,3.12,3.12,0,0,1,.28-1.31,2.13,2.13,0,0,1,.85-.91,2.76,2.76,0,0,1,1.38-.33,2.17,2.17,0,0,1,1,.27,1.9,1.9,0,0,1,.81.85,3.24,3.24,0,0,1,.32,1.53Zm-1.45-.87a1.22,1.22,0,0,0-.21-.76.7.7,0,0,0-.6-.29.78.78,0,0,0-.62.29,1.23,1.23,0,0,0-.24.76Z" transform="translate(-0.01 -0.01)" />
    </g>
    <path d="M43.62,85.05a18.23,18.23,0,0,0-2.45.17L40.78,83a21.68,21.68,0,0,1,5.69,0l-.39,2.21A20.19,20.19,0,0,0,43.62,85.05Z" transform="translate(-0.01 -0.01)" />
    <path d="M29.13,91.42,27.41,90a22.06,22.06,0,0,1,4.34-3.66l1.12,1.94A20.1,20.1,0,0,0,29.13,91.42Z" transform="translate(-0.01 -0.01)" />
    <path d="M34.6,87.25l-1.13-2a21.78,21.78,0,0,1,5.34-2l.39,2.21A19.51,19.51,0,0,0,34.6,87.25Z" transform="translate(-0.01 -0.01)" />
    <path d="M25.39,97.19l-2.1-.77a22.29,22.29,0,0,1,2.83-4.92L27.85,93A19.6,19.6,0,0,0,25.39,97.19Z" transform="translate(-0.01 -0.01)" />
    <path d="M48.05,85.56l.39-2.21a21.56,21.56,0,0,1,5.33,2l-1.12,2A19.35,19.35,0,0,0,48.05,85.56Z" transform="translate(-0.01 -0.01)" />
    <path d="M23.91,103.88H21.65a22.11,22.11,0,0,1,1-5.58l2.11.77A19.66,19.66,0,0,0,23.91,103.88Z" transform="translate(-0.01 -0.01)" />
    <path d="M24.77,110.68l-2.1.76a21.87,21.87,0,0,1-1-5.56H23.9A19.61,19.61,0,0,0,24.77,110.68Z" transform="translate(-0.01 -0.01)" />
    <path d="M27.91,116.76,26.2,118.2a22.06,22.06,0,0,1-2.84-4.88l2.1-.76A20.5,20.5,0,0,0,27.91,116.76Z" transform="translate(-0.01 -0.01)" />
    <path d="M59.4,93l1.73-1.45A22.51,22.51,0,0,1,64,96.42l-2.1.76A20.12,20.12,0,0,0,59.4,93Z" transform="translate(-0.01 -0.01)" />
    <path d="M62.53,99.07l2.11-.77a21.67,21.67,0,0,1,1,5.58h-2.3A19.61,19.61,0,0,0,62.53,99.07Z" transform="translate(-0.01 -0.01)" />
    <path d="M63.35,105.88h2.24a21.87,21.87,0,0,1-1,5.56l-2.1-.76A20.08,20.08,0,0,0,63.35,105.88Z" transform="translate(-0.01 -0.01)" />
    <path d="M61.79,112.56l2.1.76a21.25,21.25,0,0,1-2.84,4.88l-1.71-1.44A19.39,19.39,0,0,0,61.79,112.56Z" transform="translate(-0.01 -0.01)" />
    <path d="M32.93,121.4l-1.12,1.94a22.26,22.26,0,0,1-4.31-3.62l1.71-1.43A19.76,19.76,0,0,0,32.93,121.4Z" transform="translate(-0.01 -0.01)" />
    <path d="M58,118.28l1.72,1.44a22.38,22.38,0,0,1-4.32,3.62l-1.12-1.94A19.19,19.19,0,0,0,58,118.28Z" transform="translate(-0.01 -0.01)" />
    <path d="M54.38,88.25l1.12-1.94A22.56,22.56,0,0,1,59.85,90l-1.73,1.45A19.72,19.72,0,0,0,54.38,88.25Z" transform="translate(-0.01 -0.01)" />
    <g>
      <path d="M97.7,127.78a3.55,3.55,0,0,1-.33,1.67,3.18,3.18,0,0,1-.79,1,2.57,2.57,0,0,1-1.79.57H91.58v-6.76h2.47a8.26,8.26,0,0,1,1,.06,5.42,5.42,0,0,1,.72.19,2.73,2.73,0,0,1,.54.27,2.08,2.08,0,0,1,.4.32,2.8,2.8,0,0,1,.53.66,3.35,3.35,0,0,1,.37.9A4.24,4.24,0,0,1,97.7,127.78Zm-1.82-.09a2.5,2.5,0,0,0-.28-1.28,1.44,1.44,0,0,0-.67-.62,2.37,2.37,0,0,0-.79-.16h-.76v4h.76a2,2,0,0,0,1.22-.38A1.88,1.88,0,0,0,95.88,127.69Z" transform="translate(-0.01 -0.01)" />
      <path d="M106.05,130.54a4,4,0,0,1-.76.35,3.45,3.45,0,0,1-.77.18,5.55,5.55,0,0,1-.82.06,3.7,3.7,0,0,1-1.39-.24,3.21,3.21,0,0,1-1.07-.72,3.07,3.07,0,0,1-.68-1.12,4.42,4.42,0,0,1-.23-1.4,4,4,0,0,1,.27-1.53,3.24,3.24,0,0,1,.74-1.09,3.38,3.38,0,0,1,1.1-.64,4.05,4.05,0,0,1,1.29-.21,6.22,6.22,0,0,1,2.3.52v1.79a7,7,0,0,0-.88-.52,2.42,2.42,0,0,0-1-.21,2.05,2.05,0,0,0-1,.24,2,2,0,0,0-.72.67,1.87,1.87,0,0,0-.28,1,1.91,1.91,0,0,0,.24.94,1.82,1.82,0,0,0,.67.68,1.86,1.86,0,0,0,1,.25,2.81,2.81,0,0,0,.82-.12,3,3,0,0,0,.65-.26c.17-.1.36-.22.54-.35Z" transform="translate(-0.01 -0.01)" />
      <path d="M111.26,131h-1.55v-.7a2.39,2.39,0,0,1-.68.59,1.62,1.62,0,0,1-.87.2,1.24,1.24,0,0,1-1.28-.66,3.76,3.76,0,0,1-.29-1.48V126h1.55v2.69a2.45,2.45,0,0,0,.11.71.49.49,0,0,0,.52.3.64.64,0,0,0,.54-.22,3.17,3.17,0,0,0,.4-.56V126h1.55Z" transform="translate(-0.01 -0.01)" />
      <path d="M115.75,126.34l-.58,1.76a1,1,0,0,0-.71-.38.77.77,0,0,0-.56.25,2.7,2.7,0,0,0-.46.93V131h-1.55v-5h1.55v1.2a2.88,2.88,0,0,1,.51-.86,1.13,1.13,0,0,1,1.33-.34A4,4,0,0,1,115.75,126.34Z" transform="translate(-0.01 -0.01)" />
      <path d="M120.5,126.07l-2,5h-1.14l-2-5H117l.91,2.6,1-2.6Z" transform="translate(-0.01 -0.01)" />
      <path d="M125.15,129h-3.08a1.27,1.27,0,0,0,1.24,1,3.62,3.62,0,0,0,1.73-.5v1.09a4,4,0,0,1-.82.37,3.65,3.65,0,0,1-1.23.16,2.57,2.57,0,0,1-1.38-.34,2.18,2.18,0,0,1-.85-.93,3.21,3.21,0,0,1-.28-1.33,3.12,3.12,0,0,1,.28-1.31,2.2,2.2,0,0,1,.85-.91A2.82,2.82,0,0,1,123,126a2.17,2.17,0,0,1,1,.27,1.85,1.85,0,0,1,.81.85,3,3,0,0,1,.32,1.53Zm-1.45-.87a1.22,1.22,0,0,0-.21-.76.7.7,0,0,0-.6-.29.78.78,0,0,0-.62.29,1.23,1.23,0,0,0-.24.76Z" transform="translate(-0.01 -0.01)" />
    </g>
    <path d="M108.12,85.05a20,20,0,0,0-2.45.17L105.28,83A21.91,21.91,0,0,1,111,83l-.39,2.22A20.55,20.55,0,0,0,108.12,85.05Z" transform="translate(-0.01 -0.01)" />
    <path d="M93.63,91.42,91.91,90a22.35,22.35,0,0,1,4.34-3.66l1.12,1.94A20.43,20.43,0,0,0,93.63,91.42Z" transform="translate(-0.01 -0.01)" />
    <path d="M99.1,87.25l-1.1-2a21.78,21.78,0,0,1,5.34-2l.39,2.21A20.21,20.21,0,0,0,99.1,87.25Z" transform="translate(-0.01 -0.01)" />
    <path d="M89.89,97.19l-2.1-.77a22.29,22.29,0,0,1,2.83-4.92L92.35,93A20,20,0,0,0,89.89,97.19Z" transform="translate(-0.01 -0.01)" />
    <path d="M112.55,85.56l.39-2.21a21.56,21.56,0,0,1,5.33,2l-1.12,2A19.35,19.35,0,0,0,112.55,85.56Z" transform="translate(-0.01 -0.01)" />
    <path d="M88.41,103.88H86.15a22.11,22.11,0,0,1,1-5.58l2.11.77A19.66,19.66,0,0,0,88.41,103.88Z" transform="translate(-0.01 -0.01)" />
    <path d="M89.27,110.68l-2.1.76a22.32,22.32,0,0,1-1-5.56H88.4A19.61,19.61,0,0,0,89.27,110.68Z" transform="translate(-0.01 -0.01)" />
    <path d="M92.41,116.76,90.7,118.2a22.46,22.46,0,0,1-2.84-4.88l2.1-.76A20.24,20.24,0,0,0,92.41,116.76Z" transform="translate(-0.01 -0.01)" />
    <path d="M123.9,93l1.73-1.45a22.29,22.29,0,0,1,2.83,4.92l-2.1.76A19.88,19.88,0,0,0,123.9,93Z" transform="translate(-0.01 -0.01)" />
    <path d="M127,99.07l2.11-.77a21.67,21.67,0,0,1,1,5.58h-2.26A19.2,19.2,0,0,0,127,99.07Z" transform="translate(-0.01 -0.01)" />
    <path d="M127.85,105.88h2.24a21.87,21.87,0,0,1-1,5.56l-2.1-.76A19.14,19.14,0,0,0,127.85,105.88Z" transform="translate(-0.01 -0.01)" />
    <path d="M126.29,112.56l2.1.76a21.25,21.25,0,0,1-2.84,4.88l-1.71-1.44A19.39,19.39,0,0,0,126.29,112.56Z" transform="translate(-0.01 -0.01)" />
    <path d="M97.43,121.4l-1.12,1.94A22.26,22.26,0,0,1,92,119.72l1.71-1.43A19.76,19.76,0,0,0,97.43,121.4Z" transform="translate(-0.01 -0.01)" />
    <path d="M122.54,118.28l1.72,1.44a22.38,22.38,0,0,1-4.32,3.62l-1.12-1.94A19.19,19.19,0,0,0,122.54,118.28Z" transform="translate(-0.01 -0.01)" />
    <path d="M118.88,88.25,120,86.31A22.26,22.26,0,0,1,124.35,90l-1.73,1.45A19.72,19.72,0,0,0,118.88,88.25Z" transform="translate(-0.01 -0.01)" />
    <g>
      <path d="M162.17,131h-1.93l-.47-1.2a4.76,4.76,0,0,0-.46-1,1,1,0,0,0-.4-.39,1.44,1.44,0,0,0-.51-.09h-.2V131h-1.8v-6.76h3.06a2,2,0,0,1,1.21.34,2,2,0,0,1,.68.83,2.14,2.14,0,0,1,.21.93,2,2,0,0,1-.17.86,1.46,1.46,0,0,1-.37.52,3.41,3.41,0,0,1-.44.3,1.75,1.75,0,0,1,.48.46,6.27,6.27,0,0,1,.51,1Zm-2.44-4.63a.72.72,0,0,0-.27-.65,1.67,1.67,0,0,0-.88-.19h-.38v1.64h.39a1.65,1.65,0,0,0,.9-.17.69.69,0,0,0,.24-.59Z" transform="translate(-0.01 -0.01)" />
      <path d="M170.23,130.54a4,4,0,0,1-.76.35,3.4,3.4,0,0,1-.78.18,5.42,5.42,0,0,1-.81.06,3.75,3.75,0,0,1-1.4-.24,3,3,0,0,1-1.75-1.84,4.6,4.6,0,0,1,0-2.93,3.17,3.17,0,0,1,.75-1.09,3.33,3.33,0,0,1,1.09-.64,4.05,4.05,0,0,1,1.29-.21,6,6,0,0,1,2.3.52v1.79a6.25,6.25,0,0,0-.87-.52,2.42,2.42,0,0,0-1-.21,2.05,2.05,0,0,0-1,.24,2.13,2.13,0,0,0-.73.67,2,2,0,0,0-.27,1,1.91,1.91,0,0,0,.24.94,1.75,1.75,0,0,0,.67.68,1.78,1.78,0,0,0,1,.25,2.81,2.81,0,0,0,.82-.12,2.85,2.85,0,0,0,.65-.26c.18-.1.36-.22.55-.35Z" transform="translate(-0.01 -0.01)" />
      <path d="M175.44,131h-1.55v-.7a2.3,2.3,0,0,1-.69.59,1.7,1.7,0,0,1-.86.2,1.24,1.24,0,0,1-1.28-.66,3.56,3.56,0,0,1-.29-1.48V126h1.54v2.69a2.16,2.16,0,0,0,.12.71.49.49,0,0,0,.51.3.64.64,0,0,0,.54-.22,2.78,2.78,0,0,0,.41-.56V126h1.55Z" transform="translate(-0.01 -0.01)" />
      <path d="M179.92,126.34l-.57,1.76a1,1,0,0,0-.71-.38.79.79,0,0,0-.57.25,2.7,2.7,0,0,0-.46.93V131h-1.54v-5h1.54v1.2a2.61,2.61,0,0,1,.52-.86,1.13,1.13,0,0,1,1.33-.34A3.22,3.22,0,0,1,179.92,126.34Z" transform="translate(-0.01 -0.01)" />
      <path d="M184.67,126.07l-2,5h-1.14l-1.94-5h1.66l.91,2.6,1-2.6Z" transform="translate(-0.01 -0.01)" />
      <path d="M189.33,129h-3.08a1.26,1.26,0,0,0,.44.74,1.2,1.2,0,0,0,.8.29,3.62,3.62,0,0,0,1.73-.5v1.09a3.72,3.72,0,0,1-2.06.53,2.54,2.54,0,0,1-1.37-.34,2.25,2.25,0,0,1-.85-.93,3,3,0,0,1-.28-1.33,3,3,0,0,1,.28-1.31,2.2,2.2,0,0,1,.85-.91,2.75,2.75,0,0,1,1.37-.33,2.17,2.17,0,0,1,1,.27,2,2,0,0,1,.82.85,3.24,3.24,0,0,1,.32,1.53Zm-1.45-.87a1.22,1.22,0,0,0-.21-.76.69.69,0,0,0-.6-.29.82.82,0,0,0-.63.29,1.23,1.23,0,0,0-.24.76Z" transform="translate(-0.01 -0.01)" />
    </g>
    <path d="M172.62,85.05a18.34,18.34,0,0,0-2.45.17L169.78,83a21.68,21.68,0,0,1,5.69,0l-.39,2.22A18.26,18.26,0,0,0,172.62,85.05Z" transform="translate(-0.01 -0.01)" />
    <path d="M158.13,91.42,156.41,90a22.65,22.65,0,0,1,4.34-3.66l1.12,1.94A20.43,20.43,0,0,0,158.13,91.42Z" transform="translate(-0.01 -0.01)" />
    <path d="M163.6,87.25l-1.13-2a21.78,21.78,0,0,1,5.34-2l.39,2.21A20.6,20.6,0,0,0,163.6,87.25Z" transform="translate(-0.01 -0.01)" />
    <path d="M154.39,97.19l-2.1-.77a22.69,22.69,0,0,1,2.83-4.92l1.73,1.5A20,20,0,0,0,154.39,97.19Z" transform="translate(-0.01 -0.01)" />
    <path d="M177.05,85.56l.39-2.21a21.56,21.56,0,0,1,5.33,2l-1.12,2A19.35,19.35,0,0,0,177.05,85.56Z" transform="translate(-0.01 -0.01)" />
    <path d="M152.91,103.88h-2.26a22.11,22.11,0,0,1,1-5.58l2.11.77A19.66,19.66,0,0,0,152.91,103.88Z" transform="translate(-0.01 -0.01)" />
    <path d="M153.77,110.68l-2.1.76a22.32,22.32,0,0,1-1-5.56h2.24A20.08,20.08,0,0,0,153.77,110.68Z" transform="translate(-0.01 -0.01)" />
    <path d="M156.91,116.76l-1.71,1.44a22.46,22.46,0,0,1-2.84-4.88l2.1-.76A20.24,20.24,0,0,0,156.91,116.76Z" transform="translate(-0.01 -0.01)" />
    <path d="M188.4,93l1.73-1.45A22.11,22.11,0,0,1,193,96.42l-2.1.76A19.29,19.29,0,0,0,188.4,93Z" transform="translate(-0.01 -0.01)" />
    <path d="M191.53,99.07l2.11-.77a21.67,21.67,0,0,1,1,5.58h-2.26A19.2,19.2,0,0,0,191.53,99.07Z" transform="translate(-0.01 -0.01)" />
    <path d="M192.35,105.88h2.24a21.87,21.87,0,0,1-1,5.56l-2.1-.76A19.14,19.14,0,0,0,192.35,105.88Z" transform="translate(-0.01 -0.01)" />
    <path d="M190.79,112.56l2.1.76a21.25,21.25,0,0,1-2.84,4.88l-1.71-1.44A19.39,19.39,0,0,0,190.79,112.56Z" transform="translate(-0.01 -0.01)" />
    <path d="M161.93,121.4l-1.12,1.94a22.26,22.26,0,0,1-4.31-3.62l1.71-1.43A19.76,19.76,0,0,0,161.93,121.4Z" transform="translate(-0.01 -0.01)" />
    <path d="M187,118.28l1.72,1.44a22.38,22.38,0,0,1-4.32,3.62l-1.12-1.94A19.19,19.19,0,0,0,187,118.28Z" transform="translate(-0.01 -0.01)" />
    <path d="M183.38,88.25l1.12-1.94A22,22,0,0,1,188.85,90l-1.73,1.45A19.72,19.72,0,0,0,183.38,88.25Z" transform="translate(-0.01 -0.01)" />
    <g>
      <path d="M82.21,356.4a5.05,5.05,0,0,1-.77.39,7.19,7.19,0,0,1-.8.2,5.93,5.93,0,0,1-.84.06,4.11,4.11,0,0,1-1.43-.26,3.08,3.08,0,0,1-1.09-.8,3.63,3.63,0,0,1-.7-1.22,5.37,5.37,0,0,1-.23-1.54,4.74,4.74,0,0,1,.27-1.68,3.22,3.22,0,0,1,1.88-1.91,3.58,3.58,0,0,1,1.33-.23,5.83,5.83,0,0,1,2.35.56v2a5.59,5.59,0,0,0-.89-.57,2.16,2.16,0,0,0-1-.23,1.87,1.87,0,0,0-1,.26,1.92,1.92,0,0,0-.74.73,2.28,2.28,0,0,0-.29,1.12,2.35,2.35,0,0,0,.25,1,2,2,0,0,0,.69.74,1.78,1.78,0,0,0,1,.28,3.43,3.43,0,0,0,.85-.13,3.93,3.93,0,0,0,.66-.3,4.58,4.58,0,0,0,.56-.38Z" transform="translate(-0.01 -0.01)" />
      <path d="M90,353.23a4.56,4.56,0,0,1-.4,1.92,3.28,3.28,0,0,1-1.17,1.39,3.37,3.37,0,0,1-5-1.44,4.82,4.82,0,0,1,0-3.75,3.08,3.08,0,0,1,1.17-1.4,3.19,3.19,0,0,1,1.91-.54,3.28,3.28,0,0,1,1.51.31,2.79,2.79,0,0,1,1.09.83,3.35,3.35,0,0,1,.65,1.22A4.5,4.5,0,0,1,90,353.23Zm-1.88,0a2.51,2.51,0,0,0-.1-.77,1.69,1.69,0,0,0-.3-.6,1.28,1.28,0,0,0-.5-.39,1.58,1.58,0,0,0-1.85.38,2.48,2.48,0,0,0,0,2.76,1.41,1.41,0,0,0,1.16.53,1.65,1.65,0,0,0,.87-.24,1.62,1.62,0,0,0,.54-.68,2.6,2.6,0,0,0,.16-1Z" transform="translate(-0.01 -0.01)" />
      <path d="M98.22,357H96.38v-4.32l-1.66,2.5h-.14l-1.67-2.5V357H91.12v-7.5h1.67l1.88,2.8,1.89-2.8h1.66Z" transform="translate(-0.01 -0.01)" />
      <path d="M105.05,351.85a2.84,2.84,0,0,1-.12.81,2.15,2.15,0,0,1-.37.74,1.91,1.91,0,0,1-.7.55,2.59,2.59,0,0,1-1,.21h-1.2V357H99.77v-7.5h3a2.15,2.15,0,0,1,1,.22,1.91,1.91,0,0,1,.7.56,2,2,0,0,1,.37.74A2.83,2.83,0,0,1,105.05,351.85Zm-1.88,0a.83.83,0,0,0-.25-.73,1.56,1.56,0,0,0-.92-.2h-.39v1.8H102a3.35,3.35,0,0,0,.71-.07.69.69,0,0,0,.36-.26,1.07,1.07,0,0,0,.1-.52Z" transform="translate(-0.01 -0.01)" />
      <path d="M110.71,357h-4.64v-7.5h1.84v5.66h2.8Z" transform="translate(-0.01 -0.01)" />
      <path d="M116.38,357h-4.6v-7.5h4.53V351h-2.69v1.36h2.57v1.5h-2.57v1.59h2.76Z" transform="translate(-0.01 -0.01)" />
      <path d="M124.51,357h-2.37l-.64-.94-.39-.57c-.23-.35-.39-.58-.46-.71-.36.58-.64,1-.87,1.38l-.56.84h-2.33l2.59-3.88L117,349.51h2.36l.41.63q.36.54.87,1.35c.32-.57.57-1,.76-1.27l.48-.71h2.31l-2.37,3.57Z" transform="translate(-0.01 -0.01)" />
      <path d="M132.6,357H128v-7.5h4.53V351h-2.69v1.36h2.56v1.5h-2.56v1.59h2.76Z" transform="translate(-0.01 -0.01)" />
      <path d="M139.59,356.43l-.34.15-.27.11-.38.12a6.14,6.14,0,0,1-1.71.24,3.79,3.79,0,0,1-1.72-.41,3.23,3.23,0,0,1-1.26-1.28,4.55,4.55,0,0,1-.47-2.14,5.35,5.35,0,0,1,.24-1.6,2.71,2.71,0,0,1,.75-1.26,3.08,3.08,0,0,1,.84-.6,2.81,2.81,0,0,1,.83-.28,5.72,5.72,0,0,1,2.22.08c.35.1.74.23,1.15.39v1.76a3.8,3.8,0,0,0-.88-.49,2.64,2.64,0,0,0-1.15-.2,2,2,0,0,0-1.94,1.24,3.06,3.06,0,0,0-.19,1,2.69,2.69,0,0,0,.22,1,1.84,1.84,0,0,0,.65.76,2,2,0,0,0,1,.29,3.67,3.67,0,0,0,.75-.11v-.88h-.83v-1.5h2.44Z" transform="translate(-0.01 -0.01)" />
    </g>
    <g>
      <path d="M40.22,189.6H38.43V187h-2.7v2.64H33.89v-6.77h1.8v2.48h2.7v-2.48h1.79Z" transform="translate(-0.01 -0.01)" />
      <path d="M45.94,187.11a3.13,3.13,0,0,1-.28,1.32,2.16,2.16,0,0,1-.85.92,3.05,3.05,0,0,1-2.76,0,2.13,2.13,0,0,1-.84-.92,3.32,3.32,0,0,1-.13-2.32,2.43,2.43,0,0,1,.48-.82,2.27,2.27,0,0,1,.79-.54,2.83,2.83,0,0,1,1.08-.19,3,3,0,0,1,1.1.19,2.2,2.2,0,0,1,1.25,1.35A3.18,3.18,0,0,1,45.94,187.11Zm-1.63,0a1.69,1.69,0,0,0-.22-.93.83.83,0,0,0-1.15-.16.81.81,0,0,0-.16.16,2,2,0,0,0,0,1.85.72.72,0,0,0,.65.35.77.77,0,0,0,.66-.34A1.75,1.75,0,0,0,44.31,187.11Z" transform="translate(-0.01 -0.01)" />
      <path d="M48,189.6H46.47v-6.77H48Z" transform="translate(-0.01 -0.01)" />
      <path d="M53.36,189.6H51.81v-.45a2.39,2.39,0,0,1-.52.38,1.51,1.51,0,0,1-.75.15,1.82,1.82,0,0,1-.94-.26,1.91,1.91,0,0,1-.75-.84,2.92,2.92,0,0,1-.3-1.43,3.52,3.52,0,0,1,.22-1.28,2.25,2.25,0,0,1,.7-1,2.12,2.12,0,0,1,1.87-.26,2.2,2.2,0,0,1,.47.27v-2.09h1.55ZM51.81,188v-1.89l-.42-.25a.92.92,0,0,0-.36-.07.75.75,0,0,0-.61.35,1.6,1.6,0,0,0-.24,1,1.46,1.46,0,0,0,.25,1,.74.74,0,0,0,.6.3.9.9,0,0,0,.45-.1A2.13,2.13,0,0,0,51.81,188Z" transform="translate(-0.01 -0.01)" />
    </g>
    <path d="M172.62,143.6a22.41,22.41,0,0,0-2.45.17l-.39-2.21a21.68,21.68,0,0,1,5.69,0l-.39,2.21A20.06,20.06,0,0,0,172.62,143.6Z" transform="translate(-0.01 -0.01)" />
    <path d="M158.13,150l-1.72-1.45a22.6,22.6,0,0,1,4.34-3.65l1.12,1.94A19.83,19.83,0,0,0,158.13,150Z" transform="translate(-0.01 -0.01)" />
    <path d="M163.6,145.8l-1.13-1.94a22.79,22.79,0,0,1,5.34-2l.39,2.22A19.93,19.93,0,0,0,163.6,145.8Z" transform="translate(-0.01 -0.01)" />
    <path d="M154.39,155.74l-2.1-.77a23,23,0,0,1,2.83-4.91l1.73,1.45A20.57,20.57,0,0,0,154.39,155.74Z" transform="translate(-0.01 -0.01)" />
    <path d="M177.05,144.12l.39-2.22a21.56,21.56,0,0,1,5.33,2l-1.12,1.94A19.76,19.76,0,0,0,177.05,144.12Z" transform="translate(-0.01 -0.01)" />
    <path d="M152.91,162.43h-2.26a22.11,22.11,0,0,1,1-5.58l2.11.77A20.15,20.15,0,0,0,152.91,162.43Z" transform="translate(-0.01 -0.01)" />
    <path d="M153.77,169.23l-2.1.77a22.4,22.4,0,0,1-1-5.57h2.24A20.08,20.08,0,0,0,153.77,169.23Z" transform="translate(-0.01 -0.01)" />
    <path d="M156.91,175.31l-1.71,1.44a21.77,21.77,0,0,1-2.84-4.87l2.1-.77A19.8,19.8,0,0,0,156.91,175.31Z" transform="translate(-0.01 -0.01)" />
    <path d="M188.4,151.51l1.73-1.45A22.19,22.19,0,0,1,193,155l-2.1.77A19.59,19.59,0,0,0,188.4,151.51Z" transform="translate(-0.01 -0.01)" />
    <path d="M191.53,157.62l2.11-.77a21.67,21.67,0,0,1,1,5.58h-2.26A19.2,19.2,0,0,0,191.53,157.62Z" transform="translate(-0.01 -0.01)" />
    <path d="M192.35,164.43h2.24a22,22,0,0,1-1,5.57l-2.1-.77A19.14,19.14,0,0,0,192.35,164.43Z" transform="translate(-0.01 -0.01)" />
    <path d="M190.79,171.11l2.1.77a21.39,21.39,0,0,1-2.84,4.87l-1.71-1.44A19.39,19.39,0,0,0,190.79,171.11Z" transform="translate(-0.01 -0.01)" />
    <path d="M161.93,180l-1.12,1.93a22.21,22.21,0,0,1-4.31-3.61l1.71-1.44A19.81,19.81,0,0,0,161.93,180Z" transform="translate(-0.01 -0.01)" />
    <path d="M187,176.84l1.72,1.43a21.69,21.69,0,0,1-4.32,3.62L183.32,180A19.15,19.15,0,0,0,187,176.84Z" transform="translate(-0.01 -0.01)" />
    <path d="M183.38,146.81l1.12-1.95a22.12,22.12,0,0,1,4.35,3.66L187.12,150A19.37,19.37,0,0,0,183.38,146.81Z" transform="translate(-0.01 -0.01)" />
    <line x1="108.12" y1="83.1" x2="108.12" y2="75.32" style="fill: none;stroke: #000;stroke-miterlimit: 10.000159740447998;stroke-width: 2.0000319480895996px" />
    <line x1="172.62" y1="83.1" x2="172.62" y2="75.32" style="fill: none;stroke: #000;stroke-miterlimit: 10.000159740447998;stroke-width: 2.0000319480895996px" />
    <line x1="43.62" y1="83.1" x2="43.62" y2="75.32" style="fill: none;stroke: #000;stroke-miterlimit: 10.000159740447998;stroke-width: 2.0000319480895996px" />
    <path d="M31.44,340.67H184.38c7.49,0,13.56-7,13.56-15.71V217l-.06-6.23c-.29-8.37-6.23-15.06-13.54-15.06H31.41c-7.31,0-13.25,6.69-13.54,15.06L17.81,217v46.6L17.87,325" transform="translate(-0.01 -0.01)" style="fill: #ededed;stroke: #000;stroke-miterlimit: 10.000159740447998" />
    <path d="M198.41,314.1V289.37H36.05c-7.49,0-13.57,7.49-13.57,16.73v34.54l140.82.53h29.47a5.86,5.86,0,0,0,5.64-6V314.1Z" transform="translate(-0.01 -0.01)" />
    <path d="M17.81,315.74V292.51H39.34c7.5,0,13.57,7,13.57,15.71v32.95H23.45a5.67,5.67,0,0,1-5.64-5.67Z" transform="translate(-0.01 -0.01)" />
    <g>
      <path d="M29.43,238.44H28V233h1.44Z" transform="translate(-0.01 -0.01)" />
      <path d="M33.89,238.44H32.65V236.3a1.48,1.48,0,0,0-.1-.58.4.4,0,0,0-.41-.24.66.66,0,0,0-.27.06l-.2.17-.16.2-.12.2v2.33H30.15v-4h1.24V235a1.75,1.75,0,0,1,.58-.5,1.52,1.52,0,0,1,.66-.15c.84,0,1.26.57,1.26,1.72Z" transform="translate(-0.01 -0.01)" />
      <path d="M38.19,236.43a2.86,2.86,0,0,1-.1.77,2.54,2.54,0,0,1-.3.67,1.48,1.48,0,0,1-1.28.64,1.45,1.45,0,0,1-.54-.08,1.5,1.5,0,0,1-.39-.22v2H34.34v-5.79h1.24v.36a1.73,1.73,0,0,1,.41-.3,1.42,1.42,0,0,1,.61-.13,1.63,1.63,0,0,1,.75.22,1.62,1.62,0,0,1,.6.67A2.45,2.45,0,0,1,38.19,236.43Zm-1.3,0a1.5,1.5,0,0,0-.1-.59.68.68,0,0,0-.26-.32.64.64,0,0,0-.33-.1.9.9,0,0,0-.36.08l-.26.2v1.52l.14.09.15.08a.47.47,0,0,0,.15.06.54.54,0,0,0,.18,0,.55.55,0,0,0,.49-.28,1.2,1.2,0,0,0,.2-.71Z" transform="translate(-0.01 -0.01)" />
      <path d="M42.24,238.44H41v-.56a1.91,1.91,0,0,1-.55.47,1.28,1.28,0,0,1-.69.16,1,1,0,0,1-1-.52,3,3,0,0,1-.23-1.19v-2.34h1.24v2.15a1.79,1.79,0,0,0,.09.57.4.4,0,0,0,.41.25.52.52,0,0,0,.44-.18,2.83,2.83,0,0,0,.32-.45v-2.34h1.24Z" transform="translate(-0.01 -0.01)" />
      <path d="M45.51,238.21a2,2,0,0,1-.53.2,2.05,2.05,0,0,1-.65.1c-.89,0-1.34-.49-1.34-1.48v-1.59h-.56v-.24l1.66-1.93h.14v1.19h1.19v1H44.23v1.27a2.16,2.16,0,0,0,0,.36.34.34,0,0,0,.13.23.52.52,0,0,0,.34.09,1.57,1.57,0,0,0,.78-.28Z" transform="translate(-0.01 -0.01)" />
    </g>
    <g>
      <path d="M78.18,238.44H76.7l-.38-1.1H74.25l-.4,1.1H72.38L74.49,233h1.59Zm-2.19-2-.7-2-.71,2Z" transform="translate(-0.01 -0.01)" />
      <path d="M81.08,238.21a2,2,0,0,1-.53.2,2.05,2.05,0,0,1-.65.1c-.89,0-1.33-.49-1.33-1.48v-1.59H78v-.24l1.66-1.93h.14v1.19H81v1H79.81v1.63a.36.36,0,0,0,.14.23.52.52,0,0,0,.34.09,1.53,1.53,0,0,0,.77-.28Z" transform="translate(-0.01 -0.01)" />
      <path d="M84.11,238.21a2.06,2.06,0,0,1-.54.2,2,2,0,0,1-.64.1c-.89,0-1.34-.49-1.34-1.48v-1.59H81v-.24l1.66-1.93h.14v1.19H84v1H82.83v1.63a.39.39,0,0,0,.14.23.52.52,0,0,0,.34.09,1.57,1.57,0,0,0,.78-.28Z" transform="translate(-0.01 -0.01)" />
      <path d="M88,238.24l-.5.2a1.51,1.51,0,0,1-.56.07.54.54,0,0,1-.42-.12.65.65,0,0,1-.18-.3,1.9,1.9,0,0,1-.44.3,1.41,1.41,0,0,1-.64.12,1.14,1.14,0,0,1-.62-.15.87.87,0,0,1-.33-.38,1.27,1.27,0,0,1-.09-.47,1.12,1.12,0,0,1,.16-.61,1.49,1.49,0,0,1,.44-.39,6.66,6.66,0,0,1,.73-.31l.39-.15.2-.07.13-.07a.82.82,0,0,0-.1-.46c-.07-.11-.22-.16-.45-.16a1.53,1.53,0,0,0-.75.2,2.91,2.91,0,0,0-.63.53v-1.08a2.53,2.53,0,0,1,.49-.31,2.81,2.81,0,0,1,.56-.18,3.05,3.05,0,0,1,.6-.06,1.79,1.79,0,0,1,1.14.34,1.17,1.17,0,0,1,.38.92v1.53a.92.92,0,0,0,0,.33.14.14,0,0,0,.13.11.6.6,0,0,0,.32-.12Zm-1.73-.76v-.94a4,4,0,0,0-.64.36.57.57,0,0,0-.2.44.42.42,0,0,0,.1.31.33.33,0,0,0,.24.1.38.38,0,0,0,.25-.08.92.92,0,0,0,.25-.19Z" transform="translate(-0.01 -0.01)" />
      <path d="M91.1,238.26l-.33.12a1.24,1.24,0,0,1-.38.09,3.46,3.46,0,0,1-1.47-.22,1.6,1.6,0,0,1-.61-.55A2.13,2.13,0,0,1,88,237a2.52,2.52,0,0,1,0-1.22,2.47,2.47,0,0,1,.29-.67,1.89,1.89,0,0,1,.61-.55,2.18,2.18,0,0,1,1-.22,2.65,2.65,0,0,1,.63.07,3,3,0,0,1,.5.17v1.1a3.09,3.09,0,0,0-1-.22.84.84,0,0,0-.84.84v.09a1.07,1.07,0,0,0,.13.53.76.76,0,0,0,.32.32.78.78,0,0,0,.39.1,1.47,1.47,0,0,0,.42-.06l.58-.18Z" transform="translate(-0.01 -0.01)" />
      <path d="M95.58,238.44H94l-1.34-1.89v1.89H91.41V233h1.26v3.17l1.22-1.74h1.49L94,236.32Z" transform="translate(-0.01 -0.01)" />
    </g>
    <g>
      <path d="M127.15,235.83a2.78,2.78,0,0,1-.27,1.34,2.47,2.47,0,0,1-.62.81,2,2,0,0,1-1.44.46h-2.57V233h2a4.9,4.9,0,0,1,.77.05,3.4,3.4,0,0,1,.57.15,2.86,2.86,0,0,1,.43.21,2.78,2.78,0,0,1,.32.26,2.7,2.7,0,0,1,.43.53,2.79,2.79,0,0,1,.29.72A3.52,3.52,0,0,1,127.15,235.83Zm-1.46-.07a2,2,0,0,0-.22-1,1.17,1.17,0,0,0-.54-.49,1.69,1.69,0,0,0-.63-.13h-.61v3.21h.61a1.56,1.56,0,0,0,1-.3A1.52,1.52,0,0,0,125.69,235.76Z" transform="translate(-0.01 -0.01)" />
      <path d="M131.14,236.79h-2.46a1,1,0,0,0,1,.83,2.91,2.91,0,0,0,1.38-.4v.87a3.23,3.23,0,0,1-.66.29,2.81,2.81,0,0,1-1,.13,2,2,0,0,1-1.1-.27,1.74,1.74,0,0,1-.68-.74,2.6,2.6,0,0,1-.23-1.07,2.55,2.55,0,0,1,.23-1.05,1.75,1.75,0,0,1,.68-.72,2.24,2.24,0,0,1,1.1-.27,1.78,1.78,0,0,1,.82.21,1.57,1.57,0,0,1,.66.69,2.46,2.46,0,0,1,.25,1.22ZM130,236.1a1,1,0,0,0-.17-.61.56.56,0,0,0-.48-.23.69.69,0,0,0-.5.23,1,1,0,0,0-.19.61Z" transform="translate(-0.01 -0.01)" />
      <path d="M134.47,238.26l-.33.12a1.24,1.24,0,0,1-.39.09,1.85,1.85,0,0,1-.47,0,2,2,0,0,1-1-.22,1.78,1.78,0,0,1-.61-.55,2.67,2.67,0,0,1-.3-.69,2.52,2.52,0,0,1,0-1.22,2.87,2.87,0,0,1,.3-.67,1.78,1.78,0,0,1,.61-.55,2.06,2.06,0,0,1,1-.22,3.39,3.39,0,0,1,.64.07,2.58,2.58,0,0,1,.49.17v1.1a3,3,0,0,0-.94-.22.85.85,0,0,0-.85.83v.1a1.07,1.07,0,0,0,.13.53.81.81,0,0,0,.72.42,1.47,1.47,0,0,0,.42-.06l.58-.18Z" transform="translate(-0.01 -0.01)" />
      <path d="M138.42,238.24c-.19.08-.35.15-.51.2a1.46,1.46,0,0,1-.55.07.62.62,0,0,1-.43-.12.74.74,0,0,1-.17-.3,1.9,1.9,0,0,1-.44.3,1.41,1.41,0,0,1-.64.12,1.14,1.14,0,0,1-.62-.15.94.94,0,0,1-.33-.38,1.27,1.27,0,0,1-.09-.47,1.12,1.12,0,0,1,.16-.61,1.49,1.49,0,0,1,.44-.39,6.66,6.66,0,0,1,.73-.31l.39-.15.2-.07.13-.07a.82.82,0,0,0-.1-.46c-.07-.11-.22-.16-.45-.16a1.53,1.53,0,0,0-.75.2,2.91,2.91,0,0,0-.63.53v-1.08a2.26,2.26,0,0,1,.49-.31,2.81,2.81,0,0,1,.56-.18,3,3,0,0,1,.59-.06,1.81,1.81,0,0,1,1.15.34,1.17,1.17,0,0,1,.38.92v1.53a.92.92,0,0,0,0,.33.14.14,0,0,0,.13.11.6.6,0,0,0,.32-.12Zm-1.73-.76v-.94a4,4,0,0,0-.64.36.57.57,0,0,0-.2.44.42.42,0,0,0,.1.31.3.3,0,0,0,.23.1.34.34,0,0,0,.26-.08.92.92,0,0,0,.25-.19Z" transform="translate(-0.01 -0.01)" />
      <path d="M142.27,234.46l-2.38,5.79h-1.25l1-2.33-1.39-3.46h1.33l.71,2,.81-2Z" transform="translate(-0.01 -0.01)" />
    </g>
    <g>
      <path d="M172.41,238.44h-1.55l-.37-1a4.17,4.17,0,0,0-.37-.77.8.8,0,0,0-.32-.31,1.14,1.14,0,0,0-.41-.07h-.16v2.11h-1.44V233h2.45a1.66,1.66,0,0,1,1,.27,1.57,1.57,0,0,1,.54.66,1.79,1.79,0,0,1,.17.75,1.47,1.47,0,0,1-.14.69,1,1,0,0,1-.29.41,1.72,1.72,0,0,1-.35.25,1.45,1.45,0,0,1,.38.36,4.74,4.74,0,0,1,.41.85Zm-2-3.7a.57.57,0,0,0-.21-.53,1.56,1.56,0,0,0-.71-.14h-.3v1.3h.31a1.27,1.27,0,0,0,.72-.13.54.54,0,0,0,.23-.5Z" transform="translate(-0.01 -0.01)" />
      <path d="M176.16,236.79H173.7a1,1,0,0,0,1,.83,2.91,2.91,0,0,0,1.38-.4v.87a2.93,2.93,0,0,1-.65.29,2.81,2.81,0,0,1-1,.13,2,2,0,0,1-1.1-.27,1.74,1.74,0,0,1-.68-.74,2.6,2.6,0,0,1-.22-1.07,2.54,2.54,0,0,1,.22-1.05,1.75,1.75,0,0,1,.68-.72,2.24,2.24,0,0,1,1.1-.27,1.78,1.78,0,0,1,.82.21,1.57,1.57,0,0,1,.66.69,2.46,2.46,0,0,1,.25,1.22ZM175,236.1a1,1,0,0,0-.16-.61.56.56,0,0,0-.48-.23.64.64,0,0,0-.5.23,1,1,0,0,0-.2.61Z" transform="translate(-0.01 -0.01)" />
      <path d="M177.79,238.44h-1.24V233h1.24Z" transform="translate(-0.01 -0.01)" />
      <path d="M182,236.79h-2.46a1,1,0,0,0,1,.83,2.91,2.91,0,0,0,1.38-.4v.87a2.93,2.93,0,0,1-.65.29,2.81,2.81,0,0,1-1,.13,2,2,0,0,1-1.1-.27,1.74,1.74,0,0,1-.68-.74,2.6,2.6,0,0,1-.22-1.07,2.54,2.54,0,0,1,.22-1.05,1.75,1.75,0,0,1,.68-.72,2.24,2.24,0,0,1,1.1-.27,1.78,1.78,0,0,1,.82.21,1.57,1.57,0,0,1,.66.69,2.46,2.46,0,0,1,.25,1.22Zm-1.16-.69a.9.9,0,0,0-.17-.61.55.55,0,0,0-.48-.23.69.69,0,0,0-.5.23,1.12,1.12,0,0,0-.19.61Z" transform="translate(-0.01 -0.01)" />
      <path d="M185.91,238.24l-.5.2a1.51,1.51,0,0,1-.56.07.54.54,0,0,1-.42-.12.64.64,0,0,1-.17-.3,1.77,1.77,0,0,1-.45.3,1.41,1.41,0,0,1-.64.12,1.11,1.11,0,0,1-.61-.15.82.82,0,0,1-.33-.38,1.2,1.2,0,0,1-.1-.47,1.22,1.22,0,0,1,.17-.61,1.34,1.34,0,0,1,.43-.39,6.66,6.66,0,0,1,.73-.31l.39-.15.2-.07.14-.07a.93.93,0,0,0-.1-.46c-.07-.11-.22-.16-.45-.16a1.53,1.53,0,0,0-.75.2,2.7,2.7,0,0,0-.64.53v-1.08a2.33,2.33,0,0,1,.5-.31,2.81,2.81,0,0,1,.56-.18,3,3,0,0,1,.59-.06,1.77,1.77,0,0,1,1.14.34,1.12,1.12,0,0,1,.39.92v1.53a1.82,1.82,0,0,0,0,.33.12.12,0,0,0,.13.11.6.6,0,0,0,.32-.12Zm-1.72-.76v-.94a4,4,0,0,0-.64.36.58.58,0,0,0-.21.44.46.46,0,0,0,.1.31.33.33,0,0,0,.24.1.33.33,0,0,0,.25-.08,1,1,0,0,0,.26-.19Z" transform="translate(-0.01 -0.01)" />
      <path d="M188.75,237.28a1.13,1.13,0,0,1-.35.89,1.38,1.38,0,0,1-1.05.34,2.71,2.71,0,0,1-.69-.08,4.32,4.32,0,0,1-.66-.23v-1a3.35,3.35,0,0,0,.55.31,1.1,1.1,0,0,0,.5.11c.31,0,.47-.1.47-.29a.26.26,0,0,0-.07-.18,1.37,1.37,0,0,0-.23-.17l-.45-.23a1.6,1.6,0,0,1-.58-.46,1,1,0,0,1-.25-.7,1.29,1.29,0,0,1,.16-.57,1.25,1.25,0,0,1,.49-.45,1.63,1.63,0,0,1,.78-.18h.28a3,3,0,0,1,.43.09,2,2,0,0,1,.49.21v1l-.18-.13-.2-.11-.29-.11a1.27,1.27,0,0,0-.34-.05.39.39,0,0,0-.29.09.33.33,0,0,0-.08.19.23.23,0,0,0,.08.18,1,1,0,0,0,.37.21,3.51,3.51,0,0,1,.66.37,1.18,1.18,0,0,1,.35.42A1.09,1.09,0,0,1,188.75,237.28Z" transform="translate(-0.01 -0.01)" />
      <path d="M192.73,236.79h-2.46a1,1,0,0,0,.35.6,1,1,0,0,0,.64.23,2.91,2.91,0,0,0,1.38-.4v.87a3.23,3.23,0,0,1-.66.29,2.81,2.81,0,0,1-1,.13,2,2,0,0,1-1.1-.27,1.74,1.74,0,0,1-.68-.74,2.6,2.6,0,0,1-.23-1.07,2.55,2.55,0,0,1,.23-1.05,1.75,1.75,0,0,1,.68-.72,2.24,2.24,0,0,1,1.1-.27,1.78,1.78,0,0,1,.82.21,1.55,1.55,0,0,1,.65.69,2.36,2.36,0,0,1,.26,1.22Zm-1.16-.69a1,1,0,0,0-.17-.61.55.55,0,0,0-.48-.23.69.69,0,0,0-.5.23,1.12,1.12,0,0,0-.19.61Z" transform="translate(-0.01 -0.01)" />
    </g>
    <g>
      <path d="M123.92,333.17a1.62,1.62,0,0,1-.22.88,1.54,1.54,0,0,1-.64.57,2.29,2.29,0,0,1-.94.19h-.36a2.9,2.9,0,0,1-.57-.12,5.1,5.1,0,0,1-.74-.28v-1.33a5.09,5.09,0,0,0,.71.42,1.9,1.9,0,0,0,.74.17.63.63,0,0,0,.48-.14.41.41,0,0,0,0-.58.18.18,0,0,0-.07-.05,2.05,2.05,0,0,0-.54-.31,6,6,0,0,1-.69-.41,2.29,2.29,0,0,1-.48-.55,1.7,1.7,0,0,1-.19-.79,1.77,1.77,0,0,1,.19-.79,1.42,1.42,0,0,1,.58-.56,1.94,1.94,0,0,1,1-.21,3.05,3.05,0,0,1,.74.08,2.88,2.88,0,0,1,.56.2l.3.17V331a3,3,0,0,0-.65-.42,1.47,1.47,0,0,0-.77-.19.51.51,0,0,0-.39.12.39.39,0,0,0,0,.55h0a2.49,2.49,0,0,0,.43.29,6,6,0,0,1,.88.53,1.68,1.68,0,0,1,.52.54A1.38,1.38,0,0,1,123.92,333.17Z" transform="translate(-0.01 -0.01)" style="fill: #ededed" />
      <path d="M128.12,334.74h-1.26v-.56a2,2,0,0,1-.55.48,1.62,1.62,0,0,1-.69.15,1,1,0,0,1-1-.52,3.08,3.08,0,0,1-.24-1.19v-2.33h1.24v2.15a1.54,1.54,0,0,0,.1.56.41.41,0,0,0,.41.25.57.57,0,0,0,.43-.18,2.31,2.31,0,0,0,.32-.45v-2.33h1.24Z" transform="translate(-0.01 -0.01)" style="fill: #ededed" />
      <path d="M131.35,333.58a1.2,1.2,0,0,1-.35.89,1.5,1.5,0,0,1-1,.34,2.71,2.71,0,0,1-.69-.08l-.66-.22v-1q.27.17.54.3a1.3,1.3,0,0,0,.51.11c.31,0,.46-.1.46-.29a.24.24,0,0,0-.06-.17.81.81,0,0,0-.24-.17,2.64,2.64,0,0,0-.44-.23,2.19,2.19,0,0,1-.59-.46,1.17,1.17,0,0,1-.24-.71,1.11,1.11,0,0,1,.16-.57,1.29,1.29,0,0,1,.48-.45,1.64,1.64,0,0,1,.78-.17h.28a2.31,2.31,0,0,1,.93.3v1l-.19-.12a.76.76,0,0,0-.19-.12,1.51,1.51,0,0,0-.64-.16.33.33,0,0,0-.29.1.33.33,0,0,0-.08.18.27.27,0,0,0,.08.18,1.36,1.36,0,0,0,.37.21,2.67,2.67,0,0,1,.66.37.9.9,0,0,1,.35.42A1.13,1.13,0,0,1,131.35,333.58Z" transform="translate(-0.01 -0.01)" style="fill: #ededed" />
      <path d="M134.5,334.51a4.18,4.18,0,0,1-.53.21,3.51,3.51,0,0,1-.65.09c-.89,0-1.34-.49-1.34-1.48v-1.59h-.56v-.24l1.7-1.92h.14v1.19h1.19v1h-1.23V333a2.16,2.16,0,0,0,0,.36.45.45,0,0,0,.13.23.67.67,0,0,0,.34.09,1.79,1.79,0,0,0,.78-.28Z" transform="translate(-0.01 -0.01)" style="fill: #ededed" />
      <path d="M138.39,334.55c-.18.08-.35.14-.5.19a2.1,2.1,0,0,1-.56.07.63.63,0,0,1-.42-.12.75.75,0,0,1-.17-.3,2.11,2.11,0,0,1-.45.31,1.72,1.72,0,0,1-.64.11,1.2,1.2,0,0,1-.61-.15.91.91,0,0,1-.33-.37,1.37,1.37,0,0,1-.1-.48,1,1,0,0,1,.17-.6,1.17,1.17,0,0,1,.43-.4,5.16,5.16,0,0,1,.73-.31l.39-.14.2-.08.14-.07a.77.77,0,0,0-.11-.45c-.06-.11-.21-.17-.44-.17a1.35,1.35,0,0,0-.75.21,2.12,2.12,0,0,0-.64.52v-1.08a2.18,2.18,0,0,1,.5-.31,2.26,2.26,0,0,1,.56-.17,2,2,0,0,1,.59-.06,1.6,1.6,0,0,1,1.14.33,1.11,1.11,0,0,1,.39.92v1.54a1.71,1.71,0,0,0,0,.32.12.12,0,0,0,.13.11.81.81,0,0,0,.32-.11Zm-1.72-.77v-.94a3,3,0,0,0-.65.37.56.56,0,0,0-.2.44.49.49,0,0,0,.1.3.41.41,0,0,0,.24.11.67.67,0,0,0,.25-.08l.26-.2Z" transform="translate(-0.01 -0.01)" style="fill: #ededed" />
      <path d="M139.8,334.74h-1.24v-4h1.24Zm-.1-4.89a.6.6,0,0,1-.15.42.56.56,0,0,1-.37.17.53.53,0,0,1-.27-.08.72.72,0,0,1-.18-.21.66.66,0,0,1-.07-.3.62.62,0,0,1,.15-.42.42.42,0,0,1,.37-.17.44.44,0,0,1,.37.17A.57.57,0,0,1,139.7,329.85Z" transform="translate(-0.01 -0.01)" style="fill: #ededed" />
      <path d="M144.12,334.74h-1.25V332.6a1.37,1.37,0,0,0-.09-.57.4.4,0,0,0-.42-.25.44.44,0,0,0-.27.07.74.74,0,0,0-.2.16l-.15.2a1.37,1.37,0,0,0-.13.2v2.33h-1.24v-4h1.24v.57a1.74,1.74,0,0,1,.58-.5,1.4,1.4,0,0,1,.66-.14q1.26,0,1.26,1.71Z" transform="translate(-0.01 -0.01)" style="fill: #ededed" />
    </g>
    <g>
      <path d="M33.39,334.74H31.92v-2.11H29.75v2.11H28.32v-5.41h1.43v2h2.17v-2h1.43Z" transform="translate(-0.01 -0.01)" style="fill: #ededed" />
      <path d="M38,332.75a2.33,2.33,0,0,1-.23,1.06,1.79,1.79,0,0,1-.68.74,2.46,2.46,0,0,1-2.2,0,1.73,1.73,0,0,1-.68-.74,2.57,2.57,0,0,1-.1-1.87,1.69,1.69,0,0,1,.38-.65,1.54,1.54,0,0,1,.63-.44,2.6,2.6,0,0,1,1.74,0,1.51,1.51,0,0,1,.63.43,1.77,1.77,0,0,1,.38.65A2.51,2.51,0,0,1,38,332.75Zm-1.31,0a1.36,1.36,0,0,0-.18-.74.64.64,0,0,0-.9-.11.52.52,0,0,0-.1.11,1.61,1.61,0,0,0,0,1.48.58.58,0,0,0,.52.28.59.59,0,0,0,.52-.27A1.33,1.33,0,0,0,36.66,332.75Z" transform="translate(-0.01 -0.01)" style="fill: #ededed" />
      <path d="M39.63,334.74H38.39v-5.41h1.24Z" transform="translate(-0.01 -0.01)" style="fill: #ededed" />
      <path d="M43.92,334.74H42.68v-.35a2.55,2.55,0,0,1-.41.3,1.42,1.42,0,0,1-.61.12,1.66,1.66,0,0,1-.75-.21,1.76,1.76,0,0,1-.6-.67,2.56,2.56,0,0,1-.24-1.15,2.77,2.77,0,0,1,.18-1,1.76,1.76,0,0,1,.56-.78,1.5,1.5,0,0,1,.94-.29,1.47,1.47,0,0,1,.55.08,1.11,1.11,0,0,1,.38.22v-1.67h1.24Zm-1.24-1.26V332l-.34-.2a.54.54,0,0,0-.28-.05.55.55,0,0,0-.49.28,1.33,1.33,0,0,0-.2.76,1.19,1.19,0,0,0,.21.77.64.64,0,0,0,.48.24.86.86,0,0,0,.36-.08,1.88,1.88,0,0,0,.24-.25Z" transform="translate(-0.01 -0.01)" style="fill: #ededed" />
    </g>
    <g>
      <path d="M179.19,332a3.1,3.1,0,0,1-.3,1.4,2.4,2.4,0,0,1-.92,1,3.13,3.13,0,0,1-3,0,2.41,2.41,0,0,1-.9-1,3.25,3.25,0,0,1-.3-1.37,3.32,3.32,0,0,1,.29-1.36,2.32,2.32,0,0,1,.91-1,2.75,2.75,0,0,1,1.5-.38,2.79,2.79,0,0,1,1.18.22,2.23,2.23,0,0,1,.85.6,2.38,2.38,0,0,1,.5.89A2.82,2.82,0,0,1,179.19,332Zm-1.46,0a1.67,1.67,0,0,0-.08-.55.91.91,0,0,0-.24-.44.93.93,0,0,0-.39-.29,1,1,0,0,0-.53-.1,1.08,1.08,0,0,0-.91.38,1.49,1.49,0,0,0-.33,1,1.58,1.58,0,0,0,.33,1,1.2,1.2,0,0,0,.91.38,1.39,1.39,0,0,0,.67-.17,1.22,1.22,0,0,0,.43-.5A1.61,1.61,0,0,0,177.73,332Z" transform="translate(-0.01 -0.01)" style="fill: #ededed" />
      <path d="M183.29,334.74h-1.24v-.56a2.11,2.11,0,0,1-.55.48,1.62,1.62,0,0,1-.69.15,1,1,0,0,1-1-.52,3.08,3.08,0,0,1-.24-1.19v-2.33h1.24v2.15a1.54,1.54,0,0,0,.1.56.41.41,0,0,0,.41.25.57.57,0,0,0,.43-.18,2.31,2.31,0,0,0,.32-.45v-2.33h1.24Z" transform="translate(-0.01 -0.01)" style="fill: #ededed" />
      <path d="M186.56,334.51a4.18,4.18,0,0,1-.53.21,3.51,3.51,0,0,1-.65.09c-.89,0-1.33-.49-1.33-1.48v-1.59h-.56v-.24l1.66-1.92h.14v1.19h1.18v1h-1.18v1.6a.43.43,0,0,0,.14.23.58.58,0,0,0,.34.09,1.88,1.88,0,0,0,.77-.28Z" transform="translate(-0.01 -0.01)" style="fill: #ededed" />
    </g>
    <path d="M17.85,324v11a5.69,5.69,0,0,0,5.67,5.67H36.45" transform="translate(-0.01 -0.01)" style="fill: none;stroke: #000;stroke-miterlimit: 10.000159740447998" />
    <g>
      <path d="M113.74,7.63l-5.53,7v-6a1.29,1.29,0,0,0-.64-1.18.91.91,0,0,0-1.13.3L99.16,17a1.49,1.49,0,0,0,0,1.79.91.91,0,0,0,1.26.2.64.64,0,0,0,.2-.2l5.5-7v6a1.31,1.31,0,0,0,.64,1.18.92.92,0,0,0,1.14-.3l5.53-7V17.8a1,1,0,0,0,.83,1.23,1,1,0,0,0,1.23-.82.94.94,0,0,0,0-.41V8.51a1.27,1.27,0,0,0-.65-1.17A.89.89,0,0,0,113.74,7.63Z" transform="translate(-0.01 -0.01)" style="stroke: #000;stroke-width: 0.6000096082691186px" />
      <path d="M99.16,7.56l-4.81,6.13a1.49,1.49,0,0,0,0,1.79.92.92,0,0,0,1.28.19,1.07,1.07,0,0,0,.18-.19l3-3.87v6.3a1,1,0,0,0,.83,1.23,1,1,0,0,0,1.23-.82.94.94,0,0,0,0-.41V8.44a1.29,1.29,0,0,0-.65-1.17A.89.89,0,0,0,99.16,7.56Z" transform="translate(-0.01 -0.01)" style="stroke: #000;stroke-width: 0.6000096082691186px" />
      <path d="M122.11,12.08a1,1,0,0,0-1-.77H119l1.53-2s.8-1.18.1-1.82-1.58.06-1.58.06l-3.23,4.1a1.46,1.46,0,0,0-.2,1.37,1,1,0,0,0,1,.77h2.1L116.24,17s-1,1.13-.27,1.9,1.75-.14,1.75-.14l4.18-5.32A1.47,1.47,0,0,0,122.11,12.08Z" transform="translate(-0.01 -0.01)" style="stroke: #000;stroke-width: 0.6000096082691186px" />
    </g>
    <path d="M198.38,272.76V249.54H176.84c-7.49,0-13.56,7-13.56,15.71v32.94h29.46a5.65,5.65,0,0,0,5.64-5.67V272.76Z" transform="translate(-0.01 -0.01)" />
    <g>
      <path d="M172.56,287.36H171l-.38-1a3.21,3.21,0,0,0-.37-.77.69.69,0,0,0-.32-.31.77.77,0,0,0-.4-.07h-.16v2.11H168v-5.41h2.44a1.53,1.53,0,0,1,1,.27,1.63,1.63,0,0,1,.55.67,1.75,1.75,0,0,1,.18.78,1.4,1.4,0,0,1-.14.69,1.32,1.32,0,0,1-.29.42l-.35.24a1.19,1.19,0,0,1,.38.36,3.71,3.71,0,0,1,.41.85Zm-2-3.7a.55.55,0,0,0-.22-.52,1.2,1.2,0,0,0-.7-.15h-.3v1.3h.3a1.36,1.36,0,0,0,.72-.13.54.54,0,0,0,.25-.53Z" transform="translate(-0.01 -0.01)" style="fill: #ededed" />
      <path d="M176.32,285.72h-2.47a1,1,0,0,0,1,.82,3,3,0,0,0,1.38-.4V287a3,3,0,0,1-.66.29,3.35,3.35,0,0,1-1,.13,2.24,2.24,0,0,1-1.1-.27,1.8,1.8,0,0,1-.68-.74,2.63,2.63,0,0,1-.23-1.06,2.48,2.48,0,0,1,.23-1.05,1.66,1.66,0,0,1,.68-.73,2.13,2.13,0,0,1,1.1-.26,1.67,1.67,0,0,1,.82.21,1.53,1.53,0,0,1,.65.68,2.42,2.42,0,0,1,.26,1.22Zm-1.16-.7a1,1,0,0,0-.17-.61.54.54,0,0,0-.48-.23.62.62,0,0,0-.5.23.94.94,0,0,0-.19.61Z" transform="translate(-0.01 -0.01)" style="fill: #ededed" />
      <path d="M178,287.36h-1.24V282H178Z" transform="translate(-0.01 -0.01)" style="fill: #ededed" />
      <path d="M182.12,285.72h-2.48a1,1,0,0,0,1,.82,3,3,0,0,0,1.38-.4V287a3,3,0,0,1-.66.29,3.35,3.35,0,0,1-1,.13,2.24,2.24,0,0,1-1.1-.27,1.8,1.8,0,0,1-.68-.74,2.63,2.63,0,0,1-.23-1.06,2.48,2.48,0,0,1,.23-1.05,1.66,1.66,0,0,1,.68-.73,2.13,2.13,0,0,1,1.1-.26,1.67,1.67,0,0,1,.82.21,1.53,1.53,0,0,1,.65.68,2.44,2.44,0,0,1,.29,1.22ZM181,285a1,1,0,0,0-.17-.61.54.54,0,0,0-.48-.23.62.62,0,0,0-.5.23.94.94,0,0,0-.19.61Z" transform="translate(-0.01 -0.01)" style="fill: #ededed" />
      <path d="M186.12,287.17l-.51.19a2,2,0,0,1-.55.07.67.67,0,0,1-.43-.12.9.9,0,0,1-.17-.3,2.32,2.32,0,0,1-.44.31,2,2,0,0,1-.64.11,1.24,1.24,0,0,1-.62-.15.91.91,0,0,1-.33-.37,1.36,1.36,0,0,1-.09-.48,1,1,0,0,1,.16-.6,1.4,1.4,0,0,1,.44-.4,4.21,4.21,0,0,1,.73-.31l.39-.14.2-.08.13-.07a.77.77,0,0,0-.1-.45.48.48,0,0,0-.45-.17,1.35,1.35,0,0,0-.75.21,2.44,2.44,0,0,0-.64.52v-1.08a2.42,2.42,0,0,1,.5-.31,2.26,2.26,0,0,1,.56-.17,3,3,0,0,1,.59-.06,1.64,1.64,0,0,1,1.15.33,1.14,1.14,0,0,1,.38.92v1.54a.86.86,0,0,0,0,.32.14.14,0,0,0,.13.11,1,1,0,0,0,.32-.11Zm-1.73-.77v-.94a3.43,3.43,0,0,0-.64.37.51.51,0,0,0-.2.44.44.44,0,0,0,.1.3.38.38,0,0,0,.23.11.6.6,0,0,0,.24-.05,2.34,2.34,0,0,0,.22-.23Z" transform="translate(-0.01 -0.01)" style="fill: #ededed" />
      <path d="M188.91,286.2a1.16,1.16,0,0,1-.35.89,1.5,1.5,0,0,1-1,.34,2.71,2.71,0,0,1-.69-.08l-.66-.22v-1q.27.17.54.3a1.3,1.3,0,0,0,.51.11c.31,0,.46-.1.46-.29a.18.18,0,0,0-.07-.17.66.66,0,0,0-.23-.17,2.38,2.38,0,0,0-.45-.23,2.35,2.35,0,0,1-.58-.46,1.17,1.17,0,0,1-.24-.71,1.11,1.11,0,0,1,.16-.57,1.29,1.29,0,0,1,.48-.45,1.64,1.64,0,0,1,.78-.17h.28a2.31,2.31,0,0,1,.93.3v1l-.19-.12a.67.67,0,0,0-.2-.12,1,1,0,0,0-.29-.11,1,1,0,0,0-.34,0,.33.33,0,0,0-.29.1.33.33,0,0,0-.08.18.27.27,0,0,0,.08.18,1.36,1.36,0,0,0,.37.21,2.67,2.67,0,0,1,.66.37,1,1,0,0,1,.35.42A1.13,1.13,0,0,1,188.91,286.2Z" transform="translate(-0.01 -0.01)" style="fill: #ededed" />
      <path d="M192.89,285.72h-2.47a1.07,1.07,0,0,0,.36.59,1.1,1.1,0,0,0,.63.23,3.07,3.07,0,0,0,1.39-.4V287a2.81,2.81,0,0,1-.66.29,3.35,3.35,0,0,1-1,.13,2.24,2.24,0,0,1-1.1-.27,1.86,1.86,0,0,1-.68-.74,2.62,2.62,0,0,1-.22-1.06,2.47,2.47,0,0,1,.22-1.05,1.71,1.71,0,0,1,.68-.73,2.23,2.23,0,0,1,1.1-.26,1.71,1.71,0,0,1,.83.21,1.53,1.53,0,0,1,.65.68,2.42,2.42,0,0,1,.26,1.22Zm-1.17-.7a.94.94,0,0,0-.16-.61.54.54,0,0,0-.48-.23.58.58,0,0,0-.5.23.94.94,0,0,0-.19.61Z" transform="translate(-0.01 -0.01)" style="fill: #ededed" />
    </g>
    <path d="M17.81,272.76V249.54H39.34c7.5,0,13.57,7,13.57,15.71v32.94H23.45a5.66,5.66,0,0,1-5.64-5.67Z" transform="translate(-0.01 -0.01)" />
    <g>
      <path d="M30.32,287.48H28.85l-.39-1.1H26.39l-.4,1.1H24.52l2.11-5.42h1.59Zm-2.19-2-.7-2-.71,2Z" transform="translate(-0.01 -0.01)" style="fill: #fff" />
      <path d="M33.22,287.25a3,3,0,0,1-1.17.3c-.9,0-1.34-.5-1.34-1.49v-1.58h-.56v-.25l1.66-1.92H32v1.19h1.18v1H32v1.27a2.16,2.16,0,0,0,0,.36.43.43,0,0,0,.14.23.52.52,0,0,0,.34.09,1.53,1.53,0,0,0,.77-.28Z" transform="translate(-0.01 -0.01)" style="fill: #fff" />
      <path d="M36.25,287.25a2.14,2.14,0,0,1-.53.2,2.05,2.05,0,0,1-.65.1c-.89,0-1.34-.5-1.34-1.49v-1.58h-.56v-.25l1.66-1.92H35v1.19h1.18v1H35v1.27a2.16,2.16,0,0,0,0,.36.34.34,0,0,0,.13.23.52.52,0,0,0,.34.09,1.57,1.57,0,0,0,.78-.28Z" transform="translate(-0.01 -0.01)" style="fill: #fff" />
      <path d="M40.14,287.28c-.18.08-.35.14-.5.19a1.52,1.52,0,0,1-.56.08.54.54,0,0,1-.42-.12.75.75,0,0,1-.18-.3,1.63,1.63,0,0,1-.44.3,1.41,1.41,0,0,1-.64.12,1.12,1.12,0,0,1-.62-.15.87.87,0,0,1-.33-.38,1.19,1.19,0,0,1-.09-.47,1,1,0,0,1,.16-.61,1.49,1.49,0,0,1,.44-.39,6.73,6.73,0,0,1,.73-.32l.39-.14.2-.08.14-.07a.81.81,0,0,0-.11-.45c-.07-.11-.21-.16-.44-.16a1.54,1.54,0,0,0-.76.2,2.86,2.86,0,0,0-.63.52V284a2.29,2.29,0,0,1,.5-.3,2.81,2.81,0,0,1,.56-.18,3,3,0,0,1,.59-.06,1.71,1.71,0,0,1,1.14.34,1.12,1.12,0,0,1,.38.92v1.53a1.82,1.82,0,0,0,0,.33.13.13,0,0,0,.13.1.52.52,0,0,0,.32-.11Zm-1.72-.76v-.94a3.72,3.72,0,0,0-.65.36.59.59,0,0,0-.2.44.42.42,0,0,0,.1.31.28.28,0,0,0,.24.1.44.44,0,0,0,.25-.08Z" transform="translate(-0.01 -0.01)" style="fill: #fff" />
      <path d="M43.24,287.29l-.32.13a1.38,1.38,0,0,1-.39.09,1.85,1.85,0,0,1-.47,0,1.93,1.93,0,0,1-1-.22,1.49,1.49,0,0,1-.61-.56,2,2,0,0,1-.3-.68,2.45,2.45,0,0,1,.29-1.9,2,2,0,0,1,.61-.54,2.15,2.15,0,0,1,1-.22,3.36,3.36,0,0,1,.63.06c.16.05.33.1.5.17v1.11a3.37,3.37,0,0,0-1-.22.85.85,0,0,0-.58.23.92.92,0,0,0-.26.7,1,1,0,0,0,.13.53.71.71,0,0,0,.32.32.78.78,0,0,0,.39.1,1.52,1.52,0,0,0,.42-.06,5.58,5.58,0,0,0,.58-.18Z" transform="translate(-0.01 -0.01)" style="fill: #fff" />
      <path d="M47.72,287.48H46.15l-1.34-1.89v1.89H43.56v-5.42h1.25v3.18L46,283.5h1.49l-1.37,1.86Z" transform="translate(-0.01 -0.01)" style="fill: #fff" />
    </g>
    <g>
      <path d="M102.83,182.9H98.3v-6.76h1.8v5.14h2.73Z" transform="translate(-0.01 -0.01)" />
      <path d="M108.1,180.41a2.9,2.9,0,0,1-.29,1.33,2.08,2.08,0,0,1-.85.91,2.52,2.52,0,0,1-1.37.34,2.57,2.57,0,0,1-1.38-.34,2.13,2.13,0,0,1-.85-.91,3.17,3.17,0,0,1-.28-1.33,3.08,3.08,0,0,1,.16-1,2.38,2.38,0,0,1,.48-.81,2.11,2.11,0,0,1,.78-.54,3.14,3.14,0,0,1,2.18,0,2.27,2.27,0,0,1,.79.54,2.45,2.45,0,0,1,.47.81A3.12,3.12,0,0,1,108.1,180.41Zm-1.63,0a1.58,1.58,0,0,0-.23-.92.79.79,0,0,0-1.3,0,2,2,0,0,0,0,1.85.79.79,0,0,0,1.1.2.64.64,0,0,0,.2-.2A1.59,1.59,0,0,0,106.47,180.41Z" transform="translate(-0.01 -0.01)" />
      <path d="M113.38,180.41a2.9,2.9,0,0,1-.29,1.33,2.05,2.05,0,0,1-.84.91,3,3,0,0,1-2.76,0,2.13,2.13,0,0,1-.85-.91,3.17,3.17,0,0,1-.28-1.33,3.43,3.43,0,0,1,.16-1,2.38,2.38,0,0,1,.48-.81,2,2,0,0,1,.79-.54,2.87,2.87,0,0,1,1.08-.2,3.06,3.06,0,0,1,1.09.2,2.27,2.27,0,0,1,.79.54,2.36,2.36,0,0,1,.47.81A3.12,3.12,0,0,1,113.38,180.41Zm-1.63,0a1.58,1.58,0,0,0-.23-.92.79.79,0,0,0-1.3,0,2,2,0,0,0,0,1.85.79.79,0,0,0,1.1.2.64.64,0,0,0,.2-.2A1.59,1.59,0,0,0,111.75,180.41Z" transform="translate(-0.01 -0.01)" />
      <path d="M118.63,180.38a3.34,3.34,0,0,1-.12,1,2.51,2.51,0,0,1-.38.83,1.71,1.71,0,0,1-.66.59,2.19,2.19,0,0,1-1.61.12,2.62,2.62,0,0,1-.49-.27v2.54h-1.55V178h1.55v.45a2.12,2.12,0,0,1,.51-.38,1.68,1.68,0,0,1,.76-.16,1.93,1.93,0,0,1,.94.27,2,2,0,0,1,.76.84A3.23,3.23,0,0,1,118.63,180.38Zm-1.63,0a1.84,1.84,0,0,0-.12-.73.83.83,0,0,0-.32-.4.74.74,0,0,0-.41-.13,1,1,0,0,0-.45.1,2,2,0,0,0-.33.25v1.9l.17.11a.93.93,0,0,0,.19.11l.19.07h.23a.71.71,0,0,0,.61-.35,1.55,1.55,0,0,0,.24-.89Z" transform="translate(-0.01 -0.01)" />
    </g>
    <rect x="52.82" y="249.99" width="110.49" height="42.52" rx="4" style="fill: #ededed" />
    <g>
      <path d="M81.25,287.48H79.78v-2.12H77.61v2.12H76.18v-5.42h1.43v2h2.17v-2h1.43Z" transform="translate(-0.01 -0.01)" />
      <path d="M85.83,285.49a2.21,2.21,0,0,1-.23,1.05,1.68,1.68,0,0,1-.68.74,2,2,0,0,1-1.1.27,2,2,0,0,1-1.1-.27,1.63,1.63,0,0,1-.68-.74,2.48,2.48,0,0,1-.23-1.05,2.6,2.6,0,0,1,.13-.82,1.77,1.77,0,0,1,1-1.09,2.61,2.61,0,0,1,.87-.15,2.32,2.32,0,0,1,.87.16,1.54,1.54,0,0,1,.63.43,1.86,1.86,0,0,1,.38.65A2.6,2.6,0,0,1,85.83,285.49Zm-1.31,0a1.24,1.24,0,0,0-.18-.74.65.65,0,0,0-.9-.1l-.1.1a1.4,1.4,0,0,0-.18.74,1.36,1.36,0,0,0,.18.74.64.64,0,0,0,.9.11.52.52,0,0,0,.1-.11A1.27,1.27,0,0,0,84.52,285.49Z" transform="translate(-0.01 -0.01)" />
      <path d="M87.49,287.48H86.25v-5.42h1.24Z" transform="translate(-0.01 -0.01)" />
      <path d="M91.78,287.48H90.54v-.36a1.77,1.77,0,0,1-.41.31,1.28,1.28,0,0,1-.61.12,1.36,1.36,0,0,1-.75-.22,1.56,1.56,0,0,1-.6-.67,2.46,2.46,0,0,1-.24-1.14,2.85,2.85,0,0,1,.18-1,1.79,1.79,0,0,1,.56-.77,1.51,1.51,0,0,1,.94-.3,1.67,1.67,0,0,1,.55.09,1.3,1.3,0,0,1,.38.22v-1.68h1.24Zm-1.24-1.27v-1.52l-.34-.19a.67.67,0,0,0-.28-.06.58.58,0,0,0-.49.28,1.39,1.39,0,0,0-.2.77,1.14,1.14,0,0,0,.21.76.61.61,0,0,0,.48.24.64.64,0,0,0,.36-.08.91.91,0,0,0,.24-.2Z" transform="translate(-0.01 -0.01)" />
    </g>
    <g>
      <path d="M123.92,285.9a1.58,1.58,0,0,1-.22.88,1.42,1.42,0,0,1-.64.57,2,2,0,0,1-.94.2h-.36a2.9,2.9,0,0,1-.57-.12,3.55,3.55,0,0,1-.74-.29v-1.33a3.68,3.68,0,0,0,.71.42,1.61,1.61,0,0,0,.74.17.56.56,0,0,0,.48-.14.36.36,0,0,0,.11-.26.47.47,0,0,0-.19-.37,2.82,2.82,0,0,0-.54-.31,3.49,3.49,0,0,1-.69-.41,1.71,1.71,0,0,1-.48-.55,1.61,1.61,0,0,1-.19-.78,1.88,1.88,0,0,1,.19-.8,1.56,1.56,0,0,1,.58-.56,2.17,2.17,0,0,1,1-.21,3.06,3.06,0,0,1,.74.09,5.27,5.27,0,0,1,.56.19l.3.18v1.27a4.88,4.88,0,0,0-.65-.43,1.86,1.86,0,0,0-.77-.19.6.6,0,0,0-.39.12.42.42,0,0,0-.12.29.4.4,0,0,0,.12.28,2.26,2.26,0,0,0,.43.28,8.55,8.55,0,0,1,.88.53,1.91,1.91,0,0,1,.52.54A1.47,1.47,0,0,1,123.92,285.9Z" transform="translate(-0.01 -0.01)" />
      <path d="M128.12,287.48h-1.26v-.57a1.5,1.5,0,0,1-.55.48,1.28,1.28,0,0,1-.69.16,1,1,0,0,1-1-.53,3,3,0,0,1-.24-1.18V283.5h1.24v2.15a1.56,1.56,0,0,0,.1.57.38.38,0,0,0,.41.24.54.54,0,0,0,.43-.17,2.83,2.83,0,0,0,.32-.45V283.5h1.24Z" transform="translate(-0.01 -0.01)" />
      <path d="M131.35,286.32a1.17,1.17,0,0,1-.35.89,1.4,1.4,0,0,1-1,.34,2.33,2.33,0,0,1-.69-.08,4.32,4.32,0,0,1-.66-.23v-1a4.17,4.17,0,0,0,.54.31,1.13,1.13,0,0,0,.51.1c.31,0,.46-.09.46-.29a.27.27,0,0,0-.06-.17,1.46,1.46,0,0,0-.24-.17l-.44-.23a1.75,1.75,0,0,1-.59-.46,1.15,1.15,0,0,1-.08-1.28,1.48,1.48,0,0,1,.48-.45,1.92,1.92,0,0,1,.78-.17h.28a2.67,2.67,0,0,1,.93.3v1l-.19-.12-.19-.11-.29-.12h-.35a.39.39,0,0,0-.29.09.25.25,0,0,0,0,.36h0a1.53,1.53,0,0,0,.37.21,3,3,0,0,1,.66.37,1,1,0,0,1,.35.41A1.18,1.18,0,0,1,131.35,286.32Z" transform="translate(-0.01 -0.01)" />
      <path d="M134.5,287.25a2,2,0,0,1-.53.2,2.05,2.05,0,0,1-.65.1c-.89,0-1.34-.5-1.34-1.49v-1.58h-.56v-.25l1.7-1.92h.14v1.19h1.19v1h-1.23v1.27a2.16,2.16,0,0,0,0,.36.38.38,0,0,0,.13.23.52.52,0,0,0,.34.09,1.57,1.57,0,0,0,.78-.28Z" transform="translate(-0.01 -0.01)" />
      <path d="M138.39,287.28c-.18.08-.35.14-.5.19a1.52,1.52,0,0,1-.56.08.51.51,0,0,1-.42-.13.66.66,0,0,1-.17-.29,1.54,1.54,0,0,1-.45.3,1.41,1.41,0,0,1-.64.12,1.11,1.11,0,0,1-.61-.15.82.82,0,0,1-.33-.38,1.2,1.2,0,0,1-.1-.47,1,1,0,0,1,.17-.61,1.34,1.34,0,0,1,.43-.39,6.73,6.73,0,0,1,.73-.32l.39-.14.2-.08.14-.07a.81.81,0,0,0-.11-.45c-.06-.11-.21-.16-.44-.16a1.53,1.53,0,0,0-.75.2,2.92,2.92,0,0,0-.64.52V284a2.55,2.55,0,0,1,.5-.3,2.81,2.81,0,0,1,.56-.18,3,3,0,0,1,.59-.06,1.7,1.7,0,0,1,1.14.33,1.13,1.13,0,0,1,.39.92v1.54a1.82,1.82,0,0,0,0,.33.13.13,0,0,0,.13.1.52.52,0,0,0,.32-.11Zm-1.72-.76v-.94a3.72,3.72,0,0,0-.65.36.59.59,0,0,0-.2.44.45.45,0,0,0,.1.3.32.32,0,0,0,.24.11.44.44,0,0,0,.25-.08A1.57,1.57,0,0,0,136.67,286.52Z" transform="translate(-0.01 -0.01)" />
      <path d="M139.8,287.48h-1.24v-4h1.24Zm-.1-4.9a.53.53,0,0,1-.15.42.44.44,0,0,1-.37.17.39.39,0,0,1-.27-.08.53.53,0,0,1-.18-.21.6.6,0,0,1-.07-.3.63.63,0,0,1,.15-.41.49.49,0,0,1,.37-.18.51.51,0,0,1,.37.18.58.58,0,0,1,.15.41Z" transform="translate(-0.01 -0.01)" />
      <path d="M144.12,287.48h-1.25v-2.15a1.42,1.42,0,0,0-.09-.57.41.41,0,0,0-.42-.24.66.66,0,0,0-.27.06l-.2.17-.15.19-.13.2v2.34h-1.24v-4h1.24v.57a2.14,2.14,0,0,1,.58-.5,1.7,1.7,0,0,1,.66-.14q1.26,0,1.26,1.71Z" transform="translate(-0.01 -0.01)" />
    </g>
    <g>
      <path d="M78.87,332.21a2.9,2.9,0,0,1-.26,1.33,2.81,2.81,0,0,1-.63.82,2,2,0,0,1-1.44.46H74V329.4h2a4.9,4.9,0,0,1,.77.06,3.39,3.39,0,0,1,.57.14,2.18,2.18,0,0,1,.43.22,1.35,1.35,0,0,1,.32.26,2,2,0,0,1,.43.53,2.79,2.79,0,0,1,.29.72A3.25,3.25,0,0,1,78.87,332.21Zm-1.46-.07a1.93,1.93,0,0,0-.22-1,1.17,1.17,0,0,0-.53-.5,1.73,1.73,0,0,0-.64-.12h-.61v3.21H76a1.63,1.63,0,0,0,1-.31,1.48,1.48,0,0,0,.39-1.28Z" transform="translate(-0.01 -0.01)" style="fill: #fff" />
      <path d="M82.86,333.17H80.4a1.06,1.06,0,0,0,.35.59,1,1,0,0,0,.64.23,2.91,2.91,0,0,0,1.38-.4v.88a4.76,4.76,0,0,1-.65.29,3.35,3.35,0,0,1-1,.13,2,2,0,0,1-1.1-.28,1.74,1.74,0,0,1-.68-.74,2.67,2.67,0,0,1,0-2.11A1.77,1.77,0,0,1,80,331a2.23,2.23,0,0,1,1.1-.26,1.67,1.67,0,0,1,.82.21,1.55,1.55,0,0,1,.66.68,2.61,2.61,0,0,1,.25,1.23Zm-1.16-.7a1,1,0,0,0-.17-.61.56.56,0,0,0-.48-.23.65.65,0,0,0-.5.24.92.92,0,0,0-.19.6Z" transform="translate(-0.01 -0.01)" style="fill: #fff" />
      <path d="M86.19,334.63l-.33.13-.39.09a1.77,1.77,0,0,1-.46,0,2.06,2.06,0,0,1-1-.22,1.81,1.81,0,0,1-.61-.56,2.76,2.76,0,0,1-.3-.68,3.09,3.09,0,0,1-.08-.61,3.2,3.2,0,0,1,.09-.62,2.23,2.23,0,0,1,.29-.67A1.75,1.75,0,0,1,84,331a2.06,2.06,0,0,1,1-.22,3.28,3.28,0,0,1,.63.06,2.84,2.84,0,0,1,.49.17v1.11a3,3,0,0,0-.94-.22.9.9,0,0,0-.59.22.93.93,0,0,0-.25.71,1.21,1.21,0,0,0,.12.53.84.84,0,0,0,.72.42,1.47,1.47,0,0,0,.42-.06l.58-.18Z" transform="translate(-0.01 -0.01)" style="fill: #fff" />
      <path d="M90.14,334.62c-.18.08-.35.14-.5.19a1.77,1.77,0,0,1-.56.08.54.54,0,0,1-.42-.13.79.79,0,0,1-.18-.29,1.9,1.9,0,0,1-.44.3,1.41,1.41,0,0,1-.64.12,1.14,1.14,0,0,1-.62-.15.87.87,0,0,1-.33-.38,1.27,1.27,0,0,1-.09-.47,1,1,0,0,1,.16-.61,1.36,1.36,0,0,1,.44-.39,6.73,6.73,0,0,1,.73-.32l.39-.14.2-.08.14-.07a.79.79,0,0,0-.11-.45c-.07-.11-.22-.16-.44-.16a1.47,1.47,0,0,0-.76.2,2.61,2.61,0,0,0-.63.52v-1.05a2.55,2.55,0,0,1,.5-.3,2.81,2.81,0,0,1,.56-.18,3,3,0,0,1,.59-.06,1.72,1.72,0,0,1,1.14.33,1.14,1.14,0,0,1,.38.92v1.54a.91.91,0,0,0,0,.33.14.14,0,0,0,.13.1.68.68,0,0,0,.32-.11Zm-1.72-.76v-.94a2.76,2.76,0,0,0-.65.36.57.57,0,0,0-.2.44.41.41,0,0,0,.1.3.32.32,0,0,0,.24.11.44.44,0,0,0,.25-.08Z" transform="translate(-0.01 -0.01)" style="fill: #fff" />
      <path d="M94,330.84l-2.37,5.79H90.37l1-2.33L90,330.84h1.33l.71,2,.81-2Z" transform="translate(-0.01 -0.01)" style="fill: #fff" />
    </g>
  </g>
  <g /></svg>