<svg xmlns="http://www.w3.org/2000/svg" width="76.29mm" height="130.23mm" viewBox="0 0 216.25 369.15">
  <g id="faceplate">
    <rect x="0.13" y="0.13" width="216" height="364.25" style="fill: #ededed;stroke: #9d9d9e;stroke-miterlimit: 10;stroke-width: 0.25px" />
    <g>
      <path d="M33.25,187.63a2.07,2.07,0,0,1-.29,1.1,1.88,1.88,0,0,1-.79.71,2.76,2.76,0,0,1-1.18.24,3.87,3.87,0,0,1-.45,0,4.81,4.81,0,0,1-.71-.15,4.93,4.93,0,0,1-.93-.36v-1.66a6.4,6.4,0,0,0,.89.52,2.11,2.11,0,0,0,.93.21c.31,0,.51-.05.6-.17a.51.51,0,0,0,.13-.32.54.54,0,0,0-.23-.46,2.82,2.82,0,0,0-.67-.39,5.28,5.28,0,0,1-.86-.51,2.37,2.37,0,0,1-.61-.69,2.07,2.07,0,0,1-.23-1,2,2,0,0,1,.24-1,1.65,1.65,0,0,1,.72-.71,2.39,2.39,0,0,1,1.18-.26,3.85,3.85,0,0,1,1.62.35,2.41,2.41,0,0,1,.38.22v1.58a5.4,5.4,0,0,0-.81-.53,2.12,2.12,0,0,0-1-.23.72.72,0,0,0-.49.14.5.5,0,0,0-.15.37.46.46,0,0,0,.15.34,2.46,2.46,0,0,0,.54.36,9.32,9.32,0,0,1,1.1.66,2.43,2.43,0,0,1,.65.67A1.89,1.89,0,0,1,33.25,187.63Z" />
      <path d="M38.47,189.6H36.92v-.71a2.33,2.33,0,0,1-.68.6,1.8,1.8,0,0,1-.87.19,1.25,1.25,0,0,1-1.28-.65,3.69,3.69,0,0,1-.29-1.48v-2.92h1.55v2.68a1.92,1.92,0,0,0,.12.71.48.48,0,0,0,.51.31.71.71,0,0,0,.54-.22,3.87,3.87,0,0,0,.4-.56v-2.92h1.55Z" />
      <path d="M42.53,188.15a1.51,1.51,0,0,1-.44,1.11,1.82,1.82,0,0,1-1.31.42,3.22,3.22,0,0,1-.86-.1,6.25,6.25,0,0,1-.83-.28v-1.25a4.52,4.52,0,0,0,.68.38,1.46,1.46,0,0,0,.63.14c.39,0,.58-.12.58-.36a.29.29,0,0,0-.08-.22,1.08,1.08,0,0,0-.29-.22c-.14-.08-.33-.17-.56-.28a2.43,2.43,0,0,1-.73-.58A1.32,1.32,0,0,1,39,186a1.45,1.45,0,0,1,.2-.72,1.46,1.46,0,0,1,.6-.55,2,2,0,0,1,1-.22l.35,0a3,3,0,0,1,.54.11,2.77,2.77,0,0,1,.61.27v1.21l-.23-.15-.24-.14a1.78,1.78,0,0,0-.37-.14,1.52,1.52,0,0,0-.42-.06.51.51,0,0,0-.37.11.36.36,0,0,0-.1.24.32.32,0,0,0,.1.22,2,2,0,0,0,.46.27A3.9,3.9,0,0,1,42,187a1.41,1.41,0,0,1,.44.52A1.54,1.54,0,0,1,42.53,188.15Z" />
      <path d="M46.47,189.31a3.07,3.07,0,0,1-.67.25,2.94,2.94,0,0,1-.81.12c-1.11,0-1.67-.61-1.67-1.85v-2h-.7v-.31l2.08-2.4h.17v1.49h1.48v1.22H44.87v1.59a2.81,2.81,0,0,0,0,.45.46.46,0,0,0,.17.28.67.67,0,0,0,.43.12,2.16,2.16,0,0,0,1-.35Z" />
      <path d="M51.33,189.35a5,5,0,0,1-.63.24,2.31,2.31,0,0,1-.69.09.75.75,0,0,1-.53-.15.85.85,0,0,1-.21-.37,2.63,2.63,0,0,1-.56.38,2,2,0,0,1-.8.14,1.46,1.46,0,0,1-.77-.18,1,1,0,0,1-.41-.48,1.48,1.48,0,0,1-.12-.59,1.35,1.35,0,0,1,.2-.75,1.66,1.66,0,0,1,.55-.5,7.94,7.94,0,0,1,.91-.39l.49-.18.25-.09.17-.09a1,1,0,0,0-.13-.57c-.09-.14-.27-.2-.56-.2a1.81,1.81,0,0,0-.94.25,3.46,3.46,0,0,0-.79.65v-1.34a2.69,2.69,0,0,1,.62-.39,3.35,3.35,0,0,1,.7-.22,3.64,3.64,0,0,1,.74-.07,2.12,2.12,0,0,1,1.43.42,1.43,1.43,0,0,1,.48,1.15V188a1.39,1.39,0,0,0,0,.41.18.18,0,0,0,.17.14.84.84,0,0,0,.39-.15Zm-2.15-.95v-1.18a3.53,3.53,0,0,0-.8.46.65.65,0,0,0-.26.54.53.53,0,0,0,.13.39.41.41,0,0,0,.29.13.66.66,0,0,0,.32-.1Z" />
      <path d="M53.09,189.6H51.54v-5h1.55ZM53,183.48a.74.74,0,0,1-.19.52.63.63,0,0,1-.46.22.64.64,0,0,1-.33-.1.78.78,0,0,1-.24-.27.87.87,0,0,1-.08-.37.74.74,0,0,1,.19-.52.57.57,0,0,1,.46-.22.6.6,0,0,1,.46.22A.74.74,0,0,1,53,183.48Z" />
      <path d="M58.48,189.6H56.93v-2.68a1.94,1.94,0,0,0-.12-.72.49.49,0,0,0-.51-.3A.63.63,0,0,0,56,186a1.21,1.21,0,0,0-.26.2l-.19.25-.16.25v2.92H53.81v-5h1.54v.71a2.26,2.26,0,0,1,.74-.62,1.83,1.83,0,0,1,.82-.18c1,0,1.57.71,1.57,2.14Z" />
    </g>
    <path d="M43.62,143.6a19.9,19.9,0,0,0-2.45.17l-.39-2.21a21.4,21.4,0,0,1,5.69,0l-.39,2.21A19.92,19.92,0,0,0,43.62,143.6Z" />
    <path d="M29.13,150l-1.72-1.45a22,22,0,0,1,4.34-3.65l1.12,1.94A19.52,19.52,0,0,0,29.13,150Z" />
    <path d="M34.6,145.8l-1.13-1.94a22.31,22.31,0,0,1,5.34-2l.39,2.22A19.61,19.61,0,0,0,34.6,145.8Z" />
    <path d="M25.39,155.74l-2.1-.77a22.56,22.56,0,0,1,2.83-4.91l1.73,1.45A19.81,19.81,0,0,0,25.39,155.74Z" />
    <path d="M48.05,144.12l.39-2.22a21.67,21.67,0,0,1,5.33,2l-1.12,1.94A19.61,19.61,0,0,0,48.05,144.12Z" />
    <path d="M23.91,162.43H21.65a22,22,0,0,1,1-5.58l2.11.77A19.68,19.68,0,0,0,23.91,162.43Z" />
    <path d="M24.77,169.23l-2.1.77a22.17,22.17,0,0,1-1-5.57H23.9A19.74,19.74,0,0,0,24.77,169.23Z" />
    <path d="M27.91,175.31l-1.71,1.44a21.77,21.77,0,0,1-2.84-4.87l2.1-.77A19.8,19.8,0,0,0,27.91,175.31Z" />
    <path d="M59.4,151.51l1.73-1.45A22.56,22.56,0,0,1,64,155l-2.1.77A19.81,19.81,0,0,0,59.4,151.51Z" />
    <path d="M62.53,157.62l2.11-.77a22,22,0,0,1,1,5.58H63.34A19.6,19.6,0,0,0,62.53,157.62Z" />
    <path d="M63.35,164.43h2.24a22.17,22.17,0,0,1-1,5.57l-2.1-.77A19.74,19.74,0,0,0,63.35,164.43Z" />
    <path d="M61.79,171.11l2.1.77a21.83,21.83,0,0,1-2.84,4.87l-1.71-1.44A19.63,19.63,0,0,0,61.79,171.11Z" />
    <path d="M32.93,180l-1.12,1.93a22.09,22.09,0,0,1-4.31-3.61l1.71-1.44A20,20,0,0,0,32.93,180Z" />
    <path d="M58,176.84l1.72,1.43a22.14,22.14,0,0,1-4.32,3.62L54.32,180A19.67,19.67,0,0,0,58,176.84Z" />
    <path d="M54.38,146.81l1.12-1.95a22.41,22.41,0,0,1,4.35,3.66L58.12,150A19.52,19.52,0,0,0,54.38,146.81Z" />
    <g>
      <path d="M36.39,73.6H34.55l-.48-1.38H31.48L31,73.6H29.15l2.63-6.77h2Zm-2.74-2.55-.87-2.47-.88,2.47Z" />
      <path d="M40,73.31a3.29,3.29,0,0,1-.67.25,2.94,2.94,0,0,1-.81.12c-1.11,0-1.67-.62-1.67-1.85v-2h-.7v-.31l2.08-2.4h.17v1.48h1.48v1.23H38.43v1.59a2.81,2.81,0,0,0,0,.45.46.46,0,0,0,.17.28.65.65,0,0,0,.43.12,2.16,2.16,0,0,0,1-.35Z" />
      <path d="M43.8,73.31a3.17,3.17,0,0,1-.66.25,2.94,2.94,0,0,1-.81.12c-1.11,0-1.67-.62-1.67-1.85v-2H40v-.31L42,67.14h.18v1.48h1.48v1.23H42.21v1.59a2.81,2.81,0,0,0,0,.45.46.46,0,0,0,.17.28.62.62,0,0,0,.42.12,2.12,2.12,0,0,0,1-.35Z" />
      <path d="M48.67,73.35a6.53,6.53,0,0,1-.63.24,2.31,2.31,0,0,1-.69.09.73.73,0,0,1-.53-.15.87.87,0,0,1-.22-.37,2,2,0,0,1-.55.37,1.84,1.84,0,0,1-.8.15,1.44,1.44,0,0,1-.77-.18,1.07,1.07,0,0,1-.42-.48,1.71,1.71,0,0,1-.11-.59,1.31,1.31,0,0,1,.2-.76,1.63,1.63,0,0,1,.55-.49,6.48,6.48,0,0,1,.91-.39l.49-.18.24-.1.18-.08a1.14,1.14,0,0,0-.13-.57.63.63,0,0,0-.56-.21,1.82,1.82,0,0,0-.94.26,3.51,3.51,0,0,0-.8.65V69.22a2.55,2.55,0,0,1,.63-.39,3.18,3.18,0,0,1,.7-.22,3.61,3.61,0,0,1,.73-.07,2.16,2.16,0,0,1,1.43.41,1.46,1.46,0,0,1,.48,1.15V72a1.33,1.33,0,0,0,0,.41c0,.09.08.14.16.14a.87.87,0,0,0,.4-.15Zm-2.15-1V71.22a4.5,4.5,0,0,0-.81.45.67.67,0,0,0-.25.55.49.49,0,0,0,.13.38.38.38,0,0,0,.29.14.66.66,0,0,0,.32-.1A3.14,3.14,0,0,0,46.52,72.39Z" />
      <path d="M52.55,73.37l-.41.15a2.8,2.8,0,0,1-.48.12,3.65,3.65,0,0,1-.59,0,2.49,2.49,0,0,1-1.21-.27,2.18,2.18,0,0,1-.77-.7,2.65,2.65,0,0,1-.37-.85,3,3,0,0,1,0-1.53,2.6,2.6,0,0,1,.37-.84,2,2,0,0,1,.76-.68,2.53,2.53,0,0,1,1.22-.27,3.44,3.44,0,0,1,.79.07l.62.21v1.39a3.59,3.59,0,0,0-1.18-.28,1.05,1.05,0,0,0-.73.29,1.09,1.09,0,0,0-.32.88,1.34,1.34,0,0,0,.15.66,1,1,0,0,0,.41.4,1.09,1.09,0,0,0,.49.13,2.27,2.27,0,0,0,.53-.08c.19,0,.44-.13.72-.23Z" />
      <path d="M58.15,73.6h-2L54.5,71.24V73.6H52.94V66.83H54.5v4L56,68.62h1.85l-1.71,2.32Z" />
    </g>
    <g>
      <path d="M43.62,26.74a19.9,19.9,0,0,0-2.45.16l-.39-2.21a21.4,21.4,0,0,1,5.69,0l-.39,2.21A19.93,19.93,0,0,0,43.62,26.74Z" />
      <path d="M29.13,33.11l-1.72-1.45A22.06,22.06,0,0,1,31.75,28l1.12,1.94A19.94,19.94,0,0,0,29.13,33.11Z" />
      <path d="M34.6,28.94l-1.13-2A21.87,21.87,0,0,1,38.81,25l.39,2.21A19.19,19.19,0,0,0,34.6,28.94Z" />
      <path d="M25.39,38.87l-2.1-.76a22.4,22.4,0,0,1,2.83-4.92l1.73,1.45A19.81,19.81,0,0,0,25.39,38.87Z" />
      <path d="M48.05,27.25,48.44,25A21.64,21.64,0,0,1,53.77,27l-1.12,2A19.19,19.19,0,0,0,48.05,27.25Z" />
      <path d="M23.91,45.57H21.65a21.88,21.88,0,0,1,1-5.58l2.11.77A19.6,19.6,0,0,0,23.91,45.57Z" />
      <path d="M24.77,52.37l-2.1.76a22,22,0,0,1-1-5.56H23.9A19.83,19.83,0,0,0,24.77,52.37Z" />
      <path d="M27.91,58.45,26.2,59.89A22.06,22.06,0,0,1,23.36,55l2.1-.76A20.31,20.31,0,0,0,27.91,58.45Z" />
      <path d="M59.4,34.64l1.73-1.45A22.4,22.4,0,0,1,64,38.11l-2.1.76A19.81,19.81,0,0,0,59.4,34.64Z" />
      <path d="M62.53,40.75,64.64,40a21.81,21.81,0,0,1,1,5.58H63.34A19.68,19.68,0,0,0,62.53,40.75Z" />
      <path d="M63.35,47.57h2.24a22.09,22.09,0,0,1-1,5.56l-2.1-.76A19.92,19.92,0,0,0,63.35,47.57Z" />
      <path d="M61.79,54.25l2.1.76a21.68,21.68,0,0,1-2.84,4.88l-1.71-1.44A19.87,19.87,0,0,0,61.79,54.25Z" />
      <path d="M32.93,63.09,31.81,65a22.13,22.13,0,0,1-4.31-3.62L29.21,60A19.62,19.62,0,0,0,32.93,63.09Z" />
      <path d="M58,60l1.72,1.44A22.5,22.5,0,0,1,55.44,65l-1.12-1.94A19.31,19.31,0,0,0,58,60Z" />
      <path d="M54.38,29.94,55.5,28a22.41,22.41,0,0,1,4.35,3.66l-1.73,1.45A19.57,19.57,0,0,0,54.38,29.94Z" />
    </g>
    <g>
      <path d="M102.13,69.66a3.62,3.62,0,0,1-.33,1.67,3.44,3.44,0,0,1-.78,1,2.62,2.62,0,0,1-1.79.57H96V66.15h2.48a6.27,6.27,0,0,1,1,.07,3.43,3.43,0,0,1,.72.19,2.26,2.26,0,0,1,.54.26,3.3,3.3,0,0,1,.4.32,3.2,3.2,0,0,1,.53.67,3.33,3.33,0,0,1,.37.9A4.2,4.2,0,0,1,102.13,69.66Zm-1.82-.09a2.41,2.41,0,0,0-.28-1.28,1.39,1.39,0,0,0-.66-.62,2,2,0,0,0-.8-.16h-.76v4h.76a2,2,0,0,0,1.22-.38A1.86,1.86,0,0,0,100.31,69.57Z" />
      <path d="M107.12,70.86H104a1.29,1.29,0,0,0,1.24,1,3.65,3.65,0,0,0,1.73-.5v1.09a3.94,3.94,0,0,1-.82.37A4.17,4.17,0,0,1,105,73a2.62,2.62,0,0,1-1.38-.34,2.18,2.18,0,0,1-.85-.93,3.13,3.13,0,0,1-.28-1.33,3.07,3.07,0,0,1,.28-1.31,2.08,2.08,0,0,1,.85-.91,2.71,2.71,0,0,1,1.38-.33,2.25,2.25,0,0,1,1,.26,2,2,0,0,1,.81.86,3.1,3.1,0,0,1,.32,1.53ZM105.67,70a1.25,1.25,0,0,0-.21-.76.7.7,0,0,0-.6-.29.78.78,0,0,0-.62.29A1.17,1.17,0,0,0,104,70Z" />
      <path d="M111.28,72.69l-.41.16a4.32,4.32,0,0,1-.48.11,3.61,3.61,0,0,1-.59.05,2.38,2.38,0,0,1-1.21-.28,2.07,2.07,0,0,1-.77-.69,2.75,2.75,0,0,1-.37-.85,3,3,0,0,1,0-1.54,2.9,2.9,0,0,1,.37-.83,1.94,1.94,0,0,1,.76-.68,2.42,2.42,0,0,1,1.22-.28,3.37,3.37,0,0,1,.79.08,4.12,4.12,0,0,1,.62.21v1.38a3.79,3.79,0,0,0-1.18-.27,1,1,0,0,0-.73.28,1.09,1.09,0,0,0-.32.88,1.36,1.36,0,0,0,.15.67,1.12,1.12,0,0,0,.41.4,1.11,1.11,0,0,0,.49.12,1.84,1.84,0,0,0,.53-.08c.19,0,.44-.12.72-.22Z" />
      <path d="M116.22,72.67l-.63.25a2.31,2.31,0,0,1-.69.09.76.76,0,0,1-.54-.15.89.89,0,0,1-.21-.38,2.57,2.57,0,0,1-.55.38,1.84,1.84,0,0,1-.8.15,1.41,1.41,0,0,1-.78-.19,1,1,0,0,1-.41-.47,1.52,1.52,0,0,1-.12-.59,1.29,1.29,0,0,1,.21-.76,1.54,1.54,0,0,1,.55-.49,6.37,6.37,0,0,1,.91-.4l.48-.17.25-.1a.7.7,0,0,0,.17-.09,1,1,0,0,0-.13-.56c-.08-.14-.27-.21-.55-.21a1.89,1.89,0,0,0-.94.25,3.31,3.31,0,0,0-.8.66V68.54a3,3,0,0,1,.62-.38,3,3,0,0,1,.7-.22,3.72,3.72,0,0,1,.74-.08,2.11,2.11,0,0,1,1.43.42,1.44,1.44,0,0,1,.48,1.15v1.92a1.37,1.37,0,0,0,0,.41.16.16,0,0,0,.16.13,1,1,0,0,0,.4-.14Zm-2.16-1V70.54a4.06,4.06,0,0,0-.8.46.67.67,0,0,0-.25.55.54.54,0,0,0,.12.38.41.41,0,0,0,.3.13.54.54,0,0,0,.31-.1A2.22,2.22,0,0,0,114.06,71.72Z" />
      <path d="M121,68l-3,7.23H116.5l1.2-2.91L116,68h1.66l.89,2.47,1-2.47Z" />
    </g>
    <path d="M108.12,26.06a19.9,19.9,0,0,0-2.45.17L105.28,24A21.4,21.4,0,0,1,111,24l-.39,2.21A19.92,19.92,0,0,0,108.12,26.06Z" />
    <path d="M93.63,32.43,91.91,31a22,22,0,0,1,4.34-3.65l1.12,1.94A19.52,19.52,0,0,0,93.63,32.43Z" />
    <path d="M99.1,28.26,98,26.32a22.31,22.31,0,0,1,5.34-2l.39,2.22A19.61,19.61,0,0,0,99.1,28.26Z" />
    <path d="M89.89,38.2l-2.1-.76a22.4,22.4,0,0,1,2.83-4.92L92.35,34A19.81,19.81,0,0,0,89.89,38.2Z" />
    <path d="M112.55,26.58l.39-2.22a22.08,22.08,0,0,1,5.33,2l-1.12,1.94A19.61,19.61,0,0,0,112.55,26.58Z" />
    <path d="M88.41,44.9H86.15a22,22,0,0,1,1-5.59l2.11.77A19.68,19.68,0,0,0,88.41,44.9Z" />
    <path d="M89.27,51.69l-2.1.77a22.17,22.17,0,0,1-1-5.56H88.4A19.75,19.75,0,0,0,89.27,51.69Z" />
    <path d="M92.41,57.78,90.7,59.21a21.77,21.77,0,0,1-2.84-4.87l2.1-.77A20.12,20.12,0,0,0,92.41,57.78Z" />
    <path d="M123.9,34l1.73-1.45a22.56,22.56,0,0,1,2.83,4.91l-2.1.77A19.81,19.81,0,0,0,123.9,34Z" />
    <path d="M127,40.08l2.11-.77a22,22,0,0,1,1,5.58h-2.26A19.6,19.6,0,0,0,127,40.08Z" />
    <path d="M127.85,46.89h2.24a22.17,22.17,0,0,1-1,5.57l-2.1-.77A19.74,19.74,0,0,0,127.85,46.89Z" />
    <path d="M126.29,53.57l2.1.77a21.61,21.61,0,0,1-2.84,4.87l-1.71-1.44A19.39,19.39,0,0,0,126.29,53.57Z" />
    <path d="M97.43,62.42l-1.12,1.93A21.74,21.74,0,0,1,92,60.74l1.71-1.44A19.62,19.62,0,0,0,97.43,62.42Z" />
    <path d="M122.54,59.3l1.72,1.44a22.09,22.09,0,0,1-4.32,3.61l-1.12-1.93A19.67,19.67,0,0,0,122.54,59.3Z" />
    <path d="M118.88,29.27,120,27.32A22.77,22.77,0,0,1,124.35,31l-1.73,1.45A19.52,19.52,0,0,0,118.88,29.27Z" />
    <g>
      <path d="M163.05,72.92h-1.93l-.47-1.2a4.74,4.74,0,0,0-.47-1,.91.91,0,0,0-.4-.39,1.21,1.21,0,0,0-.5-.09h-.2v2.64h-1.8V66.15h3.06a2,2,0,0,1,1.21.35,1.94,1.94,0,0,1,.68.83,2.31,2.31,0,0,1,.21.92,1.9,1.9,0,0,1-.18.87,1.48,1.48,0,0,1-.37.52,3,3,0,0,1-.43.3,2.07,2.07,0,0,1,.48.45,6.41,6.41,0,0,1,.5,1.06Zm-2.44-4.63a.73.73,0,0,0-.27-.65,1.59,1.59,0,0,0-.89-.19h-.37v1.63h.38a1.72,1.72,0,0,0,.9-.16A.72.72,0,0,0,160.61,68.29Z" />
      <path d="M167.74,70.86h-3.08a1.27,1.27,0,0,0,1.24,1,3.65,3.65,0,0,0,1.73-.5v1.09a3.94,3.94,0,0,1-.82.37,4.17,4.17,0,0,1-1.23.16,2.62,2.62,0,0,1-1.38-.34,2.18,2.18,0,0,1-.85-.93,3.13,3.13,0,0,1-.28-1.33,3.07,3.07,0,0,1,.28-1.31,2.08,2.08,0,0,1,.85-.91,2.71,2.71,0,0,1,1.38-.33,2.25,2.25,0,0,1,1,.26,2,2,0,0,1,.81.86,3.1,3.1,0,0,1,.32,1.53ZM166.29,70a1.25,1.25,0,0,0-.21-.76.7.7,0,0,0-.6-.29.77.77,0,0,0-.62.29,1.17,1.17,0,0,0-.24.76Z" />
      <path d="M169.78,72.92h-1.55V66.15h1.55Z" />
      <path d="M175,70.86H171.9a1.27,1.27,0,0,0,1.24,1,3.68,3.68,0,0,0,1.73-.5v1.09a4.19,4.19,0,0,1-.82.37,4.29,4.29,0,0,1-1.24.16,2.6,2.6,0,0,1-1.37-.34,2.18,2.18,0,0,1-.85-.93,3,3,0,0,1-.28-1.33,2.93,2.93,0,0,1,.28-1.31,2.08,2.08,0,0,1,.85-.91,2.7,2.7,0,0,1,1.37-.33,2.22,2.22,0,0,1,1,.26,2,2,0,0,1,.82.86,3.22,3.22,0,0,1,.32,1.53ZM173.53,70a1.25,1.25,0,0,0-.21-.76.7.7,0,0,0-.6-.29.75.75,0,0,0-.62.29,1.17,1.17,0,0,0-.24.76Z" />
      <path d="M179.93,72.67l-.63.25a2.31,2.31,0,0,1-.69.09.76.76,0,0,1-.54-.15.89.89,0,0,1-.21-.38,2.57,2.57,0,0,1-.55.38,1.84,1.84,0,0,1-.8.15,1.41,1.41,0,0,1-.78-.19,1,1,0,0,1-.41-.47,1.52,1.52,0,0,1-.12-.59,1.29,1.29,0,0,1,.21-.76,1.54,1.54,0,0,1,.55-.49,5.9,5.9,0,0,1,.91-.4l.48-.17.25-.1a.7.7,0,0,0,.17-.09,1,1,0,0,0-.13-.56c-.08-.14-.27-.21-.55-.21a2,2,0,0,0-1,.25,3.47,3.47,0,0,0-.79.66V68.54a3,3,0,0,1,.62-.38,3,3,0,0,1,.7-.22,3.72,3.72,0,0,1,.74-.08,2.11,2.11,0,0,1,1.43.42,1.44,1.44,0,0,1,.48,1.15v1.92a1.37,1.37,0,0,0,.05.41.16.16,0,0,0,.16.13,1,1,0,0,0,.4-.14Zm-2.16-1V70.54a4.06,4.06,0,0,0-.8.46.67.67,0,0,0-.25.55.54.54,0,0,0,.12.38.41.41,0,0,0,.3.13.54.54,0,0,0,.31-.1A2.22,2.22,0,0,0,177.77,71.72Z" />
      <path d="M183.48,71.47a1.48,1.48,0,0,1-.44,1.11,1.78,1.78,0,0,1-1.31.43,3.22,3.22,0,0,1-.86-.1,6.4,6.4,0,0,1-.83-.29V71.37a5.88,5.88,0,0,0,.68.39,1.45,1.45,0,0,0,.63.13c.39,0,.58-.12.58-.36a.32.32,0,0,0-.08-.22,1.36,1.36,0,0,0-.29-.21l-.56-.29a2.16,2.16,0,0,1-.73-.57,1.35,1.35,0,0,1-.3-.89,1.41,1.41,0,0,1,.2-.71,1.48,1.48,0,0,1,.6-.56,2.12,2.12,0,0,1,1-.22l.35,0a4.64,4.64,0,0,1,.54.12,2.73,2.73,0,0,1,.61.26v1.22l-.23-.16-.24-.14a2.61,2.61,0,0,0-.37-.14A1.54,1.54,0,0,0,182,69a.46.46,0,0,0-.36.12.34.34,0,0,0-.1.23.37.37,0,0,0,.1.23,1.7,1.7,0,0,0,.46.26,3.9,3.9,0,0,1,.83.46,1.41,1.41,0,0,1,.44.52A1.54,1.54,0,0,1,183.48,71.47Z" />
      <path d="M188.45,70.86h-3.08a1.27,1.27,0,0,0,1.24,1,3.68,3.68,0,0,0,1.73-.5v1.09a3.65,3.65,0,0,1-2.05.53,2.62,2.62,0,0,1-1.38-.34,2.18,2.18,0,0,1-.85-.93,3.13,3.13,0,0,1-.28-1.33,3.07,3.07,0,0,1,.28-1.31,2.08,2.08,0,0,1,.85-.91,2.71,2.71,0,0,1,1.38-.33,2.28,2.28,0,0,1,1,.26,2,2,0,0,1,.81.86,3.1,3.1,0,0,1,.32,1.53ZM187,70a1.25,1.25,0,0,0-.21-.76.7.7,0,0,0-.6-.29.77.77,0,0,0-.62.29,1.17,1.17,0,0,0-.24.76Z" />
    </g>
    <path d="M172.62,26.06a19.9,19.9,0,0,0-2.45.17L169.78,24a21.4,21.4,0,0,1,5.69,0l-.39,2.21A19.92,19.92,0,0,0,172.62,26.06Z" />
    <path d="M158.13,32.43,156.41,31a22,22,0,0,1,4.34-3.65l1.12,1.94A19.52,19.52,0,0,0,158.13,32.43Z" />
    <path d="M163.6,28.26l-1.13-1.94a22.31,22.31,0,0,1,5.34-2l.39,2.22A19.61,19.61,0,0,0,163.6,28.26Z" />
    <path d="M154.39,38.2l-2.1-.76a22.4,22.4,0,0,1,2.83-4.92L156.85,34A19.81,19.81,0,0,0,154.39,38.2Z" />
    <path d="M177.05,26.58l.39-2.22a22.08,22.08,0,0,1,5.33,2l-1.12,1.94A19.61,19.61,0,0,0,177.05,26.58Z" />
    <path d="M152.91,44.9h-2.26a22,22,0,0,1,1-5.59l2.11.77A19.68,19.68,0,0,0,152.91,44.9Z" />
    <path d="M153.77,51.69l-2.1.77a22.17,22.17,0,0,1-1-5.56h2.24A19.75,19.75,0,0,0,153.77,51.69Z" />
    <path d="M156.91,57.78l-1.71,1.43a21.77,21.77,0,0,1-2.84-4.87l2.1-.77A20.12,20.12,0,0,0,156.91,57.78Z" />
    <path d="M188.4,34l1.73-1.45A22.56,22.56,0,0,1,193,37.43l-2.1.77A19.81,19.81,0,0,0,188.4,34Z" />
    <path d="M191.53,40.08l2.11-.77a22,22,0,0,1,1,5.58h-2.26A19.6,19.6,0,0,0,191.53,40.08Z" />
    <path d="M192.35,46.89h2.24a22.17,22.17,0,0,1-1,5.57l-2.1-.77A19.74,19.74,0,0,0,192.35,46.89Z" />
    <path d="M190.79,53.57l2.1.77a21.61,21.61,0,0,1-2.84,4.87l-1.71-1.44A19.39,19.39,0,0,0,190.79,53.57Z" />
    <path d="M161.93,62.42l-1.12,1.93a21.74,21.74,0,0,1-4.31-3.61l1.71-1.44A19.62,19.62,0,0,0,161.93,62.42Z" />
    <path d="M187,59.3l1.72,1.44a22.09,22.09,0,0,1-4.32,3.61l-1.12-1.93A19.67,19.67,0,0,0,187,59.3Z" />
    <path d="M183.38,29.27l1.12-1.95A22.77,22.77,0,0,1,188.85,31l-1.73,1.45A19.52,19.52,0,0,0,183.38,29.27Z" />
    <g>
      <path d="M33.57,131H31.73l-.48-1.37H28.66l-.5,1.37H26.33L29,124.28h2Zm-2.74-2.55L30,126l-.88,2.47Z" />
      <path d="M41.6,130.54a4.71,4.71,0,0,1-.76.35,4,4,0,0,1-.78.18,5.32,5.32,0,0,1-.81.06,3.79,3.79,0,0,1-1.39-.24,3.16,3.16,0,0,1-1.07-.72,3,3,0,0,1-.68-1.12,4.15,4.15,0,0,1-.23-1.4,4,4,0,0,1,.27-1.53,3,3,0,0,1,.74-1.09,3.12,3.12,0,0,1,1.1-.64,3.88,3.88,0,0,1,1.29-.21,6.2,6.2,0,0,1,2.3.52v1.79a6.32,6.32,0,0,0-.88-.52,2.32,2.32,0,0,0-1-.21,2,2,0,0,0-1,.24,1.86,1.86,0,0,0-.72.67,1.81,1.81,0,0,0-.28,1,1.85,1.85,0,0,0,.24.94,1.82,1.82,0,0,0,.67.68,1.87,1.87,0,0,0,1,.25,2.81,2.81,0,0,0,.82-.12,3.66,3.66,0,0,0,.65-.26c.17-.1.35-.22.54-.35Z" />
      <path d="M46.81,131H45.26v-.7a2.59,2.59,0,0,1-.68.59,1.7,1.7,0,0,1-.87.2,1.24,1.24,0,0,1-1.28-.66,3.65,3.65,0,0,1-.29-1.48v-2.92h1.55v2.69a2,2,0,0,0,.11.71.5.5,0,0,0,.52.3.67.67,0,0,0,.54-.22,3.56,3.56,0,0,0,.4-.56v-2.92h1.55Z" />
      <path d="M51.3,126.34l-.58,1.76a1,1,0,0,0-.71-.38.75.75,0,0,0-.56.25,2.48,2.48,0,0,0-.46.93V131H47.44v-5H49v1.2a2.67,2.67,0,0,1,.51-.86,1.15,1.15,0,0,1,.87-.43,1.08,1.08,0,0,1,.46.09A4.37,4.37,0,0,1,51.3,126.34Z" />
      <path d="M56.05,126.07l-2,5H52.92l-2-5h1.66l.91,2.6,1-2.6Z" />
      <path d="M60.7,129H57.62a1.23,1.23,0,0,0,.44.74,1.22,1.22,0,0,0,.8.29,3.68,3.68,0,0,0,1.73-.5v1.09a4.19,4.19,0,0,1-.82.37,3.86,3.86,0,0,1-1.23.16,2.62,2.62,0,0,1-1.38-.34,2.18,2.18,0,0,1-.85-.93,3.13,3.13,0,0,1-.28-1.33,3.07,3.07,0,0,1,.28-1.31,2.13,2.13,0,0,1,.85-.91,2.71,2.71,0,0,1,1.38-.33,2.17,2.17,0,0,1,1,.27,1.91,1.91,0,0,1,.81.85,3.16,3.16,0,0,1,.32,1.53Zm-1.45-.87a1.25,1.25,0,0,0-.21-.76.7.7,0,0,0-.6-.29.77.77,0,0,0-.62.29,1.17,1.17,0,0,0-.24.76Z" />
    </g>
    <path d="M43.62,85.05a18.11,18.11,0,0,0-2.45.17L40.78,83a21.4,21.4,0,0,1,5.69,0l-.39,2.21A19.93,19.93,0,0,0,43.62,85.05Z" />
    <path d="M29.13,91.42,27.41,90a22.06,22.06,0,0,1,4.34-3.66l1.12,1.94A19.94,19.94,0,0,0,29.13,91.42Z" />
    <path d="M34.6,87.25l-1.13-2a21.87,21.87,0,0,1,5.34-2l.39,2.21A19.63,19.63,0,0,0,34.6,87.25Z" />
    <path d="M25.39,97.19l-2.1-.77a22.4,22.4,0,0,1,2.83-4.92L27.85,93A19.64,19.64,0,0,0,25.39,97.19Z" />
    <path d="M48.05,85.56l.39-2.21a21.64,21.64,0,0,1,5.33,2l-1.12,2A19.19,19.19,0,0,0,48.05,85.56Z" />
    <path d="M23.91,103.88H21.65a22,22,0,0,1,1-5.58l2.11.77A19.6,19.6,0,0,0,23.91,103.88Z" />
    <path d="M24.77,110.68l-2.1.76a22,22,0,0,1-1-5.56H23.9A19.83,19.83,0,0,0,24.77,110.68Z" />
    <path d="M27.91,116.76,26.2,118.2a22.06,22.06,0,0,1-2.84-4.88l2.1-.76A20.31,20.31,0,0,0,27.91,116.76Z" />
    <path d="M59.4,93l1.73-1.45A22.4,22.4,0,0,1,64,96.42l-2.1.76A19.81,19.81,0,0,0,59.4,93Z" />
    <path d="M62.53,99.07l2.11-.77a21.88,21.88,0,0,1,1,5.58H63.34A19.6,19.6,0,0,0,62.53,99.07Z" />
    <path d="M63.35,105.88h2.24a22,22,0,0,1-1,5.56l-2.1-.76A19.83,19.83,0,0,0,63.35,105.88Z" />
    <path d="M61.79,112.56l2.1.76a21.68,21.68,0,0,1-2.84,4.88l-1.71-1.44A19.87,19.87,0,0,0,61.79,112.56Z" />
    <path d="M32.93,121.4l-1.12,1.94a22.13,22.13,0,0,1-4.31-3.62l1.71-1.43A19.94,19.94,0,0,0,32.93,121.4Z" />
    <path d="M58,118.28l1.72,1.44a22.5,22.5,0,0,1-4.32,3.62l-1.12-1.94A19.31,19.31,0,0,0,58,118.28Z" />
    <path d="M54.38,88.25l1.12-1.94A22.41,22.41,0,0,1,59.85,90l-1.73,1.45A19.94,19.94,0,0,0,54.38,88.25Z" />
    <g>
      <path d="M97.7,127.78a3.62,3.62,0,0,1-.33,1.67,3.31,3.31,0,0,1-.79,1,2.58,2.58,0,0,1-1.79.57H91.58v-6.76h2.47a6.46,6.46,0,0,1,1,.06,4.43,4.43,0,0,1,.72.19,2.72,2.72,0,0,1,.54.27,2.08,2.08,0,0,1,.4.32,2.9,2.9,0,0,1,.53.66,3.68,3.68,0,0,1,.37.9A4.25,4.25,0,0,1,97.7,127.78Zm-1.82-.09a2.51,2.51,0,0,0-.28-1.28,1.41,1.41,0,0,0-.67-.62,2.18,2.18,0,0,0-.79-.16h-.76v4h.76a2,2,0,0,0,1.22-.38A1.89,1.89,0,0,0,95.88,127.69Z" />
      <path d="M106.05,130.54a4.71,4.71,0,0,1-.76.35,4.1,4.1,0,0,1-.77.18,5.55,5.55,0,0,1-.82.06,3.79,3.79,0,0,1-1.39-.24,3.16,3.16,0,0,1-1.07-.72,3,3,0,0,1-.68-1.12,4.15,4.15,0,0,1-.23-1.4,4,4,0,0,1,.27-1.53,3,3,0,0,1,.74-1.09,3.12,3.12,0,0,1,1.1-.64,3.88,3.88,0,0,1,1.29-.21,6.2,6.2,0,0,1,2.3.52v1.79a6.32,6.32,0,0,0-.88-.52,2.32,2.32,0,0,0-1-.21,2,2,0,0,0-1,.24,1.86,1.86,0,0,0-.72.67,1.81,1.81,0,0,0-.28,1,1.85,1.85,0,0,0,.24.94,1.82,1.82,0,0,0,.67.68,1.87,1.87,0,0,0,1,.25,2.76,2.76,0,0,0,.82-.12,3.66,3.66,0,0,0,.65-.26c.17-.1.36-.22.54-.35Z" />
      <path d="M111.26,131h-1.55v-.7a2.44,2.44,0,0,1-.68.59,1.7,1.7,0,0,1-.87.2,1.24,1.24,0,0,1-1.28-.66,3.65,3.65,0,0,1-.29-1.48v-2.92h1.55v2.69a2.2,2.2,0,0,0,.11.71.5.5,0,0,0,.52.3.67.67,0,0,0,.54-.22,3.56,3.56,0,0,0,.4-.56v-2.92h1.55Z" />
      <path d="M115.75,126.34l-.58,1.76a1,1,0,0,0-.71-.38.75.75,0,0,0-.56.25,2.48,2.48,0,0,0-.46.93V131h-1.55v-5h1.55v1.2a2.67,2.67,0,0,1,.51-.86,1.15,1.15,0,0,1,.87-.43,1.08,1.08,0,0,1,.46.09A4.37,4.37,0,0,1,115.75,126.34Z" />
      <path d="M120.5,126.07l-2,5h-1.14l-2-5h1.66l.91,2.6,1-2.6Z" />
      <path d="M125.15,129h-3.08a1.23,1.23,0,0,0,.44.74,1.22,1.22,0,0,0,.8.29,3.68,3.68,0,0,0,1.73-.5v1.09a4.19,4.19,0,0,1-.82.37,3.86,3.86,0,0,1-1.23.16,2.62,2.62,0,0,1-1.38-.34,2.18,2.18,0,0,1-.85-.93,3.13,3.13,0,0,1-.28-1.33,3.07,3.07,0,0,1,.28-1.31,2.13,2.13,0,0,1,.85-.91A2.71,2.71,0,0,1,123,126a2.17,2.17,0,0,1,1,.27,1.91,1.91,0,0,1,.81.85,3.16,3.16,0,0,1,.32,1.53Zm-1.45-.87a1.25,1.25,0,0,0-.21-.76.7.7,0,0,0-.6-.29.77.77,0,0,0-.62.29,1.17,1.17,0,0,0-.24.76Z" />
    </g>
    <path d="M108.12,85.05a19.9,19.9,0,0,0-2.45.17L105.28,83A21.4,21.4,0,0,1,111,83l-.39,2.22A19.92,19.92,0,0,0,108.12,85.05Z" />
    <path d="M93.63,91.42,91.91,90a22.06,22.06,0,0,1,4.34-3.66l1.12,1.94A19.94,19.94,0,0,0,93.63,91.42Z" />
    <path d="M99.1,87.25,98,85.3a21.87,21.87,0,0,1,5.34-2l.39,2.21A20.09,20.09,0,0,0,99.1,87.25Z" />
    <path d="M89.89,97.19l-2.1-.77a22.4,22.4,0,0,1,2.83-4.92L92.35,93A19.64,19.64,0,0,0,89.89,97.19Z" />
    <path d="M112.55,85.56l.39-2.21a21.64,21.64,0,0,1,5.33,2l-1.12,2A19.19,19.19,0,0,0,112.55,85.56Z" />
    <path d="M88.41,103.88H86.15a22,22,0,0,1,1-5.58l2.11.77A19.6,19.6,0,0,0,88.41,103.88Z" />
    <path d="M89.27,110.68l-2.1.76a22,22,0,0,1-1-5.56H88.4A19.74,19.74,0,0,0,89.27,110.68Z" />
    <path d="M92.41,116.76,90.7,118.2a22.06,22.06,0,0,1-2.84-4.88l2.1-.76A20.05,20.05,0,0,0,92.41,116.76Z" />
    <path d="M123.9,93l1.73-1.45a22.4,22.4,0,0,1,2.83,4.92l-2.1.76A19.81,19.81,0,0,0,123.9,93Z" />
    <path d="M127,99.07l2.11-.77a21.88,21.88,0,0,1,1,5.58h-2.26A19.6,19.6,0,0,0,127,99.07Z" />
    <path d="M127.85,105.88h2.24a22,22,0,0,1-1,5.56l-2.1-.76A19.74,19.74,0,0,0,127.85,105.88Z" />
    <path d="M126.29,112.56l2.1.76a21.68,21.68,0,0,1-2.84,4.88l-1.71-1.44A19.87,19.87,0,0,0,126.29,112.56Z" />
    <path d="M97.43,121.4l-1.12,1.94A22.13,22.13,0,0,1,92,119.72l1.71-1.43A19.94,19.94,0,0,0,97.43,121.4Z" />
    <path d="M122.54,118.28l1.72,1.44a22.5,22.5,0,0,1-4.32,3.62l-1.12-1.94A19.31,19.31,0,0,0,122.54,118.28Z" />
    <path d="M118.88,88.25,120,86.31A22.41,22.41,0,0,1,124.35,90l-1.73,1.45A19.94,19.94,0,0,0,118.88,88.25Z" />
    <g>
      <path d="M162.17,131h-1.93l-.47-1.2a4.81,4.81,0,0,0-.46-1,1,1,0,0,0-.4-.39,1.23,1.23,0,0,0-.51-.09h-.2V131h-1.8v-6.76h3.06a2,2,0,0,1,1.21.34,1.93,1.93,0,0,1,.68.83,2.31,2.31,0,0,1,.21.93,2,2,0,0,1-.17.86,1.62,1.62,0,0,1-.37.52,3.76,3.76,0,0,1-.44.3,1.76,1.76,0,0,1,.48.46,6.38,6.38,0,0,1,.51,1Zm-2.44-4.63a.73.73,0,0,0-.27-.65,1.64,1.64,0,0,0-.88-.19h-.38v1.64h.39a1.75,1.75,0,0,0,.9-.17A.72.72,0,0,0,159.73,126.41Z" />
      <path d="M170.23,130.54a4.71,4.71,0,0,1-.76.35,4.39,4.39,0,0,1-.78.18,5.32,5.32,0,0,1-.81.06,3.84,3.84,0,0,1-1.4-.24,3.16,3.16,0,0,1-1.07-.72,3.12,3.12,0,0,1-.68-1.12,4.15,4.15,0,0,1-.22-1.4,4.23,4.23,0,0,1,.26-1.53,3,3,0,0,1,.75-1.09,3.08,3.08,0,0,1,1.09-.64,4,4,0,0,1,1.29-.21,6.12,6.12,0,0,1,2.3.52v1.79a6.23,6.23,0,0,0-.87-.52,2.32,2.32,0,0,0-1-.21,2,2,0,0,0-1,.24,2,2,0,0,0-.73.67,1.88,1.88,0,0,0-.27,1,1.85,1.85,0,0,0,.24.94,1.75,1.75,0,0,0,.67.68,1.81,1.81,0,0,0,1,.25,2.76,2.76,0,0,0,.82-.12,3.13,3.13,0,0,0,.65-.26c.18-.1.36-.22.55-.35Z" />
      <path d="M175.44,131h-1.55v-.7a2.47,2.47,0,0,1-.69.59,1.68,1.68,0,0,1-.86.2,1.24,1.24,0,0,1-1.28-.66,3.49,3.49,0,0,1-.29-1.48v-2.92h1.54v2.69a2,2,0,0,0,.12.71.49.49,0,0,0,.51.3.67.67,0,0,0,.54-.22,3,3,0,0,0,.41-.56v-2.92h1.55Z" />
      <path d="M179.92,126.34l-.57,1.76a1,1,0,0,0-.71-.38.79.79,0,0,0-.57.25,2.64,2.64,0,0,0-.46.93V131h-1.54v-5h1.54v1.2a2.54,2.54,0,0,1,.52-.86,1.13,1.13,0,0,1,1.33-.34A3.55,3.55,0,0,1,179.92,126.34Z" />
      <path d="M184.67,126.07l-2,5h-1.14l-1.94-5h1.66l.91,2.6,1-2.6Z" />
      <path d="M189.33,129h-3.08a1.23,1.23,0,0,0,.44.74,1.2,1.2,0,0,0,.8.29,3.68,3.68,0,0,0,1.73-.5v1.09a4,4,0,0,1-.83.37,3.86,3.86,0,0,1-1.23.16,2.58,2.58,0,0,1-1.37-.34,2.18,2.18,0,0,1-.85-.93,3,3,0,0,1-.28-1.33,2.93,2.93,0,0,1,.28-1.31,2.13,2.13,0,0,1,.85-.91,2.67,2.67,0,0,1,1.37-.33,2.11,2.11,0,0,1,1,.27,2,2,0,0,1,.82.85,3.28,3.28,0,0,1,.32,1.53Zm-1.45-.87a1.25,1.25,0,0,0-.21-.76.7.7,0,0,0-.6-.29.79.79,0,0,0-.63.29,1.17,1.17,0,0,0-.24.76Z" />
    </g>
    <path d="M172.62,85.05a18.11,18.11,0,0,0-2.45.17L169.78,83a21.4,21.4,0,0,1,5.69,0l-.39,2.22A18.15,18.15,0,0,0,172.62,85.05Z" />
    <path d="M158.13,91.42,156.41,90a22.06,22.06,0,0,1,4.34-3.66l1.12,1.94A19.94,19.94,0,0,0,158.13,91.42Z" />
    <path d="M163.6,87.25l-1.13-2a21.87,21.87,0,0,1,5.34-2l.39,2.21A20.09,20.09,0,0,0,163.6,87.25Z" />
    <path d="M154.39,97.19l-2.1-.77a22.4,22.4,0,0,1,2.83-4.92L156.85,93A19.64,19.64,0,0,0,154.39,97.19Z" />
    <path d="M177.05,85.56l.39-2.21a21.64,21.64,0,0,1,5.33,2l-1.12,2A19.19,19.19,0,0,0,177.05,85.56Z" />
    <path d="M152.91,103.88h-2.26a22,22,0,0,1,1-5.58l2.11.77A19.6,19.6,0,0,0,152.91,103.88Z" />
    <path d="M153.77,110.68l-2.1.76a22,22,0,0,1-1-5.56h2.24A19.83,19.83,0,0,0,153.77,110.68Z" />
    <path d="M156.91,116.76l-1.71,1.44a22.06,22.06,0,0,1-2.84-4.88l2.1-.76A20.05,20.05,0,0,0,156.91,116.76Z" />
    <path d="M188.4,93l1.73-1.45A22.4,22.4,0,0,1,193,96.42l-2.1.76A19.81,19.81,0,0,0,188.4,93Z" />
    <path d="M191.53,99.07l2.11-.77a21.88,21.88,0,0,1,1,5.58h-2.26A19.6,19.6,0,0,0,191.53,99.07Z" />
    <path d="M192.35,105.88h2.24a22,22,0,0,1-1,5.56l-2.1-.76A19.83,19.83,0,0,0,192.35,105.88Z" />
    <path d="M190.79,112.56l2.1.76a21.68,21.68,0,0,1-2.84,4.88l-1.71-1.44A19.87,19.87,0,0,0,190.79,112.56Z" />
    <path d="M161.93,121.4l-1.12,1.94a22.13,22.13,0,0,1-4.31-3.62l1.71-1.43A19.94,19.94,0,0,0,161.93,121.4Z" />
    <path d="M187,118.28l1.72,1.44a22.5,22.5,0,0,1-4.32,3.62l-1.12-1.94A19.31,19.31,0,0,0,187,118.28Z" />
    <path d="M183.38,88.25l1.12-1.94A22.41,22.41,0,0,1,188.85,90l-1.73,1.45A19.94,19.94,0,0,0,183.38,88.25Z" />
    <g>
      <path d="M82.21,356.39a4.29,4.29,0,0,1-.77.39,4.93,4.93,0,0,1-.8.2,5.73,5.73,0,0,1-.84.06,3.8,3.8,0,0,1-1.43-.26,3,3,0,0,1-1.09-.8,3.36,3.36,0,0,1-.7-1.22,5,5,0,0,1-.23-1.54,4.77,4.77,0,0,1,.27-1.68,3.21,3.21,0,0,1,1.88-1.91,3.91,3.91,0,0,1,1.33-.23,6.13,6.13,0,0,1,2.35.56v2a6,6,0,0,0-.89-.57,2.28,2.28,0,0,0-1-.23,2,2,0,0,0-1,.26,1.92,1.92,0,0,0-.74.73,2.17,2.17,0,0,0-.29,1.12,2.28,2.28,0,0,0,.25,1,1.89,1.89,0,0,0,.69.74,1.75,1.75,0,0,0,1,.28,3,3,0,0,0,.85-.13,3.41,3.41,0,0,0,.66-.3,4.27,4.27,0,0,0,.56-.38Z" />
      <path d="M90,353.22a4.56,4.56,0,0,1-.4,1.92,3.24,3.24,0,0,1-1.17,1.39,3.39,3.39,0,0,1-1.9.51,3.35,3.35,0,0,1-1.91-.53,3.32,3.32,0,0,1-1.17-1.42,4.66,4.66,0,0,1-.38-1.87,4.71,4.71,0,0,1,.38-1.88,3.13,3.13,0,0,1,1.17-1.4,3.28,3.28,0,0,1,1.91-.54,3.45,3.45,0,0,1,1.51.31,2.93,2.93,0,0,1,1.09.83,3.57,3.57,0,0,1,.65,1.22A4.69,4.69,0,0,1,90,353.22Zm-1.88,0a2.71,2.71,0,0,0-.1-.77,1.88,1.88,0,0,0-.3-.6,1.45,1.45,0,0,0-.5-.39,1.52,1.52,0,0,0-.69-.15,1.41,1.41,0,0,0-1.16.53,2.48,2.48,0,0,0,0,2.76,1.4,1.4,0,0,0,1.16.53,1.53,1.53,0,0,0,.87-.24,1.67,1.67,0,0,0,.54-.68A2.57,2.57,0,0,0,88.1,353.22Z" />
      <path d="M98.22,357H96.38v-4.32l-1.66,2.5h-.14l-1.67-2.5V357H91.12V349.5h1.67l1.88,2.8,1.89-2.8h1.66Z" />
      <path d="M105.05,351.84a2.74,2.74,0,0,1-.12.81,2.15,2.15,0,0,1-.37.74,1.93,1.93,0,0,1-.7.55,2.46,2.46,0,0,1-1,.21h-1.2V357H99.77V349.5h3a2.32,2.32,0,0,1,1,.22,2,2,0,0,1,.7.56,2.06,2.06,0,0,1,.37.74A2.91,2.91,0,0,1,105.05,351.84Zm-1.88,0a.87.87,0,0,0-.25-.73,1.58,1.58,0,0,0-.92-.2h-.39v1.8H102a3.12,3.12,0,0,0,.71-.07.65.65,0,0,0,.36-.26A1.16,1.16,0,0,0,103.17,351.86Z" />
      <path d="M110.71,357h-4.64V349.5h1.84v5.66h2.8Z" />
      <path d="M116.38,357h-4.6V349.5h4.53V351h-2.69v1.36h2.57v1.5h-2.57v1.59h2.76Z" />
      <path d="M124.51,357h-2.37l-.64-.94-.39-.57c-.23-.35-.39-.58-.46-.71-.36.58-.64,1-.87,1.38l-.56.84h-2.33l2.59-3.88L117,349.5h2.36l.41.63q.36.54.87,1.35c.32-.57.57-1,.76-1.27l.48-.71h2.31l-2.37,3.57Z" />
      <path d="M132.6,357H128V349.5h4.53V351h-2.69v1.36h2.56v1.5h-2.56v1.59h2.76Z" />
      <path d="M139.59,356.42l-.34.15-.27.11-.38.12a6,6,0,0,1-1.71.24,3.61,3.61,0,0,1-1.72-.41,3.11,3.11,0,0,1-1.26-1.28,4.4,4.4,0,0,1-.47-2.14,5.39,5.39,0,0,1,.24-1.6,2.73,2.73,0,0,1,.75-1.26,3,3,0,0,1,.84-.6,3.13,3.13,0,0,1,.83-.28,5.86,5.86,0,0,1,2.22.08c.35.1.74.23,1.15.39v1.76a4.21,4.21,0,0,0-.88-.49,2.76,2.76,0,0,0-1.15-.2,2,2,0,0,0-1.27.37,1.94,1.94,0,0,0-.67.87,3,3,0,0,0-.19,1,2.55,2.55,0,0,0,.22,1,1.72,1.72,0,0,0,.65.76,1.88,1.88,0,0,0,1,.29,2.9,2.9,0,0,0,.75-.11v-.88h-.83v-1.5h2.44Z" />
    </g>
    <g>
      <path d="M169.33,189.6h-1.79V187h-2.7v2.64H163v-6.77h1.8v2.48h2.7v-2.48h1.79Z" />
      <path d="M175.05,187.11a3,3,0,0,1-.28,1.32,2.15,2.15,0,0,1-.85.92,3.05,3.05,0,0,1-2.76,0,2.19,2.19,0,0,1-.84-.92,3,3,0,0,1-.28-1.32,3.22,3.22,0,0,1,.15-1,2.5,2.5,0,0,1,.48-.82,2.22,2.22,0,0,1,.79-.54,2.78,2.78,0,0,1,1.08-.19,2.92,2.92,0,0,1,1.1.19,2.16,2.16,0,0,1,1.25,1.35A3.05,3.05,0,0,1,175.05,187.11Zm-1.63,0a1.64,1.64,0,0,0-.22-.93.82.82,0,0,0-1.31,0,2,2,0,0,0,0,1.85.74.74,0,0,0,.65.35.76.76,0,0,0,.66-.34A1.69,1.69,0,0,0,173.42,187.11Z" />
      <path d="M177.13,189.6h-1.55v-6.77h1.55Z" />
      <path d="M182.47,189.6h-1.55v-.45a2.39,2.39,0,0,1-.52.38,1.56,1.56,0,0,1-.75.15,1.83,1.83,0,0,1-.94-.26,2,2,0,0,1-.75-.84,3.06,3.06,0,0,1-.3-1.43,3.59,3.59,0,0,1,.22-1.28,2.26,2.26,0,0,1,.7-1,1.84,1.84,0,0,1,1.17-.37,1.74,1.74,0,0,1,.7.11,1.8,1.8,0,0,1,.47.27v-2.09h1.55ZM180.92,188v-1.89a4,4,0,0,0-.42-.25.8.8,0,0,0-.36-.07.72.72,0,0,0-.61.35,1.66,1.66,0,0,0-.24,1,1.47,1.47,0,0,0,.25,1,.77.77,0,0,0,.6.3,1,1,0,0,0,.45-.1A1.87,1.87,0,0,0,180.92,188Z" />
    </g>
    <path d="M172.62,143.6a19.9,19.9,0,0,0-2.45.17l-.39-2.21a21.4,21.4,0,0,1,5.69,0l-.39,2.21A19.92,19.92,0,0,0,172.62,143.6Z" />
    <path d="M158.13,150l-1.72-1.45a22,22,0,0,1,4.34-3.65l1.12,1.94A19.52,19.52,0,0,0,158.13,150Z" />
    <path d="M163.6,145.8l-1.13-1.94a22.31,22.31,0,0,1,5.34-2l.39,2.22A19.61,19.61,0,0,0,163.6,145.8Z" />
    <path d="M154.39,155.74l-2.1-.77a22.56,22.56,0,0,1,2.83-4.91l1.73,1.45A19.81,19.81,0,0,0,154.39,155.74Z" />
    <path d="M177.05,144.12l.39-2.22a21.67,21.67,0,0,1,5.33,2l-1.12,1.94A19.61,19.61,0,0,0,177.05,144.12Z" />
    <path d="M152.91,162.43h-2.26a22,22,0,0,1,1-5.58l2.11.77A19.68,19.68,0,0,0,152.91,162.43Z" />
    <path d="M153.77,169.23l-2.1.77a22.17,22.17,0,0,1-1-5.57h2.24A19.74,19.74,0,0,0,153.77,169.23Z" />
    <path d="M156.91,175.31l-1.71,1.44a21.77,21.77,0,0,1-2.84-4.87l2.1-.77A19.8,19.8,0,0,0,156.91,175.31Z" />
    <path d="M188.4,151.51l1.73-1.45A22.56,22.56,0,0,1,193,155l-2.1.77A19.81,19.81,0,0,0,188.4,151.51Z" />
    <path d="M191.53,157.62l2.11-.77a22,22,0,0,1,1,5.58h-2.26A19.6,19.6,0,0,0,191.53,157.62Z" />
    <path d="M192.35,164.43h2.24a22.17,22.17,0,0,1-1,5.57l-2.1-.77A19.74,19.74,0,0,0,192.35,164.43Z" />
    <path d="M190.79,171.11l2.1.77a21.83,21.83,0,0,1-2.84,4.87l-1.71-1.44A19.63,19.63,0,0,0,190.79,171.11Z" />
    <path d="M161.93,180l-1.12,1.93a22.09,22.09,0,0,1-4.31-3.61l1.71-1.44A20,20,0,0,0,161.93,180Z" />
    <path d="M187,176.84l1.72,1.43a22.14,22.14,0,0,1-4.32,3.62L183.32,180A19.67,19.67,0,0,0,187,176.84Z" />
    <path d="M183.38,146.81l1.12-1.95a22.41,22.41,0,0,1,4.35,3.66L187.12,150A19.52,19.52,0,0,0,183.38,146.81Z" />
    <line x1="108.12" y1="83.1" x2="108.12" y2="75.32" style="fill: none;stroke: #000;stroke-miterlimit: 10;stroke-width: 2px" />
    <line x1="172.62" y1="83.1" x2="172.62" y2="75.32" style="fill: none;stroke: #000;stroke-miterlimit: 10;stroke-width: 2px" />
    <line x1="43.62" y1="83.1" x2="43.62" y2="75.32" style="fill: none;stroke: #000;stroke-miterlimit: 10;stroke-width: 2px" />
    <path d="M31.44,340.66H184.38c7.49,0,13.56-7,13.56-15.71V217l-.06-6.23c-.29-8.37-6.23-15.06-13.54-15.06H31.41c-7.31,0-13.25,6.69-13.54,15.06L17.81,217V263.6L17.87,325" style="fill: #ededed;stroke: #000;stroke-miterlimit: 10" />
    <path d="M198.41,314.09V289.37H36.05c-7.49,0-13.57,7.49-13.57,16.73v34.53l140.82.53h29.47a5.86,5.86,0,0,0,5.64-6v-21Z" />
    <path d="M17.81,315.73V292.51H39.34c7.5,0,13.57,7,13.57,15.71v32.94H23.45a5.66,5.66,0,0,1-5.64-5.67V315.73Z" />
    <g>
      <path d="M29.43,238.44H28V233h1.44Z" />
      <path d="M33.89,238.44H32.65V236.3a1.5,1.5,0,0,0-.1-.58.39.39,0,0,0-.41-.24.6.6,0,0,0-.27.06,1.06,1.06,0,0,0-.2.17l-.16.2-.12.2v2.33H30.15v-4h1.24V235a1.73,1.73,0,0,1,.58-.5,1.45,1.45,0,0,1,.66-.15c.84,0,1.26.57,1.26,1.72Z" />
      <path d="M38.19,236.43a2.86,2.86,0,0,1-.1.77,2.54,2.54,0,0,1-.3.67,1.49,1.49,0,0,1-1.28.64,1.54,1.54,0,0,1-.54-.08,1.92,1.92,0,0,1-.39-.22v2H34.34v-5.79h1.24v.36a1.73,1.73,0,0,1,.41-.3,1.29,1.29,0,0,1,.61-.13,1.54,1.54,0,0,1,.75.22,1.58,1.58,0,0,1,.6.67A2.42,2.42,0,0,1,38.19,236.43Zm-1.3,0a1.61,1.61,0,0,0-.1-.59.71.71,0,0,0-.26-.32.56.56,0,0,0-.33-.1.8.8,0,0,0-.36.08,1.21,1.21,0,0,0-.26.2v1.52l.14.09.15.08a.67.67,0,0,0,.15.06.55.55,0,0,0,.18,0,.57.57,0,0,0,.49-.28A1.29,1.29,0,0,0,36.89,236.46Z" />
      <path d="M42.24,238.44H41v-.56a1.94,1.94,0,0,1-.55.47,1.35,1.35,0,0,1-.69.16,1,1,0,0,1-1-.52,3,3,0,0,1-.23-1.19v-2.34h1.24v2.15a1.62,1.62,0,0,0,.09.57.41.41,0,0,0,.41.25.56.56,0,0,0,.44-.18,3.8,3.8,0,0,0,.32-.45v-2.34h1.24Z" />
      <path d="M45.51,238.21a2.58,2.58,0,0,1-.53.2,2.19,2.19,0,0,1-.65.1c-.89,0-1.34-.49-1.34-1.48v-1.59h-.56v-.24l1.66-1.93h.14v1.19h1.19v1H44.23v1.27a1.73,1.73,0,0,0,0,.36.34.34,0,0,0,.13.23.55.55,0,0,0,.34.09,1.64,1.64,0,0,0,.78-.28Z" />
    </g>
    <g>
      <path d="M78.18,238.44H76.7l-.38-1.1H74.25l-.4,1.1H72.38L74.49,233h1.59Zm-2.19-2-.7-2-.71,2Z" />
      <path d="M81.08,238.21a2.19,2.19,0,0,1-.53.2,2.14,2.14,0,0,1-.65.1c-.89,0-1.33-.49-1.33-1.48v-1.59H78v-.24l1.66-1.93h.14v1.19H81v1H79.81v1.27a3.21,3.21,0,0,0,0,.36.35.35,0,0,0,.14.23.53.53,0,0,0,.34.09,1.65,1.65,0,0,0,.77-.28Z" />
      <path d="M84.11,238.21a2.48,2.48,0,0,1-.54.2,2.13,2.13,0,0,1-.64.1c-.89,0-1.34-.49-1.34-1.48v-1.59H81v-.24l1.66-1.93h.14v1.19H84v1H82.83v1.27a3.21,3.21,0,0,0,0,.36.39.39,0,0,0,.14.23.53.53,0,0,0,.34.09,1.64,1.64,0,0,0,.78-.28Z" />
      <path d="M88,238.24l-.5.2a1.86,1.86,0,0,1-.56.07.59.59,0,0,1-.42-.12.65.65,0,0,1-.18-.3,1.9,1.9,0,0,1-.44.3,1.46,1.46,0,0,1-.64.12,1.16,1.16,0,0,1-.62-.15.92.92,0,0,1-.33-.38,1.27,1.27,0,0,1-.09-.47,1.07,1.07,0,0,1,.16-.61,1.28,1.28,0,0,1,.44-.39,4.43,4.43,0,0,1,.73-.31l.39-.15.2-.07.13-.07a.85.85,0,0,0-.1-.46c-.07-.11-.22-.16-.45-.16a1.5,1.5,0,0,0-.75.2,2.61,2.61,0,0,0-.63.53v-1.08a2.13,2.13,0,0,1,.49-.31,2.81,2.81,0,0,1,.56-.18,3.05,3.05,0,0,1,.6-.06,1.72,1.72,0,0,1,1.14.34,1.17,1.17,0,0,1,.38.92v1.53a.92.92,0,0,0,0,.33.14.14,0,0,0,.13.11.71.71,0,0,0,.32-.12Zm-1.73-.76v-.94a3.72,3.72,0,0,0-.64.36.56.56,0,0,0-.2.44.41.41,0,0,0,.1.31.33.33,0,0,0,.24.1.43.43,0,0,0,.25-.08A1.38,1.38,0,0,0,86.27,237.48Z" />
      <path d="M91.1,238.26l-.33.12a1.93,1.93,0,0,1-.38.09,2.35,2.35,0,0,1-.47,0,1.93,1.93,0,0,1-1-.22,1.64,1.64,0,0,1-.61-.55,2,2,0,0,1-.3-.69,2.37,2.37,0,0,1,0-1.22,2.2,2.2,0,0,1,.29-.67,1.72,1.72,0,0,1,.61-.55,2.09,2.09,0,0,1,1-.22,2.61,2.61,0,0,1,.63.07,2.69,2.69,0,0,1,.5.17v1.1a3,3,0,0,0-1-.22.84.84,0,0,0-.84.93,1,1,0,0,0,.13.53.76.76,0,0,0,.32.32.81.81,0,0,0,.39.1,1.7,1.7,0,0,0,.42-.06l.58-.18Z" />
      <path d="M95.58,238.44H94l-1.34-1.89v1.89H91.41V233h1.26v3.17l1.22-1.74h1.49L94,236.32Z" />
    </g>
    <g>
      <path d="M127.15,235.83a2.85,2.85,0,0,1-.27,1.34,2.6,2.6,0,0,1-.62.81,2.06,2.06,0,0,1-1.44.46h-2.57V233h2a4.38,4.38,0,0,1,.77.05,3,3,0,0,1,.57.15,1.91,1.91,0,0,1,.43.21,2.13,2.13,0,0,1,.32.26,2.49,2.49,0,0,1,.43.53,2.93,2.93,0,0,1,.29.72A3.48,3.48,0,0,1,127.15,235.83Zm-1.46-.07a2,2,0,0,0-.22-1,1.14,1.14,0,0,0-.54-.49,1.51,1.51,0,0,0-.63-.13h-.61v3.21h.61a1.63,1.63,0,0,0,1-.3A1.54,1.54,0,0,0,125.69,235.76Z" />
      <path d="M131.14,236.79h-2.46a1,1,0,0,0,.35.6,1,1,0,0,0,.64.23,3.05,3.05,0,0,0,1.38-.4v.87a3.42,3.42,0,0,1-.66.29,3,3,0,0,1-1,.13,2.11,2.11,0,0,1-1.1-.27,1.73,1.73,0,0,1-.68-.74,2.47,2.47,0,0,1-.23-1.07,2.38,2.38,0,0,1,.23-1.05,1.69,1.69,0,0,1,.68-.72,2.11,2.11,0,0,1,1.1-.27,1.72,1.72,0,0,1,.82.21,1.64,1.64,0,0,1,.66.69,2.54,2.54,0,0,1,.25,1.22ZM130,236.1a1,1,0,0,0-.17-.61.54.54,0,0,0-.48-.23.64.64,0,0,0-.5.23,1,1,0,0,0-.19.61Z" />
      <path d="M134.47,238.26l-.33.12a2,2,0,0,1-.39.09,2.29,2.29,0,0,1-.47,0,2,2,0,0,1-1-.22,1.72,1.72,0,0,1-.61-.55,2.45,2.45,0,0,1-.3-.69,2.37,2.37,0,0,1,0-1.22,2.23,2.23,0,0,1,.3-.67,1.64,1.64,0,0,1,.61-.55,2,2,0,0,1,1-.22,2.77,2.77,0,0,1,.64.07,2.6,2.6,0,0,1,.49.17v1.1a2.9,2.9,0,0,0-.94-.22.84.84,0,0,0-.85.93,1.06,1.06,0,0,0,.13.53.82.82,0,0,0,.32.32.85.85,0,0,0,.4.1,1.76,1.76,0,0,0,.42-.06l.58-.18Z" />
      <path d="M138.42,238.24c-.19.08-.35.15-.51.2a1.75,1.75,0,0,1-.55.07.63.63,0,0,1-.43-.12.74.74,0,0,1-.17-.3,1.9,1.9,0,0,1-.44.3,1.46,1.46,0,0,1-.64.12,1.16,1.16,0,0,1-.62-.15.92.92,0,0,1-.33-.38,1.27,1.27,0,0,1-.09-.47,1.07,1.07,0,0,1,.16-.61,1.28,1.28,0,0,1,.44-.39,4.43,4.43,0,0,1,.73-.31l.39-.15.2-.07.13-.07a.85.85,0,0,0-.1-.46c-.07-.11-.22-.16-.45-.16a1.5,1.5,0,0,0-.75.2,2.61,2.61,0,0,0-.63.53v-1.08a1.93,1.93,0,0,1,.49-.31,2.81,2.81,0,0,1,.56-.18,3,3,0,0,1,.59-.06,1.73,1.73,0,0,1,1.15.34,1.17,1.17,0,0,1,.38.92v1.53a.92.92,0,0,0,0,.33.14.14,0,0,0,.13.11.71.71,0,0,0,.32-.12Zm-1.73-.76v-.94a3.72,3.72,0,0,0-.64.36.56.56,0,0,0-.2.44.41.41,0,0,0,.1.31.32.32,0,0,0,.23.1.44.44,0,0,0,.26-.08A1.38,1.38,0,0,0,136.69,237.48Z" />
      <path d="M142.27,234.46l-2.38,5.79h-1.25l1-2.33-1.39-3.46h1.33l.71,2,.81-2Z" />
    </g>
    <g>
      <path d="M172.41,238.44h-1.55l-.37-1a4.3,4.3,0,0,0-.37-.77.83.83,0,0,0-.32-.31,1,1,0,0,0-.41-.07h-.16v2.11h-1.44V233h2.45a1.66,1.66,0,0,1,1,.27,1.55,1.55,0,0,1,.54.66,1.93,1.93,0,0,1,.17.75,1.6,1.6,0,0,1-.14.69,1.17,1.17,0,0,1-.29.41,3.12,3.12,0,0,1-.35.25,1.45,1.45,0,0,1,.38.36,5.21,5.21,0,0,1,.41.85Zm-2-3.7a.61.61,0,0,0-.21-.53,1.4,1.4,0,0,0-.71-.14h-.3v1.3h.31a1.36,1.36,0,0,0,.72-.13A.56.56,0,0,0,170.45,234.74Z" />
      <path d="M176.16,236.79H173.7a1,1,0,0,0,.35.6,1,1,0,0,0,.64.23,3.05,3.05,0,0,0,1.38-.4v.87a3.61,3.61,0,0,1-.65.29,3.08,3.08,0,0,1-1,.13,2.11,2.11,0,0,1-1.1-.27,1.73,1.73,0,0,1-.68-.74,2.47,2.47,0,0,1-.22-1.07,2.38,2.38,0,0,1,.22-1.05,1.69,1.69,0,0,1,.68-.72,2.11,2.11,0,0,1,1.1-.27,1.7,1.7,0,0,1,.82.21,1.58,1.58,0,0,1,.66.69,2.54,2.54,0,0,1,.25,1.22ZM175,236.1a1,1,0,0,0-.16-.61.56.56,0,0,0-.48-.23.61.61,0,0,0-.5.23.91.91,0,0,0-.2.61Z" />
      <path d="M177.79,238.44h-1.24V233h1.24Z" />
      <path d="M182,236.79h-2.46a1,1,0,0,0,1,.83,3.05,3.05,0,0,0,1.38-.4v.87a3.61,3.61,0,0,1-.65.29,3.08,3.08,0,0,1-1,.13,2.11,2.11,0,0,1-1.1-.27,1.73,1.73,0,0,1-.68-.74,2.47,2.47,0,0,1-.22-1.07,2.38,2.38,0,0,1,.22-1.05,1.69,1.69,0,0,1,.68-.72,2.11,2.11,0,0,1,1.1-.27,1.7,1.7,0,0,1,.82.21,1.58,1.58,0,0,1,.66.69,2.54,2.54,0,0,1,.25,1.22Zm-1.16-.69a.94.94,0,0,0-.17-.61.54.54,0,0,0-.48-.23.64.64,0,0,0-.5.23,1,1,0,0,0-.19.61Z" />
      <path d="M185.91,238.24l-.5.2a1.82,1.82,0,0,1-.56.07.59.59,0,0,1-.42-.12.64.64,0,0,1-.17-.3,2,2,0,0,1-.45.3,1.43,1.43,0,0,1-.64.12,1.1,1.1,0,0,1-.61-.15.8.8,0,0,1-.33-.38,1.1,1.1,0,0,1-.1-.47,1.07,1.07,0,0,1,.17-.61,1.16,1.16,0,0,1,.43-.39,4.84,4.84,0,0,1,.73-.31l.39-.15.2-.07.14-.07a1,1,0,0,0-.1-.46c-.07-.11-.22-.16-.45-.16a1.5,1.5,0,0,0-.75.2,2.48,2.48,0,0,0-.64.53v-1.08a2,2,0,0,1,.5-.31,2.62,2.62,0,0,1,.56-.18,2.88,2.88,0,0,1,.59-.06,1.69,1.69,0,0,1,1.14.34,1.14,1.14,0,0,1,.39.92v1.53a1.31,1.31,0,0,0,0,.33c0,.07.07.11.13.11a.67.67,0,0,0,.32-.12Zm-1.72-.76v-.94a3.07,3.07,0,0,0-.64.36.54.54,0,0,0-.21.44.46.46,0,0,0,.1.31.33.33,0,0,0,.24.1.41.41,0,0,0,.25-.08A1.43,1.43,0,0,0,184.19,237.48Z" />
      <path d="M188.75,237.28a1.16,1.16,0,0,1-.35.89,1.43,1.43,0,0,1-1.05.34,2.91,2.91,0,0,1-.69-.08,4.77,4.77,0,0,1-.66-.23v-1a3.62,3.62,0,0,0,.55.31,1.18,1.18,0,0,0,.5.11c.31,0,.47-.1.47-.29a.31.31,0,0,0-.07-.18,1.36,1.36,0,0,0-.23-.17l-.45-.23a1.62,1.62,0,0,1-.58-.46,1,1,0,0,1-.25-.7,1.17,1.17,0,0,1,.16-.57,1.13,1.13,0,0,1,.49-.45,1.55,1.55,0,0,1,.78-.18l.28,0a2.55,2.55,0,0,1,.43.09,2.13,2.13,0,0,1,.49.21v1l-.18-.13-.2-.11a1.6,1.6,0,0,0-.29-.11,1,1,0,0,0-.34-.05.36.36,0,0,0-.29.09.28.28,0,0,0-.08.19.23.23,0,0,0,.08.18,1.11,1.11,0,0,0,.37.21,3.3,3.3,0,0,1,.66.37,1.14,1.14,0,0,1,.35.42A1.25,1.25,0,0,1,188.75,237.28Z" />
      <path d="M192.73,236.79h-2.46a1,1,0,0,0,.35.6,1,1,0,0,0,.64.23,3.05,3.05,0,0,0,1.38-.4v.87a3.42,3.42,0,0,1-.66.29,3,3,0,0,1-1,.13,2.11,2.11,0,0,1-1.1-.27,1.73,1.73,0,0,1-.68-.74,2.47,2.47,0,0,1-.23-1.07,2.38,2.38,0,0,1,.23-1.05,1.69,1.69,0,0,1,.68-.72,2.11,2.11,0,0,1,1.1-.27,1.72,1.72,0,0,1,.82.21,1.56,1.56,0,0,1,.65.69,2.43,2.43,0,0,1,.26,1.22Zm-1.16-.69a1,1,0,0,0-.17-.61.54.54,0,0,0-.48-.23.64.64,0,0,0-.5.23,1,1,0,0,0-.19.61Z" />
    </g>
    <g>
      <path d="M28.44,334.73H26.9l-.38-1a3.7,3.7,0,0,0-.37-.77.83.83,0,0,0-.32-.31.93.93,0,0,0-.4-.07h-.16v2.11H23.83v-5.41h2.44a1.61,1.61,0,0,1,1,.27,1.67,1.67,0,0,1,.55.67A1.9,1.9,0,0,1,28,331a1.47,1.47,0,0,1-.14.69,1.33,1.33,0,0,1-.29.42,3.53,3.53,0,0,1-.35.24,1.31,1.31,0,0,1,.38.36,4.48,4.48,0,0,1,.41.85Zm-2-3.7a.57.57,0,0,0-.22-.52,1.25,1.25,0,0,0-.7-.15h-.3v1.3h.3a1.32,1.32,0,0,0,.72-.13A.55.55,0,0,0,26.49,331Z" style="fill: #ededed" />
      <path d="M32.2,333.09H29.73a1,1,0,0,0,.36.59,1,1,0,0,0,.64.23,3,3,0,0,0,1.38-.4v.87a2.9,2.9,0,0,1-.66.29,3,3,0,0,1-1,.13,2.11,2.11,0,0,1-1.1-.27,1.67,1.67,0,0,1-.68-.74,2.43,2.43,0,0,1-.23-1.06,2.38,2.38,0,0,1,.23-1.05,1.65,1.65,0,0,1,.68-.73,2.21,2.21,0,0,1,1.1-.26,1.75,1.75,0,0,1,.82.21,1.59,1.59,0,0,1,.65.68,2.57,2.57,0,0,1,.26,1.22Zm-1.16-.7a1,1,0,0,0-.17-.61.56.56,0,0,0-.48-.23.63.63,0,0,0-.5.23.93.93,0,0,0-.19.61Z" style="fill: #ededed" />
      <path d="M33.83,334.73H32.59v-5.41h1.24Z" style="fill: #ededed" />
      <path d="M38,333.09H35.52a1,1,0,0,0,.36.59,1,1,0,0,0,.64.23,3,3,0,0,0,1.38-.4v.87a2.9,2.9,0,0,1-.66.29,3.06,3.06,0,0,1-1,.13,2.11,2.11,0,0,1-1.1-.27,1.67,1.67,0,0,1-.68-.74,2.43,2.43,0,0,1-.23-1.06,2.38,2.38,0,0,1,.23-1.05,1.65,1.65,0,0,1,.68-.73,2.21,2.21,0,0,1,1.1-.26,1.75,1.75,0,0,1,.82.21,1.59,1.59,0,0,1,.65.68A2.57,2.57,0,0,1,38,332.8Zm-1.16-.7a1,1,0,0,0-.17-.61.56.56,0,0,0-.48-.23.63.63,0,0,0-.5.23.93.93,0,0,0-.19.61Z" style="fill: #ededed" />
      <path d="M42,334.54l-.51.19a1.75,1.75,0,0,1-.55.07.61.61,0,0,1-.43-.12.74.74,0,0,1-.17-.3,1.94,1.94,0,0,1-.44.31,1.64,1.64,0,0,1-.64.11,1.14,1.14,0,0,1-.62-.15.83.83,0,0,1-.33-.37,1.32,1.32,0,0,1-.09-.48,1,1,0,0,1,.16-.6,1.42,1.42,0,0,1,.44-.4,5.5,5.5,0,0,1,.73-.31l.39-.14.2-.08.13-.07a.83.83,0,0,0-.1-.45.5.5,0,0,0-.45-.17,1.42,1.42,0,0,0-.75.21,2.57,2.57,0,0,0-.64.52v-1.08a2.6,2.6,0,0,1,.5-.31,2.78,2.78,0,0,1,.56-.17,3,3,0,0,1,.59-.06,1.73,1.73,0,0,1,1.15.33,1.17,1.17,0,0,1,.38.92v1.54a.89.89,0,0,0,0,.32.13.13,0,0,0,.13.11.8.8,0,0,0,.32-.11Zm-1.73-.77v-.94a3.64,3.64,0,0,0-.64.37.5.5,0,0,0-.2.44.4.4,0,0,0,.1.3.31.31,0,0,0,.23.11A.52.52,0,0,0,40,334,2.19,2.19,0,0,0,40.22,333.77Z" style="fill: #ededed" />
      <path d="M44.79,333.57a1.2,1.2,0,0,1-.35.89,1.46,1.46,0,0,1-1,.34,2.42,2.42,0,0,1-.69-.08,6.36,6.36,0,0,1-.66-.22v-1a5.41,5.41,0,0,0,.54.3,1.06,1.06,0,0,0,.51.11c.31,0,.46-.1.46-.29a.23.23,0,0,0-.07-.17.8.8,0,0,0-.23-.17,3.06,3.06,0,0,0-.45-.23,2,2,0,0,1-.58-.46,1.09,1.09,0,0,1-.24-.71,1.07,1.07,0,0,1,.16-.57,1.31,1.31,0,0,1,.48-.45,1.73,1.73,0,0,1,.78-.17,1.47,1.47,0,0,1,.28,0,2.57,2.57,0,0,1,.93.3v1l-.19-.12a.87.87,0,0,0-.2-.12,1.36,1.36,0,0,0-.29-.11,1.27,1.27,0,0,0-.34-.05.34.34,0,0,0-.29.1.29.29,0,0,0-.08.18.25.25,0,0,0,.08.18,1.24,1.24,0,0,0,.37.21,3.23,3.23,0,0,1,.66.37,1.12,1.12,0,0,1,.35.42A1.25,1.25,0,0,1,44.79,333.57Z" style="fill: #ededed" />
      <path d="M48.77,333.09H46.3a1,1,0,0,0,.36.59,1,1,0,0,0,.63.23,3,3,0,0,0,1.39-.4v.87a2.9,2.9,0,0,1-.66.29,3.08,3.08,0,0,1-1,.13,2.14,2.14,0,0,1-1.1-.27,1.73,1.73,0,0,1-.68-.74,2.42,2.42,0,0,1-.22-1.06,2.38,2.38,0,0,1,.22-1.05,1.71,1.71,0,0,1,.68-.73,2.24,2.24,0,0,1,1.1-.26,1.76,1.76,0,0,1,.83.21,1.59,1.59,0,0,1,.65.68,2.57,2.57,0,0,1,.26,1.22Zm-1.17-.7a1,1,0,0,0-.16-.61.56.56,0,0,0-.48-.23.61.61,0,0,0-.5.23.93.93,0,0,0-.19.61Z" style="fill: #ededed" />
    </g>
    <g>
      <path d="M75.8,333.16a1.67,1.67,0,0,1-.22.88,1.53,1.53,0,0,1-.64.57,2.19,2.19,0,0,1-.94.19,2.43,2.43,0,0,1-.36,0,2.65,2.65,0,0,1-.57-.12,4,4,0,0,1-.74-.28v-1.33a4.4,4.4,0,0,0,.71.42,1.71,1.71,0,0,0,.74.17.61.61,0,0,0,.48-.14.41.41,0,0,0-.08-.63,2.5,2.5,0,0,0-.54-.31,4.49,4.49,0,0,1-.69-.41,2,2,0,0,1-.48-.55,1.65,1.65,0,0,1-.19-.79,1.74,1.74,0,0,1,.19-.79,1.43,1.43,0,0,1,.58-.56,2,2,0,0,1,1-.21,3.43,3.43,0,0,1,.74.08,3.56,3.56,0,0,1,.56.2l.3.17V331a3.62,3.62,0,0,0-.65-.42,1.6,1.6,0,0,0-.77-.19.54.54,0,0,0-.39.12.39.39,0,0,0,0,.56,1.82,1.82,0,0,0,.43.29,6.74,6.74,0,0,1,.88.53,1.78,1.78,0,0,1,.52.54A1.47,1.47,0,0,1,75.8,333.16Z" style="fill: #ededed" />
      <path d="M80,334.73H78.74v-.56a1.88,1.88,0,0,1-.55.48,1.47,1.47,0,0,1-.69.15,1,1,0,0,1-1-.52,2.84,2.84,0,0,1-.24-1.19v-2.33h1.24v2.15a1.4,1.4,0,0,0,.1.56.39.39,0,0,0,.41.25.55.55,0,0,0,.43-.18,2.64,2.64,0,0,0,.32-.45v-2.33H80Z" style="fill: #ededed" />
      <path d="M83.23,333.57a1.2,1.2,0,0,1-.35.89,1.46,1.46,0,0,1-1,.34,2.42,2.42,0,0,1-.69-.08,6.36,6.36,0,0,1-.66-.22v-1a5.41,5.41,0,0,0,.54.3,1.09,1.09,0,0,0,.51.11c.31,0,.46-.1.46-.29a.27.27,0,0,0-.06-.17,1.07,1.07,0,0,0-.24-.17,3.46,3.46,0,0,0-.44-.23,1.92,1.92,0,0,1-.59-.46,1.09,1.09,0,0,1-.24-.71,1.07,1.07,0,0,1,.16-.57,1.31,1.31,0,0,1,.48-.45,1.73,1.73,0,0,1,.78-.17,1.47,1.47,0,0,1,.28,0,2.57,2.57,0,0,1,.93.3v1l-.19-.12a1,1,0,0,0-.19-.12,2,2,0,0,0-.29-.11,1.41,1.41,0,0,0-.35-.05.34.34,0,0,0-.29.1.29.29,0,0,0-.08.18.25.25,0,0,0,.08.18,1.24,1.24,0,0,0,.37.21,3.23,3.23,0,0,1,.66.37,1,1,0,0,1,.35.42A1.25,1.25,0,0,1,83.23,333.57Z" style="fill: #ededed" />
      <path d="M86.38,334.5a3.23,3.23,0,0,1-.53.21,2.54,2.54,0,0,1-.65.09c-.89,0-1.34-.49-1.34-1.48v-1.59H83.3v-.24L85,329.57h.14v1.19h1.19v1H85.1V333a1.73,1.73,0,0,0,0,.36.39.39,0,0,0,.13.23.55.55,0,0,0,.34.09,1.76,1.76,0,0,0,.78-.28Z" style="fill: #ededed" />
      <path d="M90.27,334.54c-.18.08-.35.14-.5.19a1.86,1.86,0,0,1-.56.07.59.59,0,0,1-.42-.12.64.64,0,0,1-.17-.3,2,2,0,0,1-.45.31,1.6,1.6,0,0,1-.64.11,1.1,1.1,0,0,1-.61-.15.78.78,0,0,1-.33-.37,1.15,1.15,0,0,1-.1-.48,1,1,0,0,1,.17-.6,1.28,1.28,0,0,1,.43-.4,6.15,6.15,0,0,1,.73-.31l.39-.14.2-.08.14-.07a.83.83,0,0,0-.11-.45c-.06-.11-.21-.17-.44-.17a1.42,1.42,0,0,0-.75.21,2.25,2.25,0,0,0-.64.52v-1.08a2.33,2.33,0,0,1,.5-.31,2.6,2.6,0,0,1,.56-.17,2.88,2.88,0,0,1,.59-.06,1.69,1.69,0,0,1,1.14.33,1.14,1.14,0,0,1,.39.92v1.54a1.27,1.27,0,0,0,0,.32c0,.07.07.11.13.11a.76.76,0,0,0,.32-.11Zm-1.72-.77v-.94a3.44,3.44,0,0,0-.65.37.53.53,0,0,0-.2.44.45.45,0,0,0,.1.3.34.34,0,0,0,.24.11.49.49,0,0,0,.25-.08A2.26,2.26,0,0,0,88.55,333.77Z" style="fill: #ededed" />
      <path d="M91.68,334.73H90.44v-4h1.24Zm-.1-4.89a.64.64,0,0,1-.15.42.51.51,0,0,1-.37.17.5.5,0,0,1-.27-.08.53.53,0,0,1-.18-.21.6.6,0,0,1-.07-.3.64.64,0,0,1,.15-.42.45.45,0,0,1,.37-.17.48.48,0,0,1,.37.17A.64.64,0,0,1,91.58,329.84Z" style="fill: #ededed" />
      <path d="M96,334.73H94.75v-2.14a1.62,1.62,0,0,0-.09-.57.41.41,0,0,0-.42-.25.5.5,0,0,0-.27.07,1,1,0,0,0-.2.16l-.15.2a1.37,1.37,0,0,0-.13.2v2.33H92.25v-4h1.24v.57a1.73,1.73,0,0,1,.58-.5,1.45,1.45,0,0,1,.66-.14q1.26,0,1.26,1.71Z" style="fill: #ededed" />
    </g>
    <g>
      <path d="M129.47,334.73H128v-2.11h-2.17v2.11h-1.43v-5.41h1.43v2H128v-2h1.43Z" style="fill: #ededed" />
      <path d="M134.05,332.74a2.39,2.39,0,0,1-.23,1.06,1.73,1.73,0,0,1-.68.74,2.21,2.21,0,0,1-1.1.26,2.18,2.18,0,0,1-1.1-.26,1.67,1.67,0,0,1-.68-.74,2.39,2.39,0,0,1-.23-1.06,2.3,2.3,0,0,1,.13-.81,1.69,1.69,0,0,1,.38-.65,1.67,1.67,0,0,1,.63-.44,2.6,2.6,0,0,1,1.74,0,1.6,1.6,0,0,1,.63.43,1.92,1.92,0,0,1,.38.65A2.66,2.66,0,0,1,134.05,332.74Zm-1.31,0a1.33,1.33,0,0,0-.18-.74.64.64,0,0,0-1,0,1.61,1.61,0,0,0,0,1.48.57.57,0,0,0,.52.28.58.58,0,0,0,.52-.27A1.36,1.36,0,0,0,132.74,332.74Z" style="fill: #ededed" />
      <path d="M135.71,334.73h-1.24v-5.41h1.24Z" style="fill: #ededed" />
      <path d="M140,334.73h-1.24v-.35a2.26,2.26,0,0,1-.41.3,1.29,1.29,0,0,1-.61.12,1.52,1.52,0,0,1-.75-.21,1.65,1.65,0,0,1-.6-.67,2.45,2.45,0,0,1-.24-1.15,2.79,2.79,0,0,1,.18-1,1.78,1.78,0,0,1,.56-.78,1.55,1.55,0,0,1,.94-.29,1.64,1.64,0,0,1,.55.08,1.4,1.4,0,0,1,.38.22v-1.67H140Zm-1.24-1.26V332l-.34-.2a.64.64,0,0,0-.28-.05.57.57,0,0,0-.49.28,1.29,1.29,0,0,0-.2.76,1.16,1.16,0,0,0,.21.77.61.61,0,0,0,.48.24.8.8,0,0,0,.36-.08A1.21,1.21,0,0,0,138.74,333.47Z" style="fill: #ededed" />
    </g>
    <g>
      <path d="M179.19,332a3.26,3.26,0,0,1-.3,1.4,2.42,2.42,0,0,1-.92,1,3.11,3.11,0,0,1-3,0,2.39,2.39,0,0,1-.9-1,3.19,3.19,0,0,1-.3-1.37,3.29,3.29,0,0,1,.29-1.36,2.38,2.38,0,0,1,.91-1,2.83,2.83,0,0,1,1.5-.38,3,3,0,0,1,1.18.22,2.42,2.42,0,0,1,.85.6,2.6,2.6,0,0,1,.5.89A3.14,3.14,0,0,1,179.19,332Zm-1.46,0a1.87,1.87,0,0,0-.08-.55,1.11,1.11,0,0,0-.24-.44,1.05,1.05,0,0,0-.39-.29,1.25,1.25,0,0,0-.53-.1,1.12,1.12,0,0,0-.91.38,1.47,1.47,0,0,0-.33,1,1.5,1.5,0,0,0,.33,1,1.14,1.14,0,0,0,.91.38,1.28,1.28,0,0,0,.67-.17,1.17,1.17,0,0,0,.43-.5A1.81,1.81,0,0,0,177.73,332Z" style="fill: #ededed" />
      <path d="M183.29,334.73h-1.24v-.56a2,2,0,0,1-.55.48,1.47,1.47,0,0,1-.69.15,1,1,0,0,1-1-.52,2.84,2.84,0,0,1-.24-1.19v-2.33h1.24v2.15a1.4,1.4,0,0,0,.1.56.39.39,0,0,0,.41.25.55.55,0,0,0,.43-.18,2.64,2.64,0,0,0,.32-.45v-2.33h1.24Z" style="fill: #ededed" />
      <path d="M186.56,334.5a2.9,2.9,0,0,1-.53.21,2.48,2.48,0,0,1-.65.09c-.89,0-1.33-.49-1.33-1.48v-1.59h-.56v-.24l1.66-1.92h.14v1.19h1.18v1h-1.18V333a3.21,3.21,0,0,0,0,.36.4.4,0,0,0,.14.23.51.51,0,0,0,.34.09,1.77,1.77,0,0,0,.77-.28Z" style="fill: #ededed" />
    </g>
    <path d="M17.85,324v11a5.68,5.68,0,0,0,5.67,5.67H36.45" style="fill: none;stroke: #000;stroke-miterlimit: 10" />
    <g>
      <path d="M113.74,7.63l-5.53,7v-6a1.3,1.3,0,0,0-.64-1.18.91.91,0,0,0-1.13.3L99.16,17a1.49,1.49,0,0,0,0,1.79.9.9,0,0,0,1.46,0l5.5-7v6a1.3,1.3,0,0,0,.64,1.18.92.92,0,0,0,1.14-.3l5.53-7V17.8a1.05,1.05,0,1,0,2.06,0V8.51a1.27,1.27,0,0,0-.65-1.17A.9.9,0,0,0,113.74,7.63Z" style="stroke: #000;stroke-width: 0.6000000000000001px" />
      <path d="M99.16,7.56l-4.81,6.13a1.47,1.47,0,0,0,0,1.79.91.91,0,0,0,1.46,0l3-3.87v6.3a1.05,1.05,0,1,0,2.06,0V8.44a1.28,1.28,0,0,0-.65-1.17A.9.9,0,0,0,99.16,7.56Z" style="stroke: #000;stroke-width: 0.6000000000000001px" />
      <path d="M122.11,12.08a1,1,0,0,0-1-.77h-2.1l1.53-2s.8-1.18.1-1.82-1.58.06-1.58.06l-3.23,4.1a1.44,1.44,0,0,0-.2,1.37,1,1,0,0,0,.95.77h2.1L116.24,17s-1,1.13-.27,1.9,1.75-.14,1.75-.14l4.18-5.32A1.47,1.47,0,0,0,122.11,12.08Z" style="stroke: #000;stroke-width: 0.6000000000000001px" />
    </g>
    <path d="M198.38,272.76V249.54H176.84c-7.49,0-13.56,7-13.56,15.71v32.94h29.46a5.66,5.66,0,0,0,5.64-5.67V272.76Z" />
    <path d="M17.81,272.76V249.54H39.34c7.5,0,13.57,7,13.57,15.71v32.94H23.45a5.66,5.66,0,0,1-5.64-5.67V272.76Z" />
    <g>
      <path d="M30.32,287.48H28.85l-.39-1.1H26.39l-.4,1.1H24.52l2.11-5.42h1.59Zm-2.19-2-.7-2-.71,2Z" style="fill: #fff" />
      <path d="M33.22,287.25a2.19,2.19,0,0,1-.53.2,2.13,2.13,0,0,1-.64.1c-.9,0-1.34-.5-1.34-1.49v-1.58h-.56v-.25l1.66-1.92H32v1.19h1.18v1H32v1.27a3.21,3.21,0,0,0,0,.36.43.43,0,0,0,.14.23.53.53,0,0,0,.34.09,1.65,1.65,0,0,0,.77-.28Z" style="fill: #fff" />
      <path d="M36.25,287.25a2.58,2.58,0,0,1-.53.2,2.24,2.24,0,0,1-.65.1c-.89,0-1.34-.5-1.34-1.49v-1.58h-.56v-.25l1.66-1.92H35v1.19h1.18v1H35v1.27a1.73,1.73,0,0,0,0,.36.36.36,0,0,0,.13.23.55.55,0,0,0,.34.09,1.64,1.64,0,0,0,.78-.28Z" style="fill: #fff" />
      <path d="M40.14,287.28c-.18.08-.35.14-.5.19a1.84,1.84,0,0,1-.56.08.59.59,0,0,1-.42-.12.92.92,0,0,1-.18-.3,1.9,1.9,0,0,1-.44.3,1.43,1.43,0,0,1-.64.12,1.16,1.16,0,0,1-.62-.15.92.92,0,0,1-.33-.38,1.27,1.27,0,0,1-.09-.47,1,1,0,0,1,.16-.61,1.28,1.28,0,0,1,.44-.39,5.37,5.37,0,0,1,.73-.32l.39-.14.2-.08.14-.07a.83.83,0,0,0-.11-.45c-.07-.11-.21-.16-.44-.16a1.44,1.44,0,0,0-.76.2,2.57,2.57,0,0,0-.63.52V284a2.29,2.29,0,0,1,.5-.3,2.45,2.45,0,0,1,.56-.18,2.88,2.88,0,0,1,.59-.06,1.67,1.67,0,0,1,1.14.34,1.12,1.12,0,0,1,.38.92v1.53a1.28,1.28,0,0,0,0,.33.13.13,0,0,0,.13.1.64.64,0,0,0,.32-.11Zm-1.72-.76v-.94a3,3,0,0,0-.65.36.56.56,0,0,0-.2.44.43.43,0,0,0,.1.31.33.33,0,0,0,.24.1.49.49,0,0,0,.25-.08Z" style="fill: #fff" />
      <path d="M43.24,287.29l-.32.13a2.23,2.23,0,0,1-.39.09,2.29,2.29,0,0,1-.47,0,2,2,0,0,1-1-.22,1.58,1.58,0,0,1-.61-.56,1.94,1.94,0,0,1-.3-.68,2.37,2.37,0,0,1,0-1.22,2.54,2.54,0,0,1,.29-.68,1.9,1.9,0,0,1,.61-.54,2,2,0,0,1,1-.22,2.68,2.68,0,0,1,.63.06c.16.05.33.1.5.17v1.11a3,3,0,0,0-.95-.22.81.81,0,0,0-.58.23.88.88,0,0,0-.26.7,1,1,0,0,0,.13.53.76.76,0,0,0,.32.32.81.81,0,0,0,.39.1,1.64,1.64,0,0,0,.42-.06,6,6,0,0,0,.58-.18Z" style="fill: #fff" />
      <path d="M47.72,287.48H46.15l-1.34-1.89v1.89H43.56v-5.42h1.25v3.18L46,283.5h1.49l-1.37,1.86Z" style="fill: #fff" />
    </g>
    <g>
      <path d="M175.31,284.87a2.94,2.94,0,0,1-.26,1.33,2.83,2.83,0,0,1-.63.82,2.06,2.06,0,0,1-1.44.46h-2.57v-5.42h2a4.22,4.22,0,0,1,.77.06,3,3,0,0,1,.57.14,2.14,2.14,0,0,1,.43.22,1.65,1.65,0,0,1,.32.26,2,2,0,0,1,.43.53,2.78,2.78,0,0,1,.29.72A3.08,3.08,0,0,1,175.31,284.87Zm-1.46-.07a2,2,0,0,0-.22-1,1.2,1.2,0,0,0-.53-.5,1.77,1.77,0,0,0-.64-.12h-.61v3.21h.61a1.64,1.64,0,0,0,1-.31A1.5,1.5,0,0,0,173.85,284.8Z" style="fill: #fff" />
      <path d="M179.3,285.83h-2.46a1,1,0,0,0,.35.59,1,1,0,0,0,.64.23,2.93,2.93,0,0,0,1.38-.4v.88a4.47,4.47,0,0,1-.65.29,3.39,3.39,0,0,1-1,.13,2,2,0,0,1-1.1-.28,1.73,1.73,0,0,1-.68-.74,2.64,2.64,0,0,1,0-2.11,1.71,1.71,0,0,1,.68-.73,2.21,2.21,0,0,1,1.1-.26,1.72,1.72,0,0,1,.82.21,1.61,1.61,0,0,1,.66.68,2.61,2.61,0,0,1,.25,1.23Zm-1.16-.7a1,1,0,0,0-.17-.61.56.56,0,0,0-.48-.23.62.62,0,0,0-.5.24.94.94,0,0,0-.19.6Z" style="fill: #fff" />
      <path d="M182.63,287.29l-.33.13a2.84,2.84,0,0,1-.39.09,2.25,2.25,0,0,1-.46,0,2.09,2.09,0,0,1-1-.22,1.74,1.74,0,0,1-.61-.56,2.4,2.4,0,0,1-.3-.68,3,3,0,0,1-.08-.61,2.57,2.57,0,0,1,.09-.62,2.07,2.07,0,0,1,.29-.67,1.62,1.62,0,0,1,.61-.54,2,2,0,0,1,1-.22,2.74,2.74,0,0,1,.63.06,3.17,3.17,0,0,1,.49.17v1.11a2.9,2.9,0,0,0-.94-.22.87.87,0,0,0-.59.22.9.9,0,0,0-.25.71,1.07,1.07,0,0,0,.12.53.78.78,0,0,0,.33.32.81.81,0,0,0,.39.1,1.76,1.76,0,0,0,.42-.06l.58-.18Z" style="fill: #fff" />
      <path d="M186.58,287.28c-.18.08-.35.14-.5.19a1.84,1.84,0,0,1-.56.08.54.54,0,0,1-.42-.13.79.79,0,0,1-.18-.29,1.9,1.9,0,0,1-.44.3,1.46,1.46,0,0,1-.64.12,1.16,1.16,0,0,1-.62-.15.92.92,0,0,1-.33-.38,1.27,1.27,0,0,1-.09-.47,1,1,0,0,1,.16-.61,1.28,1.28,0,0,1,.44-.39,5.37,5.37,0,0,1,.73-.32l.39-.14.2-.08.14-.07a.83.83,0,0,0-.11-.45c-.07-.11-.22-.16-.44-.16a1.44,1.44,0,0,0-.76.2,2.57,2.57,0,0,0-.63.52V284a2.29,2.29,0,0,1,.5-.3,2.45,2.45,0,0,1,.56-.18,2.88,2.88,0,0,1,.59-.06,1.72,1.72,0,0,1,1.14.33,1.15,1.15,0,0,1,.38.92v1.54a1,1,0,0,0,0,.33.13.13,0,0,0,.13.1.67.67,0,0,0,.32-.11Zm-1.72-.76v-.94a3,3,0,0,0-.65.36.54.54,0,0,0-.2.44.4.4,0,0,0,.1.3.34.34,0,0,0,.24.11.49.49,0,0,0,.25-.08Z" style="fill: #fff" />
      <path d="M190.43,283.5l-2.37,5.79h-1.25l1-2.33-1.39-3.46h1.33l.71,2,.81-2Z" style="fill: #fff" />
    </g>
    <g>
      <path d="M102.83,182.9H98.3v-6.76h1.8v5.14h2.73Z" />
      <path d="M108.1,180.41a3,3,0,0,1-.29,1.33,2.13,2.13,0,0,1-.85.91,2.56,2.56,0,0,1-1.37.34,2.62,2.62,0,0,1-1.38-.34,2.13,2.13,0,0,1-.85-.91,3.13,3.13,0,0,1-.28-1.33,3,3,0,0,1,.16-1,2.23,2.23,0,0,1,.48-.81,2,2,0,0,1,.78-.54,3.07,3.07,0,0,1,2.18,0,2.14,2.14,0,0,1,.79.54,2.5,2.5,0,0,1,.47.81A3.3,3.3,0,0,1,108.1,180.41Zm-1.63,0a1.62,1.62,0,0,0-.23-.92.73.73,0,0,0-.65-.34.72.72,0,0,0-.65.34,1.62,1.62,0,0,0-.23.92,1.68,1.68,0,0,0,.23.93.79.79,0,0,0,1.3,0A1.64,1.64,0,0,0,106.47,180.41Z" />
      <path d="M113.38,180.41a3,3,0,0,1-.29,1.33,2.17,2.17,0,0,1-.84.91,3,3,0,0,1-2.76,0,2.13,2.13,0,0,1-.85-.91,3.13,3.13,0,0,1-.28-1.33,3.3,3.3,0,0,1,.16-1,2.23,2.23,0,0,1,.48-.81,1.92,1.92,0,0,1,.79-.54,2.77,2.77,0,0,1,1.08-.2,2.86,2.86,0,0,1,1.09.2,2.14,2.14,0,0,1,.79.54,2.33,2.33,0,0,1,.47.81A3.3,3.3,0,0,1,113.38,180.41Zm-1.63,0a1.62,1.62,0,0,0-.23-.92.73.73,0,0,0-.65-.34.72.72,0,0,0-.65.34,1.62,1.62,0,0,0-.23.92,1.68,1.68,0,0,0,.23.93.79.79,0,0,0,1.3,0A1.64,1.64,0,0,0,111.75,180.41Z" />
      <path d="M118.63,180.38a3.85,3.85,0,0,1-.12,1,2.73,2.73,0,0,1-.38.83,1.79,1.79,0,0,1-.66.59,1.88,1.88,0,0,1-.93.22,1.77,1.77,0,0,1-.68-.1,2.62,2.62,0,0,1-.49-.27v2.54h-1.55v-7.23h1.55v.45a2.12,2.12,0,0,1,.51-.38,1.62,1.62,0,0,1,.76-.16,1.85,1.85,0,0,1,.94.27,2,2,0,0,1,.76.84A3.19,3.19,0,0,1,118.63,180.38Zm-1.63,0a1.89,1.89,0,0,0-.12-.73.88.88,0,0,0-.32-.4.71.71,0,0,0-.41-.13,1,1,0,0,0-.45.1,1.59,1.59,0,0,0-.33.25v1.9l.17.11a1.18,1.18,0,0,0,.19.11l.19.07a.85.85,0,0,0,.23,0,.73.73,0,0,0,.61-.35A1.66,1.66,0,0,0,117,180.42Z" />
    </g>
    <rect x="52.82" y="249.99" width="110.49" height="42.52" rx="4" style="fill: #ededed" />
    <g>
      <path d="M129.47,287.48H128v-2.12h-2.17v2.12h-1.43v-5.42h1.43v2H128v-2h1.43Z" />
      <path d="M134.05,285.49a2.38,2.38,0,0,1-.23,1.05,1.73,1.73,0,0,1-.68.74,2.11,2.11,0,0,1-1.1.27,2.09,2.09,0,0,1-1.1-.27,1.67,1.67,0,0,1-.68-.74,2.38,2.38,0,0,1-.23-1.05,2.35,2.35,0,0,1,.13-.82,1.77,1.77,0,0,1,.38-.65,1.67,1.67,0,0,1,.63-.44,2.33,2.33,0,0,1,.87-.15,2.14,2.14,0,0,1,.87.16,1.51,1.51,0,0,1,.63.43,1.83,1.83,0,0,1,.38.65A2.61,2.61,0,0,1,134.05,285.49Zm-1.31,0a1.28,1.28,0,0,0-.18-.74.64.64,0,0,0-1,0,1.28,1.28,0,0,0-.18.74,1.33,1.33,0,0,0,.18.74.64.64,0,0,0,1,0A1.33,1.33,0,0,0,132.74,285.49Z" />
      <path d="M135.71,287.48h-1.24v-5.42h1.24Z" />
      <path d="M140,287.48h-1.24v-.36a2.33,2.33,0,0,1-.41.31,1.29,1.29,0,0,1-.61.12,1.44,1.44,0,0,1-.75-.22,1.59,1.59,0,0,1-.6-.67,2.41,2.41,0,0,1-.24-1.14,2.88,2.88,0,0,1,.18-1,1.75,1.75,0,0,1,.56-.77,1.49,1.49,0,0,1,.94-.3,1.4,1.4,0,0,1,.55.09,1.19,1.19,0,0,1,.38.22v-1.68H140Zm-1.24-1.27v-1.52a3.44,3.44,0,0,0-.34-.19.64.64,0,0,0-.28-.06.57.57,0,0,0-.49.28,1.33,1.33,0,0,0-.2.77,1.13,1.13,0,0,0,.21.76.61.61,0,0,0,.48.24.68.68,0,0,0,.36-.08A1.21,1.21,0,0,0,138.74,286.21Z" />
    </g>
    <g>
      <path d="M75.8,285.9a1.64,1.64,0,0,1-.22.88,1.53,1.53,0,0,1-.64.57,2.2,2.2,0,0,1-.94.2l-.36,0a4.93,4.93,0,0,1-.57-.12,4,4,0,0,1-.74-.29v-1.33a4.4,4.4,0,0,0,.71.42,1.71,1.71,0,0,0,.74.17.61.61,0,0,0,.48-.14.45.45,0,0,0,.11-.26.46.46,0,0,0-.19-.37,2.5,2.5,0,0,0-.54-.31,3.81,3.81,0,0,1-.69-.41,1.83,1.83,0,0,1-.48-.55,1.61,1.61,0,0,1-.19-.78,1.75,1.75,0,0,1,.19-.8,1.43,1.43,0,0,1,.58-.56,2,2,0,0,1,1-.21,2.89,2.89,0,0,1,.74.09,3.63,3.63,0,0,1,.56.19l.3.18v1.27a4.31,4.31,0,0,0-.65-.43,1.72,1.72,0,0,0-.77-.19.54.54,0,0,0-.39.12.38.38,0,0,0-.12.29.38.38,0,0,0,.12.28,2.27,2.27,0,0,0,.43.28,8.07,8.07,0,0,1,.88.53,1.9,1.9,0,0,1,.52.54A1.47,1.47,0,0,1,75.8,285.9Z" />
      <path d="M80,287.48H78.74v-.57a1.75,1.75,0,0,1-.55.48,1.35,1.35,0,0,1-.69.16,1,1,0,0,1-1-.53,2.8,2.8,0,0,1-.24-1.18V283.5h1.24v2.15a1.42,1.42,0,0,0,.1.57.39.39,0,0,0,.41.24.58.58,0,0,0,.43-.17,3.8,3.8,0,0,0,.32-.45V283.5H80Z" />
      <path d="M83.23,286.32a1.21,1.21,0,0,1-.35.89,1.5,1.5,0,0,1-1,.34,2.84,2.84,0,0,1-.69-.08,4.77,4.77,0,0,1-.66-.23v-1a4.15,4.15,0,0,0,.54.31,1.22,1.22,0,0,0,.51.1c.31,0,.46-.09.46-.29a.27.27,0,0,0-.06-.17,1.07,1.07,0,0,0-.24-.17l-.44-.23a1.78,1.78,0,0,1-.59-.46,1.14,1.14,0,0,1-.08-1.28,1.31,1.31,0,0,1,.48-.45,1.73,1.73,0,0,1,.78-.17l.28,0a2.57,2.57,0,0,1,.93.3v1l-.19-.12-.19-.11a2,2,0,0,0-.29-.12,1.39,1.39,0,0,0-.35,0,.37.37,0,0,0-.29.09.25.25,0,0,0,0,.37,2,2,0,0,0,.37.21,2.82,2.82,0,0,1,.66.37,1,1,0,0,1,.35.41A1.27,1.27,0,0,1,83.23,286.32Z" />
      <path d="M86.38,287.25a2.58,2.58,0,0,1-.53.2,2.19,2.19,0,0,1-.65.1c-.89,0-1.34-.5-1.34-1.49v-1.58H83.3v-.25L85,282.31h.14v1.19h1.19v1H85.1v1.27a1.73,1.73,0,0,0,0,.36.36.36,0,0,0,.13.23.55.55,0,0,0,.34.09,1.64,1.64,0,0,0,.78-.28Z" />
      <path d="M90.27,287.28c-.18.08-.35.14-.5.19a1.84,1.84,0,0,1-.56.08.54.54,0,0,1-.42-.13.66.66,0,0,1-.17-.29,2,2,0,0,1-.45.3,1.43,1.43,0,0,1-.64.12,1.1,1.1,0,0,1-.61-.15.8.8,0,0,1-.33-.38,1.1,1.1,0,0,1-.1-.47,1,1,0,0,1,.17-.61,1.16,1.16,0,0,1,.43-.39,6,6,0,0,1,.73-.32l.39-.14.2-.08.14-.07a.83.83,0,0,0-.11-.45c-.06-.11-.21-.16-.44-.16a1.41,1.41,0,0,0-.75.2,2.44,2.44,0,0,0-.64.52V284a2.29,2.29,0,0,1,.5-.3,2.62,2.62,0,0,1,.56-.18,2.88,2.88,0,0,1,.59-.06,1.69,1.69,0,0,1,1.14.33,1.16,1.16,0,0,1,.39.92v1.54a1.37,1.37,0,0,0,0,.33.13.13,0,0,0,.13.1.64.64,0,0,0,.32-.11Zm-1.72-.76v-.94a3,3,0,0,0-.65.36.56.56,0,0,0-.2.44.45.45,0,0,0,.1.3.34.34,0,0,0,.24.11.49.49,0,0,0,.25-.08A2.14,2.14,0,0,0,88.55,286.52Z" />
      <path d="M91.68,287.48H90.44v-4h1.24Zm-.1-4.9a.6.6,0,0,1-.15.42.48.48,0,0,1-.37.17.43.43,0,0,1-.27-.08.53.53,0,0,1-.18-.21.6.6,0,0,1-.07-.3.59.59,0,0,1,.15-.41.46.46,0,0,1,.37-.18.49.49,0,0,1,.37.18A.59.59,0,0,1,91.58,282.58Z" />
      <path d="M96,287.48H94.75v-2.15a1.62,1.62,0,0,0-.09-.57.41.41,0,0,0-.42-.24.6.6,0,0,0-.27.06.79.79,0,0,0-.2.17l-.15.19a1.37,1.37,0,0,0-.13.2v2.34H92.25v-4h1.24v.57a2,2,0,0,1,.58-.5,1.59,1.59,0,0,1,.66-.14q1.26,0,1.26,1.71Z" />
    </g>
  </g>
  <g /></svg>