<svg xmlns="http://www.w3.org/2000/svg" width="20.41mm" height="130.6mm" viewBox="0 0 57.85 370.19">
  <defs>
    <clipPath id="clip-path">
      <rect x="15.02" y="23.36" width="27.8" height="25.62" style="fill: none" />
    </clipPath>
    <clipPath id="clip-path-3">
      <rect x="15.02" y="69.16" width="27.8" height="25.62" style="fill: none" />
    </clipPath>
    <clipPath id="clip-path-4">
      <rect x="15.02" y="69.16" width="27.8" height="25.62" style="fill: none" />
    </clipPath>
    <clipPath id="clip-path-5">
      <rect x="15.02" y="114.96" width="27.8" height="25.62" style="fill: none" />
    </clipPath>
    <clipPath id="clip-path-7">
      <rect x="15.02" y="160.76" width="27.8" height="25.62" style="fill: none" />
    </clipPath>
  </defs>
  <g id="faceplate">
    <rect x="0.13" y="0.13" width="57.6" height="364.25" style="fill: #ededed;stroke: #9d9d9e;stroke-miterlimit: 10;stroke-width: 0.25px" />
    <g>
      <path d="M24.93,353.48a4.14,4.14,0,0,1-.34,1.84,3.76,3.76,0,0,1-.81,1.12,2.51,2.51,0,0,1-1.83.63h-3.3v-7.44h2.54a5.55,5.55,0,0,1,1,.07,4.26,4.26,0,0,1,.73.2,2.65,2.65,0,0,1,.56.3,3.58,3.58,0,0,1,.41.35,3.24,3.24,0,0,1,.55.74,4.17,4.17,0,0,1,.37,1A5.15,5.15,0,0,1,24.93,353.48Zm-1.87-.09a2.92,2.92,0,0,0-.29-1.42,1.48,1.48,0,0,0-.68-.68,2.1,2.1,0,0,0-.81-.17h-.79v4.41h.79a2,2,0,0,0,1.25-.42A2.15,2.15,0,0,0,23.06,353.39Z" />
      <path d="M31.92,351.44H29.68v5.63H27.85v-5.63H25.61v-1.81h6.31Z" />
      <path d="M39.62,357.07H38l-3.17-4.14v4.14H33v-7.44h1.64l3.16,4.12v-4.12h1.83Z" />
    </g>
    <path d="M28.63,198.69c8,0,14.54,6.09,14.54,13.58v109.8c0,7.49-6.52,13.58-14.54,13.58s-14.54-6.09-14.54-13.58V212.27c0-7.49,6.53-13.58,14.54-13.58m0-1.05C20,197.64,13,204.19,13,212.27v109.8c0,8.08,7,14.63,15.59,14.63s15.59-6.55,15.59-14.63V212.27c0-8.08-7-14.63-15.59-14.63Z" />
    <g>
      <path d="M21.68,239.15H20.24v-5.41h1.44Z" />
      <path d="M26.13,239.15H24.9V237a1.61,1.61,0,0,0-.1-.57.39.39,0,0,0-.41-.25.5.5,0,0,0-.27.07.62.62,0,0,0-.2.16,1.27,1.27,0,0,0-.16.2l-.12.2v2.33H22.4v-4h1.24v.57a1.73,1.73,0,0,1,.58-.5,1.45,1.45,0,0,1,.66-.14c.83,0,1.25.57,1.25,1.71Z" />
      <path d="M30.44,237.14a2.86,2.86,0,0,1-.1.77,2.28,2.28,0,0,1-.31.67,1.47,1.47,0,0,1-.52.47,1.54,1.54,0,0,1-.75.17,1.34,1.34,0,0,1-.54-.08,1.92,1.92,0,0,1-.39-.22v2H26.59v-5.78h1.24v.36a1.53,1.53,0,0,1,.41-.31,1.29,1.29,0,0,1,.61-.12,1.52,1.52,0,0,1,.75.21,1.65,1.65,0,0,1,.6.67A2.45,2.45,0,0,1,30.44,237.14Zm-1.3,0a1.61,1.61,0,0,0-.1-.59.85.85,0,0,0-.26-.32.6.6,0,0,0-.33-.1.74.74,0,0,0-.36.08,1.21,1.21,0,0,0-.26.2V238l.13.09.15.08a.44.44,0,0,0,.16.06.57.57,0,0,0,.18,0,.58.58,0,0,0,.49-.29A1.29,1.29,0,0,0,29.14,237.17Z" />
      <path d="M34.48,239.15H33.25v-.56a1.94,1.94,0,0,1-.55.47,1.35,1.35,0,0,1-.69.16,1,1,0,0,1-1-.52,3,3,0,0,1-.23-1.19v-2.33H32v2.14a1.62,1.62,0,0,0,.09.57.39.39,0,0,0,.41.25.54.54,0,0,0,.43-.18,2.92,2.92,0,0,0,.33-.45v-2.33h1.23Z" />
      <path d="M37.76,238.92a3.23,3.23,0,0,1-.53.21,2.6,2.6,0,0,1-.65.09c-.89,0-1.34-.49-1.34-1.48v-1.59h-.56v-.24L36.34,234h.14v1.2h1.18v1H36.48v1.28a1.86,1.86,0,0,0,0,.36.34.34,0,0,0,.13.22.49.49,0,0,0,.34.1,1.68,1.68,0,0,0,.78-.29Z" />
    </g>
    <g>
      <path d="M21.64,285.6a2.87,2.87,0,0,1-.27,1.34,2.72,2.72,0,0,1-.62.81,2.06,2.06,0,0,1-1.44.46H16.74v-5.42h2a4.22,4.22,0,0,1,.77.06,2.38,2.38,0,0,1,.57.15,1.91,1.91,0,0,1,.43.21,2.13,2.13,0,0,1,.32.26,2.22,2.22,0,0,1,.43.53,2.93,2.93,0,0,1,.29.72A3.48,3.48,0,0,1,21.64,285.6Zm-1.46-.07a2,2,0,0,0-.22-1,1.12,1.12,0,0,0-.53-.49,1.59,1.59,0,0,0-.64-.13h-.61v3.21h.61a1.57,1.57,0,0,0,1-.31A1.5,1.5,0,0,0,20.18,285.53Z" />
      <path d="M25.63,286.56H23.17a1,1,0,0,0,.35.59,1,1,0,0,0,.64.23,3,3,0,0,0,1.38-.39v.87a4.18,4.18,0,0,1-.66.29,3,3,0,0,1-1,.13,2.11,2.11,0,0,1-1.1-.27,1.76,1.76,0,0,1-.68-.75,2.64,2.64,0,0,1,0-2.11,1.63,1.63,0,0,1,.68-.72,2.11,2.11,0,0,1,1.1-.27,1.72,1.72,0,0,1,.82.21,1.61,1.61,0,0,1,.66.68,2.61,2.61,0,0,1,.25,1.23Zm-1.16-.7a1,1,0,0,0-.17-.61.56.56,0,0,0-.48-.23.62.62,0,0,0-.5.24.94.94,0,0,0-.19.6Z" />
      <path d="M28.72,288a2.58,2.58,0,0,1-.53.2,2.19,2.19,0,0,1-.65.1c-.89,0-1.34-.5-1.34-1.49v-1.58h-.56V285L27.3,283h.14v1.19h1.19v1H27.44v1.27a1.73,1.73,0,0,0,0,.36.36.36,0,0,0,.13.23.55.55,0,0,0,.34.09,1.64,1.64,0,0,0,.78-.28Z" />
      <path d="M32.67,288.21H31.43v-.57a1.84,1.84,0,0,1-.55.48,1.35,1.35,0,0,1-.69.16,1,1,0,0,1-1-.53,3,3,0,0,1-.23-1.18v-2.34h1.24v2.15a1.62,1.62,0,0,0,.09.57.39.39,0,0,0,.41.24.55.55,0,0,0,.43-.17,2.92,2.92,0,0,0,.33-.45v-2.34h1.24Z" />
      <path d="M36.91,288.21H35.68v-2.15a1.45,1.45,0,0,0-.1-.57.39.39,0,0,0-.41-.24.6.6,0,0,0-.27.06.79.79,0,0,0-.2.17,2.31,2.31,0,0,0-.16.19l-.12.2v2.34H33.18v-4h1.24v.57a2,2,0,0,1,.58-.5,1.59,1.59,0,0,1,.66-.14c.84,0,1.25.57,1.25,1.71Z" />
      <path d="M41,286.56H38.5a1,1,0,0,0,.35.59,1,1,0,0,0,.64.23,3,3,0,0,0,1.38-.39v.87a4.47,4.47,0,0,1-.65.29,3.08,3.08,0,0,1-1,.13,2.11,2.11,0,0,1-1.1-.27,1.76,1.76,0,0,1-.68-.75,2.64,2.64,0,0,1,0-2.11,1.63,1.63,0,0,1,.68-.72,2.11,2.11,0,0,1,1.1-.27,1.76,1.76,0,0,1,.83.21,1.65,1.65,0,0,1,.65.68,2.61,2.61,0,0,1,.25,1.23Zm-1.16-.7a1,1,0,0,0-.16-.61.57.57,0,0,0-.48-.23.59.59,0,0,0-.5.24.88.88,0,0,0-.19.6Z" />
    </g>
    <g id="pips_-_fewest" data-name="pips - fewest">
      <g style="clip-path: url(#clip-path)">
        <g style="clip-path: url(#clip-path)">
          <path d="M34.62,26.14l.71-1.23a13.87,13.87,0,0,0-5.77-1.55v1.43a12.55,12.55,0,0,1,5.06,1.35" />
          <path d="M39.41,30.48l1.24-.71a14,14,0,0,0-4.23-4.23l-.71,1.23a12.7,12.7,0,0,1,3.7,3.71" />
          <path d="M22.14,26.78l-.71-1.24a14,14,0,0,0-4.23,4.23l1.24.71a12.55,12.55,0,0,1,3.7-3.7" />
          <path d="M41.4,36.63h1.43a13.87,13.87,0,0,0-1.55-5.77l-1.23.71a12.51,12.51,0,0,1,1.35,5.06" />
          <path d="M28.29,24.79V23.36a13.72,13.72,0,0,0-5.77,1.55l.71,1.23a12.55,12.55,0,0,1,5.06-1.35" />
          <path d="M18.44,44.05l-1.24.71A14,14,0,0,0,21.43,49l.71-1.24a12.55,12.55,0,0,1-3.7-3.7" />
          <path d="M35.71,47.75,36.42,49a14,14,0,0,0,4.23-4.23l-1.24-.71a12.55,12.55,0,0,1-3.7,3.7" />
          <path d="M41.4,37.9A12.55,12.55,0,0,1,40.05,43l1.23.71a13.87,13.87,0,0,0,1.55-5.77Z" />
          <path d="M16.45,37.9H15a13.87,13.87,0,0,0,1.55,5.77L17.8,43a12.55,12.55,0,0,1-1.35-5.06" />
          <path d="M17.8,31.57l-1.23-.71A13.87,13.87,0,0,0,15,36.63h1.43a12.51,12.51,0,0,1,1.35-5.06" />
        </g>
      </g>
    </g>
    <g>
      <path d="M20.43,50.82l-2.58,6.86h-1l-1.55-4-1.58,4h-1L10.1,50.82H12l1.24,3.75,1.42-3.75H15.9l1.4,3.75,1.29-3.75Z" />
      <path d="M27.33,55.62a2.07,2.07,0,0,1-.29,1.1,1.84,1.84,0,0,1-.8.71,2.72,2.72,0,0,1-1.17.25l-.45,0a5.18,5.18,0,0,1-.72-.15,5.12,5.12,0,0,1-.92-.36V55.48a6.42,6.42,0,0,0,.88.53,2.19,2.19,0,0,0,.94.21c.31,0,.5-.06.59-.18a.53.53,0,0,0,.14-.32.58.58,0,0,0-.23-.46,2.91,2.91,0,0,0-.68-.39,6.3,6.3,0,0,1-.86-.51,2.49,2.49,0,0,1-.6-.69,2,2,0,0,1-.23-1,2,2,0,0,1,.23-1,1.76,1.76,0,0,1,.72-.71,2.55,2.55,0,0,1,1.19-.26,3.8,3.8,0,0,1,.92.11,3.54,3.54,0,0,1,.7.24l.38.22v1.59a5.29,5.29,0,0,0-.82-.54,2.12,2.12,0,0,0-1-.23.66.66,0,0,0-.48.15.46.46,0,0,0-.15.36.45.45,0,0,0,.15.34,2.6,2.6,0,0,0,.53.36,9.88,9.88,0,0,1,1.1.66,2.2,2.2,0,0,1,.65.68A1.74,1.74,0,0,1,27.33,55.62Z" />
      <path d="M32.74,55.07a3.83,3.83,0,0,1-.12,1,2.67,2.67,0,0,1-.38.84,1.88,1.88,0,0,1-.66.59,2,2,0,0,1-.93.22,1.78,1.78,0,0,1-.68-.11,2.39,2.39,0,0,1-.49-.27v2.55H27.93V52.62h1.55v.45a2.16,2.16,0,0,1,.51-.39,1.63,1.63,0,0,1,.76-.15,1.82,1.82,0,0,1,.94.27,2,2,0,0,1,.76.84A3,3,0,0,1,32.74,55.07Zm-1.62,0a1.87,1.87,0,0,0-.13-.73.91.91,0,0,0-.32-.41.78.78,0,0,0-.41-.12.88.88,0,0,0-.45.1,1.59,1.59,0,0,0-.33.25v1.9l.17.11a.87.87,0,0,0,.19.1l.19.08a.91.91,0,0,0,.23,0,.73.73,0,0,0,.61-.35A1.71,1.71,0,0,0,31.12,55.11Z" />
      <path d="M37.68,55.53H34.6a1.27,1.27,0,0,0,1.24,1,3.8,3.8,0,0,0,1.73-.5v1.09a4.9,4.9,0,0,1-.82.36,3.92,3.92,0,0,1-1.23.17,2.62,2.62,0,0,1-1.38-.35,2.1,2.1,0,0,1-.85-.92A3.16,3.16,0,0,1,33,55.08a3,3,0,0,1,.28-1.31,2.08,2.08,0,0,1,.85-.91,2.71,2.71,0,0,1,1.38-.33,2.28,2.28,0,0,1,1,.26,2,2,0,0,1,.81.86,3.22,3.22,0,0,1,.32,1.53Zm-1.45-.87a1.3,1.3,0,0,0-.21-.77.7.7,0,0,0-.6-.28.77.77,0,0,0-.62.29,1.15,1.15,0,0,0-.24.76Z" />
      <path d="M42.58,55.53H39.5a1.21,1.21,0,0,0,.44.74,1.23,1.23,0,0,0,.8.29,3.77,3.77,0,0,0,1.72-.5v1.09a4.56,4.56,0,0,1-.82.36,3.83,3.83,0,0,1-1.23.17A2.56,2.56,0,0,1,39,57.33a2,2,0,0,1-.85-.92,3,3,0,0,1-.28-1.33,2.9,2.9,0,0,1,.28-1.31,2,2,0,0,1,.85-.91,2.65,2.65,0,0,1,1.37-.33,2.22,2.22,0,0,1,1,.26,2.07,2.07,0,0,1,.82.86,3.22,3.22,0,0,1,.32,1.53Zm-1.46-.87a1.37,1.37,0,0,0-.2-.77.7.7,0,0,0-.6-.28.79.79,0,0,0-.63.29,1.15,1.15,0,0,0-.24.76Z" />
      <path d="M47.61,57.59H46.06v-.45a2.44,2.44,0,0,1-.52.39,1.56,1.56,0,0,1-.75.15,1.85,1.85,0,0,1-.94-.27,2,2,0,0,1-.75-.84,3.06,3.06,0,0,1-.3-1.43A3.53,3.53,0,0,1,43,53.87a2.23,2.23,0,0,1,.7-1,1.84,1.84,0,0,1,1.17-.37,1.94,1.94,0,0,1,.7.11,1.8,1.8,0,0,1,.47.27V50.82h1.55ZM46.06,56v-1.9a4,4,0,0,0-.42-.25.8.8,0,0,0-.36-.07.73.73,0,0,0-.61.35,1.68,1.68,0,0,0-.24,1,1.47,1.47,0,0,0,.25,1,.77.77,0,0,0,.6.3.83.83,0,0,0,.45-.1A1.59,1.59,0,0,0,46.06,56Z" />
    </g>
    <g id="pips_-_fewest-2" data-name="pips - fewest">
      <g style="clip-path: url(#clip-path-3)">
        <g style="clip-path: url(#clip-path-4)">
          <path d="M34.62,71.94l.71-1.23a13.72,13.72,0,0,0-5.77-1.55v1.43a12.39,12.39,0,0,1,5.06,1.35" />
          <path d="M39.41,76.28l1.24-.72a14.07,14.07,0,0,0-4.23-4.22l-.71,1.23a12.58,12.58,0,0,1,3.7,3.71" />
          <path d="M22.14,72.57l-.71-1.23a14.07,14.07,0,0,0-4.23,4.22l1.24.72a12.58,12.58,0,0,1,3.7-3.71" />
          <path d="M41.4,82.43h1.43a13.87,13.87,0,0,0-1.55-5.77l-1.23.71a12.51,12.51,0,0,1,1.35,5.06" />
          <path d="M28.29,70.59V69.16a13.72,13.72,0,0,0-5.77,1.55l.71,1.23a12.39,12.39,0,0,1,5.06-1.35" />
          <path d="M18.44,89.85l-1.24.71a14,14,0,0,0,4.23,4.23l.71-1.24a12.55,12.55,0,0,1-3.7-3.7" />
          <path d="M35.71,93.55l.71,1.23a13.85,13.85,0,0,0,4.23-4.22l-1.24-.71a12.55,12.55,0,0,1-3.7,3.7" />
          <path d="M41.4,83.7a12.46,12.46,0,0,1-1.35,5l1.23.72a13.91,13.91,0,0,0,1.55-5.77Z" />
          <path d="M16.45,83.7H15a13.91,13.91,0,0,0,1.55,5.77l1.23-.72a12.46,12.46,0,0,1-1.35-5" />
          <path d="M17.8,77.37l-1.23-.71A13.87,13.87,0,0,0,15,82.43h1.43a12.51,12.51,0,0,1,1.35-5.06" />
        </g>
      </g>
    </g>
    <g>
      <path d="M20.07,96.62l-2.58,6.86h-1l-1.55-4-1.58,4H12.27L9.74,96.62H11.6l1.24,3.75,1.42-3.75h1.28l1.4,3.75,1.29-3.75Z" />
      <path d="M28.92,100.13a3.62,3.62,0,0,1-.33,1.67,3.44,3.44,0,0,1-.78,1,2.62,2.62,0,0,1-1.79.57H22.8V96.62h2.48a5.19,5.19,0,0,1,.95.07,3.44,3.44,0,0,1,.72.18,2.72,2.72,0,0,1,.54.27,3.3,3.3,0,0,1,.4.32,3,3,0,0,1,.53.67,3.26,3.26,0,0,1,.37.89A4.33,4.33,0,0,1,28.92,100.13ZM27.1,100a2.47,2.47,0,0,0-.28-1.29,1.44,1.44,0,0,0-.66-.62,2.22,2.22,0,0,0-.8-.15H24.6v4h.76a2,2,0,0,0,1.22-.39A1.83,1.83,0,0,0,27.1,100Z" />
      <path d="M33.91,101.33H30.83a1.29,1.29,0,0,0,1.24,1,3.77,3.77,0,0,0,1.73-.5V103a4.9,4.9,0,0,1-.82.36,3.83,3.83,0,0,1-1.23.17,2.62,2.62,0,0,1-1.38-.35,2.1,2.1,0,0,1-.85-.92,3.2,3.2,0,0,1-.28-1.33,3,3,0,0,1,.28-1.31,2.08,2.08,0,0,1,.85-.91,2.71,2.71,0,0,1,1.38-.33,2.25,2.25,0,0,1,1,.26,2,2,0,0,1,.81.85,3.17,3.17,0,0,1,.32,1.54Zm-1.45-.87a1.28,1.28,0,0,0-.21-.77.7.7,0,0,0-.6-.28.75.75,0,0,0-.62.29,1.14,1.14,0,0,0-.24.76Z" />
      <path d="M39.13,100.87a3.83,3.83,0,0,1-.13,1,2.67,2.67,0,0,1-.38.84,1.88,1.88,0,0,1-.66.59,2,2,0,0,1-.93.22,1.78,1.78,0,0,1-.68-.11,3,3,0,0,1-.49-.27v2.55H34.31V98.42h1.55v.45a2.1,2.1,0,0,1,.51-.39,1.67,1.67,0,0,1,.77-.15,1.81,1.81,0,0,1,.93.27,2.05,2.05,0,0,1,.76.83A3.07,3.07,0,0,1,39.13,100.87Zm-1.63,0a1.67,1.67,0,0,0-.13-.73.86.86,0,0,0-.32-.41.78.78,0,0,0-.41-.12.88.88,0,0,0-.45.1,1.31,1.31,0,0,0-.33.25v1.9L36,102l.19.1.2.08a.78.78,0,0,0,.22,0,.71.71,0,0,0,.61-.36A1.58,1.58,0,0,0,37.5,100.91Z" />
      <path d="M43,103.1a3.07,3.07,0,0,1-.67.25,3,3,0,0,1-.81.13c-1.11,0-1.67-.62-1.67-1.86v-2h-.7v-.31l2.08-2.4h.17v1.49h1.48v1.22H41.43v1.59a2.81,2.81,0,0,0,0,.45.46.46,0,0,0,.17.28.67.67,0,0,0,.43.12,2.16,2.16,0,0,0,1-.35Z" />
      <path d="M48,103.39H46.48v-2.75a1.59,1.59,0,0,0-.13-.66.51.51,0,0,0-.51-.29.7.7,0,0,0-.51.22,2.93,2.93,0,0,0-.43.56v2.92H43.35V96.62H44.9v2.51a2.21,2.21,0,0,1,.76-.63,1.78,1.78,0,0,1,.79-.17c1,0,1.58.67,1.58,2Z" />
    </g>
    <g id="pips_-_fewest-3" data-name="pips - fewest">
      <g style="clip-path: url(#clip-path-5)">
        <g style="clip-path: url(#clip-path-5)">
          <path d="M34.62,117.74l.71-1.24A13.86,13.86,0,0,0,29.56,115v1.43a12.39,12.39,0,0,1,5.06,1.35" />
          <path d="M39.41,122.07l1.24-.71a14.07,14.07,0,0,0-4.23-4.22l-.71,1.23a12.55,12.55,0,0,1,3.7,3.7" />
          <path d="M22.14,118.37l-.71-1.23a14.07,14.07,0,0,0-4.23,4.22l1.24.71a12.67,12.67,0,0,1,3.7-3.7" />
          <path d="M41.4,128.23h1.43a13.83,13.83,0,0,0-1.55-5.77l-1.23.71a12.47,12.47,0,0,1,1.35,5.06" />
          <path d="M28.29,116.39V115a13.72,13.72,0,0,0-5.77,1.55l.71,1.23a12.39,12.39,0,0,1,5.06-1.35" />
          <path d="M18.44,135.65l-1.24.71a14,14,0,0,0,4.23,4.22l.71-1.23a12.55,12.55,0,0,1-3.7-3.7" />
          <path d="M35.71,139.35l.71,1.23a14,14,0,0,0,4.23-4.22l-1.24-.71a12.55,12.55,0,0,1-3.7,3.7" />
          <path d="M41.4,129.49a12.47,12.47,0,0,1-1.35,5.06l1.23.71a13.83,13.83,0,0,0,1.55-5.77Z" />
          <path d="M16.45,129.49H15a13.83,13.83,0,0,0,1.55,5.77l1.23-.71a12.47,12.47,0,0,1-1.35-5.06" />
          <path d="M17.8,123.17l-1.23-.71A13.83,13.83,0,0,0,15,128.23h1.43a12.47,12.47,0,0,1,1.35-5.06" />
        </g>
      </g>
    </g>
    <g>
      <path d="M17.55,146.45H15.08v2.74h-1.8v-6.77h4.27v1.36H15.08v1.3h2.47Z" />
      <path d="M24.83,147.22a2.07,2.07,0,0,1-.29,1.1,1.85,1.85,0,0,1-.8.71,2.72,2.72,0,0,1-1.17.24l-.45,0a5.18,5.18,0,0,1-.72-.15,5.12,5.12,0,0,1-.92-.36v-1.66a5.87,5.87,0,0,0,.89.52,2.11,2.11,0,0,0,.93.21c.31,0,.51-.05.6-.17a.53.53,0,0,0,.13-.32.6.6,0,0,0-.23-.47,3.36,3.36,0,0,0-.68-.38,6.3,6.3,0,0,1-.86-.51,2.4,2.4,0,0,1-.6-.7,2,2,0,0,1-.23-1,2.19,2.19,0,0,1,.23-1,1.71,1.71,0,0,1,.73-.7,2.37,2.37,0,0,1,1.18-.26,3.36,3.36,0,0,1,.92.11,3.32,3.32,0,0,1,.7.24,2.13,2.13,0,0,1,.38.22v1.58a5.14,5.14,0,0,0-.81-.53,2,2,0,0,0-1-.23.71.71,0,0,0-.48.14.49.49,0,0,0-.15.36.47.47,0,0,0,.15.35,2.46,2.46,0,0,0,.54.36,10.23,10.23,0,0,1,1.1.66,2.25,2.25,0,0,1,.64.67A1.8,1.8,0,0,1,24.83,147.22Z" />
      <path d="M30.24,146.67a3.83,3.83,0,0,1-.12,1,2.67,2.67,0,0,1-.38.84,1.83,1.83,0,0,1-1.59.8,1.81,1.81,0,0,1-.68-.1,3,3,0,0,1-.49-.27v2.55H25.43v-7.24H27v.45a2.33,2.33,0,0,1,.51-.38,1.67,1.67,0,0,1,.77-.15,1.81,1.81,0,0,1,.93.27,1.93,1.93,0,0,1,.76.83A3.08,3.08,0,0,1,30.24,146.67Zm-1.62,0a1.67,1.67,0,0,0-.13-.73.86.86,0,0,0-.32-.41.78.78,0,0,0-.41-.12.88.88,0,0,0-.45.1,1.31,1.31,0,0,0-.33.25v1.9l.17.11.19.1.2.07a.78.78,0,0,0,.22,0,.7.7,0,0,0,.61-.35A1.58,1.58,0,0,0,28.62,146.71Z" />
      <path d="M35.18,147.12H32.1a1.25,1.25,0,0,0,.44.75,1.27,1.27,0,0,0,.8.29,3.8,3.8,0,0,0,1.73-.5v1.09a4.9,4.9,0,0,1-.82.36,3.86,3.86,0,0,1-1.23.16,2.62,2.62,0,0,1-1.38-.34,2.18,2.18,0,0,1-.85-.93,3.25,3.25,0,0,1,0-2.64,2.11,2.11,0,0,1,.85-.9,2.71,2.71,0,0,1,1.38-.33,2.13,2.13,0,0,1,1,.26,2,2,0,0,1,.81.85,3.16,3.16,0,0,1,.32,1.53Zm-1.45-.86a1.28,1.28,0,0,0-.21-.77.7.7,0,0,0-.6-.28.74.74,0,0,0-.62.29,1.14,1.14,0,0,0-.24.76Z" />
      <path d="M40.08,147.12H37a1.21,1.21,0,0,0,.44.75,1.23,1.23,0,0,0,.8.29,3.8,3.8,0,0,0,1.73-.5v1.09a5,5,0,0,1-.83.36,3.86,3.86,0,0,1-1.23.16,2.56,2.56,0,0,1-1.37-.34,2.18,2.18,0,0,1-.85-.93,3.25,3.25,0,0,1,0-2.64,2.11,2.11,0,0,1,.85-.9,2.65,2.65,0,0,1,1.37-.33,2.1,2.1,0,0,1,1,.26,2,2,0,0,1,.82.85,3.28,3.28,0,0,1,.32,1.53Zm-1.46-.86a1.28,1.28,0,0,0-.2-.77.7.7,0,0,0-.6-.28.76.76,0,0,0-.63.29,1.14,1.14,0,0,0-.24.76Z" />
      <path d="M45.11,149.19H43.56v-.45a2.39,2.39,0,0,1-.52.38,1.56,1.56,0,0,1-.75.15,1.85,1.85,0,0,1-.94-.27,2,2,0,0,1-.75-.83,3.07,3.07,0,0,1-.3-1.44,3.81,3.81,0,0,1,.22-1.27,2.2,2.2,0,0,1,.71-1,1.79,1.79,0,0,1,1.16-.37,2,2,0,0,1,.7.1,2.16,2.16,0,0,1,.47.28v-2.09h1.55Zm-1.55-1.59v-1.9l-.42-.24a.8.8,0,0,0-.36-.07.71.71,0,0,0-.61.35,1.66,1.66,0,0,0-.24,1,1.4,1.4,0,0,0,.26,1,.76.76,0,0,0,.59.31.83.83,0,0,0,.45-.11A1.31,1.31,0,0,0,43.56,147.6Z" />
    </g>
    <g id="pips_-_fewest-4" data-name="pips - fewest">
      <g style="clip-path: url(#clip-path-7)">
        <g style="clip-path: url(#clip-path-7)">
          <path d="M34.62,163.54l.71-1.24a13.86,13.86,0,0,0-5.77-1.54v1.43a12.39,12.39,0,0,1,5.06,1.35" />
          <path d="M39.41,167.87l1.24-.71a14,14,0,0,0-4.23-4.22l-.71,1.23a12.55,12.55,0,0,1,3.7,3.7" />
          <path d="M22.14,164.17l-.71-1.23a14,14,0,0,0-4.23,4.22l1.24.71a12.55,12.55,0,0,1,3.7-3.7" />
          <path d="M41.4,174h1.43a13.83,13.83,0,0,0-1.55-5.77l-1.23.71A12.47,12.47,0,0,1,41.4,174" />
          <path d="M28.29,162.19v-1.43a13.86,13.86,0,0,0-5.77,1.54l.71,1.24a12.39,12.39,0,0,1,5.06-1.35" />
          <path d="M18.44,181.45l-1.24.71a14,14,0,0,0,4.23,4.22l.71-1.23a12.55,12.55,0,0,1-3.7-3.7" />
          <path d="M35.71,185.15l.71,1.23a14,14,0,0,0,4.23-4.22l-1.24-.71a12.55,12.55,0,0,1-3.7,3.7" />
          <path d="M41.4,175.29a12.47,12.47,0,0,1-1.35,5.06l1.23.71a13.83,13.83,0,0,0,1.55-5.77Z" />
          <path d="M16.45,175.29H15a13.83,13.83,0,0,0,1.55,5.77l1.23-.71a12.47,12.47,0,0,1-1.35-5.06" />
          <path d="M17.8,169l-1.23-.71A13.83,13.83,0,0,0,15,174h1.43A12.47,12.47,0,0,1,17.8,169" />
        </g>
      </g>
    </g>
    <g>
      <path d="M17.19,192.24H14.72V195h-1.8v-6.76h4.27v1.35H14.72v1.31h2.47Z" />
      <path d="M26.43,191.72a3.58,3.58,0,0,1-.34,1.67,3.44,3.44,0,0,1-.78,1,2.62,2.62,0,0,1-1.79.57H20.3v-6.76h2.48a6.41,6.41,0,0,1,.95.06,4.17,4.17,0,0,1,.72.19,2.72,2.72,0,0,1,.54.27,2.55,2.55,0,0,1,.4.32,3.3,3.3,0,0,1,.54.67,3.45,3.45,0,0,1,.36.89A4.3,4.3,0,0,1,26.43,191.72Zm-1.83-.09a2.43,2.43,0,0,0-.28-1.28,1.35,1.35,0,0,0-.66-.62,2.24,2.24,0,0,0-.8-.16H22.1v4h.76a2,2,0,0,0,1.22-.38A1.84,1.84,0,0,0,24.6,191.63Z" />
      <path d="M31.41,192.92H28.33a1.25,1.25,0,0,0,.45.75,1.22,1.22,0,0,0,.8.28,3.74,3.74,0,0,0,1.72-.49v1.08a3.94,3.94,0,0,1-.82.37,3.86,3.86,0,0,1-1.23.16,2.62,2.62,0,0,1-1.38-.34,2.16,2.16,0,0,1-.84-.93,3.15,3.15,0,0,1,0-2.64,2.08,2.08,0,0,1,.84-.9,2.71,2.71,0,0,1,1.38-.33,2.13,2.13,0,0,1,1,.26,2,2,0,0,1,.81.85,3.16,3.16,0,0,1,.32,1.53ZM30,192.05a1.27,1.27,0,0,0-.21-.76.7.7,0,0,0-.6-.29.76.76,0,0,0-.62.3,1.13,1.13,0,0,0-.24.75Z" />
      <path d="M36.63,192.46a3.85,3.85,0,0,1-.13,1,2.52,2.52,0,0,1-.38.83,1.79,1.79,0,0,1-.66.59,1.85,1.85,0,0,1-.93.22,1.81,1.81,0,0,1-.68-.1,3,3,0,0,1-.49-.27v2.54H31.81V190h1.55v.45a2.6,2.6,0,0,1,.51-.38,1.67,1.67,0,0,1,.77-.15,1.9,1.9,0,0,1,.93.26,2,2,0,0,1,.76.84A3.06,3.06,0,0,1,36.63,192.46Zm-1.63,0a1.7,1.7,0,0,0-.13-.73.88.88,0,0,0-.32-.4.79.79,0,0,0-.41-.13,1,1,0,0,0-.45.1,1.35,1.35,0,0,0-.33.26v1.89l.17.11.19.11.2.07a.78.78,0,0,0,.22,0,.72.72,0,0,0,.61-.35A1.59,1.59,0,0,0,35,192.5Z" />
      <path d="M40.53,194.7a3.7,3.7,0,0,1-.67.25,2.94,2.94,0,0,1-.81.12c-1.11,0-1.67-.62-1.67-1.85v-2h-.7v-.3l2.08-2.41h.17V190h1.48v1.22H38.93v1.6a2.59,2.59,0,0,0,0,.44.48.48,0,0,0,.17.29.67.67,0,0,0,.43.12,2.08,2.08,0,0,0,1-.36Z" />
      <path d="M45.53,195H44v-2.75a1.57,1.57,0,0,0-.13-.65.51.51,0,0,0-.51-.3.71.71,0,0,0-.51.23,2.84,2.84,0,0,0-.43.55V195H40.86v-6.76H42.4v2.51a2.37,2.37,0,0,1,.76-.64,1.92,1.92,0,0,1,.79-.16c1,0,1.58.66,1.58,2Z" />
    </g>
    <path d="M44.22,308.63c0-8.08-7-14.63-15.59-14.63S13,300.55,13,308.63v8.11h0v19.84a5.68,5.68,0,0,0,5.67,5.67H38.55a5.68,5.68,0,0,0,5.67-5.67V316.74h0Z" />
    <g>
      <path d="M27.86,334.55a3.26,3.26,0,0,1-.3,1.4,2.42,2.42,0,0,1-.92,1,3.11,3.11,0,0,1-3,0,2.39,2.39,0,0,1-.9-1,3.19,3.19,0,0,1-.3-1.37,3.29,3.29,0,0,1,.29-1.36,2.44,2.44,0,0,1,.91-1,2.83,2.83,0,0,1,1.5-.38,3,3,0,0,1,1.18.22,2.42,2.42,0,0,1,.85.6,2.6,2.6,0,0,1,.5.89A3.14,3.14,0,0,1,27.86,334.55Zm-1.46,0a1.87,1.87,0,0,0-.08-.55,1.11,1.11,0,0,0-.24-.44,1.05,1.05,0,0,0-.39-.29,1.25,1.25,0,0,0-.53-.1,1.12,1.12,0,0,0-.91.38,1.7,1.7,0,0,0,0,2,1.14,1.14,0,0,0,.91.38,1.19,1.19,0,0,0,.67-.17,1.17,1.17,0,0,0,.43-.5A1.81,1.81,0,0,0,26.4,334.55Z" style="fill: #fff" />
      <path d="M32,337.26H30.72v-.56a2,2,0,0,1-.55.48,1.47,1.47,0,0,1-.69.15,1,1,0,0,1-1-.52,2.84,2.84,0,0,1-.24-1.19v-2.33h1.24v2.15a1.4,1.4,0,0,0,.1.56.39.39,0,0,0,.41.25.55.55,0,0,0,.43-.18,2.64,2.64,0,0,0,.32-.45v-2.33H32Z" style="fill: #fff" />
      <path d="M35.23,337a2.9,2.9,0,0,1-.53.21,2.48,2.48,0,0,1-.65.09c-.89,0-1.33-.49-1.33-1.48v-1.59h-.56V334l1.66-1.92H34v1.19h1.18v1H34v1.28a1.84,1.84,0,0,0,0,.36.4.4,0,0,0,.14.23.5.5,0,0,0,.33.09,1.76,1.76,0,0,0,.78-.28Z" style="fill: #fff" />
    </g>
    <g>
      <path d="M34.54,6.76l-5.53,7v-6a1.27,1.27,0,0,0-.64-1.17.89.89,0,0,0-1.13.29L20,16.13a1.49,1.49,0,0,0,0,1.79.9.9,0,0,0,1.46,0l5.5-7v6a1.29,1.29,0,0,0,.64,1.18.92.92,0,0,0,1.14-.3l5.53-7v6.15a1.05,1.05,0,1,0,2.06,0V7.64a1.28,1.28,0,0,0-.65-1.18A.91.91,0,0,0,34.54,6.76Z" style="stroke: #000;stroke-width: 0.6000000000000001px" />
      <path d="M20,6.68l-4.81,6.13a1.47,1.47,0,0,0,0,1.79.9.9,0,0,0,1.46,0l3.05-3.87V17a1.17,1.17,0,0,0,1,1.26,1.17,1.17,0,0,0,1-1.26V7.56a1.29,1.29,0,0,0-.65-1.17A.91.91,0,0,0,20,6.68Z" style="stroke: #000;stroke-width: 0.6000000000000001px" />
      <path d="M42.91,11.2a1.05,1.05,0,0,0-.95-.77h-2.1l1.53-1.95s.8-1.17.1-1.82a1.27,1.27,0,0,0-1.58.06l-3.23,4.1a1.45,1.45,0,0,0-.2,1.37,1,1,0,0,0,1,.78h2.1L37,16.14s-1,1.13-.27,1.89,1.75-.14,1.75-.14l4.18-5.31A1.5,1.5,0,0,0,42.91,11.2Z" style="stroke: #000;stroke-width: 0.6000000000000001px" />
    </g>
  </g>
  <g /></svg>