<svg xmlns="http://www.w3.org/2000/svg" width="1.6in" height="5.2in" viewBox="0 0 115.4 374.57">
  <g id="faceplate">
    <g id="panel">
      <rect x="0" y="0" width="114.41" height="364.26" style="fill: #171717;" />
    </g>
    <g id="art">
      <g>
        <path d="m77.12,9.03s-3.87,4.92-6.13,7.79c0-3.01,0-6.67,0-6.67,0-.57-.28-1.09-.71-1.3-.43-.21-.93-.08-1.25.33l-8.05,10.24c-.44.56-.42,1.44.03,1.98.45.53,1.18.52,1.62-.04,0,0,3.84-4.88,6.09-7.74,0,3.01,0,6.68,0,6.68,0,.57.28,1.09.72,1.3.43.21.93.08,1.25-.33,0,0,3.87-4.92,6.12-7.79,0,3.05,0,6.81,0,6.81,0,.78.51,1.4,1.14,1.4.63,0,1.14-.63,1.14-1.4v-10.29c0-.57-.28-1.09-.72-1.3-.43-.22-.92-.08-1.25.33Z" style="fill: #fff; stroke: #fff; stroke-width: .67px;" />
        <path d="m60.97,8.95l-5.34,6.79c-.44.56-.42,1.44.03,1.98.46.54,1.18.52,1.62-.04,0,0,1.8-2.29,3.37-4.29v6.98c0,.78.51,1.4,1.14,1.4s1.15-.63,1.15-1.4v-10.45c0-.57-.28-1.09-.71-1.3-.43-.21-.93-.08-1.25.33Z" style="fill: #fff; stroke: #fff; stroke-width: .67px;" />
        <path d="m86.38,13.95c-.18-.52-.59-.85-1.05-.85h-2.33s1.7-2.16,1.7-2.16c0,0,.88-1.3.1-2.01-.78-.71-1.75.07-1.75.07l-3.57,4.54c-.32.4-.41,1-.23,1.52.18.52.6.85,1.05.85h2.33s-2.76,3.51-2.76,3.51c0,0-1.14,1.25-.3,2.09.85.85,1.94-.15,1.94-.15l4.63-5.89c.32-.4.41-1,.23-1.52Z" style="fill: #fff; stroke: #fff; stroke-width: .67px;" />
      </g>
      <polyline points="46.16 55.85 52.71 55.85 56.82 53.64" style="fill: none; stroke: #fff; stroke-width: .84px;" />
      <polyline points="46.16 31.29 52.71 31.29 56.82 33.5" style="fill: none; stroke: #fff; stroke-width: .84px;" />
      <polyline points="34.31 55.85 27.76 55.85 23.64 53.64" style="fill: none; stroke: #fff; stroke-width: .84px;" />
      <polyline points="34.31 31.29 27.76 31.29 23.64 33.5" style="fill: none; stroke: #fff; stroke-width: .84px;" />
      <path d="m80.33,307.13l-34.6.24v.13c5.68,2.86,8.75,8.54,8.75,15.09s-3.09,12.26-8.8,15.11v.11s34.65-.24,34.65-.24c8.82,0,15.25-6.81,15.25-15.22,0-8.41-6.43-15.22-15.25-15.22Z" style="fill: #fff;" />
      <path d="m35.87,338.56c8.88,0,16.09-7.2,16.09-16.09,0-8.88-7.2-16.09-16.09-16.09-8.88,0-16.09,7.2-16.09,16.09s7.2,16.09,16.09,16.09Z" style="fill: none; stroke: #fff; stroke-miterlimit: 10;" />
      <path d="m108.12,226.71c0-8.88-7.2-16.09-16.09-16.09s-16.09,7.2-16.09,16.09v8.53c0,8.88,7.2,16.09,16.09,16.09,8.88,0,16.09-7.2,16.09-16.09v-8.53Z" style="fill: #fff;" />
      <path d="m83.55,264.87c-4.56,2.84-7.6,7.9-7.6,13.67v8.53c0,8.88,7.2,16.09,16.09,16.09,8.15,0,14.88-6.06,15.94-13.91l4.03-31.91c.03-.24.05-.49.05-.74,0-3.12-2.53-5.64-5.64-5.64-1.14,0-2.2.34-3.08.92l-19.78,13Z" style="fill: #fff;" />
      <g>
        <line x1="80.77" y1="134.32" x2="88.72" y2="134.32" style="fill: none; stroke: #fff; stroke-width: .8px;" />
        <line x1="83.95" y1="129.22" x2="88.72" y2="129.22" style="fill: none; stroke: #fff; stroke-width: .8px;" />
        <line x1="83.95" y1="124.11" x2="88.72" y2="124.11" style="fill: none; stroke: #fff; stroke-width: .8px;" />
        <line x1="83.95" y1="119.01" x2="88.72" y2="119.01" style="fill: none; stroke: #fff; stroke-width: .8px;" />
        <line x1="83.95" y1="113.91" x2="88.72" y2="113.91" style="fill: none; stroke: #fff; stroke-width: .8px;" />
        <line x1="80.77" y1="108.81" x2="88.72" y2="108.81" style="fill: none; stroke: #fff; stroke-width: .8px;" />
        <line x1="83.95" y1="103.7" x2="88.72" y2="103.7" style="fill: none; stroke: #fff; stroke-width: .8px;" />
        <line x1="83.95" y1="98.6" x2="88.72" y2="98.6" style="fill: none; stroke: #fff; stroke-width: .8px;" />
        <line x1="83.95" y1="93.5" x2="88.72" y2="93.5" style="fill: none; stroke: #fff; stroke-width: .8px;" />
        <line x1="83.95" y1="88.4" x2="88.72" y2="88.4" style="fill: none; stroke: #fff; stroke-width: .8px;" />
        <line x1="80.77" y1="83.29" x2="88.72" y2="83.29" style="fill: none; stroke: #fff; stroke-width: .8px;" />
        <line x1="102.23" y1="134.32" x2="94.28" y2="134.32" style="fill: none; stroke: #fff; stroke-width: .8px;" />
        <line x1="99.05" y1="129.22" x2="94.28" y2="129.22" style="fill: none; stroke: #fff; stroke-width: .8px;" />
        <line x1="99.05" y1="124.11" x2="94.28" y2="124.11" style="fill: none; stroke: #fff; stroke-width: .8px;" />
        <line x1="99.05" y1="119.01" x2="94.28" y2="119.01" style="fill: none; stroke: #fff; stroke-width: .8px;" />
        <line x1="99.05" y1="113.91" x2="94.28" y2="113.91" style="fill: none; stroke: #fff; stroke-width: .8px;" />
        <line x1="102.23" y1="108.81" x2="94.28" y2="108.81" style="fill: none; stroke: #fff; stroke-width: .8px;" />
        <line x1="99.05" y1="103.7" x2="94.28" y2="103.7" style="fill: none; stroke: #fff; stroke-width: .8px;" />
        <line x1="99.05" y1="98.6" x2="94.28" y2="98.6" style="fill: none; stroke: #fff; stroke-width: .8px;" />
        <line x1="99.05" y1="93.5" x2="94.28" y2="93.5" style="fill: none; stroke: #fff; stroke-width: .8px;" />
        <line x1="99.05" y1="88.4" x2="94.28" y2="88.4" style="fill: none; stroke: #fff; stroke-width: .8px;" />
        <line x1="102.23" y1="83.29" x2="94.28" y2="83.29" style="fill: none; stroke: #fff; stroke-width: .8px;" />
      </g>
      <g>
        <line x1="46.59" y1="134.53" x2="54.54" y2="134.53" style="fill: none; stroke: #fff; stroke-width: .8px;" />
        <line x1="49.78" y1="129.43" x2="54.54" y2="129.43" style="fill: none; stroke: #fff; stroke-width: .8px;" />
        <line x1="49.78" y1="124.32" x2="54.54" y2="124.32" style="fill: none; stroke: #fff; stroke-width: .8px;" />
        <line x1="49.78" y1="119.22" x2="54.54" y2="119.22" style="fill: none; stroke: #fff; stroke-width: .8px;" />
        <line x1="49.78" y1="114.12" x2="54.54" y2="114.12" style="fill: none; stroke: #fff; stroke-width: .8px;" />
        <line x1="46.59" y1="109.02" x2="54.54" y2="109.02" style="fill: none; stroke: #fff; stroke-width: .8px;" />
        <line x1="49.78" y1="103.91" x2="54.54" y2="103.91" style="fill: none; stroke: #fff; stroke-width: .8px;" />
        <line x1="49.78" y1="98.81" x2="54.54" y2="98.81" style="fill: none; stroke: #fff; stroke-width: .8px;" />
        <line x1="49.78" y1="93.71" x2="54.54" y2="93.71" style="fill: none; stroke: #fff; stroke-width: .8px;" />
        <line x1="49.78" y1="88.61" x2="54.54" y2="88.61" style="fill: none; stroke: #fff; stroke-width: .8px;" />
        <line x1="46.59" y1="83.5" x2="54.54" y2="83.5" style="fill: none; stroke: #fff; stroke-width: .8px;" />
        <line x1="68.06" y1="134.53" x2="60.11" y2="134.53" style="fill: none; stroke: #fff; stroke-width: .8px;" />
        <line x1="64.87" y1="129.43" x2="60.11" y2="129.43" style="fill: none; stroke: #fff; stroke-width: .8px;" />
        <line x1="64.87" y1="124.32" x2="60.11" y2="124.32" style="fill: none; stroke: #fff; stroke-width: .8px;" />
        <line x1="64.87" y1="119.22" x2="60.11" y2="119.22" style="fill: none; stroke: #fff; stroke-width: .8px;" />
        <line x1="64.87" y1="114.12" x2="60.11" y2="114.12" style="fill: none; stroke: #fff; stroke-width: .8px;" />
        <line x1="68.06" y1="109.02" x2="60.11" y2="109.02" style="fill: none; stroke: #fff; stroke-width: .8px;" />
        <line x1="64.87" y1="103.91" x2="60.11" y2="103.91" style="fill: none; stroke: #fff; stroke-width: .8px;" />
        <line x1="64.87" y1="98.81" x2="60.11" y2="98.81" style="fill: none; stroke: #fff; stroke-width: .8px;" />
        <line x1="64.87" y1="93.71" x2="60.11" y2="93.71" style="fill: none; stroke: #fff; stroke-width: .8px;" />
        <line x1="64.87" y1="88.61" x2="60.11" y2="88.61" style="fill: none; stroke: #fff; stroke-width: .8px;" />
        <line x1="68.06" y1="83.5" x2="60.11" y2="83.5" style="fill: none; stroke: #fff; stroke-width: .8px;" />
      </g>
      <g>
        <line x1="12.46" y1="134.32" x2="20.41" y2="134.32" style="fill: none; stroke: #fff; stroke-width: .8px;" />
        <line x1="15.64" y1="129.22" x2="20.41" y2="129.22" style="fill: none; stroke: #fff; stroke-width: .8px;" />
        <line x1="15.64" y1="124.11" x2="20.41" y2="124.11" style="fill: none; stroke: #fff; stroke-width: .8px;" />
        <line x1="15.64" y1="119.01" x2="20.41" y2="119.01" style="fill: none; stroke: #fff; stroke-width: .8px;" />
        <line x1="15.64" y1="113.91" x2="20.41" y2="113.91" style="fill: none; stroke: #fff; stroke-width: .8px;" />
        <line x1="12.46" y1="108.81" x2="20.41" y2="108.81" style="fill: none; stroke: #fff; stroke-width: .8px;" />
        <line x1="15.64" y1="103.7" x2="20.41" y2="103.7" style="fill: none; stroke: #fff; stroke-width: .8px;" />
        <line x1="15.64" y1="98.6" x2="20.41" y2="98.6" style="fill: none; stroke: #fff; stroke-width: .8px;" />
        <line x1="15.64" y1="93.5" x2="20.41" y2="93.5" style="fill: none; stroke: #fff; stroke-width: .8px;" />
        <line x1="15.64" y1="88.4" x2="20.41" y2="88.4" style="fill: none; stroke: #fff; stroke-width: .8px;" />
        <line x1="12.46" y1="83.29" x2="20.41" y2="83.29" style="fill: none; stroke: #fff; stroke-width: .8px;" />
        <line x1="33.92" y1="134.32" x2="25.97" y2="134.32" style="fill: none; stroke: #fff; stroke-width: .8px;" />
        <line x1="30.74" y1="129.22" x2="25.97" y2="129.22" style="fill: none; stroke: #fff; stroke-width: .8px;" />
        <line x1="30.74" y1="124.11" x2="25.97" y2="124.11" style="fill: none; stroke: #fff; stroke-width: .8px;" />
        <line x1="30.74" y1="119.01" x2="25.97" y2="119.01" style="fill: none; stroke: #fff; stroke-width: .8px;" />
        <line x1="30.74" y1="113.91" x2="25.97" y2="113.91" style="fill: none; stroke: #fff; stroke-width: .8px;" />
        <line x1="33.92" y1="108.81" x2="25.97" y2="108.81" style="fill: none; stroke: #fff; stroke-width: .8px;" />
        <line x1="30.74" y1="103.7" x2="25.97" y2="103.7" style="fill: none; stroke: #fff; stroke-width: .8px;" />
        <line x1="30.74" y1="98.6" x2="25.97" y2="98.6" style="fill: none; stroke: #fff; stroke-width: .8px;" />
        <line x1="30.74" y1="93.5" x2="25.97" y2="93.5" style="fill: none; stroke: #fff; stroke-width: .8px;" />
        <line x1="30.74" y1="88.4" x2="25.97" y2="88.4" style="fill: none; stroke: #fff; stroke-width: .8px;" />
        <line x1="33.92" y1="83.29" x2="25.97" y2="83.29" style="fill: none; stroke: #fff; stroke-width: .8px;" />
      </g>
      <polyline points="44.22 204.76 31.97 204.76 24.99 200.05" style="fill: none; stroke: #fff; stroke-miterlimit: 10;" />
      <polyline points="70.01 204.76 82.26 204.76 89.24 200.05" style="fill: none; stroke: #fff; stroke-miterlimit: 10;" />
      <g>
        <g>
          <path d="m83.7,169.85l-1.09-.92c.81-.89,1.74-1.67,2.75-2.32l.71,1.23c-.87.57-1.66,1.25-2.37,2.01Z" style="fill: #fff;" />
          <path d="m87.16,167.2l-.71-1.23c1.06-.55,2.19-.97,3.38-1.24l.25,1.4c-1.03.24-2.01.6-2.92,1.07Z" style="fill: #fff;" />
          <path d="m81.33,173.5l-1.33-.48c.46-1.12,1.07-2.17,1.79-3.12l1.09.92c-.62.82-1.15,1.72-1.56,2.68Z" style="fill: #fff;" />
          <path d="m95.69,166.13l.25-1.4c1.19.27,2.33.69,3.38,1.24l-.71,1.23c-.91-.47-1.89-.83-2.92-1.07Z" style="fill: #fff;" />
          <path d="m80.39,177.75h-1.43c.05-1.23.26-2.41.61-3.54l1.34.49c-.3.97-.46,2-.51,3.05Z" style="fill: #fff;" />
          <path d="m80.94,182.06l-1.33.48c-.36-1.13-.58-2.32-.64-3.53h1.42c.06,1.04.25,2.06.55,3.04Z" style="fill: #fff;" />
          <path d="m82.93,185.91l-1.09.91c-.73-.95-1.33-1.99-1.8-3.09l1.33-.49c.41.95.93,1.84,1.55,2.67Z" style="fill: #fff;" />
          <path d="m102.89,170.82l1.1-.92c.72.95,1.33,2,1.79,3.12l-1.33.48c-.4-.96-.94-1.86-1.56-2.68Z" style="fill: #fff;" />
          <path d="m104.87,174.69l1.34-.49c.35,1.13.56,2.31.61,3.54h-1.43c-.05-1.05-.22-2.08-.51-3.05Z" style="fill: #fff;" />
          <path d="m105.39,179.01h1.42c-.06,1.21-.28,2.39-.64,3.53l-1.33-.49c.31-.98.5-2,.55-3.04Z" style="fill: #fff;" />
          <path d="m104.4,183.25l1.33.49c-.47,1.1-1.07,2.14-1.8,3.09l-1.09-.91c.63-.82,1.15-1.72,1.55-2.66Z" style="fill: #fff;" />
          <path d="m99.71,167.84l.71-1.23c1.02.65,1.94,1.43,2.75,2.32l-1.1.92c-.7-.76-1.5-1.44-2.37-2.01Z" style="fill: #fff;" />
        </g>
        <path d="m94.89,162.93c0,.42-.05.79-.16,1.1s-.25.58-.43.78c-.18.2-.39.35-.63.45-.24.1-.49.15-.75.15s-.52-.05-.75-.15c-.24-.1-.44-.25-.63-.45s-.33-.46-.43-.77c-.11-.31-.16-.68-.16-1.1s.05-.79.16-1.11c.11-.31.25-.57.43-.78.18-.2.39-.36.63-.46.24-.1.49-.15.75-.15s.52.05.75.15.44.25.63.46c.19.21.33.47.43.78s.16.68.16,1.1Zm-1.44,0c0-.43-.03-.78-.09-1.05s-.21-.41-.44-.41c-.16,0-.28.08-.36.23s-.13.33-.15.53c-.02.2-.03.44-.03.7,0,.46.03.82.09,1.07.06.26.21.38.44.38s.38-.13.44-.38c.06-.25.09-.61.09-1.07Z" style="fill: #fff;" />
        <path d="m103.44,189.31h-1.6v1.61h-.9v-1.61h-1.6v-.91h1.6v-1.61h.9v1.61h1.6v.91Z" style="fill: #fff;" />
        <path d="m85.35,189.64h-3.31v-1.26h3.31v1.26Z" style="fill: #fff;" />
        <circle cx="92.88" cy="178.31" r="13.93" style="fill: none;" />
      </g>
      <g>
        <g>
          <path d="m12.5,169.83l-1.09-.92c.81-.89,1.74-1.67,2.75-2.32l.71,1.23c-.87.57-1.66,1.25-2.37,2.01Z" style="fill: #fff;" />
          <path d="m15.97,167.19l-.71-1.23c1.06-.55,2.19-.97,3.38-1.24l.25,1.4c-1.03.24-2.01.6-2.92,1.07Z" style="fill: #fff;" />
          <path d="m10.13,173.49l-1.33-.48c.46-1.12,1.07-2.17,1.79-3.12l1.09.92c-.62.82-1.15,1.72-1.56,2.68Z" style="fill: #fff;" />
          <path d="m24.49,166.12l.25-1.4c1.19.27,2.33.69,3.38,1.24l-.71,1.23c-.91-.47-1.89-.83-2.92-1.07Z" style="fill: #fff;" />
          <path d="m9.19,177.73h-1.43c.05-1.23.26-2.41.61-3.54l1.34.49c-.3.97-.46,2-.51,3.05Z" style="fill: #fff;" />
          <path d="m9.74,182.04l-1.33.48c-.36-1.13-.58-2.32-.64-3.53h1.42c.06,1.04.25,2.06.55,3.04Z" style="fill: #fff;" />
          <path d="m11.73,185.9l-1.09.91c-.73-.95-1.33-1.99-1.8-3.09l1.33-.49c.41.95.93,1.84,1.55,2.67Z" style="fill: #fff;" />
          <path d="m31.69,170.8l1.1-.92c.72.95,1.33,2,1.79,3.12l-1.33.48c-.4-.96-.94-1.86-1.56-2.68Z" style="fill: #fff;" />
          <path d="m33.67,174.68l1.34-.49c.35,1.13.56,2.31.61,3.54h-1.43c-.05-1.05-.22-2.08-.51-3.05Z" style="fill: #fff;" />
          <path d="m34.2,179h1.42c-.06,1.21-.28,2.39-.64,3.53l-1.33-.49c.31-.98.5-2,.55-3.04Z" style="fill: #fff;" />
          <path d="m33.2,183.23l1.33.49c-.47,1.1-1.07,2.14-1.8,3.09l-1.09-.91c.63-.82,1.15-1.72,1.55-2.66Z" style="fill: #fff;" />
          <path d="m28.51,167.82l.71-1.23c1.02.65,1.94,1.43,2.75,2.32l-1.1.92c-.7-.76-1.5-1.44-2.37-2.01Z" style="fill: #fff;" />
        </g>
        <path d="m23.69,162.91c0,.42-.05.79-.16,1.1s-.25.58-.43.78c-.18.2-.39.35-.63.45-.24.1-.49.15-.75.15s-.52-.05-.75-.15c-.24-.1-.44-.25-.63-.45s-.33-.46-.43-.77c-.11-.31-.16-.68-.16-1.1s.05-.79.16-1.11c.11-.31.25-.57.43-.78.18-.2.39-.36.63-.46.24-.1.49-.15.75-.15s.52.05.75.15.44.25.63.46c.19.21.33.47.43.78s.16.68.16,1.1Zm-1.44,0c0-.43-.03-.78-.09-1.05s-.21-.41-.44-.41c-.16,0-.28.08-.36.23s-.13.33-.15.53c-.02.2-.03.44-.03.7,0,.46.03.82.09,1.07.06.26.21.38.44.38s.38-.13.44-.38c.06-.25.09-.61.09-1.07Z" style="fill: #fff;" />
        <path d="m32.24,189.29h-1.6v1.61h-.9v-1.61h-1.6v-.91h1.6v-1.61h.9v1.61h1.6v.91Z" style="fill: #fff;" />
        <path d="m14.16,189.62h-3.31v-1.26h3.31v1.26Z" style="fill: #fff;" />
        <circle cx="21.68" cy="178.29" r="13.93" style="fill: none;" />
      </g>
    </g>
    <g id="text">
      <g>
        <path d="m21.02,154.05h-1.46l-.35-.96c-.13-.35-.25-.61-.35-.77s-.21-.27-.3-.31c-.1-.05-.23-.07-.38-.07h-.15v2.11h-1.35v-5.41h2.3c.37,0,.68.09.91.27.24.18.41.4.51.66.1.26.16.51.16.74,0,.27-.04.5-.13.69-.09.19-.18.33-.28.41-.1.09-.21.17-.33.25.14.1.26.22.36.36s.22.42.38.85l.45,1.18Zm-1.84-3.7c0-.25-.07-.42-.2-.52-.14-.1-.36-.15-.66-.15h-.29v1.3h.29c.33,0,.56-.04.68-.13s.18-.25.18-.5Z" style="fill: #fff;" />
        <path d="m22.67,154.05h-1.17v-3.98h1.17v3.98Zm-.09-4.89c0,.16-.05.3-.15.42-.1.11-.21.17-.35.17-.09,0-.17-.03-.25-.08-.07-.05-.13-.12-.18-.21s-.06-.19-.06-.3c0-.16.05-.3.14-.42.09-.12.21-.18.35-.18s.25.06.35.18c.1.12.15.26.15.42Z" style="fill: #fff;" />
        <path d="m26.06,152.89c0,.36-.11.66-.33.89s-.55.34-.99.34c-.24,0-.46-.03-.65-.08s-.4-.13-.62-.23v-1c.2.14.37.24.51.31s.3.11.48.11c.29,0,.44-.1.44-.29,0-.07-.02-.12-.06-.17-.04-.05-.12-.11-.22-.17-.11-.06-.25-.14-.42-.23-.22-.11-.4-.27-.55-.46-.15-.19-.23-.43-.23-.71,0-.2.05-.39.15-.57.1-.18.25-.33.46-.45s.45-.17.74-.17c.07,0,.16,0,.26.02.11.01.24.04.41.09s.32.12.47.21v.97c-.07-.05-.13-.09-.17-.12s-.11-.07-.19-.11-.17-.08-.27-.11c-.11-.03-.21-.05-.32-.05-.13,0-.23.03-.28.09s-.07.12-.07.19.03.13.08.18.17.13.35.21c.26.12.47.24.62.37s.27.26.33.42c.07.15.1.33.1.54Z" style="fill: #fff;" />
        <path d="m30.07,152.4h-2.33c.05.24.16.44.33.59.18.15.38.23.6.23.39,0,.83-.13,1.3-.4v.87c-.17.11-.38.2-.62.29s-.55.13-.93.13c-.41,0-.75-.09-1.04-.27s-.5-.43-.64-.74c-.14-.31-.21-.67-.21-1.06s.07-.74.21-1.05c.14-.31.36-.55.64-.73s.63-.26,1.04-.26c.27,0,.53.07.78.21.25.14.46.37.62.68.16.32.24.72.24,1.22v.28Zm-1.1-.7c0-.25-.05-.46-.16-.61-.11-.15-.26-.23-.45-.23s-.35.08-.47.23c-.12.16-.18.36-.18.61h1.26Z" style="fill: #fff;" />
      </g>
      <g>
        <path d="m54.49,151.86h-1.86v2.19h-1.35v-5.41h3.22v1.09h-1.86v1.05h1.86v1.09Z" style="fill: #fff;" />
        <path d="m58.73,153.85c-.17.08-.33.14-.47.2-.14.05-.32.07-.52.07-.19,0-.33-.04-.4-.12-.08-.08-.13-.18-.16-.3-.13.12-.26.22-.42.3-.15.08-.36.12-.6.12s-.43-.05-.58-.15c-.15-.1-.25-.23-.31-.38s-.09-.31-.09-.47c0-.25.05-.45.15-.61s.24-.29.41-.39.4-.21.69-.32c.16-.06.28-.11.37-.14.08-.03.15-.06.19-.08.04-.02.08-.04.13-.07,0-.19-.03-.34-.1-.45-.07-.11-.21-.16-.42-.16-.25,0-.49.07-.71.2-.22.13-.42.31-.6.52v-1.08c.14-.12.3-.23.47-.31.17-.08.34-.14.53-.18.18-.04.37-.06.56-.06.48,0,.84.11,1.08.33.24.22.36.53.36.92v1.54c0,.14.01.25.03.33.02.07.06.11.12.11.07,0,.17-.04.3-.11v.74Zm-1.62-.76v-.94c-.28.13-.48.26-.61.37-.13.11-.19.25-.19.44,0,.13.03.23.1.3.06.07.14.11.22.11s.16-.03.24-.08c.08-.05.16-.12.24-.19Z" style="fill: #fff;" />
        <path d="m60.32,154.05h-1.17v-5.41h1.17v5.41Z" style="fill: #fff;" />
        <path d="m62.36,154.05h-1.17v-5.41h1.17v5.41Z" style="fill: #fff;" />
      </g>
      <g>
        <path d="m78.56,154.05h-3.39v-5.41h3.33v1.09h-1.98v.99h1.89v1.09h-1.89v1.16h2.03v1.09Z" style="fill: #fff;" />
        <path d="m82.8,154.05h-1.17v-2.14c0-.22-.03-.41-.09-.57-.06-.16-.19-.24-.39-.24-.09,0-.18.02-.25.06s-.14.1-.19.17c-.06.07-.11.13-.14.2s-.08.13-.12.2v2.34h-1.17v-3.98h1.17v.57c.18-.24.37-.4.55-.5.18-.1.39-.14.62-.14.79,0,1.19.57,1.19,1.71v2.34Z" style="fill: #fff;" />
        <path d="m86.98,150.07l-1.5,3.98h-.86l-1.47-3.98h1.25l.68,2.08.76-2.08h1.13Z" style="fill: #fff;" />
        <path d="m88.26,153.28c0,.23-.07.43-.2.6-.13.16-.3.24-.49.24s-.36-.08-.5-.25-.21-.36-.21-.59.07-.43.21-.6c.14-.16.3-.24.5-.24.12,0,.24.04.35.11.11.07.19.18.25.3.06.13.09.27.09.42Z" style="fill: #fff;" />
        <path d="m94.44,154.05h-3.41v-5.41h1.35v4.12h2.06v1.3Z" style="fill: #fff;" />
        <path d="m98.42,152.4h-2.33c.05.24.16.44.33.59.18.15.38.23.6.23.39,0,.83-.13,1.3-.4v.87c-.17.11-.38.2-.62.29-.24.09-.55.13-.93.13-.41,0-.75-.09-1.04-.27-.29-.18-.5-.43-.64-.74-.14-.31-.21-.67-.21-1.06s.07-.74.21-1.05c.14-.31.36-.55.64-.73s.63-.26,1.04-.26c.27,0,.53.07.78.21.25.14.46.37.62.68.16.32.24.72.24,1.22v.28Zm-1.1-.7c0-.26-.05-.46-.16-.61-.11-.15-.26-.23-.45-.23s-.35.08-.47.23c-.12.15-.18.36-.18.61h1.26Z" style="fill: #fff;" />
        <path d="m102.47,150.07l-1.5,3.98h-.86l-1.47-3.98h1.25l.68,2.08.76-2.08h1.13Z" style="fill: #fff;" />
        <path d="m106.15,152.4h-2.33c.05.24.16.44.33.59.18.15.38.23.6.23.39,0,.83-.13,1.3-.4v.87c-.17.11-.38.2-.62.29-.24.09-.55.13-.93.13-.41,0-.75-.09-1.04-.27-.29-.18-.5-.43-.64-.74-.14-.31-.21-.67-.21-1.06s.07-.74.21-1.05c.14-.31.36-.55.64-.73s.63-.26,1.04-.26c.27,0,.53.07.78.21.25.14.46.37.62.68.16.32.24.72.24,1.22v.28Zm-1.1-.7c0-.26-.05-.46-.16-.61-.11-.15-.26-.23-.45-.23s-.35.08-.47.23c-.12.15-.18.36-.18.61h1.26Z" style="fill: #fff;" />
        <path d="m107.96,154.05h-1.17v-5.41h1.17v5.41Z" style="fill: #fff;" />
      </g>
      <g>
        <path d="m14.13,198.48h-1.46l-.35-.96c-.13-.35-.25-.61-.35-.77s-.21-.27-.3-.31c-.1-.05-.23-.07-.38-.07h-.15v2.11h-1.35v-5.41h2.3c.37,0,.68.09.91.27.24.18.41.4.51.66.1.26.16.51.16.74,0,.27-.04.5-.13.69-.09.19-.18.33-.28.41-.1.09-.21.17-.33.25.14.1.26.22.36.36s.22.42.38.85l.45,1.18Zm-1.84-3.7c0-.25-.07-.42-.2-.52-.14-.1-.36-.15-.66-.15h-.29v1.3h.29c.33,0,.56-.04.68-.13s.18-.25.18-.5Z" style="fill: #fff;" />
        <path d="m15.79,198.48h-1.17v-3.98h1.17v3.98Zm-.09-4.89c0,.16-.05.3-.15.42-.1.11-.21.17-.35.17-.09,0-.17-.03-.25-.08-.07-.05-.13-.12-.18-.21s-.06-.19-.06-.3c0-.16.05-.3.14-.42.09-.12.21-.18.35-.18s.25.06.35.18c.1.12.15.26.15.42Z" style="fill: #fff;" />
        <path d="m19.17,197.32c0,.36-.11.66-.33.89s-.55.34-.99.34c-.24,0-.46-.03-.65-.08s-.4-.13-.62-.23v-1c.2.14.37.24.51.31s.3.11.48.11c.29,0,.44-.1.44-.29,0-.07-.02-.12-.06-.17-.04-.05-.12-.11-.22-.17-.11-.06-.25-.14-.42-.23-.22-.11-.4-.27-.55-.46-.15-.19-.23-.43-.23-.71,0-.2.05-.39.15-.57.1-.18.25-.33.46-.45s.45-.17.74-.17c.07,0,.16,0,.26.02.11.01.24.04.41.09s.32.12.47.21v.97c-.07-.05-.13-.09-.17-.12s-.11-.07-.19-.11-.17-.08-.27-.11c-.11-.03-.21-.05-.32-.05-.13,0-.23.03-.28.09s-.07.12-.07.19.03.13.08.18.17.13.35.21c.26.12.47.24.62.37s.27.26.33.42c.07.15.1.33.1.54Z" style="fill: #fff;" />
        <path d="m23.19,196.83h-2.33c.05.24.16.44.33.59.18.15.38.23.6.23.39,0,.83-.13,1.3-.4v.87c-.17.11-.38.2-.62.29s-.55.13-.93.13c-.41,0-.75-.09-1.04-.27s-.5-.43-.64-.74c-.14-.31-.21-.67-.21-1.06s.07-.74.21-1.05c.14-.31.36-.55.64-.73s.63-.26,1.04-.26c.27,0,.53.07.78.21.25.14.46.37.62.68.16.32.24.72.24,1.22v.28Zm-1.1-.7c0-.25-.05-.46-.16-.61-.11-.15-.26-.23-.45-.23s-.35.08-.47.23c-.12.16-.18.36-.18.61h1.26Z" style="fill: #fff;" />
        <path d="m29.95,198.08c-.19.12-.38.21-.57.28-.19.07-.39.12-.59.15-.2.03-.4.04-.61.04-.39,0-.74-.07-1.05-.2-.31-.13-.58-.32-.81-.58-.23-.25-.4-.55-.51-.89s-.17-.71-.17-1.12c0-.47.07-.87.2-1.22.13-.35.32-.64.56-.87s.52-.4.82-.51.63-.17.97-.17c.51,0,1.09.14,1.73.41v1.44c-.22-.17-.44-.31-.66-.42-.22-.11-.47-.17-.77-.17-.26,0-.51.06-.73.19-.23.12-.41.3-.55.54-.14.23-.21.5-.21.81,0,.27.06.52.18.75s.29.41.5.54c.22.13.46.2.73.2.22,0,.42-.03.62-.1s.36-.13.49-.21.27-.17.41-.28v1.37Z" style="fill: #fff;" />
        <path d="m35.26,193.07l-2.03,5.48h-.9l-1.99-5.48h1.41l1.03,3.12,1.06-3.12h1.41Z" style="fill: #fff;" />
      </g>
      <g>
        <path d="m38.24,52.84v.62h-1.42v1.06h1.42v.62h-1.42v1.79h-.66v-4.09h2.07Z" style="fill: #fff;" />
        <path d="m39.58,54.14c.29,0,.51.07.67.22.15.15.23.36.23.62v1.34c0,.1.04.16.1.16.03,0,.07-.01.12-.04s.1-.07.13-.1v.42c-.21.15-.4.23-.57.23-.11,0-.19-.02-.25-.06s-.1-.12-.12-.23c-.23.2-.46.29-.69.29-.16,0-.3-.07-.42-.2-.12-.13-.18-.29-.18-.48,0-.24.06-.42.17-.56.12-.14.32-.26.61-.36l.48-.17v-.13c0-.27-.13-.4-.4-.4-.14,0-.28.04-.41.11s-.26.19-.37.34v-.65c.25-.24.54-.35.88-.35Zm-.37,2.06c0,.1.03.18.08.24s.12.09.2.09c.13,0,.26-.07.39-.22v-.72c-.17.07-.3.13-.39.19s-.16.12-.21.18-.07.14-.07.23Z" style="fill: #fff;" />
        <path d="m41.91,54.14c.12,0,.24.02.35.05.11.04.23.09.35.16v.58c-.11-.09-.23-.16-.36-.21-.13-.05-.25-.08-.35-.08-.09,0-.15.02-.2.06s-.07.09-.07.17c0,.04.02.08.06.12.04.04.15.12.33.23.26.16.44.3.55.44.1.13.16.29.16.48,0,.26-.08.47-.23.62s-.36.23-.62.23c-.16,0-.31-.02-.45-.06-.14-.04-.26-.09-.35-.16v-.6c.29.2.54.29.74.29.1,0,.18-.02.25-.07.06-.04.09-.1.09-.17,0-.04-.01-.08-.03-.12s-.06-.07-.1-.11c-.04-.04-.19-.13-.42-.27-.18-.11-.32-.22-.41-.34-.09-.12-.13-.27-.13-.44,0-.24.08-.44.24-.58s.36-.22.62-.22Z" style="fill: #fff;" />
        <path d="m43.8,53.47h.05v.73h.78v.54h-.78v1.26c0,.12.03.22.09.3s.15.11.25.11c.14,0,.3-.06.48-.18v.58c-.22.12-.42.17-.61.17-.26,0-.46-.08-.6-.25s-.22-.4-.22-.68v-1.31h-.35v-.12l.9-1.15Z" style="fill: #fff;" />
      </g>
      <g>
        <path d="m36.49,40.99l1.12,1.61,1.12-1.61h.59v4.09h-.66v-2.87h-.02l-.98,1.44h-.09l-.98-1.44h-.02v2.87h-.66v-4.09h.59Z" style="fill: #fff;" />
        <path d="m41,42.29c.33,0,.6.13.79.39s.29.61.29,1.07v.11h-1.61c.02.24.1.43.23.56.13.13.3.2.52.2.14,0,.28-.03.41-.09.13-.06.27-.15.41-.27v.54c-.27.23-.59.34-.97.34-.36,0-.65-.13-.88-.39-.23-.26-.34-.61-.34-1.04s.11-.76.32-1.02.48-.4.82-.4Zm.52,1.13c-.02-.2-.07-.35-.15-.47-.08-.11-.2-.17-.35-.17s-.27.05-.36.16c-.09.11-.15.27-.17.47h1.04Z" style="fill: #fff;" />
        <path d="m44.09,42.4v-1.42h.6v4.09h-1.05c-.36,0-.65-.13-.87-.38s-.33-.6-.33-1.03c0-.26.05-.49.15-.7s.24-.38.42-.5c.18-.12.37-.18.58-.18.16,0,.33.04.51.11Zm-.31,2.12h.31v-1.58c-.12-.08-.25-.11-.38-.11-.2,0-.36.08-.48.23s-.18.35-.18.59c0,.59.24.88.73.88Z" style="fill: #fff;" />
      </g>
      <g>
        <path d="m36.36,28.43c.33,0,.65.1.96.3v.7c-.35-.26-.66-.38-.94-.38-.17,0-.29.04-.39.12-.09.08-.14.18-.14.31,0,.15.09.3.26.43.05.04.24.15.56.33.28.16.48.33.6.53.12.19.18.43.18.7,0,.35-.11.64-.32.85-.21.22-.48.32-.82.32-.22,0-.4-.03-.56-.09-.16-.06-.33-.16-.53-.3v-.78c.36.36.71.54,1.03.54.16,0,.29-.04.39-.13s.15-.2.15-.33c0-.19-.09-.34-.26-.46-.14-.09-.33-.21-.55-.34-.27-.15-.47-.32-.6-.51s-.2-.42-.2-.68c0-.34.11-.62.32-.82.21-.2.49-.31.84-.31Z" style="fill: #fff;" />
        <path d="m38.58,28.48v4.09h-.6v-4.09h.6Z" style="fill: #fff;" />
        <path d="m40.32,29.79c.24,0,.45.06.64.18s.34.29.45.5.16.46.16.73-.05.53-.15.74c-.1.21-.25.38-.45.5-.2.12-.41.18-.65.18s-.45-.06-.65-.18c-.19-.12-.34-.29-.44-.5s-.15-.46-.15-.74.05-.52.16-.73c.11-.21.26-.38.45-.5s.4-.18.64-.18Zm-.62,1.41c0,.27.06.49.17.66.11.16.26.24.45.24s.35-.08.46-.23c.11-.16.17-.38.17-.67s-.06-.49-.17-.64c-.11-.15-.27-.23-.46-.23-.18,0-.33.08-.44.24s-.17.37-.17.64Z" style="fill: #fff;" />
        <path d="m42.37,29.84l.53,1.58.54-1.58h.39l.53,1.58.53-1.58h.62l-1.01,2.79h-.25l-.61-1.67-.61,1.67h-.25l-1.02-2.79h.62Z" style="fill: #fff;" />
      </g>
      <g>
        <path d="m36.36,80.67c.33,0,.65.1.96.3v.7c-.35-.26-.66-.38-.94-.38-.17,0-.29.04-.39.12-.09.08-.14.18-.14.31,0,.15.09.3.26.43.05.04.24.15.56.33.28.16.48.33.6.53.12.19.18.43.18.7,0,.35-.11.64-.32.85-.21.22-.48.32-.82.32-.22,0-.4-.03-.56-.09-.16-.06-.33-.16-.53-.3v-.78c.36.36.71.54,1.03.54.16,0,.29-.04.39-.13s.15-.2.15-.33c0-.19-.09-.34-.26-.46-.14-.09-.33-.21-.55-.34-.27-.15-.47-.32-.6-.51s-.2-.42-.2-.68c0-.34.11-.62.32-.82.21-.2.49-.31.84-.31Z" style="fill: #fff;" />
        <path d="m38.58,80.73v4.09h-.6v-4.09h.6Z" style="fill: #fff;" />
        <path d="m40.32,82.03c.24,0,.45.06.64.18s.34.29.45.5.16.46.16.73-.05.53-.15.74c-.1.21-.25.38-.45.5-.2.12-.41.18-.65.18s-.45-.06-.65-.18c-.19-.12-.34-.29-.44-.5s-.15-.46-.15-.74.05-.52.16-.73c.11-.21.26-.38.45-.5s.4-.18.64-.18Zm-.62,1.41c0,.27.06.49.17.66.11.16.26.24.45.24s.35-.08.46-.23c.11-.16.17-.38.17-.67s-.06-.49-.17-.64c-.11-.15-.27-.23-.46-.23-.18,0-.33.08-.44.24s-.17.37-.17.64Z" style="fill: #fff;" />
        <path d="m42.37,82.08l.53,1.58.54-1.58h.39l.53,1.58.53-1.58h.62l-1.01,2.79h-.25l-.61-1.67-.61,1.67h-.25l-1.02-2.79h.62Z" style="fill: #fff;" />
      </g>
      <g>
        <path d="m38.24,131.99v.62h-1.42v1.06h1.42v.62h-1.42v1.79h-.66v-4.09h2.07Z" style="fill: #fff;" />
        <path d="m39.58,133.29c.29,0,.51.07.67.22.15.15.23.36.23.62v1.34c0,.1.04.16.1.16.03,0,.07-.02.12-.04.05-.03.1-.07.13-.11v.42c-.21.15-.4.23-.57.23-.11,0-.19-.02-.25-.06s-.1-.12-.12-.23c-.23.2-.46.29-.69.29-.16,0-.3-.07-.42-.2-.12-.13-.18-.29-.18-.48,0-.24.06-.42.17-.56.12-.14.32-.26.61-.36l.48-.17v-.13c0-.27-.13-.4-.4-.4-.14,0-.28.04-.41.11s-.26.19-.37.34v-.65c.25-.24.54-.35.88-.35Zm-.37,2.06c0,.1.03.18.08.24s.12.09.2.09c.13,0,.26-.07.39-.22v-.72c-.17.07-.3.13-.39.19s-.16.12-.21.19-.07.14-.07.23Z" style="fill: #fff;" />
        <path d="m41.91,133.29c.12,0,.24.02.35.05.11.04.23.09.35.16v.58c-.11-.09-.23-.16-.36-.21-.13-.05-.25-.08-.35-.08-.09,0-.15.02-.2.06s-.07.09-.07.17c0,.04.02.08.06.12.04.04.15.12.33.23.26.16.44.3.55.44.1.13.16.29.16.48,0,.26-.08.47-.23.62-.15.15-.36.23-.62.23-.16,0-.31-.02-.45-.06-.14-.04-.26-.1-.35-.16v-.6c.29.2.54.29.74.29.1,0,.18-.02.25-.07.06-.04.09-.1.09-.17,0-.04-.01-.08-.03-.12s-.06-.07-.1-.11c-.04-.04-.19-.12-.42-.27-.18-.11-.32-.22-.41-.34-.09-.12-.13-.27-.13-.44,0-.24.08-.44.24-.58s.36-.22.62-.22Z" style="fill: #fff;" />
        <path d="m43.8,132.62h.05v.73h.78v.54h-.78v1.26c0,.12.03.22.09.3s.15.12.25.12c.14,0,.3-.06.48-.18v.58c-.22.12-.42.17-.61.17-.26,0-.46-.08-.6-.25s-.22-.4-.22-.68v-1.31h-.35v-.12l.9-1.15Z" style="fill: #fff;" />
      </g>
      <g>
        <path d="m84.7,196.29h-1.86v2.19h-1.35v-5.41h3.22v1.09h-1.86v1.05h1.86v1.09Z" style="fill: #fff;" />
        <path d="m88.94,198.28c-.17.08-.33.15-.47.2s-.32.07-.52.07c-.19,0-.33-.04-.4-.12-.08-.08-.13-.18-.16-.3-.13.12-.26.22-.42.3-.15.08-.36.12-.6.12s-.43-.05-.58-.15-.25-.23-.31-.38-.09-.31-.09-.47c0-.25.05-.45.15-.61s.24-.29.41-.39.4-.21.69-.32c.16-.06.28-.11.37-.14.08-.03.15-.06.19-.08s.08-.04.13-.07c0-.19-.03-.34-.1-.45-.07-.11-.21-.16-.42-.16-.25,0-.49.07-.71.2-.22.14-.42.31-.6.52v-1.08c.14-.12.3-.23.47-.31.17-.08.34-.14.53-.18.18-.04.37-.06.56-.06.48,0,.84.11,1.08.33.24.22.36.53.36.92v1.54c0,.15.01.25.03.33.02.07.06.11.12.11.07,0,.17-.04.3-.11v.74Zm-1.62-.76v-.94c-.28.14-.48.26-.61.37-.13.11-.19.25-.19.44,0,.13.03.23.1.3.06.07.14.11.22.11s.16-.03.24-.08.16-.12.24-.19Z" style="fill: #fff;" />
        <path d="m90.53,198.48h-1.17v-5.41h1.17v5.41Z" style="fill: #fff;" />
        <path d="m92.57,198.48h-1.17v-5.41h1.17v5.41Z" style="fill: #fff;" />
        <path d="m99.56,198.08c-.19.12-.38.21-.57.28-.19.07-.39.12-.59.15-.2.03-.4.04-.61.04-.39,0-.74-.07-1.05-.2-.31-.13-.58-.32-.81-.58-.23-.25-.4-.55-.51-.89s-.17-.71-.17-1.12c0-.47.07-.87.2-1.22.13-.35.32-.64.56-.87s.52-.4.82-.51.63-.17.97-.17c.51,0,1.09.14,1.73.41v1.44c-.22-.17-.44-.31-.66-.42-.22-.11-.47-.17-.77-.17-.26,0-.51.06-.73.19-.23.12-.41.3-.55.54-.14.23-.21.5-.21.81,0,.27.06.52.18.75s.29.41.5.54c.22.13.46.2.73.2.22,0,.42-.03.62-.1s.36-.13.49-.21.27-.17.41-.28v1.37Z" style="fill: #fff;" />
        <path d="m104.87,193.07l-2.03,5.48h-.9l-1.99-5.48h1.41l1.03,3.12,1.06-3.12h1.41Z" style="fill: #fff;" />
      </g>
      <g>
        <path d="m52.54,305.02h-1.39l-.37-1.1h-1.95l-.37,1.1h-1.39l1.99-5.41h1.5l1.98,5.41Zm-2.07-2.04l-.66-1.98-.67,1.98h1.32Z" style="fill: #fff;" />
        <path d="m56.51,305.02h-1.17v-.57c-.17.21-.34.37-.52.48-.18.11-.4.16-.65.16-.5,0-.82-.17-.97-.53s-.22-.75-.22-1.19v-2.34h1.17v2.15c0,.22.03.41.09.57s.19.24.39.24c.17,0,.31-.06.41-.18s.2-.27.31-.45v-2.34h1.17v3.98Z" style="fill: #fff;" />
        <path d="m60.75,305.02h-1.17v-.36c-.12.12-.25.23-.39.31-.14.08-.33.12-.57.12s-.48-.07-.71-.21c-.23-.14-.42-.37-.57-.67s-.22-.69-.22-1.15c0-.36.06-.7.17-1.02s.29-.57.53-.77.53-.3.88-.3c.22,0,.39.03.53.09.13.06.25.13.36.22v-1.67h1.17v5.41Zm-1.17-1.27v-1.52c-.14-.09-.24-.16-.32-.2-.08-.04-.17-.06-.27-.06-.18,0-.34.09-.46.28s-.18.44-.18.77c0,.35.06.61.19.77s.28.24.45.24c.14,0,.25-.03.34-.08.09-.05.17-.12.25-.2Z" style="fill: #fff;" />
        <path d="m62.72,305.02h-1.17v-3.98h1.17v3.98Zm-.09-4.89c0,.16-.05.3-.15.42-.1.11-.21.17-.35.17-.09,0-.17-.03-.25-.08-.07-.05-.13-.12-.18-.21s-.06-.19-.06-.3c0-.16.05-.3.14-.42.09-.12.21-.18.35-.18s.25.06.35.18c.1.12.15.26.15.42Z" style="fill: #fff;" />
        <path d="m67.17,303.03c0,.4-.07.75-.21,1.06s-.36.55-.64.73-.63.27-1.04.27-.75-.09-1.04-.27c-.29-.18-.5-.42-.64-.73-.14-.31-.21-.66-.21-1.06,0-.3.04-.57.12-.82s.2-.46.36-.65.36-.33.59-.44.51-.15.82-.15.59.05.83.15c.24.1.44.25.59.43.16.18.28.4.36.65.08.25.12.52.12.82Zm-1.23,0c0-.32-.06-.56-.17-.74s-.28-.27-.49-.27-.38.09-.49.27c-.11.18-.17.42-.17.74s.06.56.17.74c.12.18.28.27.49.27s.38-.09.49-.27.17-.43.17-.74Z" style="fill: #fff;" />
      </g>
      <g>
        <path d="m87.66,61.29c-.19.12-.38.21-.57.28-.19.07-.39.12-.59.15-.2.03-.4.04-.61.04-.39,0-.74-.07-1.05-.2-.31-.13-.58-.32-.81-.58-.23-.25-.4-.55-.51-.89s-.17-.71-.17-1.12c0-.47.07-.87.2-1.22.13-.35.32-.64.56-.87s.52-.4.82-.51.63-.17.97-.17c.51,0,1.09.14,1.73.41v1.44c-.22-.17-.44-.31-.66-.42-.22-.11-.47-.17-.77-.17-.26,0-.51.06-.73.19-.23.12-.41.3-.55.54-.14.23-.21.5-.21.81,0,.27.06.52.18.75s.29.41.5.54c.22.13.46.2.73.2.22,0,.42-.03.62-.1s.36-.13.49-.21.27-.17.41-.28v1.37Z" style="fill: #fff;" />
        <path d="m91.91,57.72l-2.24,5.79h-1.18l.91-2.33-1.31-3.46h1.25l.67,1.98.76-1.98h1.13Z" style="fill: #fff;" />
        <path d="m95.08,61.52c-.1.04-.2.08-.31.12-.11.04-.23.07-.36.09s-.28.04-.44.04c-.36,0-.67-.07-.92-.22-.25-.15-.44-.33-.58-.55s-.23-.45-.28-.68-.08-.44-.08-.61.03-.38.08-.61c.05-.23.15-.46.28-.67s.32-.4.57-.54c.25-.15.56-.22.92-.22.24,0,.44.02.6.06.15.04.31.1.47.17v1.11c-.38-.15-.68-.22-.89-.22s-.39.08-.55.23-.24.39-.24.7c0,.21.04.39.12.53s.18.25.3.32.25.1.37.1c.12,0,.25-.02.4-.06s.33-.1.54-.18v1.11Z" style="fill: #fff;" />
        <path d="m96.87,61.7h-1.17v-5.41h1.17v5.41Z" style="fill: #fff;" />
        <path d="m101.06,60.05h-2.33c.05.24.16.44.33.59.18.15.38.23.6.23.39,0,.83-.13,1.3-.4v.87c-.17.11-.38.2-.62.29s-.55.13-.93.13c-.41,0-.75-.09-1.04-.27s-.5-.43-.64-.74c-.14-.31-.21-.67-.21-1.06s.07-.74.21-1.05c.14-.31.36-.55.64-.73s.63-.26,1.04-.26c.27,0,.53.07.78.21.25.14.46.37.62.68.16.32.24.72.24,1.22v.28Zm-1.1-.7c0-.25-.05-.46-.16-.61-.11-.15-.26-.23-.45-.23s-.35.08-.47.23c-.12.16-.18.36-.18.61h1.26Z" style="fill: #fff;" />
      </g>
      <g>
        <path d="m53.25,273.71c-.16.1-.33.19-.5.25-.17.06-.35.11-.52.13-.18.03-.36.04-.54.04-.35,0-.66-.06-.93-.17s-.51-.29-.71-.51c-.2-.23-.35-.49-.45-.79s-.15-.63-.15-.99c0-.41.06-.77.18-1.08.12-.31.29-.57.5-.77.21-.21.46-.36.73-.46.27-.1.56-.15.86-.15.45,0,.96.12,1.54.36v1.27c-.2-.15-.39-.27-.58-.37s-.42-.15-.68-.15c-.23,0-.45.06-.65.17-.2.11-.36.27-.49.47-.12.21-.18.45-.18.72,0,.24.05.46.16.67.11.2.26.36.45.48s.41.18.64.18c.19,0,.38-.03.55-.08.17-.06.32-.12.43-.19.12-.07.24-.15.36-.25v1.21Z" style="fill: #fff;" />
        <path d="m57.03,270.55l-1.99,5.12h-1.04l.8-2.06-1.16-3.06h1.11l.59,1.75.67-1.75h1.01Z" style="fill: #fff;" />
        <path d="m59.83,273.91c-.09.04-.18.08-.27.11-.1.03-.2.06-.32.08-.12.02-.25.03-.39.03-.32,0-.59-.07-.81-.2-.22-.13-.39-.29-.51-.49-.12-.2-.2-.4-.25-.6s-.07-.39-.07-.54.02-.34.07-.54c.05-.21.13-.4.25-.59.12-.19.29-.35.51-.48.22-.13.49-.19.82-.19.22,0,.39.02.53.06.14.04.27.09.41.15v.98c-.34-.13-.6-.19-.79-.19s-.35.07-.49.2c-.14.13-.21.34-.21.62,0,.19.04.34.11.47.07.13.16.22.27.28.11.06.22.09.33.09.1,0,.22-.02.35-.06.13-.04.29-.09.48-.16v.98Z" style="fill: #fff;" />
        <path d="m61.42,274.08h-1.04v-4.8h1.04v4.8Z" style="fill: #fff;" />
        <path d="m65.13,272.61h-2.06c.04.21.14.39.3.53s.33.2.53.2c.35,0,.73-.12,1.15-.35v.77c-.15.1-.33.18-.55.26-.21.08-.49.12-.82.12-.36,0-.67-.08-.92-.24-.25-.16-.44-.38-.57-.66-.13-.28-.19-.59-.19-.94s.06-.66.19-.93c.12-.27.31-.49.57-.64.25-.16.56-.23.92-.23.24,0,.47.06.69.19.22.12.4.33.55.61.14.28.21.64.21,1.08v.25Zm-.97-.62c0-.23-.05-.41-.14-.54s-.23-.2-.4-.2-.31.07-.42.21c-.11.14-.16.32-.16.54h1.12Z" style="fill: #fff;" />
      </g>
      <g>
        <path d="m15.04,297.55h-1.86v2.19h-1.36v-5.41h3.22v1.09h-1.86v1.05h1.86v1.09Z" style="fill: #fff;" />
        <path d="m19.31,297.75c0,.4-.07.75-.21,1.06-.14.31-.36.55-.64.73s-.63.27-1.04.27-.75-.09-1.04-.27-.5-.42-.64-.73c-.14-.31-.21-.66-.21-1.06,0-.3.04-.57.12-.82.08-.24.2-.46.36-.65.16-.19.36-.33.6-.44.24-.1.51-.15.82-.15s.59.05.83.15c.24.1.44.25.59.43.16.19.27.4.35.65.08.25.12.52.12.82Zm-1.23,0c0-.31-.06-.56-.17-.74-.11-.18-.28-.27-.5-.27s-.38.09-.49.27c-.11.18-.17.43-.17.74s.06.56.17.74c.11.18.28.27.49.27s.38-.09.5-.27c.11-.18.17-.43.17-.74Z" style="fill: #fff;" />
        <path d="m21.15,299.75h-1.17v-5.41h1.17v5.41Z" style="fill: #fff;" />
        <path d="m23.18,299.75h-1.17v-5.41h1.17v5.41Z" style="fill: #fff;" />
        <path d="m27.53,297.75c0,.4-.07.75-.21,1.06-.14.31-.36.55-.64.73s-.63.27-1.04.27-.75-.09-1.04-.27-.5-.42-.64-.73c-.14-.31-.21-.66-.21-1.06,0-.3.04-.57.12-.82.08-.24.2-.46.36-.65.16-.19.36-.33.59-.44s.51-.15.82-.15.59.05.83.15c.24.1.44.25.59.43.16.19.28.4.36.65.08.25.12.52.12.82Zm-1.23,0c0-.31-.06-.56-.17-.74-.11-.18-.28-.27-.49-.27s-.38.09-.49.27c-.11.18-.17.43-.17.74s.06.56.17.74c.11.18.28.27.49.27s.38-.09.49-.27c.11-.18.17-.43.17-.74Z" style="fill: #fff;" />
        <path d="m33.3,295.77l-1.3,3.98h-.74l-.74-2.17-.73,2.17h-.74l-1.34-3.98h1.18l.6,2.01.65-2.01h.74l.65,2.01.58-2.01h1.17Z" style="fill: #fff;" />
      </g>
      <g>
        <path d="m14.85,243.75h-1.65v4.1h-1.35v-4.1h-1.65v-1.32h4.65v1.32Z" style="fill: #fff;" />
        <path d="m18.16,244.08l-.43,1.41c-.18-.2-.36-.3-.54-.3-.16,0-.31.07-.43.2-.12.13-.24.38-.35.74v1.71h-1.17v-3.98h1.17v.96c.07-.24.2-.47.39-.69.19-.22.4-.34.65-.34.13,0,.25.02.35.07.1.05.22.12.35.21Z" style="fill: #fff;" />
        <path d="m19.48,247.84h-1.17v-3.98h1.17v3.98Zm-.09-4.89c0,.16-.05.3-.15.42-.1.12-.21.17-.35.17-.09,0-.17-.03-.25-.08-.07-.05-.13-.12-.18-.21s-.06-.19-.06-.3c0-.16.05-.3.14-.42.09-.12.21-.18.35-.18s.25.06.35.18c.1.12.15.26.15.42Z" style="fill: #fff;" />
        <path d="m23.6,244.71h-.58c.2.21.3.48.3.79,0,.16-.03.32-.09.47-.06.15-.14.29-.25.4s-.25.21-.41.29-.35.12-.56.13c-.27.01-.41.1-.41.26,0,.06.02.11.05.14.03.03.09.05.16.06.08.01.2.03.38.05.2.02.39.06.56.11.17.05.33.16.48.33.15.17.22.41.22.71,0,.25-.06.47-.17.66-.11.19-.29.34-.54.45-.25.11-.58.16-.99.16-.59,0-1.02-.09-1.29-.29-.28-.19-.41-.44-.41-.76,0-.09.02-.18.05-.3.04-.11.11-.22.23-.32.12-.1.28-.17.5-.21-.08-.03-.14-.1-.2-.2-.06-.1-.08-.2-.08-.31,0-.14.04-.27.12-.41.08-.13.21-.22.38-.26-.25-.08-.46-.22-.64-.44-.18-.22-.27-.5-.27-.84,0-.26.04-.49.12-.68.08-.2.2-.35.34-.48.15-.12.32-.21.51-.27s.41-.09.64-.09h1.81v.85Zm-1.06,3.87c0-.17-.08-.29-.23-.34s-.31-.08-.48-.08c-.27,0-.46.04-.58.1-.12.07-.18.18-.18.33,0,.3.25.45.75.45.22,0,.4-.04.53-.12.13-.08.2-.19.2-.35Zm-.23-3.2c0-.2-.06-.36-.17-.48s-.24-.18-.38-.18c-.18,0-.32.07-.42.22-.1.15-.15.3-.15.46,0,.11.02.22.07.31.04.1.11.17.19.23s.18.09.29.09c.17,0,.31-.06.42-.19.11-.13.17-.28.17-.46Z" style="fill: #fff;" />
        <path d="m27.34,244.71h-.58c.2.21.3.48.3.79,0,.16-.03.32-.09.47-.06.15-.14.29-.25.4s-.25.21-.41.29-.35.12-.56.13c-.27.01-.41.1-.41.26,0,.06.02.11.05.14.03.03.09.05.16.06.08.01.2.03.38.05.2.02.39.06.56.11.17.05.33.16.48.33.15.17.22.41.22.71,0,.25-.06.47-.17.66-.11.19-.29.34-.54.45-.25.11-.58.16-.99.16-.59,0-1.02-.09-1.29-.29-.28-.19-.41-.44-.41-.76,0-.09.02-.18.05-.3.04-.11.11-.22.23-.32.12-.1.28-.17.5-.21-.08-.03-.14-.1-.2-.2-.06-.1-.08-.2-.08-.31,0-.14.04-.27.12-.41.08-.13.21-.22.38-.26-.25-.08-.46-.22-.64-.44-.18-.22-.27-.5-.27-.84,0-.26.04-.49.12-.68.08-.2.2-.35.34-.48.15-.12.32-.21.51-.27s.41-.09.64-.09h1.81v.85Zm-1.06,3.87c0-.17-.08-.29-.23-.34s-.31-.08-.48-.08c-.27,0-.46.04-.58.1-.12.07-.18.18-.18.33,0,.3.25.45.75.45.22,0,.4-.04.53-.12.13-.08.2-.19.2-.35Zm-.23-3.2c0-.2-.06-.36-.17-.48s-.24-.18-.38-.18c-.18,0-.32.07-.42.22-.1.15-.15.3-.15.46,0,.11.02.22.07.31.04.1.11.17.19.23s.18.09.29.09c.17,0,.31-.06.42-.19.11-.13.17-.28.17-.46Z" style="fill: #fff;" />
        <path d="m31.15,246.2h-2.32c.04.24.16.44.33.59.18.15.38.23.6.23.39,0,.83-.13,1.3-.4v.87c-.17.11-.38.2-.62.29-.24.09-.55.13-.93.13-.41,0-.75-.09-1.04-.27-.29-.18-.5-.43-.64-.74s-.21-.67-.21-1.06.07-.74.21-1.05.35-.55.64-.73c.29-.18.63-.26,1.04-.26.27,0,.53.07.78.21.25.14.46.37.62.68s.24.72.24,1.22v.28Zm-1.1-.7c0-.25-.05-.46-.16-.61s-.26-.23-.45-.23-.35.08-.47.23c-.12.16-.18.36-.18.61h1.26Z" style="fill: #fff;" />
        <path d="m34.62,244.08l-.43,1.41c-.18-.2-.36-.3-.54-.3-.16,0-.31.07-.43.2-.12.13-.24.38-.35.74v1.71h-1.17v-3.98h1.17v.96c.07-.24.2-.47.39-.69.19-.22.4-.34.65-.34.13,0,.25.02.35.07.1.05.22.12.35.21Z" style="fill: #fff;" />
      </g>
      <g>
        <path d="m47.38,219.73h-1.65v4.1h-1.35v-4.1h-1.65v-1.32h4.65v1.32Z" style="fill: #fff;" />
        <path d="m49.11,223.83h-1.17v-3.98h1.17v3.98Zm-.09-4.89c0,.16-.05.3-.15.42-.1.11-.21.17-.35.17-.09,0-.17-.03-.25-.08-.07-.05-.13-.12-.18-.21s-.06-.19-.06-.3c0-.16.05-.3.14-.42.09-.12.21-.18.35-.18s.25.06.35.18c.1.12.15.26.15.42Z" style="fill: #fff;" />
        <path d="m55.8,223.83h-1.17v-2.12c0-.28-.04-.49-.12-.63-.08-.14-.2-.21-.36-.21s-.29.06-.4.18c-.1.12-.21.27-.31.45v2.34h-1.17v-2.12c0-.27-.04-.48-.11-.62-.07-.15-.2-.22-.38-.22-.09,0-.17.02-.24.06-.07.04-.13.09-.18.14-.05.05-.1.13-.17.23-.06.1-.11.17-.12.19v2.34h-1.17v-3.98h1.17v.57c.18-.22.35-.39.54-.49s.39-.15.63-.15c.11,0,.22.01.32.04.1.02.2.07.3.13.1.06.19.14.27.25.08.1.14.22.19.36.19-.26.38-.45.58-.58.2-.13.43-.2.7-.2s.49.06.66.19c.18.13.31.31.4.55.09.24.13.53.13.88v2.43Z" style="fill: #fff;" />
        <path d="m59.87,222.18h-2.32c.04.24.16.44.33.59.18.15.38.23.6.23.39,0,.83-.13,1.3-.4v.87c-.17.11-.38.2-.62.29-.24.09-.55.13-.93.13-.41,0-.75-.09-1.04-.27-.29-.18-.5-.43-.64-.74s-.21-.67-.21-1.06.07-.74.21-1.05.35-.55.64-.73c.29-.18.63-.26,1.04-.26.27,0,.53.07.78.21.25.14.46.37.62.68s.24.72.24,1.22v.28Zm-1.1-.7c0-.26-.05-.46-.16-.61s-.26-.23-.45-.23-.35.08-.47.23c-.12.15-.18.36-.18.61h1.26Z" style="fill: #fff;" />
        <path d="m66.63,223.42c-.19.12-.38.21-.57.28s-.39.12-.59.15c-.2.03-.4.04-.61.04-.39,0-.74-.07-1.05-.2-.31-.13-.58-.32-.81-.58-.23-.25-.4-.55-.51-.89-.11-.34-.17-.71-.17-1.12,0-.47.07-.88.2-1.22.13-.35.32-.64.56-.87.24-.23.52-.4.82-.51.31-.11.63-.17.97-.17.51,0,1.09.14,1.73.41v1.44c-.22-.17-.44-.31-.66-.42-.22-.11-.47-.17-.77-.17-.26,0-.51.06-.73.19s-.41.3-.55.54c-.14.23-.21.5-.21.81,0,.27.06.52.18.75.12.23.29.41.5.54.21.13.46.2.73.2.22,0,.42-.03.62-.1.19-.06.36-.13.49-.21s.27-.17.41-.28v1.37Z" style="fill: #fff;" />
        <path d="m71.94,218.41l-2.03,5.48h-.89l-1.99-5.48h1.41l1.03,3.12,1.06-3.12h1.41Z" style="fill: #fff;" />
      </g>
      <g>
        <path d="m51,357.15h-4.66v-7.44h4.58v1.49h-2.72v1.37h2.59v1.5h-2.59v1.59h2.79v1.5Z" style="fill: #fff;" />
        <path d="m56.84,357.15h-1.6v-2.95c0-.3-.04-.56-.12-.79-.08-.22-.26-.34-.54-.34-.13,0-.25.03-.34.09s-.19.13-.27.23c-.08.09-.15.18-.2.27-.05.09-.11.18-.17.27v3.21h-1.61v-5.47h1.61v.78c.25-.33.51-.55.76-.68.25-.13.54-.2.85-.2,1.09,0,1.63.79,1.63,2.35v3.21Z" style="fill: #fff;" />
        <path d="m62.58,351.68l-2.06,5.47h-1.19l-2.02-5.47h1.72l.94,2.86,1.04-2.86h1.56Z" style="fill: #fff;" />
        <path d="m69.43,349.7l-2.79,7.54h-1.23l-2.73-7.54h1.94l1.41,4.3,1.45-4.3h1.94Z" style="fill: #fff;" />
        <path d="m75.55,356.59c-.26.16-.52.29-.78.39-.27.1-.54.17-.81.21-.27.04-.55.06-.84.06-.54,0-1.02-.09-1.45-.27-.43-.18-.8-.44-1.11-.79-.31-.35-.55-.76-.7-1.22-.16-.47-.23-.98-.23-1.54,0-.64.09-1.2.28-1.68.18-.48.44-.88.77-1.2.33-.32.71-.55,1.13-.71.42-.15.87-.23,1.34-.23.7,0,1.5.19,2.38.56v1.98c-.31-.23-.61-.42-.91-.57-.3-.15-.65-.23-1.05-.23-.36,0-.7.09-1.01.26-.31.17-.56.42-.75.74-.19.32-.29.69-.29,1.12,0,.38.08.72.25,1.04.17.31.4.56.69.75.3.18.63.28,1,.28.3,0,.58-.04.85-.13s.49-.19.68-.29.37-.23.56-.38v1.88Z" style="fill: #fff;" />
        <path d="m83.58,357.15h-1.91l-.5-1.51h-2.68l-.51,1.51h-1.91l2.73-7.44h2.06l2.72,7.44Zm-2.84-2.8l-.91-2.72-.91,2.72h1.82Z" style="fill: #fff;" />
      </g>
      <g>
        <path d="m89.79,247.14h-3.39v-5.41h3.33v1.09h-1.98v.99h1.89v1.09h-1.89v1.16h2.03v1.09Z" style="fill: #171717;" />
        <path d="m94.03,247.14h-1.17v-2.14c0-.22-.03-.41-.09-.57s-.19-.24-.39-.24c-.09,0-.18.02-.25.06s-.14.1-.19.17c-.06.07-.11.13-.14.2s-.08.13-.12.2v2.34h-1.17v-3.98h1.17v.57c.18-.24.37-.4.55-.5s.39-.14.62-.14c.79,0,1.19.57,1.19,1.71v2.34Z" style="fill: #171717;" />
        <path d="m98.21,243.16l-1.5,3.98h-.86l-1.47-3.98h1.25l.68,2.08.76-2.08h1.13Z" style="fill: #171717;" />
      </g>
      <g>
        <path d="m88.52,299.27h-3.39v-5.41h3.33v1.09h-1.98v.99h1.89v1.09h-1.89v1.16h2.03v1.09Z" style="fill: #171717;" />
        <path d="m94.24,296.56c0,.5-.1.97-.29,1.39s-.48.76-.86,1.01c-.38.25-.85.38-1.4.38s-1.03-.13-1.41-.39-.67-.6-.86-1.03-.28-.88-.28-1.36.09-.94.28-1.37c.19-.42.47-.76.86-1.02.39-.26.86-.39,1.41-.39.42,0,.79.07,1.11.22.33.15.59.35.8.6s.37.55.48.89c.11.34.16.69.16,1.06Zm-1.38,0c0-.2-.03-.39-.07-.56-.05-.17-.12-.31-.23-.44s-.22-.22-.37-.29-.31-.1-.5-.1c-.36,0-.65.13-.86.38-.21.25-.31.59-.31,1s.1.75.31,1.01c.21.26.49.38.85.38.25,0,.46-.06.64-.18s.31-.28.4-.49c.09-.21.14-.45.14-.72Z" style="fill: #171717;" />
        <path d="m99.43,299.27h-1.46l-.35-.96c-.13-.35-.25-.61-.35-.77s-.21-.27-.3-.31c-.1-.05-.23-.07-.38-.07h-.15v2.11h-1.35v-5.41h2.3c.37,0,.68.09.91.27.24.18.41.4.51.66.1.26.16.51.16.74,0,.27-.04.5-.13.69-.09.19-.18.33-.28.41-.1.09-.21.17-.33.25.14.1.26.22.36.36s.22.42.38.85l.45,1.18Zm-1.84-3.7c0-.25-.07-.42-.2-.52-.14-.1-.36-.15-.66-.15h-.29v1.3h.29c.33,0,.56-.04.68-.13s.18-.25.18-.5Z" style="fill: #171717;" />
      </g>
      <g>
        <path d="m34.6,345.04h-1.2v-4.8h1.2v4.8Z" style="fill: #fff;" />
        <path d="m38.56,345.04h-1.03v-1.9c0-.19-.03-.36-.08-.51-.05-.14-.17-.22-.35-.22-.08,0-.16.02-.22.06s-.12.09-.17.15c-.05.06-.09.12-.13.17-.04.06-.07.11-.11.18v2.07h-1.03v-3.52h1.03v.5c.16-.21.33-.36.49-.44.16-.08.35-.13.55-.13.7,0,1.05.5,1.05,1.52v2.07Z" style="fill: #fff;" />
      </g>
      <g>
        <path d="m77.57,342.64c0,.45-.09.86-.26,1.24-.17.38-.43.67-.77.9-.34.22-.75.33-1.24.33s-.91-.12-1.25-.35c-.34-.23-.59-.53-.76-.91-.17-.38-.25-.78-.25-1.21s.08-.83.25-1.21c.17-.38.42-.68.76-.91s.76-.34,1.25-.34c.37,0,.7.07.98.2.29.13.53.31.71.53s.33.49.42.79c.1.3.14.61.14.94Zm-1.22,0c0-.18-.02-.34-.07-.49s-.11-.28-.2-.39-.2-.19-.33-.26c-.13-.06-.28-.09-.44-.09-.32,0-.58.11-.76.34-.18.23-.28.52-.28.89s.09.66.28.89c.18.23.44.34.76.34.22,0,.41-.05.56-.16.16-.1.27-.25.35-.44.08-.19.12-.4.12-.64Z" style="fill: #fff;" />
        <path d="m81.23,345.04h-1.03v-.5c-.15.19-.3.33-.46.42-.16.09-.35.14-.58.14-.44,0-.73-.16-.86-.47-.13-.31-.2-.66-.2-1.05v-2.07h1.03v1.9c0,.19.03.36.08.5.05.14.17.22.34.22.15,0,.27-.05.36-.16.09-.1.18-.24.27-.4v-2.07h1.03v3.52Z" style="fill: #fff;" />
        <path d="m84.2,344.84c-.11.06-.25.12-.44.18-.19.06-.37.09-.54.09-.75,0-1.12-.44-1.12-1.32v-1.4h-.47v-.22l1.39-1.7h.12v1.06h.99v.87h-.99v1.13c0,.13,0,.24.02.32.01.08.05.15.11.2.06.05.16.08.28.08.17,0,.38-.08.65-.25v.97Z" style="fill: #fff;" />
      </g>
    </g>
  </g>
  <g /></svg>