<svg xmlns="http://www.w3.org/2000/svg" width="40.73mm" height="130.6mm" viewBox="0 0 115.45 370.19">
  <g id="faceplate">
    <rect x="0.13" y="0.13" width="115.2" height="364.25" style="fill: #ededed;stroke: #9d9d9e;stroke-miterlimit: 10;stroke-width: 0.25px" />
    <g>
      <path d="M100.44,318.76V297.24H78.9c-7.49,0-13.57,6.52-13.57,14.56v30.53H94.8a5.47,5.47,0,0,0,5.64-5.26V318.76Z" transform="translate(0)" />
      <g>
        <path d="M28.32,341.84H86.67c7.35,0,13.31-7,13.31-15.67V297.75l.28-21.85-.06-6.65c-.29-8.35-6.12-15-13.29-15H28.56c-7.16,0-13,6.67-13.28,15l-.06,6.65V273L15,326.17" transform="translate(0)" style="fill: none;stroke: #000;stroke-miterlimit: 10" />
        <path d="M15,325.21v11a5.68,5.68,0,0,0,5.67,5.67H33.61" transform="translate(0)" style="fill: none;stroke: #231f20;stroke-miterlimit: 10" />
      </g>
    </g>
    <g>
      <path d="M53.52,357.47H48.88V350h1.84v5.66h2.8Z" transform="translate(0)" />
      <path d="M59.87,352.37a3.22,3.22,0,0,1-.11.81,2.32,2.32,0,0,1-.38.73,2,2,0,0,1-.7.56,2.41,2.41,0,0,1-1,.21H56.43v2.79H54.59V350h3a2.41,2.41,0,0,1,1,.21,1.87,1.87,0,0,1,.7.56,2.41,2.41,0,0,1,.38.75A3.24,3.24,0,0,1,59.87,352.37Zm-1.87,0a.87.87,0,0,0-.26-.73,1.6,1.6,0,0,0-.92-.19h-.39v1.79h.4a2.55,2.55,0,0,0,.7-.07.58.58,0,0,0,.36-.26A1.09,1.09,0,0,0,58,352.38Z" transform="translate(0)" />
      <path d="M66.65,356.94a1.87,1.87,0,0,1-.34.15l-.27.11-.38.13c-.27.07-.55.13-.83.18a6.19,6.19,0,0,1-.88.06,3.62,3.62,0,0,1-1.72-.42A3.05,3.05,0,0,1,61,355.87a4.48,4.48,0,0,1-.47-2.14,5.44,5.44,0,0,1,.24-1.6,2.91,2.91,0,0,1,.75-1.26,3.65,3.65,0,0,1,.84-.6,3.13,3.13,0,0,1,.83-.28,6.06,6.06,0,0,1,.89-.07,4.92,4.92,0,0,1,1.33.15c.35.1.74.23,1.15.39v1.76a5,5,0,0,0-.87-.49,3,3,0,0,0-1.16-.2,2,2,0,0,0-1.27.37,2,2,0,0,0-.67.88,3,3,0,0,0-.19,1,2.51,2.51,0,0,0,.22,1,1.74,1.74,0,0,0,.65.77,1.87,1.87,0,0,0,1.05.28,2.52,2.52,0,0,0,.75-.11v-.87h-.82v-1.5h2.43Z" transform="translate(0)" />
    </g>
    <g>
      <path d="M80.81,290.11a2,2,0,0,1-.09.59,1.62,1.62,0,0,1-.29.53,1.43,1.43,0,0,1-.55.4,1.86,1.86,0,0,1-.81.16h-.95v2H76.69v-5.41h2.38a2,2,0,0,1,.81.15,1.56,1.56,0,0,1,.55.41,1.66,1.66,0,0,1,.29.54A2.08,2.08,0,0,1,80.81,290.11Zm-1.46,0a.61.61,0,0,0-.2-.53,1.29,1.29,0,0,0-.72-.15h-.31v1.31h.31a2.44,2.44,0,0,0,.55-.05.42.42,0,0,0,.28-.19A.7.7,0,0,0,79.35,290.12Z" transform="translate(0)" />
      <path d="M82.43,293.82H81.19v-4h1.24Zm-.1-4.9a.57.57,0,0,1-.16.42.44.44,0,0,1-.36.17.5.5,0,0,1-.27-.07.55.55,0,0,1-.18-.22.6.6,0,0,1-.07-.3.59.59,0,0,1,.15-.41.46.46,0,0,1,.37-.18.45.45,0,0,1,.36.18A.56.56,0,0,1,82.33,288.92Z" transform="translate(0)" />
      <path d="M86.74,293.82H85.5v-2.15a1.48,1.48,0,0,0-.1-.57.39.39,0,0,0-.41-.24.6.6,0,0,0-.27.06,1.06,1.06,0,0,0-.2.17l-.16.19-.12.2v2.34H83v-4h1.24v.57a1.8,1.8,0,0,1,.58-.49,1.45,1.45,0,0,1,.66-.15q1.26,0,1.26,1.71Z" transform="translate(0)" />
      <path d="M90.72,290.69H90.1a1.06,1.06,0,0,1,.33.79,1.27,1.27,0,0,1-.09.47,1.18,1.18,0,0,1-.27.4,1.4,1.4,0,0,1-.44.29,1.76,1.76,0,0,1-.59.13c-.29,0-.43.1-.43.26a.18.18,0,0,0,0,.14.52.52,0,0,0,.18.07l.4,0a4.77,4.77,0,0,1,.59.11,1.28,1.28,0,0,1,.52.33,1.05,1.05,0,0,1,.23.72,1.29,1.29,0,0,1-.17.65,1.18,1.18,0,0,1-.58.45,2.74,2.74,0,0,1-1,.16,2.6,2.6,0,0,1-1.38-.29.86.86,0,0,1-.43-.76,1.33,1.33,0,0,1,0-.3.77.77,0,0,1,.24-.32,1.22,1.22,0,0,1,.54-.21.44.44,0,0,1-.21-.2.58.58,0,0,1-.09-.3.78.78,0,0,1,.12-.41.58.58,0,0,1,.41-.27,1.36,1.36,0,0,1-.68-.44,1.2,1.2,0,0,1-.28-.84,1.59,1.59,0,0,1,.13-.68,1.27,1.27,0,0,1,.37-.48,1.52,1.52,0,0,1,.54-.27,2.36,2.36,0,0,1,.67-.09h1.93Zm-1.12,3.87a.33.33,0,0,0-.25-.34,1.7,1.7,0,0,0-.51-.07,1.39,1.39,0,0,0-.62.1.36.36,0,0,0-.19.33c0,.3.27.45.79.45a1.15,1.15,0,0,0,.57-.12A.36.36,0,0,0,89.6,294.56Zm-.25-3.2a.65.65,0,0,0-.18-.48.57.57,0,0,0-.41-.18.5.5,0,0,0-.44.22.75.75,0,0,0-.17.46.82.82,0,0,0,.07.31.64.64,0,0,0,.2.23.54.54,0,0,0,.31.09.55.55,0,0,0,.44-.19A.65.65,0,0,0,89.35,291.36Z" transform="translate(0)" />
    </g>
    <g>
      <path d="M82.48,333.3a3.21,3.21,0,0,1-.3,1.39,2.42,2.42,0,0,1-.92,1,3.08,3.08,0,0,1-3,0,2.51,2.51,0,0,1-.91-1,3.36,3.36,0,0,1,0-2.73,2.42,2.42,0,0,1,.91-1,2.75,2.75,0,0,1,1.5-.39,3,3,0,0,1,1.18.22,2.51,2.51,0,0,1,.85.6,2.6,2.6,0,0,1,.5.89A3.16,3.16,0,0,1,82.48,333.3Zm-1.46,0a1.94,1.94,0,0,0-.08-.56,1.11,1.11,0,0,0-.24-.44,1.05,1.05,0,0,0-.39-.29,1.25,1.25,0,0,0-.53-.1,1.15,1.15,0,0,0-.91.38,1.5,1.5,0,0,0-.33,1,1.47,1.47,0,0,0,.33,1,1.14,1.14,0,0,0,.91.39,1.2,1.2,0,0,0,.67-.18,1.14,1.14,0,0,0,.43-.49A1.81,1.81,0,0,0,81,333.3Z" transform="translate(0)" style="fill: #fff" />
      <path d="M86.58,336H85.34v-.57a2,2,0,0,1-.55.48,1.46,1.46,0,0,1-.69.16,1,1,0,0,1-1-.53,2.8,2.8,0,0,1-.24-1.18V332h1.24v2.15a1.7,1.7,0,0,0,.09.57.4.4,0,0,0,.42.24.58.58,0,0,0,.43-.17,3.8,3.8,0,0,0,.32-.45V332h1.24Z" transform="translate(0)" style="fill: #fff" />
      <path d="M89.85,335.78a3,3,0,0,1-.53.2,2.5,2.5,0,0,1-.65.1c-.89,0-1.33-.5-1.33-1.49V333h-.56v-.25l1.66-1.92h.14V332h1.18v1H88.58v1.27a1.84,1.84,0,0,0,0,.36.37.37,0,0,0,.14.23.51.51,0,0,0,.34.09,1.65,1.65,0,0,0,.77-.28Z" transform="translate(0)" style="fill: #fff" />
    </g>
    <g>
      <path d="M25.11,293.82H23.68v-5.41h1.43Z" transform="translate(0)" />
      <path d="M29.57,293.82H28.33v-2.15a1.7,1.7,0,0,0-.09-.57.41.41,0,0,0-.42-.24.6.6,0,0,0-.27.06,1.06,1.06,0,0,0-.2.17l-.15.19-.13.2v2.34H25.83v-4h1.24v.57a1.8,1.8,0,0,1,.58-.49,1.45,1.45,0,0,1,.66-.15q1.26,0,1.26,1.71Z" transform="translate(0)" />
      <path d="M33.87,291.8a2.76,2.76,0,0,1-.1.77,2.15,2.15,0,0,1-.3.67,1.53,1.53,0,0,1-.53.48,1.6,1.6,0,0,1-.75.17,1.54,1.54,0,0,1-.54-.08,2.56,2.56,0,0,1-.39-.22v2H30v-5.79h1.24v.36a1.73,1.73,0,0,1,.41-.3,1.18,1.18,0,0,1,.61-.13A1.44,1.44,0,0,1,33,290a1.52,1.52,0,0,1,.6.67A2.41,2.41,0,0,1,33.87,291.8Zm-1.3,0a1.42,1.42,0,0,0-.1-.59.66.66,0,0,0-.26-.32.56.56,0,0,0-.33-.1.68.68,0,0,0-.36.08,1.21,1.21,0,0,0-.26.2v1.52l.14.09.15.08.15.06.18,0a.57.57,0,0,0,.49-.28A1.32,1.32,0,0,0,32.57,291.84Z" transform="translate(0)" />
      <path d="M37.92,293.82H36.68v-.57a1.73,1.73,0,0,1-.55.48,1.35,1.35,0,0,1-.69.16,1,1,0,0,1-1-.53,3,3,0,0,1-.23-1.18v-2.34h1.24V292a1.62,1.62,0,0,0,.09.57.4.4,0,0,0,.42.24.54.54,0,0,0,.43-.17,3.8,3.8,0,0,0,.32-.45v-2.34h1.24Z" transform="translate(0)" />
      <path d="M41.19,293.59a2.58,2.58,0,0,1-.53.2,2.19,2.19,0,0,1-.65.1c-.89,0-1.34-.49-1.34-1.48v-1.59h-.56v-.25l1.66-1.92h.14v1.19H41.1v1H39.91v1.27a1.73,1.73,0,0,0,0,.36.41.41,0,0,0,.13.23.55.55,0,0,0,.34.09,1.64,1.64,0,0,0,.78-.28Z" transform="translate(0)" />
    </g>
    <g>
      <path d="M32,335.6a3,3,0,0,1-.6.28,3.6,3.6,0,0,1-.63.15,4.51,4.51,0,0,1-.65.05,3,3,0,0,1-1.11-.2,2.4,2.4,0,0,1-.86-.57,2.63,2.63,0,0,1-.54-.89,3.37,3.37,0,0,1-.18-1.12,3.3,3.3,0,0,1,.21-1.23,2.26,2.26,0,0,1,.6-.87,2.55,2.55,0,0,1,.87-.52,3.22,3.22,0,0,1,1-.16,5.1,5.1,0,0,1,1.84.41v1.44a4.32,4.32,0,0,0-.7-.42,1.86,1.86,0,0,0-.81-.17,1.73,1.73,0,0,0-.78.19,1.5,1.5,0,0,0-.58.54,1.45,1.45,0,0,0-.22.81,1.61,1.61,0,0,0,.19.75,1.4,1.4,0,0,0,.54.54,1.44,1.44,0,0,0,.77.21,2.39,2.39,0,0,0,.66-.1,2.55,2.55,0,0,0,.52-.21,4.46,4.46,0,0,0,.43-.28Z" transform="translate(0)" />
      <path d="M37.35,330.59l-2.15,5.49h-1l-2.11-5.49h1.5l1.09,3.13,1.12-3.13Z" transform="translate(0)" />
    </g>
    <g>
      <path d="M31.3,146.69a4,4,0,0,1-.76.35,4.43,4.43,0,0,1-.78.19,5.36,5.36,0,0,1-.82.06,3.82,3.82,0,0,1-1.39-.25,2.89,2.89,0,0,1-1.07-.72,3.17,3.17,0,0,1-.68-1.11,4.2,4.2,0,0,1-.22-1.4,4,4,0,0,1,.26-1.53,3,3,0,0,1,1.84-1.73,4,4,0,0,1,1.29-.21,6.33,6.33,0,0,1,2.3.51v1.8a6.32,6.32,0,0,0-.88-.52,2.25,2.25,0,0,0-1-.21,2.13,2.13,0,0,0-1,.23,2,2,0,0,0-.73.67,2,2,0,0,0,0,2,1.82,1.82,0,0,0,.67.68,1.91,1.91,0,0,0,1,.25,2.76,2.76,0,0,0,.82-.12,3.11,3.11,0,0,0,.65-.27,4.84,4.84,0,0,0,.55-.34Z" transform="translate(0)" />
      <path d="M38,140.43l-2.69,6.86H34.11l-2.64-6.86h1.87l1.36,3.91,1.4-3.91Z" transform="translate(0)" />
    </g>
    <path d="M40.74,101.93l1.12-2a21.73,21.73,0,0,0-9.12-2.44v2.25A19.77,19.77,0,0,1,40.74,101.93Z" transform="translate(0)" />
    <path d="M48.32,108.78l2-1.12A22.13,22.13,0,0,0,43.6,101l-1.13,2A19.89,19.89,0,0,1,48.32,108.78Z" transform="translate(0)" />
    <path d="M21,102.93l-1.13-2a22.17,22.17,0,0,0-6.68,6.68l1.95,1.12A19.93,19.93,0,0,1,21,102.93Z" transform="translate(0)" />
    <path d="M51.46,118.51h2.26a21.89,21.89,0,0,0-2.45-9.12l-2,1.12A19.49,19.49,0,0,1,51.46,118.51Z" transform="translate(0)" />
    <path d="M30.74,99.79V97.54A21.73,21.73,0,0,0,21.62,100l1.13,2A19.76,19.76,0,0,1,30.74,99.79Z" transform="translate(0)" />
    <path d="M15.16,130.24l-1.95,1.12A22.17,22.17,0,0,0,19.89,138L21,136.09A19.93,19.93,0,0,1,15.16,130.24Z" transform="translate(0)" />
    <path d="M42.47,136.09,43.6,138a22.13,22.13,0,0,0,6.67-6.68l-2-1.12A19.89,19.89,0,0,1,42.47,136.09Z" transform="translate(0)" />
    <path d="M51.46,120.51a19.49,19.49,0,0,1-2.14,8l2,1.12a21.89,21.89,0,0,0,2.45-9.12Z" transform="translate(0)" />
    <path d="M12,120.51H9.77a21.88,21.88,0,0,0,2.44,9.12l1.95-1.12A19.64,19.64,0,0,1,12,120.51Z" transform="translate(0)" />
    <path d="M14.16,110.51l-1.95-1.12a21.88,21.88,0,0,0-2.44,9.12H12A19.64,19.64,0,0,1,14.16,110.51Z" transform="translate(0)" />
    <g>
      <path d="M77.17,143.94a3.62,3.62,0,0,1-.33,1.67,3.44,3.44,0,0,1-.78,1,2.62,2.62,0,0,1-1.79.57H71.05v-6.77h2.48a5.19,5.19,0,0,1,1,.07,3.44,3.44,0,0,1,.72.18,2.72,2.72,0,0,1,.54.27,3.3,3.3,0,0,1,.4.32,3,3,0,0,1,.53.67,3.26,3.26,0,0,1,.37.89A4.33,4.33,0,0,1,77.17,143.94Zm-1.82-.09a2.47,2.47,0,0,0-.28-1.29,1.44,1.44,0,0,0-.66-.62,2.22,2.22,0,0,0-.8-.15h-.76v4h.76a2,2,0,0,0,1.22-.38A1.87,1.87,0,0,0,75.35,143.85Z" transform="translate(0)" />
      <path d="M82.16,145.14H79.08a1.27,1.27,0,0,0,1.24,1,3.8,3.8,0,0,0,1.73-.5v1.09a4.56,4.56,0,0,1-.82.36,3.83,3.83,0,0,1-1.23.17,2.62,2.62,0,0,1-1.38-.35,2.1,2.1,0,0,1-.85-.92,3.16,3.16,0,0,1-.28-1.33,3,3,0,0,1,.28-1.31,2.08,2.08,0,0,1,.85-.91,2.71,2.71,0,0,1,1.38-.33,2.25,2.25,0,0,1,1,.26,2,2,0,0,1,.81.85,3.17,3.17,0,0,1,.32,1.54Zm-1.45-.87a1.28,1.28,0,0,0-.21-.77.7.7,0,0,0-.6-.28.77.77,0,0,0-.62.29,1.15,1.15,0,0,0-.24.76Z" transform="translate(0)" />
      <path d="M86.32,147l-.41.15a2.8,2.8,0,0,1-.48.12,3.61,3.61,0,0,1-.59,0,2.49,2.49,0,0,1-1.21-.28,2.16,2.16,0,0,1-.77-.69,2.8,2.8,0,0,1-.37-.86,3.24,3.24,0,0,1-.1-.76,3.32,3.32,0,0,1,.1-.77,2.6,2.6,0,0,1,.37-.84,2,2,0,0,1,.76-.68,2.53,2.53,0,0,1,1.22-.27,3.37,3.37,0,0,1,.79.08,4.12,4.12,0,0,1,.62.21v1.38a3.79,3.79,0,0,0-1.18-.27,1.09,1.09,0,0,0-.74.28,1.12,1.12,0,0,0-.31.88,1.34,1.34,0,0,0,.15.66.93.93,0,0,0,.41.4,1,1,0,0,0,.49.13,2.27,2.27,0,0,0,.53-.08l.72-.22Z" transform="translate(0)" />
      <path d="M91.26,147a6.53,6.53,0,0,1-.63.24,2.29,2.29,0,0,1-.69.1.76.76,0,0,1-.54-.16.85.85,0,0,1-.21-.37,2.4,2.4,0,0,1-.56.38,1.79,1.79,0,0,1-.79.15,1.5,1.5,0,0,1-.78-.19,1.11,1.11,0,0,1-.41-.48,1.47,1.47,0,0,1-.12-.58,1.29,1.29,0,0,1,.21-.76,1.46,1.46,0,0,1,.55-.49,5.9,5.9,0,0,1,.91-.4l.48-.18.25-.09.17-.09a1,1,0,0,0-.13-.57c-.08-.13-.27-.2-.55-.2a1.85,1.85,0,0,0-1,.25,3.47,3.47,0,0,0-.79.66v-1.35a2.69,2.69,0,0,1,.62-.39,4.37,4.37,0,0,1,.7-.22,3.71,3.71,0,0,1,.74-.07,2.12,2.12,0,0,1,1.43.42,1.44,1.44,0,0,1,.48,1.15v1.92a1,1,0,0,0,0,.4c0,.09.08.14.16.14a1,1,0,0,0,.4-.14ZM89.1,146v-1.18a4.06,4.06,0,0,0-.8.46.64.64,0,0,0-.25.55.56.56,0,0,0,.12.38.45.45,0,0,0,.3.13.54.54,0,0,0,.31-.1A3.33,3.33,0,0,0,89.1,146Z" transform="translate(0)" />
      <path d="M96.08,142.23l-3,7.23H91.54l1.2-2.91L91,142.23h1.66l.89,2.47,1-2.47Z" transform="translate(0)" />
    </g>
    <path d="M92.27,101.93l1.13-2a21.73,21.73,0,0,0-9.12-2.44v2.25A19.72,19.72,0,0,1,92.27,101.93Z" transform="translate(0)" />
    <path d="M99.86,108.78l2-1.12A22.17,22.17,0,0,0,95.13,101l-1.13,2A19.93,19.93,0,0,1,99.86,108.78Z" transform="translate(0)" />
    <path d="M72.55,102.93l-1.13-2a22.13,22.13,0,0,0-6.67,6.68l2,1.12A19.89,19.89,0,0,1,72.55,102.93Z" transform="translate(0)" />
    <path d="M103,118.51h2.26a21.88,21.88,0,0,0-2.44-9.12l-2,1.12A19.64,19.64,0,0,1,103,118.51Z" transform="translate(0)" />
    <path d="M82.28,99.79V97.54A21.73,21.73,0,0,0,73.16,100l1.12,2A19.77,19.77,0,0,1,82.28,99.79Z" transform="translate(0)" />
    <path d="M66.7,130.24l-2,1.12A22.13,22.13,0,0,0,71.42,138l1.13-1.95A19.89,19.89,0,0,1,66.7,130.24Z" transform="translate(0)" />
    <path d="M94,136.09,95.13,138a22.17,22.17,0,0,0,6.68-6.68l-2-1.12A19.93,19.93,0,0,1,94,136.09Z" transform="translate(0)" />
    <path d="M103,120.51a19.64,19.64,0,0,1-2.13,8l2,1.12a21.88,21.88,0,0,0,2.44-9.12Z" transform="translate(0)" />
    <path d="M63.56,120.51H61.3a21.89,21.89,0,0,0,2.45,9.12l2-1.12A19.49,19.49,0,0,1,63.56,120.51Z" transform="translate(0)" />
    <path d="M65.7,110.51l-2-1.12a21.89,21.89,0,0,0-2.45,9.12h2.26A19.49,19.49,0,0,1,65.7,110.51Z" transform="translate(0)" />
    <g>
      <path d="M63.34,8.16l-5.53,7v-6A1.29,1.29,0,0,0,57.17,8,.89.89,0,0,0,56,8.28l-7.28,9.25a1.49,1.49,0,0,0,0,1.79.91.91,0,0,0,1.46,0l5.5-7v6a1.29,1.29,0,0,0,.64,1.17.91.91,0,0,0,1.14-.3l5.53-7v6.16a1.05,1.05,0,1,0,2.06,0V9a1.29,1.29,0,0,0-.65-1.18A.91.91,0,0,0,63.34,8.16Z" transform="translate(0)" style="stroke: #000;stroke-width: 0.6000000000000001px" />
      <path d="M48.76,8.09,44,14.21A1.47,1.47,0,0,0,44,16a.9.9,0,0,0,1.46,0l3-3.87v6.31a1.05,1.05,0,1,0,2.06,0V9a1.29,1.29,0,0,0-.65-1.17A.91.91,0,0,0,48.76,8.09Z" transform="translate(0)" style="stroke: #000;stroke-width: 0.6000000000000001px" />
      <path d="M71.71,12.61a1,1,0,0,0-.95-.78h-2.1l1.53-1.95s.8-1.17.1-1.82a1.27,1.27,0,0,0-1.58.06l-3.23,4.1a1.47,1.47,0,0,0-.2,1.38,1.05,1.05,0,0,0,1,.77h2.1l-2.49,3.17s-1,1.13-.27,1.89,1.75-.14,1.75-.14L71.5,14A1.48,1.48,0,0,0,71.71,12.61Z" transform="translate(0)" style="stroke: #000;stroke-width: 0.6000000000000001px" />
    </g>
    <g>
      <path d="M51.65,85.88H47.12V79.12h1.8v5.14h2.73Z" transform="translate(0)" />
      <path d="M56.57,83.82H53.49a1.28,1.28,0,0,0,.44.75,1.24,1.24,0,0,0,.8.28,3.78,3.78,0,0,0,1.73-.49v1.08a4.19,4.19,0,0,1-.82.37A4,4,0,0,1,54.4,86,2.6,2.6,0,0,1,53,85.63a2.18,2.18,0,0,1-.85-.93,3.25,3.25,0,0,1,0-2.64,2.11,2.11,0,0,1,.85-.9,2.7,2.7,0,0,1,1.37-.33,2.1,2.1,0,0,1,1,.26,2,2,0,0,1,.82.85,3.28,3.28,0,0,1,.32,1.53ZM55.12,83a1.27,1.27,0,0,0-.21-.76.7.7,0,0,0-.6-.29.74.74,0,0,0-.62.3,1.13,1.13,0,0,0-.24.75Z" transform="translate(0)" />
      <path d="M61.59,80.91l-2,5H58.46l-2-5h1.66l.91,2.61,1-2.61Z" transform="translate(0)" />
      <path d="M66.24,83.82H63.16a1.28,1.28,0,0,0,.44.75,1.26,1.26,0,0,0,.8.28,3.78,3.78,0,0,0,1.73-.49v1.08a3.94,3.94,0,0,1-.82.37,3.86,3.86,0,0,1-1.23.16,2.62,2.62,0,0,1-1.38-.34,2.18,2.18,0,0,1-.85-.93,3.25,3.25,0,0,1,0-2.64,2.11,2.11,0,0,1,.85-.9,2.71,2.71,0,0,1,1.38-.33,2.13,2.13,0,0,1,1,.26,2,2,0,0,1,.81.85,3.16,3.16,0,0,1,.32,1.53ZM64.79,83a1.27,1.27,0,0,0-.21-.76.7.7,0,0,0-.6-.29.75.75,0,0,0-.62.3,1.13,1.13,0,0,0-.24.75Z" transform="translate(0)" />
      <path d="M68.28,85.88H66.73V79.12h1.55Z" transform="translate(0)" />
    </g>
    <path d="M66.72,40.53l1.13-2a22,22,0,0,0-9.12-2.45v2.26A19.6,19.6,0,0,1,66.72,40.53Z" transform="translate(0)" />
    <path d="M74.3,47.38l2-1.12a22,22,0,0,0-6.67-6.68l-1.13,2A19.77,19.77,0,0,1,74.3,47.38Z" transform="translate(0)" />
    <path d="M47,41.53l-1.13-2a22,22,0,0,0-6.67,6.68l1.95,1.12A19.77,19.77,0,0,1,47,41.53Z" transform="translate(0)" />
    <path d="M77.44,57.11H79.7A21.88,21.88,0,0,0,77.26,48l-2,1.12A19.6,19.6,0,0,1,77.44,57.11Z" transform="translate(0)" />
    <path d="M56.73,38.39V36.13a22,22,0,0,0-9.13,2.45l1.13,2A19.61,19.61,0,0,1,56.73,38.39Z" transform="translate(0)" />
    <path d="M41.14,68.84,39.2,70a22,22,0,0,0,6.67,6.68l1.13-2A20,20,0,0,1,41.14,68.84Z" transform="translate(0)" />
    <path d="M68.45,74.69l1.13,2A22,22,0,0,0,76.25,70l-2-1.12A19.89,19.89,0,0,1,68.45,74.69Z" transform="translate(0)" />
    <path d="M77.44,59.11a19.55,19.55,0,0,1-2.13,8l2,1.13a21.88,21.88,0,0,0,2.44-9.12Z" transform="translate(0)" />
    <path d="M38,59.11H35.75a21.88,21.88,0,0,0,2.44,9.12l2-1.13A19.55,19.55,0,0,1,38,59.11Z" transform="translate(0)" />
    <path d="M40.14,49.11l-2-1.12a21.88,21.88,0,0,0-2.44,9.12H38A19.6,19.6,0,0,1,40.14,49.11Z" transform="translate(0)" />
  </g>
  <g /></svg>