<svg xmlns="http://www.w3.org/2000/svg" width="30.57mm" height="130.6mm" viewBox="0 0 86.65 370.19">
  <defs>
    <clipPath id="clip-path">
      <rect x="29.42" y="81.19" width="27.8" height="25.62" style="fill: none" />
    </clipPath>
    <clipPath id="clip-path-3">
      <rect x="29.42" y="125.94" width="27.8" height="25.62" style="fill: none" />
    </clipPath>
    <clipPath id="clip-path-4">
      <rect x="29.42" y="125.94" width="27.8" height="25.62" style="fill: none" />
    </clipPath>
    <clipPath id="clip-path-5">
      <rect x="29.42" y="170.69" width="27.8" height="25.62" style="fill: none" />
    </clipPath>
    <clipPath id="clip-path-6">
      <rect x="29.42" y="170.69" width="27.8" height="25.62" style="fill: none" />
    </clipPath>
  </defs>
  <g id="faceplate">
    <rect x="0.13" y="0.13" width="86.4" height="364.25" style="fill: #ededed;stroke: #9d9d9e;stroke-miterlimit: 10;stroke-width: 0.25px" />
    <path d="M9.26,294.09v42.58a5.68,5.68,0,0,0,5.67,5.67H72a5.68,5.68,0,0,0,5.67-5.67V316.83h0V294.09Z" />
    <g>
      <path d="M14.93,310.31a5.17,5.17,0,0,1-5.17-5.16V229.91a13.69,13.69,0,0,1,13.67-13.68H63.5a13.69,13.69,0,0,1,13.67,13.68v75.24A5.16,5.16,0,0,1,72,310.31Z" style="fill: #ededed" />
      <path d="M63.5,216.73a13.19,13.19,0,0,1,13.17,13.18v75.24A4.67,4.67,0,0,1,72,309.81H14.93a4.67,4.67,0,0,1-4.67-4.66V229.91a13.19,13.19,0,0,1,13.17-13.18H63.5m0-1H23.43A14.22,14.22,0,0,0,9.26,229.91v75.24a5.68,5.68,0,0,0,5.67,5.66H72a5.68,5.68,0,0,0,5.67-5.66V229.91A14.21,14.21,0,0,0,63.5,215.73Z" />
    </g>
    <g>
      <path d="M17.67,351.93a2.74,2.74,0,0,1-.12.81,2.17,2.17,0,0,1-.38.74,1.77,1.77,0,0,1-.7.55,2.38,2.38,0,0,1-1,.21H14.22V357H12.38v-7.45h3a2.38,2.38,0,0,1,1,.22,1.79,1.79,0,0,1,.7.56,2.17,2.17,0,0,1,.38.74A2.91,2.91,0,0,1,17.67,351.93Zm-1.88,0a.84.84,0,0,0-.26-.73,1.58,1.58,0,0,0-.92-.2h-.39v1.8h.4a3,3,0,0,0,.7-.07.59.59,0,0,0,.36-.26A1,1,0,0,0,15.79,352Z" />
      <path d="M20.54,357H18.7v-7.45h1.84Z" />
      <path d="M27.93,351.4H25.7V357H23.86V351.4H21.62v-1.81h6.31Z" />
      <path d="M34.47,356.48a4.29,4.29,0,0,1-.77.39,4.68,4.68,0,0,1-.8.2,5.69,5.69,0,0,1-.83.06,3.58,3.58,0,0,1-1.43-.26,3,3,0,0,1-1.1-.8,3.51,3.51,0,0,1-.7-1.22,5,5,0,0,1-.23-1.54,4.77,4.77,0,0,1,.27-1.68,3.19,3.19,0,0,1,.77-1.2,3.09,3.09,0,0,1,1.12-.71,3.9,3.9,0,0,1,1.32-.23,6.22,6.22,0,0,1,2.36.56v2a5.6,5.6,0,0,0-.9-.57,2.25,2.25,0,0,0-1-.23,2,2,0,0,0-1,.26,2.07,2.07,0,0,0-.74.73,2.34,2.34,0,0,0,0,2.16,1.87,1.87,0,0,0,.68.74,1.76,1.76,0,0,0,1,.28,2.55,2.55,0,0,0,.84-.13,3.52,3.52,0,0,0,.67-.3,4.2,4.2,0,0,0,.55-.38Z" />
      <path d="M42.16,357H40.32v-2.91H37.55V357H35.71v-7.45h1.84v2.74h2.77v-2.74h1.84Z" />
      <path d="M50.64,354.87a2.43,2.43,0,0,1-.29,1.21,2,2,0,0,1-.82.78,2.59,2.59,0,0,1-1.2.27l-.47,0a3.49,3.49,0,0,1-.73-.16,5,5,0,0,1-1-.4v-1.82a7.24,7.24,0,0,0,.91.58,2.12,2.12,0,0,0,1,.23.76.76,0,0,0,.61-.19.6.6,0,0,0-.1-.87,3.35,3.35,0,0,0-.69-.42,5,5,0,0,1-.88-.57,2.33,2.33,0,0,1-.62-.76,2.27,2.27,0,0,1-.24-1.08,2.38,2.38,0,0,1,.24-1.08,1.8,1.8,0,0,1,.74-.78,2.42,2.42,0,0,1,1.22-.29,3.51,3.51,0,0,1,.94.12,3.65,3.65,0,0,1,.72.27,2.61,2.61,0,0,1,.38.24v1.75a4.26,4.26,0,0,0-.83-.59,2,2,0,0,0-1-.26.7.7,0,0,0-.5.16.58.58,0,0,0-.16.4.55.55,0,0,0,.16.38,2.24,2.24,0,0,0,.55.39,10.74,10.74,0,0,1,1.13.73,2.43,2.43,0,0,1,.66.74A2.09,2.09,0,0,1,50.64,354.87Z" />
      <path d="M58.34,357H56.5v-2.91H53.73V357H51.89v-7.45h1.84v2.74H56.5v-2.74h1.84Z" />
      <path d="M61.72,357H59.88v-7.45h1.84Z" />
      <path d="M67.63,354H65.1v3H63.26v-7.45h4.37v1.5H65.1v1.44h2.53Z" />
      <path d="M74.73,351.4H72.49V357H70.65V351.4H68.41v-1.81h6.32Z" />
    </g>
    <path d="M63,46.26H65.3a21.88,21.88,0,0,0-2.44-9.12l-2,1.13A19.55,19.55,0,0,1,63,46.26Z" />
    <path d="M63,48.26a19.6,19.6,0,0,1-2.13,8l2,1.12a21.88,21.88,0,0,0,2.44-9.12Z" />
    <g>
      <path d="M34.9,73.86a4.71,4.71,0,0,1-.76.35,4.43,4.43,0,0,1-.78.19,5.34,5.34,0,0,1-.81,0,3.84,3.84,0,0,1-1.4-.24,2.89,2.89,0,0,1-1.07-.72,3.17,3.17,0,0,1-.68-1.11,4.6,4.6,0,0,1,0-2.93,3,3,0,0,1,.75-1.09,3.1,3.1,0,0,1,1.09-.65,4.25,4.25,0,0,1,1.29-.2,6.33,6.33,0,0,1,2.3.51v1.8A5.86,5.86,0,0,0,34,69.3a2.32,2.32,0,0,0-1-.21,2.13,2.13,0,0,0-1,.23,2,2,0,0,0-.73.67,2,2,0,0,0,0,2,1.82,1.82,0,0,0,.67.68,1.91,1.91,0,0,0,1,.25,2.76,2.76,0,0,0,.82-.12,3.11,3.11,0,0,0,.65-.27,5,5,0,0,0,.55-.35Z" />
      <path d="M40.33,71.88A3,3,0,0,1,40,73.2a2.15,2.15,0,0,1-.85.92,2.65,2.65,0,0,1-1.37.33,2.71,2.71,0,0,1-1.38-.33,2.15,2.15,0,0,1-.85-.92,3.12,3.12,0,0,1-.28-1.32,3.21,3.21,0,0,1,.16-1,2.2,2.2,0,0,1,1.26-1.36,3.22,3.22,0,0,1,2.18,0,2.14,2.14,0,0,1,.79.54,2.33,2.33,0,0,1,.47.81A3.32,3.32,0,0,1,40.33,71.88Zm-1.63,0a1.64,1.64,0,0,0-.23-.93.74.74,0,0,0-.65-.33.73.73,0,0,0-.65.33,2,2,0,0,0,0,1.85.74.74,0,0,0,.65.35.75.75,0,0,0,.65-.34A1.68,1.68,0,0,0,38.7,71.88Z" />
      <path d="M45.32,74.12a6.53,6.53,0,0,1-.63.24,2.31,2.31,0,0,1-.69.09.76.76,0,0,1-.54-.15.85.85,0,0,1-.21-.37,2.57,2.57,0,0,1-.55.38,2,2,0,0,1-.8.14,1.5,1.5,0,0,1-.78-.18,1.11,1.11,0,0,1-.41-.48,1.48,1.48,0,0,1-.12-.59,1.33,1.33,0,0,1,.21-.76,1.54,1.54,0,0,1,.55-.49,7.94,7.94,0,0,1,.91-.39l.48-.18.25-.09.17-.09a1,1,0,0,0-.13-.57c-.08-.14-.27-.2-.55-.2a1.79,1.79,0,0,0-.94.25,3.51,3.51,0,0,0-.8.65V70a2.69,2.69,0,0,1,.62-.39,3.55,3.55,0,0,1,.7-.22,3.71,3.71,0,0,1,.74-.07,2.11,2.11,0,0,1,1.43.42,1.43,1.43,0,0,1,.48,1.15v1.91a1.33,1.33,0,0,0,0,.41c0,.09.08.14.16.14a.87.87,0,0,0,.4-.15Zm-2.16-1V72a4.72,4.72,0,0,0-.8.45.67.67,0,0,0-.25.55.57.57,0,0,0,.12.39.45.45,0,0,0,.3.13.63.63,0,0,0,.31-.1A3.33,3.33,0,0,0,43.16,73.17Z" />
      <path d="M49.3,69.66l-.58,1.77a1,1,0,0,0-.71-.38.72.72,0,0,0-.56.25,2.4,2.4,0,0,0-.46.93v2.14H45.44v-5H47v1.2a2.61,2.61,0,0,1,.51-.87,1.14,1.14,0,0,1,.87-.42,1.08,1.08,0,0,1,.46.09A3,3,0,0,1,49.3,69.66Z" />
      <path d="M52.86,72.92A1.51,1.51,0,0,1,52.42,74a1.84,1.84,0,0,1-1.31.42,3.22,3.22,0,0,1-.86-.1,5.8,5.8,0,0,1-.83-.28V72.82a4.52,4.52,0,0,0,.68.38,1.46,1.46,0,0,0,.63.14c.39,0,.58-.12.58-.37a.32.32,0,0,0-.08-.21,1.16,1.16,0,0,0-.3-.22c-.13-.08-.32-.17-.55-.28a2.31,2.31,0,0,1-.73-.58,1.32,1.32,0,0,1-.3-.88,1.35,1.35,0,0,1,.2-.72,1.46,1.46,0,0,1,.6-.55,2,2,0,0,1,1-.22l.35,0a2.79,2.79,0,0,1,.53.11,2.84,2.84,0,0,1,.62.27v1.21l-.23-.15a1.72,1.72,0,0,0-.25-.14,1.5,1.5,0,0,0-.36-.14,1.54,1.54,0,0,0-.43-.06c-.18,0-.3,0-.36.11a.36.36,0,0,0-.1.24A.3.3,0,0,0,51,71a1.75,1.75,0,0,0,.46.27,4.17,4.17,0,0,1,.83.46,1.43,1.43,0,0,1,.44.52A1.7,1.7,0,0,1,52.86,72.92Z" />
      <path d="M57.83,72.31H54.75a1.27,1.27,0,0,0,1.24,1,3.8,3.8,0,0,0,1.73-.5v1.09a4.68,4.68,0,0,1-.83.36,3.86,3.86,0,0,1-1.23.16,2.6,2.6,0,0,1-1.37-.34,2.12,2.12,0,0,1-.85-.93,3,3,0,0,1-.28-1.32,2.9,2.9,0,0,1,.28-1.31,2.08,2.08,0,0,1,.85-.91,2.7,2.7,0,0,1,1.37-.33,2.1,2.1,0,0,1,1,.26,2,2,0,0,1,.82.85A3.28,3.28,0,0,1,57.83,72Zm-1.45-.87a1.28,1.28,0,0,0-.21-.77.7.7,0,0,0-.6-.28.76.76,0,0,0-.63.29,1.19,1.19,0,0,0-.23.76Z" />
    </g>
    <path d="M52.32,29.68l1.13-1.95a21.82,21.82,0,0,0-9.12-2.44v2.25A19.76,19.76,0,0,1,52.32,29.68Z" />
    <path d="M59.9,36.53l2-1.12a22,22,0,0,0-6.67-6.68l-1.13,1.95A19.77,19.77,0,0,1,59.9,36.53Z" />
    <path d="M32.6,30.68l-1.13-1.95a22,22,0,0,0-6.67,6.68l1.95,1.12A19.77,19.77,0,0,1,32.6,30.68Z" />
    <path d="M42.33,27.54V25.29a21.82,21.82,0,0,0-9.13,2.44l1.13,1.95A19.77,19.77,0,0,1,42.33,27.54Z" />
    <path d="M26.74,58,24.8,59.11a22,22,0,0,0,6.67,6.68l1.13-2A19.93,19.93,0,0,1,26.74,58Z" />
    <path d="M54.05,63.84l1.13,2a22,22,0,0,0,6.67-6.68L59.9,58A19.77,19.77,0,0,1,54.05,63.84Z" />
    <path d="M23.61,48.26H21.35a21.88,21.88,0,0,0,2.44,9.12l1.95-1.12A19.6,19.6,0,0,1,23.61,48.26Z" />
    <path d="M25.74,38.27l-1.95-1.13a21.88,21.88,0,0,0-2.44,9.12h2.26A19.55,19.55,0,0,1,25.74,38.27Z" />
    <g id="pips_-_fewest" data-name="pips - fewest">
      <g style="clip-path: url(#clip-path)">
        <g style="clip-path: url(#clip-path)">
          <path d="M49,84l.71-1.23A13.86,13.86,0,0,0,44,81.19v1.42A12.55,12.55,0,0,1,49,84" />
          <path d="M53.81,88.3l1.24-.71a14,14,0,0,0-4.23-4.23l-.71,1.24a12.55,12.55,0,0,1,3.7,3.7" />
          <path d="M36.54,84.6l-.71-1.24a14,14,0,0,0-4.23,4.23l1.24.71a12.55,12.55,0,0,1,3.7-3.7" />
          <path d="M55.8,94.45h1.43a13.91,13.91,0,0,0-1.55-5.77l-1.23.72a12.46,12.46,0,0,1,1.35,5" />
          <path d="M42.69,82.61V81.19a13.86,13.86,0,0,0-5.77,1.54L37.63,84a12.72,12.72,0,0,1,5.06-1.35" />
          <path d="M32.84,101.87l-1.24.72a14.07,14.07,0,0,0,4.23,4.22l.71-1.23a12.58,12.58,0,0,1-3.7-3.71" />
          <path d="M50.11,105.58l.71,1.23a14.07,14.07,0,0,0,4.23-4.22l-1.24-.72a12.58,12.58,0,0,1-3.7,3.71" />
          <path d="M55.8,95.72a12.51,12.51,0,0,1-1.35,5.06l1.23.71a13.87,13.87,0,0,0,1.55-5.77Z" />
          <path d="M30.85,95.72H29.42A13.87,13.87,0,0,0,31,101.49l1.23-.71a12.51,12.51,0,0,1-1.35-5.06" />
          <path d="M32.2,89.4,31,88.68a13.91,13.91,0,0,0-1.55,5.77h1.43a12.46,12.46,0,0,1,1.35-5" />
        </g>
      </g>
    </g>
    <g>
      <path d="M39.49,115.05H37v2.74h-1.8V111h4.27v1.36H37v1.31h2.47Z" />
      <path d="M41.72,117.79H40.17v-5h1.55Zm-.12-6.12a.75.75,0,0,1-.2.52.58.58,0,0,1-.78.12.7.7,0,0,1-.24-.27.75.75,0,0,1-.08-.37.78.78,0,0,1,.18-.52.59.59,0,0,1,.92,0A.75.75,0,0,1,41.6,111.67Z" />
      <path d="M47.11,117.79H45.56v-2.68a2,2,0,0,0-.12-.72.5.5,0,0,0-.52-.3.62.62,0,0,0-.33.08,1,1,0,0,0-.26.2c-.07.09-.14.17-.19.25l-.16.25v2.92H42.44v-5H44v.71a2.34,2.34,0,0,1,.73-.62,1.86,1.86,0,0,1,.82-.18c1,0,1.58.71,1.58,2.14Z" />
      <path d="M52.17,115.73H49.09a1.26,1.26,0,0,0,.44.74,1.23,1.23,0,0,0,.8.29,3.8,3.8,0,0,0,1.73-.5v1.09a4.68,4.68,0,0,1-.83.36,3.83,3.83,0,0,1-1.23.17,2.58,2.58,0,0,1-1.37-.35,2.1,2.1,0,0,1-.85-.92,3,3,0,0,1-.28-1.33,2.9,2.9,0,0,1,.28-1.31,2.08,2.08,0,0,1,.85-.91,2.67,2.67,0,0,1,1.37-.33,2.22,2.22,0,0,1,1,.26,2,2,0,0,1,.82.85,3.29,3.29,0,0,1,.32,1.54Zm-1.45-.87a1.28,1.28,0,0,0-.21-.77.7.7,0,0,0-.6-.28.76.76,0,0,0-.63.29,1.15,1.15,0,0,0-.24.76Z" />
    </g>
    <g id="pips_-_fewest-2" data-name="pips - fewest">
      <g style="clip-path: url(#clip-path-3)">
        <g style="clip-path: url(#clip-path-4)">
          <path d="M49,128.72l.71-1.24A13.86,13.86,0,0,0,44,125.94v1.42A12.56,12.56,0,0,1,49,128.72" />
          <path d="M53.81,133.05l1.24-.71a14,14,0,0,0-4.23-4.22l-.71,1.23a12.55,12.55,0,0,1,3.7,3.7" />
          <path d="M36.54,129.35l-.71-1.23a13.85,13.85,0,0,0-4.23,4.22l1.24.71a12.55,12.55,0,0,1,3.7-3.7" />
          <path d="M55.8,139.21h1.43a13.83,13.83,0,0,0-1.55-5.77l-1.23.71a12.47,12.47,0,0,1,1.35,5.06" />
          <path d="M42.69,127.36v-1.42a13.86,13.86,0,0,0-5.77,1.54l.71,1.24a12.56,12.56,0,0,1,5.06-1.36" />
          <path d="M32.84,146.63l-1.24.71a14.07,14.07,0,0,0,4.23,4.22l.71-1.23a12.67,12.67,0,0,1-3.7-3.7" />
          <path d="M50.11,150.33l.71,1.23a14.07,14.07,0,0,0,4.23-4.22l-1.24-.71a12.67,12.67,0,0,1-3.7,3.7" />
          <path d="M55.8,140.47a12.47,12.47,0,0,1-1.35,5.06l1.23.71a13.83,13.83,0,0,0,1.55-5.77Z" />
          <path d="M30.85,140.47H29.42A13.83,13.83,0,0,0,31,146.24l1.23-.71a12.47,12.47,0,0,1-1.35-5.06" />
          <path d="M32.2,134.15,31,133.44a13.83,13.83,0,0,0-1.55,5.77h1.43a12.47,12.47,0,0,1,1.35-5.06" />
        </g>
      </g>
    </g>
    <g>
      <path d="M35.87,155.77l-2.58,6.86h-1l-1.55-4-1.58,4H28.07l-2.53-6.86H27.4l1.24,3.75,1.42-3.75h1.28l1.39,3.75,1.3-3.75Z" />
      <path d="M37.72,162.54H36.16v-5h1.56Zm-.13-6.12a.73.73,0,0,1-.19.52.58.58,0,0,1-.46.22.62.62,0,0,1-.56-.37.75.75,0,0,1-.09-.37.76.76,0,0,1,.19-.52.57.57,0,0,1,.46-.22.58.58,0,0,1,.46.22A.76.76,0,0,1,37.59,156.42Z" />
      <path d="M43.1,162.54H41.55v-2.68a2,2,0,0,0-.12-.72.48.48,0,0,0-.51-.3.63.63,0,0,0-.34.08.82.82,0,0,0-.25.21,2.12,2.12,0,0,0-.2.24l-.15.25v2.92H38.43v-5H40v.71a2.14,2.14,0,0,1,.73-.62,1.83,1.83,0,0,1,.82-.18c1,0,1.57.71,1.57,2.14Z" />
      <path d="M48.3,162.54H46.75v-.45a2.44,2.44,0,0,1-.52.39,1.56,1.56,0,0,1-.75.15,1.85,1.85,0,0,1-.94-.27,2.07,2.07,0,0,1-.75-.84,3.06,3.06,0,0,1-.3-1.43,3.76,3.76,0,0,1,.22-1.27,2.18,2.18,0,0,1,.71-1,1.79,1.79,0,0,1,1.16-.37,1.94,1.94,0,0,1,.7.11,1.8,1.8,0,0,1,.47.27v-2.09H48.3ZM46.75,161v-1.9a4,4,0,0,0-.42-.25.8.8,0,0,0-.36-.07.73.73,0,0,0-.61.35,1.71,1.71,0,0,0-.24,1,1.41,1.41,0,0,0,.26,1,.75.75,0,0,0,.59.3.83.83,0,0,0,.45-.1A1.59,1.59,0,0,0,46.75,161Z" />
      <path d="M53.76,160.05a3,3,0,0,1-.28,1.32,2.1,2.1,0,0,1-.85.92,3,3,0,0,1-2.76,0,2.08,2.08,0,0,1-.84-.92,3,3,0,0,1-.28-1.32,3.22,3.22,0,0,1,.15-1,2.35,2.35,0,0,1,.48-.81,2.12,2.12,0,0,1,.79-.55,2.78,2.78,0,0,1,1.08-.19,3,3,0,0,1,1.09.19,2.14,2.14,0,0,1,.79.54,2.19,2.19,0,0,1,.47.81A3.05,3.05,0,0,1,53.76,160.05Zm-1.63,0a1.66,1.66,0,0,0-.22-.93.82.82,0,0,0-1.31,0,1.66,1.66,0,0,0-.22.93,1.69,1.69,0,0,0,.22.93.75.75,0,0,0,.65.34.73.73,0,0,0,.66-.34A1.69,1.69,0,0,0,52.13,160.05Z" />
      <path d="M61.17,157.57l-1.72,5h-1l-1-2.71-1,2.71h-1l-1.77-5h1.57l.8,2.51.85-2.51h1l.87,2.51.77-2.51Z" />
    </g>
    <g id="pips_-_fewest-3" data-name="pips - fewest">
      <g style="clip-path: url(#clip-path-5)">
        <g style="clip-path: url(#clip-path-6)">
          <path d="M49,173.47l.71-1.24A13.86,13.86,0,0,0,44,170.69v1.43A12.39,12.39,0,0,1,49,173.47" />
          <path d="M53.81,177.8l1.24-.71a14,14,0,0,0-4.23-4.22l-.71,1.23a12.55,12.55,0,0,1,3.7,3.7" />
          <path d="M36.54,174.1l-.71-1.23a14,14,0,0,0-4.23,4.22l1.24.71a12.55,12.55,0,0,1,3.7-3.7" />
          <path d="M55.8,184h1.43a13.83,13.83,0,0,0-1.55-5.77l-1.23.71A12.47,12.47,0,0,1,55.8,184" />
          <path d="M42.69,172.12v-1.43a13.86,13.86,0,0,0-5.77,1.54l.71,1.24a12.39,12.39,0,0,1,5.06-1.35" />
          <path d="M32.84,191.38l-1.24.71a14,14,0,0,0,4.23,4.22l.71-1.23a12.55,12.55,0,0,1-3.7-3.7" />
          <path d="M50.11,195.08l.71,1.23a14,14,0,0,0,4.23-4.22l-1.24-.71a12.55,12.55,0,0,1-3.7,3.7" />
          <path d="M55.8,185.22a12.47,12.47,0,0,1-1.35,5.06l1.23.71a13.83,13.83,0,0,0,1.55-5.77Z" />
          <path d="M30.85,185.22H29.42A13.83,13.83,0,0,0,31,191l1.23-.71a12.47,12.47,0,0,1-1.35-5.06" />
          <path d="M32.2,178.9,31,178.19A13.83,13.83,0,0,0,29.42,184h1.43a12.47,12.47,0,0,1,1.35-5.06" />
        </g>
      </g>
    </g>
    <g>
      <path d="M43.1,207.29H41.31v-3.92l-1.62,2.27h-.14l-1.63-2.27v3.92H36.18v-6.77h1.63l1.83,2.54,1.84-2.54H43.1Z" />
      <path d="M45.63,207.29H44.08v-5h1.55Zm-.12-6.12a.73.73,0,0,1-.2.52.58.58,0,0,1-.46.22.56.56,0,0,1-.33-.1.73.73,0,0,1-.23-.26.82.82,0,0,1,.1-.9.59.59,0,0,1,.92,0A.77.77,0,0,1,45.51,201.17Z" />
      <path d="M51.22,207.29H49.31l-.85-1.41-.84,1.41H45.93l1.69-2.44-1.73-2.53H47.8l.8,1.35.82-1.35h1.69l-1.65,2.36Z" />
    </g>
    <g>
      <path d="M26.56,326.2a3.22,3.22,0,0,1-.31,1.39,2.36,2.36,0,0,1-.92,1,3.08,3.08,0,0,1-3,0,2.42,2.42,0,0,1-.9-1,3.14,3.14,0,0,1-.3-1.36,3.3,3.3,0,0,1,.29-1.37,2.42,2.42,0,0,1,.91-1,2.75,2.75,0,0,1,1.5-.39,3,3,0,0,1,1.18.22,2.32,2.32,0,0,1,.85.61,2.55,2.55,0,0,1,.5.88A3.16,3.16,0,0,1,26.56,326.2Zm-1.47,0a1.94,1.94,0,0,0-.08-.56,1.18,1.18,0,0,0-.24-.44,1.05,1.05,0,0,0-.39-.29,1.25,1.25,0,0,0-.53-.1,1.15,1.15,0,0,0-.91.38,1.5,1.5,0,0,0-.33,1,1.47,1.47,0,0,0,.33,1,1.15,1.15,0,0,0,.91.39,1.2,1.2,0,0,0,.67-.18,1.14,1.14,0,0,0,.43-.49A1.81,1.81,0,0,0,25.09,326.2Z" style="fill: #fff" />
      <path d="M30.65,328.91H29.41v-.57a2,2,0,0,1-.55.48,1.46,1.46,0,0,1-.69.16,1,1,0,0,1-1-.53,2.8,2.8,0,0,1-.24-1.18v-2.34h1.24v2.15a1.42,1.42,0,0,0,.1.57.39.39,0,0,0,.41.24.58.58,0,0,0,.43-.17,3.8,3.8,0,0,0,.32-.45v-2.34h1.24Z" style="fill: #fff" />
      <path d="M33.92,328.68a2.37,2.37,0,0,1-.53.2,2.14,2.14,0,0,1-.65.1c-.89,0-1.33-.5-1.33-1.49v-1.58h-.56v-.25l1.66-1.92h.14v1.19h1.18v1H32.65v1.27a1.84,1.84,0,0,0,0,.36.37.37,0,0,0,.14.23.51.51,0,0,0,.34.09,1.65,1.65,0,0,0,.77-.28Z" style="fill: #fff" />
    </g>
    <g>
      <path d="M57.51,256.17h-2v2.19H54.09v-5.42h3.42V254h-2v1.05h2Z" />
      <path d="M59.29,258.36H58.05v-4h1.24Zm-.1-4.9a.6.6,0,0,1-.15.42.46.46,0,0,1-.37.17.4.4,0,0,1-.26-.08.55.55,0,0,1-.19-.21.6.6,0,0,1-.07-.3.59.59,0,0,1,.15-.41.47.47,0,0,1,.74,0A.59.59,0,0,1,59.19,253.46Z" />
      <path d="M63.6,258.36H62.36v-2.15a1.62,1.62,0,0,0-.09-.57.4.4,0,0,0-.42-.24.53.53,0,0,0-.26.06.68.68,0,0,0-.21.17l-.15.19-.13.2v2.34H59.86v-4H61.1V255a1.87,1.87,0,0,1,.59-.5,1.51,1.51,0,0,1,.65-.14q1.26,0,1.26,1.71Z" />
      <path d="M67.65,256.71H65.19a.93.93,0,0,0,.35.59,1,1,0,0,0,.64.23,2.93,2.93,0,0,0,1.38-.4V258a4.18,4.18,0,0,1-.66.29,3.32,3.32,0,0,1-1,.13,2,2,0,0,1-1.1-.28,1.67,1.67,0,0,1-.68-.74,2.53,2.53,0,0,1,0-2.11,1.65,1.65,0,0,1,.68-.73,2.21,2.21,0,0,1,1.1-.26,1.72,1.72,0,0,1,.82.21,1.59,1.59,0,0,1,.65.68,2.61,2.61,0,0,1,.26,1.23Zm-1.16-.7a1,1,0,0,0-.17-.61.56.56,0,0,0-.48-.23.62.62,0,0,0-.5.24.88.88,0,0,0-.19.6Z" />
    </g>
    <g>
      <path d="M19.39,258a3,3,0,0,1-.61.28,3.3,3.3,0,0,1-.62.15,4.62,4.62,0,0,1-.65.05,3,3,0,0,1-1.12-.2,2.49,2.49,0,0,1-.86-.57,2.53,2.53,0,0,1-.54-.89,3.37,3.37,0,0,1-.18-1.12,3.3,3.3,0,0,1,.21-1.23,2.5,2.5,0,0,1,.6-.87,2.56,2.56,0,0,1,.87-.51,3,3,0,0,1,1-.17,5.14,5.14,0,0,1,1.84.41v1.44a4.8,4.8,0,0,0-.7-.42,1.87,1.87,0,0,0-.82-.17,1.72,1.72,0,0,0-.77.19,1.51,1.51,0,0,0-.58.54,1.45,1.45,0,0,0-.22.81,1.49,1.49,0,0,0,.19.75A1.38,1.38,0,0,0,17,257a1.46,1.46,0,0,0,.77.21,2.64,2.64,0,0,0,1.18-.31,4.54,4.54,0,0,0,.44-.28Z" />
      <path d="M23.73,256.37a2.38,2.38,0,0,1-.22,1.05,1.8,1.8,0,0,1-.68.74,2.15,2.15,0,0,1-1.11.27,2.11,2.11,0,0,1-1.1-.27,1.71,1.71,0,0,1-.67-.74,2.38,2.38,0,0,1-.23-1.05,2.35,2.35,0,0,1,.13-.82,1.77,1.77,0,0,1,.38-.65,1.67,1.67,0,0,1,.63-.44,2.31,2.31,0,0,1,.86-.15,2.39,2.39,0,0,1,.88.15,1.79,1.79,0,0,1,.63.44,1.81,1.81,0,0,1,.37.65A2.35,2.35,0,0,1,23.73,256.37Zm-1.3,0a1.28,1.28,0,0,0-.18-.74.65.65,0,0,0-1.05,0,1.28,1.28,0,0,0-.18.74,1.25,1.25,0,0,0,.19.74.58.58,0,0,0,.51.27.6.6,0,0,0,.53-.27A1.33,1.33,0,0,0,22.43,256.37Z" />
      <path d="M27.72,258.16c-.18.08-.35.14-.5.19a1.77,1.77,0,0,1-.55.08.55.55,0,0,1-.43-.13.66.66,0,0,1-.17-.29,1.9,1.9,0,0,1-.44.3,1.49,1.49,0,0,1-.64.12,1.14,1.14,0,0,1-.62-.15.8.8,0,0,1-.33-.38,1.27,1.27,0,0,1-.09-.47,1,1,0,0,1,.16-.61,1.19,1.19,0,0,1,.44-.39,4.86,4.86,0,0,1,.73-.32l.39-.14.19-.08a.46.46,0,0,0,.14-.07.83.83,0,0,0-.1-.45c-.07-.11-.22-.16-.45-.16a1.41,1.41,0,0,0-.75.2,2.61,2.61,0,0,0-.64.52v-1.08a2.55,2.55,0,0,1,.5-.3,2.81,2.81,0,0,1,.56-.18,3,3,0,0,1,.59-.06,1.73,1.73,0,0,1,1.15.33,1.18,1.18,0,0,1,.38.92v1.54a1.37,1.37,0,0,0,0,.33.14.14,0,0,0,.14.1.64.64,0,0,0,.31-.11ZM26,257.4v-.94a2.89,2.89,0,0,0-.64.36.53.53,0,0,0-.2.44.4.4,0,0,0,.1.3.3.3,0,0,0,.23.11.46.46,0,0,0,.25-.08A2.14,2.14,0,0,0,26,257.4Z" />
      <path d="M30.91,254.6,30.45,256a.79.79,0,0,0-.57-.31.59.59,0,0,0-.45.2,2.15,2.15,0,0,0-.37.75v1.71H27.82v-4h1.24v1a2.17,2.17,0,0,1,.41-.69.89.89,0,0,1,.7-.34.8.8,0,0,1,.36.07A2.74,2.74,0,0,1,30.91,254.6Z" />
      <path d="M33.76,257.2a1.18,1.18,0,0,1-.36.89,1.46,1.46,0,0,1-1,.34,2.84,2.84,0,0,1-.69-.08,4.36,4.36,0,0,1-.66-.23v-1a4.73,4.73,0,0,0,.54.31,1.19,1.19,0,0,0,.51.1c.3,0,.46-.09.46-.29a.23.23,0,0,0-.07-.17.8.8,0,0,0-.23-.17l-.45-.23a1.74,1.74,0,0,1-.58-.46,1.14,1.14,0,0,1-.08-1.28,1.23,1.23,0,0,1,.48-.45,1.73,1.73,0,0,1,.78-.17l.28,0a2.37,2.37,0,0,1,.43.09,2.13,2.13,0,0,1,.49.21v1l-.18-.12-.2-.11a1.58,1.58,0,0,0-.29-.12,1.27,1.27,0,0,0-.34,0,.37.37,0,0,0-.29.09.25.25,0,0,0,0,.37,2,2,0,0,0,.37.21,3.3,3.3,0,0,1,.66.37,1.12,1.12,0,0,1,.35.41A1.27,1.27,0,0,1,33.76,257.2Z" />
      <path d="M37.73,256.71H35.27a1,1,0,0,0,.35.59,1,1,0,0,0,.64.23,2.93,2.93,0,0,0,1.38-.4V258a4.47,4.47,0,0,1-.65.29,3.39,3.39,0,0,1-1,.13,2,2,0,0,1-1.1-.28,1.73,1.73,0,0,1-.68-.74,2.64,2.64,0,0,1,0-2.11,1.71,1.71,0,0,1,.68-.73,2.21,2.21,0,0,1,1.1-.26,1.7,1.7,0,0,1,.82.21,1.61,1.61,0,0,1,.66.68,2.61,2.61,0,0,1,.25,1.23Zm-1.16-.7a1,1,0,0,0-.17-.61.56.56,0,0,0-.47-.23.59.59,0,0,0-.5.24.89.89,0,0,0-.2.6Z" />
    </g>
    <g>
      <path d="M60.47,307.18H59V304l-1.3,1.82h-.11L56.32,304v3.14H54.93v-5.42h1.3l1.46,2,1.47-2h1.31Z" />
      <path d="M62.49,307.18H61.25v-4h1.24Zm-.1-4.9a.57.57,0,0,1-.16.42.44.44,0,0,1-.36.17.43.43,0,0,1-.27-.08.46.46,0,0,1-.18-.21.6.6,0,0,1-.07-.3.64.64,0,0,1,.15-.42.48.48,0,0,1,.37-.17.48.48,0,0,1,.36.17A.6.6,0,0,1,62.39,302.28Z" />
      <path d="M67,307.18H65.43l-.68-1.13-.67,1.13H62.73l1.35-2-1.38-2h1.52l.65,1.08.65-1.08h1.36l-1.33,1.89Z" />
    </g>
    <g>
      <path d="M20.18,301.76l-2.06,5.49h-.83l-1.24-3.19-1.27,3.19h-.84l-2-5.49h1.49l1,3,1.13-3h1l1.11,3,1-3Z" />
      <path d="M21.66,307.18H20.42v-4h1.24Zm-.1-4.9a.57.57,0,0,1-.16.42.44.44,0,0,1-.36.17.43.43,0,0,1-.27-.08.46.46,0,0,1-.18-.21.6.6,0,0,1-.07-.3.64.64,0,0,1,.15-.42.48.48,0,0,1,.37-.17.48.48,0,0,1,.36.17A.6.6,0,0,1,21.56,302.28Z" />
      <path d="M26,307.18H24.73V305a1.42,1.42,0,0,0-.1-.57.39.39,0,0,0-.41-.24.6.6,0,0,0-.27.06.79.79,0,0,0-.2.17,1.35,1.35,0,0,0-.16.19l-.12.2v2.34H22.23v-4h1.24v.57a1.85,1.85,0,0,1,.58-.5,1.59,1.59,0,0,1,.66-.14q1.26,0,1.26,1.71Z" />
      <path d="M30.13,307.18H28.89v-.36a2.07,2.07,0,0,1-.42.31,1.22,1.22,0,0,1-.6.12,1.44,1.44,0,0,1-.75-.22,1.52,1.52,0,0,1-.6-.67,2.41,2.41,0,0,1-.24-1.14,2.8,2.8,0,0,1,.18-1,1.68,1.68,0,0,1,.56-.77,1.44,1.44,0,0,1,.93-.3,1.46,1.46,0,0,1,.56.09,1.55,1.55,0,0,1,.38.21v-1.67h1.24Zm-1.24-1.27v-1.52l-.34-.19a.65.65,0,0,0-.29-.06.55.55,0,0,0-.48.28,1.32,1.32,0,0,0-.2.76,1.14,1.14,0,0,0,.21.77.59.59,0,0,0,.47.24.64.64,0,0,0,.36-.08A1.56,1.56,0,0,0,28.89,305.91Z" />
      <path d="M34.49,305.18a2.39,2.39,0,0,1-.22,1.06,1.73,1.73,0,0,1-.68.74,2.11,2.11,0,0,1-1.1.27,2.09,2.09,0,0,1-1.1-.27,1.67,1.67,0,0,1-.68-.74,2.39,2.39,0,0,1-.23-1.06,2.33,2.33,0,0,1,.13-.81,1.77,1.77,0,0,1,.38-.65,1.67,1.67,0,0,1,.63-.44,2.6,2.6,0,0,1,1.74,0,1.79,1.79,0,0,1,.63.44,1.88,1.88,0,0,1,.38.64A2.71,2.71,0,0,1,34.49,305.18Zm-1.3,0a1.33,1.33,0,0,0-.18-.74.65.65,0,0,0-1,0,1.33,1.33,0,0,0-.18.74,1.34,1.34,0,0,0,.18.75.64.64,0,0,0,1,0A1.34,1.34,0,0,0,33.19,305.18Z" />
      <path d="M40.42,303.2l-1.38,4h-.78L37.48,305l-.77,2.17h-.79l-1.41-4h1.25l.64,2,.69-2h.78l.7,2,.61-2Z" />
    </g>
    <g>
      <path d="M48.94,6.76l-5.53,7v-6a1.27,1.27,0,0,0-.64-1.17.89.89,0,0,0-1.13.29l-7.28,9.25a1.49,1.49,0,0,0,0,1.79.9.9,0,0,0,1.46,0l5.5-7v6A1.29,1.29,0,0,0,42,18.1a.92.92,0,0,0,1.14-.3l5.53-7v6.15a1.05,1.05,0,1,0,2.06,0V7.64a1.28,1.28,0,0,0-.65-1.18A.91.91,0,0,0,48.94,6.76Z" style="stroke: #000;stroke-width: 0.6000000000000001px" />
      <path d="M34.36,6.68l-4.81,6.13a1.47,1.47,0,0,0,0,1.79.9.9,0,0,0,1.46,0l3-3.87V17a1.05,1.05,0,1,0,2.06,0V7.56a1.29,1.29,0,0,0-.65-1.17A.91.91,0,0,0,34.36,6.68Z" style="stroke: #000;stroke-width: 0.6000000000000001px" />
      <path d="M57.31,11.2a1.05,1.05,0,0,0-1-.77h-2.1l1.53-1.95s.8-1.17.1-1.82a1.27,1.27,0,0,0-1.58.06l-3.23,4.1a1.45,1.45,0,0,0-.2,1.37,1,1,0,0,0,.95.78h2.1l-2.49,3.17s-1,1.13-.27,1.89,1.75-.14,1.75-.14l4.18-5.31A1.5,1.5,0,0,0,57.31,11.2Z" style="stroke: #000;stroke-width: 0.6000000000000001px" />
    </g>
  </g>
  <g /></svg>