<svg xmlns="http://www.w3.org/2000/svg" width="86.45mm" height="130.6mm" viewBox="0 0 245.05 370.19">
  <defs>
    <clipPath id="clip-path">
      <rect x="50.44" y="32.9" width="27.8" height="25.62" style="fill: none" />
    </clipPath>
    <clipPath id="clip-path-2">
      <rect x="50.44" y="32.9" width="27.8" height="25.62" style="fill: none" />
    </clipPath>
    <clipPath id="clip-path-3">
      <rect x="18.09" y="156.58" width="27.8" height="25.62" style="fill: none" />
    </clipPath>
    <clipPath id="clip-path-5">
      <rect x="88.65" y="32.9" width="27.8" height="25.62" style="fill: none" />
    </clipPath>
    <clipPath id="clip-path-6">
      <rect x="88.65" y="32.9" width="27.8" height="25.62" style="fill: none" />
    </clipPath>
    <clipPath id="clip-path-7">
      <rect x="126.85" y="32.9" width="27.8" height="25.62" style="fill: none" />
    </clipPath>
    <clipPath id="clip-path-8">
      <rect x="126.85" y="32.9" width="27.8" height="25.62" style="fill: none" />
    </clipPath>
    <clipPath id="clip-path-9">
      <rect x="165.06" y="32.9" width="27.8" height="25.62" style="fill: none" />
    </clipPath>
    <clipPath id="clip-path-10">
      <rect x="165.06" y="32.9" width="27.8" height="25.62" style="fill: none" />
    </clipPath>
    <clipPath id="clip-path-11">
      <rect x="198.87" y="156.58" width="27.8" height="25.62" style="fill: none" />
    </clipPath>
    <clipPath id="clip-path-13">
      <rect x="18.09" y="197.78" width="27.8" height="25.62" style="fill: none" />
    </clipPath>
    <clipPath id="clip-path-15">
      <rect x="198.87" y="197.78" width="27.8" height="25.62" style="fill: none" />
    </clipPath>
    <clipPath id="clip-path-16">
      <rect x="198.87" y="197.78" width="27.8" height="25.62" style="fill: none" />
    </clipPath>
  </defs>
  <g id="faceplate">
    <rect x="0.13" y="0.13" width="244.8" height="364.25" style="fill: #ededed;stroke: #9d9d9e;stroke-miterlimit: 10;stroke-width: 0.25px" />
    <g>
      <path d="M128.14,6.74l-5.53,7v-6A1.3,1.3,0,0,0,122,6.56a.91.91,0,0,0-1.13.3l-7.28,9.25a1.49,1.49,0,0,0,0,1.79.9.9,0,0,0,1.46,0l5.5-7v6a1.29,1.29,0,0,0,.64,1.18.92.92,0,0,0,1.14-.3l5.53-7V16.9a1.05,1.05,0,1,0,2.06,0V7.61a1.27,1.27,0,0,0-.65-1.17A.9.9,0,0,0,128.14,6.74Z" style="stroke: #000;stroke-width: 0.6000000000000001px" />
      <path d="M113.56,6.66l-4.81,6.13a1.47,1.47,0,0,0,0,1.79.9.9,0,0,0,1.46,0l3-3.87V17a1.05,1.05,0,1,0,2.06,0V7.54a1.29,1.29,0,0,0-.65-1.17A.91.91,0,0,0,113.56,6.66Z" style="stroke: #000;stroke-width: 0.6000000000000001px" />
      <path d="M136.51,11.18a1.05,1.05,0,0,0-.95-.77h-2.1L135,8.46s.8-1.18.1-1.82-1.58.06-1.58.06l-3.23,4.1a1.45,1.45,0,0,0-.2,1.37,1,1,0,0,0,.95.77h2.1l-2.49,3.18s-1,1.12-.27,1.89,1.75-.14,1.75-.14l4.18-5.31A1.5,1.5,0,0,0,136.51,11.18Z" style="stroke: #000;stroke-width: 0.6000000000000001px" />
    </g>
    <g>
      <path d="M102.84,355.28a2.49,2.49,0,0,1-.29,1.21,2,2,0,0,1-.82.78,2.59,2.59,0,0,1-1.2.27l-.47,0a4.75,4.75,0,0,1-.73-.17,5.62,5.62,0,0,1-1-.39v-1.83a6.26,6.26,0,0,0,.91.58,2.12,2.12,0,0,0,1,.23c.31,0,.52-.06.61-.19a.63.63,0,0,0,.14-.36.62.62,0,0,0-.24-.5,3.33,3.33,0,0,0-.69-.43,4.93,4.93,0,0,1-.88-.56,2.44,2.44,0,0,1-.62-.76,2.32,2.32,0,0,1-.24-1.08,2.45,2.45,0,0,1,.24-1.09,1.91,1.91,0,0,1,.74-.78,2.42,2.42,0,0,1,1.22-.29,3.5,3.5,0,0,1,.94.13,3.51,3.51,0,0,1,1.11.5v1.75a5.24,5.24,0,0,0-.84-.59,2,2,0,0,0-1-.25.65.65,0,0,0-.5.16.55.55,0,0,0-.16.39.57.57,0,0,0,.16.39,3.37,3.37,0,0,0,.55.39,11.5,11.5,0,0,1,1.13.72,2.59,2.59,0,0,1,.66.75A2.09,2.09,0,0,1,102.84,355.28Z" />
      <path d="M108.69,357.44h-4.6V350h4.53v1.49h-2.69v1.36h2.57v1.5h-2.57v1.59h2.76Z" />
      <path d="M116.72,358l-1.29,1.43a8.86,8.86,0,0,1-1.51-.55,10.92,10.92,0,0,1-1.5-.85,4.1,4.1,0,0,1-.88-.75,3,3,0,0,1-1-.68,3.79,3.79,0,0,1-.75-1.19,4.54,4.54,0,0,1-.29-1.68,4.66,4.66,0,0,1,.38-1.87,3.2,3.2,0,0,1,1.16-1.41,3.34,3.34,0,0,1,1.92-.54,3.56,3.56,0,0,1,1.54.32,2.94,2.94,0,0,1,1.08.85,3.47,3.47,0,0,1,.64,1.22,4.9,4.9,0,0,1,.21,1.43,4.45,4.45,0,0,1-.27,1.61,3.36,3.36,0,0,1-.69,1.17,3.25,3.25,0,0,1-1,.74,7.23,7.23,0,0,0,1,.45,3.33,3.33,0,0,0,1.14.18Zm-2.14-4.27a2.59,2.59,0,0,0-.1-.76,1.71,1.71,0,0,0-.31-.6,1.31,1.31,0,0,0-.5-.4,1.45,1.45,0,0,0-.68-.14,1.4,1.4,0,0,0-1.16.52,2.14,2.14,0,0,0-.42,1.38,2.19,2.19,0,0,0,.42,1.39,1.41,1.41,0,0,0,1.16.53,1.54,1.54,0,0,0,.87-.25,1.64,1.64,0,0,0,.54-.67A2.59,2.59,0,0,0,114.58,353.71Z" />
      <path d="M124,354.11a4,4,0,0,1-.29,1.63,2.77,2.77,0,0,1-.77,1.06,3.33,3.33,0,0,1-1,.57,4,4,0,0,1-1.12.17,3.74,3.74,0,0,1-1.5-.32,2.81,2.81,0,0,1-1.23-1.1,3.7,3.7,0,0,1-.49-2V350h1.83v3.53a3.47,3.47,0,0,0,.18,1.21,1.4,1.4,0,0,0,.48.71,1.28,1.28,0,0,0,.73.22,1.2,1.2,0,0,0,.72-.22,1.45,1.45,0,0,0,.49-.7,3.75,3.75,0,0,0,.17-1.21V350H124Z" />
      <path d="M132.11,357.44h-1.88l-.5-1.51h-2.65l-.51,1.51h-1.88l2.7-7.44h2Zm-2.8-2.8-.9-2.72-.9,2.72Z" />
      <path d="M139.55,357.44h-1.64l-3.16-4.14v4.14h-1.83V350h1.64l3.15,4.12V350h1.84Z" />
      <path d="M146.94,351.81H144.7v5.63h-1.84v-5.63h-2.23V350h6.31Z" />
    </g>
    <g id="pips_-_fewest" data-name="pips - fewest">
      <g style="clip-path: url(#clip-path)">
        <g style="clip-path: url(#clip-path-2)">
          <path d="M70,35.68l.71-1.24A13.86,13.86,0,0,0,65,32.9v1.43A12.39,12.39,0,0,1,70,35.68" />
          <path d="M74.83,40l1.24-.71a14,14,0,0,0-4.23-4.22l-.71,1.23a12.55,12.55,0,0,1,3.7,3.7" />
          <path d="M57.56,36.31l-.71-1.23a14,14,0,0,0-4.23,4.22l1.24.71a12.55,12.55,0,0,1,3.7-3.7" />
          <path d="M76.82,46.17h1.43A13.83,13.83,0,0,0,76.7,40.4l-1.23.71a12.47,12.47,0,0,1,1.35,5.06" />
          <path d="M63.71,34.33V32.9a13.86,13.86,0,0,0-5.77,1.54l.71,1.24a12.39,12.39,0,0,1,5.06-1.35" />
          <path d="M53.86,53.59l-1.24.71a14,14,0,0,0,4.23,4.22l.71-1.23a12.55,12.55,0,0,1-3.7-3.7" />
          <path d="M71.13,57.29l.71,1.23a14,14,0,0,0,4.23-4.22l-1.24-.71a12.55,12.55,0,0,1-3.7,3.7" />
          <path d="M76.82,47.43a12.47,12.47,0,0,1-1.35,5.06l1.23.71a13.83,13.83,0,0,0,1.55-5.77Z" />
          <path d="M51.87,47.43H50.44A13.83,13.83,0,0,0,52,53.2l1.23-.71a12.47,12.47,0,0,1-1.35-5.06" />
          <path d="M53.22,41.11,52,40.4a13.83,13.83,0,0,0-1.55,5.77h1.43a12.47,12.47,0,0,1,1.35-5.06" />
        </g>
      </g>
    </g>
    <g>
      <path d="M57.43,63.37H55.69v4.1H54.25v-4.1H52.51V62.05h4.92Z" />
      <path d="M61.37,65.82H58.91a1,1,0,0,0,.35.59,1,1,0,0,0,.64.23,3,3,0,0,0,1.38-.39v.87a4.47,4.47,0,0,1-.65.29,3.08,3.08,0,0,1-1,.13,2.11,2.11,0,0,1-1.1-.27,1.76,1.76,0,0,1-.68-.75,2.64,2.64,0,0,1,0-2.11,1.63,1.63,0,0,1,.68-.72,2.11,2.11,0,0,1,1.1-.27,1.7,1.7,0,0,1,.82.21,1.61,1.61,0,0,1,.66.68,2.61,2.61,0,0,1,.25,1.23Zm-1.16-.69a1.06,1.06,0,0,0-.16-.62.58.58,0,0,0-.48-.22.59.59,0,0,0-.5.23.91.91,0,0,0-.19.61Z" />
      <path d="M67.94,67.47H66.7V65.35a1.3,1.3,0,0,0-.12-.63.41.41,0,0,0-.39-.21.54.54,0,0,0-.42.18,2.39,2.39,0,0,0-.33.44v2.34H64.2V65.35a1.43,1.43,0,0,0-.11-.62.41.41,0,0,0-.4-.22.55.55,0,0,0-.26.06.66.66,0,0,0-.18.14,1.86,1.86,0,0,0-.18.23l-.13.19v2.34H61.7v-4h1.24v.57a2,2,0,0,1,.57-.49,1.4,1.4,0,0,1,.66-.15,1.22,1.22,0,0,1,.34,0,1,1,0,0,1,.32.13.92.92,0,0,1,.28.24,1.23,1.23,0,0,1,.21.37,2.22,2.22,0,0,1,.62-.58,1.39,1.39,0,0,1,.74-.2,1.28,1.28,0,0,1,.7.19,1.15,1.15,0,0,1,.42.56,2.48,2.48,0,0,1,.14.87Z" />
      <path d="M72.23,65.45a2.76,2.76,0,0,1-.1.77,1.94,1.94,0,0,1-.3.67,1.53,1.53,0,0,1-.53.48,1.58,1.58,0,0,1-.74.17,1.54,1.54,0,0,1-.54-.08,2.24,2.24,0,0,1-.4-.22v2H68.38V63.49h1.24v.36a2,2,0,0,1,.41-.3,1.2,1.2,0,0,1,.61-.13,1.39,1.39,0,0,1,.75.22,1.54,1.54,0,0,1,.61.67A2.54,2.54,0,0,1,72.23,65.45Zm-1.3,0a1.37,1.37,0,0,0-.1-.58.61.61,0,0,0-.26-.32.55.55,0,0,0-.32-.1.64.64,0,0,0-.36.08,1.05,1.05,0,0,0-.27.2v1.52a.55.55,0,0,1,.14.09l.15.08.16.06.18,0a.59.59,0,0,0,.49-.28A1.33,1.33,0,0,0,70.93,65.48Z" />
      <path d="M76.46,65.48a2.43,2.43,0,0,1-.23,1.06,1.71,1.71,0,0,1-.68.73,2.38,2.38,0,0,1-2.2,0,1.71,1.71,0,0,1-.68-.73,2.42,2.42,0,0,1-.22-1.06,2.62,2.62,0,0,1,.12-.82A2,2,0,0,1,73,64a1.92,1.92,0,0,1,.64-.44,2.28,2.28,0,0,1,.86-.15,2.23,2.23,0,0,1,.88.16A1.65,1.65,0,0,1,76,64a1.81,1.81,0,0,1,.37.65A2.35,2.35,0,0,1,76.46,65.48Zm-1.3,0a1.28,1.28,0,0,0-.18-.74.6.6,0,0,0-.53-.27.58.58,0,0,0-.52.27,1.28,1.28,0,0,0-.18.74,1.33,1.33,0,0,0,.18.74.65.65,0,0,0,1,0A1.33,1.33,0,0,0,75.16,65.48Z" />
    </g>
    <g>
      <path d="M215.26,65.89a1.65,1.65,0,0,1-.23.88,1.42,1.42,0,0,1-.64.57,2.12,2.12,0,0,1-.93.2l-.37,0-.57-.12a4.69,4.69,0,0,1-.74-.29V65.78a4.88,4.88,0,0,0,.71.42,1.59,1.59,0,0,0,.75.17.6.6,0,0,0,.47-.14.39.39,0,0,0,.11-.26.47.47,0,0,0-.18-.37,3.11,3.11,0,0,0-.54-.31,3.81,3.81,0,0,1-.69-.41,1.59,1.59,0,0,1-.48-.55,1.5,1.5,0,0,1-.19-.78,1.59,1.59,0,0,1,.19-.79,1.33,1.33,0,0,1,.58-.57,2,2,0,0,1,1-.21,2.81,2.81,0,0,1,.73.09,2.57,2.57,0,0,1,.56.2,1.63,1.63,0,0,1,.3.17v1.27a3.86,3.86,0,0,0-.65-.43,1.69,1.69,0,0,0-.77-.19.52.52,0,0,0-.38.12.4.4,0,0,0-.12.29.38.38,0,0,0,.12.28,2,2,0,0,0,.42.28,8.35,8.35,0,0,1,.89.53,1.85,1.85,0,0,1,.51.54A1.41,1.41,0,0,1,215.26,65.89Z" />
      <path d="M219.34,65.82h-2.46a.93.93,0,0,0,.35.59,1,1,0,0,0,.64.23,3,3,0,0,0,1.38-.39v.87a4.18,4.18,0,0,1-.66.29,3,3,0,0,1-1,.13,2.11,2.11,0,0,1-1.1-.27,1.76,1.76,0,0,1-.68-.75,2.53,2.53,0,0,1,0-2.11,1.63,1.63,0,0,1,.68-.72,2.11,2.11,0,0,1,1.1-.27,1.72,1.72,0,0,1,.82.21,1.59,1.59,0,0,1,.65.68,2.49,2.49,0,0,1,.26,1.23Zm-1.16-.69a1.06,1.06,0,0,0-.17-.62.55.55,0,0,0-.48-.22.61.61,0,0,0-.5.23,1,1,0,0,0-.19.61Z" />
      <path d="M221,67.47h-1.24V62.05H221Z" />
      <path d="M225.13,65.82h-2.46a.93.93,0,0,0,.35.59,1,1,0,0,0,.64.23,3,3,0,0,0,1.38-.39v.87a4.18,4.18,0,0,1-.66.29,3,3,0,0,1-1,.13,2.11,2.11,0,0,1-1.1-.27,1.76,1.76,0,0,1-.68-.75,2.53,2.53,0,0,1,0-2.11,1.63,1.63,0,0,1,.68-.72,2.11,2.11,0,0,1,1.1-.27,1.72,1.72,0,0,1,.82.21,1.59,1.59,0,0,1,.65.68,2.61,2.61,0,0,1,.26,1.23ZM224,65.13a1.06,1.06,0,0,0-.17-.62.55.55,0,0,0-.48-.22.61.61,0,0,0-.5.23.91.91,0,0,0-.19.61Z" />
      <path d="M228.45,67.29l-.32.12a2.23,2.23,0,0,1-.39.09,2.29,2.29,0,0,1-.47,0,2,2,0,0,1-1-.22,1.66,1.66,0,0,1-.61-.56,2.4,2.4,0,0,1-.3-.68,2.37,2.37,0,0,1,0-1.22,2.28,2.28,0,0,1,.3-.68,1.76,1.76,0,0,1,.6-.54,2,2,0,0,1,1-.22,2.68,2.68,0,0,1,.63.06,4.91,4.91,0,0,1,.5.17v1.11a2.89,2.89,0,0,0-1-.22.81.81,0,0,0-.58.23.88.88,0,0,0-.26.7,1,1,0,0,0,.13.53.76.76,0,0,0,.32.32.81.81,0,0,0,.39.1,1.77,1.77,0,0,0,.43-.06,5.89,5.89,0,0,0,.57-.18Z" />
      <path d="M231.53,67.24a2.19,2.19,0,0,1-.53.2,2.13,2.13,0,0,1-.64.1c-.9,0-1.34-.5-1.34-1.49V64.47h-.56v-.25l1.66-1.92h.14v1.19h1.18v1h-1.18v1.27a3.21,3.21,0,0,0,0,.36.37.37,0,0,0,.14.23.53.53,0,0,0,.34.09,1.65,1.65,0,0,0,.77-.28Z" />
    </g>
    <g>
      <path d="M18.37,65.89a1.56,1.56,0,0,1-.23.88,1.45,1.45,0,0,1-.63.57,2.2,2.2,0,0,1-.94.2l-.37,0-.57-.12a4.69,4.69,0,0,1-.74-.29V65.78a4.88,4.88,0,0,0,.71.42,1.62,1.62,0,0,0,.75.17.62.62,0,0,0,.48-.14.43.43,0,0,0,.1-.26.47.47,0,0,0-.18-.37,2.5,2.5,0,0,0-.54-.31,3.81,3.81,0,0,1-.69-.41,1.59,1.59,0,0,1-.48-.55,1.5,1.5,0,0,1-.19-.78,1.59,1.59,0,0,1,.19-.79,1.39,1.39,0,0,1,.58-.57,2,2,0,0,1,1-.21,2.81,2.81,0,0,1,.73.09,2.39,2.39,0,0,1,.56.2,2.36,2.36,0,0,1,.31.17v1.27a4.41,4.41,0,0,0-.66-.43,1.68,1.68,0,0,0-.76-.19.54.54,0,0,0-.39.12.4.4,0,0,0-.12.29.38.38,0,0,0,.12.28,1.86,1.86,0,0,0,.43.28,9.18,9.18,0,0,1,.88.53,1.85,1.85,0,0,1,.51.54A1.41,1.41,0,0,1,18.37,65.89Z" />
      <path d="M21.62,67.24a2.19,2.19,0,0,1-.53.2,2.14,2.14,0,0,1-.65.1c-.89,0-1.33-.5-1.33-1.49V64.47h-.56v-.25l1.66-1.92h.14v1.19h1.18v1H20.35v1.27a3.21,3.21,0,0,0,0,.36.37.37,0,0,0,.14.23.53.53,0,0,0,.34.09,1.65,1.65,0,0,0,.77-.28Z" />
      <path d="M25.52,67.27a3.65,3.65,0,0,1-.51.19,1.73,1.73,0,0,1-.55.08.61.61,0,0,1-.43-.12.9.9,0,0,1-.17-.3,1.9,1.9,0,0,1-.44.3,1.46,1.46,0,0,1-.64.12,1.14,1.14,0,0,1-.62-.15.92.92,0,0,1-.33-.38,1.27,1.27,0,0,1-.09-.47,1,1,0,0,1,.16-.61,1.28,1.28,0,0,1,.44-.39,5.37,5.37,0,0,1,.73-.32l.39-.14.2-.08a.56.56,0,0,0,.13-.07.83.83,0,0,0-.1-.45c-.07-.11-.22-.16-.45-.16a1.41,1.41,0,0,0-.75.2,2.81,2.81,0,0,0-.64.52V64a2.55,2.55,0,0,1,.5-.3,2.81,2.81,0,0,1,.56-.18,3,3,0,0,1,.59-.06,1.68,1.68,0,0,1,1.15.34,1.17,1.17,0,0,1,.38.92v1.53a.92.92,0,0,0,0,.33.12.12,0,0,0,.13.1.67.67,0,0,0,.32-.11Zm-1.73-.76v-.94a3.15,3.15,0,0,0-.64.36.53.53,0,0,0-.2.44.43.43,0,0,0,.1.31.3.3,0,0,0,.23.1.52.52,0,0,0,.26-.08A2.07,2.07,0,0,0,23.79,66.51Z" />
      <path d="M28.7,63.71l-.46,1.41a.79.79,0,0,0-.57-.31.62.62,0,0,0-.45.2,2.15,2.15,0,0,0-.37.75v1.71H25.62v-4h1.23v1a2,2,0,0,1,.42-.69.86.86,0,0,1,.69-.34,1.06,1.06,0,0,1,.37.07A3.5,3.5,0,0,1,28.7,63.71Z" />
      <path d="M31.57,67.24a2.37,2.37,0,0,1-.53.2,2.14,2.14,0,0,1-.65.1c-.89,0-1.33-.5-1.33-1.49V64.47H28.5v-.25l1.66-1.92h.14v1.19h1.18v1H30.3v1.27a1.84,1.84,0,0,0,0,.36.37.37,0,0,0,.14.23.51.51,0,0,0,.34.09,1.65,1.65,0,0,0,.77-.28Z" />
    </g>
    <path d="M23.75,120.67H22.44v-5.41h1.31Z" />
    <path d="M53.26,120.67H49.64v-.11c.14-.15.29-.33.46-.55s.38-.49.64-.84c.13-.16.24-.32.35-.47l.27-.45a2.09,2.09,0,0,0,.19-.48,1.59,1.59,0,0,0,.08-.53.91.91,0,0,0-.19-.61.59.59,0,0,0-.49-.23,1.62,1.62,0,0,0-1.16.68v-1.27l.34-.24a2,2,0,0,1,.3-.18l.4-.15a2,2,0,0,1,.51-.06,1.63,1.63,0,0,1,.79.2,1.42,1.42,0,0,1,.56.58,1.86,1.86,0,0,1,.21.89,2.15,2.15,0,0,1-.1.68,2.77,2.77,0,0,1-.19.5c-.06.13-.15.28-.26.47a10.67,10.67,0,0,1-.64,1h1.55Z" />
    <path d="M81.31,119.17a1.59,1.59,0,0,1-.15.72,1.18,1.18,0,0,1-.39.49,1.6,1.6,0,0,1-.51.28,2,2,0,0,1-.53.08,3.4,3.4,0,0,1-.79-.11,3.48,3.48,0,0,1-.74-.28v-1.22a2.72,2.72,0,0,0,.52.39,1.22,1.22,0,0,0,.58.15.7.7,0,0,0,.37-.09.59.59,0,0,0,.23-.24A.56.56,0,0,0,80,119a.75.75,0,0,0-.09-.37.78.78,0,0,0-.28-.26,1,1,0,0,0-.43-.09H79v-.87h.18a.72.72,0,0,0,.4-.11.58.58,0,0,0,.22-.25.61.61,0,0,0,.07-.28.64.64,0,0,0-.16-.43.55.55,0,0,0-.44-.19,1.3,1.3,0,0,0-.49.1,2.27,2.27,0,0,0-.48.27v-1a4.54,4.54,0,0,1,.64-.26,2.24,2.24,0,0,1,.66-.09,1.62,1.62,0,0,1,.91.24,1.46,1.46,0,0,1,.53.58,1.4,1.4,0,0,1,.16.63,1.46,1.46,0,0,1-.09.49,1.49,1.49,0,0,1-.55.72,1.59,1.59,0,0,1,.5.47A1.44,1.44,0,0,1,81.31,119.17Z" />
    <path d="M110,119.5h-.56v1.17h-1.27V119.5h-1.94v-1l2.19-3.21h1v3.31H110Zm-1.83-.93v-1.73L107,118.57Z" />
    <path d="M138.15,119a2.05,2.05,0,0,1-.19.88,1.62,1.62,0,0,1-.57.65,1.75,1.75,0,0,1-.94.24,2.63,2.63,0,0,1-.84-.13,2.2,2.2,0,0,1-.74-.39v-1.17a3,3,0,0,0,.62.38,1.64,1.64,0,0,0,.7.19.54.54,0,0,0,.49-.21.78.78,0,0,0,.14-.43.85.85,0,0,0-.08-.35.81.81,0,0,0-.28-.27,1.23,1.23,0,0,0-.55-.1,1.71,1.71,0,0,0-.71.15v-3.15H138v1.14h-1.71v.93l.12,0h.18a1.59,1.59,0,0,1,.85.23,1.64,1.64,0,0,1,.56.61A1.84,1.84,0,0,1,138.15,119Z" />
    <path d="M166.77,118.8a2.18,2.18,0,0,1-.13.72,1.83,1.83,0,0,1-.38.63,1.55,1.55,0,0,1-.58.43,1.71,1.71,0,0,1-.75.16,1.76,1.76,0,0,1-1-.3,1.84,1.84,0,0,1-.64-.79,2.63,2.63,0,0,1-.22-1.05,3.32,3.32,0,0,1,.14-.92,4.23,4.23,0,0,1,.39-.91,5.14,5.14,0,0,1,.59-.85,7,7,0,0,1,.78-.75l1.18.45c-.19.18-.35.34-.49.49a5.71,5.71,0,0,0-.39.47,5.39,5.39,0,0,0-.33.5.93.93,0,0,1,.31,0,1.44,1.44,0,0,1,.78.22,1.54,1.54,0,0,1,.56.62A2,2,0,0,1,166.77,118.8Zm-1.24,0a.73.73,0,0,0-.19-.56.57.57,0,0,0-.43-.17.54.54,0,0,0-.48.23.91.91,0,0,0-.15.5.83.83,0,0,0,.18.53.55.55,0,0,0,.43.22.53.53,0,0,0,.36-.13.61.61,0,0,0,.21-.29A.85.85,0,0,0,165.53,118.78Z" />
    <path d="M195.1,115.41l-2,5.33-1.1-.4,1.46-3.88h-1.93v-1.2h3.61Z" />
    <path d="M223.46,119.21a1.9,1.9,0,0,1-.07.44,1.65,1.65,0,0,1-.27.5,1.42,1.42,0,0,1-.57.42,2.37,2.37,0,0,1-1,.17,2.33,2.33,0,0,1-1-.17,1.53,1.53,0,0,1-.58-.42,1.47,1.47,0,0,1-.26-.49,1.86,1.86,0,0,1-.06-.45,1.51,1.51,0,0,1,.21-.77,1.37,1.37,0,0,1,.56-.56,1.57,1.57,0,0,1-.45-.48,1.27,1.27,0,0,1-.16-.68,1.56,1.56,0,0,1,.09-.5,1.67,1.67,0,0,1,.28-.5,1.52,1.52,0,0,1,.53-.39,1.9,1.9,0,0,1,.8-.15,2,2,0,0,1,.81.15,1.5,1.5,0,0,1,.53.38,1.54,1.54,0,0,1,.27.5,1.51,1.51,0,0,1,.08.51,1.34,1.34,0,0,1-.15.68,1.68,1.68,0,0,1-.45.48,1.32,1.32,0,0,1,.4.34,1.74,1.74,0,0,1,.27.46A1.66,1.66,0,0,1,223.46,119.21Zm-1.23-.14a.94.94,0,0,0-.09-.43.76.76,0,0,0-.25-.28.54.54,0,0,0-.73.13.82.82,0,0,0-.2.58.85.85,0,0,0,.2.6.56.56,0,0,0,.89,0A.87.87,0,0,0,222.23,119.07Zm-.14-2.25a1.21,1.21,0,0,0-.11-.49.37.37,0,0,0-.37-.23.41.41,0,0,0-.39.22,1.06,1.06,0,0,0-.12.5.84.84,0,0,0,.15.52.45.45,0,0,0,.35.2.43.43,0,0,0,.34-.2A.84.84,0,0,0,222.09,116.82Z" />
    <g id="pips_-_fewest-2" data-name="pips - fewest">
      <g style="clip-path: url(#clip-path-3)">
        <g style="clip-path: url(#clip-path-3)">
          <path d="M37.68,159.36l.71-1.23a13.68,13.68,0,0,0-5.77-1.55V158a12.31,12.31,0,0,1,5.06,1.35" />
          <path d="M42.48,163.7l1.23-.71a14,14,0,0,0-4.22-4.23L38.78,160a12.58,12.58,0,0,1,3.7,3.71" />
          <path d="M25.2,160l-.71-1.23A14,14,0,0,0,20.27,163l1.23.72A12.58,12.58,0,0,1,25.2,160" />
          <path d="M44.46,169.85h1.43a13.86,13.86,0,0,0-1.54-5.77l-1.24.71a12.35,12.35,0,0,1,1.35,5.06" />
          <path d="M31.36,158v-1.43a13.68,13.68,0,0,0-5.77,1.55l.71,1.23A12.31,12.31,0,0,1,31.36,158" />
          <path d="M21.5,177.27l-1.23.71a14,14,0,0,0,4.22,4.23L25.2,181a12.55,12.55,0,0,1-3.7-3.7" />
          <path d="M38.78,181l.71,1.24A14,14,0,0,0,43.71,178l-1.23-.71a12.55,12.55,0,0,1-3.7,3.7" />
          <path d="M44.46,171.12a12.31,12.31,0,0,1-1.35,5l1.24.72a13.86,13.86,0,0,0,1.54-5.77Z" />
          <path d="M19.52,171.12H18.09a13.86,13.86,0,0,0,1.54,5.77l1.24-.72a12.31,12.31,0,0,1-1.35-5" />
          <path d="M20.87,164.79l-1.24-.71a13.86,13.86,0,0,0-1.54,5.77h1.43a12.35,12.35,0,0,1,1.35-5.06" />
        </g>
      </g>
    </g>
    <g>
      <path d="M27.48,189.58a1.67,1.67,0,0,1-.22.88,1.58,1.58,0,0,1-.64.56,2.06,2.06,0,0,1-.94.2l-.36,0a2.65,2.65,0,0,1-.57-.12,3.72,3.72,0,0,1-.75-.29v-1.33a7.08,7.08,0,0,0,.71.43,1.78,1.78,0,0,0,.75.16c.25,0,.41,0,.48-.13a.41.41,0,0,0-.08-.63,2.14,2.14,0,0,0-.54-.31,5.47,5.47,0,0,1-.69-.41,1.87,1.87,0,0,1-.48-.56,1.61,1.61,0,0,1-.19-.78,1.71,1.71,0,0,1,.19-.79,1.39,1.39,0,0,1,.58-.57,2,2,0,0,1,.95-.21,2.94,2.94,0,0,1,.74.09,3.09,3.09,0,0,1,.55.2,2.36,2.36,0,0,1,.31.17v1.27a4.31,4.31,0,0,0-.65-.43,1.71,1.71,0,0,0-.77-.18.59.59,0,0,0-.39.11.4.4,0,0,0-.12.29.38.38,0,0,0,.12.28,2.2,2.2,0,0,0,.43.29,8.23,8.23,0,0,1,.88.52,2,2,0,0,1,.52.54A1.51,1.51,0,0,1,27.48,189.58Z" />
      <path d="M31,191l-.32.12a2.23,2.23,0,0,1-.39.09,2.29,2.29,0,0,1-.47,0,1.93,1.93,0,0,1-1-.22,1.64,1.64,0,0,1-.61-.55,2,2,0,0,1-.3-.69,2.38,2.38,0,0,1-.08-.61,2.92,2.92,0,0,1,.08-.61,2.23,2.23,0,0,1,.3-.67,1.69,1.69,0,0,1,.6-.55,2.09,2.09,0,0,1,1-.22,2.61,2.61,0,0,1,.63.07,2.46,2.46,0,0,1,.5.17v1.1a3.24,3.24,0,0,0-1-.22.85.85,0,0,0-.58.23.88.88,0,0,0-.26.7,1,1,0,0,0,.13.53.71.71,0,0,0,.32.32.81.81,0,0,0,.39.1,1.77,1.77,0,0,0,.43-.06c.15,0,.35-.1.57-.18Z" />
      <path d="M34.92,191l-.5.2a1.79,1.79,0,0,1-.55.07.6.6,0,0,1-.43-.12.64.64,0,0,1-.17-.3,1.9,1.9,0,0,1-.44.3,1.49,1.49,0,0,1-.64.12,1.14,1.14,0,0,1-.62-.15.8.8,0,0,1-.33-.38,1.27,1.27,0,0,1-.09-.47,1.07,1.07,0,0,1,.16-.61,1.19,1.19,0,0,1,.44-.39,4.08,4.08,0,0,1,.73-.31l.39-.15.19-.07.14-.07a.85.85,0,0,0-.1-.46c-.07-.11-.22-.16-.45-.16a1.5,1.5,0,0,0-.75.2,2.66,2.66,0,0,0-.64.53v-1.08a2.18,2.18,0,0,1,.5-.31,2.81,2.81,0,0,1,.56-.18,3,3,0,0,1,.59-.06,1.69,1.69,0,0,1,1.14.34,1.14,1.14,0,0,1,.39.92v1.53a1.31,1.31,0,0,0,0,.33c0,.07.07.11.14.11a.68.68,0,0,0,.31-.12Zm-1.72-.76v-.94a3.36,3.36,0,0,0-.64.36.53.53,0,0,0-.2.44.41.41,0,0,0,.1.31.29.29,0,0,0,.23.1.39.39,0,0,0,.25-.08A1.43,1.43,0,0,0,33.2,190.19Z" />
      <path d="M36.33,191.15H35.09v-5.41h1.24Z" />
      <path d="M40.49,189.5H38a1,1,0,0,0,1,.83,3.05,3.05,0,0,0,1.38-.4v.87a3.42,3.42,0,0,1-.66.29,3,3,0,0,1-1,.13,2.11,2.11,0,0,1-1.1-.27,1.73,1.73,0,0,1-.68-.74,2.47,2.47,0,0,1-.22-1.07,2.38,2.38,0,0,1,.22-1,1.69,1.69,0,0,1,.68-.72,2.11,2.11,0,0,1,1.1-.27,1.72,1.72,0,0,1,.82.21,1.58,1.58,0,0,1,.66.69,2.54,2.54,0,0,1,.25,1.22Zm-1.16-.69a1,1,0,0,0-.17-.61.54.54,0,0,0-.48-.23.64.64,0,0,0-.5.23,1,1,0,0,0-.19.61Z" />
    </g>
    <g id="pips_-_fewest-3" data-name="pips - fewest">
      <g style="clip-path: url(#clip-path-5)">
        <g style="clip-path: url(#clip-path-6)">
          <path d="M108.24,35.68l.71-1.24a13.82,13.82,0,0,0-5.77-1.54v1.43a12.31,12.31,0,0,1,5.06,1.35" />
          <path d="M113,40l1.23-.71a13.92,13.92,0,0,0-4.22-4.22l-.71,1.23A12.55,12.55,0,0,1,113,40" />
          <path d="M95.76,36.31l-.71-1.23a13.92,13.92,0,0,0-4.22,4.22l1.23.71a12.55,12.55,0,0,1,3.7-3.7" />
          <path d="M115,46.17h1.43a13.82,13.82,0,0,0-1.54-5.77l-1.24.71A12.31,12.31,0,0,1,115,46.17" />
          <path d="M101.92,34.33V32.9a13.82,13.82,0,0,0-5.77,1.54l.71,1.24a12.31,12.31,0,0,1,5.06-1.35" />
          <path d="M92.06,53.59l-1.23.71a13.92,13.92,0,0,0,4.22,4.22l.71-1.23a12.55,12.55,0,0,1-3.7-3.7" />
          <path d="M109.34,57.29l.71,1.23a13.92,13.92,0,0,0,4.22-4.22L113,53.59a12.55,12.55,0,0,1-3.7,3.7" />
          <path d="M115,47.43a12.31,12.31,0,0,1-1.35,5.06l1.24.71a13.82,13.82,0,0,0,1.54-5.77Z" />
          <path d="M90.08,47.43H88.65a13.82,13.82,0,0,0,1.54,5.77l1.24-.71a12.31,12.31,0,0,1-1.35-5.06" />
          <path d="M91.43,41.11l-1.24-.71a13.82,13.82,0,0,0-1.54,5.77h1.43a12.31,12.31,0,0,1,1.35-5.06" />
        </g>
      </g>
    </g>
    <g>
      <path d="M98.62,64.86a2.87,2.87,0,0,1-.27,1.34,2.72,2.72,0,0,1-.62.81,2.06,2.06,0,0,1-1.44.46H93.72V62.05h2a4.22,4.22,0,0,1,.77.06,2.38,2.38,0,0,1,.57.15,1.91,1.91,0,0,1,.43.21,2.13,2.13,0,0,1,.32.26,2.22,2.22,0,0,1,.43.53,2.93,2.93,0,0,1,.29.72A3.48,3.48,0,0,1,98.62,64.86Zm-1.46-.07a2,2,0,0,0-.22-1,1.12,1.12,0,0,0-.53-.49,1.59,1.59,0,0,0-.64-.13h-.61v3.21h.61a1.57,1.57,0,0,0,1-.31A1.5,1.5,0,0,0,97.16,64.79Z" />
      <path d="M102.61,65.82h-2.46a.93.93,0,0,0,.35.59,1,1,0,0,0,.64.23,3,3,0,0,0,1.38-.39v.87a4.18,4.18,0,0,1-.66.29,3,3,0,0,1-1,.13,2.11,2.11,0,0,1-1.1-.27,1.76,1.76,0,0,1-.68-.75,2.64,2.64,0,0,1,0-2.11,1.63,1.63,0,0,1,.68-.72,2.11,2.11,0,0,1,1.1-.27,1.72,1.72,0,0,1,.82.21,1.67,1.67,0,0,1,.66.68,2.61,2.61,0,0,1,.25,1.23Zm-1.16-.69a1.06,1.06,0,0,0-.17-.62.55.55,0,0,0-.48-.22.61.61,0,0,0-.5.23,1,1,0,0,0-.19.61Z" />
      <path d="M104.24,67.47H103V62.05h1.24Z" />
      <path d="M108.44,67.27a3.56,3.56,0,0,1-.5.19,1.77,1.77,0,0,1-.55.08.6.6,0,0,1-.43-.12.75.75,0,0,1-.17-.3,1.9,1.9,0,0,1-.44.3,1.49,1.49,0,0,1-.64.12,1.14,1.14,0,0,1-.62-.15.8.8,0,0,1-.33-.38,1.28,1.28,0,0,1-.1-.47,1,1,0,0,1,.17-.61,1.19,1.19,0,0,1,.44-.39,5.17,5.17,0,0,1,.72-.32l.39-.14.2-.08a.46.46,0,0,0,.14-.07.83.83,0,0,0-.1-.45c-.07-.11-.22-.16-.45-.16a1.41,1.41,0,0,0-.75.2,2.61,2.61,0,0,0-.64.52V64a2.55,2.55,0,0,1,.5-.3,2.81,2.81,0,0,1,.56-.18,2.88,2.88,0,0,1,.59-.06,1.64,1.64,0,0,1,1.14.34,1.14,1.14,0,0,1,.39.92v1.53a1.31,1.31,0,0,0,0,.33.14.14,0,0,0,.14.1.64.64,0,0,0,.31-.11Zm-1.72-.76v-.94a2.89,2.89,0,0,0-.64.36.54.54,0,0,0-.21.44.43.43,0,0,0,.11.31.29.29,0,0,0,.23.1.46.46,0,0,0,.25-.08A2.14,2.14,0,0,0,106.72,66.51Z" />
      <path d="M112.3,63.49l-2.38,5.79h-1.25l1-2.33-1.38-3.46h1.33l.71,2,.81-2Z" />
    </g>
    <g id="pips_-_fewest-4" data-name="pips - fewest">
      <g style="clip-path: url(#clip-path-7)">
        <g style="clip-path: url(#clip-path-8)">
          <path d="M146.45,35.68l.71-1.24a13.86,13.86,0,0,0-5.77-1.54v1.43a12.35,12.35,0,0,1,5.06,1.35" />
          <path d="M151.25,40l1.23-.71a14,14,0,0,0-4.23-4.22l-.71,1.23a12.58,12.58,0,0,1,3.71,3.7" />
          <path d="M134,36.31l-.71-1.23A14,14,0,0,0,129,39.3l1.24.71a12.55,12.55,0,0,1,3.7-3.7" />
          <path d="M153.23,46.17h1.43a13.68,13.68,0,0,0-1.55-5.77l-1.23.71a12.31,12.31,0,0,1,1.35,5.06" />
          <path d="M140.12,34.33V32.9a13.86,13.86,0,0,0-5.77,1.54l.72,1.24a12.31,12.31,0,0,1,5.05-1.35" />
          <path d="M130.27,53.59,129,54.3a14,14,0,0,0,4.23,4.22l.71-1.23a12.55,12.55,0,0,1-3.7-3.7" />
          <path d="M147.54,57.29l.71,1.23a14,14,0,0,0,4.23-4.22l-1.23-.71a12.7,12.7,0,0,1-3.71,3.7" />
          <path d="M153.23,47.43a12.31,12.31,0,0,1-1.35,5.06l1.23.71a13.68,13.68,0,0,0,1.55-5.77Z" />
          <path d="M128.28,47.43h-1.43a14,14,0,0,0,1.55,5.77l1.23-.71a12.47,12.47,0,0,1-1.35-5.06" />
          <path d="M129.63,41.11l-1.23-.71a14,14,0,0,0-1.55,5.77h1.43a12.47,12.47,0,0,1,1.35-5.06" />
        </g>
      </g>
    </g>
    <g>
      <path d="M137.84,67.09l-.27.11-.21.07a1.44,1.44,0,0,1-.29.09,5.34,5.34,0,0,1-.65.13,5.09,5.09,0,0,1-.69.05,3,3,0,0,1-1.34-.3,2.22,2.22,0,0,1-1-.94,3,3,0,0,1-.37-1.55,3.63,3.63,0,0,1,.19-1.17,2,2,0,0,1,.58-.91,2.76,2.76,0,0,1,.65-.44,3,3,0,0,1,.65-.2,5,5,0,0,1,.7-.05,4.24,4.24,0,0,1,1,.11c.27.07.57.16.9.28v1.28a4.52,4.52,0,0,0-.69-.36,2.58,2.58,0,0,0-.9-.14,1.66,1.66,0,0,0-1,.27,1.35,1.35,0,0,0-.52.63,1.94,1.94,0,0,0-.15.72,1.73,1.73,0,0,0,.17.76,1.28,1.28,0,0,0,.51.55,1.54,1.54,0,0,0,.82.21,2,2,0,0,0,.58-.08v-.64h-.64V64.48h1.9Z" />
      <path d="M142.12,67.27a3.65,3.65,0,0,1-.51.19,1.73,1.73,0,0,1-.55.08.61.61,0,0,1-.43-.12.9.9,0,0,1-.17-.3,1.9,1.9,0,0,1-.44.3,1.46,1.46,0,0,1-.64.12,1.14,1.14,0,0,1-.62-.15.86.86,0,0,1-.33-.38,1.27,1.27,0,0,1-.09-.47,1,1,0,0,1,.16-.61,1.28,1.28,0,0,1,.44-.39,5.37,5.37,0,0,1,.73-.32l.39-.14.2-.08a.56.56,0,0,0,.13-.07.83.83,0,0,0-.1-.45c-.07-.11-.22-.16-.45-.16a1.41,1.41,0,0,0-.75.2,2.81,2.81,0,0,0-.64.52V64a2.55,2.55,0,0,1,.5-.3,2.81,2.81,0,0,1,.56-.18,3,3,0,0,1,.59-.06,1.68,1.68,0,0,1,1.15.34,1.17,1.17,0,0,1,.38.92v1.53a.92.92,0,0,0,0,.33.12.12,0,0,0,.13.1.67.67,0,0,0,.32-.11Zm-1.73-.76v-.94a2.89,2.89,0,0,0-.64.36.53.53,0,0,0-.2.44.43.43,0,0,0,.1.31.32.32,0,0,0,.23.1.52.52,0,0,0,.26-.08A2.07,2.07,0,0,0,140.39,66.51Z" />
      <path d="M145,67.24a2.37,2.37,0,0,1-.53.2,2.14,2.14,0,0,1-.65.1c-.89,0-1.33-.5-1.33-1.49V64.47h-.56v-.25l1.66-1.92h.14v1.19h1.18v1h-1.18v1.27a1.84,1.84,0,0,0,0,.36.37.37,0,0,0,.14.23.51.51,0,0,0,.34.09,1.65,1.65,0,0,0,.77-.28Z" />
      <path d="M148.83,65.82h-2.46a1,1,0,0,0,.35.59,1,1,0,0,0,.64.23,3,3,0,0,0,1.38-.39v.87a4.47,4.47,0,0,1-.65.29,3.08,3.08,0,0,1-1,.13,2.11,2.11,0,0,1-1.1-.27,1.76,1.76,0,0,1-.68-.75,2.64,2.64,0,0,1,0-2.11,1.63,1.63,0,0,1,.68-.72,2.11,2.11,0,0,1,1.1-.27,1.72,1.72,0,0,1,.82.21,1.61,1.61,0,0,1,.66.68,2.61,2.61,0,0,1,.25,1.23Zm-1.16-.69a1,1,0,0,0-.17-.62.55.55,0,0,0-.48-.22.61.61,0,0,0-.5.23,1,1,0,0,0-.19.61Z" />
    </g>
    <g id="pips_-_fewest-5" data-name="pips - fewest">
      <g style="clip-path: url(#clip-path-9)">
        <g style="clip-path: url(#clip-path-10)">
          <path d="M184.65,35.68l.71-1.24a13.82,13.82,0,0,0-5.77-1.54v1.43a12.31,12.31,0,0,1,5.06,1.35" />
          <path d="M189.45,40l1.23-.71a13.81,13.81,0,0,0-4.22-4.22l-.71,1.23a12.55,12.55,0,0,1,3.7,3.7" />
          <path d="M172.18,36.31l-.72-1.23a14,14,0,0,0-4.22,4.22l1.23.71a12.58,12.58,0,0,1,3.71-3.7" />
          <path d="M191.44,46.17h1.42a13.82,13.82,0,0,0-1.54-5.77l-1.24.71a12.48,12.48,0,0,1,1.36,5.06" />
          <path d="M178.33,34.33V32.9a13.82,13.82,0,0,0-5.77,1.54l.71,1.24a12.31,12.31,0,0,1,5.06-1.35" />
          <path d="M168.47,53.59l-1.23.71a14,14,0,0,0,4.22,4.22l.72-1.23a12.58,12.58,0,0,1-3.71-3.7" />
          <path d="M185.75,57.29l.71,1.23a13.92,13.92,0,0,0,4.22-4.22l-1.23-.71a12.55,12.55,0,0,1-3.7,3.7" />
          <path d="M191.44,47.43a12.48,12.48,0,0,1-1.36,5.06l1.24.71a13.82,13.82,0,0,0,1.54-5.77Z" />
          <path d="M166.49,47.43h-1.43a13.68,13.68,0,0,0,1.55,5.77l1.23-.71a12.31,12.31,0,0,1-1.35-5.06" />
          <path d="M167.84,41.11l-1.23-.71a13.68,13.68,0,0,0-1.55,5.77h1.43a12.31,12.31,0,0,1,1.35-5.06" />
        </g>
      </g>
    </g>
    <g>
      <path d="M175.12,65.89a1.65,1.65,0,0,1-.23.88,1.48,1.48,0,0,1-.64.57,2.13,2.13,0,0,1-.94.2l-.36,0-.57-.12a4.34,4.34,0,0,1-.74-.29V65.78a4.88,4.88,0,0,0,.71.42,1.59,1.59,0,0,0,.75.17.6.6,0,0,0,.47-.14.45.45,0,0,0,.11-.26.47.47,0,0,0-.18-.37,3.11,3.11,0,0,0-.54-.31,3.23,3.23,0,0,1-.69-.41,1.59,1.59,0,0,1-.48-.55,1.5,1.5,0,0,1-.19-.78,1.59,1.59,0,0,1,.19-.79,1.36,1.36,0,0,1,.57-.57,2,2,0,0,1,.95-.21,2.89,2.89,0,0,1,.74.09,2.57,2.57,0,0,1,.56.2,1.63,1.63,0,0,1,.3.17v1.27a3.86,3.86,0,0,0-.65-.43,1.72,1.72,0,0,0-.77-.19.54.54,0,0,0-.39.12.4.4,0,0,0-.12.29.38.38,0,0,0,.12.28,2.12,2.12,0,0,0,.43.28,8.07,8.07,0,0,1,.88.53,1.89,1.89,0,0,1,.52.54A1.41,1.41,0,0,1,175.12,65.89Z" />
      <path d="M176.91,67.47h-1.24V62.05h1.24Z" />
      <path d="M181.07,65.82h-2.46a1,1,0,0,0,.35.59,1,1,0,0,0,.64.23,3,3,0,0,0,1.38-.39v.87a4.18,4.18,0,0,1-.66.29,3,3,0,0,1-1,.13,2.11,2.11,0,0,1-1.1-.27,1.76,1.76,0,0,1-.68-.75,2.64,2.64,0,0,1,0-2.11,1.63,1.63,0,0,1,.68-.72,2.11,2.11,0,0,1,1.1-.27,1.72,1.72,0,0,1,.82.21,1.61,1.61,0,0,1,.66.68,2.61,2.61,0,0,1,.25,1.23Zm-1.16-.69a1.06,1.06,0,0,0-.17-.62.55.55,0,0,0-.48-.22.61.61,0,0,0-.5.23,1,1,0,0,0-.19.61Z" />
      <path d="M187,63.49l-1.38,4h-.78L184,65.3l-.78,2.17h-.78l-1.42-4h1.26l.64,2,.68-2h.79l.69,2,.62-2Z" />
    </g>
    <path d="M230.08,288.32H13.83v46.93c0,3.49,2.53,6.35,5.64,6.35H48.94l115.64-.46,31.53.46h29.47c3.11,0,5.64-2.86,5.64-6.35V288.32Z" />
    <g>
      <path d="M162.46,331.87a2,2,0,0,1-.09.59,1.61,1.61,0,0,1-.3.54,1.48,1.48,0,0,1-.55.4,2,2,0,0,1-.81.15h-.94v2h-1.44v-5.41h2.38a1.86,1.86,0,0,1,.81.16,1.29,1.29,0,0,1,.55.4,1.61,1.61,0,0,1,.3.54A2.08,2.08,0,0,1,162.46,331.87Zm-1.47,0a.6.6,0,0,0-.2-.53,1.26,1.26,0,0,0-.72-.14h-.3v1.3h.31a2,2,0,0,0,.55-.05.41.41,0,0,0,.28-.19A.81.81,0,0,0,161,331.88Z" />
      <path d="M166.51,335.58h-1.24v-2.2a1.27,1.27,0,0,0-.1-.52.41.41,0,0,0-.41-.24.57.57,0,0,0-.41.18,2.4,2.4,0,0,0-.34.45v2.33h-1.24v-5.41H164v2a1.7,1.7,0,0,1,.6-.51,1.53,1.53,0,0,1,.64-.13c.84,0,1.26.53,1.26,1.6Z" />
      <path d="M170.6,335.38l-.5.2a1.86,1.86,0,0,1-.56.07.59.59,0,0,1-.42-.12.64.64,0,0,1-.17-.3,2.21,2.21,0,0,1-.45.3,1.43,1.43,0,0,1-.64.12,1.1,1.1,0,0,1-.61-.15.76.76,0,0,1-.33-.38,1.18,1.18,0,0,1,.06-1.07,1.31,1.31,0,0,1,.44-.4,6.15,6.15,0,0,1,.73-.31l.39-.15.2-.07.14-.07a.84.84,0,0,0-.11-.46.5.5,0,0,0-.44-.16,1.54,1.54,0,0,0-.76.2,2.61,2.61,0,0,0-.63.53v-1.08a2,2,0,0,1,.5-.31,2.45,2.45,0,0,1,.56-.18,3.81,3.81,0,0,1,.59,0,1.72,1.72,0,0,1,1.14.33,1.14,1.14,0,0,1,.38.92v1.54a1.19,1.19,0,0,0,0,.32.14.14,0,0,0,.13.11.76.76,0,0,0,.32-.11Zm-1.72-.76v-.94a3.44,3.44,0,0,0-.65.37.53.53,0,0,0-.2.44.4.4,0,0,0,.1.3.34.34,0,0,0,.24.11.49.49,0,0,0,.25-.08C168.7,334.76,168.79,334.7,168.88,334.62Z" />
      <path d="M173.44,334.42a1.2,1.2,0,0,1-.35.89,1.44,1.44,0,0,1-1.05.34,2.42,2.42,0,0,1-.69-.08,4.77,4.77,0,0,1-.66-.23v-1a4.15,4.15,0,0,0,.54.31,1.26,1.26,0,0,0,.51.11c.31,0,.46-.1.46-.29a.25.25,0,0,0-.06-.17,1.47,1.47,0,0,0-.24-.18l-.44-.22a1.81,1.81,0,0,1-.59-.47,1,1,0,0,1-.24-.7,1.17,1.17,0,0,1,.16-.57,1.19,1.19,0,0,1,.49-.45,1.55,1.55,0,0,1,.78-.17h.28l.43.1a1.61,1.61,0,0,1,.49.21v1l-.18-.13-.2-.11a1.6,1.6,0,0,0-.29-.11,1.33,1.33,0,0,0-.34-.05.4.4,0,0,0-.3.09.34.34,0,0,0-.08.19.23.23,0,0,0,.09.18,1,1,0,0,0,.36.21,2.82,2.82,0,0,1,.66.37,1.16,1.16,0,0,1,.36.42A1.25,1.25,0,0,1,173.44,334.42Z" />
      <path d="M177.42,333.93H175a1,1,0,0,0,1,.83,3,3,0,0,0,1.38-.4v.87a3.42,3.42,0,0,1-.66.29,3,3,0,0,1-1,.13,2.11,2.11,0,0,1-1.1-.27,1.67,1.67,0,0,1-.68-.74,2.43,2.43,0,0,1-.23-1.06,2.35,2.35,0,0,1,.23-1.05,1.65,1.65,0,0,1,.68-.73,2.11,2.11,0,0,1,1.1-.26,1.72,1.72,0,0,1,.82.21,1.53,1.53,0,0,1,.65.68,2.57,2.57,0,0,1,.26,1.22Zm-1.16-.69a1,1,0,0,0-.17-.61.56.56,0,0,0-.48-.23.63.63,0,0,0-.5.23.93.93,0,0,0-.19.61Z" />
    </g>
    <g>
      <path d="M28.19,331.87a1.7,1.7,0,0,1-.1.59,1.45,1.45,0,0,1-.84.94,2,2,0,0,1-.81.15H25.5v2H24.06v-5.41h2.38a1.86,1.86,0,0,1,.81.16,1.35,1.35,0,0,1,.55.4,1.58,1.58,0,0,1,.29.54A1.8,1.8,0,0,1,28.19,331.87Zm-1.47,0a.62.62,0,0,0-.2-.53,1.26,1.26,0,0,0-.72-.14h-.3v1.3h.31a2,2,0,0,0,.55-.05.41.41,0,0,0,.28-.19A.81.81,0,0,0,26.72,331.88Z" />
      <path d="M29.8,335.58H28.56v-4H29.8Zm-.1-4.89a.64.64,0,0,1-.15.42.51.51,0,0,1-.37.17.47.47,0,0,1-.26-.08.55.55,0,0,1-.19-.21.6.6,0,0,1-.07-.3.64.64,0,0,1,.15-.42.47.47,0,0,1,.37-.18.49.49,0,0,1,.37.18A.64.64,0,0,1,29.7,330.69Z" />
      <path d="M33.13,335.35a2.63,2.63,0,0,1-.53.21,2.48,2.48,0,0,1-.65.09c-.89,0-1.33-.49-1.33-1.48v-1.59h-.56v-.24l1.66-1.92h.14v1.19H33v1H31.86v1.28a3.53,3.53,0,0,0,0,.36.35.35,0,0,0,.14.22.53.53,0,0,0,.34.1,1.69,1.69,0,0,0,.77-.29Z" />
      <path d="M36.39,335.4l-.32.12-.39.1a3.38,3.38,0,0,1-.47,0,1.93,1.93,0,0,1-1-.22,1.56,1.56,0,0,1-.61-.55,1.94,1.94,0,0,1-.3-.68,2.51,2.51,0,0,1-.08-.62,2.43,2.43,0,0,1,.08-.61,2.47,2.47,0,0,1,.29-.67,1.72,1.72,0,0,1,.61-.55,2.09,2.09,0,0,1,1-.21,2.68,2.68,0,0,1,.63.06,3.69,3.69,0,0,1,.5.17v1.1a3.24,3.24,0,0,0-1-.22.84.84,0,0,0-.84.93,1,1,0,0,0,.13.54.73.73,0,0,0,.32.31.82.82,0,0,0,.39.11,1.67,1.67,0,0,0,.42-.07,6,6,0,0,0,.58-.18Z" />
      <path d="M40.45,335.58H39.21v-2.2a1.27,1.27,0,0,0-.1-.52.41.41,0,0,0-.41-.24.57.57,0,0,0-.41.18,2.4,2.4,0,0,0-.34.45v2.33H36.71v-5.41H38v2a1.79,1.79,0,0,1,.6-.51,1.56,1.56,0,0,1,.64-.13c.84,0,1.26.53,1.26,1.6Z" />
    </g>
    <g>
      <path d="M72.1,335.58H70.56l-.37-1a4.2,4.2,0,0,0-.38-.77.77.77,0,0,0-.32-.31.93.93,0,0,0-.4-.07h-.16v2.11H67.49v-5.41h2.44a1.61,1.61,0,0,1,1,.27,1.53,1.53,0,0,1,.55.67,1.89,1.89,0,0,1,.17.74,1.6,1.6,0,0,1-.14.69,1.17,1.17,0,0,1-.3.41,3,3,0,0,1-.34.25,1.27,1.27,0,0,1,.37.36,4.48,4.48,0,0,1,.41.85Zm-1.95-3.7a.57.57,0,0,0-.22-.52,1.23,1.23,0,0,0-.7-.15h-.3v1.3h.31a1.36,1.36,0,0,0,.72-.13A.56.56,0,0,0,70.15,331.88Z" />
      <path d="M75.9,335.38l-.5.2a1.79,1.79,0,0,1-.55.07.6.6,0,0,1-.43-.12.64.64,0,0,1-.17-.3,1.77,1.77,0,0,1-.45.3,1.41,1.41,0,0,1-.63.12,1.14,1.14,0,0,1-.62-.15.76.76,0,0,1-.33-.38,1.28,1.28,0,0,1-.1-.47,1,1,0,0,1,.17-.6,1.22,1.22,0,0,1,.44-.4,5.3,5.3,0,0,1,.72-.31l.39-.15.2-.07.14-.07a.85.85,0,0,0-.1-.46.53.53,0,0,0-.45-.16,1.5,1.5,0,0,0-.75.2,2.66,2.66,0,0,0-.64.53v-1.08a2,2,0,0,1,.5-.31,2.81,2.81,0,0,1,.56-.18,3.81,3.81,0,0,1,.59,0,1.69,1.69,0,0,1,1.14.33,1.14,1.14,0,0,1,.39.92v1.54a1.27,1.27,0,0,0,0,.32c0,.07.07.11.14.11a.77.77,0,0,0,.31-.11Zm-1.72-.76v-.94a3.3,3.3,0,0,0-.64.37.51.51,0,0,0-.21.44.41.41,0,0,0,.11.3.3.3,0,0,0,.23.11.46.46,0,0,0,.25-.08A2.26,2.26,0,0,0,74.18,334.62Z" />
      <path d="M79.75,335.58H78.51v-2.14a1.42,1.42,0,0,0-.1-.57.39.39,0,0,0-.41-.25.5.5,0,0,0-.27.07.74.74,0,0,0-.2.16l-.16.2-.12.2v2.33H76v-4h1.24v.57a1.73,1.73,0,0,1,.58-.5,1.45,1.45,0,0,1,.66-.14q1.26,0,1.26,1.71Z" />
      <path d="M83.73,332.45h-.62a1.07,1.07,0,0,1,.33.79,1.27,1.27,0,0,1-.09.47,1.09,1.09,0,0,1-.27.4,1.25,1.25,0,0,1-.44.29,1.76,1.76,0,0,1-.59.14c-.29,0-.43.1-.43.26a.16.16,0,0,0,0,.13.52.52,0,0,0,.18.07l.4.05a2.69,2.69,0,0,1,.59.11,1.1,1.1,0,0,1,.52.33,1,1,0,0,1,.23.71,1.3,1.3,0,0,1-.17.66,1.17,1.17,0,0,1-.58.44,2.74,2.74,0,0,1-1,.16,2.61,2.61,0,0,1-1.38-.28.87.87,0,0,1-.43-.76,1.17,1.17,0,0,1,.05-.3.86.86,0,0,1,.24-.33,1.17,1.17,0,0,1,.54-.21.42.42,0,0,1-.21-.19.59.59,0,0,1-.09-.31.78.78,0,0,1,.12-.41.57.57,0,0,1,.41-.26,1.51,1.51,0,0,1-.68-.44,1.24,1.24,0,0,1-.28-.84,1.67,1.67,0,0,1,.13-.69,1.31,1.31,0,0,1,.36-.47,1.51,1.51,0,0,1,.55-.28,2.8,2.8,0,0,1,.67-.08h1.93Zm-1.12,3.88a.33.33,0,0,0-.25-.34,1.7,1.7,0,0,0-.51-.08,1.55,1.55,0,0,0-.62.1.36.36,0,0,0-.19.33c0,.3.27.45.79.45a1.15,1.15,0,0,0,.57-.12A.36.36,0,0,0,82.61,336.33Zm-.25-3.2a.66.66,0,0,0-.18-.49.57.57,0,0,0-.41-.18.5.5,0,0,0-.44.22.77.77,0,0,0-.17.46.78.78,0,0,0,.07.31.68.68,0,0,0,.2.24.53.53,0,0,0,.31.08.55.55,0,0,0,.44-.19A.63.63,0,0,0,82.36,333.13Z" />
      <path d="M87.48,333.93H85a1,1,0,0,0,.36.6,1,1,0,0,0,.64.23,3,3,0,0,0,1.38-.4v.87a3.42,3.42,0,0,1-.66.29,3.08,3.08,0,0,1-1,.13,2.14,2.14,0,0,1-1.1-.27,1.71,1.71,0,0,1-.67-.74,2.43,2.43,0,0,1-.23-1.06,2.35,2.35,0,0,1,.23-1.05,1.69,1.69,0,0,1,.67-.73,2.13,2.13,0,0,1,1.1-.26,1.76,1.76,0,0,1,.83.21,1.53,1.53,0,0,1,.65.68,2.57,2.57,0,0,1,.26,1.22Zm-1.16-.69a1,1,0,0,0-.17-.61.56.56,0,0,0-.48-.23.63.63,0,0,0-.5.23.93.93,0,0,0-.19.61Z" />
    </g>
    <g>
      <path d="M121.11,333.39h-2v2.19H117.7v-5.41h3.41v1.08h-2v1.05h2Z" />
      <path d="M127.34,335.58H125.9v-3.13l-1.3,1.81h-.11l-1.3-1.81v3.13H121.8v-5.41h1.3l1.46,2,1.47-2h1.31Z" />
    </g>
    <g>
      <path d="M209.15,332.87a3.26,3.26,0,0,1-.31,1.4,2.42,2.42,0,0,1-.92,1,2.76,2.76,0,0,1-1.48.37,2.69,2.69,0,0,1-1.49-.39,2.32,2.32,0,0,1-.91-1,3.23,3.23,0,0,1,0-2.72,2.36,2.36,0,0,1,.9-1,2.75,2.75,0,0,1,1.5-.39,3,3,0,0,1,1.18.23,2.3,2.3,0,0,1,.85.6,2.51,2.51,0,0,1,.5.89A3.11,3.11,0,0,1,209.15,332.87Zm-1.47,0a1.69,1.69,0,0,0-.08-.56,1.14,1.14,0,0,0-.24-.43,1,1,0,0,0-.39-.29,1.25,1.25,0,0,0-.53-.11,1.14,1.14,0,0,0-.91.39,1.47,1.47,0,0,0-.33,1,1.45,1.45,0,0,0,.34,1,1.14,1.14,0,0,0,.9.38,1.25,1.25,0,0,0,.68-.18,1.13,1.13,0,0,0,.42-.49A1.81,1.81,0,0,0,207.68,332.87Z" style="fill: #ededed" />
      <path d="M213.24,335.58H212V335a1.71,1.71,0,0,1-.55.47,1.35,1.35,0,0,1-.69.16,1,1,0,0,1-1-.52,2.84,2.84,0,0,1-.24-1.19v-2.33h1.24v2.14a1.42,1.42,0,0,0,.1.57.39.39,0,0,0,.41.25.55.55,0,0,0,.43-.18,2.92,2.92,0,0,0,.32-.45v-2.33h1.24Z" style="fill: #ededed" />
      <path d="M216.51,335.35a2.19,2.19,0,0,1-.53.2,2.13,2.13,0,0,1-.64.1c-.9,0-1.34-.49-1.34-1.48v-1.59h-.56v-.24l1.66-1.93h.14v1.2h1.18v1h-1.18v1.28a3.16,3.16,0,0,0,0,.35.35.35,0,0,0,.14.23.53.53,0,0,0,.34.1,1.69,1.69,0,0,0,.77-.29Z" style="fill: #ededed" />
      <path d="M222.1,335.58h-3.62v-.1l.46-.55.64-.85c.13-.16.24-.32.35-.47s.19-.3.27-.45a2.67,2.67,0,0,0,.19-.48,1.89,1.89,0,0,0,.08-.53.93.93,0,0,0-.19-.61.62.62,0,0,0-.49-.23,1.59,1.59,0,0,0-1.16.69v-1.28l.33-.24.31-.18a2.3,2.3,0,0,1,.4-.14,2,2,0,0,1,.5-.07,1.54,1.54,0,0,1,.8.21,1.37,1.37,0,0,1,.56.58,1.8,1.8,0,0,1,.21.89,2.41,2.41,0,0,1-.1.67,2.51,2.51,0,0,1-.19.5c-.07.13-.15.29-.26.47a9.42,9.42,0,0,1-.64,1h1.55Z" style="fill: #ededed" />
    </g>
    <g>
      <path d="M164,332.87a3.26,3.26,0,0,1-.3,1.4,2.42,2.42,0,0,1-.92,1,2.78,2.78,0,0,1-1.48.37,2.75,2.75,0,0,1-1.5-.39,2.38,2.38,0,0,1-.91-1,3.25,3.25,0,0,1-.29-1.36,3.11,3.11,0,0,1,.29-1.36,2.38,2.38,0,0,1,.91-1,2.75,2.75,0,0,1,1.5-.39,3,3,0,0,1,1.18.23,2.38,2.38,0,0,1,.85.6,2.51,2.51,0,0,1,.5.89A3.1,3.1,0,0,1,164,332.87Zm-1.46,0a2,2,0,0,0-.08-.56,1.14,1.14,0,0,0-.24-.43,1.11,1.11,0,0,0-.39-.29,1.25,1.25,0,0,0-.53-.11,1.12,1.12,0,0,0-.91.39,1.47,1.47,0,0,0-.33,1,1.5,1.5,0,0,0,.33,1,1.16,1.16,0,0,0,.91.38,1.2,1.2,0,0,0,.67-.18,1,1,0,0,0,.42-.49A1.66,1.66,0,0,0,162.49,332.87Z" style="fill: #ededed" />
      <path d="M168.05,335.58h-1.24V335a1.82,1.82,0,0,1-.55.47,1.35,1.35,0,0,1-.69.16,1,1,0,0,1-1-.52,3,3,0,0,1-.23-1.19v-2.33h1.24v2.14a1.62,1.62,0,0,0,.09.57.4.4,0,0,0,.42.25.55.55,0,0,0,.43-.18,3.8,3.8,0,0,0,.32-.45v-2.33h1.24Z" style="fill: #ededed" />
      <path d="M171.32,335.35a2.37,2.37,0,0,1-.53.2,2.19,2.19,0,0,1-.65.1c-.89,0-1.34-.49-1.34-1.48v-1.59h-.56v-.24l1.66-1.93h.15v1.2h1.18v1h-1.18v1.28a1.78,1.78,0,0,0,0,.35.35.35,0,0,0,.14.23.5.5,0,0,0,.33.1,1.68,1.68,0,0,0,.78-.29Z" style="fill: #ededed" />
      <path d="M175.73,335.58h-1.3v-5.41h1.3Z" style="fill: #ededed" />
    </g>
    <g>
      <path d="M120.11,335.58h-3.6v-5.41h3.54v1.08H118v1h2v1.09h-2v1.15h2.16Z" style="fill: #ededed" />
      <path d="M124.32,335.58h-1.24v-2.14a1.62,1.62,0,0,0-.09-.57.39.39,0,0,0-.41-.25.47.47,0,0,0-.27.07.65.65,0,0,0-.21.16,1.3,1.3,0,0,0-.15.2l-.13.2v2.33h-1.23v-4h1.23v.57a1.75,1.75,0,0,1,.59-.5,1.38,1.38,0,0,1,.65-.14q1.26,0,1.26,1.71Z" style="fill: #ededed" />
      <path d="M128.49,335.58h-1.25v-.36a1.7,1.7,0,0,1-.41.31,1.28,1.28,0,0,1-.6.12,1.47,1.47,0,0,1-.75-.21,1.6,1.6,0,0,1-.61-.67,2.48,2.48,0,0,1-.24-1.15,2.88,2.88,0,0,1,.18-1,1.81,1.81,0,0,1,.56-.77,1.48,1.48,0,0,1,.94-.29,1.27,1.27,0,0,1,.93.3v-1.67h1.25Zm-1.25-1.26V332.8l-.33-.2a.68.68,0,0,0-.29-.06.59.59,0,0,0-.49.28,1.35,1.35,0,0,0-.19.77,1.22,1.22,0,0,0,.2.77.63.63,0,0,0,.48.24.74.74,0,0,0,.36-.08A1.64,1.64,0,0,0,127.24,334.32Z" style="fill: #ededed" />
    </g>
    <g>
      <path d="M69.88,331.48H68.14v4.1H66.7v-4.1H65v-1.31h4.92Z" style="fill: #ededed" />
      <path d="M73.31,331.82l-.45,1.41a.81.81,0,0,0-.58-.3.59.59,0,0,0-.45.2,2,2,0,0,0-.36.74v1.71H70.23v-4h1.24v1a1.89,1.89,0,0,1,.41-.7.91.91,0,0,1,.69-.33.84.84,0,0,1,.37.07A1.84,1.84,0,0,1,73.31,331.82Z" style="fill: #ededed" />
      <path d="M74.73,335.58H73.49v-4h1.24Zm-.1-4.89a.6.6,0,0,1-.16.42.48.48,0,0,1-.36.17.5.5,0,0,1-.27-.08.46.46,0,0,1-.18-.21.6.6,0,0,1-.07-.3.64.64,0,0,1,.15-.42.46.46,0,0,1,.37-.18.45.45,0,0,1,.36.18A.6.6,0,0,1,74.63,330.69Z" style="fill: #ededed" />
      <path d="M78.82,332.45h-.61a1.1,1.1,0,0,1,.32.79,1.27,1.27,0,0,1-.09.47,1.09,1.09,0,0,1-.27.4,1.3,1.3,0,0,1-.43.29,2.2,2.2,0,0,1-.6.14c-.28,0-.43.1-.43.26a.14.14,0,0,0,.06.13.39.39,0,0,0,.17.07l.4.05a2.9,2.9,0,0,1,.6.11,1.18,1.18,0,0,1,.51.32,1,1,0,0,1,.24.72,1.21,1.21,0,0,1-.18.66,1.18,1.18,0,0,1-.57.44,2.83,2.83,0,0,1-1,.16,2.57,2.57,0,0,1-1.37-.28.85.85,0,0,1-.38-1.06.69.69,0,0,1,.24-.33,1.13,1.13,0,0,1,.53-.21.44.44,0,0,1-.21-.2.53.53,0,0,1-.09-.3.78.78,0,0,1,.12-.41.59.59,0,0,1,.41-.26,1.46,1.46,0,0,1-.68-.45,1.19,1.19,0,0,1-.28-.83,1.67,1.67,0,0,1,.13-.69,1.35,1.35,0,0,1,.37-.48,1.52,1.52,0,0,1,.54-.27,2.44,2.44,0,0,1,.68-.08h1.92Zm-1.12,3.87a.31.31,0,0,0-.25-.33,1.69,1.69,0,0,0-.5-.08,1.49,1.49,0,0,0-.62.1.35.35,0,0,0-.2.33c0,.3.27.45.8.45a1.13,1.13,0,0,0,.56-.12A.36.36,0,0,0,77.7,336.32Zm-.25-3.19a.66.66,0,0,0-.18-.49.55.55,0,0,0-.4-.18.52.52,0,0,0-.45.22.76.76,0,0,0-.16.46.64.64,0,0,0,.07.31.52.52,0,0,0,.2.24.56.56,0,0,0,.3.08.58.58,0,0,0,.45-.19A.66.66,0,0,0,77.45,333.13Z" style="fill: #ededed" />
      <path d="M82.5,332.45h-.61a1.06,1.06,0,0,1,.32.79,1.27,1.27,0,0,1-.09.47,1.09,1.09,0,0,1-.27.4,1.21,1.21,0,0,1-.43.29,2.11,2.11,0,0,1-.6.14c-.28,0-.43.1-.43.26a.14.14,0,0,0,.06.13.46.46,0,0,0,.17.07l.4.05a2.78,2.78,0,0,1,.6.11,1.18,1.18,0,0,1,.51.32,1,1,0,0,1,.24.72,1.21,1.21,0,0,1-.18.66,1.18,1.18,0,0,1-.57.44,2.79,2.79,0,0,1-1.05.16,2.57,2.57,0,0,1-1.37-.28.85.85,0,0,1-.38-1.06.86.86,0,0,1,.24-.33,1.13,1.13,0,0,1,.53-.21.44.44,0,0,1-.21-.2.53.53,0,0,1-.09-.3.71.71,0,0,1,.13-.41.57.57,0,0,1,.4-.26,1.43,1.43,0,0,1-.67-.45,1.2,1.2,0,0,1-.29-.83,1.84,1.84,0,0,1,.13-.69,1.35,1.35,0,0,1,.37-.48,1.71,1.71,0,0,1,.54-.27,2.44,2.44,0,0,1,.68-.08H82.5Zm-1.12,3.87a.31.31,0,0,0-.25-.33,1.69,1.69,0,0,0-.5-.08,1.49,1.49,0,0,0-.62.1.35.35,0,0,0-.19.33c0,.3.26.45.79.45a1.13,1.13,0,0,0,.56-.12A.36.36,0,0,0,81.38,336.32Zm-.25-3.19a.66.66,0,0,0-.18-.49.55.55,0,0,0-.4-.18.52.52,0,0,0-.45.22.76.76,0,0,0-.16.46.64.64,0,0,0,.07.31.52.52,0,0,0,.2.24.62.62,0,0,0,.75-.11A.66.66,0,0,0,81.13,333.13Z" style="fill: #ededed" />
      <path d="M86.25,333.93H83.79a1,1,0,0,0,1,.83,2.93,2.93,0,0,0,1.38-.4v.87a3.42,3.42,0,0,1-.66.29,3,3,0,0,1-1,.13,2.11,2.11,0,0,1-1.1-.27,1.73,1.73,0,0,1-.68-.74,2.47,2.47,0,0,1-.22-1.07,2.31,2.31,0,0,1,.22-1,1.66,1.66,0,0,1,.68-.73,2.11,2.11,0,0,1,1.1-.26,1.84,1.84,0,0,1,.82.2,1.64,1.64,0,0,1,.66.69,2.54,2.54,0,0,1,.25,1.22Zm-1.16-.69a1,1,0,0,0-.17-.61.54.54,0,0,0-.48-.23.64.64,0,0,0-.5.23,1,1,0,0,0-.19.61Z" style="fill: #ededed" />
      <path d="M89.66,331.82l-.46,1.41a.81.81,0,0,0-.57-.3.56.56,0,0,0-.45.2,2,2,0,0,0-.37.74v1.71H86.57v-4h1.24v1a2.21,2.21,0,0,1,.41-.7.91.91,0,0,1,.7-.33.8.8,0,0,1,.36.07A1.88,1.88,0,0,1,89.66,331.82Z" style="fill: #ededed" />
    </g>
    <g>
      <path d="M29,335.2l-.27.11-.21.08-.29.09c-.22,0-.44.1-.65.13a5.12,5.12,0,0,1-.69,0,3,3,0,0,1-1.34-.3,2.25,2.25,0,0,1-1-.93,3,3,0,0,1-.37-1.56,3.57,3.57,0,0,1,.19-1.16,2,2,0,0,1,.58-.92,2.52,2.52,0,0,1,.65-.43,2.89,2.89,0,0,1,.65-.21,5,5,0,0,1,.7-.05,4.24,4.24,0,0,1,1,.11c.27.07.57.17.89.28v1.29a3,3,0,0,0-.68-.36,2.35,2.35,0,0,0-.9-.15,1.64,1.64,0,0,0-1,.27,1.38,1.38,0,0,0-.52.64,1.94,1.94,0,0,0-.15.72,1.72,1.72,0,0,0,.17.75,1.31,1.31,0,0,0,.51.56,1.51,1.51,0,0,0,.82.21,2.05,2.05,0,0,0,.58-.09v-.63h-.64V332.6H29Z" style="fill: #ededed" />
      <path d="M33.31,335.38a4.73,4.73,0,0,1-.5.2,1.79,1.79,0,0,1-.55.07.6.6,0,0,1-.43-.12.64.64,0,0,1-.17-.3,1.9,1.9,0,0,1-.44.3,1.49,1.49,0,0,1-.64.12,1.14,1.14,0,0,1-.62-.15.76.76,0,0,1-.33-.38,1.27,1.27,0,0,1-.09-.47,1,1,0,0,1,.16-.6,1.14,1.14,0,0,1,.44-.4,5,5,0,0,1,.73-.31l.39-.15.19-.07.14-.07a.85.85,0,0,0-.1-.46c-.07-.11-.22-.16-.45-.16a1.5,1.5,0,0,0-.75.2,2.86,2.86,0,0,0-.64.53v-1.08a2.18,2.18,0,0,1,.5-.31,2.81,2.81,0,0,1,.56-.18,2.94,2.94,0,0,1,.59,0,1.73,1.73,0,0,1,1.15.33,1.17,1.17,0,0,1,.38.92v1.53a.92.92,0,0,0,0,.33.13.13,0,0,0,.13.11.64.64,0,0,0,.31-.12Zm-1.72-.76v-.94a3.3,3.3,0,0,0-.64.37.5.5,0,0,0-.2.43.41.41,0,0,0,.1.31.3.3,0,0,0,.23.1.44.44,0,0,0,.26-.08A1.84,1.84,0,0,0,31.59,334.62Z" style="fill: #ededed" />
      <path d="M36.18,335.35a2.37,2.37,0,0,1-.53.2,2.19,2.19,0,0,1-.65.1c-.89,0-1.33-.49-1.33-1.48v-1.59h-.56v-.24l1.66-1.93h.14v1.2h1.18v1H34.91v1.28a1.78,1.78,0,0,0,0,.35.35.35,0,0,0,.14.23.5.5,0,0,0,.33.1,1.68,1.68,0,0,0,.78-.29Z" style="fill: #ededed" />
      <path d="M40,333.93H37.57a1,1,0,0,0,.35.6,1,1,0,0,0,.64.23,2.93,2.93,0,0,0,1.38-.4v.87a3.42,3.42,0,0,1-.66.29,3,3,0,0,1-1,.13,2.11,2.11,0,0,1-1.1-.27,1.73,1.73,0,0,1-.68-.74,2.47,2.47,0,0,1-.22-1.07,2.31,2.31,0,0,1,.22-1,1.66,1.66,0,0,1,.68-.73,2.11,2.11,0,0,1,1.1-.26,1.84,1.84,0,0,1,.82.2,1.64,1.64,0,0,1,.66.69,2.54,2.54,0,0,1,.25,1.22Zm-1.16-.69a1,1,0,0,0-.17-.61.54.54,0,0,0-.48-.23.64.64,0,0,0-.5.23,1,1,0,0,0-.19.61Z" style="fill: #ededed" />
    </g>
    <path d="M13.87,325.55v9.88a5.69,5.69,0,0,0,5.67,5.67H217.19c7.49,0,13.56-6,13.56-14.63V265.88l-.06-6.23c-.29-8.38-6.24-15.07-13.54-15.07H27.44c-7.31,0-13.25,6.69-13.55,15.07l-.06,6.23v-.76l.07,61.35" style="fill: none;stroke: #000;stroke-miterlimit: 10" />
    <path d="M13.84,271.09V280l0,9a5.67,5.67,0,0,0,5.65,5.67H49l115.64-.41,31.53.41h29a5.67,5.67,0,0,0,5.64-5.67V270" style="fill: #ededed;stroke: #000;stroke-miterlimit: 10" />
    <g>
      <path d="M27.53,287.92a3,3,0,0,1-.6.28,3.6,3.6,0,0,1-.63.15,4.51,4.51,0,0,1-.65,0,3,3,0,0,1-1.11-.2,2.3,2.3,0,0,1-.86-.58,2.45,2.45,0,0,1-.54-.89,3.33,3.33,0,0,1-.18-1.12,3.28,3.28,0,0,1,.21-1.22A2.44,2.44,0,0,1,24.64,283a3.22,3.22,0,0,1,1-.16,4.89,4.89,0,0,1,1.84.41v1.43a5.09,5.09,0,0,0-.7-.41,1.86,1.86,0,0,0-.81-.17,1.73,1.73,0,0,0-.78.19,1.5,1.5,0,0,0-.58.54,1.53,1.53,0,0,0-.22.81,1.61,1.61,0,0,0,.19.75,1.4,1.4,0,0,0,.54.54,1.43,1.43,0,0,0,.77.2,2.39,2.39,0,0,0,.66-.09,4.64,4.64,0,0,0,.52-.21c.14-.08.28-.18.43-.28Z" />
      <path d="M29.32,288.33H28.08v-5.42h1.24Z" />
      <path d="M33.75,286.33a2.39,2.39,0,0,1-.22,1.06,1.8,1.8,0,0,1-.68.74,2.4,2.4,0,0,1-2.21,0,1.71,1.71,0,0,1-.67-.74,2.39,2.39,0,0,1-.23-1.06,2.3,2.3,0,0,1,.13-.81,1.69,1.69,0,0,1,.38-.65,1.67,1.67,0,0,1,.63-.44,2.31,2.31,0,0,1,.86-.15,2.39,2.39,0,0,1,.88.15,1.9,1.9,0,0,1,.63.43,2.1,2.1,0,0,1,.38.65A2.66,2.66,0,0,1,33.75,286.33Zm-1.3,0a1.33,1.33,0,0,0-.18-.74.59.59,0,0,0-.53-.26.59.59,0,0,0-.52.26,1.33,1.33,0,0,0-.18.74,1.28,1.28,0,0,0,.19.75.58.58,0,0,0,.51.27.6.6,0,0,0,.53-.27A1.34,1.34,0,0,0,32.45,286.33Z" />
      <path d="M37.11,288.14a1.61,1.61,0,0,1-.33.12,3,3,0,0,1-.38.1,3.43,3.43,0,0,1-.47,0,1.93,1.93,0,0,1-1-.23,1.56,1.56,0,0,1-.61-.55,1.94,1.94,0,0,1-.3-.68,2.4,2.4,0,0,1,0-1.23,2.31,2.31,0,0,1,.29-.67,1.61,1.61,0,0,1,.61-.54,2,2,0,0,1,1-.22,2.68,2.68,0,0,1,.63.06,3.69,3.69,0,0,1,.5.17v1.1a3.16,3.16,0,0,0-1-.21.87.87,0,0,0-.59.22.9.9,0,0,0-.25.71,1,1,0,0,0,.13.53.82.82,0,0,0,.32.32.94.94,0,0,0,.39.1,1.7,1.7,0,0,0,.42-.06l.58-.18Z" />
      <path d="M41.59,288.33H40l-1.35-1.89v1.89H37.42v-5.42h1.25v3.18l1.23-1.74h1.49L40,286.2Z" />
    </g>
    <g>
      <path d="M72.91,288.33H71.37l-.38-1a4.3,4.3,0,0,0-.37-.77.91.91,0,0,0-.32-.31,1,1,0,0,0-.4-.07h-.17v2.12H68.3v-5.42h2.44a1.61,1.61,0,0,1,1,.27,1.75,1.75,0,0,1,.55.67,1.9,1.9,0,0,1,.16.74,1.47,1.47,0,0,1-.14.69,1.33,1.33,0,0,1-.29.42,3.53,3.53,0,0,1-.35.24,1.31,1.31,0,0,1,.38.36,4.48,4.48,0,0,1,.41.85Zm-2-3.71a.57.57,0,0,0-.22-.52A1.25,1.25,0,0,0,70,284h-.31v1.3H70a1.36,1.36,0,0,0,.72-.13A.55.55,0,0,0,71,284.62Z" />
      <path d="M76.67,286.68H74.2a1,1,0,0,0,1,.82,3,3,0,0,0,1.38-.4V288a2.9,2.9,0,0,1-.66.29,3.06,3.06,0,0,1-1,.14,2.14,2.14,0,0,1-1.1-.28,1.71,1.71,0,0,1-.67-.74,2.43,2.43,0,0,1-.23-1.06,2.38,2.38,0,0,1,.23-1.05,1.69,1.69,0,0,1,.67-.73,2.24,2.24,0,0,1,1.1-.26,1.76,1.76,0,0,1,.83.21,1.59,1.59,0,0,1,.65.68,2.61,2.61,0,0,1,.26,1.23Zm-1.16-.7a1,1,0,0,0-.17-.61.56.56,0,0,0-.48-.23.63.63,0,0,0-.5.23.93.93,0,0,0-.19.61Z" />
      <path d="M79.73,287.17a1.17,1.17,0,0,1-.35.88,1.46,1.46,0,0,1-1,.35,2.84,2.84,0,0,1-.69-.08,6.6,6.6,0,0,1-.66-.23v-1a5.78,5.78,0,0,0,.54.31,1.25,1.25,0,0,0,.51.1c.31,0,.46-.1.46-.29a.27.27,0,0,0-.06-.17,1.07,1.07,0,0,0-.24-.17c-.11-.07-.26-.14-.44-.23a1.92,1.92,0,0,1-.59-.46,1.09,1.09,0,0,1-.24-.71,1.17,1.17,0,0,1,.16-.57,1.26,1.26,0,0,1,.49-.45,1.67,1.67,0,0,1,.78-.17,1.58,1.58,0,0,1,.28,0,2.55,2.55,0,0,1,.43.09,2.33,2.33,0,0,1,.49.21v1l-.19-.12a.78.78,0,0,0-.19-.12,2,2,0,0,0-.29-.11,1.34,1.34,0,0,0-.35-.05.35.35,0,0,0-.29.1.29.29,0,0,0-.08.18.26.26,0,0,0,.09.19,1.28,1.28,0,0,0,.36.2,3.23,3.23,0,0,1,.66.37,1.16,1.16,0,0,1,.36.42A1.27,1.27,0,0,1,79.73,287.17Z" />
      <path d="M83.71,286.68H81.24a1,1,0,0,0,.36.59,1,1,0,0,0,.64.23,3,3,0,0,0,1.38-.4V288a2.9,2.9,0,0,1-.66.29,3,3,0,0,1-1,.14,2.11,2.11,0,0,1-1.1-.28,1.67,1.67,0,0,1-.68-.74,2.43,2.43,0,0,1-.23-1.06,2.38,2.38,0,0,1,.23-1.05,1.65,1.65,0,0,1,.68-.73,2.21,2.21,0,0,1,1.1-.26,1.75,1.75,0,0,1,.82.21,1.59,1.59,0,0,1,.65.68,2.61,2.61,0,0,1,.26,1.23Zm-1.16-.7a1,1,0,0,0-.17-.61.56.56,0,0,0-.48-.23.63.63,0,0,0-.5.23.93.93,0,0,0-.19.61Z" />
      <path d="M86.8,288.09a2.43,2.43,0,0,1-.54.21,2.5,2.5,0,0,1-.64.1c-.9,0-1.34-.5-1.34-1.49v-1.58h-.56v-.25l1.66-1.92h.14v1.19H86.7v1H85.52v1.27a3.21,3.21,0,0,0,0,.36.43.43,0,0,0,.14.23.53.53,0,0,0,.34.09,1.8,1.8,0,0,0,.78-.28Z" />
    </g>
    <g>
      <path d="M108.35,286.75a1.58,1.58,0,0,1-.23.88,1.45,1.45,0,0,1-.63.57,2.2,2.2,0,0,1-.94.2l-.36,0a2.85,2.85,0,0,1-.58-.12,4.58,4.58,0,0,1-.74-.28v-1.33a4.88,4.88,0,0,0,.71.42,1.79,1.79,0,0,0,.75.17.61.61,0,0,0,.48-.14.45.45,0,0,0,.11-.26.47.47,0,0,0-.19-.37,2.5,2.5,0,0,0-.54-.31,4.49,4.49,0,0,1-.69-.41,2,2,0,0,1-.48-.55,1.62,1.62,0,0,1-.19-.79,1.74,1.74,0,0,1,.19-.79,1.43,1.43,0,0,1,.58-.56,2,2,0,0,1,1-.21,3.5,3.5,0,0,1,.74.08,3.09,3.09,0,0,1,.55.2,2.36,2.36,0,0,1,.31.17v1.27a3.62,3.62,0,0,0-.65-.42,1.6,1.6,0,0,0-.77-.19.54.54,0,0,0-.39.12.38.38,0,0,0-.12.29.36.36,0,0,0,.12.27,1.82,1.82,0,0,0,.43.29,7.49,7.49,0,0,1,.88.53,1.78,1.78,0,0,1,.52.54A1.47,1.47,0,0,1,108.35,286.75Z" />
      <path d="M111.61,288.09a2.43,2.43,0,0,1-.54.21,2.5,2.5,0,0,1-.64.1c-.9,0-1.34-.5-1.34-1.49v-1.58h-.56v-.25l1.66-1.92h.14v1.19h1.18v1h-1.18v1.27a3.21,3.21,0,0,0,0,.36.43.43,0,0,0,.14.23.53.53,0,0,0,.34.09,1.8,1.8,0,0,0,.78-.28Z" />
      <path d="M115.5,288.13a4.67,4.67,0,0,1-.51.19,1.73,1.73,0,0,1-.55.08.58.58,0,0,1-.42-.13.65.65,0,0,1-.18-.3,1.67,1.67,0,0,1-.44.31,1.46,1.46,0,0,1-.64.12,1.26,1.26,0,0,1-.62-.15,1,1,0,0,1-.33-.38,1.31,1.31,0,0,1-.09-.47,1,1,0,0,1,.16-.61,1.28,1.28,0,0,1,.44-.39,4.36,4.36,0,0,1,.73-.32l.39-.14.2-.08.13-.07a.83.83,0,0,0-.1-.45.5.5,0,0,0-.45-.17,1.42,1.42,0,0,0-.75.21,2.57,2.57,0,0,0-.63.52v-1.08a2.53,2.53,0,0,1,.49-.31,2.78,2.78,0,0,1,.56-.17,3.05,3.05,0,0,1,.6-.06,1.72,1.72,0,0,1,1.14.33,1.18,1.18,0,0,1,.38.92v1.54a.89.89,0,0,0,0,.32.14.14,0,0,0,.13.11.8.8,0,0,0,.32-.11Zm-1.73-.77v-.94a3.64,3.64,0,0,0-.64.37.54.54,0,0,0-.2.44.4.4,0,0,0,.1.3.34.34,0,0,0,.24.11.52.52,0,0,0,.25-.08A2.19,2.19,0,0,0,113.77,287.36Z" />
      <path d="M118.68,284.56l-.46,1.41a.81.81,0,0,0-.57-.3.62.62,0,0,0-.45.2,2,2,0,0,0-.37.74v1.72H115.6v-4h1.23v1a1.94,1.94,0,0,1,.42-.69.86.86,0,0,1,.69-.34.87.87,0,0,1,.37.07A4,4,0,0,1,118.68,284.56Z" />
      <path d="M121.55,288.09a2.15,2.15,0,0,1-.53.21,2.5,2.5,0,0,1-.65.1c-.89,0-1.33-.5-1.33-1.49v-1.58h-.56v-.25l1.66-1.92h.14v1.19h1.18v1h-1.18v1.27a3.21,3.21,0,0,0,0,.36.37.37,0,0,0,.14.23.53.53,0,0,0,.34.09,1.77,1.77,0,0,0,.77-.28Z" />
      <path d="M125,282.84l-2.59,5.56h-.92l2.58-5.56Z" />
      <path d="M128.79,286.75a1.67,1.67,0,0,1-.23.88,1.42,1.42,0,0,1-.64.57,2.12,2.12,0,0,1-.93.2l-.37,0a2.92,2.92,0,0,1-.57-.12,4.58,4.58,0,0,1-.74-.28v-1.33a4.88,4.88,0,0,0,.71.42,1.72,1.72,0,0,0,.75.17.64.64,0,0,0,.48-.14.43.43,0,0,0,.1-.26.46.46,0,0,0-.18-.37,3.11,3.11,0,0,0-.54-.31,4.49,4.49,0,0,1-.69-.41,1.69,1.69,0,0,1-.48-.55,1.52,1.52,0,0,1-.19-.79,1.62,1.62,0,0,1,.19-.79,1.43,1.43,0,0,1,.58-.56,2,2,0,0,1,.95-.21,3.33,3.33,0,0,1,.73.08,3.23,3.23,0,0,1,.56.2,1.63,1.63,0,0,1,.3.17v1.27a3.3,3.3,0,0,0-.65-.42,1.57,1.57,0,0,0-.77-.19.52.52,0,0,0-.38.12.38.38,0,0,0-.12.29.36.36,0,0,0,.12.27,1.82,1.82,0,0,0,.43.29,7.49,7.49,0,0,1,.88.53,1.63,1.63,0,0,1,.51.54A1.38,1.38,0,0,1,128.79,286.75Z" />
      <path d="M132,288.09a2.32,2.32,0,0,1-.53.21,2.5,2.5,0,0,1-.65.1c-.89,0-1.33-.5-1.33-1.49v-1.58H129v-.25l1.66-1.92h.14v1.19H132v1h-1.18v1.27a1.84,1.84,0,0,0,0,.36.37.37,0,0,0,.14.23.51.51,0,0,0,.34.09A1.77,1.77,0,0,0,132,287Z" />
      <path d="M136.17,286.33a2.39,2.39,0,0,1-.23,1.06,1.73,1.73,0,0,1-.68.74,2.38,2.38,0,0,1-2.2,0,1.73,1.73,0,0,1-.68-.74,2.39,2.39,0,0,1-.22-1.06,2.55,2.55,0,0,1,.12-.81,1.69,1.69,0,0,1,.38-.65,1.67,1.67,0,0,1,.63-.44,2.6,2.6,0,0,1,1.74,0,1.72,1.72,0,0,1,.63.43,1.77,1.77,0,0,1,.38.65A2.39,2.39,0,0,1,136.17,286.33Zm-1.31,0a1.33,1.33,0,0,0-.18-.74.65.65,0,0,0-1,0,1.33,1.33,0,0,0-.18.74,1.36,1.36,0,0,0,.18.75.64.64,0,0,0,1,0A1.34,1.34,0,0,0,134.86,286.33Z" />
      <path d="M140.37,286.31a2.8,2.8,0,0,1-.1.77,2.15,2.15,0,0,1-.3.67,1.41,1.41,0,0,1-.53.47,1.49,1.49,0,0,1-.75.18,1.32,1.32,0,0,1-.54-.09,1.54,1.54,0,0,1-.39-.22v2h-1.24v-5.78h1.24v.36a1.77,1.77,0,0,1,.41-.31,1.29,1.29,0,0,1,.61-.12,1.52,1.52,0,0,1,.75.21,1.64,1.64,0,0,1,.6.67A2.48,2.48,0,0,1,140.37,286.31Zm-1.3,0a1.37,1.37,0,0,0-.1-.58.74.74,0,0,0-.26-.33.64.64,0,0,0-.33-.1.8.8,0,0,0-.36.08,1.64,1.64,0,0,0-.26.2v1.52l.14.09.15.09.15.05.18,0a.59.59,0,0,0,.49-.28A1.35,1.35,0,0,0,139.07,286.34Z" />
    </g>
    <g>
      <path d="M206.5,288.33H205l-.37-1a4.3,4.3,0,0,0-.37-.77.91.91,0,0,0-.32-.31,1,1,0,0,0-.41-.07h-.16v2.12h-1.44v-5.42h2.45a1.53,1.53,0,0,1,1.51.94,1.93,1.93,0,0,1,.17.74,1.6,1.6,0,0,1-.14.69,1.33,1.33,0,0,1-.29.42l-.35.24a1.45,1.45,0,0,1,.38.36,5.21,5.21,0,0,1,.41.85Zm-2-3.71a.59.59,0,0,0-.21-.52,1.29,1.29,0,0,0-.71-.15h-.3v1.3h.31a1.36,1.36,0,0,0,.72-.13A.55.55,0,0,0,204.54,284.62Z" />
      <path d="M210.53,286.33a2.39,2.39,0,0,1-.23,1.06,1.73,1.73,0,0,1-.68.74,2.38,2.38,0,0,1-2.2,0,1.73,1.73,0,0,1-.68-.74,2.39,2.39,0,0,1-.22-1.06,2.55,2.55,0,0,1,.12-.81,1.83,1.83,0,0,1,.38-.65,1.79,1.79,0,0,1,.64-.44,2.28,2.28,0,0,1,.86-.15,2.42,2.42,0,0,1,.88.15,1.68,1.68,0,0,1,1,1.08A2.39,2.39,0,0,1,210.53,286.33Zm-1.3,0a1.33,1.33,0,0,0-.18-.74.6.6,0,0,0-.53-.26.59.59,0,0,0-.52.26,1.33,1.33,0,0,0-.18.74,1.36,1.36,0,0,0,.18.75.59.59,0,0,0,.52.27.61.61,0,0,0,.53-.27A1.34,1.34,0,0,0,209.23,286.33Z" />
      <path d="M213.65,288.09a2.53,2.53,0,0,1-.53.21,2.57,2.57,0,0,1-.65.1c-.89,0-1.34-.5-1.34-1.49v-1.58h-.56v-.25l1.66-1.92h.15v1.19h1.18v1h-1.18v1.27a1.84,1.84,0,0,0,0,.36.37.37,0,0,0,.14.23.5.5,0,0,0,.33.09,1.76,1.76,0,0,0,.78-.28Z" />
      <path d="M217.54,288.13c-.18.08-.35.14-.5.19a1.77,1.77,0,0,1-.55.08.59.59,0,0,1-.43-.13.64.64,0,0,1-.17-.3,1.57,1.57,0,0,1-.45.31,1.41,1.41,0,0,1-.63.12,1.23,1.23,0,0,1-.62-.15.85.85,0,0,1-.33-.38,1.32,1.32,0,0,1-.1-.47,1,1,0,0,1,.17-.61,1.19,1.19,0,0,1,.44-.39,4.21,4.21,0,0,1,.72-.32l.39-.14.2-.08.14-.07a.83.83,0,0,0-.1-.45.5.5,0,0,0-.45-.17,1.42,1.42,0,0,0-.75.21,2.61,2.61,0,0,0-.64.52v-1.08a2.33,2.33,0,0,1,.5-.31,2.78,2.78,0,0,1,.56-.17,2.88,2.88,0,0,1,.59-.06,1.69,1.69,0,0,1,1.14.33,1.16,1.16,0,0,1,.39.92v1.54a1.27,1.27,0,0,0,0,.32c0,.07.07.11.14.11a.77.77,0,0,0,.31-.11Zm-1.72-.77v-.94a3.3,3.3,0,0,0-.64.37.52.52,0,0,0-.21.44.41.41,0,0,0,.11.3.3.3,0,0,0,.23.11.46.46,0,0,0,.25-.08A2.26,2.26,0,0,0,215.82,287.36Z" />
      <path d="M220.41,288.09a2.53,2.53,0,0,1-.53.21,2.57,2.57,0,0,1-.65.1c-.89,0-1.34-.5-1.34-1.49v-1.58h-.56v-.25l1.66-1.92h.14v1.19h1.19v1h-1.19v1.27a1.73,1.73,0,0,0,0,.36.36.36,0,0,0,.13.23.55.55,0,0,0,.34.09,1.76,1.76,0,0,0,.78-.28Z" />
      <path d="M224.26,286.68h-2.47a1,1,0,0,0,.36.59,1,1,0,0,0,.64.23,3,3,0,0,0,1.38-.4V288a2.9,2.9,0,0,1-.66.29,3,3,0,0,1-1,.14,2.11,2.11,0,0,1-1.1-.28,1.67,1.67,0,0,1-.68-.74,2.43,2.43,0,0,1-.23-1.06,2.38,2.38,0,0,1,.23-1.05,1.65,1.65,0,0,1,.68-.73,2.21,2.21,0,0,1,1.1-.26,1.72,1.72,0,0,1,.82.21,1.59,1.59,0,0,1,.65.68,2.61,2.61,0,0,1,.26,1.23Zm-1.16-.7a1,1,0,0,0-.17-.61.56.56,0,0,0-.48-.23.63.63,0,0,0-.5.23.93.93,0,0,0-.19.61Z" />
    </g>
    <g>
      <path d="M164.63,287.94l-.27.11-.21.08-.29.09a5.13,5.13,0,0,1-.66.13,4.83,4.83,0,0,1-.68,0,2.9,2.9,0,0,1-1.34-.31,2.33,2.33,0,0,1-1-.93,3.09,3.09,0,0,1-.37-1.55,3.87,3.87,0,0,1,.19-1.17,2.12,2.12,0,0,1,.59-.92,2.52,2.52,0,0,1,.65-.43,2.42,2.42,0,0,1,.65-.2,3.78,3.78,0,0,1,.7-.05,4.36,4.36,0,0,1,1,.1c.27.08.57.17.89.29v1.28a4,4,0,0,0-.68-.36,2.35,2.35,0,0,0-.9-.15,1.67,1.67,0,0,0-1,.27,1.44,1.44,0,0,0-.52.64,2.13,2.13,0,0,0-.14.72,1.63,1.63,0,0,0,.17.76,1.32,1.32,0,0,0,.5.55,1.57,1.57,0,0,0,.83.21,2.45,2.45,0,0,0,.58-.08v-.64h-.65v-1.09h1.91Z" />
      <path d="M168.9,288.13c-.18.08-.35.14-.5.19a1.77,1.77,0,0,1-.55.08.59.59,0,0,1-.43-.13.64.64,0,0,1-.17-.3,1.57,1.57,0,0,1-.45.31,1.41,1.41,0,0,1-.63.12,1.23,1.23,0,0,1-.62-.15.85.85,0,0,1-.33-.38,1.32,1.32,0,0,1-.1-.47,1,1,0,0,1,.17-.61,1.19,1.19,0,0,1,.44-.39,4.21,4.21,0,0,1,.72-.32l.39-.14.2-.08.14-.07a.83.83,0,0,0-.1-.45.5.5,0,0,0-.45-.17,1.42,1.42,0,0,0-.75.21,2.61,2.61,0,0,0-.64.52v-1.08a2.33,2.33,0,0,1,.5-.31,2.78,2.78,0,0,1,.56-.17,2.88,2.88,0,0,1,.59-.06,1.69,1.69,0,0,1,1.14.33,1.16,1.16,0,0,1,.39.92v1.54a1.27,1.27,0,0,0,0,.32c0,.07.07.11.14.11a.77.77,0,0,0,.31-.11Zm-1.72-.77v-.94a3.3,3.3,0,0,0-.64.37.52.52,0,0,0-.21.44.41.41,0,0,0,.11.3.3.3,0,0,0,.23.11.46.46,0,0,0,.25-.08A2.26,2.26,0,0,0,167.18,287.36Z" />
      <path d="M171.77,288.09a2.53,2.53,0,0,1-.53.21,2.57,2.57,0,0,1-.65.1c-.89,0-1.34-.5-1.34-1.49v-1.58h-.56v-.25l1.66-1.92h.14v1.19h1.19v1h-1.19v1.27a1.73,1.73,0,0,0,0,.36.36.36,0,0,0,.13.23.55.55,0,0,0,.34.09,1.76,1.76,0,0,0,.78-.28Z" />
      <path d="M175.62,286.68h-2.46a.93.93,0,0,0,.35.59,1,1,0,0,0,.64.23,2.93,2.93,0,0,0,1.38-.4V288a2.9,2.9,0,0,1-.66.29,3,3,0,0,1-1,.14,2.11,2.11,0,0,1-1.1-.28,1.67,1.67,0,0,1-.68-.74,2.43,2.43,0,0,1-.23-1.06,2.38,2.38,0,0,1,.23-1.05,1.65,1.65,0,0,1,.68-.73,2.21,2.21,0,0,1,1.1-.26,1.72,1.72,0,0,1,.82.21,1.59,1.59,0,0,1,.65.68,2.61,2.61,0,0,1,.26,1.23Zm-1.16-.7a1,1,0,0,0-.17-.61.56.56,0,0,0-.48-.23.64.64,0,0,0-.5.23.93.93,0,0,0-.19.61Z" />
    </g>
    <g id="pips_-_fewest-6" data-name="pips - fewest">
      <g style="clip-path: url(#clip-path-11)">
        <g style="clip-path: url(#clip-path-11)">
          <path d="M218.46,159.36l.72-1.23a13.72,13.72,0,0,0-5.77-1.55V158a12.31,12.31,0,0,1,5.05,1.35" />
          <path d="M223.26,163.7l1.24-.71a14,14,0,0,0-4.23-4.23l-.71,1.23a12.58,12.58,0,0,1,3.7,3.71" />
          <path d="M206,160l-.71-1.23a14.07,14.07,0,0,0-4.23,4.22l1.23.72A12.62,12.62,0,0,1,206,160" />
          <path d="M225.25,169.85h1.43a14,14,0,0,0-1.55-5.77l-1.23.71a12.51,12.51,0,0,1,1.35,5.06" />
          <path d="M212.14,158v-1.43a13.72,13.72,0,0,0-5.77,1.55l.71,1.23a12.35,12.35,0,0,1,5.06-1.35" />
          <path d="M202.28,177.27l-1.23.71a14.07,14.07,0,0,0,4.22,4.23L206,181a12.58,12.58,0,0,1-3.71-3.7" />
          <path d="M219.56,181l.71,1.24A14,14,0,0,0,224.5,178l-1.24-.71a12.55,12.55,0,0,1-3.7,3.7" />
          <path d="M225.25,171.12a12.46,12.46,0,0,1-1.35,5l1.23.72a14,14,0,0,0,1.55-5.77Z" />
          <path d="M200.3,171.12h-1.43a13.72,13.72,0,0,0,1.55,5.77l1.23-.72a12.31,12.31,0,0,1-1.35-5" />
          <path d="M201.65,164.79l-1.23-.71a13.72,13.72,0,0,0-1.55,5.77h1.43a12.35,12.35,0,0,1,1.35-5.06" />
        </g>
      </g>
    </g>
    <g>
      <path d="M205.48,190.75a4,4,0,0,1-.6.28,3.6,3.6,0,0,1-.63.15,4.63,4.63,0,0,1-.65,0,3,3,0,0,1-1.12-.19,2.47,2.47,0,0,1-.85-.58,2.45,2.45,0,0,1-.54-.89,3.1,3.1,0,0,1-.19-1.12,3.24,3.24,0,0,1,.22-1.22,2.48,2.48,0,0,1,.59-.88,2.51,2.51,0,0,1,.88-.51,3.18,3.18,0,0,1,1-.17,5.14,5.14,0,0,1,1.84.41v1.44a5.89,5.89,0,0,0-.7-.42,1.86,1.86,0,0,0-.81-.16,1.61,1.61,0,0,0-.78.19,1.48,1.48,0,0,0-.58.53,1.45,1.45,0,0,0-.22.81,1.51,1.51,0,0,0,.19.76,1.47,1.47,0,0,0,.54.54,1.5,1.5,0,0,0,.77.2,2,2,0,0,0,.65-.1,2.66,2.66,0,0,0,.53-.21,4.46,4.46,0,0,0,.43-.28Z" />
      <path d="M209.7,191.15h-1.24V189a1.27,1.27,0,0,0-.1-.52.41.41,0,0,0-.41-.24.57.57,0,0,0-.41.18,2.4,2.4,0,0,0-.34.45v2.33H206v-5.41h1.24v2a1.7,1.7,0,0,1,.6-.51,1.53,1.53,0,0,1,.64-.14c.84,0,1.26.54,1.26,1.61Z" />
      <path d="M213.79,191l-.5.2a1.86,1.86,0,0,1-.56.07.59.59,0,0,1-.42-.12.64.64,0,0,1-.17-.3,2.21,2.21,0,0,1-.45.3,1.43,1.43,0,0,1-.64.12,1.1,1.1,0,0,1-.61-.15.8.8,0,0,1-.33-.38,1.1,1.1,0,0,1-.1-.47,1.15,1.15,0,0,1,.16-.61,1.28,1.28,0,0,1,.44-.39,4.84,4.84,0,0,1,.73-.31l.39-.15.2-.07.14-.07a.84.84,0,0,0-.11-.46c-.07-.11-.21-.16-.44-.16a1.57,1.57,0,0,0-.76.2,2.61,2.61,0,0,0-.63.53v-1.08a2,2,0,0,1,.5-.31,2.45,2.45,0,0,1,.56-.18,2.88,2.88,0,0,1,.59-.06,1.7,1.7,0,0,1,1.14.34,1.14,1.14,0,0,1,.38.92v1.53a1.22,1.22,0,0,0,0,.33.14.14,0,0,0,.13.11.67.67,0,0,0,.32-.12Zm-1.72-.76v-.94a3.51,3.51,0,0,0-.65.36.56.56,0,0,0-.2.44.46.46,0,0,0,.1.31.33.33,0,0,0,.24.1.41.41,0,0,0,.25-.08A1.88,1.88,0,0,0,212.07,190.19Z" />
      <path d="M217.63,191.15h-1.24V189a1.72,1.72,0,0,0-.09-.58.39.39,0,0,0-.41-.24.6.6,0,0,0-.27.06.87.87,0,0,0-.21.17,1.3,1.3,0,0,0-.15.2l-.13.2v2.33H213.9v-4h1.23v.58a1.75,1.75,0,0,1,.59-.5,1.41,1.41,0,0,1,.65-.15c.84,0,1.26.57,1.26,1.72Z" />
      <path d="M221.09,191l-.33.12a1.93,1.93,0,0,1-.38.09,2.35,2.35,0,0,1-.47,0,1.93,1.93,0,0,1-1-.22,1.64,1.64,0,0,1-.61-.55,2,2,0,0,1-.3-.69,2.37,2.37,0,0,1,0-1.22,2.2,2.2,0,0,1,.29-.67,1.72,1.72,0,0,1,.61-.55,2.06,2.06,0,0,1,1-.22,2.61,2.61,0,0,1,.63.07,2.69,2.69,0,0,1,.5.17v1.1a3.24,3.24,0,0,0-.95-.22.83.83,0,0,0-.84.93,1,1,0,0,0,.13.53.71.71,0,0,0,.32.32.81.81,0,0,0,.39.1,1.76,1.76,0,0,0,.42-.06l.58-.18Z" />
      <path d="M225,189.5h-2.47a1,1,0,0,0,1,.83,3.08,3.08,0,0,0,1.38-.4v.87a3.42,3.42,0,0,1-.66.29,3,3,0,0,1-1,.13,2.11,2.11,0,0,1-1.1-.27,1.67,1.67,0,0,1-.68-.74,2.47,2.47,0,0,1-.23-1.07,2.38,2.38,0,0,1,.23-1,1.63,1.63,0,0,1,.68-.72,2.11,2.11,0,0,1,1.1-.27,1.72,1.72,0,0,1,.82.21,1.62,1.62,0,0,1,.65.69,2.54,2.54,0,0,1,.26,1.22Zm-1.16-.69a1,1,0,0,0-.17-.61.54.54,0,0,0-.48-.23.63.63,0,0,0-.5.23.93.93,0,0,0-.19.61Z" />
    </g>
    <g id="pips_-_fewest-7" data-name="pips - fewest">
      <g style="clip-path: url(#clip-path-13)">
        <g style="clip-path: url(#clip-path-13)">
          <path d="M37.68,200.56l.71-1.24a13.82,13.82,0,0,0-5.77-1.54v1.43a12.31,12.31,0,0,1,5.06,1.35" />
          <path d="M42.48,204.89l1.23-.71A13.92,13.92,0,0,0,39.49,200l-.71,1.23a12.55,12.55,0,0,1,3.7,3.7" />
          <path d="M25.2,201.19,24.49,200a13.92,13.92,0,0,0-4.22,4.22l1.23.71a12.55,12.55,0,0,1,3.7-3.7" />
          <path d="M44.46,211.05h1.43a13.82,13.82,0,0,0-1.54-5.77l-1.24.71a12.31,12.31,0,0,1,1.35,5.06" />
          <path d="M31.36,199.21v-1.43a13.82,13.82,0,0,0-5.77,1.54l.71,1.24a12.31,12.31,0,0,1,5.06-1.35" />
          <path d="M21.5,218.47l-1.23.71a13.92,13.92,0,0,0,4.22,4.22l.71-1.23a12.55,12.55,0,0,1-3.7-3.7" />
          <path d="M38.78,222.17l.71,1.23a13.92,13.92,0,0,0,4.22-4.22l-1.23-.71a12.55,12.55,0,0,1-3.7,3.7" />
          <path d="M44.46,212.31a12.31,12.31,0,0,1-1.35,5.06l1.24.71a13.82,13.82,0,0,0,1.54-5.77Z" />
          <path d="M19.52,212.31H18.09a13.82,13.82,0,0,0,1.54,5.77l1.24-.71a12.31,12.31,0,0,1-1.35-5.06" />
          <path d="M20.87,206l-1.24-.71a13.82,13.82,0,0,0-1.54,5.77h1.43A12.31,12.31,0,0,1,20.87,206" />
        </g>
      </g>
    </g>
    <g>
      <path d="M29,232.35H27.43l-.38-1a3.7,3.7,0,0,0-.37-.77.87.87,0,0,0-.32-.32,1.1,1.1,0,0,0-.4-.07H25.8v2.12H24.36v-5.42H26.8a1.62,1.62,0,0,1,1,.28,1.58,1.58,0,0,1,.55.66,1.9,1.9,0,0,1,.16.74,1.48,1.48,0,0,1-.14.7,1.27,1.27,0,0,1-.29.41,2.38,2.38,0,0,1-.35.24,1.49,1.49,0,0,1,.38.37,4.62,4.62,0,0,1,.41.84ZM27,228.64a.57.57,0,0,0-.22-.52,1.25,1.25,0,0,0-.7-.15h-.3v1.31h.3a1.42,1.42,0,0,0,.72-.13A.58.58,0,0,0,27,228.64Z" />
      <path d="M33,230.36a2.38,2.38,0,0,1-.22,1,1.73,1.73,0,0,1-.68.74,2.11,2.11,0,0,1-1.1.27,2.15,2.15,0,0,1-1.11-.27,1.71,1.71,0,0,1-.67-.74,2.38,2.38,0,0,1-.23-1,2.35,2.35,0,0,1,.13-.82,1.86,1.86,0,0,1,.38-.65,1.67,1.67,0,0,1,.63-.44,2.33,2.33,0,0,1,.87-.15,2.14,2.14,0,0,1,.87.16,1.65,1.65,0,0,1,.63.43,1.83,1.83,0,0,1,.38.65A2.62,2.62,0,0,1,33,230.36Zm-1.3,0a1.28,1.28,0,0,0-.18-.74.64.64,0,0,0-1,0,1.28,1.28,0,0,0-.18.74,1.33,1.33,0,0,0,.18.74.64.64,0,0,0,1,0A1.33,1.33,0,0,0,31.7,230.36Z" />
      <path d="M37.23,230.36a2.38,2.38,0,0,1-.23,1,1.73,1.73,0,0,1-.68.74,2.38,2.38,0,0,1-2.2,0,1.73,1.73,0,0,1-.68-.74,2.38,2.38,0,0,1-.22-1,2.62,2.62,0,0,1,.12-.82,2,2,0,0,1,.38-.65,1.79,1.79,0,0,1,.64-.44,2.28,2.28,0,0,1,.86-.15,2.23,2.23,0,0,1,.88.16,1.65,1.65,0,0,1,.63.43,1.81,1.81,0,0,1,.37.65A2.35,2.35,0,0,1,37.23,230.36Zm-1.3,0a1.28,1.28,0,0,0-.18-.74.6.6,0,0,0-.53-.27.58.58,0,0,0-.52.27,1.28,1.28,0,0,0-.18.74,1.33,1.33,0,0,0,.18.74.65.65,0,0,0,1,0A1.33,1.33,0,0,0,35.93,230.36Z" />
      <path d="M40.35,232.12a2.58,2.58,0,0,1-.53.2,2.19,2.19,0,0,1-.65.1c-.89,0-1.34-.5-1.34-1.49v-1.58h-.56v-.25l1.66-1.92h.14v1.19h1.19v1H39.07v1.27a1.73,1.73,0,0,0,0,.36.36.36,0,0,0,.13.23.55.55,0,0,0,.34.09,1.64,1.64,0,0,0,.78-.28Z" />
    </g>
    <g id="pips_-_fewest-8" data-name="pips - fewest">
      <g style="clip-path: url(#clip-path-15)">
        <g style="clip-path: url(#clip-path-16)">
          <path d="M218.46,200.56l.72-1.24a13.86,13.86,0,0,0-5.77-1.54v1.43a12.31,12.31,0,0,1,5.05,1.35" />
          <path d="M223.26,204.89l1.24-.71a14,14,0,0,0-4.23-4.22l-.71,1.23a12.55,12.55,0,0,1,3.7,3.7" />
          <path d="M206,201.19l-.71-1.23a14,14,0,0,0-4.23,4.22l1.23.71a12.58,12.58,0,0,1,3.71-3.7" />
          <path d="M225.25,211.05h1.43a14,14,0,0,0-1.55-5.77l-1.23.71a12.47,12.47,0,0,1,1.35,5.06" />
          <path d="M212.14,199.21v-1.43a13.86,13.86,0,0,0-5.77,1.54l.71,1.24a12.35,12.35,0,0,1,5.06-1.35" />
          <path d="M202.28,218.47l-1.23.71a14,14,0,0,0,4.22,4.22l.72-1.23a12.58,12.58,0,0,1-3.71-3.7" />
          <path d="M219.56,222.17l.71,1.23a14,14,0,0,0,4.23-4.22l-1.24-.71a12.55,12.55,0,0,1-3.7,3.7" />
          <path d="M225.25,212.31a12.47,12.47,0,0,1-1.35,5.06l1.23.71a14,14,0,0,0,1.55-5.77Z" />
          <path d="M200.3,212.31h-1.43a13.68,13.68,0,0,0,1.55,5.77l1.23-.71a12.31,12.31,0,0,1-1.35-5.06" />
          <path d="M201.65,206l-1.23-.71a13.68,13.68,0,0,0-1.55,5.77h1.43a12.31,12.31,0,0,1,1.35-5.06" />
        </g>
      </g>
    </g>
    <g>
      <path d="M206.09,232.35h-1.54l-.37-1a4.3,4.3,0,0,0-.37-.77.82.82,0,0,0-.33-.32,1.06,1.06,0,0,0-.4-.07h-.16v2.12h-1.44v-5.42h2.45a1.66,1.66,0,0,1,1,.28,1.55,1.55,0,0,1,.54.66,1.93,1.93,0,0,1,.17.74,1.62,1.62,0,0,1-.14.7,1.15,1.15,0,0,1-.3.41,2.27,2.27,0,0,1-.34.24,1.67,1.67,0,0,1,.38.37,4.8,4.8,0,0,1,.4.84Zm-2-3.71a.59.59,0,0,0-.21-.52,1.29,1.29,0,0,0-.71-.15h-.3v1.31h.31a1.47,1.47,0,0,0,.72-.13A.58.58,0,0,0,204.14,228.64Z" />
      <path d="M209.85,230.7h-2.46a1,1,0,0,0,.35.59,1,1,0,0,0,.64.23,3,3,0,0,0,1.38-.39V232a4.18,4.18,0,0,1-.66.29,3,3,0,0,1-1,.13,2,2,0,0,1-1.1-.28,1.73,1.73,0,0,1-.68-.74,2.64,2.64,0,0,1,0-2.11,1.71,1.71,0,0,1,.68-.73,2.21,2.21,0,0,1,1.1-.26,1.72,1.72,0,0,1,.82.21,1.67,1.67,0,0,1,.66.68,2.61,2.61,0,0,1,.25,1.23Zm-1.16-.7a1,1,0,0,0-.17-.61.56.56,0,0,0-.48-.23.62.62,0,0,0-.5.24.94.94,0,0,0-.19.6Z" />
      <path d="M214,230.33a2.8,2.8,0,0,1-.1.77,1.94,1.94,0,0,1-.3.67,1.41,1.41,0,0,1-.53.47,1.49,1.49,0,0,1-.75.18,1.62,1.62,0,0,1-.54-.08,2.56,2.56,0,0,1-.39-.22v2h-1.24v-5.79h1.24v.36a2.1,2.1,0,0,1,.41-.31,1.29,1.29,0,0,1,.61-.12,1.41,1.41,0,0,1,.75.22,1.54,1.54,0,0,1,.61.67A2.54,2.54,0,0,1,214,230.33Zm-1.3,0a1.37,1.37,0,0,0-.1-.58.66.66,0,0,0-.26-.32.55.55,0,0,0-.32-.1.7.7,0,0,0-.37.08,1.21,1.21,0,0,0-.26.2v1.52l.14.08.15.09.16.06.18,0a.56.56,0,0,0,.48-.28A1.33,1.33,0,0,0,212.72,230.36Z" />
      <path d="M218,230.7h-2.46a1,1,0,0,0,.35.59,1,1,0,0,0,.64.23,3,3,0,0,0,1.38-.39V232a4.18,4.18,0,0,1-.66.29,3,3,0,0,1-1,.13,2,2,0,0,1-1.1-.28,1.73,1.73,0,0,1-.68-.74,2.64,2.64,0,0,1,0-2.11,1.71,1.71,0,0,1,.68-.73,2.21,2.21,0,0,1,1.1-.26,1.72,1.72,0,0,1,.82.21,1.61,1.61,0,0,1,.66.68,2.61,2.61,0,0,1,.25,1.23Zm-1.16-.7a1,1,0,0,0-.17-.61.56.56,0,0,0-.48-.23.62.62,0,0,0-.5.24.94.94,0,0,0-.19.6Z" />
      <path d="M221.93,232.15a3.56,3.56,0,0,1-.5.19,1.84,1.84,0,0,1-.56.08.59.59,0,0,1-.42-.12.75.75,0,0,1-.17-.3,2,2,0,0,1-.45.3,1.43,1.43,0,0,1-.64.12,1.1,1.1,0,0,1-.61-.15.8.8,0,0,1-.33-.38,1.1,1.1,0,0,1-.1-.47,1.13,1.13,0,0,1,.16-.61,1.28,1.28,0,0,1,.44-.39,6,6,0,0,1,.73-.32l.39-.14.2-.08a.61.61,0,0,0,.14-.07.83.83,0,0,0-.11-.45c-.06-.11-.21-.16-.44-.16a1.47,1.47,0,0,0-.76.2,2.57,2.57,0,0,0-.63.52v-1.08a2.29,2.29,0,0,1,.5-.3,2.62,2.62,0,0,1,.56-.18,2.88,2.88,0,0,1,.59-.06,1.7,1.7,0,0,1,1.14.33,1.15,1.15,0,0,1,.38.92v1.54a1.28,1.28,0,0,0,0,.33.13.13,0,0,0,.13.1.64.64,0,0,0,.32-.11Zm-1.72-.76v-.94a3,3,0,0,0-.65.36.56.56,0,0,0-.2.44.4.4,0,0,0,.1.3.3.3,0,0,0,.24.11.49.49,0,0,0,.25-.08Z" />
      <path d="M224.8,232.12a2.48,2.48,0,0,1-.54.2,2.13,2.13,0,0,1-.64.1c-.89,0-1.34-.5-1.34-1.49v-1.58h-.56v-.25l1.66-1.92h.14v1.19h1.18v1h-1.18v1.27a1.73,1.73,0,0,0,0,.36.36.36,0,0,0,.13.23.55.55,0,0,0,.34.09,1.64,1.64,0,0,0,.78-.28Z" />
    </g>
  </g>
  <g /></svg>