<svg xmlns="http://www.w3.org/2000/svg" width="20.41mm" height="130.6mm" viewBox="0 0 57.85 370.19">
  <defs>
    <clipPath id="clip-path">
      <rect x="15.02" y="32.85" width="27.8" height="25.62" style="fill: none" />
    </clipPath>
    <clipPath id="clip-path-3">
      <rect x="15.02" y="80.65" width="27.8" height="25.62" style="fill: none" />
    </clipPath>
    <clipPath id="clip-path-5">
      <rect x="15.02" y="129.23" width="27.8" height="25.62" style="fill: none" />
    </clipPath>
  </defs>
  <g id="faceplate">
    <rect x="0.13" y="0.13" width="57.6" height="364.25" style="fill: #ededed;stroke: #9d9d9e;stroke-miterlimit: 10;stroke-width: 0.25px" />
    <g id="pips_-_fewest" data-name="pips - fewest">
      <g style="clip-path: url(#clip-path)">
        <g style="clip-path: url(#clip-path)">
          <path d="M34.62,35.63l.71-1.24a13.86,13.86,0,0,0-5.77-1.54v1.43a12.39,12.39,0,0,1,5.06,1.35" />
          <path d="M39.41,40l1.24-.71A14,14,0,0,0,36.42,35l-.71,1.23a12.55,12.55,0,0,1,3.7,3.7" />
          <path d="M22.14,36.26,21.43,35a14,14,0,0,0-4.23,4.22l1.24.71a12.55,12.55,0,0,1,3.7-3.7" />
          <path d="M41.4,46.12h1.43a13.83,13.83,0,0,0-1.55-5.77l-1.23.71a12.47,12.47,0,0,1,1.35,5.06" />
          <path d="M28.29,34.28V32.85a13.86,13.86,0,0,0-5.77,1.54l.71,1.24a12.39,12.39,0,0,1,5.06-1.35" />
          <path d="M18.44,53.54l-1.24.71a14,14,0,0,0,4.23,4.22l.71-1.23a12.55,12.55,0,0,1-3.7-3.7" />
          <path d="M35.71,57.24l.71,1.23a14,14,0,0,0,4.23-4.22l-1.24-.71a12.55,12.55,0,0,1-3.7,3.7" />
          <path d="M41.4,47.38a12.47,12.47,0,0,1-1.35,5.06l1.23.71a13.83,13.83,0,0,0,1.55-5.77Z" />
          <path d="M16.45,47.38H15a13.83,13.83,0,0,0,1.55,5.77l1.23-.71a12.47,12.47,0,0,1-1.35-5.06" />
          <path d="M17.8,41.06l-1.23-.71A13.83,13.83,0,0,0,15,46.12h1.43a12.47,12.47,0,0,1,1.35-5.06" />
        </g>
      </g>
    </g>
    <g>
      <path d="M19.46,354.91a2.36,2.36,0,0,1-.3,1.21,1.91,1.91,0,0,1-.81.78,2.59,2.59,0,0,1-1.2.27l-.47,0A5.57,5.57,0,0,1,16,357a5.71,5.71,0,0,1-.95-.4v-1.83a6.26,6.26,0,0,0,.91.58,2,2,0,0,0,1,.23c.31,0,.52-.06.61-.19a.61.61,0,0,0,.14-.36.63.63,0,0,0-.24-.5,3.33,3.33,0,0,0-.69-.43,4.93,4.93,0,0,1-.88-.56,2.26,2.26,0,0,1-.86-1.84,2.45,2.45,0,0,1,.24-1.09,1.83,1.83,0,0,1,.74-.77,2.32,2.32,0,0,1,1.22-.29,3.51,3.51,0,0,1,.94.12,3.65,3.65,0,0,1,.72.27l.38.23v1.75a5.14,5.14,0,0,0-.83-.59,2,2,0,0,0-1-.25.64.64,0,0,0-.49.16.54.54,0,0,0-.16.4.52.52,0,0,0,.16.38,3,3,0,0,0,.55.39,11.18,11.18,0,0,1,1.12.72,2.49,2.49,0,0,1,.67.75A2.09,2.09,0,0,1,19.46,354.91Z" />
      <path d="M27.16,357.07H25.32v-2.9H22.55v2.9H20.71v-7.44h1.84v2.73h2.77v-2.73h1.84Z" />
      <path d="M30.54,357.07H28.7v-7.44h1.84Z" />
      <path d="M36.45,354.06H33.92v3H32.08v-7.44h4.37v1.49H33.92v1.44h2.53Z" />
      <path d="M43.55,351.44H41.31v5.63H39.47v-5.63H37.23v-1.81h6.32Z" />
    </g>
    <path d="M28.63,198.27c8,0,14.54,6.09,14.54,13.58v109.8c0,7.48-6.52,13.57-14.54,13.57s-14.54-6.09-14.54-13.57V211.85c0-7.49,6.53-13.58,14.54-13.58m0-1.05C20,197.22,13,203.77,13,211.85v109.8c0,8.08,7,14.63,15.59,14.63s15.59-6.55,15.59-14.63V211.85c0-8.08-7-14.63-15.59-14.63Z" />
    <g>
      <path d="M21.92,238.71a3,3,0,0,1-.6.28,3.6,3.6,0,0,1-.63.15,4.54,4.54,0,0,1-.65,0,3,3,0,0,1-1.11-.19,2.3,2.3,0,0,1-.86-.58,2.45,2.45,0,0,1-.54-.89,3.33,3.33,0,0,1-.18-1.12,3.28,3.28,0,0,1,.21-1.22A2.44,2.44,0,0,1,19,233.79a3.22,3.22,0,0,1,1-.16,4.89,4.89,0,0,1,1.84.41v1.43a5.09,5.09,0,0,0-.7-.41,1.86,1.86,0,0,0-.81-.17,1.61,1.61,0,0,0-.78.19,1.48,1.48,0,0,0-.58.53,1.61,1.61,0,0,0,0,1.57,1.4,1.4,0,0,0,.54.54,1.43,1.43,0,0,0,.77.2,2.39,2.39,0,0,0,.66-.09,3.25,3.25,0,0,0,.52-.22,4.28,4.28,0,0,0,.43-.27Z" />
      <path d="M26.27,237.12a2.39,2.39,0,0,1-.23,1.06,1.73,1.73,0,0,1-.68.74,2.46,2.46,0,0,1-2.2,0,1.73,1.73,0,0,1-.68-.74,2.39,2.39,0,0,1-.22-1.06,2.55,2.55,0,0,1,.12-.81,1.83,1.83,0,0,1,.38-.65,1.67,1.67,0,0,1,.63-.44,2.33,2.33,0,0,1,.87-.15,2.42,2.42,0,0,1,.88.15,1.74,1.74,0,0,1,1,1.08A2.39,2.39,0,0,1,26.27,237.12Zm-1.31,0a1.33,1.33,0,0,0-.18-.74.64.64,0,0,0-1,0,1.61,1.61,0,0,0,0,1.48.63.63,0,0,0,1,0A1.34,1.34,0,0,0,25,237.12Z" />
      <path d="M30.26,238.92c-.18.08-.35.14-.5.19a1.86,1.86,0,0,1-.56.07.59.59,0,0,1-.42-.12.64.64,0,0,1-.17-.3,1.9,1.9,0,0,1-.45.31,1.44,1.44,0,0,1-.64.11,1.1,1.1,0,0,1-.61-.15.78.78,0,0,1-.33-.37,1.15,1.15,0,0,1-.1-.48,1.11,1.11,0,0,1,.16-.6,1.42,1.42,0,0,1,.44-.4,6.15,6.15,0,0,1,.73-.31l.39-.14.2-.08.14-.07a.83.83,0,0,0-.11-.45A.48.48,0,0,0,28,236a1.48,1.48,0,0,0-.76.21,2.57,2.57,0,0,0-.63.52v-1.08a2.33,2.33,0,0,1,.5-.31,2.6,2.6,0,0,1,.56-.17,2.88,2.88,0,0,1,.59-.06,1.7,1.7,0,0,1,1.14.33,1.14,1.14,0,0,1,.38.92v1.54a1.19,1.19,0,0,0,0,.32.14.14,0,0,0,.13.11.76.76,0,0,0,.32-.11Zm-1.72-.77v-.94a3.44,3.44,0,0,0-.65.37.54.54,0,0,0-.2.44.4.4,0,0,0,.1.3.34.34,0,0,0,.24.11.49.49,0,0,0,.25-.08C28.36,238.29,28.45,238.23,28.54,238.15Z" />
      <path d="M33.44,235.35,33,236.76a.81.81,0,0,0-.58-.3.62.62,0,0,0-.45.2,2,2,0,0,0-.36.74v1.71H30.36v-4H31.6v1a1.78,1.78,0,0,1,.41-.69.89.89,0,0,1,.69-.34.84.84,0,0,1,.37.07A2.52,2.52,0,0,1,33.44,235.35Z" />
      <path d="M36.29,238a1.15,1.15,0,0,1-.35.89,1.43,1.43,0,0,1-1,.34,2.42,2.42,0,0,1-.69-.08,4.63,4.63,0,0,1-.66-.22v-1a4.52,4.52,0,0,0,.55.3,1.18,1.18,0,0,0,.5.11c.31,0,.47-.1.47-.29a.28.28,0,0,0-.07-.17.88.88,0,0,0-.24-.17c-.11-.07-.26-.14-.44-.23a1.88,1.88,0,0,1-.58-.46,1,1,0,0,1-.25-.71,1.17,1.17,0,0,1,.16-.57,1.26,1.26,0,0,1,.49-.45,1.67,1.67,0,0,1,.78-.17,1.58,1.58,0,0,1,.28,0,2.55,2.55,0,0,1,.43.09,2.33,2.33,0,0,1,.49.21v1l-.18-.12a1.17,1.17,0,0,0-.2-.12,1.6,1.6,0,0,0-.29-.11,1.33,1.33,0,0,0-.34,0,.36.36,0,0,0-.3.1.27.27,0,0,0-.07.18.22.22,0,0,0,.08.18,1.11,1.11,0,0,0,.37.21,3.88,3.88,0,0,1,.66.37,1.23,1.23,0,0,1,.35.42A1.25,1.25,0,0,1,36.29,238Z" />
      <path d="M40.27,237.47H37.81a.93.93,0,0,0,.35.59,1,1,0,0,0,.64.23,2.93,2.93,0,0,0,1.38-.4v.87a2.9,2.9,0,0,1-.66.29,3,3,0,0,1-1,.13,2.11,2.11,0,0,1-1.1-.27,1.67,1.67,0,0,1-.68-.74,2.43,2.43,0,0,1-.23-1.06,2.38,2.38,0,0,1,.23-1.05,1.65,1.65,0,0,1,.68-.73,2.21,2.21,0,0,1,1.1-.26,1.72,1.72,0,0,1,.82.21A1.59,1.59,0,0,1,40,236a2.57,2.57,0,0,1,.26,1.22Zm-1.16-.7a1,1,0,0,0-.17-.61.56.56,0,0,0-.48-.23.64.64,0,0,0-.5.23.93.93,0,0,0-.19.61Z" />
    </g>
    <g>
      <path d="M21.57,288H20.13v-5.41h1.44Z" />
      <path d="M26,288H24.79v-2.14a1.42,1.42,0,0,0-.1-.57.39.39,0,0,0-.41-.25.5.5,0,0,0-.27.07.62.62,0,0,0-.2.16.94.94,0,0,0-.16.2l-.12.2V288H22.29v-4h1.24v.57a1.73,1.73,0,0,1,.58-.5,1.45,1.45,0,0,1,.66-.14c.83,0,1.25.57,1.25,1.71Z" />
      <path d="M30.33,286a2.86,2.86,0,0,1-.1.77,2.28,2.28,0,0,1-.31.67,1.47,1.47,0,0,1-.52.47,1.51,1.51,0,0,1-.75.17,1.34,1.34,0,0,1-.54-.08,1.92,1.92,0,0,1-.39-.22v2H26.48V284h1.24v.36a1.53,1.53,0,0,1,.41-.31,1.29,1.29,0,0,1,.61-.12,1.52,1.52,0,0,1,.75.21,1.65,1.65,0,0,1,.6.67A2.45,2.45,0,0,1,30.33,286ZM29,286a1.61,1.61,0,0,0-.1-.59.78.78,0,0,0-.26-.32.6.6,0,0,0-.33-.1.77.77,0,0,0-.36.08,1.21,1.21,0,0,0-.26.2v1.52l.14.09L28,287a.52.52,0,0,0,.16.06.57.57,0,0,0,.18,0,.58.58,0,0,0,.49-.29A1.29,1.29,0,0,0,29,286Z" />
      <path d="M34.37,288H33.14v-.56a1.94,1.94,0,0,1-.55.47,1.38,1.38,0,0,1-.69.16,1,1,0,0,1-1-.52,3,3,0,0,1-.23-1.19V284h1.24v2.14a1.62,1.62,0,0,0,.09.57.39.39,0,0,0,.41.25.54.54,0,0,0,.43-.18,2.92,2.92,0,0,0,.33-.45V284h1.23Z" />
      <path d="M37.65,287.75a3.23,3.23,0,0,1-.53.21,2.6,2.6,0,0,1-.65.09c-.89,0-1.34-.49-1.34-1.48V285h-.56v-.24l1.66-1.93h.14V284h1.18v1H36.37v1.28a1.86,1.86,0,0,0,0,.36.34.34,0,0,0,.13.22.49.49,0,0,0,.34.1,1.68,1.68,0,0,0,.78-.29Z" />
    </g>
    <g>
      <path d="M20.51,68.94a3.46,3.46,0,0,1-.76.35,4.43,4.43,0,0,1-.78.19,5.32,5.32,0,0,1-.81.06,3.64,3.64,0,0,1-1.4-.25,2.89,2.89,0,0,1-1.07-.72A3.08,3.08,0,0,1,15,67.46a4.15,4.15,0,0,1-.22-1.4,4.23,4.23,0,0,1,.26-1.53,3,3,0,0,1,.75-1.09,3.08,3.08,0,0,1,1.09-.64,4,4,0,0,1,1.29-.21,6.33,6.33,0,0,1,2.3.51v1.8a6.23,6.23,0,0,0-.87-.52,2.32,2.32,0,0,0-1-.21,2,2,0,0,0-1,.24,1.93,1.93,0,0,0-.73.66,2,2,0,0,0,0,2,1.75,1.75,0,0,0,.67.68,1.81,1.81,0,0,0,1,.25,2.76,2.76,0,0,0,.82-.12,3.11,3.11,0,0,0,.65-.27,4.84,4.84,0,0,0,.55-.34Z" />
      <path d="M25.94,67a3,3,0,0,1-.29,1.32,2.08,2.08,0,0,1-.84.92,3,3,0,0,1-2.76,0,2.1,2.1,0,0,1-.85-.92A3.08,3.08,0,0,1,20.92,67a3.3,3.3,0,0,1,.16-1,2.08,2.08,0,0,1,.48-.81,2,2,0,0,1,.79-.55,2.78,2.78,0,0,1,1.08-.19,3,3,0,0,1,1.09.19,2.14,2.14,0,0,1,.79.54,2.43,2.43,0,0,1,.47.81A3.09,3.09,0,0,1,25.94,67Zm-1.63,0a1.68,1.68,0,0,0-.23-.93.81.81,0,0,0-1.3,0,2,2,0,0,0,0,1.86.73.73,0,0,0,.65.34.72.72,0,0,0,.65-.34A1.68,1.68,0,0,0,24.31,67Z" />
      <path d="M30.93,69.2a6.53,6.53,0,0,1-.63.24,2,2,0,0,1-.69.1.73.73,0,0,1-.54-.16.8.8,0,0,1-.21-.37,2.57,2.57,0,0,1-.55.38,1.84,1.84,0,0,1-.8.15,1.35,1.35,0,0,1-.77-.19,1,1,0,0,1-.42-.47,1.52,1.52,0,0,1-.12-.59,1.29,1.29,0,0,1,.21-.76A1.46,1.46,0,0,1,27,67a6.37,6.37,0,0,1,.91-.4l.49-.18.24-.09a.7.7,0,0,0,.17-.09,1.15,1.15,0,0,0-.12-.57.65.65,0,0,0-.56-.2,1.79,1.79,0,0,0-.94.25,3.31,3.31,0,0,0-.8.66V65.07a2.65,2.65,0,0,1,.62-.38,3.58,3.58,0,0,1,.7-.23,4.63,4.63,0,0,1,.74-.07,2.11,2.11,0,0,1,1.43.42A1.44,1.44,0,0,1,30.32,66v1.92a1.37,1.37,0,0,0,.05.41.17.17,0,0,0,.16.13,1,1,0,0,0,.4-.14Zm-2.16-1V67.07a4.06,4.06,0,0,0-.8.46.66.66,0,0,0-.25.55.56.56,0,0,0,.12.38.41.41,0,0,0,.3.13.54.54,0,0,0,.31-.1A2.43,2.43,0,0,0,28.77,68.25Z" />
      <path d="M34.91,64.75l-.58,1.76a1,1,0,0,0-.71-.38.72.72,0,0,0-.56.25,2.48,2.48,0,0,0-.46.93v2.14H31.05v-5H32.6v1.2a2.71,2.71,0,0,1,.51-.87,1.14,1.14,0,0,1,.87-.42,1.08,1.08,0,0,1,.46.09A3.58,3.58,0,0,1,34.91,64.75Z" />
      <path d="M38.47,68A1.48,1.48,0,0,1,38,69.11a1.8,1.8,0,0,1-1.31.43,3.69,3.69,0,0,1-.86-.1,5.92,5.92,0,0,1-.83-.29V67.9a5.88,5.88,0,0,0,.68.39,1.45,1.45,0,0,0,.63.13c.39,0,.58-.12.58-.36a.35.35,0,0,0-.08-.22,1.69,1.69,0,0,0-.29-.21L36,67.34a2.18,2.18,0,0,1-.73-.58,1.4,1.4,0,0,1-.1-1.59,1.42,1.42,0,0,1,.6-.56,2,2,0,0,1,1-.22l.35,0a4.14,4.14,0,0,1,.53.12,2.62,2.62,0,0,1,.62.26V66L38,65.85a1.72,1.72,0,0,0-.25-.14,2.08,2.08,0,0,0-.36-.14,1.54,1.54,0,0,0-.43-.06.44.44,0,0,0-.36.12.31.31,0,0,0,0,.46,1.54,1.54,0,0,0,.46.26,3.9,3.9,0,0,1,.83.46,1.51,1.51,0,0,1,.44.52A1.7,1.7,0,0,1,38.47,68Z" />
      <path d="M43.44,67.39H40.36a1.27,1.27,0,0,0,1.24,1,3.8,3.8,0,0,0,1.73-.5V69a4.2,4.2,0,0,1-.82.36,4,4,0,0,1-1.24.17,2.7,2.7,0,0,1-1.37-.34,2.18,2.18,0,0,1-.85-.93,3,3,0,0,1-.28-1.33,2.9,2.9,0,0,1,.28-1.31,2.08,2.08,0,0,1,.85-.91,2.7,2.7,0,0,1,1.37-.33,2.22,2.22,0,0,1,1,.26,2,2,0,0,1,.82.86A3.22,3.22,0,0,1,43.44,67ZM42,66.52a1.25,1.25,0,0,0-.21-.76.7.7,0,0,0-.6-.29.79.79,0,0,0-.63.29,1.21,1.21,0,0,0-.23.76Z" />
    </g>
    <path d="M44.22,308.21c0-8.08-7-14.63-15.59-14.63S13,300.13,13,308.21v8.11h0v19.84a5.68,5.68,0,0,0,5.67,5.67H38.55a5.68,5.68,0,0,0,5.67-5.67V316.32h0Z" />
    <g>
      <path d="M27.86,334.14a3.26,3.26,0,0,1-.3,1.4,2.42,2.42,0,0,1-.92,1,3.11,3.11,0,0,1-3,0,2.36,2.36,0,0,1-.9-1,3.11,3.11,0,0,1-.3-1.36,3.25,3.25,0,0,1,.29-1.36,2.38,2.38,0,0,1,.91-1,2.75,2.75,0,0,1,1.5-.39,3,3,0,0,1,1.18.23,2.3,2.3,0,0,1,.85.6,2.51,2.51,0,0,1,.5.89A3.1,3.1,0,0,1,27.86,334.14Zm-1.46,0a2,2,0,0,0-.08-.56,1.14,1.14,0,0,0-.24-.43,1,1,0,0,0-.39-.29,1.25,1.25,0,0,0-.53-.11,1.12,1.12,0,0,0-.91.39,1.47,1.47,0,0,0-.33,1,1.52,1.52,0,0,0,.33,1,1.18,1.18,0,0,0,.91.38,1.2,1.2,0,0,0,.67-.18,1.14,1.14,0,0,0,.43-.49A1.81,1.81,0,0,0,26.4,334.14Z" style="fill: #fff" />
      <path d="M32,336.85H30.72v-.56a1.82,1.82,0,0,1-.55.47,1.35,1.35,0,0,1-.69.16,1,1,0,0,1-1-.52,2.84,2.84,0,0,1-.24-1.19v-2.33h1.24V335a1.42,1.42,0,0,0,.1.57.4.4,0,0,0,.41.25.55.55,0,0,0,.43-.18,3.8,3.8,0,0,0,.32-.45v-2.33H32Z" style="fill: #fff" />
      <path d="M35.23,336.62a2.37,2.37,0,0,1-.53.2,2.14,2.14,0,0,1-.65.1c-.89,0-1.33-.49-1.33-1.48v-1.59h-.56v-.24l1.66-1.93H34v1.2h1.18v1H34v1.28a1.78,1.78,0,0,0,0,.35.35.35,0,0,0,.14.23.51.51,0,0,0,.34.09,1.65,1.65,0,0,0,.77-.28Z" style="fill: #fff" />
    </g>
    <g>
      <path d="M34.54,6.76l-5.53,7v-6a1.27,1.27,0,0,0-.64-1.17.89.89,0,0,0-1.13.29L20,16.13a1.49,1.49,0,0,0,0,1.79.9.9,0,0,0,1.46,0l5.5-7v6a1.29,1.29,0,0,0,.64,1.18.92.92,0,0,0,1.14-.3l5.53-7v6.15a1.05,1.05,0,1,0,2.06,0V7.64a1.28,1.28,0,0,0-.65-1.18A.91.91,0,0,0,34.54,6.76Z" style="stroke: #000;stroke-width: 0.6000000000000001px" />
      <path d="M20,6.68l-4.81,6.13a1.47,1.47,0,0,0,0,1.79.9.9,0,0,0,1.46,0l3.05-3.87V17a1.17,1.17,0,0,0,1,1.26,1.17,1.17,0,0,0,1-1.26V7.56a1.29,1.29,0,0,0-.65-1.17A.91.91,0,0,0,20,6.68Z" style="stroke: #000;stroke-width: 0.6000000000000001px" />
      <path d="M42.91,11.2a1.05,1.05,0,0,0-.95-.77h-2.1l1.53-1.95s.8-1.17.1-1.82a1.27,1.27,0,0,0-1.58.06l-3.23,4.1a1.45,1.45,0,0,0-.2,1.37,1,1,0,0,0,1,.78h2.1L37,16.14s-1,1.13-.27,1.89,1.75-.14,1.75-.14l4.18-5.31A1.5,1.5,0,0,0,42.91,11.2Z" style="stroke: #000;stroke-width: 0.6000000000000001px" />
    </g>
    <g id="pips_-_fewest-2" data-name="pips - fewest">
      <g style="clip-path: url(#clip-path-3)">
        <g style="clip-path: url(#clip-path-3)">
          <path d="M34.62,83.43l.71-1.23a14,14,0,0,0-5.77-1.55v1.43a12.55,12.55,0,0,1,5.06,1.35" />
          <path d="M39.41,87.77l1.24-.71a14,14,0,0,0-4.23-4.23l-.71,1.24a12.55,12.55,0,0,1,3.7,3.7" />
          <path d="M22.14,84.07l-.71-1.24a14,14,0,0,0-4.23,4.23l1.24.71a12.55,12.55,0,0,1,3.7-3.7" />
          <path d="M41.4,93.92h1.43a13.87,13.87,0,0,0-1.55-5.77l-1.23.72a12.46,12.46,0,0,1,1.35,5" />
          <path d="M28.29,82.08V80.66a13.86,13.86,0,0,0-5.77,1.54l.71,1.23a12.55,12.55,0,0,1,5.06-1.35" />
          <path d="M18.44,101.34l-1.24.72a14.07,14.07,0,0,0,4.23,4.22l.71-1.23a12.58,12.58,0,0,1-3.7-3.71" />
          <path d="M35.71,105.05l.71,1.23a14.07,14.07,0,0,0,4.23-4.22l-1.24-.72a12.58,12.58,0,0,1-3.7,3.71" />
          <path d="M41.4,95.19a12.51,12.51,0,0,1-1.35,5.06l1.23.71a13.87,13.87,0,0,0,1.55-5.77Z" />
          <path d="M16.45,95.19H15A13.87,13.87,0,0,0,16.57,101l1.23-.71a12.51,12.51,0,0,1-1.35-5.06" />
          <path d="M17.8,88.87l-1.23-.72A13.87,13.87,0,0,0,15,93.92h1.43a12.46,12.46,0,0,1,1.35-5" />
        </g>
      </g>
    </g>
    <g>
      <path d="M25,115.38H22.49v2.74h-1.8v-6.76H25v1.35H22.49V114H25Z" />
      <path d="M27.19,118.12H25.64v-5h1.55ZM27.07,112a.75.75,0,0,1-.2.52.6.6,0,0,1-.46.21.63.63,0,0,1-.33-.09.75.75,0,0,1-.23-.27.78.78,0,0,1-.09-.37.82.82,0,0,1,.19-.53.59.59,0,0,1,.92,0A.78.78,0,0,1,27.07,112Z" />
      <path d="M32.57,118.12H31v-2.68a1.92,1.92,0,0,0-.12-.71.49.49,0,0,0-.52-.31.73.73,0,0,0-.33.08,1.33,1.33,0,0,0-.26.21c-.07.09-.14.17-.19.25l-.16.24v2.92H27.9v-5h1.55v.72a2.28,2.28,0,0,1,.73-.63,2,2,0,0,1,.82-.17c1,0,1.57.71,1.57,2.13Z" />
      <path d="M37.64,116.06H34.56a1.23,1.23,0,0,0,.44.75,1.22,1.22,0,0,0,.8.28,3.74,3.74,0,0,0,1.72-.49v1.08a3.94,3.94,0,0,1-.82.37,3.86,3.86,0,0,1-1.23.16,2.56,2.56,0,0,1-1.37-.34,2.12,2.12,0,0,1-.85-.93,3.25,3.25,0,0,1,0-2.64,2,2,0,0,1,.85-.9,2.65,2.65,0,0,1,1.37-.33,2.1,2.1,0,0,1,1,.26,2,2,0,0,1,.82.85,3.28,3.28,0,0,1,.32,1.53Zm-1.46-.87a1.34,1.34,0,0,0-.2-.76.7.7,0,0,0-.6-.29.77.77,0,0,0-.63.3,1.13,1.13,0,0,0-.24.75Z" />
    </g>
    <path d="M31.36,212.56h-.7V214H29.07v-1.46H26.65v-1.29l2.73-4h1.28v4.14h.7Zm-2.29-1.17v-2.16l-1.48,2.16Z" />
    <g id="pips_-_fewest-3" data-name="pips - fewest">
      <g style="clip-path: url(#clip-path-5)">
        <g style="clip-path: url(#clip-path-5)">
          <path d="M34.62,132l.71-1.24a13.86,13.86,0,0,0-5.77-1.54v1.42A12.4,12.4,0,0,1,34.62,132" />
          <path d="M39.41,136.34l1.24-.71a14,14,0,0,0-4.23-4.23l-.71,1.24a12.55,12.55,0,0,1,3.7,3.7" />
          <path d="M22.14,132.64l-.71-1.23a13.85,13.85,0,0,0-4.23,4.22l1.24.71a12.55,12.55,0,0,1,3.7-3.7" />
          <path d="M41.4,142.49h1.43a13.91,13.91,0,0,0-1.55-5.77l-1.23.72a12.46,12.46,0,0,1,1.35,5.05" />
          <path d="M28.29,130.65v-1.42a13.86,13.86,0,0,0-5.77,1.54l.71,1.23a12.72,12.72,0,0,1,5.06-1.35" />
          <path d="M18.44,149.91l-1.24.72a14.07,14.07,0,0,0,4.23,4.22l.71-1.23a12.58,12.58,0,0,1-3.7-3.71" />
          <path d="M35.71,153.62l.71,1.23a14.07,14.07,0,0,0,4.23-4.22l-1.24-.72a12.58,12.58,0,0,1-3.7,3.71" />
          <path d="M41.4,143.76a12.51,12.51,0,0,1-1.35,5.06l1.23.71a13.87,13.87,0,0,0,1.55-5.77Z" />
          <path d="M16.45,143.76H15a13.87,13.87,0,0,0,1.55,5.77l1.23-.71a12.51,12.51,0,0,1-1.35-5.06" />
          <path d="M17.8,137.44l-1.23-.72A13.91,13.91,0,0,0,15,142.49h1.43a12.46,12.46,0,0,1,1.35-5.05" />
        </g>
      </g>
    </g>
    <g>
      <path d="M28.82,165.83H27v-3.92l-1.62,2.27h-.15l-1.62-2.27v3.92H21.9v-6.77h1.62l1.84,2.54,1.83-2.54h1.63Z" />
      <path d="M31.35,165.83H29.8v-5h1.55Zm-.12-6.12a.75.75,0,0,1-.2.52.58.58,0,0,1-.46.22.64.64,0,0,1-.33-.1.68.68,0,0,1-.23-.27.75.75,0,0,1-.09-.37.79.79,0,0,1,.19-.52.59.59,0,0,1,.92,0A.75.75,0,0,1,31.23,159.71Z" />
      <path d="M36.94,165.83H35l-.85-1.41-.84,1.41H31.65l1.69-2.44-1.73-2.53h1.91l.8,1.35.82-1.35h1.69l-1.65,2.36Z" />
    </g>
  </g>
  <g /></svg>