<svg xmlns="http://www.w3.org/2000/svg" width="132mm" height="138.11mm" viewBox="0 0 374.17 391.49">
  <g id="artwork">
    <rect width="374.17" height="364.25" style="fill: #171717"/>
    <path d="M225.07,301.2c0,1.76-1.81,3.19-4,3.19S217,303,217,301.2v-4.54h8.1Z" transform="translate(0 0.14)" style="fill: #faa629"/>
    <path d="M268.51,301.2c0,1.76-1.81,3.19-4.05,3.19s-4-1.43-4-3.19v-4.54h8.1Z" transform="translate(0 0.14)" style="fill: #89d3e2"/>
    <path d="M311.71,301.2c0,1.76-1.81,3.19-4,3.19s-4.05-1.43-4.05-3.19v-4.54h8.1Z" transform="translate(0 0.14)" style="fill: #171717;stroke: #fff;stroke-width: 0.708661417322835px"/>
    <path d="M355.15,301.2c0,1.76-1.81,3.19-4,3.19s-4.05-1.43-4.05-3.19v-4.54h8.1Z" transform="translate(0 0.14)" style="fill: #fff"/>
    <path d="M341.71,342.69c0,1.76-1.81,3.19-4,3.19s-4.05-1.43-4.05-3.19v-4.54h8.1Z" transform="translate(0 0.14)" style="fill: #f06392"/>
    <path d="M212.11,342.69c0,1.76-1.81,3.19-4.05,3.19s-4.05-1.43-4.05-3.19v-4.54h8.1Z" transform="translate(0 0.14)" style="fill: #ef4438"/>
    <path d="M255.79,342.69c0,1.76-1.81,3.19-4,3.19s-4.05-1.43-4.05-3.19v-4.54h8.1Z" transform="translate(0 0.14)" style="fill: #feea3a"/>
    <path d="M298,342.69c0,1.76-1.81,3.19-4,3.19s-4.05-1.43-4.05-3.19v-4.54H298Z" transform="translate(0 0.14)" style="fill: #478fcc"/>
    <g>
      <path d="M55.87,296.49l-.22.09-.17.07-.25.08-.53.12a5.17,5.17,0,0,1-.57,0,2.33,2.33,0,0,1-1.11-.26,1.89,1.89,0,0,1-.81-.82,2.79,2.79,0,0,1-.3-1.36,3.6,3.6,0,0,1,.15-1,1.93,1.93,0,0,1,.48-.8,2.54,2.54,0,0,1,.54-.38,1.68,1.68,0,0,1,.54-.17,3.27,3.27,0,0,1,.57-.05,3.38,3.38,0,0,1,.86.09l.74.25v1.12a3.06,3.06,0,0,0-.56-.31,1.83,1.83,0,0,0-.75-.13,1.31,1.31,0,0,0-.82.24,1.23,1.23,0,0,0-.43.56,1.75,1.75,0,0,0-.12.62,1.67,1.67,0,0,0,.14.67,1.22,1.22,0,0,0,.42.48,1.25,1.25,0,0,0,.68.18,1.69,1.69,0,0,0,.48-.07v-.56H54.3v-1h1.57Z" transform="translate(0 0.14)" style="fill: #fff"/>
      <path d="M59.63,296.65l-.41.17a1.56,1.56,0,0,1-.46.06.46.46,0,0,1-.35-.1.66.66,0,0,1-.14-.26,1.9,1.9,0,0,1-.37.26,1.14,1.14,0,0,1-.53.1.88.88,0,0,1-.51-.13.71.71,0,0,1-.27-.33,1.15,1.15,0,0,1-.08-.41,1,1,0,0,1,.14-.53,1.1,1.1,0,0,1,.36-.35,4.47,4.47,0,0,1,.6-.27l.32-.13.17-.06.11-.07a.73.73,0,0,0-.09-.39c0-.1-.18-.14-.36-.14a1.17,1.17,0,0,0-.63.17,2.23,2.23,0,0,0-.52.46v-.94a1.82,1.82,0,0,1,.41-.27,2.51,2.51,0,0,1,.46-.16,2.72,2.72,0,0,1,.49-.05,1.36,1.36,0,0,1,.94.29,1,1,0,0,1,.32.81v1.34a1.07,1.07,0,0,0,0,.29.11.11,0,0,0,.11.09.54.54,0,0,0,.26-.1ZM58.21,296v-.82a2.51,2.51,0,0,0-.53.32.47.47,0,0,0-.17.38.37.37,0,0,0,.09.27.25.25,0,0,0,.19.09.35.35,0,0,0,.21-.07A1.57,1.57,0,0,0,58.21,296Z" transform="translate(0 0.14)" style="fill: #fff"/>
      <path d="M62.23,296.62a2.46,2.46,0,0,1-.44.18,1.71,1.71,0,0,1-.53.08q-1.11,0-1.11-1.29V294.2h-.46V294l1.37-1.68h.12v1h1v.86h-1v1.11a1.47,1.47,0,0,0,0,.32.33.33,0,0,0,.11.2.43.43,0,0,0,.28.08,1.38,1.38,0,0,0,.64-.25Z" transform="translate(0 0.14)" style="fill: #fff"/>
      <path d="M65.64,295.38h-2a.86.86,0,0,0,.3.52.79.79,0,0,0,.53.2,2.36,2.36,0,0,0,1.13-.35v.77a3.06,3.06,0,0,1-.54.25,2.33,2.33,0,0,1-.81.11,1.73,1.73,0,0,1-.91-.23,1.47,1.47,0,0,1-.56-.65,2.34,2.34,0,0,1-.18-.93,2.22,2.22,0,0,1,.18-.92,1.45,1.45,0,0,1,.56-.64,1.73,1.73,0,0,1,.91-.23,1.41,1.41,0,0,1,.68.18,1.44,1.44,0,0,1,.54.6,2.4,2.4,0,0,1,.21,1.07Zm-1-.61a.92.92,0,0,0-.14-.53.43.43,0,0,0-.39-.2.53.53,0,0,0-.42.2.88.88,0,0,0-.15.53Z" transform="translate(0 0.14)" style="fill: #fff"/>
      <path d="M69.22,296.82H68v-4.73h1.18Z" transform="translate(0 0.14)" style="fill: #fff"/>
      <path d="M73.13,296.82h-1V295a1.25,1.25,0,0,0-.08-.5.31.31,0,0,0-.34-.22.43.43,0,0,0-.22.06.75.75,0,0,0-.17.14,1.36,1.36,0,0,0-.12.17l-.11.18v2h-1v-3.48h1v.5a1.47,1.47,0,0,1,.49-.43,1.08,1.08,0,0,1,.54-.13c.69,0,1,.5,1,1.5Z" transform="translate(0 0.14)" style="fill: #fff"/>
      <path d="M78.37,296.82h-3v-.09a4.24,4.24,0,0,0,.38-.48l.54-.74.28-.41c.09-.14.16-.27.23-.39a2.6,2.6,0,0,0,.15-.42,1.53,1.53,0,0,0,.07-.47.8.8,0,0,0-.16-.53.48.48,0,0,0-.4-.21,1.29,1.29,0,0,0-1,.61v-1.12l.28-.21.25-.15a1.26,1.26,0,0,1,.33-.14,1.86,1.86,0,0,1,.42-.05,1.22,1.22,0,0,1,.65.18,1.09,1.09,0,0,1,.46.51,1.59,1.59,0,0,1,.17.77,2.22,2.22,0,0,1-.07.59,3,3,0,0,1-.16.44l-.22.42a9.73,9.73,0,0,1-.52.83h1.27Z" transform="translate(0 0.14)" style="fill: #fff"/>
    </g>
    <g>
      <path d="M66.54,22.67H65V19.14l-1.38,2.05h-.12l-1.38-2.05v3.53H60.66V16.58H62l1.56,2.28,1.56-2.28h1.38Z" transform="translate(0 0.14)" style="fill: #fff"/>
      <path d="M69.35,22.67H67.82V16.58h1.53Z" transform="translate(0 0.14)" style="fill: #fff"/>
      <path d="M75.82,19.73a3.39,3.39,0,0,1-.28,1.51,3.29,3.29,0,0,1-.66.92,2.16,2.16,0,0,1-1.53.51H70.63V16.58h2.1a4.79,4.79,0,0,1,.81.06,2.72,2.72,0,0,1,.61.17,2.2,2.2,0,0,1,.46.24,1.85,1.85,0,0,1,.33.29,2.51,2.51,0,0,1,.46.6,3.42,3.42,0,0,1,.31.8A4,4,0,0,1,75.82,19.73Zm-1.55-.07A2.32,2.32,0,0,0,74,18.5a1.27,1.27,0,0,0-.57-.56,1.75,1.75,0,0,0-.67-.14h-.65v3.61h.65a1.64,1.64,0,0,0,1-.34A1.76,1.76,0,0,0,74.27,19.66Z" transform="translate(0 0.14)" style="fill: #fff"/>
      <path d="M78.3,22.67H76.77V16.58H78.3Z" transform="translate(0 0.14)" style="fill: #fff"/>
    </g>
    <line x1="115.36" y1="263.64" x2="115.36" y2="263.57" style="fill: #231f20"/>
    <g>
      <path d="M252.7,354.83h-1.39l-.37-1.1H249l-.37,1.1h-1.39l2-5.41h1.5Zm-2.07-2-.66-2-.66,2Z" transform="translate(0 0.14)" style="fill: #fff"/>
      <path d="M256.67,354.83h-1.16v-.57a1.77,1.77,0,0,1-.52.48,1.24,1.24,0,0,1-.66.16.92.92,0,0,1-1-.52,3,3,0,0,1-.22-1.19v-2.34h1.16V353a1.89,1.89,0,0,0,.09.57.38.38,0,0,0,.39.25.51.51,0,0,0,.41-.18,3.84,3.84,0,0,0,.31-.45v-2.34h1.16Z" transform="translate(0 0.14)" style="fill: #fff"/>
      <path d="M260.91,354.83h-1.17v-.36a1.61,1.61,0,0,1-.39.31,1.15,1.15,0,0,1-.57.12,1.32,1.32,0,0,1-.7-.21,1.58,1.58,0,0,1-.57-.67,2.62,2.62,0,0,1-.23-1.15,3.12,3.12,0,0,1,.17-1,1.75,1.75,0,0,1,.53-.77,1.5,1.5,0,0,1,1.41-.21,1.38,1.38,0,0,1,.35.22v-1.67h1.17Zm-1.17-1.26v-1.52a1.91,1.91,0,0,0-.32-.2.54.54,0,0,0-.27-.06.57.57,0,0,0-.46.28,1.44,1.44,0,0,0-.18.77,1.23,1.23,0,0,0,.19.77.57.57,0,0,0,.45.24.66.66,0,0,0,.34-.08A1.57,1.57,0,0,0,259.74,353.57Z" transform="translate(0 0.14)" style="fill: #fff"/>
      <path d="M262.88,354.83h-1.17v-4h1.17Zm-.09-4.89a.59.59,0,0,1-.15.41.44.44,0,0,1-.35.18.41.41,0,0,1-.24-.08.49.49,0,0,1-.18-.22.65.65,0,0,1-.06-.29.61.61,0,0,1,.14-.42.42.42,0,0,1,.34-.18.44.44,0,0,1,.35.18A.62.62,0,0,1,262.79,349.94Z" transform="translate(0 0.14)" style="fill: #fff"/>
      <path d="M267.33,352.84a2.42,2.42,0,0,1-.22,1.06,1.62,1.62,0,0,1-.64.73,2.12,2.12,0,0,1-2.07,0,1.62,1.62,0,0,1-.64-.73,2.57,2.57,0,0,1-.21-1.06,2.67,2.67,0,0,1,.11-.82,2,2,0,0,1,.36-.65,1.54,1.54,0,0,1,.6-.43,1.91,1.91,0,0,1,.82-.16,2.1,2.1,0,0,1,.82.16,1.53,1.53,0,0,1,.59.43,1.79,1.79,0,0,1,.36.65A2.66,2.66,0,0,1,267.33,352.84Zm-1.23,0a1.4,1.4,0,0,0-.17-.74.55.55,0,0,0-.49-.27.56.56,0,0,0-.5.27,1.4,1.4,0,0,0-.17.74,1.33,1.33,0,0,0,.18.74.53.53,0,0,0,.49.27.55.55,0,0,0,.49-.27A1.42,1.42,0,0,0,266.1,352.84Z" transform="translate(0 0.14)" style="fill: #fff"/>
      <path d="M271,349.34l-2.45,5.56h-.87l2.44-5.56Z" transform="translate(0 0.14)" style="fill: #fff"/>
      <path d="M275.66,354.42a2.79,2.79,0,0,1-.57.29,3,3,0,0,1-.59.15,4.08,4.08,0,0,1-.61,0,2.69,2.69,0,0,1-1.05-.19,2.32,2.32,0,0,1-.81-.58,2.38,2.38,0,0,1-.51-.89,3.33,3.33,0,0,1-.17-1.12,3.25,3.25,0,0,1,.2-1.22,2.26,2.26,0,0,1,.56-.88,2.35,2.35,0,0,1,.82-.51,2.93,2.93,0,0,1,1-.17,4.54,4.54,0,0,1,1.73.41v1.44a4,4,0,0,0-.66-.42,1.64,1.64,0,0,0-.76-.16,1.5,1.5,0,0,0-1.29.72,1.72,1.72,0,0,0,0,1.57,1.52,1.52,0,0,0,.5.54,1.4,1.4,0,0,0,.73.2,1.79,1.79,0,0,0,.62-.1,2.25,2.25,0,0,0,.49-.21,4.29,4.29,0,0,0,.41-.28Z" transform="translate(0 0.14)" style="fill: #fff"/>
      <path d="M281,349.42l-2,5.48h-.89l-2-5.48h1.41l1,3.12,1.06-3.12Z" transform="translate(0 0.14)" style="fill: #fff"/>
      <path d="M288.36,352.12a3.21,3.21,0,0,1-.29,1.39,2.32,2.32,0,0,1-.86,1,2.79,2.79,0,0,1-2.81,0,2.31,2.31,0,0,1-.85-1,3.28,3.28,0,0,1-.28-1.36,3.49,3.49,0,0,1,.27-1.37,2.44,2.44,0,0,1,.86-1,2.48,2.48,0,0,1,1.41-.39,2.59,2.59,0,0,1,1.11.23,2,2,0,0,1,.81.6,2.45,2.45,0,0,1,.47.89A3.36,3.36,0,0,1,288.36,352.12Zm-1.38,0a2,2,0,0,0-.07-.56,1.27,1.27,0,0,0-.23-.43,1,1,0,0,0-.36-.29,1.19,1.19,0,0,0-.51-.11,1,1,0,0,0-.85.39,1.51,1.51,0,0,0-.31,1,1.56,1.56,0,0,0,.31,1,1.05,1.05,0,0,0,.85.38,1.12,1.12,0,0,0,.64-.18,1.14,1.14,0,0,0,.4-.49A1.81,1.81,0,0,0,287,352.12Z" transform="translate(0 0.14)" style="fill: #fff"/>
      <path d="M292.49,354.83h-1.17v-.57a1.63,1.63,0,0,1-.51.48,1.27,1.27,0,0,1-.66.16.92.92,0,0,1-1-.52,3,3,0,0,1-.22-1.19v-2.34h1.16V353a1.62,1.62,0,0,0,.09.57.38.38,0,0,0,.39.25.51.51,0,0,0,.41-.18,2.92,2.92,0,0,0,.3-.45v-2.34h1.17Z" transform="translate(0 0.14)" style="fill: #fff"/>
      <path d="M295.84,354.6a2.06,2.06,0,0,1-.5.2,1.9,1.9,0,0,1-.61.1c-.84,0-1.26-.49-1.26-1.48v-1.59h-.53v-.25l1.57-1.92h.13v1.19h1.12v1h-1.12v1.27a3.21,3.21,0,0,0,0,.36.41.41,0,0,0,.13.23.49.49,0,0,0,.32.09,1.46,1.46,0,0,0,.73-.28Z" transform="translate(0 0.14)" style="fill: #fff"/>
      <path d="M298.94,353.67a1.21,1.21,0,0,1-.34.89,1.3,1.3,0,0,1-1,.34,2.51,2.51,0,0,1-.65-.08,4.5,4.5,0,0,1-.63-.23v-1a3.51,3.51,0,0,0,.52.31,1,1,0,0,0,.47.11c.29,0,.44-.1.44-.29a.28.28,0,0,0-.06-.18,1.72,1.72,0,0,0-.22-.17l-.42-.23a1.63,1.63,0,0,1-.55-.46,1.06,1.06,0,0,1-.23-.7,1.22,1.22,0,0,1,.15-.58,1.12,1.12,0,0,1,.45-.44,1.45,1.45,0,0,1,.74-.18l.26,0a2.06,2.06,0,0,1,.41.09,2.18,2.18,0,0,1,.47.21v1l-.18-.13-.18-.11a1.49,1.49,0,0,0-.28-.11.86.86,0,0,0-.32-.05.36.36,0,0,0-.28.09.3.3,0,0,0-.07.19.23.23,0,0,0,.08.18,1,1,0,0,0,.34.21,3,3,0,0,1,.63.37,1.18,1.18,0,0,1,.33.42A1.39,1.39,0,0,1,298.94,353.67Z" transform="translate(0 0.14)" style="fill: #fff"/>
    </g>
    <g>
      <path d="M82.8,353.28H81.41L81,352.19h-2l-.37,1.09H77.33l2-5.41h1.5Zm-2.07-2-.66-2-.66,2Z" transform="translate(0 0.14)" style="fill: #fff"/>
      <path d="M86.77,353.28H85.61v-.56a1.86,1.86,0,0,1-.52.47,1.24,1.24,0,0,1-.66.16.92.92,0,0,1-1-.52,3,3,0,0,1-.22-1.19v-2.33h1.17v2.14a1.62,1.62,0,0,0,.09.57.35.35,0,0,0,.38.25.51.51,0,0,0,.41-.18,3.84,3.84,0,0,0,.31-.45v-2.33h1.16Z" transform="translate(0 0.14)" style="fill: #fff"/>
      <path d="M91,353.28H89.84v-.36a1.61,1.61,0,0,1-.39.31,1.12,1.12,0,0,1-.57.12,1.32,1.32,0,0,1-.7-.21,1.66,1.66,0,0,1-.57-.67,2.62,2.62,0,0,1-.23-1.15,3.12,3.12,0,0,1,.17-1,1.75,1.75,0,0,1,.53-.77,1.32,1.32,0,0,1,.88-.29,1.34,1.34,0,0,1,.53.08,1.38,1.38,0,0,1,.35.22v-1.67H91ZM89.84,352V350.5a2.93,2.93,0,0,0-.32-.2.54.54,0,0,0-.27-.06.57.57,0,0,0-.46.28,1.44,1.44,0,0,0-.18.77,1.3,1.3,0,0,0,.19.77.57.57,0,0,0,.45.24.66.66,0,0,0,.34-.08A1.57,1.57,0,0,0,89.84,352Z" transform="translate(0 0.14)" style="fill: #fff"/>
      <path d="M93,353.28H91.81v-4H93Zm-.09-4.89a.64.64,0,0,1-.15.42.46.46,0,0,1-.35.17.41.41,0,0,1-.24-.08.46.46,0,0,1-.18-.21.73.73,0,0,1-.06-.3.63.63,0,0,1,.14-.42.42.42,0,0,1,.34-.18.44.44,0,0,1,.35.18A.64.64,0,0,1,92.89,348.39Z" transform="translate(0 0.14)" style="fill: #fff"/>
      <path d="M97.43,351.29a2.54,2.54,0,0,1-.21,1.06,1.75,1.75,0,0,1-.64.73,1.94,1.94,0,0,1-1,.27,1.89,1.89,0,0,1-1-.27,1.62,1.62,0,0,1-.64-.73,2.54,2.54,0,0,1-.21-1.06,2.67,2.67,0,0,1,.11-.82,2,2,0,0,1,.36-.65,1.74,1.74,0,0,1,.6-.43,2.07,2.07,0,0,1,.82-.15,2.1,2.1,0,0,1,.82.15,1.53,1.53,0,0,1,.59.43,1.88,1.88,0,0,1,.36.65A2.66,2.66,0,0,1,97.43,351.29Zm-1.23,0a1.42,1.42,0,0,0-.17-.74.55.55,0,0,0-.49-.27.53.53,0,0,0-.49.27,1.61,1.61,0,0,0,0,1.48.52.52,0,0,0,.49.28A.53.53,0,0,0,96,352,1.4,1.4,0,0,0,96.2,351.29Z" transform="translate(0 0.14)" style="fill: #fff"/>
      <path d="M101.08,347.79l-2.45,5.56h-.87l2.45-5.56Z" transform="translate(0 0.14)" style="fill: #fff"/>
      <path d="M105.76,352.88a3,3,0,0,1-1.16.43,4.08,4.08,0,0,1-.61,0,2.69,2.69,0,0,1-1-.19,2.2,2.2,0,0,1-.81-.58,2.38,2.38,0,0,1-.51-.89,3.33,3.33,0,0,1-.17-1.12,3.29,3.29,0,0,1,.2-1.22,2.42,2.42,0,0,1,.56-.88A2.35,2.35,0,0,1,103,348a2.93,2.93,0,0,1,1-.17,4.54,4.54,0,0,1,1.73.41v1.44a4.74,4.74,0,0,0-.66-.41,1.64,1.64,0,0,0-.76-.17,1.46,1.46,0,0,0-.74.19,1.37,1.37,0,0,0-.54.53,1.56,1.56,0,0,0-.21.82,1.6,1.6,0,0,0,.18.75,1.44,1.44,0,0,0,.5.54,1.4,1.4,0,0,0,.73.2,2.06,2.06,0,0,0,.62-.09,2.53,2.53,0,0,0,.49-.22l.41-.27Z" transform="translate(0 0.14)" style="fill: #fff"/>
      <path d="M111.07,347.87l-2,5.48h-.89l-2-5.48h1.41l1,3.12,1.06-3.12Z" transform="translate(0 0.14)" style="fill: #fff"/>
      <path d="M115,353.28h-1.36v-5.41H115Z" transform="translate(0 0.14)" style="fill: #fff"/>
      <path d="M119.49,353.28h-1.17v-2.14a1.62,1.62,0,0,0-.09-.57.37.37,0,0,0-.39-.25.41.41,0,0,0-.25.07.74.74,0,0,0-.2.16l-.14.2-.12.2v2.33H116v-4h1.17v.57a1.66,1.66,0,0,1,.55-.5,1.29,1.29,0,0,1,.62-.14c.79,0,1.19.57,1.19,1.71Z" transform="translate(0 0.14)" style="fill: #fff"/>
      <path d="M122.77,352.12a1.19,1.19,0,0,1-.34.89,1.3,1.3,0,0,1-1,.34,2.14,2.14,0,0,1-.65-.08,4.5,4.5,0,0,1-.63-.23v-1a3.51,3.51,0,0,0,.52.31,1,1,0,0,0,.47.11c.29,0,.44-.1.44-.29a.25.25,0,0,0-.06-.17,1.11,1.11,0,0,0-.22-.18l-.42-.22a1.66,1.66,0,0,1-.55-.47,1,1,0,0,1-.23-.7,1.16,1.16,0,0,1,.15-.57,1.14,1.14,0,0,1,.45-.45,1.45,1.45,0,0,1,.74-.17h.26a3.4,3.4,0,0,1,.41.1,2.18,2.18,0,0,1,.47.21v1l-.18-.13-.18-.11a1.49,1.49,0,0,0-.28-.11,1.13,1.13,0,0,0-.32-.05.36.36,0,0,0-.28.09.32.32,0,0,0-.07.19.22.22,0,0,0,.08.18,1,1,0,0,0,.34.21,3.5,3.5,0,0,1,.63.37,1.27,1.27,0,0,1,.33.42A1.43,1.43,0,0,1,122.77,352.12Z" transform="translate(0 0.14)" style="fill: #fff"/>
    </g>
    <g>
      <path d="M163.89,357.63H162v-4.32l-1.71,2.5h-.15l-1.72-2.5v4.32h-1.84v-7.45h1.72l1.93,2.8,1.94-2.8h1.72Z" transform="translate(0 0.14)" style="fill: #fff"/>
      <path d="M169.86,355.36h-3.25a1.41,1.41,0,0,0,.46.82,1.27,1.27,0,0,0,.85.31,3.86,3.86,0,0,0,1.82-.54v1.19a4.42,4.42,0,0,1-.87.4,4,4,0,0,1-1.3.18,2.67,2.67,0,0,1-1.45-.37,2.34,2.34,0,0,1-.9-1,3.59,3.59,0,0,1-.29-1.46,3.54,3.54,0,0,1,.29-1.45,2.35,2.35,0,0,1,.9-1,2.76,2.76,0,0,1,1.45-.36,2.25,2.25,0,0,1,1.09.29,2.09,2.09,0,0,1,.86.94,3.59,3.59,0,0,1,.34,1.68Zm-1.53-1a1.49,1.49,0,0,0-.22-.84.73.73,0,0,0-.64-.31.81.81,0,0,0-.66.32,1.28,1.28,0,0,0-.25.83Z" transform="translate(0 0.14)" style="fill: #fff"/>
      <path d="M174.22,357.31a3.49,3.49,0,0,1-.7.28,3,3,0,0,1-.86.13q-1.77,0-1.77-2V353.5h-.74v-.34l2.2-2.64h.18v1.64h1.56v1.34h-1.56v1.75a3.34,3.34,0,0,0,0,.5.55.55,0,0,0,.18.31.65.65,0,0,0,.45.13,2.18,2.18,0,0,0,1-.39Z" transform="translate(0 0.14)" style="fill: #fff"/>
      <path d="M179.63,357.35q-.36.16-.66.27a2.26,2.26,0,0,1-.73.1.71.71,0,0,1-.56-.17,1,1,0,0,1-.23-.41,2.59,2.59,0,0,1-.58.42,1.9,1.9,0,0,1-.85.16,1.47,1.47,0,0,1-.81-.2,1.14,1.14,0,0,1-.44-.52,1.82,1.82,0,0,1-.12-.65,1.54,1.54,0,0,1,.21-.84,1.77,1.77,0,0,1,.58-.54,6.49,6.49,0,0,1,1-.43l.52-.2.26-.1.18-.1a1.21,1.21,0,0,0-.14-.62c-.09-.15-.28-.23-.59-.23a2,2,0,0,0-1,.28,3.57,3.57,0,0,0-.84.72v-1.48a2.84,2.84,0,0,1,.66-.42,3.58,3.58,0,0,1,.74-.25,4.13,4.13,0,0,1,.78-.08,2.22,2.22,0,0,1,1.51.46,1.62,1.62,0,0,1,.5,1.27v2.11a1.64,1.64,0,0,0,0,.45.18.18,0,0,0,.18.14.9.9,0,0,0,.41-.15Zm-2.27-1V355a4.41,4.41,0,0,0-.85.5.75.75,0,0,0-.27.61.61.61,0,0,0,.14.42.43.43,0,0,0,.31.14.54.54,0,0,0,.33-.11A3.44,3.44,0,0,0,177.36,356.31Z" transform="translate(0 0.14)" style="fill: #fff"/>
      <path d="M190.31,357.63h-1.9v-4.32l-1.71,2.5h-.15l-1.72-2.5v4.32H183v-7.45h1.72l1.93,2.8,2-2.8h1.72Z" transform="translate(0 0.14)" style="fill: #fff"/>
      <path d="M196.64,354.89a3.36,3.36,0,0,1-.3,1.45,2.26,2.26,0,0,1-.9,1,3,3,0,0,1-2.91,0,2.19,2.19,0,0,1-.89-1,3.36,3.36,0,0,1-.3-1.45,3.57,3.57,0,0,1,.16-1.12,2.51,2.51,0,0,1,.51-.9,2.19,2.19,0,0,1,.83-.6,2.9,2.9,0,0,1,1.14-.21,3,3,0,0,1,1.16.21,2.3,2.3,0,0,1,.83.6,2.67,2.67,0,0,1,.5.89A3.67,3.67,0,0,1,196.64,354.89Zm-1.73,0a1.84,1.84,0,0,0-.23-1,.77.77,0,0,0-.7-.37.75.75,0,0,0-.68.37,1.83,1.83,0,0,0-.24,1,1.88,1.88,0,0,0,.24,1,.76.76,0,0,0,.68.37.77.77,0,0,0,.7-.37A1.88,1.88,0,0,0,194.91,354.89Z" transform="translate(0 0.14)" style="fill: #fff"/>
      <path d="M202.28,357.63h-1.64v-.5a2.48,2.48,0,0,1-.55.43,1.58,1.58,0,0,1-.79.16,1.92,1.92,0,0,1-1-.29,2.21,2.21,0,0,1-.8-.92,3.53,3.53,0,0,1-.31-1.58,4,4,0,0,1,.23-1.4,2.45,2.45,0,0,1,.74-1.06,1.93,1.93,0,0,1,1.24-.41,1.76,1.76,0,0,1,1.23.42v-2.3h1.64Zm-1.64-1.74V353.8a3.27,3.27,0,0,0-.45-.27.84.84,0,0,0-.37-.08.77.77,0,0,0-.65.38,1.91,1.91,0,0,0-.25,1.06,1.65,1.65,0,0,0,.27,1.05.8.8,0,0,0,.63.33.84.84,0,0,0,.47-.11A1.73,1.73,0,0,0,200.64,355.89Z" transform="translate(0 0.14)" style="fill: #fff"/>
      <path d="M208.09,357.63h-1.64v-.78a2.74,2.74,0,0,1-.72.66,1.89,1.89,0,0,1-.92.21,1.31,1.31,0,0,1-1.35-.72,4.19,4.19,0,0,1-.31-1.63v-3.21h1.64v2.95a2.28,2.28,0,0,0,.12.78.53.53,0,0,0,.55.34A.72.72,0,0,0,206,356a3.69,3.69,0,0,0,.42-.62v-3.21h1.64Z" transform="translate(0 0.14)" style="fill: #fff"/>
      <path d="M210.76,357.63h-1.64v-7.45h1.64Z" transform="translate(0 0.14)" style="fill: #fff"/>
      <path d="M216.54,355.36h-3.26a1.42,1.42,0,0,0,.47.82,1.27,1.27,0,0,0,.84.31,3.93,3.93,0,0,0,1.83-.54v1.19a4.42,4.42,0,0,1-.87.4,4,4,0,0,1-1.3.18,2.65,2.65,0,0,1-1.45-.37,2.34,2.34,0,0,1-.9-1,3.43,3.43,0,0,1-.3-1.46,3.39,3.39,0,0,1,.3-1.45,2.35,2.35,0,0,1,.9-1,2.74,2.74,0,0,1,1.45-.36,2.28,2.28,0,0,1,1.09.29,2.2,2.2,0,0,1,.86.94,3.71,3.71,0,0,1,.34,1.68Zm-1.54-1a1.42,1.42,0,0,0-.22-.84.73.73,0,0,0-.63-.31.81.81,0,0,0-.66.32,1.28,1.28,0,0,0-.25.83Z" transform="translate(0 0.14)" style="fill: #fff"/>
    </g>
    <g>
      <path d="M193.28,8.43l-6.92,8.79V9.68a1.63,1.63,0,0,0-.8-1.47,1.13,1.13,0,0,0-1.41.37l-9.1,11.56a1.86,1.86,0,0,0,0,2.24,1.13,1.13,0,0,0,1.82,0s4.34-5.51,6.87-8.74v7.54a1.61,1.61,0,0,0,.81,1.46,1.13,1.13,0,0,0,1.42-.36s4.36-5.56,6.91-8.79v7.69a1.32,1.32,0,1,0,2.58,0V9.52a1.61,1.61,0,0,0-.81-1.46A1.12,1.12,0,0,0,193.28,8.43Z" transform="translate(0 0.14)" style="fill: #fff;stroke: #fff"/>
      <path d="M175.05,8.34,169,16a1.84,1.84,0,0,0,0,2.23,1.13,1.13,0,0,0,1.83,0l3.81-4.84v7.89a1.31,1.31,0,1,0,2.57,0V9.44a1.62,1.62,0,0,0-.8-1.47A1.13,1.13,0,0,0,175.05,8.34Z" transform="translate(0 0.14)" style="fill: #fff;stroke: #fff"/>
      <path d="M203.74,14a1.31,1.31,0,0,0-1.19-1h-2.63l1.92-2.44s1-1.47.12-2.27-2,.07-2,.07l-4,5.13a1.85,1.85,0,0,0-.26,1.71,1.33,1.33,0,0,0,1.19,1h2.64l-3.12,4s-1.3,1.41-.34,2.37,2.19-.17,2.19-.17l5.23-6.65A1.85,1.85,0,0,0,203.74,14Z" transform="translate(0 0.14)" style="fill: #fff;stroke: #fff"/>
    </g>
    <path d="M342,238.88h-2v2.19h-1.44v-5.42H342v1.09h-2v1h2Z" transform="translate(0 0.14)" style="fill: #89d3e2"/>
    <path d="M156.16,240.66a3.23,3.23,0,0,1-.6.28,3.6,3.6,0,0,1-.63.15,4.51,4.51,0,0,1-.65,0,3,3,0,0,1-1.11-.2,2.4,2.4,0,0,1-.86-.57,2.53,2.53,0,0,1-.54-.89,3.37,3.37,0,0,1-.18-1.12,3.3,3.3,0,0,1,.21-1.23,2.26,2.26,0,0,1,.6-.87,2.38,2.38,0,0,1,.87-.51,3.22,3.22,0,0,1,1-.17,5.1,5.1,0,0,1,1.84.41v1.44a4.8,4.8,0,0,0-.7-.42,1.86,1.86,0,0,0-.81-.16,1.72,1.72,0,0,0-.78.18,1.58,1.58,0,0,0-.58.54,1.45,1.45,0,0,0-.22.81,1.48,1.48,0,0,0,.73,1.3,1.52,1.52,0,0,0,.77.2,2.07,2.07,0,0,0,.66-.1,2.55,2.55,0,0,0,.52-.21,4.46,4.46,0,0,0,.43-.28Z" transform="translate(0 0.14)" style="fill: #478fcc"/>
    <path d="M95.33,228.19a1.5,1.5,0,0,1-.42,1.11,1.59,1.59,0,0,1-1.18.42H91v-5.41h2.3a3,3,0,0,1,.78.09,1.7,1.7,0,0,1,.54.27,1.27,1.27,0,0,1,.3.4,1.22,1.22,0,0,1,.1.51,1.45,1.45,0,0,1-.1.55,1.51,1.51,0,0,1-.26.41.92.92,0,0,1-.31.23,1.83,1.83,0,0,1,.75.55A1.38,1.38,0,0,1,95.33,228.19Zm-1.67-2.32a.54.54,0,0,0-.23-.52,1.45,1.45,0,0,0-.71-.13h-.3v1.29h.31a1.56,1.56,0,0,0,.71-.12A.57.57,0,0,0,93.66,225.87Zm.23,2.25c0-.46-.3-.7-.89-.7h-.58v1.39H93C93.59,228.81,93.89,228.58,93.89,228.12Z" transform="translate(0 0.14)" style="fill: #feea3a"/>
    <path d="M35.81,241.07H34.34L34,240H31.88l-.39,1.1H30l2.1-5.42h1.59Zm-2.19-2-.7-2-.7,2Z" transform="translate(0 0.14)" style="fill: #ef4438"/>
    <path d="M221.46,238.46a2.65,2.65,0,0,1-.9,2.15,2,2,0,0,1-1.43.46h-2.57v-5.42h2a4.1,4.1,0,0,1,.76.06,2.34,2.34,0,0,1,.58.15,1.91,1.91,0,0,1,.43.21,1.65,1.65,0,0,1,.32.26,2.55,2.55,0,0,1,.43.53,2.78,2.78,0,0,1,.29.72A3.48,3.48,0,0,1,221.46,238.46Zm-1.46-.07a2,2,0,0,0-.23-1,1.1,1.1,0,0,0-.53-.5,1.76,1.76,0,0,0-.63-.12H218V240h.61a1.54,1.54,0,0,0,1-.31A1.47,1.47,0,0,0,220,238.39Z" transform="translate(0 0.14)" style="fill: #f06392"/>
    <path d="M35,339.54A16.09,16.09,0,1,0,19,323.46,16.08,16.08,0,0,0,35,339.54Z" transform="translate(0 0.14)" style="fill: #231f20"/>
    <path d="M28.59,78.52H27.35V78a1.73,1.73,0,0,1-.55.48,1.35,1.35,0,0,1-.69.16,1,1,0,0,1-1-.53,2.8,2.8,0,0,1-.24-1.18V74.54h1.24v2.15a1.42,1.42,0,0,0,.1.57.39.39,0,0,0,.41.24.58.58,0,0,0,.43-.17,3.8,3.8,0,0,0,.32-.45V74.54h1.24Z" transform="translate(0 0.14)" style="fill: #ef4438"/>
    <path d="M347.43,108.05H345.9l-.68-1.13-.67,1.13H343.2l1.35-2-1.38-2h1.52l.65,1.08.65-1.08h1.35L346,106Z" transform="translate(0 0.14)" style="fill: #f06392"/>
    <path d="M29.6,170.47l-1.39,4h-.78l-.78-2.17-.77,2.17H25.1l-1.42-4h1.25l.64,2,.69-2h.79l.69,2,.62-2Z" transform="translate(0 0.14)" style="fill: #478fcc"/>
    <path d="M63.08,122.72l-1.59,4h-.92l-1.55-4h1.33l.72,2.08.81-2.08Z" transform="translate(0 0.14)" style="fill: #feea3a"/>
    <path d="M304.15,135.92l-2.38,5.79h-1.25l1-2.33-1.38-3.46h1.33l.71,2,.81-2Z" transform="translate(0 0.14)" style="fill: #faa629"/>
    <path d="M347.14,169.8l-1.67,2.81h1.64v1h-3.59v-.13l1.67-2.81h-1.53v-1h3.48Z" transform="translate(0 0.14)" style="fill: #89d3e2"/>
    <path d="M222.31,302a1.44,1.44,0,0,1-.15.65,1.08,1.08,0,0,1-.43.49,1.28,1.28,0,0,1-.7.19,2.19,2.19,0,0,1-.63-.1,1.81,1.81,0,0,1-.55-.29v-.88a2.05,2.05,0,0,0,.46.28,1.19,1.19,0,0,0,.52.15.4.4,0,0,0,.37-.16.56.56,0,0,0,.11-.32.58.58,0,0,0-.06-.26.56.56,0,0,0-.22-.21.89.89,0,0,0-.4-.08,1.25,1.25,0,0,0-.54.12v-2.37h2.07v.86h-1.28v.69h.23a1.1,1.1,0,0,1,.63.17,1.24,1.24,0,0,1,.42.46A1.32,1.32,0,0,1,222.31,302Z" transform="translate(0 0.14)" style="fill: #171717"/>
    <path d="M266,301.39a1.71,1.71,0,0,1-.1.54,1.5,1.5,0,0,1-.28.47,1.16,1.16,0,0,1-.44.32,1.31,1.31,0,0,1-.56.12,1.29,1.29,0,0,1-1.25-.82,1.85,1.85,0,0,1-.17-.78,2.74,2.74,0,0,1,.1-.69,3.21,3.21,0,0,1,.3-.69,3.54,3.54,0,0,1,.44-.63,3.94,3.94,0,0,1,.59-.56l.88.33c-.14.13-.26.26-.36.37a3.27,3.27,0,0,0-.3.35c-.09.12-.17.25-.25.37a.88.88,0,0,1,.24,0,1.09,1.09,0,0,1,.58.17,1.25,1.25,0,0,1,.42.46A1.6,1.6,0,0,1,266,301.39Zm-.93,0a.57.57,0,0,0-.14-.42.44.44,0,0,0-.32-.13.38.38,0,0,0-.36.18.65.65,0,0,0-.12.37.63.63,0,0,0,.14.4.38.38,0,0,0,.32.16.4.4,0,0,0,.27-.09.6.6,0,0,0,.16-.22A.79.79,0,0,0,265,301.37Z" transform="translate(0 0.14)" style="fill: #171717"/>
    <path d="M112.37,301.2c0,1.76-1.81,3.19-4.05,3.19s-4-1.43-4-3.19v-4.54h8.09Z" transform="translate(0 0.14)" style="fill: #faa629"/>
    <path d="M155.91,301.2c0,1.76-1.82,3.19-4,3.19s-4.05-1.43-4.05-3.19v-4.54h8.1Z" transform="translate(0 0.14)" style="fill: #89d3e2"/>
    <path d="M109.61,302a1.44,1.44,0,0,1-.15.65,1.08,1.08,0,0,1-.43.49,1.28,1.28,0,0,1-.7.19,2.19,2.19,0,0,1-.63-.1,1.93,1.93,0,0,1-.55-.29v-.88a2.05,2.05,0,0,0,.46.28,1.23,1.23,0,0,0,.52.15.4.4,0,0,0,.37-.16.56.56,0,0,0,.11-.32.58.58,0,0,0-.06-.26.5.5,0,0,0-.22-.21.89.89,0,0,0-.4-.08,1.25,1.25,0,0,0-.54.12v-2.37h2.07v.86h-1.28v.69h.23a1.1,1.1,0,0,1,.63.17,1.24,1.24,0,0,1,.42.46A1.32,1.32,0,0,1,109.61,302Z" transform="translate(0 0.14)" style="fill: #171717"/>
    <path d="M153.34,301.39a1.7,1.7,0,0,1-.09.54,1.72,1.72,0,0,1-.28.47,1.25,1.25,0,0,1-.44.32,1.32,1.32,0,0,1-.57.12,1.34,1.34,0,0,1-.77-.22,1.43,1.43,0,0,1-.48-.6,1.85,1.85,0,0,1-.16-.78,2.35,2.35,0,0,1,.1-.69,3.17,3.17,0,0,1,.29-.69,3.59,3.59,0,0,1,.45-.63,4.4,4.4,0,0,1,.58-.56l.89.33-.37.37c-.1.11-.2.23-.29.35a2.68,2.68,0,0,0-.25.37.75.75,0,0,1,.23,0,1.06,1.06,0,0,1,.58.17,1.1,1.1,0,0,1,.42.46A1.47,1.47,0,0,1,153.34,301.39Zm-.93,0a.57.57,0,0,0-.13-.42.46.46,0,0,0-.33-.13.4.4,0,0,0-.36.18.72.72,0,0,0-.11.37.62.62,0,0,0,.13.4.41.41,0,0,0,.33.16.4.4,0,0,0,.27-.09.48.48,0,0,0,.15-.22A.59.59,0,0,0,152.41,301.37Z" transform="translate(0 0.14)" style="fill: #171717"/>
    <path d="M309.14,299.17l-1.53,4-.83-.3,1.09-2.92h-1.44v-.9h2.71Z" transform="translate(0 0.14)" style="fill: #fff"/>
    <path d="M352.58,301.69a1,1,0,0,1-.05.33,1,1,0,0,1-.2.38,1.11,1.11,0,0,1-.43.31,1.61,1.61,0,0,1-.71.13,1.66,1.66,0,0,1-.72-.13,1.11,1.11,0,0,1-.43-.31,1,1,0,0,1-.2-.37,1.37,1.37,0,0,1,0-.34,1.22,1.22,0,0,1,.15-.58,1.13,1.13,0,0,1,.42-.42,1.21,1.21,0,0,1-.33-.35,1,1,0,0,1-.12-.52,1.29,1.29,0,0,1,.06-.37,1.34,1.34,0,0,1,.22-.38,1.05,1.05,0,0,1,.39-.29,1.57,1.57,0,0,1,.6-.11,1.55,1.55,0,0,1,.61.11,1,1,0,0,1,.39.29,1.16,1.16,0,0,1,.21.37,1.31,1.31,0,0,1,.06.38,1.09,1.09,0,0,1-.11.52,1.25,1.25,0,0,1-.34.35,1.08,1.08,0,0,1,.3.26,1.33,1.33,0,0,1,.2.35A1.07,1.07,0,0,1,352.58,301.69Zm-.91-.1a.67.67,0,0,0-.08-.33.44.44,0,0,0-.18-.2.38.38,0,0,0-.22-.07.44.44,0,0,0-.33.16.62.62,0,0,0-.15.44.64.64,0,0,0,.15.45.46.46,0,0,0,.33.15.44.44,0,0,0,.34-.16A.7.7,0,0,0,351.67,301.59Zm-.11-1.69a1,1,0,0,0-.08-.37.32.32,0,0,0-.57,0,.75.75,0,0,0-.09.37.67.67,0,0,0,.11.39.3.3,0,0,0,.52,0A.67.67,0,0,0,351.56,299.9Z" transform="translate(0 0.14)" style="fill: #171717"/>
    <path d="M208.65,344.46h-1V340.4h1Z" transform="translate(0 0.14)" style="fill: #171717"/>
    <path d="M253.21,344h-2.72V344c.11-.12.22-.26.35-.42s.29-.37.48-.63l.26-.35a2.49,2.49,0,0,0,.2-.34,1.94,1.94,0,0,0,.15-.36,1.34,1.34,0,0,0,.06-.4.74.74,0,0,0-.14-.46.48.48,0,0,0-.37-.17,1.18,1.18,0,0,0-.87.52v-1a2.09,2.09,0,0,1,.25-.18,1.26,1.26,0,0,1,.23-.13,1,1,0,0,1,.3-.11,1.52,1.52,0,0,1,.38,0,1.2,1.2,0,0,1,.59.15,1.05,1.05,0,0,1,.42.44,1.29,1.29,0,0,1,.16.66,2.09,2.09,0,0,1-.07.51,2.34,2.34,0,0,1-.15.37,3.61,3.61,0,0,1-.2.36,5.82,5.82,0,0,1-.47.71h1.16Z" transform="translate(0 0.14)" style="fill: #171717"/>
    <path d="M295.23,343.33a1.27,1.27,0,0,1-.11.54,1.09,1.09,0,0,1-.29.37,1.15,1.15,0,0,1-.39.21,1.37,1.37,0,0,1-.39.06,2.3,2.3,0,0,1-.6-.09,2.19,2.19,0,0,1-.55-.2v-.91a1.75,1.75,0,0,0,.39.28.85.85,0,0,0,.43.12.61.61,0,0,0,.28-.07.42.42,0,0,0,.17-.18.46.46,0,0,0,.06-.23.5.5,0,0,0-.07-.27.48.48,0,0,0-.21-.19.66.66,0,0,0-.32-.08h-.11V342h.13a.56.56,0,0,0,.3-.08.39.39,0,0,0,.17-.19.39.39,0,0,0,.05-.2.48.48,0,0,0-.12-.33.44.44,0,0,0-.33-.14,1,1,0,0,0-.37.07,1.68,1.68,0,0,0-.36.21v-.78a4.32,4.32,0,0,1,.48-.19,1.59,1.59,0,0,1,.5-.07,1.21,1.21,0,0,1,.68.18,1.17,1.17,0,0,1,.4.43,1.13,1.13,0,0,1,.12.48.92.92,0,0,1-.07.36,1.4,1.4,0,0,1-.18.32.94.94,0,0,1-.23.22,1.4,1.4,0,0,1,.37.36A1.08,1.08,0,0,1,295.23,343.33Z" transform="translate(0 0.14)" style="fill: #171717"/>
    <path d="M339.14,343.15h-.43V344h-.95v-.87h-1.45v-.77L338,340h.76v2.49h.43Zm-1.38-.7v-1.3l-.89,1.3Z" transform="translate(0 0.14)" style="fill: #171717"/>
    <path d="M168.91,342.69c0,1.76-1.81,3.19-4,3.19s-4.05-1.43-4.05-3.19v-4.54h8.1Z" transform="translate(0 0.14)" style="fill: #f06392"/>
    <path d="M39.08,342.69c0,1.76-1.81,3.19-4,3.19s-4-1.43-4-3.19v-4.54h8.09Z" transform="translate(0 0.14)" style="fill: #ef4438"/>
    <path d="M82.6,342.69c0,1.76-1.82,3.19-4,3.19s-4-1.43-4-3.19v-4.54h8.1Z" transform="translate(0 0.14)" style="fill: #feea3a"/>
    <path d="M125.26,342.69c0,1.76-1.82,3.19-4.05,3.19s-4-1.43-4-3.19v-4.54h8.1Z" transform="translate(0 0.14)" style="fill: #478fcc"/>
    <path d="M35.63,344.46h-1V340.4h1Z" transform="translate(0 0.14)" style="fill: #171717"/>
    <path d="M80,344H77.3V344c.1-.12.22-.26.34-.42l.49-.63.25-.35c.08-.12.15-.23.21-.34a3,3,0,0,0,.14-.36,1.34,1.34,0,0,0,.06-.4.74.74,0,0,0-.14-.46.48.48,0,0,0-.37-.17,1.18,1.18,0,0,0-.87.52v-1l.25-.18a1.26,1.26,0,0,1,.23-.13,1,1,0,0,1,.3-.11,1.52,1.52,0,0,1,.38,0,1.21,1.21,0,0,1,.6.15,1.05,1.05,0,0,1,.42.44,1.4,1.4,0,0,1,.15.66,2,2,0,0,1-.21.88l-.2.36a7.34,7.34,0,0,1-.48.71H80Z" transform="translate(0 0.14)" style="fill: #171717"/>
    <path d="M122.45,343.33a1.13,1.13,0,0,1-.11.54,1,1,0,0,1-.29.37,1.11,1.11,0,0,1-.38.21,1.44,1.44,0,0,1-.4.06,2.3,2.3,0,0,1-.6-.09,2.19,2.19,0,0,1-.55-.2v-.91a1.75,1.75,0,0,0,.39.28.88.88,0,0,0,.43.12.62.62,0,0,0,.29-.07.58.58,0,0,0,.17-.18.46.46,0,0,0,.06-.23.5.5,0,0,0-.08-.27.41.41,0,0,0-.2-.19.69.69,0,0,0-.32-.08h-.12V342h.14a.56.56,0,0,0,.3-.08.44.44,0,0,0,.17-.19.53.53,0,0,0,.05-.2.44.44,0,0,0-.13-.33.42.42,0,0,0-.32-.14,1,1,0,0,0-.37.07,1.31,1.31,0,0,0-.36.21v-.78c.17-.08.33-.14.47-.19a1.61,1.61,0,0,1,.51-.07,1.17,1.17,0,0,1,.67.18,1.09,1.09,0,0,1,.4.43,1,1,0,0,1-.13,1.16.79.79,0,0,1-.23.22,1.43,1.43,0,0,1,.38.36A1.08,1.08,0,0,1,122.45,343.33Z" transform="translate(0 0.14)" style="fill: #171717"/>
    <path d="M166.34,343.15h-.43V344H165v-.87h-1.45v-.77l1.64-2.42h.76v2.49h.43Zm-1.38-.7v-1.3l-.89,1.3Z" transform="translate(0 0.14)" style="fill: #171717"/>
    <path d="M5.66,274a16.09,16.09,0,0,1,32.17,0v25.1H5.66Z" transform="translate(0 0.14)" style="fill: none;stroke: #fff;stroke-miterlimit: 10"/>
    <path d="M49.17,274a16.09,16.09,0,0,1,32.18,0v25.1H49.17Z" transform="translate(0 0.14)" style="fill: none;stroke: #fff;stroke-miterlimit: 10"/>
    <path d="M221,298.1A16.09,16.09,0,1,0,204.92,282,16.09,16.09,0,0,0,221,298.1Z" transform="translate(0 0.14)" style="fill: #fff;stroke: #fff;stroke-linejoin: round;stroke-width: 0.283464566929134px"/>
    <path d="M266.42,266.79h-34.6c5.68,2.86,8.32,10.17,8.32,15.46s-2.67,12.13-8.37,15h34.65a15.23,15.23,0,1,0,0-30.45Z" transform="translate(0 0.14)" style="fill: #fff;stroke: #fff;stroke-linejoin: round;stroke-width: 0.283464566929134px"/>
    <path d="M307.64,298.1A16.09,16.09,0,1,0,291.56,282,16.09,16.09,0,0,0,307.64,298.1Z" transform="translate(0 0.14)" style="fill: #fff;stroke: #fff;stroke-linejoin: round;stroke-width: 0.283464566929134px"/>
    <path d="M353.06,266.79h-34.6c5.68,2.86,8.32,10.17,8.32,15.46s-2.67,12.13-8.37,15h34.65a15.23,15.23,0,1,0,0-30.45Z" transform="translate(0 0.14)" style="fill: #fff;stroke: #fff;stroke-linejoin: round;stroke-width: 0.283464566929134px"/>
    <path d="M208.15,339.55a16.09,16.09,0,1,0-16.08-16.09A16.09,16.09,0,0,0,208.15,339.55Z" transform="translate(0 0.14)" style="fill: #fff;stroke: #fff;stroke-linejoin: round;stroke-width: 0.283464566929134px"/>
    <path d="M253.57,308.24H219c5.68,2.86,8.32,10.17,8.32,15.46s-2.67,12.13-8.37,15h34.65a15.23,15.23,0,1,0,0-30.45Z" transform="translate(0 0.14)" style="fill: #fff;stroke: #fff;stroke-linejoin: round;stroke-width: 0.283464566929134px"/>
    <path d="M294,339.55A16.09,16.09,0,1,0,278,323.46,16.08,16.08,0,0,0,294,339.55Z" transform="translate(0 0.14)" style="fill: #fff;stroke: #fff;stroke-linejoin: round;stroke-width: 0.283464566929134px"/>
    <path d="M339.45,308.24h-34.6c5.68,2.86,8.32,10.17,8.32,15.46s-2.66,12.13-8.37,15h34.65a15.23,15.23,0,1,0,0-30.45Z" transform="translate(0 0.14)" style="fill: #fff;stroke: #fff;stroke-linejoin: round;stroke-width: 0.283464566929134px"/>
    <path d="M35,339.55A16.09,16.09,0,1,0,19,323.46,16.09,16.09,0,0,0,35,339.55Z" transform="translate(0 0.14)" style="fill: #231f20;stroke: #fff;stroke-miterlimit: 10"/>
    <path d="M80.41,308.24H45.81c5.68,2.86,8.32,10.17,8.32,15.46s-2.66,12.13-8.37,15H80.41a15.23,15.23,0,1,0,0-30.45Z" transform="translate(0 0.14)" style="fill: #231f20;stroke: #fff;stroke-linejoin: round"/>
    <path d="M121.21,339.55a16.09,16.09,0,1,0-16.09-16.09A16.08,16.08,0,0,0,121.21,339.55Z" transform="translate(0 0.14)" style="fill: #231f20;stroke: #fff;stroke-miterlimit: 10"/>
    <path d="M166.59,308.24H132c5.67,2.86,8.31,10.17,8.31,15.46s-2.66,12.13-8.36,15h34.65a15.23,15.23,0,1,0,0-30.45Z" transform="translate(0 0.14)" style="fill: #231f20;stroke: #fff;stroke-linejoin: round"/>
    <path d="M281.44,229.72h-3.59v-5.41h3.53v1.08h-2.09v1h2v1.09h-2v1.16h2.15Z" transform="translate(0 0.14)" style="fill: #faa629"/>
    <g>
      <path d="M295,186.65l1.9-1.59a24.15,24.15,0,0,0-4.67-3.82L291,183.38A21.8,21.8,0,0,1,295,186.65Z" transform="translate(0 0.14)" style="fill: #faa629"/>
      <path d="M296.57,214.82l1.9,1.6a24.26,24.26,0,0,0,3.09-5.22l-2.33-.85A21.2,21.2,0,0,1,296.57,214.82Z" transform="translate(0 0.14)" style="fill: #faa629"/>
      <path d="M301,202.9a22.39,22.39,0,0,1-.9,5.15l2.32.84a23.73,23.73,0,0,0,1.07-6Z" transform="translate(0 0.14)" style="fill: #faa629"/>
      <path d="M299.23,193l2.33-.84a23.79,23.79,0,0,0-3.09-5.22l-1.9,1.59A21.2,21.2,0,0,1,299.23,193Z" transform="translate(0 0.14)" style="fill: #faa629"/>
      <path d="M259.42,210.1l-2.31.84A23.7,23.7,0,0,0,260,216l1.9-1.6A22.4,22.4,0,0,1,259.42,210.1Z" transform="translate(0 0.14)" style="fill: #faa629"/>
      <path d="M291,220l1.24,2.15a24.91,24.91,0,0,0,4.67-3.82l-1.9-1.6A21.4,21.4,0,0,1,291,220Z" transform="translate(0 0.14)" style="fill: #faa629"/>
      <path d="M288.81,182.19l1.25-2.16a24,24,0,0,0-5.66-2L284,180.5A21.69,21.69,0,0,1,288.81,182.19Z" transform="translate(0 0.14)" style="fill: #faa629"/>
      <path d="M301,200.44h2.49a23.73,23.73,0,0,0-1.07-6l-2.32.85A22.3,22.3,0,0,1,301,200.44Z" transform="translate(0 0.14)" style="fill: #faa629"/>
      <path d="M258.61,195.57l-2.33-.85a24,24,0,0,0-1,5.72h2.5A21.11,21.11,0,0,1,258.61,195.57Z" transform="translate(0 0.14)" style="fill: #faa629"/>
      <path d="M263.45,216.31l-1.9,1.6a24.15,24.15,0,0,0,4.43,3.82l1.24-2.14A21.45,21.45,0,0,1,263.45,216.31Z" transform="translate(0 0.14)" style="fill: #faa629"/>
      <path d="M261.89,188.94l-1.9-1.6a23.39,23.39,0,0,0-2.88,5.06l2.31.84A22,22,0,0,1,261.89,188.94Z" transform="translate(0 0.14)" style="fill: #faa629"/>
      <path d="M257.78,202.9h-2.5a24,24,0,0,0,1,5.72l2.33-.84A21.2,21.2,0,0,1,257.78,202.9Z" transform="translate(0 0.14)" style="fill: #faa629"/>
      <path d="M267.22,183.75,266,181.61a24.54,24.54,0,0,0-4.43,3.82l1.9,1.6A22.3,22.3,0,0,1,267.22,183.75Z" transform="translate(0 0.14)" style="fill: #faa629"/>
      <path d="M279.39,225.81" transform="translate(0 0.14)" style="fill: #faa629"/>
      <path d="M279.39,180c.72,0,1.44,0,2.14.11l.43-2.43a24.15,24.15,0,0,0-2.57-.14,23.35,23.35,0,0,0-3.37.24l.43,2.44A21.87,21.87,0,0,1,279.39,180Z" transform="translate(0 0.14)" style="fill: #faa629"/>
      <path d="M274,180.7l-.43-2.46a23.72,23.72,0,0,0-5.5,2.11l1.23,2.14A21.83,21.83,0,0,1,274,180.7Z" transform="translate(0 0.14)" style="fill: #faa629"/>
    </g>
    <g>
      <path d="M355.6,198l1.89-1.6a24.53,24.53,0,0,0-4.66-3.82l-1.24,2.15A21.72,21.72,0,0,1,355.6,198Z" transform="translate(0 0.14)" style="fill: #89d3e2"/>
      <path d="M357.2,226.17l1.9,1.59a24.19,24.19,0,0,0,3.09-5.22l-2.33-.84A22.08,22.08,0,0,1,357.2,226.17Z" transform="translate(0 0.14)" style="fill: #89d3e2"/>
      <path d="M361.62,214.25a21.78,21.78,0,0,1-.89,5.14l2.32.85a24.66,24.66,0,0,0,1.07-6Z" transform="translate(0 0.14)" style="fill: #89d3e2"/>
      <path d="M359.86,204.34l2.33-.85a24.68,24.68,0,0,0-3.09-5.22l-1.9,1.6A22.08,22.08,0,0,1,359.86,204.34Z" transform="translate(0 0.14)" style="fill: #89d3e2"/>
      <path d="M320.05,221.45l-2.31.84a23.78,23.78,0,0,0,2.87,5.06l1.91-1.6A21.52,21.52,0,0,1,320.05,221.45Z" transform="translate(0 0.14)" style="fill: #89d3e2"/>
      <path d="M351.59,231.31l1.24,2.14a23.79,23.79,0,0,0,4.66-3.82L355.6,228A22.14,22.14,0,0,1,351.59,231.31Z" transform="translate(0 0.14)" style="fill: #89d3e2"/>
      <path d="M349.44,193.53l1.24-2.15a23.72,23.72,0,0,0-5.66-2l-.43,2.44A21.25,21.25,0,0,1,349.44,193.53Z" transform="translate(0 0.14)" style="fill: #89d3e2"/>
      <path d="M361.62,211.79h2.5a24.66,24.66,0,0,0-1.07-6l-2.32.84A21.86,21.86,0,0,1,361.62,211.79Z" transform="translate(0 0.14)" style="fill: #89d3e2"/>
      <path d="M319.23,206.91l-2.32-.84a24,24,0,0,0-1,5.72h2.5A21.74,21.74,0,0,1,319.23,206.91Z" transform="translate(0 0.14)" style="fill: #89d3e2"/>
      <path d="M324.08,227.66l-1.9,1.6a24.54,24.54,0,0,0,4.43,3.82l1.23-2.14A22.63,22.63,0,0,1,324.08,227.66Z" transform="translate(0 0.14)" style="fill: #89d3e2"/>
      <path d="M322.52,200.28l-1.91-1.6a24.1,24.1,0,0,0-2.87,5.07l2.31.84A21.88,21.88,0,0,1,322.52,200.28Z" transform="translate(0 0.14)" style="fill: #89d3e2"/>
      <path d="M318.41,214.25h-2.5a24,24,0,0,0,1,5.72l2.32-.85A21.66,21.66,0,0,1,318.41,214.25Z" transform="translate(0 0.14)" style="fill: #89d3e2"/>
      <path d="M327.84,195.1,326.61,193a24.15,24.15,0,0,0-4.43,3.82l1.9,1.6A21.75,21.75,0,0,1,327.84,195.1Z" transform="translate(0 0.14)" style="fill: #89d3e2"/>
      <path d="M340,237.15" transform="translate(0 0.14)" style="fill: #89d3e2"/>
      <path d="M340,191.35c.73,0,1.45,0,2.15.11l.43-2.44a24.34,24.34,0,0,0-2.58-.14,24.84,24.84,0,0,0-3.36.24l.43,2.45A21.85,21.85,0,0,1,340,191.35Z" transform="translate(0 0.14)" style="fill: #89d3e2"/>
      <path d="M334.66,192l-.43-2.45a24,24,0,0,0-5.51,2.11l1.24,2.14A21.65,21.65,0,0,1,334.66,192Z" transform="translate(0 0.14)" style="fill: #89d3e2"/>
    </g>
    <g>
      <path d="M234.3,198l1.89-1.6a24.53,24.53,0,0,0-4.66-3.82l-1.24,2.15A21.72,21.72,0,0,1,234.3,198Z" transform="translate(0 0.14)" style="fill: #f06392"/>
      <path d="M235.9,226.17l1.9,1.59a24.15,24.15,0,0,0,3.08-5.22l-2.32-.84A22.08,22.08,0,0,1,235.9,226.17Z" transform="translate(0 0.14)" style="fill: #f06392"/>
      <path d="M240.32,214.25a21.29,21.29,0,0,1-.9,5.14l2.32.85a24.19,24.19,0,0,0,1.08-6Z" transform="translate(0 0.14)" style="fill: #f06392"/>
      <path d="M238.56,204.34l2.32-.85a24.22,24.22,0,0,0-3.08-5.22l-1.9,1.6A22.08,22.08,0,0,1,238.56,204.34Z" transform="translate(0 0.14)" style="fill: #f06392"/>
      <path d="M198.75,221.45l-2.32.84a24.25,24.25,0,0,0,2.88,5.06l1.91-1.6A21.05,21.05,0,0,1,198.75,221.45Z" transform="translate(0 0.14)" style="fill: #f06392"/>
      <path d="M230.29,231.31l1.24,2.14a23.79,23.79,0,0,0,4.66-3.82L234.3,228A22.14,22.14,0,0,1,230.29,231.31Z" transform="translate(0 0.14)" style="fill: #f06392"/>
      <path d="M228.14,193.53l1.24-2.15a23.72,23.72,0,0,0-5.66-2l-.43,2.44A21.25,21.25,0,0,1,228.14,193.53Z" transform="translate(0 0.14)" style="fill: #f06392"/>
      <path d="M240.32,211.79h2.5a24.19,24.19,0,0,0-1.08-6l-2.32.84A21.37,21.37,0,0,1,240.32,211.79Z" transform="translate(0 0.14)" style="fill: #f06392"/>
      <path d="M197.93,206.91l-2.33-.84a24,24,0,0,0-1,5.72h2.5A21.19,21.19,0,0,1,197.93,206.91Z" transform="translate(0 0.14)" style="fill: #f06392"/>
      <path d="M202.78,227.66l-1.91,1.6a25,25,0,0,0,4.44,3.82l1.23-2.14A22.63,22.63,0,0,1,202.78,227.66Z" transform="translate(0 0.14)" style="fill: #f06392"/>
      <path d="M201.22,200.28l-1.91-1.6a24.59,24.59,0,0,0-2.88,5.07l2.32.84A21.4,21.4,0,0,1,201.22,200.28Z" transform="translate(0 0.14)" style="fill: #f06392"/>
      <path d="M197.11,214.25h-2.5a24,24,0,0,0,1,5.72l2.33-.85A21.11,21.11,0,0,1,197.11,214.25Z" transform="translate(0 0.14)" style="fill: #f06392"/>
      <path d="M206.54,195.1,205.31,193a24.55,24.55,0,0,0-4.44,3.82l1.91,1.6A21.75,21.75,0,0,1,206.54,195.1Z" transform="translate(0 0.14)" style="fill: #f06392"/>
      <path d="M218.71,237.15" transform="translate(0 0.14)" style="fill: #f06392"/>
      <path d="M218.71,191.35c.73,0,1.44,0,2.15.11l.43-2.44a24.48,24.48,0,0,0-2.58-.14,24.84,24.84,0,0,0-3.36.24l.43,2.45A21.72,21.72,0,0,1,218.71,191.35Z" transform="translate(0 0.14)" style="fill: #f06392"/>
      <path d="M213.36,192l-.43-2.45a23.79,23.79,0,0,0-5.51,2.11l1.24,2.14A21.65,21.65,0,0,1,213.36,192Z" transform="translate(0 0.14)" style="fill: #f06392"/>
    </g>
    <g>
      <path d="M169.36,198l1.89-1.6a24.53,24.53,0,0,0-4.66-3.82l-1.24,2.15A21.72,21.72,0,0,1,169.36,198Z" transform="translate(0 0.14)" style="fill: #478fcc"/>
      <path d="M171,226.17l1.9,1.59a24.15,24.15,0,0,0,3.08-5.22l-2.32-.84A22.08,22.08,0,0,1,171,226.17Z" transform="translate(0 0.14)" style="fill: #478fcc"/>
      <path d="M175.38,214.25a21.29,21.29,0,0,1-.9,5.14l2.32.85a24.19,24.19,0,0,0,1.08-6Z" transform="translate(0 0.14)" style="fill: #478fcc"/>
      <path d="M173.62,204.34l2.32-.85a24.64,24.64,0,0,0-3.08-5.22l-1.9,1.6A22.08,22.08,0,0,1,173.62,204.34Z" transform="translate(0 0.14)" style="fill: #478fcc"/>
      <path d="M133.81,221.45l-2.32.84a24.25,24.25,0,0,0,2.88,5.06l1.91-1.6A21.05,21.05,0,0,1,133.81,221.45Z" transform="translate(0 0.14)" style="fill: #478fcc"/>
      <path d="M165.35,231.31l1.24,2.14a23.79,23.79,0,0,0,4.66-3.82L169.36,228A22.14,22.14,0,0,1,165.35,231.31Z" transform="translate(0 0.14)" style="fill: #478fcc"/>
      <path d="M163.2,193.53l1.24-2.15a23.72,23.72,0,0,0-5.66-2l-.43,2.44A21.25,21.25,0,0,1,163.2,193.53Z" transform="translate(0 0.14)" style="fill: #478fcc"/>
      <path d="M175.38,211.79h2.5a24.19,24.19,0,0,0-1.08-6l-2.32.84A21.37,21.37,0,0,1,175.38,211.79Z" transform="translate(0 0.14)" style="fill: #478fcc"/>
      <path d="M133,206.91l-2.33-.84a24,24,0,0,0-1,5.72h2.49A21.75,21.75,0,0,1,133,206.91Z" transform="translate(0 0.14)" style="fill: #478fcc"/>
      <path d="M137.84,227.66l-1.91,1.6a25,25,0,0,0,4.44,3.82l1.23-2.14A22.63,22.63,0,0,1,137.84,227.66Z" transform="translate(0 0.14)" style="fill: #478fcc"/>
      <path d="M136.28,200.28l-1.91-1.6a24.59,24.59,0,0,0-2.88,5.07l2.32.84A21.4,21.4,0,0,1,136.28,200.28Z" transform="translate(0 0.14)" style="fill: #478fcc"/>
      <path d="M132.16,214.25h-2.49a24,24,0,0,0,1,5.72l2.33-.85A21.66,21.66,0,0,1,132.16,214.25Z" transform="translate(0 0.14)" style="fill: #478fcc"/>
      <path d="M141.6,195.1,140.37,193a24.55,24.55,0,0,0-4.44,3.82l1.91,1.6A21.75,21.75,0,0,1,141.6,195.1Z" transform="translate(0 0.14)" style="fill: #478fcc"/>
      <path d="M153.77,237.15" transform="translate(0 0.14)" style="fill: #478fcc"/>
      <path d="M153.77,191.35c.73,0,1.44,0,2.15.11l.43-2.44a24.48,24.48,0,0,0-2.58-.14,24.84,24.84,0,0,0-3.36.24l.43,2.45A21.72,21.72,0,0,1,153.77,191.35Z" transform="translate(0 0.14)" style="fill: #478fcc"/>
      <path d="M148.42,192l-.43-2.45a23.79,23.79,0,0,0-5.51,2.11l1.24,2.14A21.65,21.65,0,0,1,148.42,192Z" transform="translate(0 0.14)" style="fill: #478fcc"/>
    </g>
    <g>
      <path d="M108.46,186.55l1.9-1.59a23.85,23.85,0,0,0-4.67-3.82l-1.24,2.15A21.34,21.34,0,0,1,108.46,186.55Z" transform="translate(0 0.14)" style="fill: #feea3a"/>
      <path d="M110.06,214.72l1.9,1.6a24.26,24.26,0,0,0,3.09-5.22l-2.33-.85A21,21,0,0,1,110.06,214.72Z" transform="translate(0 0.14)" style="fill: #feea3a"/>
      <path d="M114.49,202.81a21.87,21.87,0,0,1-.9,5.14l2.32.84a23.66,23.66,0,0,0,1.07-6Z" transform="translate(0 0.14)" style="fill: #feea3a"/>
      <path d="M112.72,192.89l2.33-.84a23.79,23.79,0,0,0-3.09-5.22l-1.9,1.59A21.46,21.46,0,0,1,112.72,192.89Z" transform="translate(0 0.14)" style="fill: #feea3a"/>
      <path d="M72.91,210l-2.31.84a23.7,23.7,0,0,0,2.88,5.07l1.9-1.6A22.4,22.4,0,0,1,72.91,210Z" transform="translate(0 0.14)" style="fill: #feea3a"/>
      <path d="M104.45,219.86l1.24,2.15a24.21,24.21,0,0,0,4.67-3.82l-1.9-1.59A21.75,21.75,0,0,1,104.45,219.86Z" transform="translate(0 0.14)" style="fill: #feea3a"/>
      <path d="M102.3,182.09l1.25-2.16a24.49,24.49,0,0,0-5.66-2l-.43,2.44A21.69,21.69,0,0,1,102.3,182.09Z" transform="translate(0 0.14)" style="fill: #feea3a"/>
      <path d="M114.49,200.34H117a23.81,23.81,0,0,0-1.07-6l-2.32.85A21.78,21.78,0,0,1,114.49,200.34Z" transform="translate(0 0.14)" style="fill: #feea3a"/>
      <path d="M72.1,195.47l-2.33-.85a24,24,0,0,0-1,5.72h2.49A21.76,21.76,0,0,1,72.1,195.47Z" transform="translate(0 0.14)" style="fill: #feea3a"/>
      <path d="M77,216.21,75,217.81a24.15,24.15,0,0,0,4.43,3.82l1.24-2.14A21.38,21.38,0,0,1,77,216.21Z" transform="translate(0 0.14)" style="fill: #feea3a"/>
      <path d="M75.38,188.84l-1.9-1.6a23.39,23.39,0,0,0-2.88,5.06l2.31.84A22.32,22.32,0,0,1,75.38,188.84Z" transform="translate(0 0.14)" style="fill: #feea3a"/>
      <path d="M71.27,202.81H68.78a24.12,24.12,0,0,0,1,5.72l2.33-.85A21.76,21.76,0,0,1,71.27,202.81Z" transform="translate(0 0.14)" style="fill: #feea3a"/>
      <path d="M80.71,183.66l-1.24-2.14A23.77,23.77,0,0,0,75,185.34l1.91,1.6A21.38,21.38,0,0,1,80.71,183.66Z" transform="translate(0 0.14)" style="fill: #feea3a"/>
      <path d="M92.88,225.71" transform="translate(0 0.14)" style="fill: #feea3a"/>
      <path d="M92.88,179.9c.72,0,1.44,0,2.15.11l.42-2.43a24.15,24.15,0,0,0-2.57-.14,23.45,23.45,0,0,0-3.37.24l.43,2.45A20.45,20.45,0,0,1,92.88,179.9Z" transform="translate(0 0.14)" style="fill: #feea3a"/>
      <path d="M87.53,180.6l-.44-2.46a24.17,24.17,0,0,0-5.5,2.11l1.23,2.14A21.91,21.91,0,0,1,87.53,180.6Z" transform="translate(0 0.14)" style="fill: #feea3a"/>
    </g>
    <g>
      <path d="M48.48,198l1.9-1.6a24.91,24.91,0,0,0-4.67-3.82l-1.24,2.15A21.4,21.4,0,0,1,48.48,198Z" transform="translate(0 0.14)" style="fill: #ef4438"/>
      <path d="M50.08,226.17l1.9,1.59a23.79,23.79,0,0,0,3.09-5.22l-2.33-.84A22.08,22.08,0,0,1,50.08,226.17Z" transform="translate(0 0.14)" style="fill: #ef4438"/>
      <path d="M54.5,214.25a21.78,21.78,0,0,1-.89,5.14l2.32.85a24.19,24.19,0,0,0,1.07-6Z" transform="translate(0 0.14)" style="fill: #ef4438"/>
      <path d="M52.74,204.34l2.33-.85A24.26,24.26,0,0,0,52,198.27l-1.9,1.6A22.08,22.08,0,0,1,52.74,204.34Z" transform="translate(0 0.14)" style="fill: #ef4438"/>
      <path d="M12.93,221.45l-2.31.84a23.78,23.78,0,0,0,2.87,5.06l1.91-1.6A21.52,21.52,0,0,1,12.93,221.45Z" transform="translate(0 0.14)" style="fill: #ef4438"/>
      <path d="M44.47,231.31l1.24,2.14a24.15,24.15,0,0,0,4.67-3.82L48.48,228A21.8,21.8,0,0,1,44.47,231.31Z" transform="translate(0 0.14)" style="fill: #ef4438"/>
      <path d="M42.32,193.53l1.24-2.15a23.8,23.8,0,0,0-5.65-2l-.43,2.44A21.17,21.17,0,0,1,42.32,193.53Z" transform="translate(0 0.14)" style="fill: #ef4438"/>
      <path d="M54.5,211.79H57a24.19,24.19,0,0,0-1.07-6l-2.32.84A21.86,21.86,0,0,1,54.5,211.79Z" transform="translate(0 0.14)" style="fill: #ef4438"/>
      <path d="M12.12,206.91l-2.33-.84a24,24,0,0,0-1,5.72h2.5A21.2,21.2,0,0,1,12.12,206.91Z" transform="translate(0 0.14)" style="fill: #ef4438"/>
      <path d="M17,227.66l-1.9,1.6a24.54,24.54,0,0,0,4.43,3.82l1.24-2.14A22.3,22.3,0,0,1,17,227.66Z" transform="translate(0 0.14)" style="fill: #ef4438"/>
      <path d="M15.4,200.28l-1.91-1.6a24.1,24.1,0,0,0-2.87,5.07l2.31.84A21.88,21.88,0,0,1,15.4,200.28Z" transform="translate(0 0.14)" style="fill: #ef4438"/>
      <path d="M11.29,214.25H8.79a24,24,0,0,0,1,5.72l2.33-.85A21.11,21.11,0,0,1,11.29,214.25Z" transform="translate(0 0.14)" style="fill: #ef4438"/>
      <path d="M20.73,195.1,19.49,193a24.15,24.15,0,0,0-4.43,3.82l1.9,1.6A21.45,21.45,0,0,1,20.73,195.1Z" transform="translate(0 0.14)" style="fill: #ef4438"/>
      <path d="M32.9,237.15" transform="translate(0 0.14)" style="fill: #ef4438"/>
      <path d="M32.9,191.35c.72,0,1.44,0,2.14.11l.43-2.44a24.15,24.15,0,0,0-2.57-.14,24.87,24.87,0,0,0-3.37.24l.43,2.45A21.87,21.87,0,0,1,32.9,191.35Z" transform="translate(0 0.14)" style="fill: #ef4438"/>
      <path d="M27.54,192l-.43-2.45a24,24,0,0,0-5.51,2.11l1.24,2.14A21.85,21.85,0,0,1,27.54,192Z" transform="translate(0 0.14)" style="fill: #ef4438"/>
    </g>
    <g>
      <path d="M356.82,86.43l1.38-.5a14,14,0,0,0-1.81-3.11l-1.13,1A12.63,12.63,0,0,1,356.82,86.43Z" transform="translate(0 0.14)" style="fill: #f06392"/>
      <path d="M354.44,82.79l1.13-1a14.47,14.47,0,0,0-2.75-2.31l-.74,1.27A12.9,12.9,0,0,1,354.44,82.79Z" transform="translate(0 0.14)" style="fill: #f06392"/>
      <path d="M345.28,105.3" transform="translate(0 0.14)" style="fill: #f06392"/>
      <path d="M336.12,99.82l-1.12,1a13.88,13.88,0,0,0,2.75,2.31l.73-1.27A12.77,12.77,0,0,1,336.12,99.82Z" transform="translate(0 0.14)" style="fill: #f06392"/>
      <path d="M332.79,91.94h-1.47a13.89,13.89,0,0,0,.6,3.55l1.39-.5A12.25,12.25,0,0,1,332.79,91.94Z" transform="translate(0 0.14)" style="fill: #f06392"/>
      <path d="M357.77,90.67h1.48a14.34,14.34,0,0,0-.61-3.55l-1.39.51A12.25,12.25,0,0,1,357.77,90.67Z" transform="translate(0 0.14)" style="fill: #f06392"/>
      <path d="M351,80.17l.74-1.28a14.1,14.1,0,0,0-3.38-1.24l-.26,1.46A12.12,12.12,0,0,1,351,80.17Z" transform="translate(0 0.14)" style="fill: #f06392"/>
      <path d="M338.48,80.8l-.73-1.27A13.88,13.88,0,0,0,335,81.84l1.12,1A13.24,13.24,0,0,1,338.48,80.8Z" transform="translate(0 0.14)" style="fill: #f06392"/>
      <path d="M357.77,91.94a12.25,12.25,0,0,1-.52,3l1.39.5a14.34,14.34,0,0,0,.61-3.55Z" transform="translate(0 0.14)" style="fill: #f06392"/>
      <path d="M333.75,96.18l-1.39.51a13.94,13.94,0,0,0,1.82,3.1l1.12-.94A12.24,12.24,0,0,1,333.75,96.18Z" transform="translate(0 0.14)" style="fill: #f06392"/>
      <path d="M335.3,83.77l-1.12-1a14,14,0,0,0-1.82,3.11l1.39.5A12.17,12.17,0,0,1,335.3,83.77Z" transform="translate(0 0.14)" style="fill: #f06392"/>
      <path d="M355.26,98.85l1.13.94a13.9,13.9,0,0,0,1.81-3.1l-1.38-.51A12.7,12.7,0,0,1,355.26,98.85Z" transform="translate(0 0.14)" style="fill: #f06392"/>
      <path d="M342.48,79.11l-.25-1.46a14,14,0,0,0-3.38,1.24l.74,1.28A11.9,11.9,0,0,1,342.48,79.11Z" transform="translate(0 0.14)" style="fill: #f06392"/>
      <path d="M352.08,101.81l.74,1.27a14.47,14.47,0,0,0,2.75-2.31l-1.13-1A12.15,12.15,0,0,1,352.08,101.81Z" transform="translate(0 0.14)" style="fill: #f06392"/>
      <path d="M333.31,87.63l-1.39-.51a13.89,13.89,0,0,0-.6,3.55h1.47A12.25,12.25,0,0,1,333.31,87.63Z" transform="translate(0 0.14)" style="fill: #f06392"/>
      <path d="M345.28,78.78a11.05,11.05,0,0,1,1.54.11l.26-1.45a12.53,12.53,0,0,0-3.6,0l.26,1.45A11.28,11.28,0,0,1,345.28,78.78Z" transform="translate(0 0.14)" style="fill: #f06392"/>
    </g>
    <g>
      <path d="M313.57,118.28l1.39-.5a14,14,0,0,0-1.82-3.11l-1.13,1A12.63,12.63,0,0,1,313.57,118.28Z" transform="translate(0 0.14)" style="fill: #faa629"/>
      <path d="M311.19,114.64l1.13-1a13.88,13.88,0,0,0-2.75-2.31l-.73,1.28A12.72,12.72,0,0,1,311.19,114.64Z" transform="translate(0 0.14)" style="fill: #faa629"/>
      <path d="M302,137.16" transform="translate(0 0.14)" style="fill: #faa629"/>
      <path d="M292.88,131.67l-1.13,1a14.27,14.27,0,0,0,2.75,2.32l.74-1.28A12.15,12.15,0,0,1,292.88,131.67Z" transform="translate(0 0.14)" style="fill: #faa629"/>
      <path d="M289.54,123.8h-1.47a13.4,13.4,0,0,0,.61,3.54l1.38-.5A13.24,13.24,0,0,1,289.54,123.8Z" transform="translate(0 0.14)" style="fill: #faa629"/>
      <path d="M314.53,122.52H316a13.47,13.47,0,0,0-.61-3.55l-1.38.51A13.24,13.24,0,0,1,314.53,122.52Z" transform="translate(0 0.14)" style="fill: #faa629"/>
      <path d="M307.73,112l.74-1.28a13.66,13.66,0,0,0-3.38-1.23l-.26,1.45A12.12,12.12,0,0,1,307.73,112Z" transform="translate(0 0.14)" style="fill: #faa629"/>
      <path d="M295.24,112.66l-.74-1.28a13.59,13.59,0,0,0-2.75,2.32l1.13.94A12.46,12.46,0,0,1,295.24,112.66Z" transform="translate(0 0.14)" style="fill: #faa629"/>
      <path d="M314.53,123.8a13.24,13.24,0,0,1-.52,3l1.38.5a13.4,13.4,0,0,0,.61-3.54Z" transform="translate(0 0.14)" style="fill: #faa629"/>
      <path d="M290.5,128l-1.38.5a13.32,13.32,0,0,0,1.81,3.1l1.13-.94A12.88,12.88,0,0,1,290.5,128Z" transform="translate(0 0.14)" style="fill: #faa629"/>
      <path d="M292.06,115.62l-1.13-1a13.6,13.6,0,0,0-1.81,3.11l1.38.5A12.63,12.63,0,0,1,292.06,115.62Z" transform="translate(0 0.14)" style="fill: #faa629"/>
      <path d="M312,130.7l1.13,1a14,14,0,0,0,1.82-3.11l-1.39-.5A12.88,12.88,0,0,1,312,130.7Z" transform="translate(0 0.14)" style="fill: #faa629"/>
      <path d="M299.24,111l-.26-1.45a13.66,13.66,0,0,0-3.38,1.23l.74,1.28A12.12,12.12,0,0,1,299.24,111Z" transform="translate(0 0.14)" style="fill: #faa629"/>
      <path d="M308.84,133.66l.73,1.28a13.92,13.92,0,0,0,2.75-2.32l-1.13-1A12.39,12.39,0,0,1,308.84,133.66Z" transform="translate(0 0.14)" style="fill: #faa629"/>
      <path d="M290.06,119.48l-1.38-.51a13.47,13.47,0,0,0-.61,3.55h1.47A13.24,13.24,0,0,1,290.06,119.48Z" transform="translate(0 0.14)" style="fill: #faa629"/>
      <path d="M302,110.63a13.13,13.13,0,0,1,1.54.11l.25-1.45a13.23,13.23,0,0,0-1.79-.13,13.38,13.38,0,0,0-1.8.13l.25,1.45A13.15,13.15,0,0,1,302,110.63Z" transform="translate(0 0.14)" style="fill: #faa629"/>
    </g>
    <g>
      <path d="M356.82,152l1.38-.5a14,14,0,0,0-1.81-3.11l-1.13,1A12.88,12.88,0,0,1,356.82,152Z" transform="translate(0 0.14)" style="fill: #89d3e2"/>
      <path d="M354.44,148.39l1.13-.94a14.16,14.16,0,0,0-2.75-2.32l-.74,1.28A12.46,12.46,0,0,1,354.44,148.39Z" transform="translate(0 0.14)" style="fill: #89d3e2"/>
      <path d="M345.28,170.91" transform="translate(0 0.14)" style="fill: #89d3e2"/>
      <path d="M336.12,165.43l-1.12.94a13.59,13.59,0,0,0,2.75,2.32l.73-1.28A13.12,13.12,0,0,1,336.12,165.43Z" transform="translate(0 0.14)" style="fill: #89d3e2"/>
      <path d="M332.79,157.55h-1.47a13.74,13.74,0,0,0,.6,3.54l1.39-.5A12.25,12.25,0,0,1,332.79,157.55Z" transform="translate(0 0.14)" style="fill: #89d3e2"/>
      <path d="M357.77,156.27h1.48a14.18,14.18,0,0,0-.61-3.54l-1.39.5A12.25,12.25,0,0,1,357.77,156.27Z" transform="translate(0 0.14)" style="fill: #89d3e2"/>
      <path d="M351,145.77l.74-1.28a13.66,13.66,0,0,0-3.38-1.23l-.26,1.45A12.57,12.57,0,0,1,351,145.77Z" transform="translate(0 0.14)" style="fill: #89d3e2"/>
      <path d="M338.48,146.41l-.73-1.28a13.59,13.59,0,0,0-2.75,2.32l1.12.94A12.78,12.78,0,0,1,338.48,146.41Z" transform="translate(0 0.14)" style="fill: #89d3e2"/>
      <path d="M357.77,157.55a12.25,12.25,0,0,1-.52,3l1.39.5a14.18,14.18,0,0,0,.61-3.54Z" transform="translate(0 0.14)" style="fill: #89d3e2"/>
      <path d="M333.75,161.79l-1.39.5a14,14,0,0,0,1.82,3.11l1.12-1A12.41,12.41,0,0,1,333.75,161.79Z" transform="translate(0 0.14)" style="fill: #89d3e2"/>
      <path d="M335.3,149.37l-1.12-1a14,14,0,0,0-1.82,3.11l1.39.5A12.41,12.41,0,0,1,335.3,149.37Z" transform="translate(0 0.14)" style="fill: #89d3e2"/>
      <path d="M355.26,164.45l1.13,1a14,14,0,0,0,1.81-3.11l-1.38-.5A12.88,12.88,0,0,1,355.26,164.45Z" transform="translate(0 0.14)" style="fill: #89d3e2"/>
      <path d="M342.48,144.71l-.25-1.45a13.52,13.52,0,0,0-3.38,1.23l.74,1.28A12.33,12.33,0,0,1,342.48,144.71Z" transform="translate(0 0.14)" style="fill: #89d3e2"/>
      <path d="M352.08,167.41l.74,1.28a14.16,14.16,0,0,0,2.75-2.32l-1.13-.94A12.46,12.46,0,0,1,352.08,167.41Z" transform="translate(0 0.14)" style="fill: #89d3e2"/>
      <path d="M333.31,153.23l-1.39-.5a13.74,13.74,0,0,0-.6,3.54h1.47A12.25,12.25,0,0,1,333.31,153.23Z" transform="translate(0 0.14)" style="fill: #89d3e2"/>
      <path d="M345.28,144.39a12.85,12.85,0,0,1,1.54.1l.26-1.45a12.53,12.53,0,0,0-3.6,0l.26,1.45A13.13,13.13,0,0,1,345.28,144.39Z" transform="translate(0 0.14)" style="fill: #89d3e2"/>
    </g>
    <g>
      <path d="M38.14,152.83l1.39-.51a13.94,13.94,0,0,0-1.82-3.1l-1.13.94A12.28,12.28,0,0,1,38.14,152.83Z" transform="translate(0 0.14)" style="fill: #478fcc"/>
      <path d="M35.76,149.19l1.13-.95a14.27,14.27,0,0,0-2.75-2.32l-.73,1.28A12.39,12.39,0,0,1,35.76,149.19Z" transform="translate(0 0.14)" style="fill: #478fcc"/>
      <path d="M26.61,171.7" transform="translate(0 0.14)" style="fill: #478fcc"/>
      <path d="M17.45,166.22l-1.13.95a14.47,14.47,0,0,0,2.75,2.31l.74-1.28A12.46,12.46,0,0,1,17.45,166.22Z" transform="translate(0 0.14)" style="fill: #478fcc"/>
      <path d="M14.11,158.34H12.64a14.34,14.34,0,0,0,.61,3.55l1.39-.51A12.73,12.73,0,0,1,14.11,158.34Z" transform="translate(0 0.14)" style="fill: #478fcc"/>
      <path d="M39.1,157.06h1.47a13.81,13.81,0,0,0-.6-3.54l-1.39.5A12.25,12.25,0,0,1,39.1,157.06Z" transform="translate(0 0.14)" style="fill: #478fcc"/>
      <path d="M32.3,146.56l.74-1.28a13.92,13.92,0,0,0-3.38-1.23l-.25,1.45A13,13,0,0,1,32.3,146.56Z" transform="translate(0 0.14)" style="fill: #478fcc"/>
      <path d="M19.81,147.2l-.74-1.28a14.9,14.9,0,0,0-2.75,2.32l1.13.95A12.15,12.15,0,0,1,19.81,147.2Z" transform="translate(0 0.14)" style="fill: #478fcc"/>
      <path d="M39.1,158.34a12.25,12.25,0,0,1-.52,3l1.39.51a13.89,13.89,0,0,0,.6-3.55Z" transform="translate(0 0.14)" style="fill: #478fcc"/>
      <path d="M15.07,162.58l-1.38.5a14,14,0,0,0,1.81,3.11l1.13-.95A12.63,12.63,0,0,1,15.07,162.58Z" transform="translate(0 0.14)" style="fill: #478fcc"/>
      <path d="M16.63,150.16l-1.13-.94a13.9,13.9,0,0,0-1.81,3.1l1.38.5A12.88,12.88,0,0,1,16.63,150.16Z" transform="translate(0 0.14)" style="fill: #478fcc"/>
      <path d="M36.58,165.24l1.13.95a14,14,0,0,0,1.82-3.11l-1.39-.5A12.21,12.21,0,0,1,36.58,165.24Z" transform="translate(0 0.14)" style="fill: #478fcc"/>
      <path d="M23.81,145.5l-.26-1.45a14.08,14.08,0,0,0-3.38,1.23l.74,1.28A13,13,0,0,1,23.81,145.5Z" transform="translate(0 0.14)" style="fill: #478fcc"/>
      <path d="M33.41,168.2l.73,1.28a13.88,13.88,0,0,0,2.75-2.31l-1.13-.95A12.72,12.72,0,0,1,33.41,168.2Z" transform="translate(0 0.14)" style="fill: #478fcc"/>
      <path d="M14.64,154l-1.39-.5a14.34,14.34,0,0,0-.61,3.54h1.47A12.73,12.73,0,0,1,14.64,154Z" transform="translate(0 0.14)" style="fill: #478fcc"/>
      <path d="M26.61,145.18a13.13,13.13,0,0,1,1.54.1l.26-1.45a15.25,15.25,0,0,0-1.8-.13,15.25,15.25,0,0,0-1.8.13l.26,1.45A12.85,12.85,0,0,1,26.61,145.18Z" transform="translate(0 0.14)" style="fill: #478fcc"/>
    </g>
    <g>
      <path d="M72.56,105.08l1.38-.51a14.3,14.3,0,0,0-1.81-3.1l-1.13.94A12.7,12.7,0,0,1,72.56,105.08Z" transform="translate(0 0.14)" style="fill: #feea3a"/>
      <path d="M70.18,101.44l1.13-1a14.47,14.47,0,0,0-2.75-2.31l-.74,1.27A12.15,12.15,0,0,1,70.18,101.44Z" transform="translate(0 0.14)" style="fill: #feea3a"/>
      <path d="M61,124" transform="translate(0 0.14)" style="fill: #feea3a"/>
      <path d="M51.86,118.47l-1.12,1a14.11,14.11,0,0,0,2.74,2.31l.74-1.27A13.24,13.24,0,0,1,51.86,118.47Z" transform="translate(0 0.14)" style="fill: #feea3a"/>
      <path d="M48.53,110.59H47.05a14.34,14.34,0,0,0,.61,3.55l1.39-.51A12.25,12.25,0,0,1,48.53,110.59Z" transform="translate(0 0.14)" style="fill: #feea3a"/>
      <path d="M73.51,109.32H75a14.34,14.34,0,0,0-.61-3.55l-1.39.5A12.25,12.25,0,0,1,73.51,109.32Z" transform="translate(0 0.14)" style="fill: #feea3a"/>
      <path d="M66.72,98.81l.73-1.28a13.85,13.85,0,0,0-3.37-1.23l-.26,1.45A13,13,0,0,1,66.72,98.81Z" transform="translate(0 0.14)" style="fill: #feea3a"/>
      <path d="M54.22,99.45l-.74-1.27a14.11,14.11,0,0,0-2.74,2.31l1.12,1A12.15,12.15,0,0,1,54.22,99.45Z" transform="translate(0 0.14)" style="fill: #feea3a"/>
      <path d="M73.51,110.59a12.25,12.25,0,0,1-.52,3l1.39.51a14.34,14.34,0,0,0,.61-3.55Z" transform="translate(0 0.14)" style="fill: #feea3a"/>
      <path d="M49.48,114.83l-1.38.5a14.37,14.37,0,0,0,1.81,3.11l1.13-1A12.63,12.63,0,0,1,49.48,114.83Z" transform="translate(0 0.14)" style="fill: #feea3a"/>
      <path d="M51,102.41l-1.13-.94a14.3,14.3,0,0,0-1.81,3.1l1.38.51A12.7,12.7,0,0,1,51,102.41Z" transform="translate(0 0.14)" style="fill: #feea3a"/>
      <path d="M71,117.49l1.13,1a14.37,14.37,0,0,0,1.81-3.11l-1.38-.5A12.63,12.63,0,0,1,71,117.49Z" transform="translate(0 0.14)" style="fill: #feea3a"/>
      <path d="M58.22,97.75,58,96.3a13.92,13.92,0,0,0-3.38,1.23l.73,1.28A13,13,0,0,1,58.22,97.75Z" transform="translate(0 0.14)" style="fill: #feea3a"/>
      <path d="M67.82,120.46l.74,1.27a14.47,14.47,0,0,0,2.75-2.31l-1.13-1A12.9,12.9,0,0,1,67.82,120.46Z" transform="translate(0 0.14)" style="fill: #feea3a"/>
      <path d="M49.05,106.27l-1.39-.5a14.34,14.34,0,0,0-.61,3.55h1.48A12.25,12.25,0,0,1,49.05,106.27Z" transform="translate(0 0.14)" style="fill: #feea3a"/>
      <path d="M61,97.43a13,13,0,0,1,1.54.1l.26-1.45a12.53,12.53,0,0,0-3.6,0l.26,1.45A13,13,0,0,1,61,97.43Z" transform="translate(0 0.14)" style="fill: #feea3a"/>
    </g>
    <g>
      <path d="M38.14,56.9l1.39-.5a14,14,0,0,0-1.82-3.11l-1.12,1A12.59,12.59,0,0,1,38.14,56.9Z" transform="translate(0 0.14)" style="fill: #ef4438"/>
      <path d="M35.76,53.26l1.13-.95A14.11,14.11,0,0,0,34.15,50l-.74,1.28A12.4,12.4,0,0,1,35.76,53.26Z" transform="translate(0 0.14)" style="fill: #ef4438"/>
      <path d="M26.61,75.78" transform="translate(0 0.14)" style="fill: #ef4438"/>
      <path d="M17.45,70.3l-1.13.94a14.52,14.52,0,0,0,2.75,2.32l.74-1.28A12.46,12.46,0,0,1,17.45,70.3Z" transform="translate(0 0.14)" style="fill: #ef4438"/>
      <path d="M14.12,62.42H12.64A14.26,14.26,0,0,0,13.25,66l1.39-.5A12.25,12.25,0,0,1,14.12,62.42Z" transform="translate(0 0.14)" style="fill: #ef4438"/>
      <path d="M39.1,61.14h1.47a13.89,13.89,0,0,0-.6-3.55l-1.39.51A12.25,12.25,0,0,1,39.1,61.14Z" transform="translate(0 0.14)" style="fill: #ef4438"/>
      <path d="M32.3,50.64,33,49.36a13.52,13.52,0,0,0-3.38-1.23l-.25,1.45A11.9,11.9,0,0,1,32.3,50.64Z" transform="translate(0 0.14)" style="fill: #ef4438"/>
      <path d="M19.81,51.28,19.07,50a14.16,14.16,0,0,0-2.75,2.32l1.13.94A12.46,12.46,0,0,1,19.81,51.28Z" transform="translate(0 0.14)" style="fill: #ef4438"/>
      <path d="M39.1,62.42a12.25,12.25,0,0,1-.52,3L40,66a13.81,13.81,0,0,0,.6-3.54Z" transform="translate(0 0.14)" style="fill: #ef4438"/>
      <path d="M15.07,66.66l-1.38.5a14,14,0,0,0,1.81,3.11l1.13-1A12.88,12.88,0,0,1,15.07,66.66Z" transform="translate(0 0.14)" style="fill: #ef4438"/>
      <path d="M16.63,54.24l-1.13-1a14,14,0,0,0-1.81,3.11l1.38.5A12.63,12.63,0,0,1,16.63,54.24Z" transform="translate(0 0.14)" style="fill: #ef4438"/>
      <path d="M36.59,69.32l1.12,1a14,14,0,0,0,1.82-3.11l-1.39-.5A12.84,12.84,0,0,1,36.59,69.32Z" transform="translate(0 0.14)" style="fill: #ef4438"/>
      <path d="M23.81,49.58l-.26-1.45a13.66,13.66,0,0,0-3.38,1.23l.74,1.28A12.12,12.12,0,0,1,23.81,49.58Z" transform="translate(0 0.14)" style="fill: #ef4438"/>
      <path d="M33.41,72.28l.73,1.28a13.92,13.92,0,0,0,2.75-2.32l-1.13-.94A12.4,12.4,0,0,1,33.41,72.28Z" transform="translate(0 0.14)" style="fill: #ef4438"/>
      <path d="M14.64,58.1l-1.39-.51a14.34,14.34,0,0,0-.61,3.55h1.48A12.25,12.25,0,0,1,14.64,58.1Z" transform="translate(0 0.14)" style="fill: #ef4438"/>
      <path d="M26.61,49.25a13.13,13.13,0,0,1,1.54.11l.26-1.45a12.53,12.53,0,0,0-3.6,0l.26,1.45A13,13,0,0,1,26.61,49.25Z" transform="translate(0 0.14)" style="fill: #ef4438"/>
    </g>
    <g>
      <path d="M12.48,296.49l-.21.09-.18.07-.24.08-.54.12a5.12,5.12,0,0,1-.56,0,2.33,2.33,0,0,1-1.11-.26,1.89,1.89,0,0,1-.81-.82,2.68,2.68,0,0,1-.31-1.36,3.29,3.29,0,0,1,.16-1,1.74,1.74,0,0,1,.48-.8,2.54,2.54,0,0,1,.54-.38,1.63,1.63,0,0,1,.53-.17,3.48,3.48,0,0,1,.58-.05,3.43,3.43,0,0,1,.86.09l.74.25v1.12a3.15,3.15,0,0,0-.57-.31,1.78,1.78,0,0,0-.74-.13,1.29,1.29,0,0,0-.82.24,1.17,1.17,0,0,0-.43.56,1.75,1.75,0,0,0-.12.62,1.67,1.67,0,0,0,.14.67,1.08,1.08,0,0,0,.42.48,1.23,1.23,0,0,0,.68.18,1.69,1.69,0,0,0,.48-.07v-.56h-.53v-1h1.56Z" transform="translate(0 0.14)" style="fill: #fff"/>
      <path d="M16.25,296.65a3.37,3.37,0,0,1-.42.17,1.49,1.49,0,0,1-.45.06.5.5,0,0,1-.36-.1.82.82,0,0,1-.14-.26,1.83,1.83,0,0,1-.36.26,1.17,1.17,0,0,1-.53.1.88.88,0,0,1-.51-.13.71.71,0,0,1-.27-.33,1.12,1.12,0,0,1,0-.94,1,1,0,0,1,.37-.35,4.47,4.47,0,0,1,.6-.27l.32-.13.16-.06a.41.41,0,0,0,.11-.07.73.73,0,0,0-.08-.39c-.06-.1-.18-.14-.37-.14a1.14,1.14,0,0,0-.62.17,2.28,2.28,0,0,0-.53.46v-.94a1.88,1.88,0,0,1,.42-.27,2.27,2.27,0,0,1,.46-.16,2.63,2.63,0,0,1,.49-.05,1.37,1.37,0,0,1,.94.29,1.07,1.07,0,0,1,.32.81v1.34a1.07,1.07,0,0,0,0,.29c0,.06,0,.09.1.09a.53.53,0,0,0,.27-.1ZM14.82,296v-.82a2.8,2.8,0,0,0-.53.32.46.46,0,0,0-.16.38.36.36,0,0,0,.08.27.26.26,0,0,0,.19.09.35.35,0,0,0,.21-.07A1.57,1.57,0,0,0,14.82,296Z" transform="translate(0 0.14)" style="fill: #fff"/>
      <path d="M18.85,296.62a2.82,2.82,0,0,1-.44.18,1.77,1.77,0,0,1-.54.08c-.73,0-1.1-.43-1.1-1.29V294.2h-.46V294l1.37-1.68h.11v1h1v.86h-1v1.11a2.58,2.58,0,0,0,0,.32.4.4,0,0,0,.11.2.47.47,0,0,0,.28.08,1.41,1.41,0,0,0,.65-.25Z" transform="translate(0 0.14)" style="fill: #fff"/>
      <path d="M22.25,295.38h-2a.9.9,0,0,0,.29.52.81.81,0,0,0,.53.2,2.43,2.43,0,0,0,1.14-.35v.77a3.44,3.44,0,0,1-.54.25,2.43,2.43,0,0,1-.82.11,1.72,1.72,0,0,1-.9-.23,1.47,1.47,0,0,1-.56-.65,2.18,2.18,0,0,1-.19-.93,2.07,2.07,0,0,1,.19-.92,1.45,1.45,0,0,1,.56-.64,1.72,1.72,0,0,1,.9-.23,1.36,1.36,0,0,1,.68.18,1.44,1.44,0,0,1,.54.6,2.4,2.4,0,0,1,.21,1.07Zm-.95-.61a.92.92,0,0,0-.14-.53.44.44,0,0,0-.4-.2.5.5,0,0,0-.41.2.82.82,0,0,0-.16.53Z" transform="translate(0 0.14)" style="fill: #fff"/>
      <path d="M25.84,296.82H24.65v-4.73h1.19Z" transform="translate(0 0.14)" style="fill: #fff"/>
      <path d="M29.75,296.82h-1V295a1.46,1.46,0,0,0-.08-.5.32.32,0,0,0-.34-.22.38.38,0,0,0-.22.06.58.58,0,0,0-.17.14l-.13.17-.1.18v2h-1v-3.48h1v.5a1.55,1.55,0,0,1,.48-.43,1.08,1.08,0,0,1,.54-.13c.69,0,1,.5,1,1.5Z" transform="translate(0 0.14)" style="fill: #fff"/>
      <path d="M34,296.82H33v-4.73H34Z" transform="translate(0 0.14)" style="fill: #fff"/>
    </g>
    <path d="M108.46,298.26a16.09,16.09,0,1,0-16.08-16.08A16.08,16.08,0,0,0,108.46,298.26Z" transform="translate(0 0.14)" style="fill: #231f20;stroke: #fff;stroke-miterlimit: 10"/>
    <path d="M153.84,266.83h-34.6c5.68,2.86,8.32,10.18,8.32,15.47s-2.66,12.13-8.37,15h34.65a15.23,15.23,0,1,0,0-30.45Z" transform="translate(0 0.14)" style="fill: #231f20;stroke: #fff;stroke-linejoin: round"/>
    <rect x="102.34" y="68.06" width="167.81" height="92.58" style="fill: #7d7e81"/>
    <rect x="102.34" y="32.88" width="167.81" height="19.74" style="fill: #7d7e81"/>
    <rect x="50.31" y="11.72" width="38.34" height="15.31" rx="6.09" style="fill: none;stroke: #fff;stroke-miterlimit: 10"/>
    <g>
      <path d="M346,62.07a1.94,1.94,0,0,1-.24,1,1.62,1.62,0,0,1-.68.64,2.14,2.14,0,0,1-1,.22,2.76,2.76,0,0,1-.38,0,4.9,4.9,0,0,1-.61-.13,5,5,0,0,1-.78-.33V62a4.41,4.41,0,0,0,.75.47,1.67,1.67,0,0,0,.79.19c.26,0,.43,0,.51-.16a.46.46,0,0,0,.11-.29.52.52,0,0,0-.19-.41,2.36,2.36,0,0,0-.57-.35,4.17,4.17,0,0,1-.73-.46,2.1,2.1,0,0,1-.52-.62,2,2,0,0,1,0-1.78,1.48,1.48,0,0,1,.61-.63,2,2,0,0,1,1-.24,2.8,2.8,0,0,1,.79.1,3.52,3.52,0,0,1,.59.22,1.66,1.66,0,0,1,.32.2v1.42a5,5,0,0,0-.69-.48,1.67,1.67,0,0,0-.82-.21.55.55,0,0,0-.41.14.44.44,0,0,0-.13.32.44.44,0,0,0,.13.31,2.06,2.06,0,0,0,.46.32,7.61,7.61,0,0,1,.93.6,1.88,1.88,0,0,1,.55.61A1.67,1.67,0,0,1,346,62.07Z" transform="translate(0 0.14)" style="fill: #fff"/>
      <path d="M352.59,63.85H351l-.42-1.24h-2.19L348,63.85h-1.56l2.23-6.1h1.69Zm-2.33-2.3-.74-2.22-.75,2.22Z" transform="translate(0 0.14)" style="fill: #fff"/>
      <path d="M357.67,57.75l-2.28,6.17h-1l-2.23-6.17h1.58l1.16,3.52,1.19-3.52Z" transform="translate(0 0.14)" style="fill: #fff"/>
      <path d="M362.17,63.85h-3.81v-6.1h3.75V59h-2.22v1.11H362v1.23h-2.12v1.3h2.28Z" transform="translate(0 0.14)" style="fill: #fff"/>
    </g>
  </g>
  <g id="components">
    <text id="modulename" transform="translate(252.73 387.79) scale(0.83 1)" style="font-size: 9px;font-family: GillSans-Bold, Gill Sans;font-weight: 700">MetaModule</text>
    <text id="slug" transform="translate(182.91 387.15) scale(0.83 1)" style="font-size: 9px;font-family: GillSans-Bold, Gill Sans;font-weight: 700">HubMedium</text>
    <circle id="out8" cx="351.09" cy="281.86" r="8.5" style="fill: lime"/>
    <circle id="out7" cx="307.65" cy="281.86" r="8.5" style="fill: lime"/>
    <circle id="out6" cx="264.39" cy="282.17" r="8.5" style="fill: lime"/>
    <circle id="out5" cx="221.02" cy="282.17" r="8.5" style="fill: lime"/>
    <circle id="out4" cx="337.49" cy="323.62" r="8.5" style="fill: lime"/>
    <circle id="out3" cx="294.05" cy="323.62" r="8.5" style="fill: lime"/>
    <circle id="out2" cx="251.6" cy="323.86" r="8.5" style="fill: lime"/>
    <circle id="out1" cx="208.16" cy="323.62" r="8.5" style="fill: lime"/>
    <circle id="gatein2" cx="65.25" cy="274.2" r="8.5" style="fill: #8080ff"/>
    <circle id="gatein1" cx="21.74" cy="274.18" r="8.5" style="fill: #8080ff"/>
    <circle id="in6" cx="150.84" cy="282.34" r="8.5" style="fill: blue"/>
    <circle id="in5" cx="108.32" cy="282.34" r="8.5" style="fill: blue"/>
    <circle id="in4" cx="164.86" cy="323.86" r="8.5" style="fill: blue"/>
    <circle id="in3" cx="121.2" cy="323.86" r="8.5" style="fill: blue"/>
    <circle id="in2" cx="78.54" cy="323.62" r="8.5" style="fill: blue"/>
    <circle id="in1" cx="35.03" cy="323.62" r="8.5" style="fill: blue"/>
    <circle id="SavePatch" cx="352.2" cy="43.24" r="9.46" style="fill: #ff8000"/>
    <circle id="z" cx="345.31" cy="157.07" r="8.5" style="fill: red"/>
    <circle id="y" cx="302.03" cy="123.31" r="8.5" style="fill: red"/>
    <circle id="x" cx="345.28" cy="91.46" r="8.5" style="fill: red"/>
    <circle id="w" cx="26.6" cy="157.86" r="8.5" style="fill: red"/>
    <circle id="v" cx="61.07" cy="110.02" r="8.5" style="fill: red"/>
    <circle id="u" cx="26.58" cy="61.85" r="8.5" style="fill: red"/>
    <circle id="F" cx="340.01" cy="213.17" r="17.01" style="fill: red"/>
    <circle id="E" cx="279.38" cy="201.83" r="17.01" style="fill: red"/>
    <circle id="D" cx="218.71" cy="213.17" r="17.01" style="fill: red"/>
    <circle id="C" cx="153.77" cy="213.17" r="17.01" style="fill: red"/>
    <circle id="B" cx="92.87" cy="201.73" r="17.01" style="fill: red"/>
    <circle id="A" cx="32.89" cy="213.17" r="17.01" style="fill: red"/>
  </g>
</svg>
