<svg xmlns="http://www.w3.org/2000/svg" xmlns:xlink="http://www.w3.org/1999/xlink" width="20.41mm" height="130.69mm" viewBox="0 0 57.85 370.47">
  <defs>
    <clipPath id="clip-path" transform="translate(0)">
      <rect x="15.02" y="81.11" width="27.8" height="25.62" style="fill: none"/>
    </clipPath>
    <clipPath id="clip-path-2" transform="translate(0)">
      <rect x="15.02" y="81.11" width="27.8" height="25.62" style="fill: none"/>
    </clipPath>
    <clipPath id="clip-path-3" transform="translate(0)">
      <rect x="15.02" y="33.3" width="27.8" height="25.62" style="fill: none"/>
    </clipPath>
  </defs>
  <g id="faceplate">
    <rect x="0.13" y="0.13" width="57.6" height="364.25" style="fill: #ededed;stroke: #9d9d9e;stroke-miterlimit: 10;stroke-width: 0.25px"/>
    <g id="pips_-_fewest" data-name="pips - fewest">
      <g style="clip-path: url(#clip-path)">
        <g style="clip-path: url(#clip-path-2)">
          <path d="M34.62,83.89l.71-1.24a13.86,13.86,0,0,0-5.77-1.54v1.42a12.56,12.56,0,0,1,5.06,1.36" transform="translate(0)"/>
          <path d="M39.41,88.22l1.24-.71a14,14,0,0,0-4.23-4.22l-.71,1.23a12.55,12.55,0,0,1,3.7,3.7" transform="translate(0)"/>
          <path d="M22.14,84.52l-.71-1.23a14,14,0,0,0-4.23,4.22l1.24.71a12.55,12.55,0,0,1,3.7-3.7" transform="translate(0)"/>
          <path d="M41.4,94.38h1.43a13.83,13.83,0,0,0-1.55-5.77l-1.23.71a12.47,12.47,0,0,1,1.35,5.06" transform="translate(0)"/>
          <path d="M28.29,82.53V81.11a13.86,13.86,0,0,0-5.77,1.54l.71,1.24a12.56,12.56,0,0,1,5.06-1.36" transform="translate(0)"/>
          <path d="M18.44,101.8l-1.24.71a14.07,14.07,0,0,0,4.23,4.22l.71-1.23a12.67,12.67,0,0,1-3.7-3.7" transform="translate(0)"/>
          <path d="M35.71,105.5l.71,1.23a14.07,14.07,0,0,0,4.23-4.22l-1.24-.71a12.67,12.67,0,0,1-3.7,3.7" transform="translate(0)"/>
          <path d="M41.4,95.64a12.47,12.47,0,0,1-1.35,5.06l1.23.71a13.83,13.83,0,0,0,1.55-5.77Z" transform="translate(0)"/>
          <path d="M16.45,95.64H15a13.83,13.83,0,0,0,1.55,5.77l1.23-.71a12.47,12.47,0,0,1-1.35-5.06" transform="translate(0)"/>
          <path d="M17.8,89.32l-1.23-.71A13.83,13.83,0,0,0,15,94.38h1.43a12.47,12.47,0,0,1,1.35-5.06" transform="translate(0)"/>
        </g>
      </g>
    </g>
    <g>
      <path d="M17.78,357a4.29,4.29,0,0,1-.77.39,5,5,0,0,1-.8.21,5.73,5.73,0,0,1-.84.06,3.61,3.61,0,0,1-1.43-.27,3.06,3.06,0,0,1-1.1-.79,3.53,3.53,0,0,1-.69-1.23,5,5,0,0,1-.23-1.54,4.77,4.77,0,0,1,.27-1.68A3.22,3.22,0,0,1,13,351a3.05,3.05,0,0,1,1.11-.71A3.91,3.91,0,0,1,15.4,350a6,6,0,0,1,2.35.57v2a7,7,0,0,0-.89-.57,2.28,2.28,0,0,0-1-.23,2,2,0,0,0-1,.26,1.88,1.88,0,0,0-.74.74,2.15,2.15,0,0,0-.29,1.12,2.24,2.24,0,0,0,.25,1,2,2,0,0,0,.69.75,1.83,1.83,0,0,0,1,.27,2.65,2.65,0,0,0,.85-.13,3.42,3.42,0,0,0,.66-.29c.18-.11.37-.24.56-.38Z" transform="translate(0)"/>
      <path d="M24.93,357.56H23l-.48-1.32a5.52,5.52,0,0,0-.48-1.06,1.06,1.06,0,0,0-.41-.43,1.23,1.23,0,0,0-.51-.09h-.21v2.9H19v-7.44h3.13a2,2,0,0,1,1.24.37,2.16,2.16,0,0,1,.7.92,2.74,2.74,0,0,1,.21,1,2.27,2.27,0,0,1-.18.95,1.65,1.65,0,0,1-.37.57,3.27,3.27,0,0,1-.45.33,1.94,1.94,0,0,1,.49.5,6.6,6.6,0,0,1,.52,1.16Zm-2.5-5.09a.86.86,0,0,0-.28-.72,1.54,1.54,0,0,0-.9-.2h-.39v1.79h.4a1.7,1.7,0,0,0,.92-.18A.82.82,0,0,0,22.43,352.47Z" transform="translate(0)"/>
      <path d="M32.12,354.23a4,4,0,0,1-.29,1.63,2.75,2.75,0,0,1-.77,1.06,3.33,3.33,0,0,1-1,.57,4,4,0,0,1-1.12.17,3.78,3.78,0,0,1-1.5-.32,2.87,2.87,0,0,1-1.23-1.1,3.7,3.7,0,0,1-.49-2v-4.11h1.83v3.53a3.47,3.47,0,0,0,.18,1.21,1.4,1.4,0,0,0,.48.71,1.28,1.28,0,0,0,.73.22,1.25,1.25,0,0,0,.72-.22,1.45,1.45,0,0,0,.49-.7,3.49,3.49,0,0,0,.17-1.21v-3.54h1.84Z" transform="translate(0)"/>
      <path d="M37.84,355.4a2.32,2.32,0,0,1-.3,1.2,1.87,1.87,0,0,1-.81.79,2.59,2.59,0,0,1-1.2.27l-.47,0a4.5,4.5,0,0,1-.73-.17,4.9,4.9,0,0,1-.95-.39v-1.83a6.26,6.26,0,0,0,.91.58,2.12,2.12,0,0,0,1,.23c.31,0,.52-.06.61-.19a.66.66,0,0,0,.14-.36.62.62,0,0,0-.24-.5,3.33,3.33,0,0,0-.69-.43,4.93,4.93,0,0,1-.88-.56,2.26,2.26,0,0,1-.86-1.84,2.42,2.42,0,0,1,.24-1.09,1.91,1.91,0,0,1,.74-.78,2.42,2.42,0,0,1,1.22-.29,3.56,3.56,0,0,1,.94.12,4.34,4.34,0,0,1,.72.28l.38.23v1.75a5,5,0,0,0-.83-.59,2,2,0,0,0-1-.25.64.64,0,0,0-.49.16.51.51,0,0,0-.16.39.53.53,0,0,0,.16.39,3,3,0,0,0,.55.39,11.18,11.18,0,0,1,1.12.72,2.49,2.49,0,0,1,.67.75A2.09,2.09,0,0,1,37.84,355.4Z" transform="translate(0)"/>
      <path d="M45.53,357.56H43.7v-2.9H40.93v2.9H39.09v-7.44h1.84v2.73H43.7v-2.73h1.83Z" transform="translate(0)"/>
    </g>
    <path d="M13.84,165.79a14.86,14.86,0,0,1,15.09-14.63A14.86,14.86,0,0,1,44,165.79V324.44a14.86,14.86,0,0,1-15.09,14.63,14.86,14.86,0,0,1-15.08-14.63Z" transform="translate(0)" style="fill: none;stroke: #000;stroke-width: 1.05091px"/>
    <path d="M44.52,308.59c0-8.08-7-14.63-15.59-14.63s-15.6,6.55-15.6,14.63v8.11h0v19.84A5.69,5.69,0,0,0,19,342.21H38.85a5.69,5.69,0,0,0,5.67-5.67V316.7h0Z" transform="translate(0)"/>
    <g>
      <path d="M27.69,194H26.25v-5.41h1.44Z" transform="translate(0)"/>
      <path d="M32.14,194H30.9v-2.14a1.62,1.62,0,0,0-.09-.57.39.39,0,0,0-.41-.25.45.45,0,0,0-.27.07.83.83,0,0,0-.21.16l-.15.2-.13.2V194H28.4v-4h1.24v.57a1.75,1.75,0,0,1,.59-.5,1.38,1.38,0,0,1,.65-.14q1.26,0,1.26,1.71Z" transform="translate(0)"/>
    </g>
    <g>
      <path d="M28.24,238.61a1.67,1.67,0,0,1-.23.88,1.53,1.53,0,0,1-.64.57,2.16,2.16,0,0,1-.94.19,2.43,2.43,0,0,1-.36,0,2.78,2.78,0,0,1-.57-.12,4,4,0,0,1-.74-.28V238.5a4.4,4.4,0,0,0,.71.42,1.71,1.71,0,0,0,.74.17.61.61,0,0,0,.48-.14.41.41,0,0,0-.08-.63,2.5,2.5,0,0,0-.54-.31,4,4,0,0,1-.68-.41,1.85,1.85,0,0,1-.49-.55,1.65,1.65,0,0,1-.18-.79,1.73,1.73,0,0,1,.18-.79,1.43,1.43,0,0,1,.58-.56,2,2,0,0,1,.95-.21,3.43,3.43,0,0,1,.74.08,3.56,3.56,0,0,1,.56.2l.3.17v1.27a3.62,3.62,0,0,0-.65-.42,1.6,1.6,0,0,0-.77-.19.54.54,0,0,0-.39.12.37.37,0,0,0-.12.29.36.36,0,0,0,.12.27,1.82,1.82,0,0,0,.43.29,6.74,6.74,0,0,1,.88.53,1.78,1.78,0,0,1,.52.54A1.47,1.47,0,0,1,28.24,238.61Z" transform="translate(0)"/>
      <path d="M33.54,240.18H32l-.38-1a3.7,3.7,0,0,0-.37-.77.77.77,0,0,0-.32-.31.93.93,0,0,0-.4-.07h-.16v2.11H28.93v-5.41h2.44a1.61,1.61,0,0,1,1,.27,1.59,1.59,0,0,1,.55.67,1.9,1.9,0,0,1,.16.74,1.6,1.6,0,0,1-.13.69,1.52,1.52,0,0,1-.3.42,3.53,3.53,0,0,1-.35.24,1.31,1.31,0,0,1,.38.36,4.48,4.48,0,0,1,.41.85Zm-1.95-3.7a.57.57,0,0,0-.22-.52,1.25,1.25,0,0,0-.7-.15h-.3v1.3h.31a1.36,1.36,0,0,0,.72-.13A.55.55,0,0,0,31.59,236.48Z" transform="translate(0)"/>
    </g>
    <g>
      <path d="M28.86,288.45a1.51,1.51,0,0,1-.42,1.12,1.58,1.58,0,0,1-1.17.42H24.51v-5.42h2.31a2.57,2.57,0,0,1,.77.1,1.31,1.31,0,0,1,.54.27,1.08,1.08,0,0,1,.3.4,1.18,1.18,0,0,1,.1.5,1.42,1.42,0,0,1-.1.55,1.26,1.26,0,0,1-.26.41.81.81,0,0,1-.31.23,1.85,1.85,0,0,1,.75.56A1.37,1.37,0,0,1,28.86,288.45Zm-1.67-2.32a.55.55,0,0,0-.23-.52,1.57,1.57,0,0,0-.71-.13H26v1.3h.31a1.42,1.42,0,0,0,.71-.13A.57.57,0,0,0,27.19,286.13Zm.23,2.25c0-.46-.29-.69-.89-.69H26v1.39h.58C27.13,289.08,27.42,288.85,27.42,288.38Z" transform="translate(0)"/>
      <path d="M30.61,290H29.36v-4h1.25Zm-.1-4.9a.63.63,0,0,1-.16.42.5.5,0,0,1-.37.17.42.42,0,0,1-.26-.08.55.55,0,0,1-.19-.21.73.73,0,0,1-.07-.3.64.64,0,0,1,.15-.42.51.51,0,0,1,.37-.17.5.5,0,0,1,.37.17A.65.65,0,0,1,30.51,285.09Z" transform="translate(0)"/>
      <path d="M33.94,289.76a3.33,3.33,0,0,1-.53.2,2.64,2.64,0,0,1-.65.1c-.9,0-1.34-.5-1.34-1.49V287h-.56v-.25l1.66-1.92h.14V286h1.18v1H32.66v1.27a3.21,3.21,0,0,0,0,.36.43.43,0,0,0,.14.23.55.55,0,0,0,.34.09,1.68,1.68,0,0,0,.78-.28Z" transform="translate(0)"/>
    </g>
    <g>
      <path d="M28.09,334.53a3.12,3.12,0,0,1-.31,1.4,2.4,2.4,0,0,1-.91,1,2.78,2.78,0,0,1-1.48.37,2.75,2.75,0,0,1-1.5-.39,2.42,2.42,0,0,1-.91-1,3.19,3.19,0,0,1-.3-1.37,3.14,3.14,0,0,1,.3-1.36,2.38,2.38,0,0,1,.91-1,2.74,2.74,0,0,1,1.5-.38,2.91,2.91,0,0,1,1.17.22,2.33,2.33,0,0,1,.85.6,2.62,2.62,0,0,1,.51.89A3.41,3.41,0,0,1,28.09,334.53Zm-1.46,0a1.87,1.87,0,0,0-.08-.55,1.43,1.43,0,0,0-.24-.44,1.24,1.24,0,0,0-.39-.29,1.29,1.29,0,0,0-.53-.1,1.12,1.12,0,0,0-.91.38,1.47,1.47,0,0,0-.33,1,1.5,1.5,0,0,0,.33,1,1.12,1.12,0,0,0,.91.38,1.31,1.31,0,0,0,.67-.17,1.14,1.14,0,0,0,.42-.5A1.66,1.66,0,0,0,26.63,334.53Z" transform="translate(0)" style="fill: #fff"/>
      <path d="M32.18,337.24H31v-.56a2.18,2.18,0,0,1-.55.48,1.52,1.52,0,0,1-.69.15,1,1,0,0,1-1-.52,3,3,0,0,1-.23-1.19v-2.33h1.24v2.15a1.6,1.6,0,0,0,.09.56.39.39,0,0,0,.41.25.54.54,0,0,0,.43-.18,2.19,2.19,0,0,0,.33-.45v-2.33h1.23Z" transform="translate(0)" style="fill: #fff"/>
      <path d="M35.46,337a3.23,3.23,0,0,1-.53.21,2.6,2.6,0,0,1-.65.09c-.89,0-1.34-.49-1.34-1.48v-1.59h-.56V334L34,332.08h.14v1.19h1.18v1H34.18v1.28a1.73,1.73,0,0,0,0,.36.39.39,0,0,0,.13.23.55.55,0,0,0,.34.09,1.76,1.76,0,0,0,.78-.28Z" transform="translate(0)" style="fill: #fff"/>
    </g>
    <g>
      <path d="M28.85,116.66a1.86,1.86,0,0,1-.53,1.39,2,2,0,0,1-1.47.53H23.41v-6.77h2.88a3.47,3.47,0,0,1,1,.12,1.83,1.83,0,0,1,.67.33,1.34,1.34,0,0,1,.38.51,1.61,1.61,0,0,1,.12.63,1.72,1.72,0,0,1-.13.68,1.58,1.58,0,0,1-.32.52,1.07,1.07,0,0,1-.38.28,2.38,2.38,0,0,1,.93.7A1.71,1.71,0,0,1,28.85,116.66Zm-2.1-2.9c0-.33-.09-.55-.28-.65a1.83,1.83,0,0,0-.89-.16h-.37v1.62h.38a1.93,1.93,0,0,0,.89-.16A.71.71,0,0,0,26.75,113.76Zm.3,2.81q0-.87-1.11-.87h-.73v1.74h.73Q27.05,117.44,27.05,116.57Z" transform="translate(0)"/>
      <path d="M31,118.58H29.47v-5H31Zm-.12-6.12a.79.79,0,0,1-.19.52.62.62,0,0,1-.46.21.63.63,0,0,1-.33-.09.78.78,0,0,1-.24-.27.91.91,0,0,1-.08-.37.74.74,0,0,1,.19-.52.57.57,0,0,1,.46-.22.6.6,0,0,1,.46.22A.79.79,0,0,1,30.9,112.46Z" transform="translate(0)"/>
      <path d="M35.19,118.29a3.07,3.07,0,0,1-.67.25,2.94,2.94,0,0,1-.81.12c-1.11,0-1.67-.61-1.67-1.85v-2h-.7v-.31l2.08-2.4h.17v1.49h1.48v1.22H33.59v1.59a2.81,2.81,0,0,0,0,.45.46.46,0,0,0,.17.28.67.67,0,0,0,.43.12,2.16,2.16,0,0,0,1-.35Z" transform="translate(0)"/>
    </g>
    <g id="pips_-_fewest-2" data-name="pips - fewest">
      <g style="clip-path: url(#clip-path-3)">
        <g style="clip-path: url(#clip-path-3)">
          <path d="M34.62,36.08l.71-1.24a13.86,13.86,0,0,0-5.77-1.54v1.43a12.39,12.39,0,0,1,5.06,1.35" transform="translate(0)"/>
          <path d="M39.41,40.41l1.24-.71a14,14,0,0,0-4.23-4.22l-.71,1.23a12.55,12.55,0,0,1,3.7,3.7" transform="translate(0)"/>
          <path d="M22.14,36.71l-.71-1.23A14.07,14.07,0,0,0,17.2,39.7l1.24.71a12.67,12.67,0,0,1,3.7-3.7" transform="translate(0)"/>
          <path d="M41.4,46.57h1.43a13.83,13.83,0,0,0-1.55-5.77l-1.23.71a12.47,12.47,0,0,1,1.35,5.06" transform="translate(0)"/>
          <path d="M28.29,34.73V33.3a13.86,13.86,0,0,0-5.77,1.54l.71,1.24a12.39,12.39,0,0,1,5.06-1.35" transform="translate(0)"/>
          <path d="M18.44,54l-1.24.71a14,14,0,0,0,4.23,4.22l.71-1.23a12.55,12.55,0,0,1-3.7-3.7" transform="translate(0)"/>
          <path d="M35.71,57.69l.71,1.23a14,14,0,0,0,4.23-4.22L39.41,54a12.55,12.55,0,0,1-3.7,3.7" transform="translate(0)"/>
          <path d="M41.4,47.83a12.47,12.47,0,0,1-1.35,5.06l1.23.71a13.83,13.83,0,0,0,1.55-5.77Z" transform="translate(0)"/>
          <path d="M16.45,47.83H15a13.83,13.83,0,0,0,1.55,5.77l1.23-.71a12.47,12.47,0,0,1-1.35-5.06" transform="translate(0)"/>
          <path d="M17.8,41.51l-1.23-.71A13.83,13.83,0,0,0,15,46.57h1.43a12.47,12.47,0,0,1,1.35-5.06" transform="translate(0)"/>
        </g>
      </g>
    </g>
    <g>
      <path d="M28.06,67.93a2,2,0,0,1-.28,1.1,1.84,1.84,0,0,1-.8.71,2.58,2.58,0,0,1-1.17.25l-.46,0a4,4,0,0,1-.71-.15,4.93,4.93,0,0,1-.93-.36V67.79a6.5,6.5,0,0,0,.89.53,2.12,2.12,0,0,0,.94.21.77.77,0,0,0,.59-.17.52.52,0,0,0-.1-.79,3.21,3.21,0,0,0-.67-.39,4.44,4.44,0,0,1-.86-.51,2,2,0,0,1-.6-.69,1.92,1.92,0,0,1-.24-1,2,2,0,0,1,.24-1,1.82,1.82,0,0,1,.72-.71A2.52,2.52,0,0,1,25.81,63a3.8,3.8,0,0,1,.92.11,3.74,3.74,0,0,1,.7.25,2.36,2.36,0,0,1,.37.21V65.2a4.19,4.19,0,0,0-.81-.53,2,2,0,0,0-1-.24.68.68,0,0,0-.49.15.49.49,0,0,0-.15.36.49.49,0,0,0,.15.35,3,3,0,0,0,.54.35,11.7,11.7,0,0,1,1.1.66,2.32,2.32,0,0,1,.65.68A1.83,1.83,0,0,1,28.06,67.93Z" transform="translate(0)"/>
      <path d="M34.7,69.9H32.77l-.47-1.2a5.45,5.45,0,0,0-.46-1,1,1,0,0,0-.41-.39,1.18,1.18,0,0,0-.5-.09h-.2V69.9h-1.8V63.13H32a2,2,0,0,1,1.21.35,1.94,1.94,0,0,1,.68.83,2.31,2.31,0,0,1,.21.92,1.9,1.9,0,0,1-.18.87,1.61,1.61,0,0,1-.36.52,3.76,3.76,0,0,1-.44.3,2.07,2.07,0,0,1,.48.45,7.1,7.1,0,0,1,.51,1.06Zm-2.44-4.63a.73.73,0,0,0-.27-.65,1.55,1.55,0,0,0-.88-.19h-.38v1.63h.38a1.72,1.72,0,0,0,.9-.16A.69.69,0,0,0,32.26,65.27Z" transform="translate(0)"/>
    </g>
    <g>
      <path d="M34.54,6.76l-5.53,7v-6a1.27,1.27,0,0,0-.64-1.17.89.89,0,0,0-1.13.29L20,16.13a1.49,1.49,0,0,0,0,1.79.9.9,0,0,0,1.46,0l5.5-7v6a1.29,1.29,0,0,0,.64,1.18.92.92,0,0,0,1.14-.3l5.53-7v6.15a1.05,1.05,0,1,0,2.06,0V7.64a1.28,1.28,0,0,0-.65-1.18A.91.91,0,0,0,34.54,6.76Z" transform="translate(0)" style="stroke: #000;stroke-width: 0.6000000000000001px"/>
      <path d="M20,6.68l-4.81,6.13a1.47,1.47,0,0,0,0,1.79.9.9,0,0,0,1.46,0l3.05-3.87V17a1.17,1.17,0,0,0,1,1.26,1.17,1.17,0,0,0,1-1.26V7.56a1.29,1.29,0,0,0-.65-1.17A.91.91,0,0,0,20,6.68Z" transform="translate(0)" style="stroke: #000;stroke-width: 0.6000000000000001px"/>
      <path d="M42.91,11.2a1.05,1.05,0,0,0-.95-.77h-2.1l1.53-1.95s.8-1.17.1-1.82a1.27,1.27,0,0,0-1.58.06l-3.23,4.1a1.45,1.45,0,0,0-.2,1.37,1,1,0,0,0,1,.78h2.1L37,16.14s-1,1.13-.27,1.89,1.75-.14,1.75-.14l4.18-5.31A1.5,1.5,0,0,0,42.91,11.2Z" transform="translate(0)" style="stroke: #000;stroke-width: 0.6000000000000001px"/>
    </g>
  </g>
  <g id="components">
    <circle id="Out" cx="28.93" cy="312.29" r="11.34" style="fill: blue"/>
    <circle id="Bit_CV" data-name="Bit CV" cx="28.93" cy="263.68" r="11.34" style="fill: lime"/>
    <circle id="SR_CV" data-name="SR CV" cx="28.93" cy="216.11" r="11.34" style="fill: lime"/>
    <circle id="In" cx="28.93" cy="168.85" r="11.34" style="fill: lime"/>
    <circle id="Bit" cx="28.92" cy="94.67" r="8.5" style="fill: #ff0040"/>
    <circle id="SR" cx="28.92" cy="46.99" r="8.5" style="fill: #ff0040"/>
    <text id="slug" transform="translate(4.34 369.72)" style="font-size: 3px;font-family: MyriadPro-Regular, Myriad Pro;letter-spacing: -0.0029296875em">C<tspan x="1.73" y="0" style="letter-spacing: -0.0003255208333333333em">rush</tspan></text>
    <text id="modulename" transform="translate(14.38 369.72)" style="font-size: 3px;font-family: MyriadPro-Regular, Myriad Pro">Bit <tspan x="3.96" y="0" style="letter-spacing: -0.0032552083333333335em">C</tspan><tspan x="5.69" y="0">rush &amp; </tspan><tspan x="14.26" y="0" style="letter-spacing: 0.0032552083333333335em">S</tspan><tspan x="15.75" y="0" style="letter-spacing: -0.0003255208333333333em">ample </tspan><tspan x="24.25" y="0" style="letter-spacing: 0.01171875em">R</tspan><tspan x="25.9" y="0" style="letter-spacing: -0.00390625em">a</tspan><tspan x="27.34" y="0" style="letter-spacing: -0.006184895833333333em">t</tspan><tspan x="28.31" y="0">e </tspan><tspan x="30.45" y="0" style="letter-spacing: 0.00390625em">R</tspan><tspan x="32.08" y="0">edu</tspan><tspan x="36.92" y="0" style="letter-spacing: 0.013020833333333334em">c</tspan><tspan x="38.31" y="0">tion</tspan></text>
  </g>
</svg>
