<svg xmlns="http://www.w3.org/2000/svg" width="76.29mm" height="130.85mm" viewBox="0 0 216.25 370.9">
  <g id="faceplate">
    <rect x="0.13" y="0.13" width="216" height="364.25" style="fill: #ededed;stroke: #9d9d9e;stroke-miterlimit: 10;stroke-width: 0.25px"/>
    <path d="M198.41,317.52V294.3H176.87c-7.49,0-13.57,7-13.57,15.71v31.86h29.47a5.67,5.67,0,0,0,5.64-5.67V317.52Z"/>
    <g>
      <path d="M27.7,283.18l-2.15,5.48H24.6l-2.11-5.48H24l1.09,3.12,1.12-3.12Z"/>
      <path d="M31.09,283.1l-2.59,5.56h-.92l2.58-5.56Z"/>
      <path d="M36.61,285.88a3.19,3.19,0,0,1-.31,1.39,2.39,2.39,0,0,1-.92,1,2.76,2.76,0,0,1-1.48.37,2.69,2.69,0,0,1-1.49-.39,2.32,2.32,0,0,1-.91-1,3.14,3.14,0,0,1-.3-1.36,3.33,3.33,0,0,1,.29-1.37,2.42,2.42,0,0,1,.91-1,2.75,2.75,0,0,1,1.5-.39,3,3,0,0,1,1.18.23,2.3,2.3,0,0,1,.85.6,2.51,2.51,0,0,1,.5.89A3.11,3.11,0,0,1,36.61,285.88Zm-1.47,0a1.69,1.69,0,0,0-.08-.56,1.14,1.14,0,0,0-.24-.43,1,1,0,0,0-.39-.29,1.25,1.25,0,0,0-.53-.11,1.14,1.14,0,0,0-.91.39,1.68,1.68,0,0,0,0,2,1.14,1.14,0,0,0,.9.38,1.2,1.2,0,0,0,.67-.18,1.14,1.14,0,0,0,.43-.49A1.81,1.81,0,0,0,35.14,285.88Z"/>
      <path d="M40,288.41l-.32.12a2.23,2.23,0,0,1-.39.09,2.29,2.29,0,0,1-.47,0,1.93,1.93,0,0,1-1-.22,1.64,1.64,0,0,1-.61-.55,2,2,0,0,1-.3-.69,2.38,2.38,0,0,1-.08-.61A2.92,2.92,0,0,1,37,286a2.23,2.23,0,0,1,.3-.67,1.69,1.69,0,0,1,.6-.55,2.09,2.09,0,0,1,1-.22,2.19,2.19,0,0,1,.63.07,3.22,3.22,0,0,1,.5.16v1.11a3,3,0,0,0-1-.22.85.85,0,0,0-.58.23.88.88,0,0,0-.26.7,1,1,0,0,0,.13.53.76.76,0,0,0,.32.32.81.81,0,0,0,.39.1,1.77,1.77,0,0,0,.43-.06c.15,0,.35-.1.57-.18Z"/>
      <path d="M43.09,288.36a2.37,2.37,0,0,1-.53.2,2.14,2.14,0,0,1-.65.1c-.89,0-1.33-.49-1.33-1.48v-1.59H40v-.24l1.66-1.93h.14v1.19H43v1H41.82v1.27a3.21,3.21,0,0,0,0,.36.37.37,0,0,0,.14.23.53.53,0,0,0,.34.09,1.65,1.65,0,0,0,.77-.28Z"/>
      <path d="M49.49,284.88a2,2,0,0,1-.09.59,1.62,1.62,0,0,1-.29.53,1.56,1.56,0,0,1-.55.41,2,2,0,0,1-.82.15H46.8v2H45.37v-5.41h2.37a2,2,0,0,1,.82.15,1.56,1.56,0,0,1,.55.41,1.77,1.77,0,0,1,.29.54A2.08,2.08,0,0,1,49.49,284.88Zm-1.46,0a.61.61,0,0,0-.2-.53,1.32,1.32,0,0,0-.73-.14h-.3v1.3h.31a2.51,2.51,0,0,0,.55,0,.44.44,0,0,0,.28-.19A.7.7,0,0,0,48,284.89Z"/>
    </g>
    <g>
      <path d="M76,283.18l-2.14,5.48H73l-2.11-5.48h1.5l1.09,3.12,1.12-3.12Z"/>
      <path d="M79.44,283.1l-2.59,5.56h-.93l2.59-5.56Z"/>
      <path d="M85,285.88a3.19,3.19,0,0,1-.31,1.39,2.39,2.39,0,0,1-.92,1,3.11,3.11,0,0,1-3,0,2.36,2.36,0,0,1-.9-1,3.14,3.14,0,0,1-.3-1.36,3.33,3.33,0,0,1,.29-1.37,2.42,2.42,0,0,1,.91-1,2.75,2.75,0,0,1,1.5-.39,3,3,0,0,1,1.18.23,2.3,2.3,0,0,1,.85.6,2.51,2.51,0,0,1,.5.89A3.11,3.11,0,0,1,85,285.88Zm-1.47,0a2,2,0,0,0-.08-.56,1.14,1.14,0,0,0-.24-.43,1,1,0,0,0-.39-.29,1.25,1.25,0,0,0-.53-.11,1.12,1.12,0,0,0-.91.39,1.47,1.47,0,0,0-.33,1,1.52,1.52,0,0,0,.33,1,1.18,1.18,0,0,0,.91.38,1.2,1.2,0,0,0,.67-.18,1.14,1.14,0,0,0,.43-.49A1.81,1.81,0,0,0,83.49,285.88Z"/>
      <path d="M88.36,288.41l-.32.12a2.23,2.23,0,0,1-.39.09,2.29,2.29,0,0,1-.47,0,1.93,1.93,0,0,1-1-.22,1.64,1.64,0,0,1-.61-.55,2,2,0,0,1-.3-.69,2.37,2.37,0,0,1,0-1.22,2.47,2.47,0,0,1,.29-.67,1.72,1.72,0,0,1,.61-.55,2.09,2.09,0,0,1,1-.22,2.19,2.19,0,0,1,.63.07,3.6,3.6,0,0,1,.5.16v1.11a3,3,0,0,0-1-.22.84.84,0,0,0-.84.93,1,1,0,0,0,.13.53.76.76,0,0,0,.32.32.81.81,0,0,0,.39.1,1.64,1.64,0,0,0,.42-.06,6,6,0,0,0,.58-.18Z"/>
      <path d="M91.44,288.36a2.37,2.37,0,0,1-.53.2,2.14,2.14,0,0,1-.65.1c-.89,0-1.33-.49-1.33-1.48v-1.59h-.56v-.24L90,283.42h.14v1.19h1.18v1H90.17v1.27a1.84,1.84,0,0,0,0,.36.37.37,0,0,0,.14.23.51.51,0,0,0,.34.09,1.65,1.65,0,0,0,.77-.28Z"/>
      <path d="M97.05,287a1.7,1.7,0,0,1-.23.88,1.58,1.58,0,0,1-.64.56,2,2,0,0,1-.94.2l-.36,0a2.78,2.78,0,0,1-.57-.12,3.43,3.43,0,0,1-.74-.29V286.9a5.38,5.38,0,0,0,.71.43,1.7,1.7,0,0,0,.74.16c.25,0,.41,0,.48-.14a.42.42,0,0,0,.11-.25.44.44,0,0,0-.19-.37,2.14,2.14,0,0,0-.54-.31,4.7,4.7,0,0,1-.68-.41,1.77,1.77,0,0,1-.49-.56,1.61,1.61,0,0,1-.18-.78,1.7,1.7,0,0,1,.18-.79,1.39,1.39,0,0,1,.58-.57,2,2,0,0,1,.95-.21,2.89,2.89,0,0,1,.74.09,2.77,2.77,0,0,1,.56.2l.3.17v1.27a4.31,4.31,0,0,0-.65-.43,1.71,1.71,0,0,0-.77-.18.59.59,0,0,0-.39.11.4.4,0,0,0-.12.29.38.38,0,0,0,.12.28,1.86,1.86,0,0,0,.43.28,10.06,10.06,0,0,1,.88.53,2,2,0,0,1,.52.54A1.51,1.51,0,0,1,97.05,287Z"/>
    </g>
    <g>
      <path d="M131.79,288.59h-1.44v-3.14l-1.29,1.82h-.12l-1.3-1.82v3.14h-1.39v-5.41h1.3l1.46,2,1.47-2h1.31Z"/>
      <path d="M133.81,288.59h-1.24v-4h1.24Zm-.1-4.89a.56.56,0,0,1-.16.41.45.45,0,0,1-.36.18.5.5,0,0,1-.27-.08.46.46,0,0,1-.18-.21.6.6,0,0,1-.07-.3.62.62,0,0,1,.15-.42.46.46,0,0,1,.37-.18.45.45,0,0,1,.36.18A.58.58,0,0,1,133.71,283.7Z"/>
      <path d="M138.28,288.59h-1.53l-.68-1.13-.67,1.13h-1.35l1.35-1.95-1.38-2h1.52l.65,1.09.65-1.09h1.36l-1.33,1.89Z"/>
    </g>
    <g>
      <path d="M172.52,288.59h-1.44v-5.41h1.44Z"/>
      <path d="M177,288.59h-1.23v-2.14a1.72,1.72,0,0,0-.1-.58.39.39,0,0,0-.41-.24.6.6,0,0,0-.27.06.87.87,0,0,0-.21.17,1.3,1.3,0,0,0-.15.2l-.13.2v2.33h-1.23v-4h1.23v.57a1.83,1.83,0,0,1,.59-.49,1.41,1.41,0,0,1,.65-.15c.84,0,1.26.57,1.26,1.72Z"/>
      <path d="M181.14,288.59h-1.25v-.36a1.7,1.7,0,0,1-.41.31,1.25,1.25,0,0,1-.6.12,1.47,1.47,0,0,1-.75-.21,1.66,1.66,0,0,1-.61-.67,2.62,2.62,0,0,1-.23-1.15,3.12,3.12,0,0,1,.17-1,1.81,1.81,0,0,1,.56-.77,1.68,1.68,0,0,1,1.5-.21,1.34,1.34,0,0,1,.37.22v-1.67h1.25Zm-1.25-1.26v-1.52a2.4,2.4,0,0,0-.33-.2.65.65,0,0,0-.29-.06.59.59,0,0,0-.49.28,1.35,1.35,0,0,0-.19.77,1.22,1.22,0,0,0,.2.77.63.63,0,0,0,.48.24.74.74,0,0,0,.36-.08A1.64,1.64,0,0,0,179.89,287.33Z"/>
      <path d="M185.23,286.94h-2.47a1,1,0,0,0,.36.6,1,1,0,0,0,.64.23,3.12,3.12,0,0,0,1.38-.4v.87a3.42,3.42,0,0,1-.66.29,3.08,3.08,0,0,1-1,.13,2.14,2.14,0,0,1-1.1-.27,1.71,1.71,0,0,1-.67-.74,2.47,2.47,0,0,1-.23-1.07,2.38,2.38,0,0,1,.23-1.05,1.66,1.66,0,0,1,.67-.72,2.14,2.14,0,0,1,1.1-.27,1.76,1.76,0,0,1,.83.21,1.62,1.62,0,0,1,.65.69,2.54,2.54,0,0,1,.26,1.22Zm-1.17-.69a1,1,0,0,0-.16-.61.54.54,0,0,0-.48-.23.6.6,0,0,0-.5.23.91.91,0,0,0-.19.61Z"/>
      <path d="M189.45,288.59h-1.52l-.68-1.13-.68,1.13h-1.35l1.35-1.95-1.38-2h1.53l.64,1.09.65-1.09h1.36l-1.32,1.89Z"/>
    </g>
    <g>
      <path d="M29.82,334.27a1.65,1.65,0,0,1-.23.88,1.48,1.48,0,0,1-.64.57,2.13,2.13,0,0,1-.94.2l-.36,0-.57-.12a4.34,4.34,0,0,1-.74-.29v-1.33a4.88,4.88,0,0,0,.71.42,1.59,1.59,0,0,0,.75.17c.24,0,.4,0,.47-.14a.39.39,0,0,0,.11-.26.47.47,0,0,0-.18-.37,3.11,3.11,0,0,0-.54-.31,3.49,3.49,0,0,1-.69-.41,1.59,1.59,0,0,1-.48-.55,1.5,1.5,0,0,1-.19-.78,1.59,1.59,0,0,1,.19-.79,1.36,1.36,0,0,1,.57-.57,2,2,0,0,1,1-.21,2.89,2.89,0,0,1,.74.09,2.57,2.57,0,0,1,.56.2,1.63,1.63,0,0,1,.3.17v1.27a3.86,3.86,0,0,0-.65-.43,1.72,1.72,0,0,0-.77-.19.54.54,0,0,0-.39.12.4.4,0,0,0-.12.29.38.38,0,0,0,.12.28,2.12,2.12,0,0,0,.43.28,8.07,8.07,0,0,1,.88.53,1.89,1.89,0,0,1,.52.54A1.41,1.41,0,0,1,29.82,334.27Z"/>
      <path d="M34.05,335.85H32.81v-2.2a1.27,1.27,0,0,0-.1-.52.42.42,0,0,0-.41-.24.55.55,0,0,0-.41.18,2,2,0,0,0-.34.44v2.34H30.31v-5.42h1.24v2a1.77,1.77,0,0,1,.6-.5,1.53,1.53,0,0,1,.64-.14c.84,0,1.26.54,1.26,1.61Z"/>
      <path d="M38.14,335.65l-.5.2a2.25,2.25,0,0,1-.56.07.59.59,0,0,1-.42-.12.92.92,0,0,1-.18-.3,1.9,1.9,0,0,1-.44.3,1.43,1.43,0,0,1-.64.12,1.16,1.16,0,0,1-.62-.15.92.92,0,0,1-.33-.38,1.27,1.27,0,0,1-.09-.47,1.07,1.07,0,0,1,.16-.61,1.28,1.28,0,0,1,.44-.39,5.37,5.37,0,0,1,.73-.32l.39-.14.2-.08.14-.07a.83.83,0,0,0-.11-.45c-.07-.11-.22-.16-.44-.16a1.44,1.44,0,0,0-.76.2,2.81,2.81,0,0,0-.63.52v-1.07A2,2,0,0,1,35,332a2.45,2.45,0,0,1,.56-.18,2.88,2.88,0,0,1,.59-.06,1.67,1.67,0,0,1,1.14.34,1.14,1.14,0,0,1,.38.92v1.53a1.22,1.22,0,0,0,0,.33.13.13,0,0,0,.13.1.67.67,0,0,0,.32-.11Zm-1.72-.76V334a3,3,0,0,0-.65.36.56.56,0,0,0-.2.44.43.43,0,0,0,.1.31.33.33,0,0,0,.24.1.41.41,0,0,0,.25-.08Z"/>
      <path d="M42.09,333.83a3.18,3.18,0,0,1-.1.77,2.16,2.16,0,0,1-.31.67,1.5,1.5,0,0,1-.52.48,1.66,1.66,0,0,1-.75.17,1.54,1.54,0,0,1-.54-.08,2.56,2.56,0,0,1-.39-.22v2H38.24v-5.79h1.24v.36a1.73,1.73,0,0,1,.41-.3,1.18,1.18,0,0,1,.61-.13,1.44,1.44,0,0,1,.75.22,1.59,1.59,0,0,1,.6.67A2.41,2.41,0,0,1,42.09,333.83Zm-1.31,0a1.61,1.61,0,0,0-.09-.58.72.72,0,0,0-.26-.32.6.6,0,0,0-.33-.1.64.64,0,0,0-.36.08,1.21,1.21,0,0,0-.26.2v1.52l.13.09.15.08.16.06.18,0a.57.57,0,0,0,.49-.28A1.33,1.33,0,0,0,40.78,333.86Z"/>
      <path d="M46,334.2H43.57a1,1,0,0,0,.36.59.93.93,0,0,0,.64.23,3.09,3.09,0,0,0,1.38-.39v.87a4.18,4.18,0,0,1-.66.29,3.08,3.08,0,0,1-1,.13,2.14,2.14,0,0,1-1.1-.27,1.74,1.74,0,0,1-.67-.75,2.53,2.53,0,0,1,0-2.11,1.61,1.61,0,0,1,.67-.72,2.14,2.14,0,0,1,1.1-.27,1.76,1.76,0,0,1,.83.21,1.65,1.65,0,0,1,.65.68,2.61,2.61,0,0,1,.26,1.23Zm-1.16-.69a1.06,1.06,0,0,0-.17-.62.55.55,0,0,0-.48-.22.6.6,0,0,0-.5.23.91.91,0,0,0-.19.61Z"/>
    </g>
    <g>
      <path d="M76.87,335.85H75.33l-.37-1a4.3,4.3,0,0,0-.37-.77.82.82,0,0,0-.33-.32,1.12,1.12,0,0,0-.4-.06H73.7v2.11H72.26v-5.42h2.45a1.66,1.66,0,0,1,1,.28,1.55,1.55,0,0,1,.54.66,1.93,1.93,0,0,1,.17.74,1.62,1.62,0,0,1-.14.7,1.28,1.28,0,0,1-.3.41,3,3,0,0,1-.34.25,1.45,1.45,0,0,1,.38.36,4.8,4.8,0,0,1,.4.84Zm-2-3.7a.61.61,0,0,0-.21-.53,1.29,1.29,0,0,0-.71-.15h-.3v1.31H74a1.36,1.36,0,0,0,.72-.13A.57.57,0,0,0,74.92,332.15Z"/>
      <path d="M80.67,335.65l-.5.2a2.17,2.17,0,0,1-.55.07.6.6,0,0,1-.43-.12.75.75,0,0,1-.17-.3,1.9,1.9,0,0,1-.44.3,1.49,1.49,0,0,1-.64.12,1.14,1.14,0,0,1-.62-.15.8.8,0,0,1-.33-.38,1.27,1.27,0,0,1-.09-.47,1.07,1.07,0,0,1,.16-.61,1.19,1.19,0,0,1,.44-.39,4.86,4.86,0,0,1,.73-.32l.39-.14.19-.08a.46.46,0,0,0,.14-.07.83.83,0,0,0-.1-.45c-.07-.11-.22-.16-.45-.16a1.41,1.41,0,0,0-.75.2,2.86,2.86,0,0,0-.64.52v-1.07a2.18,2.18,0,0,1,.5-.31,2.81,2.81,0,0,1,.56-.18,3,3,0,0,1,.59-.06,1.68,1.68,0,0,1,1.15.34,1.17,1.17,0,0,1,.38.92v1.53a1.31,1.31,0,0,0,0,.33.14.14,0,0,0,.14.1.61.61,0,0,0,.31-.11ZM79,334.89V334a2.89,2.89,0,0,0-.64.36.53.53,0,0,0-.2.44.43.43,0,0,0,.1.31.29.29,0,0,0,.23.1.39.39,0,0,0,.25-.08A2.14,2.14,0,0,0,79,334.89Z"/>
      <path d="M83.54,335.62a2.37,2.37,0,0,1-.53.2,2.19,2.19,0,0,1-.65.1c-.89,0-1.34-.49-1.34-1.49v-1.58h-.56v-.25l1.66-1.92h.15v1.19h1.18v1H82.27v1.27a1.84,1.84,0,0,0,0,.36.37.37,0,0,0,.14.23.5.5,0,0,0,.33.09,1.64,1.64,0,0,0,.78-.28Z"/>
      <path d="M85.1,335.85H83.86v-4H85.1ZM85,331a.61.61,0,0,1-.16.42.46.46,0,0,1-.37.17.48.48,0,0,1-.26-.07.67.67,0,0,1-.19-.22A.73.73,0,0,1,84,331a.59.59,0,0,1,.15-.41.49.49,0,0,1,.37-.18.47.47,0,0,1,.37.18A.6.6,0,0,1,85,331Z"/>
      <path d="M89.54,333.86a2.43,2.43,0,0,1-.23,1.06,1.65,1.65,0,0,1-.68.73,2.38,2.38,0,0,1-2.2,0,1.71,1.71,0,0,1-.68-.73,2.42,2.42,0,0,1-.22-1.06,2.66,2.66,0,0,1,.12-.82,2,2,0,0,1,.38-.65,1.92,1.92,0,0,1,.64-.44,2.28,2.28,0,0,1,.86-.15,2.23,2.23,0,0,1,.88.16,1.65,1.65,0,0,1,.63.43,1.81,1.81,0,0,1,.37.65A2.35,2.35,0,0,1,89.54,333.86Zm-1.3,0a1.31,1.31,0,0,0-.18-.74.65.65,0,0,0-1,0,1.31,1.31,0,0,0-.18.74,1.33,1.33,0,0,0,.18.74.65.65,0,0,0,1,0A1.33,1.33,0,0,0,88.24,333.86Z"/>
      <path d="M96.18,335.44a3,3,0,0,1-.61.28,2.67,2.67,0,0,1-.62.15,4.62,4.62,0,0,1-.65.05,3,3,0,0,1-1.12-.2,2.36,2.36,0,0,1-.85-.57,2.42,2.42,0,0,1-.55-.89,3.37,3.37,0,0,1-.18-1.12,3.11,3.11,0,0,1,.22-1.23,2.35,2.35,0,0,1,.59-.87,2.56,2.56,0,0,1,.87-.51,3.29,3.29,0,0,1,1-.17,5.14,5.14,0,0,1,1.84.41v1.44a4.8,4.8,0,0,0-.7-.42,1.88,1.88,0,0,0-.82-.16,1.71,1.71,0,0,0-.77.18,1.51,1.51,0,0,0-.58.54,1.45,1.45,0,0,0-.22.81,1.47,1.47,0,0,0,.19.75,1.44,1.44,0,0,0,1.31.75,2,2,0,0,0,.65-.1,2.34,2.34,0,0,0,.52-.21,4.54,4.54,0,0,0,.44-.28Z"/>
    </g>
    <g>
      <path d="M125.3,335.85h-1.54l-.38-1a3.7,3.7,0,0,0-.37-.77.87.87,0,0,0-.32-.32,1.12,1.12,0,0,0-.4-.06h-.17v2.11h-1.43v-5.42h2.44a1.62,1.62,0,0,1,1,.28,1.58,1.58,0,0,1,.55.66,1.9,1.9,0,0,1,.16.74,1.48,1.48,0,0,1-.14.7,1.27,1.27,0,0,1-.29.41,2.41,2.41,0,0,1-.35.25,1.31,1.31,0,0,1,.38.36,4.62,4.62,0,0,1,.41.84Zm-2-3.7a.59.59,0,0,0-.22-.53,1.25,1.25,0,0,0-.7-.15h-.31v1.31h.31a1.36,1.36,0,0,0,.72-.13A.57.57,0,0,0,123.35,332.15Z"/>
      <path d="M129.1,335.65l-.5.2a2.25,2.25,0,0,1-.56.07.59.59,0,0,1-.42-.12.75.75,0,0,1-.17-.3,2,2,0,0,1-.45.3,1.43,1.43,0,0,1-.64.12,1.1,1.1,0,0,1-.61-.15.8.8,0,0,1-.33-.38,1.1,1.1,0,0,1-.1-.47,1.15,1.15,0,0,1,.16-.61,1.28,1.28,0,0,1,.44-.39,6,6,0,0,1,.73-.32l.39-.14.2-.08.14-.07a.83.83,0,0,0-.11-.45c-.06-.11-.21-.16-.44-.16a1.47,1.47,0,0,0-.76.2,2.81,2.81,0,0,0-.63.52v-1.07a2,2,0,0,1,.5-.31,2.62,2.62,0,0,1,.56-.18,2.88,2.88,0,0,1,.59-.06,1.64,1.64,0,0,1,1.14.34,1.14,1.14,0,0,1,.38.92v1.53a1.22,1.22,0,0,0,0,.33.13.13,0,0,0,.13.1.64.64,0,0,0,.32-.11Zm-1.72-.76V334a3,3,0,0,0-.65.36.56.56,0,0,0-.2.44.48.48,0,0,0,.1.31.33.33,0,0,0,.24.1.41.41,0,0,0,.25-.08A2.14,2.14,0,0,0,127.38,334.89Z"/>
      <path d="M132,335.62a2.58,2.58,0,0,1-.53.2,2.24,2.24,0,0,1-.65.1c-.89,0-1.34-.49-1.34-1.49v-1.58h-.56v-.25l1.66-1.92h.14v1.19h1.18v1h-1.18v1.27a1.73,1.73,0,0,0,0,.36.36.36,0,0,0,.13.23.55.55,0,0,0,.34.09,1.64,1.64,0,0,0,.78-.28Z"/>
      <path d="M133.53,335.85h-1.24v-4h1.24Zm-.1-4.9a.6.6,0,0,1-.15.42.48.48,0,0,1-.37.17.46.46,0,0,1-.26-.07.57.57,0,0,1-.19-.22.6.6,0,0,1-.07-.3.59.59,0,0,1,.15-.41.46.46,0,0,1,.37-.18.49.49,0,0,1,.37.18A.59.59,0,0,1,133.43,331Z"/>
      <path d="M138,333.86a2.43,2.43,0,0,1-.23,1.06,1.71,1.71,0,0,1-.68.73,2.11,2.11,0,0,1-1.1.27,2.09,2.09,0,0,1-1.1-.27,1.71,1.71,0,0,1-.68-.73,2.43,2.43,0,0,1-.23-1.06,2.66,2.66,0,0,1,.13-.82,1.86,1.86,0,0,1,.38-.65,1.79,1.79,0,0,1,.63-.44,2.33,2.33,0,0,1,.87-.15,2.14,2.14,0,0,1,.87.16,1.51,1.51,0,0,1,.63.43,1.83,1.83,0,0,1,.38.65A2.61,2.61,0,0,1,138,333.86Zm-1.31,0a1.31,1.31,0,0,0-.18-.74.64.64,0,0,0-1,0,1.31,1.31,0,0,0-.18.74,1.33,1.33,0,0,0,.18.74.64.64,0,0,0,1,0A1.33,1.33,0,0,0,136.66,333.86Z"/>
      <path d="M143.75,333.66h-2v2.19h-1.43v-5.42h3.41v1.09h-2v1.05h2Z"/>
    </g>
    <g>
      <path d="M179.13,333.14a3.08,3.08,0,0,1-.31,1.39,2.3,2.3,0,0,1-.92,1,3.06,3.06,0,0,1-3,0,2.38,2.38,0,0,1-.91-1,3.14,3.14,0,0,1-.3-1.36,3.19,3.19,0,0,1,.3-1.37,2.35,2.35,0,0,1,.91-1,2.71,2.71,0,0,1,1.49-.39,2.92,2.92,0,0,1,1.18.22,2.24,2.24,0,0,1,.85.61,2.75,2.75,0,0,1,.51.88A3.43,3.43,0,0,1,179.13,333.14Zm-1.47,0a1.65,1.65,0,0,0-.08-.56,1.32,1.32,0,0,0-.23-.44,1.24,1.24,0,0,0-.39-.29,1.53,1.53,0,0,0-.54-.1,1.14,1.14,0,0,0-.9.38,1.5,1.5,0,0,0-.33,1,1.47,1.47,0,0,0,.33,1,1.12,1.12,0,0,0,.9.39,1.23,1.23,0,0,0,.68-.18,1.19,1.19,0,0,0,.42-.49A1.65,1.65,0,0,0,177.66,333.14Z" style="fill: #ededed"/>
      <path d="M183.22,335.85H182v-.57a1.84,1.84,0,0,1-.55.48,1.42,1.42,0,0,1-.7.16,1,1,0,0,1-1-.53,2.79,2.79,0,0,1-.23-1.18v-2.34h1.23V334a1.61,1.61,0,0,0,.1.57.39.39,0,0,0,.41.24.56.56,0,0,0,.43-.17,3.77,3.77,0,0,0,.33-.45v-2.34h1.23Z" style="fill: #ededed"/>
      <path d="M186.5,335.62a2.48,2.48,0,0,1-.54.2,2.13,2.13,0,0,1-.64.1c-.89,0-1.34-.5-1.34-1.49v-1.58h-.56v-.25l1.66-1.92h.14v1.19h1.18v1h-1.18v1.27a3.21,3.21,0,0,0,0,.36.43.43,0,0,0,.14.23.55.55,0,0,0,.34.09,1.64,1.64,0,0,0,.78-.28Z" style="fill: #ededed"/>
    </g>
    <g>
      <path d="M94.85,354.37H92.32v3H90.48v-7.44h4.37v1.49H92.32v1.44h2.53Z"/>
      <path d="M103.19,357.38h-1.84v-4.31l-1.66,2.5h-.15l-1.66-2.5v4.31H96.09v-7.44h1.67l1.87,2.79,1.89-2.79h1.67Z"/>
      <path d="M113.94,353.65a4.49,4.49,0,0,1-.4,1.92,3.18,3.18,0,0,1-1.17,1.39,3.31,3.31,0,0,1-1.9.52,3.22,3.22,0,0,1-3.08-2,4.75,4.75,0,0,1-.38-1.88,4.66,4.66,0,0,1,.38-1.87,3.1,3.1,0,0,1,1.17-1.41,3.28,3.28,0,0,1,1.91-.54,3.6,3.6,0,0,1,1.51.31,3,3,0,0,1,1.09.83,3.67,3.67,0,0,1,.65,1.22A4.69,4.69,0,0,1,113.94,353.65Zm-1.88,0a2.59,2.59,0,0,0-.1-.76,1.88,1.88,0,0,0-.3-.6,1.48,1.48,0,0,0-.5-.4,1.52,1.52,0,0,0-.69-.14,1.4,1.4,0,0,0-1.16.52,2.14,2.14,0,0,0-.42,1.38,2.19,2.19,0,0,0,.42,1.39,1.43,1.43,0,0,0,1.16.53,1.54,1.54,0,0,0,.87-.25,1.61,1.61,0,0,0,.54-.68A2.5,2.5,0,0,0,112.06,353.65Z"/>
      <path d="M119.35,355.22a2.49,2.49,0,0,1-.29,1.21,2.05,2.05,0,0,1-.82.78,2.59,2.59,0,0,1-1.2.27l-.47,0a4.75,4.75,0,0,1-.73-.17,5.62,5.62,0,0,1-1-.39v-1.83a6.84,6.84,0,0,0,.91.58,2.12,2.12,0,0,0,1,.23c.32,0,.52-.06.61-.19a.66.66,0,0,0,.14-.36.62.62,0,0,0-.24-.5,3.33,3.33,0,0,0-.69-.43,5.32,5.32,0,0,1-.88-.56,2.44,2.44,0,0,1-.62-.76,2.32,2.32,0,0,1-.24-1.08,2.42,2.42,0,0,1,.24-1.09,2,2,0,0,1,.74-.78,2.45,2.45,0,0,1,1.22-.29,3.5,3.5,0,0,1,.94.13,3.51,3.51,0,0,1,1.11.5v1.75a5.24,5.24,0,0,0-.84-.59,2,2,0,0,0-1-.25.65.65,0,0,0-.5.16.54.54,0,0,0-.15.39.56.56,0,0,0,.15.39,3.37,3.37,0,0,0,.55.39,11.5,11.5,0,0,1,1.13.72,2.59,2.59,0,0,1,.66.75A2.09,2.09,0,0,1,119.35,355.22Z"/>
      <path d="M126.07,356.82a4.06,4.06,0,0,1-.78.39,4.49,4.49,0,0,1-.8.21,5.49,5.49,0,0,1-.83.06,3.61,3.61,0,0,1-1.43-.27,3.06,3.06,0,0,1-1.1-.79,3.38,3.38,0,0,1-.69-1.23,5.32,5.32,0,0,1,0-3.22,3.33,3.33,0,0,1,.76-1.2,3.23,3.23,0,0,1,1.12-.71,3.91,3.91,0,0,1,1.33-.23,6,6,0,0,1,2.35.57v2a7.07,7.07,0,0,0-.89-.58,2.32,2.32,0,0,0-1.05-.23,2,2,0,0,0-1,.26,2,2,0,0,0-.75.74,2.24,2.24,0,0,0-.28,1.12,2.12,2.12,0,0,0,.25,1,2,2,0,0,0,.68.75,1.89,1.89,0,0,0,1,.27,2.55,2.55,0,0,0,.84-.13,3.27,3.27,0,0,0,.67-.29c.18-.11.37-.24.56-.38Z"/>
    </g>
    <path d="M17.85,325.82v9.88a5.68,5.68,0,0,0,5.67,5.67H184.38c7.49,0,13.56-6,13.56-14.64V266.25l-.06-6.23c-.29-8.38-6.23-15.07-13.54-15.07H31.41c-7.31,0-13.25,6.69-13.54,15.07l-.06,6.23v-.86l.06,61.34" style="fill: none;stroke: #000;stroke-miterlimit: 10"/>
    <g>
      <path d="M98.79,84.44H97V77.68h1.79Z"/>
      <path d="M104.36,84.44h-1.54V81.76a1.92,1.92,0,0,0-.12-.71.49.49,0,0,0-.52-.31.67.67,0,0,0-.33.08,1.33,1.33,0,0,0-.26.21,1.8,1.8,0,0,0-.19.24c-.05.08-.11.16-.16.25v2.92H99.69v-5h1.55v.71a2.37,2.37,0,0,1,.73-.62,1.86,1.86,0,0,1,.82-.18c1,0,1.57.72,1.57,2.14Z"/>
      <path d="M109.57,84.44H108V84a2.62,2.62,0,0,1-.52.39,1.6,1.6,0,0,1-.76.15,1.81,1.81,0,0,1-.93-.27,2,2,0,0,1-.76-.84,3,3,0,0,1-.3-1.43,3.58,3.58,0,0,1,.23-1.27,2.07,2.07,0,0,1,.7-1,1.85,1.85,0,0,1,1.17-.38,1.92,1.92,0,0,1,.69.11,1.87,1.87,0,0,1,.48.27V77.68h1.55ZM108,82.86V81l-.43-.24a.8.8,0,0,0-.36-.08.73.73,0,0,0-.61.36,1.65,1.65,0,0,0-.24,1,1.47,1.47,0,0,0,.26,1,.76.76,0,0,0,.59.3.83.83,0,0,0,.45-.1A1.56,1.56,0,0,0,108,82.86Z"/>
      <path d="M114.68,82.38H111.6a1.26,1.26,0,0,0,.44.74,1.2,1.2,0,0,0,.8.29,3.68,3.68,0,0,0,1.73-.5V84a4.19,4.19,0,0,1-.82.37,4,4,0,0,1-1.24.16,2.6,2.6,0,0,1-1.37-.34,2.18,2.18,0,0,1-.85-.93,3,3,0,0,1-.28-1.33,2.93,2.93,0,0,1,.28-1.31,2.13,2.13,0,0,1,.85-.91,2.7,2.7,0,0,1,1.37-.33,2.11,2.11,0,0,1,1,.27,1.93,1.93,0,0,1,.82.85,3.28,3.28,0,0,1,.32,1.53Zm-1.45-.87a1.25,1.25,0,0,0-.21-.76.7.7,0,0,0-.6-.29.79.79,0,0,0-.63.29,1.23,1.23,0,0,0-.23.76Z"/>
      <path d="M120,84.44h-1.91L117.21,83l-.85,1.41h-1.69L116.36,82l-1.72-2.53h1.9l.81,1.35.82-1.35h1.69l-1.66,2.36Z"/>
    </g>
    <path d="M108.12,38.45a18.11,18.11,0,0,0-2.45.17l-.39-2.22a21.4,21.4,0,0,1,5.69,0l-.39,2.21A19.93,19.93,0,0,0,108.12,38.45Z"/>
    <path d="M93.63,44.82l-1.72-1.45a22.06,22.06,0,0,1,4.34-3.66l1.12,1.94A19.94,19.94,0,0,0,93.63,44.82Z"/>
    <path d="M99.1,40.65,98,38.7a21.87,21.87,0,0,1,5.34-2L103.7,39A19.63,19.63,0,0,0,99.1,40.65Z"/>
    <path d="M89.89,50.58l-2.1-.76a22.4,22.4,0,0,1,2.83-4.92l1.73,1.45A19.81,19.81,0,0,0,89.89,50.58Z"/>
    <path d="M112.55,39l.39-2.21a21.64,21.64,0,0,1,5.33,2l-1.12,1.95A19.19,19.19,0,0,0,112.55,39Z"/>
    <path d="M88.41,57.28H86.15a22,22,0,0,1,1-5.58l2.11.77A19.6,19.6,0,0,0,88.41,57.28Z"/>
    <path d="M89.27,64.08l-2.1.76a22,22,0,0,1-1-5.56H88.4A19.83,19.83,0,0,0,89.27,64.08Z"/>
    <path d="M92.41,70.16,90.7,71.6a22.06,22.06,0,0,1-2.84-4.88L90,66A20.31,20.31,0,0,0,92.41,70.16Z"/>
    <path d="M123.9,46.35l1.73-1.45a22.4,22.4,0,0,1,2.83,4.92l-2.1.76A19.81,19.81,0,0,0,123.9,46.35Z"/>
    <path d="M127,52.46l2.11-.76a21.88,21.88,0,0,1,1,5.58h-2.26A19.76,19.76,0,0,0,127,52.46Z"/>
    <path d="M127.85,59.28h2.24a22,22,0,0,1-1,5.56l-2.1-.76A19.83,19.83,0,0,0,127.85,59.28Z"/>
    <path d="M126.29,66l2.1.76a21.68,21.68,0,0,1-2.84,4.88l-1.71-1.44A19.87,19.87,0,0,0,126.29,66Z"/>
    <path d="M97.43,74.8l-1.12,1.94A22.13,22.13,0,0,1,92,73.12l1.71-1.43A19.94,19.94,0,0,0,97.43,74.8Z"/>
    <path d="M122.54,71.68l1.72,1.44a22.5,22.5,0,0,1-4.32,3.62l-1.12-1.94A19.31,19.31,0,0,0,122.54,71.68Z"/>
    <path d="M118.88,41.65,120,39.71a22.41,22.41,0,0,1,4.35,3.66l-1.73,1.45A19.94,19.94,0,0,0,118.88,41.65Z"/>
    <g>
      <path d="M102.57,167.3a2.94,2.94,0,0,1-.14.88,2.33,2.33,0,0,1-.44.8,2.26,2.26,0,0,1-.82.61,3.05,3.05,0,0,1-1.22.23H98.54v3.05H96.38v-8.13H100a2.89,2.89,0,0,1,1.22.24,2.15,2.15,0,0,1,.82.61,2.47,2.47,0,0,1,.44.81A3.07,3.07,0,0,1,102.57,167.3Zm-2.2,0a.9.9,0,0,0-.3-.79A1.89,1.89,0,0,0,99,166.3h-.45v2H99a3.35,3.35,0,0,0,.82-.08.62.62,0,0,0,.42-.28A1.05,1.05,0,0,0,100.37,167.31Z"/>
      <path d="M105,172.87h-1.86v-6H105Zm-.15-7.35a.92.92,0,0,1-.23.63.74.74,0,0,1-.55.26.7.7,0,0,1-.4-.12.8.8,0,0,1-.28-.32.93.93,0,0,1-.1-.45.87.87,0,0,1,.23-.62.69.69,0,0,1,.55-.27.71.71,0,0,1,.55.27A.91.91,0,0,1,104.84,165.52Z"/>
      <path d="M110,172.52a3.88,3.88,0,0,1-.8.3,3.42,3.42,0,0,1-1,.15c-1.34,0-2-.74-2-2.23v-2.37h-.84V168l2.49-2.89h.21v1.79h1.78v1.47h-1.78v1.91a3.48,3.48,0,0,0,0,.53.55.55,0,0,0,.2.35.84.84,0,0,0,.51.13,2.52,2.52,0,0,0,1.17-.42Z"/>
      <path d="M114.88,172.59a4.09,4.09,0,0,1-.49.18,3.28,3.28,0,0,1-.58.14,3.92,3.92,0,0,1-.71.06,2.93,2.93,0,0,1-1.45-.33,2.48,2.48,0,0,1-.92-.83,3.21,3.21,0,0,1-.45-1,3.55,3.55,0,0,1,0-1.83,3.37,3.37,0,0,1,.45-1,2.43,2.43,0,0,1,.91-.82,3,3,0,0,1,1.46-.33,4,4,0,0,1,1,.1,4.3,4.3,0,0,1,.74.25v1.66a4.43,4.43,0,0,0-1.41-.33,1.26,1.26,0,0,0-.88.34,1.34,1.34,0,0,0-.39,1.06,1.59,1.59,0,0,0,.19.79,1.19,1.19,0,0,0,.49.48,1.26,1.26,0,0,0,.59.15,2.64,2.64,0,0,0,.63-.09q.36-.09.87-.27Z"/>
      <path d="M121,172.87H119.1v-3.1s0,0,0-.07v-.13a1.86,1.86,0,0,0-.16-.79.61.61,0,0,0-.61-.36.86.86,0,0,0-.62.27,3.36,3.36,0,0,0-.51.67v3.51h-1.85v-8.13h1.85v3a2.53,2.53,0,0,1,.91-.76,2.23,2.23,0,0,1,.95-.21c1.26,0,1.89.81,1.89,2.41Z"/>
    </g>
    <g>
      <path d="M157.44,200.38a1.93,1.93,0,0,1-.29,1.09,1.81,1.81,0,0,1-.79.71,2.59,2.59,0,0,1-1.18.25l-.45,0a3.63,3.63,0,0,1-.71-.14,5.8,5.8,0,0,1-.93-.37v-1.66a5.63,5.63,0,0,0,.89.53,2.11,2.11,0,0,0,.93.21.78.78,0,0,0,.6-.17.56.56,0,0,0,.13-.33.56.56,0,0,0-.23-.46,3.72,3.72,0,0,0-.67-.39,4.16,4.16,0,0,1-.86-.51,2.14,2.14,0,0,1-.61-.69,2,2,0,0,1-.23-1,2.07,2.07,0,0,1,.24-1,1.68,1.68,0,0,1,.72-.7,2.39,2.39,0,0,1,1.18-.27,3.89,3.89,0,0,1,.93.11,4.1,4.1,0,0,1,.69.25,2.61,2.61,0,0,1,.38.21v1.59a4.72,4.72,0,0,0-.81-.53,2,2,0,0,0-1-.24.67.67,0,0,0-.49.15.49.49,0,0,0-.15.36.47.47,0,0,0,.15.35,2.46,2.46,0,0,0,.54.36,11.1,11.1,0,0,1,1.1.65,2.6,2.6,0,0,1,.65.68A1.87,1.87,0,0,1,157.44,200.38Z"/>
      <path d="M162.73,202.34h-1.55v-2.75a1.57,1.57,0,0,0-.13-.65.51.51,0,0,0-.51-.3.74.74,0,0,0-.51.22,3.29,3.29,0,0,0-.43.56v2.92h-1.54v-6.76h1.54v2.51a2.37,2.37,0,0,1,.76-.64,1.93,1.93,0,0,1,.79-.17c1,0,1.58.67,1.58,2Z"/>
      <path d="M167.84,202.09a4.82,4.82,0,0,1-.63.25,2.31,2.31,0,0,1-.69.09.75.75,0,0,1-.53-.15,1,1,0,0,1-.22-.38,2.08,2.08,0,0,1-.55.38,1.84,1.84,0,0,1-.8.15,1.35,1.35,0,0,1-.77-.19.93.93,0,0,1-.41-.47,1.52,1.52,0,0,1-.12-.59,1.39,1.39,0,0,1,.2-.76,1.63,1.63,0,0,1,.55-.49,5.48,5.48,0,0,1,.91-.39l.49-.18.24-.1a.76.76,0,0,0,.18-.09,1.08,1.08,0,0,0-.13-.56c-.09-.14-.27-.21-.56-.21a1.82,1.82,0,0,0-.94.26,3.26,3.26,0,0,0-.8.65V198a3.11,3.11,0,0,1,.63-.38,3.18,3.18,0,0,1,.7-.22,3.65,3.65,0,0,1,.74-.08,2.08,2.08,0,0,1,1.42.42,1.44,1.44,0,0,1,.48,1.15v1.92a1.37,1.37,0,0,0,.05.41.16.16,0,0,0,.16.13.83.83,0,0,0,.4-.14Zm-2.15-1V200a4.5,4.5,0,0,0-.81.45.67.67,0,0,0-.25.55.5.5,0,0,0,.13.38.37.37,0,0,0,.29.13.57.57,0,0,0,.32-.1A2,2,0,0,0,165.69,201.14Z"/>
      <path d="M172.78,199.82a3.85,3.85,0,0,1-.13,1,2.62,2.62,0,0,1-.38.83,1.79,1.79,0,0,1-.66.59,1.85,1.85,0,0,1-.93.22,1.81,1.81,0,0,1-.68-.1,3,3,0,0,1-.49-.27v2.54H168v-7.23h1.55v.45a2.6,2.6,0,0,1,.51-.38,1.66,1.66,0,0,1,.77-.16,1.81,1.81,0,0,1,.93.27,2,2,0,0,1,.76.84A3.06,3.06,0,0,1,172.78,199.82Zm-1.63,0a1.7,1.7,0,0,0-.13-.73.88.88,0,0,0-.32-.4.71.71,0,0,0-.41-.13,1,1,0,0,0-.45.1,1.59,1.59,0,0,0-.33.25v1.9l.18.11.18.11.2.07a.78.78,0,0,0,.22,0,.72.72,0,0,0,.61-.35A1.59,1.59,0,0,0,171.15,199.86Z"/>
      <path d="M177.71,200.28h-3.08a1.25,1.25,0,0,0,.45.75,1.21,1.21,0,0,0,.79.28,3.75,3.75,0,0,0,1.73-.49v1.08a3.94,3.94,0,0,1-.82.37,3.86,3.86,0,0,1-1.23.16,2.62,2.62,0,0,1-1.38-.34,2.24,2.24,0,0,1-.85-.93,3.25,3.25,0,0,1,0-2.64,2.19,2.19,0,0,1,.85-.91,2.71,2.71,0,0,1,1.38-.33,2.14,2.14,0,0,1,1,.27,2,2,0,0,1,.81.85,3.16,3.16,0,0,1,.32,1.53Zm-1.45-.87a1.27,1.27,0,0,0-.21-.76.7.7,0,0,0-.6-.29.78.78,0,0,0-.62.29,1.17,1.17,0,0,0-.24.76Z"/>
      <path d="M186,201.84a4.71,4.71,0,0,1-.76.35,4,4,0,0,1-.78.19,7,7,0,0,1-.81.05,3.88,3.88,0,0,1-1.4-.24,3.26,3.26,0,0,1-1.07-.72,3.1,3.1,0,0,1-.67-1.12,4.15,4.15,0,0,1-.23-1.4,4,4,0,0,1,.27-1.53,2.89,2.89,0,0,1,.74-1.09,3.17,3.17,0,0,1,1.09-.64,4,4,0,0,1,1.29-.21,6.12,6.12,0,0,1,2.3.52v1.79a5.71,5.71,0,0,0-.87-.52,2.32,2.32,0,0,0-1-.2,2,2,0,0,0-1,.23,1.86,1.86,0,0,0-.72.67,1.81,1.81,0,0,0-.28,1,1.85,1.85,0,0,0,.24.94,1.69,1.69,0,0,0,.67.68,1.83,1.83,0,0,0,1,.25,2.71,2.71,0,0,0,.82-.12,2.93,2.93,0,0,0,.66-.26,6.08,6.08,0,0,0,.54-.35Z"/>
      <path d="M192.65,195.58,190,202.43h-1.19l-2.63-6.85H188l1.36,3.9,1.4-3.9Z"/>
    </g>
    <path d="M172.63,156.35a19.92,19.92,0,0,0-2.46.17l-.39-2.22a21.4,21.4,0,0,1,5.69,0l-.39,2.22A19.9,19.9,0,0,0,172.63,156.35Z"/>
    <path d="M158.13,162.72l-1.72-1.45a22.06,22.06,0,0,1,4.34-3.66l1.12,1.94A19.94,19.94,0,0,0,158.13,162.72Z"/>
    <path d="M163.6,158.55l-1.13-1.94a21.49,21.49,0,0,1,5.34-2l.39,2.21A20.09,20.09,0,0,0,163.6,158.55Z"/>
    <path d="M154.39,168.49l-2.1-.77a22,22,0,0,1,2.84-4.92l1.72,1.45A19.88,19.88,0,0,0,154.39,168.49Z"/>
    <path d="M177.05,156.86l.39-2.21a21.64,21.64,0,0,1,5.33,1.95l-1.12,2A20.09,20.09,0,0,0,177.05,156.86Z"/>
    <path d="M152.91,175.18h-2.26a22,22,0,0,1,1-5.58l2.11.77A19.6,19.6,0,0,0,152.91,175.18Z"/>
    <path d="M153.77,182l-2.1.77a22.17,22.17,0,0,1-1-5.57h2.24A19.74,19.74,0,0,0,153.77,182Z"/>
    <path d="M156.91,188.06l-1.71,1.44a22.06,22.06,0,0,1-2.84-4.88l2.1-.76A20.05,20.05,0,0,0,156.91,188.06Z"/>
    <path d="M188.4,164.25l1.73-1.45a22.4,22.4,0,0,1,2.83,4.92l-2.1.76A19.81,19.81,0,0,0,188.4,164.25Z"/>
    <path d="M191.53,170.37l2.11-.77a21.88,21.88,0,0,1,1,5.58h-2.26A19.6,19.6,0,0,0,191.53,170.37Z"/>
    <path d="M192.35,177.18h2.24a22,22,0,0,1-1,5.56l-2.1-.76A19.74,19.74,0,0,0,192.35,177.18Z"/>
    <path d="M190.79,183.86l2.1.76a21.68,21.68,0,0,1-2.84,4.88l-1.71-1.44A19.87,19.87,0,0,0,190.79,183.86Z"/>
    <path d="M161.93,192.7l-1.12,1.94A22.13,22.13,0,0,1,156.5,191l1.71-1.43A19.94,19.94,0,0,0,161.93,192.7Z"/>
    <path d="M187,189.58l1.72,1.44a22.5,22.5,0,0,1-4.32,3.62l-1.12-1.94A19.31,19.31,0,0,0,187,189.58Z"/>
    <path d="M183.38,159.55l1.12-1.94a22.41,22.41,0,0,1,4.35,3.66l-1.73,1.45A19.94,19.94,0,0,0,183.38,159.55Z"/>
    <g>
      <path d="M35.49,200.38a2,2,0,0,1-.29,1.09,1.79,1.79,0,0,1-.8.71,2.58,2.58,0,0,1-1.17.25l-.45,0a3.85,3.85,0,0,1-.72-.14,6.1,6.1,0,0,1-.92-.37v-1.66a5.63,5.63,0,0,0,.89.53A2.11,2.11,0,0,0,33,201a.78.78,0,0,0,.6-.17.56.56,0,0,0,.13-.33.59.59,0,0,0-.23-.46,3.86,3.86,0,0,0-.68-.39,4.35,4.35,0,0,1-.85-.51,2.14,2.14,0,0,1-.61-.69,2,2,0,0,1-.23-1,2.19,2.19,0,0,1,.23-1,1.71,1.71,0,0,1,.73-.7,2.37,2.37,0,0,1,1.18-.27,3.8,3.8,0,0,1,.92.11,3.94,3.94,0,0,1,.7.25,3.32,3.32,0,0,1,.38.21v1.59a5.14,5.14,0,0,0-.81-.53,2,2,0,0,0-1-.24A.67.67,0,0,0,33,197a.49.49,0,0,0-.15.36.47.47,0,0,0,.15.35,2.46,2.46,0,0,0,.54.36,12.41,12.41,0,0,1,1.1.65,2.41,2.41,0,0,1,.64.68A1.78,1.78,0,0,1,35.49,200.38Z"/>
      <path d="M40.77,202.34H39.23v-2.75a1.57,1.57,0,0,0-.13-.65.51.51,0,0,0-.51-.3.74.74,0,0,0-.52.22,3.27,3.27,0,0,0-.42.56v2.92H36.1v-6.76h1.55v2.51a2.27,2.27,0,0,1,.76-.64,1.9,1.9,0,0,1,.79-.17c1,0,1.57.67,1.57,2Z"/>
      <path d="M45.89,202.09a4.82,4.82,0,0,1-.63.25,2.31,2.31,0,0,1-.69.09.76.76,0,0,1-.54-.15.83.83,0,0,1-.21-.38,2.26,2.26,0,0,1-.55.38,1.84,1.84,0,0,1-.8.15,1.41,1.41,0,0,1-.78-.19,1,1,0,0,1-.41-.47,1.52,1.52,0,0,1-.12-.59,1.31,1.31,0,0,1,.21-.76,1.54,1.54,0,0,1,.55-.49,5.13,5.13,0,0,1,.91-.39l.48-.18.25-.1a.7.7,0,0,0,.17-.09,1,1,0,0,0-.13-.56c-.08-.14-.27-.21-.55-.21a1.86,1.86,0,0,0-.95.26,3.42,3.42,0,0,0-.79.65V198a3,3,0,0,1,.62-.38,3.55,3.55,0,0,1,.7-.22,3.72,3.72,0,0,1,.74-.08,2.11,2.11,0,0,1,1.43.42,1.44,1.44,0,0,1,.48,1.15v1.92a1.37,1.37,0,0,0,0,.41.16.16,0,0,0,.16.13.83.83,0,0,0,.4-.14Zm-2.16-1V200a4.72,4.72,0,0,0-.8.45.67.67,0,0,0-.25.55.54.54,0,0,0,.12.38.41.41,0,0,0,.3.13.54.54,0,0,0,.31-.1A1.67,1.67,0,0,0,43.73,201.14Z"/>
      <path d="M50.82,199.82a3.85,3.85,0,0,1-.12,1,2.62,2.62,0,0,1-.38.83,1.79,1.79,0,0,1-.66.59,1.88,1.88,0,0,1-.93.22,1.77,1.77,0,0,1-.68-.1,3,3,0,0,1-.49-.27v2.54H46v-7.23h1.55v.45a2.12,2.12,0,0,1,.51-.38,1.62,1.62,0,0,1,.76-.16,1.85,1.85,0,0,1,.94.27,2,2,0,0,1,.76.84A3.19,3.19,0,0,1,50.82,199.82Zm-1.63,0a1.89,1.89,0,0,0-.12-.73.88.88,0,0,0-.32-.4.71.71,0,0,0-.41-.13,1,1,0,0,0-.45.1,1.59,1.59,0,0,0-.33.25v1.9l.17.11a1.18,1.18,0,0,0,.19.11l.19.07a.85.85,0,0,0,.23,0,.73.73,0,0,0,.61-.35A1.66,1.66,0,0,0,49.19,199.86Z"/>
      <path d="M55.76,200.28H52.68a1.28,1.28,0,0,0,.44.75,1.24,1.24,0,0,0,.8.28,3.78,3.78,0,0,0,1.73-.49v1.08a4.19,4.19,0,0,1-.82.37,4,4,0,0,1-1.23.16,2.62,2.62,0,0,1-1.38-.34,2.18,2.18,0,0,1-.85-.93,3.25,3.25,0,0,1,0-2.64,2.13,2.13,0,0,1,.85-.91,2.71,2.71,0,0,1,1.38-.33,2.1,2.1,0,0,1,1,.27,1.93,1.93,0,0,1,.82.85,3.28,3.28,0,0,1,.32,1.53Zm-1.45-.87a1.27,1.27,0,0,0-.21-.76.7.7,0,0,0-.6-.29.75.75,0,0,0-.62.29,1.17,1.17,0,0,0-.24.76Z"/>
    </g>
    <path d="M43.3,156.35a19.9,19.9,0,0,0-2.45.17l-.39-2.22a21.32,21.32,0,0,1,5.68,0l-.38,2.22A20.06,20.06,0,0,0,43.3,156.35Z"/>
    <path d="M28.81,162.72l-1.73-1.45a22.06,22.06,0,0,1,4.34-3.66l1.12,1.94A20.2,20.2,0,0,0,28.81,162.72Z"/>
    <path d="M34.27,158.55l-1.12-1.94a21.49,21.49,0,0,1,5.34-2l.39,2.21A20.34,20.34,0,0,0,34.27,158.55Z"/>
    <path d="M25.07,168.49l-2.1-.77a22.23,22.23,0,0,1,2.83-4.92l1.73,1.45A19.88,19.88,0,0,0,25.07,168.49Z"/>
    <path d="M47.72,156.86l.39-2.21a21.72,21.72,0,0,1,5.34,1.95l-1.12,2A20.17,20.17,0,0,0,47.72,156.86Z"/>
    <path d="M23.59,175.18H21.33a22,22,0,0,1,1-5.58l2.11.77A19.14,19.14,0,0,0,23.59,175.18Z"/>
    <path d="M24.45,182l-2.1.77a21.73,21.73,0,0,1-1-5.57h2.24A19.74,19.74,0,0,0,24.45,182Z"/>
    <path d="M27.59,188.06l-1.72,1.44A22.46,22.46,0,0,1,23,184.62l2.11-.76A19.63,19.63,0,0,0,27.59,188.06Z"/>
    <path d="M59.08,164.25l1.72-1.45a21.63,21.63,0,0,1,2.83,4.92l-2.1.76A19.77,19.77,0,0,0,59.08,164.25Z"/>
    <path d="M62.21,170.37l2.11-.77a21.88,21.88,0,0,1,1,5.58H63A19.6,19.6,0,0,0,62.21,170.37Z"/>
    <path d="M63,177.18h2.24a22,22,0,0,1-1,5.56l-2.1-.76A19.74,19.74,0,0,0,63,177.18Z"/>
    <path d="M61.47,183.86l2.1.76a22.06,22.06,0,0,1-2.84,4.88L59,188.06A20.31,20.31,0,0,0,61.47,183.86Z"/>
    <path d="M32.61,192.7l-1.12,1.94A22.5,22.5,0,0,1,27.17,191l1.71-1.43A20,20,0,0,0,32.61,192.7Z"/>
    <path d="M57.72,189.58,59.43,191a21.91,21.91,0,0,1-4.32,3.62L54,192.7A19.62,19.62,0,0,0,57.72,189.58Z"/>
    <path d="M54.06,159.55l1.12-1.94a22.06,22.06,0,0,1,4.34,3.66l-1.73,1.45A20.2,20.2,0,0,0,54.06,159.55Z"/>
    <g>
      <path d="M164.12,143.39h-1.93l-.47-1.2a4.81,4.81,0,0,0-.46-1,1,1,0,0,0-.4-.39,1.23,1.23,0,0,0-.51-.09h-.2v2.64h-1.8v-6.76h3.06a2,2,0,0,1,1.21.34,1.93,1.93,0,0,1,.68.83,2.31,2.31,0,0,1,.21.92,2,2,0,0,1-.17.87,1.62,1.62,0,0,1-.37.52,3.61,3.61,0,0,1-.43.3,1.72,1.72,0,0,1,.47.46,6.38,6.38,0,0,1,.51,1Zm-2.44-4.63a.73.73,0,0,0-.27-.65,1.62,1.62,0,0,0-.88-.19h-.38v1.64h.39a1.7,1.7,0,0,0,.9-.17A.72.72,0,0,0,161.68,138.76Z"/>
      <path d="M168.87,143.14c-.23.1-.44.19-.63.25a2.31,2.31,0,0,1-.69.09.73.73,0,0,1-.53-.15,1,1,0,0,1-.22-.38,2.08,2.08,0,0,1-.55.38,1.84,1.84,0,0,1-.8.15,1.35,1.35,0,0,1-.77-.19.93.93,0,0,1-.41-.47,1.52,1.52,0,0,1-.12-.59,1.29,1.29,0,0,1,.2-.76,1.63,1.63,0,0,1,.55-.49,5.48,5.48,0,0,1,.91-.39l.49-.18.24-.1.18-.09a1.08,1.08,0,0,0-.13-.56c-.09-.14-.27-.21-.56-.21a1.82,1.82,0,0,0-.94.26,3.26,3.26,0,0,0-.8.65V139a2.85,2.85,0,0,1,.63-.38,3.18,3.18,0,0,1,.7-.22,3.65,3.65,0,0,1,.74-.08,2.09,2.09,0,0,1,1.42.42,1.44,1.44,0,0,1,.48,1.15v1.92a1.37,1.37,0,0,0,.05.41.16.16,0,0,0,.16.13.83.83,0,0,0,.4-.14Zm-2.15-.95V141a4.42,4.42,0,0,0-.81.46.67.67,0,0,0-.25.55.5.5,0,0,0,.13.38.37.37,0,0,0,.29.13.57.57,0,0,0,.32-.1A2,2,0,0,0,166.72,142.19Z"/>
      <path d="M172.45,143.1a3.12,3.12,0,0,1-.66.26,2.94,2.94,0,0,1-.81.12c-1.12,0-1.67-.62-1.67-1.85v-2h-.7v-.3l2.07-2.41h.18v1.49h1.48v1.22h-1.48v1.59a2.64,2.64,0,0,0,0,.45.48.48,0,0,0,.17.29.62.62,0,0,0,.42.11,2,2,0,0,0,1-.35Z"/>
      <path d="M174.41,143.39h-1.55v-5h1.55Zm-.13-6.12a.77.77,0,0,1-.19.53.6.6,0,0,1-.46.21.56.56,0,0,1-.33-.1.58.58,0,0,1-.23-.26.79.79,0,0,1-.09-.38.76.76,0,0,1,.19-.52.59.59,0,0,1,.92,0A.76.76,0,0,1,174.28,137.27Z"/>
      <path d="M180,140.9a3,3,0,0,1-.28,1.33,2.13,2.13,0,0,1-.85.91,2.62,2.62,0,0,1-1.38.34,2.56,2.56,0,0,1-1.37-.34,2.13,2.13,0,0,1-.85-.91,3,3,0,0,1-.28-1.33,3.31,3.31,0,0,1,.15-1,2.56,2.56,0,0,1,.48-.81,2.12,2.12,0,0,1,.79-.55,3,3,0,0,1,1.08-.19,2.92,2.92,0,0,1,1.1.2,2.16,2.16,0,0,1,1.25,1.35A3,3,0,0,1,180,140.9Zm-1.63,0a1.63,1.63,0,0,0-.22-.92.8.8,0,0,0-1.31,0,1.63,1.63,0,0,0-.22.92,1.69,1.69,0,0,0,.22.93.8.8,0,0,0,1.31,0A1.64,1.64,0,0,0,178.32,140.9Z"/>
      <path d="M187.18,140.65h-2.47v2.74h-1.79v-6.76h4.26V138h-2.47v1.31h2.47Z"/>
    </g>
    <path d="M172.63,97.4a19.92,19.92,0,0,0-2.46.17l-.39-2.22a21.4,21.4,0,0,1,5.69,0l-.39,2.22A19.9,19.9,0,0,0,172.63,97.4Z"/>
    <path d="M158.13,103.77l-1.72-1.45a22.06,22.06,0,0,1,4.34-3.66l1.12,1.94A19.94,19.94,0,0,0,158.13,103.77Z"/>
    <path d="M163.6,99.6l-1.13-1.95a21.87,21.87,0,0,1,5.34-2l.39,2.21A20.09,20.09,0,0,0,163.6,99.6Z"/>
    <path d="M154.39,109.54l-2.1-.77a22,22,0,0,1,2.84-4.92l1.72,1.45A19.64,19.64,0,0,0,154.39,109.54Z"/>
    <path d="M177.05,97.91l.39-2.21a21.64,21.64,0,0,1,5.33,2l-1.12,1.95A19.19,19.19,0,0,0,177.05,97.91Z"/>
    <path d="M152.91,116.23h-2.26a22,22,0,0,1,1-5.58l2.11.77A19.6,19.6,0,0,0,152.91,116.23Z"/>
    <path d="M153.77,123l-2.1.76a22,22,0,0,1-1-5.56h2.24A19.74,19.74,0,0,0,153.77,123Z"/>
    <path d="M156.91,129.11l-1.71,1.44a22.06,22.06,0,0,1-2.84-4.88l2.1-.76A20.05,20.05,0,0,0,156.91,129.11Z"/>
    <path d="M188.4,105.3l1.73-1.45a22.4,22.4,0,0,1,2.83,4.92l-2.1.76A19.81,19.81,0,0,0,188.4,105.3Z"/>
    <path d="M191.53,111.42l2.11-.77a21.88,21.88,0,0,1,1,5.58h-2.26A19.6,19.6,0,0,0,191.53,111.42Z"/>
    <path d="M192.35,118.23h2.24a22,22,0,0,1-1,5.56l-2.1-.76A19.74,19.74,0,0,0,192.35,118.23Z"/>
    <path d="M190.79,124.91l2.1.76a21.68,21.68,0,0,1-2.84,4.88l-1.71-1.44A19.87,19.87,0,0,0,190.79,124.91Z"/>
    <path d="M161.93,133.75l-1.12,1.94a22.13,22.13,0,0,1-4.31-3.62l1.71-1.43A19.94,19.94,0,0,0,161.93,133.75Z"/>
    <path d="M187,130.63l1.72,1.44a22.5,22.5,0,0,1-4.32,3.62l-1.12-1.94A19.31,19.31,0,0,0,187,130.63Z"/>
    <path d="M183.38,100.6l1.12-1.94a22.41,22.41,0,0,1,4.35,3.66l-1.73,1.45A19.94,19.94,0,0,0,183.38,100.6Z"/>
    <g>
      <path d="M34.59,143.39H32.66l-.47-1.2a5.45,5.45,0,0,0-.46-1,1,1,0,0,0-.41-.39,1.18,1.18,0,0,0-.5-.09h-.2v2.64h-1.8v-6.76h3.06a1.94,1.94,0,0,1,1.89,1.17,2.31,2.31,0,0,1,.21.93,1.86,1.86,0,0,1-.18.86,1.61,1.61,0,0,1-.36.52,3.76,3.76,0,0,1-.44.3,1.91,1.91,0,0,1,.48.46,6.38,6.38,0,0,1,.51,1Zm-2.44-4.63a.73.73,0,0,0-.27-.65,1.64,1.64,0,0,0-.88-.19h-.38v1.64H31a1.7,1.7,0,0,0,.9-.17A.69.69,0,0,0,32.15,138.76Z"/>
      <path d="M39.34,143.14a4.82,4.82,0,0,1-.63.25,2.31,2.31,0,0,1-.69.09.76.76,0,0,1-.54-.15.89.89,0,0,1-.21-.38,2.26,2.26,0,0,1-.55.38,1.84,1.84,0,0,1-.8.15,1.41,1.41,0,0,1-.78-.19,1,1,0,0,1-.41-.47,1.52,1.52,0,0,1-.12-.59,1.31,1.31,0,0,1,.21-.76,1.54,1.54,0,0,1,.55-.49,5.48,5.48,0,0,1,.91-.39l.48-.18.25-.1a.7.7,0,0,0,.17-.09,1,1,0,0,0-.13-.56c-.08-.14-.27-.21-.55-.21a1.8,1.8,0,0,0-.94.26,3.26,3.26,0,0,0-.8.65V139a3,3,0,0,1,.62-.38,3.55,3.55,0,0,1,.7-.22,3.72,3.72,0,0,1,.74-.08,2.11,2.11,0,0,1,1.43.42,1.44,1.44,0,0,1,.48,1.15v1.92a1.37,1.37,0,0,0,.05.41.16.16,0,0,0,.16.13.83.83,0,0,0,.4-.14Zm-2.16-.95V141a4.11,4.11,0,0,0-.8.45.67.67,0,0,0-.25.55.54.54,0,0,0,.12.38.41.41,0,0,0,.3.13.54.54,0,0,0,.31-.1A1.67,1.67,0,0,0,37.18,142.19Z"/>
      <path d="M42.92,143.11a3.86,3.86,0,0,1-.66.25,3.06,3.06,0,0,1-.81.12c-1.12,0-1.68-.62-1.68-1.85v-2h-.7v-.3l2.08-2.41h.18v1.49H42.8v1.22H41.33v1.6a2.59,2.59,0,0,0,0,.44.44.44,0,0,0,.17.29.62.62,0,0,0,.42.11,2,2,0,0,0,1-.35Z"/>
      <path d="M44.88,143.39H43.32v-5h1.56Zm-.13-6.11a.76.76,0,0,1-.19.52.6.6,0,0,1-.46.21.56.56,0,0,1-.33-.1.58.58,0,0,1-.23-.26.78.78,0,0,1-.09-.37.77.77,0,0,1,.19-.53.6.6,0,0,1,.46-.22.61.61,0,0,1,.46.22A.77.77,0,0,1,44.75,137.28Z"/>
      <path d="M50.42,140.9a3.13,3.13,0,0,1-.28,1.33,2.19,2.19,0,0,1-.85.91,3,3,0,0,1-2.76,0,2.11,2.11,0,0,1-.84-.91,3,3,0,0,1-.29-1.33,3.3,3.3,0,0,1,.16-1,2.38,2.38,0,0,1,.48-.81,1.92,1.92,0,0,1,.79-.54,2.77,2.77,0,0,1,1.08-.2,2.83,2.83,0,0,1,1.09.2,2.14,2.14,0,0,1,.79.54,2.33,2.33,0,0,1,.47.81A3,3,0,0,1,50.42,140.9Zm-1.63,0a1.55,1.55,0,0,0-.23-.92.72.72,0,0,0-.65-.34.73.73,0,0,0-.65.34,1.62,1.62,0,0,0-.23.92,1.68,1.68,0,0,0,.23.93.73.73,0,0,0,.65.34.72.72,0,0,0,.65-.34A1.56,1.56,0,0,0,48.79,140.9Z"/>
      <path d="M58.72,142.89a4.71,4.71,0,0,1-.76.35,4.43,4.43,0,0,1-.78.19,7,7,0,0,1-.81,0,3.84,3.84,0,0,1-1.4-.24,3.16,3.16,0,0,1-1.07-.72,3.12,3.12,0,0,1-.68-1.12A4.15,4.15,0,0,1,53,140a4.23,4.23,0,0,1,.26-1.53,3,3,0,0,1,.75-1.09,3.08,3.08,0,0,1,1.09-.64,4,4,0,0,1,1.29-.21,6.16,6.16,0,0,1,2.3.52v1.79a6.23,6.23,0,0,0-.87-.52,2.32,2.32,0,0,0-1-.2,2,2,0,0,0-1,.23,2,2,0,0,0-.73.67,1.88,1.88,0,0,0-.27,1,1.85,1.85,0,0,0,.24.94,1.69,1.69,0,0,0,.67.68,1.81,1.81,0,0,0,1,.25,2.71,2.71,0,0,0,.82-.12,3.13,3.13,0,0,0,.65-.26,5,5,0,0,0,.55-.35Z"/>
    </g>
    <path d="M43.62,97.4a19.9,19.9,0,0,0-2.45.17l-.39-2.22a21.4,21.4,0,0,1,5.69,0l-.39,2.22A19.92,19.92,0,0,0,43.62,97.4Z"/>
    <path d="M29.13,103.77l-1.72-1.45a22.06,22.06,0,0,1,4.34-3.66l1.12,1.94A19.94,19.94,0,0,0,29.13,103.77Z"/>
    <path d="M34.6,99.6l-1.13-1.94a21.49,21.49,0,0,1,5.34-2l.39,2.21A20.09,20.09,0,0,0,34.6,99.6Z"/>
    <path d="M25.39,109.54l-2.1-.77a22.4,22.4,0,0,1,2.83-4.92l1.73,1.45A19.64,19.64,0,0,0,25.39,109.54Z"/>
    <path d="M48.05,97.91l.39-2.21a21.64,21.64,0,0,1,5.33,2L52.65,99.6A19.19,19.19,0,0,0,48.05,97.91Z"/>
    <path d="M23.91,116.23H21.65a22,22,0,0,1,1-5.58l2.11.77A19.6,19.6,0,0,0,23.91,116.23Z"/>
    <path d="M24.77,123l-2.1.76a22,22,0,0,1-1-5.56H23.9A19.74,19.74,0,0,0,24.77,123Z"/>
    <path d="M27.91,129.11l-1.71,1.44a22.06,22.06,0,0,1-2.84-4.88l2.1-.76A20.05,20.05,0,0,0,27.91,129.11Z"/>
    <path d="M59.4,105.3l1.73-1.45A22.4,22.4,0,0,1,64,108.77l-2.1.76A19.81,19.81,0,0,0,59.4,105.3Z"/>
    <path d="M62.53,111.42l2.11-.77a21.88,21.88,0,0,1,1,5.58H63.34A19.6,19.6,0,0,0,62.53,111.42Z"/>
    <path d="M63.35,118.23h2.24a22,22,0,0,1-1,5.56l-2.1-.76A19.74,19.74,0,0,0,63.35,118.23Z"/>
    <path d="M61.79,124.91l2.1.76a21.68,21.68,0,0,1-2.84,4.88l-1.71-1.44A19.87,19.87,0,0,0,61.79,124.91Z"/>
    <path d="M32.93,133.75l-1.12,1.94a22.13,22.13,0,0,1-4.31-3.62l1.71-1.43A19.94,19.94,0,0,0,32.93,133.75Z"/>
    <path d="M58,130.63l1.72,1.44a22.5,22.5,0,0,1-4.32,3.62l-1.12-1.94A19.31,19.31,0,0,0,58,130.63Z"/>
    <path d="M54.38,100.6l1.12-1.94a22.41,22.41,0,0,1,4.35,3.66l-1.73,1.45A19.94,19.94,0,0,0,54.38,100.6Z"/>
    <g>
      <path d="M155.92,84.44h-1.79V77.68h1.79Z"/>
      <path d="M161.49,84.44H160V81.76a1.92,1.92,0,0,0-.12-.71.49.49,0,0,0-.52-.31.67.67,0,0,0-.33.08,1.33,1.33,0,0,0-.26.21,1.8,1.8,0,0,0-.19.24c-.05.08-.11.16-.16.25v2.92h-1.55v-5h1.55v.71a2.37,2.37,0,0,1,.73-.62,1.86,1.86,0,0,1,.82-.18c1.05,0,1.57.72,1.57,2.14Z"/>
      <path d="M166.7,84.44h-1.55V84a2.62,2.62,0,0,1-.52.39,1.6,1.6,0,0,1-.76.15,1.81,1.81,0,0,1-.93-.27,2,2,0,0,1-.76-.84,3,3,0,0,1-.3-1.43,3.58,3.58,0,0,1,.23-1.27,2.07,2.07,0,0,1,.7-1,1.85,1.85,0,0,1,1.17-.38,1.77,1.77,0,0,1,1.17.38V77.68h1.55Zm-1.55-1.58V81l-.43-.24a.8.8,0,0,0-.36-.08.71.71,0,0,0-.6.36,1.58,1.58,0,0,0-.25,1,1.47,1.47,0,0,0,.26,1,.76.76,0,0,0,.59.3.83.83,0,0,0,.45-.1A1.56,1.56,0,0,0,165.15,82.86Z"/>
      <path d="M171.81,82.38h-3.08a1.26,1.26,0,0,0,.44.74,1.2,1.2,0,0,0,.8.29,3.68,3.68,0,0,0,1.73-.5V84a4.19,4.19,0,0,1-.82.37,4,4,0,0,1-1.24.16,2.6,2.6,0,0,1-1.37-.34,2.18,2.18,0,0,1-.85-.93,3,3,0,0,1-.28-1.33,2.93,2.93,0,0,1,.28-1.31,2.13,2.13,0,0,1,.85-.91,2.7,2.7,0,0,1,1.37-.33,2.11,2.11,0,0,1,1,.27,1.93,1.93,0,0,1,.82.85,3.28,3.28,0,0,1,.32,1.53Zm-1.45-.87a1.25,1.25,0,0,0-.21-.76.7.7,0,0,0-.6-.29.79.79,0,0,0-.63.29,1.23,1.23,0,0,0-.23.76Z"/>
      <path d="M177.09,84.44h-1.91L174.34,83l-.84,1.41h-1.7L173.5,82l-1.73-2.53h1.9l.81,1.35.82-1.35H177l-1.66,2.36Z"/>
      <path d="M185.13,83.93a4,4,0,0,1-.76.36,4.39,4.39,0,0,1-.78.18,5.32,5.32,0,0,1-.81.06,3.84,3.84,0,0,1-1.4-.24,3.16,3.16,0,0,1-1.07-.72,3.12,3.12,0,0,1-.68-1.12,4.15,4.15,0,0,1-.22-1.4,4.23,4.23,0,0,1,.26-1.53,3,3,0,0,1,.75-1.09,3.08,3.08,0,0,1,1.09-.64,4,4,0,0,1,1.29-.21,6.12,6.12,0,0,1,2.3.52v1.79a5.71,5.71,0,0,0-.87-.52,2.32,2.32,0,0,0-1-.21,2,2,0,0,0-1,.24,2,2,0,0,0-.73.67,1.88,1.88,0,0,0-.27,1,1.85,1.85,0,0,0,.24.94,1.75,1.75,0,0,0,.67.68,1.81,1.81,0,0,0,1,.25,2.71,2.71,0,0,0,.82-.12,3.13,3.13,0,0,0,.65-.26c.18-.1.36-.22.55-.35Z"/>
      <path d="M191.81,77.68l-2.69,6.85h-1.18l-2.64-6.85h1.87l1.37,3.9,1.4-3.9Z"/>
    </g>
    <path d="M172.63,38.45a18.15,18.15,0,0,0-2.46.17l-.39-2.22a21.4,21.4,0,0,1,5.69,0l-.39,2.21A19.9,19.9,0,0,0,172.63,38.45Z"/>
    <path d="M158.13,44.82l-1.72-1.45a22.06,22.06,0,0,1,4.34-3.66l1.12,1.94A19.94,19.94,0,0,0,158.13,44.82Z"/>
    <path d="M163.6,40.65l-1.13-1.95a21.87,21.87,0,0,1,5.34-2L168.2,39A19.63,19.63,0,0,0,163.6,40.65Z"/>
    <path d="M154.39,50.58l-2.1-.76a22,22,0,0,1,2.84-4.92l1.72,1.45A19.81,19.81,0,0,0,154.39,50.58Z"/>
    <path d="M177.05,39l.39-2.21a21.64,21.64,0,0,1,5.33,2l-1.12,1.95A19.19,19.19,0,0,0,177.05,39Z"/>
    <path d="M152.91,57.28h-2.26a22,22,0,0,1,1-5.58l2.11.77A19.6,19.6,0,0,0,152.91,57.28Z"/>
    <path d="M153.77,64.08l-2.1.76a22,22,0,0,1-1-5.56h2.24A19.83,19.83,0,0,0,153.77,64.08Z"/>
    <path d="M156.91,70.16,155.2,71.6a22.06,22.06,0,0,1-2.84-4.88l2.1-.76A20.31,20.31,0,0,0,156.91,70.16Z"/>
    <path d="M188.4,46.35l1.73-1.45A22.4,22.4,0,0,1,193,49.82l-2.1.76A19.81,19.81,0,0,0,188.4,46.35Z"/>
    <path d="M191.53,52.46l2.11-.76a21.88,21.88,0,0,1,1,5.58h-2.26A19.76,19.76,0,0,0,191.53,52.46Z"/>
    <path d="M192.35,59.28h2.24a22,22,0,0,1-1,5.56l-2.1-.76A19.83,19.83,0,0,0,192.35,59.28Z"/>
    <path d="M190.79,66l2.1.76a21.68,21.68,0,0,1-2.84,4.88l-1.71-1.44A19.87,19.87,0,0,0,190.79,66Z"/>
    <path d="M161.93,74.8l-1.12,1.94a22.13,22.13,0,0,1-4.31-3.62l1.71-1.43A19.94,19.94,0,0,0,161.93,74.8Z"/>
    <path d="M187,71.68l1.72,1.44a22.5,22.5,0,0,1-4.32,3.62l-1.12-1.94A19.31,19.31,0,0,0,187,71.68Z"/>
    <path d="M183.38,41.65l1.12-1.94a22.41,22.41,0,0,1,4.35,3.66l-1.73,1.45A19.94,19.94,0,0,0,183.38,41.65Z"/>
    <g>
      <path d="M43.38,84.44H41.59V80.52L40,82.79h-.15L38.2,80.52v3.92H36.46V77.68h1.62l1.83,2.53,1.84-2.53h1.63Z"/>
      <path d="M45.91,84.44H44.36v-5h1.55Zm-.13-6.12a.77.77,0,0,1-.19.53.6.6,0,0,1-.46.21.56.56,0,0,1-.33-.1.65.65,0,0,1-.23-.26.79.79,0,0,1-.09-.38.81.81,0,0,1,.19-.52.59.59,0,0,1,.92,0A.76.76,0,0,1,45.78,78.32Z"/>
      <path d="M51.5,84.44H49.59L48.74,83l-.84,1.41H46.21L47.9,82l-1.73-2.53h1.9l.81,1.35.82-1.35h1.69l-1.65,2.36Z"/>
    </g>
    <g>
      <path d="M43.62,38.45a18.11,18.11,0,0,0-2.45.17l-.39-2.22a21.4,21.4,0,0,1,5.69,0l-.39,2.21A19.93,19.93,0,0,0,43.62,38.45Z"/>
      <path d="M29.13,44.82l-1.72-1.45a22.06,22.06,0,0,1,4.34-3.66l1.12,1.94A19.94,19.94,0,0,0,29.13,44.82Z"/>
      <path d="M34.6,40.65,33.47,38.7a21.87,21.87,0,0,1,5.34-2L39.2,39A19.63,19.63,0,0,0,34.6,40.65Z"/>
      <path d="M25.39,50.58l-2.1-.76a22.4,22.4,0,0,1,2.83-4.92l1.73,1.45A19.81,19.81,0,0,0,25.39,50.58Z"/>
      <path d="M48.05,39l.39-2.21a21.64,21.64,0,0,1,5.33,2l-1.12,1.95A19.19,19.19,0,0,0,48.05,39Z"/>
      <path d="M23.91,57.28H21.65a22,22,0,0,1,1-5.58l2.11.77A19.6,19.6,0,0,0,23.91,57.28Z"/>
      <path d="M24.77,64.08l-2.1.76a22,22,0,0,1-1-5.56H23.9A19.83,19.83,0,0,0,24.77,64.08Z"/>
      <path d="M27.91,70.16,26.2,71.6a22.06,22.06,0,0,1-2.84-4.88l2.1-.76A20.31,20.31,0,0,0,27.91,70.16Z"/>
      <path d="M59.4,46.35l1.73-1.45A22.4,22.4,0,0,1,64,49.82l-2.1.76A19.81,19.81,0,0,0,59.4,46.35Z"/>
      <path d="M62.53,52.46l2.11-.76a21.88,21.88,0,0,1,1,5.58H63.34A19.76,19.76,0,0,0,62.53,52.46Z"/>
      <path d="M63.35,59.28h2.24a22,22,0,0,1-1,5.56l-2.1-.76A19.83,19.83,0,0,0,63.35,59.28Z"/>
      <path d="M61.79,66l2.1.76a21.68,21.68,0,0,1-2.84,4.88l-1.71-1.44A19.87,19.87,0,0,0,61.79,66Z"/>
      <path d="M32.93,74.8l-1.12,1.94a22.13,22.13,0,0,1-4.31-3.62l1.71-1.43A19.94,19.94,0,0,0,32.93,74.8Z"/>
      <path d="M58,71.68l1.72,1.44a22.5,22.5,0,0,1-4.32,3.62L54.32,74.8A19.31,19.31,0,0,0,58,71.68Z"/>
      <path d="M54.38,41.65l1.12-1.94a22.41,22.41,0,0,1,4.35,3.66l-1.73,1.45A19.94,19.94,0,0,0,54.38,41.65Z"/>
    </g>
    <g>
      <path d="M113.74,8.07l-5.53,7v-6a1.29,1.29,0,0,0-.64-1.17.89.89,0,0,0-1.13.29l-7.28,9.25a1.49,1.49,0,0,0,0,1.79.91.91,0,0,0,1.46,0l5.5-7v6a1.29,1.29,0,0,0,.64,1.17.91.91,0,0,0,1.14-.3l5.53-7v6.16a1.05,1.05,0,1,0,2.06,0V9a1.29,1.29,0,0,0-.65-1.18A.91.91,0,0,0,113.74,8.07Z" style="stroke: #000;stroke-width: 0.6000000000000001px"/>
      <path d="M99.16,8l-4.81,6.12a1.47,1.47,0,0,0,0,1.79.9.9,0,0,0,1.46,0l3-3.87v6.31a1.05,1.05,0,1,0,2.06,0V8.87a1.29,1.29,0,0,0-.65-1.17A.91.91,0,0,0,99.16,8Z" style="stroke: #000;stroke-width: 0.6000000000000001px"/>
      <path d="M122.11,12.52a1,1,0,0,0-1-.78h-2.1l1.53-2s.8-1.17.1-1.82a1.27,1.27,0,0,0-1.58.06l-3.23,4.1a1.47,1.47,0,0,0-.2,1.38,1.05,1.05,0,0,0,.95.77h2.1l-2.49,3.17s-1,1.13-.27,1.89,1.75-.14,1.75-.14l4.18-5.31A1.48,1.48,0,0,0,122.11,12.52Z" style="stroke: #000;stroke-width: 0.6000000000000001px"/>
    </g>
  </g>
  <g id="components">
    <circle id="Out" cx="179.96" cy="311.23" r="11.34" style="fill: blue"/>
    <circle id="Ratio_F_CV" data-name="Ratio F CV" cx="131.96" cy="311.23" r="11.34" style="fill: lime"/>
    <circle id="Ratio_C_CV" data-name="Ratio C CV" cx="83.96" cy="311.23" r="11.34" style="fill: lime"/>
    <circle id="Shape_CV_Jack" data-name="Shape CV Jack" cx="35.96" cy="311.23" r="11.34" style="fill: lime"/>
    <circle id="Index_CV" data-name="Index CV" cx="179.96" cy="263.64" r="11.34" style="fill: lime"/>
    <circle id="Mix_CV" data-name="Mix CV" cx="131.96" cy="263.64" r="11.34" style="fill: lime"/>
    <circle id="V_Oct_S" data-name="V/Oct S" cx="83.96" cy="263.64" r="11.34" style="fill: lime"/>
    <circle id="V_Oct_P" data-name="V/Oct P" cx="35.96" cy="263.64" r="11.34" style="fill: lime"/>
    <circle id="Shape_CV" data-name="Shape CV" cx="172.52" cy="175.98" r="17.01" style="fill: #ff0080"/>
    <circle id="Shape" cx="43.3" cy="176.03" r="17.01" style="fill: #ff0040"/>
    <circle id="Ratio_F" data-name="Ratio F" cx="172.62" cy="116.86" r="17.01" style="fill: #ff0040"/>
    <circle id="Pitch" cx="108.13" cy="128.41" r="25.51" style="fill: #ff0070"/>
    <circle id="Ratio_C" data-name="Ratio C" cx="43.62" cy="116.86" r="17.01" style="fill: #ff0040"/>
    <circle id="Index_CV-2" data-name="Index CV" cx="172.62" cy="57.91" r="17.01" style="fill: #ff0080"/>
    <circle id="Index" cx="108.12" cy="57.91" r="17.01" style="fill: #ff0040"/>
    <circle id="Mix" cx="43.62" cy="57.91" r="17.01" style="fill: #ff0040"/>
    <text id="slug" transform="translate(181.68 370.15)" style="font-size: 3px;font-family: MyriadPro-Regular, Myriad Pro"><tspan style="letter-spacing: -0.017903645833333332em">F</tspan><tspan x="1.41" y="0">M</tspan></text>
    <text id="modulename" transform="translate(195 370.15)" style="font-size: 3px;font-family: MyriadPro-Regular, Myriad Pro"><tspan style="letter-spacing: -0.017903645833333332em">F</tspan><tspan x="1.41" y="0">M Oscill</tspan><tspan x="11.17" y="0" style="letter-spacing: -0.004231770833333333em">at</tspan><tspan x="13.58" y="0" style="letter-spacing: -0.0003255208333333333em">or</tspan></text>
  </g>
</svg>
