<svg xmlns="http://www.w3.org/2000/svg" width="61.05mm" height="130.55mm" viewBox="0 0 173.05 370.06">
  <g id="faceplate">
    <rect x="0.13" y="0.13" width="172.8" height="364.25" style="fill: #ededed;stroke: #9d9d9e;stroke-miterlimit: 10;stroke-width: 0.25px"/>
    <path d="M154.89,12.87a4.54,4.54,0,1,0,0-9.07h-8.44a4.54,4.54,0,0,0,0,9.07Z" transform="translate(0.51 0)"/>
    <path d="M154.89,360.12a4.54,4.54,0,1,0,0-9.07h-8.44a4.54,4.54,0,0,0,0,9.07Z" transform="translate(0.51 0)"/>
    <path d="M25.58,12.87a4.54,4.54,0,1,0,0-9.07H17.15a4.54,4.54,0,1,0,0,9.07Z" transform="translate(0.51 0)"/>
    <path d="M25.58,360.12a4.54,4.54,0,1,0,0-9.07H17.15a4.54,4.54,0,1,0,0,9.07Z" transform="translate(0.51 0)"/>
    <path d="M40.42,318.51V274l-.13.14c-2.86,5.68-8.54,8.49-15.09,8.49S12.94,280,10.09,274.25l-.11-.14v44.4A15,15,0,0,0,25.2,333.76,15,15,0,0,0,40.42,318.51Z" transform="translate(0.51 0)"/>
    <rect x="6.68" y="190.94" width="1.6" height="0.63" style="fill: #fff"/>
    <g>
      <path d="M30.94,298.48v-2.79c0-.08,0-.16,0-.23-.14-2.63-2.65-4.73-5.72-4.73s-5.63,2.14-5.72,4.81v3.14" transform="translate(0.51 0)" style="fill: none;stroke: #fff"/>
      <rect x="19.49" y="296.21" width="3.06" height="5.02" rx="0.72" style="fill: #fff"/>
      <rect x="28.89" y="296.21" width="3.06" height="5.02" rx="0.72" style="fill: #fff"/>
      <polygon points="32.37 297.45 32.37 299.91 33.17 299.49 33.17 297.87 32.37 297.45" style="fill: #fff"/>
      <polygon points="19.03 297.45 19.03 299.91 18.25 299.55 18.25 297.88 19.03 297.45" style="fill: #fff"/>
    </g>
    <path d="M25.2,249a16.09,16.09,0,1,0,16.09,16.08A16.08,16.08,0,0,0,25.2,249Z" transform="translate(0.51 0)"/>
    <path d="M82.46,242.47a19.9,19.9,0,0,0-2.45.17l-.39-2.22a21.32,21.32,0,0,1,5.68,0l-.38,2.22A20.06,20.06,0,0,0,82.46,242.47Z" transform="translate(0.51 0)"/>
    <path d="M68,248.84l-1.73-1.45a22.06,22.06,0,0,1,4.34-3.66l1.12,1.94A20.2,20.2,0,0,0,68,248.84Z" transform="translate(0.51 0)"/>
    <path d="M73.43,244.67l-1.12-1.94a21.49,21.49,0,0,1,5.34-2L78,243A20.34,20.34,0,0,0,73.43,244.67Z" transform="translate(0.51 0)"/>
    <path d="M64.23,254.61l-2.1-.77A22,22,0,0,1,65,248.92l1.73,1.45A19.88,19.88,0,0,0,64.23,254.61Z" transform="translate(0.51 0)"/>
    <path d="M86.88,243l.39-2.21a21.72,21.72,0,0,1,5.34,1.95l-1.12,1.95A19.71,19.71,0,0,0,86.88,243Z" transform="translate(0.51 0)"/>
    <path d="M62.75,261.3H60.49a22,22,0,0,1,1-5.58l2.11.77A19.14,19.14,0,0,0,62.75,261.3Z" transform="translate(0.51 0)"/>
    <path d="M63.61,268.1l-2.1.76a22,22,0,0,1-1-5.56h2.24A19.74,19.74,0,0,0,63.61,268.1Z" transform="translate(0.51 0)"/>
    <path d="M66.75,274.18,65,275.62a22.46,22.46,0,0,1-2.84-4.88L64.3,270A19.63,19.63,0,0,0,66.75,274.18Z" transform="translate(0.51 0)"/>
    <path d="M98.24,250.37l1.72-1.45a21.63,21.63,0,0,1,2.83,4.92l-2.1.76A19.77,19.77,0,0,0,98.24,250.37Z" transform="translate(0.51 0)"/>
    <path d="M101.37,256.49l2.11-.77a21.88,21.88,0,0,1,1,5.58h-2.26A19.6,19.6,0,0,0,101.37,256.49Z" transform="translate(0.51 0)"/>
    <path d="M102.19,263.3h2.24a22,22,0,0,1-1,5.56l-2.1-.76A19.74,19.74,0,0,0,102.19,263.3Z" transform="translate(0.51 0)"/>
    <path d="M100.63,270l2.1.76a22.06,22.06,0,0,1-2.84,4.88l-1.71-1.44A20.31,20.31,0,0,0,100.63,270Z" transform="translate(0.51 0)"/>
    <path d="M71.77,278.82l-1.12,1.94a22.5,22.5,0,0,1-4.32-3.62L68,275.71A20,20,0,0,0,71.77,278.82Z" transform="translate(0.51 0)"/>
    <path d="M96.88,275.7l1.72,1.44a22.26,22.26,0,0,1-4.33,3.62l-1.11-1.94A19.62,19.62,0,0,0,96.88,275.7Z" transform="translate(0.51 0)"/>
    <path d="M93.22,245.67l1.12-1.94a22.06,22.06,0,0,1,4.34,3.66L97,248.84A19.87,19.87,0,0,0,93.22,245.67Z" transform="translate(0.51 0)"/>
    <path d="M89.42,292.19h53.4l3,0a22.86,22.86,0,1,1,0,45.71h-3l-34.6,0H90.65A22.84,22.84,0,0,1,87,292.46Z" transform="translate(0.51 0)" style="fill: none;stroke: #000;stroke-linecap: round"/>
    <g>
      <path d="M86.08,8.73,80,16.51V9.84a1.44,1.44,0,0,0-.71-1.3A1,1,0,0,0,78,8.87L69.93,19.11a1.64,1.64,0,0,0,0,2,1,1,0,0,0,1.61,0l6.09-7.74V20a1.43,1.43,0,0,0,.71,1.3A1,1,0,0,0,79.64,21l6.12-7.78V20a1.17,1.17,0,1,0,2.29,0V9.7a1.45,1.45,0,0,0-.72-1.3A1,1,0,0,0,86.08,8.73Z" transform="translate(0.51 0)" style="stroke: #000;stroke-width: 0.672772526741028px"/>
      <path d="M69.93,8.65,64.6,15.43a1.65,1.65,0,0,0,0,2,1,1,0,0,0,1.62,0l3.37-4.29v7a1.16,1.16,0,1,0,2.28,0V9.62a1.44,1.44,0,0,0-.71-1.3A1,1,0,0,0,69.93,8.65Z" transform="translate(0.51 0)" style="stroke: #000;stroke-width: 0.672772526741028px"/>
      <path d="M95.34,13.65a1.17,1.17,0,0,0-1-.85H92l1.71-2.16s.88-1.3.1-2S92,8.69,92,8.69l-3.57,4.54a1.63,1.63,0,0,0-.23,1.52,1.16,1.16,0,0,0,1,.85H91.6l-2.76,3.52s-1.14,1.24-.3,2.09,1.95-.15,1.95-.15l4.62-5.89A1.58,1.58,0,0,0,95.34,13.65Z" transform="translate(0.51 0)" style="stroke: #000;stroke-width: 0.672772526741028px"/>
    </g>
    <path d="M29.38,70.65a5.84,5.84,0,1,0,0-11.67h-9a5.84,5.84,0,1,0,0,11.67Z" transform="translate(0.51 0)"/>
    <path d="M25.8,67.94H24.33V61.85H25.8Z" transform="translate(0.51 0)" style="fill: #fff"/>
    <path d="M29.38,128.55a5.84,5.84,0,0,0,0-11.68h-9a5.84,5.84,0,1,0,0,11.68Z" transform="translate(0.51 0)"/>
    <path d="M27,125.74H22.88v-.12c.16-.17.33-.38.52-.62l.73-1c.14-.18.26-.36.38-.53a4,4,0,0,0,.31-.5,2.9,2.9,0,0,0,.22-.54,2.08,2.08,0,0,0,.09-.6,1,1,0,0,0-.22-.69.67.67,0,0,0-.54-.26,1.77,1.77,0,0,0-1.31.78v-1.44l.37-.27a3.4,3.4,0,0,1,.34-.2,2.24,2.24,0,0,1,.46-.16,2,2,0,0,1,.56-.07,1.82,1.82,0,0,1,.9.22,1.55,1.55,0,0,1,.63.66,2.11,2.11,0,0,1,.23,1,2.57,2.57,0,0,1-.1.75,3.42,3.42,0,0,1-.22.57c-.07.14-.17.32-.3.53a11.67,11.67,0,0,1-.71,1.07H27Z" transform="translate(0.51 0)" style="fill: #fff"/>
    <path d="M29.38,186.45a5.84,5.84,0,1,0,0-11.68h-9a5.84,5.84,0,0,0,0,11.68Z" transform="translate(0.51 0)"/>
    <path d="M26.81,181.91a1.88,1.88,0,0,1-.16.82,1.72,1.72,0,0,1-.44.55,2,2,0,0,1-.58.31,2.06,2.06,0,0,1-.59.09,3.43,3.43,0,0,1-.9-.13,3.81,3.81,0,0,1-.82-.31v-1.37a2.64,2.64,0,0,0,.58.43,1.3,1.3,0,0,0,.65.18.79.79,0,0,0,.42-.11.75.75,0,0,0,.26-.27.67.67,0,0,0,.09-.34.81.81,0,0,0-.11-.41.82.82,0,0,0-.32-.29,1,1,0,0,0-.47-.1h-.18v-1h.21a.79.79,0,0,0,.45-.11.76.76,0,0,0,.25-.29.75.75,0,0,0,.08-.31.77.77,0,0,0-.19-.49.64.64,0,0,0-.49-.21,1.63,1.63,0,0,0-.55.11,2.43,2.43,0,0,0-.54.31v-1.17a5.46,5.46,0,0,1,.71-.28,2.59,2.59,0,0,1,.76-.1,1.87,1.87,0,0,1,1,.26,1.76,1.76,0,0,1,.6.65,1.7,1.7,0,0,1,.18.72,1.47,1.47,0,0,1-.1.54,2.12,2.12,0,0,1-.27.49,1.45,1.45,0,0,1-.35.32,2.07,2.07,0,0,1,.57.54A1.66,1.66,0,0,1,26.81,181.91Z" transform="translate(0.51 0)" style="fill: #fff"/>
    <path d="M29.38,244.34a5.84,5.84,0,1,0,0-11.67h-9a5.84,5.84,0,1,0,0,11.67Z" transform="translate(0.51 0)"/>
    <path d="M27,239.84h-.64v1.32H24.93v-1.32H22.75v-1.16l2.46-3.61h1.14v3.73H27Zm-2.06-1v-2l-1.33,2Z" transform="translate(0.51 0)" style="fill: #fff"/>
    <g>
      <path d="M73.5,350.85H68.81v-7.44h1.86v5.66H73.5Z" transform="translate(0.51 0)"/>
      <path d="M76.46,350.85H74.59v-7.44h1.87Z" transform="translate(0.51 0)"/>
      <path d="M82.34,348.69a2.36,2.36,0,0,1-.3,1.21,2,2,0,0,1-.83.78A2.64,2.64,0,0,1,80,351l-.46,0a4.45,4.45,0,0,1-.75-.16,6.16,6.16,0,0,1-1-.4v-1.83a6.92,6.92,0,0,0,.92.58,2.07,2.07,0,0,0,1,.23c.32,0,.53-.06.62-.19a.54.54,0,0,0,.14-.35.64.64,0,0,0-.24-.51,3.18,3.18,0,0,0-.7-.43,5.43,5.43,0,0,1-.89-.56,2.46,2.46,0,0,1-.63-.76,2.27,2.27,0,0,1-.24-1.08,2.33,2.33,0,0,1,.25-1.09,1.83,1.83,0,0,1,.74-.77,2.38,2.38,0,0,1,1.23-.29,3.6,3.6,0,0,1,1,.12,3.76,3.76,0,0,1,.73.27,3.65,3.65,0,0,1,.39.23v1.75a5.33,5.33,0,0,0-.85-.59,2,2,0,0,0-1-.25.68.68,0,0,0-.51.16.57.57,0,0,0-.15.4.55.55,0,0,0,.15.38,3.56,3.56,0,0,0,.56.39,10.68,10.68,0,0,1,1.14.72,2.49,2.49,0,0,1,.67.75A2.09,2.09,0,0,1,82.34,348.69Z" transform="translate(0.51 0)"/>
      <path d="M89.53,345.22H87.26v5.63H85.4v-5.63H83.14v-1.81h6.39Z" transform="translate(0.51 0)"/>
      <path d="M95.27,350.85H90.61v-7.44H95.2v1.49H92.48v1.37h2.59v1.49H92.48v1.59h2.79Z" transform="translate(0.51 0)"/>
      <path d="M103.23,350.85h-1.66l-3.2-4.14v4.14H96.52v-7.44h1.65l3.2,4.12v-4.12h1.86Z" transform="translate(0.51 0)"/>
      <path d="M48.45,356.84H45.88v3H44v-7.44h4.43v1.49H45.88v1.44h2.57Z" transform="translate(0.51 0)"/>
      <path d="M56.31,356.13a4.48,4.48,0,0,1-.4,1.91,3.15,3.15,0,0,1-1.18,1.39,3.41,3.41,0,0,1-1.93.52,3.38,3.38,0,0,1-1.94-.54A3.28,3.28,0,0,1,49.69,358a4.54,4.54,0,0,1-.39-1.87,4.71,4.71,0,0,1,.38-1.88,3.3,3.3,0,0,1,1.18-1.41,3.37,3.37,0,0,1,1.94-.53,3.73,3.73,0,0,1,1.53.3,3,3,0,0,1,1.1.83,3.69,3.69,0,0,1,.66,1.22A4.76,4.76,0,0,1,56.31,356.13Zm-1.9,0a2.66,2.66,0,0,0-.1-.77,1.71,1.71,0,0,0-.31-.6,1.54,1.54,0,0,0-.51-.4,1.6,1.6,0,0,0-.69-.14,1.39,1.39,0,0,0-1.17.53,2.43,2.43,0,0,0,0,2.76,1.44,1.44,0,0,0,1.17.53,1.47,1.47,0,0,0,.88-.25,1.58,1.58,0,0,0,.55-.67A2.57,2.57,0,0,0,54.41,356.13Z" transform="translate(0.51 0)"/>
      <path d="M63.91,356.52a4,4,0,0,1-.3,1.63,2.79,2.79,0,0,1-.78,1.06,3.37,3.37,0,0,1-1,.57,4,4,0,0,1-1.13.17,3.92,3.92,0,0,1-1.53-.32,2.83,2.83,0,0,1-1.24-1.1,3.67,3.67,0,0,1-.5-2v-4.11h1.86v3.53a3.47,3.47,0,0,0,.18,1.21,1.41,1.41,0,0,0,.49.71,1.34,1.34,0,0,0,1.47,0,1.45,1.45,0,0,0,.49-.7,3.47,3.47,0,0,0,.18-1.21v-3.54h1.86Z" transform="translate(0.51 0)"/>
      <path d="M71.35,359.85h-2l-.48-1.32a5.43,5.43,0,0,0-.49-1.06A1.13,1.13,0,0,0,68,357a1.33,1.33,0,0,0-.53-.09h-.21v2.9H65.37v-7.44h3.17a2,2,0,0,1,1.26.37,2.22,2.22,0,0,1,.7.92,2.65,2.65,0,0,1,.22,1,2.27,2.27,0,0,1-.18.95,1.81,1.81,0,0,1-.38.57,4.07,4.07,0,0,1-.45.34,1.9,1.9,0,0,1,.49.49,6.27,6.27,0,0,1,.53,1.17Zm-2.53-5.09a.83.83,0,0,0-.28-.72,1.63,1.63,0,0,0-.91-.2h-.4v1.79h.41a1.71,1.71,0,0,0,.93-.18A.79.79,0,0,0,68.82,354.76Z" transform="translate(0.51 0)"/>
      <path d="M81.79,360.39l-1.31,1.43a9,9,0,0,1-1.52-.55,10.54,10.54,0,0,1-1.52-.85,4,4,0,0,1-.89-.75,2.94,2.94,0,0,1-1-.68,3.48,3.48,0,0,1-.76-1.19,4.33,4.33,0,0,1-.3-1.67,4.71,4.71,0,0,1,.38-1.88,3.3,3.3,0,0,1,1.18-1.41,3.39,3.39,0,0,1,2-.53,3.64,3.64,0,0,1,1.55.31,3,3,0,0,1,1.1.85,3.56,3.56,0,0,1,.64,1.22,4.92,4.92,0,0,1,.21,1.44,4.67,4.67,0,0,1-.26,1.6,3.71,3.71,0,0,1-.7,1.17,3.47,3.47,0,0,1-1,.74,7.33,7.33,0,0,0,1,.45,3.43,3.43,0,0,0,1.15.18Zm-2.17-4.26a2.66,2.66,0,0,0-.1-.77,1.71,1.71,0,0,0-.31-.6,1.61,1.61,0,0,0-.5-.4,1.67,1.67,0,0,0-.69-.14,1.41,1.41,0,0,0-1.18.53,2.43,2.43,0,0,0,0,2.76,1.6,1.6,0,0,0,2,.28,1.58,1.58,0,0,0,.55-.67A2.57,2.57,0,0,0,79.62,356.13Z" transform="translate(0.51 0)"/>
      <path d="M89.12,356.52a4,4,0,0,1-.3,1.63,2.69,2.69,0,0,1-.78,1.06,3.37,3.37,0,0,1-1.05.57,4,4,0,0,1-1.13.17,3.92,3.92,0,0,1-1.53-.32,2.88,2.88,0,0,1-1.24-1.1,3.67,3.67,0,0,1-.5-2v-4.11h1.86v3.53a3.47,3.47,0,0,0,.18,1.21,1.48,1.48,0,0,0,.49.71,1.34,1.34,0,0,0,1.47,0,1.45,1.45,0,0,0,.49-.7,3.47,3.47,0,0,0,.18-1.21v-3.54h1.86Z" transform="translate(0.51 0)"/>
      <path d="M97,359.85h-1.9l-.51-1.51H91.88l-.51,1.51H89.46l2.73-7.44h2.06Zm-2.84-2.8-.9-2.72-.91,2.72Z" transform="translate(0.51 0)"/>
      <path d="M103.78,359.85h-2l-.49-1.32a6.22,6.22,0,0,0-.48-1.06,1.08,1.08,0,0,0-.42-.43,1.28,1.28,0,0,0-.52-.09h-.21v2.9H97.79v-7.44H101a2,2,0,0,1,1.26.37,2.25,2.25,0,0,1,.71.92,2.82,2.82,0,0,1,.21,1,2.27,2.27,0,0,1-.18.95,1.65,1.65,0,0,1-.38.57,3.31,3.31,0,0,1-.45.34,1.76,1.76,0,0,1,.49.49,6.27,6.27,0,0,1,.53,1.17Zm-2.53-5.09A.84.84,0,0,0,101,354a1.61,1.61,0,0,0-.91-.2h-.39v1.79h.4a1.69,1.69,0,0,0,.93-.18A.8.8,0,0,0,101.25,354.76Z" transform="translate(0.51 0)"/>
      <path d="M110.16,354.22h-2.27v5.63H106v-5.63h-2.26v-1.81h6.39Z" transform="translate(0.51 0)"/>
      <path d="M115.9,359.85h-4.65v-7.44h4.58v1.49h-2.72v1.37h2.59v1.49h-2.59v1.59h2.79Z" transform="translate(0.51 0)"/>
      <path d="M123.14,359.85h-2l-.48-1.32a6.22,6.22,0,0,0-.48-1.06,1.22,1.22,0,0,0-.42-.43,1.31,1.31,0,0,0-.52-.09H119v2.9h-1.87v-7.44h3.17a2,2,0,0,1,1.26.37,2.25,2.25,0,0,1,.71.92,2.82,2.82,0,0,1,.21,1,2.27,2.27,0,0,1-.18.95,1.81,1.81,0,0,1-.38.57,3.31,3.31,0,0,1-.45.34,1.9,1.9,0,0,1,.49.49,6.27,6.27,0,0,1,.53,1.17Zm-2.54-5.09a.83.83,0,0,0-.28-.72,1.63,1.63,0,0,0-.91-.2H119v1.79h.4a1.71,1.71,0,0,0,.93-.18A.79.79,0,0,0,120.6,354.76Z" transform="translate(0.51 0)"/>
      <path d="M128.3,357.69a2.46,2.46,0,0,1-.29,1.21,2,2,0,0,1-.83.78A2.64,2.64,0,0,1,126,360l-.47,0a4.58,4.58,0,0,1-.74-.16,5.46,5.46,0,0,1-1-.4v-1.83a6.33,6.33,0,0,0,.92.58,2,2,0,0,0,1,.23c.32,0,.53-.06.62-.19a.6.6,0,0,0,.14-.35.64.64,0,0,0-.24-.51,3.44,3.44,0,0,0-.7-.43,5,5,0,0,1-.89-.56,2.33,2.33,0,0,1-.63-.76,2.27,2.27,0,0,1-.24-1.08,2.45,2.45,0,0,1,.24-1.09,1.91,1.91,0,0,1,.75-.77,2.38,2.38,0,0,1,1.23-.29,3.6,3.6,0,0,1,1,.12,3.65,3.65,0,0,1,.72.27l.4.23v1.75a5.83,5.83,0,0,0-.85-.59,2,2,0,0,0-1-.25.65.65,0,0,0-.5.16.58.58,0,0,0-.16.4.57.57,0,0,0,.16.38,3.13,3.13,0,0,0,.56.39,13.22,13.22,0,0,1,1.14.72,2.63,2.63,0,0,1,.67.75A2.09,2.09,0,0,1,128.3,357.69Z" transform="translate(0.51 0)"/>
    </g>
    <g>
      <path d="M129.91,86.4h-3.84V80.3h1.52v4.64h2.32Z" transform="translate(0.51 0)"/>
      <path d="M134.39,84.54h-2.61a1.12,1.12,0,0,0,.37.67,1,1,0,0,0,.68.26A3.08,3.08,0,0,0,134.3,85v1a4.16,4.16,0,0,1-.7.33,3.14,3.14,0,0,1-1,.14,2.19,2.19,0,0,1-1.17-.3,1.87,1.87,0,0,1-.71-.84,2.84,2.84,0,0,1-.24-1.19,2.76,2.76,0,0,1,.24-1.18,1.77,1.77,0,0,1,.71-.82,2.19,2.19,0,0,1,1.17-.3,1.79,1.79,0,0,1,.88.24,1.69,1.69,0,0,1,.69.77,3,3,0,0,1,.27,1.37Zm-1.23-.78a1.18,1.18,0,0,0-.18-.69.59.59,0,0,0-.51-.26.65.65,0,0,0-.53.26,1.15,1.15,0,0,0-.2.69Z" transform="translate(0.51 0)"/>
      <path d="M139,81.92l-1.69,4.48h-1l-1.65-4.48h1.41l.77,2.34.85-2.34Z" transform="translate(0.51 0)"/>
      <path d="M143.09,84.54h-2.61a1.12,1.12,0,0,0,.37.67,1,1,0,0,0,.68.26A3.08,3.08,0,0,0,143,85v1a3.82,3.82,0,0,1-.7.33,3.08,3.08,0,0,1-1,.14,2.17,2.17,0,0,1-1.17-.3,2,2,0,0,1-.72-.84,2.84,2.84,0,0,1-.24-1.19,2.76,2.76,0,0,1,.24-1.18,1.85,1.85,0,0,1,.72-.82,2.17,2.17,0,0,1,1.17-.3,1.73,1.73,0,0,1,.87.24,1.69,1.69,0,0,1,.69.77,3,3,0,0,1,.27,1.37Zm-1.23-.78a1.18,1.18,0,0,0-.18-.69.57.57,0,0,0-.51-.26.67.67,0,0,0-.53.26,1.15,1.15,0,0,0-.2.69Z" transform="translate(0.51 0)"/>
      <path d="M145.12,86.4H143.8V80.3h1.32Z" transform="translate(0.51 0)"/>
      <path d="M150.73,86.4h-1.38V80.3h1.38Z" transform="translate(0.51 0)"/>
    </g>
    <g>
      <path d="M70.21,66.21a2.16,2.16,0,0,1-.1.66,1.56,1.56,0,0,1-.31.6,1.46,1.46,0,0,1-.58.45,1.91,1.91,0,0,1-.86.18h-1v2.28H65.83V64.29h2.53a1.91,1.91,0,0,1,.86.18,1.67,1.67,0,0,1,.58.45,1.72,1.72,0,0,1,.31.62A2.18,2.18,0,0,1,70.21,66.21Zm-1.55,0a.7.7,0,0,0-.22-.6,1.28,1.28,0,0,0-.76-.16h-.32v1.47h.33a2.19,2.19,0,0,0,.58-.06.52.52,0,0,0,.3-.21A.88.88,0,0,0,68.66,66.22Z" transform="translate(0.51 0)"/>
      <path d="M74.48,70.16c-.19.09-.37.16-.53.22a2.05,2.05,0,0,1-.59.08.55.55,0,0,1-.45-.14.78.78,0,0,1-.19-.33,1.77,1.77,0,0,1-.47.34,1.43,1.43,0,0,1-.67.13,1.12,1.12,0,0,1-.66-.17.89.89,0,0,1-.35-.42,1.39,1.39,0,0,1-.1-.53,1.31,1.31,0,0,1,.17-.69,1.42,1.42,0,0,1,.47-.44,5.28,5.28,0,0,1,.77-.35l.42-.16.21-.09.14-.08a1,1,0,0,0-.11-.51c-.07-.12-.23-.18-.47-.18a1.48,1.48,0,0,0-.8.22,3.13,3.13,0,0,0-.68.59V66.44a2.54,2.54,0,0,1,1.13-.54,2.59,2.59,0,0,1,.63-.07,1.74,1.74,0,0,1,1.21.38,1.33,1.33,0,0,1,.4,1V69a1.66,1.66,0,0,0,0,.37c0,.08.07.12.14.12a.77.77,0,0,0,.34-.13Zm-1.83-.86V68.24a3.84,3.84,0,0,0-.68.41.65.65,0,0,0-.22.5.5.5,0,0,0,.11.34.33.33,0,0,0,.25.12.48.48,0,0,0,.27-.09A1.74,1.74,0,0,0,72.65,69.3Z" transform="translate(0.51 0)"/>
      <path d="M79,70.38H77.65V68a2,2,0,0,0-.1-.64.42.42,0,0,0-.44-.28.61.61,0,0,0-.28.07.82.82,0,0,0-.22.19,2.65,2.65,0,0,0-.17.22l-.13.23v2.62H75V65.91h1.31v.64a2,2,0,0,1,.62-.56,1.47,1.47,0,0,1,.7-.16c.89,0,1.33.64,1.33,1.93Z" transform="translate(0.51 0)"/>
      <path d="M84.45,70.38H83.07V64.29h1.38Z" transform="translate(0.51 0)"/>
    </g>
    <g>
      <path d="M70.21,123.81a2.16,2.16,0,0,1-.1.66,1.56,1.56,0,0,1-.31.6,1.46,1.46,0,0,1-.58.45,1.91,1.91,0,0,1-.86.18h-1V128H65.83v-6.09h2.53a1.91,1.91,0,0,1,.86.18,1.58,1.58,0,0,1,.58.46,1.61,1.61,0,0,1,.31.61A2.18,2.18,0,0,1,70.21,123.81Zm-1.55,0a.7.7,0,0,0-.22-.6,1.28,1.28,0,0,0-.76-.16h-.32v1.47h.33a2.19,2.19,0,0,0,.58-.06.52.52,0,0,0,.3-.21A.88.88,0,0,0,68.66,123.82Z" transform="translate(0.51 0)"/>
      <path d="M74.48,127.76c-.19.09-.37.16-.53.22a2.05,2.05,0,0,1-.59.08.55.55,0,0,1-.45-.14.78.78,0,0,1-.19-.33,1.77,1.77,0,0,1-.47.34,1.43,1.43,0,0,1-.67.13,1.12,1.12,0,0,1-.66-.17.89.89,0,0,1-.35-.42,1.39,1.39,0,0,1-.1-.53,1.31,1.31,0,0,1,.17-.69,1.42,1.42,0,0,1,.47-.44,5.28,5.28,0,0,1,.77-.35l.42-.16.21-.09.14-.08a1,1,0,0,0-.11-.51c-.07-.12-.23-.18-.47-.18a1.48,1.48,0,0,0-.8.22,3.13,3.13,0,0,0-.68.59V124a2.54,2.54,0,0,1,1.13-.54,2.59,2.59,0,0,1,.63-.07,1.74,1.74,0,0,1,1.21.38,1.33,1.33,0,0,1,.4,1v1.73a1.66,1.66,0,0,0,0,.37c0,.08.07.12.14.12a.77.77,0,0,0,.34-.13Zm-1.83-.86v-1.06a3.84,3.84,0,0,0-.68.41.65.65,0,0,0-.22.5.5.5,0,0,0,.11.34.33.33,0,0,0,.25.12.48.48,0,0,0,.27-.09A1.74,1.74,0,0,0,72.65,126.9Z" transform="translate(0.51 0)"/>
      <path d="M79,128H77.65v-2.41a2,2,0,0,0-.1-.64.42.42,0,0,0-.44-.28.61.61,0,0,0-.28.07.82.82,0,0,0-.22.19,2.65,2.65,0,0,0-.17.22l-.13.23V128H75v-4.47h1.31v.64a2,2,0,0,1,.62-.56,1.47,1.47,0,0,1,.7-.16c.89,0,1.33.64,1.33,1.93Z" transform="translate(0.51 0)"/>
      <path d="M85.7,128H81.85v-.12c.15-.17.31-.37.49-.62s.41-.55.69-.95c.13-.18.25-.35.36-.53a5.32,5.32,0,0,0,.29-.5,3.38,3.38,0,0,0,.21-.54,2.35,2.35,0,0,0,.08-.6,1.1,1.1,0,0,0-.2-.68.62.62,0,0,0-.52-.26A1.65,1.65,0,0,0,82,124v-1.44l.35-.27a3,3,0,0,1,.32-.19,1.93,1.93,0,0,1,.43-.17,1.81,1.81,0,0,1,.54-.07,1.62,1.62,0,0,1,.84.22,1.58,1.58,0,0,1,.59.66,2.14,2.14,0,0,1,.22,1,2.68,2.68,0,0,1-.1.76,3,3,0,0,1-.2.56c-.07.15-.17.32-.28.53a11.57,11.57,0,0,1-.67,1.08H85.7Z" transform="translate(0.51 0)"/>
    </g>
    <g>
      <path d="M129.91,144h-3.84v-6.1h1.52v4.64h2.32Z" transform="translate(0.51 0)"/>
      <path d="M134.39,142.14h-2.61a1.12,1.12,0,0,0,.37.67,1,1,0,0,0,.68.26,3.08,3.08,0,0,0,1.47-.45v1a4.16,4.16,0,0,1-.7.33,3.14,3.14,0,0,1-1,.14,2.19,2.19,0,0,1-1.17-.3,1.87,1.87,0,0,1-.71-.84,2.84,2.84,0,0,1-.24-1.19,2.76,2.76,0,0,1,.24-1.18,1.77,1.77,0,0,1,.71-.82,2.19,2.19,0,0,1,1.17-.3,1.79,1.79,0,0,1,.88.24,1.69,1.69,0,0,1,.69.77,3,3,0,0,1,.27,1.37Zm-1.23-.78a1.18,1.18,0,0,0-.18-.69.59.59,0,0,0-.51-.26.65.65,0,0,0-.53.26,1.15,1.15,0,0,0-.2.69Z" transform="translate(0.51 0)"/>
      <path d="M139,139.52,137.26,144h-1l-1.65-4.48h1.41l.77,2.34.85-2.34Z" transform="translate(0.51 0)"/>
      <path d="M143.09,142.14h-2.61a1.12,1.12,0,0,0,.37.67,1,1,0,0,0,.68.26,3.08,3.08,0,0,0,1.47-.45v1a3.82,3.82,0,0,1-.7.33,3.08,3.08,0,0,1-1,.14,2.17,2.17,0,0,1-1.17-.3,2,2,0,0,1-.72-.84,2.84,2.84,0,0,1-.24-1.19,2.76,2.76,0,0,1,.24-1.18,1.85,1.85,0,0,1,.72-.82,2.17,2.17,0,0,1,1.17-.3,1.73,1.73,0,0,1,.87.24,1.69,1.69,0,0,1,.69.77,3,3,0,0,1,.27,1.37Zm-1.23-.78a1.18,1.18,0,0,0-.18-.69.57.57,0,0,0-.51-.26.67.67,0,0,0-.53.26,1.15,1.15,0,0,0-.2.69Z" transform="translate(0.51 0)"/>
      <path d="M145.12,144H143.8v-6.1h1.32Z" transform="translate(0.51 0)"/>
      <path d="M152,144h-3.84v-.12c.15-.18.31-.38.49-.62s.41-.56.68-1c.13-.17.25-.35.37-.52a5.43,5.43,0,0,0,.29-.51,2.63,2.63,0,0,0,.2-.54,2,2,0,0,0,.09-.6,1,1,0,0,0-.21-.68.59.59,0,0,0-.51-.26,1.64,1.64,0,0,0-1.23.77v-1.44l.35-.26a2,2,0,0,1,.32-.2,1.93,1.93,0,0,1,.43-.17,1.79,1.79,0,0,1,.53-.07,1.67,1.67,0,0,1,.85.23,1.55,1.55,0,0,1,.59.65,2.14,2.14,0,0,1,.22,1,2.68,2.68,0,0,1-.1.76,3.86,3.86,0,0,1-.2.56c-.07.15-.17.32-.28.54-.21.37-.44.73-.68,1.07H152Z" transform="translate(0.51 0)"/>
    </g>
    <g>
      <path d="M129.91,201.59h-3.84V195.5h1.52v4.64h2.32Z" transform="translate(0.51 0)"/>
      <path d="M134.39,199.74h-2.61a1.12,1.12,0,0,0,.37.67,1,1,0,0,0,.68.26,3.08,3.08,0,0,0,1.47-.45v1a4.16,4.16,0,0,1-.7.33,3.14,3.14,0,0,1-1,.14,2.19,2.19,0,0,1-1.17-.3,1.87,1.87,0,0,1-.71-.84,2.84,2.84,0,0,1-.24-1.19,2.76,2.76,0,0,1,.24-1.18,1.77,1.77,0,0,1,.71-.82,2.19,2.19,0,0,1,1.17-.3,1.79,1.79,0,0,1,.88.24,1.69,1.69,0,0,1,.69.77,3,3,0,0,1,.27,1.37Zm-1.23-.78a1.18,1.18,0,0,0-.18-.69.59.59,0,0,0-.51-.26.65.65,0,0,0-.53.26,1.15,1.15,0,0,0-.2.69Z" transform="translate(0.51 0)"/>
      <path d="M139,197.12l-1.69,4.47h-1l-1.65-4.47h1.41l.77,2.34.85-2.34Z" transform="translate(0.51 0)"/>
      <path d="M143.09,199.74h-2.61a1.12,1.12,0,0,0,.37.67,1,1,0,0,0,.68.26,3.08,3.08,0,0,0,1.47-.45v1a3.82,3.82,0,0,1-.7.33,3.08,3.08,0,0,1-1,.14,2.17,2.17,0,0,1-1.17-.3,2,2,0,0,1-.72-.84,2.84,2.84,0,0,1-.24-1.19,2.76,2.76,0,0,1,.24-1.18,1.85,1.85,0,0,1,.72-.82,2.17,2.17,0,0,1,1.17-.3,1.73,1.73,0,0,1,.87.24,1.69,1.69,0,0,1,.69.77,3,3,0,0,1,.27,1.37Zm-1.23-.78a1.18,1.18,0,0,0-.18-.69.57.57,0,0,0-.51-.26.67.67,0,0,0-.53.26,1.15,1.15,0,0,0-.2.69Z" transform="translate(0.51 0)"/>
      <path d="M145.12,201.59H143.8V195.5h1.32Z" transform="translate(0.51 0)"/>
      <path d="M151.66,199.9a1.85,1.85,0,0,1-.16.82,1.45,1.45,0,0,1-.41.55,1.68,1.68,0,0,1-.55.31,1.87,1.87,0,0,1-.56.09,3,3,0,0,1-.84-.13,3.17,3.17,0,0,1-.78-.31v-1.36a2.82,2.82,0,0,0,.55.43,1.25,1.25,0,0,0,.61.17.72.72,0,0,0,.4-.11.6.6,0,0,0,.24-.26.69.69,0,0,0,.09-.34.82.82,0,0,0-.11-.42.66.66,0,0,0-.29-.28.94.94,0,0,0-.45-.11h-.16v-1h.19a.7.7,0,0,0,.42-.12.71.71,0,0,0,.24-.28.76.76,0,0,0-.1-.8.58.58,0,0,0-.46-.22,1.35,1.35,0,0,0-.53.12,2,2,0,0,0-.5.31v-1.17a4.68,4.68,0,0,1,.67-.29,2.59,2.59,0,0,1,.71-.1,1.61,1.61,0,0,1,1.52.92,1.63,1.63,0,0,1,.08,1.26,2.19,2.19,0,0,1-.26.48,1.71,1.71,0,0,1-.33.33,1.91,1.91,0,0,1,.53.53A1.66,1.66,0,0,1,151.66,199.9Z" transform="translate(0.51 0)"/>
    </g>
    <g>
      <path d="M129.91,259.2h-3.84v-6.1h1.52v4.64h2.32Z" transform="translate(0.51 0)"/>
      <path d="M134.39,257.34h-2.61a1.12,1.12,0,0,0,.37.67,1,1,0,0,0,.68.26,3.08,3.08,0,0,0,1.47-.45v1a4.16,4.16,0,0,1-.7.33,3.14,3.14,0,0,1-1,.14,2.19,2.19,0,0,1-1.17-.3,1.87,1.87,0,0,1-.71-.84,2.84,2.84,0,0,1-.24-1.19,2.76,2.76,0,0,1,.24-1.18,1.77,1.77,0,0,1,.71-.82,2.19,2.19,0,0,1,1.17-.3,1.79,1.79,0,0,1,.88.24,1.69,1.69,0,0,1,.69.77,3,3,0,0,1,.27,1.37Zm-1.23-.78a1.18,1.18,0,0,0-.18-.69.59.59,0,0,0-.51-.26.64.64,0,0,0-.53.27,1.1,1.1,0,0,0-.2.68Z" transform="translate(0.51 0)"/>
      <path d="M139,254.72l-1.69,4.48h-1l-1.65-4.48h1.41l.77,2.34.85-2.34Z" transform="translate(0.51 0)"/>
      <path d="M143.09,257.34h-2.61a1.12,1.12,0,0,0,.37.67,1,1,0,0,0,.68.26,3.08,3.08,0,0,0,1.47-.45v1a3.82,3.82,0,0,1-.7.33,3.08,3.08,0,0,1-1,.14,2.17,2.17,0,0,1-1.17-.3,2,2,0,0,1-.72-.84,2.84,2.84,0,0,1-.24-1.19,2.76,2.76,0,0,1,.24-1.18,1.85,1.85,0,0,1,.72-.82,2.17,2.17,0,0,1,1.17-.3,1.73,1.73,0,0,1,.87.24,1.69,1.69,0,0,1,.69.77,3,3,0,0,1,.27,1.37Zm-1.23-.78a1.18,1.18,0,0,0-.18-.69.57.57,0,0,0-.51-.26.65.65,0,0,0-.53.27,1.1,1.1,0,0,0-.2.68Z" transform="translate(0.51 0)"/>
      <path d="M145.12,259.2H143.8v-6.1h1.32Z" transform="translate(0.51 0)"/>
      <path d="M152,257.88h-.59v1.32h-1.35v-1.32H148v-1.16l2.31-3.62h1.09v3.74H152Zm-1.94-1v-2l-1.25,2Z" transform="translate(0.51 0)"/>
    </g>
    <g>
      <path d="M79.76,289H78.24v-3.53l-1.38,2h-.12l-1.37-2V289H73.88V283h1.39l1.55,2.28L78.38,283h1.38Z" transform="translate(0.51 0)"/>
      <path d="M84.68,288.81a4,4,0,0,1-.54.23,1.93,1.93,0,0,1-.58.08.59.59,0,0,1-.45-.14.75.75,0,0,1-.19-.34,1.77,1.77,0,0,1-.47.34,1.46,1.46,0,0,1-.68.14,1.16,1.16,0,0,1-.65-.17.91.91,0,0,1-.35-.43,1.39,1.39,0,0,1-.1-.53,1.29,1.29,0,0,1,.17-.68,1.33,1.33,0,0,1,.47-.44,4.34,4.34,0,0,1,.77-.36l.41-.16.21-.08.15-.08a1,1,0,0,0-.11-.51c-.07-.13-.23-.19-.47-.19a1.49,1.49,0,0,0-.8.23,2.88,2.88,0,0,0-.68.59V285.1a2.56,2.56,0,0,1,.53-.35,3,3,0,0,1,.6-.2,3.18,3.18,0,0,1,.62-.06,1.75,1.75,0,0,1,1.22.37,1.35,1.35,0,0,1,.4,1v1.72a1.52,1.52,0,0,0,0,.37c0,.08.07.12.14.12a.69.69,0,0,0,.34-.13ZM82.85,288V286.9a3.32,3.32,0,0,0-.68.41.6.6,0,0,0-.22.49.52.52,0,0,0,.11.35.33.33,0,0,0,.25.12.48.48,0,0,0,.27-.09A2.61,2.61,0,0,0,82.85,288Z" transform="translate(0.51 0)"/>
      <path d="M86.58,289H85.26v-4.47h1.32Zm-.11-5.51a.69.69,0,0,1-.16.47.5.5,0,0,1-.39.2.45.45,0,0,1-.28-.09.59.59,0,0,1-.2-.24.74.74,0,0,1-.07-.34.71.71,0,0,1,.16-.47.47.47,0,0,1,.39-.19.49.49,0,0,1,.39.19A.71.71,0,0,1,86.47,283.53Z" transform="translate(0.51 0)"/>
      <path d="M91.45,289H90.13v-2.41A1.85,1.85,0,0,0,90,286a.41.41,0,0,0-.44-.27.53.53,0,0,0-.28.07,1,1,0,0,0-.22.19,1.53,1.53,0,0,0-.16.22c0,.07-.09.14-.13.22V289H87.48v-4.47H88.8v.64a1.76,1.76,0,0,1,.62-.56,1.46,1.46,0,0,1,.69-.16c.89,0,1.34.64,1.34,1.92Z" transform="translate(0.51 0)"/>
    </g>
    <path d="M138.67,118.29" transform="translate(0.51 0)" style="fill: none;stroke: #231f20;stroke-miterlimit: 10;stroke-width: 0.946643892215786px"/>
    <path d="M138.66,249.49a15.94,15.94,0,0,1-9.26-3,85.67,85.67,0,0,0-49.92-15.9H25.22a16,16,0,0,1,0-32H79.48a117.53,117.53,0,0,1,68.46,21.82,16,16,0,0,1-9.28,29Z" transform="translate(0.51 0)" style="fill: none;stroke: #231f20;stroke-miterlimit: 10"/>
    <path d="M138.85,76.07a15.48,15.48,0,0,1-5-.83A337.43,337.43,0,0,0,25.25,57.41a15.5,15.5,0,0,1,0-31A368.12,368.12,0,0,1,143.83,45.89a15.5,15.5,0,0,1-5,30.18Z" transform="translate(0.51 0)" style="fill: none;stroke: #231f20;stroke-miterlimit: 10"/>
    <path d="M138.85,133.67a15.48,15.48,0,0,1-5-.83A337.43,337.43,0,0,0,25.25,115a15.5,15.5,0,0,1,0-31,368.12,368.12,0,0,1,118.58,19.48,15.5,15.5,0,0,1-5,30.18Z" transform="translate(0.51 0)" style="fill: none;stroke: #231f20;stroke-miterlimit: 10"/>
    <path d="M138.85,191.61c-1.65,0-3.49.08-5-.82C103.32,172.11,62.45,173,25.25,173a15.5,15.5,0,0,1,0-31c40.59,0,84.65-1.69,118.58,19.48,7.26,4.53,12.45,11.55,9.7,19.66A15.51,15.51,0,0,1,138.85,191.61Z" transform="translate(0.51 0)" style="fill: none;stroke: #231f20;stroke-miterlimit: 10"/>
    <circle cx="76.1" cy="87.3" r="2.16" style="fill: #231f20;stroke: #ededed;stroke-width: 1.25000000000012px"/>
    <circle cx="76.1" cy="29.7" r="2.16" style="fill: #231f20;stroke: #ededed;stroke-width: 1.25000000000012px"/>
    <path d="M43.29,168.48h-3v-4.74h1.19v3.6h1.8Z" transform="translate(0.51 0)"/>
    <path d="M62.25,168.48H61l-.31-.84a3.47,3.47,0,0,0-.31-.68.75.75,0,0,0-.26-.27.83.83,0,0,0-.34-.06h-.13v1.85H58.44v-4.74h2a1.27,1.27,0,0,1,.8.24,1.33,1.33,0,0,1,.45.58,1.81,1.81,0,0,1,.14.65,1.41,1.41,0,0,1-.12.61,1,1,0,0,1-.24.36,2.43,2.43,0,0,1-.29.21,1.22,1.22,0,0,1,.32.32,4.41,4.41,0,0,1,.33.74Zm-1.61-3.24a.53.53,0,0,0-.18-.46,1,1,0,0,0-.58-.13h-.25v1.14h.26a1.15,1.15,0,0,0,.59-.11A.51.51,0,0,0,60.64,165.24Z" transform="translate(0.51 0)"/>
    <path d="M43.29,226.08h-3v-4.74h1.19v3.6h1.8Z" transform="translate(0.51 0)"/>
    <path d="M62.25,226.08H61l-.31-.84a3.78,3.78,0,0,0-.31-.68.75.75,0,0,0-.26-.27.83.83,0,0,0-.34-.06h-.13v1.85H58.44v-4.74h2a1.27,1.27,0,0,1,.8.24,1.33,1.33,0,0,1,.45.58,1.81,1.81,0,0,1,.14.65,1.41,1.41,0,0,1-.12.61,1,1,0,0,1-.24.36,2.43,2.43,0,0,1-.29.21,1.22,1.22,0,0,1,.32.32,4.41,4.41,0,0,1,.33.74Zm-1.61-3.24a.53.53,0,0,0-.18-.46,1,1,0,0,0-.58-.13h-.25v1.14h.26a1.15,1.15,0,0,0,.59-.11A.51.51,0,0,0,60.64,222.84Z" transform="translate(0.51 0)"/>
    <g>
      <line x1="42.8" y1="156.69" x2="55.73" y2="156.69" style="fill: none;stroke: #000;stroke-miterlimit: 10"/>
      <polygon points="55 159.19 59.32 156.69 55 154.2 55 159.19"/>
    </g>
    <g>
      <line x1="42.8" y1="214.29" x2="55.73" y2="214.29" style="fill: none;stroke: #000;stroke-miterlimit: 10"/>
      <polygon points="55 216.79 59.32 214.29 55 211.8 55 216.79"/>
    </g>
    <g>
      <path d="M48.09,334.71a1.13,1.13,0,0,1-.31.84,1.2,1.2,0,0,1-.88.31H44.83V331.8h1.73a2,2,0,0,1,.58.08,1,1,0,0,1,.4.2.76.76,0,0,1,.23.3.92.92,0,0,1,.07.38,1.14,1.14,0,0,1-.07.41,1.17,1.17,0,0,1-.19.31.71.71,0,0,1-.24.17,1.46,1.46,0,0,1,.56.41A1,1,0,0,1,48.09,334.71ZM46.84,333a.43.43,0,0,0-.17-.39,1.22,1.22,0,0,0-.54-.09h-.22v1h.23a1,1,0,0,0,.53-.1A.41.41,0,0,0,46.84,333Zm.17,1.69c0-.34-.22-.52-.66-.52h-.44v1h.44C46.79,335.18,47,335,47,334.66Z" transform="translate(0.51 0)"/>
      <path d="M51.36,335.71a3.28,3.28,0,0,1-.38.15,1.29,1.29,0,0,1-.42.06.41.41,0,0,1-.31-.09.45.45,0,0,1-.13-.23,1.36,1.36,0,0,1-.34.23,1.08,1.08,0,0,1-.48.09.81.81,0,0,1-.46-.12.61.61,0,0,1-.25-.28,1,1,0,0,1-.07-.35.81.81,0,0,1,.12-.46,1,1,0,0,1,.33-.29,3.31,3.31,0,0,1,.55-.24l.29-.11L50,334l.1-.06a.69.69,0,0,0-.07-.34c-.05-.08-.17-.12-.34-.12a1.09,1.09,0,0,0-.56.15,1.8,1.8,0,0,0-.48.4v-.81A1.62,1.62,0,0,1,49,333a1.92,1.92,0,0,1,.87-.18,1.28,1.28,0,0,1,.86.25.88.88,0,0,1,.28.69v1.15a.81.81,0,0,0,0,.25.11.11,0,0,0,.1.08.51.51,0,0,0,.24-.09Zm-1.3-.57v-.7a2.39,2.39,0,0,0-.48.27.4.4,0,0,0-.15.33.32.32,0,0,0,.08.23.25.25,0,0,0,.17.08.33.33,0,0,0,.19-.06A1.25,1.25,0,0,0,50.06,335.14Z" transform="translate(0.51 0)"/>
      <path d="M52.62,335.86h-.93V331.8h.93Z" transform="translate(0.51 0)"/>
      <path d="M56,335.71a3.28,3.28,0,0,1-.38.15,1.29,1.29,0,0,1-.42.06.41.41,0,0,1-.31-.09.45.45,0,0,1-.13-.23,1.36,1.36,0,0,1-.34.23,1.08,1.08,0,0,1-.48.09.81.81,0,0,1-.46-.12.61.61,0,0,1-.25-.28,1,1,0,0,1-.07-.35.81.81,0,0,1,.12-.46,1,1,0,0,1,.33-.29,3.31,3.31,0,0,1,.55-.24l.29-.11.15-.05.1-.06a.69.69,0,0,0-.07-.34c0-.08-.17-.12-.34-.12a1.09,1.09,0,0,0-.56.15,1.65,1.65,0,0,0-.48.4v-.81a1.62,1.62,0,0,1,.37-.23,1.92,1.92,0,0,1,.87-.18,1.28,1.28,0,0,1,.86.25.88.88,0,0,1,.28.69v1.15a.81.81,0,0,0,0,.25.11.11,0,0,0,.1.08.51.51,0,0,0,.24-.09Zm-1.3-.57v-.7a2.39,2.39,0,0,0-.48.27.4.4,0,0,0-.15.33.32.32,0,0,0,.08.23.25.25,0,0,0,.17.08.33.33,0,0,0,.19-.06A1.25,1.25,0,0,0,54.69,335.14Z" transform="translate(0.51 0)"/>
      <path d="M59.15,335.86h-.92v-1.6a1.33,1.33,0,0,0-.07-.43.31.31,0,0,0-.32-.19.38.38,0,0,0-.19.05.65.65,0,0,0-.16.13l-.11.14-.1.15v1.75h-.93v-3h.93v.43a1.31,1.31,0,0,1,.44-.37,1.14,1.14,0,0,1,.49-.11c.63,0,.94.43.94,1.28Z" transform="translate(0.51 0)"/>
      <path d="M62,335.73l-.24.09-.3.07a1.83,1.83,0,0,1-.35,0,1.51,1.51,0,0,1-.73-.17,1.28,1.28,0,0,1-.45-.41,1.6,1.6,0,0,1-.23-.52,2,2,0,0,1-.06-.46,2.15,2.15,0,0,1,.06-.46,2,2,0,0,1,.22-.5,1.32,1.32,0,0,1,.46-.41,1.49,1.49,0,0,1,.73-.16,1.64,1.64,0,0,1,.48.05l.37.12v.83a2.2,2.2,0,0,0-.71-.16.61.61,0,0,0-.44.17.65.65,0,0,0-.19.52.79.79,0,0,0,.09.4.64.64,0,0,0,.25.24.6.6,0,0,0,.29.08,1.39,1.39,0,0,0,.32-.05l.43-.13Z" transform="translate(0.51 0)"/>
      <path d="M65.1,334.63H63.25a.75.75,0,0,0,.27.44.72.72,0,0,0,.48.18,2.28,2.28,0,0,0,1-.3v.65a3,3,0,0,1-.5.22,2.49,2.49,0,0,1-.74.1,1.54,1.54,0,0,1-.82-.21,1.23,1.23,0,0,1-.51-.55,1.88,1.88,0,0,1-.17-.8,1.83,1.83,0,0,1,.17-.79A1.21,1.21,0,0,1,63,333a1.63,1.63,0,0,1,.82-.2,1.25,1.25,0,0,1,.62.16,1.15,1.15,0,0,1,.49.51,1.91,1.91,0,0,1,.19.92Zm-.87-.52a.78.78,0,0,0-.12-.46.42.42,0,0,0-.36-.17.49.49,0,0,0-.38.17.74.74,0,0,0-.14.46Z" transform="translate(0.51 0)"/>
      <path d="M68.34,335.86H67.4v-.27a1.18,1.18,0,0,1-.31.24,1,1,0,0,1-.45.09,1.16,1.16,0,0,1-.56-.16,1.19,1.19,0,0,1-.45-.51,1.8,1.8,0,0,1-.18-.86,2.13,2.13,0,0,1,.13-.76,1.3,1.3,0,0,1,.42-.58,1.1,1.1,0,0,1,.7-.22,1.21,1.21,0,0,1,.42.06,1.1,1.1,0,0,1,.28.17V331.8h.94Zm-.94-.94v-1.14l-.25-.15a.48.48,0,0,0-.22,0,.44.44,0,0,0-.36.21,1,1,0,0,0-.15.57.91.91,0,0,0,.16.58.45.45,0,0,0,.35.18.55.55,0,0,0,.28-.06A1.25,1.25,0,0,0,67.4,334.92Z" transform="translate(0.51 0)"/>
    </g>
    <g>
      <path d="M50.57,309.5a1.24,1.24,0,0,1-.17.66,1.06,1.06,0,0,1-.48.43,1.57,1.57,0,0,1-.7.15l-.27,0a2.55,2.55,0,0,1-.43-.09,3.52,3.52,0,0,1-.56-.21v-1a4.39,4.39,0,0,0,.53.32,1.38,1.38,0,0,0,.56.12c.19,0,.31,0,.36-.1a.3.3,0,0,0,.08-.2.31.31,0,0,0-.14-.27,1.55,1.55,0,0,0-.4-.24,2.84,2.84,0,0,1-.52-.3,1.48,1.48,0,0,1-.36-.42,1.2,1.2,0,0,1-.14-.59,1.28,1.28,0,0,1,.14-.59,1,1,0,0,1,.44-.42,1.41,1.41,0,0,1,.71-.16,2.38,2.38,0,0,1,.55.06,3.26,3.26,0,0,1,.42.15l.23.13v.95a3.45,3.45,0,0,0-.49-.32,1.27,1.27,0,0,0-.58-.14.4.4,0,0,0-.29.09.29.29,0,0,0-.09.22.29.29,0,0,0,.09.21,2,2,0,0,0,.32.21,5.37,5.37,0,0,1,.66.4,1.24,1.24,0,0,1,.39.4A1.15,1.15,0,0,1,50.57,309.5Z" transform="translate(0.51 0)"/>
      <path d="M53.22,310.51a1.61,1.61,0,0,1-.4.15,1.72,1.72,0,0,1-.48.08c-.67,0-1-.37-1-1.12v-1.19h-.42v-.18l1.25-1.44h.1v.89h.89v.73h-.89v1a1.87,1.87,0,0,0,0,.27.32.32,0,0,0,.1.17.4.4,0,0,0,.26.07,1.24,1.24,0,0,0,.58-.21Z" transform="translate(0.51 0)"/>
      <path d="M56.32,309.45H54.47a.75.75,0,0,0,.27.44.72.72,0,0,0,.48.18,2.21,2.21,0,0,0,1-.3v.65a2.85,2.85,0,0,1-.49.22,2.49,2.49,0,0,1-.74.1,1.51,1.51,0,0,1-.82-.21,1.23,1.23,0,0,1-.51-.55,1.74,1.74,0,0,1-.17-.8,1.7,1.7,0,0,1,.17-.79,1.21,1.21,0,0,1,.51-.54,1.61,1.61,0,0,1,.82-.2,1.27,1.27,0,0,1,.62.16,1.15,1.15,0,0,1,.49.51,1.91,1.91,0,0,1,.19.92Zm-.87-.52a.72.72,0,0,0-.13-.46.4.4,0,0,0-.36-.17.47.47,0,0,0-.37.17.68.68,0,0,0-.14.46Z" transform="translate(0.51 0)"/>
      <path d="M59.08,307.86l-.34,1.06a.6.6,0,0,0-.43-.23.46.46,0,0,0-.34.15,1.7,1.7,0,0,0-.27.56v1.28h-.93v-3h.93v.72a1.59,1.59,0,0,1,.31-.52.67.67,0,0,1,.52-.25.72.72,0,0,1,.27.05A2.14,2.14,0,0,1,59.08,307.86Z" transform="translate(0.51 0)"/>
      <path d="M61.84,309.45H60a.69.69,0,0,0,.26.44.72.72,0,0,0,.48.18,2.28,2.28,0,0,0,1-.3v.65a3,3,0,0,1-.5.22,2.47,2.47,0,0,1-.73.1,1.55,1.55,0,0,1-.83-.21,1.23,1.23,0,0,1-.51-.55,1.88,1.88,0,0,1-.17-.8,1.83,1.83,0,0,1,.17-.79,1.21,1.21,0,0,1,.51-.54,1.64,1.64,0,0,1,.83-.2,1.24,1.24,0,0,1,.61.16,1.15,1.15,0,0,1,.49.51,1.91,1.91,0,0,1,.19.92Zm-.87-.52a.78.78,0,0,0-.12-.46.42.42,0,0,0-.36-.17.49.49,0,0,0-.38.17.74.74,0,0,0-.14.46Z" transform="translate(0.51 0)"/>
      <path d="M65.2,309.19A1.8,1.8,0,0,1,65,310a1.25,1.25,0,0,1-.51.56,1.64,1.64,0,0,1-.83.2,1.61,1.61,0,0,1-.82-.2,1.25,1.25,0,0,1-.51-.56,1.8,1.8,0,0,1-.17-.79,2,2,0,0,1,.09-.61,1.36,1.36,0,0,1,.76-.82,2,2,0,0,1,1.31,0,1.31,1.31,0,0,1,.75.82A1.7,1.7,0,0,1,65.2,309.19Zm-1,0a1,1,0,0,0-.13-.55.45.45,0,0,0-.4-.21.44.44,0,0,0-.39.21,1,1,0,0,0-.13.55,1,1,0,0,0,.13.56.45.45,0,0,0,.39.2.47.47,0,0,0,.4-.2A1,1,0,0,0,64.22,309.19Z" transform="translate(0.51 0)"/>
      <path d="M54.76,312.61H53.45v3.07H52.38v-3.07H51.07v-1h3.69Z" transform="translate(0.51 0)"/>
      <path d="M58.85,315.68H57.69l-.28-.72a2.5,2.5,0,0,0-.28-.57.6.6,0,0,0-.24-.24.85.85,0,0,0-.3,0h-.12v1.58H55.39v-4.06h1.83a1.19,1.19,0,0,1,.73.21,1.15,1.15,0,0,1,.41.5,1.44,1.44,0,0,1,.12.55,1.15,1.15,0,0,1-.1.52.8.8,0,0,1-.22.31,1.74,1.74,0,0,1-.26.19.9.9,0,0,1,.28.27,3,3,0,0,1,.31.63Zm-1.46-2.77a.46.46,0,0,0-.17-.4,1,1,0,0,0-.53-.11h-.22v1h.23a1,1,0,0,0,.54-.1A.41.41,0,0,0,57.39,312.91Z" transform="translate(0.51 0)"/>
      <path d="M61.84,314.5a1.24,1.24,0,0,1-.17.66,1.17,1.17,0,0,1-.48.43,1.61,1.61,0,0,1-.71.15l-.27,0a2.55,2.55,0,0,1-.43-.09,3.82,3.82,0,0,1-.55-.21v-1a4.39,4.39,0,0,0,.53.32,1.34,1.34,0,0,0,.56.12c.19,0,.3,0,.36-.1a.37.37,0,0,0,.08-.2.33.33,0,0,0-.14-.27,1.75,1.75,0,0,0-.4-.24,2.84,2.84,0,0,1-.52-.3,1.22,1.22,0,0,1-.36-.42,1.1,1.1,0,0,1-.14-.59,1.28,1.28,0,0,1,.14-.59,1,1,0,0,1,.43-.42,1.43,1.43,0,0,1,.71-.16,2.47,2.47,0,0,1,.56.06,3.26,3.26,0,0,1,.42.15l.22.13v.95a3,3,0,0,0-.49-.32,1.26,1.26,0,0,0-.57-.14.39.39,0,0,0-.29.09.29.29,0,0,0-.09.22.29.29,0,0,0,.09.21,1.58,1.58,0,0,0,.32.21,7.52,7.52,0,0,1,.66.4,1.48,1.48,0,0,1,.39.4A1.15,1.15,0,0,1,61.84,314.5Z" transform="translate(0.51 0)"/>
    </g>
  </g>
  <g id="components">
    <circle id="Out_Right" data-name="Out Right" cx="145.27" cy="315.15" r="17.01" style="fill: blue"/>
    <circle id="Out_Left" data-name="Out Left" cx="92.17" cy="315.15" r="17.01" style="fill: blue"/>
    <circle id="Out_R_LED" data-name="Out R LED" cx="131.56" cy="285.7" r="4.25" style="fill: #f0f"/>
    <circle id="Out_L_LED" data-name="Out L LED" cx="104.97" cy="285.7" r="4.25" style="fill: #f0f"/>
    <rect id="Stereo_TRS_Balanced" data-name="Stereo TRS | Balanced" x="49.56" y="319.5" width="14.17" height="8.5" transform="translate(-266.6 380.4) rotate(-90)" style="fill: #ff8080"/>
    <circle id="Headphone_Level" data-name="Headphone Level" cx="25.74" cy="318.47" r="8.5" style="fill: #ff0070"/>
    <circle id="Main" cx="83.31" cy="262.21" r="17.01" style="fill: #ff0070"/>
    <circle id="Headphone_Out" data-name="Headphone Out" cx="25.74" cy="265.21" r="11.34" style="fill: blue"/>
    <circle id="Level_4" data-name="Level 4" cx="139.18" cy="232.97" r="17.01" style="fill: #ff0070"/>
    <circle id="Level_4_LED" data-name="Level 4 LED" cx="108.16" cy="217.75" r="4.25" style="fill: #f0f"/>
    <circle id="In_4_R" data-name="In 4 R" cx="76.1" cy="214.69" r="11.34" style="fill: lime"/>
    <circle id="In_4_L" data-name="In 4 L" cx="25.7" cy="214.69" r="11.34" style="fill: lime"/>
    <circle id="Level_3" data-name="Level 3" cx="139.18" cy="175.61" r="17.01" style="fill: #ff0070"/>
    <circle id="Level_3_LED" data-name="Level 3 LED" cx="108.16" cy="160.15" r="4.25" style="fill: #f0f"/>
    <circle id="In_3_R" data-name="In 3 R" cx="76.1" cy="157.21" r="11.34" style="fill: lime"/>
    <circle id="In_3_L" data-name="In 3 L" cx="25.7" cy="157.21" r="11.34" style="fill: lime"/>
    <circle id="Level_2" data-name="Level 2" cx="139.18" cy="118.01" r="17.01" style="fill: #ff0070"/>
    <circle id="Level_2_LED" data-name="Level 2 LED" cx="108.16" cy="102.55" r="4.25" style="fill: #f0f"/>
    <circle id="Pan_2" data-name="Pan 2" cx="76.1" cy="103.41" r="8.5" style="fill: #ff0040"/>
    <circle id="In_2" data-name="In 2" cx="25.7" cy="99.6" r="11.34" style="fill: lime"/>
    <circle id="Level_1" data-name="Level 1" cx="139.18" cy="60.41" r="17.01" style="fill: #ff0070"/>
    <circle id="Level_1_LED" data-name="Level 1 LED" cx="108.16" cy="44.77" r="4.25" style="fill: #f0f"/>
    <circle id="Pan_1" data-name="Pan 1" cx="76.1" cy="45.81" r="8.5" style="fill: #ff0040"/>
    <circle id="In_1" data-name="In 1" cx="25.7" cy="41.89" r="11.34" style="fill: lime"/>
    <text id="slug" transform="translate(115.8 369.31)" style="font-size: 3px;font-family: MyriadPro-Regular, Myriad Pro">L4Q</text>
    <text id="modulename" transform="translate(129.97 369.31)" style="font-size: 3px;font-family: MyriadPro-Regular, Myriad Pro">Lis<tspan x="3.31" y="0" style="letter-spacing: -0.005859375em">t</tspan><tspan x="4.28" y="0">en </tspan><tspan x="8.08" y="0" style="letter-spacing: -0.030924479166666668em">F</tspan><tspan x="9.45" y="0" style="letter-spacing: -0.0003255208333333333em">our </tspan><tspan x="14.37" y="0" style="letter-spacing: 0.0026041666666666665em">Q</tspan><tspan x="16.45" y="0">ua</tspan><tspan x="19.54" y="0" style="letter-spacing: 0.023763020833333332em">r</tspan><tspan x="20.6" y="0" style="letter-spacing: -0.006184895833333333em">t</tspan><tspan x="21.57" y="0">ers</tspan></text>
  </g>
</svg>
