<svg xmlns="http://www.w3.org/2000/svg" xmlns:xlink="http://www.w3.org/1999/xlink" width="20.41mm" height="130.6mm" viewBox="0 0 57.85 370.19">
  <defs>
    <clipPath id="clip-path">
      <rect x="15.02" y="23.36" width="27.8" height="25.62" style="fill: none"/>
    </clipPath>
    <clipPath id="clip-path-3">
      <rect x="15.02" y="69.16" width="27.8" height="25.62" style="fill: none"/>
    </clipPath>
    <clipPath id="clip-path-4">
      <rect x="15.02" y="69.16" width="27.8" height="25.62" style="fill: none"/>
    </clipPath>
    <clipPath id="clip-path-5">
      <rect x="15.02" y="114.96" width="27.8" height="25.62" style="fill: none"/>
    </clipPath>
  </defs>
  <g id="faceplate">
    <rect x="0.13" y="0.13" width="57.6" height="364.25" style="fill: #ededed;stroke: #9d9d9e;stroke-miterlimit: 10;stroke-width: 0.25px"/>
    <g>
      <path d="M25,357.07H20.41v-7.44h1.84v5.66H25Z"/>
      <path d="M30.49,354.06H28v3H26.11v-7.44h4.38v1.49H28v1.44h2.53Z"/>
      <path d="M38.26,353.34a4.49,4.49,0,0,1-.4,1.92,3.12,3.12,0,0,1-1.17,1.39,3.31,3.31,0,0,1-1.9.52,3.28,3.28,0,0,1-1.91-.54,3.21,3.21,0,0,1-1.17-1.41,4.82,4.82,0,0,1,0-3.75,3.26,3.26,0,0,1,1.16-1.41,3.33,3.33,0,0,1,1.92-.53,3.6,3.6,0,0,1,1.51.3,3,3,0,0,1,1.09.83,3.86,3.86,0,0,1,.65,1.22A5,5,0,0,1,38.26,353.34Zm-1.88,0a2.59,2.59,0,0,0-.1-.76A1.71,1.71,0,0,0,36,352a1.41,1.41,0,0,0-.5-.4,1.45,1.45,0,0,0-.68-.14,1.4,1.4,0,0,0-1.16.52,2.14,2.14,0,0,0-.42,1.38,2.19,2.19,0,0,0,.42,1.39,1.41,1.41,0,0,0,1.16.53,1.46,1.46,0,0,0,.87-.25,1.64,1.64,0,0,0,.54-.67A2.59,2.59,0,0,0,36.38,353.34Z"/>
    </g>
    <path d="M28.63,198.69c8,0,14.54,6.09,14.54,13.58v109.8c0,7.49-6.52,13.58-14.54,13.58s-14.54-6.09-14.54-13.58V212.27c0-7.49,6.53-13.58,14.54-13.58m0-1.05C20,197.64,13,204.19,13,212.27v109.8c0,8.08,7,14.63,15.59,14.63s15.59-6.55,15.59-14.63V212.27c0-8.08-7-14.63-15.59-14.63Z"/>
    <g>
      <path d="M27.36,237h-2v2.19H24v-5.41h3.41v1.08h-2v1.05h2Z"/>
      <path d="M33.59,239.15H32.15V236l-1.3,1.81h-.11L29.44,236v3.13H28.05v-5.41h1.3l1.46,2,1.47-2h1.31Z"/>
    </g>
    <g>
      <path d="M24.25,288.21H22.71l-.38-1a4.3,4.3,0,0,0-.37-.77.87.87,0,0,0-.32-.32,1.16,1.16,0,0,0-.4-.06h-.17v2.11H19.64v-5.42h2.44a1.62,1.62,0,0,1,1,.28,1.66,1.66,0,0,1,.55.66,1.9,1.9,0,0,1,.16.74,1.48,1.48,0,0,1-.14.7,1.27,1.27,0,0,1-.29.41,2.41,2.41,0,0,1-.35.25,1.31,1.31,0,0,1,.38.36,4.62,4.62,0,0,1,.41.84Zm-1.95-3.7a.59.59,0,0,0-.22-.53,1.25,1.25,0,0,0-.7-.15h-.31v1.31h.31a1.36,1.36,0,0,0,.72-.13A.57.57,0,0,0,22.3,284.51Z"/>
      <path d="M28,286.56H25.54a1,1,0,0,0,.36.59,1,1,0,0,0,.64.23,3.09,3.09,0,0,0,1.38-.39v.87a4.18,4.18,0,0,1-.66.29,3.06,3.06,0,0,1-1,.13,2.09,2.09,0,0,1-1.1-.27,1.7,1.7,0,0,1-.68-.75,2.53,2.53,0,0,1,0-2.11,1.58,1.58,0,0,1,.68-.72,2.09,2.09,0,0,1,1.1-.27,1.75,1.75,0,0,1,.82.21,1.65,1.65,0,0,1,.65.68,2.61,2.61,0,0,1,.26,1.23Zm-1.16-.7a1,1,0,0,0-.17-.61.56.56,0,0,0-.48-.23.61.61,0,0,0-.5.24.88.88,0,0,0-.19.6Z"/>
      <path d="M31.07,287.05a1.21,1.21,0,0,1-.35.89,1.46,1.46,0,0,1-1,.34,2.84,2.84,0,0,1-.69-.08,4.77,4.77,0,0,1-.66-.23v-1a4.15,4.15,0,0,0,.54.31,1.25,1.25,0,0,0,.51.1c.31,0,.46-.09.46-.28a.28.28,0,0,0-.06-.18,1.07,1.07,0,0,0-.24-.17l-.44-.23a1.78,1.78,0,0,1-.59-.46,1.07,1.07,0,0,1-.24-.71,1.23,1.23,0,0,1,.16-.57,1.17,1.17,0,0,1,.49-.44,1.55,1.55,0,0,1,.78-.18l.28,0a2.55,2.55,0,0,1,.43.09,2.33,2.33,0,0,1,.49.21v1l-.19-.12-.19-.11-.29-.12a1.34,1.34,0,0,0-.35,0,.39.39,0,0,0-.29.09.29.29,0,0,0-.08.19.26.26,0,0,0,.09.18,1.23,1.23,0,0,0,.36.21,2.82,2.82,0,0,1,.66.37,1.06,1.06,0,0,1,.36.41A1.27,1.27,0,0,1,31.07,287.05Z"/>
      <path d="M35.05,286.56H32.58a1,1,0,0,0,.36.59,1,1,0,0,0,.64.23A3.09,3.09,0,0,0,35,287v.87a4.18,4.18,0,0,1-.66.29,3.06,3.06,0,0,1-1,.13,2.11,2.11,0,0,1-1.1-.27,1.7,1.7,0,0,1-.68-.75,2.53,2.53,0,0,1,0-2.11,1.58,1.58,0,0,1,.68-.72,2.11,2.11,0,0,1,1.1-.27,1.75,1.75,0,0,1,.82.21,1.65,1.65,0,0,1,.65.68,2.61,2.61,0,0,1,.26,1.23Zm-1.16-.7a1,1,0,0,0-.17-.61.56.56,0,0,0-.48-.23.61.61,0,0,0-.5.24.88.88,0,0,0-.19.6Z"/>
      <path d="M38.14,288a2.48,2.48,0,0,1-.54.2,2.13,2.13,0,0,1-.64.1c-.89,0-1.34-.5-1.34-1.49v-1.58h-.56V285L36.72,283h.14v1.19H38v1H36.86v1.27a3.21,3.21,0,0,0,0,.36.43.43,0,0,0,.14.23.53.53,0,0,0,.34.09,1.64,1.64,0,0,0,.78-.28Z"/>
    </g>
    <g id="pips_-_fewest" data-name="pips - fewest">
      <g style="clip-path: url(#clip-path)">
        <g style="clip-path: url(#clip-path)">
          <path d="M34.62,26.14l.71-1.23a13.87,13.87,0,0,0-5.77-1.55v1.43a12.55,12.55,0,0,1,5.06,1.35"/>
          <path d="M39.41,30.48l1.24-.71a14,14,0,0,0-4.23-4.23l-.71,1.23a12.7,12.7,0,0,1,3.7,3.71"/>
          <path d="M22.14,26.78l-.71-1.24a14,14,0,0,0-4.23,4.23l1.24.71a12.55,12.55,0,0,1,3.7-3.7"/>
          <path d="M41.4,36.63h1.43a13.87,13.87,0,0,0-1.55-5.77l-1.23.71a12.51,12.51,0,0,1,1.35,5.06"/>
          <path d="M28.29,24.79V23.36a13.72,13.72,0,0,0-5.77,1.55l.71,1.23a12.55,12.55,0,0,1,5.06-1.35"/>
          <path d="M18.44,44.05l-1.24.71A14,14,0,0,0,21.43,49l.71-1.24a12.55,12.55,0,0,1-3.7-3.7"/>
          <path d="M35.71,47.75,36.42,49a14,14,0,0,0,4.23-4.23l-1.24-.71a12.55,12.55,0,0,1-3.7,3.7"/>
          <path d="M41.4,37.9A12.55,12.55,0,0,1,40.05,43l1.23.71a13.87,13.87,0,0,0,1.55-5.77Z"/>
          <path d="M16.45,37.9H15a13.87,13.87,0,0,0,1.55,5.77L17.8,43a12.55,12.55,0,0,1-1.35-5.06"/>
          <path d="M17.8,31.57l-1.23-.71A13.87,13.87,0,0,0,15,36.63h1.43a12.51,12.51,0,0,1,1.35-5.06"/>
        </g>
      </g>
    </g>
    <g>
      <path d="M21.14,55.62a2.07,2.07,0,0,1-.29,1.1,1.84,1.84,0,0,1-.8.71,2.72,2.72,0,0,1-1.17.25l-.45,0a5.18,5.18,0,0,1-.72-.15,5.12,5.12,0,0,1-.92-.36V55.48a6.42,6.42,0,0,0,.88.53,2.19,2.19,0,0,0,.94.21c.31,0,.5-.06.59-.18a.53.53,0,0,0,.14-.32.58.58,0,0,0-.23-.46,2.91,2.91,0,0,0-.68-.39,6.3,6.3,0,0,1-.86-.51,2.49,2.49,0,0,1-.6-.69,2,2,0,0,1-.23-1,2,2,0,0,1,.23-1,1.76,1.76,0,0,1,.72-.71,2.55,2.55,0,0,1,1.19-.26,3.8,3.8,0,0,1,.92.11,3.54,3.54,0,0,1,.7.24l.38.22v1.59a5.29,5.29,0,0,0-.82-.54,2.12,2.12,0,0,0-1-.23.66.66,0,0,0-.48.15.46.46,0,0,0-.15.36.45.45,0,0,0,.15.34,2.46,2.46,0,0,0,.54.36,10.62,10.62,0,0,1,1.09.66,2.2,2.2,0,0,1,.65.68A1.74,1.74,0,0,1,21.14,55.62Z"/>
      <path d="M26.55,55.07a3.83,3.83,0,0,1-.12,1,2.67,2.67,0,0,1-.38.84,1.88,1.88,0,0,1-.66.59,2,2,0,0,1-.93.22,1.78,1.78,0,0,1-.68-.11,2.39,2.39,0,0,1-.49-.27v2.55H21.74V52.62h1.55v.45a2.16,2.16,0,0,1,.51-.39,1.63,1.63,0,0,1,.76-.15,1.82,1.82,0,0,1,.94.27,2,2,0,0,1,.76.84A3,3,0,0,1,26.55,55.07Zm-1.62,0a1.87,1.87,0,0,0-.13-.73.91.91,0,0,0-.32-.41.78.78,0,0,0-.41-.12.88.88,0,0,0-.45.1,1.59,1.59,0,0,0-.33.25v1.9l.17.11a.87.87,0,0,0,.19.1l.19.08a.91.91,0,0,0,.23,0,.73.73,0,0,0,.61-.35A1.71,1.71,0,0,0,24.93,55.11Z"/>
      <path d="M31.49,55.53H28.41a1.27,1.27,0,0,0,1.24,1,3.8,3.8,0,0,0,1.73-.5v1.09a4.9,4.9,0,0,1-.82.36,3.88,3.88,0,0,1-1.23.17A2.62,2.62,0,0,1,28,57.33a2.1,2.1,0,0,1-.85-.92,3.16,3.16,0,0,1-.28-1.33,3,3,0,0,1,.28-1.31,2.08,2.08,0,0,1,.85-.91,2.71,2.71,0,0,1,1.38-.33,2.28,2.28,0,0,1,1,.26,2,2,0,0,1,.81.86,3.1,3.1,0,0,1,.32,1.53ZM30,54.66a1.3,1.3,0,0,0-.21-.77.7.7,0,0,0-.6-.28.77.77,0,0,0-.62.29,1.15,1.15,0,0,0-.24.76Z"/>
      <path d="M36.39,55.53H33.31a1.17,1.17,0,0,0,.44.74,1.23,1.23,0,0,0,.8.29,3.77,3.77,0,0,0,1.72-.5v1.09a4.56,4.56,0,0,1-.82.36,3.83,3.83,0,0,1-1.23.17,2.56,2.56,0,0,1-1.37-.35,2,2,0,0,1-.85-.92,3,3,0,0,1-.28-1.33A2.9,2.9,0,0,1,32,53.77a2,2,0,0,1,.85-.91,2.65,2.65,0,0,1,1.37-.33,2.25,2.25,0,0,1,1,.26,2.07,2.07,0,0,1,.82.86,3.22,3.22,0,0,1,.32,1.53Zm-1.46-.87a1.37,1.37,0,0,0-.2-.77.7.7,0,0,0-.6-.28.79.79,0,0,0-.63.29,1.15,1.15,0,0,0-.24.76Z"/>
      <path d="M41.42,57.59H39.87v-.45a2.72,2.72,0,0,1-.52.39,1.56,1.56,0,0,1-.75.15,1.85,1.85,0,0,1-.94-.27,2,2,0,0,1-.75-.84,3.06,3.06,0,0,1-.3-1.43,3.53,3.53,0,0,1,.22-1.27,2.23,2.23,0,0,1,.7-1,1.84,1.84,0,0,1,1.17-.37,1.94,1.94,0,0,1,.7.11,1.8,1.8,0,0,1,.47.27V50.82h1.55ZM39.87,56v-1.9a4,4,0,0,0-.42-.25.8.8,0,0,0-.36-.07.73.73,0,0,0-.61.35,1.68,1.68,0,0,0-.24,1,1.47,1.47,0,0,0,.25,1,.77.77,0,0,0,.6.3.83.83,0,0,0,.45-.1A1.59,1.59,0,0,0,39.87,56Z"/>
    </g>
    <g id="pips_-_fewest-2" data-name="pips - fewest">
      <g style="clip-path: url(#clip-path-3)">
        <g style="clip-path: url(#clip-path-4)">
          <path d="M34.62,71.94l.71-1.23a13.72,13.72,0,0,0-5.77-1.55v1.43a12.39,12.39,0,0,1,5.06,1.35"/>
          <path d="M39.41,76.28l1.24-.72a14.07,14.07,0,0,0-4.23-4.22l-.71,1.23a12.58,12.58,0,0,1,3.7,3.71"/>
          <path d="M22.14,72.57l-.71-1.23a14.07,14.07,0,0,0-4.23,4.22l1.24.72a12.58,12.58,0,0,1,3.7-3.71"/>
          <path d="M41.4,82.43h1.43a13.87,13.87,0,0,0-1.55-5.77l-1.23.71a12.51,12.51,0,0,1,1.35,5.06"/>
          <path d="M28.29,70.59V69.16a13.72,13.72,0,0,0-5.77,1.55l.71,1.23a12.39,12.39,0,0,1,5.06-1.35"/>
          <path d="M18.44,89.85l-1.24.71a14,14,0,0,0,4.23,4.23l.71-1.24a12.55,12.55,0,0,1-3.7-3.7"/>
          <path d="M35.71,93.55l.71,1.23a13.85,13.85,0,0,0,4.23-4.22l-1.24-.71a12.55,12.55,0,0,1-3.7,3.7"/>
          <path d="M41.4,83.7a12.46,12.46,0,0,1-1.35,5l1.23.72a13.91,13.91,0,0,0,1.55-5.77Z"/>
          <path d="M16.45,83.7H15a13.91,13.91,0,0,0,1.55,5.77l1.23-.72a12.46,12.46,0,0,1-1.35-5"/>
          <path d="M17.8,77.37l-1.23-.71A13.87,13.87,0,0,0,15,82.43h1.43a12.51,12.51,0,0,1,1.35-5.06"/>
        </g>
      </g>
    </g>
    <g>
      <path d="M22.53,98.75a2.27,2.27,0,0,1-.11.73,2,2,0,0,1-.37.67,1.79,1.79,0,0,1-.68.51,2.65,2.65,0,0,1-1,.19H19.17v2.54H17.38V96.62h3a2.48,2.48,0,0,1,1,.19,1.9,1.9,0,0,1,.68.51,2.16,2.16,0,0,1,.37.68A2.39,2.39,0,0,1,22.53,98.75Zm-1.83,0a.75.75,0,0,0-.25-.66,1.64,1.64,0,0,0-.9-.18h-.38v1.63h.39a3,3,0,0,0,.69-.06.6.6,0,0,0,.35-.24A.94.94,0,0,0,20.7,98.76Z"/>
      <path d="M27.6,103.39H26.05v-2.75a1.59,1.59,0,0,0-.13-.66.51.51,0,0,0-.51-.29.7.7,0,0,0-.51.22,2.93,2.93,0,0,0-.43.56v2.92H22.93V96.62h1.54v2.51a2.21,2.21,0,0,1,.76-.63,1.78,1.78,0,0,1,.79-.17c1.05,0,1.58.67,1.58,2Z"/>
      <path d="M32.71,103.14a6.53,6.53,0,0,1-.63.24,2.29,2.29,0,0,1-.69.1.74.74,0,0,1-.53-.16,1,1,0,0,1-.22-.37,2.34,2.34,0,0,1-.55.38,1.84,1.84,0,0,1-.8.15,1.44,1.44,0,0,1-.77-.19,1,1,0,0,1-.41-.48,1.47,1.47,0,0,1-.12-.58,1.36,1.36,0,0,1,.2-.76,1.53,1.53,0,0,1,.55-.49,6.37,6.37,0,0,1,.91-.4l.49-.18.24-.09.18-.09a1.14,1.14,0,0,0-.13-.57.64.64,0,0,0-.56-.2,1.81,1.81,0,0,0-.94.25,3.51,3.51,0,0,0-.8.65V99a2.75,2.75,0,0,1,.63-.39,3.18,3.18,0,0,1,.7-.22,3.64,3.64,0,0,1,.74-.07,2.08,2.08,0,0,1,1.42.42,1.43,1.43,0,0,1,.48,1.15v1.91a1.33,1.33,0,0,0,0,.41c0,.09.08.14.16.14a1,1,0,0,0,.4-.14Zm-2.15-1V101a3.9,3.9,0,0,0-.81.46.64.64,0,0,0-.25.55.52.52,0,0,0,.13.38.41.41,0,0,0,.29.13.66.66,0,0,0,.32-.1Z"/>
      <path d="M36.26,101.94a1.47,1.47,0,0,1-.44,1.11,1.83,1.83,0,0,1-1.31.43,3.21,3.21,0,0,1-.86-.11,5.7,5.7,0,0,1-.82-.28v-1.25a5.86,5.86,0,0,0,.67.39,1.7,1.7,0,0,0,.64.13c.38,0,.58-.12.58-.36a.29.29,0,0,0-.09-.22.94.94,0,0,0-.29-.22c-.14-.08-.32-.17-.56-.28a2.43,2.43,0,0,1-.73-.58,1.32,1.32,0,0,1-.3-.88,1.45,1.45,0,0,1,.2-.72,1.56,1.56,0,0,1,.61-.55,1.93,1.93,0,0,1,1-.22l.35,0a3.2,3.2,0,0,1,.54.12,2.73,2.73,0,0,1,.61.26v1.21l-.22-.15-.25-.14a1.92,1.92,0,0,0-.36-.14,1.59,1.59,0,0,0-.43-.06.51.51,0,0,0-.37.11.42.42,0,0,0-.1.24.33.33,0,0,0,.11.23,1.81,1.81,0,0,0,.46.26,3.8,3.8,0,0,1,.82.46,1.41,1.41,0,0,1,.44.52A1.54,1.54,0,0,1,36.26,101.94Z"/>
      <path d="M41.24,101.33H38.15a1.29,1.29,0,0,0,1.25,1,3.77,3.77,0,0,0,1.72-.5V103a4.56,4.56,0,0,1-.82.36,3.83,3.83,0,0,1-1.23.17,2.62,2.62,0,0,1-1.38-.35,2.08,2.08,0,0,1-.84-.92,3.05,3.05,0,0,1-.29-1.33,2.9,2.9,0,0,1,.29-1.31,2.05,2.05,0,0,1,.84-.91,2.71,2.71,0,0,1,1.38-.33,2.25,2.25,0,0,1,1,.26,2,2,0,0,1,.81.85,3.17,3.17,0,0,1,.33,1.54Zm-1.46-.87a1.28,1.28,0,0,0-.21-.77.67.67,0,0,0-.6-.28.75.75,0,0,0-.62.29,1.14,1.14,0,0,0-.24.76Z"/>
    </g>
    <g id="pips_-_fewest-3" data-name="pips - fewest">
      <g style="clip-path: url(#clip-path-5)">
        <g style="clip-path: url(#clip-path-5)">
          <path d="M34.62,117.74l.71-1.24A13.86,13.86,0,0,0,29.56,115v1.43a12.39,12.39,0,0,1,5.06,1.35"/>
          <path d="M39.41,122.07l1.24-.71a14.07,14.07,0,0,0-4.23-4.22l-.71,1.23a12.55,12.55,0,0,1,3.7,3.7"/>
          <path d="M22.14,118.37l-.71-1.23a14.07,14.07,0,0,0-4.23,4.22l1.24.71a12.67,12.67,0,0,1,3.7-3.7"/>
          <path d="M41.4,128.23h1.43a13.83,13.83,0,0,0-1.55-5.77l-1.23.71a12.47,12.47,0,0,1,1.35,5.06"/>
          <path d="M28.29,116.39V115a13.72,13.72,0,0,0-5.77,1.55l.71,1.23a12.39,12.39,0,0,1,5.06-1.35"/>
          <path d="M18.44,135.65l-1.24.71a14,14,0,0,0,4.23,4.22l.71-1.23a12.55,12.55,0,0,1-3.7-3.7"/>
          <path d="M35.71,139.35l.71,1.23a14,14,0,0,0,4.23-4.22l-1.24-.71a12.55,12.55,0,0,1-3.7,3.7"/>
          <path d="M41.4,129.49a12.47,12.47,0,0,1-1.35,5.06l1.23.71a13.83,13.83,0,0,0,1.55-5.77Z"/>
          <path d="M16.45,129.49H15a13.83,13.83,0,0,0,1.55,5.77l1.23-.71a12.47,12.47,0,0,1-1.35-5.06"/>
          <path d="M17.8,123.17l-1.23-.71A13.83,13.83,0,0,0,15,128.23h1.43a12.47,12.47,0,0,1,1.35-5.06"/>
        </g>
      </g>
    </g>
    <g>
      <path d="M23.1,149.19H18.57v-6.77h1.8v5.14H23.1Z"/>
      <path d="M28,147.12H24.94a1.29,1.29,0,0,0,1.24,1,3.77,3.77,0,0,0,1.73-.5v1.09a4.56,4.56,0,0,1-.82.36,3.86,3.86,0,0,1-1.23.16,2.62,2.62,0,0,1-1.38-.34,2.24,2.24,0,0,1-.85-.93,3.25,3.25,0,0,1,0-2.64,2.17,2.17,0,0,1,.85-.9,2.71,2.71,0,0,1,1.38-.33,2.13,2.13,0,0,1,1,.26,2,2,0,0,1,.81.85,3.16,3.16,0,0,1,.32,1.53Zm-1.45-.86a1.28,1.28,0,0,0-.21-.77.7.7,0,0,0-.6-.28.75.75,0,0,0-.62.29,1.14,1.14,0,0,0-.24.76Z"/>
      <path d="M33,144.21l-2,5H29.91l-1.95-5h1.67l.9,2.61,1-2.61Z"/>
      <path d="M37.7,147.12H34.62a1.21,1.21,0,0,0,.44.75,1.23,1.23,0,0,0,.8.29,3.77,3.77,0,0,0,1.72-.5v1.09a4.56,4.56,0,0,1-.82.36,3.86,3.86,0,0,1-1.23.16,2.56,2.56,0,0,1-1.37-.34,2.12,2.12,0,0,1-.85-.93,3.25,3.25,0,0,1,0-2.64,2,2,0,0,1,.85-.9,2.65,2.65,0,0,1,1.37-.33,2.1,2.1,0,0,1,1,.26,2,2,0,0,1,.82.85,3.28,3.28,0,0,1,.32,1.53Zm-1.46-.86a1.35,1.35,0,0,0-.2-.77.7.7,0,0,0-.6-.28.76.76,0,0,0-.63.29,1.14,1.14,0,0,0-.24.76Z"/>
      <path d="M39.73,149.19H38.18v-6.77h1.55Z"/>
    </g>
    <path d="M44.22,308.63c0-8.08-7-14.63-15.59-14.63S13,300.55,13,308.63v8.11h0v19.84a5.68,5.68,0,0,0,5.67,5.67H38.55a5.68,5.68,0,0,0,5.67-5.67V316.74h0Z"/>
    <g>
      <path d="M27.86,334.55a3.26,3.26,0,0,1-.3,1.4,2.42,2.42,0,0,1-.92,1,3.11,3.11,0,0,1-3,0,2.39,2.39,0,0,1-.9-1,3.19,3.19,0,0,1-.3-1.37,3.29,3.29,0,0,1,.29-1.36,2.44,2.44,0,0,1,.91-1,2.83,2.83,0,0,1,1.5-.38,3,3,0,0,1,1.18.22,2.42,2.42,0,0,1,.85.6,2.6,2.6,0,0,1,.5.89A3.14,3.14,0,0,1,27.86,334.55Zm-1.46,0a1.87,1.87,0,0,0-.08-.55,1.11,1.11,0,0,0-.24-.44,1.05,1.05,0,0,0-.39-.29,1.25,1.25,0,0,0-.53-.1,1.12,1.12,0,0,0-.91.38,1.7,1.7,0,0,0,0,2,1.14,1.14,0,0,0,.91.38,1.19,1.19,0,0,0,.67-.17,1.17,1.17,0,0,0,.43-.5A1.81,1.81,0,0,0,26.4,334.55Z" style="fill: #fff"/>
      <path d="M32,337.26H30.72v-.56a2,2,0,0,1-.55.48,1.47,1.47,0,0,1-.69.15,1,1,0,0,1-1-.52,2.84,2.84,0,0,1-.24-1.19v-2.33h1.24v2.15a1.4,1.4,0,0,0,.1.56.39.39,0,0,0,.41.25.55.55,0,0,0,.43-.18,2.64,2.64,0,0,0,.32-.45v-2.33H32Z" style="fill: #fff"/>
      <path d="M35.23,337a2.9,2.9,0,0,1-.53.21,2.48,2.48,0,0,1-.65.09c-.89,0-1.33-.49-1.33-1.48v-1.59h-.56V334l1.66-1.92H34v1.19h1.18v1H34v1.28a1.84,1.84,0,0,0,0,.36.4.4,0,0,0,.14.23.51.51,0,0,0,.34.09,1.77,1.77,0,0,0,.77-.28Z" style="fill: #fff"/>
    </g>
    <g>
      <path d="M34.54,6.76l-5.53,7v-6a1.27,1.27,0,0,0-.64-1.17.89.89,0,0,0-1.13.29L20,16.13a1.49,1.49,0,0,0,0,1.79.9.9,0,0,0,1.46,0l5.5-7v6a1.29,1.29,0,0,0,.64,1.18.92.92,0,0,0,1.14-.3l5.53-7v6.15a1.05,1.05,0,1,0,2.06,0V7.64a1.28,1.28,0,0,0-.65-1.18A.91.91,0,0,0,34.54,6.76Z" style="stroke: #000;stroke-width: 0.6000000000000001px"/>
      <path d="M20,6.68l-4.81,6.13a1.47,1.47,0,0,0,0,1.79.9.9,0,0,0,1.46,0l3.05-3.87V17a1.17,1.17,0,0,0,1,1.26,1.17,1.17,0,0,0,1-1.26V7.56a1.29,1.29,0,0,0-.65-1.17A.91.91,0,0,0,20,6.68Z" style="stroke: #000;stroke-width: 0.6000000000000001px"/>
      <path d="M42.91,11.2a1.05,1.05,0,0,0-.95-.77h-2.1l1.53-1.95s.8-1.17.1-1.82a1.27,1.27,0,0,0-1.58.06l-3.23,4.1a1.45,1.45,0,0,0-.2,1.37,1,1,0,0,0,1,.78h2.1L37,16.14s-1,1.13-.27,1.89,1.75-.14,1.75-.14l4.18-5.31A1.5,1.5,0,0,0,42.91,11.2Z" style="stroke: #000;stroke-width: 0.6000000000000001px"/>
    </g>
  </g>
  <g id="components">
    <circle id="Out" cx="28.92" cy="311.76" r="11.34" style="fill: blue"/>
    <circle id="Reset" cx="28.92" cy="263.54" r="11.34" style="fill: #80ff80"/>
    <circle id="FM" cx="28.92" cy="214.44" r="11.34" style="fill: lime"/>
    <circle id="Level" cx="28.93" cy="128.65" r="8.5" style="fill: red"/>
    <circle id="Phase" cx="28.93" cy="82.85" r="8.5" style="fill: red"/>
    <circle id="Speed" cx="28.93" cy="37.05" r="8.5" style="fill: red"/>
    <text id="slug" transform="translate(35.41 369.44)" style="font-size: 3px;font-family: MyriadPro-Regular, Myriad Pro">LFO</text>
    <text id="modulename" transform="translate(43.28 369.44)" style="font-size: 3px;font-family: MyriadPro-Regular, Myriad Pro">Simple LFO</text>
  </g>
</svg>
