<svg xmlns="http://www.w3.org/2000/svg" width="20.41mm" height="130.6mm" viewBox="0 0 57.85 370.19">
  <g id="faceplate">
    <rect x="0.13" y="0.13" width="57.6" height="364.25" style="fill: #ededed;stroke: #9d9d9e;stroke-miterlimit: 10;stroke-width: 0.25px"/>
    <g>
      <path d="M19.2,357.56H14.56v-7.44H16.4v5.66h2.8Z"/>
      <path d="M26.8,353.83a4.64,4.64,0,0,1-.39,1.92,3.21,3.21,0,0,1-1.18,1.39,3.69,3.69,0,0,1-3.81,0,3.35,3.35,0,0,1-1.17-1.41,4.71,4.71,0,0,1-.38-1.88,4.66,4.66,0,0,1,.38-1.87,3.21,3.21,0,0,1,1.17-1.41,3.29,3.29,0,0,1,1.92-.54,3.59,3.59,0,0,1,1.5.31,3,3,0,0,1,1.09.83,3.67,3.67,0,0,1,.65,1.22A4.69,4.69,0,0,1,26.8,353.83Zm-1.87,0a2.58,2.58,0,0,0-.11-.76,1.69,1.69,0,0,0-.3-.6,1.48,1.48,0,0,0-.5-.4,1.51,1.51,0,0,0-.68-.14,1.41,1.41,0,0,0-1.17.52,2.14,2.14,0,0,0-.42,1.38,2.19,2.19,0,0,0,.42,1.39,1.44,1.44,0,0,0,1.17.53,1.53,1.53,0,0,0,.86-.25,1.49,1.49,0,0,0,.54-.67A2.58,2.58,0,0,0,24.93,353.83Z"/>
      <path d="M33.7,357l-.34.15-.27.1a2.94,2.94,0,0,1-.37.13,8.39,8.39,0,0,1-.84.18,6.19,6.19,0,0,1-.88.06,3.55,3.55,0,0,1-1.71-.42A3,3,0,0,1,28,356a4.48,4.48,0,0,1-.47-2.14,5.44,5.44,0,0,1,.24-1.6,3,3,0,0,1,.75-1.26,3.65,3.65,0,0,1,.84-.6,2.77,2.77,0,0,1,.83-.27,5.54,5.54,0,0,1,2.22.07c.35.1.74.23,1.15.39v1.76a4.64,4.64,0,0,0-.87-.49,3,3,0,0,0-1.16-.2,2,2,0,0,0-1.27.37,2,2,0,0,0-.67.88,3,3,0,0,0-.18,1,2.5,2.5,0,0,0,.21,1,1.81,1.81,0,0,0,.65.77,1.91,1.91,0,0,0,1.06.28,2.62,2.62,0,0,0,.75-.11V355h-.83v-1.5H33.7Z"/>
      <path d="M37,357.56H35.16v-7.44H37Z"/>
      <path d="M44,357a4.06,4.06,0,0,1-.78.39,4.49,4.49,0,0,1-.8.21,5.49,5.49,0,0,1-.83.06,3.61,3.61,0,0,1-1.43-.27,3.06,3.06,0,0,1-1.1-.79,3.38,3.38,0,0,1-.69-1.23,4.7,4.7,0,0,1-.23-1.54,4.77,4.77,0,0,1,.27-1.68,3.33,3.33,0,0,1,.76-1.2,3.23,3.23,0,0,1,1.12-.71,3.91,3.91,0,0,1,1.33-.23,6,6,0,0,1,2.35.57v2a7.07,7.07,0,0,0-.89-.58,2.32,2.32,0,0,0-1.05-.23,2,2,0,0,0-1,.26,1.88,1.88,0,0,0-.74.74,2.15,2.15,0,0,0-.29,1.12,2.24,2.24,0,0,0,.25,1,2,2,0,0,0,.68.75,1.89,1.89,0,0,0,1,.27,2.55,2.55,0,0,0,.84-.13,3.27,3.27,0,0,0,.67-.29c.18-.11.37-.24.56-.38Z"/>
    </g>
    <path d="M14.05,122.17a14.87,14.87,0,0,1,15.09-14.63,14.86,14.86,0,0,1,15.08,14.63V279.48a14.86,14.86,0,0,1-15.08,14.63,14.87,14.87,0,0,1-15.09-14.63Z" style="fill: none;stroke: #000;stroke-width: 1.05091px"/>
    <path d="M44.73,212.56c0-8.08-7-14.63-15.59-14.63s-15.59,6.55-15.59,14.63V316.83h0v19.85a5.68,5.68,0,0,0,5.67,5.67H39.06a5.68,5.68,0,0,0,5.67-5.67V316.83h0Z"/>
    <g>
      <path d="M25,194.07H23.61v-5.41H25Z"/>
      <path d="M29.5,194.07H28.26v-2.14a1.62,1.62,0,0,0-.09-.57.4.4,0,0,0-.42-.25.44.44,0,0,0-.26.07.65.65,0,0,0-.21.16,1.3,1.3,0,0,0-.15.2l-.13.2v2.33H25.76v-4H27v.57a1.75,1.75,0,0,1,.59-.5,1.38,1.38,0,0,1,.65-.14q1.26,0,1.26,1.71Z"/>
      <path d="M35.28,194.07H31.66V194c.14-.16.3-.34.46-.55l.65-.85.34-.47a3.59,3.59,0,0,0,.47-.93,1.89,1.89,0,0,0,.08-.53,1,1,0,0,0-.19-.61.62.62,0,0,0-.49-.23,1.57,1.57,0,0,0-1.16.69v-1.28l.33-.24a2.14,2.14,0,0,1,.3-.17,1.77,1.77,0,0,1,.41-.15,1.59,1.59,0,0,1,.5-.07,1.51,1.51,0,0,1,.79.21,1.39,1.39,0,0,1,.57.58,1.92,1.92,0,0,1,.2.89,2.41,2.41,0,0,1-.09.67,3.32,3.32,0,0,1-.19.5c-.07.13-.16.29-.27.47-.2.34-.41.65-.63,1h1.54Z"/>
    </g>
    <g>
      <path d="M25,148H23.61v-5.41H25Z"/>
      <path d="M29.5,148H28.26v-2.14a1.72,1.72,0,0,0-.09-.58.4.4,0,0,0-.42-.24.53.53,0,0,0-.26.06.87.87,0,0,0-.21.17,1.3,1.3,0,0,0-.15.2,1.74,1.74,0,0,0-.13.2V148H25.76v-4H27v.57a1.83,1.83,0,0,1,.59-.49,1.38,1.38,0,0,1,.65-.15c.84,0,1.26.57,1.26,1.72Z"/>
      <path d="M34.11,148h-1.3v-5.41h1.3Z"/>
    </g>
    <g>
      <path d="M26.38,240.18H24.91l-.39-1.09H22.45l-.39,1.09H20.59l2.1-5.41h1.59Zm-2.19-2-.7-2-.7,2Z" style="fill: #fff"/>
      <path d="M31.91,240.18H30.63l-2.47-3v3H26.73v-5.41H28l2.46,3v-3h1.44Z" style="fill: #fff"/>
      <path d="M37.72,237.57a2.85,2.85,0,0,1-.27,1.34,2.64,2.64,0,0,1-.62.82,2.12,2.12,0,0,1-1.44.45H32.82v-5.41h2a5.63,5.63,0,0,1,.77,0,3.92,3.92,0,0,1,.57.15,2.45,2.45,0,0,1,.43.22,2.09,2.09,0,0,1,.32.25,2.32,2.32,0,0,1,.43.54,2.7,2.7,0,0,1,.29.71A3.53,3.53,0,0,1,37.72,237.57Zm-1.46-.07a2.1,2.1,0,0,0-.22-1,1.14,1.14,0,0,0-.54-.49,1.72,1.72,0,0,0-.63-.12h-.61v3.2h.61a1.65,1.65,0,0,0,1-.3A1.53,1.53,0,0,0,36.26,237.5Z" style="fill: #fff"/>
    </g>
    <g>
      <path d="M29.49,287.28a3.22,3.22,0,0,1-.31,1.39,2.42,2.42,0,0,1-.92,1,2.76,2.76,0,0,1-1.48.38,2.69,2.69,0,0,1-1.49-.39,2.44,2.44,0,0,1-.91-1,3.26,3.26,0,0,1,0-2.73,2.39,2.39,0,0,1,.9-1,2.75,2.75,0,0,1,1.5-.39,3,3,0,0,1,1.18.22,2.42,2.42,0,0,1,.85.6,2.79,2.79,0,0,1,.51.89A3.43,3.43,0,0,1,29.49,287.28Zm-1.47,0a1.65,1.65,0,0,0-.08-.56,1.11,1.11,0,0,0-.24-.44,1.05,1.05,0,0,0-.39-.29,1.25,1.25,0,0,0-.53-.1,1.16,1.16,0,0,0-.91.38,1.67,1.67,0,0,0,0,2,1.12,1.12,0,0,0,.9.39,1.23,1.23,0,0,0,.68-.18,1.19,1.19,0,0,0,.42-.49A1.81,1.81,0,0,0,28,287.28Z" style="fill: #fff"/>
      <path d="M34.71,290H33.17l-.38-1a3.84,3.84,0,0,0-.37-.78.84.84,0,0,0-.32-.31,1.1,1.1,0,0,0-.4-.07h-.16V290H30.1v-5.42h2.44a1.55,1.55,0,0,1,1,.28,1.51,1.51,0,0,1,.55.66,1.9,1.9,0,0,1,.16.74,1.37,1.37,0,0,1-.43,1.11,2.38,2.38,0,0,1-.35.24,1.64,1.64,0,0,1,.38.36,4.82,4.82,0,0,1,.41.85Zm-2-3.71a.57.57,0,0,0-.22-.52,1.25,1.25,0,0,0-.7-.15h-.3v1.31h.31a1.47,1.47,0,0,0,.72-.13A.58.58,0,0,0,32.76,286.28Z" style="fill: #fff"/>
    </g>
    <g>
      <path d="M26.9,337.24H25.06l-.51-.68-.3-.41c-.18-.25-.3-.42-.36-.52-.28.43-.5.76-.67,1l-.44.61H21l2-2.81-1.93-2.6h1.84l.33.45c.18.27.41.59.67,1q.38-.63.6-.93l.37-.51h1.8l-1.85,2.6Z" style="fill: #fff"/>
      <path d="M32.35,334.53a3.12,3.12,0,0,1-.31,1.4,2.4,2.4,0,0,1-.91,1,2.78,2.78,0,0,1-1.48.37,2.75,2.75,0,0,1-1.5-.39,2.42,2.42,0,0,1-.91-1,3.18,3.18,0,0,1-.29-1.37,3.14,3.14,0,0,1,.29-1.36,2.38,2.38,0,0,1,.91-1,2.75,2.75,0,0,1,1.5-.39,2.87,2.87,0,0,1,1.17.23,2.46,2.46,0,0,1,.86.6,2.6,2.6,0,0,1,.5.89A3.14,3.14,0,0,1,32.35,334.53Zm-1.46,0a1.87,1.87,0,0,0-.08-.55,1.11,1.11,0,0,0-.24-.44,1.14,1.14,0,0,0-.92-.39,1.12,1.12,0,0,0-.91.38,1.47,1.47,0,0,0-.33,1,1.5,1.5,0,0,0,.33,1,1.12,1.12,0,0,0,.91.38,1.28,1.28,0,0,0,.67-.17,1.08,1.08,0,0,0,.42-.5A1.66,1.66,0,0,0,30.89,334.53Z" style="fill: #fff"/>
      <path d="M37.58,337.24H36l-.37-1a4.3,4.3,0,0,0-.37-.77.83.83,0,0,0-.32-.31,1,1,0,0,0-.41-.07H34.4v2.11H33v-5.41h2.44a1.53,1.53,0,0,1,1.51.94,1.89,1.89,0,0,1,.17.74,1.6,1.6,0,0,1-.14.69,1.17,1.17,0,0,1-.29.41,3.12,3.12,0,0,1-.35.25,1.45,1.45,0,0,1,.38.36,4.48,4.48,0,0,1,.41.85Zm-1.95-3.7a.6.6,0,0,0-.22-.52,1.27,1.27,0,0,0-.71-.15h-.3v1.3h.31a1.36,1.36,0,0,0,.72-.13A.55.55,0,0,0,35.63,333.54Z" style="fill: #fff"/>
    </g>
    <g>
      <path d="M34.54,6.76l-5.53,7v-6a1.27,1.27,0,0,0-.64-1.17.89.89,0,0,0-1.13.29L20,16.13a1.49,1.49,0,0,0,0,1.79.9.9,0,0,0,1.46,0l5.5-7v6a1.29,1.29,0,0,0,.64,1.18.92.92,0,0,0,1.14-.3l5.53-7v6.15a1.05,1.05,0,1,0,2.06,0V7.64a1.28,1.28,0,0,0-.65-1.18A.91.91,0,0,0,34.54,6.76Z" style="stroke: #000;stroke-width: 0.6000000000000001px"/>
      <path d="M20,6.68l-4.81,6.13a1.47,1.47,0,0,0,0,1.79.9.9,0,0,0,1.46,0l3.05-3.87V17a1.17,1.17,0,0,0,1,1.26,1.17,1.17,0,0,0,1-1.26V7.56a1.29,1.29,0,0,0-.65-1.17A.91.91,0,0,0,20,6.68Z" style="stroke: #000;stroke-width: 0.6000000000000001px"/>
      <path d="M42.91,11.2a1.05,1.05,0,0,0-.95-.77h-2.1l1.53-1.95s.8-1.17.1-1.82a1.27,1.27,0,0,0-1.58.06l-3.23,4.1a1.45,1.45,0,0,0-.2,1.37,1,1,0,0,0,1,.78h2.1L37,16.14s-1,1.13-.27,1.89,1.75-.14,1.75-.14l4.18-5.31A1.5,1.5,0,0,0,42.91,11.2Z" style="stroke: #000;stroke-width: 0.6000000000000001px"/>
    </g>
  </g>
  <g id="components">
    <circle id="XOR" cx="29.28" cy="312.29" r="11.34" style="fill: #8080ff"/>
    <circle id="OR" cx="29.28" cy="264.07" r="11.34" style="fill: #8080ff"/>
    <circle id="AND" cx="29.28" cy="214.97" r="11.34" style="fill: #8080ff"/>
    <circle id="In_2" data-name="In 2" cx="29.28" cy="168.85" r="11.34" style="fill: lime"/>
    <circle id="In_1" data-name="In 1" cx="29.28" cy="124.26" r="11.34" style="fill: lime"/>
    <text id="slug" transform="translate(22.12 369.44)" style="font-size: 3px;font-family: MyriadPro-Regular, Myriad Pro"><tspan style="letter-spacing: -0.013997395833333334em">L</tspan><tspan x="1.37" y="0" style="letter-spacing: -0.0003255208333333333em">o</tspan><tspan x="3.02" y="0" style="letter-spacing: -0.005859375em">g</tspan><tspan x="4.68" y="0">ic</tspan></text>
    <text id="modulename" transform="translate(35.04 369.44)" style="font-size: 3px;font-family: MyriadPro-Regular, Myriad Pro"><tspan style="letter-spacing: -0.013997395833333334em">L</tspan><tspan x="1.37" y="0" style="letter-spacing: -0.0003255208333333333em">o</tspan><tspan x="3.02" y="0" style="letter-spacing: -0.005859375em">g</tspan><tspan x="4.68" y="0">ic </tspan><tspan x="7.36" y="0" style="letter-spacing: 0.005859375em">M</tspan><tspan x="9.79" y="0" style="letter-spacing: -0.0003255208333333333em">odule</tspan></text>
  </g>
</svg>
