<svg xmlns="http://www.w3.org/2000/svg" width="20.41mm" height="131.75mm" viewBox="0 0 57.85 373.48">
  <g id="faceplate">
    <rect x="0.13" y="0.13" width="57.6" height="364.25" style="fill: #ededed;stroke: #9d9d9e;stroke-miterlimit: 10;stroke-width: 0.25px"/>
    <g>
      <path d="M26.39,351.9" style="stroke: #000;stroke-linecap: round;stroke-linejoin: round;stroke-width: 0.453543305397034px"/>
      <path d="M17.39,351.9" style="stroke: #000;stroke-linecap: round;stroke-linejoin: round;stroke-width: 0.453543305397034px"/>
      <path d="M26.39,360.9" style="stroke: #000;stroke-linecap: round;stroke-linejoin: round;stroke-width: 0.453543305397034px"/>
      <path d="M26.39,360.9h-9a4.5,4.5,0,1,1,0-9h9a4.5,4.5,0,0,1,0,9" style="stroke: #000;stroke-linecap: round;stroke-linejoin: round;stroke-width: 0.453543305397034px"/>
    </g>
    <g>
      <path d="M17.39,13.64h9a4.5,4.5,0,0,0,0-9h-9a4.5,4.5,0,0,0,0,9" style="stroke: #000;stroke-linecap: round;stroke-linejoin: round;stroke-width: 0.453543305397034px"/>
      <path d="M17.39,13.64" style="stroke: #000;stroke-linecap: round;stroke-linejoin: round;stroke-width: 0.453543305397034px"/>
    </g>
    <g>
      <g>
        <path d="M45.78,16.94S42.56,21,40.69,23.41V17.86a1.19,1.19,0,0,0-.59-1.08.83.83,0,0,0-1,.27l-6.69,8.51a1.34,1.34,0,0,0,0,1.64.82.82,0,0,0,1.34,0l5.06-6.42v5.54a1.17,1.17,0,0,0,.6,1.08.83.83,0,0,0,1-.27l5.08-6.47v5.66a1,1,0,1,0,1.9,0V17.75a1.17,1.17,0,0,0-.59-1.08A.83.83,0,0,0,45.78,16.94Z"/>
        <path d="M33.05,27.88a1.22,1.22,0,0,1-.93-.45,1.7,1.7,0,0,1,0-2.09l6.69-8.51a1.18,1.18,0,0,1,1.47-.37,1.55,1.55,0,0,1,.79,1.4v4.52l4.46-5.66A1.17,1.17,0,0,1,47,16.35a1.52,1.52,0,0,1,.8,1.4v8.54a1.32,1.32,0,1,1-2.61,0V21.65L40.7,27.32a1.18,1.18,0,0,1-1.47.37,1.55,1.55,0,0,1-.8-1.4V21.77L34,27.39a1.2,1.2,0,0,1-.94.49Zm6.69-10.83a.51.51,0,0,0-.4.22l-6.7,8.51a1,1,0,0,0,0,1.19.53.53,0,0,0,.39.21h0a.56.56,0,0,0,.39-.23s3.2-4.05,5.06-6.42l.63-.81v6.57a.83.83,0,0,0,.4.76.49.49,0,0,0,.61-.17h0l5.09-6.47.63-.8v6.68c0,.45.26.81.59.81s.6-.37.6-.81V17.75a.85.85,0,0,0-.4-.77.47.47,0,0,0-.6.18l-5.73,7.27V17.86a.83.83,0,0,0-.39-.76A.49.49,0,0,0,39.74,17.05Z"/>
      </g>
      <g>
        <path d="M32.37,16.87l-4.44,5.64a1.35,1.35,0,0,0,0,1.64.82.82,0,0,0,1.34,0l2.8-3.56v5.8a1,1,0,1,0,1.9,0V17.68a1.2,1.2,0,0,0-.59-1.08A.83.83,0,0,0,32.37,16.87Z"/>
        <path d="M33.05,27.88a1.42,1.42,0,0,1-1.3-1.52V21.59l-2.17,2.75a1.19,1.19,0,0,1-1.89,0,1.7,1.7,0,0,1,0-2.09l4.43-5.64a1.18,1.18,0,0,1,1.47-.37,1.55,1.55,0,0,1,.79,1.4v8.68A1.42,1.42,0,0,1,33.05,27.88Zm-.59-8.34v6.82c0,.44.27.81.59.81s.59-.36.59-.81V17.68a.82.82,0,0,0-.39-.76.48.48,0,0,0-.61.17l-4.43,5.64a1,1,0,0,0,0,1.2.54.54,0,0,0,.39.2h0a.56.56,0,0,0,.4-.23Z"/>
      </g>
      <g>
        <path d="M53.47,21a1,1,0,0,0-.87-.71H50.66l1.42-1.8s.73-1.08.08-1.67a1.16,1.16,0,0,0-1.45,0l-3,3.78a1.36,1.36,0,0,0-.18,1.26,1,1,0,0,0,.87.71h1.94l-2.3,2.92s-1,1-.25,1.74,1.62-.13,1.62-.13l3.84-4.89A1.34,1.34,0,0,0,53.47,21Z"/>
        <path d="M48.47,27.94a1.23,1.23,0,0,1-.9-.38c-.74-.75-.17-1.79.24-2.23L49.64,23H48.43a1.31,1.31,0,0,1-1.21-.95,1.69,1.69,0,0,1,.25-1.59l3-3.83a1.47,1.47,0,0,1,1.91,0c.69.63.31,1.64,0,2.13l-1,1.25H52.6a1.31,1.31,0,0,1,1.21.94,1.72,1.72,0,0,1-.25,1.6L49.72,27.4A2,2,0,0,1,48.47,27.94ZM51,17.16,48,20.9a1,1,0,0,0-.13.92.61.61,0,0,0,.54.47H51.1l-2.75,3.49s-.73.82-.28,1.27,1.06-.07,1.13-.13L53,22.07a1,1,0,0,0,.13-.92h0a.63.63,0,0,0-.54-.47H49.93L51.8,18.3h0s.53-.82.12-1.19A.76.76,0,0,0,51,17.16Z"/>
      </g>
    </g>
    <g>
      <path d="M11,344.78h-4V338.3h1.6v4.93H11Z"/>
      <path d="M13.49,344.78h-1.6V338.3h1.6Z"/>
      <path d="M18.54,342.89a2.1,2.1,0,0,1-.25,1.06,1.7,1.7,0,0,1-.71.67,2.26,2.26,0,0,1-1,.24l-.4,0a3.13,3.13,0,0,1-.64-.14,4.61,4.61,0,0,1-.82-.34v-1.59a4.93,4.93,0,0,0,.79.5,1.7,1.7,0,0,0,.83.2c.27,0,.45,0,.53-.16a.52.52,0,0,0-.09-.75,2.23,2.23,0,0,0-.6-.37,5,5,0,0,1-.76-.49,2.17,2.17,0,0,1-.54-.66,2,2,0,0,1-.21-.94,2.11,2.11,0,0,1,.21-.95,1.65,1.65,0,0,1,.64-.67,2.06,2.06,0,0,1,1.06-.26,3,3,0,0,1,.82.11,2.87,2.87,0,0,1,.62.24,1.66,1.66,0,0,1,.34.2v1.52a4.66,4.66,0,0,0-.72-.51,1.75,1.75,0,0,0-.86-.22.54.54,0,0,0-.43.14.46.46,0,0,0-.14.34.45.45,0,0,0,.14.33,2,2,0,0,0,.48.34c.4.24.73.45,1,.63a2.32,2.32,0,0,1,.57.65A1.83,1.83,0,0,1,18.54,342.89Z"/>
      <path d="M24.71,339.88H22.77v4.9h-1.6v-4.9H19.23V338.3h5.48Z"/>
      <path d="M29.65,344.78h-4V338.3h3.93v1.3H27.25v1.19h2.22v1.3H27.25v1.38h2.4Z"/>
      <path d="M36.48,344.78H35.05l-2.75-3.61v3.61H30.72V338.3h1.42l2.74,3.59V338.3h1.6Z"/>
      <path d="M45.66,341.88a3.52,3.52,0,0,1-.25,1.41,2.44,2.44,0,0,1-.68.93,2.65,2.65,0,0,1-.9.49,3.21,3.21,0,0,1-2.28-.13,2.4,2.4,0,0,1-1.06-.95,3.17,3.17,0,0,1-.43-1.75V338.3h1.59v3.07a3.15,3.15,0,0,0,.16,1.06,1.23,1.23,0,0,0,.42.61,1.09,1.09,0,0,0,1.26,0,1.2,1.2,0,0,0,.42-.6,3.18,3.18,0,0,0,.15-1.06V338.3h1.6Z"/>
      <path d="M51.51,340.34a2.37,2.37,0,0,1-.1.7,2,2,0,0,1-.33.64,1.56,1.56,0,0,1-.61.48,2,2,0,0,1-.9.19h-1v2.43h-1.6V338.3h2.65a2.13,2.13,0,0,1,.9.19,1.67,1.67,0,0,1,.61.49,2,2,0,0,1,.33.65A2.44,2.44,0,0,1,51.51,340.34Zm-1.63,0a.74.74,0,0,0-.22-.63,1.35,1.35,0,0,0-.81-.17h-.33v1.56h.34a1.92,1.92,0,0,0,.61-.07.46.46,0,0,0,.31-.22A.89.89,0,0,0,49.88,340.35Z"/>
    </g>
    <g>
      <path d="M16.84,259.59h-4V253.5h1.58v4.63h2.4Z"/>
      <path d="M21.48,257.74H18.77a1.24,1.24,0,0,0,.39.67,1.07,1.07,0,0,0,.7.25,3.2,3.2,0,0,0,1.52-.44v1a3.45,3.45,0,0,1-.72.32,3.26,3.26,0,0,1-1.08.15,2.2,2.2,0,0,1-1.21-.31,1.94,1.94,0,0,1-.75-.83,2.86,2.86,0,0,1-.25-1.2,2.8,2.8,0,0,1,.25-1.18,1.89,1.89,0,0,1,.75-.81,2.29,2.29,0,0,1,1.21-.3,1.84,1.84,0,0,1,.9.24,1.77,1.77,0,0,1,.72.76,3,3,0,0,1,.28,1.38ZM20.2,257a1.18,1.18,0,0,0-.18-.69.61.61,0,0,0-.53-.26.69.69,0,0,0-.55.26,1.07,1.07,0,0,0-.21.69Z"/>
      <path d="M24.73,254.64a2,2,0,0,0-.5-.09.41.41,0,0,0-.35.17.8.8,0,0,0-.12.47v.16h.69v1.07h-.69v3.17H22.4v-3.17h-.63v-1.07h.63v-.08a2.64,2.64,0,0,1,.15-.89,1.5,1.5,0,0,1,.53-.69,1.56,1.56,0,0,1,1-.27,3.25,3.25,0,0,1,.69.08Z"/>
      <path d="M28,259.33a2.58,2.58,0,0,1-.58.23,2.67,2.67,0,0,1-.71.11c-1,0-1.47-.55-1.47-1.67v-1.78h-.62v-.28l1.83-2.16h.15v1.34h1.3v1.1h-1.3v1.43a2.1,2.1,0,0,0,0,.4.35.35,0,0,0,.15.26.55.55,0,0,0,.37.1,1.77,1.77,0,0,0,.85-.31Z"/>
      <path d="M36.77,256.54a3.72,3.72,0,0,1-.34,1.57,2.66,2.66,0,0,1-1,1.14,3,3,0,0,1-1.63.42,2.87,2.87,0,0,1-1.64-.44,2.71,2.71,0,0,1-1-1.15,3.64,3.64,0,0,1-.33-1.54,3.56,3.56,0,0,1,.33-1.53,2.59,2.59,0,0,1,1-1.15,2.85,2.85,0,0,1,1.64-.44,3.17,3.17,0,0,1,1.3.25,2.58,2.58,0,0,1,.93.68,3,3,0,0,1,.56,1A3.85,3.85,0,0,1,36.77,256.54Zm-1.61,0a2,2,0,0,0-.09-.62,1.58,1.58,0,0,0-.26-.5,1.24,1.24,0,0,0-.43-.32,1.38,1.38,0,0,0-.59-.12,1.28,1.28,0,0,0-1,.43,1.72,1.72,0,0,0-.36,1.13,1.64,1.64,0,0,0,.37,1.13,1.22,1.22,0,0,0,1,.44,1.34,1.34,0,0,0,.74-.2,1.29,1.29,0,0,0,.47-.56A2,2,0,0,0,35.16,256.54Z"/>
      <path d="M41.58,259.59H40.21V259a2.08,2.08,0,0,1-.6.53,1.5,1.5,0,0,1-.76.18,1.1,1.1,0,0,1-1.13-.59,3.32,3.32,0,0,1-.25-1.33v-2.63h1.36v2.42a1.83,1.83,0,0,0,.1.64.44.44,0,0,0,.46.27.6.6,0,0,0,.47-.2,3.09,3.09,0,0,0,.35-.5v-2.63h1.37Z"/>
      <path d="M45.48,259.33a2.58,2.58,0,0,1-.58.23,2.67,2.67,0,0,1-.71.11c-1,0-1.47-.55-1.47-1.67v-1.78H42.1v-.28l1.83-2.16h.15v1.34h1.3v1.1h-1.3v1.43a2.1,2.1,0,0,0,0,.4.43.43,0,0,0,.15.26.55.55,0,0,0,.37.1,1.77,1.77,0,0,0,.85-.31Z"/>
      <path d="M20.51,261.76a4.82,4.82,0,0,0-.73,1.45,6.05,6.05,0,0,0-.25,1.77,5.76,5.76,0,0,0,.25,1.76,4.65,4.65,0,0,0,.73,1.46H20a4.32,4.32,0,0,1-1-1.49,4.62,4.62,0,0,1,0-3.48,4.29,4.29,0,0,1,1-1.47Z"/>
      <path d="M21.82,263.34a1.54,1.54,0,0,1,.43.06,1.9,1.9,0,0,1,.42.19v.67a2.76,2.76,0,0,0-.44-.25,1.22,1.22,0,0,0-.42-.09.37.37,0,0,0-.25.07.24.24,0,0,0-.08.19.21.21,0,0,0,.07.15,4,4,0,0,0,.4.26,2.15,2.15,0,0,1,.66.51.85.85,0,0,1,.19.56,1,1,0,0,1-.27.73,1,1,0,0,1-.75.26,1.93,1.93,0,0,1-.55-.07,1.65,1.65,0,0,1-.42-.18v-.7a1.82,1.82,0,0,0,.89.34A.56.56,0,0,0,22,266a.22.22,0,0,0,.11-.2.23.23,0,0,0,0-.14.68.68,0,0,0-.12-.13l-.52-.31a1.45,1.45,0,0,1-.49-.4.85.85,0,0,1-.15-.51.87.87,0,0,1,.28-.68A1.08,1.08,0,0,1,21.82,263.34Z"/>
      <path d="M24.11,262.55h.06v.85h.94V264h-.94v1.47a.56.56,0,0,0,.11.35.39.39,0,0,0,.31.13,1.11,1.11,0,0,0,.58-.21v.67a1.52,1.52,0,0,1-.73.2.91.91,0,0,1-.73-.29,1.18,1.18,0,0,1-.26-.8V264H23v-.14Z"/>
      <path d="M26.81,263.34a1.17,1.17,0,0,1,1,.45,2,2,0,0,1,.35,1.25v.12H26.18a1.06,1.06,0,0,0,.27.66.85.85,0,0,0,.64.23,1.24,1.24,0,0,0,.5-.1,2.15,2.15,0,0,0,.49-.32v.63a1.8,1.8,0,0,1-1.17.39,1.37,1.37,0,0,1-1.06-.45,1.75,1.75,0,0,1-.41-1.21,1.83,1.83,0,0,1,.38-1.19A1.2,1.2,0,0,1,26.81,263.34Zm.63,1.32a1,1,0,0,0-.18-.55.5.5,0,0,0-.42-.2.58.58,0,0,0-.44.19,1,1,0,0,0-.21.56Z"/>
      <path d="M30.26,263.34a.55.55,0,0,1,.28.07,1.6,1.6,0,0,1,.33.26l-.26.73a.9.9,0,0,0-.51-.27.53.53,0,0,0-.33.14,1.11,1.11,0,0,0-.26.39,1.37,1.37,0,0,0-.1.48v1.45h-.72V263.4h.72v.81h0a2.46,2.46,0,0,1,.4-.66A.61.61,0,0,1,30.26,263.34Z"/>
      <path d="M32.31,263.34a1.14,1.14,0,0,1,1,.45,2,2,0,0,1,.36,1.25v.12h-2a1,1,0,0,0,.28.66.82.82,0,0,0,.63.23,1.24,1.24,0,0,0,.5-.1,2.44,2.44,0,0,0,.5-.32v.63a1.83,1.83,0,0,1-1.17.39,1.39,1.39,0,0,1-1.07-.45,1.75,1.75,0,0,1-.41-1.21,1.83,1.83,0,0,1,.38-1.19A1.23,1.23,0,0,1,32.31,263.34Zm.64,1.32a1,1,0,0,0-.19-.55.5.5,0,0,0-.42-.2.56.56,0,0,0-.43.19,1,1,0,0,0-.22.56Z"/>
      <path d="M35.55,263.34a1.47,1.47,0,0,1,.78.21,1.32,1.32,0,0,1,.54.58,1.84,1.84,0,0,1,.2.85,2,2,0,0,1-.19.87,1.34,1.34,0,0,1-.54.59,1.57,1.57,0,0,1-1.57,0,1.4,1.4,0,0,1-.54-.59,2,2,0,0,1-.18-.87,1.8,1.8,0,0,1,.19-.85,1.38,1.38,0,0,1,.54-.58A1.49,1.49,0,0,1,35.55,263.34ZM34.81,265a1.35,1.35,0,0,0,.2.77.61.61,0,0,0,.54.28.65.65,0,0,0,.55-.27,1.25,1.25,0,0,0,.21-.78,1.16,1.16,0,0,0-.21-.75.65.65,0,0,0-.55-.27.64.64,0,0,0-.54.28A1.27,1.27,0,0,0,34.81,265Z"/>
      <path d="M37.82,261.76a4.18,4.18,0,0,1,.94,1.45,4.64,4.64,0,0,1,0,3.51,4.38,4.38,0,0,1-1,1.48h-.48a5.13,5.13,0,0,0,.74-1.48,6,6,0,0,0,.24-1.74,5.73,5.73,0,0,0-.25-1.77,4.71,4.71,0,0,0-.73-1.45Z"/>
    </g>
    <g>
      <path d="M15.4,279.32H13.7l-.41-1.08a4.67,4.67,0,0,0-.41-.86,1,1,0,0,0-.35-.36,1.18,1.18,0,0,0-.45-.07H11.9v2.37H10.32v-6.09H13a1.72,1.72,0,0,1,1.67,1.06,2.18,2.18,0,0,1,.18.83,1.81,1.81,0,0,1-.15.78,1.29,1.29,0,0,1-.33.47,2.84,2.84,0,0,1-.38.27,1.64,1.64,0,0,1,.42.41,5.8,5.8,0,0,1,.45.95Zm-2.15-4.16a.67.67,0,0,0-.24-.59,1.37,1.37,0,0,0-.77-.17H11.9v1.47h.34a1.52,1.52,0,0,0,.8-.15A.63.63,0,0,0,13.25,275.16Z"/>
      <path d="M17.32,279.32H16v-4.47h1.36Zm-.1-5.5a.67.67,0,0,1-.18.47.51.51,0,0,1-.69.1.5.5,0,0,1-.2-.23.81.81,0,0,1-.08-.34.71.71,0,0,1,.17-.47.5.5,0,0,1,.8,0A.67.67,0,0,1,17.22,273.82Z"/>
      <path d="M22.13,275.81h-.67a1.18,1.18,0,0,1,.35.88,1.39,1.39,0,0,1-.1.53,1.2,1.2,0,0,1-.29.45,1.7,1.7,0,0,1-.48.33,2.14,2.14,0,0,1-.65.15c-.32,0-.47.11-.47.29a.18.18,0,0,0,.06.16.5.5,0,0,0,.19.07l.44.05a4.15,4.15,0,0,1,.65.13,1.22,1.22,0,0,1,.56.37,1.09,1.09,0,0,1,.26.8,1.41,1.41,0,0,1-.19.74,1.3,1.3,0,0,1-.63.5,3,3,0,0,1-1.15.18,2.83,2.83,0,0,1-1.51-.32,1,1,0,0,1-.48-.86,1.05,1.05,0,0,1,.06-.33.82.82,0,0,1,.27-.37,1.3,1.3,0,0,1,.58-.24.48.48,0,0,1-.23-.22.61.61,0,0,1-.1-.34.88.88,0,0,1,.14-.46.64.64,0,0,1,.45-.3,1.61,1.61,0,0,1-.75-.49,1.41,1.41,0,0,1-.31-.95,1.86,1.86,0,0,1,.15-.77,1.27,1.27,0,0,1,.4-.53,1.75,1.75,0,0,1,.59-.31,2.57,2.57,0,0,1,.75-.1h2.11Zm-1.23,4.35a.36.36,0,0,0-.27-.38,1.77,1.77,0,0,0-.56-.09,1.45,1.45,0,0,0-.68.12.39.39,0,0,0-.21.37c0,.34.29.5.87.5a1.22,1.22,0,0,0,.62-.13A.41.41,0,0,0,20.9,280.16Zm-.27-3.6a.75.75,0,0,0-.2-.54.59.59,0,0,0-.44-.21.6.6,0,0,0-.5.25.86.86,0,0,0-.18.52.85.85,0,0,0,.08.35.56.56,0,0,0,.22.26.55.55,0,0,0,.34.1.59.59,0,0,0,.48-.22A.73.73,0,0,0,20.63,276.56Z"/>
      <path d="M26.73,279.32H25.37v-2.47a1.45,1.45,0,0,0-.12-.59.43.43,0,0,0-.44-.27.65.65,0,0,0-.46.2,2.69,2.69,0,0,0-.37.51v2.62H22.62v-6.09H24v2.26a2.08,2.08,0,0,1,.66-.57,1.69,1.69,0,0,1,.7-.15c.93,0,1.39.6,1.39,1.81Z"/>
      <path d="M30.58,279.07a2.74,2.74,0,0,1-.59.22,2.23,2.23,0,0,1-.71.11c-1,0-1.47-.55-1.47-1.67V276H27.2v-.28L29,273.51h.16v1.34h1.3V276h-1.3v1.43c0,.17,0,.3,0,.41a.41.41,0,0,0,.15.25.56.56,0,0,0,.37.11,1.84,1.84,0,0,0,.86-.32Z"/>
      <path d="M39.3,276.28a3.53,3.53,0,0,1-.34,1.56A2.63,2.63,0,0,1,38,279a3,3,0,0,1-1.63.42,2.9,2.9,0,0,1-1.65-.44,2.65,2.65,0,0,1-1-1.15,3.78,3.78,0,0,1-.32-1.53,3.63,3.63,0,0,1,.32-1.54,2.65,2.65,0,0,1,1-1.15,3,3,0,0,1,1.65-.44,3.13,3.13,0,0,1,1.29.25,2.62,2.62,0,0,1,.94.68,3,3,0,0,1,.55,1A3.68,3.68,0,0,1,39.3,276.28Zm-1.61,0a2.08,2.08,0,0,0-.09-.63,1.22,1.22,0,0,0-.26-.49,1.27,1.27,0,0,0-.43-.33,1.34,1.34,0,0,0-.58-.11,1.22,1.22,0,0,0-1,.43,1.68,1.68,0,0,0-.36,1.13,1.72,1.72,0,0,0,.36,1.13,1.23,1.23,0,0,0,1,.43,1.36,1.36,0,0,0,.74-.2,1.24,1.24,0,0,0,.46-.55A1.92,1.92,0,0,0,37.69,276.28Z"/>
      <path d="M44.11,279.32H42.75v-.63a2.13,2.13,0,0,1-.6.54,1.64,1.64,0,0,1-.76.17,1.09,1.09,0,0,1-1.13-.59,3.32,3.32,0,0,1-.26-1.33v-2.63h1.36v2.42a1.83,1.83,0,0,0,.11.64.43.43,0,0,0,.45.27.62.62,0,0,0,.48-.19,4.94,4.94,0,0,0,.35-.51v-2.63h1.36Z"/>
      <path d="M48,279.07a2.84,2.84,0,0,1-.58.22,2.34,2.34,0,0,1-.72.11c-1,0-1.47-.55-1.47-1.67V276h-.61v-.28l1.82-2.16h.16v1.34h1.3V276h-1.3v1.43c0,.17,0,.3,0,.41a.41.41,0,0,0,.15.25.59.59,0,0,0,.38.11,1.84,1.84,0,0,0,.85-.32Z"/>
    </g>
    <g>
      <path d="M20.49,90.51h-4V84.42h1.58v4.63h2.4Z"/>
      <path d="M25.14,88.65H22.43a1.13,1.13,0,0,0,1.09.93A3.26,3.26,0,0,0,25,89.13v1a3.86,3.86,0,0,1-.73.33,3.26,3.26,0,0,1-1.08.15A2.31,2.31,0,0,1,22,90.28a1.89,1.89,0,0,1-.74-.84A2.7,2.7,0,0,1,21,88.25a2.65,2.65,0,0,1,.25-1.18,1.84,1.84,0,0,1,.74-.82A2.31,2.31,0,0,1,23.23,86a1.86,1.86,0,0,1,.91.23,1.73,1.73,0,0,1,.71.77,2.91,2.91,0,0,1,.29,1.38Zm-1.28-.78a1.18,1.18,0,0,0-.18-.69.62.62,0,0,0-.53-.25.65.65,0,0,0-.55.26,1,1,0,0,0-.21.68Z"/>
      <path d="M28.38,85.55a2.21,2.21,0,0,0-.5-.08.37.37,0,0,0-.34.17.78.78,0,0,0-.12.47v.16h.68v1.07h-.68v3.17H26.05V87.34h-.63V86.27h.63v-.08a2.42,2.42,0,0,1,.16-.89,1.48,1.48,0,0,1,.52-.69,1.6,1.6,0,0,1,1-.28,2.71,2.71,0,0,1,.68.09Z"/>
      <path d="M31.7,90.25a3.3,3.3,0,0,1-.59.23,2.56,2.56,0,0,1-.71.11c-1,0-1.47-.56-1.47-1.67V87.13h-.62v-.27l1.83-2.17h.16V86h1.29v1.1H30.3v1.44a2.3,2.3,0,0,0,0,.4.46.46,0,0,0,.15.26.56.56,0,0,0,.37.1A1.87,1.87,0,0,0,31.7,89Z"/>
      <path d="M36.4,90.51H34.82V84.42H36.4Z"/>
      <path d="M41.61,90.51H40.25V88.1a2.11,2.11,0,0,0-.1-.65.44.44,0,0,0-.46-.27.54.54,0,0,0-.29.07.83.83,0,0,0-.23.19,1.63,1.63,0,0,0-.17.22l-.14.22v2.63H37.5V86h1.36v.65a1.91,1.91,0,0,1,.65-.56,1.53,1.53,0,0,1,.72-.16q1.38,0,1.38,1.92Z"/>
      <path d="M20.51,92.67a4.94,4.94,0,0,0-.73,1.45,6.1,6.1,0,0,0-.25,1.77,5.71,5.71,0,0,0,.25,1.76,4.82,4.82,0,0,0,.73,1.47H20a4.32,4.32,0,0,1-1-1.49,4.62,4.62,0,0,1,0-3.48,4.43,4.43,0,0,1,1-1.48Z"/>
      <path d="M21.82,94.25a1.54,1.54,0,0,1,.43.06,2.51,2.51,0,0,1,.42.19v.68a1.77,1.77,0,0,0-.44-.25,1.22,1.22,0,0,0-.42-.09.44.44,0,0,0-.25.06.26.26,0,0,0-.08.2.19.19,0,0,0,.07.14,2.48,2.48,0,0,0,.4.27,2.15,2.15,0,0,1,.66.51.83.83,0,0,1,.19.56.94.94,0,0,1-.27.72,1,1,0,0,1-.75.27,1.92,1.92,0,0,1-.55-.08,1.65,1.65,0,0,1-.42-.18v-.7a1.72,1.72,0,0,0,.89.34.56.56,0,0,0,.3-.07.23.23,0,0,0,.11-.21.2.2,0,0,0,0-.13.47.47,0,0,0-.12-.13c-.06,0-.23-.15-.52-.31a1.57,1.57,0,0,1-.49-.4.91.91,0,0,1-.15-.52.85.85,0,0,1,.28-.67A1.09,1.09,0,0,1,21.82,94.25Z"/>
      <path d="M24.11,93.47h.06v.85h.94V95h-.94v1.47a.54.54,0,0,0,.11.35.4.4,0,0,0,.31.14,1.06,1.06,0,0,0,.58-.22v.68a1.64,1.64,0,0,1-.73.2.94.94,0,0,1-.73-.29,1.2,1.2,0,0,1-.26-.8V95H23v-.14Z"/>
      <path d="M26.81,94.25a1.15,1.15,0,0,1,1,.46A2,2,0,0,1,28.12,96v.13H26.18a1.11,1.11,0,0,0,.27.66.9.9,0,0,0,.64.23,1.25,1.25,0,0,0,.5-.11,2.09,2.09,0,0,0,.49-.31v.62a1.75,1.75,0,0,1-1.17.4,1.37,1.37,0,0,1-1.06-.45,2,2,0,0,1,0-2.4A1.21,1.21,0,0,1,26.81,94.25Zm.63,1.32a1.09,1.09,0,0,0-.18-.55.5.5,0,0,0-.42-.19.55.55,0,0,0-.44.19,1,1,0,0,0-.21.55Z"/>
      <path d="M30.26,94.25a.57.57,0,0,1,.28.08,1.5,1.5,0,0,1,.33.25l-.26.74A.93.93,0,0,0,30.1,95a.49.49,0,0,0-.33.15,1.07,1.07,0,0,0-.26.38,1.37,1.37,0,0,0-.1.48v1.46h-.72V94.32h.72v.81h0a2.54,2.54,0,0,1,.4-.67A.61.61,0,0,1,30.26,94.25Z"/>
      <path d="M32.31,94.25a1.12,1.12,0,0,1,1,.46A1.93,1.93,0,0,1,33.63,96v.13h-2a1.06,1.06,0,0,0,.28.66.85.85,0,0,0,.63.23,1.25,1.25,0,0,0,.5-.11,2.35,2.35,0,0,0,.5-.31v.62a1.79,1.79,0,0,1-1.17.4,1.39,1.39,0,0,1-1.07-.45,2,2,0,0,1,0-2.4A1.24,1.24,0,0,1,32.31,94.25ZM33,95.57a1,1,0,0,0-.19-.55.5.5,0,0,0-.42-.19.53.53,0,0,0-.43.19.93.93,0,0,0-.22.55Z"/>
      <path d="M35.55,94.25a1.47,1.47,0,0,1,.78.21,1.34,1.34,0,0,1,.54.59,1.81,1.81,0,0,1,.2.85,2,2,0,0,1-.19.87,1.37,1.37,0,0,1-.54.58,1.49,1.49,0,0,1-2.11-.58,2,2,0,0,1-.18-.87,1.84,1.84,0,0,1,.19-.86,1.44,1.44,0,0,1,.54-.58A1.49,1.49,0,0,1,35.55,94.25Zm-.74,1.65a1.32,1.32,0,0,0,.2.76.62.62,0,0,0,.54.29.63.63,0,0,0,.55-.28,1.25,1.25,0,0,0,.21-.78,1.19,1.19,0,0,0-.21-.75.69.69,0,0,0-1.09,0A1.25,1.25,0,0,0,34.81,95.9Z"/>
      <path d="M37.82,92.67a4.23,4.23,0,0,1,.94,1.46,4.6,4.6,0,0,1,.35,1.76,4.68,4.68,0,0,1-.34,1.74,4.42,4.42,0,0,1-1,1.49h-.48a5.13,5.13,0,0,0,.74-1.48,6,6,0,0,0,.24-1.75,5.67,5.67,0,0,0-.25-1.76,4.76,4.76,0,0,0-.73-1.46Z"/>
    </g>
    <g>
      <path d="M19.05,175.61h-1.7l-.41-1.08a4.51,4.51,0,0,0-.41-.87.83.83,0,0,0-.35-.35,1.08,1.08,0,0,0-.44-.08h-.18v2.38H14v-6.09h2.69a1.69,1.69,0,0,1,1.66,1,2.19,2.19,0,0,1,.18.84,1.87,1.87,0,0,1-.15.78,1.47,1.47,0,0,1-.32.46,2.88,2.88,0,0,1-.38.28,1.56,1.56,0,0,1,.41.4,5.8,5.8,0,0,1,.45.95Zm-2.15-4.17a.69.69,0,0,0-.23-.59,1.41,1.41,0,0,0-.78-.17h-.33v1.47h.34a1.6,1.6,0,0,0,.79-.14A.66.66,0,0,0,16.9,171.44Z"/>
      <path d="M21,175.61H19.61v-4.48H21Zm-.11-5.51a.71.71,0,0,1-.17.47.52.52,0,0,1-.41.19.54.54,0,0,1-.28-.08.61.61,0,0,1-.21-.24.77.77,0,0,1-.08-.34.71.71,0,0,1,.17-.47.51.51,0,0,1,.81,0A.71.71,0,0,1,20.87,170.1Z"/>
      <path d="M25.79,172.09h-.68a1.19,1.19,0,0,1,.36.88,1.39,1.39,0,0,1-.1.53,1.37,1.37,0,0,1-.3.45,1.52,1.52,0,0,1-.48.33,2.07,2.07,0,0,1-.65.15c-.31,0-.47.11-.47.29a.21.21,0,0,0,.06.16.5.5,0,0,0,.19.07l.44.06a3.13,3.13,0,0,1,.65.12,1.25,1.25,0,0,1,.57.37,1.13,1.13,0,0,1,.26.8,1.39,1.39,0,0,1-.2.74,1.3,1.3,0,0,1-.63.5,3,3,0,0,1-1.14.18,2.8,2.8,0,0,1-1.51-.32,1,1,0,0,1-.49-.86.89.89,0,0,1,.07-.33.87.87,0,0,1,.26-.37,1.24,1.24,0,0,1,.59-.23.62.62,0,0,1-.24-.22.76.76,0,0,1-.09-.35.89.89,0,0,1,.13-.46.73.73,0,0,1,.45-.3,1.51,1.51,0,0,1-.74-.49,1.42,1.42,0,0,1-.32-.95,1.86,1.86,0,0,1,.15-.77,1.43,1.43,0,0,1,.4-.53,1.71,1.71,0,0,1,.6-.31,2.82,2.82,0,0,1,.74-.1h2.12Zm-1.24,4.35a.37.37,0,0,0-.27-.38,1.7,1.7,0,0,0-.55-.08,1.49,1.49,0,0,0-.69.11.39.39,0,0,0-.21.37c0,.34.29.5.87.5a1.34,1.34,0,0,0,.62-.12A.42.42,0,0,0,24.55,176.44Zm-.27-3.6a.72.72,0,0,0-.2-.54.59.59,0,0,0-.44-.21.58.58,0,0,0-.49.25.89.89,0,0,0-.18.52.81.81,0,0,0,.07.35.71.71,0,0,0,.22.26.57.57,0,0,0,.34.1.64.64,0,0,0,.49-.21A.76.76,0,0,0,24.28,172.84Z"/>
      <path d="M30.38,175.61H29v-2.48a1.44,1.44,0,0,0-.11-.59.45.45,0,0,0-.45-.26.59.59,0,0,0-.45.2,2.61,2.61,0,0,0-.38.5v2.63H26.27v-6.09h1.36v2.25a2.05,2.05,0,0,1,.67-.56,1.53,1.53,0,0,1,.7-.16c.92,0,1.38.61,1.38,1.81Z"/>
      <path d="M34.23,175.35a3.16,3.16,0,0,1-.58.23,2.67,2.67,0,0,1-.71.11c-1,0-1.47-.56-1.47-1.67v-1.79h-.62V172l1.83-2.16h.15v1.34h1.3v1.1h-1.3v1.43a2.22,2.22,0,0,0,0,.41.37.37,0,0,0,.15.26.61.61,0,0,0,.37.1,1.81,1.81,0,0,0,.85-.32Z"/>
      <path d="M38.94,175.61H37.36v-6.09h1.58Z"/>
      <path d="M44.15,175.61H42.79v-2.42a1.79,1.79,0,0,0-.11-.64.43.43,0,0,0-.45-.27.58.58,0,0,0-.3.07,1,1,0,0,0-.22.18,1.13,1.13,0,0,0-.17.23l-.14.22v2.63H40v-4.48H41.4v.64a2.14,2.14,0,0,1,.64-.56,1.73,1.73,0,0,1,.72-.16c.93,0,1.39.65,1.39,1.93Z"/>
    </g>
    <path d="M10.85,281.7s0,4.1,0,5.17a4,4,0,0,0,1.56,3.41l11,12.39" style="fill: none;stroke: #000;stroke-miterlimit: 10"/>
    <path d="M17.33,82.23s0-4.1,0-5.17a4,4,0,0,1,1.56-3.41l11-12.39" style="fill: none;stroke: #000;stroke-miterlimit: 10"/>
    <path d="M13.33,250.78s0-4.1,0-5.17a4,4,0,0,1,1.56-3.41l11-12.39" style="fill: none;stroke: #000;stroke-miterlimit: 10"/>
    <path d="M14.35,167.85s0-4.1,0-5.17a4,4,0,0,1,1.55-3.41c.87-1,11-12.39,11-12.39" style="fill: none;stroke: #000;stroke-miterlimit: 10"/>
  </g>
  <g id="components">
    <circle id="Right_Out" data-name="Right Out" cx="27.52" cy="309.37" r="17.01" style="fill: blue"/>
    <circle id="Left_Out" data-name="Left Out" cx="27.52" cy="224.79" r="17.01" style="fill: blue"/>
    <circle id="Right_In" data-name="Right In" cx="27.52" cy="140.07" r="17.01" style="fill: lime"/>
    <circle id="Left_In" data-name="Left In" cx="27.52" cy="55.14" r="17.01" style="fill: lime"/>
    <text id="slug" transform="translate(10.07 371.98)" style="font-size: 6px;font-family: MyriadPro-Regular, Myriad Pro"><tspan style="letter-spacing: -0.035970052083333336em">L</tspan><tspan x="2.62" y="0">UP</tspan></text>
    <text id="modulename" transform="translate(25.15 371.91)" style="font-size: 6px;font-family: MyriadPro-Regular, Myriad Pro">Lis<tspan x="6.61" y="0" style="letter-spacing: -0.006184895833333333em">t</tspan><tspan x="8.56" y="0">en UP</tspan></text>
  </g>
</svg>
