<svg xmlns="http://www.w3.org/2000/svg" width="76.29mm" height="130.85mm" viewBox="0 0 216.25 370.9">
  <g id="faceplate">
    <rect x="0.13" y="0.13" width="216" height="364.25" style="fill: #ededed;stroke: #9d9d9e;stroke-miterlimit: 10;stroke-width: 0.25px"/>
    <path d="M197.27,288.32H17.84v46.93c0,3.49,2.52,6.35,5.64,6.35H52.94l115.64-.46-5.28.46h29.47c3.11,0,5.64-2.86,5.64-6.35V288.32Z"/>
    <path d="M198.41,317.52V294.3H176.87c-7.49,0-13.57,7-13.57,15.71v31.86h29.47a5.67,5.67,0,0,0,5.64-5.67V317.52Z"/>
    <g>
      <path d="M176.82,334.27a1.65,1.65,0,0,1-.23.88,1.42,1.42,0,0,1-.64.57,2.12,2.12,0,0,1-.93.2l-.37,0-.57-.12a4.69,4.69,0,0,1-.74-.29v-1.33a4.88,4.88,0,0,0,.71.42,1.72,1.72,0,0,0,.75.17.6.6,0,0,0,.47-.14.39.39,0,0,0,.11-.26.47.47,0,0,0-.18-.37,3.11,3.11,0,0,0-.54-.31,3.81,3.81,0,0,1-.69-.41,1.59,1.59,0,0,1-.48-.55,1.5,1.5,0,0,1-.19-.78,1.59,1.59,0,0,1,.19-.79,1.39,1.39,0,0,1,.58-.57,2,2,0,0,1,1-.21,2.81,2.81,0,0,1,.73.09,2.57,2.57,0,0,1,.56.2,1.63,1.63,0,0,1,.3.17v1.27a3.86,3.86,0,0,0-.65-.43,1.69,1.69,0,0,0-.77-.19.52.52,0,0,0-.38.12.38.38,0,0,0-.12.29.38.38,0,0,0,.12.28,1.86,1.86,0,0,0,.43.28,9.18,9.18,0,0,1,.88.53,1.85,1.85,0,0,1,.51.54A1.41,1.41,0,0,1,176.82,334.27Z" style="fill: #ededed"/>
      <path d="M178.61,335.85h-1.24v-4h1.24Zm-.09-4.9a.61.61,0,0,1-.16.42.46.46,0,0,1-.37.17.48.48,0,0,1-.26-.07.67.67,0,0,1-.19-.22.73.73,0,0,1-.07-.3.59.59,0,0,1,.15-.41.49.49,0,0,1,.37-.18.47.47,0,0,1,.37.18A.6.6,0,0,1,178.52,331Z" style="fill: #ededed"/>
      <path d="M182.92,335.85h-1.23V333.7a1.66,1.66,0,0,0-.1-.57.39.39,0,0,0-.41-.24.6.6,0,0,0-.27.06.87.87,0,0,0-.21.17l-.15.19-.13.2v2.34h-1.23v-4h1.23v.57a2,2,0,0,1,.59-.5,1.55,1.55,0,0,1,.65-.14q1.26,0,1.26,1.71Z" style="fill: #ededed"/>
      <path d="M187,334.2h-2.46a1,1,0,0,0,.35.59,1,1,0,0,0,.64.23,3,3,0,0,0,1.38-.39v.87a4.18,4.18,0,0,1-.66.29,3,3,0,0,1-1,.13,2.11,2.11,0,0,1-1.1-.27,1.76,1.76,0,0,1-.68-.75,2.64,2.64,0,0,1,0-2.11,1.63,1.63,0,0,1,.68-.72,2.11,2.11,0,0,1,1.1-.27,1.72,1.72,0,0,1,.82.21,1.67,1.67,0,0,1,.66.68,2.61,2.61,0,0,1,.25,1.23Zm-1.16-.69a1.06,1.06,0,0,0-.17-.62.55.55,0,0,0-.48-.22.61.61,0,0,0-.5.23,1,1,0,0,0-.19.61Z" style="fill: #ededed"/>
    </g>
    <g>
      <path d="M88.92,357.38H87.08v-4.31l-1.66,2.5h-.15l-1.66-2.5v4.31H81.82v-7.44h1.67l1.87,2.79,1.89-2.79h1.67Z"/>
      <path d="M96.82,354.05a4.2,4.2,0,0,1-.29,1.63,2.79,2.79,0,0,1-.78,1.06,3.22,3.22,0,0,1-1,.57,3.89,3.89,0,0,1-1.11.17,3.79,3.79,0,0,1-1.51-.32,2.81,2.81,0,0,1-1.23-1.1,3.79,3.79,0,0,1-.49-2v-4.11h1.84v3.53a3.75,3.75,0,0,0,.17,1.21,1.48,1.48,0,0,0,.49.71,1.26,1.26,0,0,0,.73.22,1.2,1.2,0,0,0,.72-.22,1.37,1.37,0,0,0,.48-.7,3.47,3.47,0,0,0,.18-1.21v-3.54h1.84Z"/>
      <path d="M102.9,357.38H98.26v-7.44h1.84v5.66h2.8Z"/>
      <path d="M109.83,351.75h-2.24v5.63h-1.84v-5.63h-2.24v-1.81h6.32Z"/>
      <path d="M112.75,357.38h-1.84v-7.44h1.84Z"/>
      <path d="M121.61,357.38H117v-7.44h1.84v5.66h2.8Z"/>
      <path d="M127.05,354.37h-2.53v3h-1.84v-7.44h4.37v1.49h-2.53v1.44h2.53Z"/>
      <path d="M134.82,353.65a4.64,4.64,0,0,1-.39,1.92,3.27,3.27,0,0,1-1.18,1.39,3.31,3.31,0,0,1-1.9.52,3.28,3.28,0,0,1-1.91-.54,3.35,3.35,0,0,1-1.17-1.41,4.75,4.75,0,0,1-.38-1.88,4.66,4.66,0,0,1,.38-1.87,3.1,3.1,0,0,1,1.17-1.41,3.28,3.28,0,0,1,1.91-.54,3.6,3.6,0,0,1,1.51.31A3,3,0,0,1,134,351a3.67,3.67,0,0,1,.65,1.22A4.69,4.69,0,0,1,134.82,353.65Zm-1.88,0a2.59,2.59,0,0,0-.1-.76,1.88,1.88,0,0,0-.3-.6,1.48,1.48,0,0,0-.5-.4,1.52,1.52,0,0,0-.69-.14,1.4,1.4,0,0,0-1.16.52,2.14,2.14,0,0,0-.42,1.38,2.19,2.19,0,0,0,.42,1.39,1.43,1.43,0,0,0,1.16.53,1.45,1.45,0,0,0,1.41-.93A2.5,2.5,0,0,0,132.94,353.65Z"/>
    </g>
    <path d="M17.85,325.82v9.88a5.68,5.68,0,0,0,5.67,5.67H184.38c7.49,0,13.56-6,13.56-14.64V266.25l-.06-6.23c-.29-8.38-6.23-15.07-13.54-15.07H31.41c-7.31,0-13.25,6.69-13.54,15.07l-.06,6.23v-.86l.06,61.34" style="fill: none;stroke: #000;stroke-miterlimit: 10"/>
    <g>
      <path d="M103.58,116.07h-2.32l-.56-1.44a6.16,6.16,0,0,0-.56-1.15,1.17,1.17,0,0,0-.48-.47,1.46,1.46,0,0,0-.6-.11h-.25v3.17H96.66V108h3.66a2.34,2.34,0,0,1,2.28,1.41,3,3,0,0,1,.25,1.11,2.32,2.32,0,0,1-.21,1,1.9,1.9,0,0,1-.44.62,5.32,5.32,0,0,1-.52.37,2.1,2.1,0,0,1,.57.54,8,8,0,0,1,.61,1.27Zm-2.93-5.55a.88.88,0,0,0-.33-.79,2,2,0,0,0-1-.22h-.46v2h.47a2.11,2.11,0,0,0,1.08-.2A.85.85,0,0,0,100.65,110.52Z"/>
      <path d="M109.28,115.78c-.28.12-.53.21-.76.29a2.83,2.83,0,0,1-.83.11.86.86,0,0,1-.64-.19,1,1,0,0,1-.25-.44,3,3,0,0,1-.67.45,2.16,2.16,0,0,1-1,.18,1.67,1.67,0,0,1-.92-.23,1.27,1.27,0,0,1-.5-.56,2,2,0,0,1-.14-.71,1.6,1.6,0,0,1,.24-.91,2,2,0,0,1,.66-.59,9.33,9.33,0,0,1,1.09-.48l.59-.21.3-.11.2-.11a1.32,1.32,0,0,0-.15-.68c-.1-.16-.33-.24-.67-.24a2.22,2.22,0,0,0-1.13.3,4,4,0,0,0-1,.79v-1.62a3.44,3.44,0,0,1,.75-.46,4.12,4.12,0,0,1,.84-.27,4.48,4.48,0,0,1,.89-.09,2.55,2.55,0,0,1,1.71.5,1.73,1.73,0,0,1,.58,1.38v2.31a1.93,1.93,0,0,0,0,.49.22.22,0,0,0,.2.16,1.11,1.11,0,0,0,.48-.17Zm-2.59-1.15v-1.41a4.72,4.72,0,0,0-1,.55.81.81,0,0,0-.31.66.61.61,0,0,0,.16.45.46.46,0,0,0,.35.16.71.71,0,0,0,.38-.12A3,3,0,0,0,106.69,114.63Z"/>
      <path d="M113.58,115.73a4.12,4.12,0,0,1-.8.3,3.42,3.42,0,0,1-1,.15c-1.34,0-2-.74-2-2.23v-2.38H109v-.37l2.49-2.88h.21v1.79h1.78v1.46h-1.78v1.91a3.51,3.51,0,0,0,0,.54.57.57,0,0,0,.2.35.84.84,0,0,0,.51.13,2.52,2.52,0,0,0,1.17-.42Z"/>
      <path d="M119.35,113.6h-3.69a1.45,1.45,0,0,0,.53.89,1.48,1.48,0,0,0,1,.35,4.52,4.52,0,0,0,2.07-.6v1.31a5.15,5.15,0,0,1-1,.43,4.72,4.72,0,0,1-1.48.2,3.2,3.2,0,0,1-1.65-.41,2.58,2.58,0,0,1-1-1.11,3.58,3.58,0,0,1-.34-1.6,3.48,3.48,0,0,1,.34-1.57,2.47,2.47,0,0,1,1-1.09,3.3,3.3,0,0,1,1.65-.4,2.63,2.63,0,0,1,1.24.32,2.42,2.42,0,0,1,1,1,4,4,0,0,1,.38,1.84Zm-1.74-1a1.52,1.52,0,0,0-.25-.92.84.84,0,0,0-.72-.34.9.9,0,0,0-.75.35,1.38,1.38,0,0,0-.29.91Z"/>
    </g>
    <g>
      <path d="M165.59,120.57a2.3,2.3,0,0,1-.12.74,1.9,1.9,0,0,1-.36.67,1.92,1.92,0,0,1-.69.5,2.43,2.43,0,0,1-1,.19h-1.18v2.54h-1.8v-6.76h3a2.43,2.43,0,0,1,1,.19,1.83,1.83,0,0,1,.69.51,1.86,1.86,0,0,1,.36.68A2.34,2.34,0,0,1,165.59,120.57Zm-1.83,0a.78.78,0,0,0-.25-.66,1.64,1.64,0,0,0-.9-.18h-.38v1.64h.39a2.89,2.89,0,0,0,.68-.07.56.56,0,0,0,.35-.23A1,1,0,0,0,163.76,120.58Z"/>
      <path d="M175.88,118.45l-2.58,6.85h-1l-1.54-4-1.59,4h-1l-2.53-6.85h1.87l1.23,3.75,1.42-3.75h1.29l1.39,3.75,1.29-3.75Z"/>
      <path d="M183.28,125.21h-1.8v-3.92l-1.62,2.27h-.14l-1.62-2.27v3.92h-1.75v-6.76H178l1.83,2.53,1.84-2.53h1.63Z"/>
    </g>
    <path d="M171.86,79.22a19.76,19.76,0,0,0-2.45.17L169,77.17a21.32,21.32,0,0,1,5.68,0l-.39,2.22A19.76,19.76,0,0,0,171.86,79.22Z"/>
    <path d="M157.37,85.59l-1.73-1.45A22.06,22.06,0,0,1,160,80.48l1.12,1.94A20.2,20.2,0,0,0,157.37,85.59Z"/>
    <path d="M162.83,81.42l-1.12-1.94a21.49,21.49,0,0,1,5.34-2l.39,2.21A20.17,20.17,0,0,0,162.83,81.42Z"/>
    <path d="M153.63,91.36l-2.1-.77a22,22,0,0,1,2.83-4.92l1.73,1.45A19.88,19.88,0,0,0,153.63,91.36Z"/>
    <path d="M176.28,79.73l.39-2.21a21.87,21.87,0,0,1,5.34,2l-1.12,2A20.34,20.34,0,0,0,176.28,79.73Z"/>
    <path d="M152.14,98.05h-2.25a22,22,0,0,1,1-5.58l2.1.77A20.08,20.08,0,0,0,152.14,98.05Z"/>
    <path d="M153,104.85l-2.1.77a21.73,21.73,0,0,1-1-5.57h2.23A19.28,19.28,0,0,0,153,104.85Z"/>
    <path d="M156.15,110.93l-1.72,1.44a22.46,22.46,0,0,1-2.84-4.88l2.11-.76A19.63,19.63,0,0,0,156.15,110.93Z"/>
    <path d="M187.63,87.12l1.73-1.45a22,22,0,0,1,2.83,4.92l-2.1.76A19.81,19.81,0,0,0,187.63,87.12Z"/>
    <path d="M190.77,93.24l2.1-.77a21.46,21.46,0,0,1,1,5.58h-2.25A20.08,20.08,0,0,0,190.77,93.24Z"/>
    <path d="M191.59,100.05h2.23a21.57,21.57,0,0,1-1,5.56l-2.1-.76A19.28,19.28,0,0,0,191.59,100.05Z"/>
    <path d="M190,106.73l2.11.76a22.46,22.46,0,0,1-2.84,4.88l-1.72-1.44A19.87,19.87,0,0,0,190,106.73Z"/>
    <path d="M161.17,115.57l-1.12,1.94a22.2,22.2,0,0,1-4.32-3.62l1.71-1.43A20,20,0,0,0,161.17,115.57Z"/>
    <path d="M186.28,112.45l1.71,1.44a22.2,22.2,0,0,1-4.32,3.62l-1.12-1.94A19.37,19.37,0,0,0,186.28,112.45Z"/>
    <path d="M182.62,82.42l1.12-1.94a22.06,22.06,0,0,1,4.34,3.66l-1.73,1.45A20.2,20.2,0,0,0,182.62,82.42Z"/>
    <g>
      <path d="M36,121.62a2.33,2.33,0,0,1-.11.74,2.11,2.11,0,0,1-.37.67,1.88,1.88,0,0,1-.68.5,2.48,2.48,0,0,1-1,.19H32.64v2.54H30.85v-6.77h3a2.47,2.47,0,0,1,1,.2,1.79,1.79,0,0,1,.68.51,2.05,2.05,0,0,1,.37.68A2.33,2.33,0,0,1,36,121.62Zm-1.83,0a.75.75,0,0,0-.25-.66,1.62,1.62,0,0,0-.9-.18h-.38v1.63H33a3,3,0,0,0,.69-.06.56.56,0,0,0,.35-.23A1,1,0,0,0,34.17,121.63Z"/>
      <path d="M41.07,126.26H39.52v-2.75a1.54,1.54,0,0,0-.13-.65.51.51,0,0,0-.51-.3.7.7,0,0,0-.51.22,3.29,3.29,0,0,0-.43.56v2.92H36.4v-6.77h1.54V122a2.21,2.21,0,0,1,.76-.63,1.93,1.93,0,0,1,.79-.17c1,0,1.58.67,1.58,2Z"/>
      <path d="M46.18,126l-.63.25a2.31,2.31,0,0,1-.69.09.75.75,0,0,1-.53-.15,1,1,0,0,1-.22-.38,2.34,2.34,0,0,1-.55.38,1.81,1.81,0,0,1-.8.15,1.35,1.35,0,0,1-.77-.19.93.93,0,0,1-.41-.47,1.52,1.52,0,0,1-.12-.59,1.36,1.36,0,0,1,.2-.76,1.63,1.63,0,0,1,.55-.49,6.37,6.37,0,0,1,.91-.4l.49-.17.25-.1.17-.09a1.08,1.08,0,0,0-.13-.56c-.09-.14-.27-.21-.56-.21a1.91,1.91,0,0,0-.94.25,3.31,3.31,0,0,0-.8.66v-1.35a3.09,3.09,0,0,1,1.33-.6,3.65,3.65,0,0,1,.74-.08,2.12,2.12,0,0,1,1.43.42,1.47,1.47,0,0,1,.47,1.15v1.92a1.37,1.37,0,0,0,0,.41.16.16,0,0,0,.16.13,1,1,0,0,0,.4-.14Zm-2.15-1v-1.18a3.9,3.9,0,0,0-.81.46.66.66,0,0,0-.25.55.5.5,0,0,0,.13.38.37.37,0,0,0,.29.13.57.57,0,0,0,.32-.1Z"/>
      <path d="M49.73,124.81a1.44,1.44,0,0,1-.44,1.11,1.78,1.78,0,0,1-1.31.43,3.22,3.22,0,0,1-.86-.1,5.83,5.83,0,0,1-.82-.29v-1.25a5.15,5.15,0,0,0,.68.39,1.45,1.45,0,0,0,.63.13c.38,0,.58-.12.58-.36a.33.33,0,0,0-.09-.22,1.14,1.14,0,0,0-.29-.21c-.14-.08-.32-.18-.56-.29a2.26,2.26,0,0,1-.73-.57,1.37,1.37,0,0,1-.3-.89,1.41,1.41,0,0,1,.2-.71,1.51,1.51,0,0,1,.61-.56,2,2,0,0,1,1-.22l.35,0a4.64,4.64,0,0,1,.54.12,2.81,2.81,0,0,1,.62.26v1.22l-.23-.16-.25-.14a2.46,2.46,0,0,0-.36-.14,1.59,1.59,0,0,0-.43-.06.47.47,0,0,0-.37.12.39.39,0,0,0-.1.23.33.33,0,0,0,.11.23,1.54,1.54,0,0,0,.46.26,3.8,3.8,0,0,1,.82.46,1.32,1.32,0,0,1,.44.52A1.54,1.54,0,0,1,49.73,124.81Z"/>
      <path d="M54.71,124.2H51.62a1.27,1.27,0,0,0,.45.74,1.23,1.23,0,0,0,.8.29,3.77,3.77,0,0,0,1.72-.5v1.09a4.53,4.53,0,0,1-.82.37,4.17,4.17,0,0,1-1.23.16,2.56,2.56,0,0,1-1.37-.34,2.12,2.12,0,0,1-.85-.93,3,3,0,0,1-.28-1.33,2.93,2.93,0,0,1,.28-1.31,2,2,0,0,1,.85-.91,2.65,2.65,0,0,1,1.37-.33,2.25,2.25,0,0,1,1,.26,2.07,2.07,0,0,1,.82.86,3.22,3.22,0,0,1,.32,1.53Zm-1.46-.87a1.25,1.25,0,0,0-.21-.76.67.67,0,0,0-.59-.29.79.79,0,0,0-.63.29,1.17,1.17,0,0,0-.24.76Z"/>
    </g>
    <path d="M42.54,80.26a19.92,19.92,0,0,0-2.46.17l-.39-2.21a21.4,21.4,0,0,1,5.69,0L45,80.43A19.9,19.9,0,0,0,42.54,80.26Z"/>
    <path d="M28,86.64l-1.72-1.45a22.06,22.06,0,0,1,4.34-3.66l1.12,1.94A19.88,19.88,0,0,0,28,86.64Z"/>
    <path d="M33.51,82.47l-1.12-2a21.64,21.64,0,0,1,5.33-2l.39,2.21A19.35,19.35,0,0,0,33.51,82.47Z"/>
    <path d="M24.31,92.4l-2.1-.76A21.63,21.63,0,0,1,25,86.72l1.72,1.45A19.36,19.36,0,0,0,24.31,92.4Z"/>
    <path d="M47,80.78l.39-2.21a21.87,21.87,0,0,1,5.34,2l-1.13,2A19.19,19.19,0,0,0,47,80.78Z"/>
    <path d="M22.82,99.1H20.56a21.88,21.88,0,0,1,1-5.58l2.11.77A19.6,19.6,0,0,0,22.82,99.1Z"/>
    <path d="M23.69,105.9l-2.11.76a22,22,0,0,1-1-5.56h2.23A19.45,19.45,0,0,0,23.69,105.9Z"/>
    <path d="M26.82,112l-1.71,1.44a22.06,22.06,0,0,1-2.84-4.88l2.1-.77A20.57,20.57,0,0,0,26.82,112Z"/>
    <path d="M58.31,88.17,60,86.72a22,22,0,0,1,2.83,4.92l-2.1.76A19.81,19.81,0,0,0,58.31,88.17Z"/>
    <path d="M61.44,94.28l2.11-.76a21.81,21.81,0,0,1,1,5.58H62.25A19.22,19.22,0,0,0,61.44,94.28Z"/>
    <path d="M62.27,101.1H64.5a21.65,21.65,0,0,1-1,5.56l-2.1-.76A19.93,19.93,0,0,0,62.27,101.1Z"/>
    <path d="M60.7,107.77l2.11.77A22.46,22.46,0,0,1,60,113.42L58.25,112A19.7,19.7,0,0,0,60.7,107.77Z"/>
    <path d="M31.84,116.62l-1.11,1.94a21.91,21.91,0,0,1-4.32-3.62l1.71-1.44A19.62,19.62,0,0,0,31.84,116.62Z"/>
    <path d="M57,113.5l1.71,1.44a22.2,22.2,0,0,1-4.32,3.62l-1.12-1.94A19.68,19.68,0,0,0,57,113.5Z"/>
    <path d="M53.29,83.47l1.12-1.94a21.83,21.83,0,0,1,4.35,3.66L57,86.64A19.57,19.57,0,0,0,53.29,83.47Z"/>
    <g>
      <path d="M158.22,180.41a2.28,2.28,0,0,1-.12.73,1.82,1.82,0,0,1-.36.67,1.71,1.71,0,0,1-.69.5,2.43,2.43,0,0,1-1,.2h-1.18v2.54h-1.8v-6.77h3a2.43,2.43,0,0,1,1,.19,1.83,1.83,0,0,1,.69.51,2,2,0,0,1,.36.68A2.4,2.4,0,0,1,158.22,180.41Zm-1.83,0a.77.77,0,0,0-.25-.66,1.64,1.64,0,0,0-.9-.18h-.38v1.63h.39a3,3,0,0,0,.68-.06.61.61,0,0,0,.35-.24A.94.94,0,0,0,156.39,180.42Z"/>
      <path d="M168.51,178.28l-2.58,6.85h-1l-1.54-4-1.59,4h-1l-2.53-6.85H160l1.24,3.75,1.42-3.75H164l1.39,3.75,1.29-3.75Z"/>
      <path d="M175.91,185.05h-1.8v-3.92l-1.62,2.27h-.14l-1.62-2.27v3.92H169v-6.77h1.63l1.83,2.54,1.84-2.54h1.63Z"/>
      <path d="M184.65,184.54a3.65,3.65,0,0,1-.75.35,4.43,4.43,0,0,1-.78.19,5.47,5.47,0,0,1-.82,0,3.82,3.82,0,0,1-1.39-.24,2.89,2.89,0,0,1-1.07-.72,3.17,3.17,0,0,1-.68-1.11,4.2,4.2,0,0,1-.22-1.4,4,4,0,0,1,.26-1.53A3,3,0,0,1,180,179a3.1,3.1,0,0,1,1.09-.65,4.25,4.25,0,0,1,1.29-.2,6.33,6.33,0,0,1,2.3.51v1.8a5.46,5.46,0,0,0-.88-.52,2.25,2.25,0,0,0-1-.21,2.13,2.13,0,0,0-1,.23,1.82,1.82,0,0,0-1,1.69,1.91,1.91,0,0,0,.24.94,1.87,1.87,0,0,0,.66.68,2,2,0,0,0,1,.25,2.76,2.76,0,0,0,.82-.12,3.35,3.35,0,0,0,.65-.27,5.35,5.35,0,0,0,.54-.34Z"/>
      <path d="M191.34,178.28l-2.69,6.85h-1.18l-2.64-6.85h1.87l1.36,3.91,1.4-3.91Z"/>
    </g>
    <path d="M171.86,139.05a19.76,19.76,0,0,0-2.45.17L169,137a21.32,21.32,0,0,1,5.68,0l-.39,2.21A19.76,19.76,0,0,0,171.86,139.05Z"/>
    <path d="M157.37,145.42,155.64,144a22,22,0,0,1,4.34-3.65l1.12,1.94A19.77,19.77,0,0,0,157.37,145.42Z"/>
    <path d="M162.83,141.25l-1.12-1.94a22.31,22.31,0,0,1,5.34-2l.39,2.22A19.68,19.68,0,0,0,162.83,141.25Z"/>
    <path d="M153.63,151.19l-2.1-.77a22.16,22.16,0,0,1,2.83-4.91l1.73,1.45A19.81,19.81,0,0,0,153.63,151.19Z"/>
    <path d="M176.28,139.57l.39-2.22a21.89,21.89,0,0,1,5.34,2l-1.12,1.94A19.85,19.85,0,0,0,176.28,139.57Z"/>
    <path d="M152.14,157.88h-2.25a22,22,0,0,1,1-5.58l2.1.77A20.17,20.17,0,0,0,152.14,157.88Z"/>
    <path d="M153,164.68l-2.1.77a21.73,21.73,0,0,1-1-5.57h2.23A19.28,19.28,0,0,0,153,164.68Z"/>
    <path d="M156.15,170.76l-1.72,1.44a22.16,22.16,0,0,1-2.84-4.87l2.11-.77A19.39,19.39,0,0,0,156.15,170.76Z"/>
    <path d="M187.63,147l1.73-1.45a22.16,22.16,0,0,1,2.83,4.91l-2.1.77A19.81,19.81,0,0,0,187.63,147Z"/>
    <path d="M190.77,153.07l2.1-.77a21.53,21.53,0,0,1,1,5.58h-2.25A20.08,20.08,0,0,0,190.77,153.07Z"/>
    <path d="M191.59,159.88h2.23a21.73,21.73,0,0,1-1,5.57l-2.1-.77A19.28,19.28,0,0,0,191.59,159.88Z"/>
    <path d="M190,166.56l2.11.77a22.63,22.63,0,0,1-2.84,4.87l-1.72-1.44A19.63,19.63,0,0,0,190,166.56Z"/>
    <path d="M161.17,175.41l-1.12,1.93a22.15,22.15,0,0,1-4.32-3.61l1.71-1.44A20.06,20.06,0,0,0,161.17,175.41Z"/>
    <path d="M186.28,172.29l1.71,1.43a21.85,21.85,0,0,1-4.32,3.62l-1.12-1.93A19.74,19.74,0,0,0,186.28,172.29Z"/>
    <path d="M182.62,142.26l1.12-1.95a22.06,22.06,0,0,1,4.34,3.66l-1.73,1.45A19.77,19.77,0,0,0,182.62,142.26Z"/>
    <g>
      <path d="M29,179.36a2.28,2.28,0,0,1-.12.73,1.85,1.85,0,0,1-1.05,1.18,2.6,2.6,0,0,1-1,.19H25.6V184H23.8v-6.77h3a2.43,2.43,0,0,1,1,.2,1.81,1.81,0,0,1,.69.5,2,2,0,0,1,.36.68A2.45,2.45,0,0,1,29,179.36Zm-1.83,0a.78.78,0,0,0-.25-.66,1.64,1.64,0,0,0-.9-.18H25.6v1.63H26a3,3,0,0,0,.69-.06.57.57,0,0,0,.35-.24A.94.94,0,0,0,27.13,179.37Z"/>
      <path d="M34,184H32.47v-2.58a.13.13,0,0,1,0-.06v-.11a1.59,1.59,0,0,0-.14-.66.49.49,0,0,0-.5-.29.7.7,0,0,0-.52.22,2.56,2.56,0,0,0-.42.56V184H29.35v-6.77H30.9v2.51a2.1,2.1,0,0,1,.75-.63,2,2,0,0,1,.8-.17c1,0,1.57.67,1.57,2Z"/>
      <path d="M39.13,183.75a5.56,5.56,0,0,1-.62.24,2.11,2.11,0,0,1-.7.1.74.74,0,0,1-.53-.16.85.85,0,0,1-.21-.37,2.4,2.4,0,0,1-.56.38,1.81,1.81,0,0,1-.8.15,1.49,1.49,0,0,1-.77-.19,1.11,1.11,0,0,1-.41-.48,1.47,1.47,0,0,1-.12-.58,1.29,1.29,0,0,1,.21-.76,1.42,1.42,0,0,1,.54-.49,6.92,6.92,0,0,1,.91-.4l.49-.18.25-.09.17-.09a1,1,0,0,0-.13-.57c-.08-.13-.27-.2-.56-.2a1.84,1.84,0,0,0-.94.25,3.27,3.27,0,0,0-.79.66v-1.35a2.69,2.69,0,0,1,.62-.39,4.07,4.07,0,0,1,.7-.22,3.64,3.64,0,0,1,.74-.07,2.12,2.12,0,0,1,1.43.42,1.44,1.44,0,0,1,.48,1.15v1.92a1.36,1.36,0,0,0,0,.4.18.18,0,0,0,.17.14.88.88,0,0,0,.39-.14ZM37,182.8v-1.18a3.78,3.78,0,0,0-.8.46.65.65,0,0,0-.26.55.56.56,0,0,0,.13.38.43.43,0,0,0,.3.13.54.54,0,0,0,.31-.1A3.33,3.33,0,0,0,37,182.8Z"/>
      <path d="M42.69,182.55a1.51,1.51,0,0,1-.44,1.11,1.84,1.84,0,0,1-1.31.43,3.78,3.78,0,0,1-.87-.1,8.26,8.26,0,0,1-.82-.29v-1.25a5.88,5.88,0,0,0,.68.39,1.61,1.61,0,0,0,.63.13c.39,0,.58-.12.58-.36a.33.33,0,0,0-.08-.22,1.45,1.45,0,0,0-.3-.22c-.13-.08-.32-.17-.55-.28a2.18,2.18,0,0,1-.73-.58,1.32,1.32,0,0,1-.3-.88,1.3,1.3,0,0,1,.2-.71,1.42,1.42,0,0,1,.6-.56,2,2,0,0,1,1-.22l.35,0a2.93,2.93,0,0,1,.53.12,2.81,2.81,0,0,1,.62.26v1.22l-.23-.16a1.72,1.72,0,0,0-.25-.14,2.08,2.08,0,0,0-.36-.14,1.54,1.54,0,0,0-.43-.06.47.47,0,0,0-.36.11.36.36,0,0,0-.1.24.32.32,0,0,0,.1.23,1.81,1.81,0,0,0,.46.26,4.17,4.17,0,0,1,.83.46,1.51,1.51,0,0,1,.44.52A1.7,1.7,0,0,1,42.69,182.55Z"/>
      <path d="M47.66,181.94H44.58a1.27,1.27,0,0,0,1.24,1,3.8,3.8,0,0,0,1.73-.5v1.09a4.68,4.68,0,0,1-.83.36,3.83,3.83,0,0,1-1.23.17,2.61,2.61,0,0,1-1.37-.35,2.1,2.1,0,0,1-.85-.92,3,3,0,0,1-.28-1.33,2.9,2.9,0,0,1,.28-1.31,2.08,2.08,0,0,1,.85-.91,2.7,2.7,0,0,1,1.37-.33,2.22,2.22,0,0,1,1,.26,2,2,0,0,1,.82.86,3.22,3.22,0,0,1,.32,1.53Zm-1.45-.87a1.28,1.28,0,0,0-.21-.77.7.7,0,0,0-.6-.28.79.79,0,0,0-.63.29,1.15,1.15,0,0,0-.23.76Z"/>
      <path d="M55.91,183.49a3.65,3.65,0,0,1-.75.35,4.43,4.43,0,0,1-.78.19,5.46,5.46,0,0,1-.82.06,3.82,3.82,0,0,1-1.39-.25,2.89,2.89,0,0,1-1.07-.72,3.17,3.17,0,0,1-.68-1.11,4.2,4.2,0,0,1-.22-1.4,4,4,0,0,1,.26-1.53,3,3,0,0,1,1.84-1.73,4,4,0,0,1,1.29-.21,6.33,6.33,0,0,1,2.3.51v1.8a6.32,6.32,0,0,0-.88-.52,2.25,2.25,0,0,0-1-.21,2.13,2.13,0,0,0-1,.23,1.82,1.82,0,0,0-1,1.69,1.91,1.91,0,0,0,.24.94,1.87,1.87,0,0,0,.66.68,2,2,0,0,0,1,.25,2.76,2.76,0,0,0,.82-.12,3.35,3.35,0,0,0,.65-.27,4,4,0,0,0,.54-.34Z"/>
      <path d="M62.6,177.23l-2.69,6.86H58.73l-2.64-6.86H58l1.36,3.91,1.4-3.91Z"/>
    </g>
    <path d="M42.86,138a19.76,19.76,0,0,0-2.45.17L40,136a21.32,21.32,0,0,1,5.68,0l-.39,2.21A19.76,19.76,0,0,0,42.86,138Z"/>
    <path d="M28.37,144.37l-1.73-1.45A22.35,22.35,0,0,1,31,139.27l1.12,1.94A20.14,20.14,0,0,0,28.37,144.37Z"/>
    <path d="M33.83,140.2l-1.12-1.94a22.31,22.31,0,0,1,5.34-2l.39,2.22A19.68,19.68,0,0,0,33.83,140.2Z"/>
    <path d="M24.63,150.14l-2.1-.76a22,22,0,0,1,2.83-4.92l1.73,1.45A19.81,19.81,0,0,0,24.63,150.14Z"/>
    <path d="M47.28,138.52l.39-2.22a22.31,22.31,0,0,1,5.34,2l-1.12,1.94A19.85,19.85,0,0,0,47.28,138.52Z"/>
    <path d="M23.14,156.84H20.89a21.81,21.81,0,0,1,1-5.58L24,152A20.17,20.17,0,0,0,23.14,156.84Z"/>
    <path d="M24,163.63l-2.1.77a21.65,21.65,0,0,1-1-5.56h2.23A19.29,19.29,0,0,0,24,163.63Z"/>
    <path d="M27.15,169.72l-1.72,1.43a22.16,22.16,0,0,1-2.84-4.87l2.11-.77A19.7,19.7,0,0,0,27.15,169.72Z"/>
    <path d="M58.63,145.91l1.73-1.45a22.16,22.16,0,0,1,2.83,4.91l-2.1.77A19.81,19.81,0,0,0,58.63,145.91Z"/>
    <path d="M61.77,152l2.1-.77a21.53,21.53,0,0,1,1,5.58H62.58A20.08,20.08,0,0,0,61.77,152Z"/>
    <path d="M62.59,158.83h2.23a21.73,21.73,0,0,1-1,5.57l-2.1-.77A19.28,19.28,0,0,0,62.59,158.83Z"/>
    <path d="M61,165.51l2.11.77a22.16,22.16,0,0,1-2.84,4.87l-1.72-1.44A19.39,19.39,0,0,0,61,165.51Z"/>
    <path d="M32.17,174.36l-1.12,1.93a21.8,21.8,0,0,1-4.32-3.61l1.71-1.44A19.68,19.68,0,0,0,32.17,174.36Z"/>
    <path d="M57.28,171.24,59,172.68a21.8,21.8,0,0,1-4.32,3.61l-1.12-1.93A19.37,19.37,0,0,0,57.28,171.24Z"/>
    <path d="M53.62,141.21l1.12-2a22.4,22.4,0,0,1,4.34,3.66l-1.73,1.45A19.77,19.77,0,0,0,53.62,141.21Z"/>
    <g>
      <path d="M113.74,8.07l-5.53,7v-6a1.29,1.29,0,0,0-.64-1.17.89.89,0,0,0-1.13.29l-7.28,9.25a1.49,1.49,0,0,0,0,1.79.91.91,0,0,0,1.46,0l5.5-7v6a1.29,1.29,0,0,0,.64,1.17.91.91,0,0,0,1.14-.3l5.53-7v6.16a1.05,1.05,0,1,0,2.06,0V9a1.29,1.29,0,0,0-.65-1.18A.91.91,0,0,0,113.74,8.07Z" style="stroke: #000;stroke-width: 0.6000000000000001px"/>
      <path d="M99.16,8l-4.81,6.12a1.47,1.47,0,0,0,0,1.79.9.9,0,0,0,1.46,0l3-3.87v6.31a1.05,1.05,0,1,0,2.06,0V8.87a1.29,1.29,0,0,0-.65-1.17A.91.91,0,0,0,99.16,8Z" style="stroke: #000;stroke-width: 0.6000000000000001px"/>
      <path d="M122.11,12.52a1,1,0,0,0-1-.78h-2.1l1.53-2s.8-1.17.1-1.82a1.27,1.27,0,0,0-1.58.06l-3.23,4.1a1.47,1.47,0,0,0-.2,1.38,1.05,1.05,0,0,0,.95.77h2.1l-2.49,3.17s-1,1.13-.27,1.89,1.75-.14,1.75-.14l4.18-5.31A1.48,1.48,0,0,0,122.11,12.52Z" style="stroke: #000;stroke-width: 0.6000000000000001px"/>
    </g>
    <path d="M17.85,271.09V280l0,9a5.66,5.66,0,0,0,5.64,5.67H192.31A5.67,5.67,0,0,0,198,289V270" style="fill: #ededed;stroke: #000;stroke-miterlimit: 10"/>
    <g>
      <path d="M31.65,288.59H30.11l-.38-1a3.7,3.7,0,0,0-.37-.77.77.77,0,0,0-.32-.31.93.93,0,0,0-.4-.07h-.16v2.11H27v-5.41h2.44a1.61,1.61,0,0,1,1,.27,1.58,1.58,0,0,1,.55.66,1.91,1.91,0,0,1,.16.75,1.47,1.47,0,0,1-.14.69,1.17,1.17,0,0,1-.29.41,2.41,2.41,0,0,1-.35.25,1.31,1.31,0,0,1,.38.36,4.48,4.48,0,0,1,.41.85Zm-1.95-3.7a.59.59,0,0,0-.22-.53,1.27,1.27,0,0,0-.7-.14h-.3v1.3h.31a1.36,1.36,0,0,0,.72-.13A.58.58,0,0,0,29.7,284.89Z"/>
      <path d="M35.41,286.94H32.94a1,1,0,0,0,.36.6,1,1,0,0,0,.64.23,3.08,3.08,0,0,0,1.38-.4v.87a3.42,3.42,0,0,1-.66.29,3,3,0,0,1-1,.13,2.11,2.11,0,0,1-1.1-.27,1.67,1.67,0,0,1-.68-.74,2.47,2.47,0,0,1-.23-1.07,2.38,2.38,0,0,1,.23-1.05,1.63,1.63,0,0,1,.68-.72,2.11,2.11,0,0,1,1.1-.27,1.72,1.72,0,0,1,.82.21,1.62,1.62,0,0,1,.65.69,2.54,2.54,0,0,1,.26,1.22Zm-1.16-.69a1,1,0,0,0-.17-.61.54.54,0,0,0-.48-.23.6.6,0,0,0-.5.23.91.91,0,0,0-.19.61Z"/>
      <path d="M38.47,287.43a1.16,1.16,0,0,1-.35.89,1.43,1.43,0,0,1-1,.34,2.84,2.84,0,0,1-.69-.08,4.77,4.77,0,0,1-.66-.23v-1a3.62,3.62,0,0,0,.55.31,1.18,1.18,0,0,0,.5.11c.31,0,.47-.1.47-.29a.29.29,0,0,0-.07-.18,1.16,1.16,0,0,0-.24-.17l-.44-.23a1.62,1.62,0,0,1-.58-.46,1,1,0,0,1-.25-.7,1.17,1.17,0,0,1,.16-.57,1.13,1.13,0,0,1,.49-.45,1.55,1.55,0,0,1,.78-.18l.28,0a2.55,2.55,0,0,1,.43.09,2.33,2.33,0,0,1,.49.21v1l-.18-.13-.2-.11a1.6,1.6,0,0,0-.29-.11,1,1,0,0,0-.34-.05.4.4,0,0,0-.3.09.32.32,0,0,0-.07.19.23.23,0,0,0,.08.18,1.11,1.11,0,0,0,.37.21,3.3,3.3,0,0,1,.66.37,1.14,1.14,0,0,1,.35.42A1.22,1.22,0,0,1,38.47,287.43Z"/>
      <path d="M42.45,286.94H40a1,1,0,0,0,.35.6,1,1,0,0,0,.64.23,3.05,3.05,0,0,0,1.38-.4v.87a3.42,3.42,0,0,1-.66.29,3,3,0,0,1-1,.13,2.11,2.11,0,0,1-1.1-.27,1.73,1.73,0,0,1-.68-.74,2.47,2.47,0,0,1-.23-1.07,2.38,2.38,0,0,1,.23-1.05,1.69,1.69,0,0,1,.68-.72,2.11,2.11,0,0,1,1.1-.27,1.72,1.72,0,0,1,.82.21,1.56,1.56,0,0,1,.65.69,2.54,2.54,0,0,1,.26,1.22Zm-1.16-.69a1,1,0,0,0-.17-.61.54.54,0,0,0-.48-.23.61.61,0,0,0-.5.23,1,1,0,0,0-.19.61Z"/>
      <path d="M45.54,288.36a2.58,2.58,0,0,1-.53.2,2.24,2.24,0,0,1-.65.1c-.89,0-1.34-.49-1.34-1.48v-1.59h-.56v-.24l1.66-1.93h.14v1.19h1.18v1H44.26v1.27a1.73,1.73,0,0,0,0,.36.36.36,0,0,0,.13.23.55.55,0,0,0,.34.09,1.64,1.64,0,0,0,.78-.28Z"/>
    </g>
    <g>
      <path d="M79.09,284.88a2,2,0,0,1-.09.59,1.57,1.57,0,0,1-.85.94,2,2,0,0,1-.81.15H76.4v2H75v-5.41h2.38a2,2,0,0,1,.81.15,1.47,1.47,0,0,1,.55.41,1.61,1.61,0,0,1,.3.54A2.08,2.08,0,0,1,79.09,284.88Zm-1.47,0a.59.59,0,0,0-.2-.53,1.26,1.26,0,0,0-.72-.14h-.3v1.3h.31a2.51,2.51,0,0,0,.55,0,.44.44,0,0,0,.28-.19A.81.81,0,0,0,77.62,284.89Z"/>
      <path d="M87.32,283.18l-2.06,5.48h-.83l-1.24-3.19-1.27,3.19h-.84l-2-5.48h1.49l1,3,1.13-3h1l1.11,3,1-3Z"/>
      <path d="M93.24,288.59H91.8v-3.14l-1.29,1.82h-.12l-1.3-1.82v3.14H87.7v-5.41H89l1.47,2,1.47-2h1.3Z"/>
    </g>
    <g>
      <path d="M174.76,284.88a2,2,0,0,1-.09.59,1.65,1.65,0,0,1-.3.53,1.47,1.47,0,0,1-.55.41,2,2,0,0,1-.81.15h-.94v2h-1.44v-5.41H173a2,2,0,0,1,.81.15,1.47,1.47,0,0,1,.55.41,1.81,1.81,0,0,1,.3.54A2.08,2.08,0,0,1,174.76,284.88Zm-1.47,0a.59.59,0,0,0-.2-.53,1.26,1.26,0,0,0-.72-.14h-.3v1.3h.31a2.51,2.51,0,0,0,.55,0,.44.44,0,0,0,.28-.19A.81.81,0,0,0,173.29,284.89Z"/>
      <path d="M178.81,288.59h-1.24v-2.2a1.27,1.27,0,0,0-.1-.52.42.42,0,0,0-.41-.24.55.55,0,0,0-.41.18,2.4,2.4,0,0,0-.34.45v2.33h-1.24v-5.41h1.24v2a1.77,1.77,0,0,1,.6-.5,1.53,1.53,0,0,1,.64-.14c.84,0,1.26.54,1.26,1.61Z"/>
      <path d="M182.9,288.39c-.18.08-.35.15-.5.2a1.86,1.86,0,0,1-.56.07.59.59,0,0,1-.42-.12.75.75,0,0,1-.18-.3,1.9,1.9,0,0,1-.44.3,1.46,1.46,0,0,1-.64.12,1.16,1.16,0,0,1-.62-.15.92.92,0,0,1-.33-.38,1.27,1.27,0,0,1-.09-.47,1.07,1.07,0,0,1,.16-.61,1.28,1.28,0,0,1,.44-.39,4.43,4.43,0,0,1,.73-.31l.39-.15.2-.07.14-.07a.84.84,0,0,0-.11-.46c-.07-.11-.22-.16-.45-.16a1.5,1.5,0,0,0-.75.2,2.61,2.61,0,0,0-.63.53v-1.08a2.13,2.13,0,0,1,.49-.31,2.7,2.7,0,0,1,.57-.18,2.88,2.88,0,0,1,.59-.06,1.72,1.72,0,0,1,1.14.34,1.14,1.14,0,0,1,.38.92v1.53a.92.92,0,0,0,0,.33.14.14,0,0,0,.13.11.71.71,0,0,0,.32-.12Zm-1.72-.76v-.94a3.51,3.51,0,0,0-.65.36.56.56,0,0,0-.2.44.41.41,0,0,0,.1.31.33.33,0,0,0,.24.1.41.41,0,0,0,.25-.08A1.88,1.88,0,0,0,181.18,287.63Z"/>
      <path d="M185.74,287.43a1.2,1.2,0,0,1-.35.89,1.46,1.46,0,0,1-1,.34,2.84,2.84,0,0,1-.69-.08,4.77,4.77,0,0,1-.66-.23v-1a4.15,4.15,0,0,0,.54.31,1.26,1.26,0,0,0,.51.11c.31,0,.46-.1.46-.29a.28.28,0,0,0-.06-.18,1.54,1.54,0,0,0-.24-.17l-.44-.23a1.66,1.66,0,0,1-.59-.46,1.06,1.06,0,0,1-.24-.7,1.16,1.16,0,0,1,.64-1,1.61,1.61,0,0,1,.78-.18l.29,0a2.29,2.29,0,0,1,.42.09,2.21,2.21,0,0,1,.5.21v1l-.19-.13-.19-.11a2,2,0,0,0-.29-.11,1.06,1.06,0,0,0-.35-.05.37.37,0,0,0-.29.09.34.34,0,0,0-.08.19.24.24,0,0,0,.09.18,1,1,0,0,0,.36.21,2.82,2.82,0,0,1,.66.37,1.08,1.08,0,0,1,.36.42A1.22,1.22,0,0,1,185.74,287.43Z"/>
      <path d="M189.72,286.94h-2.47a1,1,0,0,0,.36.6,1,1,0,0,0,.64.23,3.12,3.12,0,0,0,1.38-.4v.87a3.42,3.42,0,0,1-.66.29,3.06,3.06,0,0,1-1,.13,2.09,2.09,0,0,1-1.1-.27,1.67,1.67,0,0,1-.68-.74,2.47,2.47,0,0,1-.23-1.07,2.38,2.38,0,0,1,.23-1.05,1.63,1.63,0,0,1,.68-.72,2.09,2.09,0,0,1,1.1-.27,1.75,1.75,0,0,1,.82.21,1.62,1.62,0,0,1,.65.69,2.54,2.54,0,0,1,.26,1.22Zm-1.16-.69a1,1,0,0,0-.17-.61.54.54,0,0,0-.48-.23.6.6,0,0,0-.5.23.91.91,0,0,0-.19.61Z"/>
    </g>
    <g>
      <path d="M129.22,288.59h-1.54l-.37-1a4.2,4.2,0,0,0-.38-.77.77.77,0,0,0-.32-.31.93.93,0,0,0-.4-.07h-.16v2.11h-1.44v-5.41h2.44a1.61,1.61,0,0,1,1,.27,1.51,1.51,0,0,1,.55.66,1.93,1.93,0,0,1,.17.75,1.6,1.6,0,0,1-.14.69,1.17,1.17,0,0,1-.3.41,3,3,0,0,1-.34.25,1.27,1.27,0,0,1,.37.36,4.48,4.48,0,0,1,.41.85Zm-2-3.7a.59.59,0,0,0-.22-.53,1.24,1.24,0,0,0-.7-.14h-.3v1.3h.31a1.36,1.36,0,0,0,.72-.13A.56.56,0,0,0,127.27,284.89Z"/>
      <path d="M133,288.39c-.18.08-.35.15-.5.2a1.79,1.79,0,0,1-.55.07.6.6,0,0,1-.43-.12.64.64,0,0,1-.17-.3,1.77,1.77,0,0,1-.45.3,1.41,1.41,0,0,1-.63.12,1.14,1.14,0,0,1-.62-.15.8.8,0,0,1-.33-.38,1.28,1.28,0,0,1-.1-.47,1.07,1.07,0,0,1,.17-.61,1.19,1.19,0,0,1,.44-.39,4.28,4.28,0,0,1,.72-.31l.39-.15.2-.07.14-.07a.85.85,0,0,0-.1-.46c-.07-.11-.22-.16-.45-.16a1.5,1.5,0,0,0-.75.2,2.66,2.66,0,0,0-.64.53v-1.08a2,2,0,0,1,.5-.31,2.81,2.81,0,0,1,.56-.18,2.88,2.88,0,0,1,.59-.06,1.69,1.69,0,0,1,1.14.34,1.14,1.14,0,0,1,.39.92v1.53a1.31,1.31,0,0,0,0,.33c0,.07.07.11.14.11a.68.68,0,0,0,.31-.12Zm-1.72-.76v-.94a3.36,3.36,0,0,0-.64.36.54.54,0,0,0-.21.44.42.42,0,0,0,.11.31.29.29,0,0,0,.23.1.39.39,0,0,0,.25-.08A1.43,1.43,0,0,0,131.3,287.63Z"/>
      <path d="M135.89,288.36a2.58,2.58,0,0,1-.53.2,2.19,2.19,0,0,1-.65.1c-.89,0-1.34-.49-1.34-1.48v-1.59h-.56v-.24l1.66-1.93h.14v1.19h1.19v1h-1.19v1.27a1.73,1.73,0,0,0,0,.36.36.36,0,0,0,.13.23.55.55,0,0,0,.34.09,1.64,1.64,0,0,0,.78-.28Z"/>
      <path d="M139.74,286.94h-2.47a1,1,0,0,0,.36.6,1,1,0,0,0,.64.23,3.05,3.05,0,0,0,1.38-.4v.87a3.42,3.42,0,0,1-.66.29,3,3,0,0,1-1,.13,2.11,2.11,0,0,1-1.1-.27,1.67,1.67,0,0,1-.68-.74,2.47,2.47,0,0,1-.23-1.07,2.38,2.38,0,0,1,.23-1.05,1.63,1.63,0,0,1,.68-.72,2.11,2.11,0,0,1,1.1-.27,1.72,1.72,0,0,1,.82.21,1.62,1.62,0,0,1,.65.69,2.54,2.54,0,0,1,.26,1.22Zm-1.16-.69a1,1,0,0,0-.17-.61.54.54,0,0,0-.48-.23.61.61,0,0,0-.5.23.91.91,0,0,0-.19.61Z"/>
    </g>
    <g>
      <path d="M25.05,335.85H23.61v-5.42h1.44Z" style="fill: #ededed"/>
      <path d="M29.5,335.85H28.26V333.7a1.7,1.7,0,0,0-.09-.57.4.4,0,0,0-.42-.24.53.53,0,0,0-.26.06.87.87,0,0,0-.21.17l-.15.19-.13.2v2.34H25.76v-4H27v.57a2,2,0,0,1,.59-.5,1.51,1.51,0,0,1,.65-.14q1.26,0,1.26,1.71Z" style="fill: #ededed"/>
      <path d="M33.65,331.87l-1.59,4h-.92l-1.55-4h1.33l.72,2.08.81-2.08Z" style="fill: #ededed"/>
      <path d="M39.13,334.27a1.65,1.65,0,0,1-.23.88,1.48,1.48,0,0,1-.64.57,2.16,2.16,0,0,1-.94.2l-.36,0-.57-.12a4,4,0,0,1-.74-.29v-1.33a4.88,4.88,0,0,0,.71.42,1.59,1.59,0,0,0,.75.17c.24,0,.4,0,.47-.14a.45.45,0,0,0,.11-.26.46.46,0,0,0-.19-.37,2.5,2.5,0,0,0-.54-.31,3.4,3.4,0,0,1-.68-.41,1.73,1.73,0,0,1-.49-.55,1.76,1.76,0,0,1,0-1.57,1.31,1.31,0,0,1,.57-.57,2,2,0,0,1,1-.21,2.89,2.89,0,0,1,.74.09,2.57,2.57,0,0,1,.56.2,2.08,2.08,0,0,1,.3.17v1.27a3.86,3.86,0,0,0-.65-.43,1.72,1.72,0,0,0-.77-.19.54.54,0,0,0-.39.12.4.4,0,0,0-.12.29.38.38,0,0,0,.12.28,2.12,2.12,0,0,0,.43.28,8.07,8.07,0,0,1,.88.53,2,2,0,0,1,.52.54A1.5,1.5,0,0,1,39.13,334.27Z" style="fill: #ededed"/>
      <path d="M43.25,335.65l-.5.2a2.25,2.25,0,0,1-.56.07.59.59,0,0,1-.42-.12.75.75,0,0,1-.17-.3,2.21,2.21,0,0,1-.45.3,1.43,1.43,0,0,1-.64.12,1.16,1.16,0,0,1-.62-.15.92.92,0,0,1-.33-.38,1.27,1.27,0,0,1-.09-.47,1.07,1.07,0,0,1,.16-.61,1.28,1.28,0,0,1,.44-.39,6,6,0,0,1,.73-.32l.39-.14.2-.08.14-.07a.83.83,0,0,0-.11-.45c-.07-.11-.21-.16-.44-.16a1.47,1.47,0,0,0-.76.2,2.81,2.81,0,0,0-.63.52v-1.07a2,2,0,0,1,.5-.31,2.45,2.45,0,0,1,.56-.18,2.88,2.88,0,0,1,.59-.06,1.67,1.67,0,0,1,1.14.34,1.14,1.14,0,0,1,.38.92v1.53a1.22,1.22,0,0,0,0,.33.13.13,0,0,0,.13.1.64.64,0,0,0,.32-.11Zm-1.72-.76V334a3,3,0,0,0-.65.36.56.56,0,0,0-.2.44.43.43,0,0,0,.1.31.33.33,0,0,0,.24.1.41.41,0,0,0,.25-.08Z" style="fill: #ededed"/>
      <path d="M48.92,331.87l-1.38,4h-.78L46,333.68l-.77,2.17h-.79l-1.41-4h1.25l.64,2,.69-2h.78l.69,2,.62-2Z" style="fill: #ededed"/>
    </g>
    <g>
      <path d="M79.81,332.14a2,2,0,0,1-.09.59,1.62,1.62,0,0,1-.29.53,1.43,1.43,0,0,1-.55.4,1.88,1.88,0,0,1-.82.16h-.94v2H75.69v-5.42h2.37a2,2,0,0,1,.82.16,1.56,1.56,0,0,1,.55.41,1.66,1.66,0,0,1,.29.54A2,2,0,0,1,79.81,332.14Zm-1.46,0a.59.59,0,0,0-.21-.53,1.24,1.24,0,0,0-.72-.15h-.3v1.31h.31a2.51,2.51,0,0,0,.55,0,.49.49,0,0,0,.28-.19A.7.7,0,0,0,78.35,332.15Z" style="fill: #ededed"/>
      <path d="M83.81,335.85H82.57v-.57a1.73,1.73,0,0,1-.55.48,1.35,1.35,0,0,1-.69.16,1,1,0,0,1-1-.53,3,3,0,0,1-.23-1.18v-2.34h1.24V334a1.62,1.62,0,0,0,.09.57.4.4,0,0,0,.42.24.58.58,0,0,0,.43-.17,3.8,3.8,0,0,0,.32-.45v-2.34h1.24Z" style="fill: #ededed"/>
      <path d="M85.62,335.85H84.38v-5.42h1.24Z" style="fill: #ededed"/>
      <path d="M88.93,334.69a1.21,1.21,0,0,1-.35.89,1.46,1.46,0,0,1-1,.34,2.84,2.84,0,0,1-.69-.08,4.77,4.77,0,0,1-.66-.23v-1a4.15,4.15,0,0,0,.54.31,1.25,1.25,0,0,0,.51.1c.31,0,.46-.09.46-.28a.28.28,0,0,0-.06-.18,1.07,1.07,0,0,0-.24-.17l-.44-.23a1.78,1.78,0,0,1-.59-.46,1.07,1.07,0,0,1-.24-.71,1.23,1.23,0,0,1,.16-.57,1.17,1.17,0,0,1,.49-.44,1.55,1.55,0,0,1,.78-.18l.28,0a2.55,2.55,0,0,1,.43.09,2.33,2.33,0,0,1,.49.21v1l-.19-.13-.19-.11a2,2,0,0,0-.29-.11,1,1,0,0,0-.35-.05.39.39,0,0,0-.29.09.31.31,0,0,0-.08.19.26.26,0,0,0,.09.18,1,1,0,0,0,.36.21,2.82,2.82,0,0,1,.66.37,1.06,1.06,0,0,1,.36.41A1.3,1.3,0,0,1,88.93,334.69Z" style="fill: #ededed"/>
      <path d="M92.91,334.2H90.44a1,1,0,0,0,.36.59,1,1,0,0,0,.64.23,3.09,3.09,0,0,0,1.38-.39v.87a4.18,4.18,0,0,1-.66.29,3.06,3.06,0,0,1-1,.13,2.11,2.11,0,0,1-1.1-.27,1.7,1.7,0,0,1-.68-.75,2.53,2.53,0,0,1,0-2.11,1.58,1.58,0,0,1,.68-.72,2.11,2.11,0,0,1,1.1-.27A1.75,1.75,0,0,1,92,332a1.65,1.65,0,0,1,.65.68,2.61,2.61,0,0,1,.26,1.23Zm-1.16-.69a1.06,1.06,0,0,0-.17-.62.55.55,0,0,0-.48-.22.6.6,0,0,0-.5.23.91.91,0,0,0-.19.61Z" style="fill: #ededed"/>
    </g>
    <g>
      <path d="M129.15,334.27a1.65,1.65,0,0,1-.23.88,1.48,1.48,0,0,1-.64.57,2.16,2.16,0,0,1-.94.2l-.36,0-.57-.12a4,4,0,0,1-.74-.29v-1.33a4.4,4.4,0,0,0,.71.42,1.58,1.58,0,0,0,.74.17c.25,0,.41,0,.48-.14a.45.45,0,0,0,.11-.26.46.46,0,0,0-.19-.37,2.5,2.5,0,0,0-.54-.31,3.4,3.4,0,0,1-.68-.41,1.73,1.73,0,0,1-.49-.55,1.76,1.76,0,0,1,0-1.57,1.31,1.31,0,0,1,.57-.57,2,2,0,0,1,1-.21,2.89,2.89,0,0,1,.74.09,2.77,2.77,0,0,1,.56.2,2.08,2.08,0,0,1,.3.17v1.27a3.86,3.86,0,0,0-.65-.43,1.72,1.72,0,0,0-.77-.19.54.54,0,0,0-.39.12.4.4,0,0,0-.12.29.38.38,0,0,0,.12.28,2.12,2.12,0,0,0,.43.28,8.07,8.07,0,0,1,.88.53,2,2,0,0,1,.52.54A1.5,1.5,0,0,1,129.15,334.27Z" style="fill: #ededed"/>
      <path d="M133.27,335.65l-.5.2a2.25,2.25,0,0,1-.56.07.59.59,0,0,1-.42-.12.92.92,0,0,1-.18-.3,1.9,1.9,0,0,1-.44.3,1.43,1.43,0,0,1-.64.12,1.16,1.16,0,0,1-.62-.15.92.92,0,0,1-.33-.38,1.27,1.27,0,0,1-.09-.47,1.07,1.07,0,0,1,.16-.61,1.28,1.28,0,0,1,.44-.39,5.37,5.37,0,0,1,.73-.32l.39-.14.2-.08.14-.07a.83.83,0,0,0-.11-.45c-.07-.11-.21-.16-.44-.16a1.44,1.44,0,0,0-.76.2,2.81,2.81,0,0,0-.63.52v-1.07a2,2,0,0,1,.5-.31,2.45,2.45,0,0,1,.56-.18,2.88,2.88,0,0,1,.59-.06,1.67,1.67,0,0,1,1.14.34,1.14,1.14,0,0,1,.38.92v1.53a1.22,1.22,0,0,0,0,.33.13.13,0,0,0,.13.1.64.64,0,0,0,.32-.11Zm-1.72-.76V334a3,3,0,0,0-.65.36.56.56,0,0,0-.2.44.43.43,0,0,0,.1.31.33.33,0,0,0,.24.1.41.41,0,0,0,.25-.08Z" style="fill: #ededed"/>
      <path d="M138.94,331.87l-1.38,4h-.78l-.78-2.17-.78,2.17h-.78l-1.41-4h1.25l.64,2,.69-2h.78l.69,2,.62-2Z" style="fill: #ededed"/>
    </g>
    <g>
      <path d="M103.85,185.46h-1.54l-.37-1a4.3,4.3,0,0,0-.37-.77.82.82,0,0,0-.33-.32,1.12,1.12,0,0,0-.4-.06h-.16v2.11H99.24V180h2.45a1.66,1.66,0,0,1,1,.28,1.55,1.55,0,0,1,.54.66,1.93,1.93,0,0,1,.17.74,1.62,1.62,0,0,1-.14.7,1.28,1.28,0,0,1-.3.41,3,3,0,0,1-.34.25,1.45,1.45,0,0,1,.38.36,4.8,4.8,0,0,1,.4.84Zm-1.95-3.7a.61.61,0,0,0-.21-.53,1.29,1.29,0,0,0-.71-.15h-.3v1.31H101a1.36,1.36,0,0,0,.72-.13A.57.57,0,0,0,101.9,181.76Z"/>
      <path d="M107.61,183.81h-2.46a1,1,0,0,0,.35.59,1,1,0,0,0,.64.23,3,3,0,0,0,1.38-.39v.87a4.18,4.18,0,0,1-.66.29,3,3,0,0,1-1,.13,2.11,2.11,0,0,1-1.1-.27,1.76,1.76,0,0,1-.68-.75,2.64,2.64,0,0,1,0-2.11,1.63,1.63,0,0,1,.68-.72,2.11,2.11,0,0,1,1.1-.27,1.72,1.72,0,0,1,.82.21,1.61,1.61,0,0,1,.66.68,2.61,2.61,0,0,1,.25,1.23Zm-1.16-.7a1,1,0,0,0-.17-.61.56.56,0,0,0-.48-.23.62.62,0,0,0-.5.24.94.94,0,0,0-.19.6Z"/>
      <path d="M110.68,184.3a1.18,1.18,0,0,1-.36.89,1.42,1.42,0,0,1-1,.34,2.84,2.84,0,0,1-.69-.08,4,4,0,0,1-.66-.23v-1a3.15,3.15,0,0,0,.54.31,1.18,1.18,0,0,0,.5.1c.31,0,.47-.09.47-.28a.24.24,0,0,0-.07-.18.8.8,0,0,0-.23-.17l-.45-.23a1.74,1.74,0,0,1-.58-.46,1.07,1.07,0,0,1-.24-.71A1.12,1.12,0,0,1,108,182a1.09,1.09,0,0,1,.48-.44,1.61,1.61,0,0,1,.78-.18l.28,0a2.37,2.37,0,0,1,.43.09,2.13,2.13,0,0,1,.49.21v1l-.18-.12-.2-.11-.29-.12a1.27,1.27,0,0,0-.34,0,.37.37,0,0,0-.29.09.25.25,0,0,0-.08.19.29.29,0,0,0,.08.18,1.51,1.51,0,0,0,.37.21,3.3,3.3,0,0,1,.66.37,1.12,1.12,0,0,1,.35.41A1.27,1.27,0,0,1,110.68,184.3Z"/>
      <path d="M114.65,183.81h-2.46a1,1,0,0,0,.35.59,1,1,0,0,0,.64.23,3,3,0,0,0,1.38-.39v.87a4.47,4.47,0,0,1-.65.29,3.08,3.08,0,0,1-1,.13,2.11,2.11,0,0,1-1.1-.27,1.76,1.76,0,0,1-.68-.75,2.64,2.64,0,0,1,0-2.11,1.63,1.63,0,0,1,.68-.72,2.11,2.11,0,0,1,1.1-.27,1.72,1.72,0,0,1,.82.21,1.61,1.61,0,0,1,.66.68,2.61,2.61,0,0,1,.25,1.23Zm-1.16-.7a1,1,0,0,0-.17-.61.56.56,0,0,0-.48-.23.62.62,0,0,0-.5.24.94.94,0,0,0-.19.6Z"/>
      <path d="M117.74,185.23a2.58,2.58,0,0,1-.53.2,2.19,2.19,0,0,1-.65.1c-.89,0-1.34-.5-1.34-1.49v-1.58h-.56v-.25l1.66-1.92h.14v1.19h1.19v1h-1.19v1.27a1.73,1.73,0,0,0,0,.36.36.36,0,0,0,.13.23.55.55,0,0,0,.34.09,1.64,1.64,0,0,0,.78-.28Z"/>
    </g>
  </g>
  <g id="components">
    <circle id="Sine" cx="179.96" cy="311.23" r="11.34" style="fill: blue"/>
    <circle id="Saw" cx="131.96" cy="311.23" r="11.34" style="fill: blue"/>
    <circle id="Pulse" cx="83.96" cy="311.23" r="11.34" style="fill: blue"/>
    <circle id="Inv_Saw" data-name="Inv Saw" cx="35.96" cy="311.23" r="11.34" style="fill: blue"/>
    <circle id="Phase_CV_Jack" data-name="Phase CV Jack" cx="179.96" cy="263.64" r="11.34" style="fill: lime"/>
    <circle id="Rate_CV" data-name="Rate CV" cx="131.96" cy="263.64" r="11.34" style="fill: lime"/>
    <circle id="PWM_CV_Jack" data-name="PWM CV Jack" cx="83.96" cy="263.64" r="11.34" style="fill: lime"/>
    <circle id="Reset_CV" data-name="Reset CV" cx="35.96" cy="263.64" r="11.34" style="fill: lime"/>
    <circle id="Reset" cx="108.13" cy="199.9" r="10.63" style="fill: #ff8000"/>
    <circle id="PWM_CV" data-name="PWM CV" cx="171.86" cy="158.51" r="17.01" style="fill: #ff0040"/>
    <circle id="Phase_CV" data-name="Phase CV" cx="42.86" cy="157.47" r="17.01" style="fill: #ff0040"/>
    <circle id="PWM" cx="171.75" cy="98.85" r="17.01" style="fill: #ff0040"/>
    <circle id="Rate" cx="107.36" cy="71.62" r="31.18" style="fill: #ff0020"/>
    <circle id="Phase" cx="42.54" cy="99.95" r="17.01" style="fill: #ff0040"/>
    <text id="slug" transform="translate(163.3 370.15)" style="font-size: 3px;font-family: MyriadPro-Regular, Myriad Pro"><tspan style="letter-spacing: 0.0029296875em">M</tspan><tspan x="2.42" y="0">ulti LFO</tspan></text>
    <text id="modulename" transform="translate(192.63 370.15)" style="font-size: 3px;font-family: MyriadPro-Regular, Myriad Pro"><tspan style="letter-spacing: 0.0029296875em">M</tspan><tspan x="2.42" y="0">ulti LFO </tspan><tspan x="12.69" y="0" style="letter-spacing: 0.006184895833333333em">M</tspan><tspan x="15.12" y="0" style="letter-spacing: -0.0003255208333333333em">odule</tspan></text>
  </g>
</svg>
