<svg xmlns="http://www.w3.org/2000/svg" xmlns:xlink="http://www.w3.org/1999/xlink" width="50.89mm" height="130.47mm" viewBox="0 0 144.25 369.83">
  <defs>
    <clipPath id="clip-path">
      <rect x="58.22" y="132.16" width="27.8" height="25.62" style="fill: none"/>
    </clipPath>
    <clipPath id="clip-path-2">
      <rect x="58.22" y="132.16" width="27.8" height="25.62" style="fill: none"/>
    </clipPath>
    <clipPath id="clip-path-3">
      <rect x="15.45" y="143.5" width="27.8" height="25.62" style="fill: none"/>
    </clipPath>
    <clipPath id="clip-path-5">
      <rect x="101" y="143.5" width="27.8" height="25.62" style="fill: none"/>
    </clipPath>
  </defs>
  <g id="faceplate">
    <rect x="0.13" y="0.13" width="144" height="364.25" style="fill: #ededed;stroke: #9d9d9e;stroke-miterlimit: 10;stroke-width: 0.25px"/>
    <path d="M12.61,336.12a5.66,5.66,0,0,0,5.64,5.65H126a5.66,5.66,0,0,0,5.65-5.65V290.9h-119Z" style="fill: none;stroke: #000;stroke-miterlimit: 10"/>
    <g>
      <path d="M131.76,318.63V297.11H110.23c-7.5,0-13.57,6.52-13.57,14.56V342.2h29.46a5.46,5.46,0,0,0,5.64-5.25V318.63Z"/>
      <path d="M131.66,291.83v-62a14.26,14.26,0,0,0-14.22-14.22H26.83a14.25,14.25,0,0,0-14.22,14.22v62" style="fill: #ededed;stroke: #000;stroke-miterlimit: 10"/>
    </g>
    <g>
      <path d="M58.23,352.5a2.79,2.79,0,0,1-.12.81,2.32,2.32,0,0,1-.38.73,1.87,1.87,0,0,1-.7.56,2.41,2.41,0,0,1-1,.21H54.78v2.79H52.94v-7.44H56a2.41,2.41,0,0,1,1,.21,2,2,0,0,1,.7.56,2.41,2.41,0,0,1,.38.75A2.86,2.86,0,0,1,58.23,352.5Zm-1.88,0a.88.88,0,0,0-.26-.73,1.6,1.6,0,0,0-.92-.19h-.39v1.79h.4a2.55,2.55,0,0,0,.7-.07.55.55,0,0,0,.36-.26A1.09,1.09,0,0,0,56.35,352.51Z"/>
      <path d="M65.69,357.6H63.86v-2.9H61.09v2.9H59.25v-7.44h1.84v2.73h2.77v-2.73h1.83Z"/>
      <path d="M73.93,357.6H72.05l-.5-1.51H68.9l-.51,1.51H66.5l2.7-7.44h2Zm-2.81-2.8-.89-2.72-.9,2.72Z"/>
      <path d="M79,355.44a2.46,2.46,0,0,1-.29,1.21,2,2,0,0,1-.82.78,2.59,2.59,0,0,1-1.2.27l-.47,0a5.57,5.57,0,0,1-.73-.16,5.71,5.71,0,0,1-1-.4v-1.83a6.26,6.26,0,0,0,.91.58,2,2,0,0,0,1,.23c.31,0,.52-.06.61-.19a.61.61,0,0,0,.14-.36.63.63,0,0,0-.24-.5,3.33,3.33,0,0,0-.69-.43,4.93,4.93,0,0,1-.88-.56,2.44,2.44,0,0,1-.62-.76,2.32,2.32,0,0,1-.24-1.08,2.45,2.45,0,0,1,.24-1.09,1.83,1.83,0,0,1,.74-.77,2.32,2.32,0,0,1,1.22-.29,3.51,3.51,0,0,1,.94.12,3.65,3.65,0,0,1,.72.27l.38.23v1.75a5.14,5.14,0,0,0-.83-.59,2,2,0,0,0-1-.25.65.65,0,0,0-.5.16.54.54,0,0,0-.16.4.52.52,0,0,0,.16.38,3,3,0,0,0,.55.39,12.85,12.85,0,0,1,1.13.72,2.59,2.59,0,0,1,.66.75A2.09,2.09,0,0,1,79,355.44Z"/>
      <path d="M84.86,357.6h-4.6v-7.44h4.53v1.49H82.1V353h2.56v1.49H82.1v1.59h2.76Z"/>
      <path d="M92,357.6H90l-.48-1.32a6.22,6.22,0,0,0-.48-1.06,1.13,1.13,0,0,0-.41-.43,1.28,1.28,0,0,0-.52-.09h-.2v2.9H86.1v-7.44h3.13a2,2,0,0,1,1.24.37,2.24,2.24,0,0,1,.7.92,2.78,2.78,0,0,1,.21,1,2.27,2.27,0,0,1-.18.95,1.65,1.65,0,0,1-.38.57,3.93,3.93,0,0,1-.44.34,1.9,1.9,0,0,1,.49.49,7.47,7.47,0,0,1,.52,1.16Zm-2.51-5.09a.86.86,0,0,0-.27-.72,1.55,1.55,0,0,0-.91-.2h-.38v1.79h.39a1.71,1.71,0,0,0,.93-.18A.82.82,0,0,0,89.5,352.51Z"/>
    </g>
    <path d="M126.11,45.78h2.26a21.88,21.88,0,0,0-2.44-9.12l-2,1.12A19.6,19.6,0,0,1,126.11,45.78Z"/>
    <path d="M126.11,47.78a19.55,19.55,0,0,1-2.13,8l2,1.13a21.88,21.88,0,0,0,2.44-9.12Z"/>
    <g>
      <path d="M29.81,72.16a2,2,0,0,1-.28,1.09,1.84,1.84,0,0,1-.8.71,2.58,2.58,0,0,1-1.17.25l-.46,0a3.78,3.78,0,0,1-.71-.14,5.8,5.8,0,0,1-.93-.37V72a5.63,5.63,0,0,0,.89.53,2.11,2.11,0,0,0,.93.21.78.78,0,0,0,.6-.17.52.52,0,0,0-.1-.79,3.72,3.72,0,0,0-.67-.39,4.44,4.44,0,0,1-.86-.51,2,2,0,0,1-.6-.69,1.9,1.9,0,0,1-.24-1,2.07,2.07,0,0,1,.24-1,1.74,1.74,0,0,1,.72-.7,2.41,2.41,0,0,1,1.19-.27,3.87,3.87,0,0,1,.92.11,4.62,4.62,0,0,1,.7.25,3,3,0,0,1,.37.21v1.59a4.72,4.72,0,0,0-.81-.53,2,2,0,0,0-1-.24.68.68,0,0,0-.49.15.49.49,0,0,0-.15.36.47.47,0,0,0,.15.35,2.46,2.46,0,0,0,.54.36,10,10,0,0,1,1.1.65,2.45,2.45,0,0,1,.65.68A1.87,1.87,0,0,1,29.81,72.16Z"/>
      <path d="M35.23,71.6a3.85,3.85,0,0,1-.12,1,2.75,2.75,0,0,1-.39.83,1.76,1.76,0,0,1-.65.59,1.89,1.89,0,0,1-.94.22,1.75,1.75,0,0,1-.67-.1,3.06,3.06,0,0,1-.5-.27v2.54H30.42V69.15H32v.45a2.39,2.39,0,0,1,.52-.38,1.62,1.62,0,0,1,.76-.16,1.85,1.85,0,0,1,.94.27,2,2,0,0,1,.75.84A3.06,3.06,0,0,1,35.23,71.6Zm-1.63,0a1.89,1.89,0,0,0-.12-.73.89.89,0,0,0-.33-.4.68.68,0,0,0-.4-.13,1,1,0,0,0-.46.1,2.39,2.39,0,0,0-.33.25v1.9l.18.11.18.11.2.07a.85.85,0,0,0,.23,0,.75.75,0,0,0,.61-.35A1.66,1.66,0,0,0,33.6,71.64Z"/>
      <path d="M40.17,72.06H37.09a1.27,1.27,0,0,0,1.24,1,3.68,3.68,0,0,0,1.73-.5v1.09a4.3,4.3,0,0,1-.83.37,3.86,3.86,0,0,1-1.23.16,2.56,2.56,0,0,1-1.37-.34,2.18,2.18,0,0,1-.85-.93,3.25,3.25,0,0,1,0-2.64,2.13,2.13,0,0,1,.85-.91A2.65,2.65,0,0,1,38,69.06a2.11,2.11,0,0,1,1,.27,2,2,0,0,1,.82.85,3.28,3.28,0,0,1,.32,1.53Zm-1.46-.87a1.24,1.24,0,0,0-.2-.76.7.7,0,0,0-.6-.29.79.79,0,0,0-.63.29,1.17,1.17,0,0,0-.24.76Z"/>
      <path d="M45.06,72.06H42a1.23,1.23,0,0,0,.44.74,1.2,1.2,0,0,0,.8.29,3.68,3.68,0,0,0,1.73-.5v1.09a4.19,4.19,0,0,1-.82.37,4,4,0,0,1-1.23.16,2.62,2.62,0,0,1-1.38-.34,2.18,2.18,0,0,1-.85-.93,3.25,3.25,0,0,1,0-2.64,2.13,2.13,0,0,1,.85-.91,2.71,2.71,0,0,1,1.38-.33,2.17,2.17,0,0,1,1,.27,1.91,1.91,0,0,1,.81.85,3.16,3.16,0,0,1,.32,1.53Zm-1.45-.87a1.25,1.25,0,0,0-.21-.76.7.7,0,0,0-.6-.29.77.77,0,0,0-.62.29,1.17,1.17,0,0,0-.24.76Z"/>
      <path d="M50.1,74.12H48.55v-.45a2.62,2.62,0,0,1-.52.39,1.57,1.57,0,0,1-.76.15,1.81,1.81,0,0,1-.93-.27,2.05,2.05,0,0,1-.76-.83,3.08,3.08,0,0,1-.29-1.44,3.57,3.57,0,0,1,.22-1.27,2.07,2.07,0,0,1,.7-1,1.85,1.85,0,0,1,1.17-.38,1.88,1.88,0,0,1,.69.11,1.64,1.64,0,0,1,.48.28V67.36H50.1Zm-1.55-1.58v-1.9a4.34,4.34,0,0,0-.43-.24.8.8,0,0,0-.36-.08.71.71,0,0,0-.6.36,1.58,1.58,0,0,0-.25.95,1.47,1.47,0,0,0,.26,1,.76.76,0,0,0,.59.3.9.9,0,0,0,.46-.1A1.79,1.79,0,0,0,48.55,72.54Z"/>
    </g>
    <g>
      <path d="M46.85,29.2,48,27.25a22,22,0,0,0-9.13-2.45v2.26A19.61,19.61,0,0,1,46.85,29.2Z"/>
      <path d="M54.43,36.05l2-1.12a22,22,0,0,0-6.67-6.68L48.58,30.2A19.77,19.77,0,0,1,54.43,36.05Z"/>
      <path d="M27.13,30.2,26,28.25a22.17,22.17,0,0,0-6.68,6.68l1.95,1.12A19.93,19.93,0,0,1,27.13,30.2Z"/>
      <path d="M57.57,45.78h2.26a22,22,0,0,0-2.44-9.12l-2,1.12A19.45,19.45,0,0,1,57.57,45.78Z"/>
      <path d="M36.85,27.06V24.8a22,22,0,0,0-9.12,2.45l1.13,1.95A19.6,19.6,0,0,1,36.85,27.06Z"/>
      <path d="M21.27,57.51l-1.95,1.12A22.17,22.17,0,0,0,26,65.31l1.13-2A20,20,0,0,1,21.27,57.51Z"/>
      <path d="M48.58,63.36l1.13,2a22,22,0,0,0,6.67-6.68l-2-1.12A19.89,19.89,0,0,1,48.58,63.36Z"/>
      <path d="M57.57,47.78a19.41,19.41,0,0,1-2.14,8l2,1.13a22,22,0,0,0,2.44-9.12Z"/>
      <path d="M18.14,47.78H15.88a21.88,21.88,0,0,0,2.44,9.12l1.95-1.13A19.55,19.55,0,0,1,18.14,47.78Z"/>
      <path d="M20.27,37.78l-1.95-1.12a21.88,21.88,0,0,0-2.44,9.12h2.26A19.6,19.6,0,0,1,20.27,37.78Z"/>
    </g>
    <g>
      <path d="M100,70.86a3.62,3.62,0,0,1-.33,1.67,3.31,3.31,0,0,1-.79,1,2.58,2.58,0,0,1-1.79.57H93.83V67.36H96.3a6.55,6.55,0,0,1,1,.06,3.79,3.79,0,0,1,.72.19,2.72,2.72,0,0,1,.54.27,2.5,2.5,0,0,1,.4.31,3.2,3.2,0,0,1,.53.67,3.68,3.68,0,0,1,.37.9A4.25,4.25,0,0,1,100,70.86Zm-1.82-.09a2.51,2.51,0,0,0-.28-1.28,1.41,1.41,0,0,0-.67-.62,2,2,0,0,0-.79-.16h-.77v4h.77a2,2,0,0,0,1.22-.38A1.89,1.89,0,0,0,98.13,70.77Z"/>
      <path d="M104.94,72.06h-3.08a1.26,1.26,0,0,0,.44.74,1.2,1.2,0,0,0,.8.29,3.68,3.68,0,0,0,1.73-.5v1.09a4.19,4.19,0,0,1-.82.37,4,4,0,0,1-1.24.16,2.6,2.6,0,0,1-1.37-.34,2.18,2.18,0,0,1-.85-.93,3,3,0,0,1-.28-1.33,2.93,2.93,0,0,1,.28-1.31,2.13,2.13,0,0,1,.85-.91,2.7,2.7,0,0,1,1.37-.33,2.11,2.11,0,0,1,1,.27,1.93,1.93,0,0,1,.82.85,3.28,3.28,0,0,1,.32,1.53Zm-1.45-.87a1.25,1.25,0,0,0-.21-.76.7.7,0,0,0-.6-.29.75.75,0,0,0-.62.29,1.17,1.17,0,0,0-.24.76Z"/>
      <path d="M110.15,71.6a3.85,3.85,0,0,1-.12,1,3,3,0,0,1-.38.83A1.79,1.79,0,0,1,109,74a1.88,1.88,0,0,1-.93.22,1.77,1.77,0,0,1-.68-.1,2.2,2.2,0,0,1-.49-.28v2.55h-1.55V69.15h1.55v.45a2.12,2.12,0,0,1,.51-.38,1.62,1.62,0,0,1,.76-.16,1.85,1.85,0,0,1,.94.27,2,2,0,0,1,.76.84A3.19,3.19,0,0,1,110.15,71.6Zm-1.63,0a1.89,1.89,0,0,0-.12-.73.88.88,0,0,0-.32-.4.71.71,0,0,0-.41-.13,1,1,0,0,0-.45.1,1.59,1.59,0,0,0-.33.25v1.9l.17.11a1.18,1.18,0,0,0,.19.11l.19.07a.85.85,0,0,0,.23,0,.73.73,0,0,0,.61-.35A1.68,1.68,0,0,0,108.52,71.64Z"/>
      <path d="M114.05,73.83a3.12,3.12,0,0,1-.66.26,2.94,2.94,0,0,1-.81.12c-1.11,0-1.67-.62-1.67-1.85v-2h-.7v-.3l2.07-2.41h.18v1.49h1.48v1.22h-1.48V72a2.64,2.64,0,0,0,0,.45.48.48,0,0,0,.17.29.62.62,0,0,0,.42.11,2,2,0,0,0,1-.35Z"/>
      <path d="M119.05,74.12h-1.54V71.37a1.57,1.57,0,0,0-.13-.65.51.51,0,0,0-.51-.3.74.74,0,0,0-.52.22,2.82,2.82,0,0,0-.42.56v2.92h-1.55V67.36h1.55v2.5a2.23,2.23,0,0,1,.76-.63,1.9,1.9,0,0,1,.79-.17c1,0,1.57.67,1.57,2Z"/>
    </g>
    <path d="M115.39,29.2l1.13-1.95a21.89,21.89,0,0,0-9.12-2.45v2.26A19.6,19.6,0,0,1,115.39,29.2Z"/>
    <path d="M123,36.05l2-1.12a22.17,22.17,0,0,0-6.68-6.68l-1.13,1.95A19.93,19.93,0,0,1,123,36.05Z"/>
    <path d="M95.67,30.2l-1.13-1.95a22,22,0,0,0-6.67,6.68l1.95,1.12A19.77,19.77,0,0,1,95.67,30.2Z"/>
    <path d="M105.4,27.06V24.8a22,22,0,0,0-9.13,2.45L97.4,29.2A19.61,19.61,0,0,1,105.4,27.06Z"/>
    <path d="M89.82,57.51l-1.95,1.12a22,22,0,0,0,6.67,6.68l1.13-2A19.89,19.89,0,0,1,89.82,57.51Z"/>
    <path d="M117.12,63.36l1.13,2a22.17,22.17,0,0,0,6.68-6.68l-2-1.12A20,20,0,0,1,117.12,63.36Z"/>
    <path d="M86.68,47.78H84.42a22,22,0,0,0,2.44,9.12l2-1.13A19.41,19.41,0,0,1,86.68,47.78Z"/>
    <path d="M88.82,37.78l-2-1.12a22,22,0,0,0-2.44,9.12h2.26A19.45,19.45,0,0,1,88.82,37.78Z"/>
    <g>
      <path d="M34.59,125.29,32,132.15H31l-1.55-4-1.58,4H26.79l-2.53-6.86h1.86L27.36,129l1.42-3.75h1.29L31.46,129l1.29-3.75Z"/>
      <path d="M36.44,132.06H34.89v-5h1.55Zm-.13-6.12a.77.77,0,0,1-.19.53.6.6,0,0,1-.46.21.56.56,0,0,1-.33-.1.58.58,0,0,1-.23-.26.82.82,0,0,1-.09-.38.76.76,0,0,1,.19-.52.59.59,0,0,1,.92,0A.76.76,0,0,1,36.31,125.94Z"/>
      <path d="M41.78,132.06H40.23v-.45a2.62,2.62,0,0,1-.52.39,1.56,1.56,0,0,1-.75.15,1.85,1.85,0,0,1-.94-.27,2,2,0,0,1-.76-.84,3.16,3.16,0,0,1-.29-1.43,3.53,3.53,0,0,1,.22-1.27,2.16,2.16,0,0,1,.7-1,1.9,1.9,0,0,1,1.17-.37,1.94,1.94,0,0,1,.7.11,2,2,0,0,1,.47.27v-2.09h1.55Zm-1.55-1.58v-1.9a2.94,2.94,0,0,0-.43-.24.78.78,0,0,0-.35-.08.72.72,0,0,0-.61.35,1.71,1.71,0,0,0-.24,1,1.47,1.47,0,0,0,.25,1,.77.77,0,0,0,.6.3.88.88,0,0,0,.45-.1A2.39,2.39,0,0,0,40.23,130.48Z"/>
      <path d="M45.86,131.77a3,3,0,0,1-.67.26,2.94,2.94,0,0,1-.81.12c-1.11,0-1.67-.62-1.67-1.86v-2H42V128l2.08-2.4h.17v1.49h1.48v1.22H44.26v1.59a2.64,2.64,0,0,0,0,.45.48.48,0,0,0,.17.29.74.74,0,0,0,.43.11,2,2,0,0,0,1-.35Z"/>
      <path d="M50.86,132.06H49.31v-2.75a1.54,1.54,0,0,0-.13-.65.51.51,0,0,0-.51-.3.7.7,0,0,0-.51.22,3.29,3.29,0,0,0-.43.56v2.92H46.18v-6.77h1.55v2.51a2.21,2.21,0,0,1,.76-.63,1.93,1.93,0,0,1,.79-.17c1,0,1.58.67,1.58,2Z"/>
    </g>
    <path d="M46.85,87.14l1.13-2a22,22,0,0,0-9.13-2.45V85A19.45,19.45,0,0,1,46.85,87.14Z"/>
    <path d="M54.43,94l2-1.13a22.1,22.1,0,0,0-6.67-6.67l-1.13,2A19.77,19.77,0,0,1,54.43,94Z"/>
    <path d="M27.13,88.14l-1.13-2a22.25,22.25,0,0,0-6.68,6.67L21.27,94A19.93,19.93,0,0,1,27.13,88.14Z"/>
    <path d="M57.57,103.72h2.26a22,22,0,0,0-2.44-9.12l-2,1.12A19.45,19.45,0,0,1,57.57,103.72Z"/>
    <path d="M36.85,85V82.74a22,22,0,0,0-9.12,2.45l1.13,2A19.45,19.45,0,0,1,36.85,85Z"/>
    <path d="M21.27,115.44l-1.95,1.13A22.17,22.17,0,0,0,26,123.25l1.13-2A20,20,0,0,1,21.27,115.44Z"/>
    <path d="M48.58,121.3l1.13,2a22,22,0,0,0,6.67-6.68l-2-1.13A19.81,19.81,0,0,1,48.58,121.3Z"/>
    <path d="M57.57,105.72a19.41,19.41,0,0,1-2.14,8l2,1.13a22,22,0,0,0,2.44-9.12Z"/>
    <path d="M18.14,105.72H15.88a21.88,21.88,0,0,0,2.44,9.12l1.95-1.13A19.55,19.55,0,0,1,18.14,105.72Z"/>
    <path d="M20.27,95.72,18.32,94.6a21.88,21.88,0,0,0-2.44,9.12h2.26A19.6,19.6,0,0,1,20.27,95.72Z"/>
    <g>
      <path d="M101,129.32H98.57v2.74h-1.8v-6.77H101v1.36H98.57V128H101Z"/>
      <path d="M106.13,130h-3.08a1.21,1.21,0,0,0,.44.74,1.18,1.18,0,0,0,.8.29,3.77,3.77,0,0,0,1.72-.5v1.09a3.94,3.94,0,0,1-.82.37,4.17,4.17,0,0,1-1.23.16,2.56,2.56,0,0,1-1.37-.34,2.12,2.12,0,0,1-.85-.93,3,3,0,0,1-.28-1.33,2.93,2.93,0,0,1,.28-1.31,2.07,2.07,0,0,1,.85-.91A2.65,2.65,0,0,1,104,127a2.22,2.22,0,0,1,1,.26,2.07,2.07,0,0,1,.82.86,3.22,3.22,0,0,1,.32,1.53Zm-1.46-.87a1.32,1.32,0,0,0-.2-.76.7.7,0,0,0-.6-.29.79.79,0,0,0-.63.29,1.17,1.17,0,0,0-.24.76Z"/>
      <path d="M111,130h-3.08a1.26,1.26,0,0,0,.44.74,1.2,1.2,0,0,0,.8.29,3.8,3.8,0,0,0,1.73-.5v1.09a4.19,4.19,0,0,1-.82.37,4.27,4.27,0,0,1-1.23.16,2.62,2.62,0,0,1-1.38-.34,2.18,2.18,0,0,1-.85-.93,3,3,0,0,1-.28-1.33,2.93,2.93,0,0,1,.28-1.31,2.13,2.13,0,0,1,.85-.91,2.71,2.71,0,0,1,1.38-.33,2.21,2.21,0,0,1,1,.26,2,2,0,0,1,.82.86,3.22,3.22,0,0,1,.32,1.53Zm-1.45-.87a1.25,1.25,0,0,0-.21-.76.7.7,0,0,0-.6-.29.75.75,0,0,0-.62.29,1.17,1.17,0,0,0-.24.76Z"/>
      <path d="M116.06,132.06h-1.55v-.45a2.62,2.62,0,0,1-.52.39,1.57,1.57,0,0,1-.76.15,1.81,1.81,0,0,1-.93-.27,2,2,0,0,1-.76-.84,3,3,0,0,1-.3-1.43,3.54,3.54,0,0,1,.23-1.27,2.16,2.16,0,0,1,.7-1,1.9,1.9,0,0,1,1.17-.37,1.77,1.77,0,0,1,1.17.38v-2.09h1.55Zm-1.55-1.58v-1.9a3.56,3.56,0,0,0-.43-.24.8.8,0,0,0-.36-.08.72.72,0,0,0-.6.35,1.63,1.63,0,0,0-.25,1,1.47,1.47,0,0,0,.26,1,.76.76,0,0,0,.59.3.9.9,0,0,0,.46-.1A2.39,2.39,0,0,0,114.51,130.48Z"/>
    </g>
    <path d="M115.39,87.14l1.13-2a21.89,21.89,0,0,0-9.12-2.45V85A19.45,19.45,0,0,1,115.39,87.14Z"/>
    <path d="M123,94l2-1.13a22.25,22.25,0,0,0-6.68-6.67l-1.13,2A19.93,19.93,0,0,1,123,94Z"/>
    <path d="M95.67,88.14l-1.13-2a22.1,22.1,0,0,0-6.67,6.67L89.82,94A19.77,19.77,0,0,1,95.67,88.14Z"/>
    <path d="M126.11,103.72h2.26a21.88,21.88,0,0,0-2.44-9.12l-2,1.12A19.6,19.6,0,0,1,126.11,103.72Z"/>
    <path d="M105.4,85V82.74a22,22,0,0,0-9.13,2.45l1.13,2A19.45,19.45,0,0,1,105.4,85Z"/>
    <path d="M89.82,115.44l-1.95,1.13a22,22,0,0,0,6.67,6.68l1.13-2A19.81,19.81,0,0,1,89.82,115.44Z"/>
    <path d="M117.12,121.3l1.13,2a22.17,22.17,0,0,0,6.68-6.68l-2-1.13A20,20,0,0,1,117.12,121.3Z"/>
    <path d="M126.11,105.72a19.55,19.55,0,0,1-2.13,8l2,1.13a21.88,21.88,0,0,0,2.44-9.12Z"/>
    <path d="M86.68,105.72H84.42a22,22,0,0,0,2.44,9.12l2-1.13A19.41,19.41,0,0,1,86.68,105.72Z"/>
    <path d="M88.82,95.72l-2-1.12a22,22,0,0,0-2.44,9.12h2.26A19.45,19.45,0,0,1,88.82,95.72Z"/>
    <g>
      <path d="M77.74,6.38l-5.53,7v-6a1.29,1.29,0,0,0-.64-1.17.91.91,0,0,0-1.13.29l-7.28,9.25a1.49,1.49,0,0,0,0,1.79.9.9,0,0,0,1.46,0l5.5-7v6a1.29,1.29,0,0,0,.64,1.17.92.92,0,0,0,1.14-.29s3.49-4.45,5.53-7v6.15a1.05,1.05,0,1,0,2.06,0V7.26a1.26,1.26,0,0,0-.65-1.17A.9.9,0,0,0,77.74,6.38Z" style="stroke: #000;stroke-width: 0.6000000000000001px"/>
      <path d="M63.16,6.31l-4.81,6.13a1.47,1.47,0,0,0,0,1.79.9.9,0,0,0,1.46,0l3.05-3.87v6.31a1.05,1.05,0,1,0,2.06,0V7.19A1.31,1.31,0,0,0,64.29,6,.91.91,0,0,0,63.16,6.31Z" style="stroke: #000;stroke-width: 0.6000000000000001px"/>
      <path d="M86.11,10.83a1,1,0,0,0-1-.77h-2.1l1.53-2s.8-1.17.1-1.82a1.27,1.27,0,0,0-1.58.06l-3.23,4.1a1.47,1.47,0,0,0-.2,1.38,1.05,1.05,0,0,0,.95.77h2.1l-2.49,3.17s-1,1.13-.27,1.89,1.75-.13,1.75-.13L85.9,12.2A1.47,1.47,0,0,0,86.11,10.83Z" style="stroke: #000;stroke-width: 0.6000000000000001px"/>
    </g>
    <g>
      <path d="M114.33,334.39a3.12,3.12,0,0,1-.31,1.4,2.4,2.4,0,0,1-.91,1,2.78,2.78,0,0,1-1.48.37,2.75,2.75,0,0,1-1.5-.39,2.42,2.42,0,0,1-.91-1,3.19,3.19,0,0,1-.3-1.37,3.14,3.14,0,0,1,.3-1.36,2.38,2.38,0,0,1,.91-1,2.75,2.75,0,0,1,1.5-.39,2.87,2.87,0,0,1,1.17.23,2.33,2.33,0,0,1,.85.6,2.38,2.38,0,0,1,.51.89A3.41,3.41,0,0,1,114.33,334.39Zm-1.46,0a1.87,1.87,0,0,0-.08-.55,1.11,1.11,0,0,0-.24-.44,1.14,1.14,0,0,0-.92-.39,1.12,1.12,0,0,0-.91.38,1.47,1.47,0,0,0-.33,1,1.5,1.5,0,0,0,.33,1,1.15,1.15,0,0,0,.91.38,1.31,1.31,0,0,0,.67-.17,1.08,1.08,0,0,0,.42-.5A1.66,1.66,0,0,0,112.87,334.39Z" style="fill: #fff"/>
      <path d="M118.43,337.1h-1.24v-.56a2.18,2.18,0,0,1-.55.48,1.47,1.47,0,0,1-.69.15,1,1,0,0,1-1-.52,3,3,0,0,1-.23-1.19v-2.33h1.24v2.15a1.6,1.6,0,0,0,.09.56.39.39,0,0,0,.41.25.52.52,0,0,0,.43-.18,2.5,2.5,0,0,0,.33-.45v-2.33h1.24Z" style="fill: #fff"/>
      <path d="M121.7,336.87a3.23,3.23,0,0,1-.53.21,2.54,2.54,0,0,1-.65.09c-.89,0-1.34-.49-1.34-1.48V334.1h-.56v-.24l1.66-1.92h.14v1.19h1.19v1h-1.19v1.28a1.73,1.73,0,0,0,0,.36.34.34,0,0,0,.13.22.49.49,0,0,0,.34.1,1.76,1.76,0,0,0,.78-.28Z" style="fill: #fff"/>
    </g>
    <g>
      <path d="M71,337.1H69.58V334l-1.29,1.81h-.12L66.87,334v3.13H65.48v-5.41h1.3l1.46,2,1.47-2H71Z"/>
      <path d="M75.37,336.9a4.85,4.85,0,0,1-.51.2,1.75,1.75,0,0,1-.55.07.59.59,0,0,1-.42-.12.65.65,0,0,1-.18-.3,1.63,1.63,0,0,1-.44.3,1.46,1.46,0,0,1-.64.12A1.16,1.16,0,0,1,72,337a.87.87,0,0,1-.33-.38,1.23,1.23,0,0,1-.09-.47,1,1,0,0,1,.16-.6,1.42,1.42,0,0,1,.44-.4,5.5,5.5,0,0,1,.73-.31l.39-.15.2-.07.13-.07a.87.87,0,0,0-.1-.46.53.53,0,0,0-.45-.16,1.5,1.5,0,0,0-.75.2,2.61,2.61,0,0,0-.63.53V333.6a2.13,2.13,0,0,1,.49-.31,2.81,2.81,0,0,1,.56-.18,4,4,0,0,1,.6-.05,1.72,1.72,0,0,1,1.14.33,1.17,1.17,0,0,1,.38.92v1.54a.89.89,0,0,0,0,.32.14.14,0,0,0,.13.11.8.8,0,0,0,.32-.11Zm-1.73-.76v-.94a3.64,3.64,0,0,0-.64.37.53.53,0,0,0-.2.44.4.4,0,0,0,.1.3.34.34,0,0,0,.24.11.52.52,0,0,0,.25-.08A2.19,2.19,0,0,0,73.64,336.14Z"/>
      <path d="M79.37,337.1H77.85L77.17,336l-.68,1.13H75.14l1.35-2-1.38-2h1.53l.64,1.08.65-1.08h1.36L78,335Z"/>
    </g>
    <g>
      <path d="M29.81,337.1H28.38V334l-1.3,1.81H27L25.67,334v3.13h-1.4v-5.41h1.31l1.46,2,1.47-2h1.3Z"/>
      <path d="M31.84,337.1H30.59v-4h1.25Zm-.1-4.89a.65.65,0,0,1-.16.42.48.48,0,0,1-.37.17.5.5,0,0,1-.26-.08.55.55,0,0,1-.19-.21.73.73,0,0,1-.07-.3.6.6,0,0,1,.16-.42.45.45,0,0,1,.36-.18.46.46,0,0,1,.37.18A.65.65,0,0,1,31.74,332.21Z"/>
      <path d="M36.14,337.1H34.91V335a1.61,1.61,0,0,0-.1-.57.39.39,0,0,0-.41-.25.5.5,0,0,0-.27.07.83.83,0,0,0-.21.16l-.15.2-.13.2v2.33H32.41v-4h1.23v.57a1.75,1.75,0,0,1,.59-.5,1.41,1.41,0,0,1,.65-.14q1.26,0,1.26,1.71Z"/>
    </g>
    <g>
      <path d="M27.56,288.63l-2.06,5.49h-.83l-1.24-3.19-1.27,3.19h-.84l-2-5.49h1.49l1,3,1.13-3h1l1.11,3,1-3Z"/>
      <path d="M29,294.05H27.8v-4H29Zm-.1-4.9a.57.57,0,0,1-.16.42.44.44,0,0,1-.36.17.43.43,0,0,1-.27-.08.46.46,0,0,1-.18-.21.6.6,0,0,1-.07-.3.64.64,0,0,1,.15-.42.48.48,0,0,1,.37-.17.48.48,0,0,1,.36.17A.6.6,0,0,1,28.94,289.15Z"/>
      <path d="M33.31,294.05H32.07v-.36a2.33,2.33,0,0,1-.41.31,1.29,1.29,0,0,1-.61.12,1.44,1.44,0,0,1-.75-.22,1.59,1.59,0,0,1-.6-.67,2.41,2.41,0,0,1-.24-1.14,2.88,2.88,0,0,1,.18-1,1.75,1.75,0,0,1,.56-.77,1.47,1.47,0,0,1,.94-.3,1.44,1.44,0,0,1,.55.09,1.3,1.3,0,0,1,.38.22v-1.68h1.24Zm-1.24-1.27v-1.52a3.44,3.44,0,0,0-.34-.19.65.65,0,0,0-.29-.06.56.56,0,0,0-.48.28,1.33,1.33,0,0,0-.2.77,1.13,1.13,0,0,0,.21.76.61.61,0,0,0,.47.24.7.7,0,0,0,.37-.08A1.21,1.21,0,0,0,32.07,292.78Z"/>
      <path d="M36.57,293.82a2.19,2.19,0,0,1-.53.2,2.14,2.14,0,0,1-.65.1c-.89,0-1.33-.5-1.33-1.49v-1.58H33.5v-.25l1.66-1.92h.14v1.19h1.18v1H35.3v1.27a3.21,3.21,0,0,0,0,.36.37.37,0,0,0,.14.23.53.53,0,0,0,.34.09,1.65,1.65,0,0,0,.77-.28Z"/>
      <path d="M40.57,294.05H39.33V292a.06.06,0,0,1,0,0v-.09a1.32,1.32,0,0,0-.11-.53.41.41,0,0,0-.4-.23.61.61,0,0,0-.42.17,2.4,2.4,0,0,0-.34.45v2.34H36.84v-5.42h1.23v2a1.77,1.77,0,0,1,.61-.5,1.52,1.52,0,0,1,.63-.14c.84,0,1.26.54,1.26,1.61Z"/>
    </g>
    <g>
      <path d="M68.07,291.86h-2v2.19H64.66v-5.42h3.41v1.09h-2v1h2Z"/>
      <path d="M72.14,292.4H69.68A.93.93,0,0,0,70,293a1,1,0,0,0,.64.23,2.93,2.93,0,0,0,1.38-.4v.88a4.18,4.18,0,0,1-.66.29,3.32,3.32,0,0,1-1,.13,2,2,0,0,1-1.1-.28,1.73,1.73,0,0,1-.68-.74,2.53,2.53,0,0,1,0-2.11,1.71,1.71,0,0,1,.68-.73,2.21,2.21,0,0,1,1.1-.26,1.72,1.72,0,0,1,.82.21,1.59,1.59,0,0,1,.65.68,2.61,2.61,0,0,1,.26,1.23ZM71,291.7a1,1,0,0,0-.17-.61.56.56,0,0,0-.48-.23.62.62,0,0,0-.5.24.94.94,0,0,0-.19.6Z"/>
      <path d="M76.06,292.4H73.59A1,1,0,0,0,74,293a.93.93,0,0,0,.63.23,3,3,0,0,0,1.39-.4v.88a4.18,4.18,0,0,1-.66.29,3.39,3.39,0,0,1-1,.13,2,2,0,0,1-1.1-.28,1.73,1.73,0,0,1-.68-.74,2.64,2.64,0,0,1,0-2.11,1.71,1.71,0,0,1,.68-.73,2.24,2.24,0,0,1,1.1-.26,1.76,1.76,0,0,1,.83.21,1.65,1.65,0,0,1,.65.68,2.61,2.61,0,0,1,.26,1.23Zm-1.17-.7a1,1,0,0,0-.16-.61.56.56,0,0,0-.48-.23.59.59,0,0,0-.5.24.88.88,0,0,0-.19.6Z"/>
      <path d="M80.09,294.05H78.84v-.36a2,2,0,0,1-.41.31,1.28,1.28,0,0,1-.6.12,1.39,1.39,0,0,1-.75-.22,1.54,1.54,0,0,1-.61-.67,2.41,2.41,0,0,1-.24-1.14,2.88,2.88,0,0,1,.18-1,1.75,1.75,0,0,1,.56-.77,1.68,1.68,0,0,1,1.5-.21,1.25,1.25,0,0,1,.37.22v-1.68h1.25Zm-1.25-1.27v-1.52l-.33-.19a.68.68,0,0,0-.29-.06.57.57,0,0,0-.49.28,1.33,1.33,0,0,0-.19.77,1.19,1.19,0,0,0,.2.76.63.63,0,0,0,.48.24.64.64,0,0,0,.36-.08A1.21,1.21,0,0,0,78.84,292.78Z"/>
    </g>
    <g>
      <path d="M114.36,294.05h-1.54l-.38-1a3.46,3.46,0,0,0-.37-.77.81.81,0,0,0-.32-.32,1.1,1.1,0,0,0-.4-.07h-.16v2.12h-1.44v-5.42h2.44a1.62,1.62,0,0,1,1,.28,1.58,1.58,0,0,1,.55.66,1.9,1.9,0,0,1,.16.74,1.48,1.48,0,0,1-.14.7,1.27,1.27,0,0,1-.29.41,2.38,2.38,0,0,1-.35.24,1.49,1.49,0,0,1,.38.37,4.62,4.62,0,0,1,.41.84Zm-2-3.71a.57.57,0,0,0-.22-.52,1.25,1.25,0,0,0-.7-.15h-.3V291h.31a1.47,1.47,0,0,0,.72-.13A.58.58,0,0,0,112.41,290.34Z"/>
      <path d="M118.12,292.4h-2.47a1,1,0,0,0,.36.59,1,1,0,0,0,.64.23,2.93,2.93,0,0,0,1.38-.4v.88a4.18,4.18,0,0,1-.66.29,3.32,3.32,0,0,1-1,.13,2,2,0,0,1-1.1-.28,1.67,1.67,0,0,1-.68-.74,2.53,2.53,0,0,1,0-2.11,1.65,1.65,0,0,1,.68-.73,2.21,2.21,0,0,1,1.1-.26,1.72,1.72,0,0,1,.82.21,1.59,1.59,0,0,1,.65.68,2.61,2.61,0,0,1,.26,1.23Zm-1.16-.7a1,1,0,0,0-.17-.61.56.56,0,0,0-.48-.23.62.62,0,0,0-.5.24.88.88,0,0,0-.19.6Z"/>
      <path d="M121.18,292.89a1.18,1.18,0,0,1-.35.89,1.47,1.47,0,0,1-1,.34,2.84,2.84,0,0,1-.69-.08,6.6,6.6,0,0,1-.66-.23v-1a4.76,4.76,0,0,0,.55.31,1.18,1.18,0,0,0,.5.1c.31,0,.47-.09.47-.29a.28.28,0,0,0-.07-.17,1,1,0,0,0-.23-.17l-.45-.23a1.74,1.74,0,0,1-.58-.46,1,1,0,0,1-.25-.71,1.17,1.17,0,0,1,.16-.57,1.26,1.26,0,0,1,.49-.45,1.67,1.67,0,0,1,.78-.17l.28,0a2.55,2.55,0,0,1,.43.09,2.13,2.13,0,0,1,.49.21v1l-.18-.12-.2-.11a1.58,1.58,0,0,0-.29-.12,1.32,1.32,0,0,0-.34,0,.4.4,0,0,0-.3.09.28.28,0,0,0-.07.19.24.24,0,0,0,.08.18,1.66,1.66,0,0,0,.37.21,3.3,3.3,0,0,1,.66.37,1.12,1.12,0,0,1,.35.41A1.27,1.27,0,0,1,121.18,292.89Z"/>
    </g>
    <g>
      <path d="M28.7,255.39H27.27V250H28.7Z"/>
      <path d="M33.16,255.39H31.92v-2.15a1.7,1.7,0,0,0-.09-.57.41.41,0,0,0-.42-.24.6.6,0,0,0-.27.06,1.06,1.06,0,0,0-.2.17l-.15.19-.13.2v2.34H29.42v-4h1.24V252a2,2,0,0,1,.58-.5,1.59,1.59,0,0,1,.66-.14q1.26,0,1.26,1.71Z"/>
    </g>
    <g>
      <path d="M65.92,253.82a1.55,1.55,0,0,1-.23.87,1.45,1.45,0,0,1-.63.57,2.2,2.2,0,0,1-.94.2l-.37,0-.57-.12a4.69,4.69,0,0,1-.74-.29V253.7a4.88,4.88,0,0,0,.71.42,1.59,1.59,0,0,0,.75.17c.25,0,.4,0,.48-.14a.43.43,0,0,0,.1-.26.47.47,0,0,0-.18-.37,2.77,2.77,0,0,0-.54-.31,4.48,4.48,0,0,1-.69-.4,1.73,1.73,0,0,1-.48-.56,1.5,1.5,0,0,1-.19-.78,1.59,1.59,0,0,1,.19-.79,1.39,1.39,0,0,1,.58-.57,2,2,0,0,1,1-.21,2.81,2.81,0,0,1,.73.09,2.39,2.39,0,0,1,.56.2,1.63,1.63,0,0,1,.3.17v1.27a3.86,3.86,0,0,0-.65-.43,1.68,1.68,0,0,0-.76-.19.54.54,0,0,0-.39.12.4.4,0,0,0-.12.29.38.38,0,0,0,.12.28,1.86,1.86,0,0,0,.43.28,9.18,9.18,0,0,1,.88.53,1.85,1.85,0,0,1,.51.54A1.42,1.42,0,0,1,65.92,253.82Z"/>
      <path d="M70.26,253.37a3.18,3.18,0,0,1-.1.77,2.16,2.16,0,0,1-.31.67,1.5,1.5,0,0,1-.52.48,1.66,1.66,0,0,1-.75.17,1.54,1.54,0,0,1-.54-.08,2.65,2.65,0,0,1-.4-.22v2H66.41v-5.79h1.23v.36a2,2,0,0,1,.41-.3,1.2,1.2,0,0,1,.61-.13,1.39,1.39,0,0,1,.75.22,1.54,1.54,0,0,1,.61.67A2.41,2.41,0,0,1,70.26,253.37Zm-1.31,0a1.4,1.4,0,0,0-.1-.58.64.64,0,0,0-.25-.32.6.6,0,0,0-.33-.1.64.64,0,0,0-.36.08,1.26,1.26,0,0,0-.27.2v1.52a.55.55,0,0,1,.14.09l.15.08.16.06.18,0a.58.58,0,0,0,.49-.28A1.33,1.33,0,0,0,69,253.4Z"/>
      <path d="M74.21,253.74H71.74a1,1,0,0,0,.36.59.94.94,0,0,0,.63.24,3.12,3.12,0,0,0,1.39-.4V255a3.42,3.42,0,0,1-.66.29,3.08,3.08,0,0,1-1,.13,2.14,2.14,0,0,1-1.1-.27,1.76,1.76,0,0,1-.68-.75,2.64,2.64,0,0,1,0-2.11,1.63,1.63,0,0,1,.68-.72,2.14,2.14,0,0,1,1.1-.27,1.76,1.76,0,0,1,.83.21,1.65,1.65,0,0,1,.65.68,2.61,2.61,0,0,1,.26,1.23ZM73,253.05a1.06,1.06,0,0,0-.16-.62.55.55,0,0,0-.48-.22.59.59,0,0,0-.5.23.91.91,0,0,0-.19.61Z"/>
      <path d="M78.12,253.74H75.66a1,1,0,0,0,.35.59,1,1,0,0,0,.64.24,3.05,3.05,0,0,0,1.38-.4V255a3.42,3.42,0,0,1-.66.29,3,3,0,0,1-1,.13,2.11,2.11,0,0,1-1.1-.27,1.76,1.76,0,0,1-.68-.75,2.64,2.64,0,0,1,0-2.11,1.63,1.63,0,0,1,.68-.72,2.11,2.11,0,0,1,1.1-.27,1.72,1.72,0,0,1,.82.21,1.67,1.67,0,0,1,.66.68,2.61,2.61,0,0,1,.25,1.23ZM77,253.05a1.06,1.06,0,0,0-.17-.62.55.55,0,0,0-.48-.22.61.61,0,0,0-.5.23,1,1,0,0,0-.19.61Z"/>
      <path d="M82.15,255.39H80.91V255a2.33,2.33,0,0,1-.41.31,1.29,1.29,0,0,1-.61.12,1.44,1.44,0,0,1-.75-.22,1.59,1.59,0,0,1-.6-.67,2.41,2.41,0,0,1-.24-1.14,2.88,2.88,0,0,1,.18-1,1.75,1.75,0,0,1,.56-.77,1.47,1.47,0,0,1,.94-.3,1.44,1.44,0,0,1,.55.09,1.57,1.57,0,0,1,.38.22V250h1.24Zm-1.24-1.27V252.6a3.44,3.44,0,0,0-.34-.19.65.65,0,0,0-.29-.06.56.56,0,0,0-.48.28,1.33,1.33,0,0,0-.2.77,1.13,1.13,0,0,0,.21.76.59.59,0,0,0,.47.24.7.7,0,0,0,.37-.08A1.21,1.21,0,0,0,80.91,254.12Z"/>
    </g>
    <g>
      <path d="M110.24,252.78a3,3,0,0,1-.26,1.34,2.92,2.92,0,0,1-.63.81,2,2,0,0,1-1.43.46h-2.58V250h2a4.32,4.32,0,0,1,.77.05,2.38,2.38,0,0,1,.57.15,2,2,0,0,1,.44.21,2.66,2.66,0,0,1,.31.26,2.22,2.22,0,0,1,.43.53,2.58,2.58,0,0,1,.29.72A3.08,3.08,0,0,1,110.24,252.78Zm-1.46-.07a2,2,0,0,0-.22-1,1.12,1.12,0,0,0-.53-.49,1.59,1.59,0,0,0-.64-.13h-.61v3.21h.61a1.57,1.57,0,0,0,1-.31A1.5,1.5,0,0,0,108.78,252.71Z"/>
      <path d="M114.23,253.74h-2.46a1,1,0,0,0,.35.59,1,1,0,0,0,.64.24,3.05,3.05,0,0,0,1.38-.4V255a3.61,3.61,0,0,1-.65.29,3.08,3.08,0,0,1-1,.13,2.11,2.11,0,0,1-1.1-.27,1.76,1.76,0,0,1-.68-.75,2.64,2.64,0,0,1,0-2.11,1.63,1.63,0,0,1,.68-.72,2.11,2.11,0,0,1,1.1-.27,1.7,1.7,0,0,1,.82.21,1.61,1.61,0,0,1,.66.68,2.61,2.61,0,0,1,.25,1.23Zm-1.16-.69a1,1,0,0,0-.17-.62.55.55,0,0,0-.47-.22.59.59,0,0,0-.5.23.91.91,0,0,0-.2.61Z"/>
      <path d="M118.4,253.37a2.76,2.76,0,0,1-.1.77,1.94,1.94,0,0,1-.3.67,1.53,1.53,0,0,1-.53.48,1.58,1.58,0,0,1-.74.17,1.54,1.54,0,0,1-.54-.08,2.24,2.24,0,0,1-.4-.22v2h-1.24v-5.79h1.24v.36a2,2,0,0,1,.41-.3,1.2,1.2,0,0,1,.61-.13,1.39,1.39,0,0,1,.75.22,1.54,1.54,0,0,1,.61.67A2.54,2.54,0,0,1,118.4,253.37Zm-1.3,0a1.4,1.4,0,0,0-.1-.58.61.61,0,0,0-.26-.32.55.55,0,0,0-.32-.1.64.64,0,0,0-.36.08,1.05,1.05,0,0,0-.27.2v1.52a.55.55,0,0,1,.14.09l.15.08.16.06.18,0a.59.59,0,0,0,.49-.28A1.33,1.33,0,0,0,117.1,253.4Z"/>
      <path d="M121.53,255.16a2.48,2.48,0,0,1-.54.2,2.13,2.13,0,0,1-.64.1c-.9,0-1.34-.49-1.34-1.48v-1.59h-.56v-.25l1.66-1.92h.14v1.19h1.18v1h-1.18v1.27a3.21,3.21,0,0,0,0,.36.43.43,0,0,0,.14.23.53.53,0,0,0,.34.09,1.68,1.68,0,0,0,.78-.28Z"/>
      <path d="M125.52,255.39h-1.23v-2.2a1.27,1.27,0,0,0-.11-.52.39.39,0,0,0-.4-.24.58.58,0,0,0-.42.18,2.8,2.8,0,0,0-.34.44v2.34h-1.23V250H123v2a1.89,1.89,0,0,1,.61-.5,1.53,1.53,0,0,1,.64-.14c.83,0,1.25.54,1.25,1.61Z"/>
    </g>
    <path d="M59.73,194H56.11v-.11a5.77,5.77,0,0,0,.46-.55c.17-.21.39-.49.65-.84l.34-.47a3.82,3.82,0,0,0,.27-.45,2.66,2.66,0,0,0,.2-.48,1.89,1.89,0,0,0,.08-.53,1,1,0,0,0-.19-.61.59.59,0,0,0-.49-.23,1.59,1.59,0,0,0-1.16.68v-1.27l.33-.24.3-.18.4-.15a2.1,2.1,0,0,1,.51-.06,1.6,1.6,0,0,1,.79.2,1.47,1.47,0,0,1,.57.59,1.87,1.87,0,0,1,.2.88,2.48,2.48,0,0,1-.09.68,3.81,3.81,0,0,1-.19.5l-.27.47c-.2.34-.41.65-.63,1h1.54Z"/>
    <path d="M87.77,192.15a2.18,2.18,0,0,1-.12.72,1.83,1.83,0,0,1-.38.63,1.55,1.55,0,0,1-.58.43,1.71,1.71,0,0,1-.75.16,1.76,1.76,0,0,1-1-.3,1.84,1.84,0,0,1-.64-.79,2.47,2.47,0,0,1-.22-1.05,3.32,3.32,0,0,1,.14-.92,4.23,4.23,0,0,1,.39-.91,5.6,5.6,0,0,1,.59-.85,7,7,0,0,1,.78-.75l1.18.45-.49.49a5.71,5.71,0,0,0-.39.47,3.92,3.92,0,0,0-.33.5.93.93,0,0,1,.31,0,1.38,1.38,0,0,1,.77.22,1.49,1.49,0,0,1,.57.62A1.92,1.92,0,0,1,87.77,192.15Zm-1.23,0a.73.73,0,0,0-.19-.56.57.57,0,0,0-.43-.17.52.52,0,0,0-.48.23.91.91,0,0,0-.15.5.83.83,0,0,0,.18.53.54.54,0,0,0,.43.22.53.53,0,0,0,.36-.13.66.66,0,0,0,.21-.29A.85.85,0,0,0,86.54,192.13Z"/>
    <g>
      <path d="M65,205.67a1.67,1.67,0,0,1-.22.88,1.53,1.53,0,0,1-.64.57,2.16,2.16,0,0,1-.94.19,2.43,2.43,0,0,1-.36,0,2.65,2.65,0,0,1-.57-.12,3.43,3.43,0,0,1-.74-.29v-1.32a4.4,4.4,0,0,0,.71.42,1.71,1.71,0,0,0,.74.17.61.61,0,0,0,.48-.14.41.41,0,0,0-.08-.63,2.5,2.5,0,0,0-.54-.31,4.49,4.49,0,0,1-.69-.41,2,2,0,0,1-.48-.55,1.65,1.65,0,0,1-.19-.79,1.74,1.74,0,0,1,.19-.79,1.43,1.43,0,0,1,.58-.56,2,2,0,0,1,.95-.21,2.9,2.9,0,0,1,.74.08,3.56,3.56,0,0,1,.56.2l.3.17v1.27a3.62,3.62,0,0,0-.65-.42,1.6,1.6,0,0,0-.77-.19A.54.54,0,0,0,63,203a.39.39,0,0,0,0,.56,1.82,1.82,0,0,0,.43.29,8.23,8.23,0,0,1,.88.52,1.93,1.93,0,0,1,.52.55A1.45,1.45,0,0,1,65,205.67Z"/>
      <path d="M68.28,207a3.23,3.23,0,0,1-.53.21,2.6,2.6,0,0,1-.65.09c-.89,0-1.34-.49-1.34-1.48v-1.59H65.2V204l1.66-1.92H67v1.19h1.18v1H67v1.28a3.21,3.21,0,0,0,0,.36.46.46,0,0,0,.14.23.55.55,0,0,0,.34.09,1.76,1.76,0,0,0,.78-.28Z"/>
      <path d="M72.17,207a3.71,3.71,0,0,1-.5.2,1.86,1.86,0,0,1-.56.07.59.59,0,0,1-.42-.12.75.75,0,0,1-.18-.3,1.43,1.43,0,0,1-.44.3,1.31,1.31,0,0,1-.64.12,1.16,1.16,0,0,1-.62-.15.87.87,0,0,1-.33-.38,1.23,1.23,0,0,1-.09-.47,1,1,0,0,1,.16-.6,1.42,1.42,0,0,1,.44-.4,5.5,5.5,0,0,1,.73-.31l.39-.14.2-.08.14-.07a.81.81,0,0,0-.11-.45.48.48,0,0,0-.44-.17,1.54,1.54,0,0,0-.76.2,2.86,2.86,0,0,0-.63.53v-1.08a2,2,0,0,1,.5-.31,2,2,0,0,1,.56-.17,2.88,2.88,0,0,1,.59-.06,1.72,1.72,0,0,1,1.14.33,1.14,1.14,0,0,1,.38.92V206a1.19,1.19,0,0,0,0,.32.14.14,0,0,0,.13.11.76.76,0,0,0,.32-.11Zm-1.72-.76v-.94a3.44,3.44,0,0,0-.65.37.54.54,0,0,0-.2.44.4.4,0,0,0,.1.3.34.34,0,0,0,.24.11.49.49,0,0,0,.25-.08C70.27,206.42,70.36,206.36,70.45,206.28Z"/>
      <path d="M75.8,204.11h-.62a1.07,1.07,0,0,1,.33.79,1.27,1.27,0,0,1-.09.47,1.39,1.39,0,0,1-.27.41,1.51,1.51,0,0,1-.44.28,1.76,1.76,0,0,1-.59.14c-.29,0-.43.1-.43.26a.2.2,0,0,0,0,.14.54.54,0,0,0,.18.06l.4.05a3.43,3.43,0,0,1,.59.11,1,1,0,0,1,.51.33,1,1,0,0,1,.24.71,1.21,1.21,0,0,1-.18.66,1,1,0,0,1-.57.44,2.74,2.74,0,0,1-1,.16,2.61,2.61,0,0,1-1.38-.28.85.85,0,0,1-.38-1.06.86.86,0,0,1,.24-.33,1.13,1.13,0,0,1,.54-.21.44.44,0,0,1-.22-.19.59.59,0,0,1-.09-.31.82.82,0,0,1,.13-.41.57.57,0,0,1,.41-.26,1.51,1.51,0,0,1-.68-.44,1.24,1.24,0,0,1-.29-.84,1.67,1.67,0,0,1,.14-.69,1.31,1.31,0,0,1,.36-.47,1.35,1.35,0,0,1,.55-.27,2.36,2.36,0,0,1,.67-.09H75.8ZM74.67,208a.32.32,0,0,0-.24-.34,1.7,1.7,0,0,0-.51-.08,1.37,1.37,0,0,0-.62.11.34.34,0,0,0-.19.33c0,.29.26.44.79.44a1.24,1.24,0,0,0,.56-.11A.38.38,0,0,0,74.67,208Zm-.24-3.2a.69.69,0,0,0-.18-.49.57.57,0,0,0-.41-.18.55.55,0,0,0-.45.22.76.76,0,0,0-.16.46.64.64,0,0,0,.07.31.59.59,0,0,0,.2.24.54.54,0,0,0,.31.09.57.57,0,0,0,.44-.2A.63.63,0,0,0,74.43,204.79Z"/>
      <path d="M79.55,205.6H77.08a1,1,0,0,0,.36.59,1,1,0,0,0,.63.23,3,3,0,0,0,1.39-.4v.87a3,3,0,0,1-1.65.42,2.14,2.14,0,0,1-1.1-.27,1.73,1.73,0,0,1-.68-.74,2.42,2.42,0,0,1-.22-1.06,2.38,2.38,0,0,1,.22-1.05,1.71,1.71,0,0,1,.68-.73,2.13,2.13,0,0,1,1.1-.26,1.76,1.76,0,0,1,.83.21,1.59,1.59,0,0,1,.65.68,2.57,2.57,0,0,1,.26,1.22Zm-1.17-.7a1,1,0,0,0-.16-.61.56.56,0,0,0-.48-.23.61.61,0,0,0-.5.23.93.93,0,0,0-.19.61Z"/>
      <path d="M82.61,206.08a1.2,1.2,0,0,1-.35.89,1.46,1.46,0,0,1-1.05.34,2.42,2.42,0,0,1-.69-.08,4.63,4.63,0,0,1-.66-.22v-1a5.41,5.41,0,0,0,.54.3,1.23,1.23,0,0,0,.51.11c.31,0,.46-.1.46-.29a.23.23,0,0,0-.07-.17,1,1,0,0,0-.23-.18l-.44-.22a1.92,1.92,0,0,1-.59-.46,1.09,1.09,0,0,1-.24-.71,1.07,1.07,0,0,1,.16-.57,1.31,1.31,0,0,1,.48-.45,1.73,1.73,0,0,1,.78-.17h.28a3.6,3.6,0,0,1,.43.1,2.21,2.21,0,0,1,.5.21v1l-.19-.13-.19-.11a1.72,1.72,0,0,0-.3-.11,1.27,1.27,0,0,0-.34,0,.34.34,0,0,0-.29.1.29.29,0,0,0-.08.18.25.25,0,0,0,.08.18,1.24,1.24,0,0,0,.37.21,3.23,3.23,0,0,1,.66.37,1.12,1.12,0,0,1,.35.42A1.25,1.25,0,0,1,82.61,206.08Z"/>
    </g>
    <path d="M74.09,180.13h-.56v1.17H72.26v-1.17H70.32v-1l2.18-3.22h1v3.32h.56Zm-1.83-.93v-1.74l-1.18,1.74Z"/>
    <g id="pips_-_fewest" data-name="pips - fewest">
      <g style="clip-path: url(#clip-path)">
        <g style="clip-path: url(#clip-path-2)">
          <path d="M77.82,134.94l.71-1.24a13.86,13.86,0,0,0-5.77-1.54v1.43a12.39,12.39,0,0,1,5.06,1.35"/>
          <path d="M82.61,139.27l1.24-.71a14,14,0,0,0-4.23-4.22l-.71,1.23a12.55,12.55,0,0,1,3.7,3.7"/>
          <path d="M65.34,135.57l-.71-1.23a14,14,0,0,0-4.23,4.22l1.24.71a12.55,12.55,0,0,1,3.7-3.7"/>
          <path d="M84.6,145.43H86a13.83,13.83,0,0,0-1.55-5.77l-1.23.71a12.47,12.47,0,0,1,1.35,5.06"/>
          <path d="M71.49,133.59v-1.43a13.86,13.86,0,0,0-5.77,1.54l.71,1.24a12.39,12.39,0,0,1,5.06-1.35"/>
          <path d="M61.64,152.85l-1.24.71a14,14,0,0,0,4.23,4.22l.71-1.23a12.55,12.55,0,0,1-3.7-3.7"/>
          <path d="M78.91,156.55l.71,1.23a14,14,0,0,0,4.23-4.22l-1.24-.71a12.55,12.55,0,0,1-3.7,3.7"/>
          <path d="M84.6,146.69a12.47,12.47,0,0,1-1.35,5.06l1.23.71A13.83,13.83,0,0,0,86,146.69Z"/>
          <path d="M59.65,146.69H58.22a13.83,13.83,0,0,0,1.55,5.77l1.23-.71a12.47,12.47,0,0,1-1.35-5.06"/>
          <path d="M61,140.37l-1.23-.71a13.83,13.83,0,0,0-1.55,5.77h1.43A12.47,12.47,0,0,1,61,140.37"/>
        </g>
      </g>
    </g>
    <g>
      <path d="M71,166.45H69l-.47-1.2a4.81,4.81,0,0,0-.46-1,1.07,1.07,0,0,0-.4-.4,1.43,1.43,0,0,0-.51-.08H67v2.64H65.2v-6.77h3.06a2,2,0,0,1,1.21.35,1.88,1.88,0,0,1,.68.83,2.31,2.31,0,0,1,.21.92,2.08,2.08,0,0,1-.17.87,1.46,1.46,0,0,1-.37.51,3.65,3.65,0,0,1-.43.31,1.84,1.84,0,0,1,.47.45,7.1,7.1,0,0,1,.51,1.06Zm-2.44-4.63a.73.73,0,0,0-.27-.65,1.53,1.53,0,0,0-.88-.19H67v1.63h.39a1.72,1.72,0,0,0,.9-.16A.72.72,0,0,0,68.53,161.82Z"/>
      <path d="M75.67,164.39H72.59a1.21,1.21,0,0,0,.44.74,1.23,1.23,0,0,0,.8.29,3.8,3.8,0,0,0,1.73-.5V166a4.66,4.66,0,0,1-.83.37,4.17,4.17,0,0,1-1.23.16,2.65,2.65,0,0,1-1.37-.34,2.18,2.18,0,0,1-.85-.93,3,3,0,0,1-.28-1.33,2.93,2.93,0,0,1,.28-1.31,2.08,2.08,0,0,1,.85-.91,2.65,2.65,0,0,1,1.37-.33,2.22,2.22,0,0,1,1,.26,2.07,2.07,0,0,1,.82.86,3.22,3.22,0,0,1,.32,1.53Zm-1.45-.87a1.25,1.25,0,0,0-.21-.76.7.7,0,0,0-.6-.29.79.79,0,0,0-.63.29,1.17,1.17,0,0,0-.24.76Z"/>
      <path d="M79.5,165a1.48,1.48,0,0,1-.44,1.11,1.8,1.8,0,0,1-1.31.43,3.3,3.3,0,0,1-.87-.1,6.31,6.31,0,0,1-.82-.29V164.9a5.88,5.88,0,0,0,.68.39,1.45,1.45,0,0,0,.63.13c.39,0,.58-.12.58-.36a.37.37,0,0,0-.08-.22,1.48,1.48,0,0,0-.3-.21c-.14-.08-.32-.18-.55-.29a2.16,2.16,0,0,1-.73-.57,1.37,1.37,0,0,1-.3-.89,1.32,1.32,0,0,1,.2-.71,1.42,1.42,0,0,1,.6-.56,2,2,0,0,1,1-.22l.35,0a3.89,3.89,0,0,1,.54.12,2.81,2.81,0,0,1,.62.26V163l-.23-.16a1.72,1.72,0,0,0-.25-.14,2.08,2.08,0,0,0-.36-.14,1.54,1.54,0,0,0-.43-.06.43.43,0,0,0-.36.12.34.34,0,0,0-.1.23.32.32,0,0,0,.1.23,1.54,1.54,0,0,0,.46.26,3.8,3.8,0,0,1,.82.46,1.32,1.32,0,0,1,.44.52A1.54,1.54,0,0,1,79.5,165Z"/>
    </g>
    <g id="pips_-_fewest-2" data-name="pips - fewest">
      <g style="clip-path: url(#clip-path-3)">
        <g style="clip-path: url(#clip-path-3)">
          <path d="M35,146.28l.71-1.24A13.82,13.82,0,0,0,30,143.5v1.42A12.48,12.48,0,0,1,35,146.28"/>
          <path d="M39.84,150.61l1.23-.71a13.92,13.92,0,0,0-4.22-4.22l-.71,1.23a12.55,12.55,0,0,1,3.7,3.7"/>
          <path d="M22.56,146.91l-.71-1.23a13.81,13.81,0,0,0-4.22,4.22l1.23.71a12.55,12.55,0,0,1,3.7-3.7"/>
          <path d="M41.82,156.77h1.43A13.82,13.82,0,0,0,41.71,151l-1.24.71a12.31,12.31,0,0,1,1.35,5.06"/>
          <path d="M28.72,144.92V143.5A13.82,13.82,0,0,0,23,145l.71,1.24a12.48,12.48,0,0,1,5.06-1.36"/>
          <path d="M18.86,164.18l-1.23.72a14,14,0,0,0,4.22,4.22l.71-1.23a12.58,12.58,0,0,1-3.7-3.71"/>
          <path d="M36.14,167.89l.71,1.23a14,14,0,0,0,4.22-4.22l-1.23-.72a12.58,12.58,0,0,1-3.7,3.71"/>
          <path d="M41.82,158a12.31,12.31,0,0,1-1.35,5.06l1.24.71A13.82,13.82,0,0,0,43.25,158Z"/>
          <path d="M16.88,158H15.45A13.82,13.82,0,0,0,17,163.8l1.24-.71A12.31,12.31,0,0,1,16.88,158"/>
          <path d="M18.23,151.71,17,151a13.82,13.82,0,0,0-1.54,5.77h1.43a12.31,12.31,0,0,1,1.35-5.06"/>
        </g>
      </g>
    </g>
    <g>
      <path d="M29.19,177.79h-1.8v-3.92l-1.62,2.27h-.14L24,173.87v3.92H22.26V171h1.63l1.83,2.54L27.56,171h1.63Z"/>
      <path d="M31.72,177.79H30.17v-5h1.55Zm-.13-6.12a.73.73,0,0,1-.19.52.58.58,0,0,1-.46.22.56.56,0,0,1-.33-.1.58.58,0,0,1-.23-.26.82.82,0,0,1-.09-.38.76.76,0,0,1,.19-.52.59.59,0,0,1,.92,0A.76.76,0,0,1,31.59,171.67Z"/>
      <path d="M37.1,177.79H35.56v-2.68a2,2,0,0,0-.12-.72.5.5,0,0,0-.52-.3.67.67,0,0,0-.33.08.75.75,0,0,0-.26.21,1.33,1.33,0,0,0-.19.24c0,.08-.11.16-.16.25v2.92H32.43v-5H34v.71a2.37,2.37,0,0,1,.73-.62,1.86,1.86,0,0,1,.82-.18c1,0,1.57.71,1.57,2.14Z"/>
    </g>
    <g id="pips_-_fewest-3" data-name="pips - fewest">
      <g style="clip-path: url(#clip-path-5)">
        <g style="clip-path: url(#clip-path-5)">
          <path d="M120.59,146.28l.71-1.24a13.82,13.82,0,0,0-5.77-1.54v1.42a12.48,12.48,0,0,1,5.06,1.36"/>
          <path d="M125.39,150.61l1.23-.71a13.92,13.92,0,0,0-4.22-4.22l-.71,1.23a12.55,12.55,0,0,1,3.7,3.7"/>
          <path d="M108.11,146.91l-.71-1.23a13.81,13.81,0,0,0-4.22,4.22l1.23.71a12.55,12.55,0,0,1,3.7-3.7"/>
          <path d="M127.37,156.77h1.43a13.82,13.82,0,0,0-1.54-5.77l-1.24.71a12.31,12.31,0,0,1,1.35,5.06"/>
          <path d="M114.27,144.92V143.5A13.82,13.82,0,0,0,108.5,145l.71,1.24a12.48,12.48,0,0,1,5.06-1.36"/>
          <path d="M104.41,164.18l-1.23.72a14,14,0,0,0,4.22,4.22l.71-1.23a12.58,12.58,0,0,1-3.7-3.71"/>
          <path d="M121.69,167.89l.71,1.23a14,14,0,0,0,4.22-4.22l-1.23-.72a12.58,12.58,0,0,1-3.7,3.71"/>
          <path d="M127.37,158a12.31,12.31,0,0,1-1.35,5.06l1.24.71A13.82,13.82,0,0,0,128.8,158Z"/>
          <path d="M102.43,158H101a13.82,13.82,0,0,0,1.54,5.77l1.24-.71a12.31,12.31,0,0,1-1.35-5.06"/>
          <path d="M103.78,151.71l-1.24-.71a13.82,13.82,0,0,0-1.54,5.77h1.43a12.31,12.31,0,0,1,1.35-5.06"/>
        </g>
      </g>
    </g>
    <g>
      <path d="M113.52,177.79h-1.8v-3.92l-1.62,2.27H110l-1.63-2.27v3.92h-1.74V171h1.63l1.83,2.54,1.84-2.54h1.63Z"/>
      <path d="M119,177.54a5,5,0,0,1-.63.24,2,2,0,0,1-.69.1.7.7,0,0,1-.53-.16.8.8,0,0,1-.21-.37,2.63,2.63,0,0,1-.56.38,1.81,1.81,0,0,1-.8.15,1.37,1.37,0,0,1-.77-.19,1,1,0,0,1-.41-.47,1.52,1.52,0,0,1-.12-.59,1.36,1.36,0,0,1,.2-.76,1.53,1.53,0,0,1,.55-.49,6.37,6.37,0,0,1,.91-.4l.49-.18.25-.09.17-.09a1,1,0,0,0-.13-.57.64.64,0,0,0-.56-.2,1.81,1.81,0,0,0-.94.25,3.27,3.27,0,0,0-.79.66v-1.35A2.46,2.46,0,0,1,115,173a3.38,3.38,0,0,1,.7-.23,4.53,4.53,0,0,1,.74-.07,2.12,2.12,0,0,1,1.43.42,1.44,1.44,0,0,1,.48,1.15v1.92a1.44,1.44,0,0,0,0,.41.18.18,0,0,0,.17.13.92.92,0,0,0,.39-.14Zm-2.15-.95v-1.18a3.53,3.53,0,0,0-.8.46.66.66,0,0,0-.26.55.52.52,0,0,0,.13.38.37.37,0,0,0,.29.13.57.57,0,0,0,.32-.1Z"/>
      <path d="M124,177.79h-1.91l-.85-1.41-.84,1.41h-1.69l1.69-2.44-1.73-2.53h1.91l.81,1.35.81-1.35h1.7l-1.66,2.36Z"/>
    </g>
  </g>
  <g id="components">
    <circle id="Out" cx="115.17" cy="313.84" r="11.34" style="fill: blue"/>
    <circle id="Max_CV" data-name="Max CV" cx="72.13" cy="313.84" r="11.34" style="fill: lime"/>
    <circle id="Min_CV" data-name="Min CV" cx="29.94" cy="313.84" r="11.34" style="fill: lime"/>
    <circle id="Res_CV" data-name="Res CV" cx="115.17" cy="272.23" r="11.34" style="fill: lime"/>
    <circle id="Feed_CV" data-name="Feed CV" cx="72.13" cy="272.23" r="11.34" style="fill: lime"/>
    <circle id="Width_CV" data-name="Width CV" cx="29.94" cy="272.23" r="11.34" style="fill: lime"/>
    <circle id="Depth_CV" data-name="Depth CV" cx="115.17" cy="232.1" r="11.34" style="fill: lime"/>
    <circle id="Speed_CV" data-name="Speed CV" cx="72.13" cy="232.1" r="11.34" style="fill: lime"/>
    <circle id="In" cx="29.94" cy="232.1" r="11.34" style="fill: lime"/>
    <rect id="Stages" x="66.12" y="183.76" width="11.34" height="17.01" transform="translate(264.06 120.48) rotate(90)" style="fill: #ffc080"/>
    <circle id="Max" cx="114.9" cy="157.15" r="8.5" style="fill: #ff0040"/>
    <circle id="Res" cx="72.13" cy="145.81" r="8.5" style="fill: #ff0040"/>
    <circle id="Min" cx="29.35" cy="157.15" r="8.5" style="fill: #ff0040"/>
    <circle id="Feed" cx="106.4" cy="104.62" r="17.01" style="fill: #ff0070"/>
    <circle id="Width" cx="37.85" cy="104.62" r="17.01" style="fill: #ff0040"/>
    <circle id="Depth" cx="106.4" cy="46.42" r="17.01" style="fill: #ff0070"/>
    <circle id="Speed" cx="37.85" cy="46.42" r="17.01" style="fill: #ff0040"/>
    <text id="slug" transform="translate(118.66 369.08)" style="font-size: 3px;font-family: MyriadPro-Regular, Myriad Pro"><tspan style="letter-spacing: -0.0048828125em">P</tspan><tspan x="1.58" y="0">haser</tspan></text>
    <text id="modulename" transform="translate(134.35 369.08)" style="font-size: 3px;font-family: MyriadPro-Regular, Myriad Pro"><tspan style="letter-spacing: -0.0048828125em">P</tspan><tspan x="1.58" y="0">haser</tspan></text>
  </g>
</svg>
