<svg xmlns="http://www.w3.org/2000/svg" width="40.73mm" height="130.34mm" viewBox="0 0 115.45 369.47">
  <g id="faceplate">
    <rect x="0.13" y="0.13" width="115.2" height="364.25" style="fill: #ededed;stroke: #9d9d9e;stroke-miterlimit: 10;stroke-width: 0.25px"/>
    <g>
      <path d="M25.9,13.31a4.54,4.54,0,1,0,0-9.07H17.47a4.54,4.54,0,1,0,0,9.07Z"/>
      <path d="M25.9,360.57a4.54,4.54,0,1,0,0-9.07H17.47a4.54,4.54,0,1,0,0,9.07Z"/>
    </g>
    <path d="M57,217.92C57,211.19,51.83,205,45.09,205H17.18c-6.73,0-12.55,6.1-12.55,12.83v76.26H57Z"/>
    <path d="M30.93,34.53a19.92,19.92,0,0,0-2.46.17l-.39-2.22a22.57,22.57,0,0,1,5.69,0l-.39,2.22A19.9,19.9,0,0,0,30.93,34.53Z"/>
    <path d="M16.43,40.9l-1.72-1.45a22.06,22.06,0,0,1,4.34-3.66l1.12,1.94A20.26,20.26,0,0,0,16.43,40.9Z"/>
    <path d="M21.9,36.73l-1.12-1.94a21.67,21.67,0,0,1,5.33-2l.39,2.22A19.77,19.77,0,0,0,21.9,36.73Z"/>
    <path d="M12.7,46.67l-2.1-.77A21.78,21.78,0,0,1,13.43,41l1.72,1.44A19.43,19.43,0,0,0,12.7,46.67Z"/>
    <path d="M35.35,35l.39-2.21a21.67,21.67,0,0,1,5.33,2L40,36.73A20.09,20.09,0,0,0,35.35,35Z"/>
    <path d="M11.21,53.36H9a22,22,0,0,1,1-5.58l2.11.77A19.6,19.6,0,0,0,11.21,53.36Z"/>
    <path d="M12.07,60.16l-2.1.77a21.72,21.72,0,0,1-1-5.57H11.2A19.74,19.74,0,0,0,12.07,60.16Z"/>
    <path d="M15.21,66.24,13.5,67.68a22.06,22.06,0,0,1-2.84-4.88l2.1-.76A20.05,20.05,0,0,0,15.21,66.24Z"/>
    <path d="M46.7,42.43,48.43,41a22.23,22.23,0,0,1,2.83,4.92l-2.1.77A19.64,19.64,0,0,0,46.7,42.43Z"/>
    <path d="M49.83,48.55l2.11-.77a22,22,0,0,1,1,5.58H50.64A19.6,19.6,0,0,0,49.83,48.55Z"/>
    <path d="M50.65,55.36h2.24a22.17,22.17,0,0,1-1,5.57l-2.1-.77A19.74,19.74,0,0,0,50.65,55.36Z"/>
    <path d="M49.09,62l2.11.76a22.46,22.46,0,0,1-2.84,4.88l-1.72-1.44A19.87,19.87,0,0,0,49.09,62Z"/>
    <path d="M20.23,70.89l-1.11,1.93A21.91,21.91,0,0,1,14.8,69.2l1.71-1.43A20.39,20.39,0,0,0,20.23,70.89Z"/>
    <path d="M45.35,67.77l1.71,1.43a22.2,22.2,0,0,1-4.32,3.62l-1.12-1.94A20,20,0,0,0,45.35,67.77Z"/>
    <path d="M41.68,37.73l1.12-1.94a22.12,22.12,0,0,1,4.35,3.66L45.42,40.9A19.94,19.94,0,0,0,41.68,37.73Z"/>
    <path d="M30.9,141.05a13.13,13.13,0,0,0-1.54.1l-.25-1.39a13.41,13.41,0,0,1,3.58,0l-.25,1.39A13,13,0,0,0,30.9,141.05Z"/>
    <path d="M21.79,145.05l-1.09-.91a14.29,14.29,0,0,1,2.73-2.3l.71,1.22A12.83,12.83,0,0,0,21.79,145.05Z"/>
    <path d="M25.23,142.43l-.71-1.22A13.78,13.78,0,0,1,27.88,140l.24,1.39A12.33,12.33,0,0,0,25.23,142.43Z"/>
    <path d="M19.44,148.68l-1.32-.48a13.73,13.73,0,0,1,1.78-3.09L21,146A12.55,12.55,0,0,0,19.44,148.68Z"/>
    <path d="M33.68,141.37l.25-1.39a13.7,13.7,0,0,1,3.35,1.23l-.7,1.22A12.57,12.57,0,0,0,33.68,141.37Z"/>
    <path d="M18.51,152.89H17.09a13.58,13.58,0,0,1,.6-3.51l1.32.48A12.15,12.15,0,0,0,18.51,152.89Z"/>
    <path d="M19.05,157.16l-1.32.49a13.77,13.77,0,0,1-.64-3.5H18.5A12.21,12.21,0,0,0,19.05,157.16Z"/>
    <path d="M21,161l-1.08.9a14,14,0,0,1-1.78-3.06l1.32-.49A12.73,12.73,0,0,0,21,161Z"/>
    <path d="M40.82,146l1.09-.91a14.12,14.12,0,0,1,1.78,3.09l-1.33.48A12.14,12.14,0,0,0,40.82,146Z"/>
    <path d="M42.79,149.86l1.32-.48a13.59,13.59,0,0,1,.61,3.51H43.3A12.64,12.64,0,0,0,42.79,149.86Z"/>
    <path d="M43.31,154.15h1.4a14,14,0,0,1-.63,3.49l-1.32-.48A12.69,12.69,0,0,0,43.31,154.15Z"/>
    <path d="M42.32,158.34l1.33.49a14.42,14.42,0,0,1-1.79,3.06l-1.08-.9A12.55,12.55,0,0,0,42.32,158.34Z"/>
    <path d="M24.18,163.91l-.7,1.21a13.84,13.84,0,0,1-2.72-2.27l1.08-.9A12.3,12.3,0,0,0,24.18,163.91Z"/>
    <path d="M40,161.94l1.08.91a13.84,13.84,0,0,1-2.72,2.27l-.7-1.21A12.29,12.29,0,0,0,40,161.94Z"/>
    <path d="M37.66,143.06l.71-1.22a13.71,13.71,0,0,1,2.73,2.3l-1.09.91A12.51,12.51,0,0,0,37.66,143.06Z"/>
    <path d="M30.9,96.89a13.13,13.13,0,0,0-1.54.1l-.25-1.39a13.41,13.41,0,0,1,3.58,0L32.44,97A13,13,0,0,0,30.9,96.89Z"/>
    <path d="M21.79,100.89,20.7,100a14.29,14.29,0,0,1,2.73-2.3l.71,1.22A12.83,12.83,0,0,0,21.79,100.89Z"/>
    <path d="M25.23,98.27l-.71-1.22a13.78,13.78,0,0,1,3.36-1.23l.24,1.39A12.33,12.33,0,0,0,25.23,98.27Z"/>
    <path d="M19.44,104.52,18.12,104A13.73,13.73,0,0,1,19.9,101l1.08.91A12.55,12.55,0,0,0,19.44,104.52Z"/>
    <path d="M33.68,97.21l.25-1.39a13.31,13.31,0,0,1,3.35,1.23l-.7,1.22A12.12,12.12,0,0,0,33.68,97.21Z"/>
    <path d="M18.51,108.73H17.09a13.58,13.58,0,0,1,.6-3.51l1.32.48A12.15,12.15,0,0,0,18.51,108.73Z"/>
    <path d="M19.05,113l-1.32.49a13.77,13.77,0,0,1-.64-3.5H18.5A12.21,12.21,0,0,0,19.05,113Z"/>
    <path d="M21,116.83l-1.08.9a14,14,0,0,1-1.78-3.06l1.32-.49A13,13,0,0,0,21,116.83Z"/>
    <path d="M40.82,101.86l1.09-.91A14.12,14.12,0,0,1,43.69,104l-1.33.48A11.91,11.91,0,0,0,40.82,101.86Z"/>
    <path d="M42.79,105.7l1.32-.48a13.59,13.59,0,0,1,.61,3.51H43.3A12.64,12.64,0,0,0,42.79,105.7Z"/>
    <path d="M43.31,110h1.4a14,14,0,0,1-.63,3.49L42.76,113A12.69,12.69,0,0,0,43.31,110Z"/>
    <path d="M42.32,114.18l1.33.49a14.42,14.42,0,0,1-1.79,3.06l-1.08-.9A12.55,12.55,0,0,0,42.32,114.18Z"/>
    <path d="M24.18,119.75l-.7,1.21a13.84,13.84,0,0,1-2.72-2.27l1.08-.9A12.3,12.3,0,0,0,24.18,119.75Z"/>
    <path d="M40,117.78l1.08.91A13.84,13.84,0,0,1,38.33,121l-.7-1.21A12.66,12.66,0,0,0,40,117.78Z"/>
    <path d="M37.66,98.9l.71-1.22A13.71,13.71,0,0,1,41.1,100l-1.09.91A12.51,12.51,0,0,0,37.66,98.9Z"/>
    <g>
      <g>
        <line x1="31.05" y1="107.33" x2="31.05" y2="111.49" style="stroke: #231f20"/>
        <line x1="33.13" y1="109.41" x2="28.96" y2="109.41" style="stroke: #231f20"/>
      </g>
      <line x1="31.05" y1="107.33" x2="31.05" y2="111.49" style="stroke: #231f20"/>
      <line x1="31.05" y1="107.33" x2="31.05" y2="111.49" style="stroke: #231f20"/>
      <line x1="31.05" y1="107.33" x2="31.05" y2="111.49" style="stroke: #231f20"/>
      <line x1="31.05" y1="107.33" x2="31.05" y2="111.49" style="stroke: #231f20"/>
      <line x1="31.05" y1="107.33" x2="31.05" y2="111.49" style="stroke: #231f20"/>
      <line x1="31.05" y1="107.33" x2="31.05" y2="111.49" style="stroke: #231f20"/>
    </g>
    <path d="M57.46,315h0V293.62a7.12,7.12,0,0,0-2.77-5.74c-.3-.23-29.66-23.22-39.91-31.36h0a6.12,6.12,0,0,0-3.9-1.37,6.09,6.09,0,0,0-6.16,6h0V315h0v6.73a12.88,12.88,0,0,0,12.87,12.87h27a12.89,12.89,0,0,0,12.87-12.87ZM5.72,261.2m0,59.8" style="stroke: #ededed"/>
    <path d="M5.13,237.39H22.94a12.27,12.27,0,0,0,12.24-12.24V205.56H17.37A12.28,12.28,0,0,0,5.13,217.8v19.59Z" style="fill: #ededed;stroke: #000"/>
    <g>
      <path d="M17.23,246H15.8v-5.78h1.43Z" style="fill: #fff"/>
      <path d="M23.57,246H22.3l-2.46-3.22V246H18.43v-5.78h1.26l2.45,3.2v-3.2h1.43Z" style="fill: #fff"/>
    </g>
    <path d="M13.13,271.51H11.42v1.86h-1v-1.86H8.74v-1.05h1.71v-1.85h1v1.85h1.71Z" style="fill: #fff"/>
    <path d="M52.41,302.47H48.32v-1.19h4.09Z" style="fill: #fff"/>
    <g>
      <path d="M13,82.09a2.42,2.42,0,0,1-.29,1.2,2,2,0,0,1-.82.78,2.59,2.59,0,0,1-1.2.27l-.46,0a3.37,3.37,0,0,1-.73-.16,4.72,4.72,0,0,1-.95-.4V81.93a6.26,6.26,0,0,0,.91.58,2.08,2.08,0,0,0,.95.23c.32,0,.52-.06.61-.19a.57.57,0,0,0,.14-.36.63.63,0,0,0-.24-.5,2.86,2.86,0,0,0-.69-.43,5.77,5.77,0,0,1-.88-.56,2.3,2.3,0,0,1-.61-.76,2.25,2.25,0,0,1-.24-1.07,2.39,2.39,0,0,1,.24-1.09A1.91,1.91,0,0,1,9.52,77a2.38,2.38,0,0,1,1.21-.28,3.51,3.51,0,0,1,.94.12,3.65,3.65,0,0,1,.72.27,3.24,3.24,0,0,1,.38.23v1.74a5.1,5.1,0,0,0-.83-.58,2,2,0,0,0-1-.26.71.71,0,0,0-.5.16.57.57,0,0,0-.15.4.54.54,0,0,0,.15.38,2.74,2.74,0,0,0,.55.39,10.74,10.74,0,0,1,1.13.73,2.43,2.43,0,0,1,.66.74A2.09,2.09,0,0,1,13,82.09Z"/>
      <path d="M18.38,82H15.23a1.37,1.37,0,0,0,.45.81,1.21,1.21,0,0,0,.82.32,3.68,3.68,0,0,0,1.76-.55v1.2a4.12,4.12,0,0,1-.84.39,3.71,3.71,0,0,1-1.25.18A2.53,2.53,0,0,1,14.76,84a2.28,2.28,0,0,1-.87-1,3.77,3.77,0,0,1,0-2.9,2.2,2.2,0,0,1,.87-1,2.53,2.53,0,0,1,1.41-.37,2.13,2.13,0,0,1,1,.29,2.09,2.09,0,0,1,.83.94,3.69,3.69,0,0,1,.33,1.68Zm-1.49-1a1.49,1.49,0,0,0-.21-.84.69.69,0,0,0-.61-.31.74.74,0,0,0-.64.32,1.34,1.34,0,0,0-.25.83Z"/>
      <path d="M23.7,84.25H22.12v-3a2.28,2.28,0,0,0-.12-.78.51.51,0,0,0-.53-.34.62.62,0,0,0-.34.09,1.18,1.18,0,0,0-.27.23,1.48,1.48,0,0,0-.19.27c-.06.08-.11.18-.17.27v3.21H18.92V78.79H20.5v.78a2.43,2.43,0,0,1,.75-.68,1.8,1.8,0,0,1,.84-.2c1.07,0,1.61.79,1.61,2.35Z"/>
      <path d="M27.91,82.66a1.71,1.71,0,0,1-.46,1.22,1.76,1.76,0,0,1-1.33.46,3,3,0,0,1-.89-.11,5.52,5.52,0,0,1-.84-.31V82.55a6.1,6.1,0,0,0,.69.42,1.44,1.44,0,0,0,.65.15c.39,0,.59-.14.59-.4a.41.41,0,0,0-.08-.24,1.15,1.15,0,0,0-.3-.23,6.17,6.17,0,0,0-.57-.32,2.52,2.52,0,0,1-.75-.63,1.67,1.67,0,0,1-.1-1.75,1.6,1.6,0,0,1,.62-.62,1.91,1.91,0,0,1,1-.24l.36,0a3.09,3.09,0,0,1,.55.12,3,3,0,0,1,.63.29v1.34l-.23-.17-.26-.16a1.58,1.58,0,0,0-.37-.15,1.29,1.29,0,0,0-.43-.07.45.45,0,0,0-.38.13.41.41,0,0,0-.1.26.38.38,0,0,0,.11.25,1.64,1.64,0,0,0,.47.28,4.41,4.41,0,0,1,.84.51,1.5,1.5,0,0,1,.45.57A1.84,1.84,0,0,1,27.91,82.66Z"/>
      <path d="M30.19,84.25H28.61V78.79h1.58Zm-.12-6.72a.84.84,0,0,1-.2.57.59.59,0,0,1-.47.24.58.58,0,0,1-.34-.11.76.76,0,0,1-.24-.29.91.91,0,0,1-.09-.41.88.88,0,0,1,.2-.57.58.58,0,0,1,.47-.24.59.59,0,0,1,.47.24A.88.88,0,0,1,30.07,77.53Z"/>
      <path d="M34.57,83.93a3,3,0,0,1-.68.28,2.76,2.76,0,0,1-.83.13c-1.14,0-1.71-.67-1.71-2V80.13h-.71v-.34l2.12-2.64h.18v1.64h1.51v1.34H32.94v1.75a3.19,3.19,0,0,0,0,.49.5.5,0,0,0,.17.31.63.63,0,0,0,.44.13,2.1,2.1,0,0,0,1-.38Z"/>
      <path d="M36.69,84.25H35.1V78.79h1.59Zm-.13-6.72a.84.84,0,0,1-.2.57.59.59,0,0,1-.47.24.62.62,0,0,1-.34-.11.66.66,0,0,1-.23-.29.8.8,0,0,1-.09-.41.87.87,0,0,1,.19-.57.58.58,0,0,1,.94,0A.88.88,0,0,1,36.56,77.53Z"/>
      <path d="M42.26,78.79l-2,5.46H39.06l-2-5.46h1.69l.93,2.86,1-2.86Z"/>
      <path d="M44.21,84.25H42.62V78.79h1.59Zm-.13-6.72a.84.84,0,0,1-.19.57.61.61,0,0,1-.47.24.58.58,0,0,1-.34-.11.76.76,0,0,1-.24-.29.91.91,0,0,1-.09-.41A.88.88,0,0,1,43,77a.57.57,0,0,1,.47-.24.61.61,0,0,1,.47.24A.87.87,0,0,1,44.08,77.53Z"/>
      <path d="M48.59,83.93a3.25,3.25,0,0,1-.68.28,2.8,2.8,0,0,1-.83.13c-1.14,0-1.71-.67-1.71-2V80.13h-.71v-.34l2.12-2.64H47v1.64h1.51v1.34H47v1.75a3.19,3.19,0,0,0,0,.49.5.5,0,0,0,.17.31.61.61,0,0,0,.43.13,2.1,2.1,0,0,0,1-.38Z"/>
      <path d="M53.83,78.79l-3,7.94h-1.6l1.23-3.2-1.77-4.74h1.7l.91,2.71,1-2.71Z"/>
    </g>
    <g>
      <path d="M21.36,129.07a2.15,2.15,0,0,1-.26,1.07,1.68,1.68,0,0,1-.73.69,2.27,2.27,0,0,1-1.06.24,3.18,3.18,0,0,1-.41,0,4.07,4.07,0,0,1-.65-.15,4.18,4.18,0,0,1-.84-.35v-1.62a4.84,4.84,0,0,0,.8.51,1.81,1.81,0,0,0,.85.21.65.65,0,0,0,.54-.17.51.51,0,0,0,.13-.32.58.58,0,0,0-.21-.45,3.22,3.22,0,0,0-.62-.38,5.79,5.79,0,0,1-.78-.49,2.17,2.17,0,0,1-.55-.68,2.06,2.06,0,0,1-.21-1,2.18,2.18,0,0,1,.21-1,1.69,1.69,0,0,1,.66-.69,2.13,2.13,0,0,1,1.08-.26,3.22,3.22,0,0,1,.84.11,3,3,0,0,1,.63.24,2.14,2.14,0,0,1,.34.21v1.55a3.63,3.63,0,0,0-.74-.52,1.77,1.77,0,0,0-.87-.23.61.61,0,0,0-.44.14.52.52,0,0,0-.14.36.45.45,0,0,0,.14.33,1.88,1.88,0,0,0,.49.35,8.76,8.76,0,0,1,1,.65,2.3,2.3,0,0,1,.59.66A1.88,1.88,0,0,1,21.36,129.07Z"/>
      <path d="M26.21,131H24.8v-.69a2.22,2.22,0,0,1-.62.58,1.52,1.52,0,0,1-.79.19,1.1,1.1,0,0,1-1.16-.64A3.66,3.66,0,0,1,22,129v-2.85h1.41v2.62a1.85,1.85,0,0,0,.11.69.45.45,0,0,0,.47.3.61.61,0,0,0,.49-.22,3.87,3.87,0,0,0,.36-.54v-2.85h1.41Z"/>
      <path d="M30,129.57a1.54,1.54,0,0,1-.4,1.09,1.62,1.62,0,0,1-1.19.41,3.12,3.12,0,0,1-.79-.09,6.49,6.49,0,0,1-.75-.28v-1.22a4.54,4.54,0,0,0,.62.37,1.2,1.2,0,0,0,.57.13c.35,0,.53-.11.53-.35a.32.32,0,0,0-.08-.21,1.29,1.29,0,0,0-.26-.21l-.51-.28a2.1,2.1,0,0,1-.66-.56,1.41,1.41,0,0,1-.28-.87,1.33,1.33,0,0,1,.19-.69,1.42,1.42,0,0,1,.54-.55,1.8,1.8,0,0,1,.89-.21l.32,0a3.51,3.51,0,0,1,.49.11,2.37,2.37,0,0,1,.56.26v1.19l-.21-.15a1.4,1.4,0,0,0-.22-.14,2.52,2.52,0,0,0-.33-.14,1.32,1.32,0,0,0-.39-.06.4.4,0,0,0-.34.12.35.35,0,0,0-.09.23.36.36,0,0,0,.1.22,1.35,1.35,0,0,0,.42.25,4.11,4.11,0,0,1,.75.45,1.55,1.55,0,0,1,.4.51A1.6,1.6,0,0,1,30,129.57Z"/>
      <path d="M33.69,130.71a2.86,2.86,0,0,1-.61.24,2.42,2.42,0,0,1-.73.12c-1,0-1.52-.6-1.52-1.81v-1.93h-.64V127l1.89-2.35h.16v1.46h1.34v1.19H32.24v1.55a2.59,2.59,0,0,0,0,.44.46.46,0,0,0,.15.28.57.57,0,0,0,.38.11,1.82,1.82,0,0,0,.89-.34Z"/>
      <path d="M38.21,130.74a4.38,4.38,0,0,1-.57.24,1.89,1.89,0,0,1-.62.09.64.64,0,0,1-.49-.15.78.78,0,0,1-.19-.36,2.08,2.08,0,0,1-.51.37,1.52,1.52,0,0,1-.72.14,1.27,1.27,0,0,1-.71-.18,1,1,0,0,1-.37-.46,1.66,1.66,0,0,1-.11-.58,1.34,1.34,0,0,1,.19-.74,1.54,1.54,0,0,1,.5-.48,5.41,5.41,0,0,1,.82-.38l.45-.18.22-.09.16-.08a1.11,1.11,0,0,0-.12-.56.56.56,0,0,0-.51-.2,1.53,1.53,0,0,0-.85.25,3.14,3.14,0,0,0-.73.64v-1.32a2.92,2.92,0,0,1,.57-.37,2.85,2.85,0,0,1,.64-.22,3,3,0,0,1,.67-.07,1.84,1.84,0,0,1,1.3.41,1.45,1.45,0,0,1,.43,1.12v1.87a1.3,1.3,0,0,0,.05.4.14.14,0,0,0,.15.13.69.69,0,0,0,.35-.14Zm-2-.92v-1.15a3.28,3.28,0,0,0-.73.44.65.65,0,0,0-.23.54.58.58,0,0,0,.11.37.35.35,0,0,0,.27.13.48.48,0,0,0,.29-.1A2.64,2.64,0,0,0,36.26,129.82Z"/>
      <path d="M40,131H38.62v-4.85H40Zm-.11-6a.76.76,0,0,1-.18.51.51.51,0,0,1-.41.21.54.54,0,0,1-.3-.1.71.71,0,0,1-.22-.26.86.86,0,0,1-.07-.36.75.75,0,0,1,.17-.51.5.5,0,0,1,.83,0A.76.76,0,0,1,39.92,125Z"/>
      <path d="M45,131H43.62v-2.62a2.11,2.11,0,0,0-.1-.7.44.44,0,0,0-.47-.29.62.62,0,0,0-.31.07,1.12,1.12,0,0,0-.23.21,1.18,1.18,0,0,0-.17.24,2.52,2.52,0,0,0-.15.24V131h-1.4v-4.85h1.4v.69a2.08,2.08,0,0,1,.67-.61,1.64,1.64,0,0,1,.74-.17c.95,0,1.43.7,1.43,2.09Z"/>
    </g>
    <g>
      <path d="M16.39,175.53h-3.7v-6h3.64v1.2H14.17v1.1h2.06v1.21H14.17v1.27h2.22Z"/>
      <path d="M20.83,175.53H19.55v-2.37a2,2,0,0,0-.09-.63.41.41,0,0,0-.43-.27.5.5,0,0,0-.27.07.92.92,0,0,0-.22.18,2.17,2.17,0,0,0-.15.22,1.59,1.59,0,0,0-.13.22v2.58H17v-4.4h1.28v.63a2,2,0,0,1,.6-.55,1.5,1.5,0,0,1,.67-.16c.87,0,1.3.64,1.3,1.9Z"/>
      <path d="M25.2,171.13l-1.64,4.4h-.94L21,171.13h1.37l.75,2.3.83-2.3Z"/>
      <path d="M26.39,174.68a1,1,0,0,1-.22.66.65.65,0,0,1-.53.27.66.66,0,0,1-.54-.28,1,1,0,0,1,0-1.31.68.68,0,0,1,.54-.27.65.65,0,0,1,.37.12.84.84,0,0,1,.28.34A1,1,0,0,1,26.39,174.68Z"/>
      <path d="M34.06,172.64a3.4,3.4,0,0,1-.27,1.48,3,3,0,0,1-.65.9,2,2,0,0,1-1.47.51H29v-6h2a4.46,4.46,0,0,1,.79.06,3.39,3.39,0,0,1,.59.17,2.56,2.56,0,0,1,.44.23,1.9,1.9,0,0,1,.33.29,2.22,2.22,0,0,1,.44.59,3,3,0,0,1,.3.79A3.74,3.74,0,0,1,34.06,172.64Zm-1.5-.07a2.37,2.37,0,0,0-.23-1.14,1.17,1.17,0,0,0-.55-.55,1.65,1.65,0,0,0-.65-.14H30.5v3.55h.63a1.52,1.52,0,0,0,1-.34A1.68,1.68,0,0,0,32.56,172.57Z"/>
      <path d="M38.27,173.71H35.73a1.1,1.1,0,0,0,.37.65,1,1,0,0,0,.65.26,3,3,0,0,0,1.43-.44v1a3.31,3.31,0,0,1-.68.32,3,3,0,0,1-1,.15,2,2,0,0,1-1.13-.31,1.87,1.87,0,0,1-.7-.82,3.07,3.07,0,0,1,0-2.33,1.82,1.82,0,0,1,.7-.8,2,2,0,0,1,1.13-.3,1.63,1.63,0,0,1,.85.24A1.67,1.67,0,0,1,38,172a3.11,3.11,0,0,1,.26,1.36Zm-1.2-.77a1.16,1.16,0,0,0-.17-.68.55.55,0,0,0-.49-.25.64.64,0,0,0-.52.26,1.07,1.07,0,0,0-.19.67Z"/>
      <path d="M41.79,175.33l-.34.13a3.26,3.26,0,0,1-.4.11,3.58,3.58,0,0,1-.48,0,1.83,1.83,0,0,1-1-.25,1.61,1.61,0,0,1-.63-.61,2.65,2.65,0,0,1-.31-.75,3.11,3.11,0,0,1-.09-.68,3,3,0,0,1,.09-.68,2.38,2.38,0,0,1,.31-.74,1.7,1.7,0,0,1,.62-.6,2,2,0,0,1,1-.25,2.87,2.87,0,0,1,.65.07,3.52,3.52,0,0,1,.51.19v1.22a3,3,0,0,0-1-.24.85.85,0,0,0-.61.25,1,1,0,0,0-.26.78,1.2,1.2,0,0,0,.13.59.93.93,0,0,0,.33.35.9.9,0,0,0,.41.11,1.47,1.47,0,0,0,.43-.07,6,6,0,0,0,.6-.2Z"/>
      <path d="M46,175.31a4,4,0,0,1-.52.21,1.62,1.62,0,0,1-.57.09.59.59,0,0,1-.44-.14.74.74,0,0,1-.17-.33,1.62,1.62,0,0,1-.46.33,1.4,1.4,0,0,1-.66.14,1.15,1.15,0,0,1-.64-.17.92.92,0,0,1-.34-.42,1.54,1.54,0,0,1-.09-.52,1.17,1.17,0,0,1,.17-.67,1.24,1.24,0,0,1,.45-.43,4.47,4.47,0,0,1,.75-.35l.4-.16.2-.09.14-.07a1,1,0,0,0-.1-.5c-.07-.13-.23-.19-.46-.19a1.45,1.45,0,0,0-.78.23,2.71,2.71,0,0,0-.65.58v-1.19a2.06,2.06,0,0,1,.51-.34,2.34,2.34,0,0,1,.58-.2,3.08,3.08,0,0,1,.61-.07,1.67,1.67,0,0,1,1.17.37,1.32,1.32,0,0,1,.4,1v1.7a1.11,1.11,0,0,0,0,.36.14.14,0,0,0,.13.12.67.67,0,0,0,.33-.13Zm-1.78-.84v-1a3.4,3.4,0,0,0-.66.4.61.61,0,0,0-.21.49.49.49,0,0,0,.11.33.31.31,0,0,0,.24.12.45.45,0,0,0,.26-.09A2.39,2.39,0,0,0,44.17,174.47Z"/>
      <path d="M50,171.13l-2.45,6.4H46.28l1-2.58-1.43-3.82h1.37l.74,2.19.83-2.19Z"/>
    </g>
    <path d="M46.66,198.92v-6.38h-1a6.09,6.09,0,0,0,1.17,3.2c1.14,1.6,3.45,3.15,7.75,3.18v-1c-4.08,0-6-1.44-7-2.77a5.09,5.09,0,0,1-.85-1.82,3.11,3.11,0,0,1-.11-.6v-.19h-1v6.38Z"/>
    <path d="M9.43,198.92v-6.38h-1a5.5,5.5,0,0,0,.32,1.61,6.31,6.31,0,0,0,2.22,3l.61.46.89-3.88L12,193.6l-.49.11a11,11,0,0,0,.81,2.19,6.65,6.65,0,0,0,1.14,1.66,3.61,3.61,0,0,0,1.82,1.09h0c.38.08.62.14.92.19a7.88,7.88,0,0,0,1.15.08v-1a6.72,6.72,0,0,1-1-.07c-.24,0-.47-.09-.88-.18h0a2.59,2.59,0,0,1-1.32-.8,6.92,6.92,0,0,1-1.3-2.16,8.41,8.41,0,0,1-.3-.88c0-.11-.06-.2-.07-.26l0-.08h-1l-.72,3.13.49.11.3-.4a5.33,5.33,0,0,1-1.87-2.51,4.45,4.45,0,0,1-.24-.94c0-.12,0-.21,0-.27v-.06h-1v6.38Z"/>
    <g>
      <path d="M7.35,185.65v.72H5.71v1.24H7.35v.73H5.71v2.09H5v-4.78Z"/>
      <path d="M8.87,187.17a1.36,1.36,0,0,1,.74.21,1.42,1.42,0,0,1,.52.59,1.93,1.93,0,0,1,.18.85,2,2,0,0,1-.18.87,1.25,1.25,0,0,1-.51.58,1.39,1.39,0,0,1-1.5,0,1.37,1.37,0,0,1-.51-.58,2.23,2.23,0,0,1,0-1.73,1.4,1.4,0,0,1,.52-.58A1.32,1.32,0,0,1,8.87,187.17Zm-.71,1.65a1.32,1.32,0,0,0,.19.76.6.6,0,0,0,.52.29.58.58,0,0,0,.52-.28,1.32,1.32,0,0,0,.2-.78,1.26,1.26,0,0,0-.2-.75.6.6,0,0,0-.52-.26.59.59,0,0,0-.51.28A1.18,1.18,0,0,0,8.16,188.82Z"/>
      <path d="M11.21,185.65v4.78h-.69v-4.78Z"/>
      <path d="M12.57,185.65v4.78h-.69v-4.78Z"/>
      <path d="M14.52,187.17a1.42,1.42,0,0,1,.75.21,1.4,1.4,0,0,1,.51.59,1.93,1.93,0,0,1,.18.85,2.14,2.14,0,0,1-.17.87,1.43,1.43,0,0,1-1.27.8,1.29,1.29,0,0,1-.74-.22,1.33,1.33,0,0,1-.52-.58,2.14,2.14,0,0,1-.17-.87,2,2,0,0,1,.18-.86,1.47,1.47,0,0,1,.52-.58A1.32,1.32,0,0,1,14.52,187.17Zm-.71,1.65a1.32,1.32,0,0,0,.19.76.6.6,0,0,0,.52.29.61.61,0,0,0,.53-.28,1.32,1.32,0,0,0,.19-.78,1.19,1.19,0,0,0-.2-.75.63.63,0,0,0-1,0A1.25,1.25,0,0,0,13.81,188.82Z"/>
      <path d="M16.52,187.24l.61,1.84.62-1.84h.45l.61,1.84.61-1.84h.71L19,190.49h-.29l-.71-2-.71,2H17l-1.18-3.25Z"/>
    </g>
    <g>
      <path d="M46.22,185.59a2.84,2.84,0,0,1,1.43.4v.84a2.58,2.58,0,0,0-1.4-.44,1.4,1.4,0,0,0-.76.21,1.46,1.46,0,0,0-.52.6,2.05,2.05,0,0,0-.18.87,1.69,1.69,0,0,0,.4,1.18,1.37,1.37,0,0,0,1.05.44,2,2,0,0,0,.35,0l.39-.15v-.79h-.65V188h1.4v2a2.09,2.09,0,0,1-.69.38,2.64,2.64,0,0,1-.84.14,2.11,2.11,0,0,1-1.13-.31,2.2,2.2,0,0,1-.78-.87,2.73,2.73,0,0,1-.28-1.25,2.79,2.79,0,0,1,.28-1.27,2.13,2.13,0,0,1,.8-.88A2.1,2.1,0,0,1,46.22,185.59Z"/>
      <path d="M49.47,187.17a1.08,1.08,0,0,1,.92.46,2.05,2.05,0,0,1,.33,1.24V189H48.87a1.17,1.17,0,0,0,.26.66.82.82,0,0,0,.61.23,1.12,1.12,0,0,0,.47-.11,2,2,0,0,0,.47-.31v.62a1.59,1.59,0,0,1-1.11.4,1.26,1.26,0,0,1-1-.46,1.73,1.73,0,0,1-.4-1.21,1.85,1.85,0,0,1,.37-1.18A1.13,1.13,0,0,1,49.47,187.17Zm.6,1.32a.94.94,0,0,0-.17-.54.46.46,0,0,0-.4-.2.52.52,0,0,0-.42.19,1.08,1.08,0,0,0-.2.55Z"/>
      <path d="M52.63,187.17a.81.81,0,0,1,.67.34,1.44,1.44,0,0,1,.25.89v2h-.68v-2a.89.89,0,0,0-.13-.49.38.38,0,0,0-.33-.18.5.5,0,0,0-.3.11,2.1,2.1,0,0,0-.31.39v2.12h-.68v-3.19h.68v.44a1.33,1.33,0,0,1,.4-.39A.8.8,0,0,1,52.63,187.17Z"/>
      <path d="M54.42,189.44a.37.37,0,0,1,.3.15.57.57,0,0,1,.14.38.57.57,0,0,1-.13.36.37.37,0,0,1-.61,0A.57.57,0,0,1,54,190a.62.62,0,0,1,.13-.38A.4.4,0,0,1,54.42,189.44Z"/>
    </g>
    <g>
      <path d="M44.77,274l-.24.1-.19.07-.26.08a3.25,3.25,0,0,1-.59.12,4.21,4.21,0,0,1-.62,0,2.76,2.76,0,0,1-1.22-.27,2.1,2.1,0,0,1-.89-.86,2.85,2.85,0,0,1-.33-1.43,3.28,3.28,0,0,1,.17-1.07,1.81,1.81,0,0,1,.53-.84,2.37,2.37,0,0,1,.59-.4,2.88,2.88,0,0,1,.59-.19,4.09,4.09,0,0,1,.63,0,3.56,3.56,0,0,1,.94.1,8.21,8.21,0,0,1,.81.26v1.17a3.69,3.69,0,0,0-.62-.33,2.39,2.39,0,0,0-.82-.13,1.48,1.48,0,0,0-.9.25,1.36,1.36,0,0,0-.47.58,2,2,0,0,0-.13.66,1.6,1.6,0,0,0,.15.7,1.28,1.28,0,0,0,.47.51,1.34,1.34,0,0,0,.74.19,2.67,2.67,0,0,0,.53-.07v-.59h-.59v-1h1.72Z" style="fill: #fff"/>
      <path d="M48.72,274.13l-.45.18a1.85,1.85,0,0,1-.5.06.52.52,0,0,1-.39-.11.59.59,0,0,1-.15-.27,2.21,2.21,0,0,1-.4.28,1.37,1.37,0,0,1-.58.1,1,1,0,0,1-.56-.13.83.83,0,0,1-.3-.35,1.09,1.09,0,0,1-.08-.43,1.06,1.06,0,0,1,.14-.56,1.07,1.07,0,0,1,.4-.36,4.27,4.27,0,0,1,.66-.29l.35-.13.18-.07.13-.07a.77.77,0,0,0-.1-.41c-.06-.11-.2-.16-.4-.16a1.34,1.34,0,0,0-.68.19,2.9,2.9,0,0,0-.58.48v-1a2.11,2.11,0,0,1,.45-.28,2.32,2.32,0,0,1,.51-.16,2.39,2.39,0,0,1,.53-.06,1.5,1.5,0,0,1,1,.31,1.07,1.07,0,0,1,.35.84v1.42a1,1,0,0,0,0,.29.12.12,0,0,0,.12.1.59.59,0,0,0,.28-.1Zm-1.55-.7v-.87a3.45,3.45,0,0,0-.59.34.49.49,0,0,0-.18.4.39.39,0,0,0,.09.28.27.27,0,0,0,.22.1.47.47,0,0,0,.22-.07Z" style="fill: #fff"/>
      <path d="M51.4,274.1a2.12,2.12,0,0,1-.48.18,2.05,2.05,0,0,1-.58.09c-.81,0-1.22-.45-1.22-1.36v-1.46h-.5v-.22l1.5-1.77h.13v1.1h1.07v.89H50.25v1.17a2.63,2.63,0,0,0,0,.33.37.37,0,0,0,.12.21.46.46,0,0,0,.31.09,1.52,1.52,0,0,0,.7-.26Z" style="fill: #fff"/>
      <path d="M55,272.8H52.74a.92.92,0,0,0,.9.75,2.76,2.76,0,0,0,1.25-.36v.8a3.08,3.08,0,0,1-.6.26,2.77,2.77,0,0,1-.89.12,1.88,1.88,0,0,1-1-.25,1.55,1.55,0,0,1-.61-.68,2.16,2.16,0,0,1-.2-1,2.19,2.19,0,0,1,.2-1,1.64,1.64,0,0,1,.61-.67,2,2,0,0,1,1-.24,1.6,1.6,0,0,1,.74.19,1.53,1.53,0,0,1,.6.63,2.47,2.47,0,0,1,.23,1.13Zm-1-.64a.93.93,0,0,0-.15-.56.51.51,0,0,0-.44-.21.55.55,0,0,0-.45.21.83.83,0,0,0-.17.56Z" style="fill: #fff"/>
    </g>
    <g>
      <path d="M14.84,312.72H11.08V307h3.7v1.15h-2.2v1.05h2.1v1.15h-2.1v1.22h2.26Z" style="fill: #fff"/>
      <path d="M19.48,312.72h-1.3v-2.26a1.63,1.63,0,0,0-.1-.61.42.42,0,0,0-.43-.26.61.61,0,0,0-.28.07,1,1,0,0,0-.22.18L17,310l-.13.21v2.47h-1.3v-4.2h1.3v.6a1.88,1.88,0,0,1,.61-.52,1.45,1.45,0,0,1,.69-.15q1.32,0,1.32,1.8Z" style="fill: #fff"/>
      <path d="M24,308.52l-1.66,4.2h-1l-1.63-4.2h1.39l.76,2.2.84-2.2Z" style="fill: #fff"/>
      <path d="M25.39,311.91a1,1,0,0,1-.22.63.71.71,0,0,1-1.1,0,1,1,0,0,1,0-1.26.72.72,0,0,1,.55-.26.68.68,0,0,1,.38.12.89.89,0,0,1,.29.32A1.14,1.14,0,0,1,25.39,311.91Z" style="fill: #fff"/>
    </g>
    <g>
      <path d="M16.53,317.13a3.36,3.36,0,0,1-.33,1.49,2.47,2.47,0,0,1-1,1.09,2.9,2.9,0,0,1-1.55.4,2.81,2.81,0,0,1-1.57-.42,2.6,2.6,0,0,1-.95-1.1,3.42,3.42,0,0,1-.31-1.46,3.37,3.37,0,0,1,.31-1.45,2.53,2.53,0,0,1,.95-1.1,2.8,2.8,0,0,1,1.57-.41,3.17,3.17,0,0,1,1.23.23,2.51,2.51,0,0,1,.9.65,2.82,2.82,0,0,1,.52.95A3.57,3.57,0,0,1,16.53,317.13Zm-1.54,0a2.21,2.21,0,0,0-.08-.59,1.41,1.41,0,0,0-.25-.47,1.27,1.27,0,0,0-.41-.31,1.4,1.4,0,0,0-.56-.11,1.19,1.19,0,0,0-.95.41,1.83,1.83,0,0,0,0,2.15,1.19,1.19,0,0,0,.95.41,1.26,1.26,0,0,0,.71-.19,1.24,1.24,0,0,0,.44-.52A1.94,1.94,0,0,0,15,317.13Z" style="fill: #fff"/>
      <path d="M21,320h-1.3v-.6a2.09,2.09,0,0,1-.58.51,1.47,1.47,0,0,1-.72.17,1,1,0,0,1-1.07-.56,3.06,3.06,0,0,1-.25-1.27v-2.5h1.3v2.3a1.66,1.66,0,0,0,.1.61A.41.41,0,0,0,19,319a.59.59,0,0,0,.45-.19,4.33,4.33,0,0,0,.34-.48v-2.5H21Z" style="fill: #fff"/>
      <path d="M24.69,319.79a3.36,3.36,0,0,1-.56.21,2.41,2.41,0,0,1-.68.11c-.93,0-1.4-.53-1.4-1.59v-1.69h-.59v-.27l1.74-2.05h.15v1.27h1.24v1.05H23.35v1.36a3.63,3.63,0,0,0,0,.38.44.44,0,0,0,.15.25.56.56,0,0,0,.35.09,1.76,1.76,0,0,0,.82-.3Z" style="fill: #fff"/>
    </g>
    <g>
      <g>
        <path d="M64.29,15.24l-6.46,8.22v-7A1.53,1.53,0,0,0,57.08,15a1.05,1.05,0,0,0-1.32.35l-8.51,10.8a1.74,1.74,0,0,0,0,2.1,1.06,1.06,0,0,0,1.7,0s4.06-5.15,6.42-8.17v7.05a1.51,1.51,0,0,0,.76,1.37,1.05,1.05,0,0,0,1.32-.35L64,19.94v7.19a1.23,1.23,0,1,0,2.41,0V16.27a1.49,1.49,0,0,0-.76-1.37A1.06,1.06,0,0,0,64.29,15.24Z"/>
        <path d="M48.12,29.15a1.54,1.54,0,0,1-1.18-.57,2.16,2.16,0,0,1,0-2.66l8.5-10.81a1.5,1.5,0,0,1,1.87-.47,2,2,0,0,1,1,1.78v5.74L63.94,15a1.52,1.52,0,0,1,1.87-.47,2,2,0,0,1,1,1.78V27.13a1.67,1.67,0,1,1-3.31,0v-5.9c-2.4,3-5.66,7.2-5.66,7.2A1.52,1.52,0,0,1,56,28.9a2,2,0,0,1-1-1.77V21.38l-5.62,7.14a1.56,1.56,0,0,1-1.19.63Zm8.5-13.76a.64.64,0,0,0-.51.28l-8.5,10.8a1.27,1.27,0,0,0,0,1.52.64.64,0,0,0,.49.26h0a.65.65,0,0,0,.51-.28l6.42-8.17.8-1v8.35a1.06,1.06,0,0,0,.51,1,.61.61,0,0,0,.77-.22h0l6.46-8.21.81-1v8.49c0,.56.34,1,.75,1s.76-.47.76-1V16.27a1.06,1.06,0,0,0-.51-1,.6.6,0,0,0-.76.22l-7.27,9.24V16.42a1.06,1.06,0,0,0-.51-1A.44.44,0,0,0,56.62,15.39Z"/>
      </g>
      <g>
        <path d="M47.25,15.16l-5.63,7.16a1.73,1.73,0,0,0,0,2.09,1.06,1.06,0,0,0,1.71,0l3.56-4.52v7.37a1.23,1.23,0,1,0,2.41,0v-11a1.52,1.52,0,0,0-.75-1.37A1.07,1.07,0,0,0,47.25,15.16Z"/>
        <path d="M48.12,29.15a1.81,1.81,0,0,1-1.65-1.93V21.15l-2.76,3.5a1.52,1.52,0,0,1-1.19.62,1.55,1.55,0,0,1-1.21-.57,2.16,2.16,0,0,1,0-2.66l5.63-7.16a1.5,1.5,0,0,1,1.87-.47,1.94,1.94,0,0,1,1,1.77v11A1.81,1.81,0,0,1,48.12,29.15Zm-.75-10.6v8.67c0,.56.34,1,.75,1s.76-.46.76-1v-11a1.07,1.07,0,0,0-.51-1,.62.62,0,0,0-.76.23L42,22.6a1.27,1.27,0,0,0,0,1.52.69.69,0,0,0,.5.26h0a.7.7,0,0,0,.51-.29Z"/>
      </g>
      <g>
        <path d="M74.07,20.44a1.22,1.22,0,0,0-1.11-.9H70.5l1.8-2.29s.93-1.37.1-2.12-1.84.07-1.84.07L66.79,20a1.73,1.73,0,0,0-.24,1.61,1.24,1.24,0,0,0,1.11.9h2.46l-2.91,3.7s-1.21,1.32-.32,2.21,2-.15,2-.15L73.83,22A1.73,1.73,0,0,0,74.07,20.44Z"/>
        <path d="M67.71,29.22a1.57,1.57,0,0,1-1.14-.49c-.94-.94-.21-2.26.31-2.83L69.2,23H67.66a1.67,1.67,0,0,1-1.53-1.21,2.16,2.16,0,0,1,.31-2l3.84-4.86a1.87,1.87,0,0,1,2.43,0c.88.8.39,2.08,0,2.71l-1.24,1.58H73a1.66,1.66,0,0,1,1.53,1.2,2.15,2.15,0,0,1-.31,2L69.3,28.53A2.49,2.49,0,0,1,67.71,29.22Zm3.17-13.7-3.73,4.75A1.26,1.26,0,0,0,67,21.45a.78.78,0,0,0,.68.6h3.39l-3.49,4.43s-.93,1-.35,1.62,1.35-.1,1.43-.18l4.84-6.15a1.32,1.32,0,0,0,.17-1.18h0A.77.77,0,0,0,73,20H69.57L72,17h0s.67-1.05.15-1.52A1,1,0,0,0,70.88,15.52Z"/>
      </g>
    </g>
    <circle id="Res" cx="86.52" cy="93.91" r="8.5" style="fill: #ff0040"/>
    <circle id="Res-2" data-name="Res" cx="86.52" cy="46.72" r="8.5" style="fill: #ff0040"/>
    <path d="M109.46,304.76V167.83l0-4.62V150.54a13.19,13.19,0,0,0-13.18-13.18H77.17A13.2,13.2,0,0,0,64,150.54v37.77l0,3.95v112.5"/>
    <polyline points="108.93 297 109.26 297 109.26 265.75"/>
    <polyline points="64.17 266.12 64.17 297 64.39 297"/>
    <path d="M109.37,301.8v-134l0-4.62V150.54a13.19,13.19,0,0,0-13.18-13.18H77.09a13.19,13.19,0,0,0-13.18,13.18v37.77l0,3.95V301.8" style="fill: none;stroke: #000;stroke-miterlimit: 10"/>
    <path d="M99.34,333.76a10.59,10.59,0,0,0,10-10.73V297.82A10.57,10.57,0,0,0,99,287.07H74.27a10.57,10.57,0,0,0-10.39,10.75V323a10.58,10.58,0,0,0,10.2,10.74" style="fill: #ededed;stroke: #000;stroke-miterlimit: 10"/>
    <g>
      <path d="M73.15,67.39H69.39V61.48h3.7v1.19h-2.2v1.08H73v1.19h-2.1V66.2h2.26Z"/>
      <path d="M77.66,67.39H76.37V65.05a1.87,1.87,0,0,0-.1-.62.42.42,0,0,0-.44-.27.53.53,0,0,0-.28.07.91.91,0,0,0-.21.18,1,1,0,0,0-.16.21l-.14.22v2.55H73.75V63.05H75v.62a1.87,1.87,0,0,1,.62-.54,1.51,1.51,0,0,1,.68-.16c.88,0,1.32.63,1.32,1.87Z"/>
      <path d="M82.1,63.05l-1.66,4.34h-1l-1.63-4.34h1.39L80,65.32l.84-2.27Z"/>
      <path d="M83.32,66.55a1,1,0,0,1-.22.65.69.69,0,0,1-.55.27A.71.71,0,0,1,82,67.2a1,1,0,0,1-.23-.65A1,1,0,0,1,82,65.9a.71.71,0,0,1,.55-.27.7.7,0,0,1,.39.13.83.83,0,0,1,.28.33A1,1,0,0,1,83.32,66.55Z"/>
      <path d="M89.79,67.39H86V61.48h1.5V66h2.29Z"/>
      <path d="M94,65.59H91.43a1.07,1.07,0,0,0,.37.65,1,1,0,0,0,.67.25,3,3,0,0,0,1.45-.43v1a3.73,3.73,0,0,1-.69.31,3,3,0,0,1-1,.15,2.13,2.13,0,0,1-1.16-.3,1.92,1.92,0,0,1-.71-.81,2.7,2.7,0,0,1-.23-1.16,2.66,2.66,0,0,1,.23-1.15,1.87,1.87,0,0,1,.71-.79A2.22,2.22,0,0,1,92.2,63a1.82,1.82,0,0,1,.86.23,1.73,1.73,0,0,1,.68.75A2.86,2.86,0,0,1,94,65.28Zm-1.22-.76a1.15,1.15,0,0,0-.17-.66.58.58,0,0,0-.5-.25.63.63,0,0,0-.53.25,1.06,1.06,0,0,0-.2.66Z"/>
      <path d="M98.31,63.05l-1.66,4.34h-1l-1.63-4.34h1.39l.76,2.27.84-2.27Z"/>
      <path d="M102.21,65.59H99.62a1.12,1.12,0,0,0,.37.65,1,1,0,0,0,.67.25,3,3,0,0,0,1.45-.43v1a3.73,3.73,0,0,1-.69.31,3,3,0,0,1-1,.15,2.09,2.09,0,0,1-1.15-.3,1.8,1.8,0,0,1-.71-.81,2.7,2.7,0,0,1-.24-1.16,2.66,2.66,0,0,1,.24-1.15,1.75,1.75,0,0,1,.71-.79,2.18,2.18,0,0,1,1.15-.29,1.76,1.76,0,0,1,.86.23,1.69,1.69,0,0,1,.69.75,2.86,2.86,0,0,1,.27,1.33ZM101,64.83a1.08,1.08,0,0,0-.18-.66.55.55,0,0,0-.5-.25.61.61,0,0,0-.52.25,1,1,0,0,0-.2.66Z"/>
      <path d="M104,67.39h-1.3V61.48H104Z"/>
    </g>
    <g>
      <path d="M79.59,156.71H76.22v-5.15h1.34v3.91h2Z" style="fill: #ededed"/>
      <path d="M82.16,149v10.39H81.3V149Z" style="fill: #ededed"/>
      <path d="M91.53,148.94v10.39h-.86V148.94Z" style="fill: #ededed"/>
      <path d="M89,156.71H87.65v-3l-1.21,1.72h-.11l-1.21-1.72v3H83.83v-5.15H85l1.36,1.93,1.37-1.93H89Z" style="fill: #ededed"/>
      <path d="M97.9,156.71H96.57v-2h-2v2H93.22v-5.15h1.34v1.89h2v-1.89H97.9Z" style="fill: #ededed"/>
    </g>
    <g>
      <path d="M71.9,116H70.39v-5.91H71.9Z"/>
      <path d="M76.66,116H75.37v-2.34a1.87,1.87,0,0,0-.1-.62.42.42,0,0,0-.44-.27.5.5,0,0,0-.27.07.79.79,0,0,0-.22.18,2.39,2.39,0,0,0-.16.22l-.13.21V116h-1.3v-4.34h1.3v.62a1.87,1.87,0,0,1,.61-.54,1.55,1.55,0,0,1,.69-.15c.87,0,1.31.62,1.31,1.86Z"/>
      <path d="M81.11,111.64,79.44,116h-1l-1.63-4.34h1.39l.76,2.27.85-2.27Z"/>
      <path d="M82.32,115.14a1,1,0,0,1-.22.65.68.68,0,0,1-.54.27.72.72,0,0,1-.56-.27,1,1,0,0,1,0-1.3.71.71,0,0,1,.56-.26.68.68,0,0,1,.38.12.75.75,0,0,1,.28.33A1,1,0,0,1,82.32,115.14Z"/>
      <path d="M88.79,116H85v-5.91h1.5v4.5h2.29Z"/>
      <path d="M93,114.18H90.43a1.07,1.07,0,0,0,.37.65,1,1,0,0,0,.67.25,3,3,0,0,0,1.45-.43v.95a3.72,3.72,0,0,1-.69.32,3.33,3.33,0,0,1-1,.14,2.13,2.13,0,0,1-1.16-.3,1.92,1.92,0,0,1-.71-.81,2.7,2.7,0,0,1-.23-1.16,2.58,2.58,0,0,1,.23-1.14,1.9,1.9,0,0,1,.71-.8,2.22,2.22,0,0,1,1.16-.28,1.8,1.8,0,0,1,.86.22,1.73,1.73,0,0,1,.68.75,2.9,2.9,0,0,1,.27,1.34Zm-1.22-.76a1.1,1.1,0,0,0-.17-.66.58.58,0,0,0-.5-.25.64.64,0,0,0-.53.25,1.06,1.06,0,0,0-.2.66Z"/>
      <path d="M97.31,111.64,95.65,116h-1l-1.63-4.34h1.39l.76,2.27.84-2.27Z"/>
      <path d="M101.21,114.18H98.62a1.08,1.08,0,0,0,.38.65,1,1,0,0,0,.67.25,3,3,0,0,0,1.44-.43v.95a3.72,3.72,0,0,1-.69.32,3.28,3.28,0,0,1-1,.14,2.12,2.12,0,0,1-1.15-.3,1.8,1.8,0,0,1-.71-.81,2.7,2.7,0,0,1-.24-1.16,2.58,2.58,0,0,1,.24-1.14,1.77,1.77,0,0,1,.71-.8,2.2,2.2,0,0,1,1.15-.28,1.68,1.68,0,0,1,1.55,1,2.9,2.9,0,0,1,.27,1.34Zm-1.22-.76a1.1,1.1,0,0,0-.18-.66.55.55,0,0,0-.5-.25.63.63,0,0,0-.52.25,1,1,0,0,0-.2.66Z"/>
      <path d="M103,116h-1.3v-5.91H103Z"/>
    </g>
    <g>
      <path d="M75.67,198.65H71.91v-5.91h3.7v1.19H73.42V195h2.09v1.19H73.42v1.26h2.25Z" style="fill: #ededed"/>
      <path d="M80.18,198.65H78.89v-2.34a1.87,1.87,0,0,0-.1-.62.42.42,0,0,0-.44-.27.5.5,0,0,0-.27.07,1,1,0,0,0-.22.18l-.16.21c0,.07-.09.14-.13.22v2.55h-1.3v-4.34h1.3v.62a1.76,1.76,0,0,1,.61-.54,1.56,1.56,0,0,1,.69-.16c.88,0,1.31.63,1.31,1.87Z" style="fill: #ededed"/>
      <path d="M84.63,194.31,83,198.65H82l-1.63-4.34h1.39l.76,2.27.85-2.27Z" style="fill: #ededed"/>
      <path d="M85.84,197.81a1,1,0,0,1-.22.65.69.69,0,0,1-1.09,0,1,1,0,0,1-.24-.65.93.93,0,0,1,.24-.65.69.69,0,0,1,.55-.27.7.7,0,0,1,.38.13.75.75,0,0,1,.28.33A1,1,0,0,1,85.84,197.81Z" style="fill: #ededed"/>
      <path d="M93.86,195.69a3.63,3.63,0,0,1-.32,1.52,2.66,2.66,0,0,1-1,1.11,2.88,2.88,0,0,1-1.56.41,2.78,2.78,0,0,1-1.56-.43,2.61,2.61,0,0,1-1-1.12,3.74,3.74,0,0,1,0-3,2.66,2.66,0,0,1,1-1.12,2.77,2.77,0,0,1,1.56-.42,3,3,0,0,1,1.24.24,2.62,2.62,0,0,1,.89.66,2.94,2.94,0,0,1,.53,1A3.75,3.75,0,0,1,93.86,195.69Zm-1.54,0a2,2,0,0,0-.08-.61,1.25,1.25,0,0,0-.25-.47,1.17,1.17,0,0,0-.41-.32,1.36,1.36,0,0,0-.56-.11,1.17,1.17,0,0,0-1,.42,1.91,1.91,0,0,0,0,2.19,1.15,1.15,0,0,0,.94.42,1.32,1.32,0,0,0,.71-.19,1.24,1.24,0,0,0,.44-.54A2,2,0,0,0,92.32,195.69Z" style="fill: #ededed"/>
      <path d="M98.24,198.65H97V198a2,2,0,0,1-.58.52,1.37,1.37,0,0,1-.72.18,1,1,0,0,1-1.08-.58,3.3,3.3,0,0,1-.24-1.29v-2.55h1.29v2.35a2,2,0,0,0,.1.62.42.42,0,0,0,.44.26.55.55,0,0,0,.45-.19,3.72,3.72,0,0,0,.34-.49v-2.55h1.29Z" style="fill: #ededed"/>
      <path d="M101.77,198.4a2.61,2.61,0,0,1-.56.22,2.35,2.35,0,0,1-.68.11c-.93,0-1.4-.54-1.4-1.62v-1.73h-.58v-.27l1.74-2.1h.14v1.3h1.24v1.07h-1.24v1.39a2.06,2.06,0,0,0,0,.39.38.38,0,0,0,.14.25.59.59,0,0,0,.36.1,1.69,1.69,0,0,0,.81-.31Z" style="fill: #ededed"/>
    </g>
    <g>
      <path d="M74.42,239.56h-1.5v-5.91h1.5Z" style="fill: #ededed"/>
      <path d="M79.19,239.56h-1.3v-2.34a1.65,1.65,0,0,0-.1-.62.41.41,0,0,0-.43-.27.51.51,0,0,0-.28.07,1,1,0,0,0-.22.18l-.16.21-.13.22v2.55h-1.3v-4.34h1.3v.62a2,2,0,0,1,.61-.54,1.58,1.58,0,0,1,.69-.15q1.32,0,1.32,1.86Z" style="fill: #ededed"/>
      <path d="M83.63,235.22,82,239.56H81l-1.63-4.34h1.39l.76,2.27.85-2.27Z" style="fill: #ededed"/>
      <path d="M84.84,238.72a1,1,0,0,1-.22.65.67.67,0,0,1-.54.27.69.69,0,0,1-.55-.27,1,1,0,0,1,0-1.3.69.69,0,0,1,.93-.14.75.75,0,0,1,.28.33A1,1,0,0,1,84.84,238.72Z" style="fill: #ededed"/>
      <path d="M92.86,236.6a3.63,3.63,0,0,1-.32,1.52,2.6,2.6,0,0,1-1,1.11,2.88,2.88,0,0,1-1.56.41,2.7,2.7,0,0,1-1.56-.43,2.61,2.61,0,0,1-1-1.12,3.74,3.74,0,0,1,0-3,2.58,2.58,0,0,1,1-1.11,2.7,2.7,0,0,1,1.56-.43,2.89,2.89,0,0,1,1.24.25,2.48,2.48,0,0,1,.89.65,2.94,2.94,0,0,1,.53,1A3.75,3.75,0,0,1,92.86,236.6Zm-1.54,0a1.9,1.9,0,0,0-.08-.6,1.22,1.22,0,0,0-.25-.48,1.17,1.17,0,0,0-.41-.32,1.36,1.36,0,0,0-.56-.11,1.17,1.17,0,0,0-1,.42,1.65,1.65,0,0,0-.34,1.09,1.63,1.63,0,0,0,.35,1.1,1.15,1.15,0,0,0,.94.42,1.16,1.16,0,0,0,1.15-.73A2,2,0,0,0,91.32,236.6Z" style="fill: #ededed"/>
      <path d="M97.24,239.56H96v-.62a2.17,2.17,0,0,1-.58.53,1.47,1.47,0,0,1-.72.17,1,1,0,0,1-1.08-.58,3.3,3.3,0,0,1-.24-1.29v-2.55h1.29v2.35a2,2,0,0,0,.1.62.42.42,0,0,0,.44.26.55.55,0,0,0,.45-.19,3.72,3.72,0,0,0,.34-.49v-2.55h1.29Z" style="fill: #ededed"/>
      <path d="M100.77,239.31a2.61,2.61,0,0,1-.56.22,2.35,2.35,0,0,1-.68.11c-.93,0-1.4-.54-1.4-1.62v-1.73h-.58V236l1.74-2.1h.14v1.3h1.24v1.07H99.43v1.39a2.06,2.06,0,0,0,0,.39.38.38,0,0,0,.14.25.53.53,0,0,0,.36.1,1.69,1.69,0,0,0,.81-.31Z" style="fill: #ededed"/>
    </g>
    <g>
      <path d="M73.89,280.67H72.35l-.41-1.2H69.77l-.41,1.2H67.82l2.2-5.91h1.67Zm-2.3-2.22-.73-2.16-.74,2.16Z" style="fill: #ededed"/>
      <path d="M78.1,280.67H76.81v-.62a2.17,2.17,0,0,1-.58.53,1.47,1.47,0,0,1-.72.17,1,1,0,0,1-1.08-.58,3.3,3.3,0,0,1-.24-1.29v-2.55h1.29v2.35a2,2,0,0,0,.1.62.42.42,0,0,0,.44.26.55.55,0,0,0,.45-.19,3.72,3.72,0,0,0,.34-.49v-2.55H78.1Z" style="fill: #ededed"/>
      <path d="M82.61,280.67h-1.3v-.39a2,2,0,0,1-.43.34,1.35,1.35,0,0,1-.63.13,1.48,1.48,0,0,1-.79-.24,1.77,1.77,0,0,1-.63-.73,2.73,2.73,0,0,1-.25-1.25,3.16,3.16,0,0,1,.19-1.11,1.93,1.93,0,0,1,.58-.84,1.5,1.5,0,0,1,1-.32,1.63,1.63,0,0,1,.59.09,1.28,1.28,0,0,1,.39.24v-1.83h1.3Zm-1.3-1.38v-1.66a3.5,3.5,0,0,0-.35-.21.73.73,0,0,0-.3-.06.59.59,0,0,0-.51.3,1.49,1.49,0,0,0-.2.84,1.37,1.37,0,0,0,.21.84.64.64,0,0,0,.5.26.74.74,0,0,0,.38-.09A1.37,1.37,0,0,0,81.31,279.29Z" style="fill: #ededed"/>
      <path d="M84.6,280.67H83.3v-4.34h1.3Zm-.1-5.34a.69.69,0,0,1-.17.46.51.51,0,0,1-.66.1.71.71,0,0,1-.19-.23.79.79,0,0,1,.08-.79.52.52,0,0,1,.39-.19.49.49,0,0,1,.38.19A.69.69,0,0,1,84.5,275.33Z" style="fill: #ededed"/>
      <path d="M89.34,278.5a2.81,2.81,0,0,1-.23,1.15,1.8,1.8,0,0,1-.72.8,2.35,2.35,0,0,1-2.3,0,1.72,1.72,0,0,1-.71-.8,2.66,2.66,0,0,1-.24-1.15,2.73,2.73,0,0,1,.13-.89,2,2,0,0,1,.4-.71,1.76,1.76,0,0,1,.66-.48,2.35,2.35,0,0,1,.91-.16,2.4,2.4,0,0,1,.92.16,1.87,1.87,0,0,1,.66.48,2.08,2.08,0,0,1,.39.7A2.84,2.84,0,0,1,89.34,278.5Zm-1.36,0a1.43,1.43,0,0,0-.19-.81.67.67,0,0,0-1.1,0,1.51,1.51,0,0,0-.19.81,1.47,1.47,0,0,0,.2.81.59.59,0,0,0,.54.3.62.62,0,0,0,.55-.3A1.47,1.47,0,0,0,88,278.5Z" style="fill: #ededed"/>
      <path d="M97.36,277.71a3.71,3.71,0,0,1-.32,1.53,2.63,2.63,0,0,1-1,1.1,2.84,2.84,0,0,1-1.55.41,2.73,2.73,0,0,1-1.57-.43A2.52,2.52,0,0,1,92,279.2a3.74,3.74,0,0,1,0-3,2.49,2.49,0,0,1,.95-1.11,2.73,2.73,0,0,1,1.57-.43,2.85,2.85,0,0,1,1.23.25,2.48,2.48,0,0,1,.89.65,2.94,2.94,0,0,1,.53,1A3.75,3.75,0,0,1,97.36,277.71Zm-1.53,0a1.89,1.89,0,0,0-.09-.6,1.1,1.1,0,0,0-.25-.48,1.09,1.09,0,0,0-.41-.32,1.35,1.35,0,0,0-.55-.11,1.15,1.15,0,0,0-1,.42,1.66,1.66,0,0,0-.35,1.09,1.69,1.69,0,0,0,.35,1.1,1.17,1.17,0,0,0,1,.42,1.22,1.22,0,0,0,.7-.19,1.2,1.2,0,0,0,.45-.54A2,2,0,0,0,95.83,277.71Z" style="fill: #ededed"/>
      <path d="M101.75,280.67h-1.3v-.62a1.91,1.91,0,0,1-.58.53,1.47,1.47,0,0,1-.72.17,1,1,0,0,1-1.07-.58,3.13,3.13,0,0,1-.25-1.29v-2.55h1.3v2.35a1.72,1.72,0,0,0,.1.62.41.41,0,0,0,.43.26.55.55,0,0,0,.45-.19,3.72,3.72,0,0,0,.34-.49v-2.55h1.3Z" style="fill: #ededed"/>
      <path d="M105.27,280.42a2.5,2.5,0,0,1-.55.22,2.47,2.47,0,0,1-.68.11c-.94,0-1.4-.54-1.4-1.62V277.4h-.59v-.27l1.74-2.1h.15v1.3h1.23v1.07h-1.23v1.39a2.18,2.18,0,0,0,0,.39.48.48,0,0,0,.14.25.53.53,0,0,0,.36.1,1.66,1.66,0,0,0,.81-.31Z" style="fill: #ededed"/>
    </g>
    <g>
      <path d="M78.34,336.45H76.69v-5.9h1.65Z"/>
      <path d="M83.57,336.45H82.15v-2.34a1.67,1.67,0,0,0-.11-.62.46.46,0,0,0-.48-.27.7.7,0,0,0-.3.07,1.08,1.08,0,0,0-.24.18l-.18.22-.14.22v2.54H79.27v-4.34H80.7v.63a2.06,2.06,0,0,1,.67-.55,1.86,1.86,0,0,1,.75-.15c1,0,1.45.62,1.45,1.87Z"/>
      <path d="M88.63,334.25a2.94,2.94,0,0,1-.12.84,2.06,2.06,0,0,1-.35.73,1.6,1.6,0,0,1-.6.52,1.82,1.82,0,0,1-.86.19,1.69,1.69,0,0,1-.62-.09,2.25,2.25,0,0,1-.46-.24v2.23H84.2v-6.32h1.42v.4a1.82,1.82,0,0,1,.48-.34,1.51,1.51,0,0,1,.7-.13,1.82,1.82,0,0,1,.86.23,1.9,1.9,0,0,1,.7.73A2.6,2.6,0,0,1,88.63,334.25Zm-1.5,0a1.46,1.46,0,0,0-.12-.64.73.73,0,0,0-.29-.35.76.76,0,0,0-.38-.11.83.83,0,0,0-.41.09,1.26,1.26,0,0,0-.31.22v1.65l.16.1.17.09.18.07.21,0a.65.65,0,0,0,.56-.31A1.36,1.36,0,0,0,87.13,334.29Z"/>
      <path d="M93.39,336.45H92v-.61a2.29,2.29,0,0,1-.63.52,1.74,1.74,0,0,1-.79.17,1.17,1.17,0,0,1-1.18-.57,3.05,3.05,0,0,1-.27-1.3v-2.55h1.42v2.35a1.67,1.67,0,0,0,.11.62.46.46,0,0,0,.48.27.63.63,0,0,0,.49-.2,2.6,2.6,0,0,0,.37-.49v-2.55h1.43Z"/>
      <path d="M97.26,336.2a3,3,0,0,1-.61.22,2.9,2.9,0,0,1-.75.11c-1,0-1.54-.54-1.54-1.62v-1.73h-.64v-.27l1.91-2.1h.16v1.3h1.36v1.07H95.79v1.39a2.06,2.06,0,0,0,0,.39.4.4,0,0,0,.16.25.59.59,0,0,0,.39.1,2,2,0,0,0,.89-.31Z"/>
    </g>
    <g>
      <path d="M15.43,343a2.39,2.39,0,0,1-.09.66,2.07,2.07,0,0,1-.31.61,1.58,1.58,0,0,1-.58.45,2,2,0,0,1-.85.17h-1v2.29H11.11v-6.09H13.6a1.87,1.87,0,0,1,.85.17,1.5,1.5,0,0,1,.58.46,2.07,2.07,0,0,1,.31.61A2.52,2.52,0,0,1,15.43,343Zm-1.53,0a.73.73,0,0,0-.21-.6,1.38,1.38,0,0,0-.76-.16h-.31v1.47h.32a2.19,2.19,0,0,0,.58-.06.42.42,0,0,0,.29-.21A.88.88,0,0,0,13.9,343Z"/>
      <path d="M19.74,347.18H16v-6.09h3.7v1.22h-2.2v1.11h2.1v1.23h-2.1V346h2.26Z"/>
      <path d="M25.3,347.18H23.68l-.39-1.08a5.51,5.51,0,0,0-.39-.87.76.76,0,0,0-.76-.43H22v2.38H20.46v-6.09H23a1.63,1.63,0,0,1,1,.3,1.88,1.88,0,0,1,.57.75,2.19,2.19,0,0,1,.18.84,1.87,1.87,0,0,1-.15.78,1.46,1.46,0,0,1-.31.46,3.44,3.44,0,0,1-.36.28,1.69,1.69,0,0,1,.4.4,6.54,6.54,0,0,1,.42,1ZM23.25,343a.67.67,0,0,0-.23-.59,1.24,1.24,0,0,0-.73-.17H22v1.47h.32a1.38,1.38,0,0,0,.76-.15A.65.65,0,0,0,23.25,343Z"/>
      <path d="M30.16,346.72a3.11,3.11,0,0,1-.63.32,3.17,3.17,0,0,1-.66.16,3.66,3.66,0,0,1-.68.06A3.13,3.13,0,0,1,27,347a2.59,2.59,0,0,1-.89-.65,2.69,2.69,0,0,1-.57-1,4,4,0,0,1-.19-1.26,3.84,3.84,0,0,1,.22-1.38,2.67,2.67,0,0,1,.63-1,2.44,2.44,0,0,1,.91-.58,3,3,0,0,1,1.08-.19,5.12,5.12,0,0,1,1.93.46v1.62a5.58,5.58,0,0,0-.73-.47,1.9,1.9,0,0,0-.85-.18,1.64,1.64,0,0,0-1.43.81,1.78,1.78,0,0,0-.23.91,1.87,1.87,0,0,0,.2.85,1.6,1.6,0,0,0,.57.61,1.44,1.44,0,0,0,.8.23,2.17,2.17,0,0,0,.69-.11,2.59,2.59,0,0,0,.55-.24,5.23,5.23,0,0,0,.45-.31Z"/>
      <path d="M36.09,344.45a3.33,3.33,0,0,1-.24,1.33,2.15,2.15,0,0,1-.64.87,2.46,2.46,0,0,1-.85.47,3.13,3.13,0,0,1-.9.14,3,3,0,0,1-1.24-.27,2.23,2.23,0,0,1-1-.89,3.06,3.06,0,0,1-.4-1.65v-3.36h1.5V344a2.87,2.87,0,0,0,.14,1,1.13,1.13,0,0,0,.4.57.92.92,0,0,0,.6.19,1,1,0,0,0,.58-.18,1.13,1.13,0,0,0,.4-.57,2.9,2.9,0,0,0,.14-1v-2.89h1.51Z"/>
      <path d="M40.47,345.41a1.9,1.9,0,0,1-.24,1,1.53,1.53,0,0,1-.67.64,2.06,2.06,0,0,1-1,.23l-.38,0a3.3,3.3,0,0,1-.6-.13,3.88,3.88,0,0,1-.77-.33v-1.49a4.77,4.77,0,0,0,.74.47,1.64,1.64,0,0,0,.78.19c.26,0,.43-.05.5-.15a.48.48,0,0,0-.08-.71,2.89,2.89,0,0,0-.56-.35,3.57,3.57,0,0,1-.72-.46,1.85,1.85,0,0,1-.71-1.51,2,2,0,0,1,.2-.89,1.48,1.48,0,0,1,.61-.63,1.91,1.91,0,0,1,1-.24,2.66,2.66,0,0,1,.77.1,3.52,3.52,0,0,1,.59.22,2.1,2.1,0,0,1,.31.2v1.42a4.3,4.3,0,0,0-.68-.47,1.53,1.53,0,0,0-.8-.22.53.53,0,0,0-.41.14.44.44,0,0,0-.13.32.44.44,0,0,0,.13.31,1.75,1.75,0,0,0,.45.32,8.23,8.23,0,0,1,.92.6,2,2,0,0,1,.54.61A1.61,1.61,0,0,1,40.47,345.41Z"/>
      <path d="M44.7,345.41a1.9,1.9,0,0,1-.24,1,1.59,1.59,0,0,1-.67.64,2.08,2.08,0,0,1-1,.23l-.38,0a3.3,3.3,0,0,1-.6-.13,4.22,4.22,0,0,1-.78-.33v-1.49a4.41,4.41,0,0,0,.75.47,1.61,1.61,0,0,0,.78.19.62.62,0,0,0,.5-.15.58.58,0,0,0,.11-.3.52.52,0,0,0-.19-.41,2.72,2.72,0,0,0-.57-.35,4.23,4.23,0,0,1-.72-.46,1.9,1.9,0,0,1-.5-.62,1.8,1.8,0,0,1-.2-.89,1.91,1.91,0,0,1,.2-.89,1.51,1.51,0,0,1,.6-.63,1.92,1.92,0,0,1,1-.24,2.76,2.76,0,0,1,.77.1,3.38,3.38,0,0,1,.58.22,2.38,2.38,0,0,1,.32.2v1.42a4.3,4.3,0,0,0-.68-.47,1.54,1.54,0,0,0-.81-.22.52.52,0,0,0-.4.14.41.41,0,0,0-.13.32.4.4,0,0,0,.13.31,1.75,1.75,0,0,0,.45.32,8.23,8.23,0,0,1,.92.6,2,2,0,0,1,.54.61A1.71,1.71,0,0,1,44.7,345.41Z"/>
      <path d="M46.94,347.18h-1.5v-6.09h1.5Z"/>
      <path d="M53.26,344.13a3.86,3.86,0,0,1-.32,1.57,2.87,2.87,0,0,1-4.08,1.12,2.62,2.62,0,0,1-1-1.16,3.78,3.78,0,0,1-.32-1.53,4,4,0,0,1,.31-1.54A2.64,2.64,0,0,1,50.42,341a3,3,0,0,1,1.24.25,2.54,2.54,0,0,1,.89.68,3.09,3.09,0,0,1,.53,1A4,4,0,0,1,53.26,344.13Zm-1.54,0a2.09,2.09,0,0,0-.08-.63,1.34,1.34,0,0,0-.25-.49,1.2,1.2,0,0,0-.41-.33,1.36,1.36,0,0,0-.56-.11,1.15,1.15,0,0,0-1,.43,2,2,0,0,0,0,2.26,1.13,1.13,0,0,0,.94.43,1.24,1.24,0,0,0,.71-.2,1.27,1.27,0,0,0,.44-.55A2.09,2.09,0,0,0,51.72,344.13Z"/>
      <path d="M59.22,347.18H57.88l-2.59-3.4v3.4H53.8v-6.09h1.34l2.58,3.37v-3.37h1.5Z"/>
      <path d="M63.6,347.18H62.1v-6.09h1.5Z"/>
      <path d="M70,347.18H68.66l-2.59-3.4v3.4H64.58v-6.09h1.33l2.58,3.37v-3.37H70Z"/>
      <path d="M75.75,342.57H73.92v4.61h-1.5v-4.61H70.59v-1.48h5.16Z"/>
      <path d="M80.1,347.18H76.34v-6.09H80v1.22h-2.2v1.11h2.1v1.23h-2.1V346H80.1Z"/>
      <path d="M85.66,347.18H84l-.39-1.08a5.51,5.51,0,0,0-.39-.87.76.76,0,0,0-.76-.43h-.17v2.38H80.82v-6.09h2.56a1.63,1.63,0,0,1,1,.3,1.88,1.88,0,0,1,.57.75,2.19,2.19,0,0,1,.18.84,1.87,1.87,0,0,1-.15.78,1.46,1.46,0,0,1-.31.46,3.44,3.44,0,0,1-.36.28,1.69,1.69,0,0,1,.4.4,6.54,6.54,0,0,1,.42,1Zm-2-4.17a.67.67,0,0,0-.23-.59,1.24,1.24,0,0,0-.73-.17h-.32v1.47h.32a1.38,1.38,0,0,0,.76-.15A.65.65,0,0,0,83.61,343Z"/>
      <path d="M89.63,344.71H87.56v2.47H86.05v-6.09h3.58v1.22H87.56v1.18h2.07Z"/>
      <path d="M95.42,347.18H93.87l-.4-1.24H91.3l-.42,1.24H89.34l2.21-6.09h1.66Zm-2.3-2.3-.73-2.22-.74,2.22Z"/>
      <path d="M100.15,346.72a3,3,0,0,1-1.28.48,3.85,3.85,0,0,1-.69.06A3.13,3.13,0,0,1,97,347a2.59,2.59,0,0,1-.89-.65,2.83,2.83,0,0,1-.57-1,4,4,0,0,1-.19-1.26,3.84,3.84,0,0,1,.22-1.38,2.67,2.67,0,0,1,.63-1,2.52,2.52,0,0,1,.91-.58,3,3,0,0,1,1.09-.19,5.12,5.12,0,0,1,1.92.46v1.62a5.58,5.58,0,0,0-.73-.47,1.9,1.9,0,0,0-.85-.18,1.7,1.7,0,0,0-.82.21,1.67,1.67,0,0,0-.61.6,1.78,1.78,0,0,0-.23.91,1.76,1.76,0,0,0,.21.85,1.5,1.5,0,0,0,.56.61,1.44,1.44,0,0,0,.8.23,2.17,2.17,0,0,0,.69-.11,2.59,2.59,0,0,0,.55-.24,4,4,0,0,0,.45-.31Z"/>
      <path d="M104.64,347.18h-3.76v-6.09h3.7v1.22h-2.2v1.11h2.1v1.23h-2.1V346h2.26Z"/>
    </g>
    <path d="M83.06,76.66V70.27h-1a6,6,0,0,0,1.16,3.2c1.15,1.59,3.46,3.14,7.76,3.18v-1c-4.08-.06-6-1.45-7-2.77a5.3,5.3,0,0,1-.85-1.83c-.06-.25-.09-.45-.11-.59v-.19h-1v6.39Z"/>
    <path d="M83.06,119.15v6.38h-1a5.92,5.92,0,0,1,1.16-3.2c1.15-1.6,3.46-3.14,7.76-3.18v1c-4.08,0-6,1.44-7,2.77a5.22,5.22,0,0,0-.85,1.83,5.62,5.62,0,0,0-.11.59v.19h-1v-6.38Z"/>
    <g>
      <path d="M86.52,34.33a11.28,11.28,0,0,0-1.54.11l-.24-1.39a13.34,13.34,0,0,1,3.57,0l-.24,1.39A11.31,11.31,0,0,0,86.52,34.33Z"/>
      <path d="M77.41,38.34l-1.08-.91a13.71,13.71,0,0,1,2.73-2.3l.7,1.22A12.39,12.39,0,0,0,77.41,38.34Z"/>
      <path d="M80.85,35.72l-.71-1.23a14.36,14.36,0,0,1,3.36-1.23l.24,1.4A12,12,0,0,0,80.85,35.72Z"/>
      <path d="M75.06,42l-1.32-.48a13.73,13.73,0,0,1,1.78-3.09l1.09.91A12.41,12.41,0,0,0,75.06,42Z"/>
      <path d="M89.3,34.66l.25-1.4a14.36,14.36,0,0,1,3.36,1.23l-.71,1.23A12.12,12.12,0,0,0,89.3,34.66Z"/>
      <path d="M74.13,46.17H72.71a14.1,14.1,0,0,1,.6-3.51l1.33.49A12.08,12.08,0,0,0,74.13,46.17Z"/>
      <path d="M74.67,50.45l-1.32.48a13.68,13.68,0,0,1-.63-3.5h1.4A12.68,12.68,0,0,0,74.67,50.45Z"/>
      <path d="M76.65,54.27l-1.08.91a13.92,13.92,0,0,1-1.79-3.07l1.32-.48A12.7,12.7,0,0,0,76.65,54.27Z"/>
      <path d="M96.44,39.3l1.09-.91a13.73,13.73,0,0,1,1.78,3.09L98,42A12.41,12.41,0,0,0,96.44,39.3Z"/>
      <path d="M98.41,43.15l1.33-.49a13.65,13.65,0,0,1,.6,3.51H98.92A12.08,12.08,0,0,0,98.41,43.15Z"/>
      <path d="M98.93,47.43h1.4a13.34,13.34,0,0,1-.63,3.5l-1.32-.48A12.77,12.77,0,0,0,98.93,47.43Z"/>
      <path d="M98,51.63l1.32.48a13.62,13.62,0,0,1-1.79,3.06l-1.07-.9A12.66,12.66,0,0,0,98,51.63Z"/>
      <path d="M79.8,57.19l-.7,1.22a13.89,13.89,0,0,1-2.72-2.28l1.08-.9A12.3,12.3,0,0,0,79.8,57.19Z"/>
      <path d="M95.59,55.23l1.08.9A14.25,14.25,0,0,1,94,58.41l-.7-1.22A12.3,12.3,0,0,0,95.59,55.23Z"/>
      <path d="M93.29,36.35l.7-1.22a13.38,13.38,0,0,1,2.73,2.3l-1.08.91A12.39,12.39,0,0,0,93.29,36.35Z"/>
    </g>
    <g>
      <path d="M86.52,81.46a13.13,13.13,0,0,0-1.54.11l-.24-1.39a13.34,13.34,0,0,1,3.57,0l-.24,1.39A13.15,13.15,0,0,0,86.52,81.46Z"/>
      <path d="M77.41,85.47l-1.08-.91a13.71,13.71,0,0,1,2.73-2.3l.7,1.22A12.77,12.77,0,0,0,77.41,85.47Z"/>
      <path d="M80.85,82.85l-.71-1.22A13.52,13.52,0,0,1,83.5,80.4l.24,1.39A12,12,0,0,0,80.85,82.85Z"/>
      <path d="M75.06,89.1l-1.32-.48a14,14,0,0,1,1.78-3.1l1.09.92A11.94,11.94,0,0,0,75.06,89.1Z"/>
      <path d="M89.3,81.79l.25-1.39a13.52,13.52,0,0,1,3.36,1.23l-.71,1.22A12.12,12.12,0,0,0,89.3,81.79Z"/>
      <path d="M74.13,93.31H72.71a13.94,13.94,0,0,1,.6-3.51l1.33.48A12.08,12.08,0,0,0,74.13,93.31Z"/>
      <path d="M74.67,97.58l-1.32.48a13.68,13.68,0,0,1-.63-3.5h1.4A12.68,12.68,0,0,0,74.67,97.58Z"/>
      <path d="M76.65,101.41l-1.08.9a13.47,13.47,0,0,1-1.79-3.07l1.32-.48A13,13,0,0,0,76.65,101.41Z"/>
      <path d="M96.44,86.44l1.09-.92a14,14,0,0,1,1.78,3.09L98,89.1A11.94,11.94,0,0,0,96.44,86.44Z"/>
      <path d="M98.41,90.28l1.33-.48a13.51,13.51,0,0,1,.6,3.51H98.92A12.08,12.08,0,0,0,98.41,90.28Z"/>
      <path d="M98.93,94.56h1.4a13.26,13.26,0,0,1-.63,3.5l-1.32-.48A12.68,12.68,0,0,0,98.93,94.56Z"/>
      <path d="M98,98.76l1.32.48a13.47,13.47,0,0,1-1.79,3.07l-1.07-.91A12.66,12.66,0,0,0,98,98.76Z"/>
      <path d="M79.8,104.32l-.7,1.22a14.2,14.2,0,0,1-2.72-2.27l1.08-.91A12.3,12.3,0,0,0,79.8,104.32Z"/>
      <path d="M95.59,102.36l1.08.91A14.2,14.2,0,0,1,94,105.54l-.7-1.22A12.3,12.3,0,0,0,95.59,102.36Z"/>
      <path d="M93.29,83.48l.7-1.22a13.71,13.71,0,0,1,2.73,2.3l-1.08.91A12.39,12.39,0,0,0,93.29,83.48Z"/>
    </g>
  </g>
  <g id="components">
    <circle id="Input" cx="86.55" cy="310.71" r="11.34" style="fill: lime"/>
    <circle id="Env._Out_-" data-name="Env. Out -" cx="41.83" cy="318.61" r="11.34" style="fill: blue"/>
    <circle id="_-_LED" data-name="- LED" cx="50.37" cy="292.62" r="4.25" style="fill: #f0f"/>
    <circle id="Env._Out_" data-name="Env. Out +" cx="19.95" cy="286.08" r="11.34" style="fill: blue"/>
    <circle id="_LED" data-name="+ LED" cx="10.77" cy="261.2" r="4.25" style="fill: #f0f"/>
    <circle id="Audio_Out" data-name="Audio Out" cx="86.52" cy="257.67" r="11.34" style="fill: blue"/>
    <circle id="Gate_Out" data-name="Gate Out" cx="41.83" cy="253.56" r="11.34" style="fill: #8080ff"/>
    <circle id="Inv._Out" data-name="Inv. Out" cx="86.52" cy="217.28" r="11.34" style="fill: blue"/>
    <circle id="Gate_LED" data-name="Gate LED" cx="50.37" cy="230.46" r="4.25" style="fill: #f0f"/>
    <circle id="IN" cx="19.83" cy="221.47" r="11.34" style="fill: lime"/>
    <circle id="Env._Out" data-name="Env. Out" cx="86.52" cy="176.9" r="11.34" style="fill: blue"/>
    <rect id="Follow_Gen" data-name="Follow | Gen" x="25.13" y="186.97" width="11.34" height="17.01" transform="translate(226.27 164.67) rotate(90)" style="fill: #ff8080"/>
    <rect id="Low_Med_High" data-name="Low | Med | High" x="80.86" y="130.04" width="11.34" height="17.01" transform="translate(225.06 52.01) rotate(90)" style="fill: #ffc080"/>
    <circle id="Env._Decay" data-name="Env. Decay" cx="30.8" cy="153.17" r="8.5" style="fill: #ff0040"/>
    <circle id="Inv._Level" data-name="Inv. Level" cx="86.53" cy="93.62" r="8.5" style="fill: #ff0080"/>
    <circle id="Sustain" cx="30.8" cy="109.3" r="8.5" style="fill: #ff0040"/>
    <circle id="Env._Level" data-name="Env. Level" cx="86.53" cy="46.58" r="8.5" style="fill: #ff0080"/>
    <circle id="Sensitivity" cx="30.9" cy="54.04" r="17.01" style="fill: #ff0070"/>
    <circle id="Sens._LED" data-name="Sens. LED" cx="11.39" cy="32.64" r="4.25" style="fill: #f0f"/>
    <text id="slug" transform="translate(83.84 368.72)" style="font-size: 3px;font-family: MyriadPro-Regular, Myriad Pro">PI</text>
    <text id="modulename" transform="translate(88.97 368.72)" style="font-size: 3px;font-family: MyriadPro-Regular, Myriad Pro"><tspan style="letter-spacing: -0.024739583333333332em">P</tspan><tspan x="1.52" y="0">e</tspan><tspan x="3.02" y="0" style="letter-spacing: -0.010416666666666666em">r</tspan><tspan x="3.97" y="0" style="letter-spacing: 0.0003255208333333333em">cussion </tspan><tspan x="14" y="0" style="letter-spacing: 0.010091145833333334em">I</tspan><tspan x="14.75" y="0" style="letter-spacing: -0.004231770833333333em">nt</tspan><tspan x="17.37" y="0">e</tspan><tspan x="18.88" y="0" style="letter-spacing: 0.029622395833333332em">r</tspan><tspan x="19.95" y="0" style="letter-spacing: 0.0003255208333333333em">fa</tspan><tspan x="22.27" y="0" style="letter-spacing: -0.005859375em">c</tspan><tspan x="23.59" y="0">e</tspan></text>
  </g>
</svg>
