<svg xmlns="http://www.w3.org/2000/svg" width="50.89mm" height="131.58mm" viewBox="0 0 144.25 372.97">
  <g id="faceplate">
    <g>
      <rect x="0.13" y="0.13" width="144" height="364.25" style="fill: #ededed;stroke: #9d9d9e;stroke-miterlimit: 10;stroke-width: 0.25px"/>
      <g>
        <path d="M14.34,8.63a4.54,4.54,0,1,0,4.54-4.54A4.53,4.53,0,0,0,14.34,8.63Z"/>
        <path d="M14.34,355.87a4.54,4.54,0,1,0,4.54-4.53A4.54,4.54,0,0,0,14.34,355.87Z"/>
      </g>
      <g>
        <path d="M129.21,8.63a4.54,4.54,0,1,1-4.54-4.54A4.53,4.53,0,0,1,129.21,8.63Z"/>
        <path d="M129.21,355.87a4.54,4.54,0,1,1-4.54-4.53A4.54,4.54,0,0,1,129.21,355.87Z"/>
      </g>
    </g>
    <g>
      <path d="M77.6,9.19,72.21,16V10.17A1.26,1.26,0,0,0,71.58,9a.88.88,0,0,0-1.1.29l-7.09,9a1.44,1.44,0,0,0,0,1.74.88.88,0,0,0,1.42,0l5.36-6.81v5.87a1.26,1.26,0,0,0,.63,1.15.89.89,0,0,0,1.1-.29l5.39-6.85v6a1,1,0,1,0,2,0V10A1.26,1.26,0,0,0,78.7,8.9.88.88,0,0,0,77.6,9.19Z" style="fill: #00adee;stroke: #00adee;stroke-width: 0.75px"/>
      <path d="M63.39,9.12l-4.69,6a1.43,1.43,0,0,0,0,1.74.88.88,0,0,0,1.42,0s1.58-2,3-3.77v6.14a1,1,0,1,0,2,0V10a1.26,1.26,0,0,0-.63-1.14A.89.89,0,0,0,63.39,9.12Z" style="fill: #ec1c24;stroke: #ec1c24;stroke-width: 0.75px"/>
      <path d="M85.75,13.52a1,1,0,0,0-.93-.75h-2l1.5-1.9s.78-1.15.09-1.78-1.54.06-1.54.06l-3.14,4a1.42,1.42,0,0,0-.2,1.33,1,1,0,0,0,.93.76h2L80,18.33s-1,1.09-.26,1.84S81.48,20,81.48,20l4.07-5.17A1.44,1.44,0,0,0,85.75,13.52Z" style="fill: #00a551;stroke: #00a551;stroke-width: 0.75px"/>
    </g>
    <g>
      <g>
        <path d="M23,100.24c-6.33,0-11.49-5.53-11.49-12.31S16.63,75.62,23,75.62H52.68c6.33,0,11.49,5.52,11.49,12.31S59,100.24,52.68,100.24Z" style="fill: #00adee"/>
        <path d="M52.68,76.12c6.07,0,11,5.29,11,11.81s-4.92,11.81-11,11.81H23c-6.06,0-11-5.29-11-11.81S16.9,76.12,23,76.12H52.68m0-1H23c-6.61,0-12,5.75-12,12.81s5.38,12.81,12,12.81H52.68c6.61,0,12-5.75,12-12.81s-5.38-12.81-12-12.81Z"/>
      </g>
      <line x1="24.56" y1="88.29" x2="28.49" y2="88.29" style="stroke: #231f20;stroke-width: 0.826027px"/>
      <ellipse cx="26.52" cy="86.11" rx="0.64" ry="0.94"/>
      <path d="M27,91.13a.51.51,0,0,1-.91,0,1.26,1.26,0,0,1,0-1.32.51.51,0,0,1,.91,0A1.26,1.26,0,0,1,27,91.13Z"/>
      <path d="M30.48,86.79H29.21v-.85h.12a1.88,1.88,0,0,0,1-.24,1.09,1.09,0,0,0,.47-.78h1v6.37h-1.3Z"/>
    </g>
    <g>
      <g>
        <path d="M23,131.85c-6.33,0-11.49-5.52-11.49-12.31s5.16-12.3,11.49-12.3H52.68c6.33,0,11.49,5.52,11.49,12.3S59,131.85,52.68,131.85Z" style="fill: #ec1c24"/>
        <path d="M52.68,107.74c6.07,0,11,5.28,11,11.8s-4.92,11.81-11,11.81H23c-6.06,0-11-5.28-11-11.81s4.93-11.8,11-11.8H52.68m0-1H23c-6.61,0-12,5.74-12,12.8s5.38,12.81,12,12.81H52.68c6.61,0,12-5.74,12-12.81s-5.38-12.8-12-12.8Z"/>
      </g>
      <line x1="24.56" y1="119.91" x2="28.49" y2="119.91" style="stroke: #231f20;stroke-width: 0.826027px"/>
      <ellipse cx="26.52" cy="117.73" rx="0.64" ry="0.94"/>
      <path d="M27,122.75a.52.52,0,0,1-.91,0,1.27,1.27,0,0,1,0-1.33.52.52,0,0,1,.91,0A1.27,1.27,0,0,1,27,122.75Z"/>
      <path d="M29,122.91a3.38,3.38,0,0,1,.09-.8,3,3,0,0,1,.26-.7,3.72,3.72,0,0,1,.44-.65,6.14,6.14,0,0,1,.62-.64l.52-.49a3.83,3.83,0,0,0,.35-.35,1.94,1.94,0,0,0,.2-.33,1,1,0,0,0,.09-.35,2.72,2.72,0,0,0,0-.43c0-.53-.21-.79-.63-.79a.64.64,0,0,0-.39.1.58.58,0,0,0-.21.27,1.12,1.12,0,0,0-.1.39,3.7,3.7,0,0,0,0,.48H29v-.24a1.84,1.84,0,0,1,.48-1.37,2,2,0,0,1,1.5-.48,2,2,0,0,1,1.44.45,1.68,1.68,0,0,1,.47,1.29,3.36,3.36,0,0,1,0,.57,2.78,2.78,0,0,1-.17.51,2.24,2.24,0,0,1-.31.47,5,5,0,0,1-.46.48l-.72.66a3.29,3.29,0,0,0-.45.51,1.51,1.51,0,0,0-.21.43h2.41v1Z"/>
    </g>
    <g>
      <g>
        <path d="M23,163.47c-6.33,0-11.49-5.52-11.49-12.31S16.63,138.85,23,138.85H52.68c6.33,0,11.49,5.52,11.49,12.31S59,163.47,52.68,163.47Z" style="fill: #00a551"/>
        <path d="M52.68,139.35c6.07,0,11,5.29,11,11.81S58.75,163,52.68,163H23c-6.06,0-11-5.29-11-11.81s4.93-11.81,11-11.81H52.68m0-1H23c-6.61,0-12,5.75-12,12.81S16.35,164,23,164H52.68c6.61,0,12-5.75,12-12.81s-5.38-12.81-12-12.81Z"/>
      </g>
      <line x1="24.56" y1="151.52" x2="28.49" y2="151.52" style="stroke: #231f20;stroke-width: 0.826027px"/>
      <ellipse cx="26.52" cy="149.34" rx="0.64" ry="0.94"/>
      <path d="M27,154.36a.51.51,0,0,1-.91,0,1.26,1.26,0,0,1,0-1.32.51.51,0,0,1,.91,0A1.26,1.26,0,0,1,27,154.36Z"/>
      <path d="M30.41,153.51a.57.57,0,0,0,.56.29.8.8,0,0,0,.38-.08.56.56,0,0,0,.21-.22.68.68,0,0,0,.1-.33,2.6,2.6,0,0,0,0-.4,1.7,1.7,0,0,0,0-.4,1,1,0,0,0-.12-.35.64.64,0,0,0-.25-.24.89.89,0,0,0-.43-.09h-.43v-.85h.42a.65.65,0,0,0,.35-.09.66.66,0,0,0,.22-.22,1,1,0,0,0,.13-.32,2.33,2.33,0,0,0,0-.38,1,1,0,0,0-.16-.65A.57.57,0,0,0,31,149a.68.68,0,0,0-.34.08.43.43,0,0,0-.2.22,1,1,0,0,0-.1.33c0,.12,0,.26,0,.41H29.11a1.89,1.89,0,0,1,.48-1.42,1.91,1.91,0,0,1,1.39-.46,2.1,2.1,0,0,1,1.36.39,1.54,1.54,0,0,1,.48,1.25,1.63,1.63,0,0,1-.26.94,1.16,1.16,0,0,1-.71.46v0a1.2,1.2,0,0,1,.88.5,1.83,1.83,0,0,1,.25,1,3.14,3.14,0,0,1-.08.67,1.51,1.51,0,0,1-.31.62,1.79,1.79,0,0,1-.65.45,2.89,2.89,0,0,1-1.07.17,1.82,1.82,0,0,1-1.39-.5,2.06,2.06,0,0,1-.46-1.44v0h1.24A2.27,2.27,0,0,0,30.41,153.51Z"/>
    </g>
    <g>
      <g>
        <path d="M23,195.08c-6.33,0-11.49-5.52-11.49-12.3S16.63,170.47,23,170.47H52.68c6.33,0,11.49,5.52,11.49,12.31s-5.16,12.3-11.49,12.3Z" style="fill: #ec1c24"/>
        <path d="M52.68,171c6.07,0,11,5.29,11,11.81s-4.92,11.8-11,11.8H23c-6.06,0-11-5.28-11-11.8S16.9,171,23,171H52.68m0-1H23c-6.61,0-12,5.74-12,12.81s5.38,12.8,12,12.8H52.68c6.61,0,12-5.74,12-12.8S59.29,170,52.68,170Z"/>
      </g>
      <line x1="24.56" y1="183.14" x2="28.49" y2="183.14" style="stroke: #231f20;stroke-width: 0.826027px"/>
      <ellipse cx="26.52" cy="180.96" rx="0.64" ry="0.94"/>
      <ellipse cx="26.52" cy="185.31" rx="0.64" ry="0.94"/>
      <path d="M31.08,179.76h1.34v4H33v1h-.62v1.33H31.24v-1.33H29v-1.06Zm.14,1.62L30,183.8h1.26v-2.42Z"/>
    </g>
    <g>
      <g>
        <path d="M23,226.7c-6.33,0-11.49-5.52-11.49-12.31S16.63,202.08,23,202.08H52.68c6.33,0,11.49,5.53,11.49,12.31S59,226.7,52.68,226.7Z" style="fill: #00adee"/>
        <path d="M52.68,202.58c6.07,0,11,5.29,11,11.81s-4.92,11.81-11,11.81H23c-6.06,0-11-5.29-11-11.81s4.93-11.81,11-11.81H52.68m0-1H23c-6.61,0-12,5.75-12,12.81s5.38,12.81,12,12.81H52.68c6.61,0,12-5.75,12-12.81s-5.38-12.81-12-12.81Z"/>
      </g>
      <line x1="24.56" y1="214.75" x2="28.49" y2="214.75" style="stroke: #231f20;stroke-width: 0.826027px"/>
      <ellipse cx="26.52" cy="212.57" rx="0.64" ry="0.94"/>
      <path d="M27,217.59a.51.51,0,0,1-.91,0,1.26,1.26,0,0,1,0-1.32.51.51,0,0,1,.91,0A1.26,1.26,0,0,1,27,217.59Z"/>
      <path d="M30.32,212.51,30.18,214h0a1,1,0,0,1,.47-.36,1.79,1.79,0,0,1,.7-.12,1.45,1.45,0,0,1,.76.18,1.41,1.41,0,0,1,.48.46,2,2,0,0,1,.25.66,4.53,4.53,0,0,1,.07.74,4.75,4.75,0,0,1-.09,1,1.85,1.85,0,0,1-.32.74,1.32,1.32,0,0,1-.63.47,2.64,2.64,0,0,1-1,.16,2.42,2.42,0,0,1-1-.16,1.35,1.35,0,0,1-.57-.43,1.46,1.46,0,0,1-.27-.58,3.05,3.05,0,0,1-.07-.58v-.17h1.25c0,.11,0,.22,0,.34a1.13,1.13,0,0,0,.09.34.63.63,0,0,0,.19.26.53.53,0,0,0,.34.11.63.63,0,0,0,.58-.31,2.07,2.07,0,0,0,.17-.94,5.79,5.79,0,0,0,0-.65,1.3,1.3,0,0,0-.13-.42.43.43,0,0,0-.23-.21.88.88,0,0,0-.36-.07.57.57,0,0,0-.42.16.81.81,0,0,0-.19.43H29.11l.24-3.47h3.32v1Z"/>
    </g>
    <g>
      <g>
        <path d="M23,258.31c-6.33,0-11.49-5.52-11.49-12.3S16.63,233.7,23,233.7H52.68c6.33,0,11.49,5.52,11.49,12.31s-5.16,12.3-11.49,12.3Z" style="fill: #00a551"/>
        <path d="M52.68,234.2c6.07,0,11,5.29,11,11.81s-4.92,11.8-11,11.8H23c-6.06,0-11-5.28-11-11.8S16.9,234.2,23,234.2H52.68m0-1H23c-6.61,0-12,5.74-12,12.81s5.38,12.8,12,12.8H52.68c6.61,0,12-5.74,12-12.8s-5.38-12.81-12-12.81Z"/>
      </g>
      <line x1="24.56" y1="246.37" x2="28.49" y2="246.37" style="stroke: #231f20;stroke-width: 0.826027px"/>
      <ellipse cx="26.52" cy="244.19" rx="0.64" ry="0.94"/>
      <path d="M27,249.21a.52.52,0,0,1-.91,0,1.27,1.27,0,0,1,0-1.33.52.52,0,0,1,.91,0A1.27,1.27,0,0,1,27,249.21Z"/>
      <path d="M31.51,244a.51.51,0,0,0-.45-.2.65.65,0,0,0-.41.12.8.8,0,0,0-.25.34,2.16,2.16,0,0,0-.11.51c0,.2,0,.42,0,.65v.32h0a1.12,1.12,0,0,1,.47-.41,1.95,1.95,0,0,1,1.45,0,1.22,1.22,0,0,1,.48.42,2,2,0,0,1,.27.63,3.32,3.32,0,0,1,.09.8,2.54,2.54,0,0,1-.49,1.67,2,2,0,0,1-1.58.58,2.05,2.05,0,0,1-1.06-.24,1.54,1.54,0,0,1-.6-.64,2.57,2.57,0,0,1-.28-1,10.28,10.28,0,0,1-.06-1.13c0-.45,0-.88,0-1.31a3.76,3.76,0,0,1,.24-1.12,1.77,1.77,0,0,1,.64-.79,2.09,2.09,0,0,1,1.22-.3,2.39,2.39,0,0,1,.66.09,1.39,1.39,0,0,1,.56.27,1.29,1.29,0,0,1,.4.49,2,2,0,0,1,.15.77H31.64A1,1,0,0,0,31.51,244Zm-1.16,3.85a1.36,1.36,0,0,0,.11.4.61.61,0,0,0,.21.26.7.7,0,0,0,.37.1.67.67,0,0,0,.37-.1.61.61,0,0,0,.21-.26,1.56,1.56,0,0,0,.1-.4c0-.16,0-.32,0-.5a1.93,1.93,0,0,0-.16-.93.57.57,0,0,0-.54-.28.58.58,0,0,0-.55.28,1.93,1.93,0,0,0-.16.93C30.33,247.57,30.34,247.73,30.35,247.89Z"/>
    </g>
    <g>
      <g>
        <path d="M23,289.93c-6.33,0-11.49-5.52-11.49-12.31s5.16-12.3,11.49-12.3H52.68c6.33,0,11.49,5.52,11.49,12.3S59,289.93,52.68,289.93Z" style="fill: #00adee"/>
        <path d="M52.68,265.81c6.07,0,11,5.29,11,11.81s-4.92,11.81-11,11.81H23c-6.06,0-11-5.29-11-11.81s4.93-11.81,11-11.81H52.68m0-1H23c-6.61,0-12,5.75-12,12.81s5.38,12.81,12,12.81H52.68c6.61,0,12-5.75,12-12.81s-5.38-12.81-12-12.81Z"/>
      </g>
      <line x1="24.56" y1="277.98" x2="28.49" y2="277.98" style="stroke: #231f20;stroke-width: 0.826027px"/>
      <path d="M27,276.47a.52.52,0,0,1-.91,0,1.27,1.27,0,0,1,0-1.33.52.52,0,0,1,.91,0A1.27,1.27,0,0,1,27,276.47Z"/>
      <path d="M27,280.82a.51.51,0,0,1-.91,0,1.26,1.26,0,0,1,0-1.32.51.51,0,0,1,.91,0A1.26,1.26,0,0,1,27,280.82Z"/>
      <path d="M33,275.73a8.26,8.26,0,0,0-.7,1.19,11.49,11.49,0,0,0-.93,2.69,13.58,13.58,0,0,0-.24,1.37H29.73a12,12,0,0,1,.22-1.21,9.81,9.81,0,0,1,.38-1.29,10.82,10.82,0,0,1,.58-1.32,10.08,10.08,0,0,1,.81-1.31H29v-1.11H33Z"/>
    </g>
    <g>
      <g>
        <path d="M23,321.54c-6.33,0-11.49-5.52-11.49-12.3S16.63,296.93,23,296.93H52.68c6.33,0,11.49,5.52,11.49,12.31s-5.16,12.3-11.49,12.3Z" style="fill: #ec1c24"/>
        <path d="M52.68,297.43c6.07,0,11,5.29,11,11.81s-4.92,11.8-11,11.8H23c-6.06,0-11-5.28-11-11.8s4.93-11.81,11-11.81H52.68m0-1H23c-6.61,0-12,5.74-12,12.81S16.35,322,23,322H52.68c6.61,0,12-5.74,12-12.8s-5.38-12.81-12-12.81Z"/>
      </g>
      <line x1="24.56" y1="309.6" x2="28.49" y2="309.6" style="stroke: #231f20;stroke-width: 0.826027px"/>
      <path d="M27,308.08a.51.51,0,0,1-.91,0,1.26,1.26,0,0,1,0-1.32.51.51,0,0,1,.91,0A1.26,1.26,0,0,1,27,308.08Z"/>
      <path d="M27,312.44a.52.52,0,0,1-.91,0,1.27,1.27,0,0,1,0-1.33.52.52,0,0,1,.91,0A1.27,1.27,0,0,1,27,312.44Z"/>
      <path d="M29.24,309.76a1.17,1.17,0,0,1,.81-.54v0a1.11,1.11,0,0,1-.44-.19,1.29,1.29,0,0,1-.44-.67,1.59,1.59,0,0,1,0-.36,1.68,1.68,0,0,1,.5-1.35,2.49,2.49,0,0,1,2.74,0,1.65,1.65,0,0,1,.5,1.35,1.2,1.2,0,0,1,0,.36,1.14,1.14,0,0,1-.15.36,1.41,1.41,0,0,1-.29.31,1.08,1.08,0,0,1-.42.19v0a1.17,1.17,0,0,1,.81.54,1.92,1.92,0,0,1,.27,1,3.57,3.57,0,0,1-.07.61,1.53,1.53,0,0,1-.29.62,1.67,1.67,0,0,1-.61.48,2.63,2.63,0,0,1-1.07.19,2.58,2.58,0,0,1-1.06-.19,1.63,1.63,0,0,1-.62-.48,1.39,1.39,0,0,1-.28-.62,2.79,2.79,0,0,1-.07-.61A1.92,1.92,0,0,1,29.24,309.76Zm1.06,1.45a1,1,0,0,0,.11.35.72.72,0,0,0,.23.23.69.69,0,0,0,.36.09.65.65,0,0,0,.59-.32,1,1,0,0,0,.12-.35,3,3,0,0,0,0-.43,2.81,2.81,0,0,0,0-.43.91.91,0,0,0-.12-.35.57.57,0,0,0-.23-.23.64.64,0,0,0-.36-.09.69.69,0,0,0-.36.09.63.63,0,0,0-.23.23.9.9,0,0,0-.11.35,1.91,1.91,0,0,0,0,.43A2,2,0,0,0,30.3,311.21Zm.24-2.59a.57.57,0,0,0,.46.21.56.56,0,0,0,.46-.21,1.13,1.13,0,0,0,.17-.68q0-.87-.63-.87t-.63.87A1.13,1.13,0,0,0,30.54,308.62Z"/>
    </g>
    <g>
      <path d="M52.68,44.48c6.07,0,11,5.3,11,11.83s-4.92,11.84-11,11.84H23c-6.06,0-11-5.3-11-11.84S16.9,44.48,23,44.48H52.68m0-1.5H23c-6.88,0-12.49,6-12.49,13.33S16.08,69.65,23,69.65H52.68c6.89,0,12.49-6,12.49-13.34S59.57,43,52.68,43Z"/>
      <polyline points="24.63 63.56 29.11 63.56 29.11 56.04 33.6 56.04" style="fill: none;stroke: #000"/>
      <path d="M29.08,56.56l-2.65,2.11Z" style="fill: none;stroke: #000"/>
      <line x1="31.58" y1="58.66" x2="29.01" y2="56.61" style="fill: none;stroke: #000"/>
      <path d="M26.44,49.57a.69.69,0,0,1-.7-.73.72.72,0,1,1,.71.73Zm-.63,5v-4.4h1.28v4.4Z"/>
      <path d="M28.11,51.55c0-.55,0-1,0-1.4h1.1l.06.61h0a1.42,1.42,0,0,1,1.26-.71c.84,0,1.47.6,1.47,1.9v2.6H30.72V52.11c0-.57-.18-1-.64-1a.7.7,0,0,0-.65.51.9.9,0,0,0-.05.34v2.54H28.11Z"/>
    </g>
    <path d="M128.8,162.08" style="fill: none;stroke: #fff;stroke-width: 1.0352100000000002px"/>
    <g>
      <path d="M95.47,278.92c-6.16,0-11.16-5.52-11.16-12.31s5-12.31,11.16-12.31h26.66c6.15,0,11.16,5.52,11.16,12.31s-5,12.31-11.16,12.31Z" style="fill: #00adee"/>
      <path d="M122.13,254.8c5.89,0,10.66,5.29,10.66,11.81s-4.77,11.81-10.66,11.81H95.47c-5.89,0-10.66-5.29-10.66-11.81s4.77-11.81,10.66-11.81h26.66m0-1H95.47c-6.43,0-11.66,5.75-11.66,12.81S89,279.42,95.47,279.42h26.66c6.43,0,11.66-5.75,11.66-12.81s-5.23-12.81-11.66-12.81Z"/>
    </g>
    <g>
      <path d="M95.47,318.64c-6.16,0-11.16-5.52-11.16-12.3S89.31,294,95.47,294h26.66c6.15,0,11.16,5.52,11.16,12.31s-5,12.3-11.16,12.3Z" style="fill: #00adee"/>
      <path d="M122.13,294.53c5.89,0,10.66,5.29,10.66,11.81s-4.77,11.8-10.66,11.8H95.47c-5.89,0-10.66-5.28-10.66-11.8s4.77-11.81,10.66-11.81h26.66m0-1H95.47c-6.43,0-11.66,5.74-11.66,12.81s5.23,12.8,11.66,12.8h26.66c6.43,0,11.66-5.74,11.66-12.8s-5.23-12.81-11.66-12.81Z"/>
    </g>
    <g>
      <path d="M95.45,327.56H94l-.37-1.23h-2l-.38,1.23H89.9l2-6.09h1.52Zm-2.1-2.29L92.69,323,92,325.27Z"/>
      <path d="M99.13,327.56H97.94v-.64a1.93,1.93,0,0,1-.52.54,1.22,1.22,0,0,1-.67.18.94.94,0,0,1-1-.59,3.71,3.71,0,0,1-.22-1.33v-2.63h1.18v2.41a2,2,0,0,0,.09.64.39.39,0,0,0,.4.28.5.5,0,0,0,.41-.2,3.12,3.12,0,0,0,.31-.5v-2.63h1.19Z"/>
      <path d="M102.27,327.3a2.25,2.25,0,0,1-.51.23,2.08,2.08,0,0,1-.62.11c-.86,0-1.29-.56-1.29-1.67v-1.78h-.53v-.28l1.59-2.16H101v1.34h1.14v1.1H101v1.43a2.1,2.1,0,0,0,0,.4.41.41,0,0,0,.13.26.44.44,0,0,0,.32.1,1.46,1.46,0,0,0,.75-.31Z"/>
      <path d="M106.22,325.32a3.16,3.16,0,0,1-.21,1.19,1.94,1.94,0,0,1-.66.83,1.78,1.78,0,0,1-1,.3,1.81,1.81,0,0,1-1.06-.3,1.92,1.92,0,0,1-.65-.83,3.16,3.16,0,0,1-.21-1.19,3.31,3.31,0,0,1,.12-.92,2.26,2.26,0,0,1,.36-.73,1.7,1.7,0,0,1,.61-.49,2,2,0,0,1,.83-.17,2.07,2.07,0,0,1,.84.17,1.69,1.69,0,0,1,.6.49,2.17,2.17,0,0,1,.36.73A3.31,3.31,0,0,1,106.22,325.32Zm-1.25,0a1.63,1.63,0,0,0-.17-.83.57.57,0,0,0-1,0,1.63,1.63,0,0,0-.17.83,1.7,1.7,0,0,0,.17.84.55.55,0,0,0,.5.3.54.54,0,0,0,.5-.3A1.7,1.7,0,0,0,105,325.32Z"/>
      <path d="M108.92,326h-2.16v-1.47h2.16Z"/>
      <path d="M114.23,327.56h-1.48l-.36-1.08a5.48,5.48,0,0,0-.36-.87.84.84,0,0,0-.31-.35.86.86,0,0,0-.38-.08h-.16v2.38H109.8v-6.09h2.35a1.39,1.39,0,0,1,.93.31,1.73,1.73,0,0,1,.52.75,2.59,2.59,0,0,1,.16.83,2,2,0,0,1-.14.78,1.21,1.21,0,0,1-.28.46,3,3,0,0,1-.33.28,1.4,1.4,0,0,1,.36.41,4.76,4.76,0,0,1,.39.95Zm-1.88-4.16a.73.73,0,0,0-.2-.59,1.11,1.11,0,0,0-.68-.17h-.29v1.47h.3a1.17,1.17,0,0,0,.69-.15A.71.71,0,0,0,112.35,323.4Z"/>
      <path d="M117.83,325.71h-2.36a1.06,1.06,0,0,0,.34.66.81.81,0,0,0,.61.26,2.61,2.61,0,0,0,1.32-.44v1a2.64,2.64,0,0,1-.63.32,2.54,2.54,0,0,1-.94.15,1.75,1.75,0,0,1-1.06-.31,1.86,1.86,0,0,1-.65-.83,3.21,3.21,0,0,1-.21-1.2,3.14,3.14,0,0,1,.21-1.18,1.76,1.76,0,0,1,1.71-1.11,1.56,1.56,0,0,1,.79.23,1.75,1.75,0,0,1,.62.77,3.24,3.24,0,0,1,.25,1.38Zm-1.12-.79a1.25,1.25,0,0,0-.16-.68.5.5,0,0,0-.45-.26.56.56,0,0,0-.48.26,1.12,1.12,0,0,0-.19.68Z"/>
      <path d="M120.77,326.26a1.49,1.49,0,0,1-.34,1,1.3,1.3,0,0,1-1,.38,2.24,2.24,0,0,1-.66-.09,5,5,0,0,1-.63-.26v-1.12a4.31,4.31,0,0,0,.52.35,1.13,1.13,0,0,0,.48.11c.3,0,.45-.1.45-.32a.36.36,0,0,0-.06-.2,1.28,1.28,0,0,0-.23-.19l-.43-.26a1.84,1.84,0,0,1-.56-.52,1.34,1.34,0,0,1-.23-.79,1.32,1.32,0,0,1,.16-.64,1.19,1.19,0,0,1,.46-.51,1.39,1.39,0,0,1,.75-.19l.27,0a2.62,2.62,0,0,1,.41.1,2.32,2.32,0,0,1,.47.24v1.09l-.18-.14a.93.93,0,0,0-.18-.12,1.82,1.82,0,0,0-.28-.13,1,1,0,0,0-.33-.06.32.32,0,0,0-.28.11.32.32,0,0,0,0,.42,1.21,1.21,0,0,0,.35.23,2.84,2.84,0,0,1,.64.42,1.1,1.1,0,0,1,.33.46A1.58,1.58,0,0,1,120.77,326.26Z"/>
      <path d="M124.58,325.71h-2.36a1.11,1.11,0,0,0,.34.66.83.83,0,0,0,.61.26,2.61,2.61,0,0,0,1.32-.44v1a2.64,2.64,0,0,1-.63.32,2.54,2.54,0,0,1-.94.15,1.75,1.75,0,0,1-1.06-.31,1.86,1.86,0,0,1-.65-.83,3.21,3.21,0,0,1-.21-1.2,3.14,3.14,0,0,1,.21-1.18,1.76,1.76,0,0,1,1.71-1.11,1.56,1.56,0,0,1,.79.23,1.75,1.75,0,0,1,.62.77,3.24,3.24,0,0,1,.25,1.38Zm-1.11-.79a1.34,1.34,0,0,0-.16-.68.52.52,0,0,0-.46-.26.56.56,0,0,0-.48.26,1.12,1.12,0,0,0-.19.68Z"/>
      <path d="M127.54,327.3a2.06,2.06,0,0,1-.51.23,2,2,0,0,1-.62.11c-.86,0-1.28-.56-1.28-1.67v-1.78h-.54v-.28l1.59-2.16h.14v1.34h1.13v1.1h-1.13v1.43a2.24,2.24,0,0,0,0,.4.41.41,0,0,0,.13.26.44.44,0,0,0,.32.1,1.46,1.46,0,0,0,.75-.31Z"/>
    </g>
    <g>
      <path d="M101.31,286.17a2.07,2.07,0,0,1-.22,1,1.57,1.57,0,0,1-.61.64,1.77,1.77,0,0,1-.9.22l-.35,0a2.94,2.94,0,0,1-.55-.14,3.92,3.92,0,0,1-.71-.32V286a5.34,5.34,0,0,0,.68.48,1.55,1.55,0,0,0,.72.19c.24,0,.39,0,.46-.16a.51.51,0,0,0,.1-.29.56.56,0,0,0-.18-.42,2.34,2.34,0,0,0-.51-.35,3.67,3.67,0,0,1-.66-.46,1.85,1.85,0,0,1-.47-.62,2.21,2.21,0,0,1,0-1.77,1.43,1.43,0,0,1,.55-.64,1.73,1.73,0,0,1,.91-.23,2.34,2.34,0,0,1,.71.1,2.42,2.42,0,0,1,.53.22,1.59,1.59,0,0,1,.29.19v1.43a3.3,3.3,0,0,0-.62-.48,1.41,1.41,0,0,0-.74-.21.45.45,0,0,0-.37.13.48.48,0,0,0-.12.33.45.45,0,0,0,.12.31,1.81,1.81,0,0,0,.41.32,8.79,8.79,0,0,1,.84.59,1.92,1.92,0,0,1,.5.61A1.86,1.86,0,0,1,101.31,286.17Z"/>
      <path d="M105.47,285.67a4.14,4.14,0,0,1-.1.87,2.49,2.49,0,0,1-.29.75,1.47,1.47,0,0,1-.51.54,1.28,1.28,0,0,1-.71.19,1.21,1.21,0,0,1-.52-.09,1.66,1.66,0,0,1-.38-.25V290h-1.19v-6.51H103v.4a1.76,1.76,0,0,1,.39-.34,1,1,0,0,1,.59-.14,1.29,1.29,0,0,1,.72.24,1.75,1.75,0,0,1,.58.75A3.27,3.27,0,0,1,105.47,285.67Zm-1.25,0a1.76,1.76,0,0,0-.1-.66.67.67,0,0,0-.25-.36.47.47,0,0,0-.31-.11.75.75,0,0,0-.35.08,1.79,1.79,0,0,0-.25.23v1.71l.13.1.15.09a.52.52,0,0,0,.15.07.47.47,0,0,0,.17,0,.55.55,0,0,0,.47-.32A1.74,1.74,0,0,0,104.22,285.71Z"/>
      <path d="M108.76,283.71l-.44,1.59a.74.74,0,0,0-.54-.35.57.57,0,0,0-.44.23,2.45,2.45,0,0,0-.35.84v1.92h-1.18v-4.47H107v1.08a2.41,2.41,0,0,1,.4-.78.83.83,0,0,1,.66-.38.65.65,0,0,1,.35.08A2.23,2.23,0,0,1,108.76,283.71Z"/>
      <path d="M112.31,286.09H110a1.11,1.11,0,0,0,.34.66.83.83,0,0,0,.61.26,2.58,2.58,0,0,0,1.33-.44v1a3.09,3.09,0,0,1-.63.32,2.59,2.59,0,0,1-.95.15,1.74,1.74,0,0,1-1.05-.31,1.88,1.88,0,0,1-.66-.83,3.21,3.21,0,0,1-.21-1.2,3.14,3.14,0,0,1,.21-1.18,1.83,1.83,0,0,1,.66-.81,1.8,1.8,0,0,1,1.05-.3,1.54,1.54,0,0,1,.79.23,1.84,1.84,0,0,1,.63.77,3.42,3.42,0,0,1,.24,1.38Zm-1.11-.79a1.25,1.25,0,0,0-.16-.68.52.52,0,0,0-.46-.26.56.56,0,0,0-.48.26,1.19,1.19,0,0,0-.18.68Z"/>
      <path d="M116.11,287.72l-.49.22a1.6,1.6,0,0,1-.53.08.49.49,0,0,1-.4-.14.74.74,0,0,1-.17-.33,2.24,2.24,0,0,1-.42.34,1.27,1.27,0,0,1-.62.13,1,1,0,0,1-.59-.17.86.86,0,0,1-.32-.43,1.54,1.54,0,0,1-.09-.52,1.41,1.41,0,0,1,.16-.69,1.18,1.18,0,0,1,.42-.44,6.29,6.29,0,0,1,.7-.36l.37-.16.19-.08.13-.08a1.16,1.16,0,0,0-.09-.51.45.45,0,0,0-.43-.18,1.25,1.25,0,0,0-.72.22,2.62,2.62,0,0,0-.61.59V284a2,2,0,0,1,.47-.35,2.47,2.47,0,0,1,.54-.19,2.22,2.22,0,0,1,.57-.07,1.45,1.45,0,0,1,1.09.37,1.41,1.41,0,0,1,.37,1v1.73a1.11,1.11,0,0,0,0,.36q0,.12.12.12a.64.64,0,0,0,.31-.12Zm-1.66-.86V285.8a3,3,0,0,0-.61.41.65.65,0,0,0-.2.5.55.55,0,0,0,.1.34.29.29,0,0,0,.23.12.4.4,0,0,0,.24-.09A1.6,1.6,0,0,0,114.45,286.86Z"/>
      <path d="M119.76,287.94h-1.19v-.4a2.07,2.07,0,0,1-.4.34,1,1,0,0,1-.58.14,1.29,1.29,0,0,1-.72-.24,1.83,1.83,0,0,1-.58-.75,3.28,3.28,0,0,1-.22-1.29,3.6,3.6,0,0,1,.17-1.15,2,2,0,0,1,.53-.87,1.32,1.32,0,0,1,.9-.33,1.21,1.21,0,0,1,.54.1,1.41,1.41,0,0,1,.36.24v-1.88h1.19Zm-1.19-1.42v-1.71a3.08,3.08,0,0,0-.33-.22.47.47,0,0,0-.27-.07.55.55,0,0,0-.47.32,1.75,1.75,0,0,0-.18.86,1.48,1.48,0,0,0,.19.86.56.56,0,0,0,.46.27.57.57,0,0,0,.34-.09A1.32,1.32,0,0,0,118.57,286.52Z"/>
    </g>
    <g>
      <path d="M90.48,309.24H89.23v-6.1h1.25Z"/>
      <path d="M95.39,307.13a2.86,2.86,0,0,1-.12.82,2.21,2.21,0,0,1-.36.7,1.74,1.74,0,0,1-.56.49,1.47,1.47,0,0,1-.72.17,1.51,1.51,0,0,1-1-.33,2,2,0,0,1-.62-.89,3.29,3.29,0,0,1-.21-1.18,4.63,4.63,0,0,1,.13-1,5.78,5.78,0,0,1,.37-1,6.51,6.51,0,0,1,.58-.95,5.8,5.8,0,0,1,.75-.84l1.12.5c-.18.2-.33.39-.47.56s-.25.34-.37.52a5.33,5.33,0,0,0-.32.56.87.87,0,0,1,.3,0,1.23,1.23,0,0,1,.74.24,1.67,1.67,0,0,1,.54.7A2.64,2.64,0,0,1,95.39,307.13Zm-1.18,0a.92.92,0,0,0-.18-.62.56.56,0,0,0-.41-.2.48.48,0,0,0-.46.27,1.11,1.11,0,0,0-.15.55,1,1,0,0,0,.17.6.48.48,0,0,0,.42.25.46.46,0,0,0,.34-.14.79.79,0,0,0,.2-.33A1.33,1.33,0,0,0,94.21,307.1Z"/>
    </g>
    <g>
      <path d="M91.94,266.45a3,3,0,0,1-.22,1.19,1.83,1.83,0,0,1-3.41,0,3.16,3.16,0,0,1-.22-1.19,3.31,3.31,0,0,1,.12-.92,2.51,2.51,0,0,1,.37-.73,1.72,1.72,0,0,1,.61-.49,2,2,0,0,1,.83-.17,2,2,0,0,1,.83.17,1.64,1.64,0,0,1,.61.49,2.17,2.17,0,0,1,.36.73A3.31,3.31,0,0,1,91.94,266.45Zm-1.25,0a1.74,1.74,0,0,0-.17-.83.55.55,0,0,0-.5-.3.54.54,0,0,0-.5.3,1.62,1.62,0,0,0-.18.83,1.69,1.69,0,0,0,.18.84.54.54,0,0,0,.5.3.55.55,0,0,0,.5-.3A1.78,1.78,0,0,0,90.69,266.45Z"/>
      <path d="M95.87,268.69H94.68v-2.41a2,2,0,0,0-.09-.64.37.37,0,0,0-.4-.28.52.52,0,0,0-.25.07.89.89,0,0,0-.2.19,2,2,0,0,0-.14.22,2.53,2.53,0,0,1-.13.22v2.63H92.29v-4.47h1.18v.64a1.87,1.87,0,0,1,.57-.56,1.17,1.17,0,0,1,.62-.16c.81,0,1.21.64,1.21,1.92Z"/>
    </g>
    <g>
      <path d="M125.35,307a3,3,0,0,1-.22,1.19,1.77,1.77,0,0,1-.65.82,2,2,0,0,1-2.11,0,1.77,1.77,0,0,1-.65-.82,3,3,0,0,1-.22-1.19,3.26,3.26,0,0,1,.12-.92,2,2,0,0,1,.37-.73,1.5,1.5,0,0,1,.6-.49,2,2,0,0,1,1.67,0,1.58,1.58,0,0,1,.6.48,2.19,2.19,0,0,1,.37.73A3.38,3.38,0,0,1,125.35,307Zm-1.25,0a1.76,1.76,0,0,0-.17-.84.58.58,0,0,0-1,0,1.76,1.76,0,0,0-.17.84,1.62,1.62,0,0,0,.18.83.53.53,0,0,0,.49.31.56.56,0,0,0,.51-.31A1.74,1.74,0,0,0,124.1,307Z"/>
      <path d="M127.94,304.28a1.37,1.37,0,0,0-.44-.08.33.33,0,0,0-.29.16.81.81,0,0,0-.11.48V305h.6v1.07h-.6v3.17h-1.19v-3.17h-.55V305h.55v-.08a2.6,2.6,0,0,1,.14-.89,1.57,1.57,0,0,1,.45-.7,1.27,1.27,0,0,1,.85-.27,2.06,2.06,0,0,1,.59.09Z"/>
      <path d="M130.16,304.28a1.36,1.36,0,0,0-.43-.08.33.33,0,0,0-.3.16.9.9,0,0,0-.11.48V305h.6v1.07h-.6v3.17h-1.19v-3.17h-.55V305h.55v-.08a2.86,2.86,0,0,1,.14-.89,1.57,1.57,0,0,1,.45-.7,1.29,1.29,0,0,1,.85-.27,2,2,0,0,1,.59.09Z"/>
    </g>
    <g>
      <path d="M125.35,266.45a3,3,0,0,1-.22,1.19,1.83,1.83,0,0,1-3.41,0,3,3,0,0,1-.22-1.19,3.36,3.36,0,0,1,.12-.92,2.1,2.1,0,0,1,.37-.73,1.69,1.69,0,0,1,.6-.49,2.14,2.14,0,0,1,1.67,0,1.6,1.6,0,0,1,.6.49,2.19,2.19,0,0,1,.37.73A3.36,3.36,0,0,1,125.35,266.45Zm-1.25,0a1.74,1.74,0,0,0-.17-.83.58.58,0,0,0-1,0,1.74,1.74,0,0,0-.17.83,1.69,1.69,0,0,0,.18.84.54.54,0,0,0,.49.3.56.56,0,0,0,.51-.3A1.76,1.76,0,0,0,124.1,266.45Z"/>
      <path d="M127.94,263.74a1.43,1.43,0,0,0-.44-.09.34.34,0,0,0-.29.17.8.8,0,0,0-.11.47v.16h.6v1.08h-.6v3.16h-1.19v-3.16h-.55v-1.08h.55v-.08a2.63,2.63,0,0,1,.14-.89,1.49,1.49,0,0,1,.45-.69,1.27,1.27,0,0,1,.85-.27,2.46,2.46,0,0,1,.59.08Z"/>
      <path d="M130.16,263.74a1.43,1.43,0,0,0-.43-.09.34.34,0,0,0-.3.17.88.88,0,0,0-.11.47v.16h.6v1.08h-.6v3.16h-1.19v-3.16h-.55v-1.08h.55v-.08a2.91,2.91,0,0,1,.14-.89,1.49,1.49,0,0,1,.45-.69,1.29,1.29,0,0,1,.85-.27,2.39,2.39,0,0,1,.59.08Z"/>
    </g>
    <g>
      <path d="M95.28,193.55c-6.15,0-11.16-5.52-11.16-12.31s5-12.3,11.16-12.3h26.66c6.16,0,11.16,5.52,11.16,12.3s-5,12.31-11.16,12.31Z"/>
      <path d="M122,169.44c5.88,0,10.66,5.28,10.66,11.8s-4.78,11.81-10.66,11.81H95.28c-5.88,0-10.66-5.29-10.66-11.81s4.78-11.8,10.66-11.8H122m0-1H95.28c-6.43,0-11.66,5.74-11.66,12.8s5.23,12.81,11.66,12.81H122c6.42,0,11.66-5.75,11.66-12.81s-5.24-12.8-11.66-12.8Z"/>
    </g>
    <g>
      <path d="M95.28,233.27c-6.15,0-11.16-5.52-11.16-12.31s5-12.3,11.16-12.3h26.66c6.16,0,11.16,5.52,11.16,12.3s-5,12.31-11.16,12.31Z"/>
      <path d="M122,209.16c5.88,0,10.66,5.28,10.66,11.8s-4.78,11.81-10.66,11.81H95.28c-5.88,0-10.66-5.29-10.66-11.81s4.78-11.8,10.66-11.8H122m0-1H95.28c-6.43,0-11.66,5.74-11.66,12.8s5.23,12.81,11.66,12.81H122c6.42,0,11.66-5.75,11.66-12.81s-5.24-12.8-11.66-12.8Z"/>
    </g>
    <g>
      <path d="M101.4,204.11H100v-3.53l-1.25,2h-.1l-1.25-2v3.53H96.08V198h1.25l1.4,2.28,1.42-2.28h1.25Z"/>
      <path d="M105.56,203.88a3.31,3.31,0,0,1-.48.22,1.36,1.36,0,0,1-.53.09.53.53,0,0,1-.41-.14.89.89,0,0,1-.16-.34,1.74,1.74,0,0,1-.43.34,1.2,1.2,0,0,1-.61.14,1,1,0,0,1-.59-.17,1,1,0,0,1-.32-.43,1.6,1.6,0,0,1-.09-.53,1.29,1.29,0,0,1,.16-.68,1.18,1.18,0,0,1,.42-.44,3.73,3.73,0,0,1,.7-.36l.37-.16.19-.09a.46.46,0,0,0,.13-.08,1,1,0,0,0-.1-.5c-.06-.13-.2-.19-.42-.19a1.31,1.31,0,0,0-.73.23,2.57,2.57,0,0,0-.6.59v-1.22a1.94,1.94,0,0,1,.47-.34,2.06,2.06,0,0,1,.54-.2,2.78,2.78,0,0,1,.57-.07,1.46,1.46,0,0,1,1.09.38,1.4,1.4,0,0,1,.37,1v1.73a1.64,1.64,0,0,0,0,.37c0,.08.07.12.13.12a.53.53,0,0,0,.3-.13Zm-1.65-.85V202a3,3,0,0,0-.61.41.63.63,0,0,0-.2.49.53.53,0,0,0,.1.34.29.29,0,0,0,.23.12.4.4,0,0,0,.24-.09A2.25,2.25,0,0,0,103.91,203Z"/>
      <path d="M109.4,204.11h-1.46l-.65-1.27-.64,1.27h-1.3l1.3-2.2-1.33-2.28h1.46l.62,1.22.63-1.22h1.3l-1.27,2.13Z"/>
      <path d="M116.17,201.17a3.69,3.69,0,0,1-.25,1.5,3.05,3.05,0,0,1-.6.92,1.8,1.8,0,0,1-1.38.52h-2.46V198h1.9a3.84,3.84,0,0,1,.73.06,2.21,2.21,0,0,1,.55.16,1.77,1.77,0,0,1,.41.24,2.16,2.16,0,0,1,.31.29,2.64,2.64,0,0,1,.41.6,3.5,3.5,0,0,1,.28.81A4.37,4.37,0,0,1,116.17,201.17Zm-1.4-.08a2.64,2.64,0,0,0-.21-1.16,1.15,1.15,0,0,0-.51-.55,1.33,1.33,0,0,0-.61-.14h-.58v3.61h.58a1.4,1.4,0,0,0,.94-.35A1.88,1.88,0,0,0,114.77,201.09Z"/>
      <path d="M117.81,204.11h-1.19v-4.48h1.19Zm-.1-5.51a.73.73,0,0,1-.14.47.44.44,0,0,1-.36.19.46.46,0,0,1-.25-.08.76.76,0,0,1-.18-.24,1,1,0,0,1-.06-.34.75.75,0,0,1,.14-.47.43.43,0,0,1,.35-.2.45.45,0,0,1,.36.2A.75.75,0,0,1,117.71,198.6Z"/>
      <path d="M121.89,199.63l-1.52,4.48h-.88L118,199.63h1.27L120,202l.77-2.35Z"/>
    </g>
    <g>
      <path d="M89.79,223.61H88.54v-6.09h1.25Z" style="fill: #fff"/>
      <path d="M94.7,221.5a2.47,2.47,0,0,1-.13.82,2.3,2.3,0,0,1-.35.7,1.72,1.72,0,0,1-.56.49,1.58,1.58,0,0,1-1.71-.16,2.07,2.07,0,0,1-.62-.89,3.48,3.48,0,0,1-.2-1.18,4,4,0,0,1,.13-1,5.09,5.09,0,0,1,.37-1,5.32,5.32,0,0,1,.57-.95,5.93,5.93,0,0,1,.75-.84l1.13.49c-.18.21-.34.39-.47.56s-.26.35-.38.53-.22.37-.32.56a1,1,0,0,1,.31,0,1.2,1.2,0,0,1,.74.25,1.7,1.7,0,0,1,.54.7A2.56,2.56,0,0,1,94.7,221.5Zm-1.19,0a.9.9,0,0,0-.18-.62.53.53,0,0,0-.87.06,1.12,1.12,0,0,0-.15.56,1.08,1.08,0,0,0,.17.6.52.52,0,0,0,.42.24.48.48,0,0,0,.35-.13,1.05,1.05,0,0,0,.2-.34A1.24,1.24,0,0,0,93.51,221.48Z" style="fill: #fff"/>
    </g>
    <g>
      <path d="M90.63,181.82a2,2,0,0,1-.15.82,1.51,1.51,0,0,1-.86.86,1.57,1.57,0,0,1-.51.09,2.47,2.47,0,0,1-.76-.13,2.68,2.68,0,0,1-.7-.31v-1.36a2.19,2.19,0,0,0,.5.42,1,1,0,0,0,.55.18.61.61,0,0,0,.36-.11.78.78,0,0,0,.22-.26.8.8,0,0,0,.07-.34.93.93,0,0,0-.09-.42A.66.66,0,0,0,89,181a.67.67,0,0,0-.4-.11h-.15v-1h.17a.58.58,0,0,0,.38-.12.66.66,0,0,0,.22-.28,1,1,0,0,0,.07-.31.82.82,0,0,0-.16-.49.5.5,0,0,0-.42-.22,1.06,1.06,0,0,0-.47.12,1.74,1.74,0,0,0-.46.3v-1.16a4.16,4.16,0,0,1,.61-.29,1.83,1.83,0,0,1,.64-.1,1.36,1.36,0,0,1,.86.27,1.53,1.53,0,0,1,.51.65,1.77,1.77,0,0,1,.16.71,2,2,0,0,1-.32,1,1.64,1.64,0,0,1-.3.33,2.1,2.1,0,0,1,.49.53A1.85,1.85,0,0,1,90.63,181.82Z" style="fill: #fff"/>
      <path d="M94.65,183.51H91.18v-.12c.13-.17.28-.37.44-.61s.37-.56.62-1c.12-.18.23-.35.33-.53a4.81,4.81,0,0,0,.26-.5,3.4,3.4,0,0,0,.19-.54,2.35,2.35,0,0,0,.07-.6,1.16,1.16,0,0,0-.18-.68.54.54,0,0,0-.47-.26,1.47,1.47,0,0,0-1.11.77V178l.32-.27a2.43,2.43,0,0,1,.29-.19,1.9,1.9,0,0,1,.38-.17,1.57,1.57,0,0,1,.49-.07,1.29,1.29,0,0,1,.76.23,1.46,1.46,0,0,1,.54.65,2.41,2.41,0,0,1,.2,1,3.1,3.1,0,0,1-.09.76,3,3,0,0,1-.19.56c-.06.15-.15.32-.25.53a11.21,11.21,0,0,1-.61,1.08h1.48Z" style="fill: #fff"/>
    </g>
    <g>
      <path d="M88.15,201.85a2.74,2.74,0,0,1-.12.81,2.27,2.27,0,0,1-.36.71,1.71,1.71,0,0,1-.56.48,1.48,1.48,0,0,1-.72.18,1.46,1.46,0,0,1-1-.34,2,2,0,0,1-.62-.88,3.35,3.35,0,0,1-.21-1.19,4.54,4.54,0,0,1,.13-1,5.78,5.78,0,0,1,.37-1,6,6,0,0,1,.58-.95,5.79,5.79,0,0,1,.74-.84l1.13.49-.47.57c-.13.16-.25.34-.37.52a4.48,4.48,0,0,0-.32.56.85.85,0,0,1,.3,0,1.24,1.24,0,0,1,.74.25,1.61,1.61,0,0,1,.54.7A2.61,2.61,0,0,1,88.15,201.85Zm-1.18,0a.9.9,0,0,0-.18-.62.52.52,0,0,0-.41-.2.49.49,0,0,0-.46.26,1.15,1.15,0,0,0-.15.56,1.08,1.08,0,0,0,.17.6.49.49,0,0,0,.41.24.46.46,0,0,0,.35-.13.79.79,0,0,0,.2-.33A1.33,1.33,0,0,0,87,201.82Z"/>
      <path d="M91.87,202.64h-.54V204H90.11v-1.31H88.25v-1.16l2.1-3.62h1v3.73h.54Zm-1.76-1v-2l-1.13,2Z"/>
    </g>
    <path d="M130.46,202.31a1.81,1.81,0,0,1-.07.49,1.49,1.49,0,0,1-.26.56,1.42,1.42,0,0,1-.54.48,1.93,1.93,0,0,1-.92.19,1.86,1.86,0,0,1-.91-.19,1.37,1.37,0,0,1-.55-.48,1.61,1.61,0,0,1-.26-.55,2.23,2.23,0,0,1,0-.5,2,2,0,0,1,.19-.87,1.52,1.52,0,0,1,.54-.63,1.65,1.65,0,0,1-.43-.53,1.78,1.78,0,0,1-.15-.78,2.22,2.22,0,0,1,.08-.55,1.89,1.89,0,0,1,.28-.57,1.34,1.34,0,0,1,.5-.44,1.64,1.64,0,0,1,.76-.16,1.68,1.68,0,0,1,.79.16,1.52,1.52,0,0,1,.5.44,1.61,1.61,0,0,1,.27.56,2.2,2.2,0,0,1,.07.56,1.88,1.88,0,0,1-.14.78,1.94,1.94,0,0,1-.44.53,1.56,1.56,0,0,1,.39.38,2.1,2.1,0,0,1,.35,1.12Zm-1.18-.16a1.22,1.22,0,0,0-.09-.49.73.73,0,0,0-.23-.3.5.5,0,0,0-.29-.11.52.52,0,0,0-.41.24,1.28,1.28,0,0,0,0,1.34.53.53,0,0,0,.42.23.51.51,0,0,0,.42-.25A1.12,1.12,0,0,0,129.28,202.15Zm-.13-2.53a1.46,1.46,0,0,0-.11-.55.37.37,0,0,0-.35-.27.39.39,0,0,0-.37.26,1.28,1.28,0,0,0-.12.56,1.08,1.08,0,0,0,.15.59.38.38,0,0,0,.32.22.41.41,0,0,0,.34-.22A1.17,1.17,0,0,0,129.15,199.62Z"/>
    <line x1="88.54" y1="196.41" x2="88.54" y2="190.93" style="fill: none;stroke: #000"/>
    <line x1="88.54" y1="205.68" x2="88.54" y2="211.31" style="fill: none;stroke: #000"/>
    <line x1="128.56" y1="196.41" x2="128.56" y2="190.93" style="fill: none;stroke: #000"/>
    <line x1="128.56" y1="205.68" x2="128.56" y2="211.31" style="fill: none;stroke: #000"/>
    <path d="M128.8,191.64" style="fill: none;stroke: #fff;stroke-width: 1.0352100000000002px"/>
    <g>
      <path d="M95.47,145.74c-6.15,0-11.16-5.51-11.16-12.29s5-12.3,11.16-12.3h26.66c6.15,0,11.15,5.51,11.15,12.3s-5,12.29-11.15,12.29Z" style="fill: #ec1c24"/>
      <path d="M122.13,121.64c5.89,0,10.66,5.29,10.66,11.81s-4.77,11.8-10.66,11.8H95.47c-5.89,0-10.66-5.28-10.66-11.8s4.77-11.81,10.66-11.81h26.66m0-1H95.47c-6.43,0-11.65,5.73-11.65,12.79S89,146.24,95.47,146.24h26.66c6.42,0,11.64-5.74,11.64-12.79s-5.22-12.79-11.64-12.79Z"/>
    </g>
    <g>
      <path d="M95.47,105.65c-6.16,0-11.16-5.52-11.16-12.31S89.31,81,95.47,81h26.66c6.15,0,11.16,5.52,11.16,12.3s-5,12.31-11.16,12.31Z" style="fill: #ec1c24"/>
      <path d="M122.13,81.54c5.89,0,10.66,5.28,10.66,11.8s-4.77,11.81-10.66,11.81H95.47c-5.89,0-10.66-5.29-10.66-11.81s4.77-11.8,10.66-11.8h26.66m0-1H95.47c-6.43,0-11.66,5.74-11.66,12.8S89,106.15,95.47,106.15h26.66c6.43,0,11.66-5.75,11.66-12.81s-5.23-12.8-11.66-12.8Z"/>
    </g>
    <g>
      <g>
        <path d="M94.4,154.83l-.25.12-.21.09-.28.1-.62.15a4.65,4.65,0,0,1-.66.05,2.62,2.62,0,0,1-1.29-.34,2.42,2.42,0,0,1-.94-1.05,3.87,3.87,0,0,1-.36-1.75,4.47,4.47,0,0,1,.19-1.31,2.45,2.45,0,0,1,1.18-1.52,2.15,2.15,0,0,1,.62-.23,3.55,3.55,0,0,1,.67-.06,3.11,3.11,0,0,1,1,.13c.26.08.55.18.86.31V151a3.75,3.75,0,0,0-.66-.4,2,2,0,0,0-.86-.16,1.41,1.41,0,0,0-1,.3,1.55,1.55,0,0,0-.5.72,2.38,2.38,0,0,0-.14.81,2.18,2.18,0,0,0,.16.85,1.43,1.43,0,0,0,.49.62,1.28,1.28,0,0,0,.79.24,2,2,0,0,0,.56-.1v-.71h-.62V151.9H94.4Z"/>
        <path d="M98.5,155a4.7,4.7,0,0,1-.48.22,1.44,1.44,0,0,1-.53.09.5.5,0,0,1-.41-.14.91.91,0,0,1-.17-.34,1.7,1.7,0,0,1-.42.34,1.22,1.22,0,0,1-.61.14,1,1,0,0,1-.6-.17.89.89,0,0,1-.31-.43,1.6,1.6,0,0,1-.09-.53,1.4,1.4,0,0,1,.15-.68,1.36,1.36,0,0,1,.42-.44,4.08,4.08,0,0,1,.7-.36l.38-.16.19-.08.13-.08a1.15,1.15,0,0,0-.1-.51.44.44,0,0,0-.43-.19,1.26,1.26,0,0,0-.72.23,2.61,2.61,0,0,0-.61.59v-1.21a2.26,2.26,0,0,1,.48-.35,2.62,2.62,0,0,1,.53-.2,2.76,2.76,0,0,1,.57-.06,1.48,1.48,0,0,1,1.1.37,1.45,1.45,0,0,1,.36,1v1.72a1.52,1.52,0,0,0,0,.37c0,.08.06.12.13.12a.59.59,0,0,0,.3-.13Zm-1.65-.85v-1.06a3.14,3.14,0,0,0-.62.41A.64.64,0,0,0,96,154a.58.58,0,0,0,.09.35.28.28,0,0,0,.23.11.34.34,0,0,0,.24-.09Z"/>
        <path d="M101.25,155a3.15,3.15,0,0,1-.51.23,2.08,2.08,0,0,1-.62.11c-.86,0-1.28-.56-1.28-1.67v-1.79H98.3v-.27l1.59-2.17H100v1.34h1.14v1.1H100v1.44a2.17,2.17,0,0,0,0,.4.43.43,0,0,0,.13.26.44.44,0,0,0,.32.1,1.41,1.41,0,0,0,.75-.32Z"/>
        <path d="M104.94,153.4h-2.36a1.11,1.11,0,0,0,.34.67.87.87,0,0,0,.61.26,2.54,2.54,0,0,0,1.32-.45v1a3.07,3.07,0,0,1-.63.33,2.5,2.5,0,0,1-.94.15,1.82,1.82,0,0,1-1.06-.31,1.89,1.89,0,0,1-.65-.84,3.19,3.19,0,0,1-.21-1.19,3.14,3.14,0,0,1,.21-1.18,1.84,1.84,0,0,1,.65-.82,1.81,1.81,0,0,1,1.06-.29,1.47,1.47,0,0,1,.79.23,1.69,1.69,0,0,1,.62.77,3.21,3.21,0,0,1,.25,1.38Zm-1.11-.78a1.38,1.38,0,0,0-.16-.69.51.51,0,0,0-.46-.25.54.54,0,0,0-.48.26,1.1,1.1,0,0,0-.19.68Z"/>
      </g>
      <g>
        <path d="M119.31,150.65h-1.67v4.61h-1.38v-4.61h-1.67v-1.48h4.72Z"/>
        <path d="M122.6,151l-.44,1.59a.72.72,0,0,0-.54-.34.54.54,0,0,0-.44.23,2.38,2.38,0,0,0-.35.83v1.93h-1.18v-4.48h1.18v1.08a2.63,2.63,0,0,1,.4-.78.83.83,0,0,1,.66-.38.72.72,0,0,1,.35.08Z"/>
        <path d="M124,155.26h-1.19v-4.48H124Zm-.1-5.51a.79.79,0,0,1-.14.47.44.44,0,0,1-.36.19.46.46,0,0,1-.25-.08.76.76,0,0,1-.18-.24.93.93,0,0,1-.06-.34.75.75,0,0,1,.14-.47.42.42,0,0,1,.71,0A.82.82,0,0,1,123.86,149.75Z"/>
        <path d="M127.88,151.74h-.58a1.33,1.33,0,0,1,.31.88,1.6,1.6,0,0,1-.09.53,1.43,1.43,0,0,1-.26.45,1.26,1.26,0,0,1-.42.33,1.59,1.59,0,0,1-.57.15c-.27,0-.41.11-.41.29a.2.2,0,0,0,.06.16.4.4,0,0,0,.16.07l.39.05a3.39,3.39,0,0,1,.57.13,1.1,1.1,0,0,1,.49.37,1.23,1.23,0,0,1,.22.8,1.47,1.47,0,0,1-.17.74,1.15,1.15,0,0,1-.54.5,2.4,2.4,0,0,1-1,.18,2.2,2.2,0,0,1-1.31-.32,1,1,0,0,1-.42-.86,1.06,1.06,0,0,1,0-.33.87.87,0,0,1,.23-.37,1,1,0,0,1,.51-.23.62.62,0,0,1-.2-.22.76.76,0,0,1-.09-.35,1,1,0,0,1,.12-.46.63.63,0,0,1,.39-.3,1.31,1.31,0,0,1-.64-.49,1.51,1.51,0,0,1-.28-.95,2.26,2.26,0,0,1,.13-.77,1.33,1.33,0,0,1,.35-.53,1.44,1.44,0,0,1,.52-.31,2.27,2.27,0,0,1,.65-.1h1.84Zm-1.07,4.35a.37.37,0,0,0-.24-.38,1.31,1.31,0,0,0-.48-.08,1.14,1.14,0,0,0-.6.11.41.41,0,0,0-.18.37c0,.34.25.5.76.5a1.08,1.08,0,0,0,.54-.12A.45.45,0,0,0,126.81,156.09Zm-.24-3.6a.85.85,0,0,0-.17-.54.49.49,0,0,0-.82,0,1,1,0,0,0-.16.52,1,1,0,0,0,.07.35.65.65,0,0,0,.19.26.45.45,0,0,0,.3.1.51.51,0,0,0,.42-.21A.79.79,0,0,0,126.57,152.49Z"/>
      </g>
    </g>
    <g>
      <path d="M96.71,113.76a4,4,0,0,1-.7.32,4.69,4.69,0,0,1-.72.17,6,6,0,0,1-.75,0,3.47,3.47,0,0,1-1.28-.22,2.75,2.75,0,0,1-1-.65,2.86,2.86,0,0,1-.62-1,3.62,3.62,0,0,1-.21-1.26,3.5,3.5,0,0,1,.25-1.38,2.65,2.65,0,0,1,.68-1,3,3,0,0,1,1-.58,3.85,3.85,0,0,1,1.19-.18,5.8,5.8,0,0,1,2.11.46v1.61a6,6,0,0,0-.8-.46,2.13,2.13,0,0,0-.94-.19,1.94,1.94,0,0,0-.89.21,1.69,1.69,0,0,0-.67.6,1.65,1.65,0,0,0-.25.92,1.65,1.65,0,0,0,.83,1.45,1.79,1.79,0,0,0,.89.23,2.68,2.68,0,0,0,.76-.11,3.12,3.12,0,0,0,.6-.24,5.7,5.7,0,0,0,.5-.31Z"/>
      <path d="M101.71,112a2.7,2.7,0,0,1-.26,1.19,2,2,0,0,1-.79.83,2.45,2.45,0,0,1-1.26.3,2.51,2.51,0,0,1-1.27-.3,2,2,0,0,1-.78-.83,2.87,2.87,0,0,1-.11-2.11,2,2,0,0,1,.43-.73,2,2,0,0,1,.73-.49,2.59,2.59,0,0,1,1-.17,2.79,2.79,0,0,1,1,.17,2,2,0,0,1,.73.49,2,2,0,0,1,.43.73A2.65,2.65,0,0,1,101.71,112Zm-1.5,0a1.41,1.41,0,0,0-.21-.83.74.74,0,0,0-1.2,0,1.41,1.41,0,0,0-.21.83,1.44,1.44,0,0,0,.21.83.67.67,0,0,0,.6.31.69.69,0,0,0,.6-.3A1.49,1.49,0,0,0,100.21,112Z"/>
      <path d="M106.36,114.22h-1.42v-.64a2.22,2.22,0,0,1-.63.54,1.69,1.69,0,0,1-.8.18,1.16,1.16,0,0,1-1.18-.59,3.21,3.21,0,0,1-.27-1.34v-2.62h1.43v2.41a1.56,1.56,0,0,0,.11.64.44.44,0,0,0,.47.28.63.63,0,0,0,.49-.2,2.81,2.81,0,0,0,.38-.51v-2.62h1.42Z"/>
      <path d="M111.25,114.22h-1.42v-2.41a1.84,1.84,0,0,0-.11-.65.46.46,0,0,0-.48-.27.58.58,0,0,0-.3.07.88.88,0,0,0-.24.19,1.74,1.74,0,0,0-.18.22l-.14.22v2.63H107v-4.47h1.43v.64a1.87,1.87,0,0,1,.67-.56,1.68,1.68,0,0,1,.75-.16c1,0,1.45.64,1.45,1.92Z"/>
      <path d="M115,114a3.29,3.29,0,0,1-1.36.34c-1,0-1.54-.56-1.54-1.67v-1.79h-.64v-.27l1.91-2.16h.16v1.34h1.36v1.09h-1.36v1.44a2.17,2.17,0,0,0,0,.4.46.46,0,0,0,.15.26.63.63,0,0,0,.39.1,2,2,0,0,0,.9-.31Z"/>
      <path d="M116.76,114.22h-1.43v-4.47h1.43Zm-.12-5.51a.66.66,0,0,1-.18.47.55.55,0,0,1-.42.2.53.53,0,0,1-.3-.09.73.73,0,0,1-.22-.24.74.74,0,0,1-.08-.34.67.67,0,0,1,.18-.47.52.52,0,0,1,.42-.19.54.54,0,0,1,.42.19A.67.67,0,0,1,116.64,108.71Z"/>
      <path d="M121.71,114.22h-1.42v-2.41a1.84,1.84,0,0,0-.11-.65.46.46,0,0,0-.48-.27.6.6,0,0,0-.3.07.88.88,0,0,0-.24.19,1.74,1.74,0,0,0-.18.22l-.14.22v2.63h-1.43v-4.47h1.43v.64a2,2,0,0,1,.67-.56,1.73,1.73,0,0,1,.76-.16q1.44,0,1.44,1.92Z"/>
      <path d="M126.29,110.7h-.7a1.16,1.16,0,0,1,.37.88,1.35,1.35,0,0,1-.1.53,1.44,1.44,0,0,1-.31.46,1.71,1.71,0,0,1-.5.32,2.34,2.34,0,0,1-.69.15c-.33,0-.49.11-.49.3a.18.18,0,0,0,.06.15.42.42,0,0,0,.2.07l.46.06a3.54,3.54,0,0,1,.69.12,1.36,1.36,0,0,1,.59.37,1.12,1.12,0,0,1,.27.8,1.39,1.39,0,0,1-.2.74,1.32,1.32,0,0,1-.66.5,3.39,3.39,0,0,1-1.21.18,3,3,0,0,1-1.58-.32,1,1,0,0,1-.5-.85.94.94,0,0,1,.07-.34.8.8,0,0,1,.27-.36,1.22,1.22,0,0,1,.62-.24.52.52,0,0,1-.25-.22.64.64,0,0,1-.1-.35.91.91,0,0,1,.14-.46.7.7,0,0,1,.47-.29,1.72,1.72,0,0,1-.78-.5,1.35,1.35,0,0,1-.33-.94,1.82,1.82,0,0,1,.16-.77,1.41,1.41,0,0,1,.42-.54,1.9,1.9,0,0,1,.62-.31,3.21,3.21,0,0,1,.78-.09h2.21ZM125,115.05a.37.37,0,0,0-.28-.38,2.25,2.25,0,0,0-.58-.08,1.61,1.61,0,0,0-.72.12.39.39,0,0,0-.22.37c0,.33.31.5.91.5a1.44,1.44,0,0,0,.65-.13A.43.43,0,0,0,125,115.05Zm-.28-3.59a.74.74,0,0,0-.21-.55.66.66,0,0,0-.46-.2.63.63,0,0,0-.52.24.9.9,0,0,0-.19.52.78.78,0,0,0,.08.35.75.75,0,0,0,.23.27.69.69,0,0,0,.36.1.7.7,0,0,0,.51-.22A.74.74,0,0,0,124.72,111.46Z"/>
    </g>
    <g>
      <path d="M119,39.88h-1.78l-.43-1.08a4.34,4.34,0,0,0-.43-.87.92.92,0,0,0-.37-.35,1.19,1.19,0,0,0-.46-.08h-.19v2.38h-1.65V33.79h2.81a1.92,1.92,0,0,1,1.12.3,1.77,1.77,0,0,1,.62.75,2.06,2.06,0,0,1,.2.84,1.87,1.87,0,0,1-.16.78,1.48,1.48,0,0,1-.34.46,3.13,3.13,0,0,1-.4.28,1.88,1.88,0,0,1,.44.4,5.61,5.61,0,0,1,.46.95Zm-2.25-4.17a.65.65,0,0,0-.25-.59,1.49,1.49,0,0,0-.81-.16h-.35v1.46h.36a1.76,1.76,0,0,0,.83-.14A.64.64,0,0,0,116.74,35.71Z"/>
      <path d="M123.31,38h-2.83a1.08,1.08,0,0,0,.4.67,1.17,1.17,0,0,0,.74.26,3.51,3.51,0,0,0,1.59-.45v1a4.21,4.21,0,0,1-.76.33,3.59,3.59,0,0,1-1.13.15,2.51,2.51,0,0,1-1.27-.31,1.92,1.92,0,0,1-.78-.84,2.7,2.7,0,0,1-.26-1.19,2.66,2.66,0,0,1,.26-1.18,1.87,1.87,0,0,1,.78-.82,2.51,2.51,0,0,1,1.27-.29,2,2,0,0,1,1,.23,1.86,1.86,0,0,1,.75.77,2.91,2.91,0,0,1,.29,1.38ZM122,37.24a1.11,1.11,0,0,0-.19-.69.64.64,0,0,0-.55-.25.68.68,0,0,0-.57.26,1,1,0,0,0-.22.68Z"/>
      <path d="M126.84,38.57a1.31,1.31,0,0,1-.41,1,1.67,1.67,0,0,1-1.2.39,3.2,3.2,0,0,1-.8-.09,6.89,6.89,0,0,1-.76-.26V38.48a4.21,4.21,0,0,0,.63.35,1.37,1.37,0,0,0,.58.12c.35,0,.53-.11.53-.33a.25.25,0,0,0-.08-.19.94.94,0,0,0-.27-.19,3.9,3.9,0,0,0-.51-.26,2,2,0,0,1-.67-.52,1.22,1.22,0,0,1-.28-.8,1.28,1.28,0,0,1,.19-.64,1.41,1.41,0,0,1,.55-.5,1.93,1.93,0,0,1,.9-.19h.32a3.59,3.59,0,0,1,.5.11,2,2,0,0,1,.57.24v1.09l-.22-.14a1.83,1.83,0,0,0-.22-.13,1.5,1.5,0,0,0-.34-.12,1.32,1.32,0,0,0-.39-.06.45.45,0,0,0-.34.11.32.32,0,0,0-.09.21.26.26,0,0,0,.1.2,1.65,1.65,0,0,0,.42.24,3.51,3.51,0,0,1,.76.41,1.25,1.25,0,0,1,.4.47A1.26,1.26,0,0,1,126.84,38.57Z"/>
      <path d="M131.41,38h-2.83a1.08,1.08,0,0,0,.4.67,1.17,1.17,0,0,0,.74.26,3.51,3.51,0,0,0,1.59-.45v1a4.21,4.21,0,0,1-.76.33,3.55,3.55,0,0,1-1.13.15,2.51,2.51,0,0,1-1.27-.31,2,2,0,0,1-.78-.84,2.7,2.7,0,0,1-.26-1.19,2.66,2.66,0,0,1,.26-1.18,1.93,1.93,0,0,1,.78-.82,2.51,2.51,0,0,1,1.27-.29,2,2,0,0,1,1,.23,1.86,1.86,0,0,1,.75.77,2.91,2.91,0,0,1,.29,1.38Zm-1.34-.78a1.11,1.11,0,0,0-.19-.69.63.63,0,0,0-.55-.25.68.68,0,0,0-.57.26,1,1,0,0,0-.22.68Z"/>
      <path d="M135,39.62a3.3,3.3,0,0,1-.61.23,2.89,2.89,0,0,1-.74.11c-1,0-1.54-.56-1.54-1.67V36.5h-.65v-.27l1.91-2.17h.17V35.4h1.36v1.1H133.5v1.44c0,.16,0,.3,0,.4a.43.43,0,0,0,.16.26.63.63,0,0,0,.39.1,2,2,0,0,0,.89-.32Z"/>
    </g>
    <g>
      <path d="M85.39,39.88H83.61l-.43-1.08a4.34,4.34,0,0,0-.43-.87.92.92,0,0,0-.37-.35,1.19,1.19,0,0,0-.46-.08h-.19v2.38H80.08V33.79h2.81a1.92,1.92,0,0,1,1.12.3,1.77,1.77,0,0,1,.62.75,2.06,2.06,0,0,1,.2.84,1.87,1.87,0,0,1-.16.78,1.48,1.48,0,0,1-.34.46,3.13,3.13,0,0,1-.4.28,1.88,1.88,0,0,1,.44.4,5.43,5.43,0,0,1,.46,1Zm-2.25-4.17a.65.65,0,0,0-.25-.59,1.49,1.49,0,0,0-.81-.16h-.35v1.46h.36a1.76,1.76,0,0,0,.83-.14A.64.64,0,0,0,83.14,35.71Z"/>
      <path d="M90,37.64a2.7,2.7,0,0,1-.26,1.19,2,2,0,0,1-.78.82,2.76,2.76,0,0,1-2.54,0,1.87,1.87,0,0,1-.78-.82,2.7,2.7,0,0,1-.26-1.19,2.65,2.65,0,0,1,.15-.92A1.88,1.88,0,0,1,86,36a1.74,1.74,0,0,1,.72-.49,3,3,0,0,1,2,0,1.9,1.9,0,0,1,.73.48,2.24,2.24,0,0,1,.43.73A2.75,2.75,0,0,1,90,37.64Zm-1.5,0a1.45,1.45,0,0,0-.21-.84.75.75,0,0,0-1.2,0,1.77,1.77,0,0,0,0,1.67.74.74,0,0,0,1.2,0A1.44,1.44,0,0,0,88.53,37.64Z"/>
      <path d="M93.62,39.62a3.61,3.61,0,0,1-.61.23,2.9,2.9,0,0,1-.75.11c-1,0-1.54-.56-1.54-1.67V36.5h-.64v-.27L92,34.06h.16V35.4h1.36v1.1H92.15v1.44a2.17,2.17,0,0,0,0,.4.43.43,0,0,0,.16.26.59.59,0,0,0,.39.1,2,2,0,0,0,.89-.32Z"/>
      <path d="M98.1,39.65a4.79,4.79,0,0,1-.58.22,2,2,0,0,1-.64.09.7.7,0,0,1-.49-.14.83.83,0,0,1-.2-.34,2,2,0,0,1-.51.34A1.66,1.66,0,0,1,95,40a1.36,1.36,0,0,1-.71-.17.92.92,0,0,1-.38-.43,1.4,1.4,0,0,1-.11-.53,1.14,1.14,0,0,1,.19-.68,1.34,1.34,0,0,1,.5-.44,5,5,0,0,1,.84-.36l.45-.16A2.23,2.23,0,0,0,96,37.1l.15-.07a.92.92,0,0,0-.11-.51c-.08-.13-.25-.19-.52-.19a1.7,1.7,0,0,0-.86.23,3.15,3.15,0,0,0-.74.59V35.94a2.63,2.63,0,0,1,.58-.35,3.4,3.4,0,0,1,.64-.2,3.91,3.91,0,0,1,.68-.06,2,2,0,0,1,1.32.37,1.31,1.31,0,0,1,.44,1v1.72a1.14,1.14,0,0,0,0,.37.16.16,0,0,0,.15.12.82.82,0,0,0,.37-.13Zm-2-.85V37.74a3.69,3.69,0,0,0-.73.41.59.59,0,0,0-.24.49.48.48,0,0,0,.12.35.4.4,0,0,0,.27.11.55.55,0,0,0,.29-.09A1.94,1.94,0,0,0,96.11,38.8Z"/>
      <path d="M101.4,39.62a3.77,3.77,0,0,1-.62.23A2.82,2.82,0,0,1,100,40c-1,0-1.54-.56-1.54-1.67V36.5h-.65v-.27l1.92-2.17h.16V35.4h1.36v1.1H99.93v1.44a2.17,2.17,0,0,0,0,.4.41.41,0,0,0,.15.26.63.63,0,0,0,.39.1,2,2,0,0,0,.9-.32Z"/>
      <path d="M105.83,38H103a1.1,1.1,0,0,0,.41.67,1.14,1.14,0,0,0,.73.26,3.51,3.51,0,0,0,1.59-.45v1a4.42,4.42,0,0,1-.75.33,3.66,3.66,0,0,1-1.14.15,2.48,2.48,0,0,1-1.26-.31,1.92,1.92,0,0,1-.78-.84,2.57,2.57,0,0,1-.26-1.19,2.53,2.53,0,0,1,.26-1.18,1.87,1.87,0,0,1,.78-.82,2.47,2.47,0,0,1,1.26-.29,2,2,0,0,1,1,.23,1.86,1.86,0,0,1,.75.77,2.79,2.79,0,0,1,.3,1.38Zm-1.34-.78a1.18,1.18,0,0,0-.19-.69.66.66,0,0,0-.56-.25.7.7,0,0,0-.57.26,1,1,0,0,0-.22.68Z"/>
    </g>
    <g>
      <polygon points="89.22 94.03 94.5 94.03 91.86 96.67 89.22 94.03"/>
      <rect x="90.95" y="90.53" width="1.8" height="3.67"/>
    </g>
    <g>
      <polygon points="128.96 93.02 123.68 93.02 126.32 90.38 128.96 93.02"/>
      <rect x="125.43" y="92.88" width="1.8" height="3.67"/>
    </g>
    <g>
      <path d="M50.39,344.46h-2l-.49-1.33a5.21,5.21,0,0,0-.48-1.06,1.22,1.22,0,0,0-.41-.43,1.33,1.33,0,0,0-.53-.09h-.21v2.91H44.41V337h3.17a2,2,0,0,1,1.26.38,2.13,2.13,0,0,1,.7.91,2.65,2.65,0,0,1,.22,1,2.24,2.24,0,0,1-.18.95,1.81,1.81,0,0,1-.38.57,5.3,5.3,0,0,1-.45.34,1.79,1.79,0,0,1,.49.5,6.81,6.81,0,0,1,.53,1.16Zm-2.53-5.1a.83.83,0,0,0-.28-.72,1.63,1.63,0,0,0-.91-.2h-.4v1.79h.4a1.73,1.73,0,0,0,.94-.18A.79.79,0,0,0,47.86,339.36Z"/>
      <path d="M57.85,340.73a4.48,4.48,0,0,1-.4,1.91,3.18,3.18,0,0,1-1.19,1.4,3.43,3.43,0,0,1-1.92.51A3.38,3.38,0,0,1,52.4,344a3.19,3.19,0,0,1-1.18-1.41,4.82,4.82,0,0,1,0-3.75,3.3,3.3,0,0,1,1.18-1.41,3.45,3.45,0,0,1,1.94-.53,3.73,3.73,0,0,1,1.53.3A3.2,3.2,0,0,1,57,338a3.69,3.69,0,0,1,.66,1.22A4.8,4.8,0,0,1,57.85,340.73Zm-1.9,0a2.66,2.66,0,0,0-.1-.77,1.71,1.71,0,0,0-.31-.6A1.54,1.54,0,0,0,55,339a1.67,1.67,0,0,0-.69-.14,1.42,1.42,0,0,0-1.17.53,2.43,2.43,0,0,0,0,2.76,1.43,1.43,0,0,0,1.17.53,1.57,1.57,0,0,0,.88-.24,1.52,1.52,0,0,0,.54-.68A2.4,2.4,0,0,0,56,340.73Z"/>
      <path d="M64.41,338.82H62.15v5.64H60.29v-5.64H58V337h6.38Z"/>
      <path d="M71.5,344.46H69.59l-.5-1.51H66.41l-.52,1.51H64L66.72,337h2.06Zm-2.84-2.81-.9-2.72-.92,2.72Z"/>
      <path d="M77.33,338.82H75.07v5.64H73.21v-5.64H70.94V337h6.39Z"/>
      <path d="M80.29,344.46H78.43V337h1.86Z"/>
      <path d="M88.56,344.46H86.9l-3.2-4.15v4.15H81.85V337h1.66l3.19,4.13V337h1.86Z"/>
      <path d="M95.94,343.93l-.34.15-.28.11-.38.12a6.09,6.09,0,0,1-1.73.24,3.78,3.78,0,0,1-1.74-.41,3.12,3.12,0,0,1-1.28-1.29,4.36,4.36,0,0,1-.48-2.13,5.52,5.52,0,0,1,.25-1.61,2.94,2.94,0,0,1,.76-1.26,3.09,3.09,0,0,1,1.69-.87,5,5,0,0,1,.9-.07,5.13,5.13,0,0,1,1.35.15c.35.1.74.23,1.16.39v1.76a4.84,4.84,0,0,0-.89-.5,3,3,0,0,0-1.16-.2,2.15,2.15,0,0,0-1.3.37,2,2,0,0,0-.67.88,3,3,0,0,0-.19,1,2.58,2.58,0,0,0,.22,1,1.8,1.8,0,0,0,.66.76,1.92,1.92,0,0,0,1.07.29,3,3,0,0,0,.75-.11v-.88h-.83v-1.5h2.46Z"/>
      <path d="M37.38,352.9a3.74,3.74,0,0,1-.78.38,4,4,0,0,1-.81.21,5.87,5.87,0,0,1-.85.06,3.66,3.66,0,0,1-1.44-.27,3,3,0,0,1-1.11-.79,3.47,3.47,0,0,1-.71-1.22,5,5,0,0,1-.23-1.54,4.87,4.87,0,0,1,.27-1.69,3.37,3.37,0,0,1,.78-1.2,3.1,3.1,0,0,1,1.13-.7,3.74,3.74,0,0,1,1.34-.23,6.27,6.27,0,0,1,2.38.56v2a5.6,5.6,0,0,0-.9-.57,2.21,2.21,0,0,0-1.06-.23,1.94,1.94,0,0,0-1,.26,1.9,1.9,0,0,0-.76.73,2.14,2.14,0,0,0-.28,1.12,2.09,2.09,0,0,0,.25,1,1.79,1.79,0,0,0,.69.75,1.88,1.88,0,0,0,1,.28,2.91,2.91,0,0,0,.85-.13,3.63,3.63,0,0,0,.68-.3,4.27,4.27,0,0,0,.56-.38Z"/>
      <path d="M43.33,353.46h-4.7V346H40.5v5.66h2.83Z"/>
      <path d="M50.5,349.73a4.48,4.48,0,0,1-.4,1.91,3.18,3.18,0,0,1-1.19,1.4,3.43,3.43,0,0,1-1.92.51,3.38,3.38,0,0,1-1.94-.54,3.19,3.19,0,0,1-1.18-1.41,4.82,4.82,0,0,1,0-3.75,3.3,3.3,0,0,1,1.18-1.41,3.45,3.45,0,0,1,1.94-.53,3.73,3.73,0,0,1,1.53.3,3.2,3.2,0,0,1,1.1.83,3.69,3.69,0,0,1,.66,1.22A4.8,4.8,0,0,1,50.5,349.73Zm-1.9,0a2.66,2.66,0,0,0-.1-.77,1.71,1.71,0,0,0-.31-.6,1.54,1.54,0,0,0-.51-.4,1.67,1.67,0,0,0-.69-.14,1.42,1.42,0,0,0-1.17.53,2.43,2.43,0,0,0,0,2.76,1.43,1.43,0,0,0,1.17.53,1.57,1.57,0,0,0,.88-.24,1.61,1.61,0,0,0,.55-.68A2.57,2.57,0,0,0,48.6,349.73Z"/>
      <path d="M57.19,352.9a3.51,3.51,0,0,1-.78.38,4,4,0,0,1-.81.21,5.77,5.77,0,0,1-.85.06,3.66,3.66,0,0,1-1.44-.27,3,3,0,0,1-1.11-.79,3.47,3.47,0,0,1-.71-1.22,5,5,0,0,1-.23-1.54,4.64,4.64,0,0,1,.28-1.69,3.22,3.22,0,0,1,.77-1.2,3.1,3.1,0,0,1,1.13-.7,3.78,3.78,0,0,1,1.34-.23,6.36,6.36,0,0,1,2.39.56v2a6.15,6.15,0,0,0-.91-.57,2.21,2.21,0,0,0-1.06-.23,1.94,1.94,0,0,0-1,.26,1.9,1.9,0,0,0-.76.73,2.14,2.14,0,0,0-.28,1.12,2.09,2.09,0,0,0,.25,1,1.85,1.85,0,0,0,.69.75,1.91,1.91,0,0,0,1,.28,2.91,2.91,0,0,0,.85-.13,3.36,3.36,0,0,0,.68-.3,4.27,4.27,0,0,0,.56-.38Z"/>
      <path d="M65,353.46H62.67L60.31,350v3.49H58.45V346h1.86v3.33L62.55,346h2l-2.3,3.49Z"/>
      <path d="M74.82,349.87a4.27,4.27,0,0,1-.34,1.83,4,4,0,0,1-.82,1.13,2.59,2.59,0,0,1-1.86.63H68.47V346H71a7,7,0,0,1,1,.07,3.79,3.79,0,0,1,.74.21,2.26,2.26,0,0,1,.56.29,3.71,3.71,0,0,1,.42.35,3.47,3.47,0,0,1,.55.74,3.78,3.78,0,0,1,.38,1A5.24,5.24,0,0,1,74.82,349.87Zm-1.89-.1a2.85,2.85,0,0,0-.29-1.41,1.45,1.45,0,0,0-.69-.68,2,2,0,0,0-.83-.18h-.79v4.41h.79a2,2,0,0,0,1.27-.42A2.11,2.11,0,0,0,72.93,349.77Z"/>
      <path d="M77.84,353.46H76V346h1.86Z"/>
      <path d="M85.45,346l-2.79,7.54H81.43L78.7,346h1.94l1.41,4.3L83.5,346Z"/>
      <path d="M88.17,353.46H86.3V346h1.87Z"/>
      <path d="M96.08,349.87a4.11,4.11,0,0,1-.35,1.83,3.81,3.81,0,0,1-.81,1.13,2.59,2.59,0,0,1-1.86.63H89.73V346H92.3a7,7,0,0,1,1,.07,3.79,3.79,0,0,1,.74.21,2.26,2.26,0,0,1,.56.29,3.71,3.71,0,0,1,.42.35,3.47,3.47,0,0,1,.55.74,3.78,3.78,0,0,1,.38,1A5.24,5.24,0,0,1,96.08,349.87Zm-1.89-.1a2.85,2.85,0,0,0-.29-1.41,1.45,1.45,0,0,0-.69-.68,2,2,0,0,0-.83-.18h-.79v4.41h.79a2,2,0,0,0,1.27-.42A2.11,2.11,0,0,0,94.19,349.77Z"/>
      <path d="M101.89,353.46H97.23V346h4.58v1.49H99.09v1.37h2.6v1.5h-2.6V352h2.8Z"/>
      <path d="M109.12,353.46h-2l-.49-1.33a6.61,6.61,0,0,0-.48-1.06,1.15,1.15,0,0,0-.42-.43,1.28,1.28,0,0,0-.52-.09H105v2.91h-1.86V346h3.17a2,2,0,0,1,1.25.38,2.08,2.08,0,0,1,.71.91,2.84,2.84,0,0,1,.22,1,2.24,2.24,0,0,1-.18.95,1.81,1.81,0,0,1-.38.57,5.3,5.3,0,0,1-.45.34,1.94,1.94,0,0,1,.49.5,6.81,6.81,0,0,1,.53,1.16Zm-2.53-5.1a.86.86,0,0,0-.28-.72,1.67,1.67,0,0,0-.92-.2H105v1.79h.4a1.73,1.73,0,0,0,.94-.18A.82.82,0,0,0,106.59,348.36Z"/>
    </g>
  </g>
  <g id="components">
    <circle id="d8" cx="48.19" cy="309.24" r="11.34" style="fill: #8080ff"/>
    <circle id="LED_d8" data-name="LED d8" cx="19.98" cy="309.24" r="4.25" style="fill: #f0f"/>
    <rect id="Auto-Reset" x="103.13" y="297.83" width="11.34" height="17.01" transform="translate(415.13 197.54) rotate(90)" style="fill: #ff8080"/>
    <circle id="d7" cx="48.19" cy="277.62" r="11.34" style="fill: #8080ff"/>
    <circle id="LED_d7" data-name="LED d7" cx="19.98" cy="277.62" r="4.25" style="fill: #f0f"/>
    <rect id="Spread" x="103.13" y="258.11" width="11.34" height="17.01" transform="translate(375.41 157.81) rotate(90)" style="fill: #ff8080"/>
    <circle id="d6" cx="48.19" cy="246.01" r="11.34" style="fill: #8080ff"/>
    <circle id="LED_d6" data-name="LED d6" cx="19.98" cy="246.01" r="4.25" style="fill: #f0f"/>
    <rect id="Max_Div_2" data-name="Max Div 2" x="102.94" y="212.46" width="11.34" height="17.01" transform="translate(329.58 112.35) rotate(90)" style="fill: #ff8080"/>
    <circle id="d5" cx="48.19" cy="214.39" r="11.34" style="fill: #8080ff"/>
    <circle id="LED_d5" data-name="LED d5" cx="19.98" cy="214.39" r="4.25" style="fill: #f0f"/>
    <rect id="Max_Div_1" data-name="Max Div 1" x="102.94" y="172.74" width="11.34" height="17.01" transform="translate(289.86 72.63) rotate(90)" style="fill: #ff8080"/>
    <circle id="d4" cx="48.19" cy="182.78" r="11.34" style="fill: #8080ff"/>
    <circle id="LED_d4" data-name="LED d4" cx="19.98" cy="182.78" r="4.25" style="fill: #f0f"/>
    <circle id="d3" cx="48.19" cy="151.16" r="11.34" style="fill: #8080ff"/>
    <circle id="LED_d3" data-name="LED d3" cx="19.98" cy="151.16" r="4.25" style="fill: #f0f"/>
    <rect id="Gate_Trig" data-name="Gate Trig" x="103.13" y="124.94" width="11.34" height="17.01" transform="translate(242.24 24.65) rotate(90)" style="fill: #ff8080"/>
    <circle id="d2" cx="48.19" cy="119.54" r="11.34" style="fill: #8080ff"/>
    <circle id="LED_d2" data-name="LED d2" cx="19.98" cy="119.54" r="4.25" style="fill: #f0f"/>
    <rect id="Counting" x="103.13" y="84.84" width="11.34" height="17.01" transform="translate(202.14 -15.45) rotate(90)" style="fill: #ff8080"/>
    <circle id="d1" cx="48.19" cy="87.93" r="11.34" style="fill: #8080ff"/>
    <circle id="LED_d1" data-name="LED d1" cx="19.98" cy="87.93" r="4.25" style="fill: #f0f"/>
    <circle id="Reset" cx="123.98" cy="56.31" r="11.34" style="fill: #80ff80"/>
    <circle id="Rotate" cx="92.61" cy="56.31" r="11.34" style="fill: lime"/>
    <circle id="Clk_In" data-name="Clk In" cx="48.19" cy="56.31" r="11.34" style="fill: #80ff80"/>
    <circle id="LED_in" data-name="LED in" cx="19.98" cy="56.31" r="4.25" style="fill: #f0f"/>
    <text id="slug" transform="translate(72.55 371.47)" style="font-size: 6px;font-family: MyriadPro-Regular, Myriad Pro"><tspan style="letter-spacing: 0.0030924479166666665em">R</tspan><tspan x="3.25" y="0">CD</tspan></text>
    <text id="modulename" transform="translate(87.86 371.47)" style="font-size: 6px;font-family: MyriadPro-Regular, Myriad Pro"><tspan style="letter-spacing: 0.004069010416666667em">R</tspan><tspan x="3.25" y="0">ot</tspan><tspan x="8.53" y="0" style="letter-spacing: -0.004069010416666667em">a</tspan><tspan x="11.4" y="0">ting Clock Divider</tspan></text>
  </g>
</svg>
