<svg xmlns="http://www.w3.org/2000/svg" width="20.41mm" height="130.6mm" viewBox="0 0 57.85 370.19">
  <g id="faceplate">
    <rect x="0.13" y="0.13" width="57.6" height="364.25" style="fill: #ededed;stroke: #9d9d9e;stroke-miterlimit: 10;stroke-width: 0.25px"/>
    <path d="M44.73,261.18c0-8.08-7-14.63-15.59-14.63s-15.59,6.55-15.59,14.63v55.1h0v19.85a5.68,5.68,0,0,0,5.67,5.66H39.06a5.68,5.68,0,0,0,5.67-5.66V316.28h0Z"/>
    <g>
      <path d="M23.71,355.4a2.49,2.49,0,0,1-.29,1.21,2,2,0,0,1-.82.78,2.59,2.59,0,0,1-1.2.27l-.47,0a4.75,4.75,0,0,1-.73-.17,4.9,4.9,0,0,1-.95-.39v-1.83a6.26,6.26,0,0,0,.91.58,2.12,2.12,0,0,0,1,.23c.32,0,.52-.06.61-.19a.63.63,0,0,0,.14-.36.62.62,0,0,0-.24-.5,3.33,3.33,0,0,0-.69-.43,5.32,5.32,0,0,1-.88-.56,2.44,2.44,0,0,1-.62-.76,2.32,2.32,0,0,1-.24-1.08,2.45,2.45,0,0,1,.24-1.09,1.91,1.91,0,0,1,.74-.78A2.42,2.42,0,0,1,21.4,350a3.5,3.5,0,0,1,.94.13,3.51,3.51,0,0,1,1.11.5v1.75a5.24,5.24,0,0,0-.84-.59,2,2,0,0,0-1-.25.65.65,0,0,0-.5.16.54.54,0,0,0-.15.39.56.56,0,0,0,.15.39,3.37,3.37,0,0,0,.55.39,11.5,11.5,0,0,1,1.13.72,2.59,2.59,0,0,1,.66.75A2.09,2.09,0,0,1,23.71,355.4Z"/>
      <path d="M31.07,357.56H29l-.4-.49a2.57,2.57,0,0,1-.87.45,3.68,3.68,0,0,1-1,.14,2.12,2.12,0,0,1-1.59-.57,1.83,1.83,0,0,1-.55-1.34,1.77,1.77,0,0,1,.28-1,5.24,5.24,0,0,1,1.07-1.1,6.21,6.21,0,0,1-.38-.56,2.38,2.38,0,0,1-.22-.53,1.88,1.88,0,0,1-.07-.53,2.14,2.14,0,0,1,.24-1,1.92,1.92,0,0,1,.73-.74,2.2,2.2,0,0,1,1.11-.28,1.89,1.89,0,0,1,.84.18,1.79,1.79,0,0,1,.61.46,2.09,2.09,0,0,1,.35.59,2,2,0,0,1,.11.61,1.86,1.86,0,0,1-.32,1.06,2.6,2.6,0,0,1-.86.82l.82,1.07a4.1,4.1,0,0,0,.68-1.07h1.47a7.51,7.51,0,0,1-1.32,2.15ZM27.8,356l-1.07-1.38a1.25,1.25,0,0,0-.59.91.88.88,0,0,0,.21.53.72.72,0,0,0,.61.27A1.2,1.2,0,0,0,27.8,356Zm.26-4.13a.69.69,0,0,0-.07-.3.56.56,0,0,0-.21-.25.69.69,0,0,0-.36-.09.53.53,0,0,0-.45.19.62.62,0,0,0-.15.4.67.67,0,0,0,.08.3,1.52,1.52,0,0,0,.21.33l.27.35A1.07,1.07,0,0,0,28.06,351.89Z"/>
      <path d="M38.83,357.56H37v-2.9H34.23v2.9H32.39v-7.44h1.84v2.73H37v-2.73h1.83Z"/>
    </g>
    <path d="M14.05,75.39A14.87,14.87,0,0,1,29.14,60.76,14.86,14.86,0,0,1,44.22,75.39V279.48a14.86,14.86,0,0,1-15.08,14.63,14.87,14.87,0,0,1-15.09-14.63Z" style="fill: none;stroke: #000;stroke-width: 1.05091px"/>
    <g>
      <path d="M25,194.06H23.61v-5.41H25Z"/>
      <path d="M29.5,194.06H28.26v-2.14a1.72,1.72,0,0,0-.09-.58.4.4,0,0,0-.42-.24.53.53,0,0,0-.26.06.87.87,0,0,0-.21.17,1.3,1.3,0,0,0-.15.2c0,.06-.09.12-.13.19v2.34H25.76v-4H27v.57a1.83,1.83,0,0,1,.59-.49,1.38,1.38,0,0,1,.65-.15q1.26,0,1.26,1.71Z"/>
      <path d="M35.28,194.06H31.66V194c.14-.16.3-.34.46-.56s.39-.49.65-.84l.34-.47a3.15,3.15,0,0,0,.27-.45,2.66,2.66,0,0,0,.2-.48,1.89,1.89,0,0,0,.08-.53,1,1,0,0,0-.19-.61.59.59,0,0,0-.49-.23,1.59,1.59,0,0,0-1.16.68V189.2l.33-.24.3-.18.41-.15a2,2,0,0,1,.5-.06,1.6,1.6,0,0,1,.79.2,1.47,1.47,0,0,1,.57.59,1.9,1.9,0,0,1,.2.88,2.48,2.48,0,0,1-.09.68,3.81,3.81,0,0,1-.19.5c-.07.13-.16.29-.27.47-.2.34-.41.65-.63,1h1.54Z"/>
    </g>
    <g>
      <path d="M23.74,146.36a1.67,1.67,0,0,1-.23.88,1.42,1.42,0,0,1-.64.57,2.12,2.12,0,0,1-.93.2l-.37,0-.57-.12a4.34,4.34,0,0,1-.74-.29v-1.33a4.88,4.88,0,0,0,.71.42,1.72,1.72,0,0,0,.75.17.6.6,0,0,0,.47-.14.39.39,0,0,0,.11-.26.47.47,0,0,0-.18-.37,3.11,3.11,0,0,0-.54-.31,3.81,3.81,0,0,1-.69-.41,1.59,1.59,0,0,1-.48-.55,1.5,1.5,0,0,1-.19-.78,1.63,1.63,0,0,1,.19-.8,1.37,1.37,0,0,1,.58-.56,2,2,0,0,1,1-.21,2.81,2.81,0,0,1,.73.09,3.29,3.29,0,0,1,.56.19,1.52,1.52,0,0,1,.3.18v1.27a3.33,3.33,0,0,0-.65-.43,1.57,1.57,0,0,0-.77-.19.52.52,0,0,0-.38.12.38.38,0,0,0-.12.29.38.38,0,0,0,.12.28,2.27,2.27,0,0,0,.43.28,9.18,9.18,0,0,1,.88.53,1.63,1.63,0,0,1,.51.54A1.38,1.38,0,0,1,23.74,146.36Z"/>
      <path d="M27.86,147.74c-.18.08-.35.14-.5.19a1.77,1.77,0,0,1-.55.08.55.55,0,0,1-.43-.13.66.66,0,0,1-.17-.29,2,2,0,0,1-.45.3,1.41,1.41,0,0,1-.63.12,1.14,1.14,0,0,1-.62-.15.8.8,0,0,1-.33-.38,1.1,1.1,0,0,1-.1-.47,1,1,0,0,1,.17-.61,1.19,1.19,0,0,1,.44-.39,5.17,5.17,0,0,1,.72-.32l.39-.14.2-.08.14-.07A.94.94,0,0,0,26,145a.5.5,0,0,0-.45-.17,1.42,1.42,0,0,0-.75.21,2.61,2.61,0,0,0-.64.52v-1.08a2.29,2.29,0,0,1,.5-.3,2.62,2.62,0,0,1,.56-.18,2.88,2.88,0,0,1,.59-.06,1.69,1.69,0,0,1,1.14.33,1.16,1.16,0,0,1,.39.92v1.54a1.37,1.37,0,0,0,0,.33.14.14,0,0,0,.14.1.64.64,0,0,0,.31-.11ZM26.14,147V146a3.3,3.3,0,0,0-.64.37.52.52,0,0,0-.21.44.41.41,0,0,0,.11.3.3.3,0,0,0,.23.11.46.46,0,0,0,.25-.08A2.14,2.14,0,0,0,26.14,147Z"/>
      <path d="M34.2,147.94H33v-2.12a1.14,1.14,0,0,0-.13-.63.41.41,0,0,0-.38-.21.61.61,0,0,0-.43.17,5.33,5.33,0,0,0-.33.45v2.34H30.47v-2.12a1.36,1.36,0,0,0-.12-.63A.41.41,0,0,0,30,145a.54.54,0,0,0-.25.06.72.72,0,0,0-.19.14,2,2,0,0,0-.17.23l-.13.19v2.34H28v-4h1.24v.57a1.91,1.91,0,0,1,.56-.49,1.47,1.47,0,0,1,.67-.15,1.27,1.27,0,0,1,.34,0,1,1,0,0,1,.32.12,1.1,1.1,0,0,1,.28.25,1.15,1.15,0,0,1,.2.36,2.49,2.49,0,0,1,.62-.57,1.45,1.45,0,0,1,.75-.2,1.2,1.2,0,0,1,.7.19,1.12,1.12,0,0,1,.42.55,2.59,2.59,0,0,1,.13.88Z"/>
      <path d="M38.5,145.92a2.8,2.8,0,0,1-.1.77,2.15,2.15,0,0,1-.3.67,1.41,1.41,0,0,1-.53.47,1.49,1.49,0,0,1-.75.18,1.54,1.54,0,0,1-.54-.08,2.56,2.56,0,0,1-.39-.22v2H34.65V144h1.24v.36a2.1,2.1,0,0,1,.41-.31,1.29,1.29,0,0,1,.61-.12,1.44,1.44,0,0,1,.75.22,1.49,1.49,0,0,1,.6.66A2.48,2.48,0,0,1,38.5,145.92Zm-1.3,0a1.37,1.37,0,0,0-.1-.58.74.74,0,0,0-.26-.33.64.64,0,0,0-.33-.1.8.8,0,0,0-.36.08,1.71,1.71,0,0,0-.26.21v1.52l.14.08.15.09.15.06.18,0a.57.57,0,0,0,.49-.28A1.33,1.33,0,0,0,37.2,146Z"/>
    </g>
    <g>
      <path d="M25,101.81H23.61V96.4H25Z"/>
      <path d="M29.5,101.81H28.26V99.67a1.62,1.62,0,0,0-.09-.57.4.4,0,0,0-.42-.25.44.44,0,0,0-.26.07.83.83,0,0,0-.21.16l-.15.2-.13.2v2.33H25.76v-4H27v.57a1.75,1.75,0,0,1,.59-.5,1.38,1.38,0,0,1,.65-.14q1.26,0,1.26,1.71Z"/>
      <path d="M34.11,101.81h-1.3V96.4h1.3Z"/>
    </g>
    <g>
      <path d="M23.74,238.61a1.67,1.67,0,0,1-.23.88,1.42,1.42,0,0,1-.64.57,2.12,2.12,0,0,1-.93.19,2.62,2.62,0,0,1-.37,0,2.92,2.92,0,0,1-.57-.12,3.64,3.64,0,0,1-.74-.29V238.5a4.88,4.88,0,0,0,.71.42,1.72,1.72,0,0,0,.75.17.6.6,0,0,0,.47-.14.39.39,0,0,0,.11-.26.46.46,0,0,0-.18-.37,3.11,3.11,0,0,0-.54-.31,4.49,4.49,0,0,1-.69-.41,1.69,1.69,0,0,1-.48-.55,1.54,1.54,0,0,1-.19-.79,1.62,1.62,0,0,1,.19-.79,1.37,1.37,0,0,1,.58-.56,2,2,0,0,1,1-.21,2.82,2.82,0,0,1,.73.08,3.23,3.23,0,0,1,.56.2,1.63,1.63,0,0,1,.3.17v1.27a3.3,3.3,0,0,0-.65-.42,1.57,1.57,0,0,0-.77-.19.52.52,0,0,0-.38.12.36.36,0,0,0-.12.28.38.38,0,0,0,.12.28,1.82,1.82,0,0,0,.43.29,9.37,9.37,0,0,1,.88.52,1.77,1.77,0,0,1,.51.55A1.36,1.36,0,0,1,23.74,238.61Z"/>
      <path d="M27.86,240a3.71,3.71,0,0,1-.5.2,1.79,1.79,0,0,1-.55.07.6.6,0,0,1-.43-.12.64.64,0,0,1-.17-.3,1.48,1.48,0,0,1-.45.3,1.41,1.41,0,0,1-.63.12,1.14,1.14,0,0,1-.62-.15.76.76,0,0,1-.33-.38,1.07,1.07,0,0,1-.1-.47,1,1,0,0,1,.17-.6,1.31,1.31,0,0,1,.44-.4,5.3,5.3,0,0,1,.72-.31l.39-.14.2-.08.14-.07a.91.91,0,0,0-.1-.45.5.5,0,0,0-.45-.17,1.5,1.5,0,0,0-.75.2,2.91,2.91,0,0,0-.64.53v-1.08a2,2,0,0,1,.5-.31,2.14,2.14,0,0,1,.56-.17,2.88,2.88,0,0,1,.59-.06,1.69,1.69,0,0,1,1.14.33,1.14,1.14,0,0,1,.39.92v1.54a1.27,1.27,0,0,0,0,.32c0,.07.07.11.14.11a.77.77,0,0,0,.31-.11Zm-1.72-.76v-.94a3.3,3.3,0,0,0-.64.37.51.51,0,0,0-.21.44.41.41,0,0,0,.11.3.3.3,0,0,0,.23.11.46.46,0,0,0,.25-.08A2.26,2.26,0,0,0,26.14,239.22Z"/>
      <path d="M34.2,240.18H33v-2.12a1.18,1.18,0,0,0-.13-.63.41.41,0,0,0-.38-.21.58.58,0,0,0-.43.18,5.33,5.33,0,0,0-.33.45v2.33H30.47v-2.12a1.34,1.34,0,0,0-.12-.62.42.42,0,0,0-.4-.22.45.45,0,0,0-.25.07.55.55,0,0,0-.19.14,1.36,1.36,0,0,0-.17.23,1.61,1.61,0,0,0-.13.19v2.33H28v-4h1.24v.57a1.78,1.78,0,0,1,.56-.49,1.47,1.47,0,0,1,.67-.15,1.87,1.87,0,0,1,.34,0,1.44,1.44,0,0,1,.32.13.94.94,0,0,1,.28.25,1,1,0,0,1,.2.36,2.55,2.55,0,0,1,.62-.58,1.44,1.44,0,0,1,.75-.19,1.2,1.2,0,0,1,.7.19,1.12,1.12,0,0,1,.42.55,2.51,2.51,0,0,1,.13.88Z"/>
      <path d="M38.5,238.17a2.86,2.86,0,0,1-.1.77,2.15,2.15,0,0,1-.3.67,1.5,1.5,0,0,1-.53.47,1.49,1.49,0,0,1-.75.17,1.34,1.34,0,0,1-.54-.08,1.54,1.54,0,0,1-.39-.22v2H34.65v-5.78h1.24v.36a1.53,1.53,0,0,1,.41-.31,1.29,1.29,0,0,1,.61-.12,1.52,1.52,0,0,1,.75.21,1.58,1.58,0,0,1,.6.67A2.48,2.48,0,0,1,38.5,238.17Zm-1.3,0a1.37,1.37,0,0,0-.1-.58.74.74,0,0,0-.26-.33.56.56,0,0,0-.33-.1.8.8,0,0,0-.36.08,1.64,1.64,0,0,0-.26.2V239l.14.09.15.08a.47.47,0,0,0,.15.06.57.57,0,0,0,.18,0A.58.58,0,0,0,37,239,1.29,1.29,0,0,0,37.2,238.2Z"/>
    </g>
    <g>
      <path d="M25.51,287.28a3.21,3.21,0,0,1-.3,1.39,2.42,2.42,0,0,1-.92,1,3.08,3.08,0,0,1-3,0,2.42,2.42,0,0,1-.9-1,3.18,3.18,0,0,1-.3-1.36,3.3,3.3,0,0,1,.29-1.37,2.42,2.42,0,0,1,.91-1,2.75,2.75,0,0,1,1.5-.39,3,3,0,0,1,1.18.22,2.42,2.42,0,0,1,.85.6,2.6,2.6,0,0,1,.5.89A3.16,3.16,0,0,1,25.51,287.28Zm-1.46,0a1.94,1.94,0,0,0-.08-.56,1.11,1.11,0,0,0-.24-.44,1.05,1.05,0,0,0-.39-.29,1.25,1.25,0,0,0-.53-.1,1.15,1.15,0,0,0-.91.38,1.7,1.7,0,0,0,0,2,1.15,1.15,0,0,0,.91.39,1.2,1.2,0,0,0,.67-.18,1.14,1.14,0,0,0,.43-.49A1.81,1.81,0,0,0,24.05,287.28Z" style="fill: #fff"/>
      <path d="M29.61,290H28.37v-.57a2,2,0,0,1-.55.48,1.46,1.46,0,0,1-.69.16,1,1,0,0,1-1-.53,2.8,2.8,0,0,1-.24-1.18V286h1.24v2.15a1.48,1.48,0,0,0,.1.57.39.39,0,0,0,.41.24.58.58,0,0,0,.43-.17,3.8,3.8,0,0,0,.32-.45V286h1.24Z" style="fill: #fff"/>
      <path d="M32.88,289.76a3,3,0,0,1-.53.2,2.5,2.5,0,0,1-.65.1c-.89,0-1.33-.5-1.33-1.49V287h-.56v-.25l1.66-1.92h.14V286h1.18v1H31.61v1.27a1.84,1.84,0,0,0,0,.36.37.37,0,0,0,.14.23.51.51,0,0,0,.34.09,1.65,1.65,0,0,0,.77-.28Z" style="fill: #fff"/>
      <path d="M37.3,290H36v-5.42H37.3Z" style="fill: #fff"/>
    </g>
    <g>
      <path d="M25.51,334.53a3.26,3.26,0,0,1-.3,1.4,2.42,2.42,0,0,1-.92,1,3.11,3.11,0,0,1-3,0,2.39,2.39,0,0,1-.9-1,3.19,3.19,0,0,1-.3-1.37,3.29,3.29,0,0,1,.29-1.36,2.38,2.38,0,0,1,.91-1,2.75,2.75,0,0,1,1.5-.39A3,3,0,0,1,24,332a2.42,2.42,0,0,1,.85.6,2.6,2.6,0,0,1,.5.89A3.14,3.14,0,0,1,25.51,334.53Zm-1.46,0A1.87,1.87,0,0,0,24,334a1.11,1.11,0,0,0-.24-.44,1.05,1.05,0,0,0-.39-.29,1.25,1.25,0,0,0-.53-.1,1.12,1.12,0,0,0-.91.38,1.47,1.47,0,0,0-.33,1,1.5,1.5,0,0,0,.33,1,1.14,1.14,0,0,0,.91.38,1.28,1.28,0,0,0,.67-.17,1.17,1.17,0,0,0,.43-.5A1.81,1.81,0,0,0,24.05,334.53Z" style="fill: #fff"/>
      <path d="M29.61,337.24H28.37v-.56a2,2,0,0,1-.55.48,1.47,1.47,0,0,1-.69.15,1,1,0,0,1-1-.52,2.84,2.84,0,0,1-.24-1.19v-2.33h1.24v2.15a1.4,1.4,0,0,0,.1.56.39.39,0,0,0,.41.25.55.55,0,0,0,.43-.18,3.12,3.12,0,0,0,.32-.45v-2.33h1.24Z" style="fill: #fff"/>
      <path d="M32.88,337a2.9,2.9,0,0,1-.53.21,2.48,2.48,0,0,1-.65.09c-.89,0-1.33-.49-1.33-1.48v-1.59h-.56V334l1.66-1.92h.14v1.19h1.18v1H31.61v1.28a1.84,1.84,0,0,0,0,.36.35.35,0,0,0,.14.22.46.46,0,0,0,.34.1,1.77,1.77,0,0,0,.77-.28Z" style="fill: #fff"/>
      <path d="M38.47,337.24H34.85v-.1l.46-.55.64-.85c.12-.16.24-.32.34-.47a3.68,3.68,0,0,0,.28-.45,2.67,2.67,0,0,0,.19-.48,1.89,1.89,0,0,0,.08-.53.93.93,0,0,0-.19-.61.62.62,0,0,0-.49-.23,1.59,1.59,0,0,0-1.16.69v-1.28l.33-.24a2.14,2.14,0,0,1,.3-.17,2.23,2.23,0,0,1,.91-.22,1.57,1.57,0,0,1,.8.21,1.37,1.37,0,0,1,.56.58,1.8,1.8,0,0,1,.2.89,2.41,2.41,0,0,1-.09.67,2.29,2.29,0,0,1-.19.5l-.27.48a8.69,8.69,0,0,1-.63.95h1.55Z" style="fill: #fff"/>
    </g>
    <g>
      <path d="M34.54,6.76l-5.53,7v-6a1.27,1.27,0,0,0-.64-1.17.89.89,0,0,0-1.13.29L20,16.13a1.49,1.49,0,0,0,0,1.79.9.9,0,0,0,1.46,0l5.5-7v6a1.29,1.29,0,0,0,.64,1.18.92.92,0,0,0,1.14-.3l5.53-7v6.15a1.05,1.05,0,1,0,2.06,0V7.64a1.28,1.28,0,0,0-.65-1.18A.91.91,0,0,0,34.54,6.76Z" style="stroke: #000;stroke-width: 0.6000000000000001px"/>
      <path d="M20,6.68l-4.81,6.13a1.47,1.47,0,0,0,0,1.79.9.9,0,0,0,1.46,0l3.05-3.87V17a1.17,1.17,0,0,0,1,1.26,1.17,1.17,0,0,0,1-1.26V7.56a1.29,1.29,0,0,0-.65-1.17A.91.91,0,0,0,20,6.68Z" style="stroke: #000;stroke-width: 0.6000000000000001px"/>
      <path d="M42.91,11.2a1.05,1.05,0,0,0-.95-.77h-2.1l1.53-1.95s.8-1.17.1-1.82a1.27,1.27,0,0,0-1.58.06l-3.23,4.1a1.45,1.45,0,0,0-.2,1.37,1,1,0,0,0,1,.78h2.1L37,16.14s-1,1.13-.27,1.89,1.75-.14,1.75-.14l4.18-5.31A1.5,1.5,0,0,0,42.91,11.2Z" style="stroke: #000;stroke-width: 0.6000000000000001px"/>
    </g>
  </g>
  <g id="components">
    <circle id="Out_2" data-name="Out 2" cx="29.28" cy="312.29" r="11.34" style="fill: blue"/>
    <circle id="Out_1" data-name="Out 1" cx="29.28" cy="264.07" r="11.34" style="fill: blue"/>
    <circle id="Samp_2" data-name="Samp 2" cx="29.28" cy="214.97" r="11.34" style="fill: lime"/>
    <circle id="In_2" data-name="In 2" cx="29.28" cy="168.85" r="11.34" style="fill: lime"/>
    <circle id="Samp_1" data-name="Samp 1" cx="29.28" cy="124.26" r="11.34" style="fill: lime"/>
    <circle id="In_1" data-name="In 1" cx="29.28" cy="78.14" r="11.34" style="fill: lime"/>
    <text id="slug" transform="translate(22.12 369.44)" style="font-size: 3px;font-family: MyriadPro-Regular, Myriad Pro">S&amp;H</text>
    <text id="modulename" transform="translate(29.28 369.44)" style="font-size: 3px;font-family: MyriadPro-Regular, Myriad Pro">2 Ch. <tspan x="6.84" y="0" style="letter-spacing: 0.0032552083333333335em">S</tspan><tspan x="8.33" y="0" style="letter-spacing: -0.0003255208333333333em">ample and Hold</tspan></text>
  </g>
</svg>
