<svg xmlns="http://www.w3.org/2000/svg" width="40.73mm" height="130.6mm" viewBox="0 0 115.45 370.19">
  <g id="faceplate">
    <rect x="0.13" y="0.13" width="115.2" height="364.25" style="fill: #ededed;stroke: #9d9d9e;stroke-miterlimit: 10;stroke-width: 0.25px"/>
    <path d="M86.81,296.11h-8c-7.49,0-13.56,6.61-13.56,14.76V341.8H94.74a5.5,5.5,0,0,0,5.64-5.33V310.86C100.38,302.71,94.31,296.11,86.81,296.11Z" transform="translate(0)"/>
    <g>
      <path d="M54,350l-2.75,7.54H50L47.28,350H49.2l1.39,4.29L52,350Z" transform="translate(0)"/>
      <path d="M60.25,356.91a4.29,4.29,0,0,1-.77.39,4.72,4.72,0,0,1-.8.21,5.73,5.73,0,0,1-.84.06,3.64,3.64,0,0,1-1.43-.27,3,3,0,0,1-1.09-.79,3.55,3.55,0,0,1-.7-1.23,5,5,0,0,1-.23-1.54,4.77,4.77,0,0,1,.27-1.68,3.35,3.35,0,0,1,.77-1.2,3,3,0,0,1,1.12-.71,3.86,3.86,0,0,1,1.32-.23,6.07,6.07,0,0,1,2.36.57v2a9.46,9.46,0,0,0-.9-.57,2.25,2.25,0,0,0-1-.22,2,2,0,0,0-1,.25,2,2,0,0,0-.74.74,2.14,2.14,0,0,0-.28,1.12,2.23,2.23,0,0,0,.24,1,2.07,2.07,0,0,0,.69.75,1.84,1.84,0,0,0,1,.27,2.63,2.63,0,0,0,.84-.13,3.84,3.84,0,0,0,.67-.29c.18-.11.36-.24.55-.38Z" transform="translate(0)"/>
      <path d="M68.19,357.47H66.31l-.5-1.51H63.16l-.51,1.51H60.77l2.7-7.44h2Zm-2.8-2.8-.9-2.72-.9,2.72Z" transform="translate(0)"/>
    </g>
    <path d="M103,57.11h2.26A21.88,21.88,0,0,0,102.81,48l-2,1.12A19.6,19.6,0,0,1,103,57.11Z" transform="translate(0)"/>
    <path d="M103,59.11a19.55,19.55,0,0,1-2.13,8l2,1.13a21.88,21.88,0,0,0,2.44-9.12Z" transform="translate(0)"/>
    <g>
      <path d="M30,81.25a2.28,2.28,0,0,1-.12.73,1.9,1.9,0,0,1-.36.67,1.81,1.81,0,0,1-.69.5,2.47,2.47,0,0,1-1,.2H26.66v2.53h-1.8V79.12h3a2.48,2.48,0,0,1,1,.19,1.83,1.83,0,0,1,.69.51,1.86,1.86,0,0,1,.36.68A2.36,2.36,0,0,1,30,81.25Zm-1.83,0a.79.79,0,0,0-.25-.67,1.75,1.75,0,0,0-.9-.17h-.38v1.63H27a2.47,2.47,0,0,0,.69-.07.56.56,0,0,0,.35-.23A1,1,0,0,0,28.19,81.26Z" transform="translate(0)"/>
      <path d="M34.25,81.18l-.57,1.76a1,1,0,0,0-.71-.38.76.76,0,0,0-.57.26,2.48,2.48,0,0,0-.45.93v2.13H30.4v-5H32v1.2a2.5,2.5,0,0,1,.51-.86,1.14,1.14,0,0,1,.87-.42,1.26,1.26,0,0,1,.46.08A3.55,3.55,0,0,1,34.25,81.18Z" transform="translate(0)"/>
      <path d="M38.88,83.82H35.8a1.28,1.28,0,0,0,.44.75,1.26,1.26,0,0,0,.8.28,3.78,3.78,0,0,0,1.73-.49v1.08a4.19,4.19,0,0,1-.82.37,3.86,3.86,0,0,1-1.23.16,2.62,2.62,0,0,1-1.38-.34,2.18,2.18,0,0,1-.85-.93,3.25,3.25,0,0,1,0-2.64,2.11,2.11,0,0,1,.85-.9,2.71,2.71,0,0,1,1.38-.33,2.16,2.16,0,0,1,1,.26,2,2,0,0,1,.81.85,3.16,3.16,0,0,1,.32,1.53ZM37.43,83a1.27,1.27,0,0,0-.21-.76.7.7,0,0,0-.6-.29.75.75,0,0,0-.62.3,1.13,1.13,0,0,0-.24.75Z" transform="translate(0)"/>
    </g>
    <g>
      <path d="M40.74,40.53l1.12-2a21.89,21.89,0,0,0-9.12-2.45v2.26A19.61,19.61,0,0,1,40.74,40.53Z" transform="translate(0)"/>
      <path d="M48.32,47.38l2-1.12a22.13,22.13,0,0,0-6.67-6.68l-1.13,2A19.89,19.89,0,0,1,48.32,47.38Z" transform="translate(0)"/>
      <path d="M21,41.53l-1.13-2a22.17,22.17,0,0,0-6.68,6.68l1.95,1.12A19.93,19.93,0,0,1,21,41.53Z" transform="translate(0)"/>
      <path d="M51.46,57.11h2.26A21.89,21.89,0,0,0,51.27,48l-2,1.12A19.45,19.45,0,0,1,51.46,57.11Z" transform="translate(0)"/>
      <path d="M30.74,38.39V36.13a21.89,21.89,0,0,0-9.12,2.45l1.13,2A19.6,19.6,0,0,1,30.74,38.39Z" transform="translate(0)"/>
      <path d="M15.16,68.84,13.21,70a22.17,22.17,0,0,0,6.68,6.68l1.13-2A20,20,0,0,1,15.16,68.84Z" transform="translate(0)"/>
      <path d="M42.47,74.69l1.13,2A22.13,22.13,0,0,0,50.27,70l-2-1.12A20,20,0,0,1,42.47,74.69Z" transform="translate(0)"/>
      <path d="M51.46,59.11a19.41,19.41,0,0,1-2.14,8l2,1.13a21.89,21.89,0,0,0,2.45-9.12Z" transform="translate(0)"/>
      <path d="M12,59.11H9.77a21.88,21.88,0,0,0,2.44,9.12l1.95-1.13A19.55,19.55,0,0,1,12,59.11Z" transform="translate(0)"/>
      <path d="M14.16,49.11,12.21,48a21.88,21.88,0,0,0-2.44,9.12H12A19.6,19.6,0,0,1,14.16,49.11Z" transform="translate(0)"/>
    </g>
    <g>
      <path d="M79.51,81.25a2.58,2.58,0,0,1-.11.73,2.11,2.11,0,0,1-.37.67,1.81,1.81,0,0,1-.69.5,2.43,2.43,0,0,1-1,.2H76.15v2.53h-1.8V79.12h3a2.43,2.43,0,0,1,1,.19,1.83,1.83,0,0,1,.69.51,2.05,2.05,0,0,1,.37.68A2.67,2.67,0,0,1,79.51,81.25Zm-1.83,0a.76.76,0,0,0-.25-.67,1.75,1.75,0,0,0-.9-.17h-.38v1.63h.39a2.44,2.44,0,0,0,.68-.07.56.56,0,0,0,.35-.23A1,1,0,0,0,77.68,81.26Z" transform="translate(0)"/>
      <path d="M84.73,83.39a3,3,0,0,1-.28,1.33,2.21,2.21,0,0,1-.85.92,3.05,3.05,0,0,1-2.76,0,2.25,2.25,0,0,1-.84-.92,3,3,0,0,1-.28-1.33,3.31,3.31,0,0,1,.15-1,2.56,2.56,0,0,1,.48-.81,2,2,0,0,1,.79-.54,2.78,2.78,0,0,1,1.08-.19,2.92,2.92,0,0,1,1.1.19,2.16,2.16,0,0,1,1.25,1.35A3,3,0,0,1,84.73,83.39Zm-1.63,0a1.63,1.63,0,0,0-.22-.92.8.8,0,0,0-1.31,0,1.62,1.62,0,0,0-.23.92,1.68,1.68,0,0,0,.23.93.8.8,0,0,0,1.31,0A1.64,1.64,0,0,0,83.1,83.39Z" transform="translate(0)"/>
      <path d="M88.6,84.43a1.48,1.48,0,0,1-.44,1.12,1.82,1.82,0,0,1-1.31.42,3.22,3.22,0,0,1-.86-.1,6.25,6.25,0,0,1-.83-.28V84.34a6.5,6.5,0,0,0,.68.38,1.53,1.53,0,0,0,.64.13c.38,0,.58-.12.58-.36a.29.29,0,0,0-.09-.21.94.94,0,0,0-.29-.22l-.56-.29a2.26,2.26,0,0,1-.73-.57,1.34,1.34,0,0,1-.3-.88,1.45,1.45,0,0,1,.2-.72A1.51,1.51,0,0,1,85.9,81a2,2,0,0,1,1-.21,2.37,2.37,0,0,1,.35,0,3,3,0,0,1,.54.11,2.37,2.37,0,0,1,.61.27v1.21l-.22-.15-.25-.15L87.54,82a1.59,1.59,0,0,0-.43-.06.47.47,0,0,0-.37.12.42.42,0,0,0-.1.24.31.31,0,0,0,.11.22,1.54,1.54,0,0,0,.46.26,3.79,3.79,0,0,1,.82.47,1.34,1.34,0,0,1,.44.52A1.5,1.5,0,0,1,88.6,84.43Z" transform="translate(0)"/>
      <path d="M92.54,85.6a3.7,3.7,0,0,1-.67.25,2.93,2.93,0,0,1-.8.12c-1.12,0-1.68-.62-1.68-1.85v-2h-.7v-.3l2.08-2.41H91v1.49h1.47v1.22H91v1.6c0,.18,0,.33,0,.45a.55.55,0,0,0,.17.28.67.67,0,0,0,.43.12,2.08,2.08,0,0,0,1-.36Z" transform="translate(0)"/>
    </g>
    <path d="M92.27,40.53l1.13-2a21.89,21.89,0,0,0-9.12-2.45v2.26A19.56,19.56,0,0,1,92.27,40.53Z" transform="translate(0)"/>
    <path d="M99.86,47.38l2-1.12a22.17,22.17,0,0,0-6.68-6.68l-1.13,2A19.93,19.93,0,0,1,99.86,47.38Z" transform="translate(0)"/>
    <path d="M72.55,41.53l-1.13-2a22.13,22.13,0,0,0-6.67,6.68l2,1.12A19.89,19.89,0,0,1,72.55,41.53Z" transform="translate(0)"/>
    <path d="M82.28,38.39V36.13a21.89,21.89,0,0,0-9.12,2.45l1.12,2A19.61,19.61,0,0,1,82.28,38.39Z" transform="translate(0)"/>
    <path d="M66.7,68.84l-2,1.12a22.13,22.13,0,0,0,6.67,6.68l1.13-2A20,20,0,0,1,66.7,68.84Z" transform="translate(0)"/>
    <path d="M94,74.69l1.13,2A22.17,22.17,0,0,0,101.81,70l-2-1.12A20,20,0,0,1,94,74.69Z" transform="translate(0)"/>
    <path d="M63.56,59.11H61.3a21.89,21.89,0,0,0,2.45,9.12l2-1.13A19.41,19.41,0,0,1,63.56,59.11Z" transform="translate(0)"/>
    <path d="M65.7,49.11l-2-1.12a21.89,21.89,0,0,0-2.45,9.12h2.26A19.45,19.45,0,0,1,65.7,49.11Z" transform="translate(0)"/>
    <g>
      <path d="M25.82,143.81a4,4,0,0,1-.38,1.74,3.06,3.06,0,0,1-1.15,1.27,3.48,3.48,0,0,1-1.85.47,3.45,3.45,0,0,1-1.87-.49,3.08,3.08,0,0,1-1.14-1.29,4.09,4.09,0,0,1-.37-1.7,4,4,0,0,1,.37-1.71,3.05,3.05,0,0,1,1.14-1.28,3.44,3.44,0,0,1,1.87-.48,3.6,3.6,0,0,1,1.47.28,2.76,2.76,0,0,1,1.06.75,3.4,3.4,0,0,1,.64,1.11A4.16,4.16,0,0,1,25.82,143.81Zm-1.83,0a2.24,2.24,0,0,0-.1-.7,1.3,1.3,0,0,0-.3-.54,1.18,1.18,0,0,0-.49-.36,1.53,1.53,0,0,0-.66-.13,1.46,1.46,0,0,0-1.14.47,1.89,1.89,0,0,0-.41,1.26,1.84,1.84,0,0,0,.42,1.26,1.4,1.4,0,0,0,1.13.48,1.59,1.59,0,0,0,.84-.22,1.46,1.46,0,0,0,.53-.62A2.13,2.13,0,0,0,24,143.81Z" transform="translate(0)"/>
      <path d="M29.26,141.69a2.35,2.35,0,0,0-.57-.09.46.46,0,0,0-.39.18.9.9,0,0,0-.14.53v.18h.78v1.19h-.78v3.52H26.61v-3.52H25.9v-1.19h.71v-.09a2.72,2.72,0,0,1,.18-1,1.72,1.72,0,0,1,.59-.77,1.86,1.86,0,0,1,1.1-.3,3.46,3.46,0,0,1,.78.09Z" transform="translate(0)"/>
      <path d="M32.16,141.69a2.5,2.5,0,0,0-.57-.09.46.46,0,0,0-.39.18.9.9,0,0,0-.14.53v.18h.78v1.19h-.78v3.52H29.51v-3.52h-.72v-1.19h.72v-.09a2.72,2.72,0,0,1,.18-1,1.65,1.65,0,0,1,.59-.77,1.86,1.86,0,0,1,1.1-.3,3.46,3.46,0,0,1,.78.09Z" transform="translate(0)"/>
      <path d="M35.55,145.75a1.48,1.48,0,0,1-.45,1.11,1.82,1.82,0,0,1-1.3.43,3.78,3.78,0,0,1-.87-.1,8.26,8.26,0,0,1-.82-.29v-1.25a5.15,5.15,0,0,0,.68.39,1.61,1.61,0,0,0,.63.13c.39,0,.58-.12.58-.36a.29.29,0,0,0-.09-.22,1.12,1.12,0,0,0-.29-.22l-.55-.28a2.18,2.18,0,0,1-.73-.58,1.28,1.28,0,0,1-.31-.88,1.39,1.39,0,0,1,.2-.71,1.51,1.51,0,0,1,.61-.56,2,2,0,0,1,1-.22l.35,0a3,3,0,0,1,.54.12,2.81,2.81,0,0,1,.62.26v1.22l-.23-.16-.25-.14a2.08,2.08,0,0,0-.36-.14,1.54,1.54,0,0,0-.43-.06.51.51,0,0,0-.37.11.4.4,0,0,0-.09.24.32.32,0,0,0,.1.23,1.81,1.81,0,0,0,.46.26,3.8,3.8,0,0,1,.82.46,1.32,1.32,0,0,1,.44.52A1.54,1.54,0,0,1,35.55,145.75Z" transform="translate(0)"/>
      <path d="M40.52,145.14H37.44a1.21,1.21,0,0,0,.44.74,1.23,1.23,0,0,0,.8.29,3.8,3.8,0,0,0,1.73-.5v1.09a5,5,0,0,1-.83.36,3.83,3.83,0,0,1-1.23.17,2.56,2.56,0,0,1-1.37-.35,2.1,2.1,0,0,1-.85-.92,3,3,0,0,1-.28-1.33,2.9,2.9,0,0,1,.28-1.31,2.08,2.08,0,0,1,.85-.91,2.65,2.65,0,0,1,1.37-.33,2.22,2.22,0,0,1,1,.26,2,2,0,0,1,.82.85,3.29,3.29,0,0,1,.32,1.54Zm-1.46-.87a1.28,1.28,0,0,0-.2-.77.7.7,0,0,0-.6-.28.79.79,0,0,0-.63.29,1.15,1.15,0,0,0-.24.76Z" transform="translate(0)"/>
      <path d="M44.38,146.91a3.07,3.07,0,0,1-.67.25,2.63,2.63,0,0,1-.81.13c-1.11,0-1.67-.62-1.67-1.86v-2h-.7v-.31l2.08-2.4h.17v1.49h1.48v1.22H42.78V145a2.64,2.64,0,0,0,0,.45.46.46,0,0,0,.17.28.67.67,0,0,0,.43.12,2.16,2.16,0,0,0,1-.35Z" transform="translate(0)"/>
    </g>
    <path d="M40.74,101.93l1.12-2a21.73,21.73,0,0,0-9.12-2.44v2.25A19.77,19.77,0,0,1,40.74,101.93Z" transform="translate(0)"/>
    <path d="M48.32,108.78l2-1.12A22.13,22.13,0,0,0,43.6,101l-1.13,2A19.89,19.89,0,0,1,48.32,108.78Z" transform="translate(0)"/>
    <path d="M21,102.93l-1.13-2a22.17,22.17,0,0,0-6.68,6.68l1.95,1.12A19.93,19.93,0,0,1,21,102.93Z" transform="translate(0)"/>
    <path d="M51.46,118.51h2.26a21.89,21.89,0,0,0-2.45-9.12l-2,1.12A19.49,19.49,0,0,1,51.46,118.51Z" transform="translate(0)"/>
    <path d="M30.74,99.79V97.54A21.73,21.73,0,0,0,21.62,100l1.13,2A19.76,19.76,0,0,1,30.74,99.79Z" transform="translate(0)"/>
    <path d="M15.16,130.24l-1.95,1.12A22.17,22.17,0,0,0,19.89,138L21,136.09A19.93,19.93,0,0,1,15.16,130.24Z" transform="translate(0)"/>
    <path d="M42.47,136.09,43.6,138a22.13,22.13,0,0,0,6.67-6.68l-2-1.12A19.89,19.89,0,0,1,42.47,136.09Z" transform="translate(0)"/>
    <path d="M51.46,120.51a19.49,19.49,0,0,1-2.14,8l2,1.12a21.89,21.89,0,0,0,2.45-9.12Z" transform="translate(0)"/>
    <path d="M12,120.51H9.77a21.88,21.88,0,0,0,2.44,9.12l1.95-1.12A19.64,19.64,0,0,1,12,120.51Z" transform="translate(0)"/>
    <path d="M14.16,110.51l-1.95-1.12a21.88,21.88,0,0,0-2.44,9.12H12A19.64,19.64,0,0,1,14.16,110.51Z" transform="translate(0)"/>
    <g>
      <path d="M82.83,146.69a4,4,0,0,1-.76.35,4,4,0,0,1-.78.19,5.32,5.32,0,0,1-.81.06,3.88,3.88,0,0,1-1.4-.25,3,3,0,0,1-1.07-.72,3.15,3.15,0,0,1-.67-1.11,4.19,4.19,0,0,1-.23-1.4,4,4,0,0,1,.27-1.53,2.81,2.81,0,0,1,.74-1.09,3,3,0,0,1,1.09-.64,4,4,0,0,1,1.29-.21,6.29,6.29,0,0,1,2.3.51v1.8a5.71,5.71,0,0,0-.87-.52,2.32,2.32,0,0,0-1-.21,2.16,2.16,0,0,0-1,.23,1.86,1.86,0,0,0-.72.67,1.82,1.82,0,0,0-.28,1,1.91,1.91,0,0,0,.24.94,1.82,1.82,0,0,0,.67.68,1.93,1.93,0,0,0,1,.25,2.71,2.71,0,0,0,.82-.12,3.47,3.47,0,0,0,.66-.27,5.84,5.84,0,0,0,.54-.34Z" transform="translate(0)"/>
      <path d="M89.51,140.43l-2.68,6.86H85.64L83,140.43h1.86l1.37,3.91,1.4-3.91Z" transform="translate(0)"/>
    </g>
    <path d="M92.27,101.93l1.13-2a21.73,21.73,0,0,0-9.12-2.44v2.25A19.72,19.72,0,0,1,92.27,101.93Z" transform="translate(0)"/>
    <path d="M99.86,108.78l2-1.12A22.17,22.17,0,0,0,95.13,101l-1.13,2A19.93,19.93,0,0,1,99.86,108.78Z" transform="translate(0)"/>
    <path d="M72.55,102.93l-1.13-2a22.13,22.13,0,0,0-6.67,6.68l2,1.12A19.89,19.89,0,0,1,72.55,102.93Z" transform="translate(0)"/>
    <path d="M103,118.51h2.26a21.88,21.88,0,0,0-2.44-9.12l-2,1.12A19.64,19.64,0,0,1,103,118.51Z" transform="translate(0)"/>
    <path d="M82.28,99.79V97.54A21.73,21.73,0,0,0,73.16,100l1.12,2A19.77,19.77,0,0,1,82.28,99.79Z" transform="translate(0)"/>
    <path d="M66.7,130.24l-2,1.12A22.13,22.13,0,0,0,71.42,138l1.13-1.95A19.89,19.89,0,0,1,66.7,130.24Z" transform="translate(0)"/>
    <path d="M94,136.09,95.13,138a22.17,22.17,0,0,0,6.68-6.68l-2-1.12A19.93,19.93,0,0,1,94,136.09Z" transform="translate(0)"/>
    <path d="M103,120.51a19.64,19.64,0,0,1-2.13,8l2,1.12a21.88,21.88,0,0,0,2.44-9.12Z" transform="translate(0)"/>
    <path d="M63.56,120.51H61.3a21.89,21.89,0,0,0,2.45,9.12l2-1.12A19.49,19.49,0,0,1,63.56,120.51Z" transform="translate(0)"/>
    <path d="M65.7,110.51l-2-1.12a21.89,21.89,0,0,0-2.45,9.12h2.26A19.49,19.49,0,0,1,65.7,110.51Z" transform="translate(0)"/>
    <g>
      <path d="M63.34,8.16l-5.53,7v-6A1.29,1.29,0,0,0,57.17,8,.89.89,0,0,0,56,8.28l-7.28,9.25a1.49,1.49,0,0,0,0,1.79.91.91,0,0,0,1.46,0l5.5-7v6a1.29,1.29,0,0,0,.64,1.17.91.91,0,0,0,1.14-.3l5.53-7v6.16a1.05,1.05,0,1,0,2.06,0V9a1.29,1.29,0,0,0-.65-1.18A.91.91,0,0,0,63.34,8.16Z" transform="translate(0)" style="stroke: #000;stroke-width: 0.6000000000000001px"/>
      <path d="M48.76,8.09,44,14.21A1.47,1.47,0,0,0,44,16a.9.9,0,0,0,1.46,0l3-3.87v6.31a1.05,1.05,0,1,0,2.06,0V9a1.29,1.29,0,0,0-.65-1.17A.91.91,0,0,0,48.76,8.09Z" transform="translate(0)" style="stroke: #000;stroke-width: 0.6000000000000001px"/>
      <path d="M71.71,12.61a1,1,0,0,0-.95-.78h-2.1l1.53-1.95s.8-1.17.1-1.82a1.27,1.27,0,0,0-1.58.06l-3.23,4.1a1.47,1.47,0,0,0-.2,1.38,1.05,1.05,0,0,0,1,.77h2.1l-2.49,3.17s-1,1.13-.27,1.89,1.75-.14,1.75-.14L71.5,14A1.48,1.48,0,0,0,71.71,12.61Z" transform="translate(0)" style="stroke: #000;stroke-width: 0.6000000000000001px"/>
    </g>
    <g>
      <path d="M82.48,333.3a3.21,3.21,0,0,1-.3,1.39,2.42,2.42,0,0,1-.92,1,3.08,3.08,0,0,1-3,0,2.51,2.51,0,0,1-.91-1,3.36,3.36,0,0,1,0-2.73,2.42,2.42,0,0,1,.91-1,2.75,2.75,0,0,1,1.5-.39,3,3,0,0,1,1.18.22,2.51,2.51,0,0,1,.85.6,2.6,2.6,0,0,1,.5.89A3.16,3.16,0,0,1,82.48,333.3Zm-1.46,0a1.94,1.94,0,0,0-.08-.56,1.11,1.11,0,0,0-.24-.44,1.05,1.05,0,0,0-.39-.29,1.25,1.25,0,0,0-.53-.1,1.15,1.15,0,0,0-.91.38,1.5,1.5,0,0,0-.33,1,1.47,1.47,0,0,0,.33,1,1.14,1.14,0,0,0,.91.39,1.2,1.2,0,0,0,.67-.18,1.14,1.14,0,0,0,.43-.49A1.81,1.81,0,0,0,81,333.3Z" transform="translate(0)" style="fill: #fff"/>
      <path d="M86.58,336H85.34v-.57a2,2,0,0,1-.55.48,1.46,1.46,0,0,1-.69.16,1,1,0,0,1-1-.53,2.8,2.8,0,0,1-.24-1.18V332h1.24v2.15a1.7,1.7,0,0,0,.09.57.4.4,0,0,0,.42.24.58.58,0,0,0,.43-.17,3.8,3.8,0,0,0,.32-.45V332h1.24Z" transform="translate(0)" style="fill: #fff"/>
      <path d="M89.85,335.78a3,3,0,0,1-.53.2,2.5,2.5,0,0,1-.65.1c-.89,0-1.33-.5-1.33-1.49V333h-.56v-.25l1.66-1.92h.14V332h1.18v1H88.58v1.27a1.84,1.84,0,0,0,0,.36.37.37,0,0,0,.14.23.51.51,0,0,0,.34.09,1.65,1.65,0,0,0,.77-.28Z" transform="translate(0)" style="fill: #fff"/>
    </g>
    <g>
      <path d="M32,335.6a3,3,0,0,1-.6.28,3.6,3.6,0,0,1-.63.15,4.51,4.51,0,0,1-.65.05,3,3,0,0,1-1.11-.2,2.4,2.4,0,0,1-.86-.57,2.63,2.63,0,0,1-.54-.89,3.37,3.37,0,0,1-.18-1.12,3.3,3.3,0,0,1,.21-1.23,2.26,2.26,0,0,1,.6-.87,2.55,2.55,0,0,1,.87-.52,3.22,3.22,0,0,1,1-.16,5.1,5.1,0,0,1,1.84.41v1.44a4.32,4.32,0,0,0-.7-.42,1.86,1.86,0,0,0-.81-.17,1.73,1.73,0,0,0-.78.19,1.5,1.5,0,0,0-.58.54,1.45,1.45,0,0,0-.22.81,1.61,1.61,0,0,0,.19.75,1.4,1.4,0,0,0,.54.54,1.44,1.44,0,0,0,.77.21,2.39,2.39,0,0,0,.66-.1,2.55,2.55,0,0,0,.52-.21,4.46,4.46,0,0,0,.43-.28Z" transform="translate(0)"/>
      <path d="M37.35,330.59l-2.15,5.49h-1l-2.11-5.49h1.5l1.09,3.13,1.12-3.13Z" transform="translate(0)"/>
    </g>
    <path d="M99.66,329.4c-1.43,6.84-6.67,11.92-12.93,11.92H28.38" transform="translate(0)" style="fill: none;stroke: #000;stroke-miterlimit: 10"/>
    <path d="M15.07,325.65l.21-10.33v2.92l.06-6.65a17.49,17.49,0,0,1,2.31-8.21" transform="translate(0)" style="fill: none;stroke: #000;stroke-miterlimit: 10"/>
    <path d="M15.07,324.69v11a5.68,5.68,0,0,0,5.67,5.67H33.67" transform="translate(0)" style="fill: none;stroke: #000;stroke-miterlimit: 10"/>
    <g>
      <path d="M50.67,293.82H49.24v-5.41h1.43Z" transform="translate(0)"/>
      <path d="M55.13,293.82H53.89v-2.15a1.7,1.7,0,0,0-.09-.57.4.4,0,0,0-.42-.24.53.53,0,0,0-.26.06.87.87,0,0,0-.21.17l-.15.19-.13.2v2.34H51.39v-4h1.24v.57a1.83,1.83,0,0,1,.59-.49,1.38,1.38,0,0,1,.65-.15q1.26,0,1.26,1.71Z" transform="translate(0)"/>
      <path d="M59.43,291.8a2.76,2.76,0,0,1-.1.77,1.94,1.94,0,0,1-.3.67,1.53,1.53,0,0,1-.53.48,1.58,1.58,0,0,1-.74.17,1.64,1.64,0,0,1-.55-.08,2.56,2.56,0,0,1-.39-.22v2H55.58v-5.79h1.24v.36a1.73,1.73,0,0,1,.41-.3,1.2,1.2,0,0,1,.61-.13,1.39,1.39,0,0,1,.75.22,1.54,1.54,0,0,1,.61.67A2.54,2.54,0,0,1,59.43,291.8Zm-1.3,0a1.42,1.42,0,0,0-.1-.59.66.66,0,0,0-.26-.32.55.55,0,0,0-.32-.1.64.64,0,0,0-.36.08,1.05,1.05,0,0,0-.27.2v1.52l.14.09.15.08.16.06.18,0a.59.59,0,0,0,.49-.28A1.32,1.32,0,0,0,58.13,291.84Z" transform="translate(0)"/>
      <path d="M63.48,293.82H62.24v-.57a1.73,1.73,0,0,1-.55.48,1.35,1.35,0,0,1-.69.16,1,1,0,0,1-1-.53,2.8,2.8,0,0,1-.24-1.18v-2.34H61V292a1.42,1.42,0,0,0,.1.57.39.39,0,0,0,.41.24.54.54,0,0,0,.43-.17,3.8,3.8,0,0,0,.32-.45v-2.34h1.24Z" transform="translate(0)"/>
      <path d="M66.75,293.59a2.37,2.37,0,0,1-.53.2,2.14,2.14,0,0,1-.65.1c-.89,0-1.33-.49-1.33-1.48v-1.59h-.56v-.25l1.66-1.92h.14v1.19h1.18v1H65.48v1.27a1.84,1.84,0,0,0,0,.36.37.37,0,0,0,.14.23.51.51,0,0,0,.34.09,1.65,1.65,0,0,0,.77-.28Z" transform="translate(0)"/>
    </g>
    <path d="M17.55,303.56,40.68,267c4.57-6.87,8.4-12.67,17-12.67S69,259,74.7,267l22.83,35.76" transform="translate(0)" style="fill: none;stroke: #000"/>
    <polygon points="82.57 296.11 93.29 296.1 95.89 299.89 82.57 296.11"/>
  </g>
  <g id="components">
    <circle id="Out" cx="83.32" cy="313.7" r="11.34" style="fill: blue"/>
    <circle id="CV_Jack" data-name="CV Jack" cx="32.16" cy="313.17" r="11.34" style="fill: lime"/>
    <circle id="Input" cx="57.69" cy="271.57" r="11.34" style="fill: lime"/>
    <circle id="CV" cx="83.49" cy="119.21" r="17.01" style="fill: #ff0040"/>
    <circle id="Offset" cx="31.96" cy="119.21" r="17.01" style="fill: #ff0040"/>
    <circle id="Post" cx="83.49" cy="57.97" r="17.01" style="fill: red"/>
    <circle id="Pre" cx="31.96" cy="57.97" r="17.01" style="fill: #ff0020"/>
    <text id="slug" transform="translate(70.23 369.44)" style="font-size: 3px;font-family: MyriadPro-Regular, Myriad Pro">V<tspan x="1.67" y="0" style="letter-spacing: 0.00390625em">C</tspan><tspan x="3.43" y="0">A</tspan></text>
    <text id="modulename" transform="translate(79.84 369.44)" style="font-size: 3px;font-family: MyriadPro-Regular, Myriad Pro"><tspan style="letter-spacing: -0.032877604166666664em">V</tspan><tspan x="1.58" y="0" style="letter-spacing: -0.0003255208333333333em">oltage </tspan><tspan x="10.18" y="0" style="letter-spacing: -0.011067708333333334em">C</tspan><tspan x="11.89" y="0">o</tspan><tspan x="13.54" y="0" style="letter-spacing: -0.004231770833333333em">n</tspan><tspan x="15.19" y="0">t</tspan><tspan x="16.18" y="0" style="letter-spacing: -0.010091145833333334em">r</tspan><tspan x="17.14" y="0">olled </tspan><tspan x="24.03" y="0" style="letter-spacing: -0.0029296875em">A</tspan><tspan x="25.86" y="0">mplifier</tspan></text>
  </g>
</svg>
