<svg xmlns="http://www.w3.org/2000/svg" width="132.17mm" height="131.86mm" viewBox="0 0 374.65 373.79">
  <g id="faceplate">
    <rect x="0.13" y="0.13" width="374.4" height="364.25" style="fill: #ededed;stroke: #9d9d9e;stroke-miterlimit: 10;stroke-width: 0.25px"/>
    <path d="M55.6,160.52c-8,0-13.21-6-13.21-15.22V38.4c0-9.25,5.19-15.23,13.21-15.23,8.23,0,13.76,6.12,13.76,15.23V145.3c0,9.1-5.53,15.22-13.76,15.22" style="fill: #00a551;stroke: #00a551;stroke-miterlimit: 10;stroke-width: 5px"/>
    <path d="M55.6,23.67c7.59,0,13.26,5.48,13.26,14.73V145.3c0,9.24-5.67,14.72-13.26,14.72s-12.71-5.48-12.71-14.72V38.4c0-9.25,5.13-14.73,12.71-14.73m0-1c-8.33,0-13.71,6.17-13.71,15.73V145.3c0,9.55,5.38,15.72,13.71,15.72,8.53,0,14.26-6.32,14.26-15.72V38.4c0-9.41-5.73-15.73-14.26-15.73" style="fill: #00a551"/>
    <path d="M55.56,21.59c8.92,0,15.79,5.64,15.79,15.16V147c0,9.52-6.87,15.16-15.79,15.16S40.4,156.47,40.4,147V36.75c0-9.52,6.23-15.16,15.16-15.16m0-1.5c-10.12,0-16.66,6.54-16.66,16.66V147c0,10.12,6.54,16.66,16.66,16.66S72.85,156.76,72.85,147V36.75c0-9.81-7.11-16.66-17.29-16.66"/>
    <path d="M344.85,52C353.76,52,360,45.86,360,38.26S353.76,24,344.85,24h-245c-8.91,0-15.13,6.7-15.13,14.29S90.9,52,99.81,52Z" style="fill: #00adee;stroke: #00adee;stroke-miterlimit: 10;stroke-width: 3px"/>
    <path d="M346.08,22.75a15.26,15.26,0,0,1,15.29,15.54c0,8.25-6.29,14.94-15.29,14.94H98.58c-9,0-15.29-6.69-15.29-14.94A15.26,15.26,0,0,1,98.58,22.75h247.5m0-1.5H98.58a16.73,16.73,0,0,0-16.79,17c0,9.37,7.21,16.44,16.79,16.44h247.5c9.57,0,16.79-7.07,16.79-16.44a16.73,16.73,0,0,0-16.79-17"/>
    <path d="M178.76,12a4,4,0,0,1-.38,1.74A2.94,2.94,0,0,1,177.23,15a3.46,3.46,0,0,1-1.85.47,3.36,3.36,0,0,1-1.87-.49,3.05,3.05,0,0,1-1.14-1.28,4.14,4.14,0,0,1,0-3.42A3,3,0,0,1,173.51,9a3.36,3.36,0,0,1,1.87-.49,3.6,3.6,0,0,1,1.47.28,3,3,0,0,1,1.07.75,3.56,3.56,0,0,1,.63,1.11,4.21,4.21,0,0,1,.21,1.33m-1.83,0a2.17,2.17,0,0,0-.1-.69,1.45,1.45,0,0,0-.29-.55,1.33,1.33,0,0,0-.49-.36,1.6,1.6,0,0,0-.67-.13,1.4,1.4,0,0,0-1.13.48,1.82,1.82,0,0,0-.42,1.25,1.84,1.84,0,0,0,.42,1.26,1.42,1.42,0,0,0,1.13.48,1.5,1.5,0,0,0,.84-.22,1.39,1.39,0,0,0,.53-.62,2.13,2.13,0,0,0,.18-.9"/>
    <path d="M183.88,15.4h-1.55v-.71a2.21,2.21,0,0,1-.68.6,1.79,1.79,0,0,1-.86.2,1.26,1.26,0,0,1-1.29-.66,3.69,3.69,0,0,1-.29-1.48V10.43h1.55v2.69a2,2,0,0,0,.12.71.49.49,0,0,0,.51.3.67.67,0,0,0,.54-.22,3.39,3.39,0,0,0,.4-.56V10.43h1.55Z"/>
    <path d="M188,15.11a3.77,3.77,0,0,1-.66.26,3.06,3.06,0,0,1-.81.12c-1.12,0-1.67-.62-1.67-1.86v-2h-.71v-.31l2.08-2.4h.18v1.49h1.47v1.22h-1.47v1.59a2.64,2.64,0,0,0,0,.45.44.44,0,0,0,.17.29.68.68,0,0,0,.42.11,2.12,2.12,0,0,0,1-.35Z"/>
    <path d="M193.1,12.88a3.83,3.83,0,0,1-.12,1,2.92,2.92,0,0,1-.38.84,1.79,1.79,0,0,1-.66.59,1.88,1.88,0,0,1-.93.22,2,2,0,0,1-.68-.1,2.2,2.2,0,0,1-.49-.28v2.55h-1.55V10.43h1.55v.45a2.12,2.12,0,0,1,.51-.38,1.51,1.51,0,0,1,.76-.16,1.85,1.85,0,0,1,.94.27,2.09,2.09,0,0,1,.76.84,3.16,3.16,0,0,1,.29,1.43m-1.63,0a1.89,1.89,0,0,0-.12-.73.83.83,0,0,0-.32-.4.73.73,0,0,0-.41-.13.83.83,0,0,0-.45.1,1.59,1.59,0,0,0-.33.25v1.9L190,14a1.18,1.18,0,0,0,.19.11l.19.07a.85.85,0,0,0,.23,0,.75.75,0,0,0,.61-.35,1.71,1.71,0,0,0,.24-1"/>
    <path d="M198.16,15.4h-1.55v-.71a2.33,2.33,0,0,1-.68.6,1.79,1.79,0,0,1-.86.2,1.26,1.26,0,0,1-1.29-.66,3.69,3.69,0,0,1-.29-1.48V10.43H195v2.69a2,2,0,0,0,.12.71.49.49,0,0,0,.51.3.67.67,0,0,0,.54-.22,3.39,3.39,0,0,0,.4-.56V10.43h1.55Z"/>
    <path d="M202.25,15.11a3.77,3.77,0,0,1-.66.26,3.06,3.06,0,0,1-.81.12c-1.12,0-1.67-.62-1.67-1.86v-2h-.71v-.31l2.08-2.4h.18v1.49h1.47v1.22h-1.47v1.59a2.64,2.64,0,0,0,0,.45.44.44,0,0,0,.17.29.68.68,0,0,0,.42.11,2.12,2.12,0,0,0,1-.35Z"/>
    <path d="M22.77,33.05l1.89,7.14h-1.5l-.33-1.51h-1.9l-.33,1.51H19.1L21,33.05Zm-.19,4.45-.69-3.21h0l-.69,3.21Z"/>
    <path d="M22,70.32a3.49,3.49,0,0,1,.82.09,1.65,1.65,0,0,1,.64.3,1.34,1.34,0,0,1,.42.56,2.17,2.17,0,0,1,.15.86,1.77,1.77,0,0,1-.27,1,1.35,1.35,0,0,1-.81.57v0a1.38,1.38,0,0,1,.95.51,1.72,1.72,0,0,1,.35,1.15,2.67,2.67,0,0,1-.11.8,1.66,1.66,0,0,1-.37.66,2,2,0,0,1-.69.46,3,3,0,0,1-1.06.17H19.6V70.32Zm-.56,2.93a1.41,1.41,0,0,0,.88-.22.86.86,0,0,0,.27-.72.89.89,0,0,0-.25-.72,1.2,1.2,0,0,0-.79-.21H21v1.87Zm.15,3.15a1.42,1.42,0,0,0,.84-.23,1,1,0,0,0,.32-.85,1.54,1.54,0,0,0-.08-.52,1.14,1.14,0,0,0-.23-.33.82.82,0,0,0-.35-.17,1.52,1.52,0,0,0-.44,0H21V76.4Z"/>
    <path d="M22.56,107.93a.7.7,0,0,0-.67-.35.73.73,0,0,0-.45.14,1,1,0,0,0-.27.47A3.49,3.49,0,0,0,21,109c0,.35,0,.78,0,1.29s0,1,.05,1.31a3.32,3.32,0,0,0,.17.77.72.72,0,0,0,.29.37.78.78,0,0,0,.41.1.84.84,0,0,0,.35-.07.59.59,0,0,0,.29-.26,1.74,1.74,0,0,0,.19-.55,5.6,5.6,0,0,0,.07-.93h1.44a6.53,6.53,0,0,1-.09,1.1,2.42,2.42,0,0,1-.34.91,1.65,1.65,0,0,1-.69.61,2.68,2.68,0,0,1-1.15.22,2.76,2.76,0,0,1-1.29-.26,1.84,1.84,0,0,1-.74-.75,3.35,3.35,0,0,1-.33-1.17,16.11,16.11,0,0,1,0-3,3.28,3.28,0,0,1,.33-1.17,1.89,1.89,0,0,1,.74-.77,2.63,2.63,0,0,1,1.29-.27,2.42,2.42,0,0,1,1.21.25,1.7,1.7,0,0,1,.67.63,2.25,2.25,0,0,1,.27.83,6.38,6.38,0,0,1,.06.84H22.75a2.52,2.52,0,0,0-.19-1.14"/>
    <path d="M21.94,142a2.47,2.47,0,0,1,1.21.25,1.71,1.71,0,0,1,.72.69,3.16,3.16,0,0,1,.34,1.1,10.33,10.33,0,0,1,.09,1.43,10.9,10.9,0,0,1-.11,1.63,3.11,3.11,0,0,1-.4,1.15,1.68,1.68,0,0,1-.75.67,2.75,2.75,0,0,1-1.19.22H19.58V142Zm-.28,6.08a1.18,1.18,0,0,0,.61-.13.88.88,0,0,0,.37-.43,2.49,2.49,0,0,0,.18-.79c0-.33,0-.73,0-1.22s0-.76,0-1.07a2.6,2.6,0,0,0-.16-.77,1.07,1.07,0,0,0-.37-.46,1.26,1.26,0,0,0-.66-.15H21v5Z"/>
    <path d="M208.65,354.14h-2.78l-.73-1.82h-3.9l-.75,1.82h-2.77l4-9h3Zm-4.13-3.38-1.32-3.28-1.33,3.28Z"/>
    <polygon points="217.13 347.34 213.84 347.34 213.84 354.14 211.13 354.14 211.13 347.34 207.84 347.34 207.84 345.16 217.13 345.16 217.13 347.34"/>
    <path d="M227.41,354.14H224.5l-.71-1.59a6.63,6.63,0,0,0-.7-1.28,1.54,1.54,0,0,0-.6-.52,2.07,2.07,0,0,0-.76-.11h-.31v3.5h-2.71v-9h4.61a3.4,3.4,0,0,1,1.83.45,2.83,2.83,0,0,1,1,1.1,2.87,2.87,0,0,1,.31,1.24,2.41,2.41,0,0,1-.26,1.15,2.1,2.1,0,0,1-.56.68,5.6,5.6,0,0,1-.65.41,2.48,2.48,0,0,1,.71.6,7.21,7.21,0,0,1,.77,1.4ZM223.73,348a.93.93,0,0,0-.41-.87,2.63,2.63,0,0,0-1.33-.25h-.57v2.17H222a2.82,2.82,0,0,0,1.36-.22.87.87,0,0,0,.37-.83"/>
    <rect x="228.66" y="345.16" width="2.71" height="8.98"/>
    <path d="M243.78,354.14H240.3l-1-1.12s-.22-.28-.57-.69l-.69-.86c-.51.7-.94,1.26-1.27,1.66l-.82,1h-3.43l3.81-4.67-3.63-4.31h3.46l.61.75c.36.44.78,1,1.27,1.63.48-.69.85-1.2,1.13-1.53l.71-.85h3.4l-3.5,4.31Z"/>
    <polygon points="198.18 354.13 194.56 354.13 194.56 347.19 191.31 351.21 191.02 351.21 187.75 347.19 187.75 354.13 184.24 354.13 184.24 342.15 187.52 342.15 191.2 346.65 194.9 342.15 198.18 342.15 198.18 354.13"/>
    <path d="M172.47,353.07a8,8,0,0,1-1.52.62,8.6,8.6,0,0,1-1.57.33,12.46,12.46,0,0,1-1.64.1,8.44,8.44,0,0,1-2.8-.43,6,6,0,0,1-2.15-1.27,5.44,5.44,0,0,1-1.37-2A6.67,6.67,0,0,1,161,348a6.52,6.52,0,0,1,.53-2.71,5.22,5.22,0,0,1,1.5-1.93,6.5,6.5,0,0,1,2.2-1.14,9.23,9.23,0,0,1,2.6-.37,14.26,14.26,0,0,1,4.62.91v3.18a12.94,12.94,0,0,0-1.76-.92,5.31,5.31,0,0,0-2-.37,4.63,4.63,0,0,0-2,.42,3.69,3.69,0,0,0-1.46,1.18,3.17,3.17,0,0,0-.07,3.46,3.45,3.45,0,0,0,1.35,1.21,4.23,4.23,0,0,0,1.94.44,6.32,6.32,0,0,0,1.65-.21,7.82,7.82,0,0,0,1.31-.47,12.21,12.21,0,0,0,1.09-.61Z" style="fill: #00adee"/>
    <path d="M172.47,353.07a8,8,0,0,1-1.52.62,8.6,8.6,0,0,1-1.57.33,12.46,12.46,0,0,1-1.64.1,8.44,8.44,0,0,1-2.8-.43,6,6,0,0,1-2.15-1.27,5.44,5.44,0,0,1-1.37-2A6.67,6.67,0,0,1,161,348a6.52,6.52,0,0,1,.53-2.71,5.22,5.22,0,0,1,1.5-1.93,6.5,6.5,0,0,1,2.2-1.14,9.23,9.23,0,0,1,2.6-.37,14.26,14.26,0,0,1,4.62.91v3.18a12.94,12.94,0,0,0-1.76-.92,5.31,5.31,0,0,0-2-.37,4.63,4.63,0,0,0-2,.42,3.69,3.69,0,0,0-1.46,1.18,3.17,3.17,0,0,0-.07,3.46,3.45,3.45,0,0,0,1.35,1.21,4.23,4.23,0,0,0,1.94.44,6.32,6.32,0,0,0,1.65-.21,7.82,7.82,0,0,0,1.31-.47,12.21,12.21,0,0,0,1.09-.61Z" style="fill: none;stroke: #00adee;stroke-width: 0.75px"/>
    <rect x="44.73" y="8.63" width="1.8" height="6.77"/>
    <path d="M52.1,15.4H50.55V12.72a2,2,0,0,0-.12-.72.49.49,0,0,0-.51-.3.74.74,0,0,0-.34.08,1,1,0,0,0-.26.21,2,2,0,0,0-.19.24l-.16.25V15.4H47.43v-5H49v.71a2.39,2.39,0,0,1,.74-.62,1.8,1.8,0,0,1,.82-.18c1,0,1.57.71,1.57,2.14Z"/>
    <path d="M57.48,12.88a3.42,3.42,0,0,1-.13,1,2.67,2.67,0,0,1-.38.84,1.84,1.84,0,0,1-.65.59,1.89,1.89,0,0,1-.94.22,2,2,0,0,1-.68-.1,2.76,2.76,0,0,1-.49-.28v2.55H52.67V10.43h1.54v.45a2.39,2.39,0,0,1,.52-.38,1.48,1.48,0,0,1,.76-.16,1.85,1.85,0,0,1,.94.27,2.07,2.07,0,0,1,.75.84,3,3,0,0,1,.3,1.43m-1.63,0a1.7,1.7,0,0,0-.13-.73.83.83,0,0,0-.32-.4.71.71,0,0,0-.41-.13.88.88,0,0,0-.45.1,2.39,2.39,0,0,0-.33.25v1.9l.18.11.18.11.2.07a.78.78,0,0,0,.22,0,.72.72,0,0,0,.61-.35,1.63,1.63,0,0,0,.25-1"/>
    <path d="M62.54,15.4H61v-.71a2.36,2.36,0,0,1-.69.6,1.76,1.76,0,0,1-.86.2,1.24,1.24,0,0,1-1.28-.66,3.52,3.52,0,0,1-.29-1.48V10.43h1.55v2.69a2,2,0,0,0,.12.71.48.48,0,0,0,.51.3.7.7,0,0,0,.54-.22,4.1,4.1,0,0,0,.4-.56V10.43h1.55Z"/>
    <path d="M66.63,15.11a3.61,3.61,0,0,1-.67.26,2.94,2.94,0,0,1-.81.12c-1.11,0-1.67-.62-1.67-1.86v-2h-.7v-.31l2.08-2.4H65v1.49h1.48v1.22H65v1.59a2.64,2.64,0,0,0,0,.45.48.48,0,0,0,.17.29.74.74,0,0,0,.43.11,2.16,2.16,0,0,0,1-.35Z"/>
    <polygon points="105.52 339.31 100.99 339.31 100.99 332.54 102.79 332.54 102.79 337.68 105.52 337.68 105.52 339.31"/>
    <path d="M110.44,337.24h-3.08a1.28,1.28,0,0,0,.44.75,1.24,1.24,0,0,0,.8.28,3.78,3.78,0,0,0,1.73-.49v1.09a4.9,4.9,0,0,1-.82.36,4,4,0,0,1-1.23.16,2.62,2.62,0,0,1-1.38-.34,2.18,2.18,0,0,1-.85-.93,3.25,3.25,0,0,1,0-2.64,2.05,2.05,0,0,1,.85-.9,2.61,2.61,0,0,1,1.38-.33,2.16,2.16,0,0,1,1,.26,2,2,0,0,1,.81.85,3.16,3.16,0,0,1,.32,1.53Zm-1.45-.86a1.28,1.28,0,0,0-.21-.77.7.7,0,0,0-.6-.28.74.74,0,0,0-.62.29,1.14,1.14,0,0,0-.24.76Z"/>
    <polygon points="115.46 334.33 113.47 339.31 112.33 339.31 110.38 334.33 112.05 334.33 112.95 336.94 113.96 334.33 115.46 334.33"/>
    <path d="M120.11,337.24H117a1.25,1.25,0,0,0,.45.75,1.22,1.22,0,0,0,.8.28,3.74,3.74,0,0,0,1.72-.49v1.09a4.56,4.56,0,0,1-.82.36,3.86,3.86,0,0,1-1.23.16,2.62,2.62,0,0,1-1.38-.34,2.16,2.16,0,0,1-.84-.93,3.15,3.15,0,0,1,0-2.64,2,2,0,0,1,.84-.9,2.61,2.61,0,0,1,1.38-.33,2.13,2.13,0,0,1,1,.26,2,2,0,0,1,.81.85,3.16,3.16,0,0,1,.32,1.53Zm-1.45-.86a1.28,1.28,0,0,0-.21-.77.68.68,0,0,0-.6-.28.75.75,0,0,0-.62.29,1.14,1.14,0,0,0-.24.76Z"/>
    <rect x="120.6" y="332.54" width="1.55" height="6.77"/>
    <polygon points="290.8 339.31 289 339.31 289 335.38 287.38 337.66 287.24 337.66 285.61 335.38 285.61 339.31 283.87 339.31 283.87 332.54 285.5 332.54 287.33 335.08 289.17 332.54 290.8 332.54 290.8 339.31"/>
    <path d="M296.31,339.31h-1.56v-.71a2.51,2.51,0,0,1-.68.6,1.79,1.79,0,0,1-.86.19,1.28,1.28,0,0,1-1.29-.65,3.74,3.74,0,0,1-.29-1.49v-2.92h1.55V337a1.92,1.92,0,0,0,.12.71.5.5,0,0,0,.51.31.71.71,0,0,0,.54-.22,3.51,3.51,0,0,0,.4-.57v-2.92h1.56Z"/>
    <path d="M300.39,339a3.17,3.17,0,0,1-.66.25,3.06,3.06,0,0,1-.81.12c-1.12,0-1.67-.61-1.67-1.85v-2h-.7v-.31l2.07-2.4h.18v1.48h1.47v1.23H298.8v1.59a2.81,2.81,0,0,0,0,.45.42.42,0,0,0,.17.28.62.62,0,0,0,.42.12,2.12,2.12,0,0,0,1-.35Z"/>
    <path d="M305.2,337.25h-3.08a1.29,1.29,0,0,0,.44.74,1.26,1.26,0,0,0,.8.28,3.75,3.75,0,0,0,1.73-.49v1.09a4.56,4.56,0,0,1-.82.36,3.86,3.86,0,0,1-1.23.16,2.62,2.62,0,0,1-1.38-.34,2.18,2.18,0,0,1-.85-.93,3.25,3.25,0,0,1,0-2.64,2.17,2.17,0,0,1,.85-.9,2.71,2.71,0,0,1,1.38-.33,2.13,2.13,0,0,1,1,.26,2,2,0,0,1,.81.85,3.16,3.16,0,0,1,.32,1.53Zm-1.45-.87a1.28,1.28,0,0,0-.21-.77.7.7,0,0,0-.6-.28.75.75,0,0,0-.62.29,1.14,1.14,0,0,0-.24.76Z"/>
    <polygon points="162.07 341.89 156.67 354.03 154.28 354.03 148.98 341.89 152.74 341.89 155.48 348.81 158.3 341.89 162.07 341.89" style="fill: #eb1d25"/>
    <polygon points="162.07 341.89 156.67 354.03 154.28 354.03 148.98 341.89 152.74 341.89 155.48 348.81 158.3 341.89 162.07 341.89" style="fill: none;stroke: #eb1d25;stroke-width: 0.75px"/>
    <path d="M183.2,354.12h-3.7l.15-2.43h-5.8l-1.53,2.43h-3.7l8.29-12h6.25Zm-3.58-4.51-.62-4.37-3.66,4.37Z" style="fill: #00a551"/>
    <path d="M183.2,354.12h-3.7l.15-2.43h-5.8l-1.53,2.43h-3.7l8.29-12h6.25Zm-3.58-4.51-.62-4.37-3.66,4.37Z" style="fill: none;stroke: #00a551;stroke-width: 0.75px"/>
    <path d="M123.94,36.36h-1.41v-.94h.13a2,2,0,0,0,1.13-.27,1.23,1.23,0,0,0,.53-.87h1.06v7.08h-1.44Z"/>
    <path d="M194.89,41.36a4.1,4.1,0,0,1,.09-.88,3.66,3.66,0,0,1,.29-.78,4.17,4.17,0,0,1,.49-.72,7.65,7.65,0,0,1,.69-.72l.58-.54a2.72,2.72,0,0,0,.38-.39,1.81,1.81,0,0,0,.23-.36,1.24,1.24,0,0,0,.1-.39,3.43,3.43,0,0,0,0-.48c0-.59-.24-.88-.7-.88a.78.78,0,0,0-.43.11.73.73,0,0,0-.24.3,1.77,1.77,0,0,0-.11.44c0,.17,0,.34,0,.53h-1.38v-.27a2,2,0,0,1,.53-1.52,2.29,2.29,0,0,1,1.67-.53,2.26,2.26,0,0,1,1.6.5,1.91,1.91,0,0,1,.52,1.43,3.24,3.24,0,0,1-.06.64,2.84,2.84,0,0,1-.19.56,2.79,2.79,0,0,1-.34.53,4.93,4.93,0,0,1-.51.52l-.8.74a2.84,2.84,0,0,0-.5.57,1.54,1.54,0,0,0-.23.47h2.67v1.12Z"/>
    <path d="M267.15,40.24a.62.62,0,0,0,.62.32.84.84,0,0,0,.42-.09.69.69,0,0,0,.24-.24,1.34,1.34,0,0,0,.11-.37c0-.14,0-.29,0-.44a3.19,3.19,0,0,0,0-.45,1.13,1.13,0,0,0-.14-.39.81.81,0,0,0-.28-.27,1,1,0,0,0-.48-.1h-.48v-.94h.47a.8.8,0,0,0,.39-.09,1,1,0,0,0,.25-.25,1.42,1.42,0,0,0,.14-.36,1.87,1.87,0,0,0,0-.42,1.12,1.12,0,0,0-.17-.72.63.63,0,0,0-.52-.21.68.68,0,0,0-.37.09.54.54,0,0,0-.23.24,1,1,0,0,0-.1.36,3.23,3.23,0,0,0,0,.46H265.7a1.85,1.85,0,0,1,2.08-2.09,2.34,2.34,0,0,1,1.51.44,1.69,1.69,0,0,1,.53,1.38,1.78,1.78,0,0,1-.28,1,1.25,1.25,0,0,1-.8.51v0a1.33,1.33,0,0,1,1,.56,2,2,0,0,1,.28,1.11,3.18,3.18,0,0,1-.09.74,1.74,1.74,0,0,1-.35.69,1.81,1.81,0,0,1-.71.5,3.11,3.11,0,0,1-1.2.19,2,2,0,0,1-1.54-.56,2.27,2.27,0,0,1-.51-1.59v0H267a2.34,2.34,0,0,0,.17,1"/>
    <path d="M337.28,34.28h1.49v4.49h.68v1.12h-.68v1.47h-1.32V39.89h-2.52V38.71Zm.15,1.8-1.38,2.69h1.4V36.08Z"/>
    <path d="M320.73,6.73l-5.39,6.85V7.71a1.26,1.26,0,0,0-.63-1.14.87.87,0,0,0-1.1.29l-7.09,9a1.46,1.46,0,0,0,0,1.75.88.88,0,0,0,1.42,0l5.35-6.8v5.87a1.24,1.24,0,0,0,.64,1.14.88.88,0,0,0,1.1-.28l5.39-6.85v6a1,1,0,1,0,2,0v-9a1.25,1.25,0,0,0-.63-1.14.87.87,0,0,0-1.1.28" style="fill: #00adee"/>
    <path d="M320.73,6.73l-5.39,6.85V7.71a1.26,1.26,0,0,0-.63-1.14.87.87,0,0,0-1.1.29l-7.09,9a1.46,1.46,0,0,0,0,1.75.88.88,0,0,0,1.42,0l5.35-6.8v5.87a1.24,1.24,0,0,0,.64,1.14.88.88,0,0,0,1.1-.28l5.39-6.85v6a1,1,0,1,0,2,0v-9a1.25,1.25,0,0,0-.63-1.14A.87.87,0,0,0,320.73,6.73Z" style="fill: none;stroke: #00adee;stroke-width: 0.75px"/>
    <path d="M306.52,6.66l-4.69,6a1.45,1.45,0,0,0,0,1.75.89.89,0,0,0,1.43,0l3-3.77v6.15a1,1,0,1,0,2,0V7.52a1.25,1.25,0,0,0-.63-1.14.88.88,0,0,0-1.1.28" style="fill: #eb1d25"/>
    <path d="M306.52,6.66l-4.69,6a1.45,1.45,0,0,0,0,1.75.89.89,0,0,0,1.43,0l3-3.77v6.15a1,1,0,1,0,2,0V7.52a1.25,1.25,0,0,0-.63-1.14A.88.88,0,0,0,306.52,6.66Z" style="fill: none;stroke: #eb1d25;stroke-width: 0.75px"/>
    <path d="M328.88,11.07a1,1,0,0,0-.93-.76H325.9l1.5-1.9s.78-1.14.09-1.77S326,6.7,326,6.7l-3.14,4a1.45,1.45,0,0,0-.2,1.34,1,1,0,0,0,.92.75h2.06l-2.43,3.09s-1,1.1-.27,1.84,1.71-.13,1.71-.13l4.07-5.18a1.4,1.4,0,0,0,.21-1.33" style="fill: #00a551"/>
    <path d="M328.88,11.07a1,1,0,0,0-.93-.76H325.9l1.5-1.9s.78-1.14.09-1.77S326,6.7,326,6.7l-3.14,4a1.45,1.45,0,0,0-.2,1.34,1,1,0,0,0,.92.75h2.06l-2.43,3.09s-1,1.1-.27,1.84,1.71-.13,1.71-.13l4.07-5.18A1.4,1.4,0,0,0,328.88,11.07Z" style="fill: none;stroke: #00a551;stroke-width: 0.75px"/>
    <path d="M134.11,54.73a13,13,0,0,1,13,13c0,7.18-4.82,13-12,13l-1,0a16.22,16.22,0,0,0-12.48,16.46v0c0,14,11.71,17.38,11.71,17.38l.68.05a13,13,0,0,1,9,22.36l-36.26,31.07a13,13,0,1,1-7.76-23.43l.89-.08s11.7-3.39,11.7-17.38v0a16.22,16.22,0,0,0-12.48-16.46h-.07a13,13,0,0,1-8.94-22.44L125.7,57.82a12.93,12.93,0,0,1,8.41-3.09m0-1.5a14.5,14.5,0,0,0-9.38,3.44L89.19,87.15l0,0a14.5,14.5,0,0,0,9.9,25c1.39.33,11.12,3.06,11.12,15v.1c0,11.94-9.35,15.45-10.5,15.84l-.67.06a14.5,14.5,0,0,0,.08,29,14.36,14.36,0,0,0,8.66-2.87l.08-.06,36.26-31.07.06-.06a14.5,14.5,0,0,0-10-24.94l-.46,0c-1.26-.41-10.47-3.86-10.49-15.86v-.07c0-12,9.91-14.67,11.16-15l.81,0c7.66,0,13.46-6.24,13.46-14.5a14.51,14.51,0,0,0-14.5-14.5"/>
    <path d="M204.67,54.73a13,13,0,0,1,13,13c0,7.18-4.82,13-12,13l-.95,0a16.22,16.22,0,0,0-12.48,16.46v0c0,14,11.71,17.38,11.71,17.38l.68.05a13,13,0,0,1,9,22.36l-36.26,31.07a13,13,0,1,1-7.76-23.43l.89-.08s11.7-3.39,11.7-17.38v0a16.22,16.22,0,0,0-12.48-16.46h-.07a13,13,0,0,1-8.94-22.44l35.53-30.47a12.93,12.93,0,0,1,8.41-3.09m0-1.5a14.5,14.5,0,0,0-9.38,3.44L159.75,87.15s0,0-.05,0a14.5,14.5,0,0,0,9.9,25c1.39.33,11.12,3.06,11.12,15v.1c0,11.94-9.35,15.45-10.5,15.84l-.67.06a14.5,14.5,0,0,0,.08,29,14.36,14.36,0,0,0,8.66-2.87l.08-.06,36.26-31.07.06-.06a14.5,14.5,0,0,0-10-24.94l-.46,0c-1.26-.41-10.47-3.86-10.49-15.86v-.07c0-12,9.91-14.67,11.16-15l.81,0c7.66,0,13.46-6.24,13.46-14.5a14.51,14.51,0,0,0-14.5-14.5"/>
    <path d="M275.23,54.73a13,13,0,0,1,13,13c0,7.18-4.82,13-12,13l-1,0A16.22,16.22,0,0,0,262.8,97.21v0c0,14,11.71,17.38,11.71,17.38l.68.05a13,13,0,0,1,9,22.36L248,168.11a13,13,0,1,1-7.76-23.43l.89-.08s11.7-3.39,11.7-17.38v0a16.22,16.22,0,0,0-12.48-16.46h-.07a13,13,0,0,1-8.94-22.44l35.53-30.47a12.93,12.93,0,0,1,8.41-3.09m0-1.5a14.5,14.5,0,0,0-9.38,3.44L230.31,87.15l-.05,0a14.5,14.5,0,0,0,9.9,25c1.39.33,11.12,3.06,11.12,15v.1c0,11.94-9.35,15.45-10.5,15.84l-.67.06a14.5,14.5,0,0,0,.08,29,14.36,14.36,0,0,0,8.66-2.87l.08-.06,36.26-31.07.06-.06a14.5,14.5,0,0,0-10-24.94l-.46,0c-1.26-.41-10.47-3.86-10.49-15.86v-.07c0-12,9.91-14.67,11.16-15l.81,0c7.66,0,13.46-6.24,13.46-14.5a14.51,14.51,0,0,0-14.5-14.5"/>
    <path d="M345.79,54.73a13,13,0,0,1,13,13c0,7.18-4.82,13-12,13l-1,0a16.22,16.22,0,0,0-12.48,16.46v0c0,14,11.7,17.38,11.7,17.38l.69.05a13,13,0,0,1,9,22.36l-36.26,31.07a13,13,0,1,1-7.76-23.43l.89-.08s11.7-3.39,11.7-17.38v0a16.22,16.22,0,0,0-12.48-16.46h-.07a13,13,0,0,1-8.94-22.44l35.53-30.47a12.93,12.93,0,0,1,8.41-3.09m0-1.5a14.48,14.48,0,0,0-9.38,3.44L300.87,87.15l-.05,0a14.5,14.5,0,0,0,9.9,25c1.39.33,11.12,3.06,11.12,15v.1c0,11.94-9.35,15.45-10.5,15.84l-.67.06a14.5,14.5,0,0,0,.08,29,14.36,14.36,0,0,0,8.66-2.87l.08-.06,36.26-31.07.06-.06a14.5,14.5,0,0,0-10-24.94l-.46,0c-1.26-.41-10.47-3.86-10.49-15.86v-.07c0-12,9.91-14.67,11.16-15l.81,0c7.66,0,13.46-6.24,13.46-14.5a14.51,14.51,0,0,0-14.5-14.5"/>
    <path d="M18,14.21a4.54,4.54,0,1,1,0-9.07h8.44a4.54,4.54,0,0,1,0,9.07Z"/>
    <path d="M348.49,14.21a4.54,4.54,0,1,1,0-9.07h8.44a4.54,4.54,0,0,1,0,9.07Z"/>
    <path d="M18.2,360.41a4.54,4.54,0,1,1,0-9.07h8.43a4.54,4.54,0,1,1,0,9.07Z"/>
    <path d="M348.31,360.49a4.54,4.54,0,1,1,0-9.07h8.43a4.54,4.54,0,1,1,0,9.07Z"/>
    <g>
      <circle cx="358.31" cy="335.71" r="4.25" style="fill: #aeaeaf"/>
      <polygon points="359.37 333.87 357.24 333.87 356.18 335.71 357.24 337.55 359.37 337.55 360.43 335.71 359.37 333.87" style="fill: #87898b"/>
    </g>
    <g>
      <circle cx="17.53" cy="335.71" r="4.25" style="fill: #aeaeaf"/>
      <polygon points="18.6 333.87 16.47 333.87 15.41 335.71 16.47 337.55 18.6 337.55 19.66 335.71 18.6 333.87" style="fill: #87898b"/>
    </g>
    <g>
      <circle cx="213.08" cy="335.71" r="4.25" style="fill: #aeaeaf"/>
      <polygon points="214.15 333.87 212.02 333.87 210.96 335.71 212.02 337.55 214.15 337.55 215.21 335.71 214.15 333.87" style="fill: #87898b"/>
    </g>
    <g id="outline">
      <path d="M192.45,183.47a10.08,10.08,0,0,1,10.07,10.07V314.67a10.08,10.08,0,0,1-10.07,10.07H29.6a10.09,10.09,0,0,1-10.08-10.07V193.54A10.09,10.09,0,0,1,29.6,183.47H192.45m0-2H29.6a12.12,12.12,0,0,0-12.12,12.11V314.67A12.12,12.12,0,0,0,29.6,326.78H192.45a12.11,12.11,0,0,0,12.11-12.11V193.54a12.11,12.11,0,0,0-12.11-12.11" style="stroke: #ededed;stroke-miterlimit: 10;stroke-width: 0.5px"/>
      <path d="M355.42,182.3a10.06,10.06,0,0,1,10,10.07V315.51a10.06,10.06,0,0,1-10,10.07H232.66a10.07,10.07,0,0,1-10-10.07V192.37a10.07,10.07,0,0,1,10-10.07H355.42m0-2H232.66a12.09,12.09,0,0,0-12.08,12.11V315.51a12.09,12.09,0,0,0,12.08,12.11H355.42a12.09,12.09,0,0,0,12.07-12.11V192.37a12.09,12.09,0,0,0-12.07-12.11" style="stroke: #ededed;stroke-miterlimit: 10;stroke-width: 0.5px"/>
    </g>
  </g>
  <g id="components">
    <circle id="D4_Button" data-name="D4 Button" cx="352.25" cy="312.33" r="10.63" style="fill: #ff8000"/>
    <circle id="D3_Button" data-name="D3 Button" cx="313.37" cy="312.33" r="10.63" style="fill: #ff8000"/>
    <circle id="D2_Button" data-name="D2 Button" cx="274.49" cy="312.33" r="10.63" style="fill: #ff8000"/>
    <circle id="D1_Button" data-name="D1 Button" cx="235.61" cy="312.33" r="10.63" style="fill: #ff8000"/>
    <circle id="D4_Level" data-name="D4 Level" cx="190.4" cy="313.03" r="8.5" style="fill: #ff0080"/>
    <circle id="D3_Level" data-name="D3 Level" cx="137.48" cy="313.03" r="8.5" style="fill: #ff0080"/>
    <circle id="D2_Level" data-name="D2 Level" cx="84.56" cy="313.03" r="8.5" style="fill: #ff0080"/>
    <circle id="D1_Level" data-name="D1 Level" cx="31.64" cy="313.03" r="8.5" style="fill: #ff0080"/>
    <circle id="C4_Button" data-name="C4 Button" cx="352.25" cy="273.45" r="10.63" style="fill: #ff8000"/>
    <circle id="C3_Button" data-name="C3 Button" cx="313.37" cy="273.45" r="10.63" style="fill: #ff8000"/>
    <circle id="C2_Button" data-name="C2 Button" cx="274.49" cy="273.45" r="10.63" style="fill: #ff8000"/>
    <circle id="C1_Button" data-name="C1 Button" cx="235.61" cy="273.45" r="10.63" style="fill: #ff8000"/>
    <circle id="C4_Level" data-name="C4 Level" cx="190.4" cy="273.9" r="8.5" style="fill: #ff0080"/>
    <circle id="C3_Level" data-name="C3 Level" cx="137.48" cy="273.9" r="8.5" style="fill: #ff0080"/>
    <circle id="C2_Level" data-name="C2 Level" cx="84.56" cy="273.9" r="8.5" style="fill: #ff0080"/>
    <circle id="C1_Level" data-name="C1 Level" cx="31.64" cy="273.9" r="8.5" style="fill: #ff0080"/>
    <circle id="B4_Button" data-name="B4 Button" cx="352.25" cy="234.57" r="10.63" style="fill: #ff8000"/>
    <circle id="B3_Button" data-name="B3 Button" cx="313.37" cy="234.57" r="10.63" style="fill: #ff8000"/>
    <circle id="B2_Button" data-name="B2 Button" cx="274.49" cy="234.57" r="10.63" style="fill: #ff8000"/>
    <circle id="B1_Button" data-name="B1 Button" cx="235.61" cy="234.57" r="10.63" style="fill: #ff8000"/>
    <circle id="B4_Level" data-name="B4 Level" cx="190.4" cy="234.57" r="8.5" style="fill: #ff0080"/>
    <circle id="B3_Level" data-name="B3 Level" cx="137.48" cy="234.57" r="8.5" style="fill: #ff0080"/>
    <circle id="B2_Level" data-name="B2 Level" cx="84.56" cy="234.57" r="8.5" style="fill: #ff0080"/>
    <circle id="B1_Level" data-name="B1 Level" cx="31.64" cy="234.57" r="8.5" style="fill: #ff0080"/>
    <circle id="A4_Button" data-name="A4 Button" cx="352.25" cy="195.69" r="10.63" style="fill: #ff8000"/>
    <circle id="A3_Button" data-name="A3 Button" cx="313.37" cy="195.69" r="10.63" style="fill: #ff8000"/>
    <circle id="A2_Button" data-name="A2 Button" cx="274.49" cy="195.69" r="10.63" style="fill: #ff8000"/>
    <circle id="A1_Button" data-name="A1 Button" cx="235.61" cy="195.69" r="10.63" style="fill: #ff8000"/>
    <circle id="A4_Level" data-name="A4 Level" cx="190.4" cy="195.5" r="8.5" style="fill: #ff0080"/>
    <circle id="A3_Level" data-name="A3 Level" cx="137.48" cy="195.5" r="8.5" style="fill: #ff0080"/>
    <circle id="A2_Level" data-name="A2 Level" cx="84.56" cy="195.5" r="8.5" style="fill: #ff0080"/>
    <circle id="A1_Level" data-name="A1 Level" cx="31.64" cy="195.5" r="8.5" style="fill: #ff0080"/>
    <circle id="D4_Jack" data-name="D4 Jack" cx="310.84" cy="157.41" r="11.34" style="fill: lime"/>
    <circle id="D3_Jack" data-name="D3 Jack" cx="240.27" cy="157.41" r="11.34" style="fill: lime"/>
    <circle id="D2_Jack" data-name="D2 Jack" cx="169.75" cy="157.41" r="11.34" style="fill: lime"/>
    <circle id="D1_Jack" data-name="D1 Jack" cx="99.08" cy="157.41" r="11.34" style="fill: lime"/>
    <circle id="In_D" data-name="In D" cx="55.57" cy="145.77" r="11.34" style="fill: lime"/>
    <circle id="C4_Jack" data-name="C4 Jack" cx="345.99" cy="127.73" r="11.34" style="fill: lime"/>
    <circle id="C3_Jack" data-name="C3 Jack" cx="275.43" cy="127.73" r="11.34" style="fill: lime"/>
    <circle id="C2_Jack" data-name="C2 Jack" cx="204.9" cy="127.73" r="11.34" style="fill: lime"/>
    <circle id="C1_Jack" data-name="C1 Jack" cx="134.24" cy="127.73" r="11.34" style="fill: lime"/>
    <circle id="In_C" data-name="In C" cx="55.57" cy="110.46" r="11.34" style="fill: lime"/>
    <circle id="B4_Jack" data-name="B4 Jack" cx="310.84" cy="97.62" r="11.34" style="fill: lime"/>
    <circle id="B3_Jack" data-name="B3 Jack" cx="240.27" cy="97.62" r="11.34" style="fill: lime"/>
    <circle id="B2_Jack" data-name="B2 Jack" cx="169.75" cy="97.62" r="11.34" style="fill: lime"/>
    <circle id="B1_Jack" data-name="B1 Jack" cx="99.08" cy="97.62" r="11.34" style="fill: lime"/>
    <circle id="In_B" data-name="In B" cx="55.57" cy="74.29" r="11.34" style="fill: lime"/>
    <circle id="A4_Jack" data-name="A4 Jack" cx="345.99" cy="67.6" r="11.34" style="fill: lime"/>
    <circle id="A3_Jack" data-name="A3 Jack" cx="275.43" cy="67.6" r="11.34" style="fill: lime"/>
    <circle id="A2_Jack" data-name="A2 Jack" cx="204.9" cy="67.6" r="11.34" style="fill: lime"/>
    <circle id="A1_Jack" data-name="A1 Jack" cx="134.24" cy="67.6" r="11.34" style="fill: lime"/>
    <circle id="In_A" data-name="In A" cx="55.57" cy="37.91" r="11.34" style="fill: lime"/>
    <circle id="Out_4" data-name="Out 4" cx="310.76" cy="37.9" r="11.34" style="fill: blue"/>
    <circle id="Out_3" data-name="Out 3" cx="240.2" cy="37.9" r="11.34" style="fill: blue"/>
    <circle id="Out_2" data-name="Out 2" cx="169.64" cy="37.9" r="11.34" style="fill: blue"/>
    <circle id="Out_1" data-name="Out 1" cx="99.08" cy="37.9" r="11.34" style="fill: blue"/>
    <text id="slug" transform="translate(322.28 372.29)" style="font-size: 6px;font-family: MyriadPro-Regular, Myriad Pro">V<tspan x="3.35" y="0" style="letter-spacing: 0.004069010416666667em">C</tspan><tspan x="6.85" y="0" style="letter-spacing: -0.00390625em">A</tspan><tspan x="10.5" y="0">M</tspan></text>
    <text id="modulename" transform="translate(346.8 372.29)" style="font-size: 6px;font-family: MyriadPro-Regular, Myriad Pro">V<tspan x="3.35" y="0" style="letter-spacing: 0.004069010416666667em">C</tspan><tspan x="6.85" y="0">A </tspan><tspan x="11.8" y="0" style="letter-spacing: 0.005859375em">M</tspan><tspan x="16.66" y="0" style="letter-spacing: -0.00390625em">a</tspan><tspan x="19.52" y="0">t</tspan><tspan x="21.51" y="0" style="letter-spacing: 0.004069010416666667em">r</tspan><tspan x="23.5" y="0" style="letter-spacing: -0.00016276041666666666em">ix</tspan></text>
  </g>
</svg>
