<?xml version="1.0" encoding="UTF-8"?>
<svg xmlns="http://www.w3.org/2000/svg" width="81.34mm" height="130.49mm" viewBox="0 0 230.58 369.88">
  <g id="faceplate">
    <g id="Braids_ref" data-name="Braids ref">
      <line x1="172.31" y1="77.22" x2="155.08" y2="77.22" style="fill: none; stroke: #1d1d1b; stroke-dasharray: 0 0 .5 2; stroke-linecap: round; stroke-miterlimit: 10;"/>
      <path d="M114.24,289.34h30.88c1.57,0,2.84,1.27,2.84,2.84v4.26c0,1.57-1.27,2.84-2.84,2.84h-30.88c-1.57,0-2.84-1.27-2.84-2.84v-4.25c0-1.57,1.27-2.84,2.84-2.84Z" style="fill: #0094a0; stroke-width: 0px;"/>
      <rect x="150.34" y="289.34" width="31.05" height="9.93" rx="2.84" ry="2.84" style="fill: #d83559; stroke-width: 0px;"/>
      <rect x="193.28" y="285.37" width="31.72" height="45.84" rx="2.84" ry="2.84" style="fill: #6f6f6e; stroke-width: 0px;"/>
      <path d="M171.56,257.55h40.59c1.57,0,2.84,1.27,2.84,2.84v5.68c0,1.57-1.27,2.84-2.84,2.84h-40.59c-1.57,0-2.84-1.27-2.84-2.84v-5.68c0-1.57,1.27-2.84,2.84-2.84Z" style="fill: #d83559; stroke-width: 0px;"/>
      <path d="M89.16,257.55h52.16c1.57,0,2.84,1.27,2.84,2.84v5.68c0,1.57-1.27,2.84-2.84,2.84h-52.16c-1.57,0-2.84-1.27-2.84-2.84v-5.68c0-1.57,1.27-2.84,2.84-2.84Z" style="fill: #0094a0; stroke-width: 0px;"/>
      <path d="M19.51,257.55h40.59c1.57,0,2.84,1.27,2.84,2.84v5.68c0,1.57-1.27,2.84-2.84,2.84H19.51c-1.57,0-2.84-1.27-2.84-2.84v-5.68c0-1.57,1.27-2.84,2.84-2.84Z" style="fill: #0094a0; stroke-width: 0px;"/>
      <path d="M17.44,355.88c0,2.5,2.03,4.54,4.54,4.54s4.54-2.03,4.54-4.54-2.03-4.54-4.54-4.54-4.54,2.03-4.54,4.54" style="fill: none; stroke: #e5332d; stroke-miterlimit: 10; stroke-width: .25px;"/>
      <path d="M17.44,8.63c0,2.5,2.03,4.53,4.54,4.53s4.54-2.03,4.54-4.53-2.03-4.54-4.54-4.54-4.54,2.03-4.54,4.54" style="fill: none; stroke: #e5332d; stroke-miterlimit: 10; stroke-width: .25px;"/>
      <path d="M204.64,355.88c0,2.5,2.03,4.54,4.54,4.54s4.53-2.03,4.53-4.54-2.03-4.54-4.53-4.54-4.54,2.03-4.54,4.54" style="fill: none; stroke: #e5332d; stroke-miterlimit: 10; stroke-width: .25px;"/>
      <path d="M204.64,8.63c0,2.5,2.03,4.53,4.54,4.53s4.53-2.03,4.53-4.53-2.03-4.54-4.53-4.54-4.54,2.03-4.54,4.54" style="fill: none; stroke: #e5332d; stroke-miterlimit: 10; stroke-width: .25px;"/>
      <rect x=".71" y=".12" width="229.33" height="364.26" style="fill: none; stroke: #e5332d; stroke-miterlimit: 10; stroke-width: .25px;"/>
      <path d="M199.61,315.06c0,5.17,4.19,9.35,9.35,9.35s9.35-4.19,9.35-9.35-4.19-9.35-9.35-9.35-9.35,4.19-9.35,9.35" style="fill: none; stroke: #e5332d; stroke-miterlimit: 10; stroke-width: .25px;"/>
      <path d="M12.42,315.06c0,5.17,4.19,9.35,9.35,9.35s9.35-4.19,9.35-9.35-4.19-9.36-9.35-9.36-9.35,4.19-9.35,9.36" style="fill: none; stroke: #e5332d; stroke-miterlimit: 10; stroke-width: .25px;"/>
      <path d="M48.42,315.06c0,5.17,4.19,9.35,9.36,9.35s9.35-4.19,9.35-9.35-4.19-9.36-9.35-9.36-9.36,4.19-9.36,9.36" style="fill: none; stroke: #e5332d; stroke-miterlimit: 10; stroke-width: .25px;"/>
      <path d="M84.42,315.06c0,5.17,4.19,9.35,9.36,9.35s9.35-4.19,9.35-9.35-4.19-9.36-9.35-9.36-9.36,4.19-9.36,9.36" style="fill: none; stroke: #e5332d; stroke-miterlimit: 10; stroke-width: .25px;"/>
      <path d="M120.42,315.06c0,5.17,4.19,9.35,9.35,9.35s9.35-4.19,9.35-9.35-4.19-9.35-9.35-9.35-9.35,4.19-9.35,9.35" style="fill: none; stroke: #e5332d; stroke-miterlimit: 10; stroke-width: .25px;"/>
      <path d="M156.43,315.06c0,5.17,4.19,9.35,9.35,9.35s9.35-4.19,9.35-9.35-4.19-9.36-9.35-9.36-9.35,4.19-9.35,9.36" style="fill: none; stroke: #e5332d; stroke-miterlimit: 10; stroke-width: .25px;"/>
      <path d="M29.15,230.46c0,5.87,4.76,10.63,10.63,10.63s10.63-4.76,10.63-10.63-4.76-10.63-10.63-10.63-10.63,4.76-10.63,10.63" style="fill: none; stroke: #e5332d; stroke-miterlimit: 10; stroke-width: .25px;"/>
      <path d="M104.75,230.46c0,5.87,4.76,10.63,10.63,10.63s10.63-4.76,10.63-10.63-4.76-10.63-10.63-10.63-10.63,4.76-10.63,10.63" style="fill: none; stroke: #e5332d; stroke-miterlimit: 10; stroke-width: .25px;"/>
      <path d="M180.35,230.46c0,5.87,4.76,10.63,10.63,10.63s10.63-4.76,10.63-10.63-4.76-10.63-10.63-10.63-10.63,4.76-10.63,10.63" style="fill: none; stroke: #e5332d; stroke-miterlimit: 10; stroke-width: .25px;"/>
      <path d="M29.15,154.86c0,5.87,4.76,10.63,10.63,10.63s10.63-4.76,10.63-10.63-4.76-10.63-10.63-10.63-10.63,4.76-10.63,10.63" style="fill: none; stroke: #e5332d; stroke-miterlimit: 10; stroke-width: .25px;"/>
      <path d="M104.75,154.86c0,5.87,4.76,10.63,10.63,10.63s10.63-4.76,10.63-10.63-4.76-10.63-10.63-10.63-10.63,4.76-10.63,10.63" style="fill: none; stroke: #e5332d; stroke-miterlimit: 10; stroke-width: .25px;"/>
      <path d="M180.35,154.86c0,5.87,4.76,10.63,10.63,10.63s10.63-4.76,10.63-10.63-4.76-10.63-10.63-10.63-10.63,4.76-10.63,10.63" style="fill: none; stroke: #e5332d; stroke-miterlimit: 10; stroke-width: .25px;"/>
      <line x1="13.69" y1="98.8" x2="13.73" y2="57.01" style="fill: none; stroke: #e5332d; stroke-miterlimit: 10; stroke-width: .25px;"/>
      <line x1="19.4" y1="51.35" x2="150.2" y2="51.35" style="fill: none; stroke: #e5332d; stroke-miterlimit: 10; stroke-width: .25px;"/>
      <line x1="155.87" y1="57.02" x2="155.87" y2="98.8" style="fill: none; stroke: #e5332d; stroke-miterlimit: 10; stroke-width: .25px;"/>
      <line x1="150.2" y1="104.47" x2="19.36" y2="104.47" style="fill: none; stroke: #e5332d; stroke-miterlimit: 10; stroke-width: .25px;"/>
      <path d="M180.35,77.46c0,5.87,4.76,10.63,10.63,10.63s10.63-4.76,10.63-10.63-4.76-10.63-10.63-10.63-10.63,4.76-10.63,10.63" style="fill: none; stroke: #e5332d; stroke-miterlimit: 10; stroke-width: .25px;"/>
      <path d="M13.69,98.8c0,3.13,2.53,5.67,5.66,5.68h0" style="fill: none; stroke: #e5332d; stroke-miterlimit: 10; stroke-width: .25px;"/>
      <path d="M19.4,51.35c-3.13,0-5.67,2.53-5.67,5.66" style="fill: none; stroke: #e5332d; stroke-miterlimit: 10; stroke-width: .25px;"/>
      <path d="M155.87,57.02c0-3.13-2.54-5.67-5.67-5.67" style="fill: none; stroke: #e5332d; stroke-miterlimit: 10; stroke-width: .25px;"/>
      <path d="M150.2,104.47c3.13,0,5.67-2.54,5.67-5.67" style="fill: none; stroke: #e5332d; stroke-miterlimit: 10; stroke-width: .25px;"/>
      <rect x="6.92" y="336.82" width="218.08" height="2" style="fill: #c6c6c5; stroke-width: 0px;"/>
      <rect x="6.92" y="277.72" width="218.08" height="2" style="fill: #c6c6c5; stroke-width: 0px;"/>
      <path d="M182.4,128.98c0,2.24-1.82,4.06-4.06,4.06s-4.06-1.82-4.06-4.06,1.82-4.06,4.06-4.06,4.06,1.82,4.06,4.06" style="fill: #232020; stroke-width: 0px;"/>
      <path d="M209.44,128.98c0,2.24-1.82,4.06-4.06,4.06s-4.06-1.82-4.06-4.06,1.82-4.06,4.06-4.06,4.06,1.82,4.06,4.06" style="fill: #232020; stroke-width: 0px;"/>
      <polygon points="205.97 129.57 205.97 131.11 204.79 131.11 204.79 129.57 203.24 129.57 203.24 128.4 204.79 128.4 204.79 126.86 205.97 126.86 205.97 128.4 207.51 128.4 207.51 129.57 205.97 129.57" style="fill: #fff; stroke-width: 0px;"/>
      <rect x="176.48" y="128.26" width="3.71" height="1.46" style="fill: #fff; stroke-width: 0px;"/>
      <path d="M106.37,204.63c0,2.24-1.82,4.06-4.06,4.06s-4.06-1.82-4.06-4.06,1.82-4.06,4.06-4.06,4.06,1.82,4.06,4.06" style="fill: #232020; stroke-width: 0px;"/>
      <path d="M133.42,204.63c0,2.24-1.82,4.06-4.06,4.06s-4.06-1.82-4.06-4.06,1.82-4.06,4.06-4.06,4.06,1.82,4.06,4.06" style="fill: #232020; stroke-width: 0px;"/>
      <polygon points="129.95 205.22 129.95 206.76 128.77 206.76 128.77 205.22 127.22 205.22 127.22 204.04 128.77 204.04 128.77 202.5 129.95 202.5 129.95 204.04 131.49 204.04 131.49 205.22 129.95 205.22" style="fill: #fff; stroke-width: 0px;"/>
      <rect x="100.46" y="203.9" width="3.71" height="1.46" style="fill: #fff; stroke-width: 0px;"/>
      <g>
        <path d="M182.99,110.09v-5.7h3.76v.99h-2.64v1.34h2.25v.99h-2.25v1.39h2.64v.99h-3.76Z" style="fill: #232020; stroke-width: 0px;"/>
        <path d="M191.4,109.55c-.38.38-.91.54-1.51.54h-2.06v-5.7h2.06c.59,0,1.13.17,1.51.54.64.64.58,1.43.58,2.28s.06,1.69-.58,2.33ZM190.62,105.73c-.19-.23-.45-.35-.83-.35h-.84v3.72h.84c.38,0,.64-.12.83-.35.21-.26.24-.66.24-1.53s-.03-1.23-.24-1.48Z" style="fill: #232020; stroke-width: 0px;"/>
        <path d="M193.11,110.09v-5.7h1.11v5.7h-1.11Z" style="fill: #232020; stroke-width: 0px;"/>
        <path d="M197.73,105.38v4.71h-1.11v-4.71h-1.49v-.99h4.09v.99h-1.49Z" style="fill: #232020; stroke-width: 0px;"/>
      </g>
      <g>
        <path d="M188.02,184.41v1.4h2.25v.99h-2.25v2.32h-1.11v-5.7h3.76v.99h-2.64Z" style="fill: #232020; stroke-width: 0px;"/>
        <path d="M195.69,189.12v-3.32l-1.09,2.16h-.75l-1.1-2.16v3.32h-1.11v-5.7h1.1l1.49,3.08,1.48-3.08h1.1v5.7h-1.11Z" style="fill: #232020; stroke-width: 0px;"/>
      </g>
      <g>
        <path d="M102.96,189.17c-.61,0-1.12-.21-1.54-.62-.25-.25-.4-.54-.46-.86-.06-.32-.1-.79-.1-1.42s.03-1.1.1-1.42c.06-.33.22-.61.46-.86.42-.42.93-.62,1.54-.62,1.1,0,1.91.64,2.1,1.8h-1.13c-.12-.49-.42-.81-.96-.81-.3,0-.54.1-.71.3-.23.25-.28.5-.28,1.61s.05,1.36.28,1.61c.17.2.41.3.71.3.54,0,.84-.32.96-.81h1.13c-.19,1.16-1.01,1.8-2.1,1.8Z" style="fill: #232020; stroke-width: 0px;"/>
        <path d="M109.21,188.54c-.4.4-.89.62-1.54.62s-1.15-.22-1.55-.62c-.58-.58-.56-1.29-.56-2.27s-.02-1.7.56-2.28c.4-.4.9-.62,1.55-.62s1.14.22,1.54.62c.58.58.57,1.29.57,2.28s0,1.7-.57,2.27ZM108.39,184.67c-.16-.18-.41-.3-.71-.3s-.56.12-.72.3c-.22.24-.27.5-.27,1.6s.06,1.36.27,1.6c.16.18.42.3.72.3s.55-.12.71-.3c.22-.24.28-.5.28-1.6s-.06-1.36-.28-1.6Z" style="fill: #232020; stroke-width: 0px;"/>
        <path d="M114.09,189.12l-.34-1.01h-2.03l-.34,1.01h-1.16l2.07-5.7h.87l2.08,5.7h-1.16ZM112.76,185.1l-.72,2.08h1.42l-.7-2.08Z" style="fill: #232020; stroke-width: 0px;"/>
        <path d="M118.98,189.12l-1.11-2.28h-.8v2.28h-1.11v-5.7h2.23c1.16,0,1.85.79,1.85,1.75,0,.8-.49,1.3-1.04,1.5l1.27,2.46h-1.29ZM118.12,184.41h-1.05v1.51h1.05c.49,0,.81-.31.81-.75s-.32-.75-.81-.75Z" style="fill: #232020; stroke-width: 0px;"/>
        <path d="M122.76,189.17c-.87,0-1.52-.18-2.08-.75l.72-.72c.36.36.85.48,1.38.48.66,0,1.01-.25,1.01-.7,0-.2-.06-.37-.18-.48-.11-.1-.24-.16-.5-.2l-.69-.1c-.49-.07-.85-.22-1.11-.47-.27-.27-.41-.64-.41-1.12,0-1.02.75-1.73,1.99-1.73.79,0,1.35.19,1.84.66l-.7.7c-.36-.34-.79-.39-1.17-.39-.59,0-.88.33-.88.72,0,.14.05.3.17.41.11.1.3.19.53.22l.67.1c.52.07.85.22,1.09.44.3.29.44.7.44,1.21,0,1.11-.92,1.73-2.11,1.73Z" style="fill: #232020; stroke-width: 0px;"/>
        <path d="M125.93,189.12v-5.7h3.76v.99h-2.64v1.34h2.25v.99h-2.25v1.39h2.64v.99h-3.76Z" style="fill: #232020; stroke-width: 0px;"/>
      </g>
      <g>
        <path d="M32.73,184.41v1.4h2.25v.99h-2.25v2.32h-1.11v-5.7h3.76v.99h-2.64Z" style="fill: #232020; stroke-width: 0px;"/>
        <path d="M36.34,189.12v-5.7h1.11v5.7h-1.11Z" style="fill: #232020; stroke-width: 0px;"/>
        <path d="M42.16,189.12l-2.26-3.5v3.5h-1.11v-5.7h.99l2.26,3.49v-3.49h1.11v5.7h-.99Z" style="fill: #232020; stroke-width: 0px;"/>
        <path d="M44.48,189.12v-5.7h3.76v.99h-2.64v1.34h2.25v.99h-2.25v1.39h2.64v.99h-3.76Z" style="fill: #232020; stroke-width: 0px;"/>
      </g>
      <g>
        <path d="M182.1,265.96c-.61,0-1.12-.21-1.54-.62-.25-.25-.4-.54-.46-.86-.06-.32-.1-.79-.1-1.42s.03-1.1.1-1.42c.06-.33.22-.61.46-.86.42-.42.93-.62,1.54-.62,1.1,0,1.91.64,2.1,1.8h-1.13c-.12-.49-.42-.81-.96-.81-.3,0-.54.1-.71.3-.23.25-.28.5-.28,1.61s.05,1.36.28,1.61c.17.2.41.3.71.3.54,0,.84-.32.96-.81h1.13c-.19,1.16-1.01,1.8-2.1,1.8Z" style="fill: #fff; stroke-width: 0px;"/>
        <path d="M188.35,265.34c-.4.4-.89.62-1.54.62s-1.15-.22-1.55-.62c-.58-.58-.56-1.29-.56-2.27s-.02-1.7.56-2.28c.4-.4.9-.62,1.55-.62s1.14.22,1.54.62c.58.58.57,1.29.57,2.28s0,1.7-.57,2.27ZM187.53,261.46c-.16-.18-.41-.3-.71-.3s-.56.12-.72.3c-.22.24-.27.5-.27,1.6s.06,1.36.27,1.6c.16.18.42.3.72.3s.55-.12.71-.3c.22-.24.28-.5.28-1.6s-.06-1.36-.28-1.6Z" style="fill: #fff; stroke-width: 0px;"/>
        <path d="M190.06,265.91v-5.7h1.11v4.71h2.59v.99h-3.7Z" style="fill: #fff; stroke-width: 0px;"/>
        <path d="M197.91,265.34c-.4.4-.89.62-1.54.62s-1.15-.22-1.55-.62c-.58-.58-.56-1.29-.56-2.27s-.02-1.7.56-2.28c.4-.4.9-.62,1.55-.62s1.14.22,1.54.62c.58.58.57,1.29.57,2.28s0,1.7-.57,2.27ZM197.08,261.46c-.16-.18-.41-.3-.71-.3s-.56.12-.72.3c-.22.24-.27.5-.27,1.6s.06,1.36.27,1.6c.16.18.42.3.72.3s.55-.12.71-.3c.22-.24.28-.5.28-1.6s-.06-1.36-.28-1.6Z" style="fill: #fff; stroke-width: 0px;"/>
        <path d="M202.64,265.91l-1.11-2.28h-.8v2.28h-1.11v-5.7h2.24c1.16,0,1.85.79,1.85,1.75,0,.8-.49,1.3-1.04,1.5l1.27,2.46h-1.29ZM201.77,261.2h-1.05v1.51h1.05c.49,0,.81-.31.81-.75s-.32-.75-.81-.75Z" style="fill: #fff; stroke-width: 0px;"/>
      </g>
      <g>
        <path d="M95.27,265.91v-3.32l-1.09,2.16h-.75l-1.1-2.16v3.32h-1.11v-5.7h1.1l1.49,3.08,1.48-3.08h1.1v5.7h-1.11Z" style="fill: #fff; stroke-width: 0px;"/>
        <path d="M101.16,265.34c-.4.4-.89.62-1.54.62s-1.15-.22-1.55-.62c-.58-.58-.56-1.29-.56-2.27s-.02-1.7.56-2.28c.4-.4.9-.62,1.55-.62s1.14.22,1.54.62c.58.58.57,1.29.57,2.28s0,1.7-.57,2.27ZM100.34,261.46c-.16-.18-.41-.3-.71-.3s-.56.12-.72.3c-.22.24-.27.5-.27,1.6s.06,1.36.27,1.6c.16.18.42.3.72.3s.55-.12.71-.3c.22-.24.28-.5.28-1.6s-.06-1.36-.28-1.6Z" style="fill: #fff; stroke-width: 0px;"/>
        <path d="M106.43,265.37c-.38.38-.91.54-1.51.54h-2.06v-5.7h2.06c.59,0,1.13.17,1.51.54.64.64.58,1.43.58,2.28s.06,1.69-.58,2.33ZM105.66,261.56c-.19-.23-.45-.35-.83-.35h-.84v3.72h.84c.38,0,.64-.12.83-.35.21-.26.24-.66.24-1.53s-.03-1.23-.24-1.48Z" style="fill: #fff; stroke-width: 0px;"/>
        <path d="M110.16,265.96c-1.17,0-2.1-.79-2.1-2v-3.75h1.11v3.71c0,.66.38,1.05.99,1.05s.99-.39.99-1.05v-3.71h1.11v3.75c0,1.21-.93,2-2.1,2Z" style="fill: #fff; stroke-width: 0px;"/>
        <path d="M113.5,265.91v-5.7h1.11v4.71h2.59v.99h-3.7Z" style="fill: #fff; stroke-width: 0px;"/>
        <path d="M121.35,265.91l-.34-1.01h-2.03l-.34,1.01h-1.16l2.07-5.7h.87l2.08,5.7h-1.16ZM120.02,261.89l-.72,2.08h1.42l-.7-2.08Z" style="fill: #fff; stroke-width: 0px;"/>
        <path d="M124.91,261.2v4.71h-1.11v-4.71h-1.49v-.99h4.09v.99h-1.49Z" style="fill: #fff; stroke-width: 0px;"/>
        <path d="M127.3,265.91v-5.7h1.11v5.7h-1.11Z" style="fill: #fff; stroke-width: 0px;"/>
        <path d="M133.2,265.34c-.4.4-.89.62-1.54.62s-1.15-.22-1.55-.62c-.58-.58-.56-1.29-.56-2.27s-.02-1.7.56-2.28c.4-.4.9-.62,1.55-.62s1.14.22,1.54.62c.58.58.57,1.29.57,2.28s0,1.7-.57,2.27ZM132.37,261.46c-.16-.18-.41-.3-.71-.3s-.56.12-.72.3c-.22.24-.27.5-.27,1.6s.06,1.36.27,1.6c.16.18.42.3.72.3s.55-.12.71-.3c.22-.24.28-.5.28-1.6s-.06-1.36-.28-1.6Z" style="fill: #fff; stroke-width: 0px;"/>
        <path d="M138.27,265.91l-2.26-3.5v3.5h-1.11v-5.7h.99l2.26,3.49v-3.49h1.11v5.7h-.99Z" style="fill: #fff; stroke-width: 0px;"/>
      </g>
      <g>
        <path d="M28.22,261.2v4.71h-1.11v-4.71h-1.49v-.99h4.09v.99h-1.49Z" style="fill: #fff; stroke-width: 0px;"/>
        <path d="M30.62,265.91v-5.7h1.11v5.7h-1.11Z" style="fill: #fff; stroke-width: 0px;"/>
        <path d="M37.11,265.91v-3.32l-1.09,2.16h-.75l-1.1-2.16v3.32h-1.11v-5.7h1.1l1.49,3.08,1.48-3.08h1.1v5.7h-1.11Z" style="fill: #fff; stroke-width: 0px;"/>
        <path d="M41.94,265.91h-2.39v-5.7h2.29c1.11,0,1.76.62,1.76,1.6,0,.63-.42,1.04-.7,1.18.34.16.78.52.78,1.28,0,1.07-.73,1.64-1.75,1.64ZM41.76,261.2h-1.09v1.31h1.09c.47,0,.74-.26.74-.66s-.26-.66-.74-.66ZM41.83,263.52h-1.16v1.4h1.16c.5,0,.75-.32.75-.7s-.24-.7-.75-.7Z" style="fill: #fff; stroke-width: 0px;"/>
        <path d="M47.85,265.91l-1.11-2.28h-.8v2.28h-1.11v-5.7h2.23c1.16,0,1.85.79,1.85,1.75,0,.8-.49,1.3-1.04,1.5l1.27,2.46h-1.29ZM46.98,261.2h-1.05v1.51h1.05c.49,0,.81-.31.81-.75s-.32-.75-.81-.75Z" style="fill: #fff; stroke-width: 0px;"/>
        <path d="M50.06,265.91v-5.7h3.76v.99h-2.64v1.34h2.25v.99h-2.25v1.39h2.64v.99h-3.76Z" style="fill: #fff; stroke-width: 0px;"/>
      </g>
      <g>
        <path d="M16.65,292.58v4.71h-1.11v-4.71h-1.49v-.99h4.09v.99h-1.49Z" style="fill: #000; stroke-width: 0px;"/>
        <path d="M22.07,297.29l-1.11-2.28h-.8v2.28h-1.11v-5.7h2.23c1.16,0,1.85.79,1.85,1.75,0,.8-.49,1.3-1.04,1.5l1.27,2.46h-1.29ZM21.21,292.58h-1.05v1.51h1.05c.49,0,.81-.31.81-.75s-.32-.75-.81-.75Z" style="fill: #000; stroke-width: 0px;"/>
        <path d="M24.28,297.29v-5.7h1.11v5.7h-1.11Z" style="fill: #000; stroke-width: 0px;"/>
        <path d="M30.24,296.69c-.44.45-.97.65-1.61.65s-1.12-.21-1.54-.62c-.25-.25-.4-.54-.46-.86-.06-.32-.1-.79-.1-1.42s.03-1.1.1-1.42c.06-.33.22-.61.46-.86.42-.42.93-.62,1.54-.62,1.3,0,2,.83,2.15,1.83h-1.12c-.14-.55-.47-.83-1.03-.83-.3,0-.54.1-.71.3-.21.26-.27.47-.27,1.6s.05,1.35.27,1.61c.17.2.41.3.71.3.33,0,.59-.1.79-.32.17-.19.26-.45.26-.76v-.22h-1.05v-.93h2.16v.83c0,.83-.15,1.32-.54,1.74Z" style="fill: #000; stroke-width: 0px;"/>
      </g>
      <g>
        <path d="M49.22,297.29h-.83l-1.88-5.7h1.15l1.15,3.72,1.15-3.72h1.16l-1.89,5.7Z" style="fill: #000; stroke-width: 0px;"/>
        <path d="M52.11,297.88h-.98l2.28-6.89h.98l-2.28,6.89Z" style="fill: #000; stroke-width: 0px;"/>
        <path d="M58.48,296.71c-.4.4-.89.62-1.54.62s-1.15-.22-1.55-.62c-.58-.58-.56-1.29-.56-2.27s-.02-1.7.56-2.28c.4-.4.9-.62,1.55-.62s1.14.22,1.54.62c.58.58.57,1.29.57,2.28s0,1.7-.57,2.27ZM57.65,292.84c-.16-.18-.41-.3-.71-.3s-.56.12-.72.3c-.22.24-.27.5-.27,1.6s.06,1.36.27,1.6c.16.18.42.3.72.3s.55-.12.71-.3c.22-.24.28-.5.28-1.6s-.06-1.36-.28-1.6Z" style="fill: #000; stroke-width: 0px;"/>
        <path d="M62.09,297.34c-.61,0-1.12-.21-1.54-.62-.25-.25-.4-.54-.46-.86-.06-.32-.1-.79-.1-1.42s.03-1.1.1-1.42c.06-.33.22-.61.46-.86.42-.42.93-.62,1.54-.62,1.1,0,1.91.64,2.1,1.8h-1.13c-.12-.49-.42-.81-.96-.81-.3,0-.54.1-.71.3-.23.25-.28.5-.28,1.61s.05,1.36.28,1.61c.17.2.41.3.71.3.54,0,.84-.32.96-.81h1.13c-.19,1.16-1.01,1.8-2.1,1.8Z" style="fill: #000; stroke-width: 0px;"/>
        <path d="M67.17,292.58v4.71h-1.11v-4.71h-1.49v-.99h4.09v.99h-1.49Z" style="fill: #000; stroke-width: 0px;"/>
      </g>
      <g>
        <path d="M89.25,292.58v1.4h2.25v.99h-2.25v2.32h-1.11v-5.7h3.76v.99h-2.64Z" style="fill: #000; stroke-width: 0px;"/>
        <path d="M96.91,297.29v-3.32l-1.09,2.16h-.75l-1.1-2.16v3.32h-1.11v-5.7h1.1l1.49,3.08,1.48-3.08h1.1v5.7h-1.11Z" style="fill: #000; stroke-width: 0px;"/>
      </g>
      <g>
        <path d="M118.09,292.58v4.71h-1.11v-4.71h-1.49v-.99h4.09v.99h-1.49Z" style="fill: #fff; stroke-width: 0px;"/>
        <path d="M120.49,297.29v-5.7h1.11v5.7h-1.11Z" style="fill: #fff; stroke-width: 0px;"/>
        <path d="M126.98,297.29v-3.32l-1.09,2.16h-.75l-1.1-2.16v3.32h-1.11v-5.7h1.1l1.49,3.08,1.48-3.08h1.1v5.7h-1.11Z" style="fill: #fff; stroke-width: 0px;"/>
        <path d="M131.81,297.29h-2.39v-5.7h2.29c1.11,0,1.76.62,1.76,1.6,0,.63-.42,1.04-.7,1.18.34.16.79.52.79,1.28,0,1.07-.73,1.64-1.75,1.64ZM131.63,292.58h-1.09v1.31h1.09c.47,0,.74-.26.74-.66s-.26-.66-.74-.66ZM131.7,294.9h-1.16v1.4h1.16c.5,0,.74-.32.74-.71s-.24-.7-.74-.7Z" style="fill: #fff; stroke-width: 0px;"/>
        <path d="M137.72,297.29l-1.11-2.28h-.8v2.28h-1.11v-5.7h2.24c1.16,0,1.85.79,1.85,1.75,0,.8-.49,1.3-1.04,1.5l1.27,2.46h-1.29ZM136.86,292.58h-1.05v1.51h1.05c.49,0,.81-.31.81-.75s-.32-.75-.81-.75Z" style="fill: #fff; stroke-width: 0px;"/>
        <path d="M139.93,297.29v-5.7h3.76v.99h-2.64v1.34h2.25v.99h-2.25v1.39h2.64v.99h-3.76Z" style="fill: #fff; stroke-width: 0px;"/>
      </g>
      <g>
        <path d="M156.1,297.34c-.61,0-1.12-.21-1.54-.62-.25-.25-.4-.54-.46-.86-.06-.32-.1-.79-.1-1.42s.03-1.1.1-1.42c.06-.33.22-.61.46-.86.42-.42.93-.62,1.54-.62,1.1,0,1.91.64,2.1,1.8h-1.13c-.12-.49-.42-.81-.96-.81-.3,0-.54.1-.71.3-.23.25-.28.5-.28,1.61s.05,1.36.28,1.61c.17.2.41.3.71.3.54,0,.84-.32.96-.81h1.13c-.19,1.16-1.01,1.8-2.1,1.8Z" style="fill: #fff; stroke-width: 0px;"/>
        <path d="M162.36,296.71c-.4.4-.89.62-1.54.62s-1.15-.22-1.55-.62c-.58-.58-.56-1.29-.56-2.27s-.02-1.7.56-2.28c.4-.4.9-.62,1.55-.62s1.14.22,1.54.62c.58.58.57,1.29.57,2.28s0,1.7-.57,2.27ZM161.53,292.84c-.16-.18-.41-.3-.71-.3s-.56.12-.72.3c-.22.24-.27.5-.27,1.6s.06,1.36.27,1.6c.16.18.42.3.72.3s.55-.12.71-.3c.22-.24.28-.5.28-1.6s-.06-1.36-.28-1.6Z" style="fill: #fff; stroke-width: 0px;"/>
        <path d="M164.06,297.29v-5.7h1.11v4.71h2.59v.99h-3.7Z" style="fill: #fff; stroke-width: 0px;"/>
        <path d="M171.92,296.71c-.4.4-.89.62-1.54.62s-1.15-.22-1.55-.62c-.58-.58-.56-1.29-.56-2.27s-.02-1.7.56-2.28c.4-.4.9-.62,1.55-.62s1.14.22,1.54.62c.58.58.57,1.29.57,2.28s0,1.7-.57,2.27ZM171.09,292.84c-.16-.18-.41-.3-.71-.3s-.56.12-.72.3c-.22.24-.27.5-.27,1.6s.06,1.36.27,1.6c.16.18.42.3.72.3s.55-.12.71-.3c.22-.24.28-.5.28-1.6s-.06-1.36-.28-1.6Z" style="fill: #fff; stroke-width: 0px;"/>
        <path d="M176.65,297.29l-1.11-2.28h-.8v2.28h-1.11v-5.7h2.24c1.16,0,1.85.79,1.85,1.75,0,.8-.49,1.3-1.04,1.5l1.27,2.46h-1.29ZM175.79,292.58h-1.05v1.51h1.05c.49,0,.81-.31.81-.75s-.32-.75-.81-.75Z" style="fill: #fff; stroke-width: 0px;"/>
      </g>
      <g>
        <path d="M205.28,296.71c-.4.4-.89.62-1.54.62s-1.15-.22-1.55-.62c-.58-.58-.56-1.29-.56-2.27s-.02-1.7.56-2.28c.4-.4.9-.62,1.55-.62s1.14.22,1.54.62c.58.58.57,1.29.57,2.28s0,1.7-.57,2.27ZM204.45,292.84c-.16-.18-.41-.3-.71-.3s-.56.12-.72.3c-.22.24-.27.5-.27,1.6s.06,1.36.27,1.6c.16.18.42.3.72.3s.55-.12.71-.3c.22-.24.28-.5.28-1.6s-.06-1.36-.28-1.6Z" style="fill: #fff; stroke-width: 0px;"/>
        <path d="M208.99,297.34c-1.17,0-2.1-.79-2.1-2v-3.75h1.11v3.71c0,.66.38,1.05.99,1.05s.99-.39.99-1.05v-3.71h1.11v3.75c0,1.21-.93,2-2.1,2Z" style="fill: #fff; stroke-width: 0px;"/>
        <path d="M214.51,292.58v4.71h-1.11v-4.71h-1.49v-.99h4.09v.99h-1.49Z" style="fill: #fff; stroke-width: 0px;"/>
      </g>
    </g>
    <g id="panel">
      <g id="panel-2" data-name="panel">
        <rect x=".12" y=".26" width="230.15" height="364" style="fill: #eeeded; stroke-width: 0px;"/>
        <path d="M230.15.38v363.75H.25V.38h229.9M230.4.13H0v364.25h230.4V.13h0Z" style="fill: #9b9c9d; stroke-width: 0px;"/>
      </g>
    </g>
    <g id="art">
      <rect x=".12" y="18.32" width="230.46" height="14.17" style="fill: #010101; stroke-width: 0px;"/>
      <rect x="18.52" y="255.65" width="42.52" height="14.17" style="fill: #3babec; stroke-width: 0px;"/>
      <rect x="110.05" y="329.69" width="36.28" height="11.34" style="fill: #3babec; stroke-width: 0px;"/>
      <rect x="87.03" y="255.65" width="56.69" height="14.17" style="fill: #3babec; stroke-width: 0px;"/>
      <path d="M210.18,298.8c8,0,14.48,6.52,14.48,14.55v24.71c0,3.36-2.97,6.09-6.64,6.09h-10.37s1.99,0,1.99,0h-17.01v-30.8c0-8.04,6.49-14.55,14.48-14.55h3.06Z" style="fill: #000; stroke-width: 0px;"/>
      <path d="M6.44,312.93c.3-7.85,6.26-14.13,13.6-14.13h118.73s72.27,0,72.27,0c7.33,0,13.3,6.27,13.6,14.13l.06,5.77-.07,11.27.03-3.66v12.07c0,2.92-2.56,5.32-5.69,5.32h-12.98s-60.36,0-60.36,0h-13.7s-106.81,0-106.81,0h-12.98c-3.13,0-5.69-2.39-5.69-5.32v-12.07s.02-13.38.02-13.38Z" style="fill: none; stroke: #000; stroke-miterlimit: 10;"/>
      <rect x="149.22" y="329.69" width="36.28" height="11.34" style="fill: #ee6390; stroke-width: 0px;"/>
      <rect x="173.97" y="255.65" width="34.02" height="14.17" style="fill: #ee6390; stroke-width: 0px;"/>
      <line x1="185.56" y1="77.46" x2="148.75" y2="77.46" style="fill: none; stroke: #000; stroke-linecap: round; stroke-linejoin: round;"/>
      <path d="M158.55,121.17v17.5h17.5v-17.5h-17.5ZM172.13,131.53h-9.66v-3.22h9.66v3.22Z" style="fill: #000; stroke-width: 0px;"/>
      <path d="M205.92,121.17v17.5h17.5v-17.5h-17.5ZM220.3,131.16h-4.39v4.39h-2.49v-4.39h-4.39v-2.49h4.39v-4.39h2.49v4.39h4.39v2.49Z" style="fill: #000; stroke-width: 0px;"/>
      <line x1="190.74" y1="121.21" x2="190.74" y2="138.57" style="fill: none; stroke: #171717; stroke-miterlimit: 10; stroke-width: 3px;"/>
      <path d="M82.95,196.76v17.5h17.5v-17.5h-17.5ZM96.52,207.12h-9.66v-3.22h9.66v3.22Z" style="fill: #000; stroke-width: 0px;"/>
      <path d="M130.31,196.76v17.5h17.5v-17.5h-17.5ZM144.7,206.75h-4.39v4.39h-2.49v-4.39h-4.39v-2.49h4.39v-4.39h2.49v4.39h4.39v2.49Z" style="fill: #000; stroke-width: 0px;"/>
      <path d="M149.99,50.98H19.61c-3.12,0-5.65,2.57-5.65,5.74,0,0-.05,42.36-.05,42.36,0,3.17,2.52,5.75,5.65,5.75h130.43c3.12,0,5.65-2.57,5.65-5.75v-42.36c0-3.17-2.53-5.75-5.65-5.75Z" style="fill: #999; stroke-width: 0px;"/>
      <line x1="115.14" y1="196.8" x2="115.14" y2="214.16" style="fill: none; stroke: #171717; stroke-miterlimit: 10; stroke-width: 3px;"/>
    </g>
  </g>
  <g id="components">
    <circle id="Out" cx="208.97" cy="315.06" r="11.34" style="fill: blue; stroke-width: 0px;"/>
    <circle id="Color_CV" data-name="Color CV" cx="165.78" cy="315.06" r="11.34" style="fill: lime; stroke-width: 0px;"/>
    <circle id="Timbre_CV" data-name="Timbre CV" cx="129.78" cy="315.06" r="11.34" style="fill: lime; stroke-width: 0px;"/>
    <circle id="FM" cx="93.78" cy="315.06" r="11.34" style="fill: lime; stroke-width: 0px;"/>
    <circle id="V_Oct" data-name="V/Oct" cx="57.78" cy="315.06" r="11.34" style="fill: lime; stroke-width: 0px;"/>
    <circle id="Trig" cx="21.77" cy="315.06" r="11.34" style="fill: #80ff80; stroke-width: 0px;"/>
    <circle id="Edit_WhiteMediumKnob" data-name="Edit#WhiteMediumKnob" cx="190.98" cy="77.46" r="17.01" style="fill: #ff0040; stroke-width: 0px;"/>
    <circle id="Color_RedMediumKnob" data-name="Color#RedMediumKnob" cx="190.98" cy="230.46" r="17.01" style="fill: #ff0040; stroke-width: 0px;"/>
    <circle id="Modulation_BlueMediumKnob" data-name="Modulation#BlueMediumKnob" cx="115.38" cy="230.46" r="17.01" style="fill: #ff0040; stroke-width: 0px;"/>
    <circle id="Timbre_BlueMediumKnob" data-name="Timbre#BlueMediumKnob" cx="39.78" cy="230.46" r="17.01" style="fill: #ff0040; stroke-width: 0px;"/>
    <circle id="FM_WhiteMediumKnob" data-name="FM#WhiteMediumKnob" cx="190.98" cy="154.86" r="17.01" style="fill: #ff0040; stroke-width: 0px;"/>
    <circle id="Coarse_WhiteMediumKnob" data-name="Coarse#WhiteMediumKnob" cx="115.38" cy="154.86" r="17.01" style="fill: #ff0040; stroke-width: 0px;"/>
    <circle id="Fine_WhiteMediumKnob" data-name="Fine#WhiteMediumKnob" cx="39.78" cy="154.86" r="17.01" style="fill: #ff0040; stroke-width: 0px;"/>
    <text id="slug" transform="translate(163.96 369.13)" style="fill: #010101; font-family: MyriadPro-Regular, &apos;Myriad Pro&apos;; font-size: 3px;"><tspan x="0" y="0">B</tspan><tspan x="1.63" y="0" style="letter-spacing: 0em;">r</tspan><tspan x="2.59" y="0">aids</tspan></text>
    <text id="modulename" transform="translate(180.57 369.13)" style="fill: #010101; font-family: MyriadPro-Regular, &apos;Myriad Pro&apos;; font-size: 3px;"><tspan x="0" y="0" style="letter-spacing: 0em;">M</tspan><tspan x="2.43" y="0">ac</tspan><tspan x="5.22" y="0" style="letter-spacing: -.01em;">r</tspan><tspan x="6.17" y="0">o Oscill</tspan><tspan x="15.17" y="0" style="letter-spacing: 0em;">at</tspan><tspan x="17.58" y="0" style="letter-spacing: 0em;">or</tspan></text>
    <rect id="Screen_BraidsDisplay" data-name="Screen#BraidsDisplay" x="22.68" y="58.25" width="135.79" height="49.89" style="fill: #ff0; stroke-width: 0px;"/>
  </g>
</svg>