<?xml version="1.0" encoding="UTF-8"?>
<svg xmlns="http://www.w3.org/2000/svg" width="91.44mm" height="128.5mm" viewBox="0 0 259.2 364.25">
  <g id="faceplate">
    <g id="panel">
      <rect x=".13" y=".13" width="258.95" height="364" style="fill: #eeeded; stroke-width: 0px;"/>
      <path d="M258.95.25v363.75H.25V.25h258.7M259.2,0H0v364.25h259.2V0h0Z" style="fill: #9b9c9d; stroke-width: 0px;"/>
    </g>
    <path d="M187.44,343.52h47.28s12.42,0,12.42,0c2.69,0,4.87-2.31,4.87-5.13v-41.64h-66.62c-6.47,0-11.71,6.37-11.71,14.22v32.55h13.76Z" style="fill: #000; stroke-width: 0px;"/>
    <rect x="94.91" y="286.94" width="28.35" height="14.17" style="fill: #ee6390; stroke-width: 0px;"/>
    <rect x="94.91" y="327.74" width="28.35" height="14.17" style="fill: #ee6390; stroke-width: 0px;"/>
    <rect x="136.53" y="286.94" width="28.35" height="14.17" style="fill: #3babec; stroke-width: 0px;"/>
    <rect x="136.53" y="327.74" width="28.35" height="14.17" style="fill: #3babec; stroke-width: 0px;"/>
    <path d="M246.64,344.31H12.77c-3.4,0-6.17-2.63-6.17-5.87l.02-12.2-.06-51.04.06-5.84c.31-8.29,6.47-14.77,14.03-14.77h71.95s146.14,0,146.14,0c7.56,0,13.73,6.48,14.04,14.76l.02,69.09c0,3.24-2.77,5.87-6.17,5.87ZM7.6,329.94v8.5c0,2.69,2.32,4.87,5.17,4.87h233.87c2.85,0,5.17-2.19,5.17-4.87l-.02-69.06c-.29-7.73-6.02-13.79-13.04-13.79H92.61s-71.95,0-71.95,0c-7.02,0-12.75,6.06-13.03,13.8l-.06,5.82.04,54.74Z" style="fill: #000; stroke-width: 0px;"/>
    <g id="Layer_5" data-name="Layer 5">
      <rect x="71.15" y="76.32" width="45.35" height="14.17" style="fill: #ee6390; stroke-width: 0px;"/>
      <rect x="23.73" y="159.49" width="45.35" height="14.17" style="fill: #ee6390; stroke-width: 0px;"/>
      <rect x="115.5" y="159.32" width="28.35" height="14.17" style="fill: #3babec; stroke-width: 0px;"/>
      <rect x="136.29" y="76.32" width="45.35" height="14.17" style="fill: #ee6390; stroke-width: 0px;"/>
      <rect x="201.43" y="76.32" width="45.35" height="14.17" style="fill: #3babec; stroke-width: 0px;"/>
    </g>
    <line x1="30.46" y1="314.93" x2="59.65" y2="314.93" style="fill: none; stroke: #000; stroke-dasharray: 0 0 1 3; stroke-linecap: round; stroke-linejoin: round;"/>
    <rect y="18.19" width="259.2" height="14.17" style="fill: #010101; stroke-width: 0px;"/>
    <g id="text_check" data-name="text check">
      <text transform="translate(101.91 297.58) scale(.88 1)" style="fill: #fff; font-family: GillSans-Bold, &apos;Gill Sans&apos;; font-size: 10px; font-weight: 700; letter-spacing: -.04em;"><tspan x="0" y="0">Pos</tspan></text>
      <text transform="translate(98.94 338.38) scale(.88 1)" style="fill: #fff; font-family: GillSans-Bold, &apos;Gill Sans&apos;; font-size: 10px; font-weight: 700; letter-spacing: -.04em;"><tspan x="0" y="0">Dens</tspan></text>
      <text transform="translate(142.64 297.58) scale(.88 1)" style="fill: #fff; font-family: GillSans-Bold, &apos;Gill Sans&apos;; font-size: 10px; font-weight: 700; letter-spacing: -.04em;"><tspan x="0" y="0">Size</tspan></text>
      <text transform="translate(140.96 338.38) scale(.88 1)" style="fill: #fff; font-family: GillSans-Bold, &apos;Gill Sans&apos;; font-size: 10px; font-weight: 700; letter-spacing: -.04em;"><tspan x="0" y="0">Text</tspan></text>
      <text transform="translate(223.11 336.98) scale(.88 1)" style="fill: #ededed; font-family: GillSans-Bold, &apos;Gill Sans&apos;; font-size: 8px; font-weight: 700; letter-spacing: -.04em;"><tspan x="0" y="0">Out R</tspan></text>
      <text transform="translate(182.11 336.98) scale(.88 1)" style="fill: #ededed; font-family: GillSans-Bold, &apos;Gill Sans&apos;; font-size: 8px; font-weight: 700; letter-spacing: -.04em;"><tspan x="0" y="0">Out L</tspan></text>
      <text transform="translate(208.91 237.52) scale(.88 1)" style="fill: #000; font-family: GillSans-Bold, &apos;Gill Sans&apos;; font-size: 10px; font-weight: 700; letter-spacing: -.04em;"><tspan x="0" y="0">Reverb</tspan></text>
      <text transform="translate(141.13 237.52) scale(.88 1)" style="fill: #000; font-family: GillSans-Bold, &apos;Gill Sans&apos;; font-size: 10px; font-weight: 700; letter-spacing: -.04em;"><tspan x="0" y="0">Feedback</tspan></text>
      <text transform="translate(83.38 237.52) scale(.88 1)" style="fill: #000; font-family: GillSans-Bold, &apos;Gill Sans&apos;; font-size: 10px; font-weight: 700; letter-spacing: -.04em;"><tspan x="0" y="0">Spread</tspan></text>
      <text transform="translate(14.75 237.52) scale(.88 1)" style="fill: #000; font-family: GillSans-Bold, &apos;Gill Sans&apos;; font-size: 10px; font-weight: 700; letter-spacing: -.04em;"><tspan x="0" y="0">Dry/Wet</tspan></text>
      <text transform="translate(201.94 170.28) scale(.88 1)" style="fill: #000; font-family: GillSans-Bold, &apos;Gill Sans&apos;; font-size: 10px; font-weight: 700; letter-spacing: -.04em;"><tspan x="0" y="0">Pitch</tspan></text>
      <text transform="translate(19.98 85.56) scale(.88 1)" style="fill: #000; font-family: GillSans-Bold, &apos;Gill Sans&apos;; font-size: 10px; font-weight: 700; letter-spacing: -.04em;"><tspan x="0" y="0">Freeze</tspan></text>
      <text transform="translate(223.38 294.74) scale(.88 1)" style="fill: #000; font-family: GillSans-Bold, &apos;Gill Sans&apos;; font-size: 8px; font-weight: 700; letter-spacing: -.04em;"><tspan x="0" y="0">Blend</tspan></text>
      <text transform="translate(181.31 294.74) scale(.88 1)" style="fill: #000; font-family: GillSans-Bold, &apos;Gill Sans&apos;; font-size: 8px; font-weight: 700; letter-spacing: -.04em;"><tspan x="0" y="0">V/Oct</tspan></text>
      <text transform="translate(60.69 337.07) scale(.88 1)" style="fill: #000; font-family: GillSans-Bold, &apos;Gill Sans&apos;; font-size: 8px; font-weight: 700; letter-spacing: -.04em;"><tspan x="0" y="0">In R</tspan></text>
      <text transform="translate(19.69 337.07) scale(.88 1)" style="fill: #000; font-family: GillSans-Bold, &apos;Gill Sans&apos;; font-size: 8px; font-weight: 700; letter-spacing: -.04em;"><tspan x="0" y="0">In L</tspan></text>
      <text transform="translate(60.43 294.74) scale(.88 1)" style="fill: #000; font-family: GillSans-Bold, &apos;Gill Sans&apos;; font-size: 8px; font-weight: 700; letter-spacing: -.04em;"><tspan x="0" y="0">Trig</tspan></text>
      <text transform="translate(14.65 294.74) scale(.88 1)" style="fill: #000; font-family: GillSans-Bold, &apos;Gill Sans&apos;; font-size: 8px; font-weight: 700; letter-spacing: -.04em;"><tspan x="0" y="0">Freeze</tspan></text>
      <text transform="translate(121.62 169.95) scale(.88 1)" style="fill: #fff; font-family: GillSans-Bold, &apos;Gill Sans&apos;; font-size: 10px; font-weight: 700; letter-spacing: -.04em;"><tspan x="0" y="0">Size</tspan></text>
      <text transform="translate(29.75 169.77) scale(.88 1)" style="fill: #fff; font-family: GillSans-Bold, &apos;Gill Sans&apos;; font-size: 10px; font-weight: 700; letter-spacing: -.04em;"><tspan x="0" y="0">Position</tspan></text>
      <text transform="translate(78.95 87.29) scale(.88 1)" style="fill: #fff; font-family: GillSans-Bold, &apos;Gill Sans&apos;; font-size: 10px; font-weight: 700; letter-spacing: -.04em;"><tspan x="0" y="0">In Gain</tspan></text>
      <text transform="translate(142.85 87.29) scale(.88 1)" style="fill: #fff; font-family: GillSans-Bold, &apos;Gill Sans&apos;; font-size: 10px; font-weight: 700; letter-spacing: -.04em;"><tspan x="0" y="0">Density</tspan></text>
      <text transform="translate(207.47 87.29) scale(.88 1)" style="fill: #fff; font-family: GillSans-Bold, &apos;Gill Sans&apos;; font-size: 10px; font-weight: 700; letter-spacing: -.04em;"><tspan x="0" y="0">Texture</tspan></text>
    </g>
  </g>
  <g id="components">
    <circle id="Reverb_Light_GreenRedLight" data-name="Reverb Light#GreenRedLight" cx="224.11" cy="246.61" r="4.96" style="fill: #f0f; stroke-width: 0px;"/>
    <circle id="Feedback_Light_GreenRedLight" data-name="Feedback Light#GreenRedLight" cx="160.84" cy="246.61" r="4.96" style="fill: #f0f; stroke-width: 0px;"/>
    <circle id="Mix_Light_GreenRedLight" data-name="Mix Light#GreenRedLight" cx="97.57" cy="246.61" r="4.96" style="fill: #f0f; stroke-width: 0px;"/>
    <circle id="Pan_Light_GreenRedLight" data-name="Pan Light#GreenRedLight" cx="34.3" cy="246.61" r="4.96" style="fill: #f0f; stroke-width: 0px;"/>
    <circle id="Out_R" data-name="Out R" cx="233.11" cy="314.93" r="11.34" style="fill: blue; stroke-width: 0px;"/>
    <circle id="Out_L" data-name="Out L" cx="191.71" cy="314.93" r="11.34" style="fill: blue; stroke-width: 0px;"/>
    <circle id="Text_CV" data-name="Text CV" cx="150.31" cy="314.93" r="11.34" style="fill: lime; stroke-width: 0px;"/>
    <circle id="Density_CV" data-name="Density CV" cx="108.91" cy="314.93" r="11.34" style="fill: lime; stroke-width: 0px;"/>
    <circle id="In_R" data-name="In R" cx="67.51" cy="314.88" r="11.34" style="fill: lime; stroke-width: 0px;"/>
    <circle id="In_L" data-name="In L" cx="26.11" cy="314.88" r="11.34" style="fill: lime; stroke-width: 0px;"/>
    <circle id="Blend_CV" data-name="Blend CV" cx="233.11" cy="273.49" r="11.34" style="fill: lime; stroke-width: 0px;"/>
    <circle id="V_Oct" data-name="V/Oct" cx="191.71" cy="273.49" r="11.34" style="fill: lime; stroke-width: 0px;"/>
    <circle id="Size_CV" data-name="Size CV" cx="150.31" cy="273.49" r="11.34" style="fill: lime; stroke-width: 0px;"/>
    <circle id="Position_CV" data-name="Position CV" cx="108.91" cy="273.49" r="11.34" style="fill: lime; stroke-width: 0px;"/>
    <circle id="Trig" cx="67.51" cy="273.49" r="11.34" style="fill: #80ff80; stroke-width: 0px;"/>
    <circle id="Freeze_Trig" data-name="Freeze Trig" cx="26.11" cy="273.49" r="11.34" style="fill: #80ff80; stroke-width: 0px;"/>
    <circle id="Reverb_WhiteMediumKnob" data-name="Reverb#WhiteMediumKnob" cx="224.11" cy="202.85" r="17.01" style="fill: #ff0040; stroke-width: 0px;"/>
    <circle id="Feedback_WhiteMediumKnob" data-name="Feedback#WhiteMediumKnob" cx="160.84" cy="202.85" r="17.01" style="fill: #ff0040; stroke-width: 0px;"/>
    <circle id="Spread_WhiteMediumKnob" data-name="Spread#WhiteMediumKnob" cx="97.57" cy="202.85" r="17.01" style="fill: #ff0040; stroke-width: 0px;"/>
    <circle id="DryWet_WhiteMediumKnob" data-name="DryWet#WhiteMediumKnob" cx="34.3" cy="202.85" r="17.01" style="fill: #ff0040; stroke-width: 0px;"/>
    <circle id="Texture_BlueMediumKnob" data-name="Texture#BlueMediumKnob" cx="224.11" cy="54.99" r="17.01" style="fill: #ff0040; stroke-width: 0px;"/>
    <circle id="Density_RedMediumKnob" data-name="Density#RedMediumKnob" cx="158.97" cy="54.99" r="17.01" style="fill: #ff0040; stroke-width: 0px;"/>
    <circle id="In_Gain_RedMediumKnob" data-name="In Gain#RedMediumKnob" cx="93.83" cy="54.99" r="17.01" style="fill: #ff0040; stroke-width: 0px;"/>
    <circle id="Pitch_WhiteLargeKnob" data-name="Pitch#WhiteLargeKnob" cx="212.77" cy="129.32" r="25.51" style="fill: #ff0040; stroke-width: 0px;"/>
    <circle id="Size_BlueLargeKnob" data-name="Size#BlueLargeKnob" cx="129.6" cy="129.32" r="25.51" style="fill: #ff0040; stroke-width: 0px;"/>
    <circle id="Position_RedLargeKnob" data-name="Position#RedLargeKnob" cx="45.64" cy="129.32" r="25.51" style="fill: #ff0040; stroke-width: 0px;"/>
    <circle id="Load_SmallButton" data-name="Load#SmallButton" cx="12.84" cy="247.07" r="5.31" style="fill: #ffc000; stroke-width: 0px;"/>
    <circle id="CV_Jack_Mode_SmallButton" data-name="CV Jack Mode#SmallButton" cx="246.79" cy="247.07" r="5.31" style="fill: #ffc000; stroke-width: 0px;"/>
    <circle id="Freeze_WhiteMomentary7mm" data-name="Freeze#WhiteMomentary7mm" cx="34.3" cy="54.99" r="10.63" style="fill: #ffc000; stroke-width: 0px;"/>
    <text id="slug" transform="translate(164.17 357.4)" style="fill: #010101; font-family: MyriadPro-Regular, &apos;Myriad Pro&apos;; font-size: 3px;"><tspan x="0" y="0">Clouds</tspan></text>
    <text id="modulename" transform="translate(176.6 357.4)" style="fill: #010101; font-family: MyriadPro-Regular, &apos;Myriad Pro&apos;; font-size: 3px;"><tspan x="0" y="0">G</tspan><tspan x="1.94" y="0" style="letter-spacing: 0em;">r</tspan><tspan x="2.9" y="0" style="letter-spacing: 0em;">anular </tspan><tspan x="11.44" y="0" style="letter-spacing: 0em;">S</tspan><tspan x="12.89" y="0">y</tspan><tspan x="14.31" y="0" style="letter-spacing: 0em;">n</tspan><tspan x="15.96" y="0">thesi</tspan><tspan x="22.01" y="0" style="letter-spacing: 0em;">z</tspan><tspan x="23.27" y="0">er</tspan></text>
  </g>
</svg>