<?xml version="1.0" encoding="UTF-8"?>
<svg xmlns="http://www.w3.org/2000/svg" width="96.65mm" height="130.56mm" viewBox="0 0 273.98 370.1">
  <g id="faceplate">
    <g id="_18hp_panel" data-name="18hp panel">
      <g id="_20hp_panel" data-name="20hp panel">
        <rect x="7.72" y=".48" width="258.95" height="364" style="fill: #eeeded; stroke-width: 0px;"/>
        <path d="M266.55.6v363.75H7.85V.6h258.7M266.8.35H7.6v364.25h259.2V.35h0Z" style="fill: #9b9c9d; stroke-width: 0px;"/>
      </g>
    </g>
    <path d="M195.04,343.88h47.28s12.42,0,12.42,0c2.69,0,4.87-2.31,4.87-5.13v-41.64h-66.62c-6.47,0-11.71,6.37-11.71,14.22v32.55h13.76Z" style="fill: #000; stroke-width: 0px;"/>
    <rect x="102.51" y="287.29" width="28.35" height="14.17" style="fill: #ee6390; stroke-width: 0px;"/>
    <rect x="102.51" y="328.1" width="28.35" height="14.17" style="fill: #ee6390; stroke-width: 0px;"/>
    <rect x="144.12" y="287.29" width="28.35" height="14.17" style="fill: #3babec; stroke-width: 0px;"/>
    <rect x="144.12" y="328.1" width="28.35" height="14.17" style="fill: #3babec; stroke-width: 0px;"/>
    <path d="M254.23,344.66H20.37c-3.4,0-6.17-2.63-6.17-5.87l.02-12.2-.06-51.04.06-5.84c.31-8.29,6.47-14.77,14.03-14.77h71.95s146.14,0,146.14,0c7.56,0,13.73,6.48,14.04,14.76l.02,69.09c0,3.24-2.77,5.87-6.17,5.87ZM15.2,330.29v8.5c0,2.69,2.32,4.87,5.17,4.87h233.87c2.85,0,5.17-2.19,5.17-4.87l-.02-69.06c-.29-7.73-6.02-13.79-13.04-13.79H100.2s-71.95,0-71.95,0c-7.02,0-12.75,6.06-13.03,13.8l-.06,5.82.04,54.74Z" style="fill: #000; stroke-width: 0px;"/>
    <g id="Layer_5" data-name="Layer 5">
      <rect x="78.75" y="76.68" width="45.35" height="14.17" style="fill: #ee6390; stroke-width: 0px;"/>
      <rect x="31.33" y="159.85" width="45.35" height="14.17" style="fill: #ee6390; stroke-width: 0px;"/>
      <rect x="123.1" y="159.67" width="28.35" height="14.17" style="fill: #3babec; stroke-width: 0px;"/>
      <rect x="143.89" y="76.68" width="45.35" height="14.17" style="fill: #ee6390; stroke-width: 0px;"/>
      <rect x="209.03" y="76.68" width="45.35" height="14.17" style="fill: #3babec; stroke-width: 0px;"/>
    </g>
    <line x1="38.06" y1="315.28" x2="67.24" y2="315.28" style="fill: none; stroke: #000; stroke-dasharray: 0 0 1 3; stroke-linecap: round; stroke-linejoin: round;"/>
    <rect x="7.6" y="18.55" width="259.2" height="14.17" style="fill: #010101; stroke-width: 0px;"/>
    <g id="text_check" data-name="text check">
      <text transform="translate(109.51 297.93) scale(.88 1)" style="fill: #fff; font-family: GillSans-Bold, &apos;Gill Sans&apos;; font-size: 10px; font-weight: 700; letter-spacing: -.04em;"><tspan x="0" y="0">Pos</tspan></text>
      <text transform="translate(106.54 338.73) scale(.88 1)" style="fill: #fff; font-family: GillSans-Bold, &apos;Gill Sans&apos;; font-size: 10px; font-weight: 700; letter-spacing: -.04em;"><tspan x="0" y="0">Dens</tspan></text>
      <text transform="translate(150.24 297.93) scale(.88 1)" style="fill: #fff; font-family: GillSans-Bold, &apos;Gill Sans&apos;; font-size: 10px; font-weight: 700; letter-spacing: -.04em;"><tspan x="0" y="0">Size</tspan></text>
      <text transform="translate(148.55 338.73) scale(.88 1)" style="fill: #fff; font-family: GillSans-Bold, &apos;Gill Sans&apos;; font-size: 10px; font-weight: 700; letter-spacing: -.04em;"><tspan x="0" y="0">Text</tspan></text>
      <text transform="translate(230.7 337.33) scale(.88 1)" style="fill: #ededed; font-family: GillSans-Bold, &apos;Gill Sans&apos;; font-size: 8px; font-weight: 700; letter-spacing: -.04em;"><tspan x="0" y="0">Out R</tspan></text>
      <text transform="translate(189.71 337.33) scale(.88 1)" style="fill: #ededed; font-family: GillSans-Bold, &apos;Gill Sans&apos;; font-size: 8px; font-weight: 700; letter-spacing: -.04em;"><tspan x="0" y="0">Out L</tspan></text>
      <text transform="translate(216.51 237.87) scale(.88 1)" style="fill: #000; font-family: GillSans-Bold, &apos;Gill Sans&apos;; font-size: 10px; font-weight: 700; letter-spacing: -.04em;"><tspan x="0" y="0">Reverb</tspan></text>
      <text transform="translate(148.72 237.87) scale(.88 1)" style="fill: #000; font-family: GillSans-Bold, &apos;Gill Sans&apos;; font-size: 10px; font-weight: 700; letter-spacing: -.04em;"><tspan x="0" y="0">Feedback</tspan></text>
      <text transform="translate(90.98 237.87) scale(.88 1)" style="fill: #000; font-family: GillSans-Bold, &apos;Gill Sans&apos;; font-size: 10px; font-weight: 700; letter-spacing: -.04em;"><tspan x="0" y="0">Spread</tspan></text>
      <text transform="translate(22.35 237.87) scale(.88 1)" style="fill: #000; font-family: GillSans-Bold, &apos;Gill Sans&apos;; font-size: 10px; font-weight: 700; letter-spacing: -.04em;"><tspan x="0" y="0">Dry/Wet</tspan></text>
      <text transform="translate(209.53 170.63) scale(.88 1)" style="fill: #000; font-family: GillSans-Bold, &apos;Gill Sans&apos;; font-size: 10px; font-weight: 700; letter-spacing: -.04em;"><tspan x="0" y="0">Pitch</tspan></text>
      <text transform="translate(27.57 85.91) scale(.88 1)" style="fill: #000; font-family: GillSans-Bold, &apos;Gill Sans&apos;; font-size: 10px; font-weight: 700; letter-spacing: -.04em;"><tspan x="0" y="0">Freeze</tspan></text>
      <text transform="translate(230.97 295.1) scale(.88 1)" style="fill: #000; font-family: GillSans-Bold, &apos;Gill Sans&apos;; font-size: 8px; font-weight: 700; letter-spacing: -.04em;"><tspan x="0" y="0">Blend</tspan></text>
      <text transform="translate(188.9 295.1) scale(.88 1)" style="fill: #000; font-family: GillSans-Bold, &apos;Gill Sans&apos;; font-size: 8px; font-weight: 700; letter-spacing: -.04em;"><tspan x="0" y="0">V/Oct</tspan></text>
      <text transform="translate(68.28 337.43) scale(.88 1)" style="fill: #000; font-family: GillSans-Bold, &apos;Gill Sans&apos;; font-size: 8px; font-weight: 700; letter-spacing: -.04em;"><tspan x="0" y="0">In R</tspan></text>
      <text transform="translate(27.29 337.43) scale(.88 1)" style="fill: #000; font-family: GillSans-Bold, &apos;Gill Sans&apos;; font-size: 8px; font-weight: 700; letter-spacing: -.04em;"><tspan x="0" y="0">In L</tspan></text>
      <text transform="translate(68.03 295.1) scale(.88 1)" style="fill: #000; font-family: GillSans-Bold, &apos;Gill Sans&apos;; font-size: 8px; font-weight: 700; letter-spacing: -.04em;"><tspan x="0" y="0">Trig</tspan></text>
      <text transform="translate(22.24 295.1) scale(.88 1)" style="fill: #000; font-family: GillSans-Bold, &apos;Gill Sans&apos;; font-size: 8px; font-weight: 700; letter-spacing: -.04em;"><tspan x="0" y="0">Freeze</tspan></text>
      <text transform="translate(129.21 170.3) scale(.88 1)" style="fill: #fff; font-family: GillSans-Bold, &apos;Gill Sans&apos;; font-size: 10px; font-weight: 700; letter-spacing: -.04em;"><tspan x="0" y="0">Size</tspan></text>
      <text transform="translate(37.34 170.12) scale(.88 1)" style="fill: #fff; font-family: GillSans-Bold, &apos;Gill Sans&apos;; font-size: 10px; font-weight: 700; letter-spacing: -.04em;"><tspan x="0" y="0">Position</tspan></text>
      <text transform="translate(86.55 87.64) scale(.88 1)" style="fill: #fff; font-family: GillSans-Bold, &apos;Gill Sans&apos;; font-size: 10px; font-weight: 700; letter-spacing: -.04em;"><tspan x="0" y="0">In Gain</tspan></text>
      <text transform="translate(150.45 87.64) scale(.88 1)" style="fill: #fff; font-family: GillSans-Bold, &apos;Gill Sans&apos;; font-size: 10px; font-weight: 700; letter-spacing: -.04em;"><tspan x="0" y="0">Density</tspan></text>
      <text transform="translate(215.06 87.64) scale(.88 1)" style="fill: #fff; font-family: GillSans-Bold, &apos;Gill Sans&apos;; font-size: 10px; font-weight: 700; letter-spacing: -.04em;"><tspan x="0" y="0">Texture</tspan></text>
    </g>
  </g>
  <g id="components">
    <circle id="Reverb_Light_GreenRedLight" data-name="Reverb Light#GreenRedLight" cx="231.7" cy="246.97" r="4.96" style="fill: #f0f; stroke-width: 0px;"/>
    <circle id="Feedback_Light_GreenRedLight" data-name="Feedback Light#GreenRedLight" cx="168.43" cy="246.97" r="4.96" style="fill: #f0f; stroke-width: 0px;"/>
    <circle id="Pan_Light_GreenRedLight" data-name="Pan Light#GreenRedLight" cx="41.9" cy="246.97" r="4.96" style="fill: #f0f; stroke-width: 0px;"/>
    <circle id="Mix_Light_GreenRedLight" data-name="Mix Light#GreenRedLight" cx="105.17" cy="246.97" r="4.96" style="fill: #f0f; stroke-width: 0px;"/>
    <circle id="Out_R" data-name="Out R" cx="240.7" cy="315.28" r="11.34" style="fill: blue; stroke-width: 0px;"/>
    <circle id="Out_L" data-name="Out L" cx="199.31" cy="315.28" r="11.34" style="fill: blue; stroke-width: 0px;"/>
    <circle id="Text_CV" data-name="Text CV" cx="157.9" cy="315.28" r="11.34" style="fill: lime; stroke-width: 0px;"/>
    <circle id="Density_CV" data-name="Density CV" cx="116.5" cy="315.28" r="11.34" style="fill: lime; stroke-width: 0px;"/>
    <circle id="In_R" data-name="In R" cx="75.1" cy="315.24" r="11.34" style="fill: lime; stroke-width: 0px;"/>
    <circle id="In_L" data-name="In L" cx="33.7" cy="315.24" r="11.34" style="fill: lime; stroke-width: 0px;"/>
    <circle id="Blend_CV" data-name="Blend CV" cx="240.7" cy="273.85" r="11.34" style="fill: lime; stroke-width: 0px;"/>
    <circle id="V_Oct" data-name="V/Oct" cx="199.31" cy="273.85" r="11.34" style="fill: lime; stroke-width: 0px;"/>
    <circle id="Size_CV" data-name="Size CV" cx="157.9" cy="273.85" r="11.34" style="fill: lime; stroke-width: 0px;"/>
    <circle id="Position_CV" data-name="Position CV" cx="116.5" cy="273.85" r="11.34" style="fill: lime; stroke-width: 0px;"/>
    <circle id="Trig" cx="75.1" cy="273.85" r="11.34" style="fill: #80ff80; stroke-width: 0px;"/>
    <circle id="Freeze_Trig" data-name="Freeze Trig" cx="33.7" cy="273.85" r="11.34" style="fill: #80ff80; stroke-width: 0px;"/>
    <circle id="Reverb_WhiteMediumKnob" data-name="Reverb#WhiteMediumKnob" cx="231.7" cy="203.2" r="17.01" style="fill: #ff0040; stroke-width: 0px;"/>
    <circle id="Feedback_WhiteMediumKnob" data-name="Feedback#WhiteMediumKnob" cx="168.43" cy="203.2" r="17.01" style="fill: #ff0040; stroke-width: 0px;"/>
    <circle id="Spread_WhiteMediumKnob" data-name="Spread#WhiteMediumKnob" cx="105.17" cy="203.2" r="17.01" style="fill: #ff0040; stroke-width: 0px;"/>
    <circle id="DryWet_WhiteMediumKnob" data-name="DryWet#WhiteMediumKnob" cx="41.9" cy="203.2" r="17.01" style="fill: #ff0040; stroke-width: 0px;"/>
    <circle id="Texture_BlueMediumKnob" data-name="Texture#BlueMediumKnob" cx="231.7" cy="55.35" r="17.01" style="fill: #ff0040; stroke-width: 0px;"/>
    <circle id="Density_RedMediumKnob" data-name="Density#RedMediumKnob" cx="166.56" cy="55.35" r="17.01" style="fill: #ff0040; stroke-width: 0px;"/>
    <circle id="In_Gain_RedMediumKnob" data-name="In Gain#RedMediumKnob" cx="101.42" cy="55.35" r="17.01" style="fill: #ff0040; stroke-width: 0px;"/>
    <circle id="Pitch_WhiteLargeKnob" data-name="Pitch#WhiteLargeKnob" cx="220.37" cy="129.67" r="25.51" style="fill: #ff0040; stroke-width: 0px;"/>
    <circle id="Size_BlueLargeKnob" data-name="Size#BlueLargeKnob" cx="137.2" cy="129.67" r="25.51" style="fill: #ff0040; stroke-width: 0px;"/>
    <circle id="Position_RedLargeKnob" data-name="Position#RedLargeKnob" cx="53.23" cy="129.67" r="25.51" style="fill: #ff0040; stroke-width: 0px;"/>
    <circle id="Load_SmallButton" data-name="Load#SmallButton" cx="41.9" cy="25.63" r="5.31" style="fill: #ffc000; stroke-width: 0px;"/>
    <circle id="CV_Jack_Mode_SmallButton" data-name="CV Jack Mode#SmallButton" cx="254.38" cy="246.97" r="5.31" style="fill: #ffc000; stroke-width: 0px;"/>
    <circle id="Freeze_WhiteMomentary7mm" data-name="Freeze#WhiteMomentary7mm" cx="41.9" cy="55.35" r="10.63" style="fill: #ffc000; stroke-width: 0px;"/>
    <text id="slug" transform="translate(171.77 369.35)" style="fill: #010101; font-family: MyriadPro-Regular, &apos;Myriad Pro&apos;; font-size: 3px;"><tspan x="0" y="0">Clouds</tspan></text>
    <text id="modulename" transform="translate(184.19 369.35)" style="fill: #010101; font-family: MyriadPro-Regular, &apos;Myriad Pro&apos;; font-size: 3px;"><tspan x="0" y="0">G</tspan><tspan x="1.94" y="0" style="letter-spacing: 0em;">r</tspan><tspan x="2.9" y="0" style="letter-spacing: 0em;">anular </tspan><tspan x="11.44" y="0" style="letter-spacing: 0em;">S</tspan><tspan x="12.89" y="0">y</tspan><tspan x="14.31" y="0" style="letter-spacing: 0em;">n</tspan><tspan x="15.96" y="0">thesi</tspan><tspan x="22.01" y="0" style="letter-spacing: 0em;">z</tspan><tspan x="23.27" y="0">er</tspan></text>
    <g>
      <path d="M249.45,264.3l1.63-1.33c1.47-1.2,2.31-2.97,2.31-4.87v-3.67h2v3.67c0,2.5-1.11,4.83-3.04,6.41l-1.63,1.33-1.26-1.55Z" style="fill: #000; stroke-width: 0px;"/>
      <path d="M254.88,254.94v3.17c0,2.35-1.04,4.54-2.86,6.03l-1.24,1.01-.63-.78,1.24-1.01c1.58-1.29,2.49-3.21,2.49-5.25v-3.17h1M255.88,253.94h-3v4.17c0,1.74-.77,3.38-2.12,4.48l-1.24,1.01-.77.63.63.77.63.78.63.78.77-.63,1.24-1.01c2.05-1.68,3.23-4.15,3.23-6.8v-4.17h0Z" style="fill: #eeeded; stroke-width: 0px;"/>
    </g>
  </g>
</svg>