<?xml version="1.0" encoding="UTF-8"?>
<svg xmlns="http://www.w3.org/2000/svg" width="172.6mm" height="130.49mm" xmlns:xlink="http://www.w3.org/1999/xlink" viewBox="0 0 489.26 369.89">
  <defs>
    <clipPath id="clippath">
      <rect x="94.47" y="257.06" width="28.35" height="22.68" style="fill: none;"/>
    </clipPath>
    <clipPath id="clippath-1">
      <rect x="94.47" y="257.06" width="28.35" height="22.68" style="fill: none;"/>
    </clipPath>
    <clipPath id="clippath-2">
      <rect x="131.32" y="257.06" width="28.35" height="22.68" style="fill: none;"/>
    </clipPath>
    <clipPath id="clippath-3">
      <rect x="131.32" y="257.06" width="28.35" height="22.68" style="fill: none;"/>
    </clipPath>
    <clipPath id="clippath-4">
      <rect x="168.17" y="257.06" width="28.35" height="22.68" style="fill: none;"/>
    </clipPath>
    <clipPath id="clippath-5">
      <rect x="168.17" y="257.06" width="28.35" height="22.68" style="fill: none;"/>
    </clipPath>
    <clipPath id="clippath-6">
      <rect x="205.02" y="257.06" width="28.35" height="22.68" style="fill: none;"/>
    </clipPath>
    <clipPath id="clippath-7">
      <rect x="205.02" y="257.06" width="28.35" height="22.68" style="fill: none;"/>
    </clipPath>
    <clipPath id="clippath-8">
      <rect x="241.87" y="257.06" width="28.35" height="22.68" style="fill: none;"/>
    </clipPath>
    <clipPath id="clippath-9">
      <rect x="241.87" y="257.06" width="28.35" height="22.68" style="fill: none;"/>
    </clipPath>
    <clipPath id="clippath-10">
      <rect x="296.94" y="257.06" width="28.35" height="22.68" style="fill: none;"/>
    </clipPath>
    <clipPath id="clippath-11">
      <rect x="296.94" y="257.06" width="28.35" height="22.68" style="fill: none;"/>
    </clipPath>
    <clipPath id="clippath-12">
      <rect x="333.79" y="257.06" width="28.35" height="22.68" style="fill: none;"/>
    </clipPath>
    <clipPath id="clippath-13">
      <rect x="333.79" y="257.06" width="28.35" height="22.68" style="fill: none;"/>
    </clipPath>
    <clipPath id="clippath-14">
      <rect x="370.64" y="257.06" width="28.35" height="22.68" style="fill: none;"/>
    </clipPath>
    <clipPath id="clippath-15">
      <rect x="370.64" y="257.06" width="28.35" height="22.68" style="fill: none;"/>
    </clipPath>
    <clipPath id="clippath-16">
      <rect x="407.49" y="257.06" width="28.35" height="22.68" style="fill: none;"/>
    </clipPath>
    <clipPath id="clippath-17">
      <rect x="407.49" y="257.06" width="28.35" height="22.68" style="fill: none;"/>
    </clipPath>
    <clipPath id="clippath-18">
      <rect x="444.34" y="257.06" width="28.35" height="22.68" style="fill: none;"/>
    </clipPath>
    <clipPath id="clippath-19">
      <rect x="444.34" y="257.06" width="28.35" height="22.68" style="fill: none;"/>
    </clipPath>
  </defs>
  <g id="faceplate">
    <g id="panel">
      <rect x=".21" y=".27" width="488.73" height="364" style="fill: #ededee;"/>
      <path d="M488.81.39v363.75H.33V.39h488.48M489.06.14H.08v364.25h488.98V.14h0Z" style="fill: #9c9c9e;"/>
    </g>
    <text transform="translate(52.9 318.75) scale(.88 1)" style="fill: #ededed; font-family: GillSans-Bold, &apos;Gill Sans&apos;; font-size: 8px; font-weight: 700; letter-spacing: -.04em;"><tspan x="0" y="0">Out</tspan></text>
    <rect x=".08" y="18.34" width="488.98" height="14.17"/>
    <line x1="219.09" y1="253.27" x2="219.09" y2="182.24" style="fill: none; stroke: #000; stroke-miterlimit: 10;"/>
    <line x1="145.39" y1="253.27" x2="145.39" y2="182.24" style="fill: none; stroke: #000; stroke-miterlimit: 10;"/>
    <path d="M96.78,285.52h-3.94v-1.07h3.94v1.07Z"/>
    <path d="M133.63,285.52h-3.94v-1.07h3.94v1.07Z"/>
    <path d="M170.49,285.52h-3.94v-1.07h3.94v1.07Z"/>
    <path d="M207.34,285.52h-3.94v-1.07h3.94v1.07Z"/>
    <path d="M244.19,285.52h-3.94v-1.07h3.94v1.07Z"/>
    <line x1="108.64" y1="269.59" x2="108.64" y2="296.05" style="fill: none; stroke: #000; stroke-miterlimit: 10;"/>
    <line x1="145.5" y1="269.59" x2="145.5" y2="296.05" style="fill: none; stroke: #000; stroke-miterlimit: 10;"/>
    <line x1="182.37" y1="269.59" x2="182.37" y2="296.05" style="fill: none; stroke: #000; stroke-miterlimit: 10;"/>
    <line x1="219.23" y1="269.59" x2="219.23" y2="296.05" style="fill: none; stroke: #000; stroke-miterlimit: 10;"/>
    <line x1="256.1" y1="269.59" x2="256.1" y2="296.05" style="fill: none; stroke: #000; stroke-miterlimit: 10;"/>
    <path d="M124.94,284.94h-1.65v1.87h-.93v-1.87h-1.65v-1.06h1.65v-1.87h.93v1.87h1.65v1.06Z"/>
    <path d="M161.79,284.94h-1.65v1.87h-.93v-1.87h-1.65v-1.06h1.65v-1.87h.93v1.87h1.65v1.06Z"/>
    <path d="M198.64,284.94h-1.65v1.87h-.93v-1.87h-1.65v-1.06h1.65v-1.87h.93v1.87h1.65v1.06Z"/>
    <path d="M235.5,284.94h-1.65v1.87h-.93v-1.87h-1.65v-1.06h1.65v-1.87h.93v1.87h1.65v1.06Z"/>
    <path d="M272.35,284.94h-1.65v1.87h-.93v-1.87h-1.65v-1.06h1.65v-1.87h.93v1.87h1.65v1.06Z"/>
    <g>
      <g id="Artwork_5">
        <g style="clip-path: url(#clippath);">
          <g style="clip-path: url(#clippath-1);">
            <path d="M98.93,278.33c-1.49-2-2.38-4.47-2.38-7.15,0-6.64,5.42-12.05,12.09-12.05s12.09,5.4,12.09,12.05c0,2.69-.9,5.17-2.4,7.18l1.56,1.23c1.77-2.35,2.83-5.25,2.83-8.41,0-7.75-6.3-14.02-14.07-14.02s-14.07,6.28-14.07,14.02c0,3.15,1.06,6.05,2.82,8.39l1.55-1.24Z"/>
            <path d="M119.9,279.73l-1.71-1.36.06-.08c1.56-2.09,2.39-4.55,2.39-7.12,0-6.59-5.38-11.95-11.99-11.95s-11.99,5.36-11.99,11.95c0,2.56.82,5.01,2.36,7.09l.06.08-1.71,1.37-.06-.08c-1.86-2.47-2.84-5.39-2.84-8.45,0-7.79,6.36-14.12,14.17-14.12s14.17,6.34,14.17,14.12c0,3.07-.99,6-2.85,8.47l-.06.08ZM118.46,278.34l1.4,1.11c1.8-2.42,2.75-5.28,2.75-8.27,0-7.68-6.27-13.93-13.98-13.93s-13.97,6.25-13.97,13.93c0,2.98.95,5.84,2.74,8.25l1.4-1.12c-1.54-2.1-2.35-4.56-2.35-7.13,0-6.7,5.47-12.14,12.19-12.14s12.19,5.45,12.19,12.14c0,2.58-.82,5.06-2.37,7.16"/>
          </g>
        </g>
      </g>
      <g id="center">
        <path d="M108.5,260.34c-1.39,0-2.52-1.13-2.52-2.52s1.13-2.52,2.52-2.52,2.52,1.13,2.52,2.52-1.13,2.52-2.52,2.52Z" style="fill: #171717;"/>
        <path d="M108.5,256.05c.98,0,1.77.79,1.77,1.77s-.79,1.77-1.77,1.77-1.77-.79-1.77-1.77.79-1.77,1.77-1.77M108.5,254.55c-1.8,0-3.27,1.47-3.27,3.27s1.47,3.27,3.27,3.27,3.27-1.47,3.27-3.27-1.47-3.27-3.27-3.27h0Z" style="fill: #ededed;"/>
      </g>
    </g>
    <g>
      <g id="Artwork_5-2" data-name="Artwork_5">
        <g style="clip-path: url(#clippath-2);">
          <g style="clip-path: url(#clippath-3);">
            <path d="M135.79,278.33c-1.49-2-2.38-4.47-2.38-7.15,0-6.64,5.42-12.05,12.09-12.05s12.09,5.4,12.09,12.05c0,2.69-.9,5.17-2.4,7.18l1.56,1.23c1.77-2.35,2.83-5.25,2.83-8.41,0-7.75-6.3-14.02-14.07-14.02s-14.07,6.28-14.07,14.02c0,3.15,1.06,6.05,2.82,8.39l1.55-1.24Z"/>
            <path d="M156.75,279.73l-1.71-1.36.06-.08c1.56-2.09,2.39-4.55,2.39-7.12,0-6.59-5.38-11.95-11.99-11.95s-11.99,5.36-11.99,11.95c0,2.56.82,5.01,2.36,7.09l.06.08-1.71,1.37-.06-.08c-1.86-2.47-2.84-5.39-2.84-8.45,0-7.79,6.36-14.12,14.17-14.12s14.17,6.34,14.17,14.12c0,3.07-.99,6-2.85,8.47l-.06.08ZM155.31,278.34l1.4,1.11c1.8-2.42,2.75-5.28,2.75-8.27,0-7.68-6.27-13.93-13.98-13.93s-13.97,6.25-13.97,13.93c0,2.98.95,5.84,2.74,8.25l1.4-1.12c-1.54-2.1-2.35-4.56-2.35-7.13,0-6.7,5.47-12.14,12.19-12.14s12.19,5.45,12.19,12.14c0,2.58-.82,5.06-2.37,7.16"/>
          </g>
        </g>
      </g>
      <g id="center-2" data-name="center">
        <path d="M145.35,260.34c-1.39,0-2.52-1.13-2.52-2.52s1.13-2.52,2.52-2.52,2.52,1.13,2.52,2.52-1.13,2.52-2.52,2.52Z" style="fill: #171717;"/>
        <path d="M145.35,256.05c.98,0,1.77.79,1.77,1.77s-.79,1.77-1.77,1.77-1.77-.79-1.77-1.77.79-1.77,1.77-1.77M145.35,254.55c-1.8,0-3.27,1.47-3.27,3.27s1.47,3.27,3.27,3.27,3.27-1.47,3.27-3.27-1.47-3.27-3.27-3.27h0Z" style="fill: #ededed;"/>
      </g>
    </g>
    <g>
      <g id="Artwork_5-3" data-name="Artwork_5">
        <g style="clip-path: url(#clippath-4);">
          <g style="clip-path: url(#clippath-5);">
            <path d="M172.64,278.33c-1.49-2-2.38-4.47-2.38-7.15,0-6.64,5.42-12.05,12.09-12.05s12.09,5.4,12.09,12.05c0,2.69-.9,5.17-2.4,7.18l1.56,1.23c1.77-2.35,2.83-5.25,2.83-8.41,0-7.75-6.3-14.02-14.07-14.02s-14.07,6.28-14.07,14.02c0,3.15,1.06,6.05,2.82,8.39l1.55-1.24Z"/>
            <path d="M193.6,279.73l-1.71-1.36.06-.08c1.56-2.09,2.39-4.55,2.39-7.12,0-6.59-5.38-11.95-11.99-11.95s-11.99,5.36-11.99,11.95c0,2.56.82,5.01,2.36,7.09l.06.08-1.71,1.37-.06-.08c-1.86-2.47-2.84-5.39-2.84-8.45,0-7.79,6.36-14.12,14.17-14.12s14.17,6.34,14.17,14.12c0,3.07-.99,6-2.85,8.47l-.06.08ZM192.16,278.34l1.4,1.11c1.8-2.42,2.75-5.28,2.75-8.27,0-7.68-6.27-13.93-13.98-13.93s-13.97,6.25-13.97,13.93c0,2.98.95,5.84,2.74,8.25l1.4-1.12c-1.54-2.1-2.35-4.56-2.35-7.13,0-6.7,5.47-12.14,12.19-12.14s12.19,5.45,12.19,12.14c0,2.58-.82,5.06-2.37,7.16"/>
          </g>
        </g>
      </g>
      <g id="center-3" data-name="center">
        <path d="M182.2,260.34c-1.39,0-2.52-1.13-2.52-2.52s1.13-2.52,2.52-2.52,2.52,1.13,2.52,2.52-1.13,2.52-2.52,2.52Z" style="fill: #171717;"/>
        <path d="M182.2,256.05c.98,0,1.77.79,1.77,1.77s-.79,1.77-1.77,1.77-1.77-.79-1.77-1.77.79-1.77,1.77-1.77M182.2,254.55c-1.8,0-3.27,1.47-3.27,3.27s1.47,3.27,3.27,3.27,3.27-1.47,3.27-3.27-1.47-3.27-3.27-3.27h0Z" style="fill: #ededed;"/>
      </g>
    </g>
    <g>
      <g id="Artwork_5-4" data-name="Artwork_5">
        <g style="clip-path: url(#clippath-6);">
          <g style="clip-path: url(#clippath-7);">
            <path d="M209.49,278.33c-1.49-2-2.38-4.47-2.38-7.15,0-6.64,5.42-12.05,12.09-12.05s12.09,5.4,12.09,12.05c0,2.69-.9,5.17-2.4,7.18l1.56,1.23c1.77-2.35,2.83-5.25,2.83-8.41,0-7.75-6.3-14.02-14.07-14.02s-14.07,6.28-14.07,14.02c0,3.15,1.06,6.05,2.82,8.39l1.55-1.24Z"/>
            <path d="M230.45,279.73l-1.71-1.36.06-.08c1.56-2.09,2.39-4.55,2.39-7.12,0-6.59-5.38-11.95-11.99-11.95s-11.99,5.36-11.99,11.95c0,2.56.82,5.01,2.36,7.09l.06.08-1.71,1.37-.06-.08c-1.86-2.47-2.84-5.39-2.84-8.45,0-7.79,6.36-14.12,14.17-14.12s14.17,6.34,14.17,14.12c0,3.07-.99,6-2.85,8.47l-.06.08ZM229.01,278.34l1.4,1.11c1.8-2.42,2.75-5.28,2.75-8.27,0-7.68-6.27-13.93-13.98-13.93s-13.97,6.25-13.97,13.93c0,2.98.95,5.84,2.74,8.25l1.4-1.12c-1.54-2.1-2.35-4.56-2.35-7.13,0-6.7,5.47-12.14,12.19-12.14s12.19,5.45,12.19,12.14c0,2.58-.82,5.06-2.37,7.16"/>
          </g>
        </g>
      </g>
      <g id="center-4" data-name="center">
        <path d="M219.05,260.34c-1.39,0-2.52-1.13-2.52-2.52s1.13-2.52,2.52-2.52,2.52,1.13,2.52,2.52-1.13,2.52-2.52,2.52Z" style="fill: #171717;"/>
        <path d="M219.05,256.05c.98,0,1.77.79,1.77,1.77s-.79,1.77-1.77,1.77-1.77-.79-1.77-1.77.79-1.77,1.77-1.77M219.05,254.55c-1.8,0-3.27,1.47-3.27,3.27s1.47,3.27,3.27,3.27,3.27-1.47,3.27-3.27-1.47-3.27-3.27-3.27h0Z" style="fill: #ededed;"/>
      </g>
    </g>
    <g>
      <g id="Artwork_5-5" data-name="Artwork_5">
        <g style="clip-path: url(#clippath-8);">
          <g style="clip-path: url(#clippath-9);">
            <path d="M246.34,278.33c-1.49-2-2.38-4.47-2.38-7.15,0-6.64,5.42-12.05,12.09-12.05s12.09,5.4,12.09,12.05c0,2.69-.9,5.17-2.4,7.18l1.56,1.23c1.77-2.35,2.83-5.25,2.83-8.41,0-7.75-6.3-14.02-14.07-14.02s-14.07,6.28-14.07,14.02c0,3.15,1.06,6.05,2.82,8.39l1.55-1.24Z"/>
            <path d="M267.3,279.73l-1.71-1.36.06-.08c1.56-2.09,2.39-4.55,2.39-7.12,0-6.59-5.38-11.95-11.99-11.95s-11.99,5.36-11.99,11.95c0,2.56.82,5.01,2.36,7.09l.06.08-1.71,1.37-.06-.08c-1.86-2.47-2.84-5.39-2.84-8.45,0-7.79,6.36-14.12,14.17-14.12s14.17,6.34,14.17,14.12c0,3.07-.99,6-2.85,8.47l-.06.08ZM265.86,278.34l1.4,1.11c1.8-2.42,2.75-5.28,2.75-8.27,0-7.68-6.27-13.93-13.98-13.93s-13.97,6.25-13.97,13.93c0,2.98.95,5.84,2.74,8.25l1.4-1.12c-1.54-2.1-2.35-4.56-2.35-7.13,0-6.7,5.47-12.14,12.19-12.14s12.19,5.45,12.19,12.14c0,2.58-.82,5.06-2.37,7.16"/>
          </g>
        </g>
      </g>
      <g id="center-5" data-name="center">
        <circle cx="255.9" cy="257.82" r="2.52" style="fill: #171717;"/>
        <path d="M255.9,256.05c.98,0,1.77.79,1.77,1.77s-.79,1.77-1.77,1.77-1.77-.79-1.77-1.77.79-1.77,1.77-1.77M255.9,254.55c-1.8,0-3.27,1.47-3.27,3.27s1.47,3.27,3.27,3.27,3.27-1.47,3.27-3.27-1.47-3.27-3.27-3.27h0Z" style="fill: #ededed;"/>
      </g>
    </g>
    <line x1="421.57" y1="253.27" x2="421.57" y2="182.24" style="fill: none; stroke: #000; stroke-miterlimit: 10;"/>
    <line x1="347.86" y1="253.27" x2="347.86" y2="182.24" style="fill: none; stroke: #000; stroke-miterlimit: 10;"/>
    <path d="M299.26,285.52h-3.94v-1.07h3.94v1.07Z"/>
    <path d="M336.11,285.52h-3.94v-1.07h3.94v1.07Z"/>
    <path d="M372.96,285.52h-3.94v-1.07h3.94v1.07Z"/>
    <path d="M409.81,285.52h-3.94v-1.07h3.94v1.07Z"/>
    <line x1="311.12" y1="269.59" x2="311.12" y2="296.05" style="fill: none; stroke: #000; stroke-miterlimit: 10;"/>
    <line x1="347.98" y1="269.59" x2="347.98" y2="296.05" style="fill: none; stroke: #000; stroke-miterlimit: 10;"/>
    <line x1="384.84" y1="269.59" x2="384.84" y2="296.05" style="fill: none; stroke: #000; stroke-miterlimit: 10;"/>
    <line x1="421.71" y1="269.59" x2="421.71" y2="296.05" style="fill: none; stroke: #000; stroke-miterlimit: 10;"/>
    <line x1="458.57" y1="269.59" x2="458.57" y2="296.05" style="fill: none; stroke: #000; stroke-miterlimit: 10;"/>
    <path d="M327.42,284.94h-1.65v1.87h-.93v-1.87h-1.65v-1.06h1.65v-1.87h.93v1.87h1.65v1.06Z"/>
    <path d="M364.27,284.94h-1.65v1.87h-.93v-1.87h-1.65v-1.06h1.65v-1.87h.93v1.87h1.65v1.06Z"/>
    <path d="M401.12,284.94h-1.65v1.87h-.93v-1.87h-1.65v-1.06h1.65v-1.87h.93v1.87h1.65v1.06Z"/>
    <path d="M437.97,284.94h-1.65v1.87h-.93v-1.87h-1.65v-1.06h1.65v-1.87h.93v1.87h1.65v1.06Z"/>
    <g>
      <g id="Artwork_5-6" data-name="Artwork_5">
        <g style="clip-path: url(#clippath-10);">
          <g style="clip-path: url(#clippath-11);">
            <path d="M301.41,278.33c-1.49-2-2.38-4.47-2.38-7.15,0-6.64,5.42-12.05,12.09-12.05s12.09,5.4,12.09,12.05c0,2.69-.9,5.17-2.4,7.18l1.56,1.23c1.77-2.35,2.83-5.25,2.83-8.41,0-7.75-6.3-14.02-14.07-14.02s-14.07,6.28-14.07,14.02c0,3.15,1.06,6.05,2.82,8.39l1.55-1.24Z"/>
            <path d="M322.38,279.73l-1.71-1.36.06-.08c1.56-2.09,2.39-4.55,2.39-7.12,0-6.59-5.38-11.95-11.99-11.95s-11.99,5.36-11.99,11.95c0,2.56.82,5.01,2.36,7.09l.06.08-1.71,1.37-.06-.08c-1.86-2.47-2.84-5.39-2.84-8.45,0-7.79,6.36-14.12,14.17-14.12s14.17,6.34,14.17,14.12c0,3.07-.99,6-2.85,8.47l-.06.08ZM320.94,278.34l1.4,1.11c1.8-2.42,2.75-5.28,2.75-8.27,0-7.68-6.27-13.93-13.98-13.93s-13.97,6.25-13.97,13.93c0,2.98.95,5.84,2.74,8.25l1.4-1.12c-1.54-2.1-2.35-4.56-2.35-7.13,0-6.7,5.47-12.14,12.19-12.14s12.19,5.45,12.19,12.14c0,2.58-.82,5.06-2.37,7.16"/>
          </g>
        </g>
      </g>
      <g id="center-6" data-name="center">
        <path d="M310.97,260.34c-1.39,0-2.52-1.13-2.52-2.52s1.13-2.52,2.52-2.52,2.52,1.13,2.52,2.52-1.13,2.52-2.52,2.52Z" style="fill: #171717;"/>
        <path d="M310.98,256.05c.98,0,1.77.79,1.77,1.77s-.79,1.77-1.77,1.77-1.77-.79-1.77-1.77.79-1.77,1.77-1.77M310.98,254.55c-1.8,0-3.27,1.47-3.27,3.27s1.47,3.27,3.27,3.27,3.27-1.47,3.27-3.27-1.47-3.27-3.27-3.27h0Z" style="fill: #ededed;"/>
      </g>
    </g>
    <g>
      <g id="Artwork_5-7" data-name="Artwork_5">
        <g style="clip-path: url(#clippath-12);">
          <g style="clip-path: url(#clippath-13);">
            <path d="M338.26,278.33c-1.49-2-2.38-4.47-2.38-7.15,0-6.64,5.42-12.05,12.09-12.05s12.09,5.4,12.09,12.05c0,2.69-.9,5.17-2.4,7.18l1.56,1.23c1.77-2.35,2.83-5.25,2.83-8.41,0-7.75-6.3-14.02-14.07-14.02s-14.07,6.28-14.07,14.02c0,3.15,1.06,6.05,2.82,8.39l1.55-1.24Z"/>
            <path d="M359.23,279.73l-1.71-1.36.06-.08c1.56-2.09,2.39-4.55,2.39-7.12,0-6.59-5.38-11.95-11.99-11.95s-11.99,5.36-11.99,11.95c0,2.56.82,5.01,2.36,7.09l.06.08-1.71,1.37-.06-.08c-1.86-2.47-2.84-5.39-2.84-8.45,0-7.79,6.36-14.12,14.17-14.12s14.17,6.34,14.17,14.12c0,3.07-.99,6-2.85,8.47l-.06.08ZM357.79,278.34l1.4,1.11c1.8-2.42,2.75-5.28,2.75-8.27,0-7.68-6.27-13.93-13.98-13.93s-13.97,6.25-13.97,13.93c0,2.98.95,5.84,2.74,8.25l1.4-1.12c-1.54-2.1-2.35-4.56-2.35-7.13,0-6.7,5.47-12.14,12.19-12.14s12.19,5.45,12.19,12.14c0,2.58-.82,5.06-2.37,7.16"/>
          </g>
        </g>
      </g>
      <g id="center-7" data-name="center">
        <path d="M347.83,260.34c-1.39,0-2.52-1.13-2.52-2.52s1.13-2.52,2.52-2.52,2.52,1.13,2.52,2.52-1.13,2.52-2.52,2.52Z" style="fill: #171717;"/>
        <path d="M347.83,256.05c.98,0,1.77.79,1.77,1.77s-.79,1.77-1.77,1.77-1.77-.79-1.77-1.77.79-1.77,1.77-1.77M347.83,254.55c-1.8,0-3.27,1.47-3.27,3.27s1.47,3.27,3.27,3.27,3.27-1.47,3.27-3.27-1.47-3.27-3.27-3.27h0Z" style="fill: #ededed;"/>
      </g>
    </g>
    <g>
      <g id="Artwork_5-8" data-name="Artwork_5">
        <g style="clip-path: url(#clippath-14);">
          <g style="clip-path: url(#clippath-15);">
            <path d="M375.11,278.33c-1.49-2-2.38-4.47-2.38-7.15,0-6.64,5.42-12.05,12.09-12.05s12.09,5.4,12.09,12.05c0,2.69-.9,5.17-2.4,7.18l1.56,1.23c1.77-2.35,2.83-5.25,2.83-8.41,0-7.75-6.3-14.02-14.07-14.02s-14.07,6.28-14.07,14.02c0,3.15,1.06,6.05,2.82,8.39l1.55-1.24Z"/>
            <path d="M396.08,279.73l-1.71-1.36.06-.08c1.56-2.09,2.39-4.55,2.39-7.12,0-6.59-5.38-11.95-11.99-11.95s-11.99,5.36-11.99,11.95c0,2.56.82,5.01,2.36,7.09l.06.08-1.71,1.37-.06-.08c-1.86-2.47-2.84-5.39-2.84-8.45,0-7.79,6.36-14.12,14.17-14.12s14.17,6.34,14.17,14.12c0,3.07-.99,6-2.85,8.47l-.06.08ZM394.64,278.34l1.4,1.11c1.8-2.42,2.75-5.28,2.75-8.27,0-7.68-6.27-13.93-13.98-13.93s-13.97,6.25-13.97,13.93c0,2.98.95,5.84,2.74,8.25l1.4-1.12c-1.54-2.1-2.35-4.56-2.35-7.13,0-6.7,5.47-12.14,12.19-12.14s12.19,5.45,12.19,12.14c0,2.58-.82,5.06-2.37,7.16"/>
          </g>
        </g>
      </g>
      <g id="center-8" data-name="center">
        <path d="M384.68,260.34c-1.39,0-2.52-1.13-2.52-2.52s1.13-2.52,2.52-2.52,2.52,1.13,2.52,2.52-1.13,2.52-2.52,2.52Z" style="fill: #171717;"/>
        <path d="M384.68,256.05c.98,0,1.77.79,1.77,1.77s-.79,1.77-1.77,1.77-1.77-.79-1.77-1.77.79-1.77,1.77-1.77M384.68,254.55c-1.8,0-3.27,1.47-3.27,3.27s1.47,3.27,3.27,3.27,3.27-1.47,3.27-3.27-1.47-3.27-3.27-3.27h0Z" style="fill: #ededed;"/>
      </g>
    </g>
    <g>
      <g id="Artwork_5-9" data-name="Artwork_5">
        <g style="clip-path: url(#clippath-16);">
          <g style="clip-path: url(#clippath-17);">
            <path d="M411.96,278.33c-1.49-2-2.38-4.47-2.38-7.15,0-6.64,5.42-12.05,12.09-12.05s12.09,5.4,12.09,12.05c0,2.69-.9,5.17-2.4,7.18l1.56,1.23c1.77-2.35,2.83-5.25,2.83-8.41,0-7.75-6.3-14.02-14.07-14.02s-14.07,6.28-14.07,14.02c0,3.15,1.06,6.05,2.82,8.39l1.55-1.24Z"/>
            <path d="M432.93,279.73l-1.71-1.36.06-.08c1.56-2.09,2.39-4.55,2.39-7.12,0-6.59-5.38-11.95-11.99-11.95s-11.99,5.36-11.99,11.95c0,2.56.82,5.01,2.36,7.09l.06.08-1.71,1.37-.06-.08c-1.86-2.47-2.84-5.39-2.84-8.45,0-7.79,6.36-14.12,14.17-14.12s14.17,6.34,14.17,14.12c0,3.07-.99,6-2.85,8.47l-.06.08ZM431.49,278.34l1.4,1.11c1.8-2.42,2.75-5.28,2.75-8.27,0-7.68-6.27-13.93-13.98-13.93s-13.97,6.25-13.97,13.93c0,2.98.95,5.84,2.74,8.25l1.4-1.12c-1.54-2.1-2.35-4.56-2.35-7.13,0-6.7,5.47-12.14,12.19-12.14s12.19,5.45,12.19,12.14c0,2.58-.82,5.06-2.37,7.16"/>
          </g>
        </g>
      </g>
      <g id="center-9" data-name="center">
        <path d="M421.53,260.34c-1.39,0-2.52-1.13-2.52-2.52s1.13-2.52,2.52-2.52,2.52,1.13,2.52,2.52-1.13,2.52-2.52,2.52Z" style="fill: #171717;"/>
        <path d="M421.53,256.05c.98,0,1.77.79,1.77,1.77s-.79,1.77-1.77,1.77-1.77-.79-1.77-1.77.79-1.77,1.77-1.77M421.53,254.55c-1.8,0-3.27,1.47-3.27,3.27s1.47,3.27,3.27,3.27,3.27-1.47,3.27-3.27-1.47-3.27-3.27-3.27h0Z" style="fill: #ededed;"/>
      </g>
    </g>
    <g>
      <path d="M446.66,285.52h-3.94v-1.07h3.94v1.07Z"/>
      <path d="M474.82,284.94h-1.65v1.87h-.93v-1.87h-1.65v-1.06h1.65v-1.87h.93v1.87h1.65v1.06Z"/>
      <g>
        <g id="Artwork_5-10" data-name="Artwork_5">
          <g style="clip-path: url(#clippath-18);">
            <g style="clip-path: url(#clippath-19);">
              <path d="M448.81,278.33c-1.49-2-2.38-4.47-2.38-7.15,0-6.64,5.42-12.05,12.09-12.05s12.09,5.4,12.09,12.05c0,2.69-.9,5.17-2.4,7.18l1.56,1.23c1.77-2.35,2.83-5.25,2.83-8.41,0-7.75-6.3-14.02-14.07-14.02s-14.07,6.28-14.07,14.02c0,3.15,1.06,6.05,2.82,8.39l1.55-1.24Z"/>
              <path d="M469.78,279.73l-1.71-1.36.06-.08c1.56-2.09,2.39-4.55,2.39-7.12,0-6.59-5.38-11.95-11.99-11.95s-11.99,5.36-11.99,11.95c0,2.56.82,5.01,2.36,7.09l.06.08-1.71,1.37-.06-.08c-1.86-2.47-2.84-5.39-2.84-8.45,0-7.79,6.36-14.12,14.17-14.12s14.17,6.34,14.17,14.12c0,3.07-.99,6-2.85,8.47l-.06.08ZM468.34,278.34l1.4,1.11c1.8-2.42,2.75-5.28,2.75-8.27,0-7.68-6.27-13.93-13.98-13.93s-13.97,6.25-13.97,13.93c0,2.98.95,5.84,2.74,8.25l1.4-1.12c-1.54-2.1-2.35-4.56-2.35-7.13,0-6.7,5.47-12.14,12.19-12.14s12.19,5.45,12.19,12.14c0,2.58-.82,5.06-2.37,7.16"/>
            </g>
          </g>
        </g>
        <g id="center-10" data-name="center">
          <path d="M458.38,260.34c-1.39,0-2.52-1.13-2.52-2.52s1.13-2.52,2.52-2.52,2.52,1.13,2.52,2.52-1.13,2.52-2.52,2.52Z" style="fill: #171717;"/>
          <path d="M458.38,256.05c.98,0,1.77.79,1.77,1.77s-.79,1.77-1.77,1.77-1.77-.79-1.77-1.77.79-1.77,1.77-1.77M458.38,254.55c-1.8,0-3.27,1.47-3.27,3.27s1.47,3.27,3.27,3.27,3.27-1.47,3.27-3.27-1.47-3.27-3.27-3.27h0Z" style="fill: #ededed;"/>
        </g>
      </g>
    </g>
    <path d="M8.92,75.32v17.57h17.57v-17.57H8.92ZM21.93,89.92l-4.2-6.95-3.39,6.95h-3.32l6.71-12.13,7.04,12.13h-2.83Z"/>
    <path d="M68.66,75.32v17.57h17.57v-17.57h-17.57ZM82.74,89.61h-2.85v-8.28h-4.88v8.28h-2.85v-11.13h10.58v11.13Z"/>
    <line x1="182.51" y1="60.35" x2="47.58" y2="60.35" style="fill: none; stroke: #000; stroke-miterlimit: 10;"/>
    <path d="M419.99,75.32v17.58h17.57v-17.58h-17.57ZM433.63,85.72h-9.7v-3.23h9.7v3.23Z"/>
    <g id="mid_line">
      <line x1="284.59" y1="39.16" x2="284.59" y2="291.45" style="fill: none; stroke: #000; stroke-dasharray: 1 4; stroke-linecap: round; stroke-linejoin: round;"/>
    </g>
    <rect x="451.18" y="34.61" width="2.83" height="8.74" style="fill: #171717;"/>
    <path d="M467.36,75.32v17.57h17.57v-17.57h-17.57ZM481.81,85.35h-4.41v4.41h-2.5v-4.41h-4.41v-2.5h4.41v-4.41h2.5v4.41h4.41v2.5Z"/>
    <g id="two_row">
      <path d="M72.32,296.23H21.3c-7.83,0-14.18,6.56-14.18,14.65v27.41c0,3.39,2.91,6.13,6.5,6.13h31.75s1.43,0,1.43,0h1.43s0,0,0,0h21.6s16.65,0,16.65,0v-33.54c0-8.09-6.35-14.65-14.18-14.65Z"/>
      <path d="M481.97,310.33c-.3-7.94-6.23-14.28-13.53-14.28H92.53s-71.95,0-71.95,0c-7.3,0-13.24,6.34-13.53,14.28l-.06,5.83.07,13.93-.03-3.7v12.2c0,2.96,2.55,5.37,5.67,5.37h463.62c3.12,0,5.67-2.42,5.67-5.37v-12.2l-.02-16.06Z" style="fill: none; stroke: #000; stroke-miterlimit: 10;"/>
      <line x1="472.71" y1="336.54" x2="309.2" y2="336.54" style="fill: none; stroke: #000; stroke-dasharray: 1 4; stroke-linecap: round; stroke-linejoin: round;"/>
      <line x1="255.76" y1="336.54" x2="92.25" y2="336.54" style="fill: none; stroke: #000; stroke-dasharray: 1 4; stroke-linecap: round; stroke-linejoin: round;"/>
    </g>
    <g id="sq_txt_bg">
      <g>
        <rect x="210.52" y="165.45" width="37.58" height="14.17" style="fill: #3babec;"/>
        <rect x="231.24" y="236.09" width="37.58" height="14.17" style="fill: #3babec;"/>
        <rect x="163.72" y="236.09" width="37.58" height="14.17" style="fill: #ee6390;"/>
        <rect x="163.72" y="82.1" width="37.58" height="14.17" style="fill: #ee6390;"/>
        <rect x="231.24" y="82.1" width="37.58" height="14.17" style="fill: #3babec;"/>
        <rect x="48.14" y="245.72" width="31.18" height="11.34" style="fill: #3babec;"/>
        <rect x="14.89" y="245.72" width="31.18" height="11.34" style="fill: #ee6390;"/>
        <rect x="116.92" y="165.45" width="37.58" height="14.17" style="fill: #ee6390;"/>
      </g>
    </g>
  </g>
  <g id="components">
    <circle id="Space_CV" cx="458.77" cy="315.07" r="11.34" style="fill: lime;"/>
    <circle id="Brightness_CV" cx="421.92" cy="315.07" r="11.34" style="fill: lime;"/>
    <circle id="Position_CV" cx="385.07" cy="315.07" r="11.34" style="fill: lime;"/>
    <circle id="Geometry_CV" cx="348.22" cy="315.07" r="11.34" style="fill: lime;"/>
    <circle id="Damping_CV" cx="311.37" cy="315.07" r="11.34" style="fill: lime;"/>
    <circle id="Strike_Timbre_CV" cx="256.21" cy="315.07" r="11.34" style="fill: lime;"/>
    <circle id="Mallet_CV" cx="219.36" cy="315.07" r="11.34" style="fill: lime;"/>
    <circle id="Blow_Timbre_CV" cx="182.51" cy="315.07" r="11.34" style="fill: lime;"/>
    <circle id="Flow_CV" cx="145.66" cy="315.07" r="11.34" style="fill: lime;"/>
    <circle id="Bow_Timbre_CV" cx="108.81" cy="315.07" r="11.34" style="fill: lime;"/>
    <circle id="Out_R" cx="64.67" cy="315.07" r="11.34" style="fill: blue;"/>
    <circle id="Out_L" cx="30.49" cy="315.07" r="11.34" style="fill: blue;"/>
    <circle id="Space_Atten_x23_WhiteSmallKnob" cx="458.77" cy="270.97" r="8.5" style="fill: red;"/>
    <circle id="Brightness_Atten_x23_WhiteSmallKnob" cx="421.92" cy="270.97" r="8.5" style="fill: red;"/>
    <circle id="Position_Atten_x23_WhiteSmallKnob" cx="385.07" cy="270.97" r="8.5" style="fill: red;"/>
    <circle id="Geometry_Atten_x23_WhiteSmallKnob" cx="348.22" cy="270.97" r="8.5" style="fill: red;"/>
    <circle id="Damping_Atten_x23_WhiteSmallKnob" cx="311.37" cy="270.97" r="8.5" style="fill: red;"/>
    <circle id="Strike_Timbre_Atten_x23_WhiteSmallKnob" cx="256.21" cy="270.97" r="8.5" style="fill: red;"/>
    <circle id="Mallet_Atten_x23_WhiteSmallKnob" cx="219.36" cy="270.97" r="8.5" style="fill: red;"/>
    <circle id="Blow_Timbre_Atten_x23_WhiteSmallKnob" cx="182.51" cy="270.97" r="8.5" style="fill: red;"/>
    <circle id="Flow_Atten_x23_WhiteSmallKnob" cx="145.66" cy="270.97" r="8.5" style="fill: red;"/>
    <circle id="Bow_Timbre_Atten_x23_WhiteSmallKnob" cx="108.81" cy="270.97" r="8.5" style="fill: red;"/>
    <circle id="Ext_IN_Strike" cx="64.67" cy="270.97" r="11.34" style="fill: lime;"/>
    <circle id="Ext_IN_Blow" cx="30.49" cy="270.97" r="11.34" style="fill: lime;"/>
    <circle id="Space_x23_WhiteMediumKnob" cx="452.59" cy="214.27" r="17.01" style="fill: #ff0040;"/>
    <circle id="Position_x23_WhiteMediumKnob" cx="385.07" cy="214.27" r="17.01" style="fill: #ff0040;"/>
    <circle id="Damping_x23_WhiteMediumKnob" cx="317.55" cy="214.27" r="17.01" style="fill: #ff0040;"/>
    <circle id="Strike_Timbre_x23_BlueMediumKnob" cx="250.03" cy="214.27" r="17.01" style="fill: #ff0040;"/>
    <circle id="Blow_Timbre_x23_RedMediumKnob" cx="182.51" cy="214.27" r="17.01" style="fill: #ff0040;"/>
    <circle id="Bow_Timbre_x23_WhiteMediumKnob" cx="114.99" cy="214.27" r="17.01" style="fill: #ff0040;"/>
    <circle id="Strength" cx="64.67" cy="226.86" r="11.34" style="fill: lime;"/>
    <circle id="Gate" cx="30.49" cy="226.86" r="11.34" style="fill: #80ff80;"/>
    <circle id="FM" cx="64.67" cy="182.75" r="11.34" style="fill: lime;"/>
    <circle id="V_x2F_Oct" cx="30.49" cy="182.75" r="11.34" style="fill: lime;"/>
    <circle id="Brightness_x23_WhiteLargeKnob" cx="431.87" cy="137.31" r="25.51" style="fill: #ff0040;"/>
    <circle id="Resonator_LED_x23_RedLight" cx="385.07" cy="163.87" r="4.96" style="fill: #f0f;"/>
    <circle id="Geometry_x23_WhiteLargeKnob" cx="338.27" cy="137.31" r="25.51" style="fill: #ff0040;"/>
    <circle id="Mallet_x23_BlueLargeKnob" cx="229.31" cy="137.31" r="25.51" style="fill: #ff0040;"/>
    <circle id="ControlExciter_LED_x23_GreenLight" cx="182.51" cy="163.87" r="4.96" style="fill: #f0f;"/>
    <circle id="Flow_x23_RedLargeKnob" cx="135.71" cy="137.31" r="25.51" style="fill: #ff0040;"/>
    <circle id="Play" cx="47.58" cy="124.27" r="10.63" style="fill: #ff8000;"/>
    <circle id="FM_x23_WhiteMediumKnob" cx="452.59" cy="60.35" r="17.01" style="fill: #ff0040;"/>
    <circle id="Fine_x23_WhiteMediumKnob" cx="385.07" cy="60.35" r="17.01" style="fill: #ff0040;"/>
    <circle id="Coarse_x23_WhiteMediumKnob" cx="317.55" cy="60.35" r="17.01" style="fill: #ff0040;"/>
    <circle id="Strike_x23_RedMediumKnob" cx="250.03" cy="60.35" r="17.01" style="fill: #ff0040;"/>
    <circle id="Blow_x23_RedMediumKnob" cx="182.51" cy="60.35" r="17.01" style="fill: #ff0040;"/>
    <circle id="Bow_x23_WhiteMediumKnob" cx="114.99" cy="60.35" r="17.01" style="fill: #ff0040;"/>
    <circle id="Contour_x23_WhiteMediumKnob" cx="47.58" cy="60.35" r="17.01" style="fill: #ff0040;"/>
    <text id="slug" transform="translate(426 369.14)" style="fill: #010101; font-family: MyriadPro-Regular, &apos;Myriad Pro&apos;; font-size: 3px;"><tspan x="0" y="0">Eleme</tspan><tspan x="7.69" y="0" style="letter-spacing: 0em;">n</tspan><tspan x="9.34" y="0">ts</tspan></text>
    <text id="modulename" transform="translate(442.92 369.14)" style="fill: #010101; font-family: MyriadPro-Regular, &apos;Myriad Pro&apos;; font-size: 3px;"><tspan x="0" y="0" style="letter-spacing: -.02em;">P</tspan><tspan x="1.52" y="0">ecussion </tspan><tspan x="13.05" y="0" style="letter-spacing: 0em;">S</tspan><tspan x="14.5" y="0">y</tspan><tspan x="15.92" y="0" style="letter-spacing: 0em;">n</tspan><tspan x="17.57" y="0">thesi</tspan><tspan x="23.62" y="0" style="letter-spacing: 0em;">z</tspan><tspan x="24.88" y="0">er</tspan></text>
  </g>
</svg>