<?xml version="1.0" encoding="UTF-8"?>
<svg xmlns="http://www.w3.org/2000/svg" width="91.76mm" height="130.49mm" viewBox="0 0 260.09 369.89">
  <g id="faceplate">
    <g id="art">
      <g>
        <rect x=".77" y=".27" width="258.55" height="364" style="fill: #ededee;"/>
        <path d="M259.2.39v363.75H.89V.39h258.3M259.45.14H.64v364.25h258.8V.14h0Z" style="fill: #9c9c9e;"/>
      </g>
      <rect x=".63" y="18.33" width="258.8" height="14.17"/>
      <g>
        <ellipse cx="67.93" cy="247.66" rx="2.09" ry="1.68"/>
        <path d="M59.47,242.18v17.57h17.57v-17.57h-17.57ZM72.3,248.21v9.56h-2.28v-6.65c-.62.31-1.33.5-2.09.5-2.41,0-4.38-1.78-4.38-3.96s1.96-3.96,4.38-3.96,4.38,1.78,4.38,3.96c0,.19-.03.37-.06.55h.06Z"/>
      </g>
      <path d="M100.85,242.18v17.57h17.57v-17.57h-17.57ZM109.96,252.57h-.47l1.55,4.68-2.17.72-2.05-6.18c-.12-.35-.06-.73.16-1.03s.56-.47.93-.47h2.05c1.15,0,2.09-1,2.09-2.24s-.94-2.24-2.09-2.24-2.09,1-2.09,2.24h-2.28c0-2.49,1.96-4.52,4.38-4.52s4.38,2.03,4.38,4.52-1.96,4.52-4.38,4.52Z"/>
      <path d="M142.23,242.18v17.57h17.57v-17.57h-17.57ZM155.39,252.47c0,1.86-1.65,3.41-3.78,3.65l.82.85-1.64,1.58-2.64-2.75c-.32-.33-.41-.82-.23-1.24.18-.42.59-.69,1.05-.69h2.05c1.13,0,2.09-.64,2.09-1.41s-.96-1.41-2.09-1.41h-2.05v-2.28h2.05c1.13,0,2.09-.64,2.09-1.41s-.96-1.41-2.09-1.41-2.09.64-2.09,1.41h-2.28c0-2.03,1.96-3.69,4.38-3.69s4.38,1.65,4.38,3.69c0,.99-.47,1.88-1.22,2.55.75.66,1.22,1.56,1.22,2.55Z"/>
      <g>
        <path d="M192.43,253.35c-1.04,0-1.96.61-1.96,1.31s.92,1.31,1.96,1.31,1.96-.61,1.96-1.31-.92-1.31-1.96-1.31Z"/>
        <path d="M183.61,242.18v17.57h17.57v-17.57h-17.57ZM196.67,254.66c0,1.98-1.9,3.59-4.24,3.59s-4.24-1.61-4.24-3.59c0-1.04.53-1.97,1.37-2.62-2.06-2.43-1.44-7.45-1.36-8.02l2.26.31c-.24,1.76-.22,5.02.85,6.25.3.34.64.49,1.12.49s.83-.15,1.12-.49c1.21-1.39,1.01-5.07.85-6.25l2.26-.31c.08.57.7,5.59-1.36,8.02.84.66,1.37,1.59,1.37,2.62Z"/>
      </g>
      <rect x="188.18" y="181.03" width="62.36" height="14.17" style="fill: #3babec;"/>
      <line x1="251.55" y1="237.15" x2="192.37" y2="237.15" style="fill: none; stroke: #000; stroke-dasharray: 1 4; stroke-linecap: round; stroke-linejoin: round;"/>
      <line x1="147.49" y1="237.15" x2="97.87" y2="237.15" style="fill: none; stroke: #000; stroke-dasharray: 1 4; stroke-linecap: round; stroke-linejoin: round;"/>
      <line x1="250.52" y1="290.62" x2="9.57" y2="290.62" style="fill: none; stroke: #000; stroke-linecap: round; stroke-linejoin: round;"/>
      <line x1="46.68" y1="236.26" x2="39.54" y2="236" style="fill: none; stroke: #000; stroke-linecap: round; stroke-linejoin: round;"/>
      <line x1="53.79" y1="178.41" x2="42.05" y2="178.14" style="fill: none; stroke: #000; stroke-linecap: round; stroke-linejoin: round;"/>
      <line x1="53.79" y1="131.63" x2="42.05" y2="131.37" style="fill: none; stroke: #000; stroke-linecap: round; stroke-linejoin: round;"/>
      <line x1="26.77" y1="238.58" x2="26.77" y2="258.89" style="fill: none; stroke: #000; stroke-linecap: round; stroke-linejoin: round;"/>
      <rect x="211.07" y="243.88" width="42.52" height="14.17" style="fill: #3babec;"/>
      <rect x="107.93" y="203.77" width="42.52" height="14.17" style="fill: #3babec;"/>
      <path d="M238.47,296.23H21.63c-7.83,0-14.18,6.56-14.18,14.65v27.41c0,3.39,2.91,6.13,6.5,6.13h31.75s1.43,0,1.43,0h1.43s0,0,0,0h187.43s9.57,0,9.57,0c3.91,0,7.09-3.17,7.09-7.09v-26.45c0-8.09-6.35-14.65-14.18-14.65Z"/>
      <g id="rast">
        <g>
          <path d="M68.17,335.87c-2.41,0-4.29-1.42-4.29-3.22s1.89-3.22,4.29-3.22,4.29,1.42,4.29,3.22-1.89,3.22-4.29,3.22ZM68.17,330.92c-1.51,0-2.79.79-2.79,1.72s1.28,1.72,2.79,1.72,2.79-.79,2.79-1.72-1.28-1.72-2.79-1.72Z" style="fill: #fff;"/>
          <rect x="70.97" y="333.13" width="1.5" height="8.38" style="fill: #fff;"/>
        </g>
        <path d="M108.88,341.79l-2.25-5.42c-.1-.23-.07-.5.07-.7.14-.21.37-.33.62-.33h2.25c1.54,0,2.79-.99,2.79-2.21s-1.25-2.21-2.79-2.21-2.79.99-2.79,2.21h-1.5c0-2.05,1.93-3.71,4.29-3.71s4.29,1.67,4.29,3.71-1.93,3.71-4.29,3.71h-1.12l1.82,4.38-1.39.57Z" style="fill: #fff;"/>
        <g>
          <path d="M150.97,335.38h-2.25v-1.5h2.25c1.65,0,2.79-.78,2.79-1.48s-1.15-1.48-2.79-1.48-2.79.78-2.79,1.48h-1.5c0-1.67,1.89-2.98,4.29-2.98s4.29,1.31,4.29,2.98-1.89,2.98-4.29,2.98Z" style="fill: #fff;"/>
          <path d="M151.14,342.08l-2.9-2.41c-.24-.2-.33-.53-.23-.83s.39-.5.71-.5h2.25c1.65,0,2.79-.78,2.79-1.48s-1.15-1.48-2.79-1.48h-2.25v-1.5h2.25c2.41,0,4.29,1.31,4.29,2.98s-1.89,2.98-4.29,2.98h-.17l1.3,1.08-.96,1.15Z" style="fill: #fff;"/>
        </g>
        <g>
          <path d="M192.37,342.26c-2.33,0-4.15-1.27-4.15-2.9s1.82-2.9,4.15-2.9,4.15,1.27,4.15,2.9-1.82,2.9-4.15,2.9ZM192.37,337.96c-1.52,0-2.65.74-2.65,1.4s1.13,1.4,2.65,1.4,2.65-.74,2.65-1.4-1.13-1.4-2.65-1.4Z" style="fill: #fff;"/>
          <path d="M192.37,337.96c-1.26,0-2.28-.44-3.01-1.32-1.86-2.21-1.15-6.42-1.12-6.6l1.48.25c-.18,1.03-.38,4,.79,5.38.45.53,1.06.79,1.86.79s1.42-.26,1.86-.79c1.17-1.39.97-4.35.79-5.38l1.48-.25c.03.18.73,4.39-1.12,6.6-.74.88-1.75,1.32-3.01,1.32Z" style="fill: #fff;"/>
        </g>
        <g>
          <path d="M31.58,42.09c-2.41,0-4.29-1.66-4.29-3.78s1.89-3.78,4.29-3.78,4.29,1.66,4.29,3.78-1.89,3.78-4.29,3.78ZM31.58,36.29c-1.51,0-2.79.93-2.79,2.02s1.28,2.02,2.79,2.02,2.79-.93,2.79-2.02-1.28-2.02-2.79-2.02Z"/>
          <rect x="34.38" y="38.88" width="1.5" height="9.82"/>
        </g>
        <path d="M96.84,48.85l-2.25-6.2c-.1-.27-.07-.57.07-.81.14-.24.37-.38.62-.38h2.25c1.54,0,2.79-1.14,2.79-2.53s-1.25-2.53-2.79-2.53-2.79,1.14-2.79,2.53h-1.5c0-2.34,1.93-4.25,4.29-4.25s4.29,1.91,4.29,4.25-1.93,4.25-4.29,4.25h-1.12l1.82,5.02-1.39.66Z"/>
        <g>
          <path d="M161.76,41.49h-2.25v-1.68h2.25c1.65,0,2.79-.87,2.79-1.66s-1.15-1.66-2.79-1.66-2.79.87-2.79,1.66h-1.5c0-1.87,1.89-3.34,4.29-3.34s4.29,1.47,4.29,3.34-1.89,3.34-4.29,3.34Z"/>
          <path d="M161.93,48.99l-2.9-2.7c-.24-.23-.33-.6-.23-.93s.39-.55.71-.55h2.25c1.65,0,2.79-.87,2.79-1.66s-1.15-1.66-2.79-1.66h-2.25v-1.68h2.25c2.41,0,4.29,1.47,4.29,3.34s-1.89,3.34-4.29,3.34h-.17l1.3,1.21-.96,1.29Z"/>
        </g>
        <g>
          <path d="M226.56,49.39c-2.33,0-4.15-1.48-4.15-3.36s1.82-3.36,4.15-3.36,4.15,1.48,4.15,3.36-1.82,3.36-4.15,3.36ZM226.56,44.41c-1.52,0-2.65.86-2.65,1.62s1.13,1.62,2.65,1.62,2.65-.86,2.65-1.62-1.13-1.62-2.65-1.62Z"/>
          <path d="M226.56,44.41c-1.26,0-2.28-.52-3.01-1.53-1.86-2.56-1.15-7.45-1.12-7.66l1.48.3c-.18,1.19-.38,4.63.79,6.24.45.61,1.06.91,1.86.91s1.42-.3,1.86-.91c1.17-1.61.97-5.05.79-6.24l1.48-.3c.03.21.73,5.1-1.12,7.66-.74,1.02-1.75,1.53-3.01,1.53Z"/>
        </g>
      </g>
      <path d="M187.11,122.13v17.58h17.57v-17.58h-17.57ZM200.75,132.54h-9.7v-3.23h9.7v3.23Z"/>
      <path d="M234.48,122.13v17.57h17.57v-17.57h-17.57ZM248.93,132.17h-4.41v4.41h-2.5v-4.41h-4.41v-2.5h4.41v-4.41h2.5v4.41h4.41v2.5Z"/>
      <line x1="219.36" y1="122.13" x2="219.36" y2="138.02" style="fill: none; stroke: #171717; stroke-miterlimit: 10; stroke-width: 3px;"/>
    </g>
  </g>
  <g id="components">
    <circle id="Fr_Step" cx="233.77" cy="315.07" r="11.34" style="fill: #8080ff;"/>
    <circle id="Ch4_Out" cx="192.37" cy="315.07" r="11.34" style="fill: blue;"/>
    <circle id="Ch3_Out" cx="150.97" cy="315.07" r="11.34" style="fill: blue;"/>
    <circle id="Ch2_Out" cx="109.57" cy="315.07" r="11.34" style="fill: blue;"/>
    <circle id="Ch1_Out" cx="68.17" cy="315.07" r="11.34" style="fill: blue;"/>
    <circle id="Mix" cx="26.77" cy="315.07" r="11.34" style="fill: blue;"/>
    <circle id="Frame_CV" cx="233.77" cy="273.67" r="11.34" style="fill: lime;"/>
    <circle id="Ch4_In" cx="192.37" cy="273.67" r="11.34" style="fill: lime;"/>
    <circle id="Ch3_In" cx="150.97" cy="273.67" r="11.34" style="fill: lime;"/>
    <circle id="Ch2_In" cx="109.57" cy="273.67" r="11.34" style="fill: lime;"/>
    <circle id="Ch1_In" cx="68.17" cy="273.67" r="11.34" style="fill: lime;"/>
    <circle id="All" cx="26.77" cy="273.67" r="11.34" style="fill: lime;"/>
    <rect id="_x31_0V_Offset_x40_On_x40_Off" x="21.1" y="227.37" width="11.34" height="17.01" transform="translate(262.64 209.1) rotate(90)" style="fill: #ff8080;"/>
    <circle id="Modulation_x23_WhiteMediumKnob" cx="219.36" cy="154.88" r="17.01" style="fill: #ff0040;"/>
    <circle id="Frame_x23_WhiteLargeKnob" cx="129.36" cy="154.88" r="25.51" style="fill: #ff0040;"/>
    <circle id="Del" cx="32.16" cy="178.27" r="10.63" style="fill: #ff8000;"/>
    <circle id="AddDel_x23_GreenLight" cx="64.56" cy="154.89" r="4.96" style="fill: #f0f;"/>
    <circle id="Add" cx="32.16" cy="131.5" r="10.63" style="fill: #ff8000;"/>
    <circle id="Ch4_x23_GreenLight" cx="226.56" cy="100.88" r="4.96" style="fill: #f0f;"/>
    <circle id="Ch3_x23_GreenLight" cx="161.76" cy="100.88" r="4.96" style="fill: #f0f;"/>
    <circle id="Ch2_x23_GreenLight" cx="96.96" cy="100.88" r="4.96" style="fill: #f0f;"/>
    <circle id="Ch1_x23_GreenLight" cx="32.16" cy="100.88" r="4.96" style="fill: #f0f;"/>
    <circle id="Ch4_x23_WhiteMediumKnob" cx="226.56" cy="68.49" r="17.01" style="fill: #ff0040;"/>
    <circle id="Ch3_x23_WhiteMediumKnob" cx="161.76" cy="68.49" r="17.01" style="fill: #ff0040;"/>
    <circle id="Ch2_x23_WhiteMediumKnob" cx="96.96" cy="68.49" r="17.01" style="fill: #ff0040;"/>
    <circle id="Ch1_x23_WhiteMediumKnob" cx="32.16" cy="68.49" r="17.01" style="fill: #ff0040;"/>
    <text id="slug" transform="translate(215.13 369.14)" style="fill: #010101; font-family: MyriadPro-Regular, &apos;Myriad Pro&apos;; font-size: 3px;"><tspan x="0" y="0" style="letter-spacing: -.03em;">F</tspan><tspan x="1.38" y="0" style="letter-spacing: 0em;">r</tspan><tspan x="2.35" y="0">ames</tspan></text>
    <text id="modulename" transform="translate(227.63 369.14)" style="fill: #010101; font-family: MyriadPro-Regular, &apos;Myriad Pro&apos;; font-size: 3px;"><tspan x="0" y="0">Keyf</tspan><tspan x="5.42" y="0" style="letter-spacing: 0em;">r</tspan><tspan x="6.38" y="0">ame </tspan><tspan x="12.47" y="0" style="letter-spacing: .01em;">M</tspan><tspan x="14.92" y="0">i</tspan><tspan x="15.62" y="0" style="letter-spacing: -.01em;">x</tspan><tspan x="16.96" y="0">er</tspan></text>
  </g>
</svg>