<?xml version="1.0" encoding="UTF-8"?>
<svg xmlns="http://www.w3.org/2000/svg" width="20mm" height="130.44mm" viewBox="0 0 56.71 369.75">
  <g id="faceplate">
    <g id="art">
      <g id="panel">
        <rect x=".14" y=".12" width="56.44" height="364" style="fill: #eeeded; stroke-width: 0px;"/>
        <path d="M56.46.25v363.75H.26V.25h56.19M56.71,0H.01v364.25h56.69V0h0Z" style="fill: #9b9c9d; stroke-width: 0px;"/>
      </g>
      <path d="M53.73,314.93c0-2.76-.89-5.32-2.38-7.4-1.59-2.33-3.86-4.04-6.48-4.74-.11-.04-.23-.07-.34-.1,0,0,0,0-.01,0-1.13-.33-2.31-.51-3.54-.51s-2.42.18-3.54.51c0,0,0,0,0,0-.12.03-.23.06-.35.1-2.62.7-4.89,2.41-6.48,4.74-1.49,2.09-2.38,4.64-2.38,7.41,0,.08.01.15.01.22,0,.08-.01.17-.01.25v21.03h25.51v-21.03c0-.09,0-.17-.01-.25,0-.08.01-.15.01-.22Z" style="fill: #000; stroke-width: 0px;"/>
      <g>
        <path d="M15.63,204.97c-2.76,0-5.32.89-7.4,2.38-2.33,1.59-4.04,3.86-4.74,6.48-.04.11-.07.23-.1.34,0,0,0,0,0,.01-.33,1.13-.51,2.31-.51,3.54s.18,2.42.51,3.54c0,0,0,0,0,0,.03.12.06.23.1.35.7,2.62,2.41,4.89,4.74,6.48,2.09,1.49,4.64,2.38,7.41,2.38.08,0,.15-.01.22-.01.08,0,.17.01.25.01h21.03v-25.51h-21.03c-.09,0-.17,0-.25.01-.08,0-.15-.01-.22-.01Z" style="fill: #000; stroke-width: 0px;"/>
        <path d="M41.34,230.48c2.76,0,5.32-.89,7.4-2.38,2.33-1.59,4.04-3.86,4.74-6.48.04-.11.07-.23.1-.34,0,0,0,0,0-.01.33-1.13.51-2.31.51-3.54s-.18-2.42-.51-3.54c0,0,0,0,0,0-.03-.12-.06-.23-.1-.35-.7-2.62-2.41-4.89-4.74-6.48-2.09-1.49-4.64-2.38-7.41-2.38-.08,0-.15.01-.22.01-.08,0-.17-.01-.25-.01h-21.03s0,25.51,0,25.51h21.03c.09,0,.17,0,.25-.01.08,0,.15.01.22.01Z" style="fill: #000; stroke-width: 0px;"/>
      </g>
      <g>
        <path d="M15.5,107.77c-2.76,0-5.32.89-7.4,2.38-2.33,1.59-4.04,3.86-4.74,6.48-.04.11-.07.23-.1.34,0,0,0,0,0,.01-.33,1.13-.51,2.31-.51,3.54s.18,2.42.51,3.54c0,0,0,0,0,0,.03.12.06.23.1.35.7,2.62,2.41,4.89,4.74,6.48,2.09,1.49,4.64,2.38,7.41,2.38.08,0,.15-.01.22-.01.08,0,.17.01.25.01h21.03v-25.51H15.98c-.09,0-.17,0-.25.01-.08,0-.15-.01-.22-.01Z" style="fill: #000; stroke-width: 0px;"/>
        <path d="M53.73,84.5c0-2.76-.89-5.32-2.38-7.4-1.59-2.33-3.86-4.04-6.48-4.74-.11-.04-.23-.07-.34-.1,0,0,0,0-.01,0-1.13-.33-2.31-.51-3.54-.51s-2.42.18-3.54.51c0,0,0,0,0,0-.12.03-.23.06-.35.1-2.62.7-4.89,2.41-6.48,4.74-1.49,2.09-2.38,4.64-2.38,7.41,0,.08.01.15.01.22,0,.08-.01.17-.01.25v35.55s25.51,0,25.51,0v-35.55c0-.09,0-.17-.01-.25,0-.08.01-.15.01-.22Z" style="fill: #000; stroke-width: 0px;"/>
        <path d="M41,133.29c2.76,0,5.32-.89,7.4-2.38,2.33-1.59,4.04-3.86,4.74-6.48.04-.11.07-.23.1-.34,0,0,0,0,0-.01.33-1.13.51-2.31.51-3.54s-.18-2.42-.51-3.54c0,0,0,0,0,0-.03-.12-.06-.23-.1-.35-.7-2.62-2.41-4.89-4.74-6.48-2.09-1.49-4.64-2.38-7.41-2.38-.08,0-.15.01-.22.01-.08,0-.17-.01-.25-.01h-21.03s0,25.51,0,25.51h21.03c.09,0,.17,0,.25-.01.08,0,.15.01.22.01Z" style="fill: #000; stroke-width: 0px;"/>
      </g>
      <rect y="18.19" width="56.7" height="14.17" style="fill: #000; stroke-width: 0px;"/>
      <line x1="52.67" y1="146.81" x2="2.07" y2="146.81" style="fill: none; stroke: #000; stroke-dasharray: 0 0 1 3; stroke-linecap: round; stroke-linejoin: round;"/>
      <line x1="52.67" y1="243.89" x2="2.07" y2="243.89" style="fill: none; stroke: #000; stroke-dasharray: 0 0 1 3; stroke-linecap: round; stroke-linejoin: round;"/>
      <g>
        <path d="M36.9,141.57c.11-5.25,2.46-4.96,2.46-4.96,0,0,2.39-.29,2.51,4.96" style="fill: none; stroke: #000; stroke-miterlimit: 10; stroke-width: 1.2px;"/>
        <path d="M41.86,141.57c.11-5.25,2.46-4.96,2.46-4.96,0,0,2.39-.29,2.51,4.96" style="fill: none; stroke: #000; stroke-miterlimit: 10; stroke-width: 1.2px;"/>
      </g>
      <path d="M10.46,141.57c.13-5.25,2.81-4.96,2.81-4.96,0,0,1.93-.21,2.63,2.85,0,0,.15,1.68,1.85,1.68h3.53" style="fill: none; stroke: #000; stroke-miterlimit: 10; stroke-width: 1.2px;"/>
      <path d="M15.13,104.92c.05-2.86,2.43-6.27,4.29-3.33,2.11,4.35,4.82,3.52,5.45-1.63" style="fill: none; stroke: #000; stroke-miterlimit: 10; stroke-width: 1.2px;"/>
      <path d="M45.85,104.92c-.05-2.86-2.43-6.27-4.29-3.33-2.11,4.35-4.82,3.52-5.45-1.63" style="fill: none; stroke: #fff; stroke-miterlimit: 10; stroke-width: 1.2px;"/>
    </g>
  </g>
  <g id="components">
    <circle id="S_H_Out" data-name="S&amp;amp;H Out" cx="40.98" cy="314.93" r="11.34" style="fill: blue; stroke-width: 0px;"/>
    <circle id="Noise" cx="15.74" cy="314.93" r="11.34" style="fill: lime; stroke-width: 0px;"/>
    <circle id="Trig" cx="40.98" cy="278.93" r="11.34" style="fill: #80ff80; stroke-width: 0px;"/>
    <circle id="S_H_IN" data-name="S&amp;amp;H IN" cx="15.74" cy="278.93" r="11.34" style="fill: lime; stroke-width: 0px;"/>
    <circle id="S_H_GreenLight" data-name="S&amp;amp;H#GreenLight" cx="14.89" cy="255.48" r="4.96" style="fill: #f0f; stroke-width: 0px;"/>
    <circle id="MIN" cx="40.98" cy="217.73" r="11.34" style="fill: blue; stroke-width: 0px;"/>
    <circle id="MAX" cx="15.74" cy="217.73" r="11.34" style="fill: blue; stroke-width: 0px;"/>
    <circle id="IN_B" data-name="IN B" cx="40.98" cy="181.73" r="11.34" style="fill: lime; stroke-width: 0px;"/>
    <circle id="IN_A" data-name="IN A" cx="15.74" cy="181.73" r="11.34" style="fill: lime; stroke-width: 0px;"/>
    <circle id="Logic_GreenLight" data-name="Logic#GreenLight" cx="14.89" cy="158.29" r="4.96" style="fill: #f0f; stroke-width: 0px;"/>
    <circle id="Full_Sign_Out" data-name="Full Sign Out" cx="40.98" cy="120.53" r="11.34" style="fill: blue; stroke-width: 0px;"/>
    <circle id="Half_Sign_Out" data-name="Half Sign Out" cx="15.74" cy="120.53" r="11.34" style="fill: blue; stroke-width: 0px;"/>
    <circle id="Sign_Out" data-name="Sign Out" cx="40.98" cy="84.53" r="11.34" style="fill: blue; stroke-width: 0px;"/>
    <circle id="Sign_In" data-name="Sign In" cx="15.74" cy="84.53" r="11.34" style="fill: lime; stroke-width: 0px;"/>
    <circle id="Sign_GreenLight" data-name="Sign#GreenLight" cx="14.89" cy="61.1" r="4.96" style="fill: #f0f; stroke-width: 0px;"/>
    <text id="slug" transform="translate(23.39 369)" style="fill: #010101; font-family: MyriadPro-Regular, &apos;Myriad Pro&apos;; font-size: 3px;"><tspan x="0" y="0" style="letter-spacing: .01em;">K</tspan><tspan x="1.66" y="0">inks</tspan></text>
    <text id="modulename" transform="translate(35.89 369)" style="fill: #010101; font-family: MyriadPro-Regular, &apos;Myriad Pro&apos;; font-size: 3px;"><tspan x="0" y="0" style="letter-spacing: 0em;">U</tspan><tspan x="1.95" y="0">tilities</tspan></text>
  </g>
</svg>