<?xml version="1.0" encoding="UTF-8"?>
<svg xmlns="http://www.w3.org/2000/svg" width="20.1mm" height="130.49mm" viewBox="0 0 56.98 369.89">
  <g id="faceplate">
    <g id="art">
      <g id="panel">
        <rect x=".27" y=".27" width="56.44" height="364" style="fill: #eeeded;"/>
        <path d="M56.59.39v363.75H.39V.39h56.19M56.84.14H.14v364.25h56.69V.14h0Z" style="fill: #9b9c9d;"/>
      </g>
      <g>
        <ellipse cx="38.75" cy="58.05" rx="2.85" ry="2.49" style="fill: none; stroke: #000; stroke-linejoin: round; stroke-width: 1.5px;"/>
        <line x1="41.61" y1="66.98" x2="41.61" y2="58.54" style="fill: none; stroke: #000; stroke-linejoin: round; stroke-width: 1.5px;"/>
      </g>
      <g>
        <path d="M48.47,57.81c0-1.24,1.28-2.25,2.85-2.25s2.85,1.01,2.85,2.25-1.28,2.25-2.85,2.25h-1.81" style="fill: none; stroke: #000; stroke-linejoin: round; stroke-width: 1.5px;"/>
        <path d="M49.51,60.06h1.81c1.58,0,2.85,1.01,2.85,2.25s-1.28,2.25-2.85,2.25h-1.81l2.33,2.43" style="fill: none; stroke: #000; stroke-linejoin: round; stroke-width: 1.5px;"/>
      </g>
      <g>
        <circle cx="45.67" cy="59.74" r="1.22"/>
        <circle cx="45.67" cy="64.39" r="1.22"/>
      </g>
      <g>
        <ellipse cx="51.14" cy="252.25" rx="3.04" ry="2.65" style="fill: none; stroke: #000; stroke-linejoin: round; stroke-width: 1.5px;"/>
        <line x1="54.18" y1="261.75" x2="54.18" y2="252.77" style="fill: none; stroke: #000; stroke-linejoin: round; stroke-width: 1.5px;"/>
      </g>
      <g>
        <path d="M35.9,251.99c0-1.32,1.36-2.39,3.04-2.39s3.04,1.07,3.04,2.39-1.36,2.39-3.04,2.39h-1.93" style="fill: none; stroke: #000; stroke-linejoin: round; stroke-width: 1.5px;"/>
        <path d="M37.01,254.38h1.93c1.68,0,3.04,1.07,3.04,2.39s-1.36,2.39-3.04,2.39h-1.93s2.48,2.58,2.48,2.58" style="fill: none; stroke: #000; stroke-linejoin: round; stroke-width: 1.5px;"/>
      </g>
      <g>
        <circle cx="45.29" cy="259.91" r="1.3"/>
        <circle cx="45.29" cy="254.96" r="1.3"/>
      </g>
      <path d="M36.12,156.34c0-1.76,1.37-3.19,3.05-3.19s3.05,1.43,3.05,3.19-1.37,3.19-3.05,3.19h-1.94l1.94,5.83" style="fill: none; stroke: #000; stroke-linejoin: round; stroke-width: 1.5px;"/>
      <path d="M48.08,156.34c0-1.76,1.37-3.19,3.05-3.19s3.05,1.43,3.05,3.19-1.37,3.19-3.05,3.19h-1.94l1.94,5.83" style="fill: none; stroke: #000; stroke-linejoin: round; stroke-width: 1.5px;"/>
      <g>
        <circle cx="45.21" cy="157.54" r="1.31"/>
        <circle cx="45.21" cy="162.52" r="1.31"/>
      </g>
      <rect x=".13" y="18.33" width="56.7" height="14.17"/>
      <line x1="52.8" y1="146.95" x2="2.21" y2="146.95" style="fill: none; stroke: #000; stroke-dasharray: 1 3; stroke-linecap: round; stroke-linejoin: round;"/>
      <line x1="52.8" y1="244.04" x2="2.21" y2="244.04" style="fill: none; stroke: #000; stroke-dasharray: 1 3; stroke-linecap: round; stroke-linejoin: round;"/>
      <path d="M53.86,315.07c0-2.76-.89-5.32-2.38-7.4-1.59-2.33-3.86-4.04-6.48-4.74-.11-.04-.23-.07-.34-.1,0,0,0,0-.01,0-1.13-.33-2.31-.51-3.54-.51s-2.42.18-3.54.51c0,0,0,0,0,0-.12.03-.23.06-.35.1-2.62.7-4.89,2.41-6.48,4.74-1.49,2.09-2.38,4.64-2.38,7.41,0,.08.01.15.01.22,0,.08-.01.17-.01.25v21.03h25.51v-21.03c0-.09,0-.17-.01-.25,0-.08.01-.15.01-.22Z"/>
      <g>
        <path d="M15.76,205.11c-2.76,0-5.32.89-7.4,2.38-2.33,1.59-4.04,3.86-4.74,6.48-.04.11-.07.23-.1.34,0,0,0,0,0,.01-.33,1.13-.51,2.31-.51,3.54s.18,2.42.51,3.54c0,0,0,0,0,0,.03.12.06.23.1.35.7,2.62,2.41,4.89,4.74,6.48,2.09,1.49,4.64,2.38,7.41,2.38.08,0,.15-.01.22-.01.08,0,.17.01.25.01h21.03v-25.51h-21.03c-.09,0-.17,0-.25.01-.08,0-.15-.01-.22-.01Z"/>
        <path d="M41.47,230.63c2.76,0,5.32-.89,7.4-2.38,2.33-1.59,4.04-3.86,4.74-6.48.04-.11.07-.23.1-.34,0,0,0,0,0-.01.33-1.13.51-2.31.51-3.54s-.18-2.42-.51-3.54c0,0,0,0,0,0-.03-.12-.06-.23-.1-.35-.7-2.62-2.41-4.89-4.74-6.48-2.09-1.49-4.64-2.38-7.41-2.38-.08,0-.15.01-.22.01-.08,0-.17-.01-.25-.01h-21.03s0,25.51,0,25.51h21.03c.09,0,.17,0,.25-.01.08,0,.15.01.22.01Z"/>
      </g>
      <g>
        <path d="M15.63,107.92c-2.76,0-5.32.89-7.4,2.38-2.33,1.59-4.04,3.86-4.74,6.48-.04.11-.07.23-.1.34,0,0,0,0,0,.01-.33,1.13-.51,2.31-.51,3.54s.18,2.42.51,3.54c0,0,0,0,0,0,.03.12.06.23.1.35.7,2.62,2.41,4.89,4.74,6.48,2.09,1.49,4.64,2.38,7.41,2.38.08,0,.15-.01.22-.01.08,0,.17.01.25.01h21.03v-25.51h-21.03c-.09,0-.17,0-.25.01-.08,0-.15-.01-.22-.01Z"/>
        <path d="M53.86,84.64c0-2.76-.89-5.32-2.38-7.4-1.59-2.33-3.86-4.04-6.48-4.74-.11-.04-.23-.07-.34-.1,0,0,0,0-.01,0-1.13-.33-2.31-.51-3.54-.51s-2.42.18-3.54.51c0,0,0,0,0,0-.12.03-.23.06-.35.1-2.62.7-4.89,2.41-6.48,4.74-1.49,2.09-2.38,4.64-2.38,7.41,0,.08.01.15.01.22,0,.08-.01.17-.01.25v35.55s25.51,0,25.51,0v-35.55c0-.09,0-.17-.01-.25,0-.08.01-.15.01-.22Z"/>
        <path d="M41.13,133.43c2.76,0,5.32-.89,7.4-2.38,2.33-1.59,4.04-3.86,4.74-6.48.04-.11.07-.23.1-.34,0,0,0,0,0-.01.33-1.13.51-2.31.51-3.54s-.18-2.42-.51-3.54c0,0,0,0,0,0-.03-.12-.06-.23-.1-.35-.7-2.62-2.41-4.89-4.74-6.48-2.09-1.49-4.64-2.38-7.41-2.38-.08,0-.15.01-.22.01-.08,0-.17-.01-.25-.01h-21.03s0,25.51,0,25.51h21.03c.09,0,.17,0,.25-.01.08,0,.15.01.22.01Z"/>
      </g>
      <g>
        <polygon points="8.82 70.06 18.88 70.06 8.82 59.99 8.82 70.06" style="fill: #00af66;"/>
        <polygon points="10.83 57.97 20.62 67.76 20.62 57.97 10.83 57.97" style="fill: #00af66;"/>
        <polygon points="5.96 55.12 20.62 55.12 20.62 52.48 3.05 52.48 3.05 70.06 5.96 70.06 5.96 55.12" style="fill: #00af66;"/>
      </g>
      <g>
        <polygon points="18.66 149.68 5.01 149.68 11.83 156.51 18.66 149.68" style="fill: #f97d9e;"/>
        <polygon points="9.82 158.53 3.05 151.76 3.05 165.3 9.82 158.53" style="fill: #f97d9e;"/>
        <polygon points="13.85 158.53 20.62 165.3 20.62 151.76 13.85 158.53" style="fill: #f97d9e;"/>
        <polygon points="11.83 160.55 5.12 167.26 18.55 167.26 11.83 160.55" style="fill: #f97d9e;"/>
      </g>
      <g>
        <polygon points="14.85 246.88 4.78 246.88 12.59 254.69 10.57 256.7 3.05 249.18 3.05 258.97 14.85 258.97 14.85 246.88" style="fill: #09b8ed;"/>
        <polygon points="17.7 246.88 17.7 261.82 3.05 261.82 3.05 264.46 20.62 264.46 20.62 246.88 17.7 246.88" style="fill: #09b8ed;"/>
      </g>
    </g>
  </g>
  <g id="components">
    <circle id="C1_Out" cx="41.11" cy="315.07" r="11.34" style="fill: blue;"/>
    <circle id="C3_IN" cx="15.87" cy="315.07" r="11.34" style="fill: lime;"/>
    <circle id="C2_IN" cx="41.11" cy="279.07" r="11.34" style="fill: lime;"/>
    <circle id="C1_IN" cx="15.87" cy="279.07" r="11.34" style="fill: lime;"/>
    <circle id="C_LED_x23_GreenLight" cx="28.49" cy="255.67" r="4.96" style="fill: #f0f;"/>
    <circle id="B2_Out" cx="41.11" cy="217.87" r="11.34" style="fill: blue;"/>
    <circle id="B1_Out" cx="15.87" cy="217.87" r="11.34" style="fill: blue;"/>
    <circle id="B2_IN" cx="41.11" cy="181.87" r="11.34" style="fill: lime;"/>
    <circle id="B1_IN" cx="15.87" cy="181.87" r="11.34" style="fill: lime;"/>
    <circle id="B_LED_x23_GreenLight" cx="28.49" cy="158.47" r="4.96" style="fill: #f0f;"/>
    <circle id="A3_Out" cx="41.11" cy="120.67" r="11.34" style="fill: blue;"/>
    <circle id="A2_Out" cx="15.87" cy="120.67" r="11.34" style="fill: blue;"/>
    <circle id="A1_Out" cx="41.11" cy="84.67" r="11.34" style="fill: blue;"/>
    <circle id="A1_IN" cx="15.87" cy="84.67" r="11.34" style="fill: lime;"/>
    <circle id="A_LED_x23_GreenLight" cx="28.49" cy="61.27" r="4.96" style="fill: #f0f;"/>
    <text id="slug" transform="translate(23.52 369.14)" style="fill: #010101; font-family: MyriadPro-Regular, &apos;Myriad Pro&apos;; font-size: 3px;"><tspan x="0" y="0">Links</tspan></text>
    <text id="modulename" transform="translate(36.02 369.14)" style="fill: #010101; font-family: MyriadPro-Regular, &apos;Myriad Pro&apos;; font-size: 3px;"><tspan x="0" y="0" style="letter-spacing: 0em;">M</tspan><tspan x="2.42" y="0">ultiples</tspan></text>
  </g>
</svg>