<?xml version="1.0" encoding="UTF-8"?>
<svg xmlns="http://www.w3.org/2000/svg" width="56.71" height="369.73" viewBox="0 0 56.71 369.73">
  <g id="faceplate">
    <g id="panel">
      <rect x=".14" y=".13" width="56.44" height="363.98" style="fill: #eeeded; stroke-width: 0px;"/>
      <path d="M56.46.25v363.73H.26V.25h56.19M56.71,0H0v364.23h56.69V0h.01Z" style="fill: #9b9c9d; stroke-width: 0px;"/>
    </g>
    <g>
      <ellipse cx="38.62" cy="57.91" rx="2.85" ry="2.49" style="fill: none; stroke: #000; stroke-linejoin: round; stroke-width: 1.5px;"/>
      <line x1="41.48" y1="66.84" x2="41.48" y2="58.4" style="fill: none; stroke: #000; stroke-linejoin: round; stroke-width: 1.5px;"/>
    </g>
    <g>
      <path d="M48.34,57.67c0-1.24,1.28-2.25,2.85-2.25s2.85,1.01,2.85,2.25-1.28,2.25-2.85,2.25h-1.81" style="fill: none; stroke: #000; stroke-linejoin: round; stroke-width: 1.5px;"/>
      <path d="M49.38,59.92h1.81c1.58,0,2.85,1.01,2.85,2.25s-1.28,2.25-2.85,2.25h-1.81l2.33,2.43" style="fill: none; stroke: #000; stroke-linejoin: round; stroke-width: 1.5px;"/>
    </g>
    <g>
      <circle cx="45.54" cy="59.6" r="1.22" style="fill: #000; stroke-width: 0px;"/>
      <circle cx="45.54" cy="64.25" r="1.22" style="fill: #000; stroke-width: 0px;"/>
    </g>
    <g>
      <ellipse cx="51.01" cy="252.09" rx="3.04" ry="2.65" style="fill: none; stroke: #000; stroke-linejoin: round; stroke-width: 1.5px;"/>
      <line x1="54.05" y1="261.59" x2="54.05" y2="252.61" style="fill: none; stroke: #000; stroke-linejoin: round; stroke-width: 1.5px;"/>
    </g>
    <g>
      <path d="M35.77,251.83c0-1.32,1.36-2.39,3.04-2.39s3.04,1.07,3.04,2.39-1.36,2.39-3.04,2.39h-1.93" style="fill: none; stroke: #000; stroke-linejoin: round; stroke-width: 1.5px;"/>
      <path d="M36.88,254.22h1.93c1.68,0,3.04,1.07,3.04,2.39s-1.36,2.39-3.04,2.39h-1.93l2.48,2.58" style="fill: none; stroke: #000; stroke-linejoin: round; stroke-width: 1.5px;"/>
    </g>
    <g>
      <circle cx="45.16" cy="259.75" r="1.3" style="fill: #000; stroke-width: 0px;"/>
      <circle cx="45.16" cy="254.8" r="1.3" style="fill: #000; stroke-width: 0px;"/>
    </g>
    <path d="M35.99,156.19c0-1.76,1.37-3.19,3.05-3.19s3.05,1.43,3.05,3.19-1.37,3.19-3.05,3.19h-1.94l1.94,5.83" style="fill: none; stroke: #000; stroke-linejoin: round; stroke-width: 1.5px;"/>
    <path d="M47.95,156.19c0-1.76,1.37-3.19,3.05-3.19s3.05,1.43,3.05,3.19-1.37,3.19-3.05,3.19h-1.94l1.94,5.83" style="fill: none; stroke: #000; stroke-linejoin: round; stroke-width: 1.5px;"/>
    <g>
      <circle cx="45.08" cy="157.39" r="1.31" style="fill: #000; stroke-width: 0px;"/>
      <circle cx="45.08" cy="162.37" r="1.31" style="fill: #000; stroke-width: 0px;"/>
    </g>
    <rect y="18.19" width="56.7" height="14.17" style="fill: #000; stroke-width: 0px;"/>
    <line x1="52.67" y1="146.8" x2="2.08" y2="146.8" style="fill: none; stroke: #000; stroke-dasharray: 0 0 0 0 0 0 1 3; stroke-linecap: round; stroke-linejoin: round; stroke-width: 1px;"/>
    <line x1="52.67" y1="243.88" x2="2.08" y2="243.88" style="fill: none; stroke: #000; stroke-dasharray: 0 0 0 0 0 0 1 3; stroke-linecap: round; stroke-linejoin: round; stroke-width: 1px;"/>
    <path d="M53.73,314.91c0-2.76-.89-5.32-2.38-7.4-1.59-2.33-3.86-4.04-6.48-4.74-.11-.04-.23-.07-.34-.1h0c-1.13-.33-2.31-.51-3.54-.51s-2.42.18-3.54.51h0c-.12.03-.23.06-.35.1-2.62.7-4.89,2.41-6.48,4.74-1.49,2.09-2.38,4.64-2.38,7.41,0,.08,0,.15,0,.22,0,.08,0,.17,0,.25v21.03h25.51v-21.03c0-.09,0-.17,0-.25,0-.08,0-.15,0-.22h-.01Z" style="fill: #000; stroke-width: 0px;"/>
    <g>
      <path d="M15.63,204.96c-2.76,0-5.32.89-7.4,2.38-2.33,1.59-4.04,3.86-4.74,6.48-.04.11-.07.23-.1.34h0c-.33,1.14-.51,2.32-.51,3.55s.18,2.42.51,3.54h0c.03.12.06.23.1.35.7,2.62,2.41,4.89,4.74,6.48,2.09,1.49,4.64,2.38,7.41,2.38.08,0,.15,0,.22,0,.08,0,.17,0,.25,0h21.03v-25.51h-21.03c-.09,0-.17,0-.25,0-.08,0-.15,0-.22,0h-.01Z" style="fill: #000; stroke-width: 0px;"/>
      <path d="M41.34,230.48c2.76,0,5.32-.89,7.4-2.38,2.33-1.59,4.04-3.86,4.74-6.48.04-.11.07-.23.1-.34h0c.33-1.14.51-2.32.51-3.55s-.18-2.42-.51-3.54h0c-.03-.12-.06-.23-.1-.35-.7-2.62-2.41-4.89-4.74-6.48-2.09-1.49-4.64-2.38-7.41-2.38-.08,0-.15,0-.22,0-.08,0-.17,0-.25,0h-21.03v25.51h21.03c.09,0,.17,0,.25,0,.08,0,.15,0,.22,0h0Z" style="fill: #000; stroke-width: 0px;"/>
    </g>
    <g>
      <path d="M15.5,107.77c-2.76,0-5.32.89-7.4,2.38-2.33,1.59-4.04,3.86-4.74,6.48-.04.11-.07.23-.1.34h0c-.33,1.14-.51,2.32-.51,3.55s.18,2.42.51,3.54h0c.03.12.06.23.1.35.7,2.62,2.41,4.89,4.74,6.48,2.09,1.49,4.64,2.38,7.41,2.38.08,0,.15,0,.22,0,.08,0,.17,0,.25,0h21.03v-25.51H15.98c-.09,0-.17,0-.25.01-.08,0-.15-.01-.22-.01h0Z" style="fill: #000; stroke-width: 0px;"/>
      <path d="M53.73,84.49c0-2.76-.89-5.32-2.38-7.4-1.59-2.33-3.86-4.04-6.48-4.74-.11-.04-.23-.07-.34-.1h0c-1.13-.33-2.31-.51-3.54-.51s-2.42.18-3.54.51h0c-.12.03-.23.06-.35.1-2.62.7-4.89,2.41-6.48,4.74-1.49,2.09-2.38,4.64-2.38,7.41,0,.08,0,.15,0,.22,0,.08,0,.17,0,.25v35.55h25.51v-35.55c0-.09,0-.17,0-.25,0-.08,0-.15,0-.22h-.01Z" style="fill: #000; stroke-width: 0px;"/>
      <path d="M41,133.28c2.76,0,5.32-.89,7.4-2.38,2.33-1.59,4.04-3.86,4.74-6.48.04-.11.07-.23.1-.34h0c.33-1.14.51-2.32.51-3.55s-.18-2.42-.51-3.54h0c-.03-.12-.06-.23-.1-.35-.7-2.62-2.41-4.89-4.74-6.48-2.09-1.49-4.64-2.38-7.41-2.38-.08,0-.15.01-.22.01-.08,0-.17-.01-.25-.01h-21.03v25.51h21.03c.09,0,.17,0,.25,0,.08,0,.15,0,.22,0h0Z" style="fill: #000; stroke-width: 0px;"/>
    </g>
    <g>
      <polygon points="8.69 69.92 18.75 69.92 8.69 59.85 8.69 69.92" style="fill: #00af66; stroke-width: 0px;"/>
      <polygon points="10.7 57.83 20.49 67.62 20.49 57.83 10.7 57.83" style="fill: #00af66; stroke-width: 0px;"/>
      <polygon points="5.83 54.98 20.49 54.98 20.49 52.34 2.92 52.34 2.92 69.92 5.83 69.92 5.83 54.98" style="fill: #00af66; stroke-width: 0px;"/>
    </g>
    <g>
      <polygon points="18.53 149.53 4.88 149.53 11.7 156.36 18.53 149.53" style="fill: #f97d9e; stroke-width: 0px;"/>
      <polygon points="9.69 158.38 2.92 151.61 2.92 165.15 9.69 158.38" style="fill: #f97d9e; stroke-width: 0px;"/>
      <polygon points="13.72 158.38 20.49 165.15 20.49 151.61 13.72 158.38" style="fill: #f97d9e; stroke-width: 0px;"/>
      <polygon points="11.7 160.4 4.99 167.11 18.42 167.11 11.7 160.4" style="fill: #f97d9e; stroke-width: 0px;"/>
    </g>
    <g>
      <polygon points="14.72 246.72 4.65 246.72 12.46 254.53 10.44 256.54 2.92 249.02 2.92 258.81 14.72 258.81 14.72 246.72" style="fill: #09b8ed; stroke-width: 0px;"/>
      <polygon points="17.57 246.72 17.57 261.66 2.92 261.66 2.92 264.3 20.49 264.3 20.49 246.72 17.57 246.72" style="fill: #09b8ed; stroke-width: 0px;"/>
    </g>
  </g>
  <g id="components">
    <circle id="C_Light_GreenRedLight" data-name="C Light#GreenRedLight" cx="28.36" cy="255.51" r="4.96" style="fill: #f0f; stroke-width: 0px;"/>
    <circle id="C1_Out" data-name="C1 Out" cx="40.98" cy="314.91" r="11.34" style="fill: blue; stroke-width: 0px;"/>
    <circle id="C3_In" data-name="C3 In" cx="15.74" cy="314.91" r="11.34" style="fill: lime; stroke-width: 0px;"/>
    <circle id="C2_In" data-name="C2 In" cx="40.98" cy="278.91" r="11.34" style="fill: lime; stroke-width: 0px;"/>
    <circle id="C1_In" data-name="C1 In" cx="15.74" cy="278.91" r="11.34" style="fill: lime; stroke-width: 0px;"/>
    <circle id="B_Light_GreenRedLight" data-name="B Light#GreenRedLight" cx="28.36" cy="158.32" r="4.96" style="fill: #f0f; stroke-width: 0px;"/>
    <circle id="B2_Out" data-name="B2 Out" cx="40.98" cy="217.72" r="11.34" style="fill: blue; stroke-width: 0px;"/>
    <circle id="B1_Out" data-name="B1 Out" cx="15.74" cy="217.72" r="11.34" style="fill: blue; stroke-width: 0px;"/>
    <circle id="B2_In" data-name="B2 In" cx="40.98" cy="181.72" r="11.34" style="fill: lime; stroke-width: 0px;"/>
    <circle id="B1_In" data-name="B1 In" cx="15.74" cy="181.72" r="11.34" style="fill: lime; stroke-width: 0px;"/>
    <circle id="A_Light_GreenRedLight" data-name="A Light#GreenRedLight" cx="28.36" cy="61.13" r="4.96" style="fill: #f0f; stroke-width: 0px;"/>
    <circle id="A3_Out" data-name="A3 Out" cx="40.98" cy="120.52" r="11.34" style="fill: blue; stroke-width: 0px;"/>
    <circle id="A2_Out" data-name="A2 Out" cx="15.74" cy="120.52" r="11.34" style="fill: blue; stroke-width: 0px;"/>
    <circle id="A1_Out" data-name="A1 Out" cx="40.98" cy="84.52" r="11.34" style="fill: blue; stroke-width: 0px;"/>
    <circle id="A1_In" data-name="A1 In" cx="15.74" cy="84.52" r="11.34" style="fill: lime; stroke-width: 0px;"/>
    <g id="slug" style="isolation: isolate;">
      <text transform="translate(23.39 368.98)" style="fill: #010101; font-family: MyriadPro-Cond, &apos;Myriad Pro&apos;; font-size: 3px; isolation: isolate;"><tspan x="0" y="0">Links</tspan></text>
    </g>
    <g id="modulename" style="isolation: isolate;">
      <text transform="translate(35.89 368.98)" style="fill: #010101; font-family: MyriadPro-Cond, &apos;Myriad Pro&apos;; font-size: 3px; isolation: isolate;"><tspan x="0" y="0">M</tspan></text>
      <text transform="translate(38.31 368.98)" style="fill: #010101; font-family: MyriadPro-Cond, &apos;Myriad Pro&apos;; font-size: 3px; isolation: isolate;"><tspan x="0" y="0">ultiples</tspan></text>
    </g>
  </g>
</svg>