<?xml version="1.0" encoding="UTF-8" standalone="no"?>
<svg
   width="70.8mm"
   height="130.44mm"
   viewBox="0 0 200.69 369.75"
   version="1.1"
   id="svg74"
   sodipodi:docname="Rings_info.svg"
   inkscape:version="1.3.2 (091e20e, 2023-11-25)"
   xmlns:inkscape="http://www.inkscape.org/namespaces/inkscape"
   xmlns:sodipodi="http://sodipodi.sourceforge.net/DTD/sodipodi-0.dtd"
   xmlns="http://www.w3.org/2000/svg"
   xmlns:svg="http://www.w3.org/2000/svg">
  <sodipodi:namedview
     id="namedview74"
     pagecolor="#ffffff"
     bordercolor="#000000"
     borderopacity="0.25"
     inkscape:showpageshadow="2"
     inkscape:pageopacity="0.0"
     inkscape:pagecheckerboard="0"
     inkscape:deskcolor="#d1d1d1"
     inkscape:document-units="mm"
     showgrid="false"
     inkscape:zoom="2.4665235"
     inkscape:cx="168.86115"
     inkscape:cy="235.95964"
     inkscape:window-width="2512"
     inkscape:window-height="1387"
     inkscape:window-x="50"
     inkscape:window-y="25"
     inkscape:window-maximized="1"
     inkscape:current-layer="components" />
  <defs
     id="defs10">
    <clipPath
       id="clippath">
      <rect
         x="12.5"
         y="214.11"
         width="28.35"
         height="22.68"
         style="fill: none; stroke-width: 0px;"
         id="rect1" />
    </clipPath>
    <clipPath
       id="clippath-1">
      <rect
         x="12.5"
         y="214.11"
         width="28.35"
         height="22.68"
         style="fill: none; stroke-width: 0px;"
         id="rect2" />
    </clipPath>
    <clipPath
       id="clippath-2">
      <rect
         x="49.35"
         y="214.11"
         width="28.35"
         height="22.68"
         style="fill: none; stroke-width: 0px;"
         id="rect3" />
    </clipPath>
    <clipPath
       id="clippath-3">
      <rect
         x="49.35"
         y="214.11"
         width="28.35"
         height="22.68"
         style="fill: none; stroke-width: 0px;"
         id="rect4" />
    </clipPath>
    <clipPath
       id="clippath-4">
      <rect
         x="86.2"
         y="214.11"
         width="28.35"
         height="22.68"
         style="fill: none; stroke-width: 0px;"
         id="rect5" />
    </clipPath>
    <clipPath
       id="clippath-5">
      <rect
         x="86.2"
         y="214.11"
         width="28.35"
         height="22.68"
         style="fill: none; stroke-width: 0px;"
         id="rect6" />
    </clipPath>
    <clipPath
       id="clippath-6">
      <rect
         x="123.05"
         y="214.11"
         width="28.35"
         height="22.68"
         style="fill: none; stroke-width: 0px;"
         id="rect7" />
    </clipPath>
    <clipPath
       id="clippath-7">
      <rect
         x="123.05"
         y="214.11"
         width="28.35"
         height="22.68"
         style="fill: none; stroke-width: 0px;"
         id="rect8" />
    </clipPath>
    <clipPath
       id="clippath-8">
      <rect
         x="159.9"
         y="214.11"
         width="28.35"
         height="22.68"
         style="fill: none; stroke-width: 0px;"
         id="rect9" />
    </clipPath>
    <clipPath
       id="clippath-9">
      <rect
         x="159.9"
         y="214.11"
         width="28.35"
         height="22.68"
         style="fill: none; stroke-width: 0px;"
         id="rect10" />
    </clipPath>
  </defs>
  <g
     id="faceplate">
    <g
       id="panel">
      <rect
         x=".12"
         y=".12"
         width="200.44"
         height="364"
         style="fill: #ededee; stroke-width: 0px;"
         id="rect11" />
      <path
         d="M200.44.25v363.75H.25V.25h200.19M200.69,0H0v364.25h200.69V0h0Z"
         style="fill: #9c9c9e; stroke-width: 0px;"
         id="path11" />
    </g>
    <path
       d="M134.58,344.28h39.38s14.18,0,14.18,0c3.07,0,5.56-2.38,5.56-5.29v-42.9h-61.46c-7.39,0-13.37,6.56-13.37,14.65v33.54h15.71Z"
       style="fill: #000; stroke-width: 0px;"
       id="path12" />
    <path
       d="M193.92,269.37c-.3-7.94-6.23-14.28-13.53-14.28h-87.99s-71.95,0-71.95,0c-7.3,0-13.24,6.34-13.53,14.28l-.06,5.83.07,54.74-.03-3.7v12.2c0,2.96,2.55,5.37,5.67,5.37h175.71c3.12,0,5.67-2.42,5.67-5.37v-12.2l-.02-56.87Z"
       style="fill: none; stroke: #000; stroke-miterlimit: 10;"
       id="path13" />
    <line
       x1="120.84"
       y1="292.07"
       x2="193.92"
       y2="292.07"
       style="fill: none; stroke: #000; stroke-linecap: round; stroke-linejoin: round;"
       id="line13" />
    <line
       x1="6.87"
       y1="292.07"
       x2="79.94"
       y2="292.07"
       style="fill: none; stroke: #000; stroke-linecap: round; stroke-linejoin: round;"
       id="line14" />
    <text
       transform="translate(52.75 277.79) scale(.88 1)"
       style="fill: #ededed; font-family: GillSans-Bold, 'Gill Sans'; font-size: 8px; font-weight: 700; letter-spacing: -.04em;"
       id="text14"><tspan
         x="0"
         y="0"
         id="tspan14">Out</tspan></text>
    <path
       d="M14.82,242.57h-3.94v-1.07h3.94v1.07Z"
       style="fill: #000; stroke-width: 0px;"
       id="path14" />
    <path
       d="M51.67,242.57h-3.94v-1.07h3.94v1.07Z"
       style="fill: #000; stroke-width: 0px;"
       id="path15" />
    <path
       d="M88.52,242.57h-3.94v-1.07h3.94v1.07Z"
       style="fill: #000; stroke-width: 0px;"
       id="path16" />
    <path
       d="M125.37,242.57h-3.94v-1.07h3.94v1.07Z"
       style="fill: #000; stroke-width: 0px;"
       id="path17" />
    <path
       d="M162.22,242.57h-3.94v-1.07h3.94v1.07Z"
       style="fill: #000; stroke-width: 0px;"
       id="path18" />
    <g
       id="linework">
      <line
         x1="26.67"
         y1="226.64"
         x2="26.67"
         y2="254.98"
         style="fill: none; stroke: #000; stroke-miterlimit: 10;"
         id="line18" />
      <line
         x1="63.54"
         y1="226.64"
         x2="63.54"
         y2="254.98"
         style="fill: none; stroke: #000; stroke-miterlimit: 10;"
         id="line19" />
      <line
         x1="100.4"
         y1="226.64"
         x2="100.4"
         y2="254.98"
         style="fill: none; stroke: #000; stroke-miterlimit: 10;"
         id="line20" />
      <line
         x1="137.27"
         y1="226.64"
         x2="137.27"
         y2="254.98"
         style="fill: none; stroke: #000; stroke-miterlimit: 10;"
         id="line21" />
      <line
         x1="174.13"
         y1="226.64"
         x2="174.13"
         y2="254.98"
         style="fill: none; stroke: #000; stroke-miterlimit: 10;"
         id="line22" />
      <line
         x1="137.06"
         y1="210.32"
         x2="137.06"
         y2="139.29"
         style="fill: none; stroke: #000; stroke-miterlimit: 10;"
         id="line23" />
      <line
         x1="63.36"
         y1="210.32"
         x2="63.36"
         y2="139.29"
         style="fill: none; stroke: #000; stroke-miterlimit: 10;"
         id="line24" />
    </g>
    <rect
       x="2.83"
       y="16.78"
       width="195.02"
       height="17.01"
       rx="2.82"
       ry="2.82"
       style="fill: #000; stroke-width: 0px;"
       id="rect24" />
    <g
       id="color_icons"
       data-name="color icons">
      <g
         id="g30">
        <g
           id="g27">
          <polygon
             points="85.86 38 90.25 38 76.75 51.47 76.75 47.1 85.86 38"
             style="fill: #ee6390; stroke-width: 0px;"
             id="polygon24" />
          <polygon
             points="83.04 53.41 78.66 53.41 92.16 39.93 92.16 44.31 83.04 53.41"
             style="fill: #ee6390; stroke-width: 0px;"
             id="polygon25" />
          <polygon
             points="92.16 48.14 92.16 53.41 86.88 53.41 92.16 48.14"
             style="fill: #ee6390; stroke-width: 0px;"
             id="polygon26" />
          <polygon
             points="82.02 38 76.75 43.26 76.75 38 82.02 38"
             style="fill: #ee6390; stroke-width: 0px;"
             id="polygon27" />
        </g>
        <rect
           x="38.3"
           y="38"
           width="15.4"
           height="15.4"
           transform="translate(.29 91.7) rotate(-90)"
           style="fill: #3babec; stroke-width: 0px;"
           id="rect27" />
        <g
           id="g29">
          <polygon
             points="71.02 38 57.53 51.47 57.53 38 71.02 38"
             style="fill: #00a551; stroke-width: 0px;"
             id="polygon28" />
          <polygon
             points="72.93 39.93 72.93 53.41 59.43 53.41 72.93 39.93"
             style="fill: #00a551; stroke-width: 0px;"
             id="polygon29" />
        </g>
      </g>
      <g
         id="g34">
        <path
           d="M147.1,38v15.4h15.4v-15.4h-15.4ZM151.82,49h-2.64v-6.6h2.64v6.6ZM156.12,52.09h-2.64v-12.76h2.64v12.76ZM160.42,49h-2.64v-6.6h2.64v6.6Z"
           style="fill: #ee6390; stroke-width: 0px;"
           id="path30" />
        <path
           d="M127.87,38v15.4h15.4v-15.4h-15.4ZM129.03,51.6l1.93-3.76-2.2-4.29,2.47-4.81,2.07,1.06-1.93,3.75,2.2,4.29-2.47,4.82-2.07-1.06ZM133.44,51.6l1.93-3.76-2.2-4.29,2.47-4.81,2.07,1.06-1.93,3.75,2.2,4.29-2.47,4.82-2.07-1.06ZM139.92,52.67l-2.07-1.06,1.93-3.76-2.2-4.29,2.47-4.81,2.07,1.06-1.93,3.75,2.2,4.29-2.47,4.82Z"
           style="fill: #00a551; stroke-width: 0px;"
           id="path31" />
        <g
           id="g33">
          <path
             d="M108.64,38v15.4h15.4v-15.4h-15.4ZM116.35,52.05c-3.5,0-6.34-2.84-6.34-6.34s2.84-6.34,6.34-6.34,6.34,2.84,6.34,6.34-2.84,6.34-6.34,6.34Z"
             style="fill: #3babec; stroke-width: 0px;"
             id="path32" />
          <path
             d="M116.35,41.63c-2.25,0-4.08,1.83-4.08,4.08s1.83,4.08,4.08,4.08,4.08-1.83,4.08-4.08-1.83-4.08-4.08-4.08ZM116.35,47.68c-1.09,0-1.98-.89-1.98-1.98s.89-1.98,1.98-1.98,1.98.89,1.98,1.98-.89,1.98-1.98,1.98Z"
             style="fill: #3babec; stroke-width: 0px;"
             id="path33" />
        </g>
      </g>
    </g>
    <g
       id="plus_signs"
       data-name="plus signs">
      <path
         d="M42.98,241.99h-1.65v1.87h-.93v-1.87h-1.65v-1.06h1.65v-1.87h.93v1.87h1.65v1.06Z"
         style="fill: #000; stroke-width: 0px;"
         id="path34" />
      <path
         d="M79.83,241.99h-1.65v1.87h-.93v-1.87h-1.65v-1.06h1.65v-1.87h.93v1.87h1.65v1.06Z"
         style="fill: #000; stroke-width: 0px;"
         id="path35" />
      <path
         d="M116.68,241.99h-1.65v1.87h-.93v-1.87h-1.65v-1.06h1.65v-1.87h.93v1.87h1.65v1.06Z"
         style="fill: #000; stroke-width: 0px;"
         id="path36" />
      <path
         d="M153.53,241.99h-1.65v1.87h-.93v-1.87h-1.65v-1.06h1.65v-1.87h.93v1.87h1.65v1.06Z"
         style="fill: #000; stroke-width: 0px;"
         id="path37" />
      <path
         d="M190.38,241.99h-1.65v1.87h-.93v-1.87h-1.65v-1.06h1.65v-1.87h.93v1.87h1.65v1.06Z"
         style="fill: #000; stroke-width: 0px;"
         id="path38" />
    </g>
    <g
       id="text_-_gil_sans"
       data-name="text - gil sans">
      <text
         transform="translate(122.93 133.32) scale(.88 1)"
         style="fill: #000; font-family: GillSans-Bold, 'Gill Sans'; font-size: 12px; font-weight: 700; letter-spacing: -.04em;"
         id="text38"><tspan
           x="0"
           y="0"
           id="tspan38">Structure</tspan></text>
      <text
         transform="translate(10.65 204.29) scale(.88 1)"
         style="fill: #000; font-family: GillSans-Bold, 'Gill Sans'; font-size: 10px; font-weight: 700; letter-spacing: -.04em;"
         id="text39"><tspan
           x="0"
           y="0"
           id="tspan39">Brightness</tspan></text>
      <text
         transform="translate(81.54 204.29) scale(.88 1)"
         style="fill: #000; font-family: GillSans-Bold, 'Gill Sans'; font-size: 10px; font-weight: 700; letter-spacing: -.04em;"
         id="text40"><tspan
           x="0"
           y="0"
           id="tspan40">Damping</tspan></text>
      <text
         transform="translate(154.32 204.29) scale(.88 1)"
         style="fill: #000; font-family: GillSans-Bold, 'Gill Sans'; font-size: 10px; font-weight: 700; letter-spacing: -.04em;"
         id="text41"><tspan
           x="0"
           y="0"
           id="tspan41">Position</tspan></text>
      <text
         transform="translate(27.26 133.32) scale(.88 1)"
         style="fill: #000; font-family: GillSans-Bold, 'Gill Sans'; font-size: 12px; font-weight: 700; letter-spacing: -.04em;"
         id="text42"><tspan
           x="0"
           y="0"
           id="tspan42">Frequency</tspan></text>
      <text
         transform="translate(142.64 28.5) scale(.88 1)"
         style="fill: #fff; font-family: GillSans-Bold, 'Gill Sans'; font-size: 10px; font-weight: 700; letter-spacing: -.04em;"
         id="text43"><tspan
           x="0"
           y="0"
           id="tspan43">Mode</tspan></text>
      <text
         transform="translate(25.88 27.91) scale(.88 1)"
         style="fill: #fff; font-family: GillSans-Bold, 'Gill Sans'; font-size: 10px; font-weight: 700; letter-spacing: -.04em;"
         id="text44"><tspan
           x="0"
           y="0"
           id="tspan44">Polyphony</tspan></text>
      <text
         transform="translate(85.53 357.32) scale(.82 1)"
         style="fill: #000; font-family: GillSans-Bold, 'Gill Sans'; font-size: 11px; font-weight: 700;"
         id="text45"><tspan
           x="0"
           y="0"
           id="tspan45">4INGS</tspan></text>
      <text
         transform="translate(130.06 336.98) scale(.88 1)"
         style="fill: #ededed; font-family: GillSans-Bold, 'Gill Sans'; font-size: 8px; font-weight: 700; letter-spacing: -.04em;"
         id="text46"><tspan
           x="0"
           y="0"
           id="tspan46">Odd</tspan></text>
      <text
         transform="translate(165.88 336.98) scale(.88 1)"
         style="fill: #ededed; font-family: GillSans-Bold, 'Gill Sans'; font-size: 8px; font-weight: 700; letter-spacing: -.04em;"
         id="text47"><tspan
           x="0"
           y="0"
           id="tspan47">Even</tspan></text>
      <text
         transform="translate(96.02 336.98) scale(.88 1)"
         style="fill: #000; font-family: GillSans-Bold, 'Gill Sans'; font-size: 8px; font-weight: 700; letter-spacing: -.04em;"
         id="text48"><tspan
           x="0"
           y="0"
           id="tspan48">IN</tspan></text>
      <text
         transform="translate(84.05 295.47) scale(.88 1)"
         style="fill: #000; font-family: GillSans-Bold, 'Gill Sans'; font-size: 8px; font-weight: 700; letter-spacing: -.04em;"
         id="text49"><tspan
           x="0"
           y="0"
           id="tspan49">CV Inputs</tspan></text>
      <text
         transform="translate(51.26 336.98) scale(.88 1)"
         style="fill: #000; font-family: GillSans-Bold, 'Gill Sans'; font-size: 8px; font-weight: 700; letter-spacing: -.04em;"
         id="text50"><tspan
           x="0"
           y="0"
           id="tspan50">V/OCT</tspan></text>
      <text
         transform="translate(15.96 336.98) scale(.88 1)"
         style="fill: #000; font-family: GillSans-Bold, 'Gill Sans'; font-size: 8px; font-weight: 700; letter-spacing: -.04em;"
         id="text51"><tspan
           x="0"
           y="0"
           id="tspan51">Strum</tspan></text>
    </g>
    <g
       id="g54">
      <g
         id="Artwork_5"
         data-name="Artwork 5">
        <g
           style="clip-path: url(#clippath);"
           clip-path="url(#clippath)"
           id="g53">
          <g
             style="clip-path: url(#clippath-1);"
             clip-path="url(#clippath-1)"
             id="g52">
            <path
               d="M16.97,235.38c-1.49-2-2.38-4.47-2.38-7.15,0-6.64,5.42-12.05,12.09-12.05s12.09,5.4,12.09,12.05c0,2.69-.9,5.17-2.4,7.18l1.56,1.23c1.77-2.35,2.83-5.25,2.83-8.41,0-7.75-6.3-14.02-14.07-14.02s-14.07,6.28-14.07,14.02c0,3.15,1.06,6.05,2.82,8.39l1.55-1.24Z"
               style="fill: #000; stroke-width: 0px;"
               id="path51" />
            <path
               d="M37.93,236.78l-1.71-1.36.06-.08c1.56-2.09,2.39-4.55,2.39-7.12,0-6.59-5.38-11.95-11.99-11.95s-11.99,5.36-11.99,11.95c0,2.56.82,5.01,2.36,7.09l.06.08-1.71,1.37-.06-.08c-1.86-2.47-2.84-5.39-2.84-8.45,0-7.79,6.36-14.12,14.17-14.12s14.17,6.34,14.17,14.12c0,3.07-.99,6-2.85,8.47l-.06.08ZM36.49,235.39l1.4,1.11c1.8-2.42,2.75-5.28,2.75-8.27,0-7.68-6.27-13.93-13.98-13.93s-13.97,6.25-13.97,13.93c0,2.98.95,5.84,2.74,8.25l1.4-1.12c-1.54-2.1-2.35-4.56-2.35-7.13,0-6.7,5.47-12.14,12.19-12.14s12.19,5.45,12.19,12.14c0,2.58-.82,5.06-2.37,7.16"
               style="fill: #000; stroke-width: 0px;"
               id="path52" />
          </g>
        </g>
      </g>
      <g
         id="center">
        <path
           d="M26.53,217.39c-1.39,0-2.52-1.13-2.52-2.52s1.13-2.52,2.52-2.52,2.52,1.13,2.52,2.52-1.13,2.52-2.52,2.52Z"
           style="fill: #171717; stroke-width: 0px;"
           id="path53" />
        <path
           d="M26.53,213.1c.98,0,1.77.79,1.77,1.77s-.79,1.77-1.77,1.77-1.77-.79-1.77-1.77.79-1.77,1.77-1.77M26.53,211.6c-1.8,0-3.27,1.47-3.27,3.27s1.47,3.27,3.27,3.27,3.27-1.47,3.27-3.27-1.47-3.27-3.27-3.27h0Z"
           style="fill: #ededed; stroke-width: 0px;"
           id="path54" />
      </g>
    </g>
    <g
       id="g58">
      <g
         id="Artwork_5-2"
         data-name="Artwork 5">
        <g
           style="clip-path: url(#clippath-2);"
           clip-path="url(#clippath-2)"
           id="g57">
          <g
             style="clip-path: url(#clippath-3);"
             clip-path="url(#clippath-3)"
             id="g56">
            <path
               d="M53.82,235.38c-1.49-2-2.38-4.47-2.38-7.15,0-6.64,5.42-12.05,12.09-12.05s12.09,5.4,12.09,12.05c0,2.69-.9,5.17-2.4,7.18l1.56,1.23c1.77-2.35,2.83-5.25,2.83-8.41,0-7.75-6.3-14.02-14.07-14.02s-14.07,6.28-14.07,14.02c0,3.15,1.06,6.05,2.82,8.39l1.55-1.24Z"
               style="fill: #000; stroke-width: 0px;"
               id="path55" />
            <path
               d="M74.78,236.78l-1.71-1.36.06-.08c1.56-2.09,2.39-4.55,2.39-7.12,0-6.59-5.38-11.95-11.99-11.95s-11.99,5.36-11.99,11.95c0,2.56.82,5.01,2.36,7.09l.06.08-1.71,1.37-.06-.08c-1.86-2.47-2.84-5.39-2.84-8.45,0-7.79,6.36-14.12,14.17-14.12s14.17,6.34,14.17,14.12c0,3.07-.99,6-2.85,8.47l-.06.08ZM73.35,235.39l1.4,1.11c1.8-2.42,2.75-5.28,2.75-8.27,0-7.68-6.27-13.93-13.98-13.93s-13.97,6.25-13.97,13.93c0,2.98.95,5.84,2.74,8.25l1.4-1.12c-1.54-2.1-2.35-4.56-2.35-7.13,0-6.7,5.47-12.14,12.19-12.14s12.19,5.45,12.19,12.14c0,2.58-.82,5.06-2.37,7.16"
               style="fill: #000; stroke-width: 0px;"
               id="path56" />
          </g>
        </g>
      </g>
      <g
         id="center-2"
         data-name="center">
        <circle
           cx="63.38"
           cy="214.87"
           r="2.52"
           style="fill: #171717; stroke-width: 0px;"
           id="circle57" />
        <path
           d="M63.38,213.1c.98,0,1.77.79,1.77,1.77s-.79,1.77-1.77,1.77-1.77-.79-1.77-1.77.79-1.77,1.77-1.77M63.38,211.6c-1.8,0-3.27,1.47-3.27,3.27s1.47,3.27,3.27,3.27,3.27-1.47,3.27-3.27-1.47-3.27-3.27-3.27h0Z"
           style="fill: #ededed; stroke-width: 0px;"
           id="path57" />
      </g>
    </g>
    <g
       id="g61">
      <g
         id="Artwork_5-3"
         data-name="Artwork 5">
        <g
           style="clip-path: url(#clippath-4);"
           clip-path="url(#clippath-4)"
           id="g60">
          <g
             style="clip-path: url(#clippath-5);"
             clip-path="url(#clippath-5)"
             id="g59">
            <path
               d="M90.67,235.38c-1.49-2-2.38-4.47-2.38-7.15,0-6.64,5.42-12.05,12.09-12.05s12.09,5.4,12.09,12.05c0,2.69-.9,5.17-2.4,7.18l1.56,1.23c1.77-2.35,2.83-5.25,2.83-8.41,0-7.75-6.3-14.02-14.07-14.02s-14.07,6.28-14.07,14.02c0,3.15,1.06,6.05,2.82,8.39l1.55-1.24Z"
               style="fill: #000; stroke-width: 0px;"
               id="path58" />
            <path
               d="M111.63,236.78l-1.71-1.36.06-.08c1.56-2.09,2.39-4.55,2.39-7.12,0-6.59-5.38-11.95-11.99-11.95s-11.99,5.36-11.99,11.95c0,2.56.82,5.01,2.36,7.09l.06.08-1.71,1.37-.06-.08c-1.86-2.47-2.84-5.39-2.84-8.45,0-7.79,6.36-14.12,14.17-14.12s14.17,6.34,14.17,14.12c0,3.07-.99,6-2.85,8.47l-.06.08ZM110.2,235.39l1.4,1.11c1.8-2.42,2.75-5.28,2.75-8.27,0-7.68-6.27-13.93-13.98-13.93s-13.97,6.25-13.97,13.93c0,2.98.95,5.84,2.74,8.25l1.4-1.12c-1.54-2.1-2.35-4.56-2.35-7.13,0-6.7,5.47-12.14,12.19-12.14s12.19,5.45,12.19,12.14c0,2.58-.82,5.06-2.37,7.16"
               style="fill: #000; stroke-width: 0px;"
               id="path59" />
          </g>
        </g>
      </g>
      <g
         id="center-3"
         data-name="center">
        <circle
           cx="100.23"
           cy="214.87"
           r="2.52"
           style="fill: #171717; stroke-width: 0px;"
           id="circle60" />
        <path
           d="M100.23,213.1c.98,0,1.77.79,1.77,1.77s-.79,1.77-1.77,1.77-1.77-.79-1.77-1.77.79-1.77,1.77-1.77M100.23,211.6c-1.8,0-3.27,1.47-3.27,3.27s1.47,3.27,3.27,3.27,3.27-1.47,3.27-3.27-1.47-3.27-3.27-3.27h0Z"
           style="fill: #ededed; stroke-width: 0px;"
           id="path60" />
      </g>
    </g>
    <g
       id="g64">
      <g
         id="Artwork_5-4"
         data-name="Artwork 5">
        <g
           style="clip-path: url(#clippath-6);"
           clip-path="url(#clippath-6)"
           id="g63">
          <g
             style="clip-path: url(#clippath-7);"
             clip-path="url(#clippath-7)"
             id="g62">
            <path
               d="M127.52,235.38c-1.49-2-2.38-4.47-2.38-7.15,0-6.64,5.42-12.05,12.09-12.05s12.09,5.4,12.09,12.05c0,2.69-.9,5.17-2.4,7.18l1.56,1.23c1.77-2.35,2.83-5.25,2.83-8.41,0-7.75-6.3-14.02-14.07-14.02s-14.07,6.28-14.07,14.02c0,3.15,1.06,6.05,2.82,8.39l1.55-1.24Z"
               style="fill: #000; stroke-width: 0px;"
               id="path61" />
            <path
               d="M148.49,236.78l-1.71-1.36.06-.08c1.56-2.09,2.39-4.55,2.39-7.12,0-6.59-5.38-11.95-11.99-11.95s-11.99,5.36-11.99,11.95c0,2.56.82,5.01,2.36,7.09l.06.08-1.71,1.37-.06-.08c-1.86-2.47-2.84-5.39-2.84-8.45,0-7.79,6.36-14.12,14.17-14.12s14.17,6.34,14.17,14.12c0,3.07-.99,6-2.85,8.47l-.06.08ZM147.05,235.39l1.4,1.11c1.8-2.42,2.75-5.28,2.75-8.27,0-7.68-6.27-13.93-13.98-13.93s-13.97,6.25-13.97,13.93c0,2.98.95,5.84,2.74,8.25l1.4-1.12c-1.54-2.1-2.35-4.56-2.35-7.13,0-6.7,5.47-12.14,12.19-12.14s12.19,5.45,12.19,12.14c0,2.58-.82,5.06-2.37,7.16"
               style="fill: #000; stroke-width: 0px;"
               id="path62" />
          </g>
        </g>
      </g>
      <g
         id="center-4"
         data-name="center">
        <path
           d="M137.08,217.39c-1.39,0-2.52-1.13-2.52-2.52s1.13-2.52,2.52-2.52,2.52,1.13,2.52,2.52-1.13,2.52-2.52,2.52Z"
           style="fill: #171717; stroke-width: 0px;"
           id="path63" />
        <path
           d="M137.08,213.1c.98,0,1.77.79,1.77,1.77s-.79,1.77-1.77,1.77-1.77-.79-1.77-1.77.79-1.77,1.77-1.77M137.08,211.6c-1.8,0-3.27,1.47-3.27,3.27s1.47,3.27,3.27,3.27,3.27-1.47,3.27-3.27-1.47-3.27-3.27-3.27h0Z"
           style="fill: #ededed; stroke-width: 0px;"
           id="path64" />
      </g>
    </g>
    <g
       id="g68">
      <g
         id="Artwork_5-5"
         data-name="Artwork 5">
        <g
           style="clip-path: url(#clippath-8);"
           clip-path="url(#clippath-8)"
           id="g67">
          <g
             style="clip-path: url(#clippath-9);"
             clip-path="url(#clippath-9)"
             id="g66">
            <path
               d="M164.37,235.38c-1.49-2-2.38-4.47-2.38-7.15,0-6.64,5.42-12.05,12.09-12.05s12.09,5.4,12.09,12.05c0,2.69-.9,5.17-2.4,7.18l1.56,1.23c1.77-2.35,2.83-5.25,2.83-8.41,0-7.75-6.3-14.02-14.07-14.02s-14.07,6.28-14.07,14.02c0,3.15,1.06,6.05,2.82,8.39l1.55-1.24Z"
               style="fill: #000; stroke-width: 0px;"
               id="path65" />
            <path
               d="M185.34,236.78l-1.71-1.36.06-.08c1.56-2.09,2.39-4.55,2.39-7.12,0-6.59-5.38-11.95-11.99-11.95s-11.99,5.36-11.99,11.95c0,2.56.82,5.01,2.36,7.09l.06.08-1.71,1.37-.06-.08c-1.86-2.47-2.84-5.39-2.84-8.45,0-7.79,6.36-14.12,14.17-14.12s14.17,6.34,14.17,14.12c0,3.07-.99,6-2.85,8.47l-.06.08ZM183.9,235.39l1.4,1.11c1.8-2.42,2.75-5.28,2.75-8.27,0-7.68-6.27-13.93-13.98-13.93s-13.97,6.25-13.97,13.93c0,2.98.95,5.84,2.74,8.25l1.4-1.12c-1.54-2.1-2.35-4.56-2.35-7.13,0-6.7,5.47-12.14,12.19-12.14s12.19,5.45,12.19,12.14c0,2.58-.82,5.06-2.37,7.16"
               style="fill: #000; stroke-width: 0px;"
               id="path66" />
          </g>
        </g>
      </g>
      <g
         id="center-5"
         data-name="center">
        <path
           d="M173.93,217.39c-1.39,0-2.52-1.13-2.52-2.52s1.13-2.52,2.52-2.52,2.52,1.13,2.52,2.52-1.13,2.52-2.52,2.52Z"
           style="fill: #171717; stroke-width: 0px;"
           id="path67" />
        <path
           d="M173.93,213.1c.98,0,1.77.79,1.77,1.77s-.79,1.77-1.77,1.77-1.77-.79-1.77-1.77.79-1.77,1.77-1.77M173.93,211.6c-1.8,0-3.27,1.47-3.27,3.27s1.47,3.27,3.27,3.27,3.27-1.47,3.27-3.27-1.47-3.27-3.27-3.27h0Z"
           style="fill: #ededed; stroke-width: 0px;"
           id="path68" />
      </g>
    </g>
  </g>
  <g
     id="components">
    <circle
       id="Even"
       cx="174.12"
       cy="314.88"
       r="11.34"
       style="fill: blue; stroke-width: 0px;" />
    <circle
       id="Odd"
       cx="137.26"
       cy="314.88"
       r="11.34"
       style="fill: blue; stroke-width: 0px;" />
    <circle
       id="IN"
       cx="100.39"
       cy="314.88"
       r="11.34"
       style="fill: lime; stroke-width: 0px;" />
    <circle
       id="V_OCT"
       data-name="V/OCT"
       cx="63.53"
       cy="314.88"
       r="11.34"
       style="fill: lime; stroke-width: 0px;" />
    <circle
       id="Strum"
       cx="26.66"
       cy="314.88"
       r="11.34"
       style="fill:lime;stroke-width:0px" />
    <circle
       id="Position_CV"
       data-name="Position CV"
       cx="174.12"
       cy="273.49"
       r="11.34"
       style="fill: lime; stroke-width: 0px;" />
    <circle
       id="Structure_CV"
       data-name="Structure CV"
       cx="137.26"
       cy="273.49"
       r="11.34"
       style="fill: lime; stroke-width: 0px;" />
    <circle
       id="Damping_CV"
       data-name="Damping CV"
       cx="100.39"
       cy="273.49"
       r="11.34"
       style="fill: lime; stroke-width: 0px;" />
    <circle
       id="Frequency_CV"
       data-name="Frequency CV"
       cx="63.53"
       cy="273.49"
       r="11.34"
       style="fill: lime; stroke-width: 0px;" />
    <circle
       id="Brightness_CV"
       data-name="Brightness CV"
       cx="26.66"
       cy="273.49"
       r="11.34"
       style="fill: lime; stroke-width: 0px;" />
    <circle
       id="Pos_Atten_WhiteSmallKnob"
       data-name="Pos Atten#WhiteSmallKnob"
       cx="174.13"
       cy="228.56"
       r="8.5"
       style="fill: red; stroke-width: 0px;" />
    <circle
       id="Str_Atten_WhiteSmallKnob"
       data-name="Str Atten#WhiteSmallKnob"
       cx="137.27"
       cy="228.56"
       r="8.5"
       style="fill: red; stroke-width: 0px;" />
    <circle
       id="Dmp_Atten_WhiteSmallKnob"
       data-name="Dmp Atten#WhiteSmallKnob"
       cx="100.4"
       cy="228.56"
       r="8.5"
       style="fill: red; stroke-width: 0px;" />
    <circle
       id="Frq_Atten_WhiteSmallKnob"
       data-name="Frq Atten#WhiteSmallKnob"
       cx="63.54"
       cy="228.56"
       r="8.5"
       style="fill: red; stroke-width: 0px;" />
    <circle
       id="Br_Atten_WhiteSmallKnob"
       data-name="Br Atten#WhiteSmallKnob"
       cx="26.67"
       cy="228.56"
       r="8.5"
       style="fill: red; stroke-width: 0px;" />
    <circle
       id="Position_WhiteMediumKnob"
       data-name="Position#WhiteMediumKnob"
       cx="167.88"
       cy="171.86"
       r="17.01"
       style="fill: #ff0040; stroke-width: 0px;" />
    <circle
       id="Damping_WhiteMediumKnob"
       data-name="Damping#WhiteMediumKnob"
       cx="100.39"
       cy="171.86"
       r="17.01"
       style="fill: #ff0040; stroke-width: 0px;" />
    <circle
       id="Brightness_WhiteMediumKnob"
       data-name="Brightness#WhiteMediumKnob"
       cx="32.9"
       cy="171.86"
       r="17.01"
       style="fill: #ff0040; stroke-width: 0px;" />
    <circle
       id="Structure_WhiteLargeKnob"
       data-name="Structure#WhiteLargeKnob"
       cx="147.2"
       cy="93"
       r="25.51"
       style="fill: #ff0040; stroke-width: 0px;" />
    <circle
       id="Frequency_WhiteLargeKnob"
       data-name="Frequency#WhiteLargeKnob"
       cx="53.64"
       cy="93"
       r="25.51"
       style="fill: #ff0040; stroke-width: 0px;" />
    <rect
       id="Resonator_Mode_Switch_Modal_Symp_Mod"
       data-name="Resonator Mode Switch@Modal@Symp@Mod"
       x="173.97"
       y="37.2"
       width="11.34"
       height="17.01"
       transform="translate(225.34 -133.93) rotate(90)"
       style="fill: #ffc080; stroke-width: 0px;" />
    <rect
       id="Polyphony_Select_Switch_1_2_4"
       data-name="Polyphony Select Switch@1@2@4"
       x="15.52"
       y="37.2"
       width="11.34"
       height="17.01"
       transform="translate(66.89 24.52) rotate(90)"
       style="fill: #ffc080; stroke-width: 0px;" />
    <text
       id="slug"
       transform="translate(163.96 369)"
       style="fill: #010101; font-family: MyriadPro-Regular, 'Myriad Pro'; font-size: 3px;"><tspan
         x="0"
         y="0"
         id="tspan68">Rings</tspan></text>
    <text
       id="modulename"
       transform="translate(176.38 369)"
       style="fill: #010101; font-family: MyriadPro-Regular, 'Myriad Pro'; font-size: 3px;"><tspan
         x="0"
         y="0"
         style="letter-spacing: 0em;"
         id="tspan69">R</tspan><tspan
         x="1.63"
         y="0"
         id="tspan70">esonan</tspan><tspan
         x="10.74"
         y="0"
         style="letter-spacing: 0em;"
         id="tspan71">c</tspan><tspan
         x="12.07"
         y="0"
         style="letter-spacing: 0em;"
         id="tspan72">e </tspan><tspan
         x="14.21"
         y="0"
         style="letter-spacing: 0em;"
         id="tspan73">M</tspan><tspan
         x="16.63"
         y="0"
         id="tspan74">odule</tspan></text>
  </g>
</svg>
