<?xml version="1.0" encoding="UTF-8"?>
<svg xmlns="http://www.w3.org/2000/svg" width="40.3mm" height="130.44mm" viewBox="0 0 114.24 369.75">
  <g id="faceplate">
    <g id="art">
      <g id="panel">
        <g>
          <rect x=".13" y=".13" width="113.99" height="364" style="fill: #ededee; stroke-width: 0px;"/>
          <path d="M113.99.25v363.75H.25V.25h113.74M114.24,0H0v364.25h114.24V0h0Z" style="fill: #9c9c9e; stroke-width: 0px;"/>
        </g>
      </g>
      <path d="M6.31,327.07v12.05c0,2.92,2.57,5.31,5.7,5.31h45.97-15.74,60.56c3.14,0,5.7-2.39,5.7-5.31v-12.05l-.02-82.53c-.3-7.84-6.27-14.1-13.62-14.1h-30.01s-44.9,0-44.9,0c-7.35,0-13.32,6.26-13.62,14.1l-.06,5.76.04,76.77Z" style="fill: none; stroke: #000; stroke-miterlimit: 10;"/>
      <line x1="24.74" y1="71.35" x2="24.74" y2="230.43" style="fill: none; stroke: #000; stroke-miterlimit: 10;"/>
      <line x1="57.15" y1="122.11" x2="57.15" y2="230.43" style="fill: none; stroke: #000; stroke-miterlimit: 10;"/>
      <line x1="90.44" y1="172.88" x2="90.44" y2="230.43" style="fill: none; stroke: #000; stroke-miterlimit: 10;"/>
      <g>
        <path d="M67.73,148.29v14.17h14.17v-14.17h-14.17ZM78.73,156.68h-7.83v-2.61h7.83v2.61Z" style="fill: #000; stroke-width: 0px;"/>
        <path d="M97.17,148.29v14.17h14.17v-14.17h-14.17ZM108.82,156.39h-3.56v3.56h-2.01v-3.56h-3.56v-2.01h3.56v-3.56h2.01v3.56h3.56v2.01Z" style="fill: #000; stroke-width: 0px;"/>
      </g>
      <line x1="89.54" y1="148.29" x2="89.54" y2="164.85" style="fill: none; stroke: #171717; stroke-miterlimit: 10; stroke-width: 3px;"/>
      <rect x="45.34" y="217.79" width="22.68" height="8.79" style="fill: #ededed; stroke-width: 0px;"/>
      <rect x="78.2" y="216.38" width="22.68" height="11.34" style="fill: #3babec; stroke-width: 0px;"/>
      <rect x="13.4" y="216.38" width="22.68" height="11.34" style="fill: #ee6390; stroke-width: 0px;"/>
      <rect x="0" y="18.19" width="114.24" height="14.17" style="fill: #010101; stroke-width: 0px;"/>
    </g>
  </g>
  <g id="components">
    <circle id="LP4_VCA" data-name="LP4&amp;gt;VCA" cx="91.34" cy="314.93" r="11.34" style="fill: blue; stroke-width: 0px;"/>
    <circle id="LP4" cx="57.12" cy="314.93" r="11.34" style="fill: blue; stroke-width: 0px;"/>
    <circle id="Gain" cx="22.91" cy="314.93" r="11.34" style="fill: lime; stroke-width: 0px;"/>
    <circle id="LP2" cx="91.34" cy="280.72" r="11.34" style="fill: blue; stroke-width: 0px;"/>
    <circle id="BP2" cx="57.12" cy="280.72" r="11.34" style="fill: blue; stroke-width: 0px;"/>
    <circle id="In" cx="22.91" cy="280.72" r="11.34" style="fill: lime; stroke-width: 0px;"/>
    <circle id="FM" cx="91.34" cy="246.5" r="11.34" style="fill: lime; stroke-width: 0px;"/>
    <circle id="Frequency_CV" data-name="Frequency CV" cx="57.12" cy="246.5" r="11.34" style="fill: lime; stroke-width: 0px;"/>
    <circle id="Resonance_CV" data-name="Resonance CV" cx="22.91" cy="246.5" r="11.34" style="fill: lime; stroke-width: 0px;"/>
    <circle id="FM_BlueMediumKnob" data-name="FM#BlueMediumKnob" cx="89.54" cy="181.73" r="17.01" style="fill: #ff0070; stroke-width: 0px;"/>
    <circle id="Frequency_WhiteLargeKnob" data-name="Frequency#WhiteLargeKnob" cx="57.15" cy="120.53" r="25.51" style="fill: #ff0040; stroke-width: 0px;"/>
    <circle id="Resonance_RedSmallKnob" data-name="Resonance#RedSmallKnob" cx="24.74" cy="59.33" r="17.01" style="fill: red; stroke-width: 0px;"/>
    <text id="slug" transform="translate(74.95 369)" style="fill: #010101; font-family: MyriadPro-Regular, &apos;Myriad Pro&apos;; font-size: 3px;"><tspan x="0" y="0" style="letter-spacing: 0em;">R</tspan><tspan x="1.64" y="0">ipples</tspan></text>
    <text id="modulename" transform="translate(87.37 369)" style="fill: #010101; font-family: MyriadPro-Regular, &apos;Myriad Pro&apos;; font-size: 3px;"><tspan x="0" y="0" style="letter-spacing: -.03em;">F</tspan><tspan x="1.38" y="0">il</tspan><tspan x="2.79" y="0" style="letter-spacing: 0em;">t</tspan><tspan x="3.77" y="0">er</tspan></text>
  </g>
</svg>