<?xml version="1.0" encoding="UTF-8"?>
<svg xmlns="http://www.w3.org/2000/svg" width="30.15mm" height="130.99mm" viewBox="0 0 85.47 371.31">
  <g id="faceplate">
    <g id="art">
      <g id="panel">
        <rect x=".12" y=".13" width="85.07" height="364" style="fill: #eeeded; stroke-width: 0px;"/>
        <path d="M85.07.25v363.75H.25V.25h84.82M85.32,0H0v364.25h85.32V0h0Z" style="fill: #9b9c9d; stroke-width: 0px;"/>
      </g>
      <rect x=".43" y="18.19" width="85.04" height="14.17" style="fill: #000; stroke-width: 0px;"/>
      <rect x="50.17" y="231.03" width="31.18" height="99.21" rx="4.25" ry="4.25" transform="translate(131.53 561.27) rotate(180)" style="fill: #000; stroke-width: 0px;"/>
      <g>
        <line x1="65.76" y1="254.51" x2="65.76" y2="266.39" style="fill: none; stroke: #fff; stroke-miterlimit: 10; stroke-width: 2px;"/>
        <polygon points="62.37 262.41 65.76 265.8 69.15 262.41 69.15 265.29 65.76 268.68 62.37 265.29 62.37 262.41" style="fill: #fff; stroke-width: 0px;"/>
      </g>
      <g>
        <line x1="65.76" y1="288.59" x2="65.76" y2="300.48" style="fill: none; stroke: #fff; stroke-miterlimit: 10; stroke-width: 2px;"/>
        <polygon points="62.37 296.5 65.76 299.89 69.15 296.5 69.15 299.38 65.76 302.77 62.37 299.38 62.37 296.5" style="fill: #fff; stroke-width: 0px;"/>
      </g>
      <line x1="81.04" y1="223.62" x2="2.65" y2="223.62" style="fill: none; stroke: #000; stroke-dasharray: 0 0 1 3; stroke-linecap: round; stroke-linejoin: round;"/>
      <line x1="81.04" y1="337.57" x2="2.65" y2="337.57" style="fill: none; stroke: #000; stroke-dasharray: 0 0 1 3; stroke-linecap: round; stroke-linejoin: round;"/>
      <g>
        <path d="M8.57,33.89v15.4h15.4v-15.4h-15.4ZM22.37,41.73h-5.95l-6.24,6.24v-6.52h5.95l6.24-6.24v6.52Z" style="fill: #000; stroke-width: 0px;"/>
        <path d="M8.57,69.59v15.4h15.4v-15.4h-15.4ZM22.02,83.04h-11.5l11.5-11.5v11.5Z" style="fill: #000; stroke-width: 0px;"/>
      </g>
      <g>
        <path d="M8.57,96.89v15.4h15.4v-15.4h-15.4ZM22.37,104.73h-5.95l-6.24,6.24v-6.52h5.95l6.24-6.24v6.52Z" style="fill: #000; stroke-width: 0px;"/>
        <path d="M8.57,132.59v15.4h15.4v-15.4h-15.4ZM22.02,146.04h-11.5l11.5-11.5v11.5Z" style="fill: #000; stroke-width: 0px;"/>
      </g>
      <g>
        <path d="M8.57,159.89v15.4h15.4v-15.4h-15.4ZM22.37,167.73h-5.95l-6.24,6.24v-6.52h5.95l6.24-6.24v6.52Z" style="fill: #000; stroke-width: 0px;"/>
        <path d="M8.57,195.59v15.4h15.4v-15.4h-15.4ZM22.02,209.04h-11.5l11.5-11.5v11.5Z" style="fill: #000; stroke-width: 0px;"/>
      </g>
      <g>
        <path d="M30.4,59.92c-2.41,0-4.29-1.66-4.29-3.78s1.89-3.78,4.29-3.78,4.29,1.66,4.29,3.78-1.89,3.78-4.29,3.78ZM30.4,54.11c-1.51,0-2.79.93-2.79,2.02s1.28,2.02,2.79,2.02,2.79-.93,2.79-2.02-1.28-2.02-2.79-2.02Z" style="fill: #000; stroke-width: 0px;"/>
        <rect x="33.19" y="56.71" width="1.5" height="9.82" style="fill: #000; stroke-width: 0px;"/>
      </g>
      <g>
        <path d="M42.26,234.15c-2.41,0-4.29-1.66-4.29-3.78s1.89-3.78,4.29-3.78,4.29,1.66,4.29,3.78-1.89,3.78-4.29,3.78ZM42.26,228.35c-1.51,0-2.79.93-2.79,2.02s1.28,2.02,2.79,2.02,2.79-.93,2.79-2.02-1.28-2.02-2.79-2.02Z" style="fill: #000; stroke-width: 0px;"/>
        <rect x="45.05" y="230.94" width="1.5" height="9.82" style="fill: #000; stroke-width: 0px;"/>
      </g>
      <path d="M29.7,129.54l-2.25-6.2c-.1-.27-.07-.57.07-.81.14-.24.37-.38.62-.38h2.25c1.54,0,2.79-1.14,2.79-2.53s-1.25-2.53-2.79-2.53-2.79,1.14-2.79,2.53h-1.5c0-2.34,1.93-4.25,4.29-4.25s4.29,1.91,4.29,4.25-1.93,4.25-4.29,4.25h-1.12l1.82,5.02-1.39.66Z" style="fill: #000; stroke-width: 0px;"/>
      <path d="M42.56,275.31l-2.25-6.2c-.1-.27-.07-.57.07-.81.14-.24.37-.38.62-.38h2.25c1.54,0,2.79-1.14,2.79-2.53s-1.25-2.53-2.79-2.53-2.79,1.14-2.79,2.53h-1.5c0-2.34,1.93-4.25,4.29-4.25s4.29,1.91,4.29,4.25-1.93,4.25-4.29,4.25h-1.12l1.82,5.02-1.39.66Z" style="fill: #000; stroke-width: 0px;"/>
      <g>
        <path d="M30.4,185.06h-2.25v-1.68h2.25c1.65,0,2.79-.87,2.79-1.66s-1.15-1.66-2.79-1.66-2.79.87-2.79,1.66h-1.5c0-1.87,1.89-3.34,4.29-3.34s4.29,1.47,4.29,3.34-1.89,3.34-4.29,3.34Z" style="fill: #000; stroke-width: 0px;"/>
        <path d="M30.57,192.56l-2.9-2.7c-.24-.23-.33-.6-.23-.93s.39-.55.71-.55h2.25c1.65,0,2.79-.87,2.79-1.66s-1.15-1.66-2.79-1.66h-2.25v-1.68h2.25c2.41,0,4.29,1.47,4.29,3.34s-1.89,3.34-4.29,3.34h-.17l1.3,1.21-.96,1.29Z" style="fill: #000; stroke-width: 0px;"/>
      </g>
      <g>
        <path d="M43.26,302.35h-2.25v-1.68h2.25c1.65,0,2.79-.87,2.79-1.66s-1.15-1.66-2.79-1.66-2.79.87-2.79,1.66h-1.5c0-1.87,1.89-3.34,4.29-3.34s4.29,1.47,4.29,3.34-1.89,3.34-4.29,3.34Z" style="fill: #000; stroke-width: 0px;"/>
        <path d="M43.42,309.85l-2.9-2.7c-.24-.23-.33-.6-.23-.93s.39-.55.71-.55h2.25c1.65,0,2.79-.87,2.79-1.66s-1.15-1.66-2.79-1.66h-2.25v-1.68h2.25c2.41,0,4.29,1.47,4.29,3.34s-1.89,3.34-4.29,3.34h-.17l1.3,1.21-.96,1.29Z" style="fill: #000; stroke-width: 0px;"/>
      </g>
    </g>
  </g>
  <g id="components">
    <circle id="Ch3_Out" data-name="Ch3 Out" cx="65.76" cy="315.07" r="11.34" style="fill: blue; stroke-width: 0px;"/>
    <circle id="Ch3_LED_RedGreenLight" data-name="Ch3 LED#RedGreenLight" cx="43.26" cy="315.07" r="4.96" style="fill: #f0f; stroke-width: 0px;"/>
    <circle id="Ch3_IN" data-name="Ch3 IN" cx="20.75" cy="315.07" r="11.34" style="fill: lime; stroke-width: 0px;"/>
    <circle id="Ch2_Out" data-name="Ch2 Out" cx="65.76" cy="280.86" r="11.34" style="fill: blue; stroke-width: 0px;"/>
    <circle id="Ch2_LED_RedGreenLight" data-name="Ch2 LED#RedGreenLight" cx="43.26" cy="280.86" r="4.96" style="fill: #f0f; stroke-width: 0px;"/>
    <circle id="Ch2_IN" data-name="Ch2 IN" cx="20.75" cy="280.86" r="11.34" style="fill: lime; stroke-width: 0px;"/>
    <circle id="Ch1_Out" data-name="Ch1 Out" cx="65.76" cy="246.64" r="11.34" style="fill: blue; stroke-width: 0px;"/>
    <circle id="Ch1_LED_RedGreenLight" data-name="Ch1 LED#RedGreenLight" cx="43.26" cy="246.64" r="4.96" style="fill: #f0f; stroke-width: 0px;"/>
    <circle id="Ch1_IN" data-name="Ch1 IN" cx="20.75" cy="246.71" r="11.34" style="fill: lime; stroke-width: 0px;"/>
    <circle id="Ch3_WhiteMediumKnob" data-name="Ch3#WhiteMediumKnob" cx="57.66" cy="185.47" r="17.01" style="fill: #ff0040; stroke-width: 0px;"/>
    <rect id="Ch3_Mode_Switch_Atten_Attenuvert" data-name="Ch3 Mode Switch@Atten@Attenuvert" x="10.6" y="176.97" width="11.34" height="17.01" style="fill: #ff8080; stroke-width: 0px;"/>
    <circle id="Ch2_WhiteMediumKnob" data-name="Ch2#WhiteMediumKnob" cx="57.66" cy="122.46" r="17.01" style="fill: #ff0040; stroke-width: 0px;"/>
    <rect id="Ch2_Mode_Switch_Atten_Attenuvert" data-name="Ch2 Mode Switch@Atten@Attenuvert" x="10.6" y="113.95" width="11.34" height="17.01" style="fill: #ff8080; stroke-width: 0px;"/>
    <circle id="Ch1_WhiteMediumKnob" data-name="Ch1#WhiteMediumKnob" cx="57.66" cy="59.44" r="17.01" style="fill: #ff0040; stroke-width: 0px;"/>
    <rect id="Ch1_Mode_Switch_Atten_Attenuvert" data-name="Ch1 Mode Switch@Atten@Attenuvert" x="10.6" y="50.91" width="11.34" height="17.01" style="fill: #ff8080; stroke-width: 0px;"/>
    <text id="slug" transform="translate(38.3 370.56)" style="fill: #010101; font-family: MyriadPro-Regular, &apos;Myriad Pro&apos;; font-size: 3px;"><tspan x="0" y="0">Shades</tspan></text>
    <text id="modulename" transform="translate(50.72 370.56)" style="fill: #010101; font-family: MyriadPro-Regular, &apos;Myriad Pro&apos;; font-size: 3px;"><tspan x="0" y="0" style="letter-spacing: .01em;">M</tspan><tspan x="2.45" y="0">i</tspan><tspan x="3.15" y="0" style="letter-spacing: -.01em;">x</tspan><tspan x="4.49" y="0">er</tspan></text>
  </g>
</svg>