<?xml version="1.0" encoding="UTF-8"?>
<svg xmlns="http://www.w3.org/2000/svg" width="91.36mm" height="130.49mm" viewBox="0 0 258.96 369.89">
  <g id="faceplate">
    <g id="ref">
      <g id="labels">
        <path d="M49.25,145.39c-.13,0-.26-.05-.36-.15-2.37-2.48-3.67-5.73-3.67-9.16,0-7.31,5.94-13.25,13.25-13.25s13.25,5.94,13.25,13.25c0,3.43-1.3,6.68-3.67,9.15-.19.2-.51.21-.71.02-.2-.19-.21-.51-.02-.71,2.19-2.29,3.39-5.29,3.39-8.46,0-6.75-5.5-12.25-12.25-12.25s-12.25,5.5-12.25,12.25c0,3.17,1.21,6.18,3.39,8.46.19.2.18.52-.02.71-.1.09-.22.14-.35.14Z" style="fill: #d83559; stroke-width: 0px;"/>
        <path d="M229.27,310.59h-.46c-.25,0-.46-.21-.46-.46s.21-.46.46-.46h.46c.25,0,.46.21.46.46s-.21.46-.46.46ZM226.97,310.59h-.46c-.25,0-.46-.21-.46-.46s.21-.46.46-.46h.46c.25,0,.46.21.46.46s-.21.46-.46.46ZM224.66,310.59h-.46c-.25,0-.46-.21-.46-.46s.21-.46.46-.46h.46c.25,0,.46.21.46.46s-.21.46-.46.46ZM222.35,310.59h-.46c-.25,0-.46-.21-.46-.46s.21-.46.46-.46h.46c.25,0,.46.21.46.46s-.21.46-.46.46ZM220.05,310.59h-.46c-.25,0-.46-.21-.46-.46s.21-.46.46-.46h.46c.25,0,.46.21.46.46s-.21.46-.46.46ZM217.74,310.59h-.46c-.25,0-.46-.21-.46-.46s.21-.46.46-.46h.46c.25,0,.46.21.46.46s-.21.46-.46.46ZM215.43,310.59h-.46c-.25,0-.46-.21-.46-.46s.21-.46.46-.46h.46c.25,0,.46.21.46.46s-.21.46-.46.46ZM213.13,310.59h-.46c-.25,0-.46-.21-.46-.46s.21-.46.46-.46h.46c.25,0,.46.21.46.46s-.21.46-.46.46ZM210.82,310.59h-.46c-.25,0-.46-.21-.46-.46s.21-.46.46-.46h.46c.25,0,.46.21.46.46s-.21.46-.46.46ZM208.52,310.59h-.46c-.25,0-.46-.21-.46-.46s.21-.46.46-.46h.46c.25,0,.46.21.46.46s-.21.46-.46.46ZM206.21,310.59h-.46c-.25,0-.46-.21-.46-.46s.21-.46.46-.46h.46c.25,0,.46.21.46.46s-.21.46-.46.46ZM203.9,310.59h-.46c-.25,0-.46-.21-.46-.46s.21-.46.46-.46h.46c.25,0,.46.21.46.46s-.21.46-.46.46ZM201.6,310.59h-.46c-.25,0-.46-.21-.46-.46s.21-.46.46-.46h.46c.25,0,.46.21.46.46s-.21.46-.46.46ZM199.29,310.59h-.46c-.25,0-.46-.21-.46-.46s.21-.46.46-.46h.46c.25,0,.46.21.46.46s-.21.46-.46.46ZM196.98,310.59h-.46c-.25,0-.46-.21-.46-.46s.21-.46.46-.46h.46c.25,0,.46.21.46.46s-.21.46-.46.46ZM194.68,310.59h-.46c-.25,0-.46-.21-.46-.46s.21-.46.46-.46h.46c.25,0,.46.21.46.46s-.21.46-.46.46ZM192.37,310.59h-.46c-.25,0-.46-.21-.46-.46s.21-.46.46-.46h.46c.25,0,.46.21.46.46s-.21.46-.46.46ZM190.06,310.59h-.46c-.25,0-.46-.21-.46-.46s.21-.46.46-.46h.46c.25,0,.46.21.46.46s-.21.46-.46.46ZM187.76,310.59h-.46c-.25,0-.46-.21-.46-.46s.21-.46.46-.46h.46c.25,0,.46.21.46.46s-.21.46-.46.46ZM185.45,310.59h-.46c-.25,0-.46-.21-.46-.46s.21-.46.46-.46h.46c.25,0,.46.21.46.46s-.21.46-.46.46ZM183.14,310.59h-.46c-.25,0-.46-.21-.46-.46s.21-.46.46-.46h.46c.25,0,.46.21.46.46s-.21.46-.46.46ZM180.84,310.59h-.46c-.25,0-.46-.21-.46-.46s.21-.46.46-.46h.46c.25,0,.46.21.46.46s-.21.46-.46.46ZM178.53,310.59h-.46c-.25,0-.46-.21-.46-.46s.21-.46.46-.46h.46c.25,0,.46.21.46.46s-.21.46-.46.46ZM176.22,310.59h-.46c-.25,0-.46-.21-.46-.46s.21-.46.46-.46h.46c.25,0,.46.21.46.46s-.21.46-.46.46ZM173.92,310.59h-.46c-.25,0-.46-.21-.46-.46s.21-.46.46-.46h.46c.25,0,.46.21.46.46s-.21.46-.46.46ZM171.61,310.59h-.46c-.25,0-.46-.21-.46-.46s.21-.46.46-.46h.46c.25,0,.46.21.46.46s-.21.46-.46.46ZM169.3,310.59h-.46c-.25,0-.46-.21-.46-.46s.21-.46.46-.46h.46c.25,0,.46.21.46.46s-.21.46-.46.46ZM167,310.59h-.46c-.25,0-.46-.21-.46-.46s.21-.46.46-.46h.46c.25,0,.46.21.46.46s-.21.46-.46.46ZM164.69,310.59h-.46c-.25,0-.46-.21-.46-.46s.21-.46.46-.46h.46c.25,0,.46.21.46.46s-.21.46-.46.46ZM162.39,310.59h-.46c-.25,0-.46-.21-.46-.46s.21-.46.46-.46h.46c.25,0,.46.21.46.46s-.21.46-.46.46ZM160.08,310.59h-.46c-.25,0-.46-.21-.46-.46s.21-.46.46-.46h.46c.25,0,.46.21.46.46s-.21.46-.46.46ZM157.77,310.59h-.46c-.25,0-.46-.21-.46-.46s.21-.46.46-.46h.46c.25,0,.46.21.46.46s-.21.46-.46.46ZM155.47,310.59h-.46c-.25,0-.46-.21-.46-.46s.21-.46.46-.46h.46c.25,0,.46.21.46.46s-.21.46-.46.46ZM153.16,310.59h-.46c-.25,0-.46-.21-.46-.46s.21-.46.46-.46h.46c.25,0,.46.21.46.46s-.21.46-.46.46ZM231.12,310.59c-.25,0-.45-.2-.46-.45,0-.25.19-.47.45-.47.15,0,.29-.01.44-.02.24-.02.48.17.5.42.02.25-.17.48-.42.5-.16.01-.32.02-.48.02h-.01ZM233.39,310.23c-.2,0-.38-.13-.44-.33-.07-.24.06-.5.31-.58.14-.04.28-.09.42-.14.24-.08.5.04.59.28.09.24-.04.5-.28.59-.15.06-.31.11-.46.15-.04.01-.09.02-.13.02ZM235.48,309.26c-.15,0-.3-.08-.39-.21-.14-.21-.07-.5.14-.64.12-.08.24-.16.36-.25.21-.15.49-.1.64.11.15.21.1.5-.11.64-.13.09-.27.18-.4.27-.08.05-.16.07-.25.07ZM237.23,307.78c-.11,0-.22-.04-.31-.12-.19-.17-.21-.46-.04-.65.1-.11.19-.22.29-.33.16-.2.45-.22.65-.06.2.16.23.45.06.65-.1.12-.21.25-.31.37-.09.1-.22.15-.34.15ZM238.53,305.88c-.07,0-.14-.02-.21-.05-.23-.11-.32-.39-.21-.62.06-.13.13-.26.18-.39.1-.23.37-.34.61-.24.23.1.34.37.24.61-.06.15-.13.3-.21.44-.08.16-.24.25-.41.25ZM239.27,303.71s-.06,0-.09,0c-.25-.05-.41-.29-.37-.54.03-.14.05-.29.07-.43.04-.25.26-.43.52-.39.25.04.43.27.39.52-.02.16-.05.32-.08.48-.04.22-.24.37-.45.37ZM239.43,301.41c-.25,0-.46-.21-.46-.46v-.46c0-.25.21-.46.46-.46s.46.21.46.46v.46c0,.25-.21.46-.46.46ZM239.43,299.1c-.25,0-.46-.21-.46-.46v-.46c0-.25.21-.46.46-.46s.46.21.46.46v.46c0,.25-.21.46-.46.46ZM239.43,296.8c-.25,0-.46-.21-.46-.46v-.46c0-.25.21-.46.46-.46s.46.21.46.46v.46c0,.25-.21.46-.46.46ZM239.43,294.49c-.25,0-.46-.21-.46-.46v-.46c0-.25.21-.46.46-.46s.46.21.46.46v.46c0,.25-.21.46-.46.46Z" style="fill: #1d1d1b; stroke-width: 0px;"/>
        <g>
          <path d="M109.7,82.15v1.4h2.25v.99h-2.25v2.31h-1.11v-5.69h3.75v.99h-2.64Z" style="fill: #1d1d1b; stroke-width: 0px;"/>
          <path d="M116.33,86.85l-1.11-2.27h-.8v2.27h-1.11v-5.69h2.23c1.16,0,1.85.79,1.85,1.74,0,.8-.49,1.3-1.04,1.5l1.27,2.45h-1.29ZM115.46,82.15h-1.05v1.5h1.05c.49,0,.81-.31.81-.75s-.32-.75-.81-.75Z" style="fill: #1d1d1b; stroke-width: 0px;"/>
          <path d="M118.54,86.85v-5.69h3.75v.99h-2.64v1.33h2.25v.99h-2.25v1.38h2.64v.99h-3.75Z" style="fill: #1d1d1b; stroke-width: 0px;"/>
          <path d="M126.94,87.09l-.5-.5c-.32.21-.7.31-1.15.31-.65,0-1.14-.22-1.54-.62-.58-.58-.56-1.29-.56-2.27s-.02-1.69.56-2.27c.4-.4.9-.62,1.54-.62s1.14.22,1.54.62c.58.58.57,1.29.57,2.27,0,.86,0,1.49-.35,2.02l.49.49-.58.58ZM126,82.4c-.16-.18-.41-.3-.71-.3s-.56.12-.72.3c-.22.24-.27.5-.27,1.6s.06,1.36.27,1.6c.16.18.42.3.72.3.14,0,.26-.03.37-.1l-.5-.49.59-.58.42.42c.09-.25.1-.58.1-1.15,0-1.1-.06-1.36-.28-1.6Z" style="fill: #1d1d1b; stroke-width: 0px;"/>
        </g>
        <g>
          <path d="M181.3,86.25c-.44.45-.97.65-1.61.65s-1.12-.21-1.54-.62c-.25-.25-.4-.54-.46-.86-.06-.32-.1-.79-.1-1.42s.03-1.1.1-1.41c.06-.33.22-.61.46-.86.42-.42.93-.62,1.54-.62,1.3,0,1.99.83,2.14,1.82h-1.12c-.14-.55-.47-.83-1.02-.83-.3,0-.54.1-.71.3-.21.26-.27.47-.27,1.6s.05,1.34.27,1.61c.17.2.41.3.71.3.33,0,.59-.1.79-.32.17-.19.26-.45.26-.76v-.22h-1.05v-.93h2.15v.83c0,.83-.15,1.32-.54,1.74Z" style="fill: #1d1d1b; stroke-width: 0px;"/>
          <path d="M186.05,86.85l-.34-1.01h-2.02l-.34,1.01h-1.16l2.07-5.69h.87l2.08,5.69h-1.16ZM184.72,82.83l-.72,2.07h1.41l-.7-2.07Z" style="fill: #1d1d1b; stroke-width: 0px;"/>
          <path d="M187.91,86.85v-5.69h1.11v5.69h-1.11Z" style="fill: #1d1d1b; stroke-width: 0px;"/>
          <path d="M193.72,86.85l-2.25-3.49v3.49h-1.11v-5.69h.99l2.25,3.49v-3.49h1.11v5.69h-.99Z" style="fill: #1d1d1b; stroke-width: 0px;"/>
        </g>
        <g>
          <path d="M11.58,66.1v1.4h2.25v.99h-2.25v2.31h-1.11v-5.69h3.75v.99h-2.64Z" style="fill: #1d1d1b; stroke-width: 0px;"/>
          <path d="M18.21,70.8l-1.11-2.27h-.8v2.27h-1.11v-5.69h2.23c1.16,0,1.85.79,1.85,1.74,0,.8-.49,1.3-1.04,1.5l1.27,2.45h-1.29ZM17.35,66.1h-1.05v1.5h1.05c.49,0,.81-.31.81-.75s-.32-.75-.81-.75Z" style="fill: #1d1d1b; stroke-width: 0px;"/>
          <path d="M20.42,70.8v-5.69h3.75v.99h-2.64v1.34h2.25v.99h-2.25v1.38h2.64v.99h-3.75Z" style="fill: #1d1d1b; stroke-width: 0px;"/>
          <path d="M28.83,71.04l-.5-.5c-.32.21-.7.31-1.15.31-.65,0-1.14-.22-1.54-.62-.58-.58-.56-1.29-.56-2.27s-.02-1.69.56-2.27c.4-.4.9-.62,1.54-.62s1.14.22,1.54.62c.58.58.57,1.29.57,2.27,0,.86,0,1.49-.35,2.02l.49.49-.58.58ZM27.89,66.35c-.16-.18-.41-.3-.71-.3s-.56.12-.72.3c-.22.24-.27.5-.27,1.6s.06,1.36.27,1.6c.16.18.42.3.72.3.14,0,.26-.03.37-.1l-.5-.49.59-.58.42.42c.09-.25.1-.58.1-1.15,0-1.1-.06-1.36-.28-1.6Z" style="fill: #1d1d1b; stroke-width: 0px;"/>
        </g>
        <g>
          <path d="M53.52,70.2c-.44.45-.97.65-1.61.65s-1.12-.21-1.54-.62c-.25-.25-.4-.54-.46-.86-.06-.32-.1-.79-.1-1.42s.03-1.1.1-1.42c.06-.33.22-.61.46-.86.42-.42.93-.62,1.54-.62,1.3,0,1.99.83,2.14,1.82h-1.12c-.14-.55-.47-.83-1.02-.83-.3,0-.54.1-.71.3-.21.26-.27.47-.27,1.6s.05,1.34.27,1.61c.17.2.41.3.71.3.33,0,.59-.1.79-.32.17-.19.26-.45.26-.76v-.22h-1.05v-.93h2.15v.83c0,.83-.15,1.32-.54,1.74Z" style="fill: #1d1d1b; stroke-width: 0px;"/>
          <path d="M58.26,70.8l-.34-1.01h-2.02l-.34,1.01h-1.16l2.07-5.69h.87l2.08,5.69h-1.16ZM56.93,66.78l-.72,2.07h1.42l-.7-2.07Z" style="fill: #1d1d1b; stroke-width: 0px;"/>
          <path d="M60.13,70.8v-5.69h1.11v5.69h-1.11Z" style="fill: #1d1d1b; stroke-width: 0px;"/>
          <path d="M65.93,70.8l-2.25-3.49v3.49h-1.11v-5.69h.99l2.25,3.49v-3.49h1.11v5.69h-.99Z" style="fill: #1d1d1b; stroke-width: 0px;"/>
        </g>
        <g>
          <path d="M11.58,112.68v1.4h2.25v.99h-2.25v2.31h-1.11v-5.69h3.75v.99h-2.64Z" style="fill: #1d1d1b; stroke-width: 0px;"/>
          <path d="M18.21,117.38l-1.11-2.27h-.8v2.27h-1.11v-5.69h2.23c1.16,0,1.85.79,1.85,1.74,0,.8-.49,1.3-1.04,1.5l1.27,2.45h-1.29ZM17.35,112.68h-1.05v1.5h1.05c.49,0,.81-.31.81-.75s-.32-.75-.81-.75Z" style="fill: #1d1d1b; stroke-width: 0px;"/>
          <path d="M20.42,117.38v-5.69h3.75v.99h-2.64v1.33h2.25v.99h-2.25v1.38h2.64v.99h-3.75Z" style="fill: #1d1d1b; stroke-width: 0px;"/>
          <path d="M28.83,117.62l-.5-.5c-.32.21-.7.31-1.15.31-.65,0-1.14-.22-1.54-.62-.58-.58-.56-1.29-.56-2.27s-.02-1.69.56-2.27c.4-.4.9-.62,1.54-.62s1.14.22,1.54.62c.58.58.57,1.29.57,2.27,0,.86,0,1.49-.35,2.02l.49.49-.58.58ZM27.89,112.93c-.16-.18-.41-.3-.71-.3s-.56.12-.72.3c-.22.24-.27.5-.27,1.6s.06,1.36.27,1.6c.16.18.42.3.72.3.14,0,.26-.03.37-.1l-.5-.49.59-.58.42.42c.09-.25.1-.58.1-1.15,0-1.1-.06-1.36-.28-1.6Z" style="fill: #1d1d1b; stroke-width: 0px;"/>
        </g>
        <g>
          <path d="M53.52,116.78c-.44.45-.97.65-1.61.65s-1.12-.21-1.54-.62c-.25-.25-.4-.54-.46-.86-.06-.32-.1-.79-.1-1.42s.03-1.1.1-1.42c.06-.33.22-.61.46-.86.42-.42.93-.62,1.54-.62,1.3,0,1.99.83,2.14,1.82h-1.12c-.14-.55-.47-.83-1.02-.83-.3,0-.54.1-.71.3-.21.26-.27.47-.27,1.6s.05,1.34.27,1.61c.17.2.41.3.71.3.33,0,.59-.1.79-.32.17-.19.26-.45.26-.76v-.22h-1.05v-.93h2.15v.83c0,.83-.15,1.32-.54,1.74Z" style="fill: #1d1d1b; stroke-width: 0px;"/>
          <path d="M58.26,117.38l-.34-1.01h-2.02l-.34,1.01h-1.16l2.07-5.69h.87l2.08,5.69h-1.16ZM56.93,113.37l-.72,2.07h1.42l-.7-2.07Z" style="fill: #1d1d1b; stroke-width: 0px;"/>
          <path d="M60.13,117.38v-5.69h1.11v5.69h-1.11Z" style="fill: #1d1d1b; stroke-width: 0px;"/>
          <path d="M65.93,117.38l-2.25-3.49v3.49h-1.11v-5.69h.99l2.25,3.49v-3.49h1.11v5.69h-.99Z" style="fill: #1d1d1b; stroke-width: 0px;"/>
        </g>
        <g>
          <path d="M24.03,150.29h-8.5c-1.56,0-2.83,1.28-2.83,2.83v2.83c0,1.56,1.28,2.83,2.83,2.83h8.5c1.56,0,2.83-1.28,2.83-2.83v-2.83c0-1.56-1.28-2.83-2.83-2.83ZM21.43,157.89l-.5-.5c-.32.21-.7.31-1.15.31-.65,0-1.14-.22-1.54-.62-.58-.58-.56-1.29-.56-2.27s-.02-1.69.56-2.27c.4-.4.9-.62,1.54-.62s1.14.22,1.54.62c.58.58.57,1.29.57,2.27,0,.86,0,1.49-.35,2.02l.49.49-.58.58Z" style="fill: #d83559; stroke-width: 0px;"/>
          <path d="M19.78,152.9c-.3,0-.56.12-.72.3-.22.24-.27.5-.27,1.6s.06,1.36.27,1.6c.16.18.42.3.72.3.14,0,.26-.03.37-.1l-.5-.49.59-.58.42.42c.09-.25.1-.58.1-1.15,0-1.1-.06-1.36-.28-1.6-.16-.18-.41-.3-.71-.3Z" style="fill: #d83559; stroke-width: 0px;"/>
        </g>
        <g>
          <path d="M62.72,150.29h-8.5c-1.56,0-2.83,1.28-2.83,2.83v2.83c0,1.56,1.28,2.83,2.83,2.83h8.5c1.56,0,2.84-1.28,2.84-2.83v-2.83c0-1.56-1.28-2.83-2.84-2.83ZM60.13,157.89l-.5-.5c-.32.21-.7.31-1.15.31-.65,0-1.14-.22-1.54-.62-.58-.58-.56-1.29-.56-2.27s-.02-1.69.56-2.27c.4-.4.9-.62,1.54-.62s1.14.22,1.54.62c.58.58.57,1.29.57,2.27,0,.86,0,1.49-.35,2.02l.49.49-.58.58Z" style="fill: #d83559; stroke-width: 0px;"/>
          <path d="M58.47,152.9c-.3,0-.56.12-.72.3-.22.24-.27.5-.27,1.6s.06,1.36.27,1.6c.16.18.42.3.72.3.14,0,.26-.03.37-.1l-.5-.49.59-.58.42.42c.09-.25.1-.58.1-1.15,0-1.1-.06-1.36-.28-1.6-.16-.18-.41-.3-.71-.3Z" style="fill: #d83559; stroke-width: 0px;"/>
        </g>
        <path d="M49.25,188.81c-.13,0-.26-.05-.36-.15-2.37-2.48-3.67-5.73-3.67-9.16,0-7.31,5.94-13.25,13.25-13.25s13.25,5.94,13.25,13.25c0,3.43-1.3,6.68-3.67,9.15-.19.2-.51.21-.71.02-.2-.19-.21-.51-.02-.71,2.19-2.29,3.39-5.29,3.39-8.46,0-6.75-5.5-12.25-12.25-12.25s-12.25,5.5-12.25,12.25c0,3.17,1.21,6.18,3.39,8.46.19.2.18.52-.02.71-.1.09-.22.14-.35.14Z" style="fill: #0094a0; stroke-width: 0px;"/>
        <g>
          <path d="M11.58,236.91v1.4h2.25v.99h-2.25v2.31h-1.11v-5.69h3.75v.99h-2.64Z" style="fill: #1d1d1b; stroke-width: 0px;"/>
          <path d="M18.21,241.61l-1.11-2.27h-.8v2.27h-1.11v-5.69h2.23c1.16,0,1.85.79,1.85,1.74,0,.8-.49,1.3-1.04,1.5l1.27,2.46h-1.29ZM17.35,236.91h-1.05v1.5h1.05c.49,0,.81-.31.81-.75s-.32-.75-.81-.75Z" style="fill: #1d1d1b; stroke-width: 0px;"/>
          <path d="M20.42,241.61v-5.69h3.75v.99h-2.64v1.34h2.25v.99h-2.25v1.38h2.64v.99h-3.75Z" style="fill: #1d1d1b; stroke-width: 0px;"/>
          <path d="M28.83,241.85l-.5-.5c-.32.21-.7.31-1.15.31-.65,0-1.14-.22-1.54-.62-.58-.58-.56-1.29-.56-2.27s-.02-1.7.56-2.27c.4-.4.9-.62,1.54-.62s1.14.22,1.54.62c.58.58.57,1.29.57,2.27,0,.86,0,1.49-.35,2.01l.49.49-.58.58ZM27.89,237.16c-.16-.18-.41-.3-.71-.3s-.56.12-.72.3c-.22.24-.27.5-.27,1.6s.06,1.36.27,1.6c.16.18.42.3.72.3.14,0,.26-.03.37-.1l-.5-.49.59-.58.42.42c.09-.25.1-.58.1-1.15,0-1.1-.06-1.36-.28-1.6Z" style="fill: #1d1d1b; stroke-width: 0px;"/>
        </g>
        <g>
          <path d="M53.52,241.01c-.44.45-.97.65-1.61.65s-1.12-.21-1.54-.62c-.25-.25-.4-.54-.46-.86-.06-.32-.1-.79-.1-1.42s.03-1.09.1-1.42c.06-.33.22-.61.46-.86.42-.42.93-.62,1.54-.62,1.3,0,1.99.83,2.14,1.82h-1.12c-.14-.55-.47-.83-1.02-.83-.3,0-.54.1-.71.3-.21.26-.27.47-.27,1.6s.05,1.34.27,1.61c.17.2.41.3.71.3.33,0,.59-.1.79-.32.17-.19.26-.45.26-.76v-.22h-1.05v-.93h2.15v.83c0,.83-.15,1.32-.54,1.74Z" style="fill: #1d1d1b; stroke-width: 0px;"/>
          <path d="M58.26,241.61l-.34-1.01h-2.02l-.34,1.01h-1.16l2.07-5.69h.87l2.08,5.69h-1.16ZM56.93,237.59l-.72,2.07h1.42l-.7-2.07Z" style="fill: #1d1d1b; stroke-width: 0px;"/>
          <path d="M60.13,241.61v-5.69h1.11v5.69h-1.11Z" style="fill: #1d1d1b; stroke-width: 0px;"/>
          <path d="M65.93,241.61l-2.25-3.49v3.49h-1.11v-5.69h.99l2.25,3.49v-3.49h1.11v5.69h-.99Z" style="fill: #1d1d1b; stroke-width: 0px;"/>
        </g>
        <g>
          <path d="M19.78,196.59c-.3,0-.56.12-.72.3-.22.24-.27.5-.27,1.6s.06,1.36.27,1.6c.16.18.42.3.72.3.14,0,.26-.03.37-.1l-.5-.49.59-.58.42.42c.09-.25.1-.58.1-1.15,0-1.1-.06-1.36-.28-1.6-.16-.18-.41-.3-.71-.3Z" style="fill: #0094a0; stroke-width: 0px;"/>
          <path d="M24.03,193.99h-8.5c-1.56,0-2.83,1.28-2.83,2.83v2.83c0,1.56,1.28,2.84,2.83,2.84h8.5c1.56,0,2.83-1.28,2.83-2.84v-2.83c0-1.56-1.28-2.83-2.83-2.83ZM21.43,201.58l-.5-.5c-.32.21-.7.31-1.15.31-.65,0-1.14-.22-1.54-.62-.58-.58-.56-1.29-.56-2.27s-.02-1.7.56-2.27c.4-.4.9-.62,1.54-.62s1.14.22,1.54.62c.58.58.57,1.29.57,2.27,0,.86,0,1.49-.35,2.01l.49.49-.58.58Z" style="fill: #0094a0; stroke-width: 0px;"/>
        </g>
        <g>
          <path d="M58.47,196.59c-.3,0-.56.12-.72.3-.22.24-.27.5-.27,1.6s.06,1.36.27,1.6c.16.18.42.3.72.3.14,0,.26-.03.37-.1l-.5-.49.59-.58.42.42c.09-.25.1-.58.1-1.15,0-1.1-.06-1.36-.28-1.6-.16-.18-.41-.3-.71-.3Z" style="fill: #0094a0; stroke-width: 0px;"/>
          <path d="M62.72,193.99h-8.5c-1.56,0-2.83,1.28-2.83,2.83v2.83c0,1.56,1.28,2.84,2.83,2.84h8.5c1.56,0,2.84-1.28,2.84-2.84v-2.83c0-1.56-1.28-2.83-2.84-2.83ZM60.13,201.58l-.5-.5c-.32.21-.7.31-1.15.31-.65,0-1.14-.22-1.54-.62-.58-.58-.56-1.29-.56-2.27s-.02-1.7.56-2.27c.4-.4.9-.62,1.54-.62s1.14.22,1.54.62c.58.58.57,1.29.57,2.27,0,.86,0,1.49-.35,2.01l.49.49-.58.58Z" style="fill: #0094a0; stroke-width: 0px;"/>
        </g>
        <g>
          <path d="M11.58,283.31v1.4h2.25v.99h-2.25v2.31h-1.11v-5.69h3.75v.99h-2.64Z" style="fill: #1d1d1b; stroke-width: 0px;"/>
          <path d="M18.21,288.01l-1.11-2.27h-.8v2.27h-1.11v-5.69h2.23c1.16,0,1.85.79,1.85,1.74,0,.8-.49,1.29-1.04,1.5l1.27,2.45h-1.29ZM17.35,283.31h-1.05v1.5h1.05c.49,0,.81-.31.81-.75s-.32-.75-.81-.75Z" style="fill: #1d1d1b; stroke-width: 0px;"/>
          <path d="M20.42,288.01v-5.69h3.75v.99h-2.64v1.34h2.25v.99h-2.25v1.38h2.64v.99h-3.75Z" style="fill: #1d1d1b; stroke-width: 0px;"/>
          <path d="M28.83,288.25l-.5-.5c-.32.21-.7.31-1.15.31-.65,0-1.14-.22-1.54-.62-.58-.58-.56-1.29-.56-2.27s-.02-1.69.56-2.27c.4-.4.9-.62,1.54-.62s1.14.22,1.54.62c.58.58.57,1.29.57,2.27,0,.86,0,1.49-.35,2.02l.49.49-.58.58ZM27.89,283.57c-.16-.18-.41-.3-.71-.3s-.56.12-.72.3c-.22.24-.27.5-.27,1.6s.06,1.36.27,1.6c.16.18.42.3.72.3.14,0,.26-.03.37-.1l-.5-.49.59-.58.42.42c.09-.25.1-.58.1-1.15,0-1.09-.06-1.36-.28-1.6Z" style="fill: #1d1d1b; stroke-width: 0px;"/>
        </g>
        <g>
          <path d="M53.52,287.41c-.44.45-.97.65-1.61.65s-1.12-.21-1.54-.62c-.25-.25-.4-.54-.46-.86-.06-.32-.1-.79-.1-1.42s.03-1.09.1-1.41c.06-.33.22-.61.46-.86.42-.42.93-.62,1.54-.62,1.3,0,1.99.83,2.14,1.82h-1.12c-.14-.55-.47-.83-1.02-.83-.3,0-.54.1-.71.3-.21.26-.27.47-.27,1.6s.05,1.34.27,1.61c.17.2.41.3.71.3.33,0,.59-.1.79-.32.17-.19.26-.45.26-.76v-.22h-1.05v-.93h2.15v.83c0,.83-.15,1.32-.54,1.74Z" style="fill: #1d1d1b; stroke-width: 0px;"/>
          <path d="M58.26,288.01l-.34-1.01h-2.02l-.34,1.01h-1.16l2.07-5.69h.87l2.08,5.69h-1.16ZM56.93,284l-.72,2.07h1.42l-.7-2.07Z" style="fill: #1d1d1b; stroke-width: 0px;"/>
          <path d="M60.13,288.01v-5.69h1.11v5.69h-1.11Z" style="fill: #1d1d1b; stroke-width: 0px;"/>
          <path d="M65.93,288.01l-2.25-3.49v3.49h-1.11v-5.69h.99l2.25,3.49v-3.49h1.11v5.69h-.99Z" style="fill: #1d1d1b; stroke-width: 0px;"/>
        </g>
        <g>
          <path d="M125.29,149.32c-.3,0-.56.12-.72.3-.22.24-.27.5-.27,1.6s.06,1.36.27,1.6c.16.18.42.3.72.3.14,0,.26-.03.37-.1l-.5-.49.59-.58.42.42c.09-.25.1-.58.1-1.15,0-1.1-.06-1.36-.28-1.6-.16-.18-.41-.3-.71-.3Z" style="fill: #d83559; stroke-width: 0px;"/>
          <path d="M115.46,149.37h-1.05v1.5h1.05c.49,0,.81-.31.81-.75s-.32-.75-.81-.75Z" style="fill: #d83559; stroke-width: 0px;"/>
          <path d="M129.52,145.29h-23.26c-1.56,0-2.83,1.28-2.83,2.83v5.67c0,1.56,1.28,2.83,2.83,2.83h23.26c1.56,0,2.83-1.28,2.83-2.83v-5.67c0-1.56-1.28-2.83-2.83-2.83ZM112.34,149.37h-2.64v1.4h2.25v.99h-2.25v2.31h-1.11v-5.69h3.75v.99ZM116.33,154.07l-1.11-2.27h-.8v2.27h-1.11v-5.69h2.23c1.16,0,1.85.79,1.85,1.74,0,.8-.49,1.3-1.04,1.5l1.27,2.45h-1.29ZM122.29,149.37h-2.64v1.33h2.25v.99h-2.25v1.38h2.64v.99h-3.75v-5.69h3.75v.99ZM126.94,154.31l-.5-.5c-.32.21-.7.31-1.15.31-.65,0-1.14-.22-1.54-.62-.58-.58-.56-1.29-.56-2.27s-.02-1.69.56-2.27c.4-.4.9-.62,1.54-.62s1.14.22,1.54.62c.58.58.57,1.29.57,2.27,0,.86,0,1.49-.35,2.02l.49.49-.58.58Z" style="fill: #d83559; stroke-width: 0px;"/>
        </g>
        <g>
          <polygon points="184 152.13 185.42 152.13 184.72 150.05 184 152.13" style="fill: #d83559; stroke-width: 0px;"/>
          <path d="M196.2,145.29h-19.9c-1.56,0-2.84,1.28-2.84,2.83v5.67c0,1.56,1.28,2.83,2.84,2.83h19.9c1.56,0,2.83-1.28,2.83-2.83v-5.67c0-1.56-1.28-2.83-2.83-2.83ZM181.85,151.73c0,.83-.15,1.32-.54,1.74-.44.45-.97.65-1.61.65s-1.12-.21-1.54-.62c-.25-.25-.4-.54-.46-.86-.06-.32-.1-.79-.1-1.42s.03-1.1.1-1.42c.06-.33.22-.61.46-.86.42-.42.93-.62,1.54-.62,1.3,0,1.99.83,2.14,1.82h-1.12c-.14-.55-.47-.83-1.02-.83-.3,0-.54.1-.71.3-.21.26-.27.47-.27,1.6s.05,1.34.27,1.61c.17.2.41.3.71.3.33,0,.59-.1.79-.32.17-.19.26-.45.26-.76v-.22h-1.05v-.93h2.15v.83ZM186.05,154.07l-.34-1.01h-2.02l-.34,1.01h-1.16l2.07-5.69h.87l2.08,5.69h-1.16ZM189.02,154.07h-1.11v-5.69h1.11v5.69ZM194.71,154.07h-.99l-2.25-3.49v3.49h-1.11v-5.69h.99l2.25,3.49v-3.49h1.11v5.69Z" style="fill: #d83559; stroke-width: 0px;"/>
        </g>
        <g>
          <path d="M125.29,217.51c-.3,0-.56.12-.72.3-.22.24-.27.5-.27,1.6s.06,1.36.27,1.6c.16.18.42.3.72.3.14,0,.26-.03.37-.1l-.5-.49.59-.58.42.42c.09-.25.1-.58.1-1.15,0-1.1-.06-1.36-.28-1.6-.16-.18-.41-.3-.71-.3Z" style="fill: #0094a0; stroke-width: 0px;"/>
          <path d="M115.46,217.56h-1.05v1.5h1.05c.49,0,.81-.31.81-.75s-.32-.75-.81-.75Z" style="fill: #0094a0; stroke-width: 0px;"/>
          <path d="M129.52,213.32h-23.26c-1.56,0-2.83,1.28-2.83,2.83v5.67c0,1.56,1.28,2.83,2.83,2.83h23.26c1.56,0,2.83-1.28,2.83-2.83v-5.67c0-1.56-1.28-2.83-2.83-2.83ZM112.34,217.56h-2.64v1.4h2.25v.99h-2.25v2.31h-1.11v-5.69h3.75v.99ZM116.33,222.26l-1.11-2.27h-.8v2.27h-1.11v-5.69h2.23c1.16,0,1.85.79,1.85,1.74,0,.8-.49,1.3-1.04,1.5l1.27,2.46h-1.29ZM122.29,217.56h-2.64v1.34h2.25v.99h-2.25v1.38h2.64v.99h-3.75v-5.69h3.75v.99ZM126.94,222.5l-.5-.5c-.32.21-.7.31-1.15.31-.65,0-1.14-.22-1.54-.62-.58-.58-.56-1.29-.56-2.27s-.02-1.7.56-2.27c.4-.4.9-.62,1.54-.62s1.14.22,1.54.62c.58.58.57,1.29.57,2.27,0,.86,0,1.49-.35,2.01l.49.49-.58.58Z" style="fill: #0094a0; stroke-width: 0px;"/>
        </g>
        <g>
          <polygon points="184 220.31 185.42 220.31 184.72 218.24 184 220.31" style="fill: #0094a0; stroke-width: 0px;"/>
          <path d="M196.2,213.32h-19.9c-1.56,0-2.84,1.28-2.84,2.83v5.67c0,1.56,1.28,2.83,2.84,2.83h19.9c1.56,0,2.83-1.28,2.83-2.83v-5.67c0-1.56-1.28-2.83-2.83-2.83ZM181.85,219.92c0,.83-.15,1.32-.54,1.74-.44.45-.97.65-1.61.65s-1.12-.21-1.54-.62c-.25-.25-.4-.54-.46-.86-.06-.32-.1-.79-.1-1.42s.03-1.1.1-1.41c.06-.33.22-.61.46-.86.42-.42.93-.62,1.54-.62,1.3,0,1.99.83,2.14,1.82h-1.12c-.14-.55-.47-.83-1.02-.83-.3,0-.54.1-.71.3-.21.26-.27.47-.27,1.6s.05,1.34.27,1.61c.17.2.41.3.71.3.33,0,.59-.1.79-.32.17-.19.26-.45.26-.76v-.22h-1.05v-.93h2.15v.83ZM186.05,222.26l-.34-1.01h-2.02l-.34,1.01h-1.16l2.07-5.69h.87l2.08,5.69h-1.16ZM189.02,222.26h-1.11v-5.69h1.11v5.69ZM194.71,222.26h-.99l-2.25-3.49v3.49h-1.11v-5.69h.99l2.25,3.49v-3.49h1.11v5.69Z" style="fill: #0094a0; stroke-width: 0px;"/>
        </g>
        <g>
          <path d="M109.7,284.51v1.4h2.25v.99h-2.25v2.31h-1.11v-5.69h3.75v.99h-2.64Z" style="fill: #1d1d1b; stroke-width: 0px;"/>
          <path d="M116.33,289.21l-1.11-2.27h-.8v2.27h-1.11v-5.69h2.23c1.16,0,1.85.79,1.85,1.74,0,.8-.49,1.3-1.04,1.5l1.27,2.46h-1.29ZM115.46,284.51h-1.05v1.5h1.05c.49,0,.81-.31.81-.75s-.32-.75-.81-.75Z" style="fill: #1d1d1b; stroke-width: 0px;"/>
          <path d="M118.54,289.21v-5.69h3.75v.99h-2.64v1.34h2.25v.99h-2.25v1.38h2.64v.99h-3.75Z" style="fill: #1d1d1b; stroke-width: 0px;"/>
          <path d="M126.94,289.45l-.5-.5c-.32.21-.7.31-1.15.31-.65,0-1.14-.22-1.54-.62-.58-.58-.56-1.29-.56-2.27s-.02-1.7.56-2.27c.4-.4.9-.62,1.54-.62s1.14.22,1.54.62c.58.58.57,1.29.57,2.27,0,.86,0,1.49-.35,2.01l.49.49-.58.58ZM126,284.76c-.16-.18-.41-.3-.71-.3s-.56.12-.72.3c-.22.24-.27.5-.27,1.6s.06,1.36.27,1.6c.16.18.42.3.72.3.14,0,.26-.03.37-.1l-.5-.49.59-.58.42.42c.09-.25.1-.58.1-1.15,0-1.1-.06-1.36-.28-1.6Z" style="fill: #1d1d1b; stroke-width: 0px;"/>
        </g>
        <g>
          <path d="M181.3,288.61c-.44.45-.97.65-1.61.65s-1.12-.21-1.54-.62c-.25-.25-.4-.54-.46-.86-.06-.32-.1-.79-.1-1.41s.03-1.1.1-1.42c.06-.33.22-.61.46-.86.42-.42.93-.62,1.54-.62,1.3,0,1.99.83,2.14,1.82h-1.12c-.14-.55-.47-.83-1.02-.83-.3,0-.54.1-.71.3-.21.26-.27.47-.27,1.6s.05,1.34.27,1.61c.17.2.41.3.71.3.33,0,.59-.1.79-.32.17-.19.26-.45.26-.76v-.22h-1.05v-.93h2.15v.83c0,.83-.15,1.32-.54,1.74Z" style="fill: #1d1d1b; stroke-width: 0px;"/>
          <path d="M186.05,289.21l-.34-1.01h-2.02l-.34,1.01h-1.16l2.07-5.69h.87l2.08,5.69h-1.16ZM184.72,285.19l-.72,2.07h1.41l-.7-2.07Z" style="fill: #1d1d1b; stroke-width: 0px;"/>
          <path d="M187.91,289.21v-5.69h1.11v5.69h-1.11Z" style="fill: #1d1d1b; stroke-width: 0px;"/>
          <path d="M193.72,289.21l-2.25-3.49v3.49h-1.11v-5.69h.99l2.25,3.49v-3.49h1.11v5.69h-.99Z" style="fill: #1d1d1b; stroke-width: 0px;"/>
        </g>
        <g>
          <path d="M11.58,326.69v1.4h2.25v.99h-2.25v2.31h-1.11v-5.69h3.75v.99h-2.64Z" style="fill: #1d1d1b; stroke-width: 0px;"/>
          <path d="M18.21,331.39l-1.11-2.27h-.8v2.27h-1.11v-5.69h2.23c1.16,0,1.85.79,1.85,1.74,0,.8-.49,1.29-1.04,1.5l1.27,2.45h-1.29ZM17.35,326.69h-1.05v1.5h1.05c.49,0,.81-.31.81-.75s-.32-.75-.81-.75Z" style="fill: #1d1d1b; stroke-width: 0px;"/>
          <path d="M20.42,331.39v-5.69h3.75v.99h-2.64v1.33h2.25v.99h-2.25v1.38h2.64v.99h-3.75Z" style="fill: #1d1d1b; stroke-width: 0px;"/>
          <path d="M28.83,331.63l-.5-.5c-.32.21-.7.31-1.15.31-.65,0-1.14-.22-1.54-.62-.58-.58-.56-1.29-.56-2.27s-.02-1.69.56-2.27c.4-.4.9-.62,1.54-.62s1.14.22,1.54.62c.58.58.57,1.29.57,2.27,0,.86,0,1.49-.35,2.02l.49.49-.58.58ZM27.89,326.95c-.16-.18-.41-.3-.71-.3s-.56.12-.72.3c-.22.24-.27.5-.27,1.6s.06,1.36.27,1.6c.16.18.42.3.72.3.14,0,.26-.03.37-.1l-.5-.49.59-.58.42.42c.09-.25.1-.58.1-1.15,0-1.09-.06-1.36-.28-1.6Z" style="fill: #1d1d1b; stroke-width: 0px;"/>
        </g>
        <g>
          <path d="M53.52,330.79c-.44.45-.97.65-1.61.65s-1.12-.21-1.54-.62c-.25-.25-.4-.54-.46-.86-.06-.32-.1-.79-.1-1.42s.03-1.09.1-1.42c.06-.33.22-.61.46-.86.42-.42.93-.62,1.54-.62,1.3,0,1.99.83,2.14,1.82h-1.12c-.14-.55-.47-.83-1.02-.83-.3,0-.54.1-.71.3-.21.26-.27.47-.27,1.6s.05,1.34.27,1.61c.17.2.41.3.71.3.33,0,.59-.1.79-.32.17-.19.26-.45.26-.76v-.22h-1.05v-.93h2.15v.83c0,.83-.15,1.32-.54,1.74Z" style="fill: #1d1d1b; stroke-width: 0px;"/>
          <path d="M58.26,331.39l-.34-1.01h-2.02l-.34,1.01h-1.16l2.07-5.69h.87l2.08,5.69h-1.16ZM56.93,327.38l-.72,2.07h1.42l-.7-2.07Z" style="fill: #1d1d1b; stroke-width: 0px;"/>
          <path d="M60.13,331.39v-5.69h1.11v5.69h-1.11Z" style="fill: #1d1d1b; stroke-width: 0px;"/>
          <path d="M65.93,331.39l-2.25-3.49v3.49h-1.11v-5.69h.99l2.25,3.49v-3.49h1.11v5.69h-.99Z" style="fill: #1d1d1b; stroke-width: 0px;"/>
        </g>
        <g>
          <path d="M114.49,331.39v-5.69h1.11v5.69h-1.11Z" style="fill: #1d1d1b; stroke-width: 0px;"/>
          <path d="M120.29,331.39l-2.25-3.49v3.49h-1.11v-5.69h.99l2.25,3.49v-3.49h1.11v5.69h-.99Z" style="fill: #1d1d1b; stroke-width: 0px;"/>
        </g>
        <g>
          <path d="M181.3,326.64c-.3,0-.56.12-.72.3-.22.24-.27.5-.27,1.6s.06,1.36.27,1.6c.16.18.42.3.72.3s.55-.12.71-.3c.22-.24.28-.5.28-1.6s-.06-1.36-.28-1.6c-.16-.18-.41-.3-.71-.3Z" style="fill: #6f6f6e; stroke-width: 0px;"/>
          <path d="M199.26,295.25h-26.02c-1.56,0-2.83,1.28-2.83,2.83v33.81c0,1.56,1.28,2.83,2.83,2.83h26.02c1.56,0,2.83-1.28,2.83-2.83v-33.81c0-1.56-1.28-2.83-2.83-2.83ZM182.83,330.82c-.4.4-.89.62-1.54.62s-1.14-.22-1.54-.62c-.58-.58-.56-1.29-.56-2.27s-.02-1.69.56-2.27c.4-.4.9-.62,1.54-.62s1.14.22,1.54.62c.58.58.57,1.29.57,2.27s0,1.7-.57,2.27ZM188.64,329.44c0,1.21-.93,2-2.09,2s-2.09-.79-2.09-2v-3.74h1.11v3.7c0,.66.38,1.05.98,1.05s.99-.39.99-1.05v-3.7h1.1v3.74ZM193.54,326.69h-1.49v4.7h-1.11v-4.7h-1.49v-.99h4.08v.99Z" style="fill: #6f6f6e; stroke-width: 0px;"/>
        </g>
        <path d="M152.07,65.9c-2.76,0-5,2.24-5,5s2.24,5,5,5,5-2.24,5-5-2.24-5-5-5ZM155.05,73.54h-2.34l-.97-1.35c-.12-.16-.08-.38.08-.49.16-.11.38-.08.49.08l.76,1.06h1.98c.2,0,.35.16.35.35s-.16.35-.35.35ZM155.05,68.97h-1.98l-1.67,2.28h-2.88c-.2,0-.35-.16-.35-.35s.16-.35.35-.35h2.53l1.67-2.28h2.34c.2,0,.35.16.35.35s-.16.35-.35.35Z" style="fill: #6f6f6e; stroke-width: 0px;"/>
        <path d="M152.07,133.38c-2.76,0-5,2.24-5,5s2.24,5,5,5,5-2.24,5-5-2.24-5-5-5ZM155.55,139.31h-1.75l-.87-1.82-.93,1.82h-3.42c-.2,0-.35-.16-.35-.35s.16-.35.35-.35h2.98l1.38-2.71,1.3,2.71h1.3c.2,0,.35.16.35.35s-.16.35-.35.35Z" style="fill: #d83559; stroke-width: 0px;"/>
        <path d="M152.07,200.87c-2.76,0-5,2.24-5,5s2.24,5,5,5,5-2.24,5-5-2.24-5-5-5ZM155.55,206.79h-3.42l-.93-1.82-.87,1.82h-1.75c-.2,0-.35-.16-.35-.35s.16-.35.35-.35h1.3l1.29-2.71,1.38,2.71h2.98c.2,0,.35.16.35.35s-.16.35-.35.35Z" style="fill: #0094a0; stroke-width: 0px;"/>
        <path d="M152.07,268.35c-2.76,0-5,2.24-5,5s2.24,5,5,5,5-2.24,5-5-2.24-5-5-5ZM152.4,274.63l-.97,1.35h-2.34c-.2,0-.35-.16-.35-.35s.16-.35.35-.35h1.98l.76-1.06c.11-.16.34-.2.49-.08.16.11.2.33.08.49ZM155.62,273.71h-2.88l-1.67-2.28h-1.98c-.2,0-.35-.16-.35-.35s.16-.35.35-.35h2.34l1.67,2.28h2.53c.2,0,.35.16.35.35s-.16.35-.35.35Z" style="fill: #6f6f6e; stroke-width: 0px;"/>
        <path d="M156.8,326.69l-4.43-7.67c-.19-.33-.49-.33-.68,0l-4.43,7.67c-.19.32-.04.59.34.59h8.86c.37,0,.53-.27.34-.59ZM152.51,326.14h-.95v-.83h.95v.83ZM152.37,324.45h-.68l-.21-2.75h1.1l-.21,2.75Z" style="fill: #6f6f6e; stroke-width: 0px;"/>
        <g>
          <path d="M208.27,36.51c-2.24,0-4.06,1.81-4.06,4.05s1.81,4.06,4.06,4.06,4.05-1.81,4.05-4.06-1.82-4.05-4.05-4.05ZM210.39,41.16h-1.54v1.54h-1.17v-1.54h-1.55v-1.17h1.55v-1.54h1.17v1.54h1.54v1.17Z" style="fill: #1d1d1b; stroke-width: 0px;"/>
          <path d="M164.24,36.51c-2.24,0-4.06,1.81-4.06,4.05s1.82,4.06,4.06,4.06,4.06-1.81,4.06-4.06-1.82-4.05-4.06-4.05ZM166.1,41.3h-3.71v-1.45h3.71v1.45Z" style="fill: #1d1d1b; stroke-width: 0px;"/>
          <rect x="185.75" y="31.56" width="1" height="23.92" style="fill: #1d1d1b; stroke-width: 0px;"/>
        </g>
        <g>
          <path d="M208.27,103.25c-2.24,0-4.06,1.81-4.06,4.05s1.81,4.06,4.06,4.06,4.05-1.81,4.05-4.06-1.82-4.05-4.05-4.05ZM210.39,107.89h-1.54v1.54h-1.17v-1.54h-1.55v-1.17h1.55v-1.54h1.17v1.54h1.54v1.17Z" style="fill: #1d1d1b; stroke-width: 0px;"/>
          <path d="M164.24,103.25c-2.24,0-4.06,1.81-4.06,4.05s1.82,4.06,4.06,4.06,4.06-1.81,4.06-4.06-1.82-4.05-4.06-4.05ZM166.1,108.03h-3.71v-1.46h3.71v1.46Z" style="fill: #1d1d1b; stroke-width: 0px;"/>
          <rect x="185.75" y="99.41" width="1" height="23.92" style="fill: #1d1d1b; stroke-width: 0px;"/>
        </g>
        <g>
          <path d="M208.27,171.28c-2.24,0-4.06,1.81-4.06,4.05s1.81,4.06,4.06,4.06,4.05-1.81,4.05-4.06-1.82-4.05-4.05-4.05ZM210.39,175.92h-1.54v1.54h-1.17v-1.54h-1.55v-1.17h1.55v-1.54h1.17v1.54h1.54v1.17Z" style="fill: #1d1d1b; stroke-width: 0px;"/>
          <path d="M164.24,171.28c-2.24,0-4.06,1.81-4.06,4.05s1.82,4.06,4.06,4.06,4.06-1.81,4.06-4.06-1.82-4.05-4.06-4.05ZM166.1,176.06h-3.71v-1.45h3.71v1.45Z" style="fill: #1d1d1b; stroke-width: 0px;"/>
          <rect x="185.75" y="166.75" width="1" height="23.93" style="fill: #1d1d1b; stroke-width: 0px;"/>
        </g>
        <g>
          <path d="M208.27,238.69c-2.24,0-4.06,1.81-4.06,4.05s1.81,4.06,4.06,4.06,4.05-1.81,4.05-4.06-1.82-4.05-4.05-4.05ZM210.39,243.33h-1.54v1.54h-1.17v-1.54h-1.55v-1.17h1.55v-1.54h1.17v1.54h1.54v1.17Z" style="fill: #1d1d1b; stroke-width: 0px;"/>
          <path d="M164.24,238.69c-2.24,0-4.06,1.81-4.06,4.05s1.82,4.06,4.06,4.06,4.06-1.81,4.06-4.06-1.82-4.05-4.06-4.05ZM166.1,243.47h-3.71v-1.46h3.71v1.46Z" style="fill: #1d1d1b; stroke-width: 0px;"/>
          <rect x="185.75" y="234.21" width="1" height="23.93" style="fill: #1d1d1b; stroke-width: 0px;"/>
        </g>
        <polygon points="82.37 249.92 10.51 249.92 10.51 248.92 81.94 248.92 97.9 231.69 214.89 231.69 214.89 232.69 98.34 232.69 82.37 249.92" style="fill: #c6c6c5; stroke-width: 0px;"/>
        <rect x="10.51" y="162.73" width="204.38" height="1" style="fill: #c6c6c5; stroke-width: 0px;"/>
        <rect x="10.51" y="291.75" width="204.38" height="1" style="fill: #c6c6c5; stroke-width: 0px;"/>
        <polygon points="214.89 95.63 97.91 95.63 81.94 78.77 10.51 78.77 10.51 77.77 82.37 77.77 98.34 94.63 214.89 94.63 214.89 95.63" style="fill: #c6c6c5; stroke-width: 0px;"/>
        <rect x="9.09" y="337.22" width="241.24" height="2" style="fill: #c6c6c5; stroke-width: 0px;"/>
        <g>
          <path d="M237.1,111.87h-1.16v1.4h1.16c.5,0,.74-.32.74-.7s-.24-.7-.74-.7Z" style="fill: #6f6f6e; stroke-width: 0px;"/>
          <path d="M241.92,152.94h-1.04v1.56h1.04c.5,0,.82-.31.82-.78s-.32-.78-.82-.78Z" style="fill: #6f6f6e; stroke-width: 0px;"/>
          <path d="M242.25,109.56h-1.04v1.56h1.04c.5,0,.82-.31.82-.78s-.32-.78-.82-.78Z" style="fill: #6f6f6e; stroke-width: 0px;"/>
          <path d="M237.77,110.22c0-.39-.26-.66-.74-.66h-1.09v1.31h1.09c.47,0,.74-.26.74-.66Z" style="fill: #6f6f6e; stroke-width: 0px;"/>
          <path d="M242.36,66.1h-1.04v1.56h1.04c.5,0,.82-.31.82-.78s-.32-.78-.82-.78Z" style="fill: #6f6f6e; stroke-width: 0px;"/>
          <path d="M252.32,34.9h-26.02c-1.56,0-2.84,1.28-2.84,2.83v120.47c0,1.56,1.28,2.83,2.84,2.83h26.02c1.56,0,2.83-1.28,2.83-2.83V37.73c0-1.56-1.28-2.83-2.83-2.83ZM234.73,65.1h1.11v2.33h1.93v-2.33h1.11v5.69h-1.11v-2.38h-1.93v2.38h-1.11v-5.69ZM238.86,157.65h-3.69v-5.69h1.11v4.7h2.58v.99ZM237.22,114.26h-2.38v-5.69h2.29c1.11,0,1.76.62,1.76,1.6,0,.63-.42,1.04-.7,1.18.34.16.78.52.78,1.28,0,1.06-.73,1.64-1.74,1.64ZM241.97,155.5h-1.09v2.14h-1.11v-5.69h2.21c1.18,0,1.88.81,1.88,1.77s-.7,1.78-1.88,1.78ZM242.3,112.12h-1.09v2.14h-1.11v-5.69h2.21c1.18,0,1.88.81,1.88,1.77s-.7,1.78-1.88,1.78ZM242.41,68.65h-1.09v2.14h-1.11v-5.69h2.21c1.18,0,1.88.81,1.88,1.77s-.7,1.78-1.88,1.78Z" style="fill: #6f6f6e; stroke-width: 0px;"/>
        </g>
        <g>
          <path d="M242.25,240.59h-1.04v1.56h1.04c.5,0,.82-.31.82-.78s-.32-.78-.82-.78Z" style="fill: #6f6f6e; stroke-width: 0px;"/>
          <path d="M237.77,241.25c0-.39-.26-.66-.74-.66h-1.09v1.31h1.09c.47,0,.74-.26.74-.66Z" style="fill: #6f6f6e; stroke-width: 0px;"/>
          <path d="M241.92,283.31h-1.04v1.56h1.04c.5,0,.82-.31.82-.78s-.32-.78-.82-.78Z" style="fill: #6f6f6e; stroke-width: 0px;"/>
          <path d="M252.32,165.92h-26.02c-1.56,0-2.84,1.28-2.84,2.83v120.47c0,1.56,1.28,2.84,2.84,2.84h26.02c1.56,0,2.83-1.28,2.83-2.84v-120.47c0-1.56-1.28-2.83-2.83-2.83ZM234.73,195.65h1.11v2.33h1.93v-2.33h1.11v5.69h-1.11v-2.38h-1.93v2.38h-1.11v-5.69ZM238.86,288.01h-3.69v-5.69h1.11v4.7h2.58v.99ZM237.22,245.29h-2.38v-5.69h2.29c1.11,0,1.76.62,1.76,1.6,0,.63-.42,1.04-.7,1.17.34.16.78.52.78,1.28,0,1.06-.73,1.64-1.74,1.64ZM241.97,285.87h-1.09v2.14h-1.11v-5.69h2.21c1.18,0,1.88.81,1.88,1.77s-.7,1.78-1.88,1.78ZM242.3,243.15h-1.09v2.14h-1.11v-5.69h2.21c1.18,0,1.88.81,1.88,1.78s-.7,1.78-1.88,1.78ZM242.41,199.2h-1.09v2.14h-1.11v-5.69h2.21c1.18,0,1.88.81,1.88,1.78s-.7,1.78-1.88,1.78Z" style="fill: #6f6f6e; stroke-width: 0px;"/>
          <path d="M242.36,196.64h-1.04v1.56h1.04c.5,0,.82-.31.82-.78s-.32-.78-.82-.78Z" style="fill: #6f6f6e; stroke-width: 0px;"/>
          <path d="M237.1,242.9h-1.16v1.4h1.16c.5,0,.74-.32.74-.7s-.24-.7-.74-.7Z" style="fill: #6f6f6e; stroke-width: 0px;"/>
        </g>
      </g>
      <g id="drills">
        <path d="M16.83,355.88c.1,2.4,2.13,4.43,4.63,4.43s4.54-2.03,4.54-4.53-2.03-4.54-4.54-4.54-4.54,2.03-4.54,4.54" style="fill: none; stroke: #e20613; stroke-linecap: round; stroke-linejoin: round; stroke-width: .28px;"/>
        <path d="M16.83,8.65c.1,2.48,2.13,4.51,4.63,4.51s4.54-2.03,4.54-4.53-2.03-4.53-4.54-4.53-4.54,2.03-4.54,4.53" style="fill: none; stroke: #e20613; stroke-linecap: round; stroke-linejoin: round; stroke-width: .28px;"/>
        <path d="M232.82,355.88c.1,2.4,2.13,4.43,4.64,4.43s4.54-2.03,4.54-4.53-2.03-4.54-4.54-4.54-4.54,2.03-4.54,4.54" style="fill: none; stroke: #e20613; stroke-linecap: round; stroke-linejoin: round; stroke-width: .28px;"/>
        <path d="M232.82,8.65c.1,2.48,2.13,4.51,4.64,4.51s4.54-2.03,4.54-4.53-2.03-4.53-4.54-4.53-4.54,2.03-4.54,4.53" style="fill: none; stroke: #e20613; stroke-linecap: round; stroke-linejoin: round; stroke-width: .28px;"/>
        <line x1=".16" y1=".14" x2="229.46" y2=".14" style="fill: none; stroke: #e20613; stroke-linecap: round; stroke-linejoin: round; stroke-width: .28px;"/>
        <line x1="229.46" y1="364.39" x2=".16" y2="364.39" style="fill: none; stroke: #e20613; stroke-linecap: round; stroke-linejoin: round; stroke-width: .28px;"/>
        <path d="M10.59,310.44c.01,4.97,4.14,9.09,9.22,9.09s9.21-4.12,9.21-9.21-4.12-9.21-9.21-9.21-9.21,4.12-9.21,9.21" style="fill: none; stroke: #e20613; stroke-linecap: round; stroke-linejoin: round; stroke-width: .28px;"/>
        <path d="M10.59,267.16c.01,5.04,4.14,9.16,9.22,9.16s9.21-4.12,9.21-9.21-4.12-9.21-9.21-9.21-9.21,4.12-9.21,9.21" style="fill: none; stroke: #e20613; stroke-linecap: round; stroke-linejoin: round; stroke-width: .28px;"/>
        <path d="M10.59,49.18c.01,5.03,4.14,9.15,9.22,9.15s9.21-4.12,9.21-9.21-4.12-9.21-9.21-9.21-9.21,4.12-9.21,9.21" style="fill: none; stroke: #e20613; stroke-linecap: round; stroke-linejoin: round; stroke-width: .28px;"/>
        <path d="M49.21,49.18c.09,5.03,4.21,9.15,9.3,9.15s9.21-4.12,9.21-9.21-4.12-9.21-9.21-9.21-9.21,4.12-9.21,9.21" style="fill: none; stroke: #e20613; stroke-linecap: round; stroke-linejoin: round; stroke-width: .28px;"/>
        <path d="M10.59,95.94c.01,5.03,4.14,9.15,9.22,9.15s9.21-4.12,9.21-9.21-4.12-9.21-9.21-9.21-9.21,4.12-9.21,9.21" style="fill: none; stroke: #e20613; stroke-linecap: round; stroke-linejoin: round; stroke-width: .28px;"/>
        <path d="M49.21,95.94c.09,5.03,4.21,9.15,9.3,9.15s9.21-4.12,9.21-9.21-4.12-9.21-9.21-9.21-9.21,4.12-9.21,9.21" style="fill: none; stroke: #e20613; stroke-linecap: round; stroke-linejoin: round; stroke-width: .28px;"/>
        <path d="M10.59,136.47c.01,5,4.14,9.12,9.22,9.12s9.21-4.12,9.21-9.21-4.12-9.21-9.21-9.21-9.21,4.12-9.21,9.21" style="fill: none; stroke: #e20613; stroke-linecap: round; stroke-linejoin: round; stroke-width: .28px;"/>
        <path d="M10.59,179.87c.01,5.07,4.14,9.19,9.22,9.19s9.21-4.12,9.21-9.21-4.12-9.21-9.21-9.21-9.21,4.12-9.21,9.21" style="fill: none; stroke: #e20613; stroke-linecap: round; stroke-linejoin: round; stroke-width: .28px;"/>
        <path d="M10.59,220.4c.01,5.04,4.14,9.16,9.22,9.16s9.21-4.12,9.21-9.21-4.12-9.21-9.21-9.21-9.21,4.12-9.21,9.21" style="fill: none; stroke: #e20613; stroke-linecap: round; stroke-linejoin: round; stroke-width: .28px;"/>
        <path d="M49.21,220.4c.09,5.04,4.21,9.16,9.3,9.16s9.21-4.12,9.21-9.21-4.12-9.21-9.21-9.21-9.21,4.12-9.21,9.21" style="fill: none; stroke: #e20613; stroke-linecap: round; stroke-linejoin: round; stroke-width: .28px;"/>
        <path d="M49.21,310.44c.09,4.97,4.21,9.09,9.3,9.09s9.21-4.12,9.21-9.21-4.12-9.21-9.21-9.21-9.21,4.12-9.21,9.21" style="fill: none; stroke: #e20613; stroke-linecap: round; stroke-linejoin: round; stroke-width: .28px;"/>
        <path d="M49.21,267.16c.09,5.04,4.21,9.16,9.3,9.16s9.21-4.12,9.21-9.21-4.12-9.21-9.21-9.21-9.21,4.12-9.21,9.21" style="fill: none; stroke: #e20613; stroke-linecap: round; stroke-linejoin: round; stroke-width: .28px;"/>
        <path d="M108.57,310.44c.11,4.97,4.23,9.09,9.32,9.09s9.21-4.12,9.21-9.21-4.12-9.21-9.21-9.21-9.21,4.12-9.21,9.21" style="fill: none; stroke: #e20613; stroke-linecap: round; stroke-linejoin: round; stroke-width: .28px;"/>
        <path d="M176.93,310.44c.12,4.97,4.24,9.09,9.33,9.09s9.21-4.12,9.21-9.21-4.12-9.21-9.21-9.21-9.21,4.12-9.21,9.21" style="fill: none; stroke: #e20613; stroke-linecap: round; stroke-linejoin: round; stroke-width: .28px;"/>
        <path d="M147.67,310.44c.09,2.27,2.02,4.2,4.41,4.2s4.32-1.94,4.32-4.32-1.94-4.32-4.32-4.32-4.32,1.93-4.32,4.32" style="fill: none; stroke: #e20613; stroke-linecap: round; stroke-linejoin: round; stroke-width: .28px;"/>
        <path d="M49.57,136.47c0,4.84,4.01,8.84,8.94,8.84s8.93-4,8.93-8.93-4-8.93-8.93-8.93-8.93,4-8.93,8.93" style="fill: none; stroke: #e20613; stroke-linecap: round; stroke-linejoin: round; stroke-width: .28px;"/>
        <path d="M49.57,179.87c0,4.91,4.01,8.91,8.94,8.91s8.93-4,8.93-8.93-4-8.93-8.93-8.93-8.93,4-8.93,8.93" style="fill: none; stroke: #e20613; stroke-linecap: round; stroke-linejoin: round; stroke-width: .28px;"/>
        <path d="M107.26,55.78c0,5.82,4.77,10.58,10.64,10.58s10.63-4.76,10.63-10.63-4.76-10.63-10.63-10.63-10.63,4.76-10.63,10.63" style="fill: none; stroke: #e20613; stroke-linecap: round; stroke-linejoin: round; stroke-width: .28px;"/>
        <path d="M175.61,55.78c.02,5.82,4.78,10.58,10.65,10.58s10.63-4.76,10.63-10.63-4.76-10.63-10.63-10.63-10.63,4.76-10.63,10.63" style="fill: none; stroke: #e20613; stroke-linecap: round; stroke-linejoin: round; stroke-width: .28px;"/>
        <path d="M107.26,123.28c0,5.82,4.77,10.58,10.64,10.58s10.63-4.76,10.63-10.63-4.76-10.63-10.63-10.63-10.63,4.76-10.63,10.63" style="fill: none; stroke: #e20613; stroke-linecap: round; stroke-linejoin: round; stroke-width: .28px;"/>
        <path d="M175.61,123.28c.02,5.82,4.78,10.58,10.65,10.58s10.63-4.76,10.63-10.63-4.76-10.63-10.63-10.63-10.63,4.76-10.63,10.63" style="fill: none; stroke: #e20613; stroke-linecap: round; stroke-linejoin: round; stroke-width: .28px;"/>
        <path d="M107.26,190.78c0,5.82,4.77,10.58,10.64,10.58s10.63-4.76,10.63-10.63-4.76-10.63-10.63-10.63-10.63,4.76-10.63,10.63" style="fill: none; stroke: #e20613; stroke-linecap: round; stroke-linejoin: round; stroke-width: .28px;"/>
        <path d="M175.61,190.78c.02,5.82,4.78,10.58,10.65,10.58s10.63-4.76,10.63-10.63-4.76-10.63-10.63-10.63-10.63,4.76-10.63,10.63" style="fill: none; stroke: #e20613; stroke-linecap: round; stroke-linejoin: round; stroke-width: .28px;"/>
        <path d="M107.26,258.28c0,5.82,4.77,10.58,10.64,10.58s10.63-4.76,10.63-10.63-4.76-10.63-10.63-10.63-10.63,4.76-10.63,10.63" style="fill: none; stroke: #e20613; stroke-linecap: round; stroke-linejoin: round; stroke-width: .28px;"/>
        <path d="M175.61,258.28c.02,5.82,4.78,10.58,10.65,10.58s10.63-4.76,10.63-10.63-4.76-10.63-10.63-10.63-10.63,4.76-10.63,10.63" style="fill: none; stroke: #e20613; stroke-linecap: round; stroke-linejoin: round; stroke-width: .28px;"/>
        <path d="M230.06,49.18c.08,5.03,4.21,9.15,9.29,9.15s9.21-4.12,9.21-9.21-4.12-9.21-9.21-9.21-9.21,4.12-9.21,9.21" style="fill: none; stroke: #e20613; stroke-linecap: round; stroke-linejoin: round; stroke-width: .28px;"/>
        <path d="M230.06,92.82c.08,5.03,4.21,9.15,9.29,9.15s9.21-4.12,9.21-9.21-4.12-9.21-9.21-9.21-9.21,4.12-9.21,9.21" style="fill: none; stroke: #e20613; stroke-linecap: round; stroke-linejoin: round; stroke-width: .28px;"/>
        <path d="M230.42,136.47c0,4.84,4,8.84,8.93,8.84s8.93-4,8.93-8.93-4-8.93-8.93-8.93-8.93,4-8.93,8.93" style="fill: none; stroke: #e20613; stroke-linecap: round; stroke-linejoin: round; stroke-width: .28px;"/>
        <path d="M230.42,179.87c0,4.91,4,8.91,8.93,8.91s8.93-4,8.93-8.93-4-8.93-8.93-8.93-8.93,4-8.93,8.93" style="fill: none; stroke: #e20613; stroke-linecap: round; stroke-linejoin: round; stroke-width: .28px;"/>
        <path d="M230.06,223.51c.08,5.04,4.21,9.16,9.29,9.16s9.21-4.12,9.21-9.21-4.12-9.21-9.21-9.21-9.21,4.12-9.21,9.21" style="fill: none; stroke: #e20613; stroke-linecap: round; stroke-linejoin: round; stroke-width: .28px;"/>
        <path d="M230.06,267.16c.08,5.04,4.21,9.16,9.29,9.16s9.21-4.12,9.21-9.21-4.12-9.21-9.21-9.21-9.21,4.12-9.21,9.21" style="fill: none; stroke: #e20613; stroke-linecap: round; stroke-linejoin: round; stroke-width: .28px;"/>
        <path d="M258.68.43v363.68H.44V.43h258.24M258.96.14H.16v364.25h258.8V.14h0Z" style="fill: #e20613; stroke-width: 0px;"/>
      </g>
    </g>
  </g>
  <g id="components">
    <circle id="Clip_Light_RedLight" data-name="Clip Light#RedLight" cx="152.04" cy="310.32" r="4.96" style="fill: #f0f; stroke-width: 0px;"/>
    <circle id="Out" cx="186.2" cy="310.32" r="11.34" style="fill: blue; stroke-width: 0px;"/>
    <circle id="P2_LP_Out" data-name="P2 LP Out" cx="239.31" cy="267.11" r="11.34" style="fill: blue; stroke-width: 0px;"/>
    <circle id="P2_BP_Out" data-name="P2 BP Out" cx="239.31" cy="223.46" r="11.34" style="fill: blue; stroke-width: 0px;"/>
    <circle id="P2_HP_Out" data-name="P2 HP Out" cx="239.35" cy="179.85" r="11.34" style="fill: blue; stroke-width: 0px;"/>
    <circle id="P1_LP_Out" data-name="P1 LP Out" cx="239.35" cy="136.38" r="11.34" style="fill: blue; stroke-width: 0px;"/>
    <circle id="P1_BP_Out" data-name="P1 BP Out" cx="239.31" cy="92.76" r="11.34" style="fill: blue; stroke-width: 0px;"/>
    <circle id="P1_HP_Out" data-name="P1 HP Out" cx="239.31" cy="49.12" r="11.34" style="fill: blue; stroke-width: 0px;"/>
    <circle id="In" cx="117.84" cy="310.32" r="11.34" style="fill: lime; stroke-width: 0px;"/>
    <circle id="All_Gain_CV" data-name="All Gain CV" cx="58.47" cy="310.32" r="11.34" style="fill: lime; stroke-width: 0px;"/>
    <circle id="All_Freq_CV" data-name="All Freq CV" cx="19.81" cy="310.32" r="11.34" style="fill: lime; stroke-width: 0px;"/>
    <circle id="LS_Gain_CV" data-name="LS Gain CV" cx="58.47" cy="267.11" r="11.34" style="fill: lime; stroke-width: 0px;"/>
    <circle id="LS_Freq_CV" data-name="LS Freq CV" cx="19.81" cy="267.11" r="11.34" style="fill: lime; stroke-width: 0px;"/>
    <circle id="P2_Q_CV" data-name="P2 Q CV" cx="19.81" cy="179.85" r="11.34" style="fill: lime; stroke-width: 0px;"/>
    <circle id="P2_Gain_CV" data-name="P2 Gain CV" cx="58.47" cy="220.35" r="11.34" style="fill: lime; stroke-width: 0px;"/>
    <circle id="P2_Freq_CV" data-name="P2 Freq CV" cx="19.81" cy="220.35" r="11.34" style="fill: lime; stroke-width: 0px;"/>
    <circle id="P1_Q_CV" data-name="P1 Q CV" cx="19.81" cy="136.38" r="11.34" style="fill: lime; stroke-width: 0px;"/>
    <circle id="P1_Gain_CV" data-name="P1 Gain CV" cx="58.47" cy="95.88" r="11.34" style="fill: lime; stroke-width: 0px;"/>
    <circle id="P1_Freq_CV" data-name="P1 Freq CV" cx="19.81" cy="95.88" r="11.34" style="fill: lime; stroke-width: 0px;"/>
    <circle id="HS_Gain_CV" data-name="HS Gain CV" cx="58.47" cy="49.12" r="11.34" style="fill: lime; stroke-width: 0px;"/>
    <circle id="HS_Freq_CV" data-name="HS Freq CV" cx="19.81" cy="49.12" r="11.34" style="fill: lime; stroke-width: 0px;"/>
    <circle id="LS_Gain_WhiteMediumKnob" data-name="LS Gain#WhiteMediumKnob" cx="186.25" cy="258.24" r="17.01" style="fill: #ff0040; stroke-width: 0px;"/>
    <circle id="LS_Freq_WhiteMediumKnob" data-name="LS Freq#WhiteMediumKnob" cx="117.89" cy="258.24" r="17.01" style="fill: #ff0040; stroke-width: 0px;"/>
    <circle id="P2_Q_Trimpot" data-name="P2 Q#Trimpot" cx="58.5" cy="179.85" r="8.5" style="fill: red; stroke-width: 0px;"/>
    <circle id="P2_Gain_BlueMediumKnob" data-name="P2 Gain#BlueMediumKnob" cx="186.25" cy="190.73" r="17.01" style="fill: #ff0040; stroke-width: 0px;"/>
    <circle id="P2_Freq_BlueMediumKnob" data-name="P2 Freq#BlueMediumKnob" cx="117.89" cy="190.73" r="17.01" style="fill: #ff0040; stroke-width: 0px;"/>
    <circle id="P1_Q_Trimpot" data-name="P1 Q#Trimpot" cx="58.5" cy="136.38" r="8.5" style="fill: red; stroke-width: 0px;"/>
    <circle id="P1_Gain_RedMediumKnob" data-name="P1 Gain#RedMediumKnob" cx="186.25" cy="123.23" r="17.01" style="fill: #ff0040; stroke-width: 0px;"/>
    <circle id="P1_Freq_RedMediumKnob" data-name="P1 Freq#RedMediumKnob" cx="117.89" cy="123.23" r="17.01" style="fill: #ff0040; stroke-width: 0px;"/>
    <circle id="HS_Gain_WhiteMediumKnob" data-name="HS Gain#WhiteMediumKnob" cx="186.25" cy="55.72" r="17.01" style="fill: #ff0040; stroke-width: 0px;"/>
    <circle id="HS_Freq_WhiteMediumKnob" data-name="HS Freq#WhiteMediumKnob" cx="117.89" cy="55.72" r="17.01" style="fill: #ff0040; stroke-width: 0px;"/>
    <text id="slug" transform="translate(201.83 369.14)" style="fill: #010101; font-family: MyriadPro-Regular, &apos;Myriad Pro&apos;; font-size: 3px;"><tspan x="0" y="0">Shel</tspan><tspan x="5.35" y="0" style="letter-spacing: -.01em;">v</tspan><tspan x="6.77" y="0">es</tspan></text>
    <text id="modulename" transform="translate(218.63 369.14)" style="fill: #010101; font-family: MyriadPro-Regular, &apos;Myriad Pro&apos;; font-size: 3px;"><tspan x="0" y="0">EQ </tspan><tspan x="4.18" y="0" style="letter-spacing: -.03em;">F</tspan><tspan x="5.56" y="0">il</tspan><tspan x="6.97" y="0" style="letter-spacing: 0em;">t</tspan><tspan x="7.95" y="0">er</tspan></text>
  </g>
</svg>