<?xml version="1.0" encoding="UTF-8"?>
<svg xmlns="http://www.w3.org/2000/svg" width="70.8mm" height="130.44mm" viewBox="0 0 200.69 369.75">
  <g id="faceplate">
    <g id="reference">
      <g id="labels">
        <path d="M51.81,126.84c-.28,0-.5-.22-.5-.5v-.5c0-.28.22-.5.5-.5s.5.22.5.5v.5c0,.28-.22.5-.5.5ZM51.81,124.34c-.28,0-.5-.22-.5-.5v-.5c0-.28.22-.5.5-.5s.5.22.5.5v.5c0,.28-.22.5-.5.5ZM51.81,121.84c-.28,0-.5-.22-.5-.5v-.5c0-.28.22-.5.5-.5s.5.22.5.5v.5c0,.28-.22.5-.5.5ZM51.81,119.34c-.28,0-.5-.22-.5-.5v-.5c0-.28.22-.5.5-.5s.5.22.5.5v.5c0,.28-.22.5-.5.5ZM51.81,116.84c-.28,0-.5-.22-.5-.5v-.5c0-.28.22-.5.5-.5s.5.22.5.5v.5c0,.28-.22.5-.5.5ZM51.81,114.34c-.28,0-.5-.22-.5-.5v-.5c0-.28.22-.5.5-.5s.5.22.5.5v.5c0,.28-.22.5-.5.5ZM51.81,111.84c-.28,0-.5-.22-.5-.5v-.5c0-.28.22-.5.5-.5s.5.22.5.5v.5c0,.28-.22.5-.5.5ZM51.81,109.34c-.28,0-.5-.22-.5-.5v-.5c0-.28.22-.5.5-.5s.5.22.5.5v.5c0,.28-.22.5-.5.5ZM51.81,106.84c-.28,0-.5-.22-.5-.5v-.5c0-.28.22-.5.5-.5s.5.22.5.5v.5c0,.28-.22.5-.5.5ZM51.81,104.34c-.28,0-.5-.22-.5-.5v-.5c0-.28.22-.5.5-.5s.5.22.5.5v.5c0,.28-.22.5-.5.5Z" style="fill: #231f20; stroke-width: 0px;"/>
        <path d="M181.59,126.84c-.28,0-.5-.22-.5-.5v-.5c0-.28.22-.5.5-.5s.5.22.5.5v.5c0,.28-.22.5-.5.5ZM181.59,124.34c-.28,0-.5-.22-.5-.5v-.5c0-.28.22-.5.5-.5s.5.22.5.5v.5c0,.28-.22.5-.5.5ZM181.59,121.84c-.28,0-.5-.22-.5-.5v-.5c0-.28.22-.5.5-.5s.5.22.5.5v.5c0,.28-.22.5-.5.5ZM181.59,119.34c-.28,0-.5-.22-.5-.5v-.5c0-.28.22-.5.5-.5s.5.22.5.5v.5c0,.28-.22.5-.5.5ZM181.59,116.84c-.28,0-.5-.22-.5-.5v-.5c0-.28.22-.5.5-.5s.5.22.5.5v.5c0,.28-.22.5-.5.5ZM181.59,114.34c-.28,0-.5-.22-.5-.5v-.5c0-.28.22-.5.5-.5s.5.22.5.5v.5c0,.28-.22.5-.5.5ZM181.59,111.84c-.28,0-.5-.22-.5-.5v-.5c0-.28.22-.5.5-.5s.5.22.5.5v.5c0,.28-.22.5-.5.5ZM181.59,109.34c-.28,0-.5-.22-.5-.5v-.5c0-.28.22-.5.5-.5s.5.22.5.5v.5c0,.28-.22.5-.5.5ZM181.59,106.84c-.28,0-.5-.22-.5-.5v-.5c0-.28.22-.5.5-.5s.5.22.5.5v.5c0,.28-.22.5-.5.5ZM181.59,104.34c-.28,0-.5-.22-.5-.5v-.5c0-.28.22-.5.5-.5s.5.22.5.5v.5c0,.28-.22.5-.5.5Z" style="fill: #231f20; stroke-width: 0px;"/>
        <path d="M84.24,126.84c-.28,0-.5-.22-.5-.5v-.5c0-.28.22-.5.5-.5s.5.22.5.5v.5c0,.28-.22.5-.5.5ZM84.24,124.34c-.28,0-.5-.22-.5-.5v-.5c0-.28.22-.5.5-.5s.5.22.5.5v.5c0,.28-.22.5-.5.5ZM84.24,121.84c-.28,0-.5-.22-.5-.5v-.5c0-.28.22-.5.5-.5s.5.22.5.5v.5c0,.28-.22.5-.5.5ZM84.24,119.34c-.28,0-.5-.22-.5-.5v-.5c0-.28.22-.5.5-.5s.5.22.5.5v.5c0,.28-.22.5-.5.5ZM84.24,116.84c-.28,0-.5-.22-.5-.5v-.5c0-.28.22-.5.5-.5s.5.22.5.5v.5c0,.28-.22.5-.5.5ZM84.24,114.34c-.28,0-.5-.22-.5-.5v-.5c0-.28.22-.5.5-.5s.5.22.5.5v.5c0,.28-.22.5-.5.5ZM84.24,111.84c-.28,0-.5-.22-.5-.5v-.5c0-.28.22-.5.5-.5s.5.22.5.5v.5c0,.28-.22.5-.5.5ZM84.24,109.34c-.28,0-.5-.22-.5-.5v-.5c0-.28.22-.5.5-.5s.5.22.5.5v.5c0,.28-.22.5-.5.5ZM84.24,106.84c-.28,0-.5-.22-.5-.5v-.5c0-.28.22-.5.5-.5s.5.22.5.5v.5c0,.28-.22.5-.5.5ZM84.24,104.34c-.28,0-.5-.22-.5-.5v-.5c0-.28.22-.5.5-.5s.5.22.5.5v.5c0,.28-.22.5-.5.5Z" style="fill: #231f20; stroke-width: 0px;"/>
        <path d="M19.38,126.84c-.28,0-.5-.22-.5-.5v-.5c0-.28.22-.5.5-.5s.5.22.5.5v.5c0,.28-.22.5-.5.5ZM19.38,124.34c-.28,0-.5-.22-.5-.5v-.5c0-.28.22-.5.5-.5s.5.22.5.5v.5c0,.28-.22.5-.5.5ZM19.38,121.84c-.28,0-.5-.22-.5-.5v-.5c0-.28.22-.5.5-.5s.5.22.5.5v.5c0,.28-.22.5-.5.5ZM19.38,119.34c-.28,0-.5-.22-.5-.5v-.5c0-.28.22-.5.5-.5s.5.22.5.5v.5c0,.28-.22.5-.5.5ZM19.38,116.84c-.28,0-.5-.22-.5-.5v-.5c0-.28.22-.5.5-.5s.5.22.5.5v.5c0,.28-.22.5-.5.5ZM19.38,114.34c-.28,0-.5-.22-.5-.5v-.5c0-.28.22-.5.5-.5s.5.22.5.5v.5c0,.28-.22.5-.5.5ZM19.38,111.84c-.28,0-.5-.22-.5-.5v-.5c0-.28.22-.5.5-.5s.5.22.5.5v.5c0,.28-.22.5-.5.5ZM19.38,109.34c-.28,0-.5-.22-.5-.5v-.5c0-.28.22-.5.5-.5s.5.22.5.5v.5c0,.28-.22.5-.5.5ZM19.38,106.84c-.28,0-.5-.22-.5-.5v-.5c0-.28.22-.5.5-.5s.5.22.5.5v.5c0,.28-.22.5-.5.5ZM19.38,104.34c-.28,0-.5-.22-.5-.5v-.5c0-.28.22-.5.5-.5s.5.22.5.5v.5c0,.28-.22.5-.5.5Z" style="fill: #231f20; stroke-width: 0px;"/>
        <path d="M149.16,126.84c-.28,0-.5-.22-.5-.5v-.5c0-.28.22-.5.5-.5s.5.22.5.5v.5c0,.28-.22.5-.5.5ZM149.16,124.34c-.28,0-.5-.22-.5-.5v-.5c0-.28.22-.5.5-.5s.5.22.5.5v.5c0,.28-.22.5-.5.5ZM149.16,121.84c-.28,0-.5-.22-.5-.5v-.5c0-.28.22-.5.5-.5s.5.22.5.5v.5c0,.28-.22.5-.5.5ZM149.16,119.34c-.28,0-.5-.22-.5-.5v-.5c0-.28.22-.5.5-.5s.5.22.5.5v.5c0,.28-.22.5-.5.5ZM149.16,116.84c-.28,0-.5-.22-.5-.5v-.5c0-.28.22-.5.5-.5s.5.22.5.5v.5c0,.28-.22.5-.5.5ZM149.16,114.34c-.28,0-.5-.22-.5-.5v-.5c0-.28.22-.5.5-.5s.5.22.5.5v.5c0,.28-.22.5-.5.5ZM149.16,111.84c-.28,0-.5-.22-.5-.5v-.5c0-.28.22-.5.5-.5s.5.22.5.5v.5c0,.28-.22.5-.5.5ZM149.16,109.34c-.28,0-.5-.22-.5-.5v-.5c0-.28.22-.5.5-.5s.5.22.5.5v.5c0,.28-.22.5-.5.5ZM149.16,106.84c-.28,0-.5-.22-.5-.5v-.5c0-.28.22-.5.5-.5s.5.22.5.5v.5c0,.28-.22.5-.5.5ZM149.16,104.34c-.28,0-.5-.22-.5-.5v-.5c0-.28.22-.5.5-.5s.5.22.5.5v.5c0,.28-.22.5-.5.5Z" style="fill: #231f20; stroke-width: 0px;"/>
        <path d="M116.73,126.84c-.28,0-.5-.22-.5-.5v-.5c0-.28.22-.5.5-.5s.5.22.5.5v.5c0,.28-.22.5-.5.5ZM116.73,124.34c-.28,0-.5-.22-.5-.5v-.5c0-.28.22-.5.5-.5s.5.22.5.5v.5c0,.28-.22.5-.5.5ZM116.73,121.84c-.28,0-.5-.22-.5-.5v-.5c0-.28.22-.5.5-.5s.5.22.5.5v.5c0,.28-.22.5-.5.5ZM116.73,119.34c-.28,0-.5-.22-.5-.5v-.5c0-.28.22-.5.5-.5s.5.22.5.5v.5c0,.28-.22.5-.5.5ZM116.73,116.84c-.28,0-.5-.22-.5-.5v-.5c0-.28.22-.5.5-.5s.5.22.5.5v.5c0,.28-.22.5-.5.5ZM116.73,114.34c-.28,0-.5-.22-.5-.5v-.5c0-.28.22-.5.5-.5s.5.22.5.5v.5c0,.28-.22.5-.5.5ZM116.73,111.84c-.28,0-.5-.22-.5-.5v-.5c0-.28.22-.5.5-.5s.5.22.5.5v.5c0,.28-.22.5-.5.5ZM116.73,109.34c-.28,0-.5-.22-.5-.5v-.5c0-.28.22-.5.5-.5s.5.22.5.5v.5c0,.28-.22.5-.5.5ZM116.73,106.84c-.28,0-.5-.22-.5-.5v-.5c0-.28.22-.5.5-.5s.5.22.5.5v.5c0,.28-.22.5-.5.5ZM116.73,104.34c-.28,0-.5-.22-.5-.5v-.5c0-.28.22-.5.5-.5s.5.22.5.5v.5c0,.28-.22.5-.5.5Z" style="fill: #231f20; stroke-width: 0px;"/>
        <g>
          <path d="M181.93,267.59h-1v-8.99c0-2.85-2.32-5.17-5.17-5.17h-62.11v-1h62.11c3.4,0,6.17,2.77,6.17,6.17v8.99Z" style="fill: #bcbec0; stroke-width: 0px;"/>
          <path d="M19.77,267.59h-1v-8.99c0-3.4,2.77-6.17,6.17-6.17h64.92v1H24.94c-2.85,0-5.17,2.32-5.17,5.17v8.99Z" style="fill: #bcbec0; stroke-width: 0px;"/>
        </g>
        <g>
          <path d="M96.45,255.72c-.46.47-1,.65-1.61.65s-1.13-.22-1.54-.62c-.58-.58-.56-1.29-.56-2.27s-.02-1.69.56-2.27c.4-.4.9-.62,1.54-.62,1.32,0,1.99.86,2.14,1.82h-1.12c-.13-.54-.46-.83-1.02-.83-.3,0-.55.12-.71.3-.22.24-.27.5-.27,1.6s.06,1.37.27,1.61c.16.18.41.3.71.3.34,0,.61-.12.79-.32.18-.21.26-.46.26-.76v-.22h-1.05v-.93h2.15v.83c0,.82-.14,1.32-.54,1.74Z" style="fill: #231f20; stroke-width: 0px;"/>
          <path d="M101.29,256.32l-.34-1.01h-2.02l-.34,1.01h-1.16l2.07-5.69h.87l2.08,5.69h-1.16ZM99.96,252.3l-.72,2.07h1.41l-.7-2.07Z" style="fill: #231f20; stroke-width: 0px;"/>
          <path d="M104.85,251.62v4.7h-1.11v-4.7h-1.49v-.99h4.08v.99h-1.49Z" style="fill: #231f20; stroke-width: 0px;"/>
          <path d="M107.24,256.32v-5.69h3.75v.99h-2.64v1.33h2.25v.99h-2.25v1.38h2.64v.99h-3.75Z" style="fill: #231f20; stroke-width: 0px;"/>
        </g>
        <g>
          <path d="M182.13,226.35h-1.05v-8.69c0-3-2.44-5.44-5.44-5.44h-38.3v-1.05h38.3c3.58,0,6.49,2.91,6.49,6.49v8.69Z" style="fill: #bcbec0; stroke-width: 0px;"/>
          <path d="M19.59,226.35h-1v-8.99c0-3.4,2.77-6.17,6.17-6.17h38.59v1H24.76c-2.85,0-5.17,2.32-5.17,5.17v8.99Z" style="fill: #bcbec0; stroke-width: 0px;"/>
        </g>
        <g>
          <path d="M77.18,210.38v4.7h-1.11v-4.7h-1.49v-.99h4.08v.99h-1.49Z" style="fill: #231f20; stroke-width: 0px;"/>
          <path d="M79.57,215.08v-5.69h1.11v5.69h-1.11Z" style="fill: #231f20; stroke-width: 0px;"/>
          <path d="M86.06,215.08v-3.32l-1.09,2.16h-.75l-1.09-2.16v3.32h-1.11v-5.69h1.09l1.49,3.08,1.48-3.08h1.09v5.69h-1.11Z" style="fill: #231f20; stroke-width: 0px;"/>
          <path d="M88.5,215.08v-5.69h3.75v.99h-2.64v1.33h2.25v.99h-2.25v1.38h2.64v.99h-3.75Z" style="fill: #231f20; stroke-width: 0px;"/>
          <path d="M93.65,215.67h-.98l2.28-6.88h.98l-2.28,6.88Z" style="fill: #231f20; stroke-width: 0px;"/>
          <path d="M96.56,215.08v-5.69h1.11v4.7h2.58v.99h-3.69Z" style="fill: #231f20; stroke-width: 0px;"/>
          <path d="M101.16,215.08v-5.69h3.75v.99h-2.64v1.33h2.25v.99h-2.25v1.38h2.64v.99h-3.75Z" style="fill: #231f20; stroke-width: 0px;"/>
          <path d="M108.07,215.08h-.83l-1.88-5.69h1.15l1.14,3.71,1.14-3.71h1.16l-1.89,5.69Z" style="fill: #231f20; stroke-width: 0px;"/>
          <path d="M110.65,215.08v-5.69h3.75v.99h-2.64v1.33h2.25v.99h-2.25v1.38h2.64v.99h-3.75Z" style="fill: #231f20; stroke-width: 0px;"/>
          <path d="M115.49,215.08v-5.69h1.11v4.7h2.58v.99h-3.69Z" style="fill: #231f20; stroke-width: 0px;"/>
        </g>
        <path d="M72.65,212.3c0,1.66-1.35,3.01-3.01,3.01s-3.01-1.35-3.01-3.01,1.35-3.01,3.01-3.01,3.01,1.35,3.01,3.01Z" style="fill: #00a2a8; stroke-width: 0px;"/>
        <path d="M128.05,212.3c0,1.66,1.35,3.01,3.01,3.01s3.01-1.35,3.01-3.01-1.35-3.01-3.01-3.01-3.01,1.35-3.01,3.01Z" style="fill: #db4061; stroke-width: 0px;"/>
        <path d="M120.8,212.3c0,1.66,1.35,3.01,3.01,3.01s3.01-1.35,3.01-3.01-1.35-3.01-3.01-3.01-3.01,1.35-3.01,3.01Z" style="fill: #e9a622; stroke-width: 0px;"/>
        <rect x="4.53" y="336.73" width="191.62" height="2" style="fill: #bcbec0; stroke-width: 0px;"/>
        <path d="M100.47,131.33c-2.43,0-4.4,1.97-4.4,4.4s1.97,4.4,4.4,4.4,4.4-1.97,4.4-4.4-1.97-4.4-4.4-4.4ZM103.16,136.11h-5.02v-.75h5.02v.75Z" style="fill: #db4061; stroke-width: 0px;"/>
        <path d="M100.47,109.55c-2.43,0-4.41,1.97-4.41,4.4s1.98,4.4,4.41,4.4,4.4-1.97,4.4-4.4-1.97-4.4-4.4-4.4ZM98.96,115.99l-.53-.53,3.55-3.55.53.53-3.55,3.55Z" style="fill: #00a2a8; stroke-width: 0px;"/>
        <path d="M100.47,120.44c-2.43,0-4.41,1.97-4.41,4.4s1.98,4.4,4.41,4.4,4.4-1.97,4.4-4.4-1.97-4.4-4.4-4.4ZM102.79,124.25h-1.95v2.06h-3.05v-.75h2.3v-2.06h2.7v.75Z" style="fill: #e9a622; stroke-width: 0px;"/>
        <path d="M176.42,67.18h-38.06v-.95h38.06c2.7,0,4.89-2.2,4.89-4.89v-9.29h.95v9.29c0,3.22-2.62,5.84-5.84,5.84Z" style="fill: #bcbec0; stroke-width: 0px;"/>
        <path d="M62.34,67.2H25.14c-3.4,0-6.17-2.77-6.17-6.17v-8.99h1v8.99c0,2.85,2.32,5.17,5.17,5.17h37.2v1Z" style="fill: #bcbec0; stroke-width: 0px;"/>
        <g>
          <path d="M82.82,69.81c-.86,0-1.52-.18-2.08-.75l.72-.72c.36.36.85.48,1.38.48.66,0,1.01-.25,1.01-.7,0-.2-.06-.37-.18-.48-.11-.1-.24-.16-.5-.2l-.69-.1c-.49-.07-.85-.22-1.1-.47-.27-.27-.41-.64-.41-1.12,0-1.02.75-1.73,1.98-1.73.78,0,1.35.19,1.84.66l-.7.7c-.36-.34-.79-.39-1.17-.39-.59,0-.88.33-.88.72,0,.14.05.3.17.41.11.1.3.19.53.22l.67.1c.52.07.85.22,1.09.44.3.29.44.7.44,1.21,0,1.1-.92,1.73-2.11,1.73Z" style="fill: #231f20; stroke-width: 0px;"/>
          <path d="M89.02,69.76v-2.38h-1.93v2.38h-1.11v-5.69h1.11v2.33h1.93v-2.33h1.11v5.69h-1.11Z" style="fill: #231f20; stroke-width: 0px;"/>
          <path d="M94.7,69.76l-.34-1.01h-2.02l-.34,1.01h-1.16l2.07-5.69h.87l2.08,5.69h-1.16ZM93.37,65.75l-.72,2.07h1.41l-.7-2.07Z" style="fill: #231f20; stroke-width: 0px;"/>
          <path d="M98.77,67.62h-1.09v2.14h-1.11v-5.69h2.21c1.18,0,1.88.81,1.88,1.78s-.7,1.78-1.88,1.78ZM98.71,65.06h-1.04v1.56h1.04c.5,0,.82-.31.82-.78s-.32-.78-.82-.78Z" style="fill: #231f20; stroke-width: 0px;"/>
          <path d="M101.59,69.76v-5.69h3.75v.99h-2.64v1.33h2.25v.99h-2.25v1.38h2.64v.99h-3.75Z" style="fill: #231f20; stroke-width: 0px;"/>
          <path d="M106.74,70.35h-.98l2.28-6.88h.98l-2.28,6.88Z" style="fill: #231f20; stroke-width: 0px;"/>
          <path d="M111.82,65.06v4.7h-1.11v-4.7h-1.49v-.99h4.08v.99h-1.49Z" style="fill: #231f20; stroke-width: 0px;"/>
          <path d="M114.22,69.76v-5.69h1.11v5.69h-1.11Z" style="fill: #231f20; stroke-width: 0px;"/>
          <path d="M120.7,69.76v-3.32l-1.09,2.16h-.75l-1.09-2.16v3.32h-1.11v-5.69h1.09l1.49,3.08,1.48-3.08h1.09v5.69h-1.11Z" style="fill: #231f20; stroke-width: 0px;"/>
          <path d="M123.15,69.76v-5.69h3.75v.99h-2.64v1.33h2.25v.99h-2.25v1.38h2.64v.99h-3.75Z" style="fill: #231f20; stroke-width: 0px;"/>
        </g>
        <path d="M71.45,66.7c0,1.66-1.35,3.01-3.01,3.01s-3.01-1.35-3.01-3.01,1.35-3.01,3.01-3.01,3.01,1.35,3.01,3.01Z" style="fill: #00a2a8; stroke-width: 0px;"/>
        <path d="M135.26,66.7c0,1.66-1.35,3.01-3.01,3.01s-3.01-1.35-3.01-3.01,1.35-3.01,3.01-3.01,3.01,1.35,3.01,3.01Z" style="fill: #db4061; stroke-width: 0px;"/>
        <path d="M78.85,66.7c0,1.66-1.35,3.01-3.01,3.01s-3.01-1.35-3.01-3.01,1.35-3.01,3.01-3.01,3.01,1.35,3.01,3.01Z" style="fill: #e9a622; stroke-width: 0px;"/>
        <g>
          <polygon points="19.82 294.5 19.61 294.47 19.44 294.47 19.11 294.47 18.98 294.5 18.94 294.57 18.94 295.21 18.98 295.29 19.08 295.34 19.41 295.34 19.6 295.34 19.85 295.34 19.9 295.31 19.9 295.26 19.9 294.57 19.85 294.53 19.82 294.5" style="fill: #6d6e71; stroke-width: 0px;"/>
          <path d="M117.17,297.86l-.08-.07-.1-.09-.08-.06-.08-.06-.05-.03-.03-.03c-.15.09-.28.19-.37.3-.06.08-.1.18-.11.3v.86s.05.06.08.07h.73c.09,0,.15,0,.18-.02.03-.01.05-.03.07-.06v-.86l-.04-.11c-.02-.05-.06-.1-.12-.15Z" style="fill: #6d6e71; stroke-width: 0px;"/>
          <path d="M193.33,290.06H7.37c-1.56,0-2.83,1.28-2.83,2.84v36.05c0,1.56,1.28,2.84,2.83,2.84h185.96c1.56,0,2.83-1.28,2.83-2.84v-36.05c0-1.56-1.28-2.84-2.83-2.84ZM20.83,299.69h-.94v-3.73h-.49c-.2,0-.38-.02-.55-.07-.17-.04-.32-.12-.47-.23-.15-.11-.26-.22-.33-.35-.07-.13-.1-.26-.1-.4,0-.12.04-.25.1-.37.07-.12.17-.23.31-.34.14-.1.29-.18.47-.23.09-.02.19-.04.27-.06.09-.01.19-.02.3-.02.13,0,.23,0,.28.01.06,0,.16.03.31.08.15.04.28.11.42.21.13.09.23.2.31.32.07.12.11.26.11.4v4.78ZM53.36,296.79c0,.14-.04.28-.13.41-.09.11-.21.21-.38.3-.16.09-.35.16-.56.21-.21.05-.44.08-.69.08l1.11,1.52-.69.46-1.69-2.22.56-.53.87.19h.31c.11-.01.2-.04.27-.06.06-.03.11-.05.14-.08l.07-.14v-2.21c-.02-.05-.04-.08-.06-.1-.04-.04-.09-.07-.15-.1h-.06s-.06-.03-.06-.03h-.05l-.05-.02h-.58c-.08,0-.15.01-.21.04-.06.03-.11.06-.15.09l-.04.14v1.04h-.83v-1.03c0-.12.04-.23.12-.33.08-.1.19-.2.33-.29.15-.09.29-.15.42-.19.14-.03.25-.06.35-.07.09-.02.2-.02.31-.02.21,0,.41.02.59.07.18.05.35.11.5.2.15.09.26.19.34.3.04.05.06.11.09.17.02.06.03.12.03.19v2.06ZM85.78,295.46c0,.11-.02.21-.07.31-.05.1-.13.19-.24.28.1.07.18.14.22.24.04.09.07.2.09.31v.85c0,.11-.03.23-.1.35-.06.1-.17.2-.31.3-.04.02-.09.05-.16.09-.07.04-.17.08-.3.13-.17.04-.35.07-.55.07l.95,1.07-.67.44-1.79-1.96.53-.55.45.37h.84l.1-.03.13-.08s.06-.06.07-.1v-.96l-.07-.1s-.09-.08-.18-.11l-.29-.06-.28-.02h-.62v-.53h.92c.11-.01.2-.04.27-.06.07-.03.12-.06.16-.09.04-.04.06-.08.07-.13v-.99l-.05-.05-.14-.06-.51-.07h-.29l-.22.07c-.07,0-.12.01-.15.04l-.04.08v.8h-.83v-.7c0-.12.04-.23.11-.33.07-.1.18-.2.33-.29.15-.09.29-.15.44-.19.14-.03.26-.06.35-.07.09-.01.2-.02.31-.02.21,0,.41.02.59.07.18.04.35.11.5.2.15.09.26.19.33.31.07.12.11.23.11.34v.85ZM118.39,296.33c0,.07-.02.15-.07.24-.03.06-.08.14-.16.25l-.28.23-.36.21c.22.15.39.32.51.48.04.05.08.12.12.2.04.08.06.17.06.27v.42c0,.15-.02.28-.07.41-.05.12-.12.24-.23.34-.1.1-.22.18-.35.23-.13.05-.26.08-.38.08h-.87c-.12,0-.25-.02-.38-.07-.13-.05-.24-.12-.34-.21-.05-.06-.09-.1-.11-.13-.02-.03-.05-.1-.12-.2-.04-.12-.06-.26-.06-.42v-.42c0-.09,0-.17.03-.23.02-.07.06-.14.12-.23l.21-.24c.08-.09.18-.18.3-.26-.29-.13-.51-.28-.65-.44-.14-.16-.21-.32-.21-.48v-2.45h.87v2.34l.03.14.17.17.25.19.34.2.58-.36.17-.14.07-.12v-2.41h.82v2.43ZM150.92,299.43h-1.05v-1.02l-.22.09-.24.07-.26.05h-.26c-.21,0-.41-.03-.58-.07-.18-.05-.33-.12-.47-.22-.14-.1-.24-.21-.31-.34-.07-.13-.1-.27-.1-.4v-3.41h1.01v3.63s.04.08.05.09l.16.08.16.04h.65l.23-.06c.06-.02.1-.05.13-.08.03-.03.05-.08.06-.14v-3.56h1.05v5.27ZM182.58,299.65l-.39-.8s-.09.1-.17.15l-.23.12-.26.08h-.26c-.23,0-.44-.03-.63-.08-.18-.06-.36-.14-.52-.24-.16-.11-.29-.23-.37-.36-.08-.14-.12-.29-.12-.44v-1.41c0-.1.04-.19.11-.28.07-.09.18-.17.33-.26l-.11-.06-.08-.07-.08-.06-.05-.06-.08-.14-.04-.17v-.8c0-.11.05-.21.14-.3.09-.09.24-.18.43-.27.19-.08.37-.14.54-.17.17-.03.31-.05.43-.07.12-.01.25-.02.39-.02h.38c.07,0,.15,0,.24,0,.09,0,.2.03.33.08.17.04.33.1.47.18.14.08.25.17.33.26.08.1.11.2.11.32v.74h-1.05v-.75s-.02-.08-.06-.13l-.18-.12-.26-.07-.31-.03c-.13,0-.24.01-.34.04-.1.02-.19.06-.28.1-.08.04-.15.09-.19.14-.04.05-.06.11-.06.18v.68s.02.08.07.12l.22.09.15.03c.07,0,.12.01.16.04h.96v.6h-.59l-.38.03c-.11.01-.22.04-.31.07-.09.02-.16.05-.2.09-.04.04-.07.09-.08.14v1.59l.13.12.19.07.24.06h.41l.11-.09.09-.12.08-.18-.31-.82.96-.24.99,2.25-.98.25Z" style="fill: #6d6e71; stroke-width: 0px;"/>
        </g>
        <path d="M100.47,95.17c-2.43,0-4.4,1.97-4.4,4.4s1.97,4.4,4.4,4.4,4.4-1.97,4.4-4.4-1.97-4.4-4.4-4.4ZM100.47,102.34c-1.52,0-2.76-1.24-2.76-2.76,0-.2.16-.35.35-.35s.35.16.35.35c0,1.13.92,2.05,2.06,2.05s2.05-.92,2.05-2.05c0-1.03-.76-1.87-1.74-2.02v.67l-1.84-1.06,1.84-1.06v.74c1.38.16,2.45,1.32,2.45,2.73,0,1.52-1.24,2.76-2.76,2.76Z" style="fill: #231f20; stroke-width: 0px;"/>
      </g>
      <g id="CAD">
        <line x1="189.89" y1="77.32" x2="189.89" y2="77.32" style="fill: none; stroke: #ec1e26; stroke-linecap: round; stroke-linejoin: round; stroke-width: .25px;"/>
        <line x1="58.58" y1="314.91" x2="58.58" y2="314.91" style="fill: none; stroke: #ec1e26; stroke-linecap: round; stroke-linejoin: round; stroke-width: .25px;"/>
        <path d="M16.8,355.73c.03,2.48,2.06,4.51,4.56,4.51s4.54-2.03,4.54-4.54-2.03-4.54-4.54-4.54-4.53,2.03-4.53,4.54" style="fill: none; stroke: #ec1e26; stroke-linecap: round; stroke-linejoin: round; stroke-width: .25px;"/>
        <path d="M16.8,8.52c.03,2.45,2.06,4.48,4.56,4.48s4.54-2.03,4.54-4.54-2.03-4.54-4.54-4.54-4.53,2.03-4.53,4.54" style="fill: none; stroke: #ec1e26; stroke-linecap: round; stroke-linejoin: round; stroke-width: .25px;"/>
        <path d="M175.13,355.73c.07,2.48,2.1,4.51,4.6,4.51s4.54-2.03,4.54-4.54-2.03-4.54-4.54-4.54-4.54,2.03-4.54,4.54" style="fill: none; stroke: #ec1e26; stroke-linecap: round; stroke-linejoin: round; stroke-width: .25px;"/>
        <path d="M175.13,8.52c.07,2.45,2.1,4.48,4.6,4.48s4.54-2.03,4.54-4.54-2.03-4.54-4.54-4.54-4.54,2.03-4.54,4.54" style="fill: none; stroke: #ec1e26; stroke-linecap: round; stroke-linejoin: round; stroke-width: .25px;"/>
        <path d="M200.44.25v363.75H.25V.25h200.19M200.69,0H0v364.25h200.69V0h0Z" style="fill: #ec1e26; stroke-width: 0px;"/>
        <path d="M10.32,314.91c0,4.99,4.06,9.05,9.07,9.05s9.07-4.06,9.07-9.07-4.06-9.07-9.07-9.07-9.07,4.06-9.07,9.07" style="fill: none; stroke: #ec1e26; stroke-linecap: round; stroke-linejoin: round; stroke-width: .25px;"/>
        <path d="M10.32,273.61c0,4.9,4.06,8.96,9.07,8.96s9.07-4.06,9.07-9.07-4.06-9.07-9.07-9.07-9.07,4.06-9.07,9.07" style="fill: none; stroke: #ec1e26; stroke-linecap: round; stroke-linejoin: round; stroke-width: .25px;"/>
        <path d="M10.32,232.19c0,4.94,4.06,9,9.07,9s9.07-4.06,9.07-9.07-4.06-9.07-9.07-9.07-9.07,4.06-9.07,9.07" style="fill: none; stroke: #ec1e26; stroke-linecap: round; stroke-linejoin: round; stroke-width: .25px;"/>
        <path d="M6.48,296.9c.01,2.42,1.98,4.38,4.41,4.38s4.39-1.97,4.39-4.39-1.97-4.39-4.39-4.39-4.39,1.97-4.39,4.39" style="fill: none; stroke: #ec1e26; stroke-linecap: round; stroke-linejoin: round; stroke-width: .25px;"/>
        <path d="M12,99.41c.02,3.98,3.32,7.28,7.39,7.28s7.37-3.3,7.37-7.37-3.3-7.37-7.37-7.37-7.37,3.3-7.37,7.37" style="fill: none; stroke: #ec1e26; stroke-linecap: round; stroke-linejoin: round; stroke-width: .25px;"/>
        <path d="M14.88,80.2c.11,2.41,2.08,4.38,4.51,4.38s4.39-1.97,4.39-4.39-1.97-4.39-4.39-4.39-4.39,1.97-4.39,4.39" style="fill: none; stroke: #ec1e26; stroke-linecap: round; stroke-linejoin: round; stroke-width: .25px;"/>
        <path d="M9.72,48.5c.03,5.26,4.35,9.57,9.67,9.57s9.64-4.31,9.64-9.64-4.31-9.64-9.64-9.64-9.64,4.32-9.64,9.64" style="fill: none; stroke: #ec1e26; stroke-linecap: round; stroke-linejoin: round; stroke-width: .25px;"/>
        <rect x="14.76" y="121.38" width="9.12" height="77.68" style="fill: none; stroke: #ec1e26; stroke-linecap: round; stroke-linejoin: round; stroke-width: .25px;"/>
        <path d="M42.73,314.91c.04,4.99,4.1,9.05,9.11,9.05s9.07-4.06,9.07-9.07-4.06-9.07-9.07-9.07-9.07,4.06-9.07,9.07" style="fill: none; stroke: #ec1e26; stroke-linecap: round; stroke-linejoin: round; stroke-width: .25px;"/>
        <path d="M42.73,273.61c.04,4.9,4.1,8.96,9.11,8.96s9.07-4.06,9.07-9.07-4.06-9.07-9.07-9.07-9.07,4.06-9.07,9.07" style="fill: none; stroke: #ec1e26; stroke-linecap: round; stroke-linejoin: round; stroke-width: .25px;"/>
        <path d="M42.73,232.19c.04,4.94,4.1,9,9.11,9s9.07-4.06,9.07-9.07-4.06-9.07-9.07-9.07-9.07,4.06-9.07,9.07" style="fill: none; stroke: #ec1e26; stroke-linecap: round; stroke-linejoin: round; stroke-width: .25px;"/>
        <path d="M38.89,296.9c.06,2.42,2.02,4.38,4.45,4.38s4.39-1.97,4.39-4.39-1.97-4.39-4.39-4.39-4.39,1.97-4.39,4.39" style="fill: none; stroke: #ec1e26; stroke-linecap: round; stroke-linejoin: round; stroke-width: .25px;"/>
        <path d="M44.41,99.41c.06,3.98,3.36,7.28,7.43,7.28s7.37-3.3,7.37-7.37-3.3-7.37-7.37-7.37-7.37,3.3-7.37,7.37" style="fill: none; stroke: #ec1e26; stroke-linecap: round; stroke-linejoin: round; stroke-width: .25px;"/>
        <path d="M47.41,80.2c.04,2.41,2,4.38,4.43,4.38s4.39-1.97,4.39-4.39-1.97-4.39-4.39-4.39-4.39,1.97-4.39,4.39" style="fill: none; stroke: #ec1e26; stroke-linecap: round; stroke-linejoin: round; stroke-width: .25px;"/>
        <path d="M42.13,48.5c.07,5.26,4.39,9.57,9.71,9.57s9.64-4.31,9.64-9.64-4.31-9.64-9.64-9.64-9.64,4.32-9.64,9.64" style="fill: none; stroke: #ec1e26; stroke-linecap: round; stroke-linejoin: round; stroke-width: .25px;"/>
        <rect x="47.29" y="121.38" width="9" height="77.68" style="fill: none; stroke: #ec1e26; stroke-linecap: round; stroke-linejoin: round; stroke-width: .25px;"/>
        <path d="M75.14,314.91c.08,4.99,4.14,9.05,9.15,9.05s9.07-4.06,9.07-9.07-4.06-9.07-9.07-9.07-9.07,4.06-9.07,9.07" style="fill: none; stroke: #ec1e26; stroke-linecap: round; stroke-linejoin: round; stroke-width: .25px;"/>
        <path d="M75.14,273.61c.08,4.9,4.14,8.96,9.15,8.96s9.07-4.06,9.07-9.07-4.06-9.07-9.07-9.07-9.07,4.06-9.07,9.07" style="fill: none; stroke: #ec1e26; stroke-linecap: round; stroke-linejoin: round; stroke-width: .25px;"/>
        <path d="M75.14,232.19c.08,4.94,4.14,9,9.15,9s9.07-4.06,9.07-9.07-4.06-9.07-9.07-9.07-9.07,4.06-9.07,9.07" style="fill: none; stroke: #ec1e26; stroke-linecap: round; stroke-linejoin: round; stroke-width: .25px;"/>
        <path d="M71.3,296.9c.1,2.42,2.06,4.38,4.49,4.38s4.39-1.97,4.39-4.39-1.97-4.39-4.39-4.39-4.39,1.97-4.39,4.39" style="fill: none; stroke: #ec1e26; stroke-linecap: round; stroke-linejoin: round; stroke-width: .25px;"/>
        <path d="M76.82,99.41c.1,3.98,3.4,7.28,7.47,7.28s7.37-3.3,7.37-7.37-3.3-7.37-7.37-7.37-7.37,3.3-7.37,7.37" style="fill: none; stroke: #ec1e26; stroke-linecap: round; stroke-linejoin: round; stroke-width: .25px;"/>
        <path d="M79.82,80.2c.08,2.41,2.04,4.38,4.47,4.38s4.39-1.97,4.39-4.39-1.97-4.39-4.39-4.39-4.39,1.97-4.39,4.39" style="fill: none; stroke: #ec1e26; stroke-linecap: round; stroke-linejoin: round; stroke-width: .25px;"/>
        <path d="M74.54,48.5c.11,5.26,4.43,9.57,9.75,9.57s9.64-4.31,9.64-9.64-4.31-9.64-9.64-9.64-9.63,4.32-9.63,9.64" style="fill: none; stroke: #ec1e26; stroke-linecap: round; stroke-linejoin: round; stroke-width: .25px;"/>
        <rect x="79.7" y="121.38" width="9.12" height="77.68" style="fill: none; stroke: #ec1e26; stroke-linecap: round; stroke-linejoin: round; stroke-width: .25px;"/>
        <path d="M107.67,314.91c0,4.99,4.06,9.05,9.07,9.05s9.07-4.06,9.07-9.07-4.06-9.07-9.07-9.07-9.07,4.06-9.07,9.07" style="fill: none; stroke: #ec1e26; stroke-linecap: round; stroke-linejoin: round; stroke-width: .25px;"/>
        <path d="M107.67,273.61c0,4.9,4.06,8.96,9.07,8.96s9.07-4.06,9.07-9.07-4.06-9.07-9.07-9.07-9.07,4.06-9.07,9.07" style="fill: none; stroke: #ec1e26; stroke-linecap: round; stroke-linejoin: round; stroke-width: .25px;"/>
        <path d="M107.67,232.19c0,4.94,4.06,9,9.07,9s9.07-4.06,9.07-9.07-4.06-9.07-9.07-9.07-9.07,4.06-9.07,9.07" style="fill: none; stroke: #ec1e26; stroke-linecap: round; stroke-linejoin: round; stroke-width: .25px;"/>
        <path d="M103.83,296.9c.02,2.42,1.98,4.38,4.41,4.38s4.39-1.97,4.39-4.39-1.96-4.39-4.39-4.39-4.39,1.97-4.39,4.39" style="fill: none; stroke: #ec1e26; stroke-linecap: round; stroke-linejoin: round; stroke-width: .25px;"/>
        <path d="M109.35,99.41c.02,3.98,3.32,7.28,7.39,7.28s7.37-3.3,7.37-7.37-3.3-7.37-7.37-7.37-7.37,3.3-7.37,7.37" style="fill: none; stroke: #ec1e26; stroke-linecap: round; stroke-linejoin: round; stroke-width: .25px;"/>
        <path d="M112.23,80.2c.12,2.41,2.08,4.38,4.51,4.38s4.39-1.97,4.39-4.39-1.97-4.39-4.39-4.39-4.39,1.97-4.39,4.39" style="fill: none; stroke: #ec1e26; stroke-linecap: round; stroke-linejoin: round; stroke-width: .25px;"/>
        <path d="M107.07,48.5c.04,5.26,4.35,9.57,9.67,9.57s9.64-4.31,9.64-9.64-4.31-9.64-9.64-9.64-9.63,4.32-9.63,9.64" style="fill: none; stroke: #ec1e26; stroke-linecap: round; stroke-linejoin: round; stroke-width: .25px;"/>
        <rect x="112.11" y="121.38" width="9.12" height="77.68" style="fill: none; stroke: #ec1e26; stroke-linecap: round; stroke-linejoin: round; stroke-width: .25px;"/>
        <path d="M140.08,314.91c.04,4.99,4.1,9.05,9.11,9.05s9.07-4.06,9.07-9.07-4.06-9.07-9.07-9.07-9.07,4.06-9.07,9.07" style="fill: none; stroke: #ec1e26; stroke-linecap: round; stroke-linejoin: round; stroke-width: .25px;"/>
        <path d="M140.08,273.61c.04,4.9,4.1,8.96,9.11,8.96s9.07-4.06,9.07-9.07-4.06-9.07-9.07-9.07-9.07,4.06-9.07,9.07" style="fill: none; stroke: #ec1e26; stroke-linecap: round; stroke-linejoin: round; stroke-width: .25px;"/>
        <path d="M140.08,232.19c.04,4.94,4.1,9,9.11,9s9.07-4.06,9.07-9.07-4.06-9.07-9.07-9.07-9.07,4.06-9.07,9.07" style="fill: none; stroke: #ec1e26; stroke-linecap: round; stroke-linejoin: round; stroke-width: .25px;"/>
        <path d="M136.24,296.9c.06,2.42,2.02,4.38,4.45,4.38s4.39-1.97,4.39-4.39-1.96-4.39-4.39-4.39-4.39,1.97-4.39,4.39" style="fill: none; stroke: #ec1e26; stroke-linecap: round; stroke-linejoin: round; stroke-width: .25px;"/>
        <path d="M141.76,99.41c.06,3.98,3.36,7.28,7.43,7.28s7.37-3.3,7.37-7.37-3.3-7.37-7.37-7.37-7.37,3.3-7.37,7.37" style="fill: none; stroke: #ec1e26; stroke-linecap: round; stroke-linejoin: round; stroke-width: .25px;"/>
        <path d="M144.76,80.2c.04,2.41,2,4.38,4.43,4.38s4.39-1.97,4.39-4.39-1.97-4.39-4.39-4.39-4.39,1.97-4.39,4.39" style="fill: none; stroke: #ec1e26; stroke-linecap: round; stroke-linejoin: round; stroke-width: .25px;"/>
        <path d="M139.48,48.5c.08,5.26,4.39,9.57,9.71,9.57s9.64-4.31,9.64-9.64-4.31-9.64-9.64-9.64-9.63,4.32-9.63,9.64" style="fill: none; stroke: #ec1e26; stroke-linecap: round; stroke-linejoin: round; stroke-width: .25px;"/>
        <rect x="144.64" y="121.38" width="9" height="77.68" style="fill: none; stroke: #ec1e26; stroke-linecap: round; stroke-linejoin: round; stroke-width: .25px;"/>
        <path d="M172.49,314.91c.08,4.99,4.14,9.05,9.15,9.05s9.07-4.06,9.07-9.07-4.06-9.07-9.07-9.07-9.07,4.06-9.07,9.07" style="fill: none; stroke: #ec1e26; stroke-linecap: round; stroke-linejoin: round; stroke-width: .25px;"/>
        <path d="M172.49,273.61c.08,4.9,4.14,8.96,9.15,8.96s9.07-4.06,9.07-9.07-4.06-9.07-9.07-9.07-9.07,4.06-9.07,9.07" style="fill: none; stroke: #ec1e26; stroke-linecap: round; stroke-linejoin: round; stroke-width: .25px;"/>
        <path d="M172.49,232.19c.08,4.94,4.14,9,9.15,9s9.07-4.06,9.07-9.07-4.06-9.07-9.07-9.07-9.07,4.06-9.07,9.07" style="fill: none; stroke: #ec1e26; stroke-linecap: round; stroke-linejoin: round; stroke-width: .25px;"/>
        <path d="M168.64,296.9c.1,2.42,2.06,4.38,4.49,4.38s4.39-1.97,4.39-4.39-1.97-4.39-4.39-4.39-4.39,1.97-4.39,4.39" style="fill: none; stroke: #ec1e26; stroke-linecap: round; stroke-linejoin: round; stroke-width: .25px;"/>
        <path d="M174.17,99.41c.1,3.98,3.4,7.28,7.47,7.28s7.37-3.3,7.37-7.37-3.3-7.37-7.37-7.37-7.37,3.3-7.37,7.37" style="fill: none; stroke: #ec1e26; stroke-linecap: round; stroke-linejoin: round; stroke-width: .25px;"/>
        <path d="M177.17,80.2c.08,2.41,2.04,4.38,4.47,4.38s4.39-1.97,4.39-4.39-1.96-4.39-4.39-4.39-4.39,1.97-4.39,4.39" style="fill: none; stroke: #ec1e26; stroke-linecap: round; stroke-linejoin: round; stroke-width: .25px;"/>
        <path d="M171.88,48.5c.12,5.26,4.43,9.57,9.75,9.57s9.64-4.31,9.64-9.64-4.31-9.64-9.64-9.64-9.63,4.32-9.63,9.64" style="fill: none; stroke: #ec1e26; stroke-linecap: round; stroke-linejoin: round; stroke-width: .25px;"/>
        <rect x="177.05" y="121.38" width="9.12" height="77.68" style="fill: none; stroke: #ec1e26; stroke-linecap: round; stroke-linejoin: round; stroke-width: .25px;"/>
        <path d="M63.38,80.2c.08,2.49,2.11,4.52,4.62,4.52s4.54-2.03,4.54-4.54-2.03-4.54-4.54-4.54-4.53,2.03-4.53,4.54" style="fill: none; stroke: #ec1e26; stroke-linecap: round; stroke-linejoin: round; stroke-width: .25px;"/>
        <path d="M128.31,80.2c.04,2.49,2.07,4.52,4.58,4.52s4.54-2.03,4.54-4.54-2.03-4.54-4.54-4.54-4.53,2.03-4.53,4.54" style="fill: none; stroke: #ec1e26; stroke-linecap: round; stroke-linejoin: round; stroke-width: .25px;"/>
      </g>
    </g>
    <g id="icons">
      <g>
        <ellipse cx="19.39" cy="330.68" rx="2.48" ry="2.17" style="fill: none; stroke: #fff; stroke-linejoin: round; stroke-width: 1.5px;"/>
        <line x1="21.87" y1="338.43" x2="21.87" y2="331.1" style="fill: none; stroke: #fff; stroke-linejoin: round; stroke-width: 1.5px;"/>
      </g>
      <path d="M49.34,331.1c0-1.43,1.11-2.59,2.48-2.59s2.48,1.16,2.48,2.59-1.11,2.59-2.48,2.59h-1.57l1.57,4.74" style="fill: none; stroke: #fff; stroke-linejoin: round; stroke-width: 1.5px;"/>
      <g>
        <path d="M81.77,330.81c0-1.08,1.11-1.95,2.48-1.95s2.48.87,2.48,1.95-1.11,1.95-2.48,1.95h-1.57" style="fill: none; stroke: #fff; stroke-linejoin: round; stroke-width: 1.5px;"/>
        <path d="M82.68,332.76h1.57c1.37,0,2.48.87,2.48,1.95s-1.11,1.95-2.48,1.95h-1.57l2.03,2.11" style="fill: none; stroke: #fff; stroke-linejoin: round; stroke-width: 1.5px;"/>
      </g>
      <g>
        <ellipse cx="116.74" cy="336.55" rx="2.38" ry="1.88" style="fill: none; stroke: #fff; stroke-linejoin: round; stroke-width: 1.5px;"/>
        <path d="M114.36,328.51s-.85,6.16,2.38,6.16,2.38-6.16,2.38-6.16" style="fill: none; stroke: #fff; stroke-linejoin: round; stroke-width: 1.5px;"/>
      </g>
      <g>
        <line x1="151.76" y1="338.73" x2="151.76" y2="330.26" style="fill: none; stroke: #fff; stroke-linejoin: round; stroke-width: 1.5px;"/>
        <path d="M146.9,328.22s-1.6,6.86,2.38,6.86c3.22,0,2.38-6.86,2.38-6.86" style="fill: none; stroke: #fff; stroke-linejoin: round; stroke-width: 1.5px;"/>
      </g>
      <g>
        <g>
          <path d="M184.19,330.46c0-1.08-1.11-1.95-2.48-1.95s-2.48.87-2.48,1.95,1.11,1.95,2.48,1.95h1.57" style="fill: none; stroke: #fff; stroke-linejoin: round; stroke-width: 1.5px;"/>
          <path d="M183.29,332.42h-1.57c-1.37,0-2.48.87-2.48,1.95s1.11,1.95,2.48,1.95h3.05s.91,2.11.91,2.11" style="fill: none; stroke: #fff; stroke-linejoin: round; stroke-width: 1.5px;"/>
        </g>
        <line x1="183.9" y1="334.39" x2="184.81" y2="336.46" style="fill: none; stroke: #fff; stroke-linejoin: round; stroke-width: 1.5px;"/>
      </g>
    </g>
  </g>
  <g id="components">
    <circle id="Ch6_Light_GreenLight" data-name="Ch6 Light#GreenLight" cx="173.09" cy="296.89" r="4.96" style="fill: #f0f; stroke-width: 0px;"/>
    <circle id="Ch5_Light_GreenLight" data-name="Ch5 Light#GreenLight" cx="140.66" cy="296.89" r="4.96" style="fill: #f0f; stroke-width: 0px;"/>
    <circle id="Ch4_Light_GreenLight" data-name="Ch4 Light#GreenLight" cx="108.23" cy="296.89" r="4.96" style="fill: #f0f; stroke-width: 0px;"/>
    <circle id="Ch3_Light_GreenLight" data-name="Ch3 Light#GreenLight" cx="75.74" cy="296.89" r="4.96" style="fill: #f0f; stroke-width: 0px;"/>
    <circle id="Ch2_Light_GreenLight" data-name="Ch2 Light#GreenLight" cx="43.31" cy="296.89" r="4.96" style="fill: #f0f; stroke-width: 0px;"/>
    <circle id="Ch1_Light_GreenLight" data-name="Ch1 Light#GreenLight" cx="10.88" cy="296.89" r="4.96" style="fill: #f0f; stroke-width: 0px;"/>
    <circle id="Ch6_Type_Light_GreenRedLight" data-name="Ch6 Type Light#GreenRedLight" cx="181.6" cy="80.19" r="4.96" style="fill: #f0f; stroke-width: 0px;"/>
    <circle id="Ch5_Type_Light_GreenRedLight" data-name="Ch5 Type Light#GreenRedLight" cx="149.17" cy="80.19" r="4.96" style="fill: #f0f; stroke-width: 0px;"/>
    <circle id="Ch4_Type_Light_GreenRedLight" data-name="Ch4 Type Light#GreenRedLight" cx="116.68" cy="80.19" r="4.96" style="fill: #f0f; stroke-width: 0px;"/>
    <circle id="Ch3_Type_Light_GreenRedLight" data-name="Ch3 Type Light#GreenRedLight" cx="84.25" cy="80.19" r="4.96" style="fill: #f0f; stroke-width: 0px;"/>
    <circle id="Ch2_Type_Light_GreenRedLight" data-name="Ch2 Type Light#GreenRedLight" cx="51.82" cy="80.19" r="4.96" style="fill: #f0f; stroke-width: 0px;"/>
    <circle id="Ch1_Type_Light_GreenRedLight" data-name="Ch1 Type Light#GreenRedLight" cx="19.33" cy="80.26" r="4.96" style="fill: #f0f; stroke-width: 0px;"/>
    <circle id="Ch6_Out" data-name="Ch6 Out" cx="181.6" cy="314.89" r="11.34" style="fill: blue; stroke-width: 0px;"/>
    <circle id="Ch5_Out" data-name="Ch5 Out" cx="149.17" cy="314.89" r="11.34" style="fill: blue; stroke-width: 0px;"/>
    <circle id="Ch4_Out" data-name="Ch4 Out" cx="116.74" cy="314.89" r="11.34" style="fill: blue; stroke-width: 0px;"/>
    <circle id="Ch3_Out" data-name="Ch3 Out" cx="84.25" cy="314.89" r="11.34" style="fill: blue; stroke-width: 0px;"/>
    <circle id="Ch2_Out" data-name="Ch2 Out" cx="51.82" cy="314.89" r="11.34" style="fill: blue; stroke-width: 0px;"/>
    <circle id="Ch1_Out" data-name="Ch1 Out" cx="19.39" cy="314.89" r="11.34" style="fill: blue; stroke-width: 0px;"/>
    <circle id="Ch6_Gate_In" data-name="Ch6 Gate In" cx="181.6" cy="273.5" r="11.34" style="fill: #80ff80; stroke-width: 0px;"/>
    <circle id="Ch5_Gate_In" data-name="Ch5 Gate In" cx="149.17" cy="273.5" r="11.34" style="fill: #80ff80; stroke-width: 0px;"/>
    <circle id="Ch4_Gate_In" data-name="Ch4 Gate In" cx="116.74" cy="273.5" r="11.34" style="fill: #80ff80; stroke-width: 0px;"/>
    <circle id="Ch3_Gate_In" data-name="Ch3 Gate In" cx="84.25" cy="273.5" r="11.34" style="fill: #80ff80; stroke-width: 0px;"/>
    <circle id="Ch2_Gate_In" data-name="Ch2 Gate In" cx="51.82" cy="273.5" r="11.34" style="fill: #80ff80; stroke-width: 0px;"/>
    <circle id="Ch1_Gate_In" data-name="Ch1 Gate In" cx="19.39" cy="273.5" r="11.34" style="fill: #80ff80; stroke-width: 0px;"/>
    <circle id="Ch6_Level_CV" data-name="Ch6 Level CV" cx="181.6" cy="232.12" r="11.34" style="fill: lime; stroke-width: 0px;"/>
    <circle id="Ch5_Level_CV" data-name="Ch5 Level CV" cx="149.17" cy="232.12" r="11.34" style="fill: lime; stroke-width: 0px;"/>
    <circle id="Ch4_Level_CV" data-name="Ch4 Level CV" cx="116.74" cy="232.12" r="11.34" style="fill: lime; stroke-width: 0px;"/>
    <circle id="Ch3_Level_CV" data-name="Ch3 Level CV" cx="84.25" cy="232.12" r="11.34" style="fill: lime; stroke-width: 0px;"/>
    <circle id="Ch2_Level_CV" data-name="Ch2 Level CV" cx="51.82" cy="232.12" r="11.34" style="fill: lime; stroke-width: 0px;"/>
    <circle id="Ch1_Level_CV" data-name="Ch1 Level CV" cx="19.39" cy="232.12" r="11.34" style="fill: lime; stroke-width: 0px;"/>
    <rect id="Ch6_Level_Slider_GreenHandleSlider" data-name="Ch6 Level Slider#GreenHandleSlider" x="178.77" y="121.95" width="5.67" height="76.54" style="fill: #ff0040; stroke-width: 0px;"/>
    <rect id="Ch5_Level_Slider_GreenHandleSlider" data-name="Ch5 Level Slider#GreenHandleSlider" x="146.3" y="121.95" width="5.67" height="76.54" style="fill: #ff0040; stroke-width: 0px;"/>
    <rect id="Ch4_Level_Slider_GreenHandleSlider" data-name="Ch4 Level Slider#GreenHandleSlider" x="113.84" y="121.95" width="5.67" height="76.54" style="fill: #ff0040; stroke-width: 0px;"/>
    <rect id="Ch3_Level_Slider_GreenHandleSlider" data-name="Ch3 Level Slider#GreenHandleSlider" x="81.43" y="121.95" width="5.67" height="76.54" style="fill: #ff0040; stroke-width: 0px;"/>
    <rect id="Ch2_Level_Slider_GreenHandleSlider" data-name="Ch2 Level Slider#GreenHandleSlider" x="48.96" y="121.95" width="5.67" height="76.54" style="fill: #ff0040; stroke-width: 0px;"/>
    <rect id="Ch1_Level_Slider_GreenHandleSlider" data-name="Ch1 Level Slider#GreenHandleSlider" x="16.49" y="121.95" width="5.67" height="76.54" style="fill: #ff0040; stroke-width: 0px;"/>
    <circle id="Ch6_Type_SmallButton" data-name="Ch6 Type#SmallButton" cx="181.59" cy="99.32" r="10.63" style="fill: #ff8000; stroke-width: 0px;"/>
    <circle id="Ch5_Type_SmallButton" data-name="Ch5 Type#SmallButton" cx="149.16" cy="99.32" r="10.63" style="fill: #ff8000; stroke-width: 0px;"/>
    <circle id="Ch4_Type_SmallButton" data-name="Ch4 Type#SmallButton" cx="116.73" cy="99.32" r="10.63" style="fill: #ff8000; stroke-width: 0px;"/>
    <circle id="Ch3_Type_SmallButton" data-name="Ch3 Type#SmallButton" cx="84.24" cy="99.32" r="10.63" style="fill: #ff8000; stroke-width: 0px;"/>
    <circle id="Ch2_Type_SmallButton" data-name="Ch2 Type#SmallButton" cx="51.81" cy="99.32" r="10.63" style="fill: #ff8000; stroke-width: 0px;"/>
    <circle id="Ch1_Type_SmallButton" data-name="Ch1 Type#SmallButton" cx="19.38" cy="99.32" r="10.63" style="fill: #ff8000; stroke-width: 0px;"/>
    <circle id="Ch6_Shape_Trimpot" data-name="Ch6 Shape#Trimpot" cx="181.58" cy="48.44" r="8.5" style="fill: red; stroke-width: 0px;"/>
    <circle id="Ch5_Shape_Trimpot" data-name="Ch5 Shape#Trimpot" cx="149.15" cy="48.44" r="8.5" style="fill: red; stroke-width: 0px;"/>
    <circle id="Ch4_Shape_Trimpot" data-name="Ch4 Shape#Trimpot" cx="116.72" cy="48.44" r="8.5" style="fill: red; stroke-width: 0px;"/>
    <circle id="Ch3_Shape_Trimpot" data-name="Ch3 Shape#Trimpot" cx="84.23" cy="48.44" r="8.5" style="fill: red; stroke-width: 0px;"/>
    <circle id="Ch2_Shape_Trimpot" data-name="Ch2 Shape#Trimpot" cx="51.8" cy="48.44" r="8.5" style="fill: red; stroke-width: 0px;"/>
    <circle id="Ch1_Shape_Trimpot" data-name="Ch1 Shape#Trimpot" cx="19.38" cy="48.44" r="8.5" style="fill: red; stroke-width: 0px;"/>
    <text id="slug" transform="translate(122.02 369)" style="fill: #010101; font-family: MyriadPro-Regular, &apos;Myriad Pro&apos;; font-size: 3px;"><tspan x="0" y="0" style="letter-spacing: 0em;">S</tspan><tspan x="1.47" y="0">tages</tspan></text>
    <text id="modulename" transform="translate(138.83 369)" style="fill: #010101; font-family: MyriadPro-Regular, &apos;Myriad Pro&apos;; font-size: 3px;"><tspan x="0" y="0" style="letter-spacing: 0em;">S</tspan><tspan x="1.5" y="0">e</tspan><tspan x="3" y="0" style="letter-spacing: 0em;">g</tspan><tspan x="4.66" y="0">me</tspan><tspan x="8.66" y="0" style="letter-spacing: 0em;">n</tspan><tspan x="10.32" y="0" style="letter-spacing: 0em;">t </tspan><tspan x="11.95" y="0" style="letter-spacing: 0em;">G</tspan><tspan x="13.9" y="0">ene</tspan><tspan x="18.57" y="0" style="letter-spacing: 0em;">rat</tspan><tspan x="21.94" y="0">or</tspan></text>
  </g>
</svg>