<?xml version="1.0" encoding="UTF-8"?>
<svg xmlns="http://www.w3.org/2000/svg" width="60.85mm" height="130.44mm" viewBox="0 0 172.49 369.75">
  <g id="faceplate">
    <g id="reference">
      <g id="graphics">
        <rect x="9.56" y="241.87" width="153.26" height="2" style="fill: #b4b4b4; stroke-width: 0px;"/>
        <path d="M99.37,133.47h-.29c-.28,0-.5-.22-.5-.5s.22-.5.5-.5h.29c.06,0,.11,0,.17,0,.26-.02.52.18.54.46.02.28-.18.52-.46.54-.08,0-.16,0-.25,0ZM97.08,133.47h-.5c-.28,0-.5-.22-.5-.5s.22-.5.5-.5h.5c.28,0,.5.22.5.5s-.22.5-.5.5ZM94.58,133.47h-.5c-.28,0-.5-.22-.5-.5s.22-.5.5-.5h.5c.28,0,.5.22.5.5s-.22.5-.5.5ZM92.08,133.47h-.5c-.28,0-.5-.22-.5-.5s.22-.5.5-.5h.5c.28,0,.5.22.5.5s-.22.5-.5.5ZM89.58,133.47h-.5c-.28,0-.5-.22-.5-.5s.22-.5.5-.5h.5c.28,0,.5.22.5.5s-.22.5-.5.5ZM87.08,133.47h-.5c-.28,0-.5-.22-.5-.5s.22-.5.5-.5h.5c.28,0,.5.22.5.5s-.22.5-.5.5ZM84.58,133.47h-.5c-.28,0-.5-.22-.5-.5s.22-.5.5-.5h.5c.28,0,.5.22.5.5s-.22.5-.5.5ZM82.08,133.47h-.5c-.28,0-.5-.22-.5-.5s.22-.5.5-.5h.5c.28,0,.5.22.5.5s-.22.5-.5.5ZM79.58,133.47h-.5c-.28,0-.5-.22-.5-.5s.22-.5.5-.5h.5c.28,0,.5.22.5.5s-.22.5-.5.5ZM77.08,133.47h-.5c-.28,0-.5-.22-.5-.5s.22-.5.5-.5h.5c.28,0,.5.22.5.5s-.22.5-.5.5ZM74.58,133.47h-.5c-.28,0-.5-.22-.5-.5s.22-.5.5-.5h.5c.28,0,.5.22.5.5s-.22.5-.5.5ZM72.11,133.28c-.06,0-.12-.01-.18-.03-.18-.07-.36-.16-.53-.26-.24-.14-.31-.45-.17-.69.14-.24.45-.31.69-.17.12.07.24.13.37.18.26.1.39.39.29.65-.08.2-.27.32-.47.32ZM101.36,132.65c-.13,0-.26-.05-.36-.15-.19-.2-.19-.51,0-.71.1-.1.19-.2.27-.32.16-.23.47-.28.7-.12.22.16.28.47.12.7-.11.16-.24.31-.38.45-.1.1-.23.14-.35.14ZM70.43,131.54c-.21,0-.4-.13-.47-.34-.06-.18-.11-.37-.14-.57-.04-.27.15-.53.42-.57.27-.04.53.15.57.42.02.14.05.27.1.4.09.26-.05.54-.31.63-.05.02-.11.03-.16.03ZM102.21,130.38c-.28,0-.5-.22-.5-.5v-.5c0-.28.22-.5.5-.5s.5.22.5.5v.5c0,.28-.22.5-.5.5ZM70.28,129.06c-.28,0-.5-.22-.5-.5v-.5c0-.28.22-.5.5-.5s.5.22.5.5v.5c0,.28-.22.5-.5.5ZM102.21,127.88c-.28,0-.5-.22-.5-.5v-.5c0-.28.22-.5.5-.5s.5.22.5.5v.5c0,.28-.22.5-.5.5ZM70.28,126.56c-.28,0-.5-.22-.5-.5v-.5c0-.28.22-.5.5-.5s.5.22.5.5v.5c0,.28-.22.5-.5.5ZM102.21,125.38c-.28,0-.5-.22-.5-.5v-.5c0-.28.22-.5.5-.5s.5.22.5.5v.5c0,.28-.22.5-.5.5ZM70.28,124.06c-.28,0-.5-.22-.5-.5v-.5c0-.28.22-.5.5-.5s.5.22.5.5v.5c0,.28-.22.5-.5.5ZM102.21,122.88c-.28,0-.5-.22-.5-.5v-.5c0-.28.22-.5.5-.5s.5.22.5.5v.5c0,.28-.22.5-.5.5ZM70.28,121.56c-.28,0-.5-.22-.5-.5v-.5c0-.28.22-.5.5-.5s.5.22.5.5v.5c0,.28-.22.5-.5.5ZM102.21,120.38c-.28,0-.5-.22-.5-.5v-.5c0-.28.22-.5.5-.5s.5.22.5.5v.5c0,.28-.22.5-.5.5ZM70.28,119.06c-.28,0-.5-.22-.5-.5v-.5c0-.28.22-.5.5-.5s.5.22.5.5v.5c0,.28-.22.5-.5.5Z" style="fill: #1d1d1b; stroke-width: 0px;"/>
        <rect x="9.56" y="337.43" width="153.26" height="2" style="fill: #c6c6c5; stroke-width: 0px;"/>
        <g>
          <path d="M11.58,257.55v-5.69h3.75v.99h-2.64v1.33h2.25v.99h-2.25v1.38h2.64v.99h-3.75Z" style="fill: #1d1d1b; stroke-width: 0px;"/>
          <path d="M19.26,257.55l-1.1-1.98-1.1,1.98h-1.27l1.77-2.92-1.65-2.78h1.26l.99,1.84,1-1.84h1.26l-1.66,2.78,1.78,2.92h-1.27Z" style="fill: #1d1d1b; stroke-width: 0px;"/>
          <path d="M23.06,257.6c-.61,0-1.12-.21-1.54-.62-.25-.25-.4-.54-.46-.86-.06-.32-.1-.79-.1-1.42s.03-1.09.1-1.41c.06-.33.21-.61.46-.86.42-.42.93-.62,1.54-.62,1.1,0,1.9.64,2.1,1.8h-1.13c-.12-.49-.42-.81-.96-.81-.3,0-.54.1-.71.3-.23.25-.28.5-.28,1.61s.05,1.36.28,1.61c.17.2.41.3.71.3.54,0,.84-.32.96-.81h1.13c-.19,1.16-1.01,1.8-2.1,1.8Z" style="fill: #1d1d1b; stroke-width: 0px;"/>
          <path d="M26.12,257.55v-5.69h1.11v5.69h-1.11Z" style="fill: #1d1d1b; stroke-width: 0px;"/>
          <path d="M30.74,252.85v4.7h-1.11v-4.7h-1.49v-.99h4.09v.99h-1.49Z" style="fill: #1d1d1b; stroke-width: 0px;"/>
          <path d="M33.13,257.55v-5.69h3.75v.99h-2.64v1.33h2.25v.99h-2.25v1.38h2.64v.99h-3.75Z" style="fill: #1d1d1b; stroke-width: 0px;"/>
        </g>
        <g>
          <path d="M62.12,257.55v-5.69h1.11v5.69h-1.11Z" style="fill: #1d1d1b; stroke-width: 0px;"/>
          <path d="M67.93,257.55l-2.25-3.49v3.49h-1.11v-5.69h.99l2.25,3.49v-3.49h1.11v5.69h-.99Z" style="fill: #1d1d1b; stroke-width: 0px;"/>
        </g>
        <g>
          <path d="M103.54,257.55v-5.69h1.11v5.69h-1.11Z" style="fill: #1d1d1b; stroke-width: 0px;"/>
          <path d="M109.34,257.55l-2.25-3.49v3.49h-1.11v-5.69h.99l2.25,3.49v-3.49h1.11v5.69h-.99Z" style="fill: #1d1d1b; stroke-width: 0px;"/>
        </g>
        <g>
          <path d="M135.82,257.55v-5.69h3.75v.99h-2.64v1.33h2.25v.99h-2.25v1.38h2.64v.99h-3.75Z" style="fill: #1d1d1b; stroke-width: 0px;"/>
          <path d="M143.5,257.55l-1.1-1.98-1.1,1.98h-1.27l1.77-2.92-1.65-2.78h1.26l.99,1.84,1-1.84h1.26l-1.66,2.78,1.78,2.92h-1.27Z" style="fill: #1d1d1b; stroke-width: 0px;"/>
          <path d="M147.31,257.6c-.61,0-1.12-.21-1.54-.62-.25-.25-.4-.54-.46-.86-.06-.32-.1-.79-.1-1.42s.03-1.09.1-1.41c.06-.33.21-.61.46-.86.42-.42.93-.62,1.54-.62,1.1,0,1.9.64,2.1,1.8h-1.13c-.12-.49-.42-.81-.96-.81-.3,0-.54.1-.71.3-.23.25-.28.5-.28,1.61s.05,1.36.28,1.61c.17.2.41.3.71.3.54,0,.84-.32.96-.81h1.13c-.19,1.16-1.01,1.8-2.1,1.8Z" style="fill: #1d1d1b; stroke-width: 0px;"/>
          <path d="M150.36,257.55v-5.69h1.11v5.69h-1.11Z" style="fill: #1d1d1b; stroke-width: 0px;"/>
          <path d="M154.98,252.85v4.7h-1.11v-4.7h-1.49v-.99h4.09v.99h-1.49Z" style="fill: #1d1d1b; stroke-width: 0px;"/>
          <path d="M157.37,257.55v-5.69h3.75v.99h-2.64v1.33h2.25v.99h-2.25v1.38h2.64v.99h-3.75Z" style="fill: #1d1d1b; stroke-width: 0px;"/>
        </g>
        <path d="M35.45,290.01H12.77c-1.56,0-2.83,1.28-2.83,2.83v5.67c0,1.56,1.28,2.83,2.83,2.83h22.68c1.56,0,2.83-1.28,2.83-2.83v-5.67c0-1.56-1.28-2.83-2.83-2.83ZM16.7,298.53h-3.69v-5.69h1.11v4.7h2.58v.99ZM21.36,293.83h-2.64v1.33h2.25v.99h-2.25v1.38h2.64v.99h-3.75v-5.69h3.75v.99ZM24.52,298.53h-.83l-1.88-5.69h1.15l1.14,3.71,1.14-3.71h1.16l-1.89,5.69ZM30.85,293.83h-2.64v1.33h2.25v.99h-2.25v1.38h2.64v.99h-3.75v-5.69h3.75v.99ZM35.63,298.53h-3.69v-5.69h1.11v4.7h2.58v.99Z" style="fill: #d83559; stroke-width: 0px;"/>
        <g>
          <path d="M60.57,294.3c-.3,0-.56.12-.72.3-.22.24-.27.5-.27,1.6s.06,1.36.27,1.6c.16.18.41.3.72.3s.55-.12.71-.3c.22-.24.28-.5.28-1.6s-.06-1.36-.28-1.6c-.16-.18-.41-.3-.71-.3Z" style="fill: #6f6f6e; stroke-width: 0px;"/>
          <path d="M76.86,290.01h-22.68c-1.56,0-2.83,1.28-2.83,2.83v35.29c0,1.56,1.28,2.83,2.83,2.83h22.68c1.56,0,2.83-1.28,2.83-2.83v-35.29c0-1.56-1.28-2.83-2.83-2.83ZM62.1,298.47c-.4.4-.89.62-1.54.62s-1.14-.22-1.54-.62c-.58-.58-.56-1.29-.56-2.27s-.02-1.69.56-2.27c.4-.4.9-.62,1.54-.62s1.14.22,1.54.62c.58.58.57,1.29.57,2.27s0,1.7-.57,2.27ZM67.91,297.09c0,1.21-.93,2-2.09,2s-2.09-.79-2.09-2v-3.74h1.11v3.7c0,.66.38,1.05.98,1.05s.99-.39.99-1.05v-3.7h1.1v3.74ZM72.81,294.34h-1.49v4.7h-1.11v-4.7h-1.49v-.99h4.09v.99Z" style="fill: #6f6f6e; stroke-width: 0px;"/>
        </g>
        <g>
          <path d="M118.28,290.01h-22.68c-1.56,0-2.83,1.28-2.83,2.83v35.29c0,1.56,1.28,2.83,2.83,2.83h22.68c1.56,0,2.83-1.28,2.83-2.83v-35.29c0-1.56-1.28-2.83-2.83-2.83ZM103.52,298.47c-.4.4-.89.62-1.54.62s-1.14-.22-1.54-.62c-.58-.58-.56-1.29-.56-2.27s-.02-1.69.56-2.27c.4-.4.9-.62,1.54-.62s1.14.22,1.54.62c.58.58.57,1.29.57,2.27s0,1.7-.57,2.27ZM109.32,297.09c0,1.21-.93,2-2.1,2s-2.09-.79-2.09-2v-3.74h1.11v3.7c0,.66.38,1.05.98,1.05s.99-.39.99-1.05v-3.7h1.1v3.74ZM114.23,294.34h-1.49v4.7h-1.11v-4.7h-1.49v-.99h4.09v.99Z" style="fill: #6f6f6e; stroke-width: 0px;"/>
          <path d="M101.98,294.3c-.3,0-.56.12-.72.3-.22.24-.27.5-.27,1.6s.06,1.36.27,1.6c.16.18.42.3.72.3s.55-.12.71-.3c.21-.24.28-.5.28-1.6s-.06-1.36-.28-1.6c-.16-.18-.41-.3-.71-.3Z" style="fill: #6f6f6e; stroke-width: 0px;"/>
        </g>
        <path d="M159.69,290.01h-22.68c-1.56,0-2.83,1.28-2.83,2.83v5.67c0,1.56,1.28,2.83,2.83,2.83h22.68c1.56,0,2.83-1.28,2.83-2.83v-5.67c0-1.56-1.28-2.83-2.83-2.83ZM140.95,298.53h-3.69v-5.69h1.11v4.7h2.58v.99ZM145.6,293.83h-2.64v1.33h2.25v.99h-2.25v1.38h2.64v.99h-3.75v-5.69h3.75v.99ZM148.76,298.53h-.83l-1.88-5.69h1.15l1.14,3.71,1.14-3.71h1.16l-1.89,5.69ZM155.09,293.83h-2.64v1.33h2.25v.99h-2.25v1.38h2.64v.99h-3.75v-5.69h3.75v.99ZM159.87,298.53h-3.69v-5.69h1.11v4.7h2.58v.99Z" style="fill: #0094a0; stroke-width: 0px;"/>
        <g>
          <path d="M27.62,157.7v-3.32l-1.09,2.16h-.75l-1.1-2.16v3.32h-1.11v-5.69h1.09l1.49,3.08,1.48-3.08h1.09v5.69h-1.11Z" style="fill: #1d1d1b; stroke-width: 0px;"/>
          <path d="M33.51,157.12c-.4.4-.89.62-1.54.62s-1.14-.22-1.54-.62c-.58-.58-.56-1.29-.56-2.27s-.02-1.69.56-2.27c.4-.4.89-.62,1.54-.62s1.13.22,1.54.62c.58.58.57,1.29.57,2.27s0,1.7-.57,2.27ZM32.68,153.25c-.16-.18-.41-.3-.71-.3s-.56.12-.72.3c-.22.24-.27.5-.27,1.6s.06,1.36.27,1.6c.16.18.42.3.72.3s.55-.12.71-.3c.22-.24.28-.5.28-1.6s-.06-1.36-.28-1.6Z" style="fill: #1d1d1b; stroke-width: 0px;"/>
          <path d="M38.77,157.15c-.38.38-.91.54-1.5.54h-2.06v-5.69h2.06c.59,0,1.13.17,1.5.54.64.64.58,1.42.58,2.28s.06,1.69-.58,2.33ZM37.99,153.35c-.19-.23-.45-.35-.83-.35h-.84v3.71h.84c.38,0,.64-.12.83-.35.21-.26.24-.66.24-1.53s-.03-1.22-.24-1.48Z" style="fill: #1d1d1b; stroke-width: 0px;"/>
        </g>
        <g>
          <path d="M137.38,157.7v-3.32l-1.09,2.16h-.75l-1.1-2.16v3.32h-1.11v-5.69h1.1l1.49,3.08,1.48-3.08h1.1v5.69h-1.11Z" style="fill: #1d1d1b; stroke-width: 0px;"/>
          <path d="M143.27,157.12c-.4.4-.89.62-1.54.62s-1.14-.22-1.54-.62c-.58-.58-.56-1.29-.56-2.27s-.02-1.69.56-2.27c.4-.4.9-.62,1.54-.62s1.14.22,1.54.62c.58.58.57,1.29.57,2.27s0,1.7-.57,2.27ZM142.44,153.25c-.16-.18-.41-.3-.71-.3s-.56.12-.72.3c-.22.24-.27.5-.27,1.6s.06,1.36.27,1.6c.16.18.42.3.72.3s.55-.12.71-.3c.21-.24.28-.5.28-1.6s-.06-1.36-.28-1.6Z" style="fill: #1d1d1b; stroke-width: 0px;"/>
          <path d="M148.53,157.15c-.38.38-.91.54-1.5.54h-2.05v-5.69h2.05c.59,0,1.13.17,1.5.54.64.64.58,1.42.58,2.28s.06,1.69-.58,2.33ZM147.75,153.35c-.19-.23-.45-.35-.83-.35h-.84v3.71h.84c.38,0,.64-.12.83-.35.21-.26.24-.66.24-1.53s-.03-1.22-.24-1.48Z" style="fill: #1d1d1b; stroke-width: 0px;"/>
        </g>
        <g>
          <path d="M78.09,149.59v-3.32l-1.09,2.16h-.75l-1.1-2.16v3.32h-1.11v-5.69h1.1l1.49,3.08,1.48-3.08h1.09v5.69h-1.11Z" style="fill: #1d1d1b; stroke-width: 0px;"/>
          <path d="M80.53,149.59v-5.69h3.75v.99h-2.64v1.33h2.25v.99h-2.25v1.38h2.64v.99h-3.75Z" style="fill: #1d1d1b; stroke-width: 0px;"/>
          <path d="M87.54,144.89v4.7h-1.11v-4.7h-1.49v-.99h4.09v.99h-1.49Z" style="fill: #1d1d1b; stroke-width: 0px;"/>
          <path d="M89.94,149.59v-5.69h3.75v.99h-2.64v1.33h2.25v.99h-2.25v1.38h2.64v.99h-3.75Z" style="fill: #1d1d1b; stroke-width: 0px;"/>
          <path d="M97.8,149.59l-1.11-2.27h-.8v2.27h-1.11v-5.69h2.23c1.16,0,1.85.79,1.85,1.74,0,.8-.49,1.3-1.04,1.5l1.27,2.45h-1.29ZM96.94,144.89h-1.05v1.5h1.05c.49,0,.81-.31.81-.75s-.32-.75-.81-.75Z" style="fill: #1d1d1b; stroke-width: 0px;"/>
        </g>
        <g>
          <path d="M49.86,219.9h-.84v3.71h.84c.38,0,.64-.12.83-.35.21-.26.24-.66.24-1.53s-.03-1.22-.24-1.48c-.19-.23-.45-.35-.83-.35Z" style="fill: #d83559; stroke-width: 0px;"/>
          <path d="M44.66,219.85c-.3,0-.56.12-.72.3-.22.24-.27.5-.27,1.6s.06,1.36.27,1.6c.16.18.41.3.72.3s.55-.12.71-.3c.22-.24.28-.5.28-1.6s-.06-1.36-.28-1.6c-.16-.19-.41-.3-.71-.3Z" style="fill: #d83559; stroke-width: 0px;"/>
          <path d="M52.62,216.08H10.11c-1.56,0-2.83,1.28-2.83,2.83v5.67c0,1.56,1.28,2.84,2.83,2.84h42.52c1.56,0,2.83-1.28,2.83-2.84v-5.67c0-1.56-1.28-2.83-2.83-2.83ZM14.58,224.6h-3.69v-5.69h1.11v4.7h2.58v.99ZM19.23,219.9h-2.64v1.33h2.25v.99h-2.25v1.38h2.64v.99h-3.75v-5.69h3.75v.99ZM22.39,224.6h-.83l-1.88-5.69h1.15l1.14,3.71,1.14-3.71h1.16l-1.89,5.69ZM28.72,219.9h-2.64v1.33h2.25v.99h-2.25v1.38h2.64v.99h-3.75v-5.69h3.75v.99ZM33.5,224.6h-3.69v-5.69h1.11v4.7h2.58v.99ZM41.42,224.6h-1.11v-3.32l-1.09,2.16h-.75l-1.1-2.16v3.32h-1.11v-5.69h1.1l1.49,3.08,1.48-3.08h1.09v5.69ZM46.2,224.02c-.4.4-.89.62-1.54.62s-1.14-.22-1.54-.62c-.58-.58-.56-1.29-.56-2.27s-.02-1.69.56-2.27c.4-.4.9-.62,1.54-.62s1.14.22,1.54.62c.58.58.57,1.29.57,2.27s0,1.7-.57,2.27ZM51.46,224.05c-.38.38-.91.54-1.5.54h-2.05v-5.69h2.05c.59,0,1.13.17,1.5.54.64.64.58,1.42.58,2.28s.06,1.69-.58,2.33Z" style="fill: #d83559; stroke-width: 0px;"/>
        </g>
        <g>
          <path d="M154.42,219.85c-.3,0-.56.12-.72.3-.22.24-.27.5-.27,1.6s.06,1.36.27,1.6c.16.18.42.3.72.3s.55-.12.71-.3c.22-.24.28-.5.28-1.6s-.06-1.36-.28-1.6c-.16-.19-.41-.3-.71-.3Z" style="fill: #0094a0; stroke-width: 0px;"/>
          <path d="M159.61,219.9h-.84v3.71h.84c.38,0,.64-.12.83-.35.21-.26.24-.66.24-1.53s-.03-1.22-.24-1.48c-.19-.23-.45-.35-.83-.35Z" style="fill: #0094a0; stroke-width: 0px;"/>
          <path d="M162.38,216.08h-42.52c-1.56,0-2.83,1.28-2.83,2.84v5.67c0,1.56,1.28,2.84,2.83,2.84h42.52c1.56,0,2.83-1.28,2.83-2.84v-5.67c0-1.56-1.28-2.84-2.83-2.84ZM124.33,224.6h-3.69v-5.69h1.11v4.7h2.58v.99ZM128.99,219.9h-2.64v1.33h2.25v.99h-2.25v1.38h2.64v.99h-3.75v-5.69h3.75v.99ZM132.15,224.6h-.83l-1.88-5.69h1.15l1.14,3.71,1.14-3.71h1.16l-1.89,5.69ZM138.48,219.9h-2.64v1.33h2.25v.99h-2.25v1.38h2.64v.99h-3.75v-5.69h3.75v.99ZM143.26,224.6h-3.69v-5.69h1.11v4.7h2.58v.99ZM151.18,224.6h-1.11v-3.32l-1.09,2.16h-.75l-1.1-2.16v3.32h-1.11v-5.69h1.1l1.49,3.08,1.48-3.08h1.09v5.69ZM155.96,224.02c-.4.4-.89.62-1.54.62s-1.14-.22-1.54-.62c-.58-.58-.56-1.29-.56-2.27s-.02-1.69.56-2.27c.4-.4.9-.62,1.54-.62s1.14.22,1.54.62c.58.58.57,1.29.57,2.27s0,1.7-.57,2.27ZM161.22,224.05c-.38.38-.91.54-1.5.54h-2.05v-5.69h2.05c.59,0,1.13.17,1.5.54.64.64.58,1.42.58,2.28s.06,1.69-.58,2.33Z" style="fill: #0094a0; stroke-width: 0px;"/>
        </g>
        <g>
          <path d="M21.01,91.47c-.86,0-1.52-.18-2.08-.75l.72-.72c.36.36.85.48,1.37.48.66,0,1.01-.25,1.01-.7,0-.2-.06-.37-.18-.48-.11-.1-.24-.16-.5-.2l-.69-.1c-.49-.07-.85-.22-1.1-.47-.27-.27-.41-.64-.41-1.12,0-1.02.75-1.73,1.98-1.73.78,0,1.35.19,1.84.66l-.7.7c-.36-.34-.79-.39-1.17-.39-.59,0-.88.33-.88.72,0,.14.05.3.17.41.11.1.3.19.53.22l.67.1c.52.07.85.22,1.09.44.3.29.44.7.44,1.21,0,1.1-.92,1.73-2.11,1.73Z" style="fill: #1d1d1b; stroke-width: 0px;"/>
          <path d="M27.21,91.42v-2.38h-1.93v2.38h-1.11v-5.69h1.11v2.33h1.93v-2.33h1.11v5.69h-1.11Z" style="fill: #1d1d1b; stroke-width: 0px;"/>
          <path d="M32.89,91.42l-.34-1.01h-2.02l-.34,1.01h-1.16l2.07-5.69h.87l2.08,5.69h-1.16ZM31.56,87.4l-.72,2.07h1.41l-.7-2.07Z" style="fill: #1d1d1b; stroke-width: 0px;"/>
          <path d="M36.96,89.28h-1.1v2.14h-1.11v-5.69h2.21c1.17,0,1.88.81,1.88,1.78s-.7,1.78-1.88,1.78ZM36.9,86.72h-1.04v1.56h1.04c.5,0,.82-.31.82-.78s-.32-.78-.82-.78Z" style="fill: #1d1d1b; stroke-width: 0px;"/>
          <path d="M39.78,91.42v-5.69h3.75v.99h-2.64v1.33h2.25v.99h-2.25v1.38h2.64v.99h-3.75Z" style="fill: #1d1d1b; stroke-width: 0px;"/>
        </g>
        <g>
          <path d="M130.77,91.47c-.86,0-1.52-.18-2.08-.75l.72-.72c.36.36.85.48,1.38.48.66,0,1.01-.25,1.01-.7,0-.2-.06-.37-.18-.48-.11-.1-.24-.16-.5-.2l-.69-.1c-.49-.07-.85-.22-1.1-.47-.27-.27-.41-.64-.41-1.12,0-1.02.75-1.73,1.98-1.73.78,0,1.35.19,1.84.66l-.7.7c-.36-.34-.79-.39-1.17-.39-.59,0-.88.33-.88.72,0,.14.05.3.17.41.11.1.3.19.53.22l.67.1c.52.07.85.22,1.09.44.3.29.44.7.44,1.21,0,1.1-.92,1.73-2.11,1.73Z" style="fill: #1d1d1b; stroke-width: 0px;"/>
          <path d="M136.97,91.42v-2.38h-1.93v2.38h-1.11v-5.69h1.11v2.33h1.93v-2.33h1.11v5.69h-1.11Z" style="fill: #1d1d1b; stroke-width: 0px;"/>
          <path d="M142.65,91.42l-.34-1.01h-2.02l-.34,1.01h-1.16l2.07-5.69h.87l2.08,5.69h-1.16ZM141.32,87.4l-.72,2.07h1.41l-.7-2.07Z" style="fill: #1d1d1b; stroke-width: 0px;"/>
          <path d="M146.72,89.28h-1.1v2.14h-1.11v-5.69h2.21c1.17,0,1.88.81,1.88,1.78s-.7,1.78-1.88,1.78ZM146.66,86.72h-1.04v1.56h1.04c.5,0,.82-.31.82-.78s-.32-.78-.82-.78Z" style="fill: #1d1d1b; stroke-width: 0px;"/>
          <path d="M149.53,91.42v-5.69h3.75v.99h-2.64v1.33h2.25v.99h-2.25v1.38h2.64v.99h-3.75Z" style="fill: #1d1d1b; stroke-width: 0px;"/>
        </g>
        <path d="M77.03,181.54c-.13,0-.26-.05-.36-.15-2.37-2.48-3.67-5.73-3.67-9.16,0-7.31,5.94-13.25,13.25-13.25s13.25,5.94,13.25,13.25c0,3.43-1.3,6.68-3.67,9.15-.19.2-.51.21-.71.02-.2-.19-.21-.51-.02-.71,2.19-2.29,3.39-5.29,3.39-8.46,0-6.75-5.5-12.25-12.25-12.25s-12.25,5.5-12.25,12.25c0,3.17,1.21,6.18,3.39,8.46.19.2.18.52-.02.71-.1.09-.22.14-.35.14Z" style="fill: #d83559; stroke-width: 0px;"/>
        <path d="M86.24,57.38c-2.76,0-5,2.24-5,5s2.24,5,5,5,5-2.24,5-5-2.24-5-5-5ZM89.48,64.29c-.13.15-.35.16-.5.04l-3.62-3.15-1.5,3.11c-.06.13-.19.2-.32.2-.05,0-.1-.01-.15-.04-.18-.09-.25-.3-.17-.47l1.9-3.95,4.32,3.75c.15.13.16.35.04.5Z" style="fill: #6f6f6e; stroke-width: 0px;"/>
        <path d="M86.24,89.8c-2.76,0-5,2.24-5,5s2.24,5,5,5,5-2.24,5-5-2.24-5-5-5ZM89.54,95.09c-.28.34-.68.74-1.03.74s-.49-.34-.6-.61c-.03-.07-.07-.17-.11-.24-.05.09-.1.22-.13.31-.15.37-.34.83-.78.83-.49,0-.57-.56-.64-1.1-.02-.12-.04-.3-.07-.45-.04.25-.07.57-.09.81-.09,1.01-.17,1.96-.85,1.96s-.73-1.07-.76-2.56c0-.43-.02-1.01-.07-1.37-.12.35-.27,1.05-.34,1.73-.02.19-.19.34-.39.32-.19-.02-.34-.19-.32-.39.11-1.18.4-2.59,1.15-2.59.62,0,.64.86.67,2.29,0,.45.02,1.12.08,1.54.06-.3.09-.72.12-.99.09-.98.15-1.76.75-1.76s.73.75.82,1.35c0,.06.02.12.03.18.01-.03.03-.07.04-.09.16-.39.34-.83.78-.83.46,0,.65.46.78.77.01.03.03.06.04.09.1-.09.26-.25.39-.41.13-.15.35-.17.5-.05.15.12.17.35.05.5Z" style="fill: #6f6f6e; stroke-width: 0px;"/>
        <path d="M86.24,106.02c-2.76,0-5,2.24-5,5s2.24,5,5,5,5-2.24,5-5-2.24-5-5-5ZM89.05,109.46l-3.69,1.77-1.21,2.49c-.06.13-.19.2-.32.2-.05,0-.11-.01-.16-.04-.18-.09-.25-.3-.16-.47l1.32-2.71,3.92-1.87c.17-.08.39-.01.47.17.08.18,0,.39-.17.47Z" style="fill: #6f6f6e; stroke-width: 0px;"/>
        <g>
          <path d="M86.29,75.96c-1.52,0-1.7,1.49-1.71,1.56v1.59h3.31v-1.63c0-.14-.14-1.52-1.6-1.52Z" style="fill: #6f6f6e; stroke-width: 0px;"/>
          <path d="M86.24,73.59c-2.76,0-5,2.24-5,5s2.24,5,5,5,5-2.24,5-5-2.24-5-5-5ZM87.53,81.57c0,.2-.16.35-.35.35s-.35-.16-.35-.35v-1.75h-1.15v1.75c0,.2-.16.35-.35.35s-.35-.16-.35-.35v-1.75h-1.08v-2.34c.08-.79.69-2.23,2.41-2.23s2.27,1.44,2.31,2.21v2.36s-1.08,0-1.08,0v1.75Z" style="fill: #6f6f6e; stroke-width: 0px;"/>
        </g>
        <path d="M71.04,180.39c-2.35,0-4.25,1.9-4.25,4.25s1.9,4.25,4.25,4.25,4.25-1.9,4.25-4.25-1.9-4.25-4.25-4.25ZM71.58,185.85c-.87.65-1.6.8-2.1.8-.37,0-.61-.08-.66-.11l.36-.93s.73.24,1.79-.56c1.1-.82,1.03-2.43,1.03-2.44l1-.05c0,.09.1,2.15-1.43,3.3Z" style="fill: #d83559; stroke-width: 0px;"/>
        <path d="M101.45,180.39c-2.35,0-4.25,1.9-4.25,4.25s1.9,4.25,4.25,4.25,4.25-1.9,4.25-4.25-1.9-4.25-4.25-4.25ZM100.05,186.75l-.71-.71,3.5-3.5.71.71-3.5,3.5Z" style="fill: #d83559; stroke-width: 0px;"/>
        <path d="M71.04,222.03c-2.35,0-4.25,1.9-4.25,4.25s1.9,4.25,4.25,4.25,4.25-1.9,4.25-4.25-1.9-4.25-4.25-4.25ZM71.58,227.3c-.87.65-1.6.8-2.09.8-.37,0-.61-.08-.66-.11l.36-.93s.73.24,1.79-.56c1.1-.82,1.03-2.43,1.03-2.44l1-.05c0,.09.1,2.15-1.43,3.3Z" style="fill: #0094a0; stroke-width: 0px;"/>
        <path d="M101.45,222.03c-2.35,0-4.25,1.9-4.25,4.25s1.9,4.25,4.25,4.25,4.25-1.9,4.25-4.25-1.9-4.25-4.25-4.25ZM100.05,228.39l-.71-.71,3.5-3.5.71.71-3.5,3.5Z" style="fill: #0094a0; stroke-width: 0px;"/>
        <path d="M77.03,222.64c-.13,0-.26-.05-.36-.15-2.37-2.48-3.67-5.73-3.67-9.16,0-7.31,5.94-13.25,13.25-13.25s13.25,5.94,13.25,13.25c0,3.43-1.3,6.68-3.67,9.15-.19.2-.51.21-.71.02-.2-.19-.21-.51-.02-.71,2.19-2.29,3.39-5.29,3.39-8.46,0-6.75-5.5-12.25-12.25-12.25s-12.25,5.5-12.25,12.25c0,3.17,1.21,6.18,3.39,8.46.19.2.18.52-.02.71-.1.09-.22.14-.35.14Z" style="fill: #0094a0; stroke-width: 0px;"/>
        <polygon points="11.69 45.86 8.2 43.69 8.2 45.44 7.2 45.44 7.2 41.89 12.22 45.02 11.69 45.86" style="fill: #6f6f6e; stroke-width: 0px;"/>
        <polygon points="55.95 45.67 53.87 43.65 52.15 45.64 51.39 44.98 53.81 42.19 56.65 44.95 55.95 45.67" style="fill: #6f6f6e; stroke-width: 0px;"/>
        <polygon points="121.37 45.86 117.88 43.69 117.88 45.44 116.88 45.44 116.88 41.89 121.9 45.02 121.37 45.86" style="fill: #6f6f6e; stroke-width: 0px;"/>
        <polygon points="165.63 45.67 163.54 43.65 161.82 45.64 161.06 44.98 163.48 42.19 166.33 44.95 165.63 45.67" style="fill: #6f6f6e; stroke-width: 0px;"/>
        <path d="M17.86,98.45c-2.24,0-4.06,1.81-4.06,4.05s1.82,4.06,4.06,4.06,4.06-1.81,4.06-4.06-1.82-4.05-4.06-4.05ZM19.94,103.61h-4.72l4.72-2.79v2.79Z" style="fill: #1d1d1b; stroke-width: 0px;"/>
        <path d="M44.87,98.45c-2.24,0-4.06,1.81-4.06,4.05s1.81,4.06,4.06,4.06,4.05-1.81,4.05-4.06-1.82-4.05-4.05-4.05ZM42.8,104.18v-2.79h4.72l-4.72,2.79Z" style="fill: #1d1d1b; stroke-width: 0px;"/>
        <rect x="30.94" y="98.34" width=".85" height="8.32" style="fill: #1d1d1b; stroke-width: 0px;"/>
        <path d="M127.62,98.45c-2.24,0-4.06,1.81-4.06,4.05s1.82,4.06,4.06,4.06,4.06-1.81,4.06-4.06-1.82-4.05-4.06-4.05ZM129.69,103.61h-4.72l4.72-2.79v2.79Z" style="fill: #1d1d1b; stroke-width: 0px;"/>
        <path d="M154.63,98.45c-2.24,0-4.06,1.81-4.06,4.05s1.81,4.06,4.06,4.06,4.05-1.81,4.05-4.06-1.82-4.05-4.05-4.05ZM152.55,104.18v-2.79h4.72l-4.72,2.79Z" style="fill: #1d1d1b; stroke-width: 0px;"/>
        <rect x="140.7" y="98.34" width=".85" height="8.32" style="fill: #1d1d1b; stroke-width: 0px;"/>
        <g>
          <polygon points="11.26 164.73 11.04 164.7 10.87 164.7 10.54 164.7 10.43 164.73 10.38 164.8 10.38 165.44 10.41 165.52 10.52 165.56 10.85 165.56 11.04 165.56 11.29 165.56 11.33 165.54 11.33 165.49 11.33 164.8 11.29 164.77 11.26 164.73" style="fill: #d83559; stroke-width: 0px;"/>
          <path d="M11.11,162.08c-2.76,0-5,2.24-5,5s2.24,5,5,5,5-2.24,5-5-2.24-5-5-5ZM12.26,169.89h-.92v-3.7h-.5c-.2,0-.38-.02-.54-.07-.16-.04-.32-.12-.47-.22-.15-.11-.25-.22-.32-.35-.07-.13-.11-.26-.11-.4,0-.13.04-.25.11-.37.07-.12.17-.23.31-.34.13-.1.28-.18.46-.23.1-.02.19-.04.27-.06.09-.02.19-.02.3-.02.13,0,.23,0,.29.01.06,0,.16.03.31.08.15.04.28.11.41.2.13.09.24.2.31.32.07.13.11.26.11.4v4.75Z" style="fill: #d83559; stroke-width: 0px;"/>
        </g>
        <path d="M161.46,162.08c-2.76,0-5,2.24-5,5s2.24,5,5,5,5-2.24,5-5-2.24-5-5-5ZM162.99,167.09c0,.14-.04.27-.13.41-.09.11-.22.21-.38.29-.16.09-.35.16-.56.21-.21.05-.43.08-.68.08l1.1,1.52-.68.46-1.68-2.21.56-.52.86.18h.31c.11-.01.2-.04.26-.06.07-.02.11-.05.14-.08l.06-.14v-2.2c-.02-.05-.04-.09-.05-.1-.04-.04-.08-.07-.15-.1h-.05s-.05-.03-.05-.03h-.06l-.05-.02h-.58c-.08,0-.15.01-.21.04-.07.03-.11.06-.15.1l-.04.13v1.03h-.83v-1.02c0-.11.04-.23.11-.33.07-.1.18-.2.33-.29.14-.09.28-.15.42-.19.14-.03.26-.06.34-.07.1-.02.2-.02.31-.02.21,0,.41.02.59.06.18.05.35.11.5.2.15.09.26.19.33.3.04.05.06.11.09.17.02.06.04.12.04.19v2.05Z" style="fill: #0094a0; stroke-width: 0px;"/>
      </g>
      <g id="cuts_and_drills" data-name="cuts and drills">
        <path d="M17.08,356.1c0,2.5,2.03,4.54,4.54,4.54s4.53-2.03,4.53-4.54-2.03-4.54-4.53-4.54-4.54,2.03-4.54,4.54" style="fill: none; stroke: #e20613; stroke-linecap: round; stroke-linejoin: round; stroke-width: .71px;"/>
        <path d="M17.08,8.86c0,2.5,2.03,4.54,4.54,4.54s4.53-2.03,4.53-4.54-2.03-4.54-4.53-4.54-4.54,2.03-4.54,4.54" style="fill: none; stroke: #e20613; stroke-linecap: round; stroke-linejoin: round; stroke-width: .71px;"/>
        <path d="M146.68,356.1c0,2.5,2.03,4.54,4.54,4.54s4.54-2.03,4.54-4.54-2.03-4.54-4.54-4.54-4.54,2.03-4.54,4.54" style="fill: none; stroke: #e20613; stroke-linecap: round; stroke-linejoin: round; stroke-width: .71px;"/>
        <path d="M146.68,8.86c0,2.5,2.03,4.54,4.54,4.54s4.54-2.03,4.54-4.54-2.03-4.54-4.54-4.54-4.54,2.03-4.54,4.54" style="fill: none; stroke: #e20613; stroke-linecap: round; stroke-linejoin: round; stroke-width: .71px;"/>
        <polyline points=".35 364.61 .35 .35 172.13 .35 172.13 364.61 .35 364.61" style="fill: none; stroke: #e20613; stroke-linecap: round; stroke-linejoin: round; stroke-width: .71px;"/>
        <path d="M14.9,315.28c0,5.09,4.12,9.21,9.21,9.21s9.21-4.12,9.21-9.21-4.13-9.21-9.21-9.21-9.21,4.13-9.21,9.21" style="fill: none; stroke: #e20613; stroke-linecap: round; stroke-linejoin: round; stroke-width: .71px;"/>
        <path d="M56.31,315.28c0,5.09,4.12,9.21,9.21,9.21s9.21-4.12,9.21-9.21-4.12-9.21-9.21-9.21-9.21,4.13-9.21,9.21" style="fill: none; stroke: #e20613; stroke-linecap: round; stroke-linejoin: round; stroke-width: .71px;"/>
        <path d="M97.73,315.28c0,5.09,4.12,9.21,9.21,9.21s9.21-4.12,9.21-9.21-4.12-9.21-9.21-9.21-9.21,4.13-9.21,9.21" style="fill: none; stroke: #e20613; stroke-linecap: round; stroke-linejoin: round; stroke-width: .71px;"/>
        <path d="M139.14,315.28c0,5.09,4.13,9.21,9.21,9.21s9.21-4.12,9.21-9.21-4.12-9.21-9.21-9.21-9.21,4.13-9.21,9.21" style="fill: none; stroke: #e20613; stroke-linecap: round; stroke-linejoin: round; stroke-width: .71px;"/>
        <path d="M14.9,273.87c0,5.09,4.12,9.21,9.21,9.21s9.21-4.12,9.21-9.21-4.13-9.21-9.21-9.21-9.21,4.12-9.21,9.21" style="fill: none; stroke: #e20613; stroke-linecap: round; stroke-linejoin: round; stroke-width: .71px;"/>
        <path d="M56.31,273.87c0,5.09,4.12,9.21,9.21,9.21s9.21-4.12,9.21-9.21-4.12-9.21-9.21-9.21-9.21,4.12-9.21,9.21" style="fill: none; stroke: #e20613; stroke-linecap: round; stroke-linejoin: round; stroke-width: .71px;"/>
        <path d="M97.73,273.87c0,5.09,4.12,9.21,9.21,9.21s9.21-4.12,9.21-9.21-4.12-9.21-9.21-9.21-9.21,4.12-9.21,9.21" style="fill: none; stroke: #e20613; stroke-linecap: round; stroke-linejoin: round; stroke-width: .71px;"/>
        <path d="M139.14,273.87c0,5.09,4.13,9.21,9.21,9.21s9.21-4.12,9.21-9.21-4.12-9.21-9.21-9.21-9.21,4.12-9.21,9.21" style="fill: none; stroke: #e20613; stroke-linecap: round; stroke-linejoin: round; stroke-width: .71px;"/>
        <path d="M20.74,59.68c0,5.87,4.76,10.63,10.63,10.63s10.63-4.76,10.63-10.63-4.76-10.63-10.63-10.63-10.63,4.76-10.63,10.63" style="fill: none; stroke: #e20613; stroke-linecap: round; stroke-linejoin: round; stroke-width: .71px;"/>
        <path d="M20.74,126.3c0,5.87,4.76,10.63,10.63,10.63s10.63-4.76,10.63-10.63-4.76-10.63-10.63-10.63-10.63,4.76-10.63,10.63" style="fill: none; stroke: #e20613; stroke-linecap: round; stroke-linejoin: round; stroke-width: .71px;"/>
        <path d="M20.74,192.88c0,5.87,4.76,10.63,10.63,10.63s10.63-4.76,10.63-10.63-4.76-10.63-10.63-10.63-10.63,4.76-10.63,10.63" style="fill: none; stroke: #e20613; stroke-linecap: round; stroke-linejoin: round; stroke-width: .71px;"/>
        <path d="M130.49,59.68c0,5.87,4.76,10.63,10.63,10.63s10.63-4.76,10.63-10.63-4.76-10.63-10.63-10.63-10.63,4.76-10.63,10.63" style="fill: none; stroke: #e20613; stroke-linecap: round; stroke-linejoin: round; stroke-width: .71px;"/>
        <path d="M130.49,126.3c0,5.87,4.76,10.63,10.63,10.63s10.63-4.76,10.63-10.63-4.76-10.63-10.63-10.63-10.63,4.76-10.63,10.63" style="fill: none; stroke: #e20613; stroke-linecap: round; stroke-linejoin: round; stroke-width: .71px;"/>
        <path d="M130.49,192.88c0,5.87,4.76,10.63,10.63,10.63s10.63-4.76,10.63-10.63-4.76-10.63-10.63-10.63-10.63,4.76-10.63,10.63" style="fill: none; stroke: #e20613; stroke-linecap: round; stroke-linejoin: round; stroke-width: .71px;"/>
        <path d="M62.69,42.59c0,4.07,3.3,7.37,7.37,7.37s7.37-3.3,7.37-7.37-3.3-7.37-7.37-7.37-7.37,3.3-7.37,7.37" style="fill: none; stroke: #e20613; stroke-linecap: round; stroke-linejoin: round; stroke-width: .71px;"/>
        <path d="M95.06,42.59c0,4.07,3.3,7.37,7.37,7.37s7.37-3.3,7.37-7.37-3.3-7.37-7.37-7.37-7.37,3.3-7.37,7.37" style="fill: none; stroke: #e20613; stroke-linecap: round; stroke-linejoin: round; stroke-width: .71px;"/>
        <path d="M78.87,132.59c0,4.07,3.3,7.37,7.37,7.37s7.37-3.3,7.37-7.37-3.3-7.37-7.37-7.37-7.37,3.3-7.37,7.37" style="fill: none; stroke: #e20613; stroke-linecap: round; stroke-linejoin: round; stroke-width: .71px;"/>
        <path d="M77.32,172.19c0,4.93,4,8.93,8.93,8.93s8.93-4,8.93-8.93-4-8.93-8.93-8.93-8.93,4-8.93,8.93" style="fill: none; stroke: #e20613; stroke-linecap: round; stroke-linejoin: round; stroke-width: .71px;"/>
        <path d="M77.32,213.58c0,4.93,4,8.93,8.93,8.93s8.93-4,8.93-8.93-4-8.93-8.93-8.93-8.93,4-8.93,8.93" style="fill: none; stroke: #e20613; stroke-linecap: round; stroke-linejoin: round; stroke-width: .71px;"/>
        <path d="M77.32,213.58c0,4.93,4,8.93,8.93,8.93s8.93-4,8.93-8.93-4-8.93-8.93-8.93-8.93,4-8.93,8.93" style="fill: none; stroke: #e20613; stroke-linecap: round; stroke-linejoin: round; stroke-width: .71px;"/>
        <path d="M65.81,62.38c0,2.35,1.9,4.25,4.25,4.25s4.25-1.9,4.25-4.25-1.9-4.25-4.25-4.25-4.25,1.9-4.25,4.25" style="fill: none; stroke: #e20613; stroke-linecap: round; stroke-linejoin: round; stroke-width: .71px;"/>
        <path d="M98.18,62.38c0,2.35,1.9,4.25,4.25,4.25s4.25-1.9,4.25-4.25-1.9-4.25-4.25-4.25-4.25,1.9-4.25,4.25" style="fill: none; stroke: #e20613; stroke-linecap: round; stroke-linejoin: round; stroke-width: .71px;"/>
        <path d="M65.81,78.59c0,2.35,1.9,4.25,4.25,4.25s4.25-1.9,4.25-4.25-1.9-4.25-4.25-4.25-4.25,1.9-4.25,4.25" style="fill: none; stroke: #e20613; stroke-linecap: round; stroke-linejoin: round; stroke-width: .71px;"/>
        <path d="M98.18,78.59c0,2.35,1.9,4.25,4.25,4.25s4.25-1.9,4.25-4.25-1.9-4.25-4.25-4.25-4.25,1.9-4.25,4.25" style="fill: none; stroke: #e20613; stroke-linecap: round; stroke-linejoin: round; stroke-width: .71px;"/>
        <path d="M65.81,94.81c0,2.35,1.9,4.25,4.25,4.25s4.25-1.9,4.25-4.25-1.9-4.25-4.25-4.25-4.25,1.9-4.25,4.25" style="fill: none; stroke: #e20613; stroke-linecap: round; stroke-linejoin: round; stroke-width: .71px;"/>
        <path d="M98.18,94.81c0,2.35,1.9,4.25,4.25,4.25s4.25-1.9,4.25-4.25-1.9-4.25-4.25-4.25-4.25,1.9-4.25,4.25" style="fill: none; stroke: #e20613; stroke-linecap: round; stroke-linejoin: round; stroke-width: .71px;"/>
        <path d="M65.81,111.02c0,2.35,1.9,4.25,4.25,4.25s4.25-1.9,4.25-4.25-1.9-4.25-4.25-4.25-4.25,1.9-4.25,4.25" style="fill: none; stroke: #e20613; stroke-linecap: round; stroke-linejoin: round; stroke-width: .71px;"/>
        <path d="M98.18,111.02c0,2.35,1.9,4.25,4.25,4.25s4.25-1.9,4.25-4.25-1.9-4.25-4.25-4.25-4.25,1.9-4.25,4.25" style="fill: none; stroke: #e20613; stroke-linecap: round; stroke-linejoin: round; stroke-width: .71px;"/>
      </g>
    </g>
  </g>
  <g id="components">
    <circle id="Ch2_Out" data-name="Ch2 Out" cx="106.94" cy="315.28" r="11.34" style="fill: #8080ff; stroke-width: 0px;"/>
    <circle id="Ch1_Out" data-name="Ch1 Out" cx="65.52" cy="315.28" r="11.34" style="fill: #8080ff; stroke-width: 0px;"/>
    <circle id="Ch2_Level_CV" data-name="Ch2 Level CV" cx="148.35" cy="315.28" r="11.34" style="fill: lime; stroke-width: 0px;"/>
    <circle id="Ch2_In" data-name="Ch2 In" cx="106.94" cy="273.78" r="11.34" style="fill: #80ff80; stroke-width: 0px;"/>
    <circle id="Ch2_Excite" data-name="Ch2 Excite" cx="148.35" cy="273.87" r="11.34" style="fill: #80ff80; stroke-width: 0px;"/>
    <circle id="Ch1_Level_CV" data-name="Ch1 Level CV" cx="24.11" cy="315.28" r="11.34" style="fill: lime; stroke-width: 0px;"/>
    <circle id="Ch1_In" data-name="Ch1 In" cx="65.52" cy="273.87" r="11.34" style="fill: #80ff80; stroke-width: 0px;"/>
    <circle id="Ch1_Excite" data-name="Ch1 Excite" cx="24.11" cy="273.87" r="11.34" style="fill: #80ff80; stroke-width: 0px;"/>
    <circle id="Ch2_Func4_GreenRedLight" data-name="Ch2 Func4#GreenRedLight" cx="102.43" cy="111.02" r="4.96" style="fill: #f0f; stroke-width: 0px;"/>
    <circle id="Ch2_Func3_GreenRedLight" data-name="Ch2 Func3#GreenRedLight" cx="102.43" cy="94.8" r="4.96" style="fill: #f0f; stroke-width: 0px;"/>
    <circle id="Ch2_Func2_GreenRedLight" data-name="Ch2 Func2#GreenRedLight" cx="102.43" cy="78.59" r="4.96" style="fill: #f0f; stroke-width: 0px;"/>
    <circle id="Ch2_Func1_GreenRedLight" data-name="Ch2 Func1#GreenRedLight" cx="102.43" cy="62.38" r="4.96" style="fill: #f0f; stroke-width: 0px;"/>
    <circle id="Ch1_Func4_GreenRedLight" data-name="Ch1 Func4#GreenRedLight" cx="70.06" cy="111.02" r="4.96" style="fill: #f0f; stroke-width: 0px;"/>
    <circle id="Ch1_Func3_GreenRedLight" data-name="Ch1 Func3#GreenRedLight" cx="70.06" cy="94.8" r="4.96" style="fill: #f0f; stroke-width: 0px;"/>
    <circle id="Ch1_Func2_GreenRedLight" data-name="Ch1 Func2#GreenRedLight" cx="70.06" cy="78.59" r="4.96" style="fill: #f0f; stroke-width: 0px;"/>
    <circle id="Ch1_Func1_GreenRedLight" data-name="Ch1 Func1#GreenRedLight" cx="70.06" cy="62.38" r="4.96" style="fill: #f0f; stroke-width: 0px;"/>
    <circle id="Meter_MediumButton" data-name="Meter#MediumButton" cx="86.24" cy="132.59" r="10.63" style="fill: #ff8000; stroke-width: 0px;"/>
    <circle id="Ch2_Function_MediumButton" data-name="Ch2 Function#MediumButton" cx="102.43" cy="42.59" r="10.63" style="fill: #ff8000; stroke-width: 0px;"/>
    <circle id="Ch1_Function_MediumButton" data-name="Ch1 Function#MediumButton" cx="70.06" cy="42.59" r="10.63" style="fill: #ff8000; stroke-width: 0px;"/>
    <circle id="Ch2_Response_Trimpot" data-name="Ch2 Response#Trimpot" cx="86.24" cy="213.58" r="8.5" style="fill: red; stroke-width: 0px;"/>
    <circle id="Ch2_Level_Mod_BlueMediumKnob" data-name="Ch2 Level Mod#BlueMediumKnob" cx="141.12" cy="192.88" r="17.01" style="fill: #ff0040; stroke-width: 0px;"/>
    <circle id="Ch2_Mod_WhiteMediumKnob" data-name="Ch2 Mod#WhiteMediumKnob" cx="141.12" cy="126.3" r="17.01" style="fill: #ff0040; stroke-width: 0px;"/>
    <circle id="Ch2_Shape_WhiteMediumKnob" data-name="Ch2 Shape#WhiteMediumKnob" cx="141.12" cy="59.68" r="17.01" style="fill: #ff0040; stroke-width: 0px;"/>
    <circle id="Ch1_Response_Trimpot" data-name="Ch1 Response#Trimpot" cx="86.24" cy="172.19" r="8.5" style="fill: red; stroke-width: 0px;"/>
    <circle id="Ch1_Level_Mod_RedMediumKnob" data-name="Ch1 Level Mod#RedMediumKnob" cx="31.37" cy="192.88" r="17.01" style="fill: #ff0040; stroke-width: 0px;"/>
    <circle id="Ch1_Mod_WhiteMediumKnob" data-name="Ch1 Mod#WhiteMediumKnob" cx="31.37" cy="126.3" r="17.01" style="fill: #ff0040; stroke-width: 0px;"/>
    <circle id="Ch1_Shape_WhiteMediumKnob" data-name="Ch1 Shape#WhiteMediumKnob" cx="31.37" cy="59.68" r="17.01" style="fill: #ff0040; stroke-width: 0px;"/>
    <text id="slug" transform="translate(122.02 369)" style="fill: #010101; font-family: MyriadPro-Regular, &apos;Myriad Pro&apos;; font-size: 3px;"><tspan x="0" y="0" style="letter-spacing: 0em;">S</tspan><tspan x="1.47" y="0">t</tspan><tspan x="2.46" y="0" style="letter-spacing: -.01em;">r</tspan><tspan x="3.41" y="0">eams</tspan></text>
    <text id="modulename" transform="translate(138.83 369)" style="fill: #010101; font-family: MyriadPro-Regular, &apos;Myriad Pro&apos;; font-size: 3px;"><tspan x="0" y="0" style="letter-spacing: 0em;">D</tspan><tspan x="2.01" y="0">ual </tspan><tspan x="6.45" y="0" style="letter-spacing: .01em;">D</tspan><tspan x="8.49" y="0" style="letter-spacing: 0em;">ynamics </tspan><tspan x="19.39" y="0" style="letter-spacing: 0em;">G</tspan><tspan x="21.35" y="0" style="letter-spacing: 0em;">at</tspan><tspan x="23.76" y="0">e</tspan></text>
  </g>
</svg>