<?xml version="1.0" encoding="UTF-8"?>
<svg xmlns="http://www.w3.org/2000/svg" width="173.18mm" height="130.44mm" viewBox="0 0 490.9 369.75">
  <g id="faceplate">
    <g id="art">
      <g id="panel">
        <g>
          <rect x=".13" y=".13" width="171.53" height="364" style="fill: #ededee; stroke-width: 0px;"/>
          <path d="M171.54.25v363.75H.26V.25h171.28M171.79,0H0v364.25h171.78V0h0Z" style="fill: #9c9c9e; stroke-width: 0px;"/>
        </g>
      </g>
      <rect x="134.3" y="35.55" width="31.18" height="294.8" rx="4.25" ry="4.25" transform="translate(299.77 365.89) rotate(180)" style="stroke-width: 0px;"/>
      <path id="center" d="M77.47,122.95c-.98,0-1.77.79-1.77,1.77s.79,1.77,1.77,1.77,1.77-.79,1.77-1.77-.79-1.77-1.77-1.77Z" style="fill: #171717; stroke-width: 0px;"/>
      <path d="M77.47,121.45c-1.8,0-3.27,1.47-3.27,3.27s1.47,3.27,3.27,3.27,3.27-1.47,3.27-3.27-1.47-3.27-3.27-3.27ZM77.47,126.49c-.98,0-1.77-.79-1.77-1.77s.79-1.77,1.77-1.77,1.77.79,1.77,1.77-.79,1.77-1.77,1.77Z" style="fill: #ededed; stroke-width: 0px;"/>
      <path id="center-2" data-name="center" d="M77.47,47.27c-.98,0-1.77.79-1.77,1.77s.79,1.77,1.77,1.77,1.77-.79,1.77-1.77-.79-1.77-1.77-1.77Z" style="fill: #171717; stroke-width: 0px;"/>
      <path d="M77.47,45.77c-1.8,0-3.27,1.47-3.27,3.27s1.47,3.27,3.27,3.27,3.27-1.47,3.27-3.27-1.47-3.27-3.27-3.27ZM77.47,50.82c-.98,0-1.77-.79-1.77-1.77s.79-1.77,1.77-1.77,1.77.79,1.77,1.77-.79,1.77-1.77,1.77Z" style="fill: #ededed; stroke-width: 0px;"/>
      <path id="center-3" data-name="center" d="M77.47,198.63c-.98,0-1.77.79-1.77,1.77s.79,1.77,1.77,1.77,1.77-.79,1.77-1.77-.79-1.77-1.77-1.77Z" style="fill: #171717; stroke-width: 0px;"/>
      <path d="M77.47,197.13c-1.8,0-3.27,1.47-3.27,3.27s1.47,3.27,3.27,3.27,3.27-1.47,3.27-3.27-1.47-3.27-3.27-3.27ZM77.47,202.17c-.98,0-1.77-.79-1.77-1.77s.79-1.77,1.77-1.77,1.77.79,1.77,1.77-.79,1.77-1.77,1.77Z" style="fill: #ededed; stroke-width: 0px;"/>
      <path id="center-4" data-name="center" d="M77.47,274.3c-.98,0-1.77.79-1.77,1.77s.79,1.77,1.77,1.77,1.77-.79,1.77-1.77-.79-1.77-1.77-1.77Z" style="fill: #171717; stroke-width: 0px;"/>
      <path d="M77.47,272.8c-1.8,0-3.27,1.47-3.27,3.27s1.47,3.27,3.27,3.27,3.27-1.47,3.27-3.27-1.47-3.27-3.27-3.27ZM77.47,277.84c-.98,0-1.77-.79-1.77-1.77s.79-1.77,1.77-1.77,1.77.79,1.77,1.77-.79,1.77-1.77,1.77Z" style="fill: #ededed; stroke-width: 0px;"/>
      <g>
        <line x1="168.25" y1="336.4" x2="167.75" y2="336.4" style="fill: none; stroke: #000; stroke-linecap: round; stroke-linejoin: round;"/>
        <line x1="163.76" y1="336.4" x2="6.03" y2="336.4" style="fill: none; stroke: #000; stroke-dasharray: 0 0 1 3.99; stroke-linecap: round; stroke-linejoin: round;"/>
        <line x1="4.04" y1="336.4" x2="3.54" y2="336.4" style="fill: none; stroke: #000; stroke-linecap: round; stroke-linejoin: round;"/>
      </g>
      <g id="curved_lines" data-name="curved lines">
        <rect x="24.38" y="68.91" width="37.35" height="1" style="stroke-width: 0px;"/>
        <rect x="24.38" y="144.73" width="37.35" height="1" style="stroke-width: 0px;"/>
        <rect x="24.38" y="220" width="37.35" height="1" style="stroke-width: 0px;"/>
        <rect x="24.38" y="295.66" width="37.35" height="1" style="stroke-width: 0px;"/>
        <path d="M94.01,69.38v1c2.37.39,5.62,1.12,8.94,2.45,8.41,3.4,13.1,8.91,13.95,16.37l.99-.11c-1.64-14.37-16.81-18.54-23.88-19.71Z" style="stroke-width: 0px;"/>
        <path d="M94.01,145.21v1c2.37.39,5.62,1.12,8.94,2.45,8.41,3.4,13.1,8.91,13.95,16.37l.99-.11c-1.64-14.37-16.81-18.54-23.88-19.71Z" style="stroke-width: 0px;"/>
        <path d="M94.01,220.47v1c2.37.39,5.62,1.12,8.94,2.45,8.41,3.4,13.1,8.91,13.95,16.37l.99-.11c-1.64-14.37-16.81-18.54-23.88-19.71Z" style="stroke-width: 0px;"/>
        <path d="M94.01,296.13v1c2.37.39,5.62,1.12,8.94,2.45,8.41,3.4,13.1,8.91,13.95,16.37l.99-.11c-1.64-14.37-16.81-18.54-23.88-19.71Z" style="stroke-width: 0px;"/>
      </g>
      <rect y="18.19" width="171.78" height="14.17" style="stroke-width: 0px;"/>
      <g>
        <line x1="149.89" y1="74.71" x2="149.89" y2="109.28" style="fill: none; stroke: #fff; stroke-miterlimit: 10; stroke-width: 2px;"/>
        <polygon points="146.5 105.3 149.89 108.69 153.28 105.3 153.28 108.17 149.89 111.56 146.5 108.17 146.5 105.3" style="fill: #fff; stroke-width: 0px;"/>
      </g>
      <g>
        <line x1="149.89" y1="150.46" x2="149.89" y2="185.02" style="fill: none; stroke: #fff; stroke-miterlimit: 10; stroke-width: 2px;"/>
        <polygon points="146.5 181.04 149.89 184.43 153.28 181.04 153.28 183.92 149.89 187.31 146.5 183.92 146.5 181.04" style="fill: #fff; stroke-width: 0px;"/>
      </g>
      <g>
        <line x1="149.89" y1="226.2" x2="149.89" y2="260.77" style="fill: none; stroke: #fff; stroke-miterlimit: 10; stroke-width: 2px;"/>
        <polygon points="146.5 256.78 149.89 260.17 153.28 256.78 153.28 259.66 149.89 263.05 146.5 259.66 146.5 256.78" style="fill: #fff; stroke-width: 0px;"/>
      </g>
      <line x1="27.26" y1="39.21" x2="27.26" y2="53.38" style="fill: none; stroke: #171717; stroke-miterlimit: 10; stroke-width: 3px;"/>
      <line x1="27.26" y1="114.46" x2="27.26" y2="128.64" style="fill: none; stroke: #171717; stroke-miterlimit: 10; stroke-width: 3px;"/>
      <line x1="27.26" y1="189.38" x2="27.26" y2="203.56" style="fill: none; stroke: #171717; stroke-miterlimit: 10; stroke-width: 3px;"/>
      <line x1="27.26" y1="264.84" x2="27.26" y2="279.01" style="fill: none; stroke: #171717; stroke-miterlimit: 10; stroke-width: 3px;"/>
      <path d="M18.76,165.4v17.01h17.01v-17.01h-17.01ZM27.58,175.45h-.46l1.5,4.53-2.1.7-1.99-5.98c-.11-.34-.05-.71.15-.99s.54-.46.9-.46h1.99c1.12,0,2.03-.97,2.03-2.17s-.91-2.17-2.03-2.17-2.03.97-2.03,2.17h-2.21c0-2.41,1.9-4.37,4.23-4.37s4.23,1.96,4.23,4.37-1.9,4.37-4.23,4.37Z" style="fill: #5da8e5; stroke-width: 0px;"/>
      <g>
        <ellipse cx="26.94" cy="95.34" rx="2.03" ry="1.63" style="fill: #5da8e5; stroke-width: 0px;"/>
        <path d="M18.76,90.04v17.01h17.01v-17.01h-17.01ZM31.18,95.87v9.25h-2.21v-6.44c-.6.3-1.29.49-2.03.49-2.33,0-4.23-1.72-4.23-3.84s1.9-3.84,4.23-3.84,4.23,1.72,4.23,3.84c0,.18-.03.36-.06.54h.06Z" style="fill: #5da8e5; stroke-width: 0px;"/>
      </g>
      <g>
        <ellipse cx="27.29" cy="328.2" rx="1.9" ry="1.27" style="fill: #5da8e5; stroke-width: 0px;"/>
        <path d="M18.76,316.12v17.01h17.01v-17.01h-17.01ZM31.4,328.2c0,1.92-1.84,3.48-4.11,3.48s-4.11-1.56-4.11-3.48c0-1.01.51-1.91,1.32-2.54-1.99-2.35-1.39-7.21-1.31-7.76l2.19.3c-.23,1.71-.22,4.86.82,6.05.29.33.62.48,1.09.48s.8-.15,1.09-.48c1.17-1.34.98-4.9.82-6.05l2.19-.3c.08.55.68,5.41-1.31,7.76.81.64,1.32,1.53,1.32,2.54Z" style="fill: #5da8e5; stroke-width: 0px;"/>
      </g>
      <path d="M18.76,240.76v17.01h17.01v-17.01h-17.01ZM31.49,250.72c0,1.8-1.6,3.3-3.66,3.54l.79.82-1.59,1.53-2.56-2.66c-.31-.32-.39-.79-.22-1.2.17-.41.57-.67,1.02-.67h1.99c1.1,0,2.03-.62,2.03-1.36s-.93-1.36-2.03-1.36h-1.99v-2.21h1.99c1.1,0,2.03-.62,2.03-1.36s-.93-1.36-2.03-1.36-2.03.62-2.03,1.36h-2.21c0-1.97,1.9-3.57,4.23-3.57s4.23,1.6,4.23,3.57c0,.96-.45,1.82-1.18,2.46.73.64,1.18,1.51,1.18,2.46Z" style="fill: #5da8e5; stroke-width: 0px;"/>
      <g>
        <g>
          <path d="M68.68,74.62h-13.36v13.46c10.4-1.03,12.84-10.45,13.36-13.46Z" style="stroke-width: 0px;"/>
          <path d="M56.14,91.61h16.17v-16.99h0c-.44,2.87-3.1,15.45-16.17,16.99Z" style="stroke-width: 0px;"/>
        </g>
        <g>
          <polygon points="97.22 74.6 82.7 89.08 82.7 74.6 97.22 74.6" style="stroke-width: 0px;"/>
          <polygon points="99.89 77.11 99.89 91.59 85.38 91.59 99.89 77.11" style="stroke-width: 0px;"/>
        </g>
      </g>
      <g>
        <g>
          <path d="M68.68,150.33h-13.36v13.46c10.4-1.03,12.84-10.45,13.36-13.46Z" style="stroke-width: 0px;"/>
          <path d="M56.14,167.32h16.17v-16.99h0c-.44,2.87-3.1,15.45-16.17,16.99Z" style="stroke-width: 0px;"/>
        </g>
        <g>
          <polygon points="97.22 150.31 82.7 164.8 82.7 150.31 97.22 150.31" style="stroke-width: 0px;"/>
          <polygon points="99.89 152.82 99.89 167.3 85.38 167.3 99.89 152.82" style="stroke-width: 0px;"/>
        </g>
      </g>
      <g>
        <g>
          <path d="M68.68,301.76h-13.36v13.46c10.4-1.03,12.84-10.45,13.36-13.46Z" style="stroke-width: 0px;"/>
          <path d="M56.14,318.75h16.17v-16.99h0c-.44,2.87-3.1,15.45-16.17,16.99Z" style="stroke-width: 0px;"/>
        </g>
        <g>
          <polygon points="97.22 301.74 82.7 316.22 82.7 301.74 97.22 301.74" style="stroke-width: 0px;"/>
          <polygon points="99.89 304.25 99.89 318.73 85.38 318.73 99.89 304.25" style="stroke-width: 0px;"/>
        </g>
      </g>
      <g>
        <g>
          <path d="M68.68,226.04h-13.36v13.46c10.4-1.03,12.84-10.45,13.36-13.46Z" style="stroke-width: 0px;"/>
          <path d="M56.14,243.04h16.17v-16.99h0c-.44,2.87-3.1,15.45-16.17,16.99Z" style="stroke-width: 0px;"/>
        </g>
        <g>
          <polygon points="97.22 226.03 82.7 240.51 82.7 226.03 97.22 226.03" style="stroke-width: 0px;"/>
          <polygon points="99.89 228.53 99.89 243.02 85.38 243.02 99.89 228.53" style="stroke-width: 0px;"/>
        </g>
      </g>
    </g>
  </g>
  <g id="components">
    <circle id="Ch4_GreenRedLight" data-name="Ch4#GreenRedLight" cx="149.89" cy="314.87" r="4.96" style="fill: #f0f; stroke-width: 0px;"/>
    <circle id="Ch3_GreenRedLight" data-name="Ch3#GreenRedLight" cx="149.89" cy="239.33" r="4.96" style="fill: #f0f; stroke-width: 0px;"/>
    <circle id="Ch2_GreenRedLight" data-name="Ch2#GreenRedLight" cx="149.89" cy="163.79" r="4.96" style="fill: #f0f; stroke-width: 0px;"/>
    <circle id="Ch1_GreenRedLight" data-name="Ch1#GreenRedLight" cx="149.89" cy="88.24" r="4.96" style="fill: #f0f; stroke-width: 0px;"/>
    <circle id="Ch4_Out" data-name="Ch4 Out" cx="149.89" cy="277.17" r="11.34" style="fill: blue; stroke-width: 0px;"/>
    <circle id="Ch3_Out" data-name="Ch3 Out" cx="149.89" cy="201.63" r="11.34" style="fill: blue; stroke-width: 0px;"/>
    <circle id="Ch2_Out" data-name="Ch2 Out" cx="149.89" cy="126.09" r="11.34" style="fill: blue; stroke-width: 0px;"/>
    <circle id="Ch1_Out" data-name="Ch1 Out" cx="149.89" cy="50.54" r="11.34" style="fill: blue; stroke-width: 0px;"/>
    <circle id="Ch4_CV" data-name="Ch4 CV" cx="117.32" cy="314.87" r="11.34" style="fill: lime; stroke-width: 0px;"/>
    <circle id="Ch3_CV" data-name="Ch3 CV" cx="117.32" cy="239.33" r="11.34" style="fill: lime; stroke-width: 0px;"/>
    <circle id="Ch2_CV" data-name="Ch2 CV" cx="117.32" cy="163.79" r="11.34" style="fill: lime; stroke-width: 0px;"/>
    <circle id="Ch1_CV" data-name="Ch1 CV" cx="117.32" cy="88.24" r="11.34" style="fill: lime; stroke-width: 0px;"/>
    <circle id="Ch4_In" data-name="Ch4 In" cx="117.32" cy="277.17" r="11.34" style="fill: lime; stroke-width: 0px;"/>
    <circle id="Ch3_In" data-name="Ch3 In" cx="117.32" cy="201.63" r="11.34" style="fill: lime; stroke-width: 0px;"/>
    <circle id="Ch2_In" data-name="Ch2 In" cx="117.32" cy="126.09" r="11.34" style="fill: lime; stroke-width: 0px;"/>
    <circle id="Ch1_In" data-name="Ch1 In" cx="117.32" cy="50.54" r="11.34" style="fill: lime; stroke-width: 0px;"/>
    <circle id="Ch4_Response_Trimpot" data-name="Ch4 Response#Trimpot" cx="77.86" cy="288.94" r="8.5" style="fill: red; stroke-width: 0px;"/>
    <circle id="Ch3_Response_Trimpot" data-name="Ch3 Response#Trimpot" cx="77.86" cy="213.39" r="8.5" style="fill: red; stroke-width: 0px;"/>
    <circle id="Ch2_Response_Trimpot" data-name="Ch2 Response#Trimpot" cx="77.86" cy="137.85" r="8.5" style="fill: red; stroke-width: 0px;"/>
    <circle id="Ch1_Response_Trimpot" data-name="Ch1 Response#Trimpot" cx="77.86" cy="62.31" r="8.5" style="fill: red; stroke-width: 0px;"/>
    <circle id="Ch4_Gain_WhiteMediumKnob" data-name="Ch4 Gain#WhiteMediumKnob" cx="27.26" cy="296.02" r="17.01" style="fill: #ff0040; stroke-width: 0px;"/>
    <circle id="Ch3_Gain_WhiteMediumKnob" data-name="Ch3 Gain#WhiteMediumKnob" cx="27.26" cy="220.48" r="17.01" style="fill: #ff0040; stroke-width: 0px;"/>
    <circle id="Ch2_Gain_WhiteMediumKnob" data-name="Ch2 Gain#WhiteMediumKnob" cx="27.26" cy="144.94" r="17.01" style="fill: #ff0040; stroke-width: 0px;"/>
    <circle id="Ch1_Gain_WhiteMediumKnob" data-name="Ch1 Gain#WhiteMediumKnob" cx="27.26" cy="69.39" r="17.01" style="fill: #ff0040; stroke-width: 0px;"/>
    <text id="slug" transform="translate(104.96 369)" style="fill: #010101; font-family: MyriadPro-Regular, &apos;Myriad Pro&apos;; font-size: 3px;"><tspan x="0" y="0" style="letter-spacing: -.03em;">V</tspan><tspan x="1.58" y="0">eils</tspan></text>
    <text id="modulename" transform="translate(116.53 369)" style="fill: #010101; font-family: MyriadPro-Regular, &apos;Myriad Pro&apos;; font-size: 3px;"><tspan x="0" y="0" style="letter-spacing: 0em;">Q</tspan><tspan x="2.08" y="0" style="letter-spacing: 0em;">uad</tspan><tspan x="6.87" y="0" style="letter-spacing: -.04em;"> </tspan><tspan x="7.39" y="0" style="letter-spacing: 0em;">V</tspan><tspan x="9.07" y="0" style="letter-spacing: 0em;">C</tspan><tspan x="10.82" y="0">A</tspan></text>
  </g>
</svg>