<?xml version="1.0" encoding="UTF-8"?>
<svg xmlns="http://www.w3.org/2000/svg" width="40.64mm" height="130.55mm" xmlns:xlink="http://www.w3.org/1999/xlink" viewBox="0 0 115.2 370.07">
  <defs>
    <clipPath id="clippath">
      <rect x="17.72" y="112.8" width="27.8" height="25.62" style="fill: none; stroke-width: 0px;"/>
    </clipPath>
    <clipPath id="clippath-1">
      <rect x="17.72" y="112.8" width="27.8" height="25.62" style="fill: none; stroke-width: 0px;"/>
    </clipPath>
    <clipPath id="clippath-2">
      <rect x="69.26" y="112.8" width="27.8" height="25.62" style="fill: none; stroke-width: 0px;"/>
    </clipPath>
    <clipPath id="clippath-3">
      <rect x="69.26" y="112.8" width="27.8" height="25.62" style="fill: none; stroke-width: 0px;"/>
    </clipPath>
    <clipPath id="clippath-4">
      <rect x="17.72" y="155.94" width="27.8" height="25.62" style="fill: none; stroke-width: 0px;"/>
    </clipPath>
    <clipPath id="clippath-5">
      <rect x="17.72" y="155.94" width="27.8" height="25.62" style="fill: none; stroke-width: 0px;"/>
    </clipPath>
    <clipPath id="clippath-6">
      <rect x="69.26" y="155.94" width="27.8" height="25.62" style="fill: none; stroke-width: 0px;"/>
    </clipPath>
    <clipPath id="clippath-7">
      <rect x="69.26" y="155.94" width="27.8" height="25.62" style="fill: none; stroke-width: 0px;"/>
    </clipPath>
    <clipPath id="clippath-8">
      <rect x="17.72" y="26.52" width="27.8" height="25.62" style="fill: none; stroke-width: 0px;"/>
    </clipPath>
    <clipPath id="clippath-9">
      <rect x="17.72" y="26.52" width="27.8" height="25.62" style="fill: none; stroke-width: 0px;"/>
    </clipPath>
    <clipPath id="clippath-10">
      <rect x="69.26" y="26.52" width="27.8" height="25.62" style="fill: none; stroke-width: 0px;"/>
    </clipPath>
    <clipPath id="clippath-11">
      <rect x="69.26" y="26.52" width="27.8" height="25.62" style="fill: none; stroke-width: 0px;"/>
    </clipPath>
    <clipPath id="clippath-12">
      <rect x="17.72" y="69.66" width="27.8" height="25.62" style="fill: none; stroke-width: 0px;"/>
    </clipPath>
    <clipPath id="clippath-13">
      <rect x="17.72" y="69.66" width="27.8" height="25.62" style="fill: none; stroke-width: 0px;"/>
    </clipPath>
    <clipPath id="clippath-14">
      <rect x="69.26" y="69.66" width="27.8" height="25.62" style="fill: none; stroke-width: 0px;"/>
    </clipPath>
    <clipPath id="clippath-15">
      <rect x="69.26" y="69.66" width="27.8" height="25.62" style="fill: none; stroke-width: 0px;"/>
    </clipPath>
  </defs>
  <g id="faceplate">
    <g>
      <rect x=".12" y=".13" width="114.95" height="364" style="fill: #ededed; stroke-width: 0px;"/>
      <path d="M114.95.25v363.75H.25V.25h114.7M115.2,0H0v364.25h115.2V0h0Z" style="fill: #9d9d9e; stroke-width: 0px;"/>
    </g>
    <g>
      <path d="M49.4,18.07c-.37,0-.71-.17-.97-.47-.51-.6-.52-1.54-.04-2.16l6.97-8.88c.38-.48,1.05-.65,1.57-.39.5.25.79.82.79,1.45v4.77l4.64-5.85c.38-.48,1.01-.64,1.53-.38.5.25.83.81.83,1.44v8.82c0,.86-.61,1.57-1.36,1.57s-1.36-.7-1.36-1.57v-4.79l-4.64,5.85c-.38.48-1.01.64-1.54.38-.5-.24-.83-.81-.83-1.44v-4.67l-4.61,5.8c-.26.32-.62.51-1,.51h0Z" style="fill: #2cabe1; stroke-width: 0px;"/>
      <path d="M49.4,18.07c-.75,0-1.35-.7-1.35-1.57v-4.93l-2.26,2.84c-.5.63-1.44.65-1.97.04-.51-.6-.52-1.53-.03-2.15l4.61-5.76c.26-.32.63-.5,1-.5.18,0,.37.04.54.12.5.25.82.81.82,1.44v8.89c0,.86-.61,1.57-1.36,1.57h0Z" style="fill: #ea2228; stroke-width: 0px;"/>
      <path d="M66,18.09h0c-.35,0-.68-.15-.94-.42-.76-.78-.14-1.84.29-2.3l1.95-2.36-1.26-.02c-.56-.01-1.04-.4-1.24-1-.19-.56-.07-1.21.29-1.64l3.16-3.83c.23-.28.55-.48,1.13-.47.33,0,.67.17.92.4.71.66.29,1.7-.07,2.2l-1.04,1.26,1.26.02c.56.01,1.04.4,1.24,1,.19.56.07,1.21-.29,1.64l-4.1,4.97c-.35.35-.65.55-1.3.54h0Z" style="fill: #00a650; stroke-width: 0px;"/>
    </g>
    <g id="Layer_3" data-name="Layer 3">
      <g>
        <path d="M100.35,316.21v-23.22h-21.54c-7.49,0-13.57,7.04-13.57,15.71v32.93h15.07s0,0,0,0h14.39c3.12,0,5.64-2.55,5.64-5.67v-19.84.08Z" style="fill: #000; stroke-width: 0px;"/>
        <path d="M28.23,341.15h35.2s23.15,0,23.15,0c7.35,0,13.31-7.02,13.31-15.67v-107.66l-.06-6.21c-.29-8.35-6.12-15.02-13.28-15.02H28.2c-7.17,0-12.99,6.67-13.28,15.02l-.06,6.21v46.5l.07,61.17" style="fill: none; stroke: #000; stroke-miterlimit: 10;"/>
      </g>
      <path d="M14.92,324.53v10.96c0,3.12,2.55,5.67,5.67,5.67h12.93" style="fill: none; stroke: #000; stroke-miterlimit: 10;"/>
    </g>
    <g id="Layer_4" data-name="Layer 4">
      <text transform="translate(50.47 357.3) scale(.82 1)" style="fill: #000; font-family: GillSans-Bold, &apos;Gill Sans&apos;; font-size: 11px; font-weight: 700;"><tspan x="0" y="0">FM</tspan></text>
      <text transform="translate(70.08 239.7) scale(.88 1)" style="fill: #000; font-family: GillSans-Bold, &apos;Gill Sans&apos;; font-size: 8px; font-weight: 700; letter-spacing: -.04em;"><tspan x="0" y="0">V/Oct S</tspan></text>
      <text transform="translate(73.77 287.83) scale(.88 1)" style="fill: #000; font-family: GillSans-Bold, &apos;Gill Sans&apos;; font-size: 8px; font-weight: 700; letter-spacing: -.04em;"><tspan x="0" y="0">Index</tspan></text>
      <text transform="translate(76.73 335.09) scale(.88 1)" style="fill: #fff; font-family: GillSans-Bold, &apos;Gill Sans&apos;; font-size: 8px; font-weight: 700; letter-spacing: -.04em;"><tspan x="0" y="0">Out</tspan></text>
      <text transform="translate(18.2 239.7) scale(.88 1)" style="fill: #000; font-family: GillSans-Bold, &apos;Gill Sans&apos;; font-size: 8px; font-weight: 700; letter-spacing: -.04em;"><tspan x="0" y="0">V/Oct P</tspan></text>
      <text transform="translate(25.41 287.83) scale(.88 1)" style="fill: #000; font-family: GillSans-Bold, &apos;Gill Sans&apos;; font-size: 8px; font-weight: 700; letter-spacing: -.04em;"><tspan x="0" y="0">Mix</tspan></text>
      <text transform="translate(21.65 335.09) scale(.88 1)" style="fill: #000; font-family: GillSans-Bold, &apos;Gill Sans&apos;; font-size: 8px; font-weight: 700; letter-spacing: -.04em;"><tspan x="0" y="0">Shape</tspan></text>
      <g>
        <g id="pips_-_fewest" data-name="pips - fewest">
          <g style="clip-path: url(#clippath);">
            <g style="clip-path: url(#clippath-1);">
              <path d="M37.31,115.58l.71-1.23c-1.74-.9-3.7-1.45-5.77-1.55v1.43c1.81.09,3.53.56,5.06,1.35" style="fill: #000; stroke-width: 0px;"/>
              <path d="M42.11,119.92l1.23-.71c-1.09-1.69-2.53-3.14-4.22-4.22l-.71,1.23c1.48.96,2.74,2.22,3.7,3.7" style="fill: #000; stroke-width: 0px;"/>
              <path d="M24.84,116.22l-.71-1.23c-1.69,1.09-3.14,2.53-4.22,4.22l1.23.71c.96-1.48,2.22-2.74,3.7-3.7" style="fill: #000; stroke-width: 0px;"/>
              <path d="M44.1,126.07h1.43c-.09-2.07-.64-4.03-1.55-5.77l-1.23.71c.79,1.53,1.26,3.24,1.35,5.06" style="fill: #000; stroke-width: 0px;"/>
              <path d="M30.99,114.23v-1.43c-2.07.09-4.03.64-5.77,1.55l.71,1.23c1.53-.79,3.24-1.26,5.06-1.35" style="fill: #000; stroke-width: 0px;"/>
              <path d="M21.13,133.49l-1.23.71c1.09,1.69,2.53,3.14,4.22,4.22l.71-1.23c-1.48-.96-2.74-2.22-3.7-3.7" style="fill: #000; stroke-width: 0px;"/>
              <path d="M38.41,137.19l.71,1.23c1.69-1.09,3.14-2.53,4.22-4.22l-1.23-.71c-.96,1.48-2.22,2.74-3.7,3.7" style="fill: #000; stroke-width: 0px;"/>
              <path d="M44.1,127.34c-.09,1.81-.56,3.53-1.35,5.06l1.23.71c.9-1.74,1.45-3.7,1.55-5.77h-1.43Z" style="fill: #000; stroke-width: 0px;"/>
              <path d="M19.15,127.34h-1.43c.09,2.07.64,4.03,1.55,5.77l1.23-.71c-.79-1.53-1.26-3.24-1.35-5.06" style="fill: #000; stroke-width: 0px;"/>
              <path d="M20.5,121.01l-1.23-.71c-.9,1.74-1.45,3.7-1.55,5.77h1.43c.09-1.81.56-3.53,1.35-5.06" style="fill: #000; stroke-width: 0px;"/>
            </g>
          </g>
        </g>
        <text transform="translate(19.32 146.38) scale(.88 1)" style="fill: #000; font-family: GillSans-Bold, &apos;Gill Sans&apos;; font-size: 8px; font-weight: 700; letter-spacing: -.04em;"><tspan x="0" y="0">Ratio C</tspan></text>
        <g id="pips_-_fewest-2" data-name="pips - fewest">
          <g style="clip-path: url(#clippath-2);">
            <g style="clip-path: url(#clippath-3);">
              <path d="M88.85,115.58l.71-1.23c-1.74-.9-3.7-1.45-5.77-1.55v1.43c1.81.09,3.53.56,5.06,1.35" style="fill: #000; stroke-width: 0px;"/>
              <path d="M93.65,119.92l1.23-.71c-1.09-1.69-2.53-3.14-4.22-4.22l-.71,1.23c1.48.96,2.74,2.22,3.7,3.7" style="fill: #000; stroke-width: 0px;"/>
              <path d="M76.37,116.22l-.71-1.23c-1.69,1.09-3.14,2.53-4.22,4.22l1.23.71c.96-1.48,2.22-2.74,3.7-3.7" style="fill: #000; stroke-width: 0px;"/>
              <path d="M95.63,126.07h1.43c-.09-2.07-.64-4.03-1.55-5.77l-1.23.71c.79,1.53,1.26,3.24,1.35,5.06" style="fill: #000; stroke-width: 0px;"/>
              <path d="M82.53,114.23v-1.43c-2.07.09-4.03.64-5.77,1.55l.71,1.23c1.53-.79,3.24-1.26,5.06-1.35" style="fill: #000; stroke-width: 0px;"/>
              <path d="M72.67,133.49l-1.23.71c1.09,1.69,2.53,3.14,4.22,4.22l.71-1.23c-1.48-.96-2.74-2.22-3.7-3.7" style="fill: #000; stroke-width: 0px;"/>
              <path d="M89.94,137.19l.71,1.23c1.69-1.09,3.14-2.53,4.22-4.22l-1.23-.71c-.96,1.48-2.22,2.74-3.7,3.7" style="fill: #000; stroke-width: 0px;"/>
              <path d="M95.63,127.34c-.09,1.81-.56,3.53-1.35,5.06l1.23.71c.9-1.74,1.45-3.7,1.55-5.77h-1.43Z" style="fill: #000; stroke-width: 0px;"/>
              <path d="M70.68,127.34h-1.43c.09,2.07.64,4.03,1.55,5.77l1.23-.71c-.79-1.53-1.26-3.24-1.35-5.06" style="fill: #000; stroke-width: 0px;"/>
              <path d="M72.04,121.01l-1.23-.71c-.9,1.74-1.45,3.7-1.55,5.77h1.43c.09-1.81.56-3.53,1.35-5.06" style="fill: #000; stroke-width: 0px;"/>
            </g>
          </g>
        </g>
        <text transform="translate(71.28 146.38) scale(.88 1)" style="fill: #000; font-family: GillSans-Bold, &apos;Gill Sans&apos;; font-size: 8px; font-weight: 700; letter-spacing: -.04em;"><tspan x="0" y="0">Ratio F</tspan></text>
        <g id="pips_-_fewest-3" data-name="pips - fewest">
          <g style="clip-path: url(#clippath-4);">
            <g style="clip-path: url(#clippath-5);">
              <path d="M37.31,158.72l.71-1.23c-1.74-.9-3.7-1.45-5.77-1.55v1.43c1.81.09,3.53.56,5.06,1.35" style="fill: #000; stroke-width: 0px;"/>
              <path d="M42.11,163.06l1.23-.71c-1.09-1.69-2.53-3.14-4.22-4.22l-.71,1.23c1.48.96,2.74,2.22,3.7,3.7" style="fill: #000; stroke-width: 0px;"/>
              <path d="M24.84,159.36l-.71-1.23c-1.69,1.09-3.14,2.53-4.22,4.22l1.23.71c.96-1.48,2.22-2.74,3.7-3.7" style="fill: #000; stroke-width: 0px;"/>
              <path d="M44.1,169.21h1.43c-.09-2.07-.64-4.03-1.55-5.77l-1.23.71c.79,1.53,1.26,3.24,1.35,5.06" style="fill: #000; stroke-width: 0px;"/>
              <path d="M30.99,157.37v-1.43c-2.07.09-4.03.64-5.77,1.55l.71,1.23c1.53-.79,3.24-1.26,5.06-1.35" style="fill: #000; stroke-width: 0px;"/>
              <path d="M21.13,176.63l-1.23.71c1.09,1.69,2.53,3.14,4.22,4.22l.71-1.23c-1.48-.96-2.74-2.22-3.7-3.7" style="fill: #000; stroke-width: 0px;"/>
              <path d="M38.41,180.34l.71,1.23c1.69-1.09,3.14-2.53,4.22-4.22l-1.23-.71c-.96,1.48-2.22,2.74-3.7,3.7" style="fill: #000; stroke-width: 0px;"/>
              <path d="M44.1,170.48c-.09,1.81-.56,3.53-1.35,5.06l1.23.71c.9-1.74,1.45-3.7,1.55-5.77h-1.43Z" style="fill: #000; stroke-width: 0px;"/>
              <path d="M19.15,170.48h-1.43c.09,2.07.64,4.03,1.55,5.77l1.23-.71c-.79-1.53-1.26-3.24-1.35-5.06" style="fill: #000; stroke-width: 0px;"/>
              <path d="M20.5,164.16l-1.23-.71c-.9,1.74-1.45,3.7-1.55,5.77h1.43c.09-1.81.56-3.53,1.35-5.06" style="fill: #000; stroke-width: 0px;"/>
            </g>
          </g>
        </g>
        <text transform="translate(21.55 189.52) scale(.88 1)" style="fill: #000; font-family: GillSans-Bold, &apos;Gill Sans&apos;; font-size: 8px; font-weight: 700; letter-spacing: -.04em;"><tspan x="0" y="0">Shape</tspan></text>
        <g id="pips_-_fewest-4" data-name="pips - fewest">
          <g style="clip-path: url(#clippath-6);">
            <g style="clip-path: url(#clippath-7);">
              <path d="M88.85,158.72l.71-1.23c-1.74-.9-3.7-1.45-5.77-1.55v1.43c1.81.09,3.53.56,5.06,1.35" style="fill: #000; stroke-width: 0px;"/>
              <path d="M93.65,163.06l1.23-.71c-1.09-1.69-2.53-3.14-4.22-4.22l-.71,1.23c1.48.96,2.74,2.22,3.7,3.7" style="fill: #000; stroke-width: 0px;"/>
              <path d="M76.37,159.36l-.71-1.23c-1.69,1.09-3.14,2.53-4.22,4.22l1.23.71c.96-1.48,2.22-2.74,3.7-3.7" style="fill: #000; stroke-width: 0px;"/>
              <path d="M95.63,169.21h1.43c-.09-2.07-.64-4.03-1.55-5.77l-1.23.71c.79,1.53,1.26,3.24,1.35,5.06" style="fill: #000; stroke-width: 0px;"/>
              <path d="M82.53,157.37v-1.43c-2.07.09-4.03.64-5.77,1.55l.71,1.23c1.53-.79,3.24-1.26,5.06-1.35" style="fill: #000; stroke-width: 0px;"/>
              <path d="M72.67,176.63l-1.23.71c1.09,1.69,2.53,3.14,4.22,4.22l.71-1.23c-1.48-.96-2.74-2.22-3.7-3.7" style="fill: #000; stroke-width: 0px;"/>
              <path d="M89.94,180.34l.71,1.23c1.69-1.09,3.14-2.53,4.22-4.22l-1.23-.71c-.96,1.48-2.22,2.74-3.7,3.7" style="fill: #000; stroke-width: 0px;"/>
              <path d="M95.63,170.48c-.09,1.81-.56,3.53-1.35,5.06l1.23.71c.9-1.74,1.45-3.7,1.55-5.77h-1.43Z" style="fill: #000; stroke-width: 0px;"/>
              <path d="M70.68,170.48h-1.43c.09,2.07.64,4.03,1.55,5.77l1.23-.71c-.79-1.53-1.26-3.24-1.35-5.06" style="fill: #000; stroke-width: 0px;"/>
              <path d="M72.04,164.16l-1.23-.71c-.9,1.74-1.45,3.7-1.55,5.77h1.43c.09-1.81.56-3.53,1.35-5.06" style="fill: #000; stroke-width: 0px;"/>
            </g>
          </g>
        </g>
        <text transform="translate(66.24 189.52) scale(.88 1)" style="fill: #000; font-family: GillSans-Bold, &apos;Gill Sans&apos;; font-size: 8px; font-weight: 700; letter-spacing: -.04em;"><tspan x="0" y="0">Shape CV</tspan></text>
        <g id="pips_-_fewest-5" data-name="pips - fewest">
          <g style="clip-path: url(#clippath-8);">
            <g style="clip-path: url(#clippath-9);">
              <path d="M37.31,29.3l.71-1.23c-1.74-.9-3.7-1.45-5.77-1.55v1.43c1.81.09,3.53.56,5.06,1.35" style="fill: #000; stroke-width: 0px;"/>
              <path d="M42.11,33.64l1.23-.71c-1.09-1.69-2.53-3.14-4.22-4.22l-.71,1.23c1.48.96,2.74,2.22,3.7,3.7" style="fill: #000; stroke-width: 0px;"/>
              <path d="M24.84,29.93l-.71-1.23c-1.69,1.09-3.14,2.53-4.22,4.22l1.23.71c.96-1.48,2.22-2.74,3.7-3.7" style="fill: #000; stroke-width: 0px;"/>
              <path d="M44.1,39.79h1.43c-.09-2.07-.64-4.03-1.55-5.77l-1.23.71c.79,1.53,1.26,3.24,1.35,5.06" style="fill: #000; stroke-width: 0px;"/>
              <path d="M30.99,27.95v-1.43c-2.07.09-4.03.64-5.77,1.55l.71,1.23c1.53-.79,3.24-1.26,5.06-1.35" style="fill: #000; stroke-width: 0px;"/>
              <path d="M21.13,47.21l-1.23.71c1.09,1.69,2.53,3.14,4.22,4.22l.71-1.23c-1.48-.96-2.74-2.22-3.7-3.7" style="fill: #000; stroke-width: 0px;"/>
              <path d="M38.41,50.91l.71,1.23c1.69-1.09,3.14-2.53,4.22-4.22l-1.23-.71c-.96,1.48-2.22,2.74-3.7,3.7" style="fill: #000; stroke-width: 0px;"/>
              <path d="M44.1,41.06c-.09,1.81-.56,3.53-1.35,5.06l1.23.71c.9-1.74,1.45-3.7,1.55-5.77h-1.43Z" style="fill: #000; stroke-width: 0px;"/>
              <path d="M19.15,41.06h-1.43c.09,2.07.64,4.03,1.55,5.77l1.23-.71c-.79-1.53-1.26-3.24-1.35-5.06" style="fill: #000; stroke-width: 0px;"/>
              <path d="M20.5,34.73l-1.23-.71c-.9,1.74-1.45,3.7-1.55,5.77h1.43c.09-1.81.56-3.53,1.35-5.06" style="fill: #000; stroke-width: 0px;"/>
            </g>
          </g>
        </g>
        <text transform="translate(23.1 60.1) scale(.88 1)" style="fill: #000; font-family: GillSans-Bold, &apos;Gill Sans&apos;; font-size: 8px; font-weight: 700; letter-spacing: -.04em;"><tspan x="0" y="0">Pitch</tspan></text>
        <g id="pips_-_fewest-6" data-name="pips - fewest">
          <g style="clip-path: url(#clippath-10);">
            <g style="clip-path: url(#clippath-11);">
              <path d="M88.85,29.3l.71-1.23c-1.74-.9-3.7-1.45-5.77-1.55v1.43c1.81.09,3.53.56,5.06,1.35" style="fill: #000; stroke-width: 0px;"/>
              <path d="M93.65,33.64l1.23-.71c-1.09-1.69-2.53-3.14-4.22-4.22l-.71,1.23c1.48.96,2.74,2.22,3.7,3.7" style="fill: #000; stroke-width: 0px;"/>
              <path d="M76.37,29.93l-.71-1.23c-1.69,1.09-3.14,2.53-4.22,4.22l1.23.71c.96-1.48,2.22-2.74,3.7-3.7" style="fill: #000; stroke-width: 0px;"/>
              <path d="M95.63,39.79h1.43c-.09-2.07-.64-4.03-1.55-5.77l-1.23.71c.79,1.53,1.26,3.24,1.35,5.06" style="fill: #000; stroke-width: 0px;"/>
              <path d="M82.53,27.95v-1.43c-2.07.09-4.03.64-5.77,1.55l.71,1.23c1.53-.79,3.24-1.26,5.06-1.35" style="fill: #000; stroke-width: 0px;"/>
              <path d="M72.67,47.21l-1.23.71c1.09,1.69,2.53,3.14,4.22,4.22l.71-1.23c-1.48-.96-2.74-2.22-3.7-3.7" style="fill: #000; stroke-width: 0px;"/>
              <path d="M89.94,50.91l.71,1.23c1.69-1.09,3.14-2.53,4.22-4.22l-1.23-.71c-.96,1.48-2.22,2.74-3.7,3.7" style="fill: #000; stroke-width: 0px;"/>
              <path d="M95.63,41.06c-.09,1.81-.56,3.53-1.35,5.06l1.23.71c.9-1.74,1.45-3.7,1.55-5.77h-1.43Z" style="fill: #000; stroke-width: 0px;"/>
              <path d="M70.68,41.06h-1.43c.09,2.07.64,4.03,1.55,5.77l1.23-.71c-.79-1.53-1.26-3.24-1.35-5.06" style="fill: #000; stroke-width: 0px;"/>
              <path d="M72.04,34.73l-1.23-.71c-.9,1.74-1.45,3.7-1.55,5.77h1.43c.09-1.81.56-3.53,1.35-5.06" style="fill: #000; stroke-width: 0px;"/>
            </g>
          </g>
        </g>
        <text transform="translate(76.84 60.1) scale(.88 1)" style="fill: #000; font-family: GillSans-Bold, &apos;Gill Sans&apos;; font-size: 8px; font-weight: 700; letter-spacing: -.04em;"><tspan x="0" y="0">Mix</tspan></text>
        <g id="pips_-_fewest-7" data-name="pips - fewest">
          <g style="clip-path: url(#clippath-12);">
            <g style="clip-path: url(#clippath-13);">
              <path d="M37.31,72.44l.71-1.23c-1.74-.9-3.7-1.45-5.77-1.55v1.43c1.81.09,3.53.56,5.06,1.35" style="fill: #000; stroke-width: 0px;"/>
              <path d="M42.11,76.78l1.23-.71c-1.09-1.69-2.53-3.14-4.22-4.22l-.71,1.23c1.48.96,2.74,2.22,3.7,3.7" style="fill: #000; stroke-width: 0px;"/>
              <path d="M24.84,73.08l-.71-1.23c-1.69,1.09-3.14,2.53-4.22,4.22l1.23.71c.96-1.48,2.22-2.74,3.7-3.7" style="fill: #000; stroke-width: 0px;"/>
              <path d="M44.1,82.93h1.43c-.09-2.07-.64-4.03-1.55-5.77l-1.23.71c.79,1.53,1.26,3.24,1.35,5.06" style="fill: #000; stroke-width: 0px;"/>
              <path d="M30.99,71.09v-1.43c-2.07.09-4.03.64-5.77,1.55l.71,1.23c1.53-.79,3.24-1.26,5.06-1.35" style="fill: #000; stroke-width: 0px;"/>
              <path d="M21.13,90.35l-1.23.71c1.09,1.69,2.53,3.14,4.22,4.22l.71-1.23c-1.48-.96-2.74-2.22-3.7-3.7" style="fill: #000; stroke-width: 0px;"/>
              <path d="M38.41,94.05l.71,1.23c1.69-1.09,3.14-2.53,4.22-4.22l-1.23-.71c-.96,1.48-2.22,2.74-3.7,3.7" style="fill: #000; stroke-width: 0px;"/>
              <path d="M44.1,84.2c-.09,1.81-.56,3.53-1.35,5.06l1.23.71c.9-1.74,1.45-3.7,1.55-5.77h-1.43Z" style="fill: #000; stroke-width: 0px;"/>
              <path d="M19.15,84.2h-1.43c.09,2.07.64,4.03,1.55,5.77l1.23-.71c-.79-1.53-1.26-3.24-1.35-5.06" style="fill: #000; stroke-width: 0px;"/>
              <path d="M20.5,77.87l-1.23-.71c-.9,1.74-1.45,3.7-1.55,5.77h1.43c.09-1.81.56-3.53,1.35-5.06" style="fill: #000; stroke-width: 0px;"/>
            </g>
          </g>
        </g>
        <text transform="translate(22.14 103.24) scale(.88 1)" style="fill: #000; font-family: GillSans-Bold, &apos;Gill Sans&apos;; font-size: 8px; font-weight: 700; letter-spacing: -.04em;"><tspan x="0" y="0">Index</tspan></text>
        <g id="pips_-_fewest-8" data-name="pips - fewest">
          <g style="clip-path: url(#clippath-14);">
            <g style="clip-path: url(#clippath-15);">
              <path d="M88.85,72.44l.71-1.23c-1.74-.9-3.7-1.45-5.77-1.55v1.43c1.81.09,3.53.56,5.06,1.35" style="fill: #000; stroke-width: 0px;"/>
              <path d="M93.65,76.78l1.23-.71c-1.09-1.69-2.53-3.14-4.22-4.22l-.71,1.23c1.48.96,2.74,2.22,3.7,3.7" style="fill: #000; stroke-width: 0px;"/>
              <path d="M76.37,73.08l-.71-1.23c-1.69,1.09-3.14,2.53-4.22,4.22l1.23.71c.96-1.48,2.22-2.74,3.7-3.7" style="fill: #000; stroke-width: 0px;"/>
              <path d="M95.63,82.93h1.43c-.09-2.07-.64-4.03-1.55-5.77l-1.23.71c.79,1.53,1.26,3.24,1.35,5.06" style="fill: #000; stroke-width: 0px;"/>
              <path d="M82.53,71.09v-1.43c-2.07.09-4.03.64-5.77,1.55l.71,1.23c1.53-.79,3.24-1.26,5.06-1.35" style="fill: #000; stroke-width: 0px;"/>
              <path d="M72.67,90.35l-1.23.71c1.09,1.69,2.53,3.14,4.22,4.22l.71-1.23c-1.48-.96-2.74-2.22-3.7-3.7" style="fill: #000; stroke-width: 0px;"/>
              <path d="M89.94,94.05l.71,1.23c1.69-1.09,3.14-2.53,4.22-4.22l-1.23-.71c-.96,1.48-2.22,2.74-3.7,3.7" style="fill: #000; stroke-width: 0px;"/>
              <path d="M95.63,84.2c-.09,1.81-.56,3.53-1.35,5.06l1.23.71c.9-1.74,1.45-3.7,1.55-5.77h-1.43Z" style="fill: #000; stroke-width: 0px;"/>
              <path d="M70.68,84.2h-1.43c.09,2.07.64,4.03,1.55,5.77l1.23-.71c-.79-1.53-1.26-3.24-1.35-5.06" style="fill: #000; stroke-width: 0px;"/>
              <path d="M72.04,77.87l-1.23-.71c-.9,1.74-1.45,3.7-1.55,5.77h1.43c.09-1.81.56-3.53,1.35-5.06" style="fill: #000; stroke-width: 0px;"/>
            </g>
          </g>
        </g>
        <text transform="translate(67.78 103.24) scale(.88 1)" style="fill: #000; font-family: GillSans-Bold, &apos;Gill Sans&apos;; font-size: 8px; font-weight: 700; letter-spacing: -.04em;"><tspan x="0" y="0">Index CV</tspan></text>
      </g>
    </g>
  </g>
  <g id="components">
    <circle id="Out" cx="83.37" cy="311.88" r="11.34" style="fill: blue; stroke-width: 0px;"/>
    <circle id="Shape_CV" data-name="Shape CV" cx="31.83" cy="311.88" r="11.34" style="fill: lime; stroke-width: 0px;"/>
    <circle id="Index_CV_In" data-name="Index CV In" cx="83.37" cy="263.15" r="11.34" style="fill: lime; stroke-width: 0px;"/>
    <circle id="Mix_CV" data-name="Mix CV" cx="31.83" cy="263.15" r="11.34" style="fill: lime; stroke-width: 0px;"/>
    <circle id="V_Oct_S" data-name="V/Oct S" cx="83.37" cy="214.43" r="11.34" style="fill: lime; stroke-width: 0px;"/>
    <circle id="V_Oct_P" data-name="V/Oct P" cx="31.83" cy="214.43" r="11.34" style="fill: lime; stroke-width: 0px;"/>
    <circle id="Shape_CV-2" data-name="Shape CV" cx="83.37" cy="169.63" r="8.5" style="fill: red; stroke-width: 0px;"/>
    <circle id="Shape" cx="31.83" cy="169.63" r="8.5" style="fill: red; stroke-width: 0px;"/>
    <circle id="Ratio_F" data-name="Ratio F" cx="83.37" cy="126.49" r="8.5" style="fill: red; stroke-width: 0px;"/>
    <circle id="Ratio_C" data-name="Ratio C" cx="31.83" cy="126.49" r="8.5" style="fill: red; stroke-width: 0px;"/>
    <circle id="Index_CV" data-name="Index CV" cx="83.37" cy="83.35" r="8.5" style="fill: red; stroke-width: 0px;"/>
    <circle id="Index" cx="31.83" cy="83.35" r="8.5" style="fill: red; stroke-width: 0px;"/>
    <circle id="Mix" cx="83.37" cy="40.21" r="8.5" style="fill: red; stroke-width: 0px;"/>
    <circle id="Pitch" cx="31.83" cy="40.21" r="8.5" style="fill: red; stroke-width: 0px;"/>
    <text id="slug" transform="translate(83.96 369.32)" style="fill: #000; font-family: MyriadPro-Regular, &apos;Myriad Pro&apos;; font-size: 3px;"><tspan x="0" y="0" style="letter-spacing: -.02em;">F</tspan><tspan x="1.41" y="0">M</tspan></text>
    <text id="modulename" transform="translate(97.28 369.32)" style="fill: #000; font-family: MyriadPro-Regular, &apos;Myriad Pro&apos;; font-size: 3px;"><tspan x="0" y="0" style="letter-spacing: -.02em;">F</tspan><tspan x="1.41" y="0">M Oscill</tspan><tspan x="11.17" y="0" style="letter-spacing: 0em;">at</tspan><tspan x="13.58" y="0" style="letter-spacing: 0em;">or</tspan></text>
  </g>
</svg>