<?xml version="1.0" encoding="UTF-8"?>
<svg xmlns="http://www.w3.org/2000/svg" width="30.57mm" height="131.95mm" viewBox="0 0 86.65 374.04">
  <g id="faceplate">
    <rect x=".12" y=".12" width="86.4" height="364.25" style="fill: #ededed; stroke: #9d9d9e; stroke-miterlimit: 10; stroke-width: .25px;"/>
    <path d="m70.03,333.54H16.63c-6.48,0-11.73-6.8-11.73-14.3s5.25-14.3,11.73-14.3h53.4c6.48,0,11.73,6.8,11.73,14.3s-5.25,14.3-11.73,14.3" style="fill: #171717;"/>
    <path d="m43.18,208.02c-.83,0-1.65.07-2.45.17l-.39-2.21c.93-.12,1.88-.19,2.85-.19s1.91.07,2.84.19l-.39,2.21c-.81-.1-1.62-.17-2.45-.17" style="fill: #171717;"/>
    <path d="m28.68,214.39l-1.73-1.45c1.28-1.4,2.74-2.63,4.34-3.66l1.12,1.94c-1.38.9-2.62,1.96-3.73,3.16" style="fill: #171717;"/>
    <path d="m34.15,210.22l-1.12-1.94c1.67-.87,3.46-1.53,5.34-1.96l.39,2.21c-1.62.37-3.16.94-4.6,1.69" style="fill: #171717;"/>
    <path d="m24.95,220.16l-2.1-.76c.73-1.76,1.69-3.42,2.83-4.92l1.73,1.45c-.98,1.3-1.82,2.71-2.46,4.23" style="fill: #171717;"/>
    <path d="m47.6,208.53l.39-2.21c1.88.42,3.67,1.08,5.34,1.96l-1.12,1.94c-1.44-.74-2.99-1.31-4.6-1.69" style="fill: #171717;"/>
    <path d="m23.46,226.85h-2.26c.08-1.93.41-3.8.96-5.58l2.11.77c-.47,1.53-.73,3.15-.81,4.81" style="fill: #171717;"/>
    <path d="m24.32,233.65l-2.1.77c-.57-1.79-.91-3.66-1.01-5.56h2.23c.09,1.65.39,3.25.88,4.8" style="fill: #171717;"/>
    <path d="m27.46,239.73l-1.71,1.44c-1.15-1.5-2.11-3.14-2.84-4.88l2.1-.77c.64,1.5,1.47,2.91,2.45,4.2" style="fill: #171717;"/>
    <path d="m58.95,215.92l1.73-1.45c1.14,1.5,2.1,3.15,2.83,4.91l-2.1.76c-.64-1.52-1.48-2.93-2.46-4.23" style="fill: #171717;"/>
    <path d="m62.08,222.04l2.11-.77c.55,1.78.88,3.65.96,5.58h-2.26c-.08-1.66-.34-3.28-.81-4.81" style="fill: #171717;"/>
    <path d="m62.9,228.85h2.23c-.09,1.91-.44,3.78-1.01,5.56l-2.1-.76c.48-1.54.78-3.15.88-4.8" style="fill: #171717;"/>
    <path d="m61.34,235.53l2.1.77c-.73,1.74-1.69,3.38-2.84,4.88l-1.72-1.44c.99-1.3,1.81-2.71,2.45-4.2" style="fill: #171717;"/>
    <path d="m32.48,244.37l-1.12,1.93c-1.6-1.03-3.05-2.25-4.32-3.62l1.71-1.44c1.1,1.18,2.34,2.23,3.73,3.12" style="fill: #171717;"/>
    <path d="m57.6,241.25l1.71,1.44c-1.27,1.37-2.71,2.59-4.32,3.62l-1.12-1.93c1.38-.89,2.62-1.94,3.73-3.12" style="fill: #171717;"/>
    <path d="m53.93,211.22l1.12-1.94c1.6,1.03,3.06,2.26,4.34,3.66l-1.73,1.45c-1.11-1.2-2.36-2.27-3.74-3.17" style="fill: #171717;"/>
    <path d="m76.01,88.88c.51,0,.92.16,1.24.48.32.32.48.74.48,1.25,0,.35-.08.65-.24.91-.16.26-.39.46-.71.61.17.1.33.25.46.43.13.18.3.49.5.92.33.74.57,1.26.73,1.54h-1.16c-.08-.14-.19-.35-.32-.65-.3-.65-.52-1.09-.66-1.32-.14-.23-.27-.39-.4-.48-.13-.09-.28-.14-.44-.14h-.38v2.59h-1.04v-6.14h1.94Zm-.24,2.62c.27,0,.49-.08.64-.23.15-.16.23-.37.23-.64s-.08-.49-.23-.63c-.15-.14-.38-.21-.66-.21h-.65v1.71h.67Z" style="fill: #171717;"/>
    <polygon points="9.99 88.88 9.99 94.09 12.61 94.09 12.61 95.02 8.95 95.02 8.95 88.88 9.99 88.88" style="fill: #171717;"/>
    <path d="m39.79,92.29c-.12.05-.22.09-.3.12-.08.03-.16.06-.24.09-.08.03-.19.06-.33.1-.24.07-.49.11-.73.15-.24.03-.5.05-.77.05-.54,0-1.05-.11-1.51-.34-.46-.23-.83-.58-1.11-1.05-.28-.47-.42-1.06-.42-1.75,0-.45.07-.88.22-1.31.14-.43.36-.77.65-1.03.24-.21.49-.38.74-.49.25-.11.49-.19.73-.23.24-.04.5-.06.78-.06.47,0,.86.04,1.17.12.31.08.64.19,1.01.32v1.44c-.24-.16-.5-.3-.77-.4-.27-.11-.61-.16-1.01-.16-.47,0-.84.1-1.12.3-.28.2-.47.44-.58.72-.11.28-.16.55-.16.81,0,.31.06.59.19.85.13.26.32.47.57.62.25.16.56.23.92.23.21,0,.42-.03.66-.09v-.72h-.73v-1.23h2.14v2.93Z" style="fill: #171717;"/>
    <path d="m44.6,92.49c-.2.09-.39.17-.56.22-.17.05-.38.08-.62.08s-.39-.05-.48-.14c-.09-.09-.16-.2-.19-.34-.15.14-.32.25-.5.34-.18.09-.42.13-.72.13s-.52-.06-.69-.17c-.18-.11-.3-.26-.37-.43-.07-.17-.11-.35-.11-.53,0-.27.06-.5.18-.68.12-.18.29-.33.49-.44.21-.11.48-.23.82-.36.19-.07.34-.12.44-.16.1-.04.17-.07.22-.09.05-.02.1-.05.15-.08,0-.22-.04-.39-.12-.51-.08-.12-.24-.19-.5-.19-.31,0-.59.08-.85.23-.26.15-.5.35-.72.59v-1.21c.17-.14.36-.26.56-.35.2-.09.41-.16.63-.2.22-.04.44-.07.67-.07.57,0,1,.12,1.29.38.29.25.43.6.43,1.03v1.73c0,.16.01.29.04.37.03.08.08.12.15.12.09,0,.21-.04.35-.13v.83Zm-1.94-.86v-1.06c-.33.15-.57.29-.72.41-.15.12-.23.29-.23.49,0,.15.04.26.11.34.08.08.16.12.26.12.1,0,.19-.03.28-.09.1-.06.19-.13.29-.22" style="fill: #171717;"/>
    <path d="m46.19,92.72h-1.4v-4.47h1.4v4.47Zm-.11-5.51c0,.18-.06.34-.17.47-.12.13-.25.19-.41.19-.11,0-.21-.03-.3-.09-.09-.06-.16-.14-.21-.24-.05-.1-.08-.21-.08-.34,0-.18.06-.34.17-.47.11-.13.25-.2.41-.2s.3.07.41.2c.12.13.17.29.17.47" style="fill: #171717;"/>
    <path d="m51.03,92.72h-1.39v-2.41c0-.25-.03-.46-.11-.64-.07-.18-.23-.27-.47-.27-.11,0-.21.02-.3.07-.09.05-.16.11-.23.19-.07.08-.12.15-.17.22-.05.07-.09.15-.14.22v2.63h-1.39v-4.47h1.39v.64c.22-.27.44-.45.66-.56.22-.11.47-.16.74-.16.94,0,1.42.64,1.42,1.92v2.63Z" style="fill: #171717;"/>
    <polygon points="37.43 259.32 33.36 259.32 33.36 253.23 34.97 253.23 34.97 257.86 37.43 257.86 37.43 259.32" style="fill: #171717;"/>
    <path d="m41.86,257.46h-2.77c.05.27.19.49.4.67.21.17.45.26.72.26.47,0,.99-.15,1.56-.45v.98c-.2.12-.45.23-.74.33-.29.1-.66.15-1.11.15-.48,0-.9-.1-1.24-.31-.34-.21-.6-.48-.76-.83-.17-.35-.25-.75-.25-1.19s.08-.83.25-1.18.42-.62.76-.82c.34-.2.75-.3,1.24-.3.32,0,.63.08.93.23.3.16.54.41.74.77.19.36.29.82.29,1.38v.32Zm-1.31-.78c0-.29-.06-.52-.19-.69-.12-.17-.31-.26-.54-.26s-.42.09-.56.26c-.14.18-.22.4-.22.68h1.5Z" style="fill: #171717;"/>
    <polygon points="46.38 254.84 44.59 259.32 43.56 259.32 41.81 254.84 43.3 254.84 44.12 257.19 45.02 254.84 46.38 254.84" style="fill: #171717;"/>
    <path d="m50.57,257.46h-2.77c.06.27.19.49.4.67.21.17.45.26.72.26.47,0,.99-.15,1.55-.45v.98c-.2.12-.45.23-.74.33-.29.1-.66.15-1.11.15-.49,0-.9-.1-1.24-.31-.34-.21-.6-.48-.76-.83-.17-.35-.25-.75-.25-1.19s.08-.83.25-1.18c.17-.35.42-.62.76-.82.34-.2.75-.3,1.24-.3.32,0,.63.08.93.23.3.16.54.41.74.77.19.36.29.82.29,1.38v.32Zm-1.31-.78c0-.29-.06-.52-.19-.69-.12-.17-.31-.26-.54-.26s-.42.09-.56.26c-.14.18-.22.4-.22.68h1.51Z" style="fill: #171717;"/>
    <rect x="51" y="253.23" width="1.4" height="6.09" style="fill: #171717;"/>
    <polygon points="58.21 81.2 58.91 82.2 59.58 81.2 60.47 81.2 59.34 82.77 60.56 84.39 59.67 84.39 58.91 83.34 58.19 84.39 57.32 84.39 58.49 82.77 57.32 81.2 58.21 81.2" style="fill: #171717;"/>
    <path d="m61.69,79.56c.39,0,.7.11.94.33.24.22.36.51.36.87,0,.49-.2.86-.59,1.09.22.09.39.24.51.45.11.21.17.45.17.74,0,.42-.13.77-.39,1.03-.26.26-.6.39-1.03.39-.33,0-.66-.09-.97-.27v-.84c.17.13.33.22.47.28.14.06.29.09.44.09.2,0,.36-.06.48-.19.12-.12.19-.29.19-.49,0-.22-.07-.4-.21-.54-.14-.13-.33-.2-.57-.2h-.05v-.74h.04c.23,0,.4-.06.53-.17.13-.11.19-.27.19-.46s-.06-.34-.18-.46c-.12-.11-.28-.17-.47-.17-.24,0-.49.07-.75.22v-.75c.26-.14.56-.21.89-.21" style="fill: #171717;"/>
    <path d="m64.96,79.56c.43,0,.76.22,1.01.65.25.43.37,1.03.37,1.78s-.12,1.36-.37,1.8c-.25.44-.58.66-1.01.66s-.78-.22-1.03-.65c-.25-.44-.38-1.03-.38-1.79s.13-1.35.38-1.79c.25-.44.59-.66,1.02-.66m-.62,2.48c0,1.09.2,1.64.62,1.64s.6-.57.6-1.72c0-1.07-.2-1.61-.61-1.61s-.61.57-.61,1.69" style="fill: #171717;"/>
    <rect x="23.26" y="81.84" width="2" height="1.04" style="fill: #171717;"/>
    <path d="m28.13,82.39c-.41.46-.83.96-1.47.96s-1.14-.56-1.14-1.33c0-.71.51-1.33,1.2-1.33.59,0,1.02.53,1.4.96.4-.46.82-.96,1.46-.96.67,0,1.14.56,1.14,1.33,0,.71-.51,1.33-1.2,1.33-.59,0-1.02-.53-1.4-.96m-.32-.37c-.31-.32-.63-.79-1.09-.79-.4,0-.7.37-.7.79,0,.46.28.79.67.79.45,0,.82-.44,1.12-.79m2.42,0c0-.46-.29-.79-.67-.79-.45,0-.81.44-1.12.79.31.32.63.79,1.09.79.4,0,.7-.37.7-.79" style="fill: #171717;"/>
    <path d="m58.73,245.49c.43,0,.76.22,1.01.65.25.43.37,1.03.37,1.78s-.12,1.36-.37,1.8c-.25.44-.58.66-1.01.66s-.78-.22-1.03-.65c-.25-.44-.38-1.04-.38-1.79s.13-1.36.38-1.79c.25-.44.59-.66,1.02-.66m-.62,2.48c0,1.09.2,1.64.62,1.64s.6-.57.6-1.72c0-1.07-.2-1.61-.61-1.61s-.61.56-.61,1.69" style="fill: #171717;"/>
    <path d="m62.37,247.21v-1.65h.74v4.78h-1.3c-.45,0-.81-.15-1.08-.44-.27-.29-.4-.69-.4-1.2,0-.3.06-.57.19-.82.13-.25.3-.44.52-.58.22-.14.46-.21.71-.21.2,0,.4.04.63.13m-.39,2.48h.39v-1.85c-.15-.09-.31-.13-.47-.13-.25,0-.44.09-.59.26-.15.18-.22.41-.22.69,0,.69.3,1.03.9,1.03" style="fill: #171717;"/>
    <path d="m65.23,245.55c.39,0,.7.11.94.34.24.23.36.51.36.86,0,.22-.05.41-.15.58-.1.17-.25.3-.44.4v.04c.29.07.52.22.68.45s.25.48.25.78c0,.26-.06.5-.18.71-.12.21-.29.36-.5.47-.21.11-.46.16-.75.16h-1.76v-4.78h1.54Zm-.21,1.98c.21,0,.38-.06.51-.17.12-.12.19-.28.19-.49,0-.18-.06-.33-.17-.44-.11-.11-.26-.16-.45-.16h-.58v1.26h.51Zm.19,2.07c.27,0,.48-.06.62-.18.14-.12.21-.29.21-.52,0-.2-.07-.36-.21-.48-.14-.12-.33-.18-.56-.18h-.76v1.35h.7Z" style="fill: #171717;"/>
    <rect x="22.68" y="247.92" width="2" height="1.04" style="fill: #171717;"/>
    <path d="m27.56,248.47c-.41.46-.82.96-1.47.96s-1.14-.56-1.14-1.33c0-.71.51-1.33,1.2-1.33.59,0,1.02.53,1.4.96.4-.46.82-.96,1.46-.96.67,0,1.14.56,1.14,1.33,0,.71-.51,1.33-1.2,1.33-.59,0-1.02-.53-1.4-.96m-.32-.37c-.31-.32-.63-.79-1.09-.79-.4,0-.7.37-.7.79,0,.46.28.79.67.79.45,0,.82-.44,1.12-.79m2.42,0c0-.46-.29-.79-.67-.79-.45,0-.82.44-1.12.79.31.32.63.79,1.09.79.4,0,.7-.37.7-.79" style="fill: #171717;"/>
    <path d="m64.92,9.44s-4.37,5.56-6.92,8.79v-7.53c0-.65-.32-1.22-.81-1.47-.49-.24-1.05-.1-1.41.37l-9.09,11.56c-.49.63-.48,1.63.04,2.24.51.6,1.33.59,1.82-.04,0,0,4.34-5.51,6.87-8.73v7.53c0,.64.32,1.23.81,1.47.49.24,1.05.1,1.41-.37,0,0,4.37-5.56,6.91-8.79v7.69c0,.88.57,1.58,1.29,1.58s1.29-.71,1.29-1.58v-11.61c0-.65-.32-1.23-.81-1.47-.49-.24-1.04-.1-1.41.37" style="fill: #171717;"/>
    <path d="m47.62,24.32c-.48,0-.93-.22-1.26-.61-.67-.78-.69-2.03-.05-2.85l9.09-11.56c.5-.64,1.31-.85,2-.5.65.33,1.07,1.07,1.07,1.9v6.14l6.06-7.7c.51-.64,1.32-.84,2-.5.65.32,1.08,1.07,1.08,1.9v11.61c0,1.14-.79,2.07-1.77,2.07s-1.77-.93-1.77-2.07v-6.3c-2.56,3.25-6.05,7.7-6.05,7.7-.51.64-1.31.84-2.01.5-.66-.32-1.08-1.07-1.08-1.9v-6.14c-2.55,3.24-6.01,7.64-6.01,7.64-.33.42-.79.66-1.28.67h-.03Zm9.1-14.72c-.2,0-.4.1-.55.3l-9.1,11.56c-.35.45-.34,1.2.03,1.63.15.18.34.27.53.27h.01c.2,0,.39-.11.54-.3,0,0,4.34-5.51,6.87-8.73l.86-1.1v8.93c0,.46.22.88.54,1.04.29.14.6.05.82-.23,0,0,4.37-5.56,6.91-8.79l.86-1.09v9.08c0,.61.36,1.1.81,1.1s.81-.5.81-1.1v-11.61c0-.46-.22-.88-.54-1.04-.29-.14-.59-.05-.82.24l-7.77,9.88v-8.92c0-.46-.22-.88-.54-1.04-.09-.04-.18-.06-.27-.06" style="fill: #171717;"/>
    <path d="m46.69,9.35l-6.02,7.66c-.5.63-.48,1.63.03,2.24.52.61,1.33.59,1.83-.04,0,0,2.03-2.58,3.81-4.84v7.88c0,.87.57,1.58,1.29,1.58s1.29-.71,1.29-1.58v-11.8c0-.65-.32-1.23-.81-1.47-.49-.24-1.05-.09-1.41.37" style="fill: #171717;"/>
    <path d="m47.62,24.31c-.97,0-1.77-.92-1.77-2.06v-6.49l-2.95,3.74c-.33.42-.79.66-1.28.67-.49,0-.95-.21-1.29-.61-.66-.79-.68-2.04-.04-2.85l6.02-7.66c.51-.64,1.31-.85,2.01-.5.65.33,1.07,1.07,1.07,1.9v11.8c0,1.14-.8,2.06-1.77,2.06m-.8-11.33v9.27c0,.6.37,1.1.8,1.1s.81-.49.81-1.1v-11.8c0-.46-.22-.88-.54-1.04-.28-.14-.6-.05-.82.24l-6.02,7.66c-.35.45-.34,1.2.02,1.63.15.17.34.27.53.27h.01c.2,0,.39-.11.54-.3l4.66-5.93Z" style="fill: #171717;"/>
    <path d="m75.38,15c-.2-.58-.67-.96-1.19-.96h-2.63l1.92-2.44s1-1.47.11-2.27c-.88-.8-1.97.08-1.97.08l-4.03,5.12c-.36.46-.46,1.13-.26,1.72.2.58.67.96,1.19.96h2.63l-3.12,3.96s-1.29,1.41-.34,2.36c.96.95,2.19-.17,2.19-.17l5.22-6.64c.36-.46.46-1.13.26-1.72" style="fill: #171717;"/>
    <path d="m68.57,24.39c-.41,0-.83-.14-1.21-.52-1.01-1.01-.23-2.42.32-3.03l2.48-3.16h-1.64c-.73,0-1.37-.5-1.64-1.29-.26-.74-.13-1.59.34-2.17l4.1-5.2c.49-.39,1.66-.91,2.6-.06.94.86.42,2.22-.04,2.9l-1.33,1.69h1.64c.73,0,1.37.51,1.64,1.29.26.74.13,1.59-.33,2.17l-5.22,6.64c-.37.35-1.02.74-1.7.74m3.39-14.65l-3.99,5.08c-.26.33-.33.83-.18,1.26.13.39.43.64.73.64h3.62l-3.73,4.74s-.99,1.11-.38,1.73c.61.61,1.44-.1,1.53-.19l5.17-6.58c.26-.33.33-.83.18-1.26h0c-.13-.39-.42-.64-.73-.64h-3.62l2.54-3.22h0s.72-1.12.17-1.62c-.5-.46-1.15-.05-1.31.06" style="fill: #171717;"/>
    <path d="m76.01,255.48c.51,0,.92.16,1.24.48.32.32.48.74.48,1.25,0,.35-.08.65-.24.91-.16.26-.39.46-.71.61.17.11.33.25.46.43.13.18.3.49.5.92.33.75.57,1.26.73,1.54h-1.16c-.08-.14-.19-.35-.32-.65-.3-.65-.52-1.09-.66-1.32-.14-.23-.27-.39-.4-.48-.13-.09-.28-.14-.44-.14h-.38v2.59h-1.04v-6.14h1.94Zm-.24,2.62c.27,0,.49-.08.64-.23.15-.16.23-.37.23-.64s-.08-.49-.23-.63c-.15-.14-.38-.21-.66-.21h-.65v1.71h.67Z" style="fill: #171717;"/>
    <polygon points="9.99 255.48 9.99 260.69 12.61 260.69 12.61 261.62 8.95 261.62 8.95 255.48 9.99 255.48" style="fill: #171717;"/>
    <path d="m43.13,41.73c-.83,0-1.65.07-2.45.17l-.39-2.21c.93-.12,1.88-.19,2.84-.19s1.91.07,2.84.19l-.39,2.21c-.81-.1-1.62-.17-2.45-.17" style="fill: #171717;"/>
    <path d="m28.64,48.1l-1.73-1.45c1.28-1.4,2.74-2.63,4.34-3.66l1.12,1.94c-1.38.9-2.62,1.96-3.73,3.16" style="fill: #171717;"/>
    <path d="m34.11,43.93l-1.12-1.94c1.67-.87,3.46-1.53,5.34-1.96l.39,2.21c-1.62.37-3.16.94-4.6,1.69" style="fill: #171717;"/>
    <path d="m24.9,53.87l-2.1-.76c.73-1.77,1.69-3.42,2.83-4.92l1.73,1.45c-.98,1.3-1.82,2.71-2.46,4.23" style="fill: #171717;"/>
    <path d="m47.56,42.24l.39-2.21c1.88.42,3.67,1.08,5.34,1.95l-1.12,1.95c-1.44-.74-2.99-1.32-4.6-1.69" style="fill: #171717;"/>
    <path d="m23.42,60.56h-2.26c.08-1.93.41-3.8.96-5.58l2.11.77c-.47,1.53-.73,3.15-.81,4.81" style="fill: #171717;"/>
    <path d="m24.28,67.36l-2.1.77c-.57-1.79-.91-3.65-1.01-5.56h2.23c.09,1.65.39,3.25.88,4.8" style="fill: #171717;"/>
    <path d="m27.42,73.44l-1.71,1.44c-1.15-1.5-2.11-3.14-2.84-4.88l2.1-.77c.64,1.5,1.47,2.91,2.45,4.2" style="fill: #171717;"/>
    <path d="m58.91,49.63l1.73-1.45c1.14,1.5,2.1,3.15,2.83,4.92l-2.1.76c-.64-1.52-1.48-2.93-2.46-4.23" style="fill: #171717;"/>
    <path d="m62.04,55.75l2.11-.77c.55,1.78.88,3.65.96,5.58h-2.26c-.08-1.66-.34-3.28-.81-4.81" style="fill: #171717;"/>
    <path d="m62.86,62.56h2.23c-.09,1.91-.44,3.78-1.01,5.56l-2.1-.77c.48-1.54.78-3.15.88-4.8" style="fill: #171717;"/>
    <path d="m61.3,69.24l2.1.77c-.74,1.74-1.69,3.38-2.84,4.88l-1.72-1.44c.99-1.3,1.81-2.71,2.45-4.2" style="fill: #171717;"/>
    <path d="m32.44,78.08l-1.12,1.93c-1.61-1.03-3.05-2.24-4.32-3.62l1.71-1.44c1.1,1.18,2.34,2.23,3.73,3.12" style="fill: #171717;"/>
    <path d="m57.56,74.96l1.71,1.44c-1.27,1.37-2.71,2.59-4.32,3.62l-1.12-1.93c1.38-.89,2.62-1.94,3.73-3.12" style="fill: #171717;"/>
    <path d="m53.89,44.93l1.12-1.94c1.6,1.03,3.06,2.26,4.35,3.66l-1.73,1.45c-1.11-1.2-2.36-2.27-3.74-3.17" style="fill: #171717;"/>
    <path d="m69.82,167.56H16.41c-6.48,0-11.73-6.8-11.73-14.3s5.25-14.3,11.73-14.3h53.4c6.48,0,11.73,6.8,11.73,14.3s-5.25,14.3-11.73,14.3" style="fill: #171717;"/>
    <path d="m69.82,138.96c6.48,0,11.73,6.8,11.73,14.3s-5.25,14.3-11.73,14.3H16.41c-6.48,0-11.73-6.8-11.73-14.3s5.25-14.3,11.73-14.3h53.4m0-1H16.41c-6.9,0-12.73,7.01-12.73,15.3s5.83,15.3,12.73,15.3h53.4c6.9,0,12.73-7,12.73-15.3s-5.83-15.3-12.73-15.3"/>
    <polygon points="41.62 277.96 40.18 277.96 40.18 274.83 38.89 276.64 38.77 276.64 37.47 274.83 37.47 277.96 36.08 277.96 36.08 272.55 37.38 272.55 38.85 274.58 40.32 272.55 41.62 272.55 41.62 277.96" style="fill: #171717;"/>
    <path d="m46.2,275.97c0,.4-.08.75-.23,1.06-.15.31-.38.55-.68.73-.3.18-.67.27-1.1.27s-.8-.09-1.1-.27c-.3-.18-.53-.43-.68-.73-.15-.31-.22-.66-.22-1.06,0-.3.04-.57.12-.82.08-.25.21-.46.38-.65.17-.19.38-.33.63-.43.25-.1.54-.15.87-.15s.62.05.88.15c.25.1.46.25.63.43.17.18.29.4.38.65.08.25.13.52.13.82m-1.3,0c0-.31-.06-.56-.18-.74-.12-.18-.3-.27-.52-.27s-.4.09-.52.27c-.12.18-.18.43-.18.74s.06.56.18.74c.12.18.3.27.52.27s.4-.09.52-.27c.12-.18.18-.43.18-.74" style="fill: #171717;"/>
    <path d="m50.27,277.96h-1.24v-.36c-.13.12-.27.23-.41.31-.15.08-.35.12-.6.12s-.5-.07-.75-.22c-.25-.14-.45-.37-.6-.67s-.24-.68-.24-1.15c0-.36.06-.7.18-1.02.12-.32.31-.57.56-.77.25-.2.57-.3.93-.3.23,0,.41.03.56.09.14.06.27.13.38.22v-1.67h1.24v5.41Zm-1.24-1.27v-1.52c-.15-.09-.26-.16-.34-.19-.08-.04-.18-.06-.29-.06-.19,0-.36.09-.49.28-.13.19-.19.44-.19.76,0,.35.07.61.21.77.14.16.29.24.48.24.15,0,.27-.03.36-.08.09-.05.18-.12.27-.2" style="fill: #171717;"/>
    <rect x="40.25" y="280.55" width="1.44" height="5.41" style="fill: #171717;"/>
    <path d="m46.14,285.96h-1.24v-2.14c0-.22-.03-.41-.09-.57s-.2-.24-.41-.24c-.1,0-.19.02-.27.07-.08.04-.15.1-.21.17-.06.07-.11.13-.15.19-.04.06-.08.13-.13.2v2.34h-1.24v-3.98h1.24v.57c.19-.24.39-.4.59-.5.2-.09.42-.14.65-.14.84,0,1.26.57,1.26,1.71v2.34Z" style="fill: #171717;"/>
    <polygon points="40.07 111.69 36.45 111.69 36.45 106.28 37.89 106.28 37.89 110.4 40.07 110.4 40.07 111.69" style="fill: #171717;"/>
    <path d="m41.73,111.69h-1.24v-3.98h1.24v3.98Zm-.1-4.9c0,.16-.05.3-.16.42-.1.11-.23.17-.37.17-.1,0-.18-.03-.26-.08-.08-.05-.14-.12-.19-.21-.05-.09-.07-.19-.07-.3,0-.16.05-.3.15-.42.1-.12.22-.18.37-.18s.26.06.37.18c.1.12.16.26.16.42" style="fill: #171717;"/>
    <path d="m46.03,111.69h-1.24v-2.14c0-.22-.03-.41-.09-.57-.06-.16-.2-.24-.41-.24-.1,0-.19.02-.27.07-.08.04-.15.1-.21.17-.06.07-.11.13-.15.2-.04.06-.08.13-.13.2v2.34h-1.24v-3.98h1.24v.57c.19-.24.39-.4.59-.5.2-.1.41-.14.65-.14.84,0,1.26.57,1.26,1.71v2.34Z" style="fill: #171717;"/>
    <path d="m50.08,110.05h-2.46c.05.24.17.44.35.59s.4.23.64.23c.42,0,.88-.13,1.38-.4v.87c-.18.11-.4.2-.66.29-.26.09-.59.13-.99.13-.43,0-.8-.09-1.1-.27-.3-.18-.53-.43-.68-.74-.15-.31-.22-.67-.22-1.06s.08-.74.22-1.05c.15-.31.38-.55.68-.73.3-.18.67-.26,1.1-.26.28,0,.56.07.82.21.26.14.48.37.65.68.17.32.26.72.26,1.22v.28Zm-1.16-.7c0-.25-.06-.46-.17-.61-.11-.15-.27-.23-.48-.23s-.37.08-.5.23c-.13.15-.19.36-.19.61h1.34Z" style="fill: #171717;"/>
    <rect x="40.26" y="114.28" width="1.44" height="5.41" style="fill: #171717;"/>
    <path d="m46.15,119.69h-1.24v-2.14c0-.22-.03-.41-.09-.57-.06-.16-.2-.24-.41-.24-.1,0-.19.02-.27.07-.08.04-.15.1-.21.17-.06.07-.11.13-.15.2-.04.06-.08.13-.13.2v2.34h-1.24v-3.98h1.24v.57c.19-.24.39-.4.59-.5.2-.1.41-.14.65-.14.84,0,1.26.57,1.26,1.71v2.34Z"/>
    <polygon points="41.62 151.24 40.18 151.24 40.18 148.1 38.89 149.92 38.77 149.92 37.47 148.1 37.47 151.24 36.08 151.24 36.08 145.83 37.38 145.83 38.85 147.86 40.32 145.83 41.62 145.83 41.62 151.24" style="fill: #ededed;"/>
    <path d="m46.2,149.25c0,.4-.08.75-.23,1.06-.15.31-.38.55-.68.73-.3.18-.67.27-1.1.27s-.8-.09-1.1-.27c-.3-.18-.53-.43-.68-.73-.15-.31-.23-.66-.23-1.06,0-.3.04-.57.13-.82.08-.25.21-.46.38-.65.17-.19.38-.33.63-.43.25-.1.54-.15.87-.15s.62.05.88.15c.25.1.46.25.63.43.17.18.29.4.38.65s.13.52.13.82m-1.3,0c0-.31-.06-.56-.18-.74-.12-.18-.29-.27-.52-.27s-.4.09-.52.27c-.12.18-.18.43-.18.74s.06.56.18.74c.12.18.29.27.52.27s.4-.09.52-.27c.12-.18.18-.43.18-.74" style="fill: #ededed;"/>
    <path d="m50.27,151.24h-1.24v-.36c-.13.12-.27.23-.41.31-.15.08-.35.12-.6.12s-.5-.07-.75-.22c-.24-.14-.45-.37-.6-.67-.16-.3-.24-.68-.24-1.15,0-.36.06-.7.18-1.02.12-.32.31-.57.56-.77.26-.2.57-.3.94-.3.23,0,.42.03.56.09.14.06.27.13.38.22v-1.67h1.24v5.41Zm-1.24-1.27v-1.52c-.14-.09-.26-.16-.34-.2-.08-.04-.18-.06-.29-.06-.2,0-.36.09-.49.28-.13.19-.2.44-.2.76,0,.35.07.61.2.77.14.16.29.24.48.24.15,0,.27-.03.36-.08.09-.05.18-.12.27-.2" style="fill: #ededed;"/>
    <path d="m42.16,156.53c0,.51-.1.97-.31,1.4-.2.42-.51.76-.92,1.01-.41.25-.9.38-1.48.38s-1.09-.13-1.5-.39c-.41-.26-.71-.6-.91-1.03-.2-.43-.3-.88-.3-1.36s.1-.94.3-1.36c.2-.42.5-.76.91-1.02.41-.26.91-.39,1.5-.39.44,0,.83.07,1.18.22.34.15.63.35.85.6.22.25.39.55.51.89.11.34.17.69.17,1.06m-1.46,0c0-.2-.03-.39-.08-.56s-.13-.31-.24-.44c-.11-.12-.24-.22-.39-.29-.15-.07-.33-.1-.53-.1-.39,0-.69.13-.91.38-.22.26-.33.59-.33,1s.11.75.33,1.01c.22.26.52.38.91.38.26,0,.49-.06.67-.18.19-.12.33-.28.42-.49s.14-.45.14-.72" style="fill: #ededed;"/>
    <path d="m46.25,159.24h-1.24v-.57c-.17.21-.36.37-.55.48-.19.11-.42.16-.69.16-.53,0-.87-.17-1.03-.52-.15-.35-.23-.75-.23-1.19v-2.34h1.24v2.15c0,.22.03.4.1.57.06.16.2.24.41.24.18,0,.32-.06.43-.18.11-.12.21-.27.32-.45v-2.34h1.24v3.98Z" style="fill: #ededed;"/>
    <path d="m49.53,159.01c-.13.07-.31.14-.53.2-.23.07-.44.1-.65.1-.89,0-1.34-.49-1.34-1.49v-1.59h-.56v-.25l1.66-1.92h.14v1.19h1.18v.98h-1.18v1.27c0,.15,0,.27.02.36.02.09.06.17.14.23.07.06.19.09.34.09.2,0,.46-.09.78-.28v1.1Z" style="fill: #ededed;"/>
    <rect x="21.06" y="289.73" width="1" height="7.94" style="fill: #171717;"/>
    <polygon points="19.53 296.48 21.56 302.98 23.59 296.48 19.53 296.48" style="fill: #171717;"/>
    <rect x="64.26" y="289.73" width="1" height="7.94" style="fill: #171717;"/>
    <polygon points="62.73 296.48 64.76 302.98 66.79 296.48 62.73 296.48"/>
    <rect x="21.06" y="123.88" width="1" height="7.94" style="fill: #171717;"/>
    <polygon points="19.53 130.63 21.56 137.13 23.59 130.63 19.53 130.63" style="fill: #171717;"/>
    <rect x="64.26" y="123.88" width="1" height="7.94" style="fill: #171717;"/>
    <polygon points="62.73 130.63 64.76 137.13 66.79 130.63 62.73 130.63" style="fill: #171717;"/>
    <path d="m77.25,186.28H7.07c-.28,0-.5-.22-.5-.5s.22-.5.5-.5h70.18c.28,0,.5.22.5.5s-.22.5-.5.5" style="fill: #171717;"/>
    <polygon points="40.14 322.85 36.52 322.85 36.52 317.44 37.95 317.44 37.95 321.56 40.14 321.56 40.14 322.85" style="fill: #ededed;"/>
    <path d="m41.79,322.85h-1.24v-3.98h1.24v3.98Zm-.1-4.9c0,.16-.05.3-.16.42-.1.11-.23.17-.37.17-.1,0-.18-.03-.26-.08-.08-.05-.14-.12-.19-.21-.04-.09-.07-.19-.07-.3,0-.16.05-.3.15-.42.1-.12.22-.18.37-.18s.26.06.37.18.16.26.16.42" style="fill: #ededed;"/>
    <path d="m46.1,322.85h-1.24v-2.14c0-.22-.03-.41-.09-.57-.06-.16-.2-.24-.41-.24-.1,0-.19.02-.27.06-.08.04-.15.1-.21.17-.06.07-.11.13-.15.19-.04.06-.08.13-.13.2v2.34h-1.24v-3.98h1.24v.57c.19-.24.39-.4.59-.5.2-.09.42-.14.65-.14.84,0,1.26.57,1.26,1.71v2.34Z" style="fill: #ededed;"/>
    <path d="m50.15,321.21h-2.46c.05.24.17.44.35.59.19.15.4.23.64.23.42,0,.88-.13,1.38-.4v.87c-.18.11-.4.2-.66.29-.26.09-.59.13-.99.13-.43,0-.8-.09-1.1-.27-.3-.18-.53-.43-.68-.74-.15-.31-.22-.67-.22-1.06s.08-.74.22-1.05c.15-.31.38-.55.68-.73.3-.18.67-.26,1.1-.26.28,0,.56.07.82.21.26.14.48.37.65.68.17.32.26.72.26,1.22v.28Zm-1.16-.7c0-.25-.06-.46-.17-.61-.11-.15-.27-.23-.48-.23s-.37.08-.5.23c-.13.15-.19.36-.19.61h1.34Z" style="fill: #ededed;"/>
    <path d="m42.23,328.14c0,.51-.1.97-.31,1.4-.21.42-.51.76-.92,1.01-.41.25-.9.38-1.48.38s-1.09-.13-1.49-.39c-.41-.26-.71-.6-.91-1.03-.2-.42-.3-.88-.3-1.36s.1-.94.3-1.36c.2-.42.5-.76.91-1.02.41-.26.91-.39,1.5-.39.44,0,.83.07,1.18.22.35.15.63.35.85.6.22.25.39.55.51.89.11.34.17.69.17,1.06m-1.46,0c0-.2-.03-.39-.08-.56s-.13-.31-.24-.44c-.11-.12-.24-.22-.39-.29-.15-.07-.33-.1-.53-.1-.39,0-.69.13-.91.38-.22.26-.33.59-.33,1s.11.75.33,1.01c.22.26.52.39.9.39.26,0,.49-.06.67-.18.18-.12.33-.28.42-.49.1-.21.15-.45.15-.72" style="fill: #ededed;"/>
    <path d="m46.32,330.85h-1.24v-.57c-.17.21-.36.37-.55.48-.19.11-.42.16-.69.16-.53,0-.87-.17-1.03-.53-.15-.35-.23-.74-.23-1.19v-2.34h1.24v2.15c0,.22.03.41.1.57.06.16.2.24.41.24.18,0,.32-.06.43-.17.11-.12.21-.27.32-.45v-2.34h1.24v3.98Z" style="fill: #ededed;"/>
    <path d="m49.6,330.62c-.13.07-.31.14-.53.2-.23.07-.44.1-.65.1-.89,0-1.34-.49-1.34-1.49v-1.59h-.56v-.25l1.66-1.92h.14v1.19h1.18v.98h-1.18v1.27c0,.15,0,.27.02.36.02.09.06.17.14.23.08.06.19.09.34.09.2,0,.46-.09.78-.28v1.1Z" style="fill: #ededed;"/>
    <path d="m39.37,313.25h-.76v-2.39c.08-2.26,2.16-4.03,4.73-4.03s4.61,1.74,4.73,3.96c0,.06,0,.13,0,.19v2.12h-.76v-2.12c0-.05,0-.1,0-.16-.09-1.81-1.84-3.23-3.97-3.23s-3.91,1.48-3.97,3.29v2.37Z" style="fill: #ededed;"/>
    <path d="m39.32,315.19h.89c.4,0,.72-.32.72-.72v-2.38c0-.4-.32-.72-.72-.72h-.89c-.4,0-.72.32-.72.72v2.38c0,.4.32.72.72.72" style="fill: #ededed;"/>
    <path d="m46.47,315.19h.89c.4,0,.72-.32.72-.72v-2.38c0-.4-.32-.72-.72-.72h-.89c-.4,0-.72.32-.72.72v2.38c0,.4.32.72.72.72" style="fill: #ededed;"/>
    <path d="m48.5,312.37c-.05-.03-.1,0-.1.06v1.65c0,.06.04.09.1.06l.41-.21c.05-.03.1-.1.1-.16v-1.02c0-.06-.04-.13-.1-.16l-.42-.22Z" style="fill: #ededed;"/>
    <path d="m38.16,312.37c.05-.03.1,0,.1.06v1.65c0,.06-.04.09-.1.07l-.4-.18c-.06-.03-.1-.1-.1-.15v-1.05c0-.06.04-.13.1-.16l.4-.23Z" style="fill: #ededed;"/>
    <g>
      <path d="m26.44,345.66h-4.03v-6.47h1.6v4.92h2.43v1.55Z" style="fill: #171717;"/>
      <path d="m28.98,345.66h-1.6v-6.47h1.6v6.47Z" style="fill: #171717;"/>
      <path d="m34.02,343.78c0,.4-.08.75-.25,1.05-.17.3-.41.52-.71.68-.3.16-.65.24-1.04.24-.11,0-.24,0-.4-.03-.16-.02-.37-.06-.64-.14s-.54-.19-.82-.35v-1.59c.27.2.53.37.79.5s.54.2.83.2c.27,0,.45-.05.53-.17.08-.11.12-.21.12-.31,0-.17-.07-.32-.21-.44-.14-.12-.34-.24-.6-.37-.29-.15-.55-.31-.77-.49s-.4-.4-.54-.66-.21-.58-.21-.94.07-.66.21-.95c.14-.28.35-.51.64-.67.29-.17.64-.25,1.06-.25.3,0,.57.04.82.11.25.07.46.15.62.24.16.09.28.16.34.21v1.52c-.22-.19-.46-.36-.73-.51s-.55-.22-.86-.22c-.2,0-.34.05-.43.14-.09.09-.13.21-.13.35,0,.13.04.24.13.33.09.09.25.21.48.34.41.23.73.44.98.63.24.19.44.4.58.65s.21.55.21.91Z" style="fill: #171717;"/>
      <path d="m40.2,340.76h-1.94v4.9h-1.6v-4.9h-1.94v-1.57h5.48v1.57Z" style="fill: #171717;"/>
      <path d="m45.13,345.66h-4v-6.47h3.93v1.3h-2.33v1.19h2.23v1.3h-2.23v1.38h2.4v1.3Z" style="fill: #171717;"/>
      <path d="m51.96,345.66h-1.42l-2.75-3.61v3.61h-1.58v-6.47h1.42l2.74,3.59v-3.59h1.6v6.47Z" style="fill: #171717;"/>
      <path d="m57.23,345.66h-1.6v-6.47h1.6v6.47Z" style="fill: #171717;"/>
      <path d="m64.24,342.42c0,.6-.11,1.16-.34,1.67-.23.51-.57.91-1.02,1.21-.45.3-1,.45-1.65.45s-1.21-.16-1.66-.47-.79-.72-1.01-1.23c-.22-.51-.33-1.05-.33-1.63s.11-1.13.33-1.63.56-.91,1.01-1.22c.46-.31,1.01-.46,1.67-.46.49,0,.93.09,1.31.27.38.18.7.42.95.72.25.3.43.66.56,1.06.13.4.19.83.19,1.27Zm-1.63,0c0-.24-.03-.46-.09-.67s-.15-.38-.27-.52c-.12-.15-.26-.26-.43-.34-.17-.08-.37-.12-.59-.12-.43,0-.76.15-1.01.46-.25.31-.37.71-.37,1.2s.12.9.37,1.2.58.46,1.01.46c.29,0,.54-.07.75-.21.21-.14.36-.34.47-.59.11-.25.16-.54.16-.86Z" style="fill: #171717;"/>
    </g>
    <path d="m70.03,304.95c6.48,0,11.73,6.8,11.73,14.3s-5.25,14.3-11.73,14.3H16.63c-6.48,0-11.73-6.8-11.73-14.3s5.25-14.3,11.73-14.3h53.4m0-1H16.63c-6.9,0-12.73,7.01-12.73,15.3s5.83,15.3,12.73,15.3h53.4c6.9,0,12.73-7,12.73-15.3s-5.83-15.3-12.73-15.3"/>
  </g>
  <g id="components">
    <circle id="Line_Out_R" data-name="Line Out R" cx="64.76" cy="319.12" r="11.34" style="fill: blue;"/>
    <circle id="Line_Out_L" data-name="Line Out L" cx="21.57" cy="319.12" r="11.34" style="fill: blue;"/>
    <circle id="Mod_In_R" data-name="Mod In R" cx="64.95" cy="279.34" r="11.34" style="fill: lime;"/>
    <circle id="Mod_In_L" data-name="Mod In L" cx="21.57" cy="279.34" r="11.34" style="fill: lime;"/>
    <circle id="LED_R2_1" data-name="LED R2 1" cx="76.1" cy="246.8" r="4.25" style="fill: #f0f;"/>
    <circle id="LED_R2_2" data-name="LED R2 2" cx="76.1" cy="233.75" r="4.25" style="fill: #f0f;"/>
    <circle id="LED_R2_3" data-name="LED R2 3" cx="76.1" cy="220.79" r="4.25" style="fill: #f0f;"/>
    <circle id="LED_R2_4" data-name="LED R2 4" cx="76.1" cy="207.58" r="4.25" style="fill: #f0f;"/>
    <circle id="Level" cx="43.21" cy="227.57" r="17.01" style="fill: #ff0070;"/>
    <circle id="LED_L2_1" data-name="LED L2 1" cx="10.34" cy="246.8" r="4.25" style="fill: #f0f;"/>
    <circle id="LED_L2_2" data-name="LED L2 2" cx="10.34" cy="233.75" r="4.25" style="fill: #f0f;"/>
    <circle id="LED_L2_3" data-name="LED L2 3" cx="10.34" cy="220.79" r="4.25" style="fill: #f0f;"/>
    <circle id="LED_L2_4" data-name="LED L2 4" cx="10.34" cy="207.58" r="4.25" style="fill: #f0f;"/>
    <circle id="Mod_Out_R" data-name="Mod Out R" cx="64.76" cy="153.09" r="11.34" style="fill: blue;"/>
    <circle id="Mod_Out_L" data-name="Mod Out L" cx="21.57" cy="153.09" r="11.34" style="fill: blue;"/>
    <circle id="Line_In_R" data-name="Line In R" cx="64.95" cy="113.49" r="11.34" style="fill: lime;"/>
    <circle id="Line_In_L" data-name="Line In L" cx="21.57" cy="113.49" r="11.34" style="fill: lime;"/>
    <circle id="LED_R1_1" data-name="LED R1 1" cx="76.1" cy="80.34" r="4.25" style="fill: #f0f;"/>
    <circle id="LED_R1_2" data-name="LED R1 2" cx="76.1" cy="67.29" r="4.25" style="fill: #f0f;"/>
    <circle id="LED_R1_3" data-name="LED R1 3" cx="76.1" cy="54.33" r="4.25" style="fill: #f0f;"/>
    <circle id="LED_R1_4" data-name="LED R1 4" cx="76.1" cy="41.12" r="4.25" style="fill: #f0f;"/>
    <circle id="Gain" cx="43.21" cy="61.27" r="17.01" style="fill: #ff0070;"/>
    <circle id="LED_L1_1" data-name="LED L1 1" cx="10.34" cy="80.34" r="4.25" style="fill: #f0f;"/>
    <circle id="LED_L1_2" data-name="LED L1 2" cx="10.34" cy="67.29" r="4.25" style="fill: #f0f;"/>
    <circle id="LED_L1_3" data-name="LED L1 3" cx="10.34" cy="54.33" r="4.25" style="fill: #f0f;"/>
    <circle id="LED_L1_4" data-name="LED L1 4" cx="10.34" cy="41.12" r="4.25" style="fill: #f0f;"/>
    <text id="slug" transform="translate(49.61 372.54)" style="font-family: MyriadPro-Regular, &apos;Myriad Pro&apos;; font-size: 6px;"><tspan x="0" y="0">LIO</tspan></text>
    <text id="modulename" transform="translate(63.72 372.54)" style="font-family: MyriadPro-Regular, &apos;Myriad Pro&apos;; font-size: 6px;"><tspan x="0" y="0">Lis</tspan><tspan x="6.61" y="0" style="letter-spacing: 0em;">t</tspan><tspan x="8.56" y="0">en IO</tspan></text>
  </g>
</svg>