<?xml version="1.0" encoding="UTF-8" standalone="no"?>
<svg
   width="40.360001mm"
   height="128.49515mm"
   viewBox="0 0 114.41 364.23169"
   version="1.1"
   id="svg114"
   sodipodi:docname="MPEG_info.svg"
   inkscape:version="1.3.2 (091e20e, 2023-11-25)"
   xmlns:inkscape="http://www.inkscape.org/namespaces/inkscape"
   xmlns:sodipodi="http://sodipodi.sourceforge.net/DTD/sodipodi-0.dtd"
   xmlns="http://www.w3.org/2000/svg"
   xmlns:svg="http://www.w3.org/2000/svg">
  <defs
     id="defs114" />
  <sodipodi:namedview
     id="namedview114"
     pagecolor="#ffffff"
     bordercolor="#000000"
     borderopacity="0.25"
     inkscape:showpageshadow="2"
     inkscape:pageopacity="0.0"
     inkscape:pagecheckerboard="0"
     inkscape:deskcolor="#d1d1d1"
     inkscape:document-units="mm"
     showgrid="false"
     inkscape:zoom="2.4355285"
     inkscape:cx="76.369461"
     inkscape:cy="249.63781"
     inkscape:window-width="2512"
     inkscape:window-height="1387"
     inkscape:window-x="40"
     inkscape:window-y="59"
     inkscape:window-maximized="0"
     inkscape:current-layer="components" />
  <g
     id="faceplate"
     transform="translate(0,-0.00940739)">
    <rect
       x="0"
       y="0"
       width="114.41"
       height="364.25"
       style="fill:#171717;stroke-width:0px"
       id="rect1" />
    <path
       d="m 81.45,26.87 c 7.69,0 13.92,6.69 13.92,14.95 0,8.26 -6.23,14.95 -13.92,14.95 h -52.2 c -7.69,0 -13.92,-6.7 -13.92,-14.95 0,-8.25 6.23,-14.95 13.92,-14.95 H 81.46 M 81.45,25.6 h -52.2 c -8.37,0 -15.19,7.28 -15.19,16.22 0,8.94 6.81,16.22 15.19,16.22 h 52.21 c 8.37,0 15.19,-7.28 15.19,-16.22 0,-8.94 -6.81,-16.22 -15.19,-16.22 v 0 z"
       style="fill:#ffffff;stroke-width:0px"
       id="path1" />
    <polyline
       points="44.88 53.22 44.88 48.73 46.89 48.73 46.89 53.22 57.83 53.22 57.83 48.73 60.1 48.73 60.1 53.22 62.17 53.22"
       style="fill:none;stroke:#ffffff;stroke-linecap:square"
       id="polyline1" />
    <g
       id="g3">
      <path
         d="m 12.6,275.02 35.77,-20.67 c 2.61,-1.48 5.62,-2.34 8.83,-2.34 3.21,0 6.22,0.86 8.83,2.34 l 35.84,20.69 c 2.58,1.52 4.83,3.7 6.44,6.48 1.45,2.52 2.21,5.24 2.36,7.96 0.01,-0.21 0.03,-0.42 0.04,-0.63 v -41.71 c -0.03,-3 -0.79,-6.03 -2.39,-8.82 -1.61,-2.78 -3.85,-4.96 -6.44,-6.48 L 66.04,211.15 c -2.61,-1.48 -5.62,-2.34 -8.83,-2.34 -3.21,0 -6.22,0.86 -8.83,2.34 l -35.77,20.67 c -2.61,1.52 -4.88,3.71 -6.49,6.51 -1.62,2.8 -2.38,5.86 -2.39,8.88 v 41.28 c 0,0.37 0,0.74 0.03,1.11 0.14,-2.75 0.89,-5.52 2.36,-8.07 1.62,-2.8 3.89,-4.99 6.49,-6.51 z"
         style="fill:#ffffff;stroke:#ffffff;stroke-width:0.75px;stroke-linecap:square"
         id="path2" />
      <path
         d="m 110.67,295.52 c -0.16,2.69 -0.91,5.38 -2.34,7.87 -1.55,2.68 -3.7,4.79 -6.16,6.31 l -36.08,20.83 c -2.62,1.5 -5.65,2.37 -8.89,2.37 -3.24,0 -6.26,-0.87 -8.89,-2.37 L 12.57,309.89 c -2.6,-1.52 -4.87,-3.71 -6.48,-6.51 -1.42,-2.45 -2.17,-5.1 -2.35,-7.74 v -6.03 c 0.14,-2.75 0.89,-5.52 2.36,-8.07 1.62,-2.8 3.89,-4.99 6.49,-6.51 l 35.77,-20.67 c 2.61,-1.48 5.62,-2.34 8.83,-2.34 3.21,0 6.22,0.86 8.83,2.34 l 35.84,20.69 c 2.58,1.52 4.83,3.7 6.44,6.48 1.45,2.52 2.21,5.24 2.36,7.96 v 6.03 z"
         style="fill:none;stroke:#ffffff;stroke-width:0.75px;stroke-linecap:square"
         id="path3" />
    </g>
    <g
       id="g42">
      <g
         id="g21">
        <text
           transform="matrix(0.73,0,0,1,58.95,83.69)"
           style="font-weight:700;font-size:6px;font-family:GillSans-Bold, 'Gill Sans';fill:#ffffff"
           id="text3"><tspan
             x="0"
             y="0"
             id="tspan3">6</tspan></text>
        <text
           transform="matrix(0.73,0,0,1,60.04,90.29)"
           style="font-weight:700;font-size:6px;font-family:GillSans-Bold, 'Gill Sans';fill:#ffffff"
           id="text4"><tspan
             x="0"
             y="0"
             id="tspan4">7</tspan></text>
        <text
           transform="matrix(0.73,0,0,1,59.46,96.2)"
           style="font-weight:700;font-size:6px;font-family:GillSans-Bold, 'Gill Sans';fill:#ffffff"
           id="text5"><tspan
             x="0"
             y="0"
             id="tspan5">8</tspan></text>
        <text
           transform="matrix(0.91,0,0,1,34.04,65.36)"
           style="font-weight:700;font-size:8.12px;font-family:GillSans-Bold, 'Gill Sans';fill:#ffffff"
           id="text6"><tspan
             x="0"
             y="0"
             id="tspan6">=</tspan></text>
        <text
           transform="matrix(0.73,0,0,1,40.3,65.26)"
           style="font-weight:700;font-size:6px;font-family:GillSans-Bold, 'Gill Sans';fill:#ffffff"
           id="text7"><tspan
             x="0"
             y="0"
             id="tspan7">x2</tspan></text>
        <text
           transform="matrix(0.73,0,0,1,27.87,65.26)"
           style="font-weight:700;font-size:6px;font-family:GillSans-Bold, 'Gill Sans';fill:#ffffff"
           id="text8"><tspan
             x="0"
             y="0"
             id="tspan8">/2</tspan></text>
        <text
           transform="matrix(0.73,0,0,1,52.8,72.24)"
           style="font-weight:700;font-size:6px;font-family:GillSans-Bold, 'Gill Sans';fill:#ffffff"
           id="text9"><tspan
             x="0"
             y="0"
             id="tspan9">4</tspan></text>
        <text
           transform="matrix(0.73,0,0,1,17.21,72.24)"
           style="font-weight:700;font-size:6px;font-family:GillSans-Bold, 'Gill Sans';fill:#ffffff"
           id="text10"><tspan
             x="0"
             y="0"
             id="tspan10">4</tspan></text>
        <text
           transform="matrix(0.73,0,0,1,56.79,78.28)"
           style="font-weight:700;font-size:6px;font-family:GillSans-Bold, 'Gill Sans';fill:#ffffff"
           id="text11"><tspan
             x="0"
             y="0"
             id="tspan11">5</tspan></text>
        <text
           transform="matrix(0.73,0,0,1,13.53,78.28)"
           style="font-weight:700;font-size:6px;font-family:GillSans-Bold, 'Gill Sans';fill:#ffffff"
           id="text12"><tspan
             x="0"
             y="0"
             id="tspan12">5</tspan></text>
        <text
           transform="matrix(0.73,0,0,1,11.1,83.69)"
           style="font-weight:700;font-size:6px;font-family:GillSans-Bold, 'Gill Sans';fill:#ffffff"
           id="text13"><tspan
             x="0"
             y="0"
             id="tspan13">6</tspan></text>
        <text
           transform="matrix(0.73,0,0,1,10.58,90.29)"
           style="font-weight:700;font-size:6px;font-family:GillSans-Bold, 'Gill Sans';fill:#ffffff"
           id="text14"><tspan
             x="0"
             y="0"
             id="tspan14">7</tspan></text>
        <text
           transform="matrix(0.73,0,0,1,10.49,96.2)"
           style="font-weight:700;font-size:6px;font-family:GillSans-Bold, 'Gill Sans';fill:#ffffff"
           id="text15"><tspan
             x="0"
             y="0"
             id="tspan15">8</tspan></text>
        <text
           transform="matrix(0.73,0,0,1,56.39,101.7)"
           style="font-weight:700;font-size:6px;font-family:GillSans-Bold, 'Gill Sans';letter-spacing:-0.05em;fill:#ffffff"
           id="text16"><tspan
             x="0"
             y="0"
             id="tspan16">12</tspan></text>
        <text
           transform="matrix(0.73,0,0,1,11.13,101.7)"
           style="font-weight:700;font-size:6px;font-family:GillSans-Bold, 'Gill Sans';letter-spacing:-0.05em;fill:#ffffff"
           id="text17"><tspan
             x="0"
             y="0"
             id="tspan17">16</tspan></text>
        <text
           transform="matrix(0.73,0,0,1,51.62,107.85)"
           style="font-weight:700;font-size:6px;font-family:GillSans-Bold, 'Gill Sans';letter-spacing:-0.05em;fill:#ffffff"
           id="text18"><tspan
             x="0"
             y="0"
             id="tspan18">x16</tspan></text>
        <text
           transform="matrix(0.73,0,0,1,13.58,107.85)"
           style="font-weight:700;font-size:6px;font-family:GillSans-Bold, 'Gill Sans';letter-spacing:-0.05em;fill:#ffffff"
           id="text19"><tspan
             x="0"
             y="0"
             id="tspan19">/32</tspan></text>
        <text
           transform="matrix(0.73,0,0,1,47.51,67.97)"
           style="font-weight:700;font-size:6px;font-family:GillSans-Bold, 'Gill Sans';fill:#ffffff"
           id="text20"><tspan
             x="0"
             y="0"
             id="tspan20">3</tspan></text>
        <text
           transform="matrix(0.73,0,0,1,23.56,67.97)"
           style="font-weight:700;font-size:6px;font-family:GillSans-Bold, 'Gill Sans';fill:#ffffff"
           id="text21"><tspan
             x="0"
             y="0"
             id="tspan21">3</tspan></text>
      </g>
      <g
         id="g41">
        <path
           d="m 48.82,103.66 c 0.47,0.61 0.9,1.17 1.22,1.59 1.14,-0.91 2.19,-1.92 3.13,-3.04 l -1.59,-1.22 c -0.83,0.98 -1.75,1.87 -2.76,2.67 z"
           style="fill:#ffffff;stroke-width:0px"
           id="path21" />
        <path
           d="m 44.93,106.08 0.78,1.87 c 1.33,-0.63 2.6,-1.38 3.77,-2.26 -0.3,-0.37 -0.71,-0.89 -1.25,-1.59 -1.03,0.76 -2.13,1.42 -3.29,1.98 z"
           style="fill:#ffffff;stroke-width:0px"
           id="path22" />
        <path
           d="m 21.21,100.99 -1.59,1.22 c 0.94,1.11 1.99,2.13 3.13,3.04 0.32,-0.42 0.74,-0.97 1.22,-1.59 -1,-0.8 -1.92,-1.69 -2.75,-2.67 z"
           style="fill:#ffffff;stroke-width:0px"
           id="path23" />
        <path
           d="m 24.56,104.1 c -0.54,0.7 -0.95,1.21 -1.25,1.59 1.17,0.87 2.44,1.63 3.77,2.26 l 0.77,-1.87 c -1.17,-0.56 -2.27,-1.22 -3.3,-1.98 z"
           style="fill:#ffffff;stroke-width:0px"
           id="path24" />
        <path
           d="m 52.79,99.41 1.59,1.22 c 0.71,-1.02 1.34,-2.1 1.87,-3.23 l -1.87,-0.77 c -0.46,0.97 -0.99,1.91 -1.6,2.79 z"
           style="fill:#ffffff;stroke-width:0px"
           id="path25" />
        <path
           d="m 16.79,91.67 -2,0.26 c 0.22,1.24 0.54,2.45 0.96,3.61 l 1.87,-0.77 c -0.36,-1 -0.64,-2.03 -0.84,-3.1 z"
           style="fill:#ffffff;stroke-width:0px"
           id="path26" />
        <path
           d="m 18.39,96.62 -1.87,0.77 c 0.53,1.13 1.16,2.21 1.88,3.23 l 1.59,-1.22 c -0.61,-0.88 -1.14,-1.81 -1.6,-2.79 z"
           style="fill:#ffffff;stroke-width:0px"
           id="path27" />
        <path
           d="m 16.45,88.08 c 0,-0.54 0.04,-1.08 0.08,-1.61 l -2,-0.26 c -0.05,0.62 -0.09,1.24 -0.09,1.87 0,0.63 0.03,1.25 0.09,1.87 l 2,-0.26 c -0.04,-0.53 -0.08,-1.06 -0.08,-1.61 z"
           style="fill:#ffffff;stroke-width:0px"
           id="path28" />
        <path
           d="m 17.63,81.39 -1.87,-0.77 c -0.42,1.16 -0.74,2.37 -0.96,3.61 l 2,0.26 c 0.2,-1.07 0.48,-2.1 0.84,-3.1 z"
           style="fill:#ffffff;stroke-width:0px"
           id="path29" />
        <path
           d="m 23.48,72.9 -1.22,-1.59 c -0.95,0.8 -1.84,1.69 -2.64,2.64 l 1.59,1.22 c 0.7,-0.82 1.45,-1.58 2.27,-2.27 z"
           style="fill:#ffffff;stroke-width:0px"
           id="path30" />
        <path
           d="m 27.85,70.08 -0.77,-1.87 c -1.13,0.53 -2.22,1.16 -3.23,1.88 l 1.22,1.59 c 0.88,-0.61 1.81,-1.14 2.79,-1.6 z"
           style="fill:#ffffff;stroke-width:0px"
           id="path31" />
        <path
           d="M 19.99,76.76 18.4,75.54 c -0.71,1.02 -1.34,2.1 -1.87,3.23 l 1.87,0.77 c 0.46,-0.97 0.99,-1.91 1.6,-2.79 z"
           style="fill:#ffffff;stroke-width:0px"
           id="path32" />
        <path
           d="m 56,91.67 c -0.2,1.07 -0.48,2.1 -0.84,3.1 l 1.87,0.77 c 0.42,-1.16 0.74,-2.37 0.96,-3.61 l -2,-0.26 z"
           style="fill:#ffffff;stroke-width:0px"
           id="path33" />
        <path
           d="m 54.39,79.54 1.87,-0.77 C 55.72,77.64 55.1,76.56 54.39,75.54 l -1.59,1.22 c 0.61,0.88 1.13,1.81 1.6,2.79 z"
           style="fill:#ffffff;stroke-width:0px"
           id="path34" />
        <path
           d="m 56.34,88.08 c 0,0.54 -0.04,1.07 -0.08,1.61 l 2,0.26 c 0.05,-0.62 0.09,-1.24 0.09,-1.87 0,-0.63 -0.03,-1.25 -0.09,-1.87 l -2,0.26 c 0.04,0.53 0.08,1.06 0.08,1.61 z"
           style="fill:#ffffff;stroke-width:0px"
           id="path35" />
        <path
           d="m 43.08,69.32 0.77,-1.87 c -1.16,-0.42 -2.37,-0.74 -3.61,-0.96 l -0.26,2 c 1.07,0.2 2.1,0.48 3.1,0.84 z"
           style="fill:#ffffff;stroke-width:0px"
           id="path36" />
        <path
           d="m 36.39,68.14 c 0.54,0 1.08,0.04 1.61,0.08 l 0.26,-2 c -0.62,-0.05 -1.24,-0.09 -1.87,-0.09 -0.63,0 -1.25,0.03 -1.87,0.09 l 0.26,2 c 0.53,-0.04 1.06,-0.08 1.61,-0.08 z"
           style="fill:#ffffff;stroke-width:0px"
           id="path37" />
        <path
           d="m 47.72,71.68 1.22,-1.59 c -1.02,-0.71 -2.1,-1.34 -3.23,-1.88 l -0.77,1.87 c 0.97,0.46 1.91,0.99 2.79,1.6 z"
           style="fill:#ffffff;stroke-width:0px"
           id="path38" />
        <path
           d="m 51.57,75.17 1.6,-1.22 C 52.37,73 51.48,72.11 50.53,71.31 l -1.22,1.59 c 0.82,0.7 1.57,1.45 2.27,2.27 z"
           style="fill:#ffffff;stroke-width:0px"
           id="path39" />
        <path
           d="m 56,84.49 2,-0.26 c -0.22,-1.24 -0.54,-2.45 -0.96,-3.61 l -1.87,0.77 c 0.36,1 0.64,2.03 0.84,3.1 z"
           style="fill:#ffffff;stroke-width:0px"
           id="path40" />
        <path
           d="m 32.8,68.48 -0.26,-2 c -1.24,0.22 -2.45,0.54 -3.61,0.96 l 0.77,1.87 c 1,-0.36 2.03,-0.64 3.1,-0.84 z"
           style="fill:#ffffff;stroke-width:0px"
           id="path41" />
      </g>
    </g>
    <g
       id="g48">
      <path
         d="m 61.46,174.95 c -7.25,0 -7.25,-4.05 -7.25,-4.05 v 4.05"
         style="fill:none;stroke:#ffffff;stroke-linecap:square"
         id="path42" />
      <path
         d="m 13.82,174.95 c 7.25,0 7.25,-4.05 7.25,-4.05 v 4.05"
         style="fill:none;stroke:#ffffff;stroke-linecap:square"
         id="path43" />
      <path
         d="m 67.95,165.07 c -3.88,0 -7.25,-4.05 -7.25,-4.05 v 4.05"
         style="fill:none;stroke:#ffffff"
         id="path44" />
      <path
         d="m 5.44,164.51 c 3.88,0 7.25,-4.05 7.25,-4.05 v 4.05"
         style="fill:none;stroke:#ffffff"
         id="path45" />
      <polyline
         points="68.99 150.76 61.74 146.71 61.74 150.76"
         style="fill:none;stroke:#ffffff"
         id="polyline45" />
      <polyline
         points="5.2 150.84 12.45 146.8 12.45 150.84"
         style="fill:none;stroke:#ffffff"
         id="polyline46" />
      <polyline
         points="41.62 129.88 36.95 124.66 32.27 129.88"
         style="fill:none;stroke:#ffffff"
         id="polyline47" />
      <path
         d="m 11.52,137.45 c 3.99,0 3.99,-4.45 3.99,-4.45 0,0 0.1,4.45 3.99,4.45"
         style="fill:none;stroke:#ffffff"
         id="path47" />
      <path
         d="m 55.61,137.93 c 0,0 1,-4.45 3.99,-4.45 2.99,0 3.99,4.45 3.99,4.45"
         style="fill:none;stroke:#ffffff"
         id="path48" />
    </g>
    <g
       id="g63">
      <path
         d="m 37.2,135.06 c 0.83,0 1.65,0.07 2.45,0.17 l 0.39,-2.21 c -0.93,-0.12 -1.88,-0.19 -2.84,-0.19 -0.96,0 -1.91,0.07 -2.84,0.19 l 0.39,2.21 c 0.81,-0.1 1.62,-0.17 2.45,-0.17 z"
         style="fill:#ffffff;stroke-width:0px"
         id="path49" />
      <path
         d="m 51.7,141.44 1.73,-1.45 c -1.28,-1.4 -2.74,-2.63 -4.34,-3.66 l -1.12,1.94 c 1.38,0.9 2.62,1.96 3.73,3.16 z"
         style="fill:#ffffff;stroke-width:0px"
         id="path50" />
      <path
         d="m 46.23,137.27 1.12,-1.95 c -1.67,-0.87 -3.46,-1.53 -5.34,-1.96 l -0.39,2.21 c 1.62,0.37 3.16,0.94 4.61,1.69 z"
         style="fill:#ffffff;stroke-width:0px"
         id="path51" />
      <path
         d="m 55.43,147.2 2.1,-0.77 c -0.73,-1.77 -1.69,-3.42 -2.83,-4.92 l -1.73,1.45 c 0.98,1.3 1.82,2.71 2.46,4.23 z"
         style="fill:#ffffff;stroke-width:0px"
         id="path52" />
      <path
         d="m 32.78,135.58 -0.39,-2.21 c -1.88,0.42 -3.67,1.08 -5.34,1.95 l 1.12,1.94 c 1.44,-0.74 2.98,-1.31 4.6,-1.69 z"
         style="fill:#ffffff;stroke-width:0px"
         id="path53" />
      <path
         d="m 56.92,153.9 h 2.26 c -0.08,-1.93 -0.41,-3.8 -0.96,-5.58 l -2.11,0.77 c 0.47,1.53 0.73,3.15 0.81,4.81 z"
         style="fill:#ffffff;stroke-width:0px"
         id="path54" />
      <path
         d="m 56.06,160.7 2.1,0.76 c 0.57,-1.79 0.91,-3.65 1.01,-5.56 h -2.23 c -0.09,1.65 -0.39,3.25 -0.88,4.8 z"
         style="fill:#ffffff;stroke-width:0px"
         id="path55" />
      <path
         d="m 52.92,166.78 1.72,1.44 c 1.15,-1.5 2.11,-3.14 2.84,-4.88 l -2.1,-0.77 c -0.64,1.5 -1.47,2.91 -2.45,4.2 z"
         style="fill:#ffffff;stroke-width:0px"
         id="path56" />
      <path
         d="m 21.43,142.97 -1.73,-1.45 c -1.14,1.5 -2.1,3.15 -2.83,4.91 l 2.1,0.77 c 0.64,-1.52 1.48,-2.93 2.46,-4.23 z"
         style="fill:#ffffff;stroke-width:0px"
         id="path57" />
      <path
         d="m 18.3,149.08 -2.11,-0.77 c -0.55,1.78 -0.88,3.65 -0.96,5.58 h 2.26 c 0.08,-1.66 0.34,-3.28 0.81,-4.81 z"
         style="fill:#ffffff;stroke-width:0px"
         id="path58" />
      <path
         d="m 17.47,155.9 h -2.23 c 0.09,1.91 0.44,3.78 1.01,5.56 l 2.1,-0.77 c -0.48,-1.54 -0.79,-3.15 -0.88,-4.8 z"
         style="fill:#ffffff;stroke-width:0px"
         id="path59" />
      <path
         d="m 19.04,162.57 -2.11,0.77 c 0.73,1.74 1.69,3.38 2.84,4.87 l 1.71,-1.44 c -0.99,-1.3 -1.81,-2.71 -2.45,-4.2 z"
         style="fill:#ffffff;stroke-width:0px"
         id="path60" />
      <path
         d="m 47.9,171.42 1.12,1.93 c 1.61,-1.03 3.05,-2.24 4.32,-3.62 l -1.71,-1.44 c -1.1,1.18 -2.34,2.23 -3.72,3.12 z"
         style="fill:#ffffff;stroke-width:0px"
         id="path61" />
      <path
         d="m 22.78,168.3 -1.71,1.44 c 1.27,1.37 2.71,2.59 4.32,3.62 l 1.12,-1.94 c -1.38,-0.89 -2.62,-1.94 -3.72,-3.12 z"
         style="fill:#ffffff;stroke-width:0px"
         id="path62" />
      <path
         d="m 26.45,138.27 -1.12,-1.94 c -1.6,1.03 -3.06,2.26 -4.34,3.66 l 1.73,1.45 c 1.11,-1.2 2.36,-2.27 3.74,-3.16 z"
         style="fill:#ffffff;stroke-width:0px"
         id="path63" />
    </g>
    <g
       id="g78">
      <g
         id="g75">
        <path
           d="m 81.85,125.02 -1.09,-0.92 c 0.81,-0.89 1.74,-1.67 2.75,-2.32 l 0.71,1.23 c -0.87,0.57 -1.66,1.25 -2.37,2.01 z"
           style="fill:#ffffff;stroke-width:0px"
           id="path64" />
        <path
           d="m 85.32,122.38 -0.71,-1.23 c 1.06,-0.55 2.19,-0.97 3.38,-1.24 l 0.25,1.4 c -1.03,0.24 -2.01,0.6 -2.92,1.07 z"
           style="fill:#ffffff;stroke-width:0px"
           id="path65" />
        <path
           d="m 79.48,128.68 -1.33,-0.48 c 0.46,-1.12 1.07,-2.17 1.79,-3.12 l 1.09,0.92 c -0.62,0.82 -1.15,1.72 -1.56,2.68 z"
           style="fill:#ffffff;stroke-width:0px"
           id="path66" />
        <path
           d="m 93.85,121.31 0.25,-1.4 c 1.19,0.27 2.33,0.69 3.38,1.24 l -0.71,1.23 c -0.91,-0.47 -1.89,-0.83 -2.92,-1.07 z"
           style="fill:#ffffff;stroke-width:0px"
           id="path67" />
        <path
           d="m 78.54,132.92 h -1.43 c 0.05,-1.23 0.26,-2.41 0.61,-3.54 l 1.34,0.49 c -0.3,0.97 -0.46,2 -0.51,3.05 z"
           style="fill:#ffffff;stroke-width:0px"
           id="path68" />
        <path
           d="m 79.09,137.23 -1.33,0.48 c -0.36,-1.13 -0.58,-2.32 -0.64,-3.53 h 1.42 c 0.06,1.04 0.25,2.06 0.55,3.04 z"
           style="fill:#ffffff;stroke-width:0px"
           id="path69" />
        <path
           d="M 81.08,141.09 79.99,142 c -0.73,-0.95 -1.33,-1.99 -1.8,-3.09 l 1.33,-0.49 c 0.41,0.95 0.93,1.84 1.55,2.67 z"
           style="fill:#ffffff;stroke-width:0px"
           id="path70" />
        <path
           d="m 101.04,125.99 1.1,-0.92 c 0.72,0.95 1.33,2 1.79,3.12 l -1.33,0.48 c -0.4,-0.96 -0.94,-1.86 -1.56,-2.68 z"
           style="fill:#ffffff;stroke-width:0px"
           id="path71" />
        <path
           d="m 103.03,129.87 1.34,-0.49 c 0.35,1.13 0.56,2.31 0.61,3.54 h -1.43 c -0.05,-1.05 -0.22,-2.08 -0.51,-3.05 z"
           style="fill:#ffffff;stroke-width:0px"
           id="path72" />
        <path
           d="m 103.55,134.19 h 1.42 c -0.06,1.21 -0.28,2.39 -0.64,3.53 L 103,137.23 c 0.31,-0.98 0.5,-2 0.55,-3.04 z"
           style="fill:#ffffff;stroke-width:0px"
           id="path73" />
        <path
           d="m 102.56,138.42 1.33,0.49 c -0.47,1.1 -1.07,2.14 -1.8,3.09 L 101,141.09 c 0.63,-0.82 1.15,-1.72 1.55,-2.66 z"
           style="fill:#ffffff;stroke-width:0px"
           id="path74" />
        <path
           d="m 97.86,123.01 0.71,-1.23 c 1.02,0.65 1.94,1.43 2.75,2.32 l -1.1,0.92 c -0.7,-0.76 -1.5,-1.44 -2.37,-2.01 z"
           style="fill:#ffffff;stroke-width:0px"
           id="path75" />
      </g>
      <path
         d="m 93.04,118.1 c 0,0.42 -0.05,0.79 -0.16,1.1 -0.11,0.31 -0.25,0.58 -0.43,0.78 -0.18,0.2 -0.39,0.35 -0.63,0.45 -0.24,0.1 -0.49,0.15 -0.75,0.15 -0.26,0 -0.52,-0.05 -0.75,-0.15 -0.24,-0.1 -0.44,-0.25 -0.63,-0.45 -0.19,-0.2 -0.33,-0.46 -0.43,-0.77 -0.11,-0.31 -0.16,-0.68 -0.16,-1.1 0,-0.42 0.05,-0.79 0.16,-1.11 0.11,-0.31 0.25,-0.57 0.43,-0.78 0.18,-0.2 0.39,-0.36 0.63,-0.46 0.24,-0.1 0.49,-0.15 0.75,-0.15 0.26,0 0.52,0.05 0.75,0.15 0.23,0.1 0.44,0.25 0.63,0.46 0.19,0.21 0.33,0.47 0.43,0.78 0.1,0.31 0.16,0.68 0.16,1.1 z m -1.44,0 c 0,-0.43 -0.03,-0.78 -0.09,-1.05 -0.06,-0.27 -0.21,-0.41 -0.44,-0.41 -0.16,0 -0.28,0.08 -0.36,0.23 -0.08,0.15 -0.13,0.33 -0.15,0.53 -0.02,0.2 -0.03,0.44 -0.03,0.7 0,0.46 0.03,0.82 0.09,1.07 0.06,0.26 0.21,0.38 0.44,0.38 0.23,0 0.38,-0.13 0.44,-0.38 0.06,-0.25 0.09,-0.61 0.09,-1.07 z"
         style="fill:#ffffff;stroke-width:0px"
         id="path76" />
      <path
         d="M 101.6,144.49 H 100 v 1.61 h -0.9 v -1.61 h -1.6 v -0.91 h 1.6 v -1.61 h 0.9 v 1.61 h 1.6 z"
         style="fill:#ffffff;stroke-width:0px"
         id="path77" />
      <path
         d="M 83.51,144.81 H 80.2 v -1.26 h 3.31 z"
         style="fill:#ffffff;stroke-width:0px"
         id="path78" />
      <circle
         cx="91.040001"
         cy="133.48"
         r="13.93"
         style="fill:none;stroke-width:0px"
         id="circle78" />
    </g>
    <g
       id="g93">
      <g
         id="g90">
        <path
           d="m 81.85,180.07 -1.09,-0.92 c 0.81,-0.89 1.74,-1.67 2.75,-2.32 l 0.71,1.23 c -0.87,0.57 -1.66,1.25 -2.37,2.01 z"
           style="fill:#ffffff;stroke-width:0px"
           id="path79" />
        <path
           d="m 85.32,177.43 -0.71,-1.23 c 1.06,-0.55 2.19,-0.97 3.38,-1.24 l 0.25,1.4 c -1.03,0.24 -2.01,0.6 -2.92,1.07 z"
           style="fill:#ffffff;stroke-width:0px"
           id="path80" />
        <path
           d="m 79.48,183.73 -1.33,-0.48 c 0.46,-1.12 1.07,-2.17 1.79,-3.12 l 1.09,0.92 c -0.62,0.82 -1.15,1.72 -1.56,2.68 z"
           style="fill:#ffffff;stroke-width:0px"
           id="path81" />
        <path
           d="m 93.85,176.36 0.25,-1.4 c 1.19,0.27 2.33,0.69 3.38,1.24 l -0.71,1.23 c -0.91,-0.47 -1.89,-0.83 -2.92,-1.07 z"
           style="fill:#ffffff;stroke-width:0px"
           id="path82" />
        <path
           d="m 78.54,187.97 h -1.43 c 0.05,-1.23 0.26,-2.41 0.61,-3.54 l 1.34,0.49 c -0.3,0.97 -0.46,2 -0.51,3.05 z"
           style="fill:#ffffff;stroke-width:0px"
           id="path83" />
        <path
           d="m 79.09,192.29 -1.33,0.48 c -0.36,-1.13 -0.58,-2.32 -0.64,-3.53 h 1.42 c 0.06,1.04 0.25,2.06 0.55,3.04 z"
           style="fill:#ffffff;stroke-width:0px"
           id="path84" />
        <path
           d="m 81.08,196.14 -1.09,0.91 c -0.73,-0.95 -1.33,-1.99 -1.8,-3.09 l 1.33,-0.49 c 0.41,0.95 0.93,1.84 1.55,2.67 z"
           style="fill:#ffffff;stroke-width:0px"
           id="path85" />
        <path
           d="m 101.04,181.05 1.1,-0.92 c 0.72,0.95 1.33,2 1.79,3.12 l -1.33,0.48 c -0.4,-0.96 -0.94,-1.86 -1.56,-2.68 z"
           style="fill:#ffffff;stroke-width:0px"
           id="path86" />
        <path
           d="m 103.03,184.92 1.34,-0.49 c 0.35,1.13 0.56,2.31 0.61,3.54 h -1.43 c -0.05,-1.05 -0.22,-2.08 -0.51,-3.05 z"
           style="fill:#ffffff;stroke-width:0px"
           id="path87" />
        <path
           d="m 103.55,189.24 h 1.42 c -0.06,1.21 -0.28,2.39 -0.64,3.53 L 103,192.28 c 0.31,-0.98 0.5,-2 0.55,-3.04 z"
           style="fill:#ffffff;stroke-width:0px"
           id="path88" />
        <path
           d="m 102.56,193.48 1.33,0.49 c -0.47,1.1 -1.07,2.14 -1.8,3.09 L 101,196.15 c 0.63,-0.82 1.15,-1.72 1.55,-2.66 z"
           style="fill:#ffffff;stroke-width:0px"
           id="path89" />
        <path
           d="m 97.86,178.07 0.71,-1.23 c 1.02,0.65 1.94,1.43 2.75,2.32 l -1.1,0.92 c -0.7,-0.76 -1.5,-1.44 -2.37,-2.01 z"
           style="fill:#ffffff;stroke-width:0px"
           id="path90" />
      </g>
      <path
         d="m 93.04,173.16 c 0,0.42 -0.05,0.79 -0.16,1.1 -0.11,0.31 -0.25,0.58 -0.43,0.78 -0.18,0.2 -0.39,0.35 -0.63,0.45 -0.24,0.1 -0.49,0.15 -0.75,0.15 -0.26,0 -0.52,-0.05 -0.75,-0.15 -0.24,-0.1 -0.44,-0.25 -0.63,-0.45 -0.19,-0.2 -0.33,-0.46 -0.43,-0.77 -0.11,-0.31 -0.16,-0.68 -0.16,-1.1 0,-0.42 0.05,-0.79 0.16,-1.11 0.11,-0.31 0.25,-0.57 0.43,-0.78 0.18,-0.2 0.39,-0.36 0.63,-0.46 0.24,-0.1 0.49,-0.15 0.75,-0.15 0.26,0 0.52,0.05 0.75,0.15 0.23,0.1 0.44,0.25 0.63,0.46 0.19,0.21 0.33,0.47 0.43,0.78 0.1,0.31 0.16,0.68 0.16,1.1 z m -1.44,0 c 0,-0.43 -0.03,-0.78 -0.09,-1.05 -0.06,-0.27 -0.21,-0.41 -0.44,-0.41 -0.16,0 -0.28,0.08 -0.36,0.23 -0.08,0.15 -0.13,0.33 -0.15,0.53 -0.02,0.2 -0.03,0.44 -0.03,0.7 0,0.46 0.03,0.82 0.09,1.07 0.06,0.26 0.21,0.38 0.44,0.38 0.23,0 0.38,-0.13 0.44,-0.38 0.06,-0.25 0.09,-0.61 0.09,-1.07 z"
         style="fill:#ffffff;stroke-width:0px"
         id="path91" />
      <path
         d="M 101.6,199.54 H 100 v 1.61 h -0.9 v -1.61 h -1.6 v -0.91 h 1.6 v -1.61 h 0.9 v 1.61 h 1.6 z"
         style="fill:#ffffff;stroke-width:0px"
         id="path92" />
      <path
         d="M 83.51,199.86 H 80.2 v -1.26 h 3.31 z"
         style="fill:#ffffff;stroke-width:0px"
         id="path93" />
      <circle
         cx="91.040001"
         cy="188.53999"
         r="13.93"
         style="fill:none;stroke-width:0px"
         id="circle93" />
    </g>
    <text
       transform="matrix(0.88,0,0,1,19.29,118.47)"
       style="font-weight:700;font-size:9px;font-family:GillSans-Bold, 'Gill Sans';letter-spacing:-0.04em;fill:#ffffff"
       id="text93"><tspan
         x="0"
         y="0"
         id="tspan93">Div/Mult</tspan></text>
    <text
       transform="matrix(0.88,0,0,1,25.75,182.97)"
       style="font-weight:700;font-size:9px;font-family:GillSans-Bold, 'Gill Sans';letter-spacing:-0.04em;fill:#ffffff"
       id="text94"><tspan
         x="0"
         y="0"
         id="tspan94">Shape</tspan></text>
    <text
       transform="matrix(0.88,0,0,1,81.51,152.54)"
       style="font-weight:700;font-size:9px;font-family:GillSans-Bold, 'Gill Sans';letter-spacing:-0.04em;fill:#ffffff"
       id="text95"><tspan
         x="0"
         y="0"
         id="tspan95">Scale</tspan></text>
    <text
       transform="matrix(0.88,0,0,1,79.49,208.13)"
       style="font-weight:700;font-size:9px;font-family:GillSans-Bold, 'Gill Sans';letter-spacing:-0.04em;fill:#ffffff"
       id="text96"><tspan
         x="0"
         y="0"
         id="tspan96">Offset</tspan></text>
    <text
       transform="matrix(0.83,0,0,1,51.4,330.27)"
       style="font-weight:700;font-size:8px;font-family:GillSans-Bold, 'Gill Sans';fill:#ffffff"
       id="text97"><tspan
         x="0"
         y="0"
         id="tspan97">Div</tspan></text>
    <text
       transform="matrix(0.83,0,0,1,40.94,287.64)"
       style="font-weight:700;font-size:8px;font-family:GillSans-Bold, 'Gill Sans';fill:#ffffff"
       id="text100"><tspan
         x="0"
         y="0"
         id="tspan98">Sh</tspan><tspan
         x="9.9799995"
         y="0"
         style="letter-spacing:0.01em"
         id="tspan99">a</tspan><tspan
         x="14.66"
         y="0"
         style="letter-spacing:0em"
         id="tspan100">pe CV</tspan></text>
    <text
       transform="matrix(0.83,0,0,1,10.47,307.51)"
       style="font-weight:700;font-size:8px;font-family:GillSans-Bold, 'Gill Sans';fill:#ffffff"
       id="text103"><tspan
         x="0"
         y="0"
         style="letter-spacing:-0.03em"
         id="tspan101">T</tspan><tspan
         x="5.9099998"
         y="0"
         style="letter-spacing:-0.04em"
         id="tspan102">r</tspan><tspan
         x="9.5200005"
         y="0"
         id="tspan103">igger</tspan></text>
    <text
       transform="matrix(0.83,0,0,1,82.07,307.51)"
       style="font-weight:700;font-size:8px;font-family:GillSans-Bold, 'Gill Sans';fill:#ffffff"
       id="text104"><tspan
         x="0"
         y="0"
         id="tspan104">Cycle</tspan></text>
    <text
       transform="matrix(0.83,0,0,1,11.11,265.87)"
       style="font-weight:700;font-size:7px;font-family:GillSans-Bold, 'Gill Sans';fill:#231f20"
       id="text105"><tspan
         x="0"
         y="0"
         id="tspan105">EOF</tspan></text>
    <text
       transform="matrix(0.83,0,0,1,85.87,265.15)"
       style="font-weight:700;font-size:7px;font-family:GillSans-Bold, 'Gill Sans';letter-spacing:-0.05em;fill:#231f20"
       id="text106"><tspan
         x="0"
         y="0"
         id="tspan106">5V ENV</tspan></text>
    <text
       transform="matrix(0.83,0,0,1,42.3,245.68)"
       style="font-weight:700;font-size:7px;font-family:GillSans-Bold, 'Gill Sans';fill:#231f20"
       id="text107"><tspan
         x="0"
         y="0"
         id="tspan107">ENV OUT</tspan></text>
    <text
       transform="matrix(0.83,0,0,1,44.38,36.75)"
       style="font-weight:700;font-size:10px;font-family:GillSans-Bold, 'Gill Sans';fill:#ffffff"
       id="text108"><tspan
         x="0"
         y="0"
         id="tspan108">Ping</tspan></text>
    <g
       id="g110">
      <path
         d="m 61.98,6.78 c 0,0 -3.87,4.92 -6.13,7.79 V 7.9 C 55.85,7.33 55.57,6.81 55.14,6.6 54.71,6.39 54.21,6.52 53.89,6.93 l -8.05,10.24 c -0.44,0.56 -0.42,1.44 0.03,1.98 0.45,0.53 1.18,0.52 1.62,-0.04 0,0 3.84,-4.88 6.09,-7.74 v 6.68 c 0,0.57 0.28,1.09 0.72,1.3 0.43,0.21 0.93,0.08 1.25,-0.33 0,0 3.87,-4.92 6.12,-7.79 0,3.05 0,6.81 0,6.81 0,0.78 0.51,1.4 1.14,1.4 0.63,0 1.14,-0.63 1.14,-1.4 V 7.75 C 63.95,7.18 63.67,6.66 63.23,6.45 62.8,6.23 62.31,6.37 61.98,6.78 Z"
         style="fill:#ffffff;stroke:#ffffff;stroke-width:0.67px"
         id="path108" />
      <path
         d="m 45.83,6.7 -5.34,6.79 c -0.44,0.56 -0.42,1.44 0.03,1.98 0.46,0.54 1.18,0.52 1.62,-0.04 0,0 1.8,-2.29 3.37,-4.29 v 6.98 c 0,0.78 0.51,1.4 1.14,1.4 0.63,0 1.15,-0.63 1.15,-1.4 V 7.67 C 47.8,7.1 47.52,6.58 47.09,6.37 46.66,6.16 46.16,6.29 45.84,6.7 Z"
         style="fill:#ffffff;stroke:#ffffff;stroke-width:0.67px"
         id="path109" />
      <path
         d="m 71.24,11.7 c -0.18,-0.52 -0.59,-0.85 -1.05,-0.85 h -2.33 c 0,0 1.7,-2.16 1.7,-2.16 0,0 0.88,-1.3 0.1,-2.01 -0.78,-0.71 -1.75,0.07 -1.75,0.07 l -3.57,4.54 c -0.32,0.4 -0.41,1 -0.23,1.52 0.18,0.52 0.6,0.85 1.05,0.85 h 2.33 c 0,0 -2.76,3.51 -2.76,3.51 0,0 -1.14,1.25 -0.3,2.09 0.85,0.85 1.94,-0.15 1.94,-0.15 L 71,13.22 c 0.32,-0.4 0.41,-1 0.23,-1.52 z"
         style="fill:#ffffff;stroke:#ffffff;stroke-width:0.67px"
         id="path110" />
    </g>
    <text
       transform="matrix(0.83,0,0,1,80.68,101.97)"
       style="font-weight:700;font-size:10px;font-family:GillSans-Bold, 'Gill Sans';fill:#ffffff"
       id="text110"><tspan
         x="0"
         y="0"
         id="tspan110">Cycle</tspan></text>
    <text
       transform="matrix(0.83,0,0,1,36.87,351.93)"
       style="font-weight:700;font-size:11px;font-family:GillSans-Bold, 'Gill Sans';fill:#ffffff"
       id="text111"><tspan
         x="0"
         y="0"
         id="tspan111">Mini PEG</tspan></text>
  </g>
  <g
     id="components"
     transform="translate(0,-0.00940739)">
    <circle
       id="Div"
       cx="57.380001"
       cy="311.04001"
       r="11.34"
       style="fill:#00ff00;stroke-width:0px" />
    <circle
       id="Cycle_Trig"
       data-name="Cycle Trig"
       cx="91.589996"
       cy="287.64001"
       r="11.34"
       style="fill:#80ff80;stroke-width:0px" />
    <circle
       id="Shape_CV"
       data-name="Shape CV"
       cx="57.380001"
       cy="267.84"
       r="11.34"
       style="fill:#00ff00;stroke-width:0px" />
    <circle
       id="Trigger"
       cx="23.01"
       cy="287.64001"
       r="11.34"
       style="fill:#80ff80;stroke-width:0px" />
    <circle
       id="5V_ENV_Out"
       data-name="5V ENV Out"
       cx="91.699997"
       cy="244.94"
       r="11.34"
       style="fill:#0000ff;stroke-width:0px" />
    <circle
       id="ENV_Out"
       data-name="ENV Out"
       cx="57.119999"
       cy="224.36"
       r="11.34"
       style="fill:#0000ff;stroke-width:0px" />
    <circle
       id="EOF"
       cx="23.07"
       cy="244.84"
       r="11.34"
       style="fill:#8080ff;stroke-width:0px" />
    <circle
       id="5V_ENV_Light"
       data-name="5V ENV Light#BlueLight"
       cx="99.669998"
       cy="220"
       r="4.96"
       style="fill:#ff00ff;stroke-width:0px" />
    <circle
       id="ENV_OUT_Light"
       data-name="ENV OUT Light#RedBlueLight"
       cx="57.400002"
       cy="200.10001"
       r="4.96"
       style="fill:#ff00ff;stroke-width:0px" />
    <circle
       id="EOF_Light"
       data-name="EOF Light#RedLight"
       cx="14.57"
       cy="220"
       r="4.96"
       style="fill:#ff00ff;stroke-width:0px" />
    <circle
       id="Ping_Trig"
       data-name="Ping Trig"
       cx="80.209999"
       cy="41.57"
       r="11.34"
       style="fill:#80ff80;stroke-width:0px" />
    <circle
       id="Offset"
       cx="91.139999"
       cy="188.53999"
       r="8.5"
       style="fill:#ff0080;stroke-width:0px" />
    <circle
       id="Scale"
       cx="91.139999"
       cy="133.33"
       r="8.5"
       style="fill:#ff0080;stroke-width:0px" />
    <circle
       id="Shape"
       cx="37.349998"
       cy="154.72"
       r="17.01"
       style="fill:#ff0040;stroke-width:0px" />
    <circle
       id="Div_Mult"
       data-name="Div/Mult"
       cx="36.450001"
       cy="87.769997"
       r="17.01"
       style="fill:#ff0040;stroke-width:0px" />
    <circle
       id="Cycle"
       cx="92.150002"
       cy="81.150002"
       r="11.34"
       style="fill:#ff8000;stroke-width:0px" />
    <circle
       id="Ping"
       cx="30.52"
       cy="41.57"
       r="11.34"
       style="fill:#ff8000;stroke-width:0px" />
    <text
       id="slug"
       transform="scale(0.96953597,1.0314212)"
       style="font-size:5.81722px;font-family:MyriadPro-Regular, 'Myriad Pro';fill:#020202;stroke-width:0.969536"
       inkscape:transform-center-x="8.0067346"
       inkscape:transform-center-y="9.8544426"
       x="3.5184824"
       y="350.70419"><tspan
         x="3.5184824"
         y="350.70419"
         id="tspan112"
         style="stroke-width:0.969536">MPEG</tspan></text>
    <text
       id="modulename"
       style="font-size:6px;font-family:MyriadPro-Regular, 'Myriad Pro';fill:#020202"
       x="85.302773"
       y="361.24786"><tspan
         x="85.302773"
         y="361.24786"
         style="letter-spacing:0.01em"
         id="tspan113">M</tspan><tspan
         x="90.202774"
         y="361.24786"
         id="tspan114">ini PEG</tspan></text>
    <circle
       id="TrigJackModeAltFunc"
       cx="23.01"
       cy="287.64001"
       r="4"
       style="fill:#808080;stroke-width:0px"
       data-name="Trig Jack Mode@Async  Trig@Async Gate@Quantized Trig" />
    <circle
       id="CycleJackModeAltFunc"
       data-name="Cycle Jack Mode@Gate@Gate+Sync@Trig"
       cx="91.589996"
       cy="287.64001"
       r="4"
       style="fill:#808080;stroke-width:0px" />
    <circle
       id="EOFJackModeAltParam"
       cx="23.07"
       cy="244.84"
       r="4"
       style="fill:#808080;stroke-width:0px"
       data-name="EOF Jack Mode@EOF@EOR@Half-Rise@Tap Clock" />
    <circle
       id="EOFJackTypeAltParam"
       cx="23.07"
       cy="244.84"
       r="4"
       style="fill:#808080;stroke-width:0px"
       data-name="EOF Jack Type@Gate@Trigger" />
    <circle
       id="FreerunningPingAltParam"
       data-name="Free-running Ping@On@Off"
       cx="80.209999"
       cy="41.57"
       r="4"
       style="fill:#808080;stroke-width:0px" />
    <circle
       id="SkewLimitAltParam"
       data-name="Skew Limit@Off@On"
       cx="57.119999"
       cy="224.36"
       r="4"
       style="fill:#808080;stroke-width:0px" />
  </g>
</svg>
