<?xml version="1.0" encoding="UTF-8"?>
<svg xmlns="http://www.w3.org/2000/svg" width="1.6in" height="5.2in" viewBox="0 0 115.4 374.57">
  <g id="faceplate">
    <g id="panel">
      <rect x="0" y="0" width="114.41" height="364.26"/>
      <path d="m25.46,12.74c2.51,0,4.54-2.03,4.54-4.54s-2.03-4.54-4.54-4.54h-8.44c-2.5,0-4.54,2.03-4.54,4.54,0,2.5,2.03,4.54,4.54,4.54h8.44Z" style="fill: #fff;"/>
      <path d="m25.46,360c2.51,0,4.54-2.03,4.54-4.54s-2.03-4.54-4.54-4.54h-8.44c-2.5,0-4.54,2.03-4.54,4.54,0,2.51,2.03,4.54,4.54,4.54h8.44Z" style="fill: #fff;"/>
    </g>
    <g id="art">
      <g>
        <path d="m77.12,9.03s-3.87,4.92-6.13,7.79c0-3.01,0-6.67,0-6.67,0-.57-.28-1.09-.71-1.3-.43-.21-.93-.08-1.25.33l-8.05,10.24c-.44.56-.42,1.44.03,1.98.45.53,1.18.52,1.62-.04,0,0,3.84-4.88,6.09-7.74,0,3.01,0,6.68,0,6.68,0,.57.28,1.09.72,1.3.43.21.93.08,1.25-.33,0,0,3.87-4.92,6.12-7.79,0,3.05,0,6.81,0,6.81,0,.78.51,1.4,1.14,1.4.63,0,1.14-.63,1.14-1.4v-10.29c0-.57-.28-1.09-.72-1.3-.43-.22-.92-.08-1.25.33Z" style="fill: #fff; stroke: #fff; stroke-width: .67px;"/>
        <path d="m60.97,8.95l-5.34,6.79c-.44.56-.42,1.44.03,1.98.46.54,1.18.52,1.62-.04,0,0,1.8-2.29,3.37-4.29v6.98c0,.78.51,1.4,1.14,1.4s1.15-.63,1.15-1.4v-10.45c0-.57-.28-1.09-.71-1.3-.43-.21-.93-.08-1.25.33Z" style="fill: #fff; stroke: #fff; stroke-width: .67px;"/>
        <path d="m86.38,13.95c-.18-.52-.59-.85-1.05-.85h-2.33s1.7-2.16,1.7-2.16c0,0,.88-1.3.1-2.01-.78-.71-1.75.07-1.75.07l-3.57,4.54c-.32.4-.41,1-.23,1.52.18.52.6.85,1.05.85h2.33s-2.76,3.51-2.76,3.51c0,0-1.14,1.25-.3,2.09.85.85,1.94-.15,1.94-.15l4.63-5.89c.32-.4.41-1,.23-1.52Z" style="fill: #fff; stroke: #fff; stroke-width: .67px;"/>
      </g>
      <polyline points="46.16 55.85 52.71 55.85 56.82 53.64" style="fill: none; stroke: #fff; stroke-width: .84px;"/>
      <polyline points="46.16 31.29 52.71 31.29 56.82 33.5" style="fill: none; stroke: #fff; stroke-width: .84px;"/>
      <polyline points="34.31 55.85 27.76 55.85 23.64 53.64" style="fill: none; stroke: #fff; stroke-width: .84px;"/>
      <polyline points="34.31 31.29 27.76 31.29 23.64 33.5" style="fill: none; stroke: #fff; stroke-width: .84px;"/>
      <path d="m80.33,307.13l-34.6.24v.13c5.68,2.86,8.75,8.54,8.75,15.09s-3.09,12.26-8.8,15.11v.11s34.65-.24,34.65-.24c8.82,0,15.25-6.81,15.25-15.22,0-8.41-6.43-15.22-15.25-15.22Z" style="fill: #fff;"/>
      <path d="m35.87,338.56c8.88,0,16.09-7.2,16.09-16.09,0-8.88-7.2-16.09-16.09-16.09-8.88,0-16.09,7.2-16.09,16.09s7.2,16.09,16.09,16.09Z" style="fill: none; stroke: #fff; stroke-miterlimit: 10;"/>
      <path d="m108.12,226.71c0-8.88-7.2-16.09-16.09-16.09s-16.09,7.2-16.09,16.09v8.53c0,8.88,7.2,16.09,16.09,16.09,8.88,0,16.09-7.2,16.09-16.09v-8.53Z" style="fill: #fff;"/>
      <path d="m83.55,264.87c-4.56,2.84-7.6,7.9-7.6,13.67v8.53c0,8.88,7.2,16.09,16.09,16.09,8.15,0,14.88-6.06,15.94-13.91l4.03-31.91c.03-.24.05-.49.05-.74,0-3.12-2.53-5.64-5.64-5.64-1.14,0-2.2.34-3.08.92l-19.78,13Z" style="fill: #fff;"/>
      <g>
        <line x1="80.77" y1="134.32" x2="88.72" y2="134.32" style="fill: none; stroke: #fff; stroke-width: .8px;"/>
        <line x1="83.95" y1="129.22" x2="88.72" y2="129.22" style="fill: none; stroke: #fff; stroke-width: .8px;"/>
        <line x1="83.95" y1="124.11" x2="88.72" y2="124.11" style="fill: none; stroke: #fff; stroke-width: .8px;"/>
        <line x1="83.95" y1="119.01" x2="88.72" y2="119.01" style="fill: none; stroke: #fff; stroke-width: .8px;"/>
        <line x1="83.95" y1="113.91" x2="88.72" y2="113.91" style="fill: none; stroke: #fff; stroke-width: .8px;"/>
        <line x1="80.77" y1="108.81" x2="88.72" y2="108.81" style="fill: none; stroke: #fff; stroke-width: .8px;"/>
        <line x1="83.95" y1="103.7" x2="88.72" y2="103.7" style="fill: none; stroke: #fff; stroke-width: .8px;"/>
        <line x1="83.95" y1="98.6" x2="88.72" y2="98.6" style="fill: none; stroke: #fff; stroke-width: .8px;"/>
        <line x1="83.95" y1="93.5" x2="88.72" y2="93.5" style="fill: none; stroke: #fff; stroke-width: .8px;"/>
        <line x1="83.95" y1="88.4" x2="88.72" y2="88.4" style="fill: none; stroke: #fff; stroke-width: .8px;"/>
        <line x1="80.77" y1="83.29" x2="88.72" y2="83.29" style="fill: none; stroke: #fff; stroke-width: .8px;"/>
        <line x1="102.23" y1="134.32" x2="94.28" y2="134.32" style="fill: none; stroke: #fff; stroke-width: .8px;"/>
        <line x1="99.05" y1="129.22" x2="94.28" y2="129.22" style="fill: none; stroke: #fff; stroke-width: .8px;"/>
        <line x1="99.05" y1="124.11" x2="94.28" y2="124.11" style="fill: none; stroke: #fff; stroke-width: .8px;"/>
        <line x1="99.05" y1="119.01" x2="94.28" y2="119.01" style="fill: none; stroke: #fff; stroke-width: .8px;"/>
        <line x1="99.05" y1="113.91" x2="94.28" y2="113.91" style="fill: none; stroke: #fff; stroke-width: .8px;"/>
        <line x1="102.23" y1="108.81" x2="94.28" y2="108.81" style="fill: none; stroke: #fff; stroke-width: .8px;"/>
        <line x1="99.05" y1="103.7" x2="94.28" y2="103.7" style="fill: none; stroke: #fff; stroke-width: .8px;"/>
        <line x1="99.05" y1="98.6" x2="94.28" y2="98.6" style="fill: none; stroke: #fff; stroke-width: .8px;"/>
        <line x1="99.05" y1="93.5" x2="94.28" y2="93.5" style="fill: none; stroke: #fff; stroke-width: .8px;"/>
        <line x1="99.05" y1="88.4" x2="94.28" y2="88.4" style="fill: none; stroke: #fff; stroke-width: .8px;"/>
        <line x1="102.23" y1="83.29" x2="94.28" y2="83.29" style="fill: none; stroke: #fff; stroke-width: .8px;"/>
      </g>
      <g>
        <line x1="46.59" y1="134.53" x2="54.54" y2="134.53" style="fill: none; stroke: #fff; stroke-width: .8px;"/>
        <line x1="49.78" y1="129.43" x2="54.54" y2="129.43" style="fill: none; stroke: #fff; stroke-width: .8px;"/>
        <line x1="49.78" y1="124.32" x2="54.54" y2="124.32" style="fill: none; stroke: #fff; stroke-width: .8px;"/>
        <line x1="49.78" y1="119.22" x2="54.54" y2="119.22" style="fill: none; stroke: #fff; stroke-width: .8px;"/>
        <line x1="49.78" y1="114.12" x2="54.54" y2="114.12" style="fill: none; stroke: #fff; stroke-width: .8px;"/>
        <line x1="46.59" y1="109.02" x2="54.54" y2="109.02" style="fill: none; stroke: #fff; stroke-width: .8px;"/>
        <line x1="49.78" y1="103.91" x2="54.54" y2="103.91" style="fill: none; stroke: #fff; stroke-width: .8px;"/>
        <line x1="49.78" y1="98.81" x2="54.54" y2="98.81" style="fill: none; stroke: #fff; stroke-width: .8px;"/>
        <line x1="49.78" y1="93.71" x2="54.54" y2="93.71" style="fill: none; stroke: #fff; stroke-width: .8px;"/>
        <line x1="49.78" y1="88.61" x2="54.54" y2="88.61" style="fill: none; stroke: #fff; stroke-width: .8px;"/>
        <line x1="46.59" y1="83.5" x2="54.54" y2="83.5" style="fill: none; stroke: #fff; stroke-width: .8px;"/>
        <line x1="68.06" y1="134.53" x2="60.11" y2="134.53" style="fill: none; stroke: #fff; stroke-width: .8px;"/>
        <line x1="64.87" y1="129.43" x2="60.11" y2="129.43" style="fill: none; stroke: #fff; stroke-width: .8px;"/>
        <line x1="64.87" y1="124.32" x2="60.11" y2="124.32" style="fill: none; stroke: #fff; stroke-width: .8px;"/>
        <line x1="64.87" y1="119.22" x2="60.11" y2="119.22" style="fill: none; stroke: #fff; stroke-width: .8px;"/>
        <line x1="64.87" y1="114.12" x2="60.11" y2="114.12" style="fill: none; stroke: #fff; stroke-width: .8px;"/>
        <line x1="68.06" y1="109.02" x2="60.11" y2="109.02" style="fill: none; stroke: #fff; stroke-width: .8px;"/>
        <line x1="64.87" y1="103.91" x2="60.11" y2="103.91" style="fill: none; stroke: #fff; stroke-width: .8px;"/>
        <line x1="64.87" y1="98.81" x2="60.11" y2="98.81" style="fill: none; stroke: #fff; stroke-width: .8px;"/>
        <line x1="64.87" y1="93.71" x2="60.11" y2="93.71" style="fill: none; stroke: #fff; stroke-width: .8px;"/>
        <line x1="64.87" y1="88.61" x2="60.11" y2="88.61" style="fill: none; stroke: #fff; stroke-width: .8px;"/>
        <line x1="68.06" y1="83.5" x2="60.11" y2="83.5" style="fill: none; stroke: #fff; stroke-width: .8px;"/>
      </g>
      <g>
        <line x1="12.46" y1="134.32" x2="20.41" y2="134.32" style="fill: none; stroke: #fff; stroke-width: .8px;"/>
        <line x1="15.64" y1="129.22" x2="20.41" y2="129.22" style="fill: none; stroke: #fff; stroke-width: .8px;"/>
        <line x1="15.64" y1="124.11" x2="20.41" y2="124.11" style="fill: none; stroke: #fff; stroke-width: .8px;"/>
        <line x1="15.64" y1="119.01" x2="20.41" y2="119.01" style="fill: none; stroke: #fff; stroke-width: .8px;"/>
        <line x1="15.64" y1="113.91" x2="20.41" y2="113.91" style="fill: none; stroke: #fff; stroke-width: .8px;"/>
        <line x1="12.46" y1="108.81" x2="20.41" y2="108.81" style="fill: none; stroke: #fff; stroke-width: .8px;"/>
        <line x1="15.64" y1="103.7" x2="20.41" y2="103.7" style="fill: none; stroke: #fff; stroke-width: .8px;"/>
        <line x1="15.64" y1="98.6" x2="20.41" y2="98.6" style="fill: none; stroke: #fff; stroke-width: .8px;"/>
        <line x1="15.64" y1="93.5" x2="20.41" y2="93.5" style="fill: none; stroke: #fff; stroke-width: .8px;"/>
        <line x1="15.64" y1="88.4" x2="20.41" y2="88.4" style="fill: none; stroke: #fff; stroke-width: .8px;"/>
        <line x1="12.46" y1="83.29" x2="20.41" y2="83.29" style="fill: none; stroke: #fff; stroke-width: .8px;"/>
        <line x1="33.92" y1="134.32" x2="25.97" y2="134.32" style="fill: none; stroke: #fff; stroke-width: .8px;"/>
        <line x1="30.74" y1="129.22" x2="25.97" y2="129.22" style="fill: none; stroke: #fff; stroke-width: .8px;"/>
        <line x1="30.74" y1="124.11" x2="25.97" y2="124.11" style="fill: none; stroke: #fff; stroke-width: .8px;"/>
        <line x1="30.74" y1="119.01" x2="25.97" y2="119.01" style="fill: none; stroke: #fff; stroke-width: .8px;"/>
        <line x1="30.74" y1="113.91" x2="25.97" y2="113.91" style="fill: none; stroke: #fff; stroke-width: .8px;"/>
        <line x1="33.92" y1="108.81" x2="25.97" y2="108.81" style="fill: none; stroke: #fff; stroke-width: .8px;"/>
        <line x1="30.74" y1="103.7" x2="25.97" y2="103.7" style="fill: none; stroke: #fff; stroke-width: .8px;"/>
        <line x1="30.74" y1="98.6" x2="25.97" y2="98.6" style="fill: none; stroke: #fff; stroke-width: .8px;"/>
        <line x1="30.74" y1="93.5" x2="25.97" y2="93.5" style="fill: none; stroke: #fff; stroke-width: .8px;"/>
        <line x1="30.74" y1="88.4" x2="25.97" y2="88.4" style="fill: none; stroke: #fff; stroke-width: .8px;"/>
        <line x1="33.92" y1="83.29" x2="25.97" y2="83.29" style="fill: none; stroke: #fff; stroke-width: .8px;"/>
      </g>
      <polyline points="44.22 204.76 31.97 204.76 24.99 200.05" style="fill: none; stroke: #fff; stroke-miterlimit: 10;"/>
      <polyline points="70.01 204.76 82.26 204.76 89.24 200.05" style="fill: none; stroke: #fff; stroke-miterlimit: 10;"/>
      <g>
        <g>
          <path d="m83.7,169.85l-1.09-.92c.81-.89,1.74-1.67,2.75-2.32l.71,1.23c-.87.57-1.66,1.25-2.37,2.01Z" style="fill: #fff;"/>
          <path d="m87.16,167.2l-.71-1.23c1.06-.55,2.19-.97,3.38-1.24l.25,1.4c-1.03.24-2.01.6-2.92,1.07Z" style="fill: #fff;"/>
          <path d="m81.33,173.5l-1.33-.48c.46-1.12,1.07-2.17,1.79-3.12l1.09.92c-.62.82-1.15,1.72-1.56,2.68Z" style="fill: #fff;"/>
          <path d="m95.69,166.13l.25-1.4c1.19.27,2.33.69,3.38,1.24l-.71,1.23c-.91-.47-1.89-.83-2.92-1.07Z" style="fill: #fff;"/>
          <path d="m80.39,177.75h-1.43c.05-1.23.26-2.41.61-3.54l1.34.49c-.3.97-.46,2-.51,3.05Z" style="fill: #fff;"/>
          <path d="m80.94,182.06l-1.33.48c-.36-1.13-.58-2.32-.64-3.53h1.42c.06,1.04.25,2.06.55,3.04Z" style="fill: #fff;"/>
          <path d="m82.93,185.91l-1.09.91c-.73-.95-1.33-1.99-1.8-3.09l1.33-.49c.41.95.93,1.84,1.55,2.67Z" style="fill: #fff;"/>
          <path d="m102.89,170.82l1.1-.92c.72.95,1.33,2,1.79,3.12l-1.33.48c-.4-.96-.94-1.86-1.56-2.68Z" style="fill: #fff;"/>
          <path d="m104.87,174.69l1.34-.49c.35,1.13.56,2.31.61,3.54h-1.43c-.05-1.05-.22-2.08-.51-3.05Z" style="fill: #fff;"/>
          <path d="m105.39,179.01h1.42c-.06,1.21-.28,2.39-.64,3.53l-1.33-.49c.31-.98.5-2,.55-3.04Z" style="fill: #fff;"/>
          <path d="m104.4,183.25l1.33.49c-.47,1.1-1.07,2.14-1.8,3.09l-1.09-.91c.63-.82,1.15-1.72,1.55-2.66Z" style="fill: #fff;"/>
          <path d="m99.71,167.84l.71-1.23c1.02.65,1.94,1.43,2.75,2.32l-1.1.92c-.7-.76-1.5-1.44-2.37-2.01Z" style="fill: #fff;"/>
        </g>
        <path d="m94.89,162.93c0,.42-.05.79-.16,1.1s-.25.58-.43.78c-.18.2-.39.35-.63.45-.24.1-.49.15-.75.15s-.52-.05-.75-.15c-.24-.1-.44-.25-.63-.45s-.33-.46-.43-.77c-.11-.31-.16-.68-.16-1.1s.05-.79.16-1.11c.11-.31.25-.57.43-.78.18-.2.39-.36.63-.46.24-.1.49-.15.75-.15s.52.05.75.15.44.25.63.46c.19.21.33.47.43.78s.16.68.16,1.1Zm-1.44,0c0-.43-.03-.78-.09-1.05s-.21-.41-.44-.41c-.16,0-.28.08-.36.23s-.13.33-.15.53c-.02.2-.03.44-.03.7,0,.46.03.82.09,1.07.06.26.21.38.44.38s.38-.13.44-.38c.06-.25.09-.61.09-1.07Z" style="fill: #fff;"/>
        <path d="m103.44,189.31h-1.6v1.61h-.9v-1.61h-1.6v-.91h1.6v-1.61h.9v1.61h1.6v.91Z" style="fill: #fff;"/>
        <path d="m85.35,189.64h-3.31v-1.26h3.31v1.26Z" style="fill: #fff;"/>
        <circle cx="92.88" cy="178.31" r="13.93" style="fill: none;"/>
      </g>
      <g>
        <g>
          <path d="m12.5,169.83l-1.09-.92c.81-.89,1.74-1.67,2.75-2.32l.71,1.23c-.87.57-1.66,1.25-2.37,2.01Z" style="fill: #fff;"/>
          <path d="m15.97,167.19l-.71-1.23c1.06-.55,2.19-.97,3.38-1.24l.25,1.4c-1.03.24-2.01.6-2.92,1.07Z" style="fill: #fff;"/>
          <path d="m10.13,173.49l-1.33-.48c.46-1.12,1.07-2.17,1.79-3.12l1.09.92c-.62.82-1.15,1.72-1.56,2.68Z" style="fill: #fff;"/>
          <path d="m24.49,166.12l.25-1.4c1.19.27,2.33.69,3.38,1.24l-.71,1.23c-.91-.47-1.89-.83-2.92-1.07Z" style="fill: #fff;"/>
          <path d="m9.19,177.73h-1.43c.05-1.23.26-2.41.61-3.54l1.34.49c-.3.97-.46,2-.51,3.05Z" style="fill: #fff;"/>
          <path d="m9.74,182.04l-1.33.48c-.36-1.13-.58-2.32-.64-3.53h1.42c.06,1.04.25,2.06.55,3.04Z" style="fill: #fff;"/>
          <path d="m11.73,185.9l-1.09.91c-.73-.95-1.33-1.99-1.8-3.09l1.33-.49c.41.95.93,1.84,1.55,2.67Z" style="fill: #fff;"/>
          <path d="m31.69,170.8l1.1-.92c.72.95,1.33,2,1.79,3.12l-1.33.48c-.4-.96-.94-1.86-1.56-2.68Z" style="fill: #fff;"/>
          <path d="m33.67,174.68l1.34-.49c.35,1.13.56,2.31.61,3.54h-1.43c-.05-1.05-.22-2.08-.51-3.05Z" style="fill: #fff;"/>
          <path d="m34.2,179h1.42c-.06,1.21-.28,2.39-.64,3.53l-1.33-.49c.31-.98.5-2,.55-3.04Z" style="fill: #fff;"/>
          <path d="m33.2,183.23l1.33.49c-.47,1.1-1.07,2.14-1.8,3.09l-1.09-.91c.63-.82,1.15-1.72,1.55-2.66Z" style="fill: #fff;"/>
          <path d="m28.51,167.82l.71-1.23c1.02.65,1.94,1.43,2.75,2.32l-1.1.92c-.7-.76-1.5-1.44-2.37-2.01Z" style="fill: #fff;"/>
        </g>
        <path d="m23.69,162.91c0,.42-.05.79-.16,1.1s-.25.58-.43.78c-.18.2-.39.35-.63.45-.24.1-.49.15-.75.15s-.52-.05-.75-.15c-.24-.1-.44-.25-.63-.45s-.33-.46-.43-.77c-.11-.31-.16-.68-.16-1.1s.05-.79.16-1.11c.11-.31.25-.57.43-.78.18-.2.39-.36.63-.46.24-.1.49-.15.75-.15s.52.05.75.15.44.25.63.46c.19.21.33.47.43.78s.16.68.16,1.1Zm-1.44,0c0-.43-.03-.78-.09-1.05s-.21-.41-.44-.41c-.16,0-.28.08-.36.23s-.13.33-.15.53c-.02.2-.03.44-.03.7,0,.46.03.82.09,1.07.06.26.21.38.44.38s.38-.13.44-.38c.06-.25.09-.61.09-1.07Z" style="fill: #fff;"/>
        <path d="m32.24,189.29h-1.6v1.61h-.9v-1.61h-1.6v-.91h1.6v-1.61h.9v1.61h1.6v.91Z" style="fill: #fff;"/>
        <path d="m14.16,189.62h-3.31v-1.26h3.31v1.26Z" style="fill: #fff;"/>
        <circle cx="21.68" cy="178.29" r="13.93" style="fill: none;"/>
      </g>
    </g>
    <g id="text">
      <text transform="translate(16.1 154.05) scale(.83 1)" style="fill: #fff; font-family: GillSans-Bold, &apos;Gill Sans&apos;; font-size: 8px; font-weight: 700;"><tspan x="0" y="0">Rise</tspan></text>
      <text transform="translate(50.71 154.05) scale(.83 1)" style="fill: #fff; font-family: GillSans-Bold, &apos;Gill Sans&apos;; font-size: 8px; font-weight: 700;"><tspan x="0" y="0" style="letter-spacing: .01em;">F</tspan><tspan x="5.09" y="0">all</tspan></text>
      <text transform="translate(74.61 154.05) scale(.83 1)" style="fill: #fff; font-family: GillSans-Bold, &apos;Gill Sans&apos;; font-size: 8px; font-weight: 700;"><tspan x="0" y="0">En</tspan><tspan x="10.27" y="0" style="letter-spacing: -.06em;">v</tspan><tspan x="14.47" y="0">. Le</tspan><tspan x="28.93" y="0" style="letter-spacing: -.01em;">v</tspan><tspan x="33.48" y="0">el</tspan></text>
      <text transform="translate(9.22 198.48) scale(.83 1)" style="fill: #fff; font-family: GillSans-Bold, &apos;Gill Sans&apos;; font-size: 8px; font-weight: 700;"><tspan x="0" y="0">Rise CV</tspan></text>
      <text transform="translate(35.8 56.93) scale(.83 1)" style="fill: #fff; font-family: GillSans-SemiBold, &apos;Gill Sans&apos;; font-size: 6px; font-weight: 600;"><tspan x="0" y="0">Fast</tspan></text>
      <text transform="translate(35.53 45.08) scale(.83 1)" style="fill: #fff; font-family: GillSans-SemiBold, &apos;Gill Sans&apos;; font-size: 6px; font-weight: 600;"><tspan x="0" y="0">Med</tspan></text>
      <text transform="translate(35 32.58) scale(.83 1)" style="fill: #fff; font-family: GillSans-SemiBold, &apos;Gill Sans&apos;; font-size: 6px; font-weight: 600;"><tspan x="0" y="0">Slow</tspan></text>
      <text transform="translate(35 84.82) scale(.83 1)" style="fill: #fff; font-family: GillSans-SemiBold, &apos;Gill Sans&apos;; font-size: 6px; font-weight: 600;"><tspan x="0" y="0">Slow</tspan></text>
      <text transform="translate(35.8 136.08) scale(.83 1)" style="fill: #fff; font-family: GillSans-SemiBold, &apos;Gill Sans&apos;; font-size: 6px; font-weight: 600;"><tspan x="0" y="0">Fast</tspan></text>
      <text transform="translate(80.92 198.48) scale(.83 1)" style="fill: #fff; font-family: GillSans-Bold, &apos;Gill Sans&apos;; font-size: 8px; font-weight: 700;"><tspan x="0" y="0" style="letter-spacing: .01em;">F</tspan><tspan x="5.09" y="0">all CV</tspan></text>
      <text transform="translate(47.04 305.02) scale(.83 1)" style="fill: #fff; font-family: GillSans-Bold, &apos;Gill Sans&apos;; font-size: 8px; font-weight: 700;"><tspan x="0" y="0" style="letter-spacing: .01em;">A</tspan><tspan x="6.78" y="0">udio</tspan></text>
      <text transform="translate(83.07 61.7) scale(.83 1)" style="fill: #fff; font-family: GillSans-Bold, &apos;Gill Sans&apos;; font-size: 8px; font-weight: 700;"><tspan x="0" y="0">Cycle</tspan></text>
      <text transform="translate(49.19 274.07) scale(.83 1)" style="fill: #fff; font-family: GillSans-Bold, &apos;Gill Sans&apos;; font-size: 7.09px; font-weight: 700;"><tspan x="0" y="0">Cycle</tspan></text>
      <text transform="translate(11.26 299.75) scale(.83 1)" style="fill: #fff; font-family: GillSans-Bold, &apos;Gill Sans&apos;; font-size: 8px; font-weight: 700;"><tspan x="0" y="0" style="letter-spacing: -.01em;">F</tspan><tspan x="4.86" y="0">ol</tspan><tspan x="12.43" y="0" style="letter-spacing: -.01em;">lo</tspan><tspan x="19.78" y="0" style="letter-spacing: 0em;">w</tspan></text>
      <text transform="translate(9.98 247.84) scale(.83 1)" style="fill: #fff; font-family: GillSans-Bold, &apos;Gill Sans&apos;; font-size: 8px; font-weight: 700;"><tspan x="0" y="0" style="letter-spacing: -.03em;">T</tspan><tspan x="5.91" y="0" style="letter-spacing: -.04em;">r</tspan><tspan x="9.52" y="0">igger</tspan></text>
      <text transform="translate(42.5 223.83) scale(.83 1)" style="fill: #fff; font-family: GillSans-Bold, &apos;Gill Sans&apos;; font-size: 8px; font-weight: 700;"><tspan x="0" y="0" style="letter-spacing: -.01em;">T</tspan><tspan x="6.03" y="0">ime CV</tspan></text>
      <text transform="translate(45.57 357.15) scale(.83 1)" style="fill: #fff; font-family: GillSans-Bold, &apos;Gill Sans&apos;; font-size: 11px; font-weight: 700;"><tspan x="0" y="0">Env</tspan><tspan x="20.53" y="0" style="letter-spacing: -.03em;">V</tspan><tspan x="28.52" y="0">CA</tspan></text>
      <text transform="translate(85.83 247.14) scale(.83 1)" style="fill: #231f20; font-family: GillSans-Bold, &apos;Gill Sans&apos;; font-size: 8px; font-weight: 700;"><tspan x="0" y="0">Env</tspan></text>
      <text transform="translate(84.57 299.27) scale(.83 1)" style="fill: #231f20; font-family: GillSans-Bold, &apos;Gill Sans&apos;; font-size: 8px; font-weight: 700;"><tspan x="0" y="0">EOR</tspan></text>
      <text transform="translate(32.89 345.04) scale(.83 1)" style="fill: #fff; font-family: GillSans-Bold, &apos;Gill Sans&apos;; font-size: 7.09px; font-weight: 700;"><tspan x="0" y="0">In</tspan></text>
      <text transform="translate(72.81 345.04) scale(.83 1)" style="fill: #fff; font-family: GillSans-Bold, &apos;Gill Sans&apos;; font-size: 7.09px; font-weight: 700;"><tspan x="0" y="0">Out</tspan></text>
    </g>
  </g>
  <g id="components">
    <circle id="Out" cx="78.57" cy="322.5" r="11.34" style="fill: blue;"/>
    <circle id="In" cx="35.87" cy="322.47" r="11.34" style="fill: lime;"/>
    <circle id="EOR" cx="92.03" cy="278.73" r="11.34" style="fill: #8080ff;"/>
    <circle id="EOR_LED" data-name="EOR LED" cx="106.41" cy="256.6" r="4.96" style="fill: #f0f;"/>
    <circle id="Follow" cx="22.3" cy="278.73" r="11.34" style="fill: lime;"/>
    <circle id="Cycle" cx="57.25" cy="254.25" r="11.34" style="fill: #80ff80;"/>
    <circle id="Env" cx="92.03" cy="227.06" r="11.34" style="fill: blue;"/>
    <circle id="Trigger" cx="22.3" cy="227.06" r="11.34" style="fill: #80ff80;"/>
    <circle id="Time_CV" data-name="Time CV" cx="57.25" cy="203.53" r="11.34" style="fill: lime;"/>
    <circle id="Fall_CV" data-name="Fall CV" cx="92.85" cy="178.25" r="8.5" style="fill: #ff0080;"/>
    <circle id="Fall_LED" data-name="Fall LED" cx="69.34" cy="174.84" r="4.96" style="fill: #f0f;"/>
    <circle id="Rise_LED" data-name="Rise LED" cx="45.11" cy="174.84" r="4.96" style="fill: #f0f;"/>
    <circle id="Rise_CV" data-name="Rise CV" cx="21.69" cy="178.25" r="8.5" style="fill: #ff0080;"/>
    <rect id="Env_Level_Slider" data-name="Env Level Slider" x="88.67" y="70.54" width="5.67" height="76.54" style="fill: #ff0080;"/>
    <rect id="Fall_Slider" data-name="Fall Slider" x="54.49" y="70.75" width="5.67" height="76.54" style="fill: #ff0040;"/>
    <rect id="Rise_Slider" data-name="Rise Slider" x="20.35" y="70.54" width="5.67" height="76.54" style="fill: #ff0040;"/>
    <circle id="Cycle-2" data-name="Cycle" cx="92.17" cy="41.65" r="11.34" style="fill: #ff8000;"/>
    <rect id="Slow_Med_Fast_Fall" data-name="Slow Med Fast Fall" x="51.66" y="34.8" width="11.34" height="17.01" style="fill: #ffc080;"/>
    <rect id="Slow_Med_Fast_Rise" data-name="Slow Med Fast Rise" x="17.52" y="34.8" width="11.34" height="17.01" style="fill: #ffc080;"/>
    <text id="slug" transform="translate(50.16 373.12) scale(.94 1)" style="fill: #020202; font-family: MyriadPro-Regular, &apos;Myriad Pro&apos;; font-size: 6px;"><tspan x="0" y="0">EN</tspan><tspan x="6.9" y="0" style="letter-spacing: .02em;">V</tspan><tspan x="10.34" y="0">V</tspan><tspan x="13.69" y="0" style="letter-spacing: 0em;">C</tspan><tspan x="17.2" y="0">A</tspan></text>
    <text id="modulename" transform="translate(80.65 373.07)" style="fill: #020202; font-family: MyriadPro-Regular, &apos;Myriad Pro&apos;; font-size: 6px;"><tspan x="0" y="0">E</tspan><tspan x="2.95" y="0" style="letter-spacing: -.01em;">n</tspan><tspan x="6.2" y="0" style="letter-spacing: 0em;">v</tspan><tspan x="9.03" y="0">elope</tspan><tspan x="23.17" y="0" style="letter-spacing: -.04em;"> </tspan><tspan x="24.22" y="0">V</tspan><tspan x="27.57" y="0" style="letter-spacing: 0em;">C</tspan><tspan x="31.07" y="0">A</tspan></text>
  </g>
</svg>