<?xml version="1.0" encoding="UTF-8"?>
<svg xmlns="http://www.w3.org/2000/svg" width="101.74mm" height="132.26mm" viewBox="0 0 288.4 374.91">
  <g id="faceplate">
    <g id="panel">
      <rect x=".63" y=".63" width="287.15" height="364.26" style="stroke: #000; stroke-width: 1.25px;"/>
      <path d="m265.06,360.63c2.51,0,4.54-2.03,4.54-4.54s-2.03-4.54-4.54-4.54h-8.44c-2.5,0-4.54,2.03-4.54,4.54,0,2.51,2.03,4.54,4.54,4.54h8.44Z" style="fill: #fff;"/>
      <path d="m31.5,360.63c2.51,0,4.54-2.03,4.54-4.54,0-2.5-2.03-4.54-4.54-4.54h-8.44c-2.5,0-4.54,2.03-4.54,4.54,0,2.51,2.03,4.54,4.54,4.54h8.44Z" style="fill: #fff;"/>
      <path d="m31.5,13.37c2.51,0,4.54-2.03,4.54-4.54,0-2.5-2.03-4.54-4.54-4.54h-8.44c-2.5,0-4.54,2.03-4.54,4.54,0,2.5,2.03,4.54,4.54,4.54h8.44Z" style="fill: #fff;"/>
      <path d="m265.06,13.37c2.51,0,4.54-2.03,4.54-4.54s-2.03-4.54-4.54-4.54h-8.44c-2.5,0-4.54,2.03-4.54,4.54,0,2.5,2.03,4.54,4.54,4.54h8.44Z" style="fill: #fff;"/>
    </g>
    <g id="art">
      <circle cx="264.88" cy="280.89" r="16.09" style="fill: none; stroke: #fff; stroke-miterlimit: 10;"/>
      <circle cx="22.13" cy="280.89" r="16.09" style="fill: none; stroke: #fff; stroke-miterlimit: 10;"/>
      <path d="m37.28,331.53l.2-38.25h-.01c-3.3,4.51-8.94,7.47-15.34,7.43-6.33-.04-11.89-3-15.15-7.47h0s-.2,38.1-.2,38.1c-.05,8.04,6.74,13.95,15.17,14,8.42.05,15.29-5.77,15.34-13.81Z" style="fill: #fff; stroke: #fff; stroke-linecap: round; stroke-linejoin: round; stroke-width: .96px;"/>
      <path d="m280.03,331.53l.2-38.25h-.01c-3.3,4.51-8.94,7.47-15.34,7.43-6.33-.04-11.89-3-15.15-7.47h0s-.2,38.1-.2,38.1c-.05,8.04,6.74,13.95,15.17,14,8.42.05,15.29-5.77,15.34-13.81Z" style="fill: #fff; stroke: #fff; stroke-linecap: round; stroke-linejoin: round; stroke-width: .96px;"/>
      <g>
        <line x1="169.98" y1="130.29" x2="162.73" y2="130.29" style="fill: none; stroke: #fff; stroke-width: .8px;"/>
        <line x1="167.49" y1="125.18" x2="162.73" y2="125.18" style="fill: none; stroke: #fff; stroke-width: .8px;"/>
        <line x1="167.49" y1="120.08" x2="162.73" y2="120.08" style="fill: none; stroke: #fff; stroke-width: .8px;"/>
        <line x1="167.49" y1="114.98" x2="162.73" y2="114.98" style="fill: none; stroke: #fff; stroke-width: .8px;"/>
        <line x1="167.49" y1="109.88" x2="162.73" y2="109.88" style="fill: none; stroke: #fff; stroke-width: .8px;"/>
        <line x1="170.68" y1="104.78" x2="162.73" y2="104.78" style="fill: none; stroke: #fff; stroke-width: .8px;"/>
        <line x1="167.49" y1="99.67" x2="162.73" y2="99.67" style="fill: none; stroke: #fff; stroke-width: .8px;"/>
        <line x1="167.49" y1="94.57" x2="162.73" y2="94.57" style="fill: none; stroke: #fff; stroke-width: .8px;"/>
        <line x1="167.49" y1="89.47" x2="162.73" y2="89.47" style="fill: none; stroke: #fff; stroke-width: .8px;"/>
        <line x1="167.49" y1="84.37" x2="162.73" y2="84.37" style="fill: none; stroke: #fff; stroke-width: .8px;"/>
        <line x1="169.38" y1="79.26" x2="162.73" y2="79.26" style="fill: none; stroke: #fff; stroke-width: .8px;"/>
        <line x1="149.21" y1="130.29" x2="157.16" y2="130.29" style="fill: none; stroke: #fff; stroke-width: .8px;"/>
        <line x1="152.4" y1="125.18" x2="157.16" y2="125.18" style="fill: none; stroke: #fff; stroke-width: .8px;"/>
        <line x1="152.4" y1="120.08" x2="157.16" y2="120.08" style="fill: none; stroke: #fff; stroke-width: .8px;"/>
        <line x1="152.4" y1="114.98" x2="157.16" y2="114.98" style="fill: none; stroke: #fff; stroke-width: .8px;"/>
        <line x1="152.4" y1="109.88" x2="157.16" y2="109.88" style="fill: none; stroke: #fff; stroke-width: .8px;"/>
        <line x1="149.21" y1="104.78" x2="157.16" y2="104.78" style="fill: none; stroke: #fff; stroke-width: .8px;"/>
        <line x1="152.4" y1="99.67" x2="157.16" y2="99.67" style="fill: none; stroke: #fff; stroke-width: .8px;"/>
        <line x1="152.4" y1="94.57" x2="157.16" y2="94.57" style="fill: none; stroke: #fff; stroke-width: .8px;"/>
        <line x1="152.4" y1="89.47" x2="157.16" y2="89.47" style="fill: none; stroke: #fff; stroke-width: .8px;"/>
        <line x1="152.4" y1="84.37" x2="157.16" y2="84.37" style="fill: none; stroke: #fff; stroke-width: .8px;"/>
        <line x1="149.21" y1="79.26" x2="157.16" y2="79.26" style="fill: none; stroke: #fff; stroke-width: .8px;"/>
      </g>
      <g>
        <line x1="203.08" y1="130.29" x2="195.13" y2="130.29" style="fill: none; stroke: #fff; stroke-width: .8px;"/>
        <line x1="199.89" y1="125.18" x2="195.13" y2="125.18" style="fill: none; stroke: #fff; stroke-width: .8px;"/>
        <line x1="199.89" y1="120.08" x2="195.13" y2="120.08" style="fill: none; stroke: #fff; stroke-width: .8px;"/>
        <line x1="199.89" y1="114.98" x2="195.13" y2="114.98" style="fill: none; stroke: #fff; stroke-width: .8px;"/>
        <line x1="199.89" y1="109.88" x2="195.13" y2="109.88" style="fill: none; stroke: #fff; stroke-width: .8px;"/>
        <line x1="203.08" y1="104.78" x2="195.13" y2="104.78" style="fill: none; stroke: #fff; stroke-width: .8px;"/>
        <line x1="199.89" y1="99.67" x2="195.13" y2="99.67" style="fill: none; stroke: #fff; stroke-width: .8px;"/>
        <line x1="199.89" y1="94.57" x2="195.13" y2="94.57" style="fill: none; stroke: #fff; stroke-width: .8px;"/>
        <line x1="199.89" y1="89.47" x2="195.13" y2="89.47" style="fill: none; stroke: #fff; stroke-width: .8px;"/>
        <line x1="199.89" y1="84.37" x2="195.13" y2="84.37" style="fill: none; stroke: #fff; stroke-width: .8px;"/>
        <line x1="203.08" y1="79.26" x2="195.13" y2="79.26" style="fill: none; stroke: #fff; stroke-width: .8px;"/>
        <line x1="182.27" y1="130.29" x2="189.57" y2="130.29" style="fill: none; stroke: #fff; stroke-width: .8px;"/>
        <line x1="184.8" y1="125.18" x2="189.57" y2="125.18" style="fill: none; stroke: #fff; stroke-width: .8px;"/>
        <line x1="184.8" y1="120.08" x2="189.57" y2="120.08" style="fill: none; stroke: #fff; stroke-width: .8px;"/>
        <line x1="184.8" y1="114.98" x2="189.57" y2="114.98" style="fill: none; stroke: #fff; stroke-width: .8px;"/>
        <line x1="184.8" y1="109.88" x2="189.57" y2="109.88" style="fill: none; stroke: #fff; stroke-width: .8px;"/>
        <line x1="181.62" y1="104.78" x2="189.57" y2="104.78" style="fill: none; stroke: #fff; stroke-width: .8px;"/>
        <line x1="184.8" y1="99.67" x2="189.57" y2="99.67" style="fill: none; stroke: #fff; stroke-width: .8px;"/>
        <line x1="184.8" y1="94.57" x2="189.57" y2="94.57" style="fill: none; stroke: #fff; stroke-width: .8px;"/>
        <line x1="184.8" y1="89.47" x2="189.57" y2="89.47" style="fill: none; stroke: #fff; stroke-width: .8px;"/>
        <line x1="184.8" y1="84.37" x2="189.57" y2="84.37" style="fill: none; stroke: #fff; stroke-width: .8px;"/>
        <line x1="182.78" y1="79.26" x2="189.57" y2="79.26" style="fill: none; stroke: #fff; stroke-width: .8px;"/>
      </g>
      <g>
        <polyline points="90.03 161.44 93.36 155.08 96.69 161.44" style="fill: none; stroke: #fff; stroke-linecap: round; stroke-linejoin: round;"/>
        <path d="m115.54,161.44c0-6.71,3.33-6.37,3.33-6.37,0,0,3.33-.24,3.33,6.37" style="fill: none; stroke: #fff; stroke-linecap: round; stroke-linejoin: round;"/>
        <path d="m64.52,161.44c3.33,0,3.33-6.36,3.33-6.36,0,0,0,6.38,3.33,6.36" style="fill: none; stroke: #fff; stroke-linecap: round; stroke-linejoin: round;"/>
      </g>
      <g>
        <line x1="117.02" y1="130.29" x2="124.28" y2="130.29" style="fill: none; stroke: #fff; stroke-width: .8px;"/>
        <line x1="119.52" y1="125.18" x2="124.28" y2="125.18" style="fill: none; stroke: #fff; stroke-width: .8px;"/>
        <line x1="119.52" y1="120.08" x2="124.28" y2="120.08" style="fill: none; stroke: #fff; stroke-width: .8px;"/>
        <line x1="119.52" y1="114.98" x2="124.28" y2="114.98" style="fill: none; stroke: #fff; stroke-width: .8px;"/>
        <line x1="119.52" y1="109.88" x2="124.28" y2="109.88" style="fill: none; stroke: #fff; stroke-width: .8px;"/>
        <line x1="116.33" y1="104.78" x2="124.28" y2="104.78" style="fill: none; stroke: #fff; stroke-width: .8px;"/>
        <line x1="119.52" y1="99.67" x2="124.28" y2="99.67" style="fill: none; stroke: #fff; stroke-width: .8px;"/>
        <line x1="119.52" y1="94.57" x2="124.28" y2="94.57" style="fill: none; stroke: #fff; stroke-width: .8px;"/>
        <line x1="119.52" y1="89.47" x2="124.28" y2="89.47" style="fill: none; stroke: #fff; stroke-width: .8px;"/>
        <line x1="119.52" y1="84.37" x2="124.28" y2="84.37" style="fill: none; stroke: #fff; stroke-width: .8px;"/>
        <line x1="117.62" y1="79.26" x2="124.28" y2="79.26" style="fill: none; stroke: #fff; stroke-width: .8px;"/>
        <line x1="137.79" y1="130.29" x2="129.84" y2="130.29" style="fill: none; stroke: #fff; stroke-width: .8px;"/>
        <line x1="134.61" y1="125.18" x2="129.84" y2="125.18" style="fill: none; stroke: #fff; stroke-width: .8px;"/>
        <line x1="134.61" y1="120.08" x2="129.84" y2="120.08" style="fill: none; stroke: #fff; stroke-width: .8px;"/>
        <line x1="134.61" y1="114.98" x2="129.84" y2="114.98" style="fill: none; stroke: #fff; stroke-width: .8px;"/>
        <line x1="134.61" y1="109.88" x2="129.84" y2="109.88" style="fill: none; stroke: #fff; stroke-width: .8px;"/>
        <line x1="137.79" y1="104.78" x2="129.84" y2="104.78" style="fill: none; stroke: #fff; stroke-width: .8px;"/>
        <line x1="134.61" y1="99.67" x2="129.84" y2="99.67" style="fill: none; stroke: #fff; stroke-width: .8px;"/>
        <line x1="134.61" y1="94.57" x2="129.84" y2="94.57" style="fill: none; stroke: #fff; stroke-width: .8px;"/>
        <line x1="134.61" y1="89.47" x2="129.84" y2="89.47" style="fill: none; stroke: #fff; stroke-width: .8px;"/>
        <line x1="134.61" y1="84.37" x2="129.84" y2="84.37" style="fill: none; stroke: #fff; stroke-width: .8px;"/>
        <line x1="137.79" y1="79.26" x2="129.84" y2="79.26" style="fill: none; stroke: #fff; stroke-width: .8px;"/>
      </g>
      <g>
        <line x1="83.93" y1="130.29" x2="91.88" y2="130.29" style="fill: none; stroke: #fff; stroke-width: .8px;"/>
        <line x1="87.11" y1="125.18" x2="91.88" y2="125.18" style="fill: none; stroke: #fff; stroke-width: .8px;"/>
        <line x1="87.11" y1="120.08" x2="91.88" y2="120.08" style="fill: none; stroke: #fff; stroke-width: .8px;"/>
        <line x1="87.11" y1="114.98" x2="91.88" y2="114.98" style="fill: none; stroke: #fff; stroke-width: .8px;"/>
        <line x1="87.11" y1="109.88" x2="91.88" y2="109.88" style="fill: none; stroke: #fff; stroke-width: .8px;"/>
        <line x1="83.93" y1="104.78" x2="91.88" y2="104.78" style="fill: none; stroke: #fff; stroke-width: .8px;"/>
        <line x1="87.11" y1="99.67" x2="91.88" y2="99.67" style="fill: none; stroke: #fff; stroke-width: .8px;"/>
        <line x1="87.11" y1="94.57" x2="91.88" y2="94.57" style="fill: none; stroke: #fff; stroke-width: .8px;"/>
        <line x1="87.11" y1="89.47" x2="91.88" y2="89.47" style="fill: none; stroke: #fff; stroke-width: .8px;"/>
        <line x1="87.11" y1="84.37" x2="91.88" y2="84.37" style="fill: none; stroke: #fff; stroke-width: .8px;"/>
        <line x1="83.93" y1="79.26" x2="91.88" y2="79.26" style="fill: none; stroke: #fff; stroke-width: .8px;"/>
        <line x1="104.74" y1="130.29" x2="97.44" y2="130.29" style="fill: none; stroke: #fff; stroke-width: .8px;"/>
        <line x1="102.21" y1="125.18" x2="97.44" y2="125.18" style="fill: none; stroke: #fff; stroke-width: .8px;"/>
        <line x1="102.21" y1="120.08" x2="97.44" y2="120.08" style="fill: none; stroke: #fff; stroke-width: .8px;"/>
        <line x1="102.21" y1="114.98" x2="97.44" y2="114.98" style="fill: none; stroke: #fff; stroke-width: .8px;"/>
        <line x1="102.21" y1="109.88" x2="97.44" y2="109.88" style="fill: none; stroke: #fff; stroke-width: .8px;"/>
        <line x1="105.39" y1="104.78" x2="97.44" y2="104.78" style="fill: none; stroke: #fff; stroke-width: .8px;"/>
        <line x1="102.21" y1="99.67" x2="97.44" y2="99.67" style="fill: none; stroke: #fff; stroke-width: .8px;"/>
        <line x1="102.21" y1="94.57" x2="97.44" y2="94.57" style="fill: none; stroke: #fff; stroke-width: .8px;"/>
        <line x1="102.21" y1="89.47" x2="97.44" y2="89.47" style="fill: none; stroke: #fff; stroke-width: .8px;"/>
        <line x1="102.21" y1="84.37" x2="97.44" y2="84.37" style="fill: none; stroke: #fff; stroke-width: .8px;"/>
        <line x1="104.23" y1="79.26" x2="97.44" y2="79.26" style="fill: none; stroke: #fff; stroke-width: .8px;"/>
      </g>
      <g>
        <polyline points="190.32 161.44 193.65 155.08 196.98 161.44" style="fill: none; stroke: #fff; stroke-linecap: round; stroke-linejoin: round;"/>
        <path d="m215.83,161.44c0-6.71,3.33-6.37,3.33-6.37,0,0,3.33-.24,3.33,6.37" style="fill: none; stroke: #fff; stroke-linecap: round; stroke-linejoin: round;"/>
        <path d="m164.81,161.44c3.33,0,3.33-6.36,3.33-6.36,0,0,0,6.38,3.33,6.36" style="fill: none; stroke: #fff; stroke-linecap: round; stroke-linejoin: round;"/>
      </g>
      <path d="m143.5,340.07h-40.63c-5.91,0-11.39-3.06-14.48-8.09-3.1-5.03-3.36-11.3-.7-16.58l18.65-36.97c2.8-5.54,8.39-9.12,14.6-9.34,6.21-.2,12.03,2.97,15.21,8.31l21.98,36.97c3.12,5.26,3.19,11.79.16,17.1-3.02,5.31-8.67,8.6-14.78,8.6Z" style="fill: #fff;"/>
      <path d="m143.51,340.07h40.63c5.91,0,11.39-3.06,14.48-8.09,3.1-5.03,3.36-11.3.7-16.58l-18.65-36.97c-2.8-5.54-8.39-9.12-14.6-9.34-6.21-.2-12.03,2.97-15.21,8.31l-21.98,36.97c-3.13,5.26-3.19,11.79-.16,17.1,3.02,5.31,8.67,8.6,14.78,8.6Z" style="fill: #fff;"/>
      <path d="m165.51,269.08c.19,0,.37,0,.56,0,6.21.21,11.8,3.79,14.6,9.34l18.65,36.97c2.66,5.27,2.39,11.55-.7,16.58-3.1,5.03-8.58,8.09-14.48,8.09h-40.63c-6.12,0-11.76-3.28-14.78-8.6-3.02-5.32-2.96-11.84.16-17.1l21.98-36.97c3.08-5.18,8.64-8.32,14.64-8.32m0-1c-6.33,0-12.28,3.37-15.5,8.8l-21.98,36.97c-3.3,5.55-3.37,12.49-.17,18.11,3.19,5.62,9.19,9.1,15.65,9.1h40.63c6.21,0,12.08-3.28,15.34-8.57,3.25-5.28,3.54-12.01.74-17.55l-18.65-36.97c-2.96-5.87-8.88-9.66-15.46-9.89-.2,0-.4,0-.6,0h0Z" style="fill: #231f20;"/>
      <path d="m121.5,269.08c6,0,11.57,3.14,14.64,8.32l21.98,36.97c3.12,5.26,3.19,11.79.16,17.1-3.02,5.31-8.67,8.6-14.78,8.6h-40.63c-5.91,0-11.39-3.06-14.48-8.09-3.1-5.03-3.36-11.3-.7-16.58l18.65-36.97c2.8-5.54,8.39-9.12,14.6-9.34.19,0,.38,0,.56,0m0-1h0c-.2,0-.4,0-.6,0-6.57.23-12.5,4.02-15.46,9.89l-18.65,36.97c-2.8,5.54-2.51,12.27.74,17.55,3.25,5.28,9.13,8.57,15.34,8.57h40.63c6.46,0,12.46-3.49,15.65-9.1,3.19-5.62,3.13-12.55-.17-18.11l-21.98-36.97c-3.23-5.43-9.17-8.8-15.5-8.8h0Z" style="fill: #231f20;"/>
      <path d="m240.76,281.2c1.5-1.32,2.45-3.25,2.45-5.41,0-3.97-3.22-7.2-7.2-7.2h-26.48c-9.66,0-17.49,7.83-17.49,17.49s7.83,17.49,17.49,17.49c4.61,0,8.8-1.78,11.92-4.69" style="fill: #fff;"/>
      <path d="m46.25,281.2c-1.5-1.32-2.45-3.25-2.45-5.41,0-3.97,3.22-7.2,7.2-7.2h26.48c9.66,0,17.49,7.83,17.49,17.49,0,9.66-7.83,17.49-17.49,17.49-4.61,0-8.8-1.78-11.92-4.69" style="fill: #fff;"/>
      <rect x="5.46" y="158.29" width="36.27" height="84.94" rx="18.13" ry="18.13" style="fill: none; stroke: #fff; stroke-miterlimit: 10;"/>
      <rect x="245.29" y="158.29" width="36.27" height="84.94" rx="18.13" ry="18.13" style="fill: none; stroke: #fff; stroke-miterlimit: 10;"/>
      <g>
        <path d="m149.73,4.69s-3.87,4.92-6.13,7.79c0-3.01,0-6.67,0-6.67,0-.57-.28-1.09-.71-1.3-.43-.21-.93-.08-1.25.33l-8.05,10.24c-.44.56-.42,1.44.03,1.98.45.53,1.18.52,1.62-.04,0,0,3.84-4.88,6.09-7.74v6.68c0,.57.28,1.09.72,1.3.43.21.93.08,1.25-.33,0,0,3.87-4.92,6.12-7.79,0,3.05,0,6.81,0,6.81,0,.78.51,1.4,1.14,1.4.63,0,1.14-.63,1.14-1.4V5.66c0-.57-.28-1.09-.72-1.3-.43-.22-.92-.08-1.25.33Z" style="fill: #fff; stroke: #fff; stroke-width: .67px;"/>
        <path d="m133.58,4.61l-5.34,6.79c-.44.56-.42,1.44.03,1.98.46.54,1.18.52,1.62-.04,0,0,1.8-2.29,3.37-4.29,0,3.1,0,6.98,0,6.98,0,.78.51,1.4,1.14,1.4s1.15-.63,1.15-1.4V5.58c0-.57-.28-1.09-.71-1.3-.43-.21-.93-.08-1.25.33Z" style="fill: #fff; stroke: #fff; stroke-width: .67px;"/>
        <path d="m158.99,9.61c-.18-.52-.59-.85-1.05-.85h-2.33s1.7-2.16,1.7-2.16c0,0,.88-1.3.1-2.01-.78-.71-1.75.07-1.75.07l-3.57,4.54c-.32.4-.41,1-.23,1.52.18.52.6.85,1.05.85h2.33s-2.76,3.51-2.76,3.51c0,0-1.14,1.25-.3,2.09.85.85,1.94-.15,1.94-.15l4.63-5.89c.32-.4.41-1,.23-1.52Z" style="fill: #fff; stroke: #fff; stroke-width: .67px;"/>
      </g>
      <rect x="80.75" y="21.51" width="59.74" height="125.35" rx="15.72" ry="15.72" style="fill: none; stroke: #fff; stroke-miterlimit: 10;"/>
      <rect x="146.52" y="21.51" width="59.74" height="125.35" rx="15.72" ry="15.72" style="fill: none; stroke: #fff; stroke-miterlimit: 10;"/>
      <g id="alt_curves_1" data-name="alt curves 1">
        <path d="m138.74,206.76c0-11.39-9.23-20.62-20.62-20.62h-48.54c-11.45,0-21.13,9.12-21.14,20.57,0,5.13,1.87,9.82,4.96,13.43l35.88,42.46c3.21,4,6.79,6.56,12.31,6.56h0c4.18-.06,7.93-.87,11.39-4.96.94-1.1,1.71-2.34,2.36-3.63l20.09-39.91c2.17-4.31,3.3-9.06,3.3-13.89h0Z" style="fill: none; stroke: #fff; stroke-miterlimit: 10;"/>
        <path d="m148.27,206.76c0-11.39,9.23-20.62,20.62-20.62h48.54c11.45,0,21.13,9.12,21.14,20.57,0,5.13-1.87,9.82-4.96,13.43l-35.88,42.46c-3.21,4-6.79,6.56-12.31,6.56h0c-4.18-.06-7.93-.87-11.39-4.96-.94-1.1-1.71-2.34-2.36-3.63l-20.09-39.91c-2.17-4.31-3.3-9.06-3.3-13.89h0Z" style="fill: none; stroke: #fff; stroke-miterlimit: 10;"/>
      </g>
      <g id="trig_shapes" data-name="trig shapes">
        <g>
          <polyline points="215.06 81.07 217.32 76.13 219.09 81.07 221.35 76.13 223.12 81.07 224.53 81.07" style="fill: none; stroke: #fff; stroke-linecap: round; stroke-linejoin: round; stroke-width: .71px;"/>
          <text transform="translate(224.89 79.79) scale(.83 1)" style="fill: #fff; font-family: GillSans-SemiBold, &apos;Gill Sans&apos;; font-size: 6px; font-weight: 600;"><tspan x="0" y="0">Cycle</tspan></text>
        </g>
        <g>
          <polyline points="238.54 95.85 240.8 90.91 242.57 95.85 244.33 95.85" style="fill: none; stroke: #fff; stroke-linecap: round; stroke-linejoin: round; stroke-width: .71px;"/>
          <text transform="translate(237.8 101.12) scale(.83 1)" style="fill: #fff; font-family: GillSans-SemiBold, &apos;Gill Sans&apos;; font-size: 6px; font-weight: 600;"><tspan x="0" y="0">AR</tspan></text>
        </g>
        <g>
          <polyline points="218.37 117.58 220.22 112.73 230.08 112.73 231.9 117.58 233.53 117.58" style="fill: none; stroke: #fff; stroke-linecap: round; stroke-linejoin: round; stroke-width: .71px;"/>
          <text transform="translate(220.51 118.06) scale(.83 1)" style="fill: #fff; font-family: GillSans-SemiBold, &apos;Gill Sans&apos;; font-size: 6px; font-weight: 600;"><tspan x="0" y="0">ASR</tspan></text>
        </g>
        <g>
          <polyline points="50.38 81.07 52.64 76.13 54.41 81.07 56.66 76.13 58.43 81.07 61.04 81.07" style="fill: none; stroke: #fff; stroke-linecap: round; stroke-linejoin: round; stroke-width: .71px;"/>
          <text transform="translate(60.21 79.79) scale(.83 1)" style="fill: #fff; font-family: GillSans-SemiBold, &apos;Gill Sans&apos;; font-size: 6px; font-weight: 600;"><tspan x="0" y="0">Cycle</tspan></text>
        </g>
        <g>
          <polyline points="43.13 95.85 45.39 90.91 47.16 95.85 50.15 95.85" style="fill: none; stroke: #fff; stroke-linecap: round; stroke-linejoin: round; stroke-width: .71px;"/>
          <text transform="translate(42.4 101.12) scale(.83 1)" style="fill: #fff; font-family: GillSans-SemiBold, &apos;Gill Sans&apos;; font-size: 6px; font-weight: 600;"><tspan x="0" y="0">AR</tspan></text>
        </g>
        <g>
          <polyline points="52.28 117.58 54.13 112.73 63.99 112.73 65.81 117.58 68.64 117.58" style="fill: none; stroke: #fff; stroke-linecap: round; stroke-linejoin: round; stroke-width: .71px;"/>
          <text transform="translate(54.42 118.06) scale(.83 1)" style="fill: #fff; font-family: GillSans-SemiBold, &apos;Gill Sans&apos;; font-size: 6px; font-weight: 600;"><tspan x="0" y="0">ASR</tspan></text>
        </g>
      </g>
      <g>
        <g>
          <path d="m254.23,77.94l-1.09-.92c.81-.89,1.74-1.67,2.75-2.32l.71,1.23c-.87.57-1.66,1.25-2.37,2.01Z" style="fill: #fff;"/>
          <path d="m257.7,75.29l-.71-1.23c1.06-.55,2.19-.97,3.38-1.24l.25,1.4c-1.03.24-2.01.6-2.92,1.07Z" style="fill: #fff;"/>
          <path d="m251.86,81.59l-1.33-.48c.46-1.12,1.07-2.17,1.79-3.12l1.09.92c-.62.82-1.15,1.72-1.56,2.68Z" style="fill: #fff;"/>
          <path d="m266.22,74.22l.25-1.4c1.19.27,2.33.69,3.38,1.24l-.71,1.23c-.91-.47-1.89-.83-2.92-1.07Z" style="fill: #fff;"/>
          <path d="m250.92,85.84h-1.43c.05-1.23.26-2.41.61-3.54l1.34.49c-.3.97-.46,2-.51,3.05Z" style="fill: #fff;"/>
          <path d="m251.47,90.15l-1.33.48c-.36-1.13-.58-2.32-.64-3.53h1.42c.06,1.04.25,2.06.55,3.04Z" style="fill: #fff;"/>
          <path d="m253.46,94l-1.09.91c-.73-.95-1.33-1.99-1.8-3.09l1.33-.49c.41.95.93,1.84,1.55,2.67Z" style="fill: #fff;"/>
          <path d="m273.42,78.91l1.1-.92c.72.95,1.33,2,1.79,3.12l-1.33.48c-.4-.96-.94-1.86-1.56-2.68Z" style="fill: #fff;"/>
          <path d="m275.41,82.78l1.34-.49c.35,1.13.56,2.31.61,3.54h-1.43c-.05-1.05-.22-2.08-.51-3.05Z" style="fill: #fff;"/>
          <path d="m275.93,87.1h1.42c-.06,1.21-.28,2.39-.64,3.53l-1.33-.49c.31-.98.5-2,.55-3.04Z" style="fill: #fff;"/>
          <path d="m274.94,91.34l1.33.49c-.47,1.1-1.07,2.14-1.8,3.09l-1.09-.91c.63-.82,1.15-1.72,1.55-2.66Z" style="fill: #fff;"/>
          <path d="m270.24,75.93l.71-1.23c1.02.65,1.94,1.43,2.75,2.32l-1.1.92c-.7-.76-1.5-1.44-2.37-2.01Z" style="fill: #fff;"/>
        </g>
        <path d="m265.42,71.02c0,.42-.05.79-.16,1.1s-.25.58-.43.78c-.18.2-.39.35-.63.45-.24.1-.49.15-.75.15s-.52-.05-.75-.15c-.24-.1-.44-.25-.63-.45s-.33-.46-.43-.77c-.11-.31-.16-.68-.16-1.1s.05-.79.16-1.11c.11-.31.25-.57.43-.78.18-.2.39-.36.63-.46.24-.1.49-.15.75-.15s.52.05.75.15.44.25.63.46c.19.21.33.47.43.78s.16.68.16,1.1Zm-1.44,0c0-.43-.03-.78-.09-1.05s-.21-.41-.44-.41c-.16,0-.28.08-.36.23s-.13.33-.15.53c-.02.2-.03.44-.03.7,0,.46.03.82.09,1.07.06.26.21.38.44.38s.38-.13.44-.38c.06-.25.09-.61.09-1.07Z" style="fill: #fff;"/>
        <path d="m273.97,97.4h-1.6v1.61h-.9v-1.61h-1.6v-.91h1.6v-1.61h.9v1.61h1.6v.91Z" style="fill: #fff;"/>
        <path d="m255.89,97.73h-3.31v-1.26h3.31v1.26Z" style="fill: #fff;"/>
        <circle cx="263.42" cy="86.4" r="13.93" style="fill: none;"/>
      </g>
      <g>
        <g>
          <path d="m254.23,124.47l-1.09-.92c.81-.89,1.74-1.67,2.75-2.32l.71,1.23c-.87.57-1.66,1.25-2.37,2.01Z" style="fill: #fff;"/>
          <path d="m257.7,121.83l-.71-1.23c1.06-.55,2.19-.97,3.38-1.24l.25,1.4c-1.03.24-2.01.6-2.92,1.07Z" style="fill: #fff;"/>
          <path d="m251.86,128.13l-1.33-.48c.46-1.12,1.07-2.17,1.79-3.12l1.09.92c-.62.82-1.15,1.72-1.56,2.68Z" style="fill: #fff;"/>
          <path d="m266.22,120.76l.25-1.4c1.19.27,2.33.69,3.38,1.24l-.71,1.23c-.91-.47-1.89-.83-2.92-1.07Z" style="fill: #fff;"/>
          <path d="m250.92,132.37h-1.43c.05-1.23.26-2.41.61-3.54l1.34.49c-.3.97-.46,2-.51,3.05Z" style="fill: #fff;"/>
          <path d="m251.47,136.68l-1.33.48c-.36-1.13-.58-2.32-.64-3.53h1.42c.06,1.04.25,2.06.55,3.04Z" style="fill: #fff;"/>
          <path d="m253.46,140.54l-1.09.91c-.73-.95-1.33-1.99-1.8-3.09l1.33-.49c.41.95.93,1.84,1.55,2.67Z" style="fill: #fff;"/>
          <path d="m273.42,125.44l1.1-.92c.72.95,1.33,2,1.79,3.12l-1.33.48c-.4-.96-.94-1.86-1.56-2.68Z" style="fill: #fff;"/>
          <path d="m275.41,129.32l1.34-.49c.35,1.13.56,2.31.61,3.54h-1.43c-.05-1.05-.22-2.08-.51-3.05Z" style="fill: #fff;"/>
          <path d="m275.93,133.64h1.42c-.06,1.21-.28,2.39-.64,3.53l-1.33-.49c.31-.98.5-2,.55-3.04Z" style="fill: #fff;"/>
          <path d="m274.94,137.87l1.33.49c-.47,1.1-1.07,2.14-1.8,3.09l-1.09-.91c.63-.82,1.15-1.72,1.55-2.66Z" style="fill: #fff;"/>
          <path d="m270.24,122.46l.71-1.23c1.02.65,1.94,1.43,2.75,2.32l-1.1.92c-.7-.76-1.5-1.44-2.37-2.01Z" style="fill: #fff;"/>
        </g>
        <path d="m265.42,117.56c0,.42-.05.79-.16,1.1s-.25.58-.43.78c-.18.2-.39.35-.63.45-.24.1-.49.15-.75.15s-.52-.05-.75-.15c-.24-.1-.44-.25-.63-.45s-.33-.46-.43-.77c-.11-.31-.16-.68-.16-1.1s.05-.79.16-1.11c.11-.31.25-.57.43-.78.18-.2.39-.36.63-.46.24-.1.49-.15.75-.15s.52.05.75.15.44.25.63.46c.19.21.33.47.43.78s.16.68.16,1.1Zm-1.44,0c0-.43-.03-.78-.09-1.05s-.21-.41-.44-.41c-.16,0-.28.08-.36.23s-.13.33-.15.53c-.02.2-.03.44-.03.7,0,.46.03.82.09,1.07.06.26.21.38.44.38s.38-.13.44-.38c.06-.25.09-.61.09-1.07Z" style="fill: #fff;"/>
        <path d="m273.97,143.94h-1.6v1.61h-.9v-1.61h-1.6v-.91h1.6v-1.61h.9v1.61h1.6v.91Z" style="fill: #fff;"/>
        <path d="m255.89,144.26h-3.31v-1.26h3.31v1.26Z" style="fill: #fff;"/>
        <circle cx="263.42" cy="132.93" r="13.93" style="fill: none;"/>
      </g>
      <g>
        <g>
          <path d="m254.23,170.94l-1.09-.92c.81-.89,1.74-1.67,2.75-2.32l.71,1.23c-.87.57-1.66,1.25-2.37,2.01Z" style="fill: #fff;"/>
          <path d="m257.7,168.3l-.71-1.23c1.06-.55,2.19-.97,3.38-1.24l.25,1.4c-1.03.24-2.01.6-2.92,1.07Z" style="fill: #fff;"/>
          <path d="m251.86,174.6l-1.33-.48c.46-1.12,1.07-2.17,1.79-3.12l1.09.92c-.62.82-1.15,1.72-1.56,2.68Z" style="fill: #fff;"/>
          <path d="m266.22,167.23l.25-1.4c1.19.27,2.33.69,3.38,1.24l-.71,1.23c-.91-.47-1.89-.83-2.92-1.07Z" style="fill: #fff;"/>
          <path d="m250.92,178.85h-1.43c.05-1.23.26-2.41.61-3.54l1.34.49c-.3.97-.46,2-.51,3.05Z" style="fill: #fff;"/>
          <path d="m251.47,183.16l-1.33.48c-.36-1.13-.58-2.32-.64-3.53h1.42c.06,1.04.25,2.06.55,3.04Z" style="fill: #fff;"/>
          <path d="m253.46,187.01l-1.09.91c-.73-.95-1.33-1.99-1.8-3.09l1.33-.49c.41.95.93,1.84,1.55,2.67Z" style="fill: #fff;"/>
          <path d="m273.42,171.92l1.1-.92c.72.95,1.33,2,1.79,3.12l-1.33.48c-.4-.96-.94-1.86-1.56-2.68Z" style="fill: #fff;"/>
          <path d="m275.41,175.79l1.34-.49c.35,1.13.56,2.31.61,3.54h-1.43c-.05-1.05-.22-2.08-.51-3.05Z" style="fill: #fff;"/>
          <path d="m275.93,180.11h1.42c-.06,1.21-.28,2.39-.64,3.53l-1.33-.49c.31-.98.5-2,.55-3.04Z" style="fill: #fff;"/>
          <path d="m274.94,184.35l1.33.49c-.47,1.1-1.07,2.14-1.8,3.09l-1.09-.91c.63-.82,1.15-1.72,1.55-2.66Z" style="fill: #fff;"/>
          <path d="m270.24,168.94l.71-1.23c1.02.65,1.94,1.43,2.75,2.32l-1.1.92c-.7-.76-1.5-1.44-2.37-2.01Z" style="fill: #fff;"/>
        </g>
        <path d="m265.42,164.03c0,.42-.05.79-.16,1.1s-.25.58-.43.78c-.18.2-.39.35-.63.45-.24.1-.49.15-.75.15s-.52-.05-.75-.15c-.24-.1-.44-.25-.63-.45s-.33-.46-.43-.77c-.11-.31-.16-.68-.16-1.1s.05-.79.16-1.11c.11-.31.25-.57.43-.78.18-.2.39-.36.63-.46.24-.1.49-.15.75-.15s.52.05.75.15.44.25.63.46c.19.21.33.47.43.78s.16.68.16,1.1Zm-1.44,0c0-.43-.03-.78-.09-1.05s-.21-.41-.44-.41c-.16,0-.28.08-.36.23s-.13.33-.15.53c-.02.2-.03.44-.03.7,0,.46.03.82.09,1.07.06.26.21.38.44.38s.38-.13.44-.38c.06-.25.09-.61.09-1.07Z" style="fill: #fff;"/>
        <path d="m273.97,190.41h-1.6v1.61h-.9v-1.61h-1.6v-.91h1.6v-1.61h.9v1.61h1.6v.91Z" style="fill: #fff;"/>
        <path d="m255.89,190.73h-3.31v-1.26h3.31v1.26Z" style="fill: #fff;"/>
        <circle cx="263.42" cy="179.41" r="13.93" style="fill: none;"/>
      </g>
      <g>
        <g>
          <path d="m209.08,198.26l-1.09-.92c.81-.89,1.74-1.67,2.75-2.32l.71,1.23c-.87.57-1.66,1.25-2.37,2.01Z" style="fill: #fff;"/>
          <path d="m212.54,195.62l-.71-1.23c1.06-.55,2.19-.97,3.38-1.24l.25,1.4c-1.03.24-2.01.6-2.92,1.07Z" style="fill: #fff;"/>
          <path d="m206.71,201.92l-1.33-.48c.46-1.12,1.07-2.17,1.79-3.12l1.09.92c-.62.82-1.15,1.72-1.56,2.68Z" style="fill: #fff;"/>
          <path d="m221.07,194.55l.25-1.4c1.19.27,2.33.69,3.38,1.24l-.71,1.23c-.91-.47-1.89-.83-2.92-1.07Z" style="fill: #fff;"/>
          <path d="m205.76,206.16h-1.43c.05-1.23.26-2.41.61-3.54l1.34.49c-.3.97-.46,2-.51,3.05Z" style="fill: #fff;"/>
          <path d="m206.31,210.47l-1.33.48c-.36-1.13-.58-2.32-.64-3.53h1.42c.06,1.04.25,2.06.55,3.04Z" style="fill: #fff;"/>
          <path d="m208.3,214.33l-1.09.91c-.73-.95-1.33-1.99-1.8-3.09l1.33-.49c.41.95.93,1.84,1.55,2.67Z" style="fill: #fff;"/>
          <path d="m228.26,199.23l1.1-.92c.72.95,1.33,2,1.79,3.12l-1.33.48c-.4-.96-.94-1.86-1.56-2.68Z" style="fill: #fff;"/>
          <path d="m230.25,203.11l1.34-.49c.35,1.13.56,2.31.61,3.54h-1.43c-.05-1.05-.22-2.08-.51-3.05Z" style="fill: #fff;"/>
          <path d="m230.77,207.43h1.42c-.06,1.21-.28,2.39-.64,3.53l-1.33-.49c.31-.98.5-2,.55-3.04Z" style="fill: #fff;"/>
          <path d="m229.78,211.66l1.33.49c-.47,1.1-1.07,2.14-1.8,3.09l-1.09-.91c.63-.82,1.15-1.72,1.55-2.66Z" style="fill: #fff;"/>
          <path d="m225.08,196.25l.71-1.23c1.02.65,1.94,1.43,2.75,2.32l-1.1.92c-.7-.76-1.5-1.44-2.37-2.01Z" style="fill: #fff;"/>
        </g>
        <path d="m220.27,191.35c0,.42-.05.79-.16,1.1s-.25.58-.43.78c-.18.2-.39.35-.63.45-.24.1-.49.15-.75.15s-.52-.05-.75-.15c-.24-.1-.44-.25-.63-.45s-.33-.46-.43-.77c-.11-.31-.16-.68-.16-1.1s.05-.79.16-1.11c.11-.31.25-.57.43-.78.18-.2.39-.36.63-.46.24-.1.49-.15.75-.15s.52.05.75.15.44.25.63.46c.19.21.33.47.43.78s.16.68.16,1.1Zm-1.44,0c0-.43-.03-.78-.09-1.05s-.21-.41-.44-.41c-.16,0-.28.08-.36.23s-.13.33-.15.53c-.02.2-.03.44-.03.7,0,.46.03.82.09,1.07.06.26.21.38.44.38s.38-.13.44-.38c.06-.25.09-.61.09-1.07Z" style="fill: #fff;"/>
        <path d="m228.82,217.73h-1.6v1.61h-.9v-1.61h-1.6v-.91h1.6v-1.61h.9v1.61h1.6v.91Z" style="fill: #fff;"/>
        <path d="m210.73,218.05h-3.31v-1.26h3.31v1.26Z" style="fill: #fff;"/>
        <circle cx="218.26" cy="206.72" r="13.93" style="fill: none;"/>
      </g>
      <g>
        <g>
          <path d="m159.96,198.26l-1.09-.92c.81-.89,1.74-1.67,2.75-2.32l.71,1.23c-.87.57-1.66,1.25-2.37,2.01Z" style="fill: #fff;"/>
          <path d="m163.42,195.62l-.71-1.23c1.06-.55,2.19-.97,3.38-1.24l.25,1.4c-1.03.24-2.01.6-2.92,1.07Z" style="fill: #fff;"/>
          <path d="m157.59,201.92l-1.33-.48c.46-1.12,1.07-2.17,1.79-3.12l1.09.92c-.62.82-1.15,1.72-1.56,2.68Z" style="fill: #fff;"/>
          <path d="m171.95,194.55l.25-1.4c1.19.27,2.33.69,3.38,1.24l-.71,1.23c-.91-.47-1.89-.83-2.92-1.07Z" style="fill: #fff;"/>
          <path d="m156.65,206.16h-1.43c.05-1.23.26-2.41.61-3.54l1.34.49c-.3.97-.46,2-.51,3.05Z" style="fill: #fff;"/>
          <path d="m157.2,210.47l-1.33.48c-.36-1.13-.58-2.32-.64-3.53h1.42c.06,1.04.25,2.06.55,3.04Z" style="fill: #fff;"/>
          <path d="m159.18,214.33l-1.09.91c-.73-.95-1.33-1.99-1.8-3.09l1.33-.49c.41.95.93,1.84,1.55,2.67Z" style="fill: #fff;"/>
          <path d="m179.15,199.23l1.1-.92c.72.95,1.33,2,1.79,3.12l-1.33.48c-.4-.96-.94-1.86-1.56-2.68Z" style="fill: #fff;"/>
          <path d="m181.13,203.11l1.34-.49c.35,1.13.56,2.31.61,3.54h-1.43c-.05-1.05-.22-2.08-.51-3.05Z" style="fill: #fff;"/>
          <path d="m181.65,207.43h1.42c-.06,1.21-.28,2.39-.64,3.53l-1.33-.49c.31-.98.5-2,.55-3.04Z" style="fill: #fff;"/>
          <path d="m180.66,211.66l1.33.49c-.47,1.1-1.07,2.14-1.8,3.09l-1.09-.91c.63-.82,1.15-1.72,1.55-2.66Z" style="fill: #fff;"/>
          <path d="m175.97,196.25l.71-1.23c1.02.65,1.94,1.43,2.75,2.32l-1.1.92c-.7-.76-1.5-1.44-2.37-2.01Z" style="fill: #fff;"/>
        </g>
        <path d="m171.15,191.35c0,.42-.05.79-.16,1.1s-.25.58-.43.78c-.18.2-.39.35-.63.45-.24.1-.49.15-.75.15s-.52-.05-.75-.15c-.24-.1-.44-.25-.63-.45s-.33-.46-.43-.77c-.11-.31-.16-.68-.16-1.1s.05-.79.16-1.11c.11-.31.25-.57.43-.78.18-.2.39-.36.63-.46.24-.1.49-.15.75-.15s.52.05.75.15.44.25.63.46c.19.21.33.47.43.78s.16.68.16,1.1Zm-1.44,0c0-.43-.03-.78-.09-1.05s-.21-.41-.44-.41c-.16,0-.28.08-.36.23s-.13.33-.15.53c-.02.2-.03.44-.03.7,0,.46.03.82.09,1.07.06.26.21.38.44.38s.38-.13.44-.38c.06-.25.09-.61.09-1.07Z" style="fill: #fff;"/>
        <path d="m179.7,217.73h-1.6v1.61h-.9v-1.61h-1.6v-.91h1.6v-1.61h.9v1.61h1.6v.91Z" style="fill: #fff;"/>
        <path d="m161.61,218.05h-3.31v-1.26h3.31v1.26Z" style="fill: #fff;"/>
        <circle cx="169.14" cy="206.72" r="13.93" style="fill: none;"/>
      </g>
      <g>
        <g>
          <path d="m14.4,124.47l-1.09-.92c.81-.89,1.74-1.67,2.75-2.32l.71,1.23c-.87.57-1.66,1.25-2.37,2.01Z" style="fill: #fff;"/>
          <path d="m17.86,121.83l-.71-1.23c1.06-.55,2.19-.97,3.38-1.24l.25,1.4c-1.03.24-2.01.6-2.92,1.07Z" style="fill: #fff;"/>
          <path d="m12.03,128.13l-1.33-.48c.46-1.12,1.07-2.17,1.79-3.12l1.09.92c-.62.82-1.15,1.72-1.56,2.68Z" style="fill: #fff;"/>
          <path d="m26.39,120.76l.25-1.4c1.19.27,2.33.69,3.38,1.24l-.71,1.23c-.91-.47-1.89-.83-2.92-1.07Z" style="fill: #fff;"/>
          <path d="m11.09,132.37h-1.43c.05-1.23.26-2.41.61-3.54l1.34.49c-.3.97-.46,2-.51,3.05Z" style="fill: #fff;"/>
          <path d="m11.64,136.68l-1.33.48c-.36-1.13-.58-2.32-.64-3.53h1.42c.06,1.04.25,2.06.55,3.04Z" style="fill: #fff;"/>
          <path d="m13.63,140.54l-1.09.91c-.73-.95-1.33-1.99-1.8-3.09l1.33-.49c.41.95.93,1.84,1.55,2.67Z" style="fill: #fff;"/>
          <path d="m33.59,125.44l1.1-.92c.72.95,1.33,2,1.79,3.12l-1.33.48c-.4-.96-.94-1.86-1.56-2.68Z" style="fill: #fff;"/>
          <path d="m35.57,129.32l1.34-.49c.35,1.13.56,2.31.61,3.54h-1.43c-.05-1.05-.22-2.08-.51-3.05Z" style="fill: #fff;"/>
          <path d="m36.09,133.64h1.42c-.06,1.21-.28,2.39-.64,3.53l-1.33-.49c.31-.98.5-2,.55-3.04Z" style="fill: #fff;"/>
          <path d="m35.1,137.87l1.33.49c-.47,1.1-1.07,2.14-1.8,3.09l-1.09-.91c.63-.82,1.15-1.72,1.55-2.66Z" style="fill: #fff;"/>
          <path d="m30.41,122.46l.71-1.23c1.02.65,1.94,1.43,2.75,2.32l-1.1.92c-.7-.76-1.5-1.44-2.37-2.01Z" style="fill: #fff;"/>
        </g>
        <path d="m25.59,117.56c0,.42-.05.79-.16,1.1s-.25.58-.43.78c-.18.2-.39.35-.63.45-.24.1-.49.15-.75.15s-.52-.05-.75-.15c-.24-.1-.44-.25-.63-.45s-.33-.46-.43-.77c-.11-.31-.16-.68-.16-1.1s.05-.79.16-1.11c.11-.31.25-.57.43-.78.18-.2.39-.36.63-.46.24-.1.49-.15.75-.15s.52.05.75.15.44.25.63.46c.19.21.33.47.43.78s.16.68.16,1.1Zm-1.44,0c0-.43-.03-.78-.09-1.05s-.21-.41-.44-.41c-.16,0-.28.08-.36.23s-.13.33-.15.53c-.02.2-.03.44-.03.7,0,.46.03.82.09,1.07.06.26.21.38.44.38s.38-.13.44-.38c.06-.25.09-.61.09-1.07Z" style="fill: #fff;"/>
        <path d="m34.14,143.94h-1.6v1.61h-.9v-1.61h-1.6v-.91h1.6v-1.61h.9v1.61h1.6v.91Z" style="fill: #fff;"/>
        <path d="m16.06,144.26h-3.31v-1.26h3.31v1.26Z" style="fill: #fff;"/>
        <circle cx="23.58" cy="132.93" r="13.93" style="fill: none;"/>
      </g>
      <g>
        <g>
          <path d="m14.4,77.94l-1.09-.92c.81-.89,1.74-1.67,2.75-2.32l.71,1.23c-.87.57-1.66,1.25-2.37,2.01Z" style="fill: #fff;"/>
          <path d="m17.86,75.29l-.71-1.23c1.06-.55,2.19-.97,3.38-1.24l.25,1.4c-1.03.24-2.01.6-2.92,1.07Z" style="fill: #fff;"/>
          <path d="m12.03,81.59l-1.33-.48c.46-1.12,1.07-2.17,1.79-3.12l1.09.92c-.62.82-1.15,1.72-1.56,2.68Z" style="fill: #fff;"/>
          <path d="m26.39,74.22l.25-1.4c1.19.27,2.33.69,3.38,1.24l-.71,1.23c-.91-.47-1.89-.83-2.92-1.07Z" style="fill: #fff;"/>
          <path d="m11.09,85.84h-1.43c.05-1.23.26-2.41.61-3.54l1.34.49c-.3.97-.46,2-.51,3.05Z" style="fill: #fff;"/>
          <path d="m11.64,90.15l-1.33.48c-.36-1.13-.58-2.32-.64-3.53h1.42c.06,1.04.25,2.06.55,3.04Z" style="fill: #fff;"/>
          <path d="m13.63,94l-1.09.91c-.73-.95-1.33-1.99-1.8-3.09l1.33-.49c.41.95.93,1.84,1.55,2.67Z" style="fill: #fff;"/>
          <path d="m33.59,78.91l1.1-.92c.72.95,1.33,2,1.79,3.12l-1.33.48c-.4-.96-.94-1.86-1.56-2.68Z" style="fill: #fff;"/>
          <path d="m35.57,82.78l1.34-.49c.35,1.13.56,2.31.61,3.54h-1.43c-.05-1.05-.22-2.08-.51-3.05Z" style="fill: #fff;"/>
          <path d="m36.09,87.1h1.42c-.06,1.21-.28,2.39-.64,3.53l-1.33-.49c.31-.98.5-2,.55-3.04Z" style="fill: #fff;"/>
          <path d="m35.1,91.34l1.33.49c-.47,1.1-1.07,2.14-1.8,3.09l-1.09-.91c.63-.82,1.15-1.72,1.55-2.66Z" style="fill: #fff;"/>
          <path d="m30.41,75.93l.71-1.23c1.02.65,1.94,1.43,2.75,2.32l-1.1.92c-.7-.76-1.5-1.44-2.37-2.01Z" style="fill: #fff;"/>
        </g>
        <path d="m25.59,71.02c0,.42-.05.79-.16,1.1s-.25.58-.43.78c-.18.2-.39.35-.63.45-.24.1-.49.15-.75.15s-.52-.05-.75-.15c-.24-.1-.44-.25-.63-.45s-.33-.46-.43-.77c-.11-.31-.16-.68-.16-1.1s.05-.79.16-1.11c.11-.31.25-.57.43-.78.18-.2.39-.36.63-.46.24-.1.49-.15.75-.15s.52.05.75.15.44.25.63.46c.19.21.33.47.43.78s.16.68.16,1.1Zm-1.44,0c0-.43-.03-.78-.09-1.05s-.21-.41-.44-.41c-.16,0-.28.08-.36.23s-.13.33-.15.53c-.02.2-.03.44-.03.7,0,.46.03.82.09,1.07.06.26.21.38.44.38s.38-.13.44-.38c.06-.25.09-.61.09-1.07Z" style="fill: #fff;"/>
        <path d="m34.14,97.4h-1.6v1.61h-.9v-1.61h-1.6v-.91h1.6v-1.61h.9v1.61h1.6v.91Z" style="fill: #fff;"/>
        <path d="m16.06,97.73h-3.31v-1.26h3.31v1.26Z" style="fill: #fff;"/>
        <circle cx="23.58" cy="86.4" r="13.93" style="fill: none;"/>
      </g>
      <g>
        <g>
          <path d="m14.4,170.94l-1.09-.92c.81-.89,1.74-1.67,2.75-2.32l.71,1.23c-.87.57-1.66,1.25-2.37,2.01Z" style="fill: #fff;"/>
          <path d="m17.86,168.3l-.71-1.23c1.06-.55,2.19-.97,3.38-1.24l.25,1.4c-1.03.24-2.01.6-2.92,1.07Z" style="fill: #fff;"/>
          <path d="m12.03,174.6l-1.33-.48c.46-1.12,1.07-2.17,1.79-3.12l1.09.92c-.62.82-1.15,1.72-1.56,2.68Z" style="fill: #fff;"/>
          <path d="m26.39,167.23l.25-1.4c1.19.27,2.33.69,3.38,1.24l-.71,1.23c-.91-.47-1.89-.83-2.92-1.07Z" style="fill: #fff;"/>
          <path d="m11.09,178.85h-1.43c.05-1.23.26-2.41.61-3.54l1.34.49c-.3.97-.46,2-.51,3.05Z" style="fill: #fff;"/>
          <path d="m11.64,183.16l-1.33.48c-.36-1.13-.58-2.32-.64-3.53h1.42c.06,1.04.25,2.06.55,3.04Z" style="fill: #fff;"/>
          <path d="m13.63,187.01l-1.09.91c-.73-.95-1.33-1.99-1.8-3.09l1.33-.49c.41.95.93,1.84,1.55,2.67Z" style="fill: #fff;"/>
          <path d="m33.59,171.92l1.1-.92c.72.95,1.33,2,1.79,3.12l-1.33.48c-.4-.96-.94-1.86-1.56-2.68Z" style="fill: #fff;"/>
          <path d="m35.57,175.79l1.34-.49c.35,1.13.56,2.31.61,3.54h-1.43c-.05-1.05-.22-2.08-.51-3.05Z" style="fill: #fff;"/>
          <path d="m36.09,180.11h1.42c-.06,1.21-.28,2.39-.64,3.53l-1.33-.49c.31-.98.5-2,.55-3.04Z" style="fill: #fff;"/>
          <path d="m35.1,184.35l1.33.49c-.47,1.1-1.07,2.14-1.8,3.09l-1.09-.91c.63-.82,1.15-1.72,1.55-2.66Z" style="fill: #fff;"/>
          <path d="m30.41,168.94l.71-1.23c1.02.65,1.94,1.43,2.75,2.32l-1.1.92c-.7-.76-1.5-1.44-2.37-2.01Z" style="fill: #fff;"/>
        </g>
        <path d="m25.59,164.03c0,.42-.05.79-.16,1.1s-.25.58-.43.78c-.18.2-.39.35-.63.45-.24.1-.49.15-.75.15s-.52-.05-.75-.15c-.24-.1-.44-.25-.63-.45s-.33-.46-.43-.77c-.11-.31-.16-.68-.16-1.1s.05-.79.16-1.11c.11-.31.25-.57.43-.78.18-.2.39-.36.63-.46.24-.1.49-.15.75-.15s.52.05.75.15.44.25.63.46c.19.21.33.47.43.78s.16.68.16,1.1Zm-1.44,0c0-.43-.03-.78-.09-1.05s-.21-.41-.44-.41c-.16,0-.28.08-.36.23s-.13.33-.15.53c-.02.2-.03.44-.03.7,0,.46.03.82.09,1.07.06.26.21.38.44.38s.38-.13.44-.38c.06-.25.09-.61.09-1.07Z" style="fill: #fff;"/>
        <path d="m34.14,190.41h-1.6v1.61h-.9v-1.61h-1.6v-.91h1.6v-1.61h.9v1.61h1.6v.91Z" style="fill: #fff;"/>
        <path d="m16.06,190.73h-3.31v-1.26h3.31v1.26Z" style="fill: #fff;"/>
        <circle cx="23.58" cy="179.41" r="13.93" style="fill: none;"/>
      </g>
      <g>
        <g>
          <path d="m59.56,198.26l-1.09-.92c.81-.89,1.74-1.67,2.75-2.32l.71,1.23c-.87.57-1.66,1.25-2.37,2.01Z" style="fill: #fff;"/>
          <path d="m63.02,195.62l-.71-1.23c1.06-.55,2.19-.97,3.38-1.24l.25,1.4c-1.03.24-2.01.6-2.92,1.07Z" style="fill: #fff;"/>
          <path d="m57.19,201.92l-1.33-.48c.46-1.12,1.07-2.17,1.79-3.12l1.09.92c-.62.82-1.15,1.72-1.56,2.68Z" style="fill: #fff;"/>
          <path d="m71.55,194.55l.25-1.4c1.19.27,2.33.69,3.38,1.24l-.71,1.23c-.91-.47-1.89-.83-2.92-1.07Z" style="fill: #fff;"/>
          <path d="m56.24,206.16h-1.43c.05-1.23.26-2.41.61-3.54l1.34.49c-.3.97-.46,2-.51,3.05Z" style="fill: #fff;"/>
          <path d="m56.79,210.47l-1.33.48c-.36-1.13-.58-2.32-.64-3.53h1.42c.06,1.04.25,2.06.55,3.04Z" style="fill: #fff;"/>
          <path d="m58.78,214.33l-1.09.91c-.73-.95-1.33-1.99-1.8-3.09l1.33-.49c.41.95.93,1.84,1.55,2.67Z" style="fill: #fff;"/>
          <path d="m78.74,199.23l1.1-.92c.72.95,1.33,2,1.79,3.12l-1.33.48c-.4-.96-.94-1.86-1.56-2.68Z" style="fill: #fff;"/>
          <path d="m80.73,203.11l1.34-.49c.35,1.13.56,2.31.61,3.54h-1.43c-.05-1.05-.22-2.08-.51-3.05Z" style="fill: #fff;"/>
          <path d="m81.25,207.43h1.42c-.06,1.21-.28,2.39-.64,3.53l-1.33-.49c.31-.98.5-2,.55-3.04Z" style="fill: #fff;"/>
          <path d="m80.26,211.66l1.33.49c-.47,1.1-1.07,2.14-1.8,3.09l-1.09-.91c.63-.82,1.15-1.72,1.55-2.66Z" style="fill: #fff;"/>
          <path d="m75.56,196.25l.71-1.23c1.02.65,1.94,1.43,2.75,2.32l-1.1.92c-.7-.76-1.5-1.44-2.37-2.01Z" style="fill: #fff;"/>
        </g>
        <path d="m70.75,191.35c0,.42-.05.79-.16,1.1s-.25.58-.43.78c-.18.2-.39.35-.63.45-.24.1-.49.15-.75.15s-.52-.05-.75-.15c-.24-.1-.44-.25-.63-.45s-.33-.46-.43-.77c-.11-.31-.16-.68-.16-1.1s.05-.79.16-1.11c.11-.31.25-.57.43-.78.18-.2.39-.36.63-.46.24-.1.49-.15.75-.15s.52.05.75.15.44.25.63.46c.19.21.33.47.43.78s.16.68.16,1.1Zm-1.44,0c0-.43-.03-.78-.09-1.05s-.21-.41-.44-.41c-.16,0-.28.08-.36.23s-.13.33-.15.53c-.02.2-.03.44-.03.7,0,.46.03.82.09,1.07.06.26.21.38.44.38s.38-.13.44-.38c.06-.25.09-.61.09-1.07Z" style="fill: #fff;"/>
        <path d="m79.3,217.73h-1.6v1.61h-.9v-1.61h-1.6v-.91h1.6v-1.61h.9v1.61h1.6v.91Z" style="fill: #fff;"/>
        <path d="m61.21,218.05h-3.31v-1.26h3.31v1.26Z" style="fill: #fff;"/>
        <circle cx="68.74" cy="206.72" r="13.93" style="fill: none;"/>
      </g>
      <g>
        <g>
          <path d="m108.67,198.26l-1.09-.92c.81-.89,1.74-1.67,2.75-2.32l.71,1.23c-.87.57-1.66,1.25-2.37,2.01Z" style="fill: #fff;"/>
          <path d="m112.14,195.62l-.71-1.23c1.06-.55,2.19-.97,3.38-1.24l.25,1.4c-1.03.24-2.01.6-2.92,1.07Z" style="fill: #fff;"/>
          <path d="m106.3,201.92l-1.33-.48c.46-1.12,1.07-2.17,1.79-3.12l1.09.92c-.62.82-1.15,1.72-1.56,2.68Z" style="fill: #fff;"/>
          <path d="m120.66,194.55l.25-1.4c1.19.27,2.33.69,3.38,1.24l-.71,1.23c-.91-.47-1.89-.83-2.92-1.07Z" style="fill: #fff;"/>
          <path d="m105.36,206.16h-1.43c.05-1.23.26-2.41.61-3.54l1.34.49c-.3.97-.46,2-.51,3.05Z" style="fill: #fff;"/>
          <path d="m105.91,210.47l-1.33.48c-.36-1.13-.58-2.32-.64-3.53h1.42c.06,1.04.25,2.06.55,3.04Z" style="fill: #fff;"/>
          <path d="m107.9,214.33l-1.09.91c-.73-.95-1.33-1.99-1.8-3.09l1.33-.49c.41.95.93,1.84,1.55,2.67Z" style="fill: #fff;"/>
          <path d="m127.86,199.23l1.1-.92c.72.95,1.33,2,1.79,3.12l-1.33.48c-.4-.96-.94-1.86-1.56-2.68Z" style="fill: #fff;"/>
          <path d="m129.85,203.11l1.34-.49c.35,1.13.56,2.31.61,3.54h-1.43c-.05-1.05-.22-2.08-.51-3.05Z" style="fill: #fff;"/>
          <path d="m130.37,207.43h1.42c-.06,1.21-.28,2.39-.64,3.53l-1.33-.49c.31-.98.5-2,.55-3.04Z" style="fill: #fff;"/>
          <path d="m129.38,211.66l1.33.49c-.47,1.1-1.07,2.14-1.8,3.09l-1.09-.91c.63-.82,1.15-1.72,1.55-2.66Z" style="fill: #fff;"/>
          <path d="m124.68,196.25l.71-1.23c1.02.65,1.94,1.43,2.75,2.32l-1.1.92c-.7-.76-1.5-1.44-2.37-2.01Z" style="fill: #fff;"/>
        </g>
        <path d="m119.86,191.35c0,.42-.05.79-.16,1.1s-.25.58-.43.78c-.18.2-.39.35-.63.45-.24.1-.49.15-.75.15s-.52-.05-.75-.15c-.24-.1-.44-.25-.63-.45s-.33-.46-.43-.77c-.11-.31-.16-.68-.16-1.1s.05-.79.16-1.11c.11-.31.25-.57.43-.78.18-.2.39-.36.63-.46.24-.1.49-.15.75-.15s.52.05.75.15.44.25.63.46c.19.21.33.47.43.78s.16.68.16,1.1Zm-1.44,0c0-.43-.03-.78-.09-1.05s-.21-.41-.44-.41c-.16,0-.28.08-.36.23s-.13.33-.15.53c-.02.2-.03.44-.03.7,0,.46.03.82.09,1.07.06.26.21.38.44.38s.38-.13.44-.38c.06-.25.09-.61.09-1.07Z" style="fill: #fff;"/>
        <path d="m128.42,217.73h-1.6v1.61h-.9v-1.61h-1.6v-.91h1.6v-1.61h.9v1.61h1.6v.91Z" style="fill: #fff;"/>
        <path d="m110.33,218.05h-3.31v-1.26h3.31v1.26Z" style="fill: #fff;"/>
        <circle cx="117.86" cy="206.72" r="13.93" style="fill: none;"/>
      </g>
    </g>
    <g id="text">
      <text transform="translate(162.83 225.06) scale(.83 1)" style="fill: #fff; font-family: GillSans-Bold, &apos;Gill Sans&apos;; font-size: 7.09px; font-weight: 700;"><tspan x="0" y="0">Rise</tspan></text>
      <text transform="translate(212.88 224.35) scale(.83 1)" style="fill: #fff; font-family: GillSans-Bold, &apos;Gill Sans&apos;; font-size: 7.09px; font-weight: 700;"><tspan x="0" y="0" style="letter-spacing: .01em;">F</tspan><tspan x="4.51" y="0">all</tspan></text>
      <text transform="translate(94.2 356.98) scale(.83 1)" style="fill: #fff; font-family: GillSans-Bold, &apos;Gill Sans&apos;; font-size: 11px; font-weight: 700;"><tspan x="0" y="0">Sh</tspan><tspan x="13.73" y="0" style="letter-spacing: .01em;">a</tspan><tspan x="20.16" y="0">ped Dual Env</tspan><tspan x="93.48" y="0" style="letter-spacing: -.03em;">V</tspan><tspan x="101.47" y="0">CA</tspan></text>
      <text transform="translate(182.12 233.11) scale(.83 1)" style="fill: #fff; font-family: GillSans-Bold, &apos;Gill Sans&apos;; font-size: 9.35px; font-weight: 700;"><tspan x="0" y="0" style="letter-spacing: -.01em;">T</tspan><tspan x="7.05" y="0">ime</tspan></text>
      <text transform="translate(83.04 233.11) scale(.83 1)" style="fill: #fff; font-family: GillSans-Bold, &apos;Gill Sans&apos;; font-size: 9.35px; font-weight: 700;"><tspan x="0" y="0" style="letter-spacing: -.01em;">T</tspan><tspan x="7.05" y="0">ime</tspan></text>
      <text transform="translate(203.86 264.79) scale(.83 1)" style="fill: #fff; font-family: GillSans-Bold, &apos;Gill Sans&apos;; font-size: 7.09px; font-weight: 700;"><tspan x="0" y="0" style="letter-spacing: -.01em;">F</tspan><tspan x="4.31" y="0">ol</tspan><tspan x="11.01" y="0" style="letter-spacing: -.01em;">lo</tspan><tspan x="17.52" y="0">w</tspan></text>
      <text transform="translate(213.69 342.83) scale(.83 1)" style="fill: #fff; font-family: GillSans-Bold, &apos;Gill Sans&apos;; font-size: 6.52px; font-weight: 700;"><tspan x="0" y="0" style="letter-spacing: -.03em;">V</tspan><tspan x="4.73" y="0">CA CV</tspan></text>
      <text transform="translate(51.15 342.83) scale(.83 1)" style="fill: #fff; font-family: GillSans-Bold, &apos;Gill Sans&apos;; font-size: 6.52px; font-weight: 700;"><tspan x="0" y="0" style="letter-spacing: -.03em;">V</tspan><tspan x="4.73" y="0">CA CV</tspan></text>
      <text transform="translate(261.52 262.12) scale(.83 1)" style="fill: #fff; font-family: GillSans-Bold, &apos;Gill Sans&apos;; font-size: 8px; font-weight: 700;"><tspan x="0" y="0">In</tspan></text>
      <text transform="translate(251.23 252.97) scale(.83 1)" style="fill: #fff; font-family: GillSans-Bold, &apos;Gill Sans&apos;; font-size: 8px; font-weight: 700;"><tspan x="0" y="0" style="letter-spacing: .01em;">A</tspan><tspan x="6.78" y="0">udio B</tspan></text>
      <text transform="translate(8.19 252.98) scale(.83 1)" style="fill: #fff; font-family: GillSans-Bold, &apos;Gill Sans&apos;; font-size: 8px; font-weight: 700;"><tspan x="0" y="0" style="letter-spacing: .01em;">A</tspan><tspan x="6.78" y="0">udio A</tspan></text>
      <text transform="translate(258.39 342.83) scale(.83 1)" style="font-family: GillSans-Bold, &apos;Gill Sans&apos;; font-size: 8px; font-weight: 700;"><tspan x="0" y="0">Out</tspan></text>
      <text transform="translate(18.77 262.13) scale(.83 1)" style="fill: #fff; font-family: GillSans-Bold, &apos;Gill Sans&apos;; font-size: 8px; font-weight: 700;"><tspan x="0" y="0">In</tspan></text>
      <text transform="translate(15.63 342.83) scale(.83 1)" style="font-family: GillSans-Bold, &apos;Gill Sans&apos;; font-size: 8px; font-weight: 700;"><tspan x="0" y="0">Out</tspan></text>
      <text transform="translate(160.62 338.05) scale(.83 1)" style="fill: #231f20; font-family: GillSans-Bold, &apos;Gill Sans&apos;; font-size: 6px; font-weight: 700;"><tspan x="0" y="0">Lin 5V</tspan></text>
      <text transform="translate(109.88 338.05) scale(.83 1)" style="fill: #231f20; font-family: GillSans-Bold, &apos;Gill Sans&apos;; font-size: 6px; font-weight: 700;"><tspan x="0" y="0">Lin 5V</tspan></text>
      <text transform="translate(139.52 306.31) scale(.83 1)" style="fill: #231f20; font-family: GillSans-Bold, &apos;Gill Sans&apos;; font-size: 6px; font-weight: 700;"><tspan x="0" y="0">OR</tspan></text>
      <text transform="translate(181.75 180.89) scale(.83 1)" style="fill: #fff; font-family: GillSans-Bold, &apos;Gill Sans&apos;; font-size: 9.35px; font-weight: 700;"><tspan x="0" y="0">Sh</tspan><tspan x="11.68" y="0" style="letter-spacing: .01em;">a</tspan><tspan x="17.15" y="0">pe</tspan></text>
      <text transform="translate(152.86 64.25) scale(.83 1)" style="fill: #fff; font-family: GillSans-Bold, &apos;Gill Sans&apos;; font-size: 8px; font-weight: 700;"><tspan x="0" y="0">Rise</tspan></text>
      <text transform="translate(187.11 64.25) scale(.83 1)" style="fill: #fff; font-family: GillSans-Bold, &apos;Gill Sans&apos;; font-size: 8px; font-weight: 700;"><tspan x="0" y="0" style="letter-spacing: .01em;">F</tspan><tspan x="5.09" y="0">all</tspan></text>
      <g>
        <polyline points="170.33 53.61 166.51 53.61 162.39 51.4" style="fill: none; stroke: #fff; stroke-width: .84px;"/>
        <polyline points="170.33 29.06 166.51 29.06 162.39 31.27" style="fill: none; stroke: #fff; stroke-width: .84px;"/>
        <polyline points="182.28 53.61 186.26 53.61 190.38 51.4" style="fill: none; stroke: #fff; stroke-width: .84px;"/>
        <polyline points="182.4 29.06 186.14 29.06 190.26 31.27" style="fill: none; stroke: #fff; stroke-width: .84px;"/>
        <text transform="translate(171.13 30.34) scale(.83 1)" style="fill: #fff; font-family: GillSans-SemiBold, &apos;Gill Sans&apos;; font-size: 6px; font-weight: 600;"><tspan x="0" y="0">Slow</tspan></text>
        <text transform="translate(171.92 54.69) scale(.83 1)" style="fill: #fff; font-family: GillSans-SemiBold, &apos;Gill Sans&apos;; font-size: 6px; font-weight: 600;"><tspan x="0" y="0">Fast</tspan></text>
        <text transform="translate(171.65 42.84) scale(.83 1)" style="fill: #fff; font-family: GillSans-SemiBold, &apos;Gill Sans&apos;; font-size: 6px; font-weight: 600;"><tspan x="0" y="0">Med</tspan></text>
      </g>
      <text transform="translate(171.09 80.95) scale(.83 1)" style="fill: #fff; font-family: GillSans-SemiBold, &apos;Gill Sans&apos;; font-size: 6px; font-weight: 600;"><tspan x="0" y="0">Slow</tspan></text>
      <text transform="translate(171.88 132.17) scale(.83 1)" style="fill: #fff; font-family: GillSans-SemiBold, &apos;Gill Sans&apos;; font-size: 6px; font-weight: 600;"><tspan x="0" y="0">Fast</tspan></text>
      <text transform="translate(219.78 65.08) scale(.83 1)" style="fill: #fff; font-family: GillSans-Bold, &apos;Gill Sans&apos;; font-size: 9.35px; font-weight: 700;"><tspan x="0" y="0" style="letter-spacing: -.03em;">T</tspan><tspan x="6.92" y="0" style="letter-spacing: -.04em;">r</tspan><tspan x="11.13" y="0">ig</tspan></text>
      <text transform="translate(258.79 63.84) scale(.83 1)" style="fill: #fff; font-family: GillSans-Bold, &apos;Gill Sans&apos;; font-size: 8px; font-weight: 700;"><tspan x="0" y="0">Cycle</tspan></text>
      <text transform="translate(252.9 152.82) scale(.83 1)" style="fill: #fff; font-family: GillSans-Bold, &apos;Gill Sans&apos;; font-size: 8px; font-weight: 700;"><tspan x="0" y="0">O</tspan><tspan x="6.81" y="0" style="letter-spacing: .03em;">f</tspan><tspan x="9.99" y="0" style="letter-spacing: 0em;">fset</tspan></text>
      <text transform="translate(254.45 109.65) scale(.83 1)" style="fill: #fff; font-family: GillSans-Bold, &apos;Gill Sans&apos;; font-size: 8px; font-weight: 700;"><tspan x="0" y="0">Le</tspan><tspan x="9.83" y="0" style="letter-spacing: -.01em;">v</tspan><tspan x="14.38" y="0">el</tspan></text>
      <text transform="translate(223.54 286.16) scale(.83 1)" style="font-family: GillSans-Bold, &apos;Gill Sans&apos;; font-size: 6px; font-weight: 700;"><tspan x="0" y="0">EOF</tspan></text>
      <text transform="translate(112.55 225.06) scale(.83 1)" style="fill: #fff; font-family: GillSans-Bold, &apos;Gill Sans&apos;; font-size: 7.09px; font-weight: 700;"><tspan x="0" y="0" style="letter-spacing: .01em;">F</tspan><tspan x="4.51" y="0">all</tspan></text>
      <text transform="translate(62.5 224.35) scale(.83 1)" style="fill: #fff; font-family: GillSans-Bold, &apos;Gill Sans&apos;; font-size: 7.09px; font-weight: 700;"><tspan x="0" y="0">Rise</tspan></text>
      <text transform="translate(11.68 206.16) scale(.83 1)" style="fill: #fff; font-family: GillSans-Bold, &apos;Gill Sans&apos;; font-size: 9.35px; font-weight: 700;"><tspan x="0" y="0">Sh</tspan><tspan x="11.68" y="0" style="letter-spacing: .01em;">a</tspan><tspan x="17.15" y="0">pe</tspan></text>
      <text transform="translate(251.52 207.43) scale(.83 1)" style="fill: #fff; font-family: GillSans-Bold, &apos;Gill Sans&apos;; font-size: 9.35px; font-weight: 700;"><tspan x="0" y="0">Sh</tspan><tspan x="11.68" y="0" style="letter-spacing: .01em;">a</tspan><tspan x="17.15" y="0">pe</tspan></text>
      <text transform="translate(63.74 266) scale(.83 1)" style="fill: #fff; font-family: GillSans-Bold, &apos;Gill Sans&apos;; font-size: 7.09px; font-weight: 700;"><tspan x="0" y="0" style="letter-spacing: -.01em;">F</tspan><tspan x="4.31" y="0">ol</tspan><tspan x="11.01" y="0" style="letter-spacing: -.01em;">lo</tspan><tspan x="17.52" y="0">w</tspan></text>
      <text transform="translate(105.95 308.54) scale(.83 1)" style="fill: #231f20; font-family: GillSans-Bold, &apos;Gill Sans&apos;; font-size: 8px; font-weight: 700;"><tspan x="0" y="0">ENV A</tspan></text>
      <text transform="translate(160.02 308.54) scale(.83 1)" style="fill: #231f20; font-family: GillSans-Bold, &apos;Gill Sans&apos;; font-size: 8px; font-weight: 700;"><tspan x="0" y="0">ENV B</tspan></text>
      <text transform="translate(81.46 180.89) scale(.83 1)" style="fill: #fff; font-family: GillSans-Bold, &apos;Gill Sans&apos;; font-size: 9.35px; font-weight: 700;"><tspan x="0" y="0">Sh</tspan><tspan x="11.68" y="0" style="letter-spacing: .01em;">a</tspan><tspan x="17.15" y="0">pe</tspan></text>
      <text transform="translate(121.02 64.25) scale(.83 1)" style="fill: #fff; font-family: GillSans-Bold, &apos;Gill Sans&apos;; font-size: 8px; font-weight: 700;"><tspan x="0" y="0" style="letter-spacing: .01em;">F</tspan><tspan x="5.09" y="0">all</tspan></text>
      <text transform="translate(86.77 64.25) scale(.83 1)" style="fill: #fff; font-family: GillSans-Bold, &apos;Gill Sans&apos;; font-size: 8px; font-weight: 700;"><tspan x="0" y="0">Rise</tspan></text>
      <g>
        <g>
          <polyline points="116.68 53.61 120.49 53.61 124.61 51.4" style="fill: none; stroke: #fff; stroke-width: .84px;"/>
          <polyline points="116.68 29.06 120.49 29.06 124.61 31.27" style="fill: none; stroke: #fff; stroke-width: .84px;"/>
          <polyline points="104.73 53.61 100.75 53.61 96.63 51.4" style="fill: none; stroke: #fff; stroke-width: .84px;"/>
          <polyline points="104.61 29.06 100.87 29.06 96.75 31.27" style="fill: none; stroke: #fff; stroke-width: .84px;"/>
        </g>
        <text transform="translate(105.37 30.34) scale(.83 1)" style="fill: #fff; font-family: GillSans-SemiBold, &apos;Gill Sans&apos;; font-size: 6px; font-weight: 600;"><tspan x="0" y="0">Slow</tspan></text>
        <text transform="translate(106.16 54.69) scale(.83 1)" style="fill: #fff; font-family: GillSans-SemiBold, &apos;Gill Sans&apos;; font-size: 6px; font-weight: 600;"><tspan x="0" y="0">Fast</tspan></text>
        <text transform="translate(105.9 42.84) scale(.83 1)" style="fill: #fff; font-family: GillSans-SemiBold, &apos;Gill Sans&apos;; font-size: 6px; font-weight: 600;"><tspan x="0" y="0">Med</tspan></text>
      </g>
      <text transform="translate(105.41 80.95) scale(.83 1)" style="fill: #fff; font-family: GillSans-SemiBold, &apos;Gill Sans&apos;; font-size: 6px; font-weight: 600;"><tspan x="0" y="0">Slow</tspan></text>
      <text transform="translate(106.2 132.17) scale(.83 1)" style="fill: #fff; font-family: GillSans-SemiBold, &apos;Gill Sans&apos;; font-size: 6px; font-weight: 600;"><tspan x="0" y="0">Fast</tspan></text>
      <text transform="translate(51.24 65.08) scale(.83 1)" style="fill: #fff; font-family: GillSans-Bold, &apos;Gill Sans&apos;; font-size: 9.35px; font-weight: 700;"><tspan x="0" y="0" style="letter-spacing: -.03em;">T</tspan><tspan x="6.92" y="0" style="letter-spacing: -.04em;">r</tspan><tspan x="11.13" y="0">ig</tspan></text>
      <text transform="translate(10.02 63.84) scale(.83 1)" style="fill: #fff; font-family: GillSans-Bold, &apos;Gill Sans&apos;; font-size: 8px; font-weight: 700;"><tspan x="0" y="0">Cycle</tspan></text>
      <text transform="translate(13.07 152.82) scale(.83 1)" style="fill: #fff; font-family: GillSans-Bold, &apos;Gill Sans&apos;; font-size: 8px; font-weight: 700;"><tspan x="0" y="0">O</tspan><tspan x="6.81" y="0" style="letter-spacing: .03em;">f</tspan><tspan x="9.99" y="0" style="letter-spacing: 0em;">fset</tspan></text>
      <text transform="translate(14.62 109.65) scale(.83 1)" style="fill: #fff; font-family: GillSans-Bold, &apos;Gill Sans&apos;; font-size: 8px; font-weight: 700;"><tspan x="0" y="0">Le</tspan><tspan x="9.83" y="0" style="letter-spacing: -.01em;">v</tspan><tspan x="14.38" y="0">el</tspan></text>
      <text transform="translate(52.6 286.16) scale(.83 1)" style="font-family: GillSans-Bold, &apos;Gill Sans&apos;; font-size: 6px; font-weight: 700;"><tspan x="0" y="0">EOR</tspan></text>
      <g>
        <line x1="241.56" y1="287.17" x2="245.2" y2="287.18" style="fill: none; stroke: #fff; stroke-miterlimit: 10; stroke-width: 1px;"/>
        <polygon points="244.46 289.68 248.78 287.19 244.47 284.69 244.46 289.68" style="fill: #fff;"/>
      </g>
      <text transform="translate(237.5 289.43) scale(.83 1)" style="fill: #fff; font-family: GillSans-Bold, &apos;Gill Sans&apos;; font-size: 5.67px; font-weight: 700;"><tspan x="0" y="0">A</tspan></text>
    </g>
  </g>
  <g id="components">
    <circle id="Out_B" data-name="Out B" cx="264.88" cy="323.06" r="11.34" style="fill: blue;"/>
    <circle id="VCA_CV_B" data-name="VCA CV B" cx="224.77" cy="323.06" r="11.34" style="fill: lime;"/>
    <circle id="Lin_5V_B" data-name="Lin 5V B" cx="184.13" cy="323.06" r="11.34" style="fill: blue;"/>
    <circle id="OR" cx="143.5" cy="323.06" r="11.34" style="fill: blue;"/>
    <circle id="Lin_5V_A" data-name="Lin 5V A" cx="102.87" cy="323.06" r="11.34" style="fill: blue;"/>
    <circle id="VCA_CV_A" data-name="VCA CV A" cx="62.24" cy="323.06" r="11.34" style="fill: lime;"/>
    <circle id="Out_A" data-name="Out A" cx="22.13" cy="323.06" r="11.34" style="fill: blue;"/>
    <circle id="Audio_B_In" data-name="Audio B In" cx="264.88" cy="280.66" r="11.34" style="fill: lime;"/>
    <circle id="EOF_B_LED" data-name="EOF B LED" cx="236.01" cy="275.79" r="4.96" style="fill: #f0f;"/>
    <circle id="EOF_B" data-name="EOF B" cx="209.54" cy="286.09" r="11.34" style="fill: #8080ff;"/>
    <circle id="Env_B_Out" data-name="Env B Out" cx="165.48" cy="286.16" r="11.34" style="fill: blue;"/>
    <circle id="Env_A_Out" data-name="Env A Out" cx="121.52" cy="286.16" r="11.34" style="fill: blue;"/>
    <circle id="EOR_A" data-name="EOR A" cx="77.47" cy="286.09" r="11.34" style="fill: #8080ff;"/>
    <circle id="EOR_A_LED" data-name="EOR A LED" cx="50.99" cy="275.79" r="4.96" style="fill: #f0f;"/>
    <circle id="Audio_A_In" data-name="Audio A In" cx="22.13" cy="280.66" r="11.34" style="fill: lime;"/>
    <circle id="Follow_B" data-name="Follow B" cx="232.3" cy="251.52" r="11.34" style="fill: lime;"/>
    <circle id="Time_CV_B" data-name="Time CV B" cx="185.42" cy="249.1" r="11.34" style="fill: lime;"/>
    <circle id="Env_B_LED" data-name="Env B LED" cx="153.41" cy="263.06" r="4.96" style="fill: #f0f;"/>
    <circle id="Env_A_LED" data-name="Env A LED" cx="133.59" cy="263.06" r="4.96" style="fill: #f0f;"/>
    <circle id="Time_CV_A" data-name="Time CV A" cx="101.59" cy="249.1" r="11.34" style="fill: lime;"/>
    <circle id="Follow_A" data-name="Follow A" cx="54.71" cy="251.52" r="11.34" style="fill: lime;"/>
    <circle id="Shape_CV_B" data-name="Shape CV B" cx="263.42" cy="224.47" r="11.34" style="fill: lime;"/>
    <circle id="Fall_B" data-name="Fall B" cx="218.26" cy="206.72" r="8.5" style="fill: #ff0080;"/>
    <circle id="Fall_LED_B" data-name="Fall LED B" cx="198.15" cy="219.09" r="4.96" style="fill: #f0f;"/>
    <circle id="Rise_LED_B" data-name="Rise LED B" cx="188.93" cy="196.34" r="4.96" style="fill: #f0f;"/>
    <circle id="Rise_B" data-name="Rise B" cx="169.15" cy="206.72" r="8.5" style="fill: #ff0080;"/>
    <circle id="Fall_A" data-name="Fall A" cx="117.86" cy="206.72" r="8.5" style="fill: #ff0080;"/>
    <circle id="Fall_LED_A" data-name="Fall LED A" cx="98.07" cy="219.09" r="4.96" style="fill: #f0f;"/>
    <circle id="Rise_LED_A" data-name="Rise LED A" cx="88.86" cy="196.34" r="4.96" style="fill: #f0f;"/>
    <circle id="Rise_A" data-name="Rise A" cx="68.74" cy="206.72" r="8.5" style="fill: #ff0080;"/>
    <circle id="Shape_CV_A" data-name="Shape CV A" cx="23.59" cy="224.47" r="11.34" style="fill: lime;"/>
    <circle id="Shape_B" data-name="Shape B" cx="263.45" cy="179.21" r="8.5" style="fill: #ff0080;"/>
    <circle id="Shape_LED_B_RGB_" data-name="Shape LED B (RGB)" cx="235.49" cy="151.05" r="4.96" style="fill: #f0f;"/>
    <rect id="Shape_B_Slider" data-name="Shape B Slider" x="190.81" y="130.24" width="5.67" height="76.54" transform="translate(25.14 362.16) rotate(-90)" style="fill: #ff0040;"/>
    <rect id="Shape_A_Slider" data-name="Shape A Slider" x="90.52" y="130.25" width="5.67" height="76.54" transform="translate(-75.16 261.88) rotate(-90)" style="fill: #ff0040;"/>
    <circle id="Shape_LED_A_RGB_" data-name="Shape LED A (RGB)" cx="53.02" cy="150.13" r="4.96" style="fill: #f0f;"/>
    <circle id="Shape_A" data-name="Shape A" cx="23.59" cy="179.21" r="8.5" style="fill: #ff0080;"/>
    <circle id="Offset_B" data-name="Offset B" cx="263.42" cy="132.63" r="8.5" style="fill: #ff0040;"/>
    <circle id="Offset_A" data-name="Offset A" cx="23.67" cy="132.68" r="8.5" style="fill: #ff0040;"/>
    <circle id="Level_B" data-name="Level B" cx="263.62" cy="86.05" r="8.5" style="fill: #ff0080;"/>
    <rect id="Cycle_AR_ASR_B" data-name="Cycle AR ASR B" x="219.76" y="88.13" width="11.34" height="17.01" style="fill: #ffc080;"/>
    <rect id="Fall_B_Slider" data-name="Fall B Slider" x="189.51" y="66.51" width="5.67" height="76.54" style="fill: #ff0040;"/>
    <rect id="Rise_A_Slider" data-name="Rise A Slider" x="157.11" y="66.51" width="5.67" height="76.54" style="fill: #ff0040;"/>
    <rect id="Fall_A_Slider" data-name="Fall A Slider" x="124.23" y="66.51" width="5.67" height="76.54" style="fill: #ff0040;"/>
    <rect id="Rise_A_Slider-2" data-name="Rise A Slider" x="91.83" y="66.51" width="5.67" height="76.54" style="fill: #ff0040;"/>
    <rect id="Cycle_AR_ASR_A" data-name="Cycle AR ASR A" x="55.91" y="88.13" width="11.34" height="17.01" style="fill: #ffc080;"/>
    <circle id="Level_A" data-name="Level A" cx="23.59" cy="86.1" r="8.5" style="fill: #ff0080;"/>
    <circle id="Cycle_B" data-name="Cycle B" cx="267.89" cy="41.55" r="11.34" style="fill: #ff8000;"/>
    <circle id="Trig_B" data-name="Trig B" cx="227.77" cy="41.53" r="11.34" style="fill: #80ff80;"/>
    <rect id="Slow_Med_Fast_Fall_B" data-name="Slow Med Fast Fall B" x="187.16" y="32.78" width="11.34" height="17.01" style="fill: #ffc080;"/>
    <rect id="Slow_Med_Fast_Rise_B" data-name="Slow Med Fast Rise B" x="154.28" y="32.77" width="11.34" height="17.01" style="fill: #ffc080;"/>
    <rect id="Slow_Med_Fast_Fall_A" data-name="Slow Med Fast Fall A" x="121.39" y="32.77" width="11.34" height="17.01" style="fill: #ffc080;"/>
    <rect id="Slow_Med_Fast_Rise_A" data-name="Slow Med Fast Rise A" x="88.51" y="32.78" width="11.34" height="17.01" style="fill: #ffc080;"/>
    <circle id="Trig_A" data-name="Trig A" cx="59.23" cy="41.53" r="11.34" style="fill: #80ff80;"/>
    <circle id="Cycle_A" data-name="Cycle A" cx="21.16" cy="41.89" r="11.34" style="fill: #ff8000;"/>
    <text id="slug" transform="translate(203.12 373.41)" style="fill: #010101; font-family: MyriadPro-Regular, &apos;Myriad Pro&apos;; font-size: 6px;"><tspan x="0" y="0">SH</tspan><tspan x="6.87" y="0" style="letter-spacing: 0em;">E</tspan><tspan x="9.88" y="0">V</tspan></text>
    <text id="modulename" transform="translate(233.61 373.36)" style="fill: #010101; font-family: MyriadPro-Regular, &apos;Myriad Pro&apos;; font-size: 6px;"><tspan x="0" y="0">Shaped </tspan><tspan x="20.26" y="0" style="letter-spacing: 0em;">D</tspan><tspan x="24.27" y="0">ual E</tspan><tspan x="36.11" y="0" style="letter-spacing: -.01em;">n</tspan><tspan x="39.36" y="0">vV</tspan><tspan x="45.59" y="0" style="letter-spacing: 0em;">C</tspan><tspan x="49.1" y="0" style="letter-spacing: 0em;">A</tspan></text>
  </g>
</svg>